<?xml version="1.0" encoding="UTF-8"?>
<svg xmlns="http://www.w3.org/2000/svg" xmlns:xlink="http://www.w3.org/1999/xlink" width="351.085938" height="240.875" viewBox="0 0 351.085938 240.875" version="1.1">
<defs>
<clipPath id="clip1">
  <path d="M 80 9.601562 L 83 9.601562 L 83 190.800781 L 80 190.800781 Z M 80 9.601562 "/>
</clipPath>
<clipPath id="clip2">
  <path d="M 148 9.601562 L 150 9.601562 L 150 190.800781 L 148 190.800781 Z M 148 9.601562 "/>
</clipPath>
<clipPath id="clip3">
  <path d="M 216 9.601562 L 218 9.601562 L 218 190.800781 L 216 190.800781 Z M 216 9.601562 "/>
</clipPath>
<clipPath id="clip4">
  <path d="M 283 9.601562 L 286 9.601562 L 286 190.800781 L 283 190.800781 Z M 283 9.601562 "/>
</clipPath>
<clipPath id="clip5">
  <path d="M 69.546875 184 L 329.949219 184 L 329.949219 187 L 69.546875 187 Z M 69.546875 184 "/>
</clipPath>
<clipPath id="clip6">
  <path d="M 69.546875 142 L 329.949219 142 L 329.949219 145 L 69.546875 145 Z M 69.546875 142 "/>
</clipPath>
<clipPath id="clip7">
  <path d="M 69.546875 100 L 329.949219 100 L 329.949219 103 L 69.546875 103 Z M 69.546875 100 "/>
</clipPath>
<clipPath id="clip8">
  <path d="M 69.546875 59 L 329.949219 59 L 329.949219 61 L 69.546875 61 Z M 69.546875 59 "/>
</clipPath>
<clipPath id="clip9">
  <path d="M 69.546875 17 L 329.949219 17 L 329.949219 19 L 69.546875 19 Z M 69.546875 17 "/>
</clipPath>
</defs>
<g id="surface1">
<path style=" stroke:none;fill-rule:nonzero;fill:rgb(100%,100%,100%);fill-opacity:1;" d="M 69.546875 190.800781 L 329.949219 190.800781 L 329.949219 9.601562 L 69.546875 9.601562 Z M 69.546875 190.800781 "/>
<g clip-path="url(#clip1)" clip-rule="nonzero">
<path style="fill:none;stroke-width:0.8;stroke-linecap:square;stroke-linejoin:round;stroke:rgb(69.01961%,69.01961%,69.01961%);stroke-opacity:1;stroke-miterlimit:4;" d="M 61.037109 143.100586 L 61.037109 7.201172 " transform="matrix(1.333333,0,0,1.333333,0,0)"/>
</g>
<path style="fill:none;stroke-width:0.8;stroke-linecap:butt;stroke-linejoin:round;stroke:rgb(0%,0%,0%);stroke-opacity:1;stroke-miterlimit:4;" d="M -0.00110245 0.000579834 L -0.00110245 3.498627 " transform="matrix(1.333333,0,0,1.333333,81.384282,190.800008)"/>
<path style=" stroke:none;fill-rule:nonzero;fill:rgb(0%,0%,0%);fill-opacity:1;" d="M 72.96875 205.53125 L 81.316406 205.53125 L 81.316406 206.636719 L 72.96875 206.636719 Z M 72.96875 205.53125 "/>
<path style=" stroke:none;fill-rule:nonzero;fill:rgb(0%,0%,0%);fill-opacity:1;" d="M 85.285156 209.160156 L 89.875 209.160156 L 89.875 210.265625 L 83.707031 210.265625 L 83.707031 209.160156 C 84.203125 208.640625 84.882812 207.949219 85.746094 207.078125 C 86.605469 206.207031 87.148438 205.648438 87.371094 205.394531 C 87.789062 204.921875 88.085938 204.523438 88.25 204.195312 C 88.417969 203.867188 88.503906 203.542969 88.503906 203.226562 C 88.503906 202.710938 88.320312 202.289062 87.960938 201.964844 C 87.597656 201.636719 87.125 201.476562 86.542969 201.476562 C 86.128906 201.476562 85.695312 201.546875 85.238281 201.691406 C 84.78125 201.832031 84.289062 202.050781 83.769531 202.339844 L 83.769531 201.011719 C 84.300781 200.800781 84.792969 200.640625 85.253906 200.53125 C 85.714844 200.421875 86.136719 200.367188 86.519531 200.367188 C 87.523438 200.367188 88.328125 200.621094 88.925781 201.125 C 89.523438 201.628906 89.824219 202.300781 89.824219 203.140625 C 89.824219 203.542969 89.75 203.921875 89.597656 204.277344 C 89.449219 204.636719 89.179688 205.058594 88.78125 205.542969 C 88.675781 205.671875 88.328125 206.035156 87.746094 206.636719 C 87.167969 207.238281 86.347656 208.078125 85.285156 209.160156 Z M 85.285156 209.160156 "/>
<g clip-path="url(#clip2)" clip-rule="nonzero">
<path style="fill:none;stroke-width:0.8;stroke-linecap:square;stroke-linejoin:round;stroke:rgb(69.01961%,69.01961%,69.01961%);stroke-opacity:1;stroke-miterlimit:4;" d="M 111.837891 143.100586 L 111.837891 7.201172 " transform="matrix(1.333333,0,0,1.333333,0,0)"/>
</g>
<path style="fill:none;stroke-width:0.8;stroke-linecap:butt;stroke-linejoin:round;stroke:rgb(0%,0%,0%);stroke-opacity:1;stroke-miterlimit:4;" d="M -0.000167847 0.000579834 L -0.000167847 3.498627 " transform="matrix(1.333333,0,0,1.333333,149.117411,190.800008)"/>
<path style=" stroke:none;fill-rule:nonzero;fill:rgb(0%,0%,0%);fill-opacity:1;" d="M 149.113281 201.410156 C 148.4375 201.410156 147.929688 201.742188 147.585938 202.410156 C 147.246094 203.074219 147.074219 204.078125 147.074219 205.414062 C 147.074219 206.746094 147.246094 207.746094 147.585938 208.414062 C 147.929688 209.078125 148.4375 209.414062 149.113281 209.414062 C 149.796875 209.414062 150.304688 209.078125 150.648438 208.414062 C 150.988281 207.746094 151.160156 206.746094 151.160156 205.414062 C 151.160156 204.078125 150.988281 203.074219 150.648438 202.410156 C 150.304688 201.742188 149.796875 201.410156 149.113281 201.410156 Z M 149.113281 200.367188 C 150.203125 200.367188 151.035156 200.800781 151.609375 201.664062 C 152.1875 202.523438 152.472656 203.773438 152.472656 205.414062 C 152.472656 207.050781 152.1875 208.300781 151.609375 209.164062 C 151.035156 210.023438 150.203125 210.453125 149.113281 210.453125 C 148.023438 210.453125 147.191406 210.023438 146.617188 209.164062 C 146.042969 208.300781 145.753906 207.050781 145.753906 205.414062 C 145.753906 203.773438 146.042969 202.523438 146.617188 201.664062 C 147.191406 200.800781 148.023438 200.367188 149.113281 200.367188 Z M 149.113281 200.367188 "/>
<g clip-path="url(#clip3)" clip-rule="nonzero">
<path style="fill:none;stroke-width:0.8;stroke-linecap:square;stroke-linejoin:round;stroke:rgb(69.01961%,69.01961%,69.01961%);stroke-opacity:1;stroke-miterlimit:4;" d="M 162.638672 143.100586 L 162.638672 7.201172 " transform="matrix(1.333333,0,0,1.333333,0,0)"/>
</g>
<path style="fill:none;stroke-width:0.8;stroke-linecap:butt;stroke-linejoin:round;stroke:rgb(0%,0%,0%);stroke-opacity:1;stroke-miterlimit:4;" d="M 0.000778198 0.000579834 L 0.000778198 3.498627 " transform="matrix(1.333333,0,0,1.333333,216.850525,190.800008)"/>
<path style=" stroke:none;fill-rule:nonzero;fill:rgb(0%,0%,0%);fill-opacity:1;" d="M 215.167969 209.160156 L 219.757812 209.160156 L 219.757812 210.265625 L 213.585938 210.265625 L 213.585938 209.160156 C 214.085938 208.640625 214.765625 207.949219 215.625 207.078125 C 216.488281 206.207031 217.03125 205.648438 217.25 205.394531 C 217.671875 204.921875 217.964844 204.523438 218.132812 204.195312 C 218.300781 203.867188 218.382812 203.542969 218.382812 203.226562 C 218.382812 202.710938 218.203125 202.289062 217.839844 201.964844 C 217.476562 201.636719 217.003906 201.476562 216.421875 201.476562 C 216.011719 201.476562 215.574219 201.546875 215.117188 201.691406 C 214.660156 201.832031 214.171875 202.050781 213.652344 202.339844 L 213.652344 201.011719 C 214.179688 200.800781 214.675781 200.640625 215.132812 200.53125 C 215.59375 200.421875 216.015625 200.367188 216.398438 200.367188 C 217.40625 200.367188 218.207031 200.621094 218.808594 201.125 C 219.40625 201.628906 219.703125 202.300781 219.703125 203.140625 C 219.703125 203.542969 219.628906 203.921875 219.480469 204.277344 C 219.332031 204.636719 219.058594 205.058594 218.664062 205.542969 C 218.554688 205.671875 218.210938 206.035156 217.628906 206.636719 C 217.046875 207.238281 216.226562 208.078125 215.167969 209.160156 Z M 215.167969 209.160156 "/>
<g clip-path="url(#clip4)" clip-rule="nonzero">
<path style="fill:none;stroke-width:0.8;stroke-linecap:square;stroke-linejoin:round;stroke:rgb(69.01961%,69.01961%,69.01961%);stroke-opacity:1;stroke-miterlimit:4;" d="M 213.436523 143.100586 L 213.436523 7.201172 " transform="matrix(1.333333,0,0,1.333333,0,0)"/>
</g>
<path style="fill:none;stroke-width:0.8;stroke-linecap:butt;stroke-linejoin:round;stroke:rgb(0%,0%,0%);stroke-opacity:1;stroke-miterlimit:4;" d="M -0.0012207 0.000579834 L -0.0012207 3.498627 " transform="matrix(1.333333,0,0,1.333333,284.583659,190.800008)"/>
<path style=" stroke:none;fill-rule:nonzero;fill:rgb(0%,0%,0%);fill-opacity:1;" d="M 285.382812 201.691406 L 282.0625 206.878906 L 285.382812 206.878906 Z M 285.035156 200.542969 L 286.691406 200.542969 L 286.691406 206.878906 L 288.078125 206.878906 L 288.078125 207.972656 L 286.691406 207.972656 L 286.691406 210.265625 L 285.382812 210.265625 L 285.382812 207.972656 L 280.992188 207.972656 L 280.992188 206.703125 Z M 285.035156 200.542969 "/>
<path style=" stroke:none;fill-rule:nonzero;fill:rgb(0%,0%,0%);fill-opacity:1;" d="M 203.121094 221.210938 L 200.484375 224.757812 L 203.257812 228.503906 L 201.84375 228.503906 L 199.722656 225.636719 L 197.601562 228.503906 L 196.183594 228.503906 L 199.019531 224.6875 L 196.425781 221.210938 L 197.839844 221.210938 L 199.773438 223.808594 L 201.707031 221.210938 Z M 203.121094 221.210938 "/>
<g clip-path="url(#clip5)" clip-rule="nonzero">
<path style="fill:none;stroke-width:0.8;stroke-linecap:square;stroke-linejoin:round;stroke:rgb(69.01961%,69.01961%,69.01961%);stroke-opacity:1;stroke-miterlimit:4;" d="M 52.160156 139.186523 L 247.461914 139.186523 " transform="matrix(1.333333,0,0,1.333333,0,0)"/>
</g>
<path style="fill:none;stroke-width:0.8;stroke-linecap:butt;stroke-linejoin:round;stroke:rgb(0%,0%,0%);stroke-opacity:1;stroke-miterlimit:4;" d="M -0.000782013 0.000869751 L -3.498829 0.000869751 " transform="matrix(1.333333,0,0,1.333333,69.547918,185.580872)"/>
<path style=" stroke:none;fill-rule:nonzero;fill:rgb(0%,0%,0%);fill-opacity:1;" d="M 29.25 185.914062 L 37.597656 185.914062 L 37.597656 187.019531 L 29.25 187.019531 Z M 29.25 185.914062 "/>
<path style=" stroke:none;fill-rule:nonzero;fill:rgb(0%,0%,0%);fill-opacity:1;" d="M 40.664062 189.539062 L 42.8125 189.539062 L 42.8125 182.125 L 40.472656 182.59375 L 40.472656 181.394531 L 42.800781 180.925781 L 44.113281 180.925781 L 44.113281 189.539062 L 46.261719 189.539062 L 46.261719 190.648438 L 40.664062 190.648438 Z M 40.664062 189.539062 "/>
<path style=" stroke:none;fill-rule:nonzero;fill:rgb(0%,0%,0%);fill-opacity:1;" d="M 48.917969 188.992188 L 50.292969 188.992188 L 50.292969 190.648438 L 48.917969 190.648438 Z M 48.917969 188.992188 "/>
<path style=" stroke:none;fill-rule:nonzero;fill:rgb(0%,0%,0%);fill-opacity:1;" d="M 55.96875 181.792969 C 55.292969 181.792969 54.78125 182.125 54.441406 182.792969 C 54.101562 183.457031 53.929688 184.457031 53.929688 185.796875 C 53.929688 187.128906 54.101562 188.128906 54.441406 188.792969 C 54.78125 189.460938 55.292969 189.792969 55.96875 189.792969 C 56.648438 189.792969 57.160156 189.460938 57.5 188.792969 C 57.84375 188.128906 58.015625 187.128906 58.015625 185.796875 C 58.015625 184.457031 57.84375 183.457031 57.5 182.792969 C 57.160156 182.125 56.648438 181.792969 55.96875 181.792969 Z M 55.96875 180.75 C 57.058594 180.75 57.890625 181.183594 58.464844 182.042969 C 59.042969 182.90625 59.328125 184.15625 59.328125 185.796875 C 59.328125 187.433594 59.042969 188.683594 58.464844 189.542969 C 57.890625 190.40625 57.058594 190.835938 55.96875 190.835938 C 54.878906 190.835938 54.046875 190.40625 53.472656 189.542969 C 52.898438 188.683594 52.609375 187.433594 52.609375 185.796875 C 52.609375 184.15625 52.898438 182.90625 53.472656 182.042969 C 54.046875 181.183594 54.878906 180.75 55.96875 180.75 Z M 55.96875 180.75 "/>
<g clip-path="url(#clip6)" clip-rule="nonzero">
<path style="fill:none;stroke-width:0.8;stroke-linecap:square;stroke-linejoin:round;stroke:rgb(69.01961%,69.01961%,69.01961%);stroke-opacity:1;stroke-miterlimit:4;" d="M 52.160156 107.733398 L 247.461914 107.733398 " transform="matrix(1.333333,0,0,1.333333,0,0)"/>
</g>
<path style="fill:none;stroke-width:0.8;stroke-linecap:butt;stroke-linejoin:round;stroke:rgb(0%,0%,0%);stroke-opacity:1;stroke-miterlimit:4;" d="M -0.000782013 0.00130463 L -3.498829 0.00130463 " transform="matrix(1.333333,0,0,1.333333,69.547918,143.642792)"/>
<path style=" stroke:none;fill-rule:nonzero;fill:rgb(0%,0%,0%);fill-opacity:1;" d="M 29.25 143.976562 L 37.597656 143.976562 L 37.597656 145.082031 L 29.25 145.082031 Z M 29.25 143.976562 "/>
<path style=" stroke:none;fill-rule:nonzero;fill:rgb(0%,0%,0%);fill-opacity:1;" d="M 43.246094 139.855469 C 42.570312 139.855469 42.0625 140.1875 41.71875 140.855469 C 41.378906 141.519531 41.210938 142.519531 41.210938 143.859375 C 41.210938 145.191406 41.378906 146.191406 41.71875 146.855469 C 42.0625 147.523438 42.570312 147.855469 43.246094 147.855469 C 43.929688 147.855469 44.441406 147.523438 44.78125 146.855469 C 45.121094 146.191406 45.292969 145.191406 45.292969 143.859375 C 45.292969 142.519531 45.121094 141.519531 44.78125 140.855469 C 44.441406 140.1875 43.929688 139.855469 43.246094 139.855469 Z M 43.246094 138.8125 C 44.335938 138.8125 45.167969 139.242188 45.746094 140.105469 C 46.320312 140.96875 46.605469 142.21875 46.605469 143.859375 C 46.605469 145.496094 46.320312 146.742188 45.746094 147.605469 C 45.167969 148.46875 44.335938 148.898438 43.246094 148.898438 C 42.15625 148.898438 41.324219 148.46875 40.75 147.605469 C 40.175781 146.742188 39.886719 145.496094 39.886719 143.859375 C 39.886719 142.21875 40.175781 140.96875 40.75 140.105469 C 41.324219 139.242188 42.15625 138.8125 43.246094 138.8125 Z M 43.246094 138.8125 "/>
<path style=" stroke:none;fill-rule:nonzero;fill:rgb(0%,0%,0%);fill-opacity:1;" d="M 48.917969 147.054688 L 50.292969 147.054688 L 50.292969 148.707031 L 48.917969 148.707031 Z M 48.917969 147.054688 "/>
<path style=" stroke:none;fill-rule:nonzero;fill:rgb(0%,0%,0%);fill-opacity:1;" d="M 53.171875 138.988281 L 58.332031 138.988281 L 58.332031 140.097656 L 54.375 140.097656 L 54.375 142.476562 C 54.566406 142.410156 54.753906 142.363281 54.945312 142.332031 C 55.136719 142.300781 55.328125 142.285156 55.519531 142.285156 C 56.605469 142.285156 57.464844 142.582031 58.097656 143.175781 C 58.730469 143.769531 59.050781 144.574219 59.050781 145.589844 C 59.050781 146.636719 58.722656 147.449219 58.074219 148.027344 C 57.421875 148.609375 56.503906 148.898438 55.316406 148.898438 C 54.910156 148.898438 54.492188 148.863281 54.070312 148.792969 C 53.648438 148.722656 53.210938 148.621094 52.761719 148.480469 L 52.761719 147.160156 C 53.148438 147.371094 53.554688 147.527344 53.96875 147.632812 C 54.386719 147.738281 54.828125 147.789062 55.292969 147.789062 C 56.042969 147.789062 56.636719 147.59375 57.074219 147.199219 C 57.511719 146.804688 57.734375 146.265625 57.734375 145.589844 C 57.734375 144.914062 57.511719 144.378906 57.074219 143.984375 C 56.636719 143.585938 56.042969 143.390625 55.292969 143.390625 C 54.941406 143.390625 54.589844 143.429688 54.238281 143.507812 C 53.890625 143.585938 53.535156 143.707031 53.171875 143.871094 Z M 53.171875 138.988281 "/>
<g clip-path="url(#clip7)" clip-rule="nonzero">
<path style="fill:none;stroke-width:0.8;stroke-linecap:square;stroke-linejoin:round;stroke:rgb(69.01961%,69.01961%,69.01961%);stroke-opacity:1;stroke-miterlimit:4;" d="M 52.160156 76.277344 L 247.461914 76.277344 " transform="matrix(1.333333,0,0,1.333333,0,0)"/>
</g>
<path style="fill:none;stroke-width:0.8;stroke-linecap:butt;stroke-linejoin:round;stroke:rgb(0%,0%,0%);stroke-opacity:1;stroke-miterlimit:4;" d="M -0.000782013 -0.00120544 L -3.498829 -0.00120544 " transform="matrix(1.333333,0,0,1.333333,69.547918,101.704732)"/>
<path style=" stroke:none;fill-rule:nonzero;fill:rgb(0%,0%,0%);fill-opacity:1;" d="M 43.246094 97.917969 C 42.570312 97.917969 42.0625 98.25 41.722656 98.917969 C 41.378906 99.582031 41.210938 100.582031 41.210938 101.921875 C 41.210938 103.253906 41.378906 104.25 41.722656 104.917969 C 42.0625 105.585938 42.570312 105.917969 43.246094 105.917969 C 43.929688 105.917969 44.441406 105.585938 44.78125 104.917969 C 45.121094 104.25 45.292969 103.253906 45.292969 101.921875 C 45.292969 100.582031 45.121094 99.582031 44.78125 98.917969 C 44.441406 98.25 43.929688 97.917969 43.246094 97.917969 Z M 43.246094 96.875 C 44.339844 96.875 45.171875 97.304688 45.746094 98.167969 C 46.320312 99.03125 46.609375 100.28125 46.609375 101.921875 C 46.609375 103.554688 46.320312 104.804688 45.746094 105.667969 C 45.171875 106.53125 44.339844 106.960938 43.246094 106.960938 C 42.160156 106.960938 41.328125 106.53125 40.753906 105.667969 C 40.175781 104.804688 39.890625 103.554688 39.890625 101.921875 C 39.890625 100.28125 40.175781 99.03125 40.753906 98.167969 C 41.328125 97.304688 42.160156 96.875 43.246094 96.875 Z M 43.246094 96.875 "/>
<path style=" stroke:none;fill-rule:nonzero;fill:rgb(0%,0%,0%);fill-opacity:1;" d="M 48.917969 105.117188 L 50.292969 105.117188 L 50.292969 106.769531 L 48.917969 106.769531 Z M 48.917969 105.117188 "/>
<path style=" stroke:none;fill-rule:nonzero;fill:rgb(0%,0%,0%);fill-opacity:1;" d="M 55.96875 97.917969 C 55.292969 97.917969 54.785156 98.25 54.441406 98.917969 C 54.101562 99.582031 53.933594 100.582031 53.933594 101.921875 C 53.933594 103.253906 54.101562 104.25 54.441406 104.917969 C 54.785156 105.585938 55.292969 105.917969 55.96875 105.917969 C 56.652344 105.917969 57.164062 105.585938 57.503906 104.917969 C 57.84375 104.25 58.015625 103.253906 58.015625 101.921875 C 58.015625 100.582031 57.84375 99.582031 57.503906 98.917969 C 57.164062 98.25 56.652344 97.917969 55.96875 97.917969 Z M 55.96875 96.875 C 57.058594 96.875 57.890625 97.304688 58.46875 98.167969 C 59.042969 99.03125 59.328125 100.28125 59.328125 101.921875 C 59.328125 103.554688 59.042969 104.804688 58.46875 105.667969 C 57.890625 106.53125 57.058594 106.960938 55.96875 106.960938 C 54.878906 106.960938 54.046875 106.53125 53.472656 105.667969 C 52.898438 104.804688 52.609375 103.554688 52.609375 101.921875 C 52.609375 100.28125 52.898438 99.03125 53.472656 98.167969 C 54.046875 97.304688 54.878906 96.875 55.96875 96.875 Z M 55.96875 96.875 "/>
<g clip-path="url(#clip8)" clip-rule="nonzero">
<path style="fill:none;stroke-width:0.8;stroke-linecap:square;stroke-linejoin:round;stroke:rgb(69.01961%,69.01961%,69.01961%);stroke-opacity:1;stroke-miterlimit:4;" d="M 52.160156 44.824219 L 247.461914 44.824219 " transform="matrix(1.333333,0,0,1.333333,0,0)"/>
</g>
<path style="fill:none;stroke-width:0.8;stroke-linecap:butt;stroke-linejoin:round;stroke:rgb(0%,0%,0%);stroke-opacity:1;stroke-miterlimit:4;" d="M -0.000782013 -0.000778198 L -3.498829 -0.000778198 " transform="matrix(1.333333,0,0,1.333333,69.547918,59.766663)"/>
<path style=" stroke:none;fill-rule:nonzero;fill:rgb(0%,0%,0%);fill-opacity:1;" d="M 43.246094 55.976562 C 42.570312 55.976562 42.0625 56.3125 41.722656 56.976562 C 41.378906 57.644531 41.210938 58.644531 41.210938 59.980469 C 41.210938 61.3125 41.378906 62.3125 41.722656 62.980469 C 42.0625 63.648438 42.570312 63.980469 43.246094 63.980469 C 43.929688 63.980469 44.441406 63.648438 44.78125 62.980469 C 45.121094 62.3125 45.292969 61.3125 45.292969 59.980469 C 45.292969 58.644531 45.121094 57.644531 44.78125 56.976562 C 44.441406 56.3125 43.929688 55.976562 43.246094 55.976562 Z M 43.246094 54.9375 C 44.339844 54.9375 45.171875 55.367188 45.746094 56.230469 C 46.320312 57.089844 46.609375 58.34375 46.609375 59.980469 C 46.609375 61.617188 46.320312 62.867188 45.746094 63.730469 C 45.171875 64.589844 44.339844 65.023438 43.246094 65.023438 C 42.160156 65.023438 41.328125 64.589844 40.753906 63.730469 C 40.175781 62.867188 39.890625 61.617188 39.890625 59.980469 C 39.890625 58.34375 40.175781 57.089844 40.753906 56.230469 C 41.328125 55.367188 42.160156 54.9375 43.246094 54.9375 Z M 43.246094 54.9375 "/>
<path style=" stroke:none;fill-rule:nonzero;fill:rgb(0%,0%,0%);fill-opacity:1;" d="M 48.917969 63.179688 L 50.292969 63.179688 L 50.292969 64.832031 L 48.917969 64.832031 Z M 48.917969 63.179688 "/>
<path style=" stroke:none;fill-rule:nonzero;fill:rgb(0%,0%,0%);fill-opacity:1;" d="M 53.171875 55.113281 L 58.332031 55.113281 L 58.332031 56.21875 L 54.375 56.21875 L 54.375 58.601562 C 54.566406 58.535156 54.757812 58.488281 54.945312 58.457031 C 55.136719 58.421875 55.328125 58.40625 55.519531 58.40625 C 56.605469 58.40625 57.464844 58.703125 58.097656 59.300781 C 58.734375 59.894531 59.050781 60.699219 59.050781 61.714844 C 59.050781 62.757812 58.726562 63.574219 58.074219 64.152344 C 57.421875 64.730469 56.503906 65.023438 55.320312 65.023438 C 54.910156 65.023438 54.496094 64.988281 54.070312 64.917969 C 53.648438 64.847656 53.210938 64.742188 52.761719 64.605469 L 52.761719 63.28125 C 53.152344 63.496094 53.554688 63.652344 53.972656 63.757812 C 54.386719 63.863281 54.828125 63.914062 55.292969 63.914062 C 56.042969 63.914062 56.636719 63.714844 57.074219 63.320312 C 57.515625 62.925781 57.734375 62.390625 57.734375 61.714844 C 57.734375 61.039062 57.515625 60.5 57.074219 60.105469 C 56.636719 59.710938 56.042969 59.511719 55.292969 59.511719 C 54.941406 59.511719 54.589844 59.550781 54.238281 59.628906 C 53.890625 59.707031 53.535156 59.828125 53.171875 59.996094 Z M 53.171875 55.113281 "/>
<g clip-path="url(#clip9)" clip-rule="nonzero">
<path style="fill:none;stroke-width:0.8;stroke-linecap:square;stroke-linejoin:round;stroke:rgb(69.01961%,69.01961%,69.01961%);stroke-opacity:1;stroke-miterlimit:4;" d="M 52.160156 13.371094 L 247.461914 13.371094 " transform="matrix(1.333333,0,0,1.333333,0,0)"/>
</g>
<path style="fill:none;stroke-width:0.8;stroke-linecap:butt;stroke-linejoin:round;stroke:rgb(0%,0%,0%);stroke-opacity:1;stroke-miterlimit:4;" d="M -0.000782013 -0.000351906 L -3.498829 -0.000351906 " transform="matrix(1.333333,0,0,1.333333,69.547918,17.828594)"/>
<path style=" stroke:none;fill-rule:nonzero;fill:rgb(0%,0%,0%);fill-opacity:1;" d="M 40.664062 21.789062 L 42.8125 21.789062 L 42.8125 14.371094 L 40.476562 14.839844 L 40.476562 13.640625 L 42.800781 13.171875 L 44.113281 13.171875 L 44.113281 21.789062 L 46.261719 21.789062 L 46.261719 22.894531 L 40.664062 22.894531 Z M 40.664062 21.789062 "/>
<path style=" stroke:none;fill-rule:nonzero;fill:rgb(0%,0%,0%);fill-opacity:1;" d="M 48.917969 21.238281 L 50.292969 21.238281 L 50.292969 22.894531 L 48.917969 22.894531 Z M 48.917969 21.238281 "/>
<path style=" stroke:none;fill-rule:nonzero;fill:rgb(0%,0%,0%);fill-opacity:1;" d="M 55.96875 14.039062 C 55.292969 14.039062 54.785156 14.375 54.441406 15.039062 C 54.101562 15.707031 53.933594 16.707031 53.933594 18.042969 C 53.933594 19.375 54.101562 20.375 54.441406 21.042969 C 54.785156 21.707031 55.292969 22.042969 55.96875 22.042969 C 56.652344 22.042969 57.164062 21.707031 57.503906 21.042969 C 57.84375 20.375 58.015625 19.375 58.015625 18.042969 C 58.015625 16.707031 57.84375 15.707031 57.503906 15.039062 C 57.164062 14.375 56.652344 14.039062 55.96875 14.039062 Z M 55.96875 13 C 57.058594 13 57.890625 13.429688 58.46875 14.292969 C 59.042969 15.152344 59.328125 16.402344 59.328125 18.042969 C 59.328125 19.679688 59.042969 20.929688 58.46875 21.792969 C 57.890625 22.652344 57.058594 23.082031 55.96875 23.082031 C 54.878906 23.082031 54.046875 22.652344 53.472656 21.792969 C 52.898438 20.929688 52.609375 19.679688 52.609375 18.042969 C 52.609375 16.402344 52.898438 15.152344 53.472656 14.292969 C 54.046875 13.429688 54.878906 13 55.96875 13 Z M 55.96875 13 "/>
<path style=" stroke:none;fill-rule:nonzero;fill:rgb(0%,0%,0%);fill-opacity:1;" d="M 9.601562 106.746094 L 10.597656 106.746094 L 10.597656 107.894531 C 10.597656 108.320312 10.683594 108.621094 10.859375 108.789062 C 11.03125 108.957031 11.34375 109.039062 11.796875 109.039062 L 12.441406 109.039062 L 12.441406 107.066406 L 13.371094 107.066406 L 13.371094 109.039062 L 19.730469 109.039062 L 19.730469 110.242188 L 13.371094 110.242188 L 13.371094 111.386719 L 12.441406 111.386719 L 12.441406 110.242188 L 11.929688 110.242188 C 11.121094 110.242188 10.527344 110.054688 10.160156 109.675781 C 9.785156 109.296875 9.601562 108.699219 9.601562 107.878906 Z M 9.601562 106.746094 "/>
<path style=" stroke:none;fill-rule:nonzero;fill:rgb(0%,0%,0%);fill-opacity:1;" d="M 9.613281 102.867188 C 10.613281 103.449219 11.597656 103.878906 12.578125 104.164062 C 13.554688 104.445312 14.542969 104.585938 15.546875 104.585938 C 16.546875 104.585938 17.539062 104.445312 18.523438 104.160156 C 19.507812 103.875 20.496094 103.445312 21.488281 102.867188 L 21.488281 103.910156 C 20.46875 104.558594 19.464844 105.046875 18.480469 105.371094 C 17.496094 105.691406 16.519531 105.855469 15.546875 105.855469 C 14.578125 105.855469 13.601562 105.695312 12.621094 105.375 C 11.640625 105.050781 10.636719 104.5625 9.613281 103.910156 Z M 9.613281 102.867188 "/>
<path style=" stroke:none;fill-rule:nonzero;fill:rgb(0%,0%,0%);fill-opacity:1;" d="M 12.441406 94.480469 L 15.988281 97.117188 L 19.730469 94.34375 L 19.730469 95.757812 L 16.867188 97.878906 L 19.730469 100 L 19.730469 101.414062 L 15.917969 98.582031 L 12.441406 101.175781 L 12.441406 99.761719 L 15.039062 97.828125 L 12.441406 95.894531 Z M 12.441406 94.480469 "/>
<path style=" stroke:none;fill-rule:nonzero;fill:rgb(0%,0%,0%);fill-opacity:1;" d="M 9.613281 92.839844 L 9.613281 91.796875 C 10.636719 91.148438 11.640625 90.660156 12.621094 90.335938 C 13.601562 90.015625 14.578125 89.851562 15.546875 89.851562 C 16.519531 89.851562 17.496094 90.015625 18.480469 90.335938 C 19.464844 90.660156 20.46875 91.148438 21.488281 91.796875 L 21.488281 92.839844 C 20.496094 92.261719 19.507812 91.832031 18.523438 91.546875 C 17.539062 91.261719 16.546875 91.121094 15.546875 91.121094 C 14.542969 91.121094 13.554688 91.261719 12.578125 91.546875 C 11.597656 91.832031 10.613281 92.261719 9.613281 92.839844 Z M 9.613281 92.839844 "/>
<path style="fill:none;stroke-width:1.5;stroke-linecap:square;stroke-linejoin:round;stroke:rgb(12.156863%,46.666667%,70.588237%);stroke-opacity:1;stroke-miterlimit:4;" d="M 61.037109 136.921875 L 64.848633 136.151367 L 68.405273 135.199219 L 71.452148 134.162109 L 74.24707 132.987305 L 76.787109 131.695312 L 79.327148 130.157227 L 81.612305 128.52832 L 83.897461 126.635742 L 86.185547 124.450195 L 88.470703 121.942383 L 90.755859 119.085938 L 93.041016 115.857422 L 95.329102 112.239258 L 97.869141 107.765625 L 100.40918 102.820312 L 103.201172 96.878906 L 106.50293 89.296875 L 111.076172 78.164062 L 117.93457 61.464844 L 121.236328 54.008789 L 124.03125 48.208008 L 126.571289 43.400391 L 129.111328 39.067383 L 131.396484 35.581055 L 133.681641 32.478516 L 135.966797 29.742188 L 138.254883 27.342773 L 140.540039 25.259766 L 142.825195 23.458008 L 145.365234 21.75293 L 147.905273 20.317383 L 150.700195 19.007812 L 153.495117 17.932617 L 156.541992 16.989258 L 160.098633 16.125 L 164.162109 15.383789 L 168.732422 14.780273 L 174.322266 14.282227 L 181.180664 13.904297 L 190.579102 13.625977 L 204.802734 13.456055 L 233.25 13.379883 L 238.584961 13.376953 " transform="matrix(1.333333,0,0,1.333333,0,0)"/>
<path style="fill:none;stroke-width:0.8;stroke-linecap:square;stroke-linejoin:miter;stroke:rgb(0%,0%,0%);stroke-opacity:1;stroke-miterlimit:4;" d="M 52.160156 143.100586 L 52.160156 7.201172 " transform="matrix(1.333333,0,0,1.333333,0,0)"/>
<path style="fill:none;stroke-width:0.8;stroke-linecap:square;stroke-linejoin:miter;stroke:rgb(0%,0%,0%);stroke-opacity:1;stroke-miterlimit:4;" d="M 247.461914 143.100586 L 247.461914 7.201172 " transform="matrix(1.333333,0,0,1.333333,0,0)"/>
<path style="fill:none;stroke-width:0.8;stroke-linecap:square;stroke-linejoin:miter;stroke:rgb(0%,0%,0%);stroke-opacity:1;stroke-miterlimit:4;" d="M 52.160156 143.100586 L 247.461914 143.100586 " transform="matrix(1.333333,0,0,1.333333,0,0)"/>
<path style="fill:none;stroke-width:0.8;stroke-linecap:square;stroke-linejoin:miter;stroke:rgb(0%,0%,0%);stroke-opacity:1;stroke-miterlimit:4;" d="M 52.160156 7.201172 L 247.461914 7.201172 " transform="matrix(1.333333,0,0,1.333333,0,0)"/>
<path style="fill:none;stroke-width:1;stroke-linecap:round;stroke-linejoin:round;stroke:rgb(0%,0%,0%);stroke-opacity:1;stroke-miterlimit:4;" d="M 209.973633 64.68457 C 211.083984 48.246094 212.167969 32.176758 213.228516 16.482422 " transform="matrix(1.333333,0,0,1.333333,0,0)"/>
<path style="fill:none;stroke-width:1;stroke-linecap:round;stroke-linejoin:round;stroke:rgb(0%,0%,0%);stroke-opacity:1;stroke-miterlimit:4;" d="M 210.963867 20.337891 L 213.228516 16.482422 L 214.954102 20.607422 " transform="matrix(1.333333,0,0,1.333333,0,0)"/>
<path style=" stroke:none;fill-rule:nonzero;fill:rgb(0%,0%,0%);fill-opacity:1;" d="M 217.25 94.414062 L 218.515625 94.414062 L 220.796875 100.53125 L 223.074219 94.414062 L 224.34375 94.414062 L 221.609375 101.703125 L 219.980469 101.703125 Z M 217.25 94.414062 "/>
<path style=" stroke:none;fill-rule:nonzero;fill:rgb(0%,0%,0%);fill-opacity:1;" d="M 229.3125 98.039062 C 228.34375 98.039062 227.671875 98.152344 227.300781 98.371094 C 226.925781 98.59375 226.738281 98.96875 226.738281 99.503906 C 226.738281 99.929688 226.878906 100.265625 227.160156 100.515625 C 227.441406 100.765625 227.820312 100.890625 228.300781 100.890625 C 228.96875 100.890625 229.5 100.65625 229.902344 100.183594 C 230.304688 99.714844 230.503906 99.085938 230.503906 98.308594 L 230.503906 98.039062 Z M 231.703125 97.542969 L 231.703125 101.703125 L 230.503906 101.703125 L 230.503906 100.597656 C 230.230469 101.039062 229.890625 101.367188 229.480469 101.578125 C 229.074219 101.789062 228.574219 101.894531 227.984375 101.894531 C 227.238281 101.894531 226.644531 101.683594 226.203125 101.265625 C 225.761719 100.847656 225.542969 100.285156 225.542969 99.582031 C 225.542969 98.761719 225.816406 98.144531 226.363281 97.726562 C 226.914062 97.3125 227.734375 97.101562 228.824219 97.101562 L 230.503906 97.101562 L 230.503906 96.984375 C 230.503906 96.433594 230.324219 96.007812 229.960938 95.703125 C 229.597656 95.402344 229.089844 95.253906 228.433594 95.253906 C 228.015625 95.253906 227.609375 95.300781 227.214844 95.402344 C 226.820312 95.503906 226.441406 95.652344 226.078125 95.851562 L 226.078125 94.746094 C 226.515625 94.574219 226.9375 94.449219 227.351562 94.363281 C 227.765625 94.28125 228.164062 94.238281 228.554688 94.238281 C 229.609375 94.238281 230.398438 94.511719 230.921875 95.058594 C 231.441406 95.605469 231.703125 96.433594 231.703125 97.542969 Z M 231.703125 97.542969 "/>
<path style=" stroke:none;fill-rule:nonzero;fill:rgb(0%,0%,0%);fill-opacity:1;" d="M 240.230469 97.300781 L 240.230469 101.703125 L 239.03125 101.703125 L 239.03125 97.34375 C 239.03125 96.652344 238.898438 96.136719 238.628906 95.792969 C 238.359375 95.453125 237.957031 95.28125 237.417969 95.28125 C 236.769531 95.28125 236.261719 95.484375 235.886719 95.898438 C 235.511719 96.308594 235.328125 96.871094 235.328125 97.582031 L 235.328125 101.703125 L 234.121094 101.703125 L 234.121094 94.414062 L 235.328125 94.414062 L 235.328125 95.546875 C 235.613281 95.109375 235.953125 94.78125 236.339844 94.5625 C 236.726562 94.347656 237.175781 94.238281 237.683594 94.238281 C 238.523438 94.238281 239.15625 94.496094 239.585938 95.015625 C 240.015625 95.535156 240.230469 96.296875 240.230469 97.300781 Z M 240.230469 97.300781 "/>
<path style=" stroke:none;fill-rule:nonzero;fill:rgb(0%,0%,0%);fill-opacity:1;" d="M 242.617188 94.414062 L 243.816406 94.414062 L 243.816406 101.703125 L 242.617188 101.703125 Z M 242.617188 91.574219 L 243.816406 91.574219 L 243.816406 93.09375 L 242.617188 93.09375 Z M 242.617188 91.574219 "/>
<path style=" stroke:none;fill-rule:nonzero;fill:rgb(0%,0%,0%);fill-opacity:1;" d="M 250.972656 94.628906 L 250.972656 95.761719 C 250.632812 95.585938 250.28125 95.457031 249.917969 95.371094 C 249.554688 95.285156 249.175781 95.238281 248.785156 95.238281 C 248.1875 95.238281 247.742188 95.332031 247.445312 95.511719 C 247.148438 95.695312 247 95.96875 247 96.332031 C 247 96.613281 247.105469 96.828125 247.320312 96.988281 C 247.53125 97.144531 247.960938 97.296875 248.601562 97.441406 L 249.011719 97.53125 C 249.863281 97.714844 250.464844 97.972656 250.824219 98.300781 C 251.183594 98.632812 251.363281 99.097656 251.363281 99.691406 C 251.363281 100.371094 251.09375 100.90625 250.558594 101.300781 C 250.023438 101.695312 249.285156 101.894531 248.347656 101.894531 C 247.957031 101.894531 247.550781 101.855469 247.128906 101.78125 C 246.703125 101.703125 246.257812 101.589844 245.789062 101.4375 L 245.789062 100.199219 C 246.234375 100.429688 246.667969 100.605469 247.097656 100.71875 C 247.527344 100.832031 247.953125 100.890625 248.375 100.890625 C 248.9375 100.890625 249.371094 100.792969 249.675781 100.601562 C 249.980469 100.40625 250.132812 100.136719 250.132812 99.785156 C 250.132812 99.457031 250.023438 99.210938 249.800781 99.035156 C 249.585938 98.863281 249.101562 98.695312 248.359375 98.535156 L 247.945312 98.4375 C 247.203125 98.28125 246.664062 98.039062 246.335938 97.71875 C 246.007812 97.394531 245.839844 96.949219 245.839844 96.386719 C 245.839844 95.699219 246.085938 95.171875 246.570312 94.796875 C 247.058594 94.425781 247.746094 94.238281 248.640625 94.238281 C 249.082031 94.238281 249.5 94.269531 249.890625 94.335938 C 250.28125 94.398438 250.640625 94.496094 250.972656 94.628906 Z M 250.972656 94.628906 "/>
<path style=" stroke:none;fill-rule:nonzero;fill:rgb(0%,0%,0%);fill-opacity:1;" d="M 259.332031 97.300781 L 259.332031 101.703125 L 258.132812 101.703125 L 258.132812 97.34375 C 258.132812 96.652344 258 96.136719 257.730469 95.792969 C 257.460938 95.453125 257.058594 95.28125 256.519531 95.28125 C 255.871094 95.28125 255.363281 95.484375 254.988281 95.898438 C 254.613281 96.308594 254.429688 96.871094 254.429688 97.582031 L 254.429688 101.703125 L 253.222656 101.703125 L 253.222656 91.574219 L 254.429688 91.574219 L 254.429688 95.546875 C 254.714844 95.109375 255.054688 94.78125 255.441406 94.5625 C 255.828125 94.347656 256.277344 94.238281 256.785156 94.238281 C 257.625 94.238281 258.257812 94.496094 258.6875 95.015625 C 259.117188 95.535156 259.332031 96.296875 259.332031 97.300781 Z M 259.332031 97.300781 "/>
<path style=" stroke:none;fill-rule:nonzero;fill:rgb(0%,0%,0%);fill-opacity:1;" d="M 261.71875 94.414062 L 262.917969 94.414062 L 262.917969 101.703125 L 261.71875 101.703125 Z M 261.71875 91.574219 L 262.917969 91.574219 L 262.917969 93.09375 L 261.71875 93.09375 Z M 261.71875 91.574219 "/>
<path style=" stroke:none;fill-rule:nonzero;fill:rgb(0%,0%,0%);fill-opacity:1;" d="M 271.488281 97.300781 L 271.488281 101.703125 L 270.289062 101.703125 L 270.289062 97.34375 C 270.289062 96.652344 270.15625 96.136719 269.886719 95.792969 C 269.617188 95.453125 269.210938 95.28125 268.675781 95.28125 C 268.027344 95.28125 267.515625 95.484375 267.144531 95.898438 C 266.769531 96.308594 266.582031 96.871094 266.582031 97.582031 L 266.582031 101.703125 L 265.378906 101.703125 L 265.378906 94.414062 L 266.582031 94.414062 L 266.582031 95.546875 C 266.871094 95.109375 267.207031 94.78125 267.59375 94.5625 C 267.984375 94.347656 268.433594 94.238281 268.941406 94.238281 C 269.777344 94.238281 270.410156 94.496094 270.839844 95.015625 C 271.273438 95.535156 271.488281 96.296875 271.488281 97.300781 Z M 271.488281 97.300781 "/>
<path style=" stroke:none;fill-rule:nonzero;fill:rgb(0%,0%,0%);fill-opacity:1;" d="M 278.671875 97.972656 C 278.671875 97.105469 278.492188 96.433594 278.136719 95.957031 C 277.777344 95.480469 277.277344 95.238281 276.628906 95.238281 C 275.988281 95.238281 275.488281 95.480469 275.128906 95.957031 C 274.769531 96.433594 274.589844 97.105469 274.589844 97.972656 C 274.589844 98.835938 274.769531 99.507812 275.128906 99.984375 C 275.488281 100.464844 275.988281 100.703125 276.628906 100.703125 C 277.277344 100.703125 277.777344 100.464844 278.136719 99.984375 C 278.492188 99.507812 278.671875 98.835938 278.671875 97.972656 Z M 279.871094 100.800781 C 279.871094 102.039062 279.59375 102.964844 279.042969 103.570312 C 278.492188 104.175781 277.648438 104.476562 276.511719 104.476562 C 276.089844 104.476562 275.695312 104.445312 275.320312 104.382812 C 274.945312 104.320312 274.585938 104.226562 274.234375 104.09375 L 274.234375 102.929688 C 274.585938 103.121094 274.933594 103.261719 275.273438 103.351562 C 275.617188 103.441406 275.96875 103.488281 276.324219 103.488281 C 277.109375 103.488281 277.695312 103.285156 278.085938 102.875 C 278.476562 102.464844 278.671875 101.84375 278.671875 101.015625 L 278.671875 100.421875 C 278.425781 100.851562 278.109375 101.171875 277.722656 101.386719 C 277.335938 101.597656 276.875 101.703125 276.335938 101.703125 C 275.441406 101.703125 274.722656 101.363281 274.175781 100.683594 C 273.628906 100.003906 273.355469 99.097656 273.355469 97.972656 C 273.355469 96.847656 273.628906 95.941406 274.175781 95.261719 C 274.722656 94.578125 275.441406 94.238281 276.335938 94.238281 C 276.875 94.238281 277.335938 94.34375 277.722656 94.558594 C 278.109375 94.769531 278.425781 95.089844 278.671875 95.519531 L 278.671875 94.414062 L 279.871094 94.414062 Z M 279.871094 100.800781 "/>
<path style=" stroke:none;fill-rule:nonzero;fill:rgb(0%,0%,0%);fill-opacity:1;" d="M 291.375 97.972656 C 291.375 97.105469 291.195312 96.433594 290.835938 95.957031 C 290.480469 95.480469 289.976562 95.238281 289.332031 95.238281 C 288.6875 95.238281 288.1875 95.480469 287.832031 95.957031 C 287.472656 96.433594 287.292969 97.105469 287.292969 97.972656 C 287.292969 98.835938 287.472656 99.507812 287.832031 99.984375 C 288.1875 100.464844 288.6875 100.703125 289.332031 100.703125 C 289.976562 100.703125 290.480469 100.464844 290.835938 99.984375 C 291.195312 99.507812 291.375 98.835938 291.375 97.972656 Z M 292.574219 100.800781 C 292.574219 102.039062 292.296875 102.964844 291.746094 103.570312 C 291.195312 104.175781 290.351562 104.476562 289.214844 104.476562 C 288.792969 104.476562 288.394531 104.445312 288.023438 104.382812 C 287.648438 104.320312 287.285156 104.226562 286.933594 104.09375 L 286.933594 102.929688 C 287.285156 103.121094 287.632812 103.261719 287.976562 103.351562 C 288.320312 103.441406 288.667969 103.488281 289.023438 103.488281 C 289.8125 103.488281 290.398438 103.285156 290.789062 102.875 C 291.179688 102.464844 291.375 101.84375 291.375 101.015625 L 291.375 100.421875 C 291.128906 100.851562 290.8125 101.171875 290.425781 101.386719 C 290.039062 101.597656 289.574219 101.703125 289.039062 101.703125 C 288.144531 101.703125 287.425781 101.363281 286.875 100.683594 C 286.328125 100.003906 286.054688 99.097656 286.054688 97.972656 C 286.054688 96.847656 286.328125 95.941406 286.875 95.261719 C 287.425781 94.578125 288.144531 94.238281 289.039062 94.238281 C 289.574219 94.238281 290.039062 94.34375 290.425781 94.558594 C 290.8125 94.769531 291.128906 95.089844 291.375 95.519531 L 291.375 94.414062 L 292.574219 94.414062 Z M 292.574219 100.800781 "/>
<path style=" stroke:none;fill-rule:nonzero;fill:rgb(0%,0%,0%);fill-opacity:1;" d="M 299.265625 95.53125 C 299.128906 95.453125 298.984375 95.398438 298.824219 95.359375 C 298.667969 95.324219 298.492188 95.304688 298.304688 95.304688 C 297.625 95.304688 297.105469 95.523438 296.742188 95.964844 C 296.378906 96.40625 296.199219 97.039062 296.199219 97.863281 L 296.199219 101.703125 L 294.996094 101.703125 L 294.996094 94.414062 L 296.199219 94.414062 L 296.199219 95.546875 C 296.453125 95.101562 296.777344 94.773438 297.183594 94.5625 C 297.585938 94.347656 298.078125 94.238281 298.65625 94.238281 C 298.738281 94.238281 298.828125 94.242188 298.929688 94.253906 C 299.027344 94.265625 299.136719 94.28125 299.257812 94.300781 Z M 299.265625 95.53125 "/>
<path style=" stroke:none;fill-rule:nonzero;fill:rgb(0%,0%,0%);fill-opacity:1;" d="M 303.835938 98.039062 C 302.867188 98.039062 302.199219 98.152344 301.824219 98.371094 C 301.449219 98.59375 301.265625 98.96875 301.265625 99.503906 C 301.265625 99.929688 301.402344 100.265625 301.683594 100.515625 C 301.964844 100.765625 302.347656 100.890625 302.828125 100.890625 C 303.492188 100.890625 304.023438 100.65625 304.425781 100.183594 C 304.828125 99.714844 305.027344 99.085938 305.027344 98.308594 L 305.027344 98.039062 Z M 306.226562 97.542969 L 306.226562 101.703125 L 305.027344 101.703125 L 305.027344 100.597656 C 304.753906 101.039062 304.414062 101.367188 304.003906 101.578125 C 303.597656 101.789062 303.097656 101.894531 302.507812 101.894531 C 301.761719 101.894531 301.167969 101.683594 300.726562 101.265625 C 300.285156 100.847656 300.066406 100.285156 300.066406 99.582031 C 300.066406 98.761719 300.339844 98.144531 300.890625 97.726562 C 301.4375 97.3125 302.257812 97.101562 303.347656 97.101562 L 305.027344 97.101562 L 305.027344 96.984375 C 305.027344 96.433594 304.847656 96.007812 304.484375 95.703125 C 304.121094 95.402344 303.613281 95.253906 302.957031 95.253906 C 302.539062 95.253906 302.132812 95.300781 301.738281 95.402344 C 301.34375 95.503906 300.964844 95.652344 300.601562 95.851562 L 300.601562 94.746094 C 301.039062 94.574219 301.464844 94.449219 301.875 94.363281 C 302.289062 94.28125 302.691406 94.238281 303.082031 94.238281 C 304.136719 94.238281 304.925781 94.511719 305.445312 95.058594 C 305.964844 95.605469 306.226562 96.433594 306.226562 97.542969 Z M 306.226562 97.542969 "/>
<path style=" stroke:none;fill-rule:nonzero;fill:rgb(0%,0%,0%);fill-opacity:1;" d="M 313.492188 95.519531 L 313.492188 91.574219 L 314.6875 91.574219 L 314.6875 101.703125 L 313.492188 101.703125 L 313.492188 100.609375 C 313.238281 101.042969 312.921875 101.367188 312.535156 101.578125 C 312.152344 101.789062 311.691406 101.894531 311.152344 101.894531 C 310.273438 101.894531 309.554688 101.542969 309 100.839844 C 308.449219 100.136719 308.171875 99.210938 308.171875 98.066406 C 308.171875 96.917969 308.449219 95.996094 309 95.292969 C 309.554688 94.589844 310.273438 94.238281 311.152344 94.238281 C 311.691406 94.238281 312.152344 94.34375 312.535156 94.554688 C 312.921875 94.765625 313.238281 95.085938 313.492188 95.519531 Z M 309.410156 98.066406 C 309.410156 98.945312 309.589844 99.636719 309.953125 100.136719 C 310.316406 100.640625 310.8125 100.890625 311.445312 100.890625 C 312.082031 100.890625 312.578125 100.640625 312.941406 100.136719 C 313.308594 99.636719 313.492188 98.945312 313.492188 98.066406 C 313.492188 97.183594 313.308594 96.492188 312.941406 95.992188 C 312.578125 95.492188 312.082031 95.238281 311.445312 95.238281 C 310.8125 95.238281 310.316406 95.492188 309.953125 95.992188 C 309.589844 96.492188 309.410156 97.183594 309.410156 98.066406 Z M 309.410156 98.066406 "/>
<path style=" stroke:none;fill-rule:nonzero;fill:rgb(0%,0%,0%);fill-opacity:1;" d="M 317.15625 94.414062 L 318.355469 94.414062 L 318.355469 101.703125 L 317.15625 101.703125 Z M 317.15625 91.574219 L 318.355469 91.574219 L 318.355469 93.09375 L 317.15625 93.09375 Z M 317.15625 91.574219 "/>
<path style=" stroke:none;fill-rule:nonzero;fill:rgb(0%,0%,0%);fill-opacity:1;" d="M 327.097656 97.757812 L 327.097656 98.34375 L 321.589844 98.34375 C 321.644531 99.167969 321.890625 99.796875 322.335938 100.230469 C 322.78125 100.660156 323.398438 100.878906 324.195312 100.878906 C 324.652344 100.878906 325.097656 100.820312 325.53125 100.707031 C 325.964844 100.597656 326.394531 100.425781 326.820312 100.199219 L 326.820312 101.332031 C 326.386719 101.515625 325.949219 101.65625 325.496094 101.75 C 325.042969 101.847656 324.585938 101.894531 324.125 101.894531 C 322.960938 101.894531 322.039062 101.554688 321.359375 100.878906 C 320.679688 100.203125 320.339844 99.285156 320.339844 98.128906 C 320.339844 96.9375 320.660156 95.988281 321.304688 95.289062 C 321.949219 94.589844 322.820312 94.238281 323.914062 94.238281 C 324.894531 94.238281 325.671875 94.554688 326.242188 95.1875 C 326.8125 95.816406 327.097656 96.675781 327.097656 97.757812 Z M 325.898438 97.40625 C 325.890625 96.753906 325.707031 96.230469 325.351562 95.839844 C 324.992188 95.449219 324.519531 95.253906 323.925781 95.253906 C 323.257812 95.253906 322.722656 95.441406 322.324219 95.820312 C 321.921875 96.195312 321.691406 96.730469 321.628906 97.414062 Z M 325.898438 97.40625 "/>
<path style=" stroke:none;fill-rule:nonzero;fill:rgb(0%,0%,0%);fill-opacity:1;" d="M 335.125 97.300781 L 335.125 101.703125 L 333.929688 101.703125 L 333.929688 97.34375 C 333.929688 96.652344 333.792969 96.136719 333.523438 95.792969 C 333.253906 95.453125 332.851562 95.28125 332.3125 95.28125 C 331.667969 95.28125 331.15625 95.484375 330.78125 95.898438 C 330.410156 96.308594 330.222656 96.871094 330.222656 97.582031 L 330.222656 101.703125 L 329.019531 101.703125 L 329.019531 94.414062 L 330.222656 94.414062 L 330.222656 95.546875 C 330.507812 95.109375 330.847656 94.78125 331.234375 94.5625 C 331.625 94.347656 332.070312 94.238281 332.582031 94.238281 C 333.417969 94.238281 334.050781 94.496094 334.480469 95.015625 C 334.910156 95.535156 335.125 96.296875 335.125 97.300781 Z M 335.125 97.300781 "/>
<path style=" stroke:none;fill-rule:nonzero;fill:rgb(0%,0%,0%);fill-opacity:1;" d="M 338.699219 92.34375 L 338.699219 94.414062 L 341.167969 94.414062 L 341.167969 95.34375 L 338.699219 95.34375 L 338.699219 99.300781 C 338.699219 99.898438 338.78125 100.277344 338.945312 100.449219 C 339.105469 100.617188 339.4375 100.703125 339.9375 100.703125 L 341.167969 100.703125 L 341.167969 101.703125 L 339.9375 101.703125 C 339.011719 101.703125 338.375 101.53125 338.023438 101.1875 C 337.671875 100.84375 337.496094 100.214844 337.496094 99.300781 L 337.496094 95.34375 L 336.617188 95.34375 L 336.617188 94.414062 L 337.496094 94.414062 L 337.496094 92.34375 Z M 338.699219 92.34375 "/>
</g>
</svg>
