<?xml version="1.0" encoding="UTF-8"?>
<svg xmlns="http://www.w3.org/2000/svg" xmlns:xlink="http://www.w3.org/1999/xlink" width="341.104167" height="244.847168" viewBox="0 0 341.104167 244.847168" version="1.1">
<defs>
<clipPath id="clip1">
  <path d="M 104 13.570312 L 107 13.570312 L 107 194.773438 L 104 194.773438 Z M 104 13.570312 "/>
</clipPath>
<clipPath id="clip2">
  <path d="M 152 13.570312 L 155 13.570312 L 155 194.773438 L 152 194.773438 Z M 152 13.570312 "/>
</clipPath>
<clipPath id="clip3">
  <path d="M 200 13.570312 L 203 13.570312 L 203 194.773438 L 200 194.773438 Z M 200 13.570312 "/>
</clipPath>
<clipPath id="clip4">
  <path d="M 248 13.570312 L 250 13.570312 L 250 194.773438 L 248 194.773438 Z M 248 13.570312 "/>
</clipPath>
<clipPath id="clip5">
  <path d="M 296 13.570312 L 298 13.570312 L 298 194.773438 L 296 194.773438 Z M 296 13.570312 "/>
</clipPath>
<clipPath id="clip6">
  <path d="M 71.105469 185 L 331.503906 185 L 331.503906 188 L 71.105469 188 Z M 71.105469 185 "/>
</clipPath>
<clipPath id="clip7">
  <path d="M 71.105469 142 L 331.503906 142 L 331.503906 145 L 71.105469 145 Z M 71.105469 142 "/>
</clipPath>
<clipPath id="clip8">
  <path d="M 71.105469 99 L 331.503906 99 L 331.503906 102 L 71.105469 102 Z M 71.105469 99 "/>
</clipPath>
<clipPath id="clip9">
  <path d="M 71.105469 56 L 331.503906 56 L 331.503906 59 L 71.105469 59 Z M 71.105469 56 "/>
</clipPath>
<clipPath id="clip10">
  <path d="M 71.105469 13.570312 L 331.503906 13.570312 L 331.503906 16 L 71.105469 16 Z M 71.105469 13.570312 "/>
</clipPath>
</defs>
<g id="surface1">
<path style=" stroke:none;fill-rule:nonzero;fill:rgb(100%,100%,100%);fill-opacity:1;" d="M 71.105469 194.773438 L 331.503906 194.773438 L 331.503906 13.570312 L 71.105469 13.570312 Z M 71.105469 194.773438 "/>
<g clip-path="url(#clip1)" clip-rule="nonzero">
<path style="fill:none;stroke-width:0.8;stroke-linecap:square;stroke-linejoin:round;stroke:rgb(69.01961%,69.01961%,69.01961%);stroke-opacity:1;stroke-miterlimit:4;" d="M 79.291992 146.080078 L 79.291992 10.177734 " transform="matrix(1.333333,0,0,1.333333,0.000000000000028422,0)"/>
</g>
<path style="fill:none;stroke-width:0.8;stroke-linecap:butt;stroke-linejoin:round;stroke:rgb(0%,0%,0%);stroke-opacity:1;stroke-miterlimit:4;" d="M 0.000320435 0.000946045 L 0.000320435 3.498993 " transform="matrix(1.333333,0,0,1.333333,105.722229,194.772176)"/>
<path style=" stroke:none;fill-rule:nonzero;fill:rgb(0%,0%,0%);fill-opacity:1;" d="M 93.066406 209.503906 L 101.410156 209.503906 L 101.410156 210.609375 L 93.066406 210.609375 Z M 93.066406 209.503906 "/>
<path style=" stroke:none;fill-rule:nonzero;fill:rgb(0%,0%,0%);fill-opacity:1;" d="M 104.265625 204.515625 L 109.425781 204.515625 L 109.425781 205.625 L 105.46875 205.625 L 105.46875 208.003906 C 105.660156 207.941406 105.847656 207.890625 106.039062 207.859375 C 106.230469 207.828125 106.421875 207.8125 106.613281 207.8125 C 107.699219 207.8125 108.558594 208.109375 109.191406 208.703125 C 109.824219 209.296875 110.144531 210.101562 110.144531 211.117188 C 110.144531 212.164062 109.816406 212.976562 109.164062 213.558594 C 108.515625 214.136719 107.597656 214.425781 106.410156 214.425781 C 106.003906 214.425781 105.585938 214.390625 105.164062 214.320312 C 104.742188 214.253906 104.304688 214.148438 103.851562 214.007812 L 103.851562 212.6875 C 104.242188 212.898438 104.648438 213.058594 105.0625 213.160156 C 105.480469 213.265625 105.921875 213.316406 106.382812 213.316406 C 107.136719 213.316406 107.730469 213.121094 108.167969 212.726562 C 108.605469 212.332031 108.828125 211.796875 108.828125 211.117188 C 108.828125 210.441406 108.605469 209.90625 108.167969 209.511719 C 107.730469 209.117188 107.136719 208.917969 106.382812 208.917969 C 106.035156 208.917969 105.683594 208.957031 105.332031 209.035156 C 104.984375 209.113281 104.628906 209.234375 104.265625 209.398438 Z M 104.265625 204.515625 "/>
<path style=" stroke:none;fill-rule:nonzero;fill:rgb(0%,0%,0%);fill-opacity:1;" d="M 115.542969 205.382812 C 114.867188 205.382812 114.359375 205.714844 114.019531 206.382812 C 113.675781 207.046875 113.507812 208.050781 113.507812 209.386719 C 113.507812 210.71875 113.675781 211.71875 114.019531 212.382812 C 114.359375 213.050781 114.867188 213.382812 115.542969 213.382812 C 116.226562 213.382812 116.738281 213.050781 117.078125 212.382812 C 117.417969 211.71875 117.589844 210.71875 117.589844 209.386719 C 117.589844 208.050781 117.417969 207.046875 117.078125 206.382812 C 116.738281 205.714844 116.226562 205.382812 115.542969 205.382812 Z M 115.542969 204.339844 C 116.636719 204.339844 117.46875 204.773438 118.042969 205.632812 C 118.617188 206.496094 118.90625 207.746094 118.90625 209.386719 C 118.90625 211.023438 118.617188 212.273438 118.042969 213.132812 C 117.46875 213.996094 116.636719 214.425781 115.542969 214.425781 C 114.457031 214.425781 113.625 213.996094 113.050781 213.132812 C 112.472656 212.273438 112.1875 211.023438 112.1875 209.386719 C 112.1875 207.746094 112.472656 206.496094 113.050781 205.632812 C 113.625 204.773438 114.457031 204.339844 115.542969 204.339844 Z M 115.542969 204.339844 "/>
<g clip-path="url(#clip2)" clip-rule="nonzero">
<path style="fill:none;stroke-width:0.8;stroke-linecap:square;stroke-linejoin:round;stroke:rgb(69.01961%,69.01961%,69.01961%);stroke-opacity:1;stroke-miterlimit:4;" d="M 115.133789 146.080078 L 115.133789 10.177734 " transform="matrix(1.333333,0,0,1.333333,0.000000000000028422,0)"/>
</g>
<path style="fill:none;stroke-width:0.8;stroke-linecap:butt;stroke-linejoin:round;stroke:rgb(0%,0%,0%);stroke-opacity:1;stroke-miterlimit:4;" d="M -0.00110626 0.000946045 L -0.00110626 3.498993 " transform="matrix(1.333333,0,0,1.333333,153.513194,194.772176)"/>
<path style=" stroke:none;fill-rule:nonzero;fill:rgb(0%,0%,0%);fill-opacity:1;" d="M 140.855469 209.503906 L 149.203125 209.503906 L 149.203125 210.609375 L 140.855469 210.609375 Z M 140.855469 209.503906 "/>
<path style=" stroke:none;fill-rule:nonzero;fill:rgb(0%,0%,0%);fill-opacity:1;" d="M 153.171875 213.128906 L 157.761719 213.128906 L 157.761719 214.238281 L 151.59375 214.238281 L 151.59375 213.128906 C 152.089844 212.613281 152.769531 211.921875 153.632812 211.050781 C 154.496094 210.179688 155.035156 209.617188 155.257812 209.367188 C 155.679688 208.894531 155.972656 208.492188 156.136719 208.164062 C 156.304688 207.839844 156.390625 207.515625 156.390625 207.199219 C 156.390625 206.683594 156.210938 206.261719 155.847656 205.9375 C 155.484375 205.609375 155.011719 205.445312 154.429688 205.445312 C 154.015625 205.445312 153.582031 205.519531 153.125 205.660156 C 152.667969 205.804688 152.179688 206.023438 151.65625 206.3125 L 151.65625 204.984375 C 152.1875 204.773438 152.679688 204.613281 153.140625 204.503906 C 153.601562 204.394531 154.023438 204.339844 154.40625 204.339844 C 155.410156 204.339844 156.214844 204.59375 156.8125 205.097656 C 157.410156 205.601562 157.710938 206.273438 157.710938 207.113281 C 157.710938 207.515625 157.636719 207.894531 157.484375 208.25 C 157.335938 208.609375 157.066406 209.03125 156.667969 209.515625 C 156.5625 209.640625 156.214844 210.007812 155.632812 210.609375 C 155.054688 211.207031 154.234375 212.050781 153.171875 213.128906 Z M 153.171875 213.128906 "/>
<path style=" stroke:none;fill-rule:nonzero;fill:rgb(0%,0%,0%);fill-opacity:1;" d="M 160.539062 204.515625 L 165.699219 204.515625 L 165.699219 205.625 L 161.742188 205.625 L 161.742188 208.003906 C 161.933594 207.941406 162.121094 207.890625 162.3125 207.859375 C 162.503906 207.828125 162.695312 207.8125 162.886719 207.8125 C 163.972656 207.8125 164.832031 208.109375 165.464844 208.703125 C 166.101562 209.296875 166.417969 210.101562 166.417969 211.117188 C 166.417969 212.164062 166.089844 212.976562 165.441406 213.558594 C 164.789062 214.136719 163.871094 214.425781 162.6875 214.425781 C 162.277344 214.425781 161.863281 214.390625 161.4375 214.320312 C 161.015625 214.253906 160.578125 214.148438 160.128906 214.007812 L 160.128906 212.6875 C 160.519531 212.898438 160.921875 213.058594 161.339844 213.160156 C 161.753906 213.265625 162.195312 213.316406 162.660156 213.316406 C 163.410156 213.316406 164.003906 213.121094 164.441406 212.726562 C 164.882812 212.332031 165.101562 211.796875 165.101562 211.117188 C 165.101562 210.441406 164.882812 209.90625 164.441406 209.511719 C 164.003906 209.117188 163.410156 208.917969 162.660156 208.917969 C 162.308594 208.917969 161.957031 208.957031 161.605469 209.035156 C 161.257812 209.113281 160.902344 209.234375 160.539062 209.398438 Z M 160.539062 204.515625 "/>
<g clip-path="url(#clip3)" clip-rule="nonzero">
<path style="fill:none;stroke-width:0.8;stroke-linecap:square;stroke-linejoin:round;stroke:rgb(69.01961%,69.01961%,69.01961%);stroke-opacity:1;stroke-miterlimit:4;" d="M 150.978516 146.080078 L 150.978516 10.177734 " transform="matrix(1.333333,0,0,1.333333,0.000000000000028422,0)"/>
</g>
<path style="fill:none;stroke-width:0.8;stroke-linecap:butt;stroke-linejoin:round;stroke:rgb(0%,0%,0%);stroke-opacity:1;stroke-miterlimit:4;" d="M 0.000396729 0.000946045 L 0.000396729 3.498993 " transform="matrix(1.333333,0,0,1.333333,201.304159,194.772176)"/>
<path style=" stroke:none;fill-rule:nonzero;fill:rgb(0%,0%,0%);fill-opacity:1;" d="M 201.300781 205.382812 C 200.625 205.382812 200.113281 205.714844 199.773438 206.382812 C 199.433594 207.046875 199.261719 208.050781 199.261719 209.386719 C 199.261719 210.71875 199.433594 211.71875 199.773438 212.382812 C 200.113281 213.050781 200.625 213.382812 201.300781 213.382812 C 201.980469 213.382812 202.492188 213.050781 202.832031 212.382812 C 203.175781 211.71875 203.347656 210.71875 203.347656 209.386719 C 203.347656 208.050781 203.175781 207.046875 202.832031 206.382812 C 202.492188 205.714844 201.980469 205.382812 201.300781 205.382812 Z M 201.300781 204.339844 C 202.390625 204.339844 203.222656 204.773438 203.796875 205.632812 C 204.371094 206.496094 204.660156 207.746094 204.660156 209.386719 C 204.660156 211.023438 204.371094 212.273438 203.796875 213.132812 C 203.222656 213.996094 202.390625 214.425781 201.300781 214.425781 C 200.210938 214.425781 199.378906 213.996094 198.804688 213.132812 C 198.230469 212.273438 197.941406 211.023438 197.941406 209.386719 C 197.941406 207.746094 198.230469 206.496094 198.804688 205.632812 C 199.378906 204.773438 200.210938 204.339844 201.300781 204.339844 Z M 201.300781 204.339844 "/>
<g clip-path="url(#clip4)" clip-rule="nonzero">
<path style="fill:none;stroke-width:0.8;stroke-linecap:square;stroke-linejoin:round;stroke:rgb(69.01961%,69.01961%,69.01961%);stroke-opacity:1;stroke-miterlimit:4;" d="M 186.820312 146.080078 L 186.820312 10.177734 " transform="matrix(1.333333,0,0,1.333333,0.000000000000028422,0)"/>
</g>
<path style="fill:none;stroke-width:0.8;stroke-linecap:butt;stroke-linejoin:round;stroke:rgb(0%,0%,0%);stroke-opacity:1;stroke-miterlimit:4;" d="M -0.0010376 0.000946045 L -0.0010376 3.498993 " transform="matrix(1.333333,0,0,1.333333,249.095133,194.772176)"/>
<path style=" stroke:none;fill-rule:nonzero;fill:rgb(0%,0%,0%);fill-opacity:1;" d="M 243.171875 213.128906 L 247.757812 213.128906 L 247.757812 214.238281 L 241.589844 214.238281 L 241.589844 213.128906 C 242.085938 212.613281 242.765625 211.921875 243.628906 211.050781 C 244.492188 210.179688 245.03125 209.617188 245.253906 209.367188 C 245.675781 208.894531 245.96875 208.492188 246.132812 208.164062 C 246.304688 207.839844 246.386719 207.515625 246.386719 207.199219 C 246.386719 206.683594 246.207031 206.261719 245.84375 205.9375 C 245.480469 205.609375 245.007812 205.445312 244.425781 205.445312 C 244.015625 205.445312 243.578125 205.519531 243.121094 205.660156 C 242.664062 205.804688 242.175781 206.023438 241.652344 206.3125 L 241.652344 204.984375 C 242.183594 204.773438 242.675781 204.613281 243.136719 204.503906 C 243.597656 204.394531 244.019531 204.339844 244.402344 204.339844 C 245.410156 204.339844 246.210938 204.59375 246.808594 205.097656 C 247.410156 205.601562 247.707031 206.273438 247.707031 207.113281 C 247.707031 207.515625 247.632812 207.894531 247.484375 208.25 C 247.335938 208.609375 247.0625 209.03125 246.664062 209.515625 C 246.558594 209.640625 246.210938 210.007812 245.628906 210.609375 C 245.050781 211.207031 244.230469 212.050781 243.171875 213.128906 Z M 243.171875 213.128906 "/>
<path style=" stroke:none;fill-rule:nonzero;fill:rgb(0%,0%,0%);fill-opacity:1;" d="M 250.535156 204.515625 L 255.695312 204.515625 L 255.695312 205.625 L 251.738281 205.625 L 251.738281 208.003906 C 251.929688 207.941406 252.121094 207.890625 252.308594 207.859375 C 252.5 207.828125 252.691406 207.8125 252.882812 207.8125 C 253.96875 207.8125 254.828125 208.109375 255.460938 208.703125 C 256.097656 209.296875 256.414062 210.101562 256.414062 211.117188 C 256.414062 212.164062 256.089844 212.976562 255.4375 213.558594 C 254.785156 214.136719 253.867188 214.425781 252.683594 214.425781 C 252.273438 214.425781 251.859375 214.390625 251.433594 214.320312 C 251.011719 214.253906 250.574219 214.148438 250.125 214.007812 L 250.125 212.6875 C 250.515625 212.898438 250.917969 213.058594 251.335938 213.160156 C 251.75 213.265625 252.191406 213.316406 252.65625 213.316406 C 253.40625 213.316406 254 213.121094 254.4375 212.726562 C 254.878906 212.332031 255.097656 211.796875 255.097656 211.117188 C 255.097656 210.441406 254.878906 209.90625 254.4375 209.511719 C 254 209.117188 253.40625 208.917969 252.65625 208.917969 C 252.304688 208.917969 251.953125 208.957031 251.601562 209.035156 C 251.253906 209.113281 250.898438 209.234375 250.535156 209.398438 Z M 250.535156 204.515625 "/>
<g clip-path="url(#clip5)" clip-rule="nonzero">
<path style="fill:none;stroke-width:0.8;stroke-linecap:square;stroke-linejoin:round;stroke:rgb(69.01961%,69.01961%,69.01961%);stroke-opacity:1;stroke-miterlimit:4;" d="M 222.665039 146.080078 L 222.665039 10.177734 " transform="matrix(1.333333,0,0,1.333333,0.000000000000028422,0)"/>
</g>
<path style="fill:none;stroke-width:0.8;stroke-linecap:butt;stroke-linejoin:round;stroke:rgb(0%,0%,0%);stroke-opacity:1;stroke-miterlimit:4;" d="M 0.000457764 0.000946045 L 0.000457764 3.498993 " transform="matrix(1.333333,0,0,1.333333,296.886108,194.772176)"/>
<path style=" stroke:none;fill-rule:nonzero;fill:rgb(0%,0%,0%);fill-opacity:1;" d="M 289.84375 204.515625 L 295.003906 204.515625 L 295.003906 205.625 L 291.046875 205.625 L 291.046875 208.003906 C 291.238281 207.941406 291.425781 207.890625 291.617188 207.859375 C 291.808594 207.828125 292 207.8125 292.191406 207.8125 C 293.277344 207.8125 294.136719 208.109375 294.769531 208.703125 C 295.402344 209.296875 295.722656 210.101562 295.722656 211.117188 C 295.722656 212.164062 295.394531 212.976562 294.746094 213.558594 C 294.09375 214.136719 293.175781 214.425781 291.992188 214.425781 C 291.582031 214.425781 291.164062 214.390625 290.742188 214.320312 C 290.320312 214.253906 289.882812 214.148438 289.433594 214.007812 L 289.433594 212.6875 C 289.820312 212.898438 290.226562 213.058594 290.640625 213.160156 C 291.058594 213.265625 291.5 213.316406 291.964844 213.316406 C 292.714844 213.316406 293.308594 213.121094 293.746094 212.726562 C 294.183594 212.332031 294.40625 211.796875 294.40625 211.117188 C 294.40625 210.441406 294.183594 209.90625 293.746094 209.511719 C 293.308594 209.117188 292.714844 208.917969 291.964844 208.917969 C 291.613281 208.917969 291.261719 208.957031 290.910156 209.035156 C 290.5625 209.113281 290.207031 209.234375 289.84375 209.398438 Z M 289.84375 204.515625 "/>
<path style=" stroke:none;fill-rule:nonzero;fill:rgb(0%,0%,0%);fill-opacity:1;" d="M 301.125 205.382812 C 300.445312 205.382812 299.9375 205.714844 299.597656 206.382812 C 299.257812 207.046875 299.085938 208.050781 299.085938 209.386719 C 299.085938 210.71875 299.257812 211.71875 299.597656 212.382812 C 299.9375 213.050781 300.445312 213.382812 301.125 213.382812 C 301.804688 213.382812 302.316406 213.050781 302.65625 212.382812 C 303 211.71875 303.167969 210.71875 303.167969 209.386719 C 303.167969 208.050781 303 207.046875 302.65625 206.382812 C 302.316406 205.714844 301.804688 205.382812 301.125 205.382812 Z M 301.125 204.339844 C 302.214844 204.339844 303.046875 204.773438 303.621094 205.632812 C 304.195312 206.496094 304.484375 207.746094 304.484375 209.386719 C 304.484375 211.023438 304.195312 212.273438 303.621094 213.132812 C 303.046875 213.996094 302.214844 214.425781 301.125 214.425781 C 300.035156 214.425781 299.203125 213.996094 298.628906 213.132812 C 298.050781 212.273438 297.765625 211.023438 297.765625 209.386719 C 297.765625 207.746094 298.050781 206.496094 298.628906 205.632812 C 299.203125 204.773438 300.035156 204.339844 301.125 204.339844 Z M 301.125 204.339844 "/>
<path style=" stroke:none;fill-rule:nonzero;fill:rgb(0%,0%,0%);fill-opacity:1;" d="M 204.675781 225.183594 L 202.039062 228.730469 L 204.8125 232.472656 L 203.398438 232.472656 L 201.277344 229.609375 L 199.15625 232.472656 L 197.742188 232.472656 L 200.574219 228.660156 L 197.984375 225.183594 L 199.394531 225.183594 L 201.328125 227.78125 L 203.261719 225.183594 Z M 204.675781 225.183594 "/>
<g clip-path="url(#clip6)" clip-rule="nonzero">
<path style="fill:none;stroke-width:0.8;stroke-linecap:square;stroke-linejoin:round;stroke:rgb(69.01961%,69.01961%,69.01961%);stroke-opacity:1;stroke-miterlimit:4;" d="M 53.329102 139.901367 L 248.62793 139.901367 " transform="matrix(1.333333,0,0,1.333333,0.000000000000028422,0)"/>
</g>
<path style="fill:none;stroke-width:0.8;stroke-linecap:butt;stroke-linejoin:round;stroke:rgb(0%,0%,0%);stroke-opacity:1;stroke-miterlimit:4;" d="M 0.000976562 -0.000488281 L -3.5 -0.000488281 " transform="matrix(1.333333,0,0,1.333333,71.104167,186.535807)"/>
<path style=" stroke:none;fill-rule:nonzero;fill:rgb(0%,0%,0%);fill-opacity:1;" d="M 57.523438 182.746094 C 56.847656 182.746094 56.339844 183.082031 55.996094 183.746094 C 55.65625 184.414062 55.488281 185.414062 55.488281 186.75 C 55.488281 188.082031 55.65625 189.082031 55.996094 189.75 C 56.339844 190.417969 56.847656 190.75 57.523438 190.75 C 58.207031 190.75 58.71875 190.417969 59.058594 189.75 C 59.398438 189.082031 59.570312 188.082031 59.570312 186.75 C 59.570312 185.414062 59.398438 184.414062 59.058594 183.746094 C 58.71875 183.082031 58.207031 182.746094 57.523438 182.746094 Z M 57.523438 181.707031 C 58.617188 181.707031 59.449219 182.136719 60.023438 183 C 60.597656 183.859375 60.886719 185.109375 60.886719 186.75 C 60.886719 188.386719 60.597656 189.636719 60.023438 190.5 C 59.449219 191.359375 58.617188 191.792969 57.523438 191.792969 C 56.4375 191.792969 55.605469 191.359375 55.027344 190.5 C 54.453125 189.636719 54.167969 188.386719 54.167969 186.75 C 54.167969 185.109375 54.453125 183.859375 55.027344 183 C 55.605469 182.136719 56.4375 181.707031 57.523438 181.707031 Z M 57.523438 181.707031 "/>
<g clip-path="url(#clip7)" clip-rule="nonzero">
<path style="fill:none;stroke-width:0.8;stroke-linecap:square;stroke-linejoin:round;stroke:rgb(69.01961%,69.01961%,69.01961%);stroke-opacity:1;stroke-miterlimit:4;" d="M 53.329102 107.674805 L 248.62793 107.674805 " transform="matrix(1.333333,0,0,1.333333,0.000000000000028422,0)"/>
</g>
<path style="fill:none;stroke-width:0.8;stroke-linecap:butt;stroke-linejoin:round;stroke:rgb(0%,0%,0%);stroke-opacity:1;stroke-miterlimit:4;" d="M 0.000976562 -0.00139618 L -3.5 -0.00139618 " transform="matrix(1.333333,0,0,1.333333,71.104167,143.568268)"/>
<path style=" stroke:none;fill-rule:nonzero;fill:rgb(0%,0%,0%);fill-opacity:1;" d="M 29.492188 147.527344 L 31.640625 147.527344 L 31.640625 140.109375 L 29.300781 140.578125 L 29.300781 139.382812 L 31.628906 138.914062 L 32.941406 138.914062 L 32.941406 147.527344 L 35.089844 147.527344 L 35.089844 148.632812 L 29.492188 148.632812 Z M 29.492188 147.527344 "/>
<path style=" stroke:none;fill-rule:nonzero;fill:rgb(0%,0%,0%);fill-opacity:1;" d="M 40.558594 139.78125 C 39.882812 139.78125 39.371094 140.113281 39.03125 140.78125 C 38.691406 141.445312 38.519531 142.445312 38.519531 143.785156 C 38.519531 145.117188 38.691406 146.113281 39.03125 146.78125 C 39.371094 147.449219 39.882812 147.78125 40.558594 147.78125 C 41.238281 147.78125 41.75 147.449219 42.089844 146.78125 C 42.433594 146.113281 42.605469 145.117188 42.605469 143.785156 C 42.605469 142.445312 42.433594 141.445312 42.089844 140.78125 C 41.75 140.113281 41.238281 139.78125 40.558594 139.78125 Z M 40.558594 138.738281 C 41.648438 138.738281 42.480469 139.167969 43.054688 140.03125 C 43.632812 140.894531 43.917969 142.144531 43.917969 143.785156 C 43.917969 145.421875 43.632812 146.667969 43.054688 147.53125 C 42.480469 148.394531 41.648438 148.824219 40.558594 148.824219 C 39.46875 148.824219 38.636719 148.394531 38.0625 147.53125 C 37.488281 146.667969 37.199219 145.421875 37.199219 143.785156 C 37.199219 142.144531 37.488281 140.894531 38.0625 140.03125 C 38.636719 139.167969 39.46875 138.738281 40.558594 138.738281 Z M 40.558594 138.738281 "/>
<path style=" stroke:none;fill-rule:nonzero;fill:rgb(0%,0%,0%);fill-opacity:1;" d="M 49.042969 139.78125 C 48.363281 139.78125 47.855469 140.113281 47.515625 140.78125 C 47.171875 141.445312 47.003906 142.445312 47.003906 143.785156 C 47.003906 145.117188 47.171875 146.113281 47.515625 146.78125 C 47.855469 147.449219 48.363281 147.78125 49.042969 147.78125 C 49.722656 147.78125 50.234375 147.449219 50.574219 146.78125 C 50.917969 146.113281 51.085938 145.117188 51.085938 143.785156 C 51.085938 142.445312 50.917969 141.445312 50.574219 140.78125 C 50.234375 140.113281 49.722656 139.78125 49.042969 139.78125 Z M 49.042969 138.738281 C 50.132812 138.738281 50.964844 139.167969 51.539062 140.03125 C 52.113281 140.894531 52.402344 142.144531 52.402344 143.785156 C 52.402344 145.421875 52.113281 146.667969 51.539062 147.53125 C 50.964844 148.394531 50.132812 148.824219 49.042969 148.824219 C 47.953125 148.824219 47.121094 148.394531 46.546875 147.53125 C 45.96875 146.667969 45.683594 145.421875 45.683594 143.785156 C 45.683594 142.144531 45.96875 140.894531 46.546875 140.03125 C 47.121094 139.167969 47.953125 138.738281 49.042969 138.738281 Z M 49.042969 138.738281 "/>
<path style=" stroke:none;fill-rule:nonzero;fill:rgb(0%,0%,0%);fill-opacity:1;" d="M 57.523438 139.78125 C 56.847656 139.78125 56.339844 140.113281 55.996094 140.78125 C 55.65625 141.445312 55.488281 142.445312 55.488281 143.785156 C 55.488281 145.117188 55.65625 146.113281 55.996094 146.78125 C 56.339844 147.449219 56.847656 147.78125 57.523438 147.78125 C 58.207031 147.78125 58.71875 147.449219 59.058594 146.78125 C 59.398438 146.113281 59.570312 145.117188 59.570312 143.785156 C 59.570312 142.445312 59.398438 141.445312 59.058594 140.78125 C 58.71875 140.113281 58.207031 139.78125 57.523438 139.78125 Z M 57.523438 138.738281 C 58.613281 138.738281 59.445312 139.167969 60.023438 140.03125 C 60.597656 140.894531 60.882812 142.144531 60.882812 143.785156 C 60.882812 145.421875 60.597656 146.667969 60.023438 147.53125 C 59.445312 148.394531 58.613281 148.824219 57.523438 148.824219 C 56.433594 148.824219 55.601562 148.394531 55.027344 147.53125 C 54.453125 146.667969 54.164062 145.421875 54.164062 143.785156 C 54.164062 142.144531 54.453125 140.894531 55.027344 140.03125 C 55.601562 139.167969 56.433594 138.738281 57.523438 138.738281 Z M 57.523438 138.738281 "/>
<g clip-path="url(#clip8)" clip-rule="nonzero">
<path style="fill:none;stroke-width:0.8;stroke-linecap:square;stroke-linejoin:round;stroke:rgb(69.01961%,69.01961%,69.01961%);stroke-opacity:1;stroke-miterlimit:4;" d="M 53.329102 75.451172 L 248.62793 75.451172 " transform="matrix(1.333333,0,0,1.333333,0.000000000000028422,0)"/>
</g>
<path style="fill:none;stroke-width:0.8;stroke-linecap:butt;stroke-linejoin:round;stroke:rgb(0%,0%,0%);stroke-opacity:1;stroke-miterlimit:4;" d="M 0.000976562 0.00063324 L -3.5 0.00063324 " transform="matrix(1.333333,0,0,1.333333,71.104167,100.600718)"/>
<path style=" stroke:none;fill-rule:nonzero;fill:rgb(0%,0%,0%);fill-opacity:1;" d="M 30.394531 104.558594 L 34.984375 104.558594 L 34.984375 105.667969 L 28.816406 105.667969 L 28.816406 104.558594 C 29.3125 104.042969 29.992188 103.351562 30.855469 102.480469 C 31.714844 101.609375 32.257812 101.046875 32.480469 100.796875 C 32.898438 100.324219 33.195312 99.921875 33.359375 99.59375 C 33.527344 99.269531 33.613281 98.945312 33.613281 98.628906 C 33.613281 98.113281 33.429688 97.691406 33.070312 97.367188 C 32.707031 97.039062 32.234375 96.875 31.652344 96.875 C 31.238281 96.875 30.804688 96.949219 30.347656 97.089844 C 29.890625 97.234375 29.398438 97.453125 28.878906 97.742188 L 28.878906 96.414062 C 29.410156 96.203125 29.902344 96.042969 30.363281 95.933594 C 30.824219 95.824219 31.246094 95.769531 31.628906 95.769531 C 32.632812 95.769531 33.4375 96.023438 34.035156 96.527344 C 34.632812 97.03125 34.933594 97.703125 34.933594 98.542969 C 34.933594 98.945312 34.859375 99.324219 34.707031 99.679688 C 34.558594 100.039062 34.289062 100.460938 33.890625 100.945312 C 33.785156 101.070312 33.4375 101.4375 32.855469 102.039062 C 32.277344 102.636719 31.457031 103.480469 30.394531 104.558594 Z M 30.394531 104.558594 "/>
<path style=" stroke:none;fill-rule:nonzero;fill:rgb(0%,0%,0%);fill-opacity:1;" d="M 40.558594 96.8125 C 39.882812 96.8125 39.371094 97.144531 39.03125 97.8125 C 38.691406 98.476562 38.519531 99.480469 38.519531 100.816406 C 38.519531 102.148438 38.691406 103.148438 39.03125 103.8125 C 39.371094 104.480469 39.882812 104.8125 40.558594 104.8125 C 41.238281 104.8125 41.75 104.480469 42.089844 103.8125 C 42.433594 103.148438 42.605469 102.148438 42.605469 100.816406 C 42.605469 99.480469 42.433594 98.476562 42.089844 97.8125 C 41.75 97.144531 41.238281 96.8125 40.558594 96.8125 Z M 40.558594 95.769531 C 41.648438 95.769531 42.480469 96.203125 43.054688 97.0625 C 43.632812 97.925781 43.917969 99.175781 43.917969 100.816406 C 43.917969 102.453125 43.632812 103.703125 43.054688 104.5625 C 42.480469 105.425781 41.648438 105.855469 40.558594 105.855469 C 39.46875 105.855469 38.636719 105.425781 38.0625 104.5625 C 37.488281 103.703125 37.199219 102.453125 37.199219 100.816406 C 37.199219 99.175781 37.488281 97.925781 38.0625 97.0625 C 38.636719 96.203125 39.46875 95.769531 40.558594 95.769531 Z M 40.558594 95.769531 "/>
<path style=" stroke:none;fill-rule:nonzero;fill:rgb(0%,0%,0%);fill-opacity:1;" d="M 49.042969 96.8125 C 48.363281 96.8125 47.855469 97.144531 47.515625 97.8125 C 47.171875 98.476562 47.003906 99.480469 47.003906 100.816406 C 47.003906 102.148438 47.171875 103.148438 47.515625 103.8125 C 47.855469 104.480469 48.363281 104.8125 49.042969 104.8125 C 49.722656 104.8125 50.234375 104.480469 50.574219 103.8125 C 50.917969 103.148438 51.085938 102.148438 51.085938 100.816406 C 51.085938 99.480469 50.917969 98.476562 50.574219 97.8125 C 50.234375 97.144531 49.722656 96.8125 49.042969 96.8125 Z M 49.042969 95.769531 C 50.132812 95.769531 50.964844 96.203125 51.539062 97.0625 C 52.113281 97.925781 52.402344 99.175781 52.402344 100.816406 C 52.402344 102.453125 52.113281 103.703125 51.539062 104.5625 C 50.964844 105.425781 50.132812 105.855469 49.042969 105.855469 C 47.953125 105.855469 47.121094 105.425781 46.546875 104.5625 C 45.96875 103.703125 45.683594 102.453125 45.683594 100.816406 C 45.683594 99.175781 45.96875 97.925781 46.546875 97.0625 C 47.121094 96.203125 47.953125 95.769531 49.042969 95.769531 Z M 49.042969 95.769531 "/>
<path style=" stroke:none;fill-rule:nonzero;fill:rgb(0%,0%,0%);fill-opacity:1;" d="M 57.523438 96.8125 C 56.847656 96.8125 56.339844 97.144531 55.996094 97.8125 C 55.65625 98.476562 55.488281 99.480469 55.488281 100.816406 C 55.488281 102.148438 55.65625 103.148438 55.996094 103.8125 C 56.339844 104.480469 56.847656 104.8125 57.523438 104.8125 C 58.207031 104.8125 58.71875 104.480469 59.058594 103.8125 C 59.398438 103.148438 59.570312 102.148438 59.570312 100.816406 C 59.570312 99.480469 59.398438 98.476562 59.058594 97.8125 C 58.71875 97.144531 58.207031 96.8125 57.523438 96.8125 Z M 57.523438 95.769531 C 58.613281 95.769531 59.445312 96.203125 60.023438 97.0625 C 60.597656 97.925781 60.882812 99.175781 60.882812 100.816406 C 60.882812 102.453125 60.597656 103.703125 60.023438 104.5625 C 59.445312 105.425781 58.613281 105.855469 57.523438 105.855469 C 56.433594 105.855469 55.601562 105.425781 55.027344 104.5625 C 54.453125 103.703125 54.164062 102.453125 54.164062 100.816406 C 54.164062 99.175781 54.453125 97.925781 55.027344 97.0625 C 55.601562 96.203125 56.433594 95.769531 57.523438 95.769531 Z M 57.523438 95.769531 "/>
<g clip-path="url(#clip9)" clip-rule="nonzero">
<path style="fill:none;stroke-width:0.8;stroke-linecap:square;stroke-linejoin:round;stroke:rgb(69.01961%,69.01961%,69.01961%);stroke-opacity:1;stroke-miterlimit:4;" d="M 53.329102 43.224609 L 248.62793 43.224609 " transform="matrix(1.333333,0,0,1.333333,0.000000000000028422,0)"/>
</g>
<path style="fill:none;stroke-width:0.8;stroke-linecap:butt;stroke-linejoin:round;stroke:rgb(0%,0%,0%);stroke-opacity:1;stroke-miterlimit:4;" d="M 0.000976562 -0.000270844 L -3.5 -0.000270844 " transform="matrix(1.333333,0,0,1.333333,71.104167,57.633174)"/>
<path style=" stroke:none;fill-rule:nonzero;fill:rgb(0%,0%,0%);fill-opacity:1;" d="M 33.246094 57.457031 C 33.878906 57.59375 34.367188 57.871094 34.722656 58.296875 C 35.074219 58.722656 35.253906 59.25 35.253906 59.875 C 35.253906 60.832031 34.921875 61.574219 34.261719 62.101562 C 33.601562 62.625 32.664062 62.886719 31.449219 62.886719 C 31.042969 62.886719 30.625 62.847656 30.191406 62.765625 C 29.757812 62.6875 29.3125 62.566406 28.855469 62.40625 L 28.855469 61.136719 C 29.21875 61.347656 29.617188 61.507812 30.050781 61.617188 C 30.484375 61.726562 30.9375 61.78125 31.414062 61.78125 C 32.234375 61.78125 32.863281 61.617188 33.296875 61.292969 C 33.726562 60.96875 33.945312 60.496094 33.945312 59.875 C 33.945312 59.300781 33.742188 58.851562 33.339844 58.53125 C 32.941406 58.207031 32.382812 58.042969 31.667969 58.042969 L 30.535156 58.042969 L 30.535156 56.964844 L 31.71875 56.964844 C 32.363281 56.964844 32.859375 56.835938 33.203125 56.574219 C 33.546875 56.316406 33.714844 55.945312 33.714844 55.460938 C 33.714844 54.960938 33.539062 54.578125 33.183594 54.3125 C 32.832031 54.042969 32.328125 53.910156 31.667969 53.910156 C 31.304688 53.910156 30.917969 53.949219 30.507812 54.027344 C 30.09375 54.105469 29.640625 54.226562 29.144531 54.390625 L 29.144531 53.21875 C 29.644531 53.082031 30.113281 52.976562 30.550781 52.90625 C 30.984375 52.835938 31.398438 52.804688 31.785156 52.804688 C 32.78125 52.804688 33.570312 53.03125 34.152344 53.484375 C 34.734375 53.9375 35.023438 54.550781 35.023438 55.320312 C 35.023438 55.859375 34.871094 56.316406 34.5625 56.6875 C 34.253906 57.058594 33.816406 57.3125 33.246094 57.457031 Z M 33.246094 57.457031 "/>
<path style=" stroke:none;fill-rule:nonzero;fill:rgb(0%,0%,0%);fill-opacity:1;" d="M 40.558594 53.84375 C 39.882812 53.84375 39.371094 54.179688 39.03125 54.84375 C 38.691406 55.511719 38.519531 56.511719 38.519531 57.847656 C 38.519531 59.179688 38.691406 60.179688 39.03125 60.847656 C 39.371094 61.511719 39.882812 61.847656 40.558594 61.847656 C 41.238281 61.847656 41.75 61.511719 42.089844 60.847656 C 42.433594 60.179688 42.605469 59.179688 42.605469 57.847656 C 42.605469 56.511719 42.433594 55.511719 42.089844 54.84375 C 41.75 54.179688 41.238281 53.84375 40.558594 53.84375 Z M 40.558594 52.804688 C 41.648438 52.804688 42.480469 53.234375 43.054688 54.097656 C 43.632812 54.957031 43.917969 56.207031 43.917969 57.847656 C 43.917969 59.484375 43.632812 60.734375 43.054688 61.597656 C 42.480469 62.457031 41.648438 62.886719 40.558594 62.886719 C 39.46875 62.886719 38.636719 62.457031 38.0625 61.597656 C 37.488281 60.734375 37.199219 59.484375 37.199219 57.847656 C 37.199219 56.207031 37.488281 54.957031 38.0625 54.097656 C 38.636719 53.234375 39.46875 52.804688 40.558594 52.804688 Z M 40.558594 52.804688 "/>
<path style=" stroke:none;fill-rule:nonzero;fill:rgb(0%,0%,0%);fill-opacity:1;" d="M 49.042969 53.84375 C 48.363281 53.84375 47.855469 54.179688 47.515625 54.84375 C 47.171875 55.511719 47.003906 56.511719 47.003906 57.847656 C 47.003906 59.179688 47.171875 60.179688 47.515625 60.847656 C 47.855469 61.511719 48.363281 61.847656 49.042969 61.847656 C 49.722656 61.847656 50.234375 61.511719 50.574219 60.847656 C 50.917969 60.179688 51.085938 59.179688 51.085938 57.847656 C 51.085938 56.511719 50.917969 55.511719 50.574219 54.84375 C 50.234375 54.179688 49.722656 53.84375 49.042969 53.84375 Z M 49.042969 52.804688 C 50.132812 52.804688 50.964844 53.234375 51.539062 54.097656 C 52.113281 54.957031 52.402344 56.207031 52.402344 57.847656 C 52.402344 59.484375 52.113281 60.734375 51.539062 61.597656 C 50.964844 62.457031 50.132812 62.886719 49.042969 62.886719 C 47.953125 62.886719 47.121094 62.457031 46.546875 61.597656 C 45.96875 60.734375 45.683594 59.484375 45.683594 57.847656 C 45.683594 56.207031 45.96875 54.957031 46.546875 54.097656 C 47.121094 53.234375 47.953125 52.804688 49.042969 52.804688 Z M 49.042969 52.804688 "/>
<path style=" stroke:none;fill-rule:nonzero;fill:rgb(0%,0%,0%);fill-opacity:1;" d="M 57.523438 53.84375 C 56.847656 53.84375 56.339844 54.179688 55.996094 54.84375 C 55.65625 55.511719 55.488281 56.511719 55.488281 57.847656 C 55.488281 59.179688 55.65625 60.179688 55.996094 60.847656 C 56.339844 61.511719 56.847656 61.847656 57.523438 61.847656 C 58.207031 61.847656 58.71875 61.511719 59.058594 60.847656 C 59.398438 60.179688 59.570312 59.179688 59.570312 57.847656 C 59.570312 56.511719 59.398438 55.511719 59.058594 54.84375 C 58.71875 54.179688 58.207031 53.84375 57.523438 53.84375 Z M 57.523438 52.804688 C 58.613281 52.804688 59.445312 53.234375 60.023438 54.097656 C 60.597656 54.957031 60.882812 56.207031 60.882812 57.847656 C 60.882812 59.484375 60.597656 60.734375 60.023438 61.597656 C 59.445312 62.457031 58.613281 62.886719 57.523438 62.886719 C 56.433594 62.886719 55.601562 62.457031 55.027344 61.597656 C 54.453125 60.734375 54.164062 59.484375 54.164062 57.847656 C 54.164062 56.207031 54.453125 54.957031 55.027344 54.097656 C 55.601562 53.234375 56.433594 52.804688 57.523438 52.804688 Z M 57.523438 52.804688 "/>
<g clip-path="url(#clip10)" clip-rule="nonzero">
<path style="fill:none;stroke-width:0.8;stroke-linecap:square;stroke-linejoin:round;stroke:rgb(69.01961%,69.01961%,69.01961%);stroke-opacity:1;stroke-miterlimit:4;" d="M 53.329102 10.998047 L 248.62793 10.998047 " transform="matrix(1.333333,0,0,1.333333,0.000000000000028422,0)"/>
</g>
<path style="fill:none;stroke-width:0.8;stroke-linecap:butt;stroke-linejoin:round;stroke:rgb(0%,0%,0%);stroke-opacity:1;stroke-miterlimit:4;" d="M 0.000976562 -0.00117207 L -3.5 -0.00117207 " transform="matrix(1.333333,0,0,1.333333,71.104167,14.665625)"/>
<path style=" stroke:none;fill-rule:nonzero;fill:rgb(0%,0%,0%);fill-opacity:1;" d="M 32.878906 11.15625 L 29.554688 16.347656 L 32.878906 16.347656 Z M 32.53125 10.011719 L 34.183594 10.011719 L 34.183594 16.347656 L 35.574219 16.347656 L 35.574219 17.441406 L 34.183594 17.441406 L 34.183594 19.730469 L 32.878906 19.730469 L 32.878906 17.441406 L 28.488281 17.441406 L 28.488281 16.171875 Z M 32.53125 10.011719 "/>
<path style=" stroke:none;fill-rule:nonzero;fill:rgb(0%,0%,0%);fill-opacity:1;" d="M 40.558594 10.878906 C 39.882812 10.878906 39.371094 11.210938 39.03125 11.878906 C 38.691406 12.542969 38.519531 13.542969 38.519531 14.882812 C 38.519531 16.214844 38.691406 17.210938 39.03125 17.878906 C 39.371094 18.546875 39.882812 18.878906 40.558594 18.878906 C 41.238281 18.878906 41.75 18.546875 42.089844 17.878906 C 42.433594 17.210938 42.605469 16.214844 42.605469 14.882812 C 42.605469 13.542969 42.433594 12.542969 42.089844 11.878906 C 41.75 11.210938 41.238281 10.878906 40.558594 10.878906 Z M 40.558594 9.835938 C 41.648438 9.835938 42.480469 10.265625 43.054688 11.128906 C 43.632812 11.992188 43.917969 13.242188 43.917969 14.882812 C 43.917969 16.515625 43.632812 17.765625 43.054688 18.628906 C 42.480469 19.492188 41.648438 19.921875 40.558594 19.921875 C 39.46875 19.921875 38.636719 19.492188 38.0625 18.628906 C 37.488281 17.765625 37.199219 16.515625 37.199219 14.882812 C 37.199219 13.242188 37.488281 11.992188 38.0625 11.128906 C 38.636719 10.265625 39.46875 9.835938 40.558594 9.835938 Z M 40.558594 9.835938 "/>
<path style=" stroke:none;fill-rule:nonzero;fill:rgb(0%,0%,0%);fill-opacity:1;" d="M 49.042969 10.878906 C 48.363281 10.878906 47.855469 11.210938 47.515625 11.878906 C 47.171875 12.542969 47.003906 13.542969 47.003906 14.882812 C 47.003906 16.214844 47.171875 17.210938 47.515625 17.878906 C 47.855469 18.546875 48.363281 18.878906 49.042969 18.878906 C 49.722656 18.878906 50.234375 18.546875 50.574219 17.878906 C 50.917969 17.210938 51.085938 16.214844 51.085938 14.882812 C 51.085938 13.542969 50.917969 12.542969 50.574219 11.878906 C 50.234375 11.210938 49.722656 10.878906 49.042969 10.878906 Z M 49.042969 9.835938 C 50.132812 9.835938 50.964844 10.265625 51.539062 11.128906 C 52.113281 11.992188 52.402344 13.242188 52.402344 14.882812 C 52.402344 16.515625 52.113281 17.765625 51.539062 18.628906 C 50.964844 19.492188 50.132812 19.921875 49.042969 19.921875 C 47.953125 19.921875 47.121094 19.492188 46.546875 18.628906 C 45.96875 17.765625 45.683594 16.515625 45.683594 14.882812 C 45.683594 13.242188 45.96875 11.992188 46.546875 11.128906 C 47.121094 10.265625 47.953125 9.835938 49.042969 9.835938 Z M 49.042969 9.835938 "/>
<path style=" stroke:none;fill-rule:nonzero;fill:rgb(0%,0%,0%);fill-opacity:1;" d="M 57.523438 10.878906 C 56.847656 10.878906 56.339844 11.210938 55.996094 11.878906 C 55.65625 12.542969 55.488281 13.542969 55.488281 14.882812 C 55.488281 16.214844 55.65625 17.210938 55.996094 17.878906 C 56.339844 18.546875 56.847656 18.878906 57.523438 18.878906 C 58.207031 18.878906 58.71875 18.546875 59.058594 17.878906 C 59.398438 17.210938 59.570312 16.214844 59.570312 14.882812 C 59.570312 13.542969 59.398438 12.542969 59.058594 11.878906 C 58.71875 11.210938 58.207031 10.878906 57.523438 10.878906 Z M 57.523438 9.835938 C 58.613281 9.835938 59.445312 10.265625 60.023438 11.128906 C 60.597656 11.992188 60.882812 13.242188 60.882812 14.882812 C 60.882812 16.515625 60.597656 17.765625 60.023438 18.628906 C 59.445312 19.492188 58.613281 19.921875 57.523438 19.921875 C 56.433594 19.921875 55.601562 19.492188 55.027344 18.628906 C 54.453125 17.765625 54.164062 16.515625 54.164062 14.882812 C 54.164062 13.242188 54.453125 11.992188 55.027344 11.128906 C 55.601562 10.265625 56.433594 9.835938 57.523438 9.835938 Z M 57.523438 9.835938 "/>
<path style=" stroke:none;fill-rule:nonzero;fill:rgb(0%,0%,0%);fill-opacity:1;" d="M 9.601562 110.71875 L 10.597656 110.71875 L 10.597656 111.863281 C 10.597656 112.292969 10.683594 112.59375 10.859375 112.761719 C 11.03125 112.925781 11.34375 113.011719 11.796875 113.011719 L 12.441406 113.011719 L 12.441406 111.039062 L 13.371094 111.039062 L 13.371094 113.011719 L 19.730469 113.011719 L 19.730469 114.214844 L 13.371094 114.214844 L 13.371094 115.359375 L 12.441406 115.359375 L 12.441406 114.214844 L 11.929688 114.214844 C 11.121094 114.214844 10.527344 114.027344 10.160156 113.648438 C 9.785156 113.269531 9.601562 112.671875 9.601562 111.851562 Z M 9.601562 110.71875 "/>
<path style=" stroke:none;fill-rule:nonzero;fill:rgb(0%,0%,0%);fill-opacity:1;" d="M 9.613281 106.839844 C 10.613281 107.421875 11.597656 107.851562 12.578125 108.136719 C 13.554688 108.417969 14.542969 108.558594 15.546875 108.558594 C 16.546875 108.558594 17.539062 108.414062 18.523438 108.132812 C 19.507812 107.847656 20.496094 107.414062 21.488281 106.839844 L 21.488281 107.882812 C 20.46875 108.53125 19.464844 109.019531 18.480469 109.339844 C 17.496094 109.664062 16.519531 109.828125 15.546875 109.828125 C 14.578125 109.828125 13.601562 109.667969 12.621094 109.347656 C 11.640625 109.023438 10.636719 108.535156 9.613281 107.882812 Z M 9.613281 106.839844 "/>
<path style=" stroke:none;fill-rule:nonzero;fill:rgb(0%,0%,0%);fill-opacity:1;" d="M 12.441406 98.453125 L 15.988281 101.089844 L 19.730469 98.316406 L 19.730469 99.730469 L 16.867188 101.851562 L 19.730469 103.972656 L 19.730469 105.386719 L 15.917969 102.554688 L 12.441406 105.144531 L 12.441406 103.734375 L 15.039062 101.800781 L 12.441406 99.867188 Z M 12.441406 98.453125 "/>
<path style=" stroke:none;fill-rule:nonzero;fill:rgb(0%,0%,0%);fill-opacity:1;" d="M 9.613281 96.8125 L 9.613281 95.769531 C 10.636719 95.121094 11.640625 94.632812 12.621094 94.308594 C 13.601562 93.984375 14.578125 93.824219 15.546875 93.824219 C 16.519531 93.824219 17.496094 93.984375 18.480469 94.308594 C 19.464844 94.632812 20.46875 95.121094 21.488281 95.769531 L 21.488281 96.8125 C 20.496094 96.234375 19.507812 95.804688 18.523438 95.519531 C 17.539062 95.234375 16.546875 95.09375 15.546875 95.09375 C 14.542969 95.09375 13.554688 95.234375 12.578125 95.519531 C 11.597656 95.804688 10.613281 96.234375 9.613281 96.8125 Z M 9.613281 96.8125 "/>
<path style="fill:none;stroke-width:1.5;stroke-linecap:square;stroke-linejoin:round;stroke:rgb(12.156863%,46.666667%,70.588237%);stroke-opacity:1;stroke-miterlimit:4;" d="M 62.206055 16.356445 L 66.779297 28.757812 L 71.25293 40.253906 L 75.624023 50.885742 L 79.898437 60.694336 L 84.070312 69.720703 L 88.142578 78.00293 L 92.097656 85.552734 L 95.956055 92.44043 L 99.711914 98.698242 L 103.368164 104.364258 L 106.936523 109.494141 L 110.408203 114.09668 L 113.791992 118.22168 L 117.087891 121.895508 L 120.298828 125.147461 L 123.439453 128.012695 L 126.495117 130.50293 L 129.489258 132.662109 L 132.416016 134.499023 L 135.28125 136.040039 L 138.09375 137.299805 L 140.859375 138.295898 L 143.583984 139.045898 L 146.279297 139.555664 L 148.959961 139.836914 L 151.625977 139.895508 L 154.294922 139.728516 L 156.960937 139.341797 L 159.641602 138.726562 L 162.351562 137.874023 L 165.09082 136.78125 L 167.871094 135.427734 L 170.709961 133.798828 L 173.592773 131.885742 L 176.545898 129.65332 L 179.554687 127.098633 L 182.639648 124.186523 L 185.791992 120.899414 L 189.032227 117.199219 L 192.360352 113.056641 L 195.755859 108.46582 L 199.256836 103.362305 L 202.839844 97.737305 L 206.525391 91.532227 L 210.310547 84.714844 L 214.166016 77.305664 L 218.124023 69.222656 L 222.196289 60.389648 L 226.353516 50.833008 L 230.610352 40.485352 L 234.969727 29.305664 L 239.428711 17.25293 L 239.745117 16.374023 " transform="matrix(1.333333,0,0,1.333333,0.000000000000028422,0)"/>
<path style="fill:none;stroke-width:1.5;stroke-linecap:square;stroke-linejoin:round;stroke:rgb(100%,49.803922%,5.490196%);stroke-opacity:1;stroke-miterlimit:4;" d="M 165.316406 136.678711 L 133.772461 135.260742 L 171.624023 133.21875 L 126.202148 130.280273 L 180.708984 126.046875 L 115.303711 119.947266 L 193.790039 111.169922 L 99.606445 98.525391 L 212.625 80.320312 L 77.000977 54.105469 L 239.750977 16.356445 " transform="matrix(1.333333,0,0,1.333333,0.000000000000028422,0)"/>
<path style="fill-rule:nonzero;fill:rgb(100%,49.803922%,5.490196%);fill-opacity:1;stroke-width:1;stroke-linecap:butt;stroke-linejoin:round;stroke:rgb(100%,49.803922%,5.490196%);stroke-opacity:1;stroke-miterlimit:4;" d="M 0.000991821 2.99942 C 0.794937 2.99942 1.559586 2.683014 2.122086 2.120514 C 2.684586 1.558014 3.000992 0.796295 3.000992 -0.000579834 C 3.000992 -0.794525 2.684586 -1.559174 2.122086 -2.121674 C 1.559586 -2.684174 0.794937 -3.00058 0.000991821 -3.00058 C -0.795883 -3.00058 -1.557602 -2.684174 -2.120102 -2.121674 C -2.682602 -1.559174 -2.999008 -0.794525 -2.999008 -0.000579834 C -2.999008 0.796295 -2.682602 1.558014 -2.120102 2.120514 C -1.557602 2.683014 -0.795883 2.99942 0.000991821 2.99942 Z M 0.000991821 2.99942 " transform="matrix(1.333333,0,0,1.333333,220.420553,182.239054)"/>
<path style="fill-rule:nonzero;fill:rgb(100%,49.803922%,5.490196%);fill-opacity:1;stroke-width:1;stroke-linecap:butt;stroke-linejoin:round;stroke:rgb(100%,49.803922%,5.490196%);stroke-opacity:1;stroke-miterlimit:4;" d="M -0.000915527 2.999374 C 0.795959 2.999374 1.557678 2.682968 2.120178 2.120468 C 2.682678 1.557968 2.999084 0.796249 2.999084 -0.00062561 C 2.999084 -0.794571 2.682678 -1.559219 2.120178 -2.121719 C 1.557678 -2.684219 0.795959 -3.000626 -0.000915527 -3.000626 C -0.794861 -3.000626 -1.559509 -2.684219 -2.122009 -2.121719 C -2.684509 -1.559219 -3.000916 -0.794571 -3.000916 -0.00062561 C -3.000916 0.796249 -2.684509 1.557968 -2.122009 2.120468 C -1.559509 2.682968 -0.794861 2.999374 -0.000915527 2.999374 Z M -0.000915527 2.999374 " transform="matrix(1.333333,0,0,1.333333,178.364502,180.34849)"/>
<path style="fill-rule:nonzero;fill:rgb(100%,49.803922%,5.490196%);fill-opacity:1;stroke-width:1;stroke-linecap:butt;stroke-linejoin:round;stroke:rgb(100%,49.803922%,5.490196%);stroke-opacity:1;stroke-miterlimit:4;" d="M 0.000198364 2.999207 C 0.797073 2.999207 1.558792 2.6828 2.121292 2.1203 C 2.683792 1.5578 3.000198 0.796082 3.000198 -0.000793457 C 3.000198 -0.794739 2.683792 -1.559387 2.121292 -2.121887 C 1.558792 -2.684387 0.797073 -3.000793 0.000198364 -3.000793 C -0.796677 -3.000793 -1.558395 -2.684387 -2.120895 -2.121887 C -2.683395 -1.559387 -2.999802 -0.794739 -2.999802 -0.000793457 C -2.999802 0.796082 -2.683395 1.5578 -2.120895 2.1203 C -1.558395 2.6828 -0.796677 2.999207 0.000198364 2.999207 Z M 0.000198364 2.999207 " transform="matrix(1.333333,0,0,1.333333,228.831767,177.626058)"/>
<path style="fill-rule:nonzero;fill:rgb(100%,49.803922%,5.490196%);fill-opacity:1;stroke-width:1;stroke-linecap:butt;stroke-linejoin:round;stroke:rgb(100%,49.803922%,5.490196%);stroke-opacity:1;stroke-miterlimit:4;" d="M -0.00113678 3.000946 C 0.795738 3.000946 1.557457 2.68454 2.119957 2.12204 C 2.682457 1.55954 2.998863 0.794891 2.998863 0.000946045 C 2.998863 -0.795929 2.682457 -1.557648 2.119957 -2.120148 C 1.557457 -2.682648 0.795738 -2.999054 -0.00113678 -2.999054 C -0.795082 -2.999054 -1.559731 -2.682648 -2.122231 -2.120148 C -2.684731 -1.557648 -3.001137 -0.795929 -3.001137 0.000946045 C -3.001137 0.794891 -2.684731 1.55954 -2.122231 2.12204 C -1.559731 2.68454 -0.795082 3.000946 -0.00113678 3.000946 Z M -0.00113678 3.000946 " transform="matrix(1.333333,0,0,1.333333,168.271047,173.70577)"/>
<path style="fill-rule:nonzero;fill:rgb(100%,49.803922%,5.490196%);fill-opacity:1;stroke-width:1;stroke-linecap:butt;stroke-linejoin:round;stroke:rgb(100%,49.803922%,5.490196%);stroke-opacity:1;stroke-miterlimit:4;" d="M 0.00105286 3.001457 C 0.794998 3.001457 1.559647 2.685051 2.122147 2.122551 C 2.684647 1.560051 3.001053 0.795403 3.001053 0.00145721 C 3.001053 -0.795418 2.684647 -1.560066 2.122147 -2.122566 C 1.559647 -2.685066 0.794998 -2.998543 0.00105286 -2.998543 C -0.795822 -2.998543 -1.557541 -2.685066 -2.120041 -2.122566 C -2.682541 -1.560066 -2.998947 -0.795418 -2.998947 0.00145721 C -2.998947 0.795403 -2.682541 1.560051 -2.120041 2.122551 C -1.557541 2.685051 -0.795822 3.001457 0.00105286 3.001457 Z M 0.00105286 3.001457 " transform="matrix(1.333333,0,0,1.333333,240.943909,168.060557)"/>
<path style="fill-rule:nonzero;fill:rgb(100%,49.803922%,5.490196%);fill-opacity:1;stroke-width:1;stroke-linecap:butt;stroke-linejoin:round;stroke:rgb(100%,49.803922%,5.490196%);stroke-opacity:1;stroke-miterlimit:4;" d="M 0.0013504 2.998688 C 0.795296 2.998688 1.559944 2.685211 2.122444 2.122711 C 2.684944 1.557281 3.00135 0.795563 3.00135 -0.00131226 C 3.00135 -0.795258 2.684944 -1.559906 2.122444 -2.122406 C 1.559944 -2.684906 0.795296 -3.001312 0.0013504 -3.001312 C -0.795525 -3.001312 -1.560173 -2.684906 -2.122673 -2.122406 C -2.685173 -1.559906 -2.99865 -0.795258 -2.99865 -0.00131226 C -2.99865 0.795563 -2.685173 1.557281 -2.122673 2.122711 C -1.560173 2.685211 -0.795525 2.998688 0.0013504 2.998688 Z M 0.0013504 2.998688 " transform="matrix(1.333333,0,0,1.333333,153.736481,159.931437)"/>
<path style="fill-rule:nonzero;fill:rgb(100%,49.803922%,5.490196%);fill-opacity:1;stroke-width:1;stroke-linecap:butt;stroke-linejoin:round;stroke:rgb(100%,49.803922%,5.490196%);stroke-opacity:1;stroke-miterlimit:4;" d="M 0.000991821 3.000786 C 0.794937 3.000786 1.559586 2.68438 2.122086 2.12188 C 2.684586 1.55938 3.000992 0.794731 3.000992 0.000785828 C 3.000992 -0.796089 2.684586 -1.557808 2.122086 -2.120308 C 1.559586 -2.682808 0.794937 -2.999214 0.000991821 -2.999214 C -0.795883 -2.999214 -1.557602 -2.682808 -2.120102 -2.120308 C -2.682602 -1.557808 -2.999008 -0.796089 -2.999008 0.000785828 C -2.999008 0.794731 -2.682602 1.55938 -2.120102 2.12188 C -1.557602 2.68438 -0.795883 3.000786 0.000991821 3.000786 Z M 0.000991821 3.000786 " transform="matrix(1.333333,0,0,1.333333,258.385396,148.225515)"/>
<path style="fill-rule:nonzero;fill:rgb(100%,49.803922%,5.490196%);fill-opacity:1;stroke-width:1;stroke-linecap:butt;stroke-linejoin:round;stroke:rgb(100%,49.803922%,5.490196%);stroke-opacity:1;stroke-miterlimit:4;" d="M 0.0014267 2.99865 C 0.795372 2.99865 1.56002 2.685173 2.12252 2.122673 C 2.68502 1.560173 3.001427 0.795525 3.001427 -0.0013504 C 3.001427 -0.795296 2.68502 -1.559944 2.12252 -2.122444 C 1.56002 -2.684944 0.795372 -3.00135 0.0014267 -3.00135 C -0.795448 -3.00135 -1.560097 -2.684944 -2.122597 -2.122444 C -2.685097 -1.559944 -2.998573 -0.795296 -2.998573 -0.0013504 C -2.998573 0.795525 -2.685097 1.560173 -2.122597 2.122673 C -1.560097 2.685173 -0.795448 2.99865 0.0014267 2.99865 Z M 0.0014267 2.99865 " transform="matrix(1.333333,0,0,1.333333,132.806691,131.368988)"/>
<path style="fill-rule:nonzero;fill:rgb(100%,49.803922%,5.490196%);fill-opacity:1;stroke-width:1;stroke-linecap:butt;stroke-linejoin:round;stroke:rgb(100%,49.803922%,5.490196%);stroke-opacity:1;stroke-miterlimit:4;" d="M -0.000854492 2.998627 C 0.796021 2.998627 1.557739 2.68515 2.120239 2.12265 C 2.682739 1.56015 2.999146 0.795502 2.999146 -0.00137329 C 2.999146 -0.795319 2.682739 -1.559967 2.120239 -2.122467 C 1.557739 -2.684967 0.796021 -3.001373 -0.000854492 -3.001373 C -0.7948 -3.001373 -1.559448 -2.684967 -2.121948 -2.122467 C -2.684448 -1.559967 -3.000854 -0.795319 -3.000854 -0.00137329 C -3.000854 0.795502 -2.684448 1.56015 -2.121948 2.12265 C -1.559448 2.68515 -0.7948 2.998627 -0.000854492 2.998627 Z M -0.000854492 2.998627 " transform="matrix(1.333333,0,0,1.333333,283.501139,107.095581)"/>
<path style="fill-rule:nonzero;fill:rgb(100%,49.803922%,5.490196%);fill-opacity:1;stroke-width:1;stroke-linecap:butt;stroke-linejoin:round;stroke:rgb(100%,49.803922%,5.490196%);stroke-opacity:1;stroke-miterlimit:4;" d="M 0.00012207 2.999058 C 0.796997 2.999058 1.558716 2.682652 2.121216 2.120152 C 2.683716 1.557652 3.000122 0.795933 3.000122 -0.00094223 C 3.000122 -0.794888 2.683716 -1.559536 2.121216 -2.122036 C 1.558716 -2.684536 0.796997 -3.000942 0.00012207 -3.000942 C -0.796753 -3.000942 -1.558472 -2.684536 -2.120972 -2.122036 C -2.683472 -1.559536 -2.999878 -0.794888 -2.999878 -0.00094223 C -2.999878 0.795933 -2.683472 1.557652 -2.120972 2.120152 C -1.558472 2.682652 -0.796753 2.999058 0.00012207 2.999058 Z M 0.00012207 2.999058 " transform="matrix(1.333333,0,0,1.333333,102.667806,72.141881)"/>
<path style="fill-rule:nonzero;fill:rgb(100%,49.803922%,5.490196%);fill-opacity:1;stroke-width:1;stroke-linecap:butt;stroke-linejoin:round;stroke:rgb(100%,49.803922%,5.490196%);stroke-opacity:1;stroke-miterlimit:4;" d="M 0.00012207 3.000032 C 0.796997 3.000032 1.558716 2.683626 2.121216 2.121126 C 2.683716 1.558626 3.000122 0.796907 3.000122 0.0000324249 C 3.000122 -0.796843 2.683716 -1.558561 2.121216 -2.121061 C 1.558716 -2.683561 0.796997 -2.999968 0.00012207 -2.999968 C -0.796753 -2.999968 -1.558472 -2.683561 -2.120972 -2.121061 C -2.683472 -1.558561 -2.999878 -0.796843 -2.999878 0.0000324249 C -2.999878 0.796907 -2.683472 1.558626 -2.120972 2.121126 C -1.558472 2.683626 -0.796753 3.000032 0.00012207 3.000032 Z M 0.00012207 3.000032 " transform="matrix(1.333333,0,0,1.333333,319.667806,21.808551)"/>
<path style="fill:none;stroke-width:0.8;stroke-linecap:square;stroke-linejoin:miter;stroke:rgb(0%,0%,0%);stroke-opacity:1;stroke-miterlimit:4;" d="M 53.329102 146.080078 L 53.329102 10.177734 " transform="matrix(1.333333,0,0,1.333333,0.000000000000028422,0)"/>
<path style="fill:none;stroke-width:0.8;stroke-linecap:square;stroke-linejoin:miter;stroke:rgb(0%,0%,0%);stroke-opacity:1;stroke-miterlimit:4;" d="M 248.62793 146.080078 L 248.62793 10.177734 " transform="matrix(1.333333,0,0,1.333333,0.000000000000028422,0)"/>
<path style="fill:none;stroke-width:0.8;stroke-linecap:square;stroke-linejoin:miter;stroke:rgb(0%,0%,0%);stroke-opacity:1;stroke-miterlimit:4;" d="M 53.329102 146.080078 L 248.62793 146.080078 " transform="matrix(1.333333,0,0,1.333333,0.000000000000028422,0)"/>
<path style="fill:none;stroke-width:0.8;stroke-linecap:square;stroke-linejoin:miter;stroke:rgb(0%,0%,0%);stroke-opacity:1;stroke-miterlimit:4;" d="M 53.329102 10.177734 L 248.62793 10.177734 " transform="matrix(1.333333,0,0,1.333333,0.000000000000028422,0)"/>
</g>
</svg>
