<?xml version="1.0" encoding="UTF-8"?>
<svg xmlns="http://www.w3.org/2000/svg" xmlns:xlink="http://www.w3.org/1999/xlink" width="324.137492" height="240.875" viewBox="0 0 324.137492 240.875" version="1.1">
<defs>
<clipPath id="clip1">
  <path d="M 65 9.601562 L 67 9.601562 L 67 190.800781 L 65 190.800781 Z M 65 9.601562 "/>
</clipPath>
<clipPath id="clip2">
  <path d="M 124 9.601562 L 126 9.601562 L 126 190.800781 L 124 190.800781 Z M 124 9.601562 "/>
</clipPath>
<clipPath id="clip3">
  <path d="M 183 9.601562 L 186 9.601562 L 186 190.800781 L 183 190.800781 Z M 183 9.601562 "/>
</clipPath>
<clipPath id="clip4">
  <path d="M 242 9.601562 L 245 9.601562 L 245 190.800781 L 242 190.800781 Z M 242 9.601562 "/>
</clipPath>
<clipPath id="clip5">
  <path d="M 301 9.601562 L 304 9.601562 L 304 190.800781 L 301 190.800781 Z M 301 9.601562 "/>
</clipPath>
<clipPath id="clip6">
  <path d="M 54.136719 184 L 314.539062 184 L 314.539062 186 L 54.136719 186 Z M 54.136719 184 "/>
</clipPath>
<clipPath id="clip7">
  <path d="M 54.136719 139 L 314.539062 139 L 314.539062 141 L 54.136719 141 Z M 54.136719 139 "/>
</clipPath>
<clipPath id="clip8">
  <path d="M 54.136719 94 L 314.539062 94 L 314.539062 96 L 54.136719 96 Z M 54.136719 94 "/>
</clipPath>
<clipPath id="clip9">
  <path d="M 54.136719 49 L 314.539062 49 L 314.539062 51 L 54.136719 51 Z M 54.136719 49 "/>
</clipPath>
</defs>
<g id="surface1">
<path style=" stroke:none;fill-rule:nonzero;fill:rgb(100%,100%,100%);fill-opacity:1;" d="M 54.136719 190.800781 L 314.539062 190.800781 L 314.539062 9.601562 L 54.136719 9.601562 Z M 54.136719 190.800781 "/>
<g clip-path="url(#clip1)" clip-rule="nonzero">
<path style="fill:none;stroke-width:0.8;stroke-linecap:square;stroke-linejoin:round;stroke:rgb(69.01961%,69.01961%,69.01961%);stroke-opacity:1;stroke-miterlimit:4;" d="M 49.479492 143.100586 L 49.479492 7.201172 " transform="matrix(1.333333,0,0,1.333333,0.000000000000028422,0)"/>
</g>
<path style="fill:none;stroke-width:0.8;stroke-linecap:butt;stroke-linejoin:round;stroke:rgb(0%,0%,0%);stroke-opacity:1;stroke-miterlimit:4;" d="M -0.000904083 0.000579834 L -0.000904083 3.498627 " transform="matrix(1.333333,0,0,1.333333,65.973862,190.800008)"/>
<path style=" stroke:none;fill-rule:nonzero;fill:rgb(0%,0%,0%);fill-opacity:1;" d="M 53.316406 205.53125 L 61.664062 205.53125 L 61.664062 206.636719 L 53.316406 206.636719 Z M 53.316406 205.53125 "/>
<path style=" stroke:none;fill-rule:nonzero;fill:rgb(0%,0%,0%);fill-opacity:1;" d="M 64.730469 209.160156 L 66.878906 209.160156 L 66.878906 201.742188 L 64.539062 202.210938 L 64.539062 201.011719 L 66.867188 200.542969 L 68.179688 200.542969 L 68.179688 209.160156 L 70.328125 209.160156 L 70.328125 210.265625 L 64.730469 210.265625 Z M 64.730469 209.160156 "/>
<path style=" stroke:none;fill-rule:nonzero;fill:rgb(0%,0%,0%);fill-opacity:1;" d="M 75.796875 201.410156 C 75.121094 201.410156 74.609375 201.742188 74.269531 202.410156 C 73.929688 203.074219 73.757812 204.078125 73.757812 205.414062 C 73.757812 206.746094 73.929688 207.746094 74.269531 208.414062 C 74.609375 209.078125 75.121094 209.414062 75.796875 209.414062 C 76.476562 209.414062 76.988281 209.078125 77.328125 208.414062 C 77.671875 207.746094 77.84375 206.746094 77.84375 205.414062 C 77.84375 204.078125 77.671875 203.074219 77.328125 202.410156 C 76.988281 201.742188 76.476562 201.410156 75.796875 201.410156 Z M 75.796875 200.367188 C 76.886719 200.367188 77.71875 200.800781 78.292969 201.664062 C 78.871094 202.523438 79.15625 203.773438 79.15625 205.414062 C 79.15625 207.050781 78.871094 208.300781 78.292969 209.164062 C 77.71875 210.023438 76.886719 210.453125 75.796875 210.453125 C 74.707031 210.453125 73.875 210.023438 73.300781 209.164062 C 72.726562 208.300781 72.4375 207.050781 72.4375 205.414062 C 72.4375 203.773438 72.726562 202.523438 73.300781 201.664062 C 73.875 200.800781 74.707031 200.367188 75.796875 200.367188 Z M 75.796875 200.367188 "/>
<g clip-path="url(#clip2)" clip-rule="nonzero">
<path style="fill:none;stroke-width:0.8;stroke-linecap:square;stroke-linejoin:round;stroke:rgb(69.01961%,69.01961%,69.01961%);stroke-opacity:1;stroke-miterlimit:4;" d="M 93.867187 143.100586 L 93.867187 7.201172 " transform="matrix(1.333333,0,0,1.333333,0.000000000000028422,0)"/>
</g>
<path style="fill:none;stroke-width:0.8;stroke-linecap:butt;stroke-linejoin:round;stroke:rgb(0%,0%,0%);stroke-opacity:1;stroke-miterlimit:4;" d="M 0.000427246 0.000579834 L 0.000427246 3.498627 " transform="matrix(1.333333,0,0,1.333333,125.15568,190.800008)"/>
<path style=" stroke:none;fill-rule:nonzero;fill:rgb(0%,0%,0%);fill-opacity:1;" d="M 116.738281 205.53125 L 125.085938 205.53125 L 125.085938 206.636719 L 116.738281 206.636719 Z M 116.738281 205.53125 "/>
<path style=" stroke:none;fill-rule:nonzero;fill:rgb(0%,0%,0%);fill-opacity:1;" d="M 127.9375 200.542969 L 133.101562 200.542969 L 133.101562 201.652344 L 129.144531 201.652344 L 129.144531 204.035156 C 129.332031 203.96875 129.523438 203.917969 129.714844 203.886719 C 129.90625 203.855469 130.097656 203.839844 130.289062 203.839844 C 131.375 203.839844 132.234375 204.136719 132.867188 204.730469 C 133.5 205.324219 133.816406 206.128906 133.816406 207.144531 C 133.816406 208.191406 133.492188 209.003906 132.839844 209.585938 C 132.191406 210.164062 131.273438 210.453125 130.085938 210.453125 C 129.679688 210.453125 129.261719 210.417969 128.839844 210.351562 C 128.417969 210.28125 127.980469 210.175781 127.527344 210.039062 L 127.527344 208.714844 C 127.917969 208.925781 128.324219 209.085938 128.738281 209.191406 C 129.15625 209.292969 129.597656 209.347656 130.058594 209.347656 C 130.8125 209.347656 131.40625 209.148438 131.84375 208.753906 C 132.28125 208.359375 132.5 207.824219 132.5 207.144531 C 132.5 206.46875 132.28125 205.933594 131.84375 205.539062 C 131.40625 205.144531 130.8125 204.945312 130.058594 204.945312 C 129.707031 204.945312 129.359375 204.984375 129.007812 205.0625 C 128.660156 205.140625 128.304688 205.261719 127.9375 205.425781 Z M 127.9375 200.542969 "/>
<g clip-path="url(#clip3)" clip-rule="nonzero">
<path style="fill:none;stroke-width:0.8;stroke-linecap:square;stroke-linejoin:round;stroke:rgb(69.01961%,69.01961%,69.01961%);stroke-opacity:1;stroke-miterlimit:4;" d="M 138.251953 143.100586 L 138.251953 7.201172 " transform="matrix(1.333333,0,0,1.333333,0.000000000000028422,0)"/>
</g>
<path style="fill:none;stroke-width:0.8;stroke-linecap:butt;stroke-linejoin:round;stroke:rgb(0%,0%,0%);stroke-opacity:1;stroke-miterlimit:4;" d="M -0.00117493 0.000579834 L -0.00117493 3.498627 " transform="matrix(1.333333,0,0,1.333333,184.337504,190.800008)"/>
<path style=" stroke:none;fill-rule:nonzero;fill:rgb(0%,0%,0%);fill-opacity:1;" d="M 184.332031 201.410156 C 183.65625 201.410156 183.148438 201.742188 182.804688 202.410156 C 182.464844 203.074219 182.296875 204.078125 182.296875 205.414062 C 182.296875 206.746094 182.464844 207.746094 182.804688 208.414062 C 183.148438 209.078125 183.65625 209.414062 184.332031 209.414062 C 185.015625 209.414062 185.527344 209.078125 185.867188 208.414062 C 186.207031 207.746094 186.378906 206.746094 186.378906 205.414062 C 186.378906 204.078125 186.207031 203.074219 185.867188 202.410156 C 185.527344 201.742188 185.015625 201.410156 184.332031 201.410156 Z M 184.332031 200.367188 C 185.421875 200.367188 186.257812 200.800781 186.832031 201.664062 C 187.40625 202.523438 187.695312 203.773438 187.695312 205.414062 C 187.695312 207.050781 187.40625 208.300781 186.832031 209.164062 C 186.257812 210.023438 185.421875 210.453125 184.332031 210.453125 C 183.246094 210.453125 182.414062 210.023438 181.835938 209.164062 C 181.261719 208.300781 180.976562 207.050781 180.976562 205.414062 C 180.976562 203.773438 181.261719 202.523438 181.835938 201.664062 C 182.414062 200.800781 183.246094 200.367188 184.332031 200.367188 Z M 184.332031 200.367188 "/>
<g clip-path="url(#clip4)" clip-rule="nonzero">
<path style="fill:none;stroke-width:0.8;stroke-linecap:square;stroke-linejoin:round;stroke:rgb(69.01961%,69.01961%,69.01961%);stroke-opacity:1;stroke-miterlimit:4;" d="M 182.639648 143.100586 L 182.639648 7.201172 " transform="matrix(1.333333,0,0,1.333333,0.000000000000028422,0)"/>
</g>
<path style="fill:none;stroke-width:0.8;stroke-linecap:butt;stroke-linejoin:round;stroke:rgb(0%,0%,0%);stroke-opacity:1;stroke-miterlimit:4;" d="M 0.000152588 0.000579834 L 0.000152588 3.498627 " transform="matrix(1.333333,0,0,1.333333,243.519328,190.800008)"/>
<path style=" stroke:none;fill-rule:nonzero;fill:rgb(0%,0%,0%);fill-opacity:1;" d="M 240.71875 200.542969 L 245.878906 200.542969 L 245.878906 201.652344 L 241.921875 201.652344 L 241.921875 204.035156 C 242.113281 203.96875 242.300781 203.917969 242.492188 203.886719 C 242.683594 203.855469 242.875 203.839844 243.066406 203.839844 C 244.152344 203.839844 245.011719 204.136719 245.644531 204.730469 C 246.277344 205.324219 246.597656 206.128906 246.597656 207.144531 C 246.597656 208.191406 246.269531 209.003906 245.621094 209.585938 C 244.96875 210.164062 244.050781 210.453125 242.863281 210.453125 C 242.457031 210.453125 242.039062 210.417969 241.617188 210.351562 C 241.195312 210.28125 240.757812 210.175781 240.308594 210.039062 L 240.308594 208.714844 C 240.695312 208.925781 241.101562 209.085938 241.515625 209.191406 C 241.933594 209.292969 242.375 209.347656 242.839844 209.347656 C 243.589844 209.347656 244.183594 209.148438 244.621094 208.753906 C 245.058594 208.359375 245.28125 207.824219 245.28125 207.144531 C 245.28125 206.46875 245.058594 205.933594 244.621094 205.539062 C 244.183594 205.144531 243.589844 204.945312 242.839844 204.945312 C 242.488281 204.945312 242.136719 204.984375 241.785156 205.0625 C 241.4375 205.140625 241.082031 205.261719 240.71875 205.425781 Z M 240.71875 200.542969 "/>
<g clip-path="url(#clip5)" clip-rule="nonzero">
<path style="fill:none;stroke-width:0.8;stroke-linecap:square;stroke-linejoin:round;stroke:rgb(69.01961%,69.01961%,69.01961%);stroke-opacity:1;stroke-miterlimit:4;" d="M 227.024414 143.100586 L 227.024414 7.201172 " transform="matrix(1.333333,0,0,1.333333,0.000000000000028422,0)"/>
</g>
<path style="fill:none;stroke-width:0.8;stroke-linecap:butt;stroke-linejoin:round;stroke:rgb(0%,0%,0%);stroke-opacity:1;stroke-miterlimit:4;" d="M -0.00143433 0.000579834 L -0.00143433 3.498627 " transform="matrix(1.333333,0,0,1.333333,302.701131,190.800008)"/>
<path style=" stroke:none;fill-rule:nonzero;fill:rgb(0%,0%,0%);fill-opacity:1;" d="M 295.871094 209.160156 L 298.019531 209.160156 L 298.019531 201.742188 L 295.683594 202.210938 L 295.683594 201.011719 L 298.007812 200.542969 L 299.320312 200.542969 L 299.320312 209.160156 L 301.46875 209.160156 L 301.46875 210.265625 L 295.871094 210.265625 Z M 295.871094 209.160156 "/>
<path style=" stroke:none;fill-rule:nonzero;fill:rgb(0%,0%,0%);fill-opacity:1;" d="M 306.9375 201.410156 C 306.261719 201.410156 305.753906 201.742188 305.410156 202.410156 C 305.070312 203.074219 304.902344 204.078125 304.902344 205.414062 C 304.902344 206.746094 305.070312 207.746094 305.410156 208.414062 C 305.753906 209.078125 306.261719 209.414062 306.9375 209.414062 C 307.621094 209.414062 308.132812 209.078125 308.472656 208.414062 C 308.8125 207.746094 308.984375 206.746094 308.984375 205.414062 C 308.984375 204.078125 308.8125 203.074219 308.472656 202.410156 C 308.132812 201.742188 307.621094 201.410156 306.9375 201.410156 Z M 306.9375 200.367188 C 308.027344 200.367188 308.859375 200.800781 309.4375 201.664062 C 310.011719 202.523438 310.296875 203.773438 310.296875 205.414062 C 310.296875 207.050781 310.011719 208.300781 309.4375 209.164062 C 308.859375 210.023438 308.027344 210.453125 306.9375 210.453125 C 305.847656 210.453125 305.015625 210.023438 304.441406 209.164062 C 303.867188 208.300781 303.578125 207.050781 303.578125 205.414062 C 303.578125 203.773438 303.867188 202.523438 304.441406 201.664062 C 305.015625 200.800781 305.847656 200.367188 306.9375 200.367188 Z M 306.9375 200.367188 "/>
<path style=" stroke:none;fill-rule:nonzero;fill:rgb(0%,0%,0%);fill-opacity:1;" d="M 187.710938 221.210938 L 185.074219 224.757812 L 187.847656 228.503906 L 186.433594 228.503906 L 184.308594 225.636719 L 182.191406 228.503906 L 180.773438 228.503906 L 183.609375 224.6875 L 181.015625 221.210938 L 182.429688 221.210938 L 184.363281 223.808594 L 186.296875 221.210938 Z M 187.710938 221.210938 "/>
<g clip-path="url(#clip6)" clip-rule="nonzero">
<path style="fill:none;stroke-width:0.8;stroke-linecap:square;stroke-linejoin:round;stroke:rgb(69.01961%,69.01961%,69.01961%);stroke-opacity:1;stroke-miterlimit:4;" d="M 40.602539 138.609375 L 235.904297 138.609375 " transform="matrix(1.333333,0,0,1.333333,0.000000000000028422,0)"/>
</g>
<path style="fill:none;stroke-width:0.8;stroke-linecap:butt;stroke-linejoin:round;stroke:rgb(0%,0%,0%);stroke-opacity:1;stroke-miterlimit:4;" d="M -0.000587463 -0.000900269 L -3.498634 -0.000900269 " transform="matrix(1.333333,0,0,1.333333,54.137502,184.8137)"/>
<path style=" stroke:none;fill-rule:nonzero;fill:rgb(0%,0%,0%);fill-opacity:1;" d="M 40.558594 181.023438 C 39.882812 181.023438 39.371094 181.359375 39.03125 182.023438 C 38.691406 182.691406 38.519531 183.691406 38.519531 185.03125 C 38.519531 186.359375 38.691406 187.359375 39.03125 188.027344 C 39.371094 188.695312 39.882812 189.027344 40.558594 189.027344 C 41.242188 189.027344 41.75 188.695312 42.089844 188.027344 C 42.433594 187.359375 42.605469 186.359375 42.605469 185.03125 C 42.605469 183.691406 42.433594 182.691406 42.089844 182.023438 C 41.75 181.359375 41.242188 181.023438 40.558594 181.023438 Z M 40.558594 179.984375 C 41.648438 179.984375 42.480469 180.414062 43.054688 181.277344 C 43.632812 182.136719 43.917969 183.390625 43.917969 185.03125 C 43.917969 186.664062 43.632812 187.914062 43.054688 188.777344 C 42.480469 189.636719 41.648438 190.070312 40.558594 190.070312 C 39.46875 190.070312 38.636719 189.636719 38.0625 188.777344 C 37.488281 187.914062 37.199219 186.664062 37.199219 185.03125 C 37.199219 183.390625 37.488281 182.136719 38.0625 181.277344 C 38.636719 180.414062 39.46875 179.984375 40.558594 179.984375 Z M 40.558594 179.984375 "/>
<g clip-path="url(#clip7)" clip-rule="nonzero">
<path style="fill:none;stroke-width:0.8;stroke-linecap:square;stroke-linejoin:round;stroke:rgb(69.01961%,69.01961%,69.01961%);stroke-opacity:1;stroke-miterlimit:4;" d="M 40.602539 104.859375 L 235.904297 104.859375 " transform="matrix(1.333333,0,0,1.333333,0.000000000000028422,0)"/>
</g>
<path style="fill:none;stroke-width:0.8;stroke-linecap:butt;stroke-linejoin:round;stroke:rgb(0%,0%,0%);stroke-opacity:1;stroke-miterlimit:4;" d="M -0.000587463 0.0000991821 L -3.498634 0.0000991821 " transform="matrix(1.333333,0,0,1.333333,54.137502,139.812368)"/>
<path style=" stroke:none;fill-rule:nonzero;fill:rgb(0%,0%,0%);fill-opacity:1;" d="M 30.394531 143.773438 L 34.984375 143.773438 L 34.984375 144.878906 L 28.816406 144.878906 L 28.816406 143.773438 C 29.3125 143.253906 29.992188 142.5625 30.855469 141.691406 C 31.714844 140.820312 32.257812 140.261719 32.480469 140.007812 C 32.898438 139.535156 33.195312 139.136719 33.359375 138.808594 C 33.527344 138.480469 33.613281 138.15625 33.613281 137.839844 C 33.613281 137.324219 33.429688 136.902344 33.070312 136.578125 C 32.707031 136.25 32.234375 136.089844 31.652344 136.089844 C 31.238281 136.089844 30.804688 136.160156 30.347656 136.304688 C 29.890625 136.445312 29.398438 136.664062 28.878906 136.957031 L 28.878906 135.625 C 29.410156 135.414062 29.902344 135.253906 30.363281 135.144531 C 30.824219 135.035156 31.246094 134.980469 31.628906 134.980469 C 32.632812 134.980469 33.4375 135.234375 34.035156 135.738281 C 34.632812 136.242188 34.933594 136.914062 34.933594 137.753906 C 34.933594 138.15625 34.859375 138.535156 34.707031 138.894531 C 34.558594 139.25 34.289062 139.671875 33.890625 140.15625 C 33.785156 140.285156 33.4375 140.648438 32.855469 141.25 C 32.277344 141.851562 31.457031 142.691406 30.394531 143.773438 Z M 30.394531 143.773438 "/>
<path style=" stroke:none;fill-rule:nonzero;fill:rgb(0%,0%,0%);fill-opacity:1;" d="M 40.558594 136.023438 C 39.882812 136.023438 39.371094 136.355469 39.03125 137.023438 C 38.691406 137.6875 38.519531 138.691406 38.519531 140.027344 C 38.519531 141.359375 38.691406 142.359375 39.03125 143.027344 C 39.371094 143.691406 39.882812 144.027344 40.558594 144.027344 C 41.238281 144.027344 41.75 143.691406 42.089844 143.027344 C 42.433594 142.359375 42.605469 141.359375 42.605469 140.027344 C 42.605469 138.691406 42.433594 137.6875 42.089844 137.023438 C 41.75 136.355469 41.238281 136.023438 40.558594 136.023438 Z M 40.558594 134.980469 C 41.648438 134.980469 42.480469 135.414062 43.054688 136.277344 C 43.632812 137.136719 43.917969 138.386719 43.917969 140.027344 C 43.917969 141.664062 43.632812 142.914062 43.054688 143.777344 C 42.480469 144.636719 41.648438 145.066406 40.558594 145.066406 C 39.46875 145.066406 38.636719 144.636719 38.0625 143.777344 C 37.488281 142.914062 37.199219 141.664062 37.199219 140.027344 C 37.199219 138.386719 37.488281 137.136719 38.0625 136.277344 C 38.636719 135.414062 39.46875 134.980469 40.558594 134.980469 Z M 40.558594 134.980469 "/>
<g clip-path="url(#clip8)" clip-rule="nonzero">
<path style="fill:none;stroke-width:0.8;stroke-linecap:square;stroke-linejoin:round;stroke:rgb(69.01961%,69.01961%,69.01961%);stroke-opacity:1;stroke-miterlimit:4;" d="M 40.602539 71.109375 L 235.904297 71.109375 " transform="matrix(1.333333,0,0,1.333333,0.000000000000028422,0)"/>
</g>
<path style="fill:none;stroke-width:0.8;stroke-linecap:butt;stroke-linejoin:round;stroke:rgb(0%,0%,0%);stroke-opacity:1;stroke-miterlimit:4;" d="M -0.000587463 0.00109863 L -3.498634 0.00109863 " transform="matrix(1.333333,0,0,1.333333,54.137502,94.811035)"/>
<path style=" stroke:none;fill-rule:nonzero;fill:rgb(0%,0%,0%);fill-opacity:1;" d="M 32.878906 91.300781 L 29.554688 96.492188 L 32.878906 96.492188 Z M 32.53125 90.15625 L 34.183594 90.15625 L 34.183594 96.492188 L 35.574219 96.492188 L 35.574219 97.585938 L 34.183594 97.585938 L 34.183594 99.875 L 32.878906 99.875 L 32.878906 97.585938 L 28.488281 97.585938 L 28.488281 96.316406 Z M 32.53125 90.15625 "/>
<path style=" stroke:none;fill-rule:nonzero;fill:rgb(0%,0%,0%);fill-opacity:1;" d="M 40.558594 91.023438 C 39.882812 91.023438 39.371094 91.355469 39.03125 92.023438 C 38.691406 92.6875 38.519531 93.6875 38.519531 95.027344 C 38.519531 96.359375 38.691406 97.359375 39.03125 98.023438 C 39.371094 98.691406 39.882812 99.023438 40.558594 99.023438 C 41.238281 99.023438 41.75 98.691406 42.089844 98.023438 C 42.433594 97.359375 42.605469 96.359375 42.605469 95.027344 C 42.605469 93.6875 42.433594 92.6875 42.089844 92.023438 C 41.75 91.355469 41.238281 91.023438 40.558594 91.023438 Z M 40.558594 89.980469 C 41.648438 89.980469 42.480469 90.410156 43.054688 91.273438 C 43.632812 92.136719 43.917969 93.386719 43.917969 95.027344 C 43.917969 96.664062 43.632812 97.910156 43.054688 98.773438 C 42.480469 99.636719 41.648438 100.066406 40.558594 100.066406 C 39.46875 100.066406 38.636719 99.636719 38.0625 98.773438 C 37.488281 97.910156 37.199219 96.664062 37.199219 95.027344 C 37.199219 93.386719 37.488281 92.136719 38.0625 91.273438 C 38.636719 90.410156 39.46875 89.980469 40.558594 89.980469 Z M 40.558594 89.980469 "/>
<g clip-path="url(#clip9)" clip-rule="nonzero">
<path style="fill:none;stroke-width:0.8;stroke-linecap:square;stroke-linejoin:round;stroke:rgb(69.01961%,69.01961%,69.01961%);stroke-opacity:1;stroke-miterlimit:4;" d="M 40.602539 37.356445 L 235.904297 37.356445 " transform="matrix(1.333333,0,0,1.333333,0.000000000000028422,0)"/>
</g>
<path style="fill:none;stroke-width:0.8;stroke-linecap:butt;stroke-linejoin:round;stroke:rgb(0%,0%,0%);stroke-opacity:1;stroke-miterlimit:4;" d="M -0.000587463 -0.000835419 L -3.498634 -0.000835419 " transform="matrix(1.333333,0,0,1.333333,54.137502,49.809708)"/>
<path style=" stroke:none;fill-rule:nonzero;fill:rgb(0%,0%,0%);fill-opacity:1;" d="M 32.238281 49.492188 C 31.648438 49.492188 31.179688 49.695312 30.835938 50.097656 C 30.492188 50.5 30.320312 51.054688 30.320312 51.757812 C 30.320312 52.457031 30.492188 53.007812 30.835938 53.414062 C 31.179688 53.820312 31.648438 54.023438 32.238281 54.023438 C 32.828125 54.023438 33.296875 53.820312 33.640625 53.414062 C 33.984375 53.007812 34.160156 52.457031 34.160156 51.757812 C 34.160156 51.054688 33.984375 50.5 33.640625 50.097656 C 33.296875 49.695312 32.828125 49.492188 32.238281 49.492188 Z M 34.851562 45.367188 L 34.851562 46.566406 C 34.519531 46.410156 34.1875 46.292969 33.851562 46.210938 C 33.515625 46.128906 33.179688 46.085938 32.851562 46.085938 C 31.980469 46.085938 31.320312 46.378906 30.859375 46.964844 C 30.402344 47.550781 30.140625 48.4375 30.078125 49.621094 C 30.332031 49.242188 30.652344 48.953125 31.039062 48.753906 C 31.425781 48.550781 31.851562 48.449219 32.316406 48.449219 C 33.292969 48.449219 34.066406 48.746094 34.632812 49.339844 C 35.199219 49.929688 35.480469 50.738281 35.480469 51.757812 C 35.480469 52.753906 35.1875 53.554688 34.597656 54.160156 C 34.003906 54.761719 33.21875 55.066406 32.238281 55.066406 C 31.113281 55.066406 30.253906 54.632812 29.660156 53.773438 C 29.066406 52.910156 28.769531 51.660156 28.769531 50.023438 C 28.769531 48.488281 29.132812 47.265625 29.863281 46.351562 C 30.589844 45.4375 31.570312 44.980469 32.796875 44.980469 C 33.128906 44.980469 33.460938 45.011719 33.796875 45.078125 C 34.132812 45.144531 34.484375 45.238281 34.851562 45.367188 Z M 34.851562 45.367188 "/>
<path style=" stroke:none;fill-rule:nonzero;fill:rgb(0%,0%,0%);fill-opacity:1;" d="M 40.558594 46.019531 C 39.882812 46.019531 39.371094 46.355469 39.03125 47.019531 C 38.691406 47.6875 38.519531 48.6875 38.519531 50.023438 C 38.519531 51.355469 38.691406 52.355469 39.03125 53.023438 C 39.371094 53.691406 39.882812 54.023438 40.558594 54.023438 C 41.238281 54.023438 41.75 53.691406 42.089844 53.023438 C 42.433594 52.355469 42.605469 51.355469 42.605469 50.023438 C 42.605469 48.6875 42.433594 47.6875 42.089844 47.019531 C 41.75 46.355469 41.238281 46.019531 40.558594 46.019531 Z M 40.558594 44.980469 C 41.648438 44.980469 42.480469 45.410156 43.054688 46.273438 C 43.632812 47.132812 43.917969 48.386719 43.917969 50.023438 C 43.917969 51.660156 43.632812 52.910156 43.054688 53.773438 C 42.480469 54.632812 41.648438 55.066406 40.558594 55.066406 C 39.46875 55.066406 38.636719 54.632812 38.0625 53.773438 C 37.488281 52.910156 37.199219 51.660156 37.199219 50.023438 C 37.199219 48.386719 37.488281 47.132812 38.0625 46.273438 C 38.636719 45.410156 39.46875 44.980469 40.558594 44.980469 Z M 40.558594 44.980469 "/>
<path style=" stroke:none;fill-rule:nonzero;fill:rgb(0%,0%,0%);fill-opacity:1;" d="M 9.601562 106.746094 L 10.597656 106.746094 L 10.597656 107.894531 C 10.597656 108.320312 10.683594 108.621094 10.859375 108.789062 C 11.03125 108.957031 11.34375 109.039062 11.796875 109.039062 L 12.441406 109.039062 L 12.441406 107.066406 L 13.371094 107.066406 L 13.371094 109.039062 L 19.730469 109.039062 L 19.730469 110.242188 L 13.371094 110.242188 L 13.371094 111.386719 L 12.441406 111.386719 L 12.441406 110.242188 L 11.929688 110.242188 C 11.121094 110.242188 10.527344 110.054688 10.160156 109.675781 C 9.785156 109.296875 9.601562 108.699219 9.601562 107.878906 Z M 9.601562 106.746094 "/>
<path style=" stroke:none;fill-rule:nonzero;fill:rgb(0%,0%,0%);fill-opacity:1;" d="M 9.613281 102.867188 C 10.613281 103.449219 11.597656 103.878906 12.578125 104.164062 C 13.554688 104.445312 14.542969 104.585938 15.546875 104.585938 C 16.546875 104.585938 17.539062 104.445312 18.523438 104.160156 C 19.507812 103.875 20.496094 103.445312 21.488281 102.867188 L 21.488281 103.910156 C 20.46875 104.558594 19.464844 105.046875 18.480469 105.371094 C 17.496094 105.691406 16.519531 105.855469 15.546875 105.855469 C 14.578125 105.855469 13.601562 105.695312 12.621094 105.375 C 11.640625 105.050781 10.636719 104.5625 9.613281 103.910156 Z M 9.613281 102.867188 "/>
<path style=" stroke:none;fill-rule:nonzero;fill:rgb(0%,0%,0%);fill-opacity:1;" d="M 12.441406 94.480469 L 15.988281 97.117188 L 19.730469 94.34375 L 19.730469 95.757812 L 16.867188 97.878906 L 19.730469 100 L 19.730469 101.414062 L 15.917969 98.582031 L 12.441406 101.175781 L 12.441406 99.761719 L 15.039062 97.828125 L 12.441406 95.894531 Z M 12.441406 94.480469 "/>
<path style=" stroke:none;fill-rule:nonzero;fill:rgb(0%,0%,0%);fill-opacity:1;" d="M 9.613281 92.839844 L 9.613281 91.796875 C 10.636719 91.148438 11.640625 90.660156 12.621094 90.335938 C 13.601562 90.015625 14.578125 89.851562 15.546875 89.851562 C 16.519531 89.851562 17.496094 90.015625 18.480469 90.335938 C 19.464844 90.660156 20.46875 91.148438 21.488281 91.796875 L 21.488281 92.839844 C 20.496094 92.261719 19.507812 91.832031 18.523438 91.546875 C 17.539062 91.261719 16.546875 91.121094 15.546875 91.121094 C 14.542969 91.121094 13.554688 91.261719 12.578125 91.546875 C 11.597656 91.832031 10.613281 92.261719 9.613281 92.839844 Z M 9.613281 92.839844 "/>
<path style="fill:none;stroke-width:1.5;stroke-linecap:square;stroke-linejoin:round;stroke:rgb(12.156863%,46.666667%,70.588237%);stroke-opacity:1;stroke-miterlimit:4;" d="M 49.479492 13.376953 L 51.521484 26.979492 L 53.563477 39.105469 L 55.605469 49.913086 L 57.647461 59.545898 L 59.689453 68.132812 L 61.731445 75.788086 L 63.773437 82.611328 L 65.81543 88.69043 L 67.945312 94.333008 L 70.075195 99.333984 L 72.205078 103.772461 L 74.337891 107.707031 L 76.555664 111.331055 L 78.776367 114.530273 L 80.994141 117.351562 L 83.302734 119.935547 L 85.699219 122.282227 L 88.186523 124.40332 L 90.758789 126.307617 L 93.421875 128.003906 L 96.263672 129.550781 L 99.28125 130.939453 L 102.56543 132.199219 L 106.116211 133.31543 L 109.933594 134.279297 L 114.196289 135.120117 L 118.901367 135.817383 L 124.139648 136.359375 L 129.908203 136.731445 L 136.12207 136.910156 L 142.514648 136.875 L 148.728516 136.620117 L 154.49707 136.166016 L 159.647461 135.541992 L 164.264648 134.762695 L 168.436523 133.836914 L 172.163086 132.788086 L 175.625977 131.581055 L 178.822266 130.233398 L 181.751953 128.759766 L 184.50293 127.130859 L 187.166016 125.291016 L 189.65332 123.304688 L 192.049805 121.104492 L 194.358398 118.6875 L 196.576172 116.041992 L 198.796875 113.044922 L 200.926758 109.792969 L 203.056641 106.125 L 205.098633 102.169922 L 207.140625 97.734375 L 209.182617 92.756836 L 211.224609 87.169922 L 213.266602 80.90625 L 215.217773 74.197266 L 217.171875 66.711914 L 219.125977 58.353516 L 221.077148 49.022461 L 223.03125 38.607422 L 224.985352 26.979492 L 226.936523 14.000977 " transform="matrix(1.333333,0,0,1.333333,0.000000000000028422,0)"/>
<path style="fill:none;stroke-width:1.5;stroke-linecap:square;stroke-linejoin:round;stroke:rgb(100%,49.803922%,5.490196%);stroke-opacity:1;stroke-miterlimit:4;" d="M 227.024414 13.376953 L 209.273437 92.522461 L 191.53125 121.608398 L 173.862305 132.225586 L 156.741211 135.922852 L 142.921875 136.863281 L 138.357422 136.921875 L 138.251953 136.921875 " transform="matrix(1.333333,0,0,1.333333,0.000000000000028422,0)"/>
<path style="fill-rule:nonzero;fill:rgb(100%,49.803922%,5.490196%);fill-opacity:1;stroke-width:1;stroke-linecap:butt;stroke-linejoin:round;stroke:rgb(100%,49.803922%,5.490196%);stroke-opacity:1;stroke-miterlimit:4;" d="M -0.00143433 2.999681 C 0.795441 2.999681 1.560089 2.683274 2.122589 2.120774 C 2.685089 1.558274 2.998566 0.796556 2.998566 -0.000319481 C 2.998566 -0.794265 2.685089 -1.558913 2.122589 -2.121413 C 1.560089 -2.683913 0.795441 -3.000319 -0.00143433 -3.000319 C -0.79538 -3.000319 -1.560028 -2.683913 -2.122528 -2.121413 C -2.685028 -1.558913 -3.001434 -0.794265 -3.001434 -0.000319481 C -3.001434 0.796556 -2.685028 1.558274 -2.122528 2.120774 C -1.560028 2.683274 -0.79538 2.999681 -0.00143433 2.999681 Z M -0.00143433 2.999681 " transform="matrix(1.333333,0,0,1.333333,302.701131,17.836363)"/>
<path style="fill-rule:nonzero;fill:rgb(100%,49.803922%,5.490196%);fill-opacity:1;stroke-width:1;stroke-linecap:butt;stroke-linejoin:round;stroke:rgb(100%,49.803922%,5.490196%);stroke-opacity:1;stroke-miterlimit:4;" d="M 0.000518799 3.000389 C 0.794464 3.000389 1.559113 2.683983 2.121613 2.121483 C 2.684113 1.558983 3.000519 0.794334 3.000519 0.000389099 C 3.000519 -0.796486 2.684113 -1.558205 2.121613 -2.120705 C 1.559113 -2.683205 0.794464 -2.999611 0.000518799 -2.999611 C -0.796356 -2.999611 -1.558075 -2.683205 -2.120575 -2.120705 C -2.683075 -1.558205 -2.999481 -0.796486 -2.999481 0.000389099 C -2.999481 0.794334 -2.683075 1.558983 -2.120575 2.121483 C -1.558075 2.683983 -0.796356 3.000389 0.000518799 3.000389 Z M 0.000518799 3.000389 " transform="matrix(1.333333,0,0,1.333333,279.030558,123.362762)"/>
<path style="fill-rule:nonzero;fill:rgb(100%,49.803922%,5.490196%);fill-opacity:1;stroke-width:1;stroke-linecap:butt;stroke-linejoin:round;stroke:rgb(100%,49.803922%,5.490196%);stroke-opacity:1;stroke-miterlimit:4;" d="M 0.000961304 3.000687 C 0.794907 3.000687 1.559555 2.68428 2.122055 2.12178 C 2.684555 1.55928 3.000961 0.794632 3.000961 0.000686646 C 3.000961 -0.796188 2.684555 -1.557907 2.122055 -2.120407 C 1.559555 -2.682907 0.794907 -2.999313 0.000961304 -2.999313 C -0.795914 -2.999313 -1.557632 -2.682907 -2.120132 -2.120407 C -2.682632 -1.557907 -2.999039 -0.796188 -2.999039 0.000686646 C -2.999039 0.794632 -2.682632 1.55928 -2.120132 2.12178 C -1.557632 2.68428 -0.795914 3.000687 0.000961304 3.000687 Z M 0.000961304 3.000687 " transform="matrix(1.333333,0,0,1.333333,255.373718,162.143616)"/>
<path style="fill-rule:nonzero;fill:rgb(100%,49.803922%,5.490196%);fill-opacity:1;stroke-width:1;stroke-linecap:butt;stroke-linejoin:round;stroke:rgb(100%,49.803922%,5.490196%);stroke-opacity:1;stroke-miterlimit:4;" d="M -0.00109863 2.999191 C 0.795776 2.999191 1.557495 2.682785 2.119995 2.120285 C 2.682495 1.557785 2.998901 0.796066 2.998901 -0.000808716 C 2.998901 -0.794754 2.682495 -1.559402 2.119995 -2.121902 C 1.557495 -2.684402 0.795776 -3.000809 -0.00109863 -3.000809 C -0.795044 -3.000809 -1.559692 -2.684402 -2.122192 -2.121902 C -2.684692 -1.559402 -3.001099 -0.794754 -3.001099 -0.000808716 C -3.001099 0.796066 -2.684692 1.557785 -2.122192 2.120285 C -1.559692 2.682785 -0.795044 2.999191 -0.00109863 2.999191 Z M -0.00109863 2.999191 " transform="matrix(1.333333,0,0,1.333333,231.817871,176.30186)"/>
<path style="fill-rule:nonzero;fill:rgb(100%,49.803922%,5.490196%);fill-opacity:1;stroke-width:1;stroke-linecap:butt;stroke-linejoin:round;stroke:rgb(100%,49.803922%,5.490196%);stroke-opacity:1;stroke-miterlimit:4;" d="M 0.000778198 3.000687 C 0.794724 3.000687 1.559372 2.68428 2.121872 2.12178 C 2.684372 1.55928 3.000778 0.794632 3.000778 0.000686646 C 3.000778 -0.796188 2.684372 -1.557907 2.121872 -2.120407 C 1.559372 -2.682907 0.794724 -2.999313 0.000778198 -2.999313 C -0.796097 -2.999313 -1.557816 -2.682907 -2.120316 -2.120407 C -2.682816 -1.557907 -2.999222 -0.796188 -2.999222 0.000686646 C -2.999222 0.794632 -2.682816 1.55928 -2.120316 2.12178 C -1.557816 2.68428 -0.796097 3.000687 0.000778198 3.000687 Z M 0.000778198 3.000687 " transform="matrix(1.333333,0,0,1.333333,208.987244,181.229553)"/>
<path style="fill-rule:nonzero;fill:rgb(100%,49.803922%,5.490196%);fill-opacity:1;stroke-width:1;stroke-linecap:butt;stroke-linejoin:round;stroke:rgb(100%,49.803922%,5.490196%);stroke-opacity:1;stroke-miterlimit:4;" d="M 0.00140381 2.999207 C 0.795349 2.999207 1.559998 2.6828 2.122498 2.1203 C 2.684998 1.5578 3.001404 0.796082 3.001404 -0.000793457 C 3.001404 -0.794739 2.684998 -1.559387 2.122498 -2.121887 C 1.559998 -2.684387 0.795349 -3.000793 0.00140381 -3.000793 C -0.795471 -3.000793 -1.56012 -2.684387 -2.12262 -2.121887 C -2.68512 -1.559387 -2.998596 -0.794739 -2.998596 -0.000793457 C -2.998596 0.796082 -2.68512 1.5578 -2.12262 2.1203 C -1.56012 2.6828 -0.795471 2.999207 0.00140381 2.999207 Z M 0.00140381 2.999207 " transform="matrix(1.333333,0,0,1.333333,190.560628,182.485433)"/>
<path style="fill-rule:nonzero;fill:rgb(100%,49.803922%,5.490196%);fill-opacity:1;stroke-width:1;stroke-linecap:butt;stroke-linejoin:round;stroke:rgb(100%,49.803922%,5.490196%);stroke-opacity:1;stroke-miterlimit:4;" d="M -0.000320435 2.999176 C 0.796555 2.999176 1.558273 2.68277 2.120773 2.12027 C 2.683273 1.55777 2.99968 0.796051 2.99968 -0.000823975 C 2.99968 -0.794769 2.683273 -1.559418 2.120773 -2.121918 C 1.558273 -2.684418 0.796555 -3.000824 -0.000320435 -3.000824 C -0.794266 -3.000824 -1.558914 -2.684418 -2.121414 -2.121918 C -2.683914 -1.559418 -3.00032 -0.794769 -3.00032 -0.000823975 C -3.00032 0.796051 -2.683914 1.55777 -2.121414 2.12027 C -1.558914 2.68277 -0.794266 2.999176 -0.000320435 2.999176 Z M -0.000320435 2.999176 " transform="matrix(1.333333,0,0,1.333333,184.47699,182.563599)"/>
<path style="fill-rule:nonzero;fill:rgb(100%,49.803922%,5.490196%);fill-opacity:1;stroke-width:1;stroke-linecap:butt;stroke-linejoin:round;stroke:rgb(100%,49.803922%,5.490196%);stroke-opacity:1;stroke-miterlimit:4;" d="M -0.00117493 2.999146 C 0.7957 2.999146 1.557419 2.682739 2.119919 2.120239 C 2.685349 1.557739 2.998825 0.796021 2.998825 -0.000854492 C 2.998825 -0.7948 2.685349 -1.559448 2.119919 -2.121948 C 1.557419 -2.684448 0.7957 -3.000854 -0.00117493 -3.000854 C -0.79512 -3.000854 -1.559769 -2.684448 -2.122269 -2.121948 C -2.684769 -1.559448 -3.001175 -0.7948 -3.001175 -0.000854492 C -3.001175 0.796021 -2.684769 1.557739 -2.122269 2.120239 C -1.559769 2.682739 -0.79512 2.999146 -0.00117493 2.999146 Z M -0.00117493 2.999146 " transform="matrix(1.333333,0,0,1.333333,184.337504,182.563639)"/>
<path style="fill-rule:nonzero;fill:rgb(100%,49.803922%,5.490196%);fill-opacity:1;stroke-width:1;stroke-linecap:butt;stroke-linejoin:round;stroke:rgb(100%,49.803922%,5.490196%);stroke-opacity:1;stroke-miterlimit:4;" d="M -0.00117493 2.999146 C 0.7957 2.999146 1.557419 2.682739 2.119919 2.120239 C 2.685349 1.557739 2.998825 0.796021 2.998825 -0.000854492 C 2.998825 -0.7948 2.685349 -1.559448 2.119919 -2.121948 C 1.557419 -2.684448 0.7957 -3.000854 -0.00117493 -3.000854 C -0.79512 -3.000854 -1.559769 -2.684448 -2.122269 -2.121948 C -2.684769 -1.559448 -3.001175 -0.7948 -3.001175 -0.000854492 C -3.001175 0.796021 -2.684769 1.557739 -2.122269 2.120239 C -1.559769 2.682739 -0.79512 2.999146 -0.00117493 2.999146 Z M -0.00117493 2.999146 " transform="matrix(1.333333,0,0,1.333333,184.337504,182.563639)"/>
<path style="fill-rule:nonzero;fill:rgb(100%,49.803922%,5.490196%);fill-opacity:1;stroke-width:1;stroke-linecap:butt;stroke-linejoin:round;stroke:rgb(100%,49.803922%,5.490196%);stroke-opacity:1;stroke-miterlimit:4;" d="M -0.00117493 2.999146 C 0.7957 2.999146 1.557419 2.682739 2.119919 2.120239 C 2.685349 1.557739 2.998825 0.796021 2.998825 -0.000854492 C 2.998825 -0.7948 2.685349 -1.559448 2.119919 -2.121948 C 1.557419 -2.684448 0.7957 -3.000854 -0.00117493 -3.000854 C -0.79512 -3.000854 -1.559769 -2.684448 -2.122269 -2.121948 C -2.684769 -1.559448 -3.001175 -0.7948 -3.001175 -0.000854492 C -3.001175 0.796021 -2.684769 1.557739 -2.122269 2.120239 C -1.559769 2.682739 -0.79512 2.999146 -0.00117493 2.999146 Z M -0.00117493 2.999146 " transform="matrix(1.333333,0,0,1.333333,184.337504,182.563639)"/>
<path style="fill-rule:nonzero;fill:rgb(100%,49.803922%,5.490196%);fill-opacity:1;stroke-width:1;stroke-linecap:butt;stroke-linejoin:round;stroke:rgb(100%,49.803922%,5.490196%);stroke-opacity:1;stroke-miterlimit:4;" d="M -0.00117493 2.999146 C 0.7957 2.999146 1.557419 2.682739 2.119919 2.120239 C 2.685349 1.557739 2.998825 0.796021 2.998825 -0.000854492 C 2.998825 -0.7948 2.685349 -1.559448 2.119919 -2.121948 C 1.557419 -2.684448 0.7957 -3.000854 -0.00117493 -3.000854 C -0.79512 -3.000854 -1.559769 -2.684448 -2.122269 -2.121948 C -2.684769 -1.559448 -3.001175 -0.7948 -3.001175 -0.000854492 C -3.001175 0.796021 -2.684769 1.557739 -2.122269 2.120239 C -1.559769 2.682739 -0.79512 2.999146 -0.00117493 2.999146 Z M -0.00117493 2.999146 " transform="matrix(1.333333,0,0,1.333333,184.337504,182.563639)"/>
<path style="fill:none;stroke-width:0.8;stroke-linecap:square;stroke-linejoin:miter;stroke:rgb(0%,0%,0%);stroke-opacity:1;stroke-miterlimit:4;" d="M 40.602539 143.100586 L 40.602539 7.201172 " transform="matrix(1.333333,0,0,1.333333,0.000000000000028422,0)"/>
<path style="fill:none;stroke-width:0.8;stroke-linecap:square;stroke-linejoin:miter;stroke:rgb(0%,0%,0%);stroke-opacity:1;stroke-miterlimit:4;" d="M 235.904297 143.100586 L 235.904297 7.201172 " transform="matrix(1.333333,0,0,1.333333,0.000000000000028422,0)"/>
<path style="fill:none;stroke-width:0.8;stroke-linecap:square;stroke-linejoin:miter;stroke:rgb(0%,0%,0%);stroke-opacity:1;stroke-miterlimit:4;" d="M 40.602539 143.100586 L 235.904297 143.100586 " transform="matrix(1.333333,0,0,1.333333,0.000000000000028422,0)"/>
<path style="fill:none;stroke-width:0.8;stroke-linecap:square;stroke-linejoin:miter;stroke:rgb(0%,0%,0%);stroke-opacity:1;stroke-miterlimit:4;" d="M 40.602539 7.201172 L 235.904297 7.201172 " transform="matrix(1.333333,0,0,1.333333,0.000000000000028422,0)"/>
</g>
</svg>
