<?xml version="1.0" encoding="UTF-8"?>
<svg xmlns="http://www.w3.org/2000/svg" xmlns:xlink="http://www.w3.org/1999/xlink" width="315.654175" height="240.875" viewBox="0 0 315.654175 240.875" version="1.1">
<defs>
<clipPath id="clip1">
  <path d="M 56 9.601562 L 59 9.601562 L 59 190.800781 L 56 190.800781 Z M 56 9.601562 "/>
</clipPath>
<clipPath id="clip2">
  <path d="M 116 9.601562 L 118 9.601562 L 118 190.800781 L 116 190.800781 Z M 116 9.601562 "/>
</clipPath>
<clipPath id="clip3">
  <path d="M 175 9.601562 L 177 9.601562 L 177 190.800781 L 175 190.800781 Z M 175 9.601562 "/>
</clipPath>
<clipPath id="clip4">
  <path d="M 234 9.601562 L 237 9.601562 L 237 190.800781 L 234 190.800781 Z M 234 9.601562 "/>
</clipPath>
<clipPath id="clip5">
  <path d="M 294 9.601562 L 296 9.601562 L 296 190.800781 L 294 190.800781 Z M 294 9.601562 "/>
</clipPath>
<clipPath id="clip6">
  <path d="M 45.652344 181 L 306.054688 181 L 306.054688 184 L 45.652344 184 Z M 45.652344 181 "/>
</clipPath>
<clipPath id="clip7">
  <path d="M 45.652344 145 L 306.054688 145 L 306.054688 147 L 45.652344 147 Z M 45.652344 145 "/>
</clipPath>
<clipPath id="clip8">
  <path d="M 45.652344 108 L 306.054688 108 L 306.054688 111 L 45.652344 111 Z M 45.652344 108 "/>
</clipPath>
<clipPath id="clip9">
  <path d="M 45.652344 71 L 306.054688 71 L 306.054688 74 L 45.652344 74 Z M 45.652344 71 "/>
</clipPath>
<clipPath id="clip10">
  <path d="M 45.652344 35 L 306.054688 35 L 306.054688 37 L 45.652344 37 Z M 45.652344 35 "/>
</clipPath>
</defs>
<g id="surface1">
<path style=" stroke:none;fill-rule:nonzero;fill:rgb(100%,100%,100%);fill-opacity:1;" d="M 45.652344 190.800781 L 306.054688 190.800781 L 306.054688 9.601562 L 45.652344 9.601562 Z M 45.652344 190.800781 "/>
<g clip-path="url(#clip1)" clip-rule="nonzero">
<path style="fill:none;stroke-width:0.8;stroke-linecap:square;stroke-linejoin:round;stroke:rgb(69.01961%,69.01961%,69.01961%);stroke-opacity:1;stroke-miterlimit:4;" d="M 43.119141 143.100586 L 43.119141 7.201172 " transform="matrix(1.333333,0,0,1.333333,0,0)"/>
</g>
<path style="fill:none;stroke-width:0.8;stroke-linecap:butt;stroke-linejoin:round;stroke:rgb(0%,0%,0%);stroke-opacity:1;stroke-miterlimit:4;" d="M 0.00124359 0.000579834 L 0.00124359 3.498627 " transform="matrix(1.333333,0,0,1.333333,57.490529,190.800008)"/>
<path style=" stroke:none;fill-rule:nonzero;fill:rgb(0%,0%,0%);fill-opacity:1;" d="M 49.074219 205.53125 L 57.421875 205.53125 L 57.421875 206.636719 L 49.074219 206.636719 Z M 49.074219 205.53125 "/>
<path style=" stroke:none;fill-rule:nonzero;fill:rgb(0%,0%,0%);fill-opacity:1;" d="M 61.394531 209.160156 L 65.980469 209.160156 L 65.980469 210.265625 L 59.8125 210.265625 L 59.8125 209.160156 C 60.308594 208.640625 60.988281 207.949219 61.851562 207.078125 C 62.714844 206.207031 63.253906 205.648438 63.476562 205.394531 C 63.898438 204.921875 64.191406 204.523438 64.355469 204.195312 C 64.523438 203.867188 64.609375 203.542969 64.609375 203.226562 C 64.609375 202.710938 64.429688 202.289062 64.066406 201.964844 C 63.703125 201.636719 63.230469 201.476562 62.648438 201.476562 C 62.238281 201.476562 61.800781 201.546875 61.34375 201.691406 C 60.886719 201.832031 60.398438 202.050781 59.875 202.339844 L 59.875 201.011719 C 60.40625 200.800781 60.898438 200.640625 61.359375 200.53125 C 61.820312 200.421875 62.242188 200.367188 62.625 200.367188 C 63.628906 200.367188 64.433594 200.621094 65.03125 201.125 C 65.628906 201.628906 65.929688 202.300781 65.929688 203.140625 C 65.929688 203.542969 65.855469 203.921875 65.707031 204.277344 C 65.554688 204.636719 65.285156 205.058594 64.886719 205.542969 C 64.78125 205.671875 64.433594 206.035156 63.851562 206.636719 C 63.273438 207.238281 62.453125 208.078125 61.394531 209.160156 Z M 61.394531 209.160156 "/>
<g clip-path="url(#clip2)" clip-rule="nonzero">
<path style="fill:none;stroke-width:0.8;stroke-linecap:square;stroke-linejoin:round;stroke:rgb(69.01961%,69.01961%,69.01961%);stroke-opacity:1;stroke-miterlimit:4;" d="M 87.615234 143.100586 L 87.615234 7.201172 " transform="matrix(1.333333,0,0,1.333333,0,0)"/>
</g>
<path style="fill:none;stroke-width:0.8;stroke-linecap:butt;stroke-linejoin:round;stroke:rgb(0%,0%,0%);stroke-opacity:1;stroke-miterlimit:4;" d="M -0.000267029 0.000579834 L -0.000267029 3.498627 " transform="matrix(1.333333,0,0,1.333333,116.820669,190.800008)"/>
<path style=" stroke:none;fill-rule:nonzero;fill:rgb(0%,0%,0%);fill-opacity:1;" d="M 108.40625 205.53125 L 116.75 205.53125 L 116.75 206.636719 L 108.40625 206.636719 Z M 108.40625 205.53125 "/>
<path style=" stroke:none;fill-rule:nonzero;fill:rgb(0%,0%,0%);fill-opacity:1;" d="M 119.820312 209.160156 L 121.964844 209.160156 L 121.964844 201.742188 L 119.628906 202.210938 L 119.628906 201.011719 L 121.953125 200.542969 L 123.269531 200.542969 L 123.269531 209.160156 L 125.417969 209.160156 L 125.417969 210.265625 L 119.820312 210.265625 Z M 119.820312 209.160156 "/>
<g clip-path="url(#clip3)" clip-rule="nonzero">
<path style="fill:none;stroke-width:0.8;stroke-linecap:square;stroke-linejoin:round;stroke:rgb(69.01961%,69.01961%,69.01961%);stroke-opacity:1;stroke-miterlimit:4;" d="M 132.114258 143.100586 L 132.114258 7.201172 " transform="matrix(1.333333,0,0,1.333333,0,0)"/>
</g>
<path style="fill:none;stroke-width:0.8;stroke-linecap:butt;stroke-linejoin:round;stroke:rgb(0%,0%,0%);stroke-opacity:1;stroke-miterlimit:4;" d="M 0.00114441 0.000579834 L 0.00114441 3.498627 " transform="matrix(1.333333,0,0,1.333333,176.150818,190.800008)"/>
<path style=" stroke:none;fill-rule:nonzero;fill:rgb(0%,0%,0%);fill-opacity:1;" d="M 176.148438 201.410156 C 175.46875 201.410156 174.960938 201.742188 174.621094 202.410156 C 174.28125 203.074219 174.109375 204.078125 174.109375 205.414062 C 174.109375 206.746094 174.28125 207.746094 174.621094 208.414062 C 174.960938 209.078125 175.46875 209.414062 176.148438 209.414062 C 176.828125 209.414062 177.339844 209.078125 177.679688 208.414062 C 178.023438 207.746094 178.191406 206.746094 178.191406 205.414062 C 178.191406 204.078125 178.023438 203.074219 177.679688 202.410156 C 177.339844 201.742188 176.828125 201.410156 176.148438 201.410156 Z M 176.148438 200.367188 C 177.238281 200.367188 178.070312 200.800781 178.644531 201.664062 C 179.21875 202.523438 179.507812 203.773438 179.507812 205.414062 C 179.507812 207.050781 179.21875 208.300781 178.644531 209.164062 C 178.070312 210.023438 177.238281 210.453125 176.148438 210.453125 C 175.058594 210.453125 174.226562 210.023438 173.652344 209.164062 C 173.074219 208.300781 172.789062 207.050781 172.789062 205.414062 C 172.789062 203.773438 173.074219 202.523438 173.652344 201.664062 C 174.226562 200.800781 175.058594 200.367188 176.148438 200.367188 Z M 176.148438 200.367188 "/>
<g clip-path="url(#clip4)" clip-rule="nonzero">
<path style="fill:none;stroke-width:0.8;stroke-linecap:square;stroke-linejoin:round;stroke:rgb(69.01961%,69.01961%,69.01961%);stroke-opacity:1;stroke-miterlimit:4;" d="M 176.610352 143.100586 L 176.610352 7.201172 " transform="matrix(1.333333,0,0,1.333333,0,0)"/>
</g>
<path style="fill:none;stroke-width:0.8;stroke-linecap:butt;stroke-linejoin:round;stroke:rgb(0%,0%,0%);stroke-opacity:1;stroke-miterlimit:4;" d="M -0.000366211 0.000579834 L -0.000366211 3.498627 " transform="matrix(1.333333,0,0,1.333333,235.480957,190.800008)"/>
<path style=" stroke:none;fill-rule:nonzero;fill:rgb(0%,0%,0%);fill-opacity:1;" d="M 232.894531 209.160156 L 235.042969 209.160156 L 235.042969 201.742188 L 232.703125 202.210938 L 232.703125 201.011719 L 235.027344 200.542969 L 236.34375 200.542969 L 236.34375 209.160156 L 238.492188 209.160156 L 238.492188 210.265625 L 232.894531 210.265625 Z M 232.894531 209.160156 "/>
<g clip-path="url(#clip5)" clip-rule="nonzero">
<path style="fill:none;stroke-width:0.8;stroke-linecap:square;stroke-linejoin:round;stroke:rgb(69.01961%,69.01961%,69.01961%);stroke-opacity:1;stroke-miterlimit:4;" d="M 221.109375 143.100586 L 221.109375 7.201172 " transform="matrix(1.333333,0,0,1.333333,0,0)"/>
</g>
<path style="fill:none;stroke-width:0.8;stroke-linecap:butt;stroke-linejoin:round;stroke:rgb(0%,0%,0%);stroke-opacity:1;stroke-miterlimit:4;" d="M 0.00105286 0.000579834 L 0.00105286 3.498627 " transform="matrix(1.333333,0,0,1.333333,294.811096,190.800008)"/>
<path style=" stroke:none;fill-rule:nonzero;fill:rgb(0%,0%,0%);fill-opacity:1;" d="M 293.128906 209.160156 L 297.71875 209.160156 L 297.71875 210.265625 L 291.546875 210.265625 L 291.546875 209.160156 C 292.046875 208.640625 292.726562 207.949219 293.585938 207.078125 C 294.449219 206.207031 294.992188 205.648438 295.210938 205.394531 C 295.632812 204.921875 295.925781 204.523438 296.09375 204.195312 C 296.261719 203.867188 296.34375 203.542969 296.34375 203.226562 C 296.34375 202.710938 296.164062 202.289062 295.800781 201.964844 C 295.4375 201.636719 294.964844 201.476562 294.382812 201.476562 C 293.972656 201.476562 293.535156 201.546875 293.078125 201.691406 C 292.621094 201.832031 292.132812 202.050781 291.609375 202.339844 L 291.609375 201.011719 C 292.140625 200.800781 292.632812 200.640625 293.09375 200.53125 C 293.554688 200.421875 293.976562 200.367188 294.359375 200.367188 C 295.367188 200.367188 296.167969 200.621094 296.765625 201.125 C 297.367188 201.628906 297.664062 202.300781 297.664062 203.140625 C 297.664062 203.542969 297.589844 203.921875 297.441406 204.277344 C 297.292969 204.636719 297.019531 205.058594 296.625 205.542969 C 296.515625 205.671875 296.171875 206.035156 295.589844 206.636719 C 295.007812 207.238281 294.1875 208.078125 293.128906 209.160156 Z M 293.128906 209.160156 "/>
<path style=" stroke:none;fill-rule:nonzero;fill:rgb(0%,0%,0%);fill-opacity:1;" d="M 179.226562 221.210938 L 176.589844 224.757812 L 179.363281 228.503906 L 177.949219 228.503906 L 175.828125 225.636719 L 173.707031 228.503906 L 172.292969 228.503906 L 175.125 224.6875 L 172.535156 221.210938 L 173.945312 221.210938 L 175.878906 223.808594 L 177.8125 221.210938 Z M 179.226562 221.210938 "/>
<g clip-path="url(#clip6)" clip-rule="nonzero">
<path style="fill:none;stroke-width:0.8;stroke-linecap:square;stroke-linejoin:round;stroke:rgb(69.01961%,69.01961%,69.01961%);stroke-opacity:1;stroke-miterlimit:4;" d="M 34.239258 136.921875 L 229.541016 136.921875 " transform="matrix(1.333333,0,0,1.333333,0,0)"/>
</g>
<path style="fill:none;stroke-width:0.8;stroke-linecap:butt;stroke-linejoin:round;stroke:rgb(0%,0%,0%);stroke-opacity:1;stroke-miterlimit:4;" d="M -0.00136566 -0.000854492 L -3.499413 -0.000854492 " transform="matrix(1.333333,0,0,1.333333,45.654165,182.563639)"/>
<path style=" stroke:none;fill-rule:nonzero;fill:rgb(0%,0%,0%);fill-opacity:1;" d="M 32.074219 178.773438 C 31.398438 178.773438 30.890625 179.109375 30.546875 179.773438 C 30.207031 180.441406 30.039062 181.441406 30.039062 182.777344 C 30.039062 184.109375 30.207031 185.109375 30.546875 185.777344 C 30.890625 186.445312 31.398438 186.777344 32.074219 186.777344 C 32.757812 186.777344 33.269531 186.445312 33.609375 185.777344 C 33.949219 185.109375 34.121094 184.109375 34.121094 182.777344 C 34.121094 181.441406 33.949219 180.441406 33.609375 179.773438 C 33.269531 179.109375 32.757812 178.773438 32.074219 178.773438 Z M 32.074219 177.734375 C 33.164062 177.734375 33.996094 178.164062 34.574219 179.027344 C 35.148438 179.886719 35.433594 181.140625 35.433594 182.777344 C 35.433594 184.414062 35.148438 185.664062 34.574219 186.527344 C 33.996094 187.386719 33.164062 187.820312 32.074219 187.820312 C 30.984375 187.820312 30.152344 187.386719 29.578125 186.527344 C 29.003906 185.664062 28.714844 184.414062 28.714844 182.777344 C 28.714844 181.140625 29.003906 179.886719 29.578125 179.027344 C 30.152344 178.164062 30.984375 177.734375 32.074219 177.734375 Z M 32.074219 177.734375 "/>
<g clip-path="url(#clip7)" clip-rule="nonzero">
<path style="fill:none;stroke-width:0.8;stroke-linecap:square;stroke-linejoin:round;stroke:rgb(69.01961%,69.01961%,69.01961%);stroke-opacity:1;stroke-miterlimit:4;" d="M 34.239258 109.467773 L 229.541016 109.467773 " transform="matrix(1.333333,0,0,1.333333,0,0)"/>
</g>
<path style="fill:none;stroke-width:0.8;stroke-linecap:butt;stroke-linejoin:round;stroke:rgb(0%,0%,0%);stroke-opacity:1;stroke-miterlimit:4;" d="M -0.00136566 -0.000411987 L -3.499413 -0.000411987 " transform="matrix(1.333333,0,0,1.333333,45.654165,145.957581)"/>
<path style=" stroke:none;fill-rule:nonzero;fill:rgb(0%,0%,0%);fill-opacity:1;" d="M 30.394531 149.917969 L 34.984375 149.917969 L 34.984375 151.023438 L 28.816406 151.023438 L 28.816406 149.917969 C 29.3125 149.398438 29.992188 148.707031 30.855469 147.835938 C 31.714844 146.96875 32.257812 146.40625 32.480469 146.152344 C 32.898438 145.679688 33.195312 145.28125 33.359375 144.953125 C 33.527344 144.625 33.613281 144.300781 33.613281 143.984375 C 33.613281 143.46875 33.429688 143.046875 33.070312 142.722656 C 32.707031 142.398438 32.234375 142.234375 31.652344 142.234375 C 31.238281 142.234375 30.804688 142.304688 30.347656 142.449219 C 29.890625 142.589844 29.398438 142.808594 28.878906 143.101562 L 28.878906 141.769531 C 29.410156 141.558594 29.902344 141.398438 30.363281 141.289062 C 30.824219 141.179688 31.246094 141.128906 31.628906 141.128906 C 32.632812 141.128906 33.4375 141.378906 34.035156 141.882812 C 34.632812 142.386719 34.933594 143.058594 34.933594 143.898438 C 34.933594 144.300781 34.859375 144.679688 34.707031 145.039062 C 34.558594 145.394531 34.289062 145.816406 33.890625 146.300781 C 33.785156 146.429688 33.4375 146.792969 32.855469 147.394531 C 32.277344 147.996094 31.457031 148.835938 30.394531 149.917969 Z M 30.394531 149.917969 "/>
<g clip-path="url(#clip8)" clip-rule="nonzero">
<path style="fill:none;stroke-width:0.8;stroke-linecap:square;stroke-linejoin:round;stroke:rgb(69.01961%,69.01961%,69.01961%);stroke-opacity:1;stroke-miterlimit:4;" d="M 34.239258 82.013672 L 229.541016 82.013672 " transform="matrix(1.333333,0,0,1.333333,0,0)"/>
</g>
<path style="fill:none;stroke-width:0.8;stroke-linecap:butt;stroke-linejoin:round;stroke:rgb(0%,0%,0%);stroke-opacity:1;stroke-miterlimit:4;" d="M -0.00136566 0.000038147 L -3.499413 0.000038147 " transform="matrix(1.333333,0,0,1.333333,45.654165,109.351512)"/>
<path style=" stroke:none;fill-rule:nonzero;fill:rgb(0%,0%,0%);fill-opacity:1;" d="M 32.878906 105.84375 L 29.554688 111.03125 L 32.878906 111.03125 Z M 32.53125 104.695312 L 34.183594 104.695312 L 34.183594 111.03125 L 35.574219 111.03125 L 35.574219 112.125 L 34.183594 112.125 L 34.183594 114.417969 L 32.878906 114.417969 L 32.878906 112.125 L 28.488281 112.125 L 28.488281 110.855469 Z M 32.53125 104.695312 "/>
<g clip-path="url(#clip9)" clip-rule="nonzero">
<path style="fill:none;stroke-width:0.8;stroke-linecap:square;stroke-linejoin:round;stroke:rgb(69.01961%,69.01961%,69.01961%);stroke-opacity:1;stroke-miterlimit:4;" d="M 34.239258 54.55957 L 229.541016 54.55957 " transform="matrix(1.333333,0,0,1.333333,0,0)"/>
</g>
<path style="fill:none;stroke-width:0.8;stroke-linecap:butt;stroke-linejoin:round;stroke:rgb(0%,0%,0%);stroke-opacity:1;stroke-miterlimit:4;" d="M -0.00136566 0.000480652 L -3.499413 0.000480652 " transform="matrix(1.333333,0,0,1.333333,45.654165,72.745453)"/>
<path style=" stroke:none;fill-rule:nonzero;fill:rgb(0%,0%,0%);fill-opacity:1;" d="M 32.238281 72.429688 C 31.648438 72.429688 31.179688 72.628906 30.835938 73.035156 C 30.492188 73.4375 30.320312 73.988281 30.320312 74.691406 C 30.320312 75.390625 30.492188 75.945312 30.835938 76.351562 C 31.179688 76.757812 31.648438 76.960938 32.238281 76.960938 C 32.828125 76.960938 33.296875 76.757812 33.640625 76.351562 C 33.984375 75.945312 34.160156 75.390625 34.160156 74.691406 C 34.160156 73.988281 33.984375 73.4375 33.640625 73.035156 C 33.296875 72.628906 32.828125 72.429688 32.238281 72.429688 Z M 34.851562 68.304688 L 34.851562 69.503906 C 34.519531 69.347656 34.1875 69.226562 33.851562 69.148438 C 33.515625 69.0625 33.179688 69.023438 32.851562 69.023438 C 31.980469 69.023438 31.320312 69.316406 30.859375 69.902344 C 30.402344 70.488281 30.140625 71.371094 30.078125 72.558594 C 30.332031 72.179688 30.652344 71.890625 31.039062 71.6875 C 31.425781 71.488281 31.851562 71.386719 32.316406 71.386719 C 33.292969 71.386719 34.066406 71.683594 34.632812 72.277344 C 35.199219 72.867188 35.480469 73.671875 35.480469 74.691406 C 35.480469 75.691406 35.1875 76.492188 34.597656 77.097656 C 34.003906 77.699219 33.21875 78 32.238281 78 C 31.113281 78 30.253906 77.570312 29.660156 76.710938 C 29.066406 75.847656 28.769531 74.597656 28.769531 72.960938 C 28.769531 71.425781 29.132812 70.199219 29.863281 69.285156 C 30.589844 68.371094 31.570312 67.914062 32.796875 67.914062 C 33.128906 67.914062 33.460938 67.949219 33.796875 68.011719 C 34.132812 68.078125 34.484375 68.175781 34.851562 68.304688 Z M 34.851562 68.304688 "/>
<g clip-path="url(#clip10)" clip-rule="nonzero">
<path style="fill:none;stroke-width:0.8;stroke-linecap:square;stroke-linejoin:round;stroke:rgb(69.01961%,69.01961%,69.01961%);stroke-opacity:1;stroke-miterlimit:4;" d="M 34.239258 27.105469 L 229.541016 27.105469 " transform="matrix(1.333333,0,0,1.333333,0,0)"/>
</g>
<path style="fill:none;stroke-width:0.8;stroke-linecap:butt;stroke-linejoin:round;stroke:rgb(0%,0%,0%);stroke-opacity:1;stroke-miterlimit:4;" d="M -0.00136566 0.000923157 L -3.499413 0.000923157 " transform="matrix(1.333333,0,0,1.333333,45.654165,36.139394)"/>
<path style=" stroke:none;fill-rule:nonzero;fill:rgb(0%,0%,0%);fill-opacity:1;" d="M 32.074219 36.589844 C 31.449219 36.589844 30.957031 36.753906 30.601562 37.089844 C 30.242188 37.425781 30.066406 37.886719 30.066406 38.46875 C 30.066406 39.054688 30.242188 39.515625 30.601562 39.851562 C 30.957031 40.1875 31.449219 40.351562 32.074219 40.351562 C 32.699219 40.351562 33.191406 40.183594 33.550781 39.847656 C 33.914062 39.511719 34.09375 39.050781 34.09375 38.46875 C 34.09375 37.886719 33.914062 37.425781 33.554688 37.089844 C 33.199219 36.753906 32.707031 36.589844 32.074219 36.589844 Z M 30.761719 36.03125 C 30.195312 35.890625 29.757812 35.628906 29.441406 35.242188 C 29.128906 34.855469 28.972656 34.382812 28.972656 33.828125 C 28.972656 33.050781 29.246094 32.4375 29.800781 31.984375 C 30.355469 31.535156 31.113281 31.308594 32.074219 31.308594 C 33.042969 31.308594 33.804688 31.535156 34.355469 31.984375 C 34.90625 32.4375 35.179688 33.050781 35.179688 33.828125 C 35.179688 34.382812 35.023438 34.855469 34.707031 35.242188 C 34.394531 35.628906 33.957031 35.890625 33.398438 36.03125 C 34.03125 36.175781 34.523438 36.464844 34.878906 36.898438 C 35.230469 37.324219 35.410156 37.851562 35.410156 38.46875 C 35.410156 39.414062 35.121094 40.136719 34.546875 40.640625 C 33.972656 41.144531 33.148438 41.394531 32.074219 41.394531 C 31.003906 41.394531 30.179688 41.144531 29.605469 40.640625 C 29.027344 40.136719 28.742188 39.414062 28.742188 38.46875 C 28.742188 37.851562 28.917969 37.324219 29.273438 36.898438 C 29.632812 36.464844 30.128906 36.175781 30.761719 36.03125 Z M 30.277344 33.953125 C 30.277344 34.457031 30.4375 34.847656 30.75 35.128906 C 31.066406 35.410156 31.507812 35.554688 32.074219 35.554688 C 32.640625 35.554688 33.082031 35.410156 33.398438 35.128906 C 33.71875 34.847656 33.878906 34.457031 33.878906 33.953125 C 33.878906 33.449219 33.71875 33.054688 33.398438 32.773438 C 33.082031 32.492188 32.640625 32.351562 32.074219 32.351562 C 31.507812 32.351562 31.066406 32.492188 30.75 32.773438 C 30.4375 33.054688 30.277344 33.449219 30.277344 33.953125 Z M 30.277344 33.953125 "/>
<path style=" stroke:none;fill-rule:nonzero;fill:rgb(0%,0%,0%);fill-opacity:1;" d="M 9.601562 106.746094 L 10.597656 106.746094 L 10.597656 107.894531 C 10.597656 108.320312 10.683594 108.621094 10.859375 108.789062 C 11.03125 108.957031 11.34375 109.039062 11.796875 109.039062 L 12.441406 109.039062 L 12.441406 107.066406 L 13.371094 107.066406 L 13.371094 109.039062 L 19.730469 109.039062 L 19.730469 110.242188 L 13.371094 110.242188 L 13.371094 111.386719 L 12.441406 111.386719 L 12.441406 110.242188 L 11.929688 110.242188 C 11.121094 110.242188 10.527344 110.054688 10.160156 109.675781 C 9.785156 109.296875 9.601562 108.699219 9.601562 107.878906 Z M 9.601562 106.746094 "/>
<path style=" stroke:none;fill-rule:nonzero;fill:rgb(0%,0%,0%);fill-opacity:1;" d="M 9.613281 102.867188 C 10.613281 103.449219 11.597656 103.878906 12.578125 104.164062 C 13.554688 104.445312 14.542969 104.585938 15.546875 104.585938 C 16.546875 104.585938 17.539062 104.445312 18.523438 104.160156 C 19.507812 103.875 20.496094 103.445312 21.488281 102.867188 L 21.488281 103.910156 C 20.46875 104.558594 19.464844 105.046875 18.480469 105.371094 C 17.496094 105.691406 16.519531 105.855469 15.546875 105.855469 C 14.578125 105.855469 13.601562 105.695312 12.621094 105.375 C 11.640625 105.050781 10.636719 104.5625 9.613281 103.910156 Z M 9.613281 102.867188 "/>
<path style=" stroke:none;fill-rule:nonzero;fill:rgb(0%,0%,0%);fill-opacity:1;" d="M 12.441406 94.480469 L 15.988281 97.117188 L 19.730469 94.34375 L 19.730469 95.757812 L 16.867188 97.878906 L 19.730469 100 L 19.730469 101.414062 L 15.917969 98.582031 L 12.441406 101.175781 L 12.441406 99.761719 L 15.039062 97.828125 L 12.441406 95.894531 Z M 12.441406 94.480469 "/>
<path style=" stroke:none;fill-rule:nonzero;fill:rgb(0%,0%,0%);fill-opacity:1;" d="M 9.613281 92.839844 L 9.613281 91.796875 C 10.636719 91.148438 11.640625 90.660156 12.621094 90.335938 C 13.601562 90.015625 14.578125 89.851562 15.546875 89.851562 C 16.519531 89.851562 17.496094 90.015625 18.480469 90.335938 C 19.464844 90.660156 20.46875 91.148438 21.488281 91.796875 L 21.488281 92.839844 C 20.496094 92.261719 19.507812 91.832031 18.523438 91.546875 C 17.539062 91.261719 16.546875 91.121094 15.546875 91.121094 C 14.542969 91.121094 13.554688 91.261719 12.578125 91.546875 C 11.597656 91.832031 10.613281 92.261719 9.613281 92.839844 Z M 9.613281 92.839844 "/>
<path style="fill:none;stroke-width:1.5;stroke-linecap:square;stroke-linejoin:round;stroke:rgb(12.156863%,46.666667%,70.588237%);stroke-opacity:1;stroke-miterlimit:4;" d="M 43.119141 13.376953 L 48.902344 23.853516 L 54.688477 33.864258 L 60.47168 43.412109 L 65.8125 51.811523 L 71.150391 59.818359 L 76.491211 67.429688 L 81.832031 74.642578 L 87.169922 81.462891 L 92.06543 87.366211 L 96.960938 92.938477 L 101.853516 98.179688 L 106.749023 103.086914 L 111.644531 107.663086 L 116.094727 111.533203 L 120.544922 115.12793 L 124.992188 118.450195 L 129.442383 121.5 L 133.892578 124.271484 L 138.342773 126.770508 L 142.792969 128.994141 L 146.797852 130.760742 L 150.802734 132.304688 L 154.807617 133.625977 L 158.8125 134.727539 L 162.817383 135.603516 L 166.822266 136.259766 L 170.827148 136.69043 L 174.832031 136.901367 L 178.836914 136.889648 L 182.841797 136.652344 L 186.84375 136.195312 L 190.848633 135.515625 L 194.853516 134.616211 L 198.858398 133.491211 L 202.863281 132.143555 L 206.868164 130.576172 L 210.873047 128.783203 L 214.87793 126.770508 L 219.328125 124.271484 L 220.664062 123.46875 " transform="matrix(1.333333,0,0,1.333333,0,0)"/>
<path style="fill:none;stroke-width:1.5;stroke-linecap:butt;stroke-linejoin:round;stroke:rgb(74.901962%,0%,74.901962%);stroke-opacity:1;stroke-dasharray:5.55,2.4;stroke-miterlimit:4;" d="M 65.367188 51.125977 L 176.610352 136.921875 " transform="matrix(1.333333,0,0,1.333333,0,0)"/>
<path style="fill:none;stroke-width:0.8;stroke-linecap:square;stroke-linejoin:miter;stroke:rgb(0%,0%,0%);stroke-opacity:1;stroke-miterlimit:4;" d="M 34.239258 143.100586 L 34.239258 7.201172 " transform="matrix(1.333333,0,0,1.333333,0,0)"/>
<path style="fill:none;stroke-width:0.8;stroke-linecap:square;stroke-linejoin:miter;stroke:rgb(0%,0%,0%);stroke-opacity:1;stroke-miterlimit:4;" d="M 229.541016 143.100586 L 229.541016 7.201172 " transform="matrix(1.333333,0,0,1.333333,0,0)"/>
<path style="fill:none;stroke-width:0.8;stroke-linecap:square;stroke-linejoin:miter;stroke:rgb(0%,0%,0%);stroke-opacity:1;stroke-miterlimit:4;" d="M 34.239258 143.100586 L 229.541016 143.100586 " transform="matrix(1.333333,0,0,1.333333,0,0)"/>
<path style="fill:none;stroke-width:0.8;stroke-linecap:square;stroke-linejoin:miter;stroke:rgb(0%,0%,0%);stroke-opacity:1;stroke-miterlimit:4;" d="M 34.239258 7.201172 L 229.541016 7.201172 " transform="matrix(1.333333,0,0,1.333333,0,0)"/>
</g>
</svg>
