<?xml version="1.0" encoding="UTF-8"?>
<svg xmlns="http://www.w3.org/2000/svg" xmlns:xlink="http://www.w3.org/1999/xlink" width="222.97109" height="225.763814" viewBox="0 0 222.97109 225.763814" version="1.1">
<defs>
<filter id="alpha" filterUnits="objectBoundingBox" x="0%" y="0%" width="100%" height="100%">
  <feColorMatrix type="matrix" in="SourceGraphic" values="0 0 0 0 1 0 0 0 0 1 0 0 0 0 1 0 0 0 1 0"/>
</filter>
<mask id="mask0">
  <g filter="url(#alpha)">
<rect x="0" y="0" width="222.97109" height="225.763814" style="fill:rgb(0%,0%,0%);fill-opacity:0.5;stroke:none;"/>
  </g>
</mask>
<clipPath id="clip1">
  <rect x="0" y="0" width="223" height="226"/>
</clipPath>
<g id="surface5" clip-path="url(#clip1)">
<path style="fill-rule:nonzero;fill:rgb(94.901961%,94.901961%,94.901961%);fill-opacity:1;stroke-width:1;stroke-linecap:butt;stroke-linejoin:miter;stroke:rgb(94.901961%,94.901961%,94.901961%);stroke-opacity:1;stroke-miterlimit:4;" d="M 17.504883 109.59082 L 62.381836 71.973633 L 61.757812 17.72168 L 14.733398 52.040039 " transform="matrix(1.333333,0,0,1.333333,-0.000000000000014211,-0.000000000000014211)"/>
</g>
<mask id="mask1">
  <g filter="url(#alpha)">
<rect x="0" y="0" width="222.97109" height="225.763814" style="fill:rgb(0%,0%,0%);fill-opacity:0.5;stroke:none;"/>
  </g>
</mask>
<clipPath id="clip2">
  <rect x="0" y="0" width="223" height="226"/>
</clipPath>
<g id="surface8" clip-path="url(#clip2)">
<path style="fill-rule:nonzero;fill:rgb(90.196079%,90.196079%,90.196079%);fill-opacity:1;stroke-width:1;stroke-linecap:butt;stroke-linejoin:miter;stroke:rgb(90.196079%,90.196079%,90.196079%);stroke-opacity:1;stroke-miterlimit:4;" d="M 62.381836 71.973633 L 134.396484 92.90625 L 136.96582 36.785156 L 61.757812 17.72168 " transform="matrix(1.333333,0,0,1.333333,-0.000000000000014211,-0.000000000000014211)"/>
</g>
<mask id="mask2">
  <g filter="url(#alpha)">
<rect x="0" y="0" width="222.97109" height="225.763814" style="fill:rgb(0%,0%,0%);fill-opacity:0.5;stroke:none;"/>
  </g>
</mask>
<clipPath id="clip3">
  <rect x="0" y="0" width="223" height="226"/>
</clipPath>
<g id="surface11" clip-path="url(#clip3)">
<path style="fill-rule:nonzero;fill:rgb(92.54902%,92.54902%,92.54902%);fill-opacity:1;stroke-width:1;stroke-linecap:butt;stroke-linejoin:miter;stroke:rgb(92.54902%,92.54902%,92.54902%);stroke-opacity:1;stroke-miterlimit:4;" d="M 17.504883 109.59082 L 93.84082 134.522461 L 134.396484 92.90625 L 62.381836 71.973633 " transform="matrix(1.333333,0,0,1.333333,-0.000000000000014211,-0.000000000000014211)"/>
</g>
</defs>
<g id="surface1">
<path style=" stroke:none;fill-rule:nonzero;fill:rgb(100%,100%,100%);fill-opacity:1;" d="M 9.65625 190.800781 L 190.855469 190.800781 L 190.855469 9.601562 L 9.65625 9.601562 Z M 9.65625 190.800781 "/>
<use xlink:href="#surface5" mask="url(#mask0)"/>
<use xlink:href="#surface8" mask="url(#mask1)"/>
<use xlink:href="#surface11" mask="url(#mask2)"/>
<path style="fill:none;stroke-width:0.8;stroke-linecap:square;stroke-linejoin:round;stroke:rgb(0%,0%,0%);stroke-opacity:1;stroke-miterlimit:4;" d="M 17.504883 109.59082 L 93.84082 134.522461 " transform="matrix(1.333333,0,0,1.333333,-0.000000000000014211,-0.000000000000014211)"/>
<path style=" stroke:none;fill-rule:nonzero;fill:rgb(0%,0%,0%);fill-opacity:1;" d="M 54.367188 206.097656 L 51.726562 209.648438 L 54.5 213.390625 L 53.089844 213.390625 L 50.964844 210.527344 L 48.84375 213.390625 L 47.429688 213.390625 L 50.261719 209.578125 L 47.671875 206.097656 L 49.085938 206.097656 L 51.019531 208.695312 L 52.949219 206.097656 Z M 54.367188 206.097656 "/>
<path style="fill:none;stroke-width:0.8;stroke-linecap:butt;stroke-linejoin:round;stroke:rgb(69.01961%,69.01961%,69.01961%);stroke-opacity:1;stroke-miterlimit:4;" d="M 22.12793 111.102539 L 66.761719 73.245117 L 66.322266 18.878906 " transform="matrix(1.333333,0,0,1.333333,-0.000000000000014211,-0.000000000000014211)"/>
<path style="fill:none;stroke-width:0.8;stroke-linecap:butt;stroke-linejoin:round;stroke:rgb(69.01961%,69.01961%,69.01961%);stroke-opacity:1;stroke-miterlimit:4;" d="M 54.667969 121.728516 L 97.520508 82.186523 L 98.414062 27.011719 " transform="matrix(1.333333,0,0,1.333333,-0.000000000000014211,-0.000000000000014211)"/>
<path style="fill:none;stroke-width:0.8;stroke-linecap:butt;stroke-linejoin:round;stroke:rgb(69.01961%,69.01961%,69.01961%);stroke-opacity:1;stroke-miterlimit:4;" d="M 88.737305 132.855469 L 129.600586 91.511719 L 131.950195 35.513672 " transform="matrix(1.333333,0,0,1.333333,-0.000000000000014211,-0.000000000000014211)"/>
<path style="fill:none;stroke-width:0.8;stroke-linecap:square;stroke-linejoin:round;stroke:rgb(0%,0%,0%);stroke-opacity:1;stroke-miterlimit:4;" d="M 22.514648 110.771484 L 21.348633 111.761719 " transform="matrix(1.333333,0,0,1.333333,-0.000000000000014211,-0.000000000000014211)"/>
<path style=" stroke:none;fill-rule:nonzero;fill:rgb(0%,0%,0%);fill-opacity:1;" d="M 11.011719 174.554688 L 19.359375 174.554688 L 19.359375 175.660156 L 11.011719 175.660156 Z M 11.011719 174.554688 "/>
<path style=" stroke:none;fill-rule:nonzero;fill:rgb(0%,0%,0%);fill-opacity:1;" d="M 22.425781 178.183594 L 24.574219 178.183594 L 24.574219 170.765625 L 22.238281 171.234375 L 22.238281 170.035156 L 24.5625 169.566406 L 25.875 169.566406 L 25.875 178.183594 L 28.023438 178.183594 L 28.023438 179.289062 L 22.425781 179.289062 Z M 22.425781 178.183594 "/>
<path style="fill:none;stroke-width:0.8;stroke-linecap:square;stroke-linejoin:round;stroke:rgb(0%,0%,0%);stroke-opacity:1;stroke-miterlimit:4;" d="M 55.040039 121.382812 L 53.917969 122.419922 " transform="matrix(1.333333,0,0,1.333333,-0.000000000000014211,-0.000000000000014211)"/>
<path style=" stroke:none;fill-rule:nonzero;fill:rgb(0%,0%,0%);fill-opacity:1;" d="M 62.902344 185.199219 C 62.222656 185.199219 61.714844 185.53125 61.375 186.199219 C 61.035156 186.863281 60.863281 187.863281 60.863281 189.203125 C 60.863281 190.535156 61.035156 191.535156 61.375 192.199219 C 61.714844 192.867188 62.222656 193.199219 62.902344 193.199219 C 63.582031 193.199219 64.09375 192.867188 64.433594 192.199219 C 64.777344 191.535156 64.945312 190.535156 64.945312 189.203125 C 64.945312 187.863281 64.777344 186.863281 64.433594 186.199219 C 64.09375 185.53125 63.582031 185.199219 62.902344 185.199219 Z M 62.902344 184.15625 C 63.992188 184.15625 64.824219 184.585938 65.398438 185.449219 C 65.972656 186.3125 66.261719 187.5625 66.261719 189.203125 C 66.261719 190.839844 65.972656 192.085938 65.398438 192.949219 C 64.824219 193.8125 63.992188 194.242188 62.902344 194.242188 C 61.8125 194.242188 60.980469 193.8125 60.40625 192.949219 C 59.828125 192.085938 59.542969 190.839844 59.542969 189.203125 C 59.542969 187.5625 59.828125 186.3125 60.40625 185.449219 C 60.980469 184.585938 61.8125 184.15625 62.902344 184.15625 Z M 62.902344 184.15625 "/>
<path style="fill:none;stroke-width:0.8;stroke-linecap:square;stroke-linejoin:round;stroke:rgb(0%,0%,0%);stroke-opacity:1;stroke-miterlimit:4;" d="M 89.094727 132.495117 L 88.022461 133.582031 " transform="matrix(1.333333,0,0,1.333333,-0.000000000000014211,-0.000000000000014211)"/>
<path style=" stroke:none;fill-rule:nonzero;fill:rgb(0%,0%,0%);fill-opacity:1;" d="M 105.859375 208.410156 L 108.003906 208.410156 L 108.003906 200.992188 L 105.667969 201.460938 L 105.667969 200.265625 L 107.992188 199.796875 L 109.308594 199.796875 L 109.308594 208.410156 L 111.457031 208.410156 L 111.457031 209.515625 L 105.859375 209.515625 Z M 105.859375 208.410156 "/>
<path style="fill:none;stroke-width:0.8;stroke-linecap:square;stroke-linejoin:round;stroke:rgb(0%,0%,0%);stroke-opacity:1;stroke-miterlimit:4;" d="M 134.396484 92.90625 L 93.84082 134.522461 " transform="matrix(1.333333,0,0,1.333333,-0.000000000000014211,-0.000000000000014211)"/>
<path style=" stroke:none;fill-rule:nonzero;fill:rgb(0%,0%,0%);fill-opacity:1;" d="M 189.714844 192.125 C 189.378906 192.996094 189.046875 193.5625 188.726562 193.824219 C 188.40625 194.089844 187.976562 194.222656 187.4375 194.222656 L 186.480469 194.222656 L 186.480469 193.21875 L 187.183594 193.21875 C 187.515625 193.21875 187.769531 193.140625 187.953125 192.984375 C 188.136719 192.828125 188.335938 192.460938 188.558594 191.878906 L 188.773438 191.332031 L 185.824219 184.15625 L 187.09375 184.15625 L 189.371094 189.859375 L 191.652344 184.15625 L 192.921875 184.15625 Z M 189.714844 192.125 "/>
<path style="fill:none;stroke-width:0.8;stroke-linecap:butt;stroke-linejoin:round;stroke:rgb(69.01961%,69.01961%,69.01961%);stroke-opacity:1;stroke-miterlimit:4;" d="M 17.985352 49.666992 L 20.595703 106.998047 L 96.647461 131.642578 " transform="matrix(1.333333,0,0,1.333333,-0.000000000000014211,-0.000000000000014211)"/>
<path style="fill:none;stroke-width:0.8;stroke-linecap:butt;stroke-linejoin:round;stroke:rgb(69.01961%,69.01961%,69.01961%);stroke-opacity:1;stroke-miterlimit:4;" d="M 39.290039 34.116211 L 40.898438 89.982422 L 115.02832 112.78125 " transform="matrix(1.333333,0,0,1.333333,-0.000000000000014211,-0.000000000000014211)"/>
<path style="fill:none;stroke-width:0.8;stroke-linecap:butt;stroke-linejoin:round;stroke:rgb(69.01961%,69.01961%,69.01961%);stroke-opacity:1;stroke-miterlimit:4;" d="M 59.006836 19.728516 L 59.745117 74.182617 L 132.023437 95.34082 " transform="matrix(1.333333,0,0,1.333333,-0.000000000000014211,-0.000000000000014211)"/>
<path style="fill:none;stroke-width:0.8;stroke-linecap:square;stroke-linejoin:round;stroke:rgb(0%,0%,0%);stroke-opacity:1;stroke-miterlimit:4;" d="M 96.005859 131.4375 L 97.930664 132.058594 " transform="matrix(1.333333,0,0,1.333333,-0.000000000000014211,-0.000000000000014211)"/>
<path style=" stroke:none;fill-rule:nonzero;fill:rgb(0%,0%,0%);fill-opacity:1;" d="M 137.632812 198.832031 L 145.976562 198.832031 L 145.976562 199.9375 L 137.632812 199.9375 Z M 137.632812 198.832031 "/>
<path style=" stroke:none;fill-rule:nonzero;fill:rgb(0%,0%,0%);fill-opacity:1;" d="M 149.046875 202.457031 L 151.195312 202.457031 L 151.195312 195.042969 L 148.855469 195.511719 L 148.855469 194.3125 L 151.179688 193.84375 L 152.496094 193.84375 L 152.496094 202.457031 L 154.644531 202.457031 L 154.644531 203.5625 L 149.046875 203.5625 Z M 149.046875 202.457031 "/>
<path style="fill:none;stroke-width:0.8;stroke-linecap:square;stroke-linejoin:round;stroke:rgb(0%,0%,0%);stroke-opacity:1;stroke-miterlimit:4;" d="M 114.404297 112.59082 L 116.276367 113.165039 " transform="matrix(1.333333,0,0,1.333333,-0.000000000000014211,-0.000000000000014211)"/>
<path style=" stroke:none;fill-rule:nonzero;fill:rgb(0%,0%,0%);fill-opacity:1;" d="M 169.90625 168.832031 C 169.230469 168.832031 168.71875 169.164062 168.378906 169.832031 C 168.039062 170.496094 167.867188 171.5 167.867188 172.835938 C 167.867188 174.167969 168.039062 175.167969 168.378906 175.832031 C 168.71875 176.5 169.230469 176.832031 169.90625 176.832031 C 170.585938 176.832031 171.097656 176.5 171.4375 175.832031 C 171.78125 175.167969 171.949219 174.167969 171.949219 172.835938 C 171.949219 171.5 171.78125 170.496094 171.4375 169.832031 C 171.097656 169.164062 170.585938 168.832031 169.90625 168.832031 Z M 169.90625 167.789062 C 170.996094 167.789062 171.828125 168.222656 172.402344 169.082031 C 172.976562 169.945312 173.265625 171.195312 173.265625 172.835938 C 173.265625 174.472656 172.976562 175.722656 172.402344 176.582031 C 171.828125 177.445312 170.996094 177.875 169.90625 177.875 C 168.816406 177.875 167.984375 177.445312 167.410156 176.582031 C 166.835938 175.722656 166.546875 174.472656 166.546875 172.835938 C 166.546875 171.195312 166.835938 169.945312 167.410156 169.082031 C 167.984375 168.222656 168.816406 167.789062 169.90625 167.789062 Z M 169.90625 167.789062 "/>
<path style="fill:none;stroke-width:0.8;stroke-linecap:square;stroke-linejoin:round;stroke:rgb(0%,0%,0%);stroke-opacity:1;stroke-miterlimit:4;" d="M 131.416992 95.162109 L 133.239258 95.695312 " transform="matrix(1.333333,0,0,1.333333,-0.000000000000014211,-0.000000000000014211)"/>
<path style=" stroke:none;fill-rule:nonzero;fill:rgb(0%,0%,0%);fill-opacity:1;" d="M 189.386719 152.652344 L 191.53125 152.652344 L 191.53125 145.234375 L 189.195312 145.703125 L 189.195312 144.503906 L 191.519531 144.035156 L 192.835938 144.035156 L 192.835938 152.652344 L 194.984375 152.652344 L 194.984375 153.757812 L 189.386719 153.757812 Z M 189.386719 152.652344 "/>
<path style="fill:none;stroke-width:0.8;stroke-linecap:square;stroke-linejoin:round;stroke:rgb(0%,0%,0%);stroke-opacity:1;stroke-miterlimit:4;" d="M 134.396484 92.90625 L 136.96582 36.785156 " transform="matrix(1.333333,0,0,1.333333,-0.000000000000014211,-0.000000000000014211)"/>
<path style="fill:none;stroke-width:0.8;stroke-linecap:butt;stroke-linejoin:round;stroke:rgb(69.01961%,69.01961%,69.01961%);stroke-opacity:1;stroke-miterlimit:4;" d="M 134.446289 91.831055 L 62.370117 70.930664 L 17.449219 108.489258 " transform="matrix(1.333333,0,0,1.333333,-0.000000000000014211,-0.000000000000014211)"/>
<path style="fill:none;stroke-width:0.8;stroke-linecap:butt;stroke-linejoin:round;stroke:rgb(69.01961%,69.01961%,69.01961%);stroke-opacity:1;stroke-miterlimit:4;" d="M 135.65332 65.458008 L 62.077148 45.413086 L 16.148438 81.46875 " transform="matrix(1.333333,0,0,1.333333,-0.000000000000014211,-0.000000000000014211)"/>
<path style="fill:none;stroke-width:0.8;stroke-linecap:butt;stroke-linejoin:round;stroke:rgb(69.01961%,69.01961%,69.01961%);stroke-opacity:1;stroke-miterlimit:4;" d="M 136.913086 37.957031 L 61.772461 18.852539 L 14.789063 53.241211 " transform="matrix(1.333333,0,0,1.333333,-0.000000000000014211,-0.000000000000014211)"/>
<path style="fill:none;stroke-width:0.8;stroke-linecap:square;stroke-linejoin:round;stroke:rgb(0%,0%,0%);stroke-opacity:1;stroke-miterlimit:4;" d="M 133.839844 91.655273 L 135.65625 92.179688 " transform="matrix(1.333333,0,0,1.333333,-0.000000000000014211,-0.000000000000014211)"/>
<path style=" stroke:none;fill-rule:nonzero;fill:rgb(0%,0%,0%);fill-opacity:1;" d="M 195.128906 124.378906 L 203.472656 124.378906 L 203.472656 125.484375 L 195.128906 125.484375 Z M 195.128906 124.378906 "/>
<path style=" stroke:none;fill-rule:nonzero;fill:rgb(0%,0%,0%);fill-opacity:1;" d="M 206.539062 128.007812 L 208.6875 128.007812 L 208.6875 120.589844 L 206.351562 121.058594 L 206.351562 119.859375 L 208.675781 119.390625 L 209.992188 119.390625 L 209.992188 128.007812 L 212.140625 128.007812 L 212.140625 129.113281 L 206.539062 129.113281 Z M 206.539062 128.007812 "/>
<path style="fill:none;stroke-width:0.8;stroke-linecap:square;stroke-linejoin:round;stroke:rgb(0%,0%,0%);stroke-opacity:1;stroke-miterlimit:4;" d="M 135.035156 65.291016 L 136.889648 65.797852 " transform="matrix(1.333333,0,0,1.333333,-0.000000000000014211,-0.000000000000014211)"/>
<path style=" stroke:none;fill-rule:nonzero;fill:rgb(0%,0%,0%);fill-opacity:1;" d="M 205.648438 85.234375 C 204.96875 85.234375 204.460938 85.570312 204.121094 86.234375 C 203.78125 86.902344 203.609375 87.902344 203.609375 89.242188 C 203.609375 90.574219 203.78125 91.570312 204.121094 92.238281 C 204.460938 92.90625 204.96875 93.238281 205.648438 93.238281 C 206.328125 93.238281 206.839844 92.90625 207.179688 92.238281 C 207.523438 91.570312 207.691406 90.574219 207.691406 89.242188 C 207.691406 87.902344 207.523438 86.902344 207.179688 86.234375 C 206.839844 85.570312 206.328125 85.234375 205.648438 85.234375 Z M 205.648438 84.195312 C 206.738281 84.195312 207.570312 84.625 208.144531 85.488281 C 208.71875 86.347656 209.007812 87.601562 209.007812 89.242188 C 209.007812 90.875 208.71875 92.125 208.144531 92.988281 C 207.570312 93.847656 206.738281 94.28125 205.648438 94.28125 C 204.558594 94.28125 203.726562 93.847656 203.152344 92.988281 C 202.574219 92.125 202.289062 90.875 202.289062 89.242188 C 202.289062 87.601562 202.574219 86.347656 203.152344 85.488281 C 203.726562 84.625 204.558594 84.195312 205.648438 84.195312 Z M 205.648438 84.195312 "/>
<path style="fill:none;stroke-width:0.8;stroke-linecap:square;stroke-linejoin:round;stroke:rgb(0%,0%,0%);stroke-opacity:1;stroke-miterlimit:4;" d="M 136.280273 37.795898 L 138.178711 38.276367 " transform="matrix(1.333333,0,0,1.333333,-0.000000000000014211,-0.000000000000014211)"/>
<path style=" stroke:none;fill-rule:nonzero;fill:rgb(0%,0%,0%);fill-opacity:1;" d="M 205.261719 56.464844 L 207.410156 56.464844 L 207.410156 49.050781 L 205.070312 49.519531 L 205.070312 48.320312 L 207.398438 47.851562 L 208.710938 47.851562 L 208.710938 56.464844 L 210.859375 56.464844 L 210.859375 57.574219 L 205.261719 57.574219 Z M 205.261719 56.464844 "/>
<path style="fill-rule:nonzero;fill:rgb(100%,0%,0%);fill-opacity:1;stroke-width:1;stroke-linecap:butt;stroke-linejoin:round;stroke:rgb(100%,0%,0%);stroke-opacity:1;stroke-miterlimit:4;" d="M -3.00135 2.998985 L 2.99865 -3.001015 M -3.00135 -3.001015 L 2.99865 2.998985 " transform="matrix(1.333333,0,0,1.333333,102.704926,97.751353)"/>
<path style="fill:none;stroke-width:1.5;stroke-linecap:butt;stroke-linejoin:round;stroke:rgb(12.156863%,46.666667%,70.588237%);stroke-opacity:1;stroke-miterlimit:4;" d="M 24.026367 80.414062 L 24.413086 78.981445 L 24.796875 77.569336 L 25.183594 76.180664 L 25.570313 74.8125 L 25.957031 73.467773 L 26.34668 72.143555 L 26.736328 70.842773 L 27.128906 69.56543 L 27.518555 68.308594 L 27.911133 67.075195 L 28.303711 65.865234 L 28.699219 64.675781 L 29.091797 63.509766 L 29.487305 62.367188 L 29.882813 61.245117 L 30.28125 60.146484 L 30.676758 59.074219 L 31.075195 58.019531 L 31.473633 56.991211 L 31.87207 55.986328 L 32.273438 55.001953 L 32.671875 54.041016 L 33.073242 53.103516 L 33.474609 52.189453 L 33.875977 51.298828 L 34.280273 50.431641 L 34.681641 49.587891 L 35.085938 48.764648 L 35.487305 47.964844 L 35.891602 47.191406 L 36.295898 46.438477 L 36.700195 45.708984 L 37.104492 45.00293 L 37.511719 44.320312 L 37.916016 43.661133 L 38.323242 43.025391 L 38.727539 42.413086 L 39.134766 41.824219 L 39.539062 41.255859 L 39.946289 40.713867 L 40.353516 40.192383 L 40.760742 39.694336 L 41.167969 39.219727 L 41.575195 38.771484 L 41.979492 38.34082 L 42.386719 37.936523 L 42.793945 37.555664 L 43.201172 37.195312 L 43.608398 36.861328 L 44.015625 36.547852 L 44.422852 36.257812 L 44.830078 35.991211 L 45.237305 35.745117 L 45.641602 35.525391 L 46.048828 35.326172 L 46.456055 35.150391 L 46.860352 34.995117 L 47.267578 34.863281 L 47.671875 34.754883 L 48.079102 34.669922 L 48.483398 34.605469 L 48.887695 34.564453 L 49.291992 34.546875 L 49.696289 34.549805 L 50.100586 34.573242 L 50.501953 34.620117 L 50.90625 34.69043 L 51.307617 34.78125 L 51.711914 34.895508 L 52.113281 35.030273 L 52.514648 35.185547 L 52.916016 35.364258 L 53.314453 35.563477 L 53.71582 35.786133 L 54.114258 36.029297 L 54.512695 36.292969 L 54.911133 36.577148 L 55.30957 36.884766 L 55.705078 37.209961 L 56.100586 37.558594 L 56.496094 37.927734 L 56.891602 38.317383 L 57.287109 38.727539 L 57.679688 39.158203 L 58.072266 39.609375 L 58.464844 40.081055 L 58.857422 40.573242 L 59.24707 41.085938 L 59.636719 41.619141 L 60.026367 42.169922 L 60.413086 42.741211 L 60.802734 43.333008 L 61.189453 43.942383 L 61.573242 44.575195 L 61.959961 45.222656 L 62.34375 45.893555 L 62.724609 46.582031 L 63.108398 47.288086 L 63.489258 48.014648 L 63.870117 48.758789 " transform="matrix(1.333333,0,0,1.333333,-0.000000000000014211,-0.000000000000014211)"/>
<path style="fill:none;stroke-width:1.5;stroke-linecap:butt;stroke-linejoin:round;stroke:rgb(12.156863%,46.666667%,70.588237%);stroke-opacity:1;stroke-miterlimit:4;" d="M 30.899414 92.273438 L 31.283203 90.84375 L 31.666992 89.4375 L 32.050781 88.054688 L 32.4375 86.689453 L 32.824219 85.350586 L 33.210938 84.029297 L 33.600586 82.734375 L 33.990234 81.459961 L 34.379883 80.206055 L 34.769531 78.975586 L 35.15918 77.765625 L 35.551758 76.582031 L 35.944336 75.416016 L 36.336914 74.276367 L 36.729492 73.157227 L 37.125 72.061523 L 37.520508 70.986328 L 37.913086 69.93457 L 38.308594 68.90625 L 38.707031 67.901367 L 39.102539 66.916992 L 39.498047 65.956055 L 39.896484 65.018555 L 40.294922 64.104492 L 40.693359 63.210938 L 41.091797 62.34082 L 41.490234 61.494141 L 41.888672 60.670898 L 42.287109 59.871094 L 42.688477 59.091797 L 43.086914 58.335938 L 43.488281 57.603516 L 43.886719 56.894531 L 44.288086 56.208984 L 44.689453 55.546875 L 45.09082 54.905273 L 45.489258 54.287109 L 45.890625 53.692383 L 46.291992 53.121094 L 46.693359 52.573242 L 47.094727 52.045898 L 47.496094 51.541992 L 47.897461 51.061523 L 48.298828 50.604492 L 48.700195 50.170898 L 49.098633 49.757812 L 49.5 49.371094 L 49.901367 49.004883 L 50.302734 48.65918 L 50.704102 48.339844 L 51.102539 48.041016 L 51.503906 47.765625 L 51.902344 47.510742 L 52.303711 47.279297 L 52.702148 47.071289 L 53.100586 46.886719 L 53.499023 46.722656 L 53.897461 46.582031 L 54.295898 46.461914 L 54.694336 46.365234 L 55.092773 46.291992 L 55.488281 46.239258 L 55.886719 46.209961 L 56.282227 46.201172 L 56.677734 46.212891 L 57.073242 46.248047 L 57.46875 46.306641 L 57.864258 46.385742 L 58.256836 46.485352 L 58.649414 46.605469 L 59.041992 46.749023 L 59.43457 46.916016 L 59.827148 47.100586 L 60.216797 47.308594 L 60.609375 47.537109 L 60.999023 47.786133 L 61.388672 48.055664 L 61.775391 48.348633 L 62.162109 48.65918 L 62.551758 48.993164 L 62.935547 49.347656 L 63.322266 49.719727 L 63.706055 50.115234 L 64.089844 50.52832 L 64.473633 50.964844 L 64.857422 51.418945 L 65.238281 51.893555 L 65.619141 52.388672 L 66 52.904297 L 66.37793 53.44043 L 66.755859 53.994141 L 67.133789 54.568359 L 67.508789 55.160156 L 67.883789 55.772461 L 68.258789 56.402344 L 68.633789 57.052734 L 69.005859 57.723633 L 69.37793 58.412109 L 69.74707 59.118164 L 70.116211 59.844727 " transform="matrix(1.333333,0,0,1.333333,-0.000000000000014211,-0.000000000000014211)"/>
<path style="fill:none;stroke-width:1.5;stroke-linecap:butt;stroke-linejoin:round;stroke:rgb(12.156863%,46.666667%,70.588237%);stroke-opacity:1;stroke-miterlimit:4;" d="M 37.658203 101.897461 L 38.039062 100.473633 L 38.422852 99.070312 L 38.80957 97.6875 L 39.193359 96.328125 L 39.580078 94.989258 L 39.966797 93.670898 L 40.356445 92.375977 L 40.743164 91.101562 L 41.132812 89.850586 L 41.522461 88.620117 L 41.912109 87.413086 L 42.301758 86.229492 L 42.691406 85.066406 L 43.083984 83.923828 L 43.473633 82.804688 L 43.866211 81.708984 L 44.258789 80.633789 L 44.651367 79.582031 L 45.046875 78.553711 L 45.439453 77.545898 L 45.832031 76.561523 L 46.227539 75.597656 L 46.623047 74.660156 L 47.018555 73.743164 L 47.411133 72.849609 L 47.806641 71.976562 L 48.202148 71.126953 L 48.600586 70.300781 L 48.996094 69.498047 L 49.391602 68.71582 L 49.787109 67.959961 L 50.185547 67.22168 L 50.581055 66.509766 L 50.976562 65.821289 L 51.375 65.15332 L 51.770508 64.508789 L 52.166016 63.884766 L 52.564453 63.287109 L 52.959961 62.709961 L 53.355469 62.15625 L 53.753906 61.625977 L 54.149414 61.116211 L 54.544922 60.629883 L 54.94043 60.166992 L 55.335938 59.727539 L 55.734375 59.308594 L 56.129883 58.913086 L 56.522461 58.541016 L 56.917969 58.192383 L 57.313477 57.864258 L 57.708984 57.556641 L 58.101562 57.275391 L 58.49707 57.014648 L 58.889648 56.777344 L 59.282227 56.560547 L 59.674805 56.367188 L 60.067383 56.194336 L 60.459961 56.044922 L 60.852539 55.918945 L 61.245117 55.813477 L 61.634766 55.728516 L 62.024414 55.666992 L 62.414062 55.628906 L 62.803711 55.611328 L 63.193359 55.614258 L 63.580078 55.640625 L 63.966797 55.6875 L 64.353516 55.754883 L 64.740234 55.845703 L 65.126953 55.957031 L 65.510742 56.088867 L 65.897461 56.244141 L 66.28125 56.419922 L 66.662109 56.616211 L 67.045898 56.833008 L 67.426758 57.070312 L 67.807617 57.331055 L 68.188477 57.609375 L 68.566406 57.911133 L 68.947266 58.230469 L 69.325195 58.573242 L 69.700195 58.933594 L 70.078125 59.317383 L 70.453125 59.71875 L 70.825195 60.140625 L 71.200195 60.583008 L 71.572266 61.045898 L 71.944336 61.526367 L 72.313477 62.027344 L 72.685547 62.548828 L 73.051758 63.09082 L 73.420898 63.650391 L 73.787109 64.230469 L 74.15332 64.828125 L 74.519531 65.446289 L 74.882812 66.082031 L 75.246094 66.735352 L 75.606445 67.40918 L 75.966797 68.100586 L 76.327148 68.8125 " transform="matrix(1.333333,0,0,1.333333,-0.000000000000014211,-0.000000000000014211)"/>
<path style="fill:none;stroke-width:1.5;stroke-linecap:butt;stroke-linejoin:round;stroke:rgb(12.156863%,46.666667%,70.588237%);stroke-opacity:1;stroke-miterlimit:4;" d="M 44.337891 109.356445 L 44.72168 107.929688 L 45.105469 106.526367 L 45.492188 105.143555 L 45.875977 103.78418 L 46.262695 102.445312 L 46.649414 101.126953 L 47.039062 99.832031 L 47.425781 98.557617 L 47.8125 97.303711 L 48.202148 96.073242 L 48.591797 94.866211 L 48.981445 93.679688 L 49.371094 92.513672 L 49.760742 91.371094 L 50.15332 90.251953 L 50.542969 89.15332 L 50.935547 88.078125 L 51.325195 87.023438 L 51.717773 85.992188 L 52.110352 84.981445 L 52.50293 83.99707 L 52.895508 83.030273 L 53.288086 82.089844 L 53.680664 81.169922 L 54.073242 80.273438 L 54.46582 79.397461 L 54.858398 78.544922 L 55.250977 77.71582 L 55.646484 76.910156 L 56.039062 76.125 L 56.431641 75.363281 L 56.827148 74.625 L 57.219727 73.907227 L 57.612305 73.212891 L 58.004883 72.541992 L 58.397461 71.894531 L 58.792969 71.267578 L 59.185547 70.664062 L 59.578125 70.083984 L 59.970703 69.524414 L 60.363281 68.988281 L 60.755859 68.475586 L 61.145508 67.986328 L 61.538086 67.517578 L 61.930664 67.072266 L 62.320312 66.647461 L 62.712891 66.249023 L 63.102539 65.871094 L 63.492188 65.513672 L 63.881836 65.179688 L 64.271484 64.869141 L 64.661133 64.579102 L 65.050781 64.3125 L 65.4375 64.069336 L 65.827148 63.84668 L 66.213867 63.647461 L 66.600586 63.46875 L 66.987305 63.313477 L 67.371094 63.178711 L 67.757812 63.067383 L 68.141602 62.976562 L 68.525391 62.90918 L 68.90918 62.862305 L 69.292969 62.835938 L 69.673828 62.833008 L 70.057617 62.850586 L 70.438477 62.891602 L 70.816406 62.953125 L 71.197266 63.035156 L 71.575195 63.137695 L 71.953125 63.263672 L 72.331055 63.410156 L 72.706055 63.577148 L 73.083984 63.764648 L 73.458984 63.972656 L 73.831055 64.204102 L 74.206055 64.453125 L 74.578125 64.725586 L 74.950195 65.015625 L 75.319336 65.329102 L 75.691406 65.660156 L 76.057617 66.014648 L 76.426758 66.386719 L 76.792969 66.779297 L 77.15918 67.192383 L 77.525391 67.625977 L 77.888672 68.080078 L 78.251953 68.551758 L 78.615234 69.043945 L 78.975586 69.553711 L 79.335938 70.086914 L 79.693359 70.634766 L 80.053711 71.206055 L 80.408203 71.794922 L 80.765625 72.401367 L 81.120117 73.02832 L 81.474609 73.672852 L 81.826172 74.334961 L 82.177734 75.017578 L 82.526367 75.717773 " transform="matrix(1.333333,0,0,1.333333,-0.000000000000014211,-0.000000000000014211)"/>
<path style="fill:none;stroke-width:1.5;stroke-linecap:butt;stroke-linejoin:round;stroke:rgb(12.156863%,46.666667%,70.588237%);stroke-opacity:1;stroke-miterlimit:4;" d="M 50.976562 114.679688 L 51.363281 113.25 L 51.74707 111.84375 L 52.133789 110.460938 L 52.520508 109.098633 L 52.907227 107.756836 L 53.293945 106.435547 L 53.683594 105.137695 L 54.070312 103.860352 L 54.459961 102.603516 L 54.849609 101.370117 L 55.236328 100.160156 L 55.625977 98.970703 L 56.015625 97.801758 L 56.408203 96.65625 L 56.797852 95.53418 L 57.1875 94.432617 L 57.577148 93.351562 L 57.969727 92.296875 L 58.359375 91.259766 L 58.751953 90.249023 L 59.141602 89.258789 L 59.53418 88.289062 L 59.923828 87.345703 L 60.316406 86.422852 L 60.708984 85.520508 L 61.098633 84.641602 L 61.491211 83.786133 L 61.880859 82.954102 L 62.273438 82.142578 L 62.666016 81.354492 L 63.055664 80.589844 L 63.448242 79.845703 L 63.837891 79.125 L 64.227539 78.427734 L 64.620117 77.753906 L 65.009766 77.100586 L 65.399414 76.470703 L 65.789062 75.861328 L 66.178711 75.27832 L 66.568359 74.71582 L 66.958008 74.173828 L 67.347656 73.658203 L 67.734375 73.163086 L 68.124023 72.688477 L 68.510742 72.240234 L 68.897461 71.8125 L 69.28418 71.408203 L 69.670898 71.024414 L 70.057617 70.664062 L 70.444336 70.327148 L 70.828125 70.010742 L 71.211914 69.717773 L 71.595703 69.445312 L 71.979492 69.196289 L 72.363281 68.967773 L 72.74707 68.762695 L 73.12793 68.581055 L 73.508789 68.419922 L 73.889648 68.282227 L 74.270508 68.165039 L 74.648438 68.068359 L 75.026367 67.995117 L 75.404297 67.942383 L 75.782227 67.913086 L 76.157227 67.904297 L 76.535156 67.918945 L 76.910156 67.951172 L 77.282227 68.006836 L 77.657227 68.085938 L 78.029297 68.182617 L 78.401367 68.302734 L 78.770508 68.443359 L 79.139648 68.604492 L 79.508789 68.789062 L 79.87793 68.991211 L 80.244141 69.216797 L 80.610352 69.459961 L 80.976562 69.726562 L 81.342773 70.013672 L 81.706055 70.318359 L 82.066406 70.646484 L 82.429688 70.995117 L 82.790039 71.361328 L 83.147461 71.748047 L 83.507812 72.155273 L 83.865234 72.583008 L 84.219727 73.02832 L 84.577148 73.49707 L 84.928711 73.983398 L 85.283203 74.487305 L 85.634766 75.011719 L 85.986328 75.556641 L 86.334961 76.119141 L 86.683594 76.702148 L 87.029297 77.302734 L 87.37793 77.923828 L 87.720703 78.5625 L 88.066406 79.21875 L 88.40918 79.895508 L 88.749023 80.589844 " transform="matrix(1.333333,0,0,1.333333,-0.000000000000014211,-0.000000000000014211)"/>
<path style="fill:none;stroke-width:1.5;stroke-linecap:butt;stroke-linejoin:round;stroke:rgb(12.156863%,46.666667%,70.588237%);stroke-opacity:1;stroke-miterlimit:4;" d="M 57.606445 117.884766 L 57.996094 116.452148 L 58.382812 115.040039 L 58.769531 113.651367 L 59.15918 112.283203 L 59.545898 110.935547 L 59.935547 109.611328 L 60.325195 108.307617 L 60.714844 107.024414 L 61.104492 105.764648 L 61.494141 104.52832 L 61.883789 103.30957 L 62.273438 102.117188 L 62.663086 100.945312 L 63.052734 99.793945 L 63.445312 98.666016 L 63.834961 97.558594 L 64.224609 96.474609 L 64.617188 95.414062 L 65.006836 94.374023 L 65.399414 93.357422 L 65.789062 92.361328 L 66.178711 91.391602 L 66.571289 90.439453 L 66.960938 89.513672 L 67.350586 88.608398 L 67.743164 87.726562 L 68.132812 86.865234 L 68.522461 86.027344 L 68.912109 85.212891 L 69.301758 84.421875 L 69.691406 83.651367 L 70.081055 82.904297 L 70.470703 82.177734 L 70.860352 81.477539 L 71.24707 80.797852 L 71.636719 80.141602 L 72.023438 79.505859 L 72.413086 78.896484 L 72.799805 78.304688 L 73.186523 77.739258 L 73.573242 77.194336 L 73.957031 76.675781 L 74.34375 76.174805 L 74.727539 75.700195 L 75.114258 75.246094 L 75.498047 74.81543 L 75.881836 74.405273 L 76.265625 74.018555 L 76.646484 73.655273 L 77.027344 73.3125 L 77.411133 72.993164 L 77.791992 72.697266 L 78.169922 72.421875 L 78.550781 72.169922 L 78.928711 71.938477 L 79.306641 71.730469 L 79.68457 71.545898 L 80.05957 71.381836 L 80.4375 71.238281 L 80.8125 71.118164 L 81.1875 71.018555 L 81.55957 70.942383 L 81.931641 70.889648 L 82.303711 70.854492 L 82.675781 70.842773 L 83.044922 70.854492 L 83.416992 70.886719 L 83.783203 70.939453 L 84.152344 71.012695 L 84.518555 71.109375 L 84.884766 71.223633 L 85.248047 71.364258 L 85.614258 71.522461 L 85.974609 71.701172 L 86.337891 71.90332 L 86.698242 72.123047 L 87.058594 72.366211 L 87.416016 72.629883 L 87.776367 72.914062 L 88.130859 73.21875 L 88.488281 73.541016 L 88.842773 73.886719 L 89.194336 74.25 L 89.548828 74.636719 L 89.897461 75.041016 L 90.249023 75.46582 L 90.597656 75.911133 L 90.946289 76.374023 L 91.291992 76.857422 L 91.637695 77.361328 L 91.980469 77.885742 L 92.323242 78.427734 L 92.666016 78.987305 L 93.005859 79.567383 L 93.345703 80.167969 L 93.682617 80.786133 L 94.019531 81.421875 L 94.356445 82.078125 L 94.69043 82.749023 L 95.021484 83.443359 " transform="matrix(1.333333,0,0,1.333333,-0.000000000000014211,-0.000000000000014211)"/>
<path style="fill:none;stroke-width:1.5;stroke-linecap:butt;stroke-linejoin:round;stroke:rgb(12.156863%,46.666667%,70.588237%);stroke-opacity:1;stroke-miterlimit:4;" d="M 64.265625 118.96582 L 64.655273 117.524414 L 65.044922 116.106445 L 65.43457 114.708984 L 65.827148 113.332031 L 66.216797 111.978516 L 66.606445 110.645508 L 66.999023 109.335938 L 67.388672 108.046875 L 67.78125 106.77832 L 68.170898 105.533203 L 68.563477 104.311523 L 68.956055 103.110352 L 69.345703 101.932617 L 69.738281 100.775391 L 70.12793 99.638672 L 70.520508 98.52832 L 70.913086 97.438477 L 71.302734 96.369141 L 71.695312 95.326172 L 72.084961 94.300781 L 72.477539 93.301758 L 72.867188 92.323242 L 73.259766 91.368164 L 73.649414 90.436523 L 74.039062 89.525391 L 74.428711 88.637695 L 74.821289 87.773438 L 75.210938 86.929688 L 75.597656 86.109375 L 75.987305 85.3125 L 76.376953 84.539062 L 76.763672 83.786133 L 77.15332 83.056641 L 77.540039 82.350586 L 77.926758 81.667969 L 78.313477 81.008789 L 78.700195 80.370117 L 79.086914 79.754883 L 79.470703 79.160156 L 79.857422 78.591797 L 80.241211 78.043945 L 80.625 77.519531 L 81.008789 77.018555 L 81.389648 76.538086 L 81.773438 76.081055 L 82.154297 75.647461 L 82.535156 75.234375 L 82.916016 74.844727 L 83.293945 74.478516 L 83.674805 74.135742 L 84.052734 73.813477 L 84.430664 73.514648 L 84.805664 73.236328 L 85.180664 72.981445 L 85.555664 72.75 L 85.930664 72.539062 L 86.305664 72.351562 L 86.677734 72.1875 L 87.049805 72.043945 L 87.418945 71.920898 L 87.791016 71.821289 L 88.160156 71.745117 L 88.526367 71.686523 L 88.895508 71.654297 L 89.261719 71.642578 L 89.62793 71.651367 L 89.991211 71.680664 L 90.354492 71.733398 L 90.717773 71.806641 L 91.078125 71.90332 L 91.438477 72.020508 L 91.798828 72.158203 L 92.15625 72.316406 L 92.513672 72.495117 L 92.871094 72.697266 L 93.225586 72.919922 L 93.580078 73.163086 L 93.931641 73.423828 L 94.283203 73.708008 L 94.634766 74.012695 L 94.983398 74.337891 L 95.332031 74.683594 L 95.677734 75.049805 L 96.023438 75.436523 L 96.369141 75.84082 L 96.711914 76.268555 L 97.051758 76.713867 L 97.394531 77.179688 L 97.731445 77.663086 L 98.071289 78.169922 L 98.408203 78.694336 L 98.742188 79.236328 L 99.076172 79.798828 L 99.410156 80.381836 L 99.741211 80.982422 L 100.072266 81.603516 L 100.400391 82.242188 L 100.728516 82.898438 L 101.053711 83.575195 L 101.378906 84.269531 " transform="matrix(1.333333,0,0,1.333333,-0.000000000000014211,-0.000000000000014211)"/>
<path style="fill:none;stroke-width:1.5;stroke-linecap:butt;stroke-linejoin:round;stroke:rgb(12.156863%,46.666667%,70.588237%);stroke-opacity:1;stroke-miterlimit:4;" d="M 70.986328 117.890625 L 71.378906 116.44043 L 71.771484 115.010742 L 72.166992 113.604492 L 72.55957 112.21875 L 72.952148 110.853516 L 73.347656 109.511719 L 73.740234 108.193359 L 74.132812 106.892578 L 74.52832 105.618164 L 74.920898 104.364258 L 75.313477 103.130859 L 75.708984 101.920898 L 76.101562 100.734375 L 76.494141 99.568359 L 76.886719 98.425781 L 77.279297 97.306641 L 77.674805 96.208008 L 78.067383 95.132812 L 78.459961 94.081055 L 78.849609 93.052734 L 79.242188 92.044922 L 79.634766 91.060547 L 80.027344 90.09668 L 80.416992 89.15918 L 80.80957 88.242188 L 81.199219 87.348633 L 81.588867 86.478516 L 81.978516 85.628906 L 82.368164 84.805664 L 82.757812 84.00293 L 83.144531 83.223633 L 83.53418 82.464844 L 83.920898 81.732422 L 84.307617 81.020508 L 84.694336 80.334961 L 85.081055 79.669922 L 85.464844 79.02832 L 85.848633 78.407227 L 86.235352 77.8125 L 86.616211 77.238281 L 87 76.6875 L 87.383789 76.160156 L 87.764648 75.65625 L 88.145508 75.172852 L 88.526367 74.71582 L 88.904297 74.279297 L 89.282227 73.866211 L 89.660156 73.473633 L 90.038086 73.104492 L 90.413086 72.761719 L 90.791016 72.436523 L 91.163086 72.137695 L 91.538086 71.859375 L 91.910156 71.604492 L 92.282227 71.370117 L 92.654297 71.162109 L 93.023438 70.97168 L 93.392578 70.807617 L 93.761719 70.664062 L 94.12793 70.543945 L 94.494141 70.444336 L 94.860352 70.365234 L 95.223633 70.3125 L 95.586914 70.277344 L 95.950195 70.268555 L 96.310547 70.277344 L 96.670898 70.30957 L 97.02832 70.365234 L 97.385742 70.441406 L 97.743164 70.538086 L 98.097656 70.658203 L 98.452148 70.798828 L 98.806641 70.959961 L 99.158203 71.141602 L 99.509766 71.34668 L 99.858398 71.572266 L 100.207031 71.81543 L 100.552734 72.084961 L 100.898438 72.37207 L 101.244141 72.679688 L 101.586914 73.007812 L 101.929688 73.359375 L 102.269531 73.728516 L 102.609375 74.118164 L 102.946289 74.52832 L 103.283203 74.958984 L 103.620117 75.410156 L 103.954102 75.881836 L 104.285156 76.371094 L 104.616211 76.880859 L 104.947266 77.411133 L 105.275391 77.958984 L 105.600586 78.530273 L 105.928711 79.116211 L 106.250977 79.722656 L 106.573242 80.349609 L 106.895508 80.994141 L 107.214844 81.65918 L 107.53418 82.341797 L 107.850586 83.041992 " transform="matrix(1.333333,0,0,1.333333,-0.000000000000014211,-0.000000000000014211)"/>
<path style="fill:none;stroke-width:1.5;stroke-linecap:butt;stroke-linejoin:round;stroke:rgb(12.156863%,46.666667%,70.588237%);stroke-opacity:1;stroke-miterlimit:4;" d="M 77.806641 114.612305 L 78.205078 113.147461 L 78.600586 111.706055 L 78.999023 110.285156 L 79.394531 108.884766 L 79.792969 107.510742 L 80.188477 106.154297 L 80.586914 104.824219 L 80.982422 103.511719 L 81.380859 102.225586 L 81.776367 100.959961 L 82.171875 99.717773 L 82.570312 98.496094 L 82.96582 97.297852 L 83.361328 96.123047 L 83.756836 94.97168 L 84.152344 93.84082 L 84.547852 92.733398 L 84.94043 91.649414 L 85.335938 90.588867 L 85.731445 89.551758 L 86.124023 88.535156 L 86.516602 87.541992 L 86.90918 86.572266 L 87.301758 85.625977 L 87.694336 84.703125 L 88.086914 83.803711 L 88.476562 82.924805 L 88.866211 82.072266 L 89.255859 81.240234 L 89.645508 80.431641 L 90.035156 79.646484 L 90.424805 78.884766 L 90.811523 78.146484 L 91.198242 77.431641 L 91.584961 76.740234 L 91.96875 76.069336 L 92.355469 75.424805 L 92.739258 74.800781 L 93.123047 74.203125 L 93.503906 73.625977 L 93.887695 73.072266 L 94.268555 72.541992 L 94.649414 72.035156 L 95.027344 71.551758 L 95.408203 71.091797 L 95.786133 70.655273 L 96.161133 70.239258 L 96.539062 69.84668 L 96.914062 69.480469 L 97.286133 69.134766 L 97.661133 68.80957 L 98.033203 68.510742 L 98.405273 68.232422 L 98.774414 67.980469 L 99.143555 67.746094 L 99.512695 67.538086 L 99.878906 67.350586 L 100.245117 67.189453 L 100.611328 67.045898 L 100.974609 66.928711 L 101.337891 66.832031 L 101.698242 66.755859 L 102.058594 66.706055 L 102.418945 66.676758 L 102.776367 66.667969 L 103.133789 66.682617 L 103.491211 66.720703 L 103.845703 66.779297 L 104.197266 66.858398 L 104.548828 66.960938 L 104.900391 67.083984 L 105.251953 67.230469 L 105.597656 67.397461 L 105.946289 67.587891 L 106.291992 67.795898 L 106.634766 68.027344 L 106.980469 68.279297 L 107.320312 68.554688 L 107.660156 68.847656 L 108 69.164062 L 108.336914 69.500977 L 108.673828 69.858398 L 109.007812 70.236328 L 109.341797 70.634766 L 109.672852 71.053711 L 110.003906 71.493164 L 110.332031 71.950195 L 110.660156 72.430664 L 110.985352 72.928711 L 111.310547 73.450195 L 111.632812 73.989258 L 111.955078 74.545898 L 112.274414 75.125977 L 112.59375 75.723633 L 112.910156 76.341797 L 113.226562 76.977539 L 113.540039 77.633789 L 113.850586 78.307617 L 114.161133 78.999023 L 114.47168 79.710938 " transform="matrix(1.333333,0,0,1.333333,-0.000000000000014211,-0.000000000000014211)"/>
<path style="fill:none;stroke-width:1.5;stroke-linecap:butt;stroke-linejoin:round;stroke:rgb(12.156863%,46.666667%,70.588237%);stroke-opacity:1;stroke-miterlimit:4;" d="M 84.767578 109.045898 L 85.168945 107.563477 L 85.573242 106.104492 L 85.974609 104.668945 L 86.375977 103.253906 L 86.777344 101.862305 L 87.178711 100.494141 L 87.580078 99.146484 L 87.978516 97.822266 L 88.379883 96.521484 L 88.78125 95.244141 L 89.179688 93.987305 L 89.581055 92.753906 L 89.979492 91.543945 L 90.37793 90.357422 L 90.776367 89.191406 L 91.174805 88.051758 L 91.573242 86.932617 L 91.97168 85.839844 L 92.367188 84.767578 L 92.765625 83.71875 L 93.161133 82.693359 L 93.556641 81.691406 L 93.952148 80.712891 L 94.344727 79.757812 L 94.737305 78.826172 L 95.132812 77.917969 L 95.525391 77.033203 L 95.915039 76.171875 L 96.307617 75.333984 L 96.697266 74.522461 L 97.086914 73.731445 L 97.476562 72.963867 L 97.866211 72.219727 L 98.25293 71.499023 L 98.639648 70.801758 L 99.026367 70.130859 L 99.410156 69.480469 L 99.793945 68.853516 L 100.177734 68.25293 L 100.561523 67.672852 L 100.942383 67.119141 L 101.323242 66.585938 L 101.701172 66.079102 L 102.082031 65.592773 L 102.459961 65.132812 L 102.834961 64.693359 L 103.212891 64.280273 L 103.587891 63.887695 L 103.959961 63.518555 L 104.332031 63.175781 L 104.704102 62.853516 L 105.076172 62.554688 L 105.445312 62.279297 L 105.811523 62.027344 L 106.180664 61.798828 L 106.546875 61.59375 L 106.910156 61.40918 L 107.273438 61.250977 L 107.636719 61.113281 L 107.99707 60.999023 L 108.357422 60.905273 L 108.714844 60.837891 L 109.072266 60.791016 L 109.429688 60.767578 L 109.78418 60.764648 L 110.138672 60.788086 L 110.490234 60.829102 L 110.838867 60.896484 L 111.19043 60.984375 L 111.536133 61.092773 L 111.884766 61.224609 L 112.230469 61.379883 L 112.573242 61.555664 L 112.916016 61.751953 L 113.255859 61.97168 L 113.595703 62.211914 L 113.932617 62.475586 L 114.269531 62.759766 L 114.606445 63.064453 L 114.9375 63.389648 L 115.271484 63.738281 L 115.602539 64.107422 L 115.930664 64.49707 L 116.258789 64.907227 L 116.583984 65.337891 L 116.90918 65.789062 L 117.231445 66.260742 L 117.550781 66.75293 L 117.870117 67.265625 L 118.189453 67.798828 L 118.505859 68.352539 L 118.819336 68.923828 L 119.132812 69.518555 L 119.446289 70.130859 L 119.753906 70.760742 L 120.061523 71.414062 L 120.369141 72.084961 L 120.673828 72.773438 L 120.978516 73.482422 L 121.277344 74.211914 " transform="matrix(1.333333,0,0,1.333333,-0.000000000000014211,-0.000000000000014211)"/>
<path style="fill:none;stroke-width:1.5;stroke-linecap:butt;stroke-linejoin:round;stroke:rgb(12.156863%,46.666667%,70.588237%);stroke-opacity:1;stroke-miterlimit:4;" d="M 91.910156 101.083008 L 92.317383 99.583008 L 92.727539 98.106445 L 93.134766 96.650391 L 93.541992 95.217773 L 93.946289 93.808594 L 94.353516 92.419922 L 94.760742 91.057617 L 95.165039 89.71582 L 95.569336 88.397461 L 95.976562 87.105469 L 96.380859 85.833984 L 96.785156 84.585938 L 97.186523 83.361328 L 97.59082 82.160156 L 97.992188 80.979492 L 98.396484 79.825195 L 98.797852 78.697266 L 99.196289 77.589844 L 99.597656 76.505859 L 99.996094 75.445312 L 100.397461 74.411133 L 100.795898 73.397461 L 101.191406 72.410156 L 101.589844 71.443359 L 101.985352 70.50293 L 102.380859 69.585938 L 102.776367 68.695312 L 103.168945 67.825195 L 103.561523 66.981445 L 103.954102 66.161133 L 104.34668 65.364258 L 104.736328 64.59082 L 105.125977 63.84082 L 105.515625 63.117188 L 105.902344 62.414062 L 106.289062 61.737305 L 106.675781 61.083984 L 107.05957 60.457031 L 107.443359 59.850586 L 107.827148 59.270508 L 108.208008 58.713867 L 108.588867 58.180664 L 108.969727 57.670898 L 109.347656 57.18457 L 109.725586 56.724609 L 110.100586 56.288086 L 110.475586 55.87207 L 110.850586 55.482422 L 111.222656 55.116211 L 111.594727 54.773438 L 111.966797 54.457031 L 112.335938 54.161133 L 112.702148 53.888672 L 113.068359 53.642578 L 113.43457 53.416992 L 113.797852 53.214844 L 114.161133 53.039062 L 114.521484 52.883789 L 114.881836 52.751953 L 115.242188 52.646484 L 115.59668 52.561523 L 115.954102 52.5 L 116.308594 52.461914 L 116.660156 52.447266 L 117.011719 52.453125 L 117.363281 52.482422 L 117.711914 52.538086 L 118.057617 52.611328 L 118.40332 52.710938 L 118.749023 52.831055 L 119.091797 52.974609 L 119.431641 53.141602 L 119.771484 53.329102 L 120.108398 53.537109 L 120.445312 53.771484 L 120.779297 54.023438 L 121.113281 54.298828 L 121.444336 54.597656 L 121.775391 54.916992 L 122.103516 55.256836 L 122.431641 55.620117 L 122.753906 56.003906 L 123.079102 56.408203 L 123.401367 56.835938 L 123.720703 57.28418 L 124.040039 57.75293 L 124.356445 58.239258 L 124.669922 58.751953 L 124.983398 59.282227 L 125.293945 59.833008 L 125.604492 60.404297 L 125.912109 60.996094 L 126.219727 61.605469 L 126.524414 62.238281 L 126.826172 62.891602 L 127.12793 63.5625 L 127.426758 64.253906 L 127.722656 64.962891 L 128.018555 65.692383 L 128.311523 66.442383 " transform="matrix(1.333333,0,0,1.333333,-0.000000000000014211,-0.000000000000014211)"/>
<path style="fill:none;stroke-width:1.5;stroke-linecap:butt;stroke-linejoin:round;stroke:rgb(12.156863%,46.666667%,70.588237%);stroke-opacity:1;stroke-miterlimit:4;" d="M 24.026367 80.414062 L 24.720703 81.703125 L 25.412109 82.96875 L 26.103516 84.210938 L 26.791992 85.429688 L 27.480469 86.62793 L 28.166016 87.799805 L 28.851563 88.951172 L 29.53418 90.082031 L 30.216797 91.186523 L 30.899414 92.273438 L 31.579102 93.333984 L 32.258789 94.374023 L 32.935547 95.390625 L 33.612305 96.386719 L 34.289062 97.359375 L 34.96582 98.311523 L 35.639648 99.240234 L 36.313477 100.148438 L 36.984375 101.033203 L 37.658203 101.897461 L 38.329102 102.741211 L 38.99707 103.561523 L 39.667969 104.361328 L 40.335938 105.140625 L 41.003906 105.896484 L 41.671875 106.628906 L 42.339844 107.34375 L 43.004883 108.035156 L 43.672852 108.706055 L 44.337891 109.356445 L 45.00293 109.983398 L 45.667969 110.589844 L 46.333008 111.175781 L 46.998047 111.738281 L 47.660156 112.283203 L 48.325195 112.804688 L 48.987305 113.302734 L 49.649414 113.783203 L 50.314453 114.240234 L 50.976562 114.679688 L 51.638672 115.092773 L 52.303711 115.488281 L 52.96582 115.863281 L 53.62793 116.214844 L 54.290039 116.545898 L 54.955078 116.856445 L 55.617188 117.143555 L 56.279297 117.413086 L 56.944336 117.65918 L 57.606445 117.884766 L 58.271484 118.086914 L 58.936523 118.271484 L 59.601562 118.432617 L 60.266602 118.573242 L 60.931641 118.69043 L 61.59668 118.790039 L 62.264648 118.866211 L 62.929688 118.918945 L 63.597656 118.954102 L 64.265625 118.96582 L 64.933594 118.954102 L 65.604492 118.924805 L 66.272461 118.87207 L 66.943359 118.795898 L 67.617188 118.699219 L 68.288086 118.582031 L 68.961914 118.441406 L 69.635742 118.280273 L 70.30957 118.095703 L 70.986328 117.890625 L 71.663086 117.665039 L 72.342773 117.413086 L 73.019531 117.143555 L 73.702148 116.847656 L 74.381836 116.53125 L 75.064453 116.191406 L 75.74707 115.831055 L 76.432617 115.447266 L 77.121094 115.040039 L 77.806641 114.612305 L 78.495117 114.158203 L 79.186523 113.683594 L 79.87793 113.185547 L 80.572266 112.664062 L 81.266602 112.119141 L 81.963867 111.550781 L 82.664062 110.958984 L 83.361328 110.34668 L 84.064453 109.708008 L 84.767578 109.045898 L 85.473633 108.357422 L 86.179688 107.648438 L 86.888672 106.913086 L 87.600586 106.154297 L 88.3125 105.37207 L 89.030273 104.563477 L 89.745117 103.731445 L 90.46582 102.873047 L 91.186523 101.991211 L 91.910156 101.083008 " transform="matrix(1.333333,0,0,1.333333,-0.000000000000014211,-0.000000000000014211)"/>
<path style="fill:none;stroke-width:1.5;stroke-linecap:butt;stroke-linejoin:round;stroke:rgb(12.156863%,46.666667%,70.588237%);stroke-opacity:1;stroke-miterlimit:4;" d="M 27.911133 67.075195 L 28.602539 68.370117 L 29.293945 69.638672 L 29.982422 70.886719 L 30.670898 72.111328 L 31.356445 73.3125 L 32.041992 74.490234 L 32.724609 75.644531 L 33.407227 76.77832 L 34.089844 77.888672 L 34.769531 78.975586 L 35.449219 80.039062 L 36.125977 81.082031 L 36.802734 82.101562 L 37.479492 83.100586 L 38.15625 84.076172 L 38.830078 85.02832 L 39.503906 85.959961 L 40.177734 86.868164 L 40.848633 87.755859 L 41.522461 88.620117 L 42.19043 89.463867 L 42.861328 90.287109 L 43.532227 91.086914 L 44.200195 91.863281 L 44.868164 92.619141 L 45.536133 93.354492 L 46.204102 94.066406 L 46.869141 94.757812 L 47.537109 95.425781 L 48.202148 96.073242 L 48.867188 96.700195 L 49.532227 97.306641 L 50.197266 97.889648 L 50.862305 98.449219 L 51.527344 98.991211 L 52.192383 99.509766 L 52.857422 100.007812 L 53.519531 100.482422 L 54.18457 100.936523 L 54.849609 101.370117 L 55.511719 101.783203 L 56.176758 102.172852 L 56.841797 102.541992 L 57.503906 102.890625 L 58.168945 103.21582 L 58.833984 103.520508 L 59.499023 103.804688 L 60.164062 104.068359 L 60.829102 104.308594 L 61.494141 104.52832 L 62.15918 104.724609 L 62.824219 104.900391 L 63.492188 105.055664 L 64.157227 105.19043 L 64.825195 105.301758 L 65.493164 105.389648 L 66.164062 105.459961 L 66.832031 105.506836 L 67.50293 105.530273 L 68.170898 105.533203 L 68.841797 105.515625 L 69.515625 105.477539 L 70.186523 105.413086 L 70.860352 105.331055 L 71.53418 105.225586 L 72.210938 105.09668 L 72.887695 104.947266 L 73.564453 104.774414 L 74.241211 104.581055 L 74.920898 104.364258 L 75.600586 104.124023 L 76.283203 103.863281 L 76.96582 103.579102 L 77.648438 103.274414 L 78.333984 102.946289 L 79.019531 102.594727 L 79.705078 102.219727 L 80.396484 101.824219 L 81.084961 101.402344 L 81.776367 100.959961 L 82.470703 100.494141 L 83.165039 100.004883 L 83.859375 99.492188 L 84.55957 98.956055 L 85.256836 98.396484 L 85.959961 97.813477 L 86.660156 97.207031 L 87.366211 96.577148 L 88.072266 95.920898 L 88.78125 95.244141 L 89.490234 94.541016 L 90.202148 93.814453 L 90.916992 93.061523 L 91.631836 92.285156 L 92.352539 91.485352 L 93.070312 90.65918 L 93.793945 89.806641 L 94.517578 88.930664 L 95.24707 88.03125 L 95.976562 87.105469 " transform="matrix(1.333333,0,0,1.333333,-0.000000000000014211,-0.000000000000014211)"/>
<path style="fill:none;stroke-width:1.5;stroke-linecap:butt;stroke-linejoin:round;stroke:rgb(12.156863%,46.666667%,70.588237%);stroke-opacity:1;stroke-miterlimit:4;" d="M 31.87207 55.986328 L 32.560547 57.28125 L 33.249023 58.552734 L 33.93457 59.803711 L 34.620117 61.02832 L 35.302734 62.232422 L 35.985352 63.410156 L 36.667969 64.567383 L 37.347656 65.701172 L 38.027344 66.811523 L 38.707031 67.901367 L 39.383789 68.964844 L 40.060547 70.007812 L 40.734375 71.027344 L 41.408203 72.026367 L 42.082031 73.001953 L 42.755859 73.954102 L 43.426758 74.885742 L 44.097656 75.793945 L 44.768555 76.681641 L 45.439453 77.545898 L 46.107422 78.386719 L 46.77832 79.207031 L 47.446289 80.006836 L 48.114258 80.783203 L 48.779297 81.536133 L 49.447266 82.268555 L 50.112305 82.980469 L 50.780273 83.668945 L 51.445312 84.336914 L 52.110352 84.981445 L 52.775391 85.605469 L 53.44043 86.208984 L 54.102539 86.789062 L 54.767578 87.348633 L 55.432617 87.884766 L 56.094727 88.400391 L 56.759766 88.895508 L 57.424805 89.367188 L 58.086914 89.818359 L 58.751953 90.249023 L 59.414062 90.65625 L 60.079102 91.042969 L 60.744141 91.40625 L 61.40625 91.751953 L 62.071289 92.071289 L 62.736328 92.373047 L 63.401367 92.651367 L 64.066406 92.90918 L 64.731445 93.143555 L 65.399414 93.357422 L 66.064453 93.550781 L 66.732422 93.720703 L 67.397461 93.870117 L 68.06543 93.996094 L 68.736328 94.101562 L 69.404297 94.186523 L 70.072266 94.248047 L 70.743164 94.286133 L 71.414062 94.306641 L 72.084961 94.300781 L 72.758789 94.277344 L 73.432617 94.227539 L 74.106445 94.160156 L 74.780273 94.066406 L 75.457031 93.955078 L 76.133789 93.817383 L 76.810547 93.65918 L 77.490234 93.480469 L 78.169922 93.275391 L 78.849609 93.052734 L 79.532227 92.803711 L 80.217773 92.53418 L 80.900391 92.241211 L 81.585938 91.924805 L 82.274414 91.587891 L 82.962891 91.224609 L 83.651367 90.84082 L 84.342773 90.433594 L 85.037109 90.00293 L 85.731445 89.551758 L 86.425781 89.074219 L 87.123047 88.573242 L 87.823242 88.051758 L 88.523438 87.503906 L 89.226562 86.932617 L 89.929688 86.337891 L 90.635742 85.719727 L 91.341797 85.075195 L 92.053711 84.410156 L 92.765625 83.71875 L 93.477539 83.003906 L 94.192383 82.262695 L 94.910156 81.498047 L 95.630859 80.709961 L 96.354492 79.895508 L 97.078125 79.057617 L 97.804688 78.19043 L 98.53125 77.302734 L 99.263672 76.385742 L 99.996094 75.445312 " transform="matrix(1.333333,0,0,1.333333,-0.000000000000014211,-0.000000000000014211)"/>
<path style="fill:none;stroke-width:1.5;stroke-linecap:butt;stroke-linejoin:round;stroke:rgb(12.156863%,46.666667%,70.588237%);stroke-opacity:1;stroke-miterlimit:4;" d="M 35.891602 47.191406 L 36.577148 48.486328 L 37.259766 49.757812 L 37.942383 51.005859 L 38.625 52.230469 L 39.304688 53.431641 L 39.981445 54.609375 L 40.661133 55.763672 L 41.337891 56.897461 L 42.011719 58.004883 L 42.688477 59.091797 L 43.362305 60.155273 L 44.033203 61.195312 L 44.707031 62.214844 L 45.37793 63.210938 L 46.048828 64.183594 L 46.719727 65.135742 L 47.387695 66.064453 L 48.055664 66.969727 L 48.723633 67.854492 L 49.391602 68.71582 L 50.05957 69.556641 L 50.724609 70.374023 L 51.389648 71.170898 L 52.054688 71.944336 L 52.719727 72.694336 L 53.384766 73.423828 L 54.049805 74.132812 L 54.711914 74.818359 L 55.376953 75.483398 L 56.039062 76.125 L 56.701172 76.746094 L 57.366211 77.34375 L 58.02832 77.920898 L 58.69043 78.477539 L 59.352539 79.010742 L 60.014648 79.523438 L 60.676758 80.012695 L 61.338867 80.481445 L 62.000977 80.929688 L 62.666016 81.354492 L 63.328125 81.758789 L 63.990234 82.142578 L 64.652344 82.50293 L 65.317383 82.839844 L 65.979492 83.15918 L 66.644531 83.455078 L 67.306641 83.727539 L 67.97168 83.979492 L 68.636719 84.210938 L 69.301758 84.421875 L 69.969727 84.606445 L 70.634766 84.773438 L 71.302734 84.916992 L 71.967773 85.040039 L 72.635742 85.139648 L 73.306641 85.21875 L 73.974609 85.274414 L 74.645508 85.30957 L 75.316406 85.321289 L 75.987305 85.3125 L 76.661133 85.283203 L 77.334961 85.227539 L 78.008789 85.154297 L 78.682617 85.054688 L 79.359375 84.93457 L 80.036133 84.793945 L 80.71582 84.629883 L 81.395508 84.442383 L 82.075195 84.234375 L 82.757812 84.00293 L 83.44043 83.748047 L 84.123047 83.469727 L 84.808594 83.170898 L 85.49707 82.848633 L 86.182617 82.50293 L 86.874023 82.136719 L 87.56543 81.744141 L 88.256836 81.331055 L 88.951172 80.891602 L 89.645508 80.431641 L 90.342773 79.948242 L 91.042969 79.441406 L 91.743164 78.908203 L 92.446289 78.354492 L 93.149414 77.774414 L 93.855469 77.173828 L 94.561523 76.546875 L 95.273438 75.896484 L 95.985352 75.219727 L 96.697266 74.522461 L 97.412109 73.798828 L 98.129883 73.048828 L 98.850586 72.275391 L 99.574219 71.478516 L 100.297852 70.655273 L 101.024414 69.805664 L 101.753906 68.932617 L 102.483398 68.033203 L 103.21875 67.110352 L 103.954102 66.161133 " transform="matrix(1.333333,0,0,1.333333,-0.000000000000014211,-0.000000000000014211)"/>
<path style="fill:none;stroke-width:1.5;stroke-linecap:butt;stroke-linejoin:round;stroke:rgb(12.156863%,46.666667%,70.588237%);stroke-opacity:1;stroke-miterlimit:4;" d="M 39.946289 40.713867 L 40.625977 42.00293 L 41.305664 43.271484 L 41.982422 44.513672 L 42.65918 45.735352 L 43.333008 46.930664 L 44.006836 48.105469 L 44.680664 49.256836 L 45.351562 50.384766 L 46.022461 51.489258 L 46.693359 52.573242 L 47.364258 53.630859 L 48.032227 54.667969 L 48.700195 55.68457 L 49.368164 56.674805 L 50.033203 57.644531 L 50.698242 58.59082 L 51.363281 59.516602 L 52.02832 60.418945 L 52.693359 61.297852 L 53.355469 62.15625 L 54.020508 62.991211 L 54.682617 63.805664 L 55.344727 64.59668 L 56.006836 65.367188 L 56.666016 66.114258 L 57.328125 66.84082 L 57.990234 67.543945 L 58.649414 68.226562 L 59.308594 68.885742 L 59.970703 69.524414 L 60.629883 70.142578 L 61.289062 70.737305 L 61.948242 71.308594 L 62.610352 71.862305 L 63.269531 72.389648 L 63.928711 72.899414 L 64.587891 73.385742 L 65.24707 73.851562 L 65.90918 74.293945 L 66.568359 74.71582 L 67.227539 75.114258 L 67.889648 75.492188 L 68.548828 75.849609 L 69.210938 76.183594 L 69.873047 76.49707 L 70.535156 76.790039 L 71.197266 77.05957 L 71.859375 77.308594 L 72.521484 77.53418 L 73.186523 77.739258 L 73.848633 77.923828 L 74.513672 78.084961 L 75.178711 78.225586 L 75.84668 78.342773 L 76.511719 78.439453 L 77.179688 78.512695 L 77.847656 78.56543 L 78.515625 78.594727 L 79.186523 78.603516 L 79.857422 78.591797 L 80.52832 78.556641 L 81.202148 78.498047 L 81.873047 78.418945 L 82.549805 78.316406 L 83.223633 78.193359 L 83.900391 78.046875 L 84.577148 77.879883 L 85.256836 77.686523 L 85.936523 77.475586 L 86.616211 77.238281 L 87.298828 76.980469 L 87.984375 76.699219 L 88.669922 76.394531 L 89.355469 76.069336 L 90.043945 75.720703 L 90.732422 75.345703 L 91.423828 74.953125 L 92.115234 74.53418 L 92.80957 74.091797 L 93.503906 73.625977 L 94.201172 73.136719 L 94.901367 72.626953 L 95.601562 72.09082 L 96.304688 71.53125 L 97.010742 70.948242 L 97.716797 70.341797 L 98.422852 69.711914 L 99.134766 69.055664 L 99.84668 68.375977 L 100.561523 67.672852 L 101.276367 66.946289 L 101.994141 66.193359 L 102.714844 65.416992 L 103.438477 64.614258 L 104.165039 63.785156 L 104.891602 62.932617 L 105.621094 62.056641 L 106.353516 61.154297 L 107.088867 60.225586 L 107.827148 59.270508 " transform="matrix(1.333333,0,0,1.333333,-0.000000000000014211,-0.000000000000014211)"/>
<path style="fill:none;stroke-width:1.5;stroke-linecap:butt;stroke-linejoin:round;stroke:rgb(12.156863%,46.666667%,70.588237%);stroke-opacity:1;stroke-miterlimit:4;" d="M 44.015625 36.547852 L 44.689453 37.831055 L 45.360352 39.09082 L 46.03125 40.327148 L 46.702148 41.540039 L 47.370117 42.732422 L 48.038086 43.898438 L 48.706055 45.043945 L 49.374023 46.163086 L 50.039062 47.261719 L 50.704102 48.339844 L 51.366211 49.391602 L 52.03125 50.422852 L 52.693359 51.430664 L 53.355469 52.417969 L 54.014648 53.378906 L 54.676758 54.322266 L 55.335938 55.239258 L 55.995117 56.135742 L 56.654297 57.011719 L 57.313477 57.864258 L 57.972656 58.693359 L 58.628906 59.501953 L 59.288086 60.287109 L 59.944336 61.051758 L 60.600586 61.795898 L 61.256836 62.516602 L 61.913086 63.213867 L 62.569336 63.890625 L 63.225586 64.546875 L 63.881836 65.179688 L 64.538086 65.791992 L 65.194336 66.383789 L 65.850586 66.952148 L 66.506836 67.49707 L 67.163086 68.024414 L 67.816406 68.525391 L 68.472656 69.008789 L 69.128906 69.46875 L 69.785156 69.908203 L 70.444336 70.327148 L 71.100586 70.722656 L 71.756836 71.094727 L 72.413086 71.449219 L 73.072266 71.780273 L 73.731445 72.087891 L 74.390625 72.37793 L 75.046875 72.644531 L 75.708984 72.887695 L 76.368164 73.113281 L 77.027344 73.3125 L 77.689453 73.494141 L 78.351562 73.652344 L 79.013672 73.787109 L 79.678711 73.904297 L 80.34082 73.995117 L 81.005859 74.068359 L 81.670898 74.118164 L 82.338867 74.144531 L 83.006836 74.150391 L 83.674805 74.135742 L 84.342773 74.097656 L 85.013672 74.036133 L 85.68457 73.954102 L 86.355469 73.851562 L 87.029297 73.725586 L 87.703125 73.576172 L 88.379883 73.40625 L 89.056641 73.212891 L 89.736328 72.999023 L 90.413086 72.761719 L 91.095703 72.500977 L 91.77832 72.216797 L 92.460938 71.912109 L 93.146484 71.583984 L 93.832031 71.232422 L 94.520508 70.860352 L 95.208984 70.461914 L 95.900391 70.042969 L 96.591797 69.600586 L 97.286133 69.134766 L 97.983398 68.645508 L 98.680664 68.132812 L 99.380859 67.59668 L 100.083984 67.03418 L 100.787109 66.451172 L 101.490234 65.844727 L 102.199219 65.211914 L 102.908203 64.558594 L 103.620117 63.878906 L 104.332031 63.175781 L 105.049805 62.446289 L 105.767578 61.693359 L 106.488281 60.916992 L 107.208984 60.114258 L 107.935547 59.288086 L 108.662109 58.435547 L 109.391602 57.55957 L 110.124023 56.657227 L 110.856445 55.728516 L 111.594727 54.773438 " transform="matrix(1.333333,0,0,1.333333,-0.000000000000014211,-0.000000000000014211)"/>
<path style="fill:none;stroke-width:1.5;stroke-linecap:butt;stroke-linejoin:round;stroke:rgb(12.156863%,46.666667%,70.588237%);stroke-opacity:1;stroke-miterlimit:4;" d="M 48.079102 34.669922 L 48.744141 35.941406 L 49.40918 37.192383 L 50.071289 38.419922 L 50.736328 39.624023 L 51.398438 40.804688 L 52.057617 41.961914 L 52.719727 43.095703 L 53.378906 44.208984 L 54.038086 45.298828 L 54.694336 46.365234 L 55.353516 47.411133 L 56.009766 48.433594 L 56.666016 49.432617 L 57.319336 50.411133 L 57.975586 51.366211 L 58.628906 52.300781 L 59.285156 53.211914 L 59.938477 54.099609 L 60.591797 54.966797 L 61.245117 55.813477 L 61.895508 56.636719 L 62.548828 57.436523 L 63.199219 58.21582 L 63.852539 58.974609 L 64.50293 59.709961 L 65.15332 60.424805 L 65.803711 61.119141 L 66.457031 61.790039 L 67.107422 62.4375 L 67.757812 63.067383 L 68.408203 63.673828 L 69.058594 64.256836 L 69.708984 64.822266 L 70.359375 65.364258 L 71.012695 65.882812 L 71.663086 66.383789 L 72.313477 66.861328 L 72.963867 67.31543 L 73.617188 67.751953 L 74.270508 68.165039 L 74.920898 68.554688 L 75.574219 68.926758 L 76.227539 69.275391 L 76.880859 69.603516 L 77.53418 69.908203 L 78.1875 70.192383 L 78.84375 70.456055 L 79.5 70.699219 L 80.15625 70.918945 L 80.8125 71.118164 L 81.46875 71.296875 L 82.12793 71.452148 L 82.787109 71.586914 L 83.446289 71.698242 L 84.105469 71.789062 L 84.767578 71.859375 L 85.429688 71.90625 L 86.091797 71.932617 L 86.756836 71.938477 L 87.418945 71.920898 L 88.086914 71.882812 L 88.751953 71.821289 L 89.419922 71.739258 L 90.09082 71.633789 L 90.758789 71.507812 L 91.429688 71.358398 L 92.103516 71.188477 L 92.777344 70.995117 L 93.451172 70.78125 L 94.12793 70.543945 L 94.807617 70.283203 L 95.484375 70.001953 L 96.166992 69.697266 L 96.849609 69.369141 L 97.532227 69.017578 L 98.217773 68.645508 L 98.90332 68.25 L 99.591797 67.833984 L 100.283203 67.391602 L 100.974609 66.928711 L 101.668945 66.439453 L 102.363281 65.929688 L 103.060547 65.396484 L 103.760742 64.839844 L 104.460938 64.259766 L 105.164062 63.65332 L 105.870117 63.026367 L 106.576172 62.373047 L 107.285156 61.699219 L 107.99707 60.999023 L 108.711914 60.272461 L 109.426758 59.525391 L 110.144531 58.751953 L 110.865234 57.955078 L 111.588867 57.131836 L 112.31543 56.285156 L 113.041992 55.412109 L 113.771484 54.515625 L 114.503906 53.592773 L 115.242188 52.646484 " transform="matrix(1.333333,0,0,1.333333,-0.000000000000014211,-0.000000000000014211)"/>
<path style="fill:none;stroke-width:1.5;stroke-linecap:butt;stroke-linejoin:round;stroke:rgb(12.156863%,46.666667%,70.588237%);stroke-opacity:1;stroke-miterlimit:4;" d="M 52.113281 35.030273 L 52.769531 36.290039 L 53.425781 37.526367 L 54.082031 38.742188 L 54.738281 39.931641 L 55.391602 41.100586 L 56.044922 42.246094 L 56.698242 43.371094 L 57.348633 44.472656 L 57.999023 45.550781 L 58.649414 46.605469 L 59.299805 47.639648 L 59.950195 48.65332 L 60.597656 49.643555 L 61.245117 50.610352 L 61.895508 51.556641 L 62.542969 52.479492 L 63.1875 53.381836 L 63.834961 54.260742 L 64.482422 55.119141 L 65.126953 55.957031 L 65.771484 56.771484 L 66.418945 57.56543 L 67.063477 58.335938 L 67.708008 59.088867 L 68.352539 59.81543 L 68.99707 60.524414 L 69.641602 61.209961 L 70.286133 61.87207 L 70.930664 62.516602 L 71.575195 63.137695 L 72.219727 63.738281 L 72.864258 64.318359 L 73.508789 64.875 L 74.15332 65.411133 L 74.800781 65.926758 L 75.445312 66.418945 L 76.089844 66.893555 L 76.737305 67.344727 L 77.381836 67.775391 L 78.029297 68.182617 L 78.676758 68.572266 L 79.321289 68.938477 L 79.96875 69.28418 L 80.619141 69.609375 L 81.266602 69.911133 L 81.916992 70.192383 L 82.564453 70.453125 L 83.214844 70.693359 L 83.868164 70.910156 L 84.518555 71.109375 L 85.171875 71.285156 L 85.825195 71.4375 L 86.478516 71.572266 L 87.131836 71.683594 L 87.788086 71.774414 L 88.444336 71.841797 L 89.100586 71.888672 L 89.759766 71.915039 L 90.418945 71.920898 L 91.078125 71.90332 L 91.740234 71.865234 L 92.402344 71.803711 L 93.064453 71.72168 L 93.729492 71.619141 L 94.394531 71.493164 L 95.0625 71.34668 L 95.730469 71.176758 L 96.401367 70.986328 L 97.072266 70.772461 L 97.743164 70.538086 L 98.416992 70.280273 L 99.09375 70.001953 L 99.770508 69.700195 L 100.447266 69.37793 L 101.126953 69.029297 L 101.80957 68.663086 L 102.492188 68.270508 L 103.174805 67.857422 L 103.863281 67.420898 L 104.548828 66.960938 L 105.240234 66.477539 L 105.931641 65.973633 L 106.625977 65.446289 L 107.320312 64.895508 L 108.017578 64.318359 L 108.717773 63.720703 L 109.420898 63.099609 L 110.124023 62.455078 L 110.830078 61.787109 L 111.536133 61.092773 L 112.248047 60.37793 L 112.959961 59.636719 L 113.674805 58.87207 L 114.392578 58.083984 L 115.113281 57.269531 L 115.833984 56.431641 L 116.557617 55.570312 L 117.287109 54.682617 L 118.016602 53.768555 L 118.749023 52.831055 " transform="matrix(1.333333,0,0,1.333333,-0.000000000000014211,-0.000000000000014211)"/>
<path style="fill:none;stroke-width:1.5;stroke-linecap:butt;stroke-linejoin:round;stroke:rgb(12.156863%,46.666667%,70.588237%);stroke-opacity:1;stroke-miterlimit:4;" d="M 56.100586 37.558594 L 56.750977 38.803711 L 57.398438 40.025391 L 58.042969 41.223633 L 58.69043 42.401367 L 59.334961 43.555664 L 59.979492 44.686523 L 60.624023 45.796875 L 61.265625 46.883789 L 61.907227 47.950195 L 62.551758 48.993164 L 63.193359 50.015625 L 63.832031 51.014648 L 64.473633 51.993164 L 65.112305 52.948242 L 65.753906 53.882812 L 66.392578 54.793945 L 67.03125 55.6875 L 67.669922 56.557617 L 68.308594 57.404297 L 68.947266 58.230469 L 69.583008 59.036133 L 70.22168 59.821289 L 70.860352 60.583008 L 71.496094 61.324219 L 72.134766 62.044922 L 72.770508 62.745117 L 73.40918 63.421875 L 74.044922 64.078125 L 74.683594 64.713867 L 75.319336 65.329102 L 75.958008 65.920898 L 76.59668 66.495117 L 77.232422 67.045898 L 77.871094 67.576172 L 78.509766 68.085938 L 79.148438 68.575195 L 79.787109 69.041016 L 80.425781 69.489258 L 81.064453 69.914062 L 81.706055 70.318359 L 82.344727 70.705078 L 82.986328 71.06543 L 83.62793 71.408203 L 84.269531 71.730469 L 84.911133 72.029297 L 85.552734 72.310547 L 86.197266 72.568359 L 86.841797 72.805664 L 87.486328 73.022461 L 88.130859 73.21875 L 88.77832 73.391602 L 89.425781 73.543945 L 90.073242 73.678711 L 90.720703 73.790039 L 91.371094 73.880859 L 92.021484 73.948242 L 92.671875 73.998047 L 93.325195 74.024414 L 93.978516 74.030273 L 94.634766 74.012695 L 95.288086 73.977539 L 95.947266 73.918945 L 96.603516 73.839844 L 97.262695 73.737305 L 97.921875 73.617188 L 98.583984 73.470703 L 99.246094 73.306641 L 99.911133 73.119141 L 100.576172 72.911133 L 101.244141 72.679688 L 101.912109 72.427734 L 102.583008 72.152344 L 103.253906 71.856445 L 103.927734 71.540039 L 104.601562 71.200195 L 105.27832 70.836914 L 105.955078 70.453125 L 106.634766 70.045898 L 107.317383 69.615234 L 108 69.164062 L 108.685547 68.689453 L 109.371094 68.194336 L 110.05957 67.672852 L 110.750977 67.130859 L 111.445312 66.56543 L 112.139648 65.976562 L 112.836914 65.364258 L 113.53418 64.731445 L 114.234375 64.072266 L 114.9375 63.389648 L 115.643555 62.686523 L 116.352539 61.957031 L 117.061523 61.204102 L 117.776367 60.427734 L 118.491211 59.62793 L 119.208984 58.801758 L 119.926758 57.952148 L 120.650391 57.079102 L 121.376953 56.179688 L 122.103516 55.256836 " transform="matrix(1.333333,0,0,1.333333,-0.000000000000014211,-0.000000000000014211)"/>
<path style="fill:none;stroke-width:1.5;stroke-linecap:butt;stroke-linejoin:round;stroke:rgb(12.156863%,46.666667%,70.588237%);stroke-opacity:1;stroke-miterlimit:4;" d="M 60.026367 42.169922 L 60.665039 43.394531 L 61.300781 44.598633 L 61.939453 45.782227 L 62.575195 46.942383 L 63.210938 48.079102 L 63.84375 49.195312 L 64.479492 50.288086 L 65.112305 51.360352 L 65.745117 52.40918 L 66.37793 53.44043 L 67.010742 54.445312 L 67.640625 55.432617 L 68.273438 56.396484 L 68.90332 57.339844 L 69.536133 58.259766 L 70.166016 59.15918 L 70.795898 60.041016 L 71.425781 60.896484 L 72.055664 61.734375 L 72.685547 62.548828 L 73.3125 63.342773 L 73.942383 64.119141 L 74.572266 64.869141 L 75.202148 65.601562 L 75.829102 66.313477 L 76.458984 67.001953 L 77.088867 67.672852 L 77.71582 68.320312 L 78.345703 68.947266 L 78.975586 69.553711 L 79.605469 70.139648 L 80.235352 70.708008 L 80.865234 71.25 L 81.495117 71.774414 L 82.125 72.27832 L 82.754883 72.761719 L 83.387695 73.224609 L 84.017578 73.666992 L 84.650391 74.088867 L 85.283203 74.487305 L 85.916016 74.868164 L 86.548828 75.228516 L 87.181641 75.56543 L 87.817383 75.884766 L 88.453125 76.183594 L 89.088867 76.458984 L 89.724609 76.716797 L 90.360352 76.951172 L 90.999023 77.167969 L 91.637695 77.361328 L 92.276367 77.537109 L 92.917969 77.689453 L 93.556641 77.821289 L 94.198242 77.932617 L 94.842773 78.026367 L 95.487305 78.09668 L 96.131836 78.146484 L 96.776367 78.172852 L 97.423828 78.181641 L 98.071289 78.169922 L 98.71875 78.134766 L 99.369141 78.079102 L 100.022461 78.005859 L 100.672852 77.90918 L 101.329102 77.789062 L 101.982422 77.651367 L 102.638672 77.490234 L 103.297852 77.308594 L 103.957031 77.106445 L 104.616211 76.880859 L 105.27832 76.634766 L 105.943359 76.368164 L 106.608398 76.081055 L 107.273438 75.770508 L 107.941406 75.436523 L 108.612305 75.084961 L 109.283203 74.707031 L 109.957031 74.311523 L 110.633789 73.889648 L 111.310547 73.450195 L 111.990234 72.984375 L 112.669922 72.498047 L 113.352539 71.991211 L 114.038086 71.460938 L 114.723633 70.907227 L 115.412109 70.330078 L 116.103516 69.732422 L 116.797852 69.111328 L 117.492188 68.466797 L 118.189453 67.798828 L 118.889648 67.107422 L 119.589844 66.395508 L 120.295898 65.657227 L 121.001953 64.895508 L 121.710938 64.113281 L 122.422852 63.304688 L 123.137695 62.472656 L 123.852539 61.617188 L 124.573242 60.735352 L 125.293945 59.833008 " transform="matrix(1.333333,0,0,1.333333,-0.000000000000014211,-0.000000000000014211)"/>
<path style="fill:none;stroke-width:1.5;stroke-linecap:butt;stroke-linejoin:round;stroke:rgb(12.156863%,46.666667%,70.588237%);stroke-opacity:1;stroke-miterlimit:4;" d="M 63.870117 48.758789 L 64.49707 49.962891 L 65.124023 51.146484 L 65.750977 52.30957 L 66.375 53.449219 L 66.999023 54.568359 L 67.625977 55.666992 L 68.25 56.742188 L 68.871094 57.796875 L 69.495117 58.831055 L 70.116211 59.844727 L 70.740234 60.834961 L 71.361328 61.804688 L 71.982422 62.753906 L 72.603516 63.682617 L 73.224609 64.587891 L 73.845703 65.475586 L 74.466797 66.339844 L 75.087891 67.186523 L 75.706055 68.009766 L 76.327148 68.8125 L 76.945312 69.594727 L 77.566406 70.356445 L 78.1875 71.097656 L 78.805664 71.821289 L 79.426758 72.521484 L 80.044922 73.201172 L 80.666016 73.860352 L 81.287109 74.499023 L 81.905273 75.117188 L 82.526367 75.717773 L 83.147461 76.294922 L 83.768555 76.854492 L 84.389648 77.390625 L 85.010742 77.90918 L 85.634766 78.407227 L 86.255859 78.881836 L 86.876953 79.338867 L 87.500977 79.775391 L 88.125 80.194336 L 88.749023 80.589844 L 89.373047 80.964844 L 90 81.322266 L 90.624023 81.65625 L 91.250977 81.972656 L 91.87793 82.268555 L 92.504883 82.543945 L 93.131836 82.798828 L 93.761719 83.033203 L 94.391602 83.24707 L 95.021484 83.443359 L 95.654297 83.616211 L 96.287109 83.771484 L 96.919922 83.90332 L 97.552734 84.017578 L 98.188477 84.111328 L 98.824219 84.181641 L 99.459961 84.234375 L 100.098633 84.266602 L 100.737305 84.27832 L 101.378906 84.269531 L 102.020508 84.240234 L 102.662109 84.1875 L 103.306641 84.117188 L 103.951172 84.026367 L 104.598633 83.915039 L 105.246094 83.780273 L 105.893555 83.62793 L 106.543945 83.452148 L 107.197266 83.258789 L 107.850586 83.041992 L 108.503906 82.804688 L 109.160156 82.546875 L 109.819336 82.265625 L 110.478516 81.963867 L 111.140625 81.644531 L 111.802734 81.298828 L 112.467773 80.935547 L 113.132812 80.548828 L 113.800781 80.141602 L 114.47168 79.710938 L 115.142578 79.262695 L 115.816406 78.788086 L 116.493164 78.292969 L 117.169922 77.777344 L 117.849609 77.238281 L 118.529297 76.678711 L 119.214844 76.095703 L 119.900391 75.489258 L 120.588867 74.862305 L 121.277344 74.211914 L 121.97168 73.538086 L 122.666016 72.84375 L 123.363281 72.123047 L 124.063477 71.381836 L 124.763672 70.617188 L 125.469727 69.829102 L 126.175781 69.017578 L 126.884766 68.182617 L 127.59668 67.324219 L 128.311523 66.442383 " transform="matrix(1.333333,0,0,1.333333,-0.000000000000014211,-0.000000000000014211)"/>
</g>
</svg>
