<?xml version="1.0" encoding="UTF-8"?>
<svg xmlns="http://www.w3.org/2000/svg" xmlns:xlink="http://www.w3.org/1999/xlink" width="312.85439" height="240.875" viewBox="0 0 312.85439 240.875" version="1.1">
<g id="surface1">
<path style=" stroke:none;fill-rule:nonzero;fill:rgb(100%,100%,100%);fill-opacity:1;" d="M 40.136719 190.800781 L 300.539062 190.800781 L 300.539062 9.601562 L 40.136719 9.601562 Z M 40.136719 190.800781 "/>
<path style="fill:none;stroke-width:0.8;stroke-linecap:butt;stroke-linejoin:round;stroke:rgb(0%,0%,0%);stroke-opacity:1;stroke-miterlimit:4;" d="M -0.000904083 0.000579834 L -0.000904083 3.498627 " transform="matrix(1.333333,0,0,1.333333,51.973862,190.800008)"/>
<path style=" stroke:none;fill-rule:nonzero;fill:rgb(0%,0%,0%);fill-opacity:1;" d="M 51.96875 201.410156 C 51.292969 201.410156 50.785156 201.742188 50.441406 202.410156 C 50.101562 203.074219 49.933594 204.078125 49.933594 205.414062 C 49.933594 206.746094 50.101562 207.746094 50.441406 208.414062 C 50.785156 209.078125 51.292969 209.414062 51.96875 209.414062 C 52.652344 209.414062 53.164062 209.078125 53.503906 208.414062 C 53.84375 207.746094 54.015625 206.746094 54.015625 205.414062 C 54.015625 204.078125 53.84375 203.074219 53.503906 202.410156 C 53.164062 201.742188 52.652344 201.410156 51.96875 201.410156 Z M 51.96875 200.367188 C 53.058594 200.367188 53.894531 200.800781 54.46875 201.664062 C 55.042969 202.523438 55.332031 203.773438 55.332031 205.414062 C 55.332031 207.050781 55.042969 208.300781 54.46875 209.164062 C 53.894531 210.023438 53.058594 210.453125 51.96875 210.453125 C 50.878906 210.453125 50.050781 210.023438 49.472656 209.164062 C 48.898438 208.300781 48.613281 207.050781 48.613281 205.414062 C 48.613281 203.773438 48.898438 202.523438 49.472656 201.664062 C 50.050781 200.800781 50.878906 200.367188 51.96875 200.367188 Z M 51.96875 200.367188 "/>
<path style="fill:none;stroke-width:0.8;stroke-linecap:butt;stroke-linejoin:round;stroke:rgb(0%,0%,0%);stroke-opacity:1;stroke-miterlimit:4;" d="M -0.000968933 0.000579834 L -0.000968933 3.498627 " transform="matrix(1.333333,0,0,1.333333,112.673167,190.800008)"/>
<path style=" stroke:none;fill-rule:nonzero;fill:rgb(0%,0%,0%);fill-opacity:1;" d="M 105.84375 209.160156 L 107.992188 209.160156 L 107.992188 201.742188 L 105.65625 202.210938 L 105.65625 201.011719 L 107.980469 200.542969 L 109.292969 200.542969 L 109.292969 209.160156 L 111.441406 209.160156 L 111.441406 210.265625 L 105.84375 210.265625 Z M 105.84375 209.160156 "/>
<path style=" stroke:none;fill-rule:nonzero;fill:rgb(0%,0%,0%);fill-opacity:1;" d="M 116.910156 201.410156 C 116.234375 201.410156 115.726562 201.742188 115.382812 202.410156 C 115.042969 203.074219 114.871094 204.078125 114.871094 205.414062 C 114.871094 206.746094 115.042969 207.746094 115.382812 208.414062 C 115.726562 209.078125 116.234375 209.414062 116.910156 209.414062 C 117.59375 209.414062 118.101562 209.078125 118.445312 208.414062 C 118.785156 207.746094 118.957031 206.746094 118.957031 205.414062 C 118.957031 204.078125 118.785156 203.074219 118.445312 202.410156 C 118.101562 201.742188 117.59375 201.410156 116.910156 201.410156 Z M 116.910156 200.367188 C 118 200.367188 118.832031 200.800781 119.410156 201.664062 C 119.984375 202.523438 120.269531 203.773438 120.269531 205.414062 C 120.269531 207.050781 119.984375 208.300781 119.410156 209.164062 C 118.832031 210.023438 118 210.453125 116.910156 210.453125 C 115.820312 210.453125 114.988281 210.023438 114.414062 209.164062 C 113.839844 208.300781 113.550781 207.050781 113.550781 205.414062 C 113.550781 203.773438 113.839844 202.523438 114.414062 201.664062 C 114.988281 200.800781 115.820312 200.367188 116.910156 200.367188 Z M 116.910156 200.367188 "/>
<path style="fill:none;stroke-width:0.8;stroke-linecap:butt;stroke-linejoin:round;stroke:rgb(0%,0%,0%);stroke-opacity:1;stroke-miterlimit:4;" d="M -0.00102234 0.000579834 L -0.00102234 3.498627 " transform="matrix(1.333333,0,0,1.333333,173.372457,190.800008)"/>
<path style=" stroke:none;fill-rule:nonzero;fill:rgb(0%,0%,0%);fill-opacity:1;" d="M 167.449219 209.160156 L 172.035156 209.160156 L 172.035156 210.265625 L 165.867188 210.265625 L 165.867188 209.160156 C 166.363281 208.640625 167.042969 207.949219 167.90625 207.078125 C 168.769531 206.207031 169.308594 205.648438 169.53125 205.394531 C 169.953125 204.921875 170.246094 204.523438 170.410156 204.195312 C 170.582031 203.867188 170.664062 203.542969 170.664062 203.226562 C 170.664062 202.710938 170.484375 202.289062 170.121094 201.964844 C 169.757812 201.636719 169.285156 201.476562 168.703125 201.476562 C 168.292969 201.476562 167.855469 201.546875 167.398438 201.691406 C 166.941406 201.832031 166.453125 202.050781 165.929688 202.339844 L 165.929688 201.011719 C 166.460938 200.800781 166.953125 200.640625 167.414062 200.53125 C 167.875 200.421875 168.296875 200.367188 168.679688 200.367188 C 169.6875 200.367188 170.488281 200.621094 171.085938 201.125 C 171.6875 201.628906 171.984375 202.300781 171.984375 203.140625 C 171.984375 203.542969 171.910156 203.921875 171.761719 204.277344 C 171.613281 204.636719 171.339844 205.058594 170.941406 205.542969 C 170.835938 205.671875 170.488281 206.035156 169.90625 206.636719 C 169.328125 207.238281 168.507812 208.078125 167.449219 209.160156 Z M 167.449219 209.160156 "/>
<path style=" stroke:none;fill-rule:nonzero;fill:rgb(0%,0%,0%);fill-opacity:1;" d="M 177.609375 201.410156 C 176.933594 201.410156 176.425781 201.742188 176.082031 202.410156 C 175.742188 203.074219 175.570312 204.078125 175.570312 205.414062 C 175.570312 206.746094 175.742188 207.746094 176.082031 208.414062 C 176.425781 209.078125 176.933594 209.414062 177.609375 209.414062 C 178.292969 209.414062 178.804688 209.078125 179.144531 208.414062 C 179.484375 207.746094 179.65625 206.746094 179.65625 205.414062 C 179.65625 204.078125 179.484375 203.074219 179.144531 202.410156 C 178.804688 201.742188 178.292969 201.410156 177.609375 201.410156 Z M 177.609375 200.367188 C 178.699219 200.367188 179.53125 200.800781 180.109375 201.664062 C 180.683594 202.523438 180.96875 203.773438 180.96875 205.414062 C 180.96875 207.050781 180.683594 208.300781 180.109375 209.164062 C 179.53125 210.023438 178.699219 210.453125 177.609375 210.453125 C 176.519531 210.453125 175.6875 210.023438 175.113281 209.164062 C 174.539062 208.300781 174.25 207.050781 174.25 205.414062 C 174.25 203.773438 174.539062 202.523438 175.113281 201.664062 C 175.6875 200.800781 176.519531 200.367188 177.609375 200.367188 Z M 177.609375 200.367188 "/>
<path style="fill:none;stroke-width:0.8;stroke-linecap:butt;stroke-linejoin:round;stroke:rgb(0%,0%,0%);stroke-opacity:1;stroke-miterlimit:4;" d="M -0.00108337 0.000579834 L -0.00108337 3.498627 " transform="matrix(1.333333,0,0,1.333333,234.071757,190.800008)"/>
<path style=" stroke:none;fill-rule:nonzero;fill:rgb(0%,0%,0%);fill-opacity:1;" d="M 231 205.023438 C 231.628906 205.15625 232.117188 205.4375 232.472656 205.863281 C 232.824219 206.289062 233.003906 206.816406 233.003906 207.441406 C 233.003906 208.398438 232.671875 209.140625 232.011719 209.667969 C 231.355469 210.191406 230.417969 210.453125 229.199219 210.453125 C 228.792969 210.453125 228.375 210.414062 227.941406 210.332031 C 227.511719 210.253906 227.066406 210.132812 226.605469 209.972656 L 226.605469 208.703125 C 226.96875 208.914062 227.367188 209.074219 227.800781 209.183594 C 228.234375 209.292969 228.691406 209.347656 229.164062 209.347656 C 229.988281 209.347656 230.613281 209.183594 231.046875 208.859375 C 231.480469 208.535156 231.695312 208.058594 231.695312 207.441406 C 231.695312 206.867188 231.492188 206.417969 231.09375 206.097656 C 230.691406 205.773438 230.132812 205.609375 229.417969 205.609375 L 228.285156 205.609375 L 228.285156 204.527344 L 229.46875 204.527344 C 230.117188 204.527344 230.609375 204.398438 230.953125 204.140625 C 231.296875 203.882812 231.46875 203.511719 231.46875 203.023438 C 231.46875 202.527344 231.289062 202.144531 230.9375 201.878906 C 230.582031 201.609375 230.078125 201.476562 229.417969 201.476562 C 229.054688 201.476562 228.667969 201.515625 228.257812 201.59375 C 227.84375 201.671875 227.390625 201.792969 226.898438 201.957031 L 226.898438 200.785156 C 227.398438 200.648438 227.863281 200.542969 228.300781 200.472656 C 228.738281 200.402344 229.148438 200.367188 229.535156 200.367188 C 230.53125 200.367188 231.324219 200.597656 231.902344 201.050781 C 232.484375 201.503906 232.777344 202.117188 232.777344 202.886719 C 232.777344 203.425781 232.621094 203.882812 232.3125 204.253906 C 232.003906 204.621094 231.566406 204.878906 231 205.023438 Z M 231 205.023438 "/>
<path style=" stroke:none;fill-rule:nonzero;fill:rgb(0%,0%,0%);fill-opacity:1;" d="M 238.308594 201.410156 C 237.632812 201.410156 237.125 201.742188 236.78125 202.410156 C 236.441406 203.074219 236.273438 204.078125 236.273438 205.414062 C 236.273438 206.746094 236.441406 207.746094 236.78125 208.414062 C 237.125 209.078125 237.632812 209.414062 238.308594 209.414062 C 238.992188 209.414062 239.503906 209.078125 239.84375 208.414062 C 240.183594 207.746094 240.355469 206.746094 240.355469 205.414062 C 240.355469 204.078125 240.183594 203.074219 239.84375 202.410156 C 239.503906 201.742188 238.992188 201.410156 238.308594 201.410156 Z M 238.308594 200.367188 C 239.398438 200.367188 240.230469 200.800781 240.808594 201.664062 C 241.382812 202.523438 241.667969 203.773438 241.667969 205.414062 C 241.667969 207.050781 241.382812 208.300781 240.808594 209.164062 C 240.230469 210.023438 239.398438 210.453125 238.308594 210.453125 C 237.21875 210.453125 236.386719 210.023438 235.8125 209.164062 C 235.238281 208.300781 234.949219 207.050781 234.949219 205.414062 C 234.949219 203.773438 235.238281 202.523438 235.8125 201.664062 C 236.386719 200.800781 237.21875 200.367188 238.308594 200.367188 Z M 238.308594 200.367188 "/>
<path style="fill:none;stroke-width:0.8;stroke-linecap:butt;stroke-linejoin:round;stroke:rgb(0%,0%,0%);stroke-opacity:1;stroke-miterlimit:4;" d="M -0.00114441 0.000579834 L -0.00114441 3.498627 " transform="matrix(1.333333,0,0,1.333333,294.771057,190.800008)"/>
<path style=" stroke:none;fill-rule:nonzero;fill:rgb(0%,0%,0%);fill-opacity:1;" d="M 291.328125 201.691406 L 288.007812 206.878906 L 291.328125 206.878906 Z M 290.980469 200.542969 L 292.636719 200.542969 L 292.636719 206.878906 L 294.023438 206.878906 L 294.023438 207.972656 L 292.636719 207.972656 L 292.636719 210.265625 L 291.328125 210.265625 L 291.328125 207.972656 L 286.941406 207.972656 L 286.941406 206.703125 Z M 290.980469 200.542969 "/>
<path style=" stroke:none;fill-rule:nonzero;fill:rgb(0%,0%,0%);fill-opacity:1;" d="M 299.007812 201.410156 C 298.332031 201.410156 297.824219 201.742188 297.480469 202.410156 C 297.140625 203.074219 296.972656 204.078125 296.972656 205.414062 C 296.972656 206.746094 297.140625 207.746094 297.480469 208.414062 C 297.824219 209.078125 298.332031 209.414062 299.007812 209.414062 C 299.691406 209.414062 300.203125 209.078125 300.542969 208.414062 C 300.882812 207.746094 301.054688 206.746094 301.054688 205.414062 C 301.054688 204.078125 300.882812 203.074219 300.542969 202.410156 C 300.203125 201.742188 299.691406 201.410156 299.007812 201.410156 Z M 299.007812 200.367188 C 300.097656 200.367188 300.929688 200.800781 301.507812 201.664062 C 302.082031 202.523438 302.367188 203.773438 302.367188 205.414062 C 302.367188 207.050781 302.082031 208.300781 301.507812 209.164062 C 300.929688 210.023438 300.097656 210.453125 299.007812 210.453125 C 297.917969 210.453125 297.085938 210.023438 296.511719 209.164062 C 295.9375 208.300781 295.648438 207.050781 295.648438 205.414062 C 295.648438 203.773438 295.9375 202.523438 296.511719 201.664062 C 297.085938 200.800781 297.917969 200.367188 299.007812 200.367188 Z M 299.007812 200.367188 "/>
<path style=" stroke:none;fill-rule:nonzero;fill:rgb(0%,0%,0%);fill-opacity:1;" d="M 157.71875 219.140625 L 157.71875 221.210938 L 160.183594 221.210938 L 160.183594 222.140625 L 157.71875 222.140625 L 157.71875 226.101562 C 157.71875 226.695312 157.800781 227.078125 157.960938 227.246094 C 158.125 227.414062 158.457031 227.5 158.957031 227.5 L 160.183594 227.5 L 160.183594 228.503906 L 158.957031 228.503906 C 158.03125 228.503906 157.390625 228.328125 157.039062 227.984375 C 156.6875 227.640625 156.511719 227.011719 156.511719 226.101562 L 156.511719 222.140625 L 155.632812 222.140625 L 155.632812 221.210938 L 156.511719 221.210938 L 156.511719 219.140625 Z M 157.71875 219.140625 "/>
<path style=" stroke:none;fill-rule:nonzero;fill:rgb(0%,0%,0%);fill-opacity:1;" d="M 161.761719 221.210938 L 162.957031 221.210938 L 162.957031 228.503906 L 161.761719 228.503906 Z M 161.761719 218.371094 L 162.957031 218.371094 L 162.957031 219.890625 L 161.761719 219.890625 Z M 161.761719 218.371094 "/>
<path style=" stroke:none;fill-rule:nonzero;fill:rgb(0%,0%,0%);fill-opacity:1;" d="M 171.140625 222.609375 C 171.441406 222.070312 171.800781 221.675781 172.214844 221.417969 C 172.632812 221.164062 173.125 221.035156 173.6875 221.035156 C 174.445312 221.035156 175.035156 221.300781 175.445312 221.832031 C 175.859375 222.363281 176.066406 223.121094 176.066406 224.101562 L 176.066406 228.503906 L 174.859375 228.503906 L 174.859375 224.140625 C 174.859375 223.441406 174.734375 222.921875 174.488281 222.585938 C 174.242188 222.246094 173.863281 222.078125 173.355469 222.078125 C 172.734375 222.078125 172.246094 222.285156 171.882812 222.695312 C 171.523438 223.105469 171.34375 223.667969 171.34375 224.382812 L 171.34375 228.503906 L 170.140625 228.503906 L 170.140625 224.140625 C 170.140625 223.4375 170.015625 222.917969 169.769531 222.582031 C 169.523438 222.246094 169.140625 222.078125 168.621094 222.078125 C 168.011719 222.078125 167.523438 222.285156 167.164062 222.699219 C 166.804688 223.113281 166.621094 223.671875 166.621094 224.382812 L 166.621094 228.503906 L 165.417969 228.503906 L 165.417969 221.210938 L 166.621094 221.210938 L 166.621094 222.34375 C 166.898438 221.898438 167.222656 221.566406 167.605469 221.355469 C 167.988281 221.140625 168.441406 221.035156 168.964844 221.035156 C 169.496094 221.035156 169.949219 221.171875 170.320312 221.441406 C 170.691406 221.707031 170.964844 222.097656 171.140625 222.609375 Z M 171.140625 222.609375 "/>
<path style=" stroke:none;fill-rule:nonzero;fill:rgb(0%,0%,0%);fill-opacity:1;" d="M 184.691406 224.554688 L 184.691406 225.140625 L 179.183594 225.140625 C 179.234375 225.964844 179.484375 226.59375 179.929688 227.027344 C 180.371094 227.460938 180.992188 227.675781 181.785156 227.675781 C 182.246094 227.675781 182.691406 227.617188 183.125 227.507812 C 183.554688 227.394531 183.984375 227.222656 184.410156 226.996094 L 184.410156 228.132812 C 183.980469 228.3125 183.539062 228.453125 183.089844 228.546875 C 182.636719 228.644531 182.179688 228.691406 181.714844 228.691406 C 180.550781 228.691406 179.628906 228.351562 178.949219 227.675781 C 178.273438 227 177.933594 226.082031 177.933594 224.925781 C 177.933594 223.734375 178.253906 222.789062 178.898438 222.085938 C 179.542969 221.386719 180.414062 221.035156 181.507812 221.035156 C 182.488281 221.035156 183.261719 221.351562 183.835938 221.984375 C 184.40625 222.613281 184.691406 223.472656 184.691406 224.554688 Z M 183.492188 224.203125 C 183.484375 223.550781 183.300781 223.027344 182.941406 222.636719 C 182.585938 222.246094 182.109375 222.050781 181.519531 222.050781 C 180.851562 222.050781 180.316406 222.238281 179.914062 222.617188 C 179.515625 222.996094 179.28125 223.527344 179.222656 224.210938 Z M 183.492188 224.203125 "/>
<path style="fill:none;stroke-width:0.8;stroke-linecap:butt;stroke-linejoin:round;stroke:rgb(0%,0%,0%);stroke-opacity:1;stroke-miterlimit:4;" d="M -0.000585556 -0.000961304 L -3.498632 -0.000961304 " transform="matrix(1.333333,0,0,1.333333,40.137499,182.563782)"/>
<path style=" stroke:none;fill-rule:nonzero;fill:rgb(0%,0%,0%);fill-opacity:1;" d="M 13.835938 178.773438 C 13.160156 178.773438 12.652344 179.109375 12.308594 179.773438 C 11.96875 180.441406 11.800781 181.441406 11.800781 182.78125 C 11.800781 184.113281 11.96875 185.109375 12.308594 185.777344 C 12.652344 186.445312 13.160156 186.777344 13.835938 186.777344 C 14.519531 186.777344 15.03125 186.445312 15.371094 185.777344 C 15.710938 185.109375 15.882812 184.113281 15.882812 182.78125 C 15.882812 181.441406 15.710938 180.441406 15.371094 179.773438 C 15.03125 179.109375 14.519531 178.773438 13.835938 178.773438 Z M 13.835938 177.734375 C 14.929688 177.734375 15.761719 178.164062 16.335938 179.027344 C 16.910156 179.886719 17.199219 181.140625 17.199219 182.78125 C 17.199219 184.414062 16.910156 185.664062 16.335938 186.527344 C 15.761719 187.386719 14.929688 187.820312 13.835938 187.820312 C 12.75 187.820312 11.917969 187.386719 11.339844 186.527344 C 10.765625 185.664062 10.480469 184.414062 10.480469 182.78125 C 10.480469 181.140625 10.765625 179.886719 11.339844 179.027344 C 11.917969 178.164062 12.75 177.734375 13.835938 177.734375 Z M 13.835938 177.734375 "/>
<path style=" stroke:none;fill-rule:nonzero;fill:rgb(0%,0%,0%);fill-opacity:1;" d="M 19.507812 185.976562 L 20.882812 185.976562 L 20.882812 187.628906 L 19.507812 187.628906 Z M 19.507812 185.976562 "/>
<path style=" stroke:none;fill-rule:nonzero;fill:rgb(0%,0%,0%);fill-opacity:1;" d="M 26.558594 178.773438 C 25.882812 178.773438 25.375 179.109375 25.03125 179.773438 C 24.691406 180.441406 24.519531 181.441406 24.519531 182.78125 C 24.519531 184.113281 24.691406 185.109375 25.03125 185.777344 C 25.375 186.445312 25.882812 186.777344 26.558594 186.777344 C 27.242188 186.777344 27.75 186.445312 28.09375 185.777344 C 28.433594 185.109375 28.605469 184.113281 28.605469 182.78125 C 28.605469 181.441406 28.433594 180.441406 28.09375 179.773438 C 27.75 179.109375 27.242188 178.773438 26.558594 178.773438 Z M 26.558594 177.734375 C 27.648438 177.734375 28.480469 178.164062 29.058594 179.027344 C 29.632812 179.886719 29.917969 181.140625 29.917969 182.78125 C 29.917969 184.414062 29.632812 185.664062 29.058594 186.527344 C 28.480469 187.386719 27.648438 187.820312 26.558594 187.820312 C 25.46875 187.820312 24.636719 187.386719 24.0625 186.527344 C 23.488281 185.664062 23.199219 184.414062 23.199219 182.78125 C 23.199219 181.140625 23.488281 179.886719 24.0625 179.027344 C 24.636719 178.164062 25.46875 177.734375 26.558594 177.734375 Z M 26.558594 177.734375 "/>
<path style="fill:none;stroke-width:0.8;stroke-linecap:butt;stroke-linejoin:round;stroke:rgb(0%,0%,0%);stroke-opacity:1;stroke-miterlimit:4;" d="M -0.000585556 0.00120544 L -3.498632 0.00120544 " transform="matrix(1.333333,0,0,1.333333,40.137499,127.654643)"/>
<path style=" stroke:none;fill-rule:nonzero;fill:rgb(0%,0%,0%);fill-opacity:1;" d="M 13.835938 123.867188 C 13.160156 123.867188 12.652344 124.199219 12.308594 124.867188 C 11.96875 125.53125 11.800781 126.53125 11.800781 127.871094 C 11.800781 129.203125 11.96875 130.203125 12.308594 130.867188 C 12.652344 131.535156 13.160156 131.867188 13.835938 131.867188 C 14.519531 131.867188 15.03125 131.535156 15.371094 130.867188 C 15.710938 130.203125 15.882812 129.203125 15.882812 127.871094 C 15.882812 126.53125 15.710938 125.53125 15.371094 124.867188 C 15.03125 124.199219 14.519531 123.867188 13.835938 123.867188 Z M 13.835938 122.824219 C 14.929688 122.824219 15.761719 123.253906 16.335938 124.117188 C 16.910156 124.980469 17.199219 126.230469 17.199219 127.871094 C 17.199219 129.507812 16.910156 130.753906 16.335938 131.617188 C 15.761719 132.480469 14.929688 132.910156 13.835938 132.910156 C 12.75 132.910156 11.917969 132.480469 11.339844 131.617188 C 10.765625 130.753906 10.480469 129.507812 10.480469 127.871094 C 10.480469 126.230469 10.765625 124.980469 11.339844 124.117188 C 11.917969 123.253906 12.75 122.824219 13.835938 122.824219 Z M 13.835938 122.824219 "/>
<path style=" stroke:none;fill-rule:nonzero;fill:rgb(0%,0%,0%);fill-opacity:1;" d="M 19.507812 131.066406 L 20.882812 131.066406 L 20.882812 132.71875 L 19.507812 132.71875 Z M 19.507812 131.066406 "/>
<path style=" stroke:none;fill-rule:nonzero;fill:rgb(0%,0%,0%);fill-opacity:1;" d="M 23.976562 131.613281 L 26.125 131.613281 L 26.125 124.199219 L 23.785156 124.667969 L 23.785156 123.46875 L 26.109375 123 L 27.425781 123 L 27.425781 131.613281 L 29.574219 131.613281 L 29.574219 132.71875 L 23.976562 132.71875 Z M 23.976562 131.613281 "/>
<path style="fill:none;stroke-width:0.8;stroke-linecap:butt;stroke-linejoin:round;stroke:rgb(0%,0%,0%);stroke-opacity:1;stroke-miterlimit:4;" d="M -0.000585556 0.000442505 L -3.498632 0.000442505 " transform="matrix(1.333333,0,0,1.333333,40.137499,72.745504)"/>
<path style=" stroke:none;fill-rule:nonzero;fill:rgb(0%,0%,0%);fill-opacity:1;" d="M 13.835938 68.957031 C 13.160156 68.957031 12.652344 69.289062 12.308594 69.957031 C 11.96875 70.621094 11.800781 71.625 11.800781 72.960938 C 11.800781 74.292969 11.96875 75.292969 12.308594 75.960938 C 12.652344 76.625 13.160156 76.960938 13.835938 76.960938 C 14.519531 76.960938 15.03125 76.625 15.371094 75.960938 C 15.710938 75.292969 15.882812 74.292969 15.882812 72.960938 C 15.882812 71.625 15.710938 70.621094 15.371094 69.957031 C 15.03125 69.289062 14.519531 68.957031 13.835938 68.957031 Z M 13.835938 67.914062 C 14.929688 67.914062 15.761719 68.347656 16.335938 69.210938 C 16.910156 70.070312 17.199219 71.320312 17.199219 72.960938 C 17.199219 74.597656 16.910156 75.847656 16.335938 76.710938 C 15.761719 77.570312 14.929688 78 13.835938 78 C 12.75 78 11.917969 77.570312 11.339844 76.710938 C 10.765625 75.847656 10.480469 74.597656 10.480469 72.960938 C 10.480469 71.320312 10.765625 70.070312 11.339844 69.210938 C 11.917969 68.347656 12.75 67.914062 13.835938 67.914062 Z M 13.835938 67.914062 "/>
<path style=" stroke:none;fill-rule:nonzero;fill:rgb(0%,0%,0%);fill-opacity:1;" d="M 19.507812 76.15625 L 20.882812 76.15625 L 20.882812 77.8125 L 19.507812 77.8125 Z M 19.507812 76.15625 "/>
<path style=" stroke:none;fill-rule:nonzero;fill:rgb(0%,0%,0%);fill-opacity:1;" d="M 24.878906 76.703125 L 29.46875 76.703125 L 29.46875 77.8125 L 23.296875 77.8125 L 23.296875 76.703125 C 23.796875 76.1875 24.476562 75.496094 25.339844 74.625 C 26.199219 73.753906 26.742188 73.191406 26.964844 72.941406 C 27.382812 72.46875 27.675781 72.066406 27.84375 71.742188 C 28.011719 71.414062 28.097656 71.089844 28.097656 70.773438 C 28.097656 70.257812 27.914062 69.835938 27.550781 69.511719 C 27.191406 69.183594 26.71875 69.023438 26.136719 69.023438 C 25.722656 69.023438 25.289062 69.09375 24.828125 69.234375 C 24.371094 69.378906 23.882812 69.597656 23.363281 69.886719 L 23.363281 68.558594 C 23.890625 68.347656 24.386719 68.1875 24.847656 68.078125 C 25.308594 67.96875 25.730469 67.914062 26.109375 67.914062 C 27.117188 67.914062 27.921875 68.167969 28.519531 68.671875 C 29.117188 69.175781 29.417969 69.847656 29.417969 70.6875 C 29.417969 71.089844 29.34375 71.46875 29.191406 71.824219 C 29.042969 72.183594 28.769531 72.605469 28.375 73.089844 C 28.265625 73.214844 27.921875 73.582031 27.339844 74.183594 C 26.757812 74.785156 25.9375 75.625 24.878906 76.703125 Z M 24.878906 76.703125 "/>
<path style="fill:none;stroke-width:0.8;stroke-linecap:butt;stroke-linejoin:round;stroke:rgb(0%,0%,0%);stroke-opacity:1;stroke-miterlimit:4;" d="M -0.000585556 -0.000319481 L -3.498632 -0.000319481 " transform="matrix(1.333333,0,0,1.333333,40.137499,17.836363)"/>
<path style=" stroke:none;fill-rule:nonzero;fill:rgb(0%,0%,0%);fill-opacity:1;" d="M 13.835938 14.046875 C 13.160156 14.046875 12.652344 14.382812 12.308594 15.046875 C 11.96875 15.714844 11.800781 16.714844 11.800781 18.050781 C 11.800781 19.382812 11.96875 20.382812 12.308594 21.050781 C 12.652344 21.714844 13.160156 22.050781 13.835938 22.050781 C 14.519531 22.050781 15.03125 21.714844 15.371094 21.050781 C 15.710938 20.382812 15.882812 19.382812 15.882812 18.050781 C 15.882812 16.714844 15.710938 15.714844 15.371094 15.046875 C 15.03125 14.382812 14.519531 14.046875 13.835938 14.046875 Z M 13.835938 13.007812 C 14.929688 13.007812 15.761719 13.4375 16.335938 14.300781 C 16.910156 15.160156 17.199219 16.410156 17.199219 18.050781 C 17.199219 19.6875 16.910156 20.9375 16.335938 21.800781 C 15.761719 22.660156 14.929688 23.089844 13.835938 23.089844 C 12.75 23.089844 11.917969 22.660156 11.339844 21.800781 C 10.765625 20.9375 10.480469 19.6875 10.480469 18.050781 C 10.480469 16.410156 10.765625 15.160156 11.339844 14.300781 C 11.917969 13.4375 12.75 13.007812 13.835938 13.007812 Z M 13.835938 13.007812 "/>
<path style=" stroke:none;fill-rule:nonzero;fill:rgb(0%,0%,0%);fill-opacity:1;" d="M 19.507812 21.246094 L 20.882812 21.246094 L 20.882812 22.902344 L 19.507812 22.902344 Z M 19.507812 21.246094 "/>
<path style=" stroke:none;fill-rule:nonzero;fill:rgb(0%,0%,0%);fill-opacity:1;" d="M 27.730469 17.660156 C 28.359375 17.796875 28.851562 18.074219 29.203125 18.503906 C 29.558594 18.925781 29.734375 19.453125 29.734375 20.078125 C 29.734375 21.035156 29.40625 21.777344 28.746094 22.304688 C 28.085938 22.828125 27.148438 23.089844 25.933594 23.089844 C 25.527344 23.089844 25.109375 23.050781 24.675781 22.972656 C 24.242188 22.890625 23.796875 22.769531 23.339844 22.609375 L 23.339844 21.339844 C 23.703125 21.550781 24.101562 21.710938 24.535156 21.820312 C 24.96875 21.929688 25.421875 21.984375 25.894531 21.984375 C 26.71875 21.984375 27.347656 21.820312 27.78125 21.496094 C 28.210938 21.171875 28.425781 20.699219 28.425781 20.078125 C 28.425781 19.503906 28.226562 19.054688 27.824219 18.734375 C 27.425781 18.410156 26.867188 18.246094 26.152344 18.246094 L 25.015625 18.246094 L 25.015625 17.167969 L 26.203125 17.167969 C 26.847656 17.167969 27.34375 17.039062 27.6875 16.777344 C 28.027344 16.519531 28.199219 16.148438 28.199219 15.664062 C 28.199219 15.164062 28.023438 14.78125 27.667969 14.515625 C 27.316406 14.246094 26.808594 14.113281 26.152344 14.113281 C 25.789062 14.113281 25.402344 14.152344 24.988281 14.230469 C 24.578125 14.308594 24.125 14.429688 23.628906 14.59375 L 23.628906 13.421875 C 24.128906 13.285156 24.597656 13.179688 25.035156 13.109375 C 25.46875 13.039062 25.882812 13.007812 26.265625 13.007812 C 27.265625 13.007812 28.054688 13.234375 28.636719 13.6875 C 29.21875 14.140625 29.507812 14.753906 29.507812 15.523438 C 29.507812 16.0625 29.355469 16.519531 29.046875 16.890625 C 28.738281 17.261719 28.300781 17.515625 27.730469 17.660156 Z M 27.730469 17.660156 "/>
<path style="fill:none;stroke-width:1.5;stroke-linecap:square;stroke-linejoin:round;stroke:rgb(12.156863%,46.666667%,70.588237%);stroke-opacity:1;stroke-miterlimit:4;" d="M 38.979492 116.332031 L 43.532227 117.360352 L 48.084961 118.338867 L 52.637695 119.267578 L 57.19043 120.152344 L 61.743164 120.990234 L 66.295898 121.787109 L 70.848633 122.542969 L 75.401367 123.263672 L 79.951172 123.946289 L 84.503906 124.59375 L 89.056641 125.211914 L 93.609375 125.794922 L 98.162109 126.351562 L 102.714844 126.881836 L 107.267578 127.382812 L 111.820312 127.860352 L 116.373047 128.314453 L 120.925781 128.745117 L 125.475586 129.152344 L 130.02832 129.541992 L 134.581055 129.911133 L 139.133789 130.259766 L 143.686523 130.59375 L 148.239258 130.910156 L 152.791992 131.211914 L 157.344727 131.496094 L 161.897461 131.768555 L 166.450195 132.026367 L 171 132.269531 L 175.552734 132.503906 L 180.105469 132.723633 L 184.658203 132.93457 L 189.210938 133.133789 L 193.763672 133.324219 L 198.316406 133.50293 L 202.869141 133.672852 L 207.421875 133.836914 L 211.974609 133.992188 L 216.524414 134.138672 " transform="matrix(1.333333,0,0,1.333333,0,0)"/>
<path style="fill:none;stroke-width:1.5;stroke-linecap:square;stroke-linejoin:round;stroke:rgb(100%,49.803922%,5.490196%);stroke-opacity:1;stroke-miterlimit:4;" d="M 38.979492 95.742188 L 43.532227 99.858398 L 48.084961 103.564453 L 52.637695 106.901367 L 57.19043 109.904297 L 61.743164 112.605469 L 66.295898 115.037109 L 70.848633 117.225586 L 75.401367 119.194336 L 79.951172 120.966797 L 84.503906 122.563477 L 89.056641 123.999023 L 93.609375 125.291016 L 98.162109 126.454102 L 102.714844 127.50293 L 107.267578 128.443359 L 111.820312 129.292969 L 116.373047 130.054688 L 120.925781 130.740234 L 125.475586 131.358398 L 130.02832 131.915039 L 134.581055 132.416016 L 139.133789 132.867188 L 143.686523 133.271484 L 148.239258 133.637695 L 152.791992 133.96582 L 157.344727 134.261719 L 161.897461 134.52832 L 166.450195 134.768555 L 171 134.982422 L 175.552734 135.175781 L 180.105469 135.351562 L 184.658203 135.509766 L 189.210938 135.650391 L 193.763672 135.776367 L 198.316406 135.890625 L 202.869141 135.996094 L 207.421875 136.086914 L 211.974609 136.171875 L 216.524414 136.245117 " transform="matrix(1.333333,0,0,1.333333,0,0)"/>
<path style="fill:none;stroke-width:1.5;stroke-linecap:square;stroke-linejoin:round;stroke:rgb(17.254902%,62.7451%,17.254902%);stroke-opacity:1;stroke-miterlimit:4;" d="M 38.979492 54.55957 L 43.532227 71.033203 L 48.084961 84.210938 L 52.637695 94.751953 L 57.19043 103.186523 L 61.743164 109.933594 L 66.295898 115.333008 L 70.848633 119.651367 L 75.401367 123.105469 L 79.951172 125.868164 L 84.503906 128.080078 L 89.056641 129.84668 L 93.609375 131.261719 L 98.162109 132.395508 L 102.714844 133.300781 L 107.267578 134.024414 L 111.820312 134.604492 L 116.373047 135.067383 L 120.925781 135.439453 L 125.475586 135.735352 L 130.02832 135.972656 L 134.581055 136.163086 L 139.133789 136.31543 L 143.686523 136.435547 L 148.239258 136.535156 L 152.791992 136.611328 L 157.344727 136.672852 L 161.897461 136.722656 L 166.450195 136.763672 L 171 136.795898 L 175.552734 136.822266 L 184.658203 136.857422 L 189.210938 136.87207 L 198.316406 136.889648 L 207.421875 136.901367 L 211.974609 136.904297 L 216.524414 136.910156 " transform="matrix(1.333333,0,0,1.333333,0,0)"/>
<path style="fill:none;stroke-width:1.5;stroke-linecap:square;stroke-linejoin:round;stroke:rgb(83.92157%,15.294118%,15.686275%);stroke-opacity:1;stroke-miterlimit:4;" d="M 38.979492 13.376953 L 43.532227 50.44043 L 48.084961 76.385742 L 52.637695 94.546875 L 57.19043 107.258789 L 61.743164 116.15918 L 66.295898 122.387695 L 70.848633 126.74707 L 75.401367 129.799805 L 79.951172 131.938477 L 84.503906 133.432617 L 89.056641 134.478516 L 93.609375 135.213867 L 98.162109 135.726562 L 102.714844 136.083984 L 107.267578 136.335938 L 111.820312 136.511719 L 116.373047 136.634766 L 120.925781 136.722656 L 125.475586 136.78125 L 130.02832 136.825195 L 134.581055 136.854492 L 139.133789 136.875 L 143.686523 136.889648 L 152.791992 136.907227 L 157.344727 136.910156 L 161.897461 136.916016 L 166.450195 136.916016 L 171 136.918945 L 175.552734 136.918945 L 180.105469 136.921875 L 216.524414 136.921875 " transform="matrix(1.333333,0,0,1.333333,0,0)"/>
<path style="fill:none;stroke-width:0.8;stroke-linecap:square;stroke-linejoin:miter;stroke:rgb(0%,0%,0%);stroke-opacity:1;stroke-miterlimit:4;" d="M 30.102539 143.100586 L 30.102539 7.201172 " transform="matrix(1.333333,0,0,1.333333,0,0)"/>
<path style="fill:none;stroke-width:0.8;stroke-linecap:square;stroke-linejoin:miter;stroke:rgb(0%,0%,0%);stroke-opacity:1;stroke-miterlimit:4;" d="M 225.404297 143.100586 L 225.404297 7.201172 " transform="matrix(1.333333,0,0,1.333333,0,0)"/>
<path style="fill:none;stroke-width:0.8;stroke-linecap:square;stroke-linejoin:miter;stroke:rgb(0%,0%,0%);stroke-opacity:1;stroke-miterlimit:4;" d="M 30.102539 143.100586 L 225.404297 143.100586 " transform="matrix(1.333333,0,0,1.333333,0,0)"/>
<path style="fill:none;stroke-width:0.8;stroke-linecap:square;stroke-linejoin:miter;stroke:rgb(0%,0%,0%);stroke-opacity:1;stroke-miterlimit:4;" d="M 30.102539 7.201172 L 225.404297 7.201172 " transform="matrix(1.333333,0,0,1.333333,0,0)"/>
</g>
</svg>
