<?xml version="1.0" encoding="UTF-8"?>
<svg xmlns="http://www.w3.org/2000/svg" xmlns:xlink="http://www.w3.org/1999/xlink" width="341.104167" height="240.875" viewBox="0 0 341.104167 240.875" version="1.1">
<defs>
<clipPath id="clip1">
  <path d="M 82 176 L 96 176 L 96 190.800781 L 82 190.800781 Z M 82 176 "/>
</clipPath>
<clipPath id="clip2">
  <path d="M 95 130 L 108 130 L 108 190.800781 L 95 190.800781 Z M 95 130 "/>
</clipPath>
<clipPath id="clip3">
  <path d="M 107 18 L 121 18 L 121 190.800781 L 107 190.800781 Z M 107 18 "/>
</clipPath>
<clipPath id="clip4">
  <path d="M 120 68 L 133 68 L 133 190.800781 L 120 190.800781 Z M 120 68 "/>
</clipPath>
<clipPath id="clip5">
  <path d="M 132 119 L 146 119 L 146 190.800781 L 132 190.800781 Z M 132 119 "/>
</clipPath>
<clipPath id="clip6">
  <path d="M 145 144 L 158 144 L 158 190.800781 L 145 190.800781 Z M 145 144 "/>
</clipPath>
<clipPath id="clip7">
  <path d="M 157 155 L 171 155 L 171 190.800781 L 157 190.800781 Z M 157 155 "/>
</clipPath>
<clipPath id="clip8">
  <path d="M 170 165 L 183 165 L 183 190.800781 L 170 190.800781 Z M 170 165 "/>
</clipPath>
<clipPath id="clip9">
  <path d="M 182 171 L 196 171 L 196 190.800781 L 182 190.800781 Z M 182 171 "/>
</clipPath>
<clipPath id="clip10">
  <path d="M 195 176 L 208 176 L 208 190.800781 L 195 190.800781 Z M 195 176 "/>
</clipPath>
<clipPath id="clip11">
  <path d="M 207 179 L 220 179 L 220 190.800781 L 207 190.800781 Z M 207 179 "/>
</clipPath>
<clipPath id="clip12">
  <path d="M 219 181 L 233 181 L 233 190.800781 L 219 190.800781 Z M 219 181 "/>
</clipPath>
<clipPath id="clip13">
  <path d="M 232 184 L 245 184 L 245 190.800781 L 232 190.800781 Z M 232 184 "/>
</clipPath>
<clipPath id="clip14">
  <path d="M 244 185 L 258 185 L 258 190.800781 L 244 190.800781 Z M 244 185 "/>
</clipPath>
<clipPath id="clip15">
  <path d="M 257 186 L 270 186 L 270 190.800781 L 257 190.800781 Z M 257 186 "/>
</clipPath>
<clipPath id="clip16">
  <path d="M 269 187 L 283 187 L 283 190.800781 L 269 190.800781 Z M 269 187 "/>
</clipPath>
<clipPath id="clip17">
  <path d="M 282 187 L 295 187 L 295 190.800781 L 282 190.800781 Z M 282 187 "/>
</clipPath>
<clipPath id="clip18">
  <path d="M 294 188 L 308 188 L 308 190.800781 L 294 190.800781 Z M 294 188 "/>
</clipPath>
<clipPath id="clip19">
  <path d="M 307 188 L 320 188 L 320 190.800781 L 307 190.800781 Z M 307 188 "/>
</clipPath>
</defs>
<g id="surface1">
<path style=" stroke:none;fill-rule:nonzero;fill:rgb(100%,100%,100%);fill-opacity:1;" d="M 71.105469 190.800781 L 331.503906 190.800781 L 331.503906 9.601562 L 71.105469 9.601562 Z M 71.105469 190.800781 "/>
<g clip-path="url(#clip1)" clip-rule="nonzero">
<path style=" stroke:none;fill-rule:nonzero;fill:rgb(12.156863%,46.666667%,70.588237%);fill-opacity:1;" d="M 82.941406 190.800781 L 95.398438 190.800781 L 95.398438 176.808594 L 82.941406 176.808594 Z M 82.941406 190.800781 "/>
</g>
<g clip-path="url(#clip2)" clip-rule="nonzero">
<path style=" stroke:none;fill-rule:nonzero;fill:rgb(12.156863%,46.666667%,70.588237%);fill-opacity:1;" d="M 95.398438 190.800781 L 107.859375 190.800781 L 107.859375 130.753906 L 95.398438 130.753906 Z M 95.398438 190.800781 "/>
</g>
<g clip-path="url(#clip3)" clip-rule="nonzero">
<path style=" stroke:none;fill-rule:nonzero;fill:rgb(12.156863%,46.666667%,70.588237%);fill-opacity:1;" d="M 107.859375 190.800781 L 120.320312 190.800781 L 120.320312 18.230469 L 107.859375 18.230469 Z M 107.859375 190.800781 "/>
</g>
<g clip-path="url(#clip4)" clip-rule="nonzero">
<path style=" stroke:none;fill-rule:nonzero;fill:rgb(12.156863%,46.666667%,70.588237%);fill-opacity:1;" d="M 120.320312 190.800781 L 132.777344 190.800781 L 132.777344 68.480469 L 120.320312 68.480469 Z M 120.320312 190.800781 "/>
</g>
<g clip-path="url(#clip5)" clip-rule="nonzero">
<path style=" stroke:none;fill-rule:nonzero;fill:rgb(12.156863%,46.666667%,70.588237%);fill-opacity:1;" d="M 132.777344 190.800781 L 145.238281 190.800781 L 145.238281 119.519531 L 132.777344 119.519531 Z M 132.777344 190.800781 "/>
</g>
<g clip-path="url(#clip6)" clip-rule="nonzero">
<path style=" stroke:none;fill-rule:nonzero;fill:rgb(12.156863%,46.666667%,70.588237%);fill-opacity:1;" d="M 145.238281 190.800781 L 157.695312 190.800781 L 157.695312 144.039062 L 145.238281 144.039062 Z M 145.238281 190.800781 "/>
</g>
<g clip-path="url(#clip7)" clip-rule="nonzero">
<path style=" stroke:none;fill-rule:nonzero;fill:rgb(12.156863%,46.666667%,70.588237%);fill-opacity:1;" d="M 157.695312 190.800781 L 170.15625 190.800781 L 170.15625 155.878906 L 157.695312 155.878906 Z M 157.695312 190.800781 "/>
</g>
<g clip-path="url(#clip8)" clip-rule="nonzero">
<path style=" stroke:none;fill-rule:nonzero;fill:rgb(12.156863%,46.666667%,70.588237%);fill-opacity:1;" d="M 170.15625 190.800781 L 182.613281 190.800781 L 182.613281 165.371094 L 170.15625 165.371094 Z M 170.15625 190.800781 "/>
</g>
<g clip-path="url(#clip9)" clip-rule="nonzero">
<path style=" stroke:none;fill-rule:nonzero;fill:rgb(12.156863%,46.666667%,70.588237%);fill-opacity:1;" d="M 182.613281 190.800781 L 195.074219 190.800781 L 195.074219 171.59375 L 182.613281 171.59375 Z M 182.613281 190.800781 "/>
</g>
<g clip-path="url(#clip10)" clip-rule="nonzero">
<path style=" stroke:none;fill-rule:nonzero;fill:rgb(12.156863%,46.666667%,70.588237%);fill-opacity:1;" d="M 195.074219 190.800781 L 207.535156 190.800781 L 207.535156 176.097656 L 195.074219 176.097656 Z M 195.074219 190.800781 "/>
</g>
<g clip-path="url(#clip11)" clip-rule="nonzero">
<path style=" stroke:none;fill-rule:nonzero;fill:rgb(12.156863%,46.666667%,70.588237%);fill-opacity:1;" d="M 207.535156 190.800781 L 219.992188 190.800781 L 219.992188 179.742188 L 207.535156 179.742188 Z M 207.535156 190.800781 "/>
</g>
<g clip-path="url(#clip12)" clip-rule="nonzero">
<path style=" stroke:none;fill-rule:nonzero;fill:rgb(12.156863%,46.666667%,70.588237%);fill-opacity:1;" d="M 219.992188 190.800781 L 232.453125 190.800781 L 232.453125 181.96875 L 219.992188 181.96875 Z M 219.992188 190.800781 "/>
</g>
<g clip-path="url(#clip13)" clip-rule="nonzero">
<path style=" stroke:none;fill-rule:nonzero;fill:rgb(12.156863%,46.666667%,70.588237%);fill-opacity:1;" d="M 232.453125 190.800781 L 244.910156 190.800781 L 244.910156 184.296875 L 232.453125 184.296875 Z M 232.453125 190.800781 "/>
</g>
<g clip-path="url(#clip14)" clip-rule="nonzero">
<path style=" stroke:none;fill-rule:nonzero;fill:rgb(12.156863%,46.666667%,70.588237%);fill-opacity:1;" d="M 244.910156 190.800781 L 257.371094 190.800781 L 257.371094 185.5625 L 244.910156 185.5625 Z M 244.910156 190.800781 "/>
</g>
<g clip-path="url(#clip15)" clip-rule="nonzero">
<path style=" stroke:none;fill-rule:nonzero;fill:rgb(12.156863%,46.666667%,70.588237%);fill-opacity:1;" d="M 257.371094 190.800781 L 269.832031 190.800781 L 269.832031 186.398438 L 257.371094 186.398438 Z M 257.371094 190.800781 "/>
</g>
<g clip-path="url(#clip16)" clip-rule="nonzero">
<path style=" stroke:none;fill-rule:nonzero;fill:rgb(12.156863%,46.666667%,70.588237%);fill-opacity:1;" d="M 269.832031 190.800781 L 282.289062 190.800781 L 282.289062 187.433594 L 269.832031 187.433594 Z M 269.832031 190.800781 "/>
</g>
<g clip-path="url(#clip17)" clip-rule="nonzero">
<path style=" stroke:none;fill-rule:nonzero;fill:rgb(12.156863%,46.666667%,70.588237%);fill-opacity:1;" d="M 282.289062 190.800781 L 294.75 190.800781 L 294.75 187.863281 L 282.289062 187.863281 Z M 282.289062 190.800781 "/>
</g>
<g clip-path="url(#clip18)" clip-rule="nonzero">
<path style=" stroke:none;fill-rule:nonzero;fill:rgb(12.156863%,46.666667%,70.588237%);fill-opacity:1;" d="M 294.75 190.800781 L 307.207031 190.800781 L 307.207031 188.648438 L 294.75 188.648438 Z M 294.75 190.800781 "/>
</g>
<g clip-path="url(#clip19)" clip-rule="nonzero">
<path style=" stroke:none;fill-rule:nonzero;fill:rgb(12.156863%,46.666667%,70.588237%);fill-opacity:1;" d="M 307.207031 190.800781 L 319.667969 190.800781 L 319.667969 188.902344 L 307.207031 188.902344 Z M 307.207031 190.800781 "/>
</g>
<path style="fill:none;stroke-width:0.8;stroke-linecap:butt;stroke-linejoin:round;stroke:rgb(0%,0%,0%);stroke-opacity:1;stroke-miterlimit:4;" d="M 0.000656128 0.000579834 L 0.000656128 3.498627 " transform="matrix(1.333333,0,0,1.333333,82.940531,190.800008)"/>
<path style=" stroke:none;fill-rule:nonzero;fill:rgb(0%,0%,0%);fill-opacity:1;" d="M 82.9375 201.410156 C 82.261719 201.410156 81.75 201.742188 81.410156 202.410156 C 81.070312 203.074219 80.898438 204.078125 80.898438 205.414062 C 80.898438 206.746094 81.070312 207.746094 81.410156 208.414062 C 81.75 209.078125 82.261719 209.414062 82.9375 209.414062 C 83.617188 209.414062 84.128906 209.078125 84.46875 208.414062 C 84.8125 207.746094 84.980469 206.746094 84.980469 205.414062 C 84.980469 204.078125 84.8125 203.074219 84.46875 202.410156 C 84.128906 201.742188 83.617188 201.410156 82.9375 201.410156 Z M 82.9375 200.367188 C 84.027344 200.367188 84.859375 200.800781 85.433594 201.664062 C 86.007812 202.523438 86.296875 203.773438 86.296875 205.414062 C 86.296875 207.050781 86.007812 208.300781 85.433594 209.164062 C 84.859375 210.023438 84.027344 210.453125 82.9375 210.453125 C 81.847656 210.453125 81.015625 210.023438 80.441406 209.164062 C 79.867188 208.300781 79.578125 207.050781 79.578125 205.414062 C 79.578125 203.773438 79.867188 202.523438 80.441406 201.664062 C 81.015625 200.800781 81.847656 200.367188 82.9375 200.367188 Z M 82.9375 200.367188 "/>
<path style="fill:none;stroke-width:0.8;stroke-linecap:butt;stroke-linejoin:round;stroke:rgb(0%,0%,0%);stroke-opacity:1;stroke-miterlimit:4;" d="M -0.00038147 0.000579834 L -0.00038147 3.498627 " transform="matrix(1.333333,0,0,1.333333,132.777852,190.800008)"/>
<path style=" stroke:none;fill-rule:nonzero;fill:rgb(0%,0%,0%);fill-opacity:1;" d="M 122.609375 209.160156 L 127.199219 209.160156 L 127.199219 210.265625 L 121.03125 210.265625 L 121.03125 209.160156 C 121.527344 208.640625 122.207031 207.949219 123.070312 207.078125 C 123.933594 206.207031 124.472656 205.648438 124.695312 205.394531 C 125.117188 204.921875 125.410156 204.523438 125.574219 204.195312 C 125.742188 203.867188 125.828125 203.542969 125.828125 203.226562 C 125.828125 202.710938 125.648438 202.289062 125.285156 201.964844 C 124.921875 201.636719 124.449219 201.476562 123.867188 201.476562 C 123.453125 201.476562 123.019531 201.546875 122.5625 201.691406 C 122.105469 201.832031 121.617188 202.050781 121.09375 202.339844 L 121.09375 201.011719 C 121.625 200.800781 122.117188 200.640625 122.578125 200.53125 C 123.039062 200.421875 123.460938 200.367188 123.84375 200.367188 C 124.847656 200.367188 125.652344 200.621094 126.25 201.125 C 126.847656 201.628906 127.148438 202.300781 127.148438 203.140625 C 127.148438 203.542969 127.074219 203.921875 126.921875 204.277344 C 126.773438 204.636719 126.503906 205.058594 126.105469 205.542969 C 126 205.671875 125.652344 206.035156 125.070312 206.636719 C 124.492188 207.238281 123.671875 208.078125 122.609375 209.160156 Z M 122.609375 209.160156 "/>
<path style=" stroke:none;fill-rule:nonzero;fill:rgb(0%,0%,0%);fill-opacity:1;" d="M 132.773438 201.410156 C 132.097656 201.410156 131.589844 201.742188 131.246094 202.410156 C 130.90625 203.074219 130.734375 204.078125 130.734375 205.414062 C 130.734375 206.746094 130.90625 207.746094 131.246094 208.414062 C 131.589844 209.078125 132.097656 209.414062 132.773438 209.414062 C 133.457031 209.414062 133.964844 209.078125 134.308594 208.414062 C 134.648438 207.746094 134.820312 206.746094 134.820312 205.414062 C 134.820312 204.078125 134.648438 203.074219 134.308594 202.410156 C 133.964844 201.742188 133.457031 201.410156 132.773438 201.410156 Z M 132.773438 200.367188 C 133.863281 200.367188 134.695312 200.800781 135.269531 201.664062 C 135.847656 202.523438 136.132812 203.773438 136.132812 205.414062 C 136.132812 207.050781 135.847656 208.300781 135.269531 209.164062 C 134.695312 210.023438 133.863281 210.453125 132.773438 210.453125 C 131.683594 210.453125 130.851562 210.023438 130.277344 209.164062 C 129.703125 208.300781 129.414062 207.050781 129.414062 205.414062 C 129.414062 203.773438 129.703125 202.523438 130.277344 201.664062 C 130.851562 200.800781 131.683594 200.367188 132.773438 200.367188 Z M 132.773438 200.367188 "/>
<path style=" stroke:none;fill-rule:nonzero;fill:rgb(0%,0%,0%);fill-opacity:1;" d="M 141.257812 201.410156 C 140.582031 201.410156 140.070312 201.742188 139.730469 202.410156 C 139.390625 203.074219 139.21875 204.078125 139.21875 205.414062 C 139.21875 206.746094 139.390625 207.746094 139.730469 208.414062 C 140.070312 209.078125 140.582031 209.414062 141.257812 209.414062 C 141.9375 209.414062 142.449219 209.078125 142.789062 208.414062 C 143.132812 207.746094 143.300781 206.746094 143.300781 205.414062 C 143.300781 204.078125 143.132812 203.074219 142.789062 202.410156 C 142.449219 201.742188 141.9375 201.410156 141.257812 201.410156 Z M 141.257812 200.367188 C 142.347656 200.367188 143.179688 200.800781 143.753906 201.664062 C 144.328125 202.523438 144.617188 203.773438 144.617188 205.414062 C 144.617188 207.050781 144.328125 208.300781 143.753906 209.164062 C 143.179688 210.023438 142.347656 210.453125 141.257812 210.453125 C 140.167969 210.453125 139.335938 210.023438 138.761719 209.164062 C 138.1875 208.300781 137.898438 207.050781 137.898438 205.414062 C 137.898438 203.773438 138.1875 202.523438 138.761719 201.664062 C 139.335938 200.800781 140.167969 200.367188 141.257812 200.367188 Z M 141.257812 200.367188 "/>
<path style="fill:none;stroke-width:0.8;stroke-linecap:butt;stroke-linejoin:round;stroke:rgb(0%,0%,0%);stroke-opacity:1;stroke-miterlimit:4;" d="M -0.00141907 0.000579834 L -0.00141907 3.498627 " transform="matrix(1.333333,0,0,1.333333,182.615173,190.800008)"/>
<path style=" stroke:none;fill-rule:nonzero;fill:rgb(0%,0%,0%);fill-opacity:1;" d="M 174.929688 201.691406 L 171.609375 206.878906 L 174.929688 206.878906 Z M 174.582031 200.542969 L 176.238281 200.542969 L 176.238281 206.878906 L 177.625 206.878906 L 177.625 207.972656 L 176.238281 207.972656 L 176.238281 210.265625 L 174.929688 210.265625 L 174.929688 207.972656 L 170.542969 207.972656 L 170.542969 206.703125 Z M 174.582031 200.542969 "/>
<path style=" stroke:none;fill-rule:nonzero;fill:rgb(0%,0%,0%);fill-opacity:1;" d="M 182.609375 201.410156 C 181.933594 201.410156 181.425781 201.742188 181.082031 202.410156 C 180.742188 203.074219 180.574219 204.078125 180.574219 205.414062 C 180.574219 206.746094 180.742188 207.746094 181.082031 208.414062 C 181.425781 209.078125 181.933594 209.414062 182.609375 209.414062 C 183.292969 209.414062 183.804688 209.078125 184.144531 208.414062 C 184.484375 207.746094 184.65625 206.746094 184.65625 205.414062 C 184.65625 204.078125 184.484375 203.074219 184.144531 202.410156 C 183.804688 201.742188 183.292969 201.410156 182.609375 201.410156 Z M 182.609375 200.367188 C 183.699219 200.367188 184.535156 200.800781 185.109375 201.664062 C 185.683594 202.523438 185.972656 203.773438 185.972656 205.414062 C 185.972656 207.050781 185.683594 208.300781 185.109375 209.164062 C 184.535156 210.023438 183.699219 210.453125 182.609375 210.453125 C 181.523438 210.453125 180.691406 210.023438 180.113281 209.164062 C 179.539062 208.300781 179.253906 207.050781 179.253906 205.414062 C 179.253906 203.773438 179.539062 202.523438 180.113281 201.664062 C 180.691406 200.800781 181.523438 200.367188 182.609375 200.367188 Z M 182.609375 200.367188 "/>
<path style=" stroke:none;fill-rule:nonzero;fill:rgb(0%,0%,0%);fill-opacity:1;" d="M 191.09375 201.410156 C 190.417969 201.410156 189.910156 201.742188 189.566406 202.410156 C 189.226562 203.074219 189.054688 204.078125 189.054688 205.414062 C 189.054688 206.746094 189.226562 207.746094 189.566406 208.414062 C 189.910156 209.078125 190.417969 209.414062 191.09375 209.414062 C 191.777344 209.414062 192.285156 209.078125 192.628906 208.414062 C 192.96875 207.746094 193.140625 206.746094 193.140625 205.414062 C 193.140625 204.078125 192.96875 203.074219 192.628906 202.410156 C 192.285156 201.742188 191.777344 201.410156 191.09375 201.410156 Z M 191.09375 200.367188 C 192.183594 200.367188 193.015625 200.800781 193.589844 201.664062 C 194.167969 202.523438 194.453125 203.773438 194.453125 205.414062 C 194.453125 207.050781 194.167969 208.300781 193.589844 209.164062 C 193.015625 210.023438 192.183594 210.453125 191.09375 210.453125 C 190.003906 210.453125 189.171875 210.023438 188.597656 209.164062 C 188.023438 208.300781 187.734375 207.050781 187.734375 205.414062 C 187.734375 203.773438 188.023438 202.523438 188.597656 201.664062 C 189.171875 200.800781 190.003906 200.367188 191.09375 200.367188 Z M 191.09375 200.367188 "/>
<path style="fill:none;stroke-width:0.8;stroke-linecap:butt;stroke-linejoin:round;stroke:rgb(0%,0%,0%);stroke-opacity:1;stroke-miterlimit:4;" d="M 0.000473022 0.000579834 L 0.000473022 3.498627 " transform="matrix(1.333333,0,0,1.333333,232.452494,190.800008)"/>
<path style=" stroke:none;fill-rule:nonzero;fill:rgb(0%,0%,0%);fill-opacity:1;" d="M 224.128906 204.882812 C 223.539062 204.882812 223.070312 205.082031 222.726562 205.488281 C 222.382812 205.890625 222.207031 206.441406 222.207031 207.144531 C 222.207031 207.84375 222.382812 208.398438 222.726562 208.804688 C 223.070312 209.210938 223.539062 209.414062 224.128906 209.414062 C 224.71875 209.414062 225.1875 209.210938 225.53125 208.804688 C 225.875 208.398438 226.046875 207.84375 226.046875 207.144531 C 226.046875 206.441406 225.875 205.890625 225.53125 205.488281 C 225.1875 205.082031 224.71875 204.882812 224.128906 204.882812 Z M 226.738281 200.757812 L 226.738281 201.957031 C 226.410156 201.800781 226.074219 201.683594 225.738281 201.601562 C 225.402344 201.515625 225.070312 201.476562 224.738281 201.476562 C 223.871094 201.476562 223.207031 201.769531 222.75 202.355469 C 222.292969 202.941406 222.03125 203.824219 221.96875 205.011719 C 222.222656 204.632812 222.542969 204.34375 222.929688 204.140625 C 223.316406 203.941406 223.742188 203.839844 224.207031 203.839844 C 225.183594 203.839844 225.953125 204.136719 226.519531 204.730469 C 227.089844 205.320312 227.371094 206.125 227.371094 207.144531 C 227.371094 208.144531 227.074219 208.945312 226.484375 209.550781 C 225.894531 210.152344 225.109375 210.453125 224.128906 210.453125 C 223.003906 210.453125 222.144531 210.023438 221.550781 209.164062 C 220.957031 208.300781 220.660156 207.050781 220.660156 205.414062 C 220.660156 203.878906 221.023438 202.652344 221.753906 201.738281 C 222.480469 200.824219 223.460938 200.367188 224.6875 200.367188 C 225.019531 200.367188 225.351562 200.402344 225.6875 200.464844 C 226.023438 200.53125 226.375 200.628906 226.738281 200.757812 Z M 226.738281 200.757812 "/>
<path style=" stroke:none;fill-rule:nonzero;fill:rgb(0%,0%,0%);fill-opacity:1;" d="M 232.449219 201.410156 C 231.773438 201.410156 231.261719 201.742188 230.921875 202.410156 C 230.582031 203.074219 230.410156 204.078125 230.410156 205.414062 C 230.410156 206.746094 230.582031 207.746094 230.921875 208.414062 C 231.261719 209.078125 231.773438 209.414062 232.449219 209.414062 C 233.128906 209.414062 233.640625 209.078125 233.980469 208.414062 C 234.324219 207.746094 234.492188 206.746094 234.492188 205.414062 C 234.492188 204.078125 234.324219 203.074219 233.980469 202.410156 C 233.640625 201.742188 233.128906 201.410156 232.449219 201.410156 Z M 232.449219 200.367188 C 233.539062 200.367188 234.371094 200.800781 234.945312 201.664062 C 235.519531 202.523438 235.808594 203.773438 235.808594 205.414062 C 235.808594 207.050781 235.519531 208.300781 234.945312 209.164062 C 234.371094 210.023438 233.539062 210.453125 232.449219 210.453125 C 231.359375 210.453125 230.527344 210.023438 229.953125 209.164062 C 229.378906 208.300781 229.089844 207.050781 229.089844 205.414062 C 229.089844 203.773438 229.378906 202.523438 229.953125 201.664062 C 230.527344 200.800781 231.359375 200.367188 232.449219 200.367188 Z M 232.449219 200.367188 "/>
<path style=" stroke:none;fill-rule:nonzero;fill:rgb(0%,0%,0%);fill-opacity:1;" d="M 240.929688 201.410156 C 240.253906 201.410156 239.746094 201.742188 239.402344 202.410156 C 239.0625 203.074219 238.894531 204.078125 238.894531 205.414062 C 238.894531 206.746094 239.0625 207.746094 239.402344 208.414062 C 239.746094 209.078125 240.253906 209.414062 240.929688 209.414062 C 241.613281 209.414062 242.125 209.078125 242.464844 208.414062 C 242.804688 207.746094 242.976562 206.746094 242.976562 205.414062 C 242.976562 204.078125 242.804688 203.074219 242.464844 202.410156 C 242.125 201.742188 241.613281 201.410156 240.929688 201.410156 Z M 240.929688 200.367188 C 242.019531 200.367188 242.855469 200.800781 243.429688 201.664062 C 244.003906 202.523438 244.292969 203.773438 244.292969 205.414062 C 244.292969 207.050781 244.003906 208.300781 243.429688 209.164062 C 242.855469 210.023438 242.019531 210.453125 240.929688 210.453125 C 239.84375 210.453125 239.011719 210.023438 238.433594 209.164062 C 237.859375 208.300781 237.574219 207.050781 237.574219 205.414062 C 237.574219 203.773438 237.859375 202.523438 238.433594 201.664062 C 239.011719 200.800781 239.84375 200.367188 240.929688 200.367188 Z M 240.929688 200.367188 "/>
<path style="fill:none;stroke-width:0.8;stroke-linecap:butt;stroke-linejoin:round;stroke:rgb(0%,0%,0%);stroke-opacity:1;stroke-miterlimit:4;" d="M -0.000564575 0.000579834 L -0.000564575 3.498627 " transform="matrix(1.333333,0,0,1.333333,282.289815,190.800008)"/>
<path style=" stroke:none;fill-rule:nonzero;fill:rgb(0%,0%,0%);fill-opacity:1;" d="M 273.800781 205.648438 C 273.175781 205.648438 272.6875 205.816406 272.328125 206.148438 C 271.96875 206.484375 271.792969 206.945312 271.792969 207.527344 C 271.792969 208.117188 271.96875 208.574219 272.328125 208.910156 C 272.6875 209.246094 273.175781 209.414062 273.800781 209.414062 C 274.425781 209.414062 274.917969 209.246094 275.28125 208.910156 C 275.640625 208.570312 275.820312 208.109375 275.820312 207.527344 C 275.820312 206.945312 275.640625 206.484375 275.285156 206.148438 C 274.925781 205.816406 274.433594 205.648438 273.800781 205.648438 Z M 272.488281 205.089844 C 271.925781 204.949219 271.484375 204.6875 271.167969 204.300781 C 270.855469 203.914062 270.699219 203.441406 270.699219 202.886719 C 270.699219 202.109375 270.972656 201.496094 271.527344 201.046875 C 272.082031 200.59375 272.839844 200.367188 273.800781 200.367188 C 274.769531 200.367188 275.53125 200.59375 276.082031 201.046875 C 276.632812 201.496094 276.910156 202.109375 276.910156 202.886719 C 276.910156 203.441406 276.75 203.914062 276.4375 204.300781 C 276.121094 204.6875 275.683594 204.949219 275.125 205.089844 C 275.757812 205.238281 276.25 205.527344 276.605469 205.957031 C 276.957031 206.386719 277.136719 206.910156 277.136719 207.527344 C 277.136719 208.472656 276.847656 209.195312 276.273438 209.699219 C 275.699219 210.203125 274.875 210.453125 273.800781 210.453125 C 272.730469 210.453125 271.90625 210.203125 271.332031 209.699219 C 270.757812 209.195312 270.46875 208.472656 270.46875 207.527344 C 270.46875 206.910156 270.648438 206.386719 271.003906 205.957031 C 271.359375 205.527344 271.855469 205.238281 272.488281 205.089844 Z M 272.007812 203.011719 C 272.007812 203.515625 272.164062 203.90625 272.476562 204.191406 C 272.792969 204.472656 273.234375 204.613281 273.800781 204.613281 C 274.367188 204.613281 274.808594 204.472656 275.128906 204.191406 C 275.445312 203.90625 275.605469 203.515625 275.605469 203.011719 C 275.605469 202.507812 275.445312 202.117188 275.128906 201.832031 C 274.808594 201.550781 274.367188 201.410156 273.800781 201.410156 C 273.234375 201.410156 272.792969 201.550781 272.476562 201.832031 C 272.164062 202.117188 272.007812 202.507812 272.007812 203.011719 Z M 272.007812 203.011719 "/>
<path style=" stroke:none;fill-rule:nonzero;fill:rgb(0%,0%,0%);fill-opacity:1;" d="M 282.285156 201.410156 C 281.609375 201.410156 281.101562 201.742188 280.757812 202.410156 C 280.417969 203.074219 280.246094 204.078125 280.246094 205.414062 C 280.246094 206.746094 280.417969 207.746094 280.757812 208.414062 C 281.101562 209.078125 281.609375 209.414062 282.285156 209.414062 C 282.96875 209.414062 283.476562 209.078125 283.820312 208.414062 C 284.160156 207.746094 284.332031 206.746094 284.332031 205.414062 C 284.332031 204.078125 284.160156 203.074219 283.820312 202.410156 C 283.476562 201.742188 282.96875 201.410156 282.285156 201.410156 Z M 282.285156 200.367188 C 283.375 200.367188 284.207031 200.800781 284.785156 201.664062 C 285.359375 202.523438 285.644531 203.773438 285.644531 205.414062 C 285.644531 207.050781 285.359375 208.300781 284.785156 209.164062 C 284.207031 210.023438 283.375 210.453125 282.285156 210.453125 C 281.195312 210.453125 280.363281 210.023438 279.789062 209.164062 C 279.214844 208.300781 278.925781 207.050781 278.925781 205.414062 C 278.925781 203.773438 279.214844 202.523438 279.789062 201.664062 C 280.363281 200.800781 281.195312 200.367188 282.285156 200.367188 Z M 282.285156 200.367188 "/>
<path style=" stroke:none;fill-rule:nonzero;fill:rgb(0%,0%,0%);fill-opacity:1;" d="M 290.769531 201.410156 C 290.09375 201.410156 289.582031 201.742188 289.242188 202.410156 C 288.902344 203.074219 288.730469 204.078125 288.730469 205.414062 C 288.730469 206.746094 288.902344 207.746094 289.242188 208.414062 C 289.582031 209.078125 290.09375 209.414062 290.769531 209.414062 C 291.449219 209.414062 291.960938 209.078125 292.300781 208.414062 C 292.644531 207.746094 292.8125 206.746094 292.8125 205.414062 C 292.8125 204.078125 292.644531 203.074219 292.300781 202.410156 C 291.960938 201.742188 291.449219 201.410156 290.769531 201.410156 Z M 290.769531 200.367188 C 291.859375 200.367188 292.691406 200.800781 293.265625 201.664062 C 293.839844 202.523438 294.128906 203.773438 294.128906 205.414062 C 294.128906 207.050781 293.839844 208.300781 293.265625 209.164062 C 292.691406 210.023438 291.859375 210.453125 290.769531 210.453125 C 289.679688 210.453125 288.847656 210.023438 288.273438 209.164062 C 287.699219 208.300781 287.410156 207.050781 287.410156 205.414062 C 287.410156 203.773438 287.699219 202.523438 288.273438 201.664062 C 288.847656 200.800781 289.679688 200.367188 290.769531 200.367188 Z M 290.769531 200.367188 "/>
<path style=" stroke:none;fill-rule:nonzero;fill:rgb(0%,0%,0%);fill-opacity:1;" d="M 140.945312 222.636719 L 139.054688 222.636719 L 138.503906 224.808594 L 140.414062 224.808594 Z M 139.96875 218.929688 L 139.292969 221.632812 L 141.195312 221.632812 L 141.878906 218.929688 L 142.917969 218.929688 L 142.25 221.632812 L 144.28125 221.632812 L 144.28125 222.636719 L 141.996094 222.636719 L 141.460938 224.808594 L 143.53125 224.808594 L 143.53125 225.804688 L 141.207031 225.804688 L 140.53125 228.503906 L 139.488281 228.503906 L 140.160156 225.804688 L 138.25 225.804688 L 137.582031 228.503906 L 136.53125 228.503906 L 137.210938 225.804688 L 135.160156 225.804688 L 135.160156 224.808594 L 137.449219 224.808594 L 137.996094 222.636719 L 135.902344 222.636719 L 135.902344 221.632812 L 138.25 221.632812 L 138.914062 218.929688 Z M 139.96875 218.929688 "/>
<path style=" stroke:none;fill-rule:nonzero;fill:rgb(0%,0%,0%);fill-opacity:1;" d="M 151.980469 219.140625 L 151.980469 221.210938 L 154.449219 221.210938 L 154.449219 222.140625 L 151.980469 222.140625 L 151.980469 226.101562 C 151.980469 226.695312 152.0625 227.078125 152.226562 227.246094 C 152.386719 227.414062 152.71875 227.5 153.21875 227.5 L 154.449219 227.5 L 154.449219 228.503906 L 153.21875 228.503906 C 152.292969 228.503906 151.65625 228.328125 151.304688 227.984375 C 150.953125 227.640625 150.777344 227.011719 150.777344 226.101562 L 150.777344 222.140625 L 149.898438 222.140625 L 149.898438 221.210938 L 150.777344 221.210938 L 150.777344 219.140625 Z M 151.980469 219.140625 "/>
<path style=" stroke:none;fill-rule:nonzero;fill:rgb(0%,0%,0%);fill-opacity:1;" d="M 158.847656 222.050781 C 158.207031 222.050781 157.699219 222.300781 157.328125 222.800781 C 156.953125 223.304688 156.765625 223.992188 156.765625 224.863281 C 156.765625 225.734375 156.953125 226.421875 157.324219 226.921875 C 157.695312 227.425781 158.203125 227.675781 158.847656 227.675781 C 159.488281 227.675781 159.992188 227.421875 160.367188 226.921875 C 160.738281 226.417969 160.925781 225.730469 160.925781 224.863281 C 160.925781 224 160.738281 223.3125 160.367188 222.808594 C 159.992188 222.304688 159.488281 222.050781 158.847656 222.050781 Z M 158.847656 221.035156 C 159.890625 221.035156 160.710938 221.375 161.304688 222.050781 C 161.898438 222.726562 162.199219 223.664062 162.199219 224.863281 C 162.199219 226.054688 161.898438 226.992188 161.304688 227.671875 C 160.710938 228.351562 159.890625 228.691406 158.847656 228.691406 C 157.804688 228.691406 156.984375 228.351562 156.390625 227.671875 C 155.800781 226.992188 155.503906 226.054688 155.503906 224.863281 C 155.503906 223.664062 155.800781 222.726562 156.390625 222.050781 C 156.984375 221.375 157.804688 221.035156 158.847656 221.035156 Z M 158.847656 221.035156 "/>
<path style=" stroke:none;fill-rule:nonzero;fill:rgb(0%,0%,0%);fill-opacity:1;" d="M 164.136719 218.371094 L 165.339844 218.371094 L 165.339844 224.355469 L 168.914062 221.210938 L 170.445312 221.210938 L 166.578125 224.621094 L 170.609375 228.503906 L 169.046875 228.503906 L 165.339844 224.941406 L 165.339844 228.503906 L 164.136719 228.503906 Z M 164.136719 218.371094 "/>
<path style=" stroke:none;fill-rule:nonzero;fill:rgb(0%,0%,0%);fill-opacity:1;" d="M 177.65625 224.554688 L 177.65625 225.140625 L 172.148438 225.140625 C 172.203125 225.964844 172.449219 226.59375 172.894531 227.027344 C 173.339844 227.460938 173.957031 227.675781 174.753906 227.675781 C 175.214844 227.675781 175.660156 227.617188 176.089844 227.507812 C 176.523438 227.394531 176.953125 227.222656 177.378906 226.996094 L 177.378906 228.132812 C 176.949219 228.3125 176.507812 228.453125 176.054688 228.546875 C 175.605469 228.644531 175.144531 228.691406 174.683594 228.691406 C 173.519531 228.691406 172.597656 228.351562 171.917969 227.675781 C 171.238281 227 170.898438 226.082031 170.898438 224.925781 C 170.898438 223.734375 171.222656 222.789062 171.867188 222.085938 C 172.511719 221.386719 173.378906 221.035156 174.472656 221.035156 C 175.453125 221.035156 176.230469 221.351562 176.800781 221.984375 C 177.371094 222.613281 177.65625 223.472656 177.65625 224.554688 Z M 176.460938 224.203125 C 176.453125 223.550781 176.269531 223.027344 175.910156 222.636719 C 175.550781 222.246094 175.078125 222.050781 174.488281 222.050781 C 173.820312 222.050781 173.285156 222.238281 172.882812 222.617188 C 172.480469 222.996094 172.25 223.527344 172.1875 224.210938 Z M 176.460938 224.203125 "/>
<path style=" stroke:none;fill-rule:nonzero;fill:rgb(0%,0%,0%);fill-opacity:1;" d="M 185.6875 224.101562 L 185.6875 228.503906 L 184.488281 228.503906 L 184.488281 224.140625 C 184.488281 223.449219 184.351562 222.933594 184.082031 222.589844 C 183.8125 222.25 183.410156 222.078125 182.875 222.078125 C 182.226562 222.078125 181.714844 222.285156 181.34375 222.695312 C 180.96875 223.105469 180.78125 223.667969 180.78125 224.382812 L 180.78125 228.503906 L 179.578125 228.503906 L 179.578125 221.210938 L 180.78125 221.210938 L 180.78125 222.34375 C 181.070312 221.90625 181.40625 221.578125 181.792969 221.359375 C 182.183594 221.144531 182.632812 221.035156 183.140625 221.035156 C 183.976562 221.035156 184.609375 221.292969 185.039062 221.8125 C 185.46875 222.332031 185.6875 223.09375 185.6875 224.101562 Z M 185.6875 224.101562 "/>
<path style=" stroke:none;fill-rule:nonzero;fill:rgb(0%,0%,0%);fill-opacity:1;" d="M 192.722656 221.425781 L 192.722656 222.558594 C 192.382812 222.382812 192.03125 222.253906 191.667969 222.167969 C 191.304688 222.082031 190.925781 222.039062 190.535156 222.039062 C 189.941406 222.039062 189.492188 222.128906 189.195312 222.308594 C 188.898438 222.492188 188.75 222.765625 188.75 223.132812 C 188.75 223.410156 188.855469 223.628906 189.070312 223.785156 C 189.28125 223.945312 189.710938 224.09375 190.351562 224.238281 L 190.761719 224.328125 C 191.613281 224.511719 192.21875 224.769531 192.574219 225.101562 C 192.933594 225.433594 193.113281 225.894531 193.113281 226.488281 C 193.113281 227.167969 192.84375 227.703125 192.308594 228.101562 C 191.773438 228.496094 191.035156 228.691406 190.097656 228.691406 C 189.707031 228.691406 189.300781 228.652344 188.878906 228.578125 C 188.453125 228.5 188.007812 228.386719 187.539062 228.234375 L 187.539062 226.996094 C 187.984375 227.226562 188.417969 227.402344 188.847656 227.515625 C 189.277344 227.628906 189.703125 227.6875 190.125 227.6875 C 190.691406 227.6875 191.121094 227.589844 191.425781 227.398438 C 191.730469 227.203125 191.882812 226.933594 191.882812 226.582031 C 191.882812 226.257812 191.773438 226.007812 191.554688 225.832031 C 191.335938 225.660156 190.855469 225.492188 190.109375 225.332031 L 189.695312 225.234375 C 188.953125 225.078125 188.417969 224.839844 188.085938 224.515625 C 187.757812 224.191406 187.59375 223.746094 187.59375 223.183594 C 187.59375 222.496094 187.835938 221.96875 188.320312 221.597656 C 188.808594 221.222656 189.496094 221.035156 190.390625 221.035156 C 190.835938 221.035156 191.25 221.066406 191.640625 221.132812 C 192.03125 221.195312 192.390625 221.292969 192.722656 221.425781 Z M 192.722656 221.425781 "/>
<path style=" stroke:none;fill-rule:nonzero;fill:rgb(0%,0%,0%);fill-opacity:1;" d="M 200.417969 227.410156 L 200.417969 231.273438 L 199.210938 231.273438 L 199.210938 221.210938 L 200.417969 221.210938 L 200.417969 222.316406 C 200.667969 221.882812 200.988281 221.5625 201.371094 221.351562 C 201.753906 221.140625 202.214844 221.035156 202.75 221.035156 C 203.632812 221.035156 204.355469 221.386719 204.90625 222.089844 C 205.460938 222.792969 205.738281 223.714844 205.738281 224.863281 C 205.738281 226.007812 205.460938 226.933594 204.90625 227.636719 C 204.355469 228.339844 203.632812 228.691406 202.75 228.691406 C 202.214844 228.691406 201.753906 228.585938 201.371094 228.375 C 200.988281 228.164062 200.667969 227.839844 200.417969 227.410156 Z M 204.492188 224.863281 C 204.492188 223.980469 204.3125 223.289062 203.949219 222.789062 C 203.585938 222.289062 203.089844 222.039062 202.457031 222.039062 C 201.820312 222.039062 201.324219 222.289062 200.960938 222.789062 C 200.597656 223.289062 200.417969 223.980469 200.417969 224.863281 C 200.417969 225.742188 200.597656 226.433594 200.960938 226.933594 C 201.324219 227.4375 201.820312 227.6875 202.457031 227.6875 C 203.089844 227.6875 203.585938 227.4375 203.949219 226.933594 C 204.3125 226.433594 204.492188 225.742188 204.492188 224.863281 Z M 204.492188 224.863281 "/>
<path style=" stroke:none;fill-rule:nonzero;fill:rgb(0%,0%,0%);fill-opacity:1;" d="M 213.960938 224.554688 L 213.960938 225.140625 L 208.453125 225.140625 C 208.503906 225.964844 208.753906 226.59375 209.195312 227.027344 C 209.640625 227.460938 210.261719 227.675781 211.054688 227.675781 C 211.515625 227.675781 211.960938 227.617188 212.394531 227.507812 C 212.824219 227.394531 213.253906 227.222656 213.679688 226.996094 L 213.679688 228.132812 C 213.25 228.3125 212.808594 228.453125 212.359375 228.546875 C 211.90625 228.644531 211.449219 228.691406 210.984375 228.691406 C 209.820312 228.691406 208.898438 228.351562 208.21875 227.675781 C 207.539062 227 207.203125 226.082031 207.203125 224.925781 C 207.203125 223.734375 207.523438 222.789062 208.167969 222.085938 C 208.8125 221.386719 209.683594 221.035156 210.777344 221.035156 C 211.757812 221.035156 212.53125 221.351562 213.101562 221.984375 C 213.675781 222.613281 213.960938 223.472656 213.960938 224.554688 Z M 212.761719 224.203125 C 212.753906 223.550781 212.570312 223.027344 212.210938 222.636719 C 211.851562 222.246094 211.378906 222.050781 210.789062 222.050781 C 210.121094 222.050781 209.585938 222.238281 209.183594 222.617188 C 208.785156 222.996094 208.550781 223.527344 208.492188 224.210938 Z M 212.761719 224.203125 "/>
<path style=" stroke:none;fill-rule:nonzero;fill:rgb(0%,0%,0%);fill-opacity:1;" d="M 220.148438 222.328125 C 220.015625 222.25 219.867188 222.195312 219.710938 222.160156 C 219.550781 222.121094 219.378906 222.101562 219.1875 222.101562 C 218.511719 222.101562 217.988281 222.320312 217.628906 222.761719 C 217.265625 223.203125 217.082031 223.835938 217.082031 224.660156 L 217.082031 228.503906 L 215.878906 228.503906 L 215.878906 221.210938 L 217.082031 221.210938 L 217.082031 222.34375 C 217.335938 221.902344 217.664062 221.570312 218.066406 221.359375 C 218.472656 221.144531 218.960938 221.035156 219.539062 221.035156 C 219.621094 221.035156 219.710938 221.039062 219.8125 221.050781 C 219.914062 221.0625 220.023438 221.078125 220.144531 221.101562 Z M 220.148438 222.328125 "/>
<path style=" stroke:none;fill-rule:nonzero;fill:rgb(0%,0%,0%);fill-opacity:1;" d="M 229.871094 222.328125 C 229.734375 222.25 229.589844 222.195312 229.429688 222.160156 C 229.273438 222.121094 229.097656 222.101562 228.90625 222.101562 C 228.230469 222.101562 227.710938 222.320312 227.347656 222.761719 C 226.984375 223.203125 226.804688 223.835938 226.804688 224.660156 L 226.804688 228.503906 L 225.597656 228.503906 L 225.597656 221.210938 L 226.804688 221.210938 L 226.804688 222.34375 C 227.054688 221.902344 227.382812 221.570312 227.785156 221.359375 C 228.191406 221.144531 228.683594 221.035156 229.261719 221.035156 C 229.34375 221.035156 229.433594 221.039062 229.53125 221.050781 C 229.632812 221.0625 229.742188 221.078125 229.863281 221.101562 Z M 229.871094 222.328125 "/>
<path style=" stroke:none;fill-rule:nonzero;fill:rgb(0%,0%,0%);fill-opacity:1;" d="M 237.066406 224.554688 L 237.066406 225.140625 L 231.554688 225.140625 C 231.609375 225.964844 231.859375 226.59375 232.300781 227.027344 C 232.746094 227.460938 233.367188 227.675781 234.160156 227.675781 C 234.621094 227.675781 235.066406 227.617188 235.496094 227.507812 C 235.929688 227.394531 236.359375 227.222656 236.785156 226.996094 L 236.785156 228.132812 C 236.355469 228.3125 235.914062 228.453125 235.460938 228.546875 C 235.011719 228.644531 234.554688 228.691406 234.089844 228.691406 C 232.925781 228.691406 232.003906 228.351562 231.324219 227.675781 C 230.644531 227 230.304688 226.082031 230.304688 224.925781 C 230.304688 223.734375 230.628906 222.789062 231.273438 222.085938 C 231.917969 221.386719 232.785156 221.035156 233.882812 221.035156 C 234.863281 221.035156 235.636719 221.351562 236.207031 221.984375 C 236.777344 222.613281 237.066406 223.472656 237.066406 224.554688 Z M 235.867188 224.203125 C 235.859375 223.550781 235.675781 223.027344 235.316406 222.636719 C 234.957031 222.246094 234.484375 222.050781 233.894531 222.050781 C 233.226562 222.050781 232.691406 222.238281 232.289062 222.617188 C 231.886719 222.996094 231.65625 223.527344 231.597656 224.210938 Z M 235.867188 224.203125 "/>
<path style=" stroke:none;fill-rule:nonzero;fill:rgb(0%,0%,0%);fill-opacity:1;" d="M 238.171875 221.210938 L 239.441406 221.210938 L 241.71875 227.328125 L 244 221.210938 L 245.269531 221.210938 L 242.53125 228.503906 L 240.90625 228.503906 Z M 238.171875 221.210938 "/>
<path style=" stroke:none;fill-rule:nonzero;fill:rgb(0%,0%,0%);fill-opacity:1;" d="M 246.921875 221.210938 L 248.117188 221.210938 L 248.117188 228.503906 L 246.921875 228.503906 Z M 246.921875 218.371094 L 248.117188 218.371094 L 248.117188 219.890625 L 246.921875 219.890625 Z M 246.921875 218.371094 "/>
<path style=" stroke:none;fill-rule:nonzero;fill:rgb(0%,0%,0%);fill-opacity:1;" d="M 256.863281 224.554688 L 256.863281 225.140625 L 251.355469 225.140625 C 251.40625 225.964844 251.65625 226.59375 252.101562 227.027344 C 252.542969 227.460938 253.164062 227.675781 253.957031 227.675781 C 254.417969 227.675781 254.863281 227.617188 255.296875 227.507812 C 255.726562 227.394531 256.15625 227.222656 256.582031 226.996094 L 256.582031 228.132812 C 256.152344 228.3125 255.710938 228.453125 255.261719 228.546875 C 254.808594 228.644531 254.351562 228.691406 253.886719 228.691406 C 252.722656 228.691406 251.800781 228.351562 251.125 227.675781 C 250.445312 227 250.105469 226.082031 250.105469 224.925781 C 250.105469 223.734375 250.425781 222.789062 251.070312 222.085938 C 251.714844 221.386719 252.585938 221.035156 253.679688 221.035156 C 254.660156 221.035156 255.4375 221.351562 256.007812 221.984375 C 256.578125 222.613281 256.863281 223.472656 256.863281 224.554688 Z M 255.664062 224.203125 C 255.65625 223.550781 255.472656 223.027344 255.113281 222.636719 C 254.757812 222.246094 254.28125 222.050781 253.691406 222.050781 C 253.023438 222.050781 252.488281 222.238281 252.085938 222.617188 C 251.6875 222.996094 251.457031 223.527344 251.394531 224.210938 Z M 255.664062 224.203125 "/>
<path style=" stroke:none;fill-rule:nonzero;fill:rgb(0%,0%,0%);fill-opacity:1;" d="M 258.132812 221.210938 L 259.332031 221.210938 L 260.828125 226.898438 L 262.316406 221.210938 L 263.730469 221.210938 L 265.226562 226.898438 L 266.71875 221.210938 L 267.917969 221.210938 L 266.007812 228.503906 L 264.597656 228.503906 L 263.027344 222.523438 L 261.453125 228.503906 L 260.039062 228.503906 Z M 258.132812 221.210938 "/>
<path style="fill:none;stroke-width:0.8;stroke-linecap:butt;stroke-linejoin:round;stroke:rgb(0%,0%,0%);stroke-opacity:1;stroke-miterlimit:4;" d="M 0.000976562 0.000579834 L -3.5 0.000579834 " transform="matrix(1.333333,0,0,1.333333,71.104167,190.800008)"/>
<path style=" stroke:none;fill-rule:nonzero;fill:rgb(0%,0%,0%);fill-opacity:1;" d="M 57.523438 187.011719 C 56.847656 187.011719 56.339844 187.34375 55.996094 188.011719 C 55.65625 188.675781 55.488281 189.679688 55.488281 191.015625 C 55.488281 192.347656 55.65625 193.347656 55.996094 194.011719 C 56.339844 194.679688 56.847656 195.011719 57.523438 195.011719 C 58.207031 195.011719 58.71875 194.679688 59.058594 194.011719 C 59.398438 193.347656 59.570312 192.347656 59.570312 191.015625 C 59.570312 189.679688 59.398438 188.675781 59.058594 188.011719 C 58.71875 187.34375 58.207031 187.011719 57.523438 187.011719 Z M 57.523438 185.96875 C 58.617188 185.96875 59.449219 186.402344 60.023438 187.261719 C 60.597656 188.125 60.886719 189.375 60.886719 191.015625 C 60.886719 192.652344 60.597656 193.902344 60.023438 194.761719 C 59.449219 195.625 58.617188 196.054688 57.523438 196.054688 C 56.4375 196.054688 55.605469 195.625 55.027344 194.761719 C 54.453125 193.902344 54.167969 192.652344 54.167969 191.015625 C 54.167969 189.375 54.453125 188.125 55.027344 187.261719 C 55.605469 186.402344 56.4375 185.96875 57.523438 185.96875 Z M 57.523438 185.96875 "/>
<path style="fill:none;stroke-width:0.8;stroke-linecap:butt;stroke-linejoin:round;stroke:rgb(0%,0%,0%);stroke-opacity:1;stroke-miterlimit:4;" d="M 0.000976562 -0.000854492 L -3.5 -0.000854492 " transform="matrix(1.333333,0,0,1.333333,71.104167,140.192546)"/>
<path style=" stroke:none;fill-rule:nonzero;fill:rgb(0%,0%,0%);fill-opacity:1;" d="M 30.394531 144.152344 L 34.984375 144.152344 L 34.984375 145.257812 L 28.816406 145.257812 L 28.816406 144.152344 C 29.3125 143.636719 29.992188 142.941406 30.855469 142.074219 C 31.714844 141.203125 32.257812 140.640625 32.480469 140.386719 C 32.898438 139.914062 33.195312 139.515625 33.359375 139.1875 C 33.527344 138.859375 33.613281 138.539062 33.613281 138.21875 C 33.613281 137.703125 33.429688 137.28125 33.070312 136.957031 C 32.707031 136.632812 32.234375 136.46875 31.652344 136.46875 C 31.238281 136.46875 30.804688 136.539062 30.347656 136.683594 C 29.890625 136.828125 29.398438 137.042969 28.878906 137.335938 L 28.878906 136.007812 C 29.410156 135.792969 29.902344 135.632812 30.363281 135.523438 C 30.824219 135.417969 31.246094 135.363281 31.628906 135.363281 C 32.632812 135.363281 33.4375 135.613281 34.035156 136.117188 C 34.632812 136.621094 34.933594 137.292969 34.933594 138.136719 C 34.933594 138.535156 34.859375 138.914062 34.707031 139.273438 C 34.558594 139.628906 34.289062 140.050781 33.890625 140.539062 C 33.785156 140.664062 33.4375 141.027344 32.855469 141.628906 C 32.277344 142.230469 31.457031 143.070312 30.394531 144.152344 Z M 30.394531 144.152344 "/>
<path style=" stroke:none;fill-rule:nonzero;fill:rgb(0%,0%,0%);fill-opacity:1;" d="M 40.558594 136.402344 C 39.882812 136.402344 39.371094 136.738281 39.03125 137.402344 C 38.691406 138.070312 38.519531 139.070312 38.519531 140.40625 C 38.519531 141.738281 38.691406 142.738281 39.03125 143.40625 C 39.371094 144.074219 39.882812 144.40625 40.558594 144.40625 C 41.238281 144.40625 41.75 144.074219 42.089844 143.40625 C 42.433594 142.738281 42.605469 141.738281 42.605469 140.40625 C 42.605469 139.070312 42.433594 138.070312 42.089844 137.402344 C 41.75 136.738281 41.238281 136.402344 40.558594 136.402344 Z M 40.558594 135.363281 C 41.648438 135.363281 42.480469 135.792969 43.054688 136.65625 C 43.632812 137.515625 43.917969 138.769531 43.917969 140.40625 C 43.917969 142.042969 43.632812 143.292969 43.054688 144.15625 C 42.480469 145.015625 41.648438 145.449219 40.558594 145.449219 C 39.46875 145.449219 38.636719 145.015625 38.0625 144.15625 C 37.488281 143.292969 37.199219 142.042969 37.199219 140.40625 C 37.199219 138.769531 37.488281 137.515625 38.0625 136.65625 C 38.636719 135.792969 39.46875 135.363281 40.558594 135.363281 Z M 40.558594 135.363281 "/>
<path style=" stroke:none;fill-rule:nonzero;fill:rgb(0%,0%,0%);fill-opacity:1;" d="M 49.042969 136.402344 C 48.363281 136.402344 47.855469 136.738281 47.515625 137.402344 C 47.171875 138.070312 47.003906 139.070312 47.003906 140.40625 C 47.003906 141.738281 47.171875 142.738281 47.515625 143.40625 C 47.855469 144.074219 48.363281 144.40625 49.042969 144.40625 C 49.722656 144.40625 50.234375 144.074219 50.574219 143.40625 C 50.917969 142.738281 51.085938 141.738281 51.085938 140.40625 C 51.085938 139.070312 50.917969 138.070312 50.574219 137.402344 C 50.234375 136.738281 49.722656 136.402344 49.042969 136.402344 Z M 49.042969 135.363281 C 50.132812 135.363281 50.964844 135.792969 51.539062 136.65625 C 52.113281 137.515625 52.402344 138.769531 52.402344 140.40625 C 52.402344 142.042969 52.113281 143.292969 51.539062 144.15625 C 50.964844 145.015625 50.132812 145.449219 49.042969 145.449219 C 47.953125 145.449219 47.121094 145.015625 46.546875 144.15625 C 45.96875 143.292969 45.683594 142.042969 45.683594 140.40625 C 45.683594 138.769531 45.96875 137.515625 46.546875 136.65625 C 47.121094 135.792969 47.953125 135.363281 49.042969 135.363281 Z M 49.042969 135.363281 "/>
<path style=" stroke:none;fill-rule:nonzero;fill:rgb(0%,0%,0%);fill-opacity:1;" d="M 57.523438 136.402344 C 56.847656 136.402344 56.339844 136.738281 55.996094 137.402344 C 55.65625 138.070312 55.488281 139.070312 55.488281 140.40625 C 55.488281 141.738281 55.65625 142.738281 55.996094 143.40625 C 56.339844 144.074219 56.847656 144.40625 57.523438 144.40625 C 58.207031 144.40625 58.71875 144.074219 59.058594 143.40625 C 59.398438 142.738281 59.570312 141.738281 59.570312 140.40625 C 59.570312 139.070312 59.398438 138.070312 59.058594 137.402344 C 58.71875 136.738281 58.207031 136.402344 57.523438 136.402344 Z M 57.523438 135.363281 C 58.613281 135.363281 59.445312 135.792969 60.023438 136.65625 C 60.597656 137.515625 60.882812 138.769531 60.882812 140.40625 C 60.882812 142.042969 60.597656 143.292969 60.023438 144.15625 C 59.445312 145.015625 58.613281 145.449219 57.523438 145.449219 C 56.433594 145.449219 55.601562 145.015625 55.027344 144.15625 C 54.453125 143.292969 54.164062 142.042969 54.164062 140.40625 C 54.164062 138.769531 54.453125 137.515625 55.027344 136.65625 C 55.601562 135.792969 56.433594 135.363281 57.523438 135.363281 Z M 57.523438 135.363281 "/>
<path style="fill:none;stroke-width:0.8;stroke-linecap:butt;stroke-linejoin:round;stroke:rgb(0%,0%,0%);stroke-opacity:1;stroke-miterlimit:4;" d="M 0.000976562 0.000640869 L -3.5 0.000640869 " transform="matrix(1.333333,0,0,1.333333,71.104167,89.585083)"/>
<path style=" stroke:none;fill-rule:nonzero;fill:rgb(0%,0%,0%);fill-opacity:1;" d="M 32.878906 86.074219 L 29.554688 91.265625 L 32.878906 91.265625 Z M 32.53125 84.929688 L 34.183594 84.929688 L 34.183594 91.265625 L 35.574219 91.265625 L 35.574219 92.359375 L 34.183594 92.359375 L 34.183594 94.652344 L 32.878906 94.652344 L 32.878906 92.359375 L 28.488281 92.359375 L 28.488281 91.089844 Z M 32.53125 84.929688 "/>
<path style=" stroke:none;fill-rule:nonzero;fill:rgb(0%,0%,0%);fill-opacity:1;" d="M 40.558594 85.796875 C 39.882812 85.796875 39.371094 86.128906 39.03125 86.796875 C 38.691406 87.460938 38.519531 88.464844 38.519531 89.800781 C 38.519531 91.132812 38.691406 92.132812 39.03125 92.796875 C 39.371094 93.464844 39.882812 93.796875 40.558594 93.796875 C 41.238281 93.796875 41.75 93.464844 42.089844 92.796875 C 42.433594 92.132812 42.605469 91.132812 42.605469 89.800781 C 42.605469 88.464844 42.433594 87.460938 42.089844 86.796875 C 41.75 86.128906 41.238281 85.796875 40.558594 85.796875 Z M 40.558594 84.753906 C 41.648438 84.753906 42.480469 85.1875 43.054688 86.046875 C 43.632812 86.910156 43.917969 88.160156 43.917969 89.800781 C 43.917969 91.4375 43.632812 92.6875 43.054688 93.546875 C 42.480469 94.410156 41.648438 94.839844 40.558594 94.839844 C 39.46875 94.839844 38.636719 94.410156 38.0625 93.546875 C 37.488281 92.6875 37.199219 91.4375 37.199219 89.800781 C 37.199219 88.160156 37.488281 86.910156 38.0625 86.046875 C 38.636719 85.1875 39.46875 84.753906 40.558594 84.753906 Z M 40.558594 84.753906 "/>
<path style=" stroke:none;fill-rule:nonzero;fill:rgb(0%,0%,0%);fill-opacity:1;" d="M 49.042969 85.796875 C 48.363281 85.796875 47.855469 86.128906 47.515625 86.796875 C 47.171875 87.460938 47.003906 88.464844 47.003906 89.800781 C 47.003906 91.132812 47.171875 92.132812 47.515625 92.796875 C 47.855469 93.464844 48.363281 93.796875 49.042969 93.796875 C 49.722656 93.796875 50.234375 93.464844 50.574219 92.796875 C 50.917969 92.132812 51.085938 91.132812 51.085938 89.800781 C 51.085938 88.464844 50.917969 87.460938 50.574219 86.796875 C 50.234375 86.128906 49.722656 85.796875 49.042969 85.796875 Z M 49.042969 84.753906 C 50.132812 84.753906 50.964844 85.1875 51.539062 86.046875 C 52.113281 86.910156 52.402344 88.160156 52.402344 89.800781 C 52.402344 91.4375 52.113281 92.6875 51.539062 93.546875 C 50.964844 94.410156 50.132812 94.839844 49.042969 94.839844 C 47.953125 94.839844 47.121094 94.410156 46.546875 93.546875 C 45.96875 92.6875 45.683594 91.4375 45.683594 89.800781 C 45.683594 88.160156 45.96875 86.910156 46.546875 86.046875 C 47.121094 85.1875 47.953125 84.753906 49.042969 84.753906 Z M 49.042969 84.753906 "/>
<path style=" stroke:none;fill-rule:nonzero;fill:rgb(0%,0%,0%);fill-opacity:1;" d="M 57.523438 85.796875 C 56.847656 85.796875 56.339844 86.128906 55.996094 86.796875 C 55.65625 87.460938 55.488281 88.464844 55.488281 89.800781 C 55.488281 91.132812 55.65625 92.132812 55.996094 92.796875 C 56.339844 93.464844 56.847656 93.796875 57.523438 93.796875 C 58.207031 93.796875 58.71875 93.464844 59.058594 92.796875 C 59.398438 92.132812 59.570312 91.132812 59.570312 89.800781 C 59.570312 88.464844 59.398438 87.460938 59.058594 86.796875 C 58.71875 86.128906 58.207031 85.796875 57.523438 85.796875 Z M 57.523438 84.753906 C 58.613281 84.753906 59.445312 85.1875 60.023438 86.046875 C 60.597656 86.910156 60.882812 88.160156 60.882812 89.800781 C 60.882812 91.4375 60.597656 92.6875 60.023438 93.546875 C 59.445312 94.410156 58.613281 94.839844 57.523438 94.839844 C 56.433594 94.839844 55.601562 94.410156 55.027344 93.546875 C 54.453125 92.6875 54.164062 91.4375 54.164062 89.800781 C 54.164062 88.160156 54.453125 86.910156 55.027344 86.046875 C 55.601562 85.1875 56.433594 84.753906 57.523438 84.753906 Z M 57.523438 84.753906 "/>
<path style="fill:none;stroke-width:0.8;stroke-linecap:butt;stroke-linejoin:round;stroke:rgb(0%,0%,0%);stroke-opacity:1;stroke-miterlimit:4;" d="M 0.000976562 -0.000799179 L -3.5 -0.000799179 " transform="matrix(1.333333,0,0,1.333333,71.104167,38.977628)"/>
<path style=" stroke:none;fill-rule:nonzero;fill:rgb(0%,0%,0%);fill-opacity:1;" d="M 32.238281 38.660156 C 31.648438 38.660156 31.179688 38.863281 30.835938 39.265625 C 30.492188 39.667969 30.320312 40.222656 30.320312 40.925781 C 30.320312 41.625 30.492188 42.175781 30.835938 42.582031 C 31.179688 42.988281 31.648438 43.191406 32.238281 43.191406 C 32.828125 43.191406 33.296875 42.988281 33.640625 42.582031 C 33.984375 42.175781 34.160156 41.625 34.160156 40.925781 C 34.160156 40.222656 33.984375 39.667969 33.640625 39.265625 C 33.296875 38.863281 32.828125 38.660156 32.238281 38.660156 Z M 34.851562 34.535156 L 34.851562 35.734375 C 34.519531 35.578125 34.1875 35.460938 33.851562 35.378906 C 33.515625 35.296875 33.179688 35.253906 32.851562 35.253906 C 31.980469 35.253906 31.320312 35.546875 30.859375 36.132812 C 30.402344 36.71875 30.140625 37.605469 30.078125 38.789062 C 30.332031 38.410156 30.652344 38.121094 31.039062 37.921875 C 31.425781 37.71875 31.851562 37.617188 32.316406 37.617188 C 33.292969 37.617188 34.066406 37.914062 34.632812 38.507812 C 35.199219 39.097656 35.480469 39.90625 35.480469 40.925781 C 35.480469 41.921875 35.1875 42.722656 34.597656 43.328125 C 34.003906 43.929688 33.21875 44.234375 32.238281 44.234375 C 31.113281 44.234375 30.253906 43.800781 29.660156 42.941406 C 29.066406 42.078125 28.769531 40.828125 28.769531 39.191406 C 28.769531 37.65625 29.132812 36.433594 29.863281 35.519531 C 30.589844 34.605469 31.570312 34.148438 32.796875 34.148438 C 33.128906 34.148438 33.460938 34.179688 33.796875 34.246094 C 34.132812 34.3125 34.484375 34.40625 34.851562 34.535156 Z M 34.851562 34.535156 "/>
<path style=" stroke:none;fill-rule:nonzero;fill:rgb(0%,0%,0%);fill-opacity:1;" d="M 40.558594 35.1875 C 39.882812 35.1875 39.371094 35.523438 39.03125 36.1875 C 38.691406 36.855469 38.519531 37.855469 38.519531 39.191406 C 38.519531 40.523438 38.691406 41.523438 39.03125 42.191406 C 39.371094 42.859375 39.882812 43.191406 40.558594 43.191406 C 41.238281 43.191406 41.75 42.859375 42.089844 42.191406 C 42.433594 41.523438 42.605469 40.523438 42.605469 39.191406 C 42.605469 37.855469 42.433594 36.855469 42.089844 36.1875 C 41.75 35.523438 41.238281 35.1875 40.558594 35.1875 Z M 40.558594 34.148438 C 41.648438 34.148438 42.480469 34.578125 43.054688 35.441406 C 43.632812 36.300781 43.917969 37.554688 43.917969 39.191406 C 43.917969 40.828125 43.632812 42.078125 43.054688 42.941406 C 42.480469 43.800781 41.648438 44.234375 40.558594 44.234375 C 39.46875 44.234375 38.636719 43.800781 38.0625 42.941406 C 37.488281 42.078125 37.199219 40.828125 37.199219 39.191406 C 37.199219 37.554688 37.488281 36.300781 38.0625 35.441406 C 38.636719 34.578125 39.46875 34.148438 40.558594 34.148438 Z M 40.558594 34.148438 "/>
<path style=" stroke:none;fill-rule:nonzero;fill:rgb(0%,0%,0%);fill-opacity:1;" d="M 49.042969 35.1875 C 48.363281 35.1875 47.855469 35.523438 47.515625 36.1875 C 47.171875 36.855469 47.003906 37.855469 47.003906 39.191406 C 47.003906 40.523438 47.171875 41.523438 47.515625 42.191406 C 47.855469 42.859375 48.363281 43.191406 49.042969 43.191406 C 49.722656 43.191406 50.234375 42.859375 50.574219 42.191406 C 50.917969 41.523438 51.085938 40.523438 51.085938 39.191406 C 51.085938 37.855469 50.917969 36.855469 50.574219 36.1875 C 50.234375 35.523438 49.722656 35.1875 49.042969 35.1875 Z M 49.042969 34.148438 C 50.132812 34.148438 50.964844 34.578125 51.539062 35.441406 C 52.113281 36.300781 52.402344 37.554688 52.402344 39.191406 C 52.402344 40.828125 52.113281 42.078125 51.539062 42.941406 C 50.964844 43.800781 50.132812 44.234375 49.042969 44.234375 C 47.953125 44.234375 47.121094 43.800781 46.546875 42.941406 C 45.96875 42.078125 45.683594 40.828125 45.683594 39.191406 C 45.683594 37.554688 45.96875 36.300781 46.546875 35.441406 C 47.121094 34.578125 47.953125 34.148438 49.042969 34.148438 Z M 49.042969 34.148438 "/>
<path style=" stroke:none;fill-rule:nonzero;fill:rgb(0%,0%,0%);fill-opacity:1;" d="M 57.523438 35.1875 C 56.847656 35.1875 56.339844 35.523438 55.996094 36.1875 C 55.65625 36.855469 55.488281 37.855469 55.488281 39.191406 C 55.488281 40.523438 55.65625 41.523438 55.996094 42.191406 C 56.339844 42.859375 56.847656 43.191406 57.523438 43.191406 C 58.207031 43.191406 58.71875 42.859375 59.058594 42.191406 C 59.398438 41.523438 59.570312 40.523438 59.570312 39.191406 C 59.570312 37.855469 59.398438 36.855469 59.058594 36.1875 C 58.71875 35.523438 58.207031 35.1875 57.523438 35.1875 Z M 57.523438 34.148438 C 58.613281 34.148438 59.445312 34.578125 60.023438 35.441406 C 60.597656 36.300781 60.882812 37.554688 60.882812 39.191406 C 60.882812 40.828125 60.597656 42.078125 60.023438 42.941406 C 59.445312 43.800781 58.613281 44.234375 57.523438 44.234375 C 56.433594 44.234375 55.601562 43.800781 55.027344 42.941406 C 54.453125 42.078125 54.164062 40.828125 54.164062 39.191406 C 54.164062 37.554688 54.453125 36.300781 55.027344 35.441406 C 55.601562 34.578125 56.433594 34.148438 57.523438 34.148438 Z M 57.523438 34.148438 "/>
<path style=" stroke:none;fill-rule:nonzero;fill:rgb(0%,0%,0%);fill-opacity:1;" d="M 12.71875 112.503906 L 13.839844 112.503906 C 13.652344 112.84375 13.511719 113.183594 13.417969 113.523438 C 13.324219 113.863281 13.277344 114.207031 13.277344 114.554688 C 13.277344 115.332031 13.527344 115.9375 14.019531 116.367188 C 14.511719 116.796875 15.203125 117.011719 16.089844 117.011719 C 16.980469 117.011719 17.671875 116.796875 18.167969 116.367188 C 18.660156 115.9375 18.902344 115.332031 18.902344 114.554688 C 18.902344 114.207031 18.859375 113.863281 18.765625 113.523438 C 18.671875 113.183594 18.53125 112.84375 18.34375 112.503906 L 19.453125 112.503906 C 19.609375 112.839844 19.722656 113.183594 19.800781 113.542969 C 19.882812 113.902344 19.921875 114.28125 19.921875 114.683594 C 19.921875 115.785156 19.574219 116.65625 18.886719 117.304688 C 18.195312 117.949219 17.265625 118.273438 16.089844 118.273438 C 14.902344 118.273438 13.96875 117.945312 13.289062 117.292969 C 12.605469 116.640625 12.265625 115.742188 12.265625 114.605469 C 12.265625 114.238281 12.304688 113.878906 12.378906 113.527344 C 12.453125 113.175781 12.566406 112.835938 12.71875 112.503906 Z M 12.71875 112.503906 "/>
<path style=" stroke:none;fill-rule:nonzero;fill:rgb(0%,0%,0%);fill-opacity:1;" d="M 13.277344 107.597656 C 13.277344 108.238281 13.53125 108.746094 14.03125 109.121094 C 14.53125 109.492188 15.21875 109.679688 16.089844 109.679688 C 16.964844 109.679688 17.652344 109.496094 18.152344 109.125 C 18.652344 108.75 18.902344 108.242188 18.902344 107.597656 C 18.902344 106.957031 18.652344 106.453125 18.148438 106.078125 C 17.644531 105.707031 16.960938 105.519531 16.089844 105.519531 C 15.226562 105.519531 14.542969 105.707031 14.039062 106.078125 C 13.53125 106.453125 13.277344 106.957031 13.277344 107.597656 Z M 12.265625 107.597656 C 12.265625 106.554688 12.601562 105.738281 13.28125 105.140625 C 13.957031 104.546875 14.894531 104.25 16.089844 104.25 C 17.285156 104.25 18.222656 104.546875 18.902344 105.140625 C 19.582031 105.738281 19.921875 106.554688 19.921875 107.597656 C 19.921875 108.640625 19.582031 109.460938 18.902344 110.054688 C 18.222656 110.644531 17.285156 110.941406 16.089844 110.941406 C 14.894531 110.941406 13.957031 110.644531 13.28125 110.054688 C 12.601562 109.460938 12.265625 108.640625 12.265625 107.597656 Z M 12.265625 107.597656 "/>
<path style=" stroke:none;fill-rule:nonzero;fill:rgb(0%,0%,0%);fill-opacity:1;" d="M 16.855469 102.386719 L 12.441406 102.386719 L 12.441406 101.1875 L 16.808594 101.1875 C 17.5 101.1875 18.015625 101.054688 18.363281 100.785156 C 18.707031 100.515625 18.878906 100.113281 18.878906 99.574219 C 18.878906 98.929688 18.671875 98.417969 18.261719 98.042969 C 17.847656 97.667969 17.285156 97.476562 16.574219 97.476562 L 12.441406 97.476562 L 12.441406 96.28125 L 19.730469 96.28125 L 19.730469 97.476562 L 18.609375 97.476562 C 19.054688 97.769531 19.382812 98.105469 19.597656 98.492188 C 19.8125 98.875 19.921875 99.320312 19.921875 99.828125 C 19.921875 100.664062 19.660156 101.300781 19.140625 101.738281 C 18.617188 102.171875 17.855469 102.386719 16.855469 102.386719 Z M 12.265625 99.371094 Z M 12.265625 99.371094 "/>
<path style=" stroke:none;fill-rule:nonzero;fill:rgb(0%,0%,0%);fill-opacity:1;" d="M 15.328125 87.75 L 19.730469 87.75 L 19.730469 88.949219 L 15.367188 88.949219 C 14.679688 88.949219 14.164062 89.082031 13.820312 89.351562 C 13.476562 89.621094 13.304688 90.027344 13.304688 90.5625 C 13.304688 91.210938 13.511719 91.722656 13.925781 92.09375 C 14.335938 92.46875 14.898438 92.65625 15.609375 92.65625 L 19.730469 92.65625 L 19.730469 93.859375 L 12.441406 93.859375 L 12.441406 92.65625 L 13.574219 92.65625 C 13.132812 92.367188 12.804688 92.03125 12.589844 91.640625 C 12.371094 91.253906 12.265625 90.804688 12.265625 90.296875 C 12.265625 89.460938 12.523438 88.824219 13.042969 88.398438 C 13.558594 87.964844 14.320312 87.75 15.328125 87.75 Z M 15.328125 87.75 "/>
<path style=" stroke:none;fill-rule:nonzero;fill:rgb(0%,0%,0%);fill-opacity:1;" d="M 10.367188 84.175781 L 12.441406 84.175781 L 12.441406 81.710938 L 13.371094 81.710938 L 13.371094 84.175781 L 17.328125 84.175781 C 17.921875 84.175781 18.304688 84.097656 18.476562 83.933594 C 18.644531 83.769531 18.730469 83.441406 18.730469 82.941406 L 18.730469 81.710938 L 19.730469 81.710938 L 19.730469 82.941406 C 19.730469 83.863281 19.558594 84.503906 19.214844 84.855469 C 18.867188 85.207031 18.242188 85.382812 17.328125 85.382812 L 13.371094 85.382812 L 13.371094 86.261719 L 12.441406 86.261719 L 12.441406 85.382812 L 10.367188 85.382812 Z M 10.367188 84.175781 "/>
<path style="fill:none;stroke-width:0.8;stroke-linecap:square;stroke-linejoin:miter;stroke:rgb(0%,0%,0%);stroke-opacity:1;stroke-miterlimit:4;" d="M 53.329102 143.100586 L 53.329102 7.201172 " transform="matrix(1.333333,0,0,1.333333,0.000000000000028422,0)"/>
<path style="fill:none;stroke-width:0.8;stroke-linecap:square;stroke-linejoin:miter;stroke:rgb(0%,0%,0%);stroke-opacity:1;stroke-miterlimit:4;" d="M 248.62793 143.100586 L 248.62793 7.201172 " transform="matrix(1.333333,0,0,1.333333,0.000000000000028422,0)"/>
<path style="fill:none;stroke-width:0.8;stroke-linecap:square;stroke-linejoin:miter;stroke:rgb(0%,0%,0%);stroke-opacity:1;stroke-miterlimit:4;" d="M 53.329102 143.100586 L 248.62793 143.100586 " transform="matrix(1.333333,0,0,1.333333,0.000000000000028422,0)"/>
<path style="fill:none;stroke-width:0.8;stroke-linecap:square;stroke-linejoin:miter;stroke:rgb(0%,0%,0%);stroke-opacity:1;stroke-miterlimit:4;" d="M 53.329102 7.201172 L 248.62793 7.201172 " transform="matrix(1.333333,0,0,1.333333,0.000000000000028422,0)"/>
</g>
</svg>
