<?xml version="1.0" encoding="UTF-8"?>
<svg xmlns="http://www.w3.org/2000/svg" xmlns:xlink="http://www.w3.org/1999/xlink" width="349.587484" height="242.737386" viewBox="0 0 349.587484 242.737386" version="1.1">
<defs>
<clipPath id="clip1">
  <path d="M 91 164 L 102 164 L 102 192.664062 L 91 192.664062 Z M 91 164 "/>
</clipPath>
<clipPath id="clip2">
  <path d="M 115 114 L 126 114 L 126 192.664062 L 115 192.664062 Z M 115 114 "/>
</clipPath>
<clipPath id="clip3">
  <path d="M 139 102 L 150 102 L 150 192.664062 L 139 192.664062 Z M 139 102 "/>
</clipPath>
<clipPath id="clip4">
  <path d="M 163 128 L 174 128 L 174 192.664062 L 163 192.664062 Z M 163 128 "/>
</clipPath>
<clipPath id="clip5">
  <path d="M 188 165 L 198 165 L 198 192.664062 L 188 192.664062 Z M 188 165 "/>
</clipPath>
<clipPath id="clip6">
  <path d="M 212 183 L 222 183 L 222 192.664062 L 212 192.664062 Z M 212 183 "/>
</clipPath>
<clipPath id="clip7">
  <path d="M 236 190 L 247 190 L 247 192.664062 L 236 192.664062 Z M 236 190 "/>
</clipPath>
<clipPath id="clip8">
  <path d="M 260 192 L 271 192 L 271 192.664062 L 260 192.664062 Z M 260 192 "/>
</clipPath>
<clipPath id="clip9">
  <path d="M 284 192 L 295 192 L 295 192.664062 L 284 192.664062 Z M 284 192 "/>
</clipPath>
<clipPath id="clip10">
  <path d="M 308 192 L 319 192 L 319 192.664062 L 308 192.664062 Z M 308 192 "/>
</clipPath>
<clipPath id="clip11">
  <path d="M 101 20 L 111 20 L 111 192.664062 L 101 192.664062 Z M 101 20 "/>
</clipPath>
<clipPath id="clip12">
  <rect x="0" y="0" width="96" height="96"/>
</clipPath>
<g id="surface5" clip-path="url(#clip12)">
<rect x="0" y="0" width="96" height="96" style="fill:rgb(100%,49.803922%,5.490196%);fill-opacity:1;stroke:none;"/>
<path style="fill-rule:nonzero;fill:rgb(0%,0%,0%);fill-opacity:1;stroke-width:1;stroke-linecap:butt;stroke-linejoin:miter;stroke:rgb(0%,0%,0%);stroke-opacity:1;stroke-miterlimit:4;" d="M -36 36 L 36 -36 M -24 48 L 48 -24 M -12 60 L 60 -12 M 0 72 L 72 0 M 12 84 L 84 12 M 24 96 L 96 24 M 36 108 L 108 36 " transform="matrix(1.333333,0,0,1.333333,0,0)"/>
</g>
<pattern id="pattern0" patternUnits="userSpaceOnUse" width="96" height="96" patternTransform="matrix(1,0,0,1,0,0.000000000000014211)">
<use xlink:href="#surface5"/>
</pattern>
<clipPath id="clip13">
  <path d="M 125 79 L 135 79 L 135 192.664062 L 125 192.664062 Z M 125 79 "/>
</clipPath>
<clipPath id="clip14">
  <rect x="0" y="0" width="96" height="96"/>
</clipPath>
<g id="surface8" clip-path="url(#clip14)">
<rect x="0" y="0" width="96" height="96" style="fill:rgb(100%,49.803922%,5.490196%);fill-opacity:1;stroke:none;"/>
<path style="fill-rule:nonzero;fill:rgb(0%,0%,0%);fill-opacity:1;stroke-width:1;stroke-linecap:butt;stroke-linejoin:miter;stroke:rgb(0%,0%,0%);stroke-opacity:1;stroke-miterlimit:4;" d="M -36 36 L 36 -36 M -24 48 L 48 -24 M -12 60 L 60 -12 M 0 72 L 72 0 M 12 84 L 84 12 M 24 96 L 96 24 M 36 108 L 108 36 " transform="matrix(1.333333,0,0,1.333333,0,0)"/>
</g>
<pattern id="pattern1" patternUnits="userSpaceOnUse" width="96" height="96" patternTransform="matrix(1,0,0,1,0,0.000000000000014211)">
<use xlink:href="#surface8"/>
</pattern>
<clipPath id="clip15">
  <path d="M 149 179 L 160 179 L 160 192.664062 L 149 192.664062 Z M 149 179 "/>
</clipPath>
<clipPath id="clip16">
  <rect x="0" y="0" width="96" height="96"/>
</clipPath>
<g id="surface11" clip-path="url(#clip16)">
<rect x="0" y="0" width="96" height="96" style="fill:rgb(100%,49.803922%,5.490196%);fill-opacity:1;stroke:none;"/>
<path style="fill-rule:nonzero;fill:rgb(0%,0%,0%);fill-opacity:1;stroke-width:1;stroke-linecap:butt;stroke-linejoin:miter;stroke:rgb(0%,0%,0%);stroke-opacity:1;stroke-miterlimit:4;" d="M -36 36 L 36 -36 M -24 48 L 48 -24 M -12 60 L 60 -12 M 0 72 L 72 0 M 12 84 L 84 12 M 24 96 L 96 24 M 36 108 L 108 36 " transform="matrix(1.333333,0,0,1.333333,0,0)"/>
</g>
<pattern id="pattern2" patternUnits="userSpaceOnUse" width="96" height="96" patternTransform="matrix(1,0,0,1,0,0.000000000000014211)">
<use xlink:href="#surface11"/>
</pattern>
<clipPath id="clip17">
  <path d="M 173 191 L 184 191 L 184 192.664062 L 173 192.664062 Z M 173 191 "/>
</clipPath>
<clipPath id="clip18">
  <rect x="0" y="0" width="96" height="96"/>
</clipPath>
<g id="surface14" clip-path="url(#clip18)">
<rect x="0" y="0" width="96" height="96" style="fill:rgb(100%,49.803922%,5.490196%);fill-opacity:1;stroke:none;"/>
<path style="fill-rule:nonzero;fill:rgb(0%,0%,0%);fill-opacity:1;stroke-width:1;stroke-linecap:butt;stroke-linejoin:miter;stroke:rgb(0%,0%,0%);stroke-opacity:1;stroke-miterlimit:4;" d="M -36 36 L 36 -36 M -24 48 L 48 -24 M -12 60 L 60 -12 M 0 72 L 72 0 M 12 84 L 84 12 M 24 96 L 96 24 M 36 108 L 108 36 " transform="matrix(1.333333,0,0,1.333333,0,0)"/>
</g>
<pattern id="pattern3" patternUnits="userSpaceOnUse" width="96" height="96" patternTransform="matrix(1,0,0,1,0,0.000000000000014211)">
<use xlink:href="#surface14"/>
</pattern>
<clipPath id="clip19">
  <path d="M 197 192 L 208 192 L 208 192.664062 L 197 192.664062 Z M 197 192 "/>
</clipPath>
<clipPath id="clip20">
  <rect x="0" y="0" width="96" height="96"/>
</clipPath>
<g id="surface17" clip-path="url(#clip20)">
<rect x="0" y="0" width="96" height="96" style="fill:rgb(100%,49.803922%,5.490196%);fill-opacity:1;stroke:none;"/>
<path style="fill-rule:nonzero;fill:rgb(0%,0%,0%);fill-opacity:1;stroke-width:1;stroke-linecap:butt;stroke-linejoin:miter;stroke:rgb(0%,0%,0%);stroke-opacity:1;stroke-miterlimit:4;" d="M -36 36 L 36 -36 M -24 48 L 48 -24 M -12 60 L 60 -12 M 0 72 L 72 0 M 12 84 L 84 12 M 24 96 L 96 24 M 36 108 L 108 36 " transform="matrix(1.333333,0,0,1.333333,0,0)"/>
</g>
<pattern id="pattern4" patternUnits="userSpaceOnUse" width="96" height="96" patternTransform="matrix(1,0,0,1,0,0.000000000000014211)">
<use xlink:href="#surface17"/>
</pattern>
<clipPath id="clip21">
  <path d="M 221 192 L 232 192 L 232 192.664062 L 221 192.664062 Z M 221 192 "/>
</clipPath>
<clipPath id="clip22">
  <rect x="0" y="0" width="96" height="96"/>
</clipPath>
<g id="surface20" clip-path="url(#clip22)">
<rect x="0" y="0" width="96" height="96" style="fill:rgb(100%,49.803922%,5.490196%);fill-opacity:1;stroke:none;"/>
<path style="fill-rule:nonzero;fill:rgb(0%,0%,0%);fill-opacity:1;stroke-width:1;stroke-linecap:butt;stroke-linejoin:miter;stroke:rgb(0%,0%,0%);stroke-opacity:1;stroke-miterlimit:4;" d="M -36 36 L 36 -36 M -24 48 L 48 -24 M -12 60 L 60 -12 M 0 72 L 72 0 M 12 84 L 84 12 M 24 96 L 96 24 M 36 108 L 108 36 " transform="matrix(1.333333,0,0,1.333333,0,0)"/>
</g>
<pattern id="pattern5" patternUnits="userSpaceOnUse" width="96" height="96" patternTransform="matrix(1,0,0,1,0,0.000000000000014211)">
<use xlink:href="#surface20"/>
</pattern>
<filter id="alpha" filterUnits="objectBoundingBox" x="0%" y="0%" width="100%" height="100%">
  <feColorMatrix type="matrix" in="SourceGraphic" values="0 0 0 0 1 0 0 0 0 1 0 0 0 0 1 0 0 0 1 0"/>
</filter>
<mask id="mask0">
  <g filter="url(#alpha)">
<rect x="0" y="0" width="349.587484" height="242.737386" style="fill:rgb(0%,0%,0%);fill-opacity:0.8;stroke:none;"/>
  </g>
</mask>
<clipPath id="clip23">
  <rect x="0" y="0" width="350" height="243"/>
</clipPath>
<g id="surface23" clip-path="url(#clip23)">
<path style="fill-rule:nonzero;fill:rgb(100%,100%,100%);fill-opacity:1;stroke-width:1;stroke-linecap:butt;stroke-linejoin:miter;stroke:rgb(80.000001%,80.000001%,80.000001%);stroke-opacity:1;stroke-miterlimit:4;" d="M 155.387695 45.952148 L 247.989258 45.952148 C 249.325195 45.952148 249.990234 45.287109 249.990234 43.954102 L 249.990234 15.597656 C 249.990234 14.264648 249.325195 13.59668 247.989258 13.59668 L 155.387695 13.59668 C 154.054688 13.59668 153.389648 14.264648 153.389648 15.597656 L 153.389648 43.954102 C 153.389648 45.287109 154.054688 45.952148 155.387695 45.952148 Z M 155.387695 45.952148 " transform="matrix(1.333333,0,0,1.333333,0,0.000000000000014211)"/>
</g>
<clipPath id="clip24">
  <rect x="0" y="0" width="96" height="96"/>
</clipPath>
<g id="surface26" clip-path="url(#clip24)">
<rect x="0" y="0" width="96" height="96" style="fill:rgb(100%,49.803922%,5.490196%);fill-opacity:1;stroke:none;"/>
<path style="fill-rule:nonzero;fill:rgb(0%,0%,0%);fill-opacity:1;stroke-width:1;stroke-linecap:butt;stroke-linejoin:miter;stroke:rgb(0%,0%,0%);stroke-opacity:1;stroke-miterlimit:4;" d="M -36 36 L 36 -36 M -24 48 L 48 -24 M -12 60 L 60 -12 M 0 72 L 72 0 M 12 84 L 84 12 M 24 96 L 96 24 M 36 108 L 108 36 " transform="matrix(1.333333,0,0,1.333333,0,0)"/>
</g>
<pattern id="pattern6" patternUnits="userSpaceOnUse" width="96" height="96" patternTransform="matrix(1,0,0,1,0,0.000000000000014211)">
<use xlink:href="#surface26"/>
</pattern>
</defs>
<g id="surface1">
<path style=" stroke:none;fill-rule:nonzero;fill:rgb(100%,100%,100%);fill-opacity:1;" d="M 79.585938 192.664062 L 339.988281 192.664062 L 339.988281 11.460938 L 79.585938 11.460938 Z M 79.585938 192.664062 "/>
<g clip-path="url(#clip1)" clip-rule="nonzero">
<path style=" stroke:none;fill-rule:nonzero;fill:rgb(12.156863%,46.666667%,70.588237%);fill-opacity:1;" d="M 91.425781 192.664062 L 101.085938 192.664062 L 101.085938 164.433594 L 91.425781 164.433594 Z M 91.425781 192.664062 "/>
</g>
<g clip-path="url(#clip2)" clip-rule="nonzero">
<path style=" stroke:none;fill-rule:nonzero;fill:rgb(12.156863%,46.666667%,70.588237%);fill-opacity:1;" d="M 115.578125 192.664062 L 125.242188 192.664062 L 125.242188 114.394531 L 115.578125 114.394531 Z M 115.578125 192.664062 "/>
</g>
<g clip-path="url(#clip3)" clip-rule="nonzero">
<path style=" stroke:none;fill-rule:nonzero;fill:rgb(12.156863%,46.666667%,70.588237%);fill-opacity:1;" d="M 139.734375 192.664062 L 149.398438 192.664062 L 149.398438 102.238281 L 139.734375 102.238281 Z M 139.734375 192.664062 "/>
</g>
<g clip-path="url(#clip4)" clip-rule="nonzero">
<path style=" stroke:none;fill-rule:nonzero;fill:rgb(12.156863%,46.666667%,70.588237%);fill-opacity:1;" d="M 163.890625 192.664062 L 173.554688 192.664062 L 173.554688 128.65625 L 163.890625 128.65625 Z M 163.890625 192.664062 "/>
</g>
<g clip-path="url(#clip5)" clip-rule="nonzero">
<path style=" stroke:none;fill-rule:nonzero;fill:rgb(12.156863%,46.666667%,70.588237%);fill-opacity:1;" d="M 188.046875 192.664062 L 197.710938 192.664062 L 197.710938 165.976562 L 188.046875 165.976562 Z M 188.046875 192.664062 "/>
</g>
<g clip-path="url(#clip6)" clip-rule="nonzero">
<path style=" stroke:none;fill-rule:nonzero;fill:rgb(12.156863%,46.666667%,70.588237%);fill-opacity:1;" d="M 212.203125 192.664062 L 221.867188 192.664062 L 221.867188 183.597656 L 212.203125 183.597656 Z M 212.203125 192.664062 "/>
</g>
<g clip-path="url(#clip7)" clip-rule="nonzero">
<path style=" stroke:none;fill-rule:nonzero;fill:rgb(12.156863%,46.666667%,70.588237%);fill-opacity:1;" d="M 236.359375 192.664062 L 246.019531 192.664062 L 246.019531 190.613281 L 236.359375 190.613281 Z M 236.359375 192.664062 "/>
</g>
<g clip-path="url(#clip8)" clip-rule="nonzero">
<path style=" stroke:none;fill-rule:nonzero;fill:rgb(12.156863%,46.666667%,70.588237%);fill-opacity:1;" d="M 260.515625 192.664062 L 270.175781 192.664062 L 270.175781 192.144531 L 260.515625 192.144531 Z M 260.515625 192.664062 "/>
</g>
<g clip-path="url(#clip9)" clip-rule="nonzero">
<path style=" stroke:none;fill-rule:nonzero;fill:rgb(12.156863%,46.666667%,70.588237%);fill-opacity:1;" d="M 284.671875 192.664062 L 294.332031 192.664062 L 294.332031 192.484375 L 284.671875 192.484375 Z M 284.671875 192.664062 "/>
</g>
<g clip-path="url(#clip10)" clip-rule="nonzero">
<path style=" stroke:none;fill-rule:nonzero;fill:rgb(12.156863%,46.666667%,70.588237%);fill-opacity:1;" d="M 308.828125 192.664062 L 318.488281 192.664062 L 318.488281 192.5625 L 308.828125 192.5625 Z M 308.828125 192.664062 "/>
</g>
<g clip-path="url(#clip11)" clip-rule="nonzero">
<path style=" stroke:none;fill-rule:nonzero;fill:url(#pattern0);" d="M 101.085938 192.664062 L 110.75 192.664062 L 110.75 20.089844 L 101.085938 20.089844 Z M 101.085938 192.664062 "/>
</g>
<g clip-path="url(#clip13)" clip-rule="nonzero">
<path style=" stroke:none;fill-rule:nonzero;fill:url(#pattern1);" d="M 125.242188 192.664062 L 134.90625 192.664062 L 134.90625 79.292969 L 125.242188 79.292969 Z M 125.242188 192.664062 "/>
</g>
<g clip-path="url(#clip15)" clip-rule="nonzero">
<path style=" stroke:none;fill-rule:nonzero;fill:url(#pattern2);" d="M 149.398438 192.664062 L 159.058594 192.664062 L 159.058594 179.890625 L 149.398438 179.890625 Z M 149.398438 192.664062 "/>
</g>
<g clip-path="url(#clip17)" clip-rule="nonzero">
<path style=" stroke:none;fill-rule:nonzero;fill:url(#pattern3);" d="M 173.554688 192.664062 L 183.214844 192.664062 L 183.214844 191.921875 L 173.554688 191.921875 Z M 173.554688 192.664062 "/>
</g>
<g clip-path="url(#clip19)" clip-rule="nonzero">
<path style=" stroke:none;fill-rule:nonzero;fill:url(#pattern4);" d="M 197.710938 192.664062 L 207.371094 192.664062 L 207.371094 192.597656 L 197.710938 192.597656 Z M 197.710938 192.664062 "/>
</g>
<g clip-path="url(#clip21)" clip-rule="nonzero">
<path style=" stroke:none;fill-rule:nonzero;fill:url(#pattern5);" d="M 221.867188 192.664062 L 231.527344 192.664062 L 231.527344 192.65625 L 221.867188 192.65625 Z M 221.867188 192.664062 "/>
</g>
<path style="fill:none;stroke-width:0.8;stroke-linecap:butt;stroke-linejoin:round;stroke:rgb(0%,0%,0%);stroke-opacity:1;stroke-miterlimit:4;" d="M -0.000350952 0.00125122 L -0.000350952 3.499298 " transform="matrix(1.333333,0,0,1.333333,89.00828,192.662394)"/>
<path style=" stroke:none;fill-rule:nonzero;fill:rgb(0%,0%,0%);fill-opacity:1;" d="M 89.003906 203.273438 C 88.328125 203.273438 87.820312 203.605469 87.476562 204.273438 C 87.136719 204.9375 86.964844 205.941406 86.964844 207.277344 C 86.964844 208.609375 87.136719 209.609375 87.476562 210.273438 C 87.820312 210.941406 88.328125 211.273438 89.003906 211.273438 C 89.6875 211.273438 90.195312 210.941406 90.539062 210.273438 C 90.878906 209.609375 91.050781 208.609375 91.050781 207.277344 C 91.050781 205.941406 90.878906 204.9375 90.539062 204.273438 C 90.195312 203.605469 89.6875 203.273438 89.003906 203.273438 Z M 89.003906 202.230469 C 90.09375 202.230469 90.925781 202.664062 91.503906 203.523438 C 92.078125 204.386719 92.363281 205.636719 92.363281 207.277344 C 92.363281 208.914062 92.078125 210.164062 91.503906 211.023438 C 90.925781 211.886719 90.09375 212.316406 89.003906 212.316406 C 87.914062 212.316406 87.082031 211.886719 86.507812 211.023438 C 85.933594 210.164062 85.644531 208.914062 85.644531 207.277344 C 85.644531 205.636719 85.933594 204.386719 86.507812 203.523438 C 87.082031 202.664062 87.914062 202.230469 89.003906 202.230469 Z M 89.003906 202.230469 "/>
<path style="fill:none;stroke-width:0.8;stroke-linecap:butt;stroke-linejoin:round;stroke:rgb(0%,0%,0%);stroke-opacity:1;stroke-miterlimit:4;" d="M 0.000610352 0.00125122 L 0.000610352 3.499298 " transform="matrix(1.333333,0,0,1.333333,147.924967,192.662394)"/>
<path style=" stroke:none;fill-rule:nonzero;fill:rgb(0%,0%,0%);fill-opacity:1;" d="M 142 211.019531 L 146.589844 211.019531 L 146.589844 212.128906 L 140.417969 212.128906 L 140.417969 211.019531 C 140.917969 210.503906 141.597656 209.8125 142.457031 208.941406 C 143.320312 208.070312 143.863281 207.507812 144.082031 207.257812 C 144.503906 206.785156 144.796875 206.382812 144.964844 206.054688 C 145.132812 205.726562 145.214844 205.40625 145.214844 205.089844 C 145.214844 204.574219 145.035156 204.152344 144.671875 203.828125 C 144.308594 203.5 143.839844 203.335938 143.257812 203.335938 C 142.84375 203.335938 142.410156 203.410156 141.949219 203.550781 C 141.492188 203.695312 141.003906 203.914062 140.484375 204.203125 L 140.484375 202.875 C 141.011719 202.664062 141.507812 202.503906 141.964844 202.394531 C 142.429688 202.285156 142.847656 202.230469 143.230469 202.230469 C 144.238281 202.230469 145.039062 202.484375 145.640625 202.988281 C 146.238281 203.488281 146.539062 204.164062 146.539062 205.003906 C 146.539062 205.402344 146.460938 205.785156 146.3125 206.140625 C 146.164062 206.5 145.890625 206.921875 145.496094 207.40625 C 145.386719 207.53125 145.042969 207.894531 144.460938 208.496094 C 143.878906 209.097656 143.058594 209.941406 142 211.019531 Z M 142 211.019531 "/>
<path style=" stroke:none;fill-rule:nonzero;fill:rgb(0%,0%,0%);fill-opacity:1;" d="M 152.164062 203.273438 C 151.484375 203.273438 150.976562 203.605469 150.636719 204.273438 C 150.292969 204.9375 150.125 205.941406 150.125 207.277344 C 150.125 208.609375 150.292969 209.609375 150.636719 210.273438 C 150.976562 210.941406 151.484375 211.273438 152.164062 211.273438 C 152.84375 211.273438 153.355469 210.941406 153.695312 210.273438 C 154.039062 209.609375 154.207031 208.609375 154.207031 207.277344 C 154.207031 205.941406 154.039062 204.9375 153.695312 204.273438 C 153.355469 203.605469 152.84375 203.273438 152.164062 203.273438 Z M 152.164062 202.230469 C 153.253906 202.230469 154.085938 202.664062 154.660156 203.523438 C 155.234375 204.386719 155.523438 205.636719 155.523438 207.277344 C 155.523438 208.914062 155.234375 210.164062 154.660156 211.023438 C 154.085938 211.886719 153.253906 212.316406 152.164062 212.316406 C 151.074219 212.316406 150.242188 211.886719 149.667969 211.023438 C 149.089844 210.164062 148.804688 208.914062 148.804688 207.277344 C 148.804688 205.636719 149.089844 204.386719 149.667969 203.523438 C 150.242188 202.664062 151.074219 202.230469 152.164062 202.230469 Z M 152.164062 202.230469 "/>
<path style="fill:none;stroke-width:0.8;stroke-linecap:butt;stroke-linejoin:round;stroke:rgb(0%,0%,0%);stroke-opacity:1;stroke-miterlimit:4;" d="M -0.00137329 0.00125122 L -0.00137329 3.499298 " transform="matrix(1.333333,0,0,1.333333,206.841675,192.662394)"/>
<path style=" stroke:none;fill-rule:nonzero;fill:rgb(0%,0%,0%);fill-opacity:1;" d="M 203.398438 203.550781 L 200.078125 208.742188 L 203.398438 208.742188 Z M 203.050781 202.40625 L 204.707031 202.40625 L 204.707031 208.742188 L 206.09375 208.742188 L 206.09375 209.835938 L 204.707031 209.835938 L 204.707031 212.128906 L 203.398438 212.128906 L 203.398438 209.835938 L 199.011719 209.835938 L 199.011719 208.566406 Z M 203.050781 202.40625 "/>
<path style=" stroke:none;fill-rule:nonzero;fill:rgb(0%,0%,0%);fill-opacity:1;" d="M 211.078125 203.273438 C 210.402344 203.273438 209.894531 203.605469 209.550781 204.273438 C 209.210938 204.9375 209.042969 205.941406 209.042969 207.277344 C 209.042969 208.609375 209.210938 209.609375 209.550781 210.273438 C 209.894531 210.941406 210.402344 211.273438 211.078125 211.273438 C 211.761719 211.273438 212.273438 210.941406 212.613281 210.273438 C 212.953125 209.609375 213.125 208.609375 213.125 207.277344 C 213.125 205.941406 212.953125 204.9375 212.613281 204.273438 C 212.273438 203.605469 211.761719 203.273438 211.078125 203.273438 Z M 211.078125 202.230469 C 212.167969 202.230469 213 202.664062 213.578125 203.523438 C 214.152344 204.386719 214.4375 205.636719 214.4375 207.277344 C 214.4375 208.914062 214.152344 210.164062 213.578125 211.023438 C 213 211.886719 212.167969 212.316406 211.078125 212.316406 C 209.988281 212.316406 209.15625 211.886719 208.582031 211.023438 C 208.007812 210.164062 207.71875 208.914062 207.71875 207.277344 C 207.71875 205.636719 208.007812 204.386719 208.582031 203.523438 C 209.15625 202.664062 209.988281 202.230469 211.078125 202.230469 Z M 211.078125 202.230469 "/>
<path style="fill:none;stroke-width:0.8;stroke-linecap:butt;stroke-linejoin:round;stroke:rgb(0%,0%,0%);stroke-opacity:1;stroke-miterlimit:4;" d="M -0.000411987 0.00125122 L -0.000411987 3.499298 " transform="matrix(1.333333,0,0,1.333333,265.758362,192.662394)"/>
<path style=" stroke:none;fill-rule:nonzero;fill:rgb(0%,0%,0%);fill-opacity:1;" d="M 261.675781 206.742188 C 261.085938 206.742188 260.617188 206.945312 260.273438 207.351562 C 259.929688 207.753906 259.757812 208.304688 259.757812 209.007812 C 259.757812 209.707031 259.929688 210.257812 260.273438 210.667969 C 260.617188 211.070312 261.085938 211.273438 261.675781 211.273438 C 262.265625 211.273438 262.734375 211.070312 263.078125 210.667969 C 263.421875 210.257812 263.597656 209.707031 263.597656 209.007812 C 263.597656 208.304688 263.421875 207.753906 263.078125 207.351562 C 262.734375 206.945312 262.265625 206.742188 261.675781 206.742188 Z M 264.289062 202.621094 L 264.289062 203.820312 C 263.957031 203.664062 263.625 203.542969 263.289062 203.460938 C 262.953125 203.378906 262.617188 203.335938 262.289062 203.335938 C 261.417969 203.335938 260.757812 203.628906 260.296875 204.214844 C 259.839844 204.800781 259.578125 205.6875 259.515625 206.871094 C 259.769531 206.496094 260.089844 206.207031 260.476562 206.003906 C 260.863281 205.800781 261.289062 205.703125 261.753906 205.703125 C 262.730469 205.703125 263.503906 206 264.070312 206.589844 C 264.636719 207.183594 264.917969 207.988281 264.917969 209.007812 C 264.917969 210.007812 264.625 210.808594 264.035156 211.414062 C 263.441406 212.015625 262.65625 212.316406 261.675781 212.316406 C 260.550781 212.316406 259.691406 211.886719 259.097656 211.023438 C 258.503906 210.164062 258.207031 208.914062 258.207031 207.277344 C 258.207031 205.742188 258.570312 204.515625 259.300781 203.601562 C 260.027344 202.6875 261.007812 202.230469 262.234375 202.230469 C 262.566406 202.230469 262.898438 202.265625 263.234375 202.328125 C 263.570312 202.394531 263.921875 202.492188 264.289062 202.621094 Z M 264.289062 202.621094 "/>
<path style=" stroke:none;fill-rule:nonzero;fill:rgb(0%,0%,0%);fill-opacity:1;" d="M 269.996094 203.273438 C 269.320312 203.273438 268.808594 203.605469 268.46875 204.273438 C 268.128906 204.9375 267.957031 205.941406 267.957031 207.277344 C 267.957031 208.609375 268.128906 209.609375 268.46875 210.273438 C 268.808594 210.941406 269.320312 211.273438 269.996094 211.273438 C 270.675781 211.273438 271.1875 210.941406 271.527344 210.273438 C 271.871094 209.609375 272.042969 208.609375 272.042969 207.277344 C 272.042969 205.941406 271.871094 204.9375 271.527344 204.273438 C 271.1875 203.605469 270.675781 203.273438 269.996094 203.273438 Z M 269.996094 202.230469 C 271.085938 202.230469 271.917969 202.664062 272.492188 203.523438 C 273.070312 204.386719 273.355469 205.636719 273.355469 207.277344 C 273.355469 208.914062 273.070312 210.164062 272.492188 211.023438 C 271.917969 211.886719 271.085938 212.316406 269.996094 212.316406 C 268.90625 212.316406 268.074219 211.886719 267.5 211.023438 C 266.925781 210.164062 266.636719 208.914062 266.636719 207.277344 C 266.636719 205.636719 266.925781 204.386719 267.5 203.523438 C 268.074219 202.664062 268.90625 202.230469 269.996094 202.230469 Z M 269.996094 202.230469 "/>
<path style="fill:none;stroke-width:0.8;stroke-linecap:butt;stroke-linejoin:round;stroke:rgb(0%,0%,0%);stroke-opacity:1;stroke-miterlimit:4;" d="M 0.000549316 0.00125122 L 0.000549316 3.499298 " transform="matrix(1.333333,0,0,1.333333,324.675049,192.662394)"/>
<path style=" stroke:none;fill-rule:nonzero;fill:rgb(0%,0%,0%);fill-opacity:1;" d="M 320.429688 207.511719 C 319.804688 207.511719 319.3125 207.675781 318.953125 208.011719 C 318.597656 208.347656 318.417969 208.808594 318.417969 209.390625 C 318.417969 209.976562 318.597656 210.4375 318.953125 210.773438 C 319.3125 211.109375 319.804688 211.273438 320.429688 211.273438 C 321.054688 211.273438 321.546875 211.105469 321.90625 210.769531 C 322.265625 210.433594 322.449219 209.972656 322.449219 209.390625 C 322.449219 208.808594 322.269531 208.347656 321.910156 208.011719 C 321.554688 207.675781 321.058594 207.511719 320.429688 207.511719 Z M 319.113281 206.953125 C 318.550781 206.8125 318.109375 206.550781 317.796875 206.164062 C 317.480469 205.777344 317.324219 205.304688 317.324219 204.75 C 317.324219 203.972656 317.601562 203.359375 318.152344 202.910156 C 318.707031 202.457031 319.464844 202.230469 320.429688 202.230469 C 321.398438 202.230469 322.15625 202.457031 322.707031 202.910156 C 323.261719 203.359375 323.535156 203.972656 323.535156 204.75 C 323.535156 205.304688 323.378906 205.777344 323.0625 206.164062 C 322.75 206.550781 322.3125 206.8125 321.753906 206.953125 C 322.386719 207.097656 322.878906 207.386719 323.230469 207.820312 C 323.585938 208.246094 323.761719 208.773438 323.761719 209.390625 C 323.761719 210.335938 323.476562 211.058594 322.898438 211.5625 C 322.324219 212.066406 321.5 212.316406 320.429688 212.316406 C 319.359375 212.316406 318.535156 212.066406 317.957031 211.5625 C 317.382812 211.058594 317.097656 210.335938 317.097656 209.390625 C 317.097656 208.773438 317.273438 208.246094 317.628906 207.820312 C 317.984375 207.386719 318.480469 207.097656 319.113281 206.953125 Z M 318.632812 204.875 C 318.632812 205.378906 318.789062 205.769531 319.105469 206.050781 C 319.417969 206.332031 319.859375 206.476562 320.429688 206.476562 C 320.996094 206.476562 321.4375 206.332031 321.753906 206.050781 C 322.074219 205.769531 322.234375 205.378906 322.234375 204.875 C 322.234375 204.371094 322.074219 203.976562 321.753906 203.695312 C 321.4375 203.414062 320.996094 203.273438 320.429688 203.273438 C 319.859375 203.273438 319.417969 203.414062 319.105469 203.695312 C 318.789062 203.976562 318.632812 204.371094 318.632812 204.875 Z M 318.632812 204.875 "/>
<path style=" stroke:none;fill-rule:nonzero;fill:rgb(0%,0%,0%);fill-opacity:1;" d="M 328.914062 203.273438 C 328.234375 203.273438 327.726562 203.605469 327.386719 204.273438 C 327.046875 204.9375 326.875 205.941406 326.875 207.277344 C 326.875 208.609375 327.046875 209.609375 327.386719 210.273438 C 327.726562 210.941406 328.234375 211.273438 328.914062 211.273438 C 329.59375 211.273438 330.105469 210.941406 330.445312 210.273438 C 330.789062 209.609375 330.957031 208.609375 330.957031 207.277344 C 330.957031 205.941406 330.789062 204.9375 330.445312 204.273438 C 330.105469 203.605469 329.59375 203.273438 328.914062 203.273438 Z M 328.914062 202.230469 C 330.003906 202.230469 330.835938 202.664062 331.410156 203.523438 C 331.984375 204.386719 332.273438 205.636719 332.273438 207.277344 C 332.273438 208.914062 331.984375 210.164062 331.410156 211.023438 C 330.835938 211.886719 330.003906 212.316406 328.914062 212.316406 C 327.824219 212.316406 326.992188 211.886719 326.417969 211.023438 C 325.839844 210.164062 325.554688 208.914062 325.554688 207.277344 C 325.554688 205.636719 325.839844 204.386719 326.417969 203.523438 C 326.992188 202.664062 327.824219 202.230469 328.914062 202.230469 Z M 328.914062 202.230469 "/>
<path style=" stroke:none;fill-rule:nonzero;fill:rgb(0%,0%,0%);fill-opacity:1;" d="M 140.964844 224.496094 L 139.074219 224.496094 L 138.523438 226.671875 L 140.433594 226.671875 Z M 139.988281 220.792969 L 139.3125 223.496094 L 141.214844 223.496094 L 141.898438 220.792969 L 142.941406 220.792969 L 142.269531 223.496094 L 144.300781 223.496094 L 144.300781 224.496094 L 142.015625 224.496094 L 141.480469 226.671875 L 143.550781 226.671875 L 143.550781 227.667969 L 141.226562 227.667969 L 140.550781 230.363281 L 139.507812 230.363281 L 140.179688 227.667969 L 138.269531 227.667969 L 137.601562 230.363281 L 136.550781 230.363281 L 137.230469 227.667969 L 135.179688 227.667969 L 135.179688 226.671875 L 137.472656 226.671875 L 138.015625 224.496094 L 135.921875 224.496094 L 135.921875 223.496094 L 138.269531 223.496094 L 138.933594 220.792969 Z M 139.988281 220.792969 "/>
<path style=" stroke:none;fill-rule:nonzero;fill:rgb(0%,0%,0%);fill-opacity:1;" d="M 152 221.003906 L 152 223.074219 L 154.46875 223.074219 L 154.46875 224.003906 L 152 224.003906 L 152 227.960938 C 152 228.558594 152.082031 228.9375 152.246094 229.109375 C 152.40625 229.277344 152.738281 229.363281 153.238281 229.363281 L 154.46875 229.363281 L 154.46875 230.363281 L 153.238281 230.363281 C 152.3125 230.363281 151.675781 230.191406 151.324219 229.847656 C 150.972656 229.503906 150.796875 228.875 150.796875 227.960938 L 150.796875 224.003906 L 149.917969 224.003906 L 149.917969 223.074219 L 150.796875 223.074219 L 150.796875 221.003906 Z M 152 221.003906 "/>
<path style=" stroke:none;fill-rule:nonzero;fill:rgb(0%,0%,0%);fill-opacity:1;" d="M 158.871094 223.914062 C 158.226562 223.914062 157.71875 224.164062 157.347656 224.664062 C 156.972656 225.164062 156.785156 225.851562 156.785156 226.726562 C 156.785156 227.597656 156.972656 228.285156 157.34375 228.785156 C 157.714844 229.285156 158.222656 229.539062 158.871094 229.539062 C 159.507812 229.539062 160.015625 229.285156 160.386719 228.785156 C 160.757812 228.277344 160.945312 227.59375 160.945312 226.726562 C 160.945312 225.859375 160.757812 225.175781 160.386719 224.671875 C 160.015625 224.164062 159.507812 223.914062 158.871094 223.914062 Z M 158.871094 222.898438 C 159.910156 222.898438 160.730469 223.238281 161.324219 223.914062 C 161.917969 224.589844 162.21875 225.527344 162.21875 226.726562 C 162.21875 227.917969 161.917969 228.855469 161.324219 229.535156 C 160.730469 230.214844 159.910156 230.554688 158.871094 230.554688 C 157.824219 230.554688 157.003906 230.214844 156.410156 229.535156 C 155.820312 228.855469 155.523438 227.917969 155.523438 226.726562 C 155.523438 225.527344 155.820312 224.589844 156.410156 223.914062 C 157.003906 223.238281 157.824219 222.898438 158.871094 222.898438 Z M 158.871094 222.898438 "/>
<path style=" stroke:none;fill-rule:nonzero;fill:rgb(0%,0%,0%);fill-opacity:1;" d="M 164.15625 220.234375 L 165.359375 220.234375 L 165.359375 226.214844 L 168.933594 223.074219 L 170.464844 223.074219 L 166.597656 226.484375 L 170.628906 230.363281 L 169.066406 230.363281 L 165.359375 226.804688 L 165.359375 230.363281 L 164.15625 230.363281 Z M 164.15625 220.234375 "/>
<path style=" stroke:none;fill-rule:nonzero;fill:rgb(0%,0%,0%);fill-opacity:1;" d="M 177.675781 226.417969 L 177.675781 227.003906 L 172.167969 227.003906 C 172.222656 227.828125 172.46875 228.457031 172.914062 228.890625 C 173.359375 229.320312 173.980469 229.539062 174.773438 229.539062 C 175.234375 229.539062 175.679688 229.480469 176.109375 229.367188 C 176.542969 229.257812 176.972656 229.085938 177.398438 228.859375 L 177.398438 229.992188 C 176.96875 230.175781 176.527344 230.316406 176.074219 230.410156 C 175.625 230.507812 175.167969 230.554688 174.703125 230.554688 C 173.539062 230.554688 172.617188 230.214844 171.9375 229.539062 C 171.257812 228.863281 170.917969 227.945312 170.917969 226.789062 C 170.917969 225.597656 171.242188 224.648438 171.886719 223.949219 C 172.53125 223.25 173.398438 222.898438 174.492188 222.898438 C 175.472656 222.898438 176.25 223.214844 176.820312 223.847656 C 177.390625 224.476562 177.675781 225.332031 177.675781 226.417969 Z M 176.480469 226.066406 C 176.472656 225.414062 176.289062 224.890625 175.929688 224.5 C 175.570312 224.109375 175.097656 223.914062 174.507812 223.914062 C 173.839844 223.914062 173.304688 224.101562 172.902344 224.480469 C 172.5 224.855469 172.269531 225.390625 172.207031 226.074219 Z M 176.480469 226.066406 "/>
<path style=" stroke:none;fill-rule:nonzero;fill:rgb(0%,0%,0%);fill-opacity:1;" d="M 185.707031 225.960938 L 185.707031 230.363281 L 184.507812 230.363281 L 184.507812 226.003906 C 184.507812 225.3125 184.371094 224.796875 184.101562 224.453125 C 183.832031 224.109375 183.429688 223.941406 182.894531 223.941406 C 182.246094 223.941406 181.734375 224.144531 181.363281 224.558594 C 180.988281 224.96875 180.800781 225.53125 180.800781 226.242188 L 180.800781 230.363281 L 179.597656 230.363281 L 179.597656 223.074219 L 180.800781 223.074219 L 180.800781 224.207031 C 181.089844 223.765625 181.425781 223.441406 181.8125 223.222656 C 182.203125 223.007812 182.652344 222.898438 183.160156 222.898438 C 183.996094 222.898438 184.628906 223.15625 185.058594 223.675781 C 185.488281 224.191406 185.707031 224.957031 185.707031 225.960938 Z M 185.707031 225.960938 "/>
<path style=" stroke:none;fill-rule:nonzero;fill:rgb(0%,0%,0%);fill-opacity:1;" d="M 192.742188 223.289062 L 192.742188 224.421875 C 192.402344 224.246094 192.050781 224.117188 191.6875 224.03125 C 191.324219 223.945312 190.945312 223.898438 190.554688 223.898438 C 189.960938 223.898438 189.511719 223.992188 189.214844 224.171875 C 188.917969 224.355469 188.769531 224.628906 188.769531 224.992188 C 188.769531 225.269531 188.875 225.488281 189.089844 225.648438 C 189.300781 225.804688 189.730469 225.957031 190.371094 226.101562 L 190.78125 226.191406 C 191.632812 226.375 192.238281 226.628906 192.59375 226.960938 C 192.953125 227.292969 193.132812 227.757812 193.132812 228.351562 C 193.132812 229.03125 192.863281 229.566406 192.328125 229.960938 C 191.792969 230.355469 191.054688 230.554688 190.117188 230.554688 C 189.726562 230.554688 189.320312 230.515625 188.898438 230.441406 C 188.472656 230.363281 188.027344 230.25 187.558594 230.097656 L 187.558594 228.859375 C 188.003906 229.089844 188.4375 229.265625 188.867188 229.378906 C 189.296875 229.492188 189.722656 229.550781 190.144531 229.550781 C 190.710938 229.550781 191.144531 229.453125 191.445312 229.261719 C 191.75 229.066406 191.902344 228.796875 191.902344 228.445312 C 191.902344 228.117188 191.792969 227.871094 191.574219 227.695312 C 191.355469 227.523438 190.875 227.355469 190.132812 227.195312 L 189.714844 227.097656 C 188.972656 226.941406 188.4375 226.699219 188.105469 226.378906 C 187.777344 226.054688 187.613281 225.609375 187.613281 225.046875 C 187.613281 224.359375 187.855469 223.832031 188.339844 223.457031 C 188.828125 223.085938 189.519531 222.898438 190.414062 222.898438 C 190.855469 222.898438 191.269531 222.929688 191.660156 222.996094 C 192.050781 223.058594 192.414062 223.15625 192.742188 223.289062 Z M 192.742188 223.289062 "/>
<path style=" stroke:none;fill-rule:nonzero;fill:rgb(0%,0%,0%);fill-opacity:1;" d="M 200.4375 229.269531 L 200.4375 233.136719 L 199.234375 233.136719 L 199.234375 223.074219 L 200.4375 223.074219 L 200.4375 224.179688 C 200.691406 223.746094 201.007812 223.425781 201.390625 223.214844 C 201.777344 223.003906 202.234375 222.898438 202.769531 222.898438 C 203.652344 222.898438 204.375 223.25 204.925781 223.953125 C 205.480469 224.65625 205.757812 225.578125 205.757812 226.726562 C 205.757812 227.871094 205.480469 228.796875 204.925781 229.5 C 204.375 230.203125 203.652344 230.554688 202.769531 230.554688 C 202.234375 230.554688 201.777344 230.449219 201.390625 230.238281 C 201.007812 230.027344 200.691406 229.703125 200.4375 229.269531 Z M 204.515625 226.726562 C 204.515625 225.84375 204.332031 225.152344 203.96875 224.652344 C 203.609375 224.152344 203.109375 223.898438 202.476562 223.898438 C 201.839844 223.898438 201.34375 224.152344 200.980469 224.652344 C 200.617188 225.152344 200.4375 225.84375 200.4375 226.726562 C 200.4375 227.605469 200.617188 228.296875 200.980469 228.796875 C 201.34375 229.300781 201.839844 229.550781 202.476562 229.550781 C 203.109375 229.550781 203.609375 229.300781 203.96875 228.796875 C 204.332031 228.296875 204.515625 227.605469 204.515625 226.726562 Z M 204.515625 226.726562 "/>
<path style=" stroke:none;fill-rule:nonzero;fill:rgb(0%,0%,0%);fill-opacity:1;" d="M 213.980469 226.417969 L 213.980469 227.003906 L 208.472656 227.003906 C 208.523438 227.828125 208.773438 228.457031 209.21875 228.890625 C 209.660156 229.320312 210.28125 229.539062 211.074219 229.539062 C 211.535156 229.539062 211.980469 229.480469 212.414062 229.367188 C 212.84375 229.257812 213.273438 229.085938 213.699219 228.859375 L 213.699219 229.992188 C 213.269531 230.175781 212.828125 230.316406 212.378906 230.410156 C 211.925781 230.507812 211.46875 230.554688 211.003906 230.554688 C 209.839844 230.554688 208.917969 230.214844 208.238281 229.539062 C 207.5625 228.863281 207.222656 227.945312 207.222656 226.789062 C 207.222656 225.597656 207.542969 224.648438 208.1875 223.949219 C 208.832031 223.25 209.703125 222.898438 210.796875 222.898438 C 211.777344 222.898438 212.550781 223.214844 213.125 223.847656 C 213.695312 224.476562 213.980469 225.332031 213.980469 226.417969 Z M 212.78125 226.066406 C 212.773438 225.414062 212.589844 224.890625 212.230469 224.5 C 211.875 224.109375 211.398438 223.914062 210.808594 223.914062 C 210.140625 223.914062 209.605469 224.101562 209.203125 224.480469 C 208.804688 224.855469 208.570312 225.390625 208.511719 226.074219 Z M 212.78125 226.066406 "/>
<path style=" stroke:none;fill-rule:nonzero;fill:rgb(0%,0%,0%);fill-opacity:1;" d="M 220.171875 224.191406 C 220.035156 224.113281 219.890625 224.058594 219.730469 224.019531 C 219.570312 223.984375 219.398438 223.964844 219.207031 223.964844 C 218.53125 223.964844 218.007812 224.183594 217.648438 224.625 C 217.285156 225.066406 217.101562 225.699219 217.101562 226.523438 L 217.101562 230.363281 L 215.898438 230.363281 L 215.898438 223.074219 L 217.101562 223.074219 L 217.101562 224.207031 C 217.355469 223.761719 217.683594 223.433594 218.085938 223.222656 C 218.492188 223.003906 218.980469 222.898438 219.558594 222.898438 C 219.640625 222.898438 219.734375 222.902344 219.832031 222.914062 C 219.933594 222.925781 220.042969 222.941406 220.164062 222.960938 Z M 220.171875 224.191406 "/>
<path style=" stroke:none;fill-rule:nonzero;fill:rgb(0%,0%,0%);fill-opacity:1;" d="M 230.3125 223.289062 L 230.3125 224.421875 C 229.976562 224.246094 229.625 224.117188 229.257812 224.03125 C 228.894531 223.945312 228.515625 223.898438 228.125 223.898438 C 227.53125 223.898438 227.085938 223.992188 226.789062 224.171875 C 226.492188 224.355469 226.34375 224.628906 226.34375 224.992188 C 226.34375 225.269531 226.449219 225.488281 226.660156 225.648438 C 226.875 225.804688 227.300781 225.957031 227.945312 226.101562 L 228.355469 226.191406 C 229.203125 226.375 229.808594 226.628906 230.167969 226.960938 C 230.527344 227.292969 230.703125 227.757812 230.703125 228.351562 C 230.703125 229.03125 230.4375 229.566406 229.902344 229.960938 C 229.363281 230.355469 228.628906 230.554688 227.691406 230.554688 C 227.300781 230.554688 226.894531 230.515625 226.46875 230.441406 C 226.046875 230.363281 225.601562 230.25 225.132812 230.097656 L 225.132812 228.859375 C 225.574219 229.089844 226.011719 229.265625 226.441406 229.378906 C 226.871094 229.492188 227.296875 229.550781 227.71875 229.550781 C 228.28125 229.550781 228.714844 229.453125 229.015625 229.261719 C 229.320312 229.066406 229.472656 228.796875 229.472656 228.445312 C 229.472656 228.117188 229.363281 227.871094 229.144531 227.695312 C 228.925781 227.523438 228.445312 227.355469 227.703125 227.195312 L 227.285156 227.097656 C 226.542969 226.941406 226.007812 226.699219 225.675781 226.378906 C 225.347656 226.054688 225.183594 225.609375 225.183594 225.046875 C 225.183594 224.359375 225.425781 223.832031 225.914062 223.457031 C 226.398438 223.085938 227.089844 222.898438 227.984375 222.898438 C 228.425781 222.898438 228.839844 222.929688 229.230469 222.996094 C 229.625 223.058594 229.984375 223.15625 230.3125 223.289062 Z M 230.3125 223.289062 "/>
<path style=" stroke:none;fill-rule:nonzero;fill:rgb(0%,0%,0%);fill-opacity:1;" d="M 238.847656 226.417969 L 238.847656 227.003906 L 233.339844 227.003906 C 233.394531 227.828125 233.640625 228.457031 234.085938 228.890625 C 234.53125 229.320312 235.152344 229.539062 235.945312 229.539062 C 236.40625 229.539062 236.851562 229.480469 237.28125 229.367188 C 237.714844 229.257812 238.144531 229.085938 238.570312 228.859375 L 238.570312 229.992188 C 238.140625 230.175781 237.699219 230.316406 237.246094 230.410156 C 236.796875 230.507812 236.339844 230.554688 235.875 230.554688 C 234.710938 230.554688 233.789062 230.214844 233.109375 229.539062 C 232.429688 228.863281 232.089844 227.945312 232.089844 226.789062 C 232.089844 225.597656 232.414062 224.648438 233.058594 223.949219 C 233.703125 223.25 234.570312 222.898438 235.664062 222.898438 C 236.644531 222.898438 237.421875 223.214844 237.992188 223.847656 C 238.5625 224.476562 238.847656 225.332031 238.847656 226.417969 Z M 237.652344 226.066406 C 237.644531 225.414062 237.460938 224.890625 237.101562 224.5 C 236.742188 224.109375 236.269531 223.914062 235.679688 223.914062 C 235.011719 223.914062 234.476562 224.101562 234.074219 224.480469 C 233.671875 224.855469 233.441406 225.390625 233.378906 226.074219 Z M 237.652344 226.066406 "/>
<path style=" stroke:none;fill-rule:nonzero;fill:rgb(0%,0%,0%);fill-opacity:1;" d="M 246.878906 225.960938 L 246.878906 230.363281 L 245.679688 230.363281 L 245.679688 226.003906 C 245.679688 225.3125 245.542969 224.796875 245.273438 224.453125 C 245.003906 224.109375 244.601562 223.941406 244.066406 223.941406 C 243.417969 223.941406 242.90625 224.144531 242.535156 224.558594 C 242.160156 224.96875 241.972656 225.53125 241.972656 226.242188 L 241.972656 230.363281 L 240.769531 230.363281 L 240.769531 223.074219 L 241.972656 223.074219 L 241.972656 224.207031 C 242.261719 223.765625 242.597656 223.441406 242.984375 223.222656 C 243.375 223.007812 243.824219 222.898438 244.332031 222.898438 C 245.167969 222.898438 245.800781 223.15625 246.230469 223.675781 C 246.660156 224.191406 246.878906 224.957031 246.878906 225.960938 Z M 246.878906 225.960938 "/>
<path style=" stroke:none;fill-rule:nonzero;fill:rgb(0%,0%,0%);fill-opacity:1;" d="M 250.449219 221.003906 L 250.449219 223.074219 L 252.917969 223.074219 L 252.917969 224.003906 L 250.449219 224.003906 L 250.449219 227.960938 C 250.449219 228.558594 250.53125 228.9375 250.695312 229.109375 C 250.855469 229.277344 251.1875 229.363281 251.6875 229.363281 L 252.917969 229.363281 L 252.917969 230.363281 L 251.6875 230.363281 C 250.761719 230.363281 250.125 230.191406 249.773438 229.847656 C 249.421875 229.503906 249.246094 228.875 249.246094 227.960938 L 249.246094 224.003906 L 248.367188 224.003906 L 248.367188 223.074219 L 249.246094 223.074219 L 249.246094 221.003906 Z M 250.449219 221.003906 "/>
<path style=" stroke:none;fill-rule:nonzero;fill:rgb(0%,0%,0%);fill-opacity:1;" d="M 260.730469 226.417969 L 260.730469 227.003906 L 255.222656 227.003906 C 255.273438 227.828125 255.523438 228.457031 255.96875 228.890625 C 256.414062 229.320312 257.03125 229.539062 257.828125 229.539062 C 258.285156 229.539062 258.730469 229.480469 259.164062 229.367188 C 259.597656 229.257812 260.023438 229.085938 260.453125 228.859375 L 260.453125 229.992188 C 260.019531 230.175781 259.578125 230.316406 259.128906 230.410156 C 258.675781 230.507812 258.21875 230.554688 257.753906 230.554688 C 256.59375 230.554688 255.671875 230.214844 254.992188 229.539062 C 254.3125 228.863281 253.972656 227.945312 253.972656 226.789062 C 253.972656 225.597656 254.292969 224.648438 254.9375 223.949219 C 255.582031 223.25 256.453125 222.898438 257.546875 222.898438 C 258.527344 222.898438 259.304688 223.214844 259.875 223.847656 C 260.445312 224.476562 260.730469 225.332031 260.730469 226.417969 Z M 259.53125 226.066406 C 259.523438 225.414062 259.339844 224.890625 258.984375 224.5 C 258.625 224.109375 258.148438 223.914062 257.558594 223.914062 C 256.890625 223.914062 256.355469 224.101562 255.957031 224.480469 C 255.554688 224.855469 255.324219 225.390625 255.261719 226.074219 Z M 259.53125 226.066406 "/>
<path style=" stroke:none;fill-rule:nonzero;fill:rgb(0%,0%,0%);fill-opacity:1;" d="M 268.757812 225.960938 L 268.757812 230.363281 L 267.5625 230.363281 L 267.5625 226.003906 C 267.5625 225.3125 267.425781 224.796875 267.15625 224.453125 C 266.886719 224.109375 266.484375 223.941406 265.945312 223.941406 C 265.300781 223.941406 264.789062 224.144531 264.414062 224.558594 C 264.042969 224.96875 263.855469 225.53125 263.855469 226.242188 L 263.855469 230.363281 L 262.652344 230.363281 L 262.652344 223.074219 L 263.855469 223.074219 L 263.855469 224.207031 C 264.140625 223.765625 264.480469 223.441406 264.867188 223.222656 C 265.257812 223.007812 265.703125 222.898438 266.214844 222.898438 C 267.050781 222.898438 267.683594 223.15625 268.113281 223.675781 C 268.542969 224.191406 268.757812 224.957031 268.757812 225.960938 Z M 268.757812 225.960938 "/>
<path style=" stroke:none;fill-rule:nonzero;fill:rgb(0%,0%,0%);fill-opacity:1;" d="M 276.394531 223.351562 L 276.394531 224.472656 C 276.054688 224.285156 275.714844 224.144531 275.375 224.050781 C 275.035156 223.957031 274.691406 223.914062 274.34375 223.914062 C 273.566406 223.914062 272.960938 224.160156 272.53125 224.652344 C 272.101562 225.144531 271.886719 225.835938 271.886719 226.726562 C 271.886719 227.613281 272.101562 228.308594 272.53125 228.800781 C 272.960938 229.292969 273.566406 229.539062 274.34375 229.539062 C 274.691406 229.539062 275.035156 229.492188 275.375 229.398438 C 275.714844 229.304688 276.054688 229.164062 276.394531 228.976562 L 276.394531 230.085938 C 276.058594 230.242188 275.714844 230.359375 275.355469 230.433594 C 275 230.515625 274.617188 230.554688 274.214844 230.554688 C 273.113281 230.554688 272.242188 230.207031 271.59375 229.519531 C 270.949219 228.828125 270.625 227.898438 270.625 226.726562 C 270.625 225.535156 270.953125 224.601562 271.605469 223.921875 C 272.257812 223.238281 273.15625 222.898438 274.292969 222.898438 C 274.660156 222.898438 275.019531 222.9375 275.371094 223.011719 C 275.722656 223.085938 276.0625 223.199219 276.394531 223.351562 Z M 276.394531 223.351562 "/>
<path style=" stroke:none;fill-rule:nonzero;fill:rgb(0%,0%,0%);fill-opacity:1;" d="M 284.714844 226.417969 L 284.714844 227.003906 L 279.207031 227.003906 C 279.257812 227.828125 279.507812 228.457031 279.953125 228.890625 C 280.398438 229.320312 281.015625 229.539062 281.8125 229.539062 C 282.269531 229.539062 282.714844 229.480469 283.148438 229.367188 C 283.582031 229.257812 284.007812 229.085938 284.4375 228.859375 L 284.4375 229.992188 C 284.003906 230.175781 283.5625 230.316406 283.113281 230.410156 C 282.660156 230.507812 282.203125 230.554688 281.738281 230.554688 C 280.578125 230.554688 279.65625 230.214844 278.976562 229.539062 C 278.296875 228.863281 277.957031 227.945312 277.957031 226.789062 C 277.957031 225.597656 278.277344 224.648438 278.921875 223.949219 C 279.566406 223.25 280.4375 222.898438 281.53125 222.898438 C 282.511719 222.898438 283.289062 223.214844 283.859375 223.847656 C 284.429688 224.476562 284.714844 225.332031 284.714844 226.417969 Z M 283.515625 226.066406 C 283.507812 225.414062 283.324219 224.890625 282.96875 224.5 C 282.609375 224.109375 282.132812 223.914062 281.542969 223.914062 C 280.875 223.914062 280.339844 224.101562 279.941406 224.480469 C 279.539062 224.855469 279.308594 225.390625 279.246094 226.074219 Z M 283.515625 226.066406 "/>
<path style="fill:none;stroke-width:0.8;stroke-linecap:butt;stroke-linejoin:round;stroke:rgb(0%,0%,0%);stroke-opacity:1;stroke-miterlimit:4;" d="M -0.00117111 0.00125122 L -3.499218 0.00125122 " transform="matrix(1.333333,0,0,1.333333,79.587499,192.662394)"/>
<path style=" stroke:none;fill-rule:nonzero;fill:rgb(0%,0%,0%);fill-opacity:1;" d="M 66.007812 188.875 C 65.332031 188.875 64.824219 189.207031 64.480469 189.875 C 64.140625 190.539062 63.972656 191.539062 63.972656 192.878906 C 63.972656 194.210938 64.140625 195.210938 64.480469 195.875 C 64.824219 196.542969 65.332031 196.875 66.007812 196.875 C 66.691406 196.875 67.203125 196.542969 67.542969 195.875 C 67.882812 195.210938 68.054688 194.210938 68.054688 192.878906 C 68.054688 191.539062 67.882812 190.539062 67.542969 189.875 C 67.203125 189.207031 66.691406 188.875 66.007812 188.875 Z M 66.007812 187.832031 C 67.097656 187.832031 67.929688 188.261719 68.507812 189.125 C 69.082031 189.988281 69.367188 191.238281 69.367188 192.878906 C 69.367188 194.515625 69.082031 195.761719 68.507812 196.625 C 67.929688 197.488281 67.097656 197.917969 66.007812 197.917969 C 64.917969 197.917969 64.085938 197.488281 63.511719 196.625 C 62.9375 195.761719 62.648438 194.515625 62.648438 192.878906 C 62.648438 191.238281 62.9375 189.988281 63.511719 189.125 C 64.085938 188.261719 64.917969 187.832031 66.007812 187.832031 Z M 66.007812 187.832031 "/>
<path style="fill:none;stroke-width:0.8;stroke-linecap:butt;stroke-linejoin:round;stroke:rgb(0%,0%,0%);stroke-opacity:1;stroke-miterlimit:4;" d="M -0.00117111 -0.000404358 L -3.499218 -0.000404358 " transform="matrix(1.333333,0,0,1.333333,79.587499,157.063039)"/>
<path style=" stroke:none;fill-rule:nonzero;fill:rgb(0%,0%,0%);fill-opacity:1;" d="M 37.761719 152.40625 L 42.921875 152.40625 L 42.921875 153.515625 L 38.964844 153.515625 L 38.964844 155.898438 C 39.15625 155.832031 39.34375 155.785156 39.535156 155.75 C 39.726562 155.71875 39.917969 155.703125 40.109375 155.703125 C 41.195312 155.703125 42.054688 156 42.6875 156.59375 C 43.320312 157.191406 43.640625 157.996094 43.640625 159.011719 C 43.640625 160.054688 43.3125 160.867188 42.664062 161.449219 C 42.011719 162.027344 41.09375 162.316406 39.910156 162.316406 C 39.5 162.316406 39.085938 162.285156 38.660156 162.214844 C 38.238281 162.144531 37.800781 162.039062 37.351562 161.902344 L 37.351562 160.578125 C 37.742188 160.792969 38.144531 160.949219 38.558594 161.054688 C 38.976562 161.15625 39.417969 161.210938 39.882812 161.210938 C 40.632812 161.210938 41.226562 161.011719 41.664062 160.617188 C 42.101562 160.222656 42.324219 159.6875 42.324219 159.011719 C 42.324219 158.332031 42.101562 157.796875 41.664062 157.402344 C 41.226562 157.007812 40.632812 156.808594 39.882812 156.808594 C 39.53125 156.808594 39.179688 156.847656 38.828125 156.925781 C 38.480469 157.003906 38.125 157.125 37.761719 157.292969 Z M 37.761719 152.40625 "/>
<path style=" stroke:none;fill-rule:nonzero;fill:rgb(0%,0%,0%);fill-opacity:1;" d="M 49.042969 153.273438 C 48.363281 153.273438 47.855469 153.609375 47.515625 154.273438 C 47.175781 154.941406 47.003906 155.941406 47.003906 157.277344 C 47.003906 158.609375 47.175781 159.609375 47.515625 160.277344 C 47.855469 160.941406 48.363281 161.277344 49.042969 161.277344 C 49.722656 161.277344 50.234375 160.941406 50.574219 160.277344 C 50.917969 159.609375 51.085938 158.609375 51.085938 157.277344 C 51.085938 155.941406 50.917969 154.941406 50.574219 154.273438 C 50.234375 153.609375 49.722656 153.273438 49.042969 153.273438 Z M 49.042969 152.234375 C 50.132812 152.234375 50.964844 152.664062 51.539062 153.527344 C 52.113281 154.386719 52.402344 155.636719 52.402344 157.277344 C 52.402344 158.914062 52.113281 160.164062 51.539062 161.027344 C 50.964844 161.886719 50.132812 162.316406 49.042969 162.316406 C 47.953125 162.316406 47.121094 161.886719 46.546875 161.027344 C 45.96875 160.164062 45.683594 158.914062 45.683594 157.277344 C 45.683594 155.636719 45.96875 154.386719 46.546875 153.527344 C 47.121094 152.664062 47.953125 152.234375 49.042969 152.234375 Z M 49.042969 152.234375 "/>
<path style=" stroke:none;fill-rule:nonzero;fill:rgb(0%,0%,0%);fill-opacity:1;" d="M 57.523438 153.273438 C 56.847656 153.273438 56.339844 153.609375 55.996094 154.273438 C 55.65625 154.941406 55.488281 155.941406 55.488281 157.277344 C 55.488281 158.609375 55.65625 159.609375 55.996094 160.277344 C 56.339844 160.941406 56.847656 161.277344 57.523438 161.277344 C 58.207031 161.277344 58.71875 160.941406 59.058594 160.277344 C 59.398438 159.609375 59.570312 158.609375 59.570312 157.277344 C 59.570312 155.941406 59.398438 154.941406 59.058594 154.273438 C 58.71875 153.609375 58.207031 153.273438 57.523438 153.273438 Z M 57.523438 152.234375 C 58.613281 152.234375 59.449219 152.664062 60.023438 153.527344 C 60.597656 154.386719 60.886719 155.636719 60.886719 157.277344 C 60.886719 158.914062 60.597656 160.164062 60.023438 161.027344 C 59.449219 161.886719 58.613281 162.316406 57.523438 162.316406 C 56.4375 162.316406 55.605469 161.886719 55.027344 161.027344 C 54.453125 160.164062 54.167969 158.914062 54.167969 157.277344 C 54.167969 155.636719 54.453125 154.386719 55.027344 153.527344 C 55.605469 152.664062 56.4375 152.234375 57.523438 152.234375 Z M 57.523438 152.234375 "/>
<path style=" stroke:none;fill-rule:nonzero;fill:rgb(0%,0%,0%);fill-opacity:1;" d="M 66.007812 153.273438 C 65.332031 153.273438 64.820312 153.609375 64.480469 154.273438 C 64.140625 154.941406 63.96875 155.941406 63.96875 157.277344 C 63.96875 158.609375 64.140625 159.609375 64.480469 160.277344 C 64.820312 160.941406 65.332031 161.277344 66.007812 161.277344 C 66.691406 161.277344 67.199219 160.941406 67.539062 160.277344 C 67.882812 159.609375 68.054688 158.609375 68.054688 157.277344 C 68.054688 155.941406 67.882812 154.941406 67.539062 154.273438 C 67.199219 153.609375 66.691406 153.273438 66.007812 153.273438 Z M 66.007812 152.234375 C 67.097656 152.234375 67.929688 152.664062 68.503906 153.527344 C 69.082031 154.386719 69.367188 155.636719 69.367188 157.277344 C 69.367188 158.914062 69.082031 160.164062 68.503906 161.027344 C 67.929688 161.886719 67.097656 162.316406 66.007812 162.316406 C 64.917969 162.316406 64.085938 161.886719 63.511719 161.027344 C 62.9375 160.164062 62.648438 158.914062 62.648438 157.277344 C 62.648438 155.636719 62.9375 154.386719 63.511719 153.527344 C 64.085938 152.664062 64.917969 152.234375 66.007812 152.234375 Z M 66.007812 152.234375 "/>
<path style="fill:none;stroke-width:0.8;stroke-linecap:butt;stroke-linejoin:round;stroke:rgb(0%,0%,0%);stroke-opacity:1;stroke-miterlimit:4;" d="M -0.00117111 0.000869751 L -3.499218 0.000869751 " transform="matrix(1.333333,0,0,1.333333,79.587499,121.463684)"/>
<path style=" stroke:none;fill-rule:nonzero;fill:rgb(0%,0%,0%);fill-opacity:1;" d="M 29.492188 125.421875 L 31.640625 125.421875 L 31.640625 118.007812 L 29.300781 118.476562 L 29.300781 117.277344 L 31.628906 116.808594 L 32.941406 116.808594 L 32.941406 125.421875 L 35.089844 125.421875 L 35.089844 126.53125 L 29.492188 126.53125 Z M 29.492188 125.421875 "/>
<path style=" stroke:none;fill-rule:nonzero;fill:rgb(0%,0%,0%);fill-opacity:1;" d="M 40.558594 117.675781 C 39.882812 117.675781 39.371094 118.007812 39.03125 118.675781 C 38.691406 119.339844 38.519531 120.34375 38.519531 121.679688 C 38.519531 123.011719 38.691406 124.011719 39.03125 124.675781 C 39.371094 125.34375 39.882812 125.675781 40.558594 125.675781 C 41.238281 125.675781 41.75 125.34375 42.089844 124.675781 C 42.433594 124.011719 42.605469 123.011719 42.605469 121.679688 C 42.605469 120.34375 42.433594 119.339844 42.089844 118.675781 C 41.75 118.007812 41.238281 117.675781 40.558594 117.675781 Z M 40.558594 116.632812 C 41.648438 116.632812 42.480469 117.066406 43.054688 117.925781 C 43.632812 118.789062 43.917969 120.039062 43.917969 121.679688 C 43.917969 123.316406 43.632812 124.566406 43.054688 125.425781 C 42.480469 126.289062 41.648438 126.71875 40.558594 126.71875 C 39.46875 126.71875 38.636719 126.289062 38.0625 125.425781 C 37.488281 124.566406 37.199219 123.316406 37.199219 121.679688 C 37.199219 120.039062 37.488281 118.789062 38.0625 117.925781 C 38.636719 117.066406 39.46875 116.632812 40.558594 116.632812 Z M 40.558594 116.632812 "/>
<path style=" stroke:none;fill-rule:nonzero;fill:rgb(0%,0%,0%);fill-opacity:1;" d="M 49.042969 117.675781 C 48.363281 117.675781 47.855469 118.007812 47.515625 118.675781 C 47.171875 119.339844 47.003906 120.34375 47.003906 121.679688 C 47.003906 123.011719 47.171875 124.011719 47.515625 124.675781 C 47.855469 125.34375 48.363281 125.675781 49.042969 125.675781 C 49.722656 125.675781 50.234375 125.34375 50.574219 124.675781 C 50.917969 124.011719 51.085938 123.011719 51.085938 121.679688 C 51.085938 120.34375 50.917969 119.339844 50.574219 118.675781 C 50.234375 118.007812 49.722656 117.675781 49.042969 117.675781 Z M 49.042969 116.632812 C 50.132812 116.632812 50.964844 117.066406 51.539062 117.925781 C 52.113281 118.789062 52.402344 120.039062 52.402344 121.679688 C 52.402344 123.316406 52.113281 124.566406 51.539062 125.425781 C 50.964844 126.289062 50.132812 126.71875 49.042969 126.71875 C 47.953125 126.71875 47.121094 126.289062 46.546875 125.425781 C 45.96875 124.566406 45.683594 123.316406 45.683594 121.679688 C 45.683594 120.039062 45.96875 118.789062 46.546875 117.925781 C 47.121094 117.066406 47.953125 116.632812 49.042969 116.632812 Z M 49.042969 116.632812 "/>
<path style=" stroke:none;fill-rule:nonzero;fill:rgb(0%,0%,0%);fill-opacity:1;" d="M 57.523438 117.675781 C 56.847656 117.675781 56.339844 118.007812 55.996094 118.675781 C 55.65625 119.339844 55.488281 120.34375 55.488281 121.679688 C 55.488281 123.011719 55.65625 124.011719 55.996094 124.675781 C 56.339844 125.34375 56.847656 125.675781 57.523438 125.675781 C 58.207031 125.675781 58.71875 125.34375 59.058594 124.675781 C 59.398438 124.011719 59.570312 123.011719 59.570312 121.679688 C 59.570312 120.34375 59.398438 119.339844 59.058594 118.675781 C 58.71875 118.007812 58.207031 117.675781 57.523438 117.675781 Z M 57.523438 116.632812 C 58.613281 116.632812 59.445312 117.066406 60.023438 117.925781 C 60.597656 118.789062 60.882812 120.039062 60.882812 121.679688 C 60.882812 123.316406 60.597656 124.566406 60.023438 125.425781 C 59.445312 126.289062 58.613281 126.71875 57.523438 126.71875 C 56.433594 126.71875 55.601562 126.289062 55.027344 125.425781 C 54.453125 124.566406 54.164062 123.316406 54.164062 121.679688 C 54.164062 120.039062 54.453125 118.789062 55.027344 117.925781 C 55.601562 117.066406 56.433594 116.632812 57.523438 116.632812 Z M 57.523438 116.632812 "/>
<path style=" stroke:none;fill-rule:nonzero;fill:rgb(0%,0%,0%);fill-opacity:1;" d="M 66.007812 117.675781 C 65.332031 117.675781 64.820312 118.007812 64.480469 118.675781 C 64.140625 119.339844 63.96875 120.34375 63.96875 121.679688 C 63.96875 123.011719 64.140625 124.011719 64.480469 124.675781 C 64.820312 125.34375 65.332031 125.675781 66.007812 125.675781 C 66.6875 125.675781 67.199219 125.34375 67.539062 124.675781 C 67.882812 124.011719 68.054688 123.011719 68.054688 121.679688 C 68.054688 120.34375 67.882812 119.339844 67.539062 118.675781 C 67.199219 118.007812 66.6875 117.675781 66.007812 117.675781 Z M 66.007812 116.632812 C 67.097656 116.632812 67.929688 117.066406 68.503906 117.925781 C 69.082031 118.789062 69.367188 120.039062 69.367188 121.679688 C 69.367188 123.316406 69.082031 124.566406 68.503906 125.425781 C 67.929688 126.289062 67.097656 126.71875 66.007812 126.71875 C 64.917969 126.71875 64.085938 126.289062 63.511719 125.425781 C 62.9375 124.566406 62.648438 123.316406 62.648438 121.679688 C 62.648438 120.039062 62.9375 118.789062 63.511719 117.925781 C 64.085938 117.066406 64.917969 116.632812 66.007812 116.632812 Z M 66.007812 116.632812 "/>
<path style="fill:none;stroke-width:0.8;stroke-linecap:butt;stroke-linejoin:round;stroke:rgb(0%,0%,0%);stroke-opacity:1;stroke-miterlimit:4;" d="M -0.00117111 -0.000785828 L -3.499218 -0.000785828 " transform="matrix(1.333333,0,0,1.333333,79.587499,85.864329)"/>
<path style=" stroke:none;fill-rule:nonzero;fill:rgb(0%,0%,0%);fill-opacity:1;" d="M 29.492188 89.824219 L 31.640625 89.824219 L 31.640625 82.40625 L 29.300781 82.875 L 29.300781 81.679688 L 31.628906 81.210938 L 32.941406 81.210938 L 32.941406 89.824219 L 35.089844 89.824219 L 35.089844 90.929688 L 29.492188 90.929688 Z M 29.492188 89.824219 "/>
<path style=" stroke:none;fill-rule:nonzero;fill:rgb(0%,0%,0%);fill-opacity:1;" d="M 37.761719 81.210938 L 42.921875 81.210938 L 42.921875 82.316406 L 38.964844 82.316406 L 38.964844 84.699219 C 39.15625 84.632812 39.34375 84.585938 39.535156 84.554688 C 39.726562 84.519531 39.917969 84.503906 40.109375 84.503906 C 41.195312 84.503906 42.054688 84.800781 42.6875 85.398438 C 43.320312 85.992188 43.640625 86.796875 43.640625 87.8125 C 43.640625 88.855469 43.3125 89.671875 42.664062 90.25 C 42.011719 90.828125 41.09375 91.121094 39.90625 91.121094 C 39.5 91.121094 39.082031 91.085938 38.660156 91.015625 C 38.238281 90.945312 37.800781 90.839844 37.351562 90.703125 L 37.351562 89.378906 C 37.738281 89.59375 38.144531 89.75 38.558594 89.855469 C 38.976562 89.960938 39.417969 90.011719 39.882812 90.011719 C 40.632812 90.011719 41.226562 89.8125 41.664062 89.417969 C 42.101562 89.023438 42.324219 88.488281 42.324219 87.8125 C 42.324219 87.136719 42.101562 86.597656 41.664062 86.203125 C 41.226562 85.808594 40.632812 85.609375 39.882812 85.609375 C 39.53125 85.609375 39.179688 85.648438 38.828125 85.726562 C 38.480469 85.804688 38.125 85.925781 37.761719 86.09375 Z M 37.761719 81.210938 "/>
<path style=" stroke:none;fill-rule:nonzero;fill:rgb(0%,0%,0%);fill-opacity:1;" d="M 49.042969 82.074219 C 48.363281 82.074219 47.855469 82.410156 47.515625 83.074219 C 47.171875 83.742188 47.003906 84.742188 47.003906 86.078125 C 47.003906 87.410156 47.171875 88.410156 47.515625 89.078125 C 47.855469 89.746094 48.363281 90.078125 49.042969 90.078125 C 49.722656 90.078125 50.234375 89.746094 50.574219 89.078125 C 50.917969 88.410156 51.085938 87.410156 51.085938 86.078125 C 51.085938 84.742188 50.917969 83.742188 50.574219 83.074219 C 50.234375 82.410156 49.722656 82.074219 49.042969 82.074219 Z M 49.042969 81.035156 C 50.132812 81.035156 50.964844 81.464844 51.539062 82.328125 C 52.113281 83.1875 52.402344 84.441406 52.402344 86.078125 C 52.402344 87.714844 52.113281 88.964844 51.539062 89.828125 C 50.964844 90.6875 50.132812 91.121094 49.042969 91.121094 C 47.953125 91.121094 47.121094 90.6875 46.546875 89.828125 C 45.96875 88.964844 45.683594 87.714844 45.683594 86.078125 C 45.683594 84.441406 45.96875 83.1875 46.546875 82.328125 C 47.121094 81.464844 47.953125 81.035156 49.042969 81.035156 Z M 49.042969 81.035156 "/>
<path style=" stroke:none;fill-rule:nonzero;fill:rgb(0%,0%,0%);fill-opacity:1;" d="M 57.523438 82.074219 C 56.847656 82.074219 56.339844 82.410156 55.996094 83.074219 C 55.65625 83.742188 55.488281 84.742188 55.488281 86.078125 C 55.488281 87.410156 55.65625 88.410156 55.996094 89.078125 C 56.339844 89.746094 56.847656 90.078125 57.523438 90.078125 C 58.207031 90.078125 58.71875 89.746094 59.058594 89.078125 C 59.398438 88.410156 59.570312 87.410156 59.570312 86.078125 C 59.570312 84.742188 59.398438 83.742188 59.058594 83.074219 C 58.71875 82.410156 58.207031 82.074219 57.523438 82.074219 Z M 57.523438 81.035156 C 58.613281 81.035156 59.445312 81.464844 60.023438 82.328125 C 60.597656 83.1875 60.882812 84.441406 60.882812 86.078125 C 60.882812 87.714844 60.597656 88.964844 60.023438 89.828125 C 59.445312 90.6875 58.613281 91.121094 57.523438 91.121094 C 56.433594 91.121094 55.601562 90.6875 55.027344 89.828125 C 54.453125 88.964844 54.164062 87.714844 54.164062 86.078125 C 54.164062 84.441406 54.453125 83.1875 55.027344 82.328125 C 55.601562 81.464844 56.433594 81.035156 57.523438 81.035156 Z M 57.523438 81.035156 "/>
<path style=" stroke:none;fill-rule:nonzero;fill:rgb(0%,0%,0%);fill-opacity:1;" d="M 66.007812 82.074219 C 65.332031 82.074219 64.820312 82.410156 64.480469 83.074219 C 64.140625 83.742188 63.96875 84.742188 63.96875 86.078125 C 63.96875 87.410156 64.140625 88.410156 64.480469 89.078125 C 64.820312 89.746094 65.332031 90.078125 66.007812 90.078125 C 66.6875 90.078125 67.199219 89.746094 67.539062 89.078125 C 67.882812 88.410156 68.054688 87.410156 68.054688 86.078125 C 68.054688 84.742188 67.882812 83.742188 67.539062 83.074219 C 67.199219 82.410156 66.6875 82.074219 66.007812 82.074219 Z M 66.007812 81.035156 C 67.097656 81.035156 67.929688 81.464844 68.503906 82.328125 C 69.082031 83.1875 69.367188 84.441406 69.367188 86.078125 C 69.367188 87.714844 69.082031 88.964844 68.503906 89.828125 C 67.929688 90.6875 67.097656 91.121094 66.007812 91.121094 C 64.917969 91.121094 64.085938 90.6875 63.511719 89.828125 C 62.9375 88.964844 62.648438 87.714844 62.648438 86.078125 C 62.648438 84.441406 62.9375 83.1875 63.511719 82.328125 C 64.085938 81.464844 64.917969 81.035156 66.007812 81.035156 Z M 66.007812 81.035156 "/>
<path style="fill:none;stroke-width:0.8;stroke-linecap:butt;stroke-linejoin:round;stroke:rgb(0%,0%,0%);stroke-opacity:1;stroke-miterlimit:4;" d="M -0.00117111 0.000484467 L -3.499218 0.000484467 " transform="matrix(1.333333,0,0,1.333333,79.587499,50.264979)"/>
<path style=" stroke:none;fill-rule:nonzero;fill:rgb(0%,0%,0%);fill-opacity:1;" d="M 30.394531 54.222656 L 34.984375 54.222656 L 34.984375 55.332031 L 28.816406 55.332031 L 28.816406 54.222656 C 29.3125 53.707031 29.992188 53.015625 30.855469 52.144531 C 31.714844 51.273438 32.257812 50.710938 32.480469 50.460938 C 32.898438 49.988281 33.195312 49.585938 33.359375 49.261719 C 33.527344 48.933594 33.613281 48.609375 33.613281 48.292969 C 33.613281 47.777344 33.429688 47.355469 33.070312 47.03125 C 32.707031 46.703125 32.234375 46.542969 31.652344 46.542969 C 31.238281 46.542969 30.804688 46.613281 30.347656 46.753906 C 29.890625 46.898438 29.398438 47.117188 28.878906 47.40625 L 28.878906 46.078125 C 29.410156 45.867188 29.902344 45.707031 30.363281 45.597656 C 30.824219 45.488281 31.246094 45.433594 31.628906 45.433594 C 32.632812 45.433594 33.4375 45.6875 34.035156 46.191406 C 34.632812 46.695312 34.933594 47.367188 34.933594 48.207031 C 34.933594 48.609375 34.859375 48.988281 34.707031 49.34375 C 34.558594 49.703125 34.289062 50.125 33.890625 50.609375 C 33.785156 50.734375 33.4375 51.101562 32.855469 51.703125 C 32.277344 52.304688 31.457031 53.144531 30.394531 54.222656 Z M 30.394531 54.222656 "/>
<path style=" stroke:none;fill-rule:nonzero;fill:rgb(0%,0%,0%);fill-opacity:1;" d="M 40.558594 46.476562 C 39.882812 46.476562 39.371094 46.808594 39.03125 47.476562 C 38.691406 48.140625 38.519531 49.144531 38.519531 50.480469 C 38.519531 51.8125 38.691406 52.8125 39.03125 53.480469 C 39.371094 54.144531 39.882812 54.480469 40.558594 54.480469 C 41.238281 54.480469 41.75 54.144531 42.089844 53.480469 C 42.433594 52.8125 42.605469 51.8125 42.605469 50.480469 C 42.605469 49.144531 42.433594 48.140625 42.089844 47.476562 C 41.75 46.808594 41.238281 46.476562 40.558594 46.476562 Z M 40.558594 45.433594 C 41.648438 45.433594 42.480469 45.867188 43.054688 46.730469 C 43.632812 47.589844 43.917969 48.839844 43.917969 50.480469 C 43.917969 52.117188 43.632812 53.367188 43.054688 54.230469 C 42.480469 55.089844 41.648438 55.519531 40.558594 55.519531 C 39.46875 55.519531 38.636719 55.089844 38.0625 54.230469 C 37.488281 53.367188 37.199219 52.117188 37.199219 50.480469 C 37.199219 48.839844 37.488281 47.589844 38.0625 46.730469 C 38.636719 45.867188 39.46875 45.433594 40.558594 45.433594 Z M 40.558594 45.433594 "/>
<path style=" stroke:none;fill-rule:nonzero;fill:rgb(0%,0%,0%);fill-opacity:1;" d="M 49.042969 46.476562 C 48.363281 46.476562 47.855469 46.808594 47.515625 47.476562 C 47.171875 48.140625 47.003906 49.144531 47.003906 50.480469 C 47.003906 51.8125 47.171875 52.8125 47.515625 53.480469 C 47.855469 54.144531 48.363281 54.480469 49.042969 54.480469 C 49.722656 54.480469 50.234375 54.144531 50.574219 53.480469 C 50.917969 52.8125 51.085938 51.8125 51.085938 50.480469 C 51.085938 49.144531 50.917969 48.140625 50.574219 47.476562 C 50.234375 46.808594 49.722656 46.476562 49.042969 46.476562 Z M 49.042969 45.433594 C 50.132812 45.433594 50.964844 45.867188 51.539062 46.730469 C 52.113281 47.589844 52.402344 48.839844 52.402344 50.480469 C 52.402344 52.117188 52.113281 53.367188 51.539062 54.230469 C 50.964844 55.089844 50.132812 55.519531 49.042969 55.519531 C 47.953125 55.519531 47.121094 55.089844 46.546875 54.230469 C 45.96875 53.367188 45.683594 52.117188 45.683594 50.480469 C 45.683594 48.839844 45.96875 47.589844 46.546875 46.730469 C 47.121094 45.867188 47.953125 45.433594 49.042969 45.433594 Z M 49.042969 45.433594 "/>
<path style=" stroke:none;fill-rule:nonzero;fill:rgb(0%,0%,0%);fill-opacity:1;" d="M 57.523438 46.476562 C 56.847656 46.476562 56.339844 46.808594 55.996094 47.476562 C 55.65625 48.140625 55.488281 49.144531 55.488281 50.480469 C 55.488281 51.8125 55.65625 52.8125 55.996094 53.480469 C 56.339844 54.144531 56.847656 54.480469 57.523438 54.480469 C 58.207031 54.480469 58.71875 54.144531 59.058594 53.480469 C 59.398438 52.8125 59.570312 51.8125 59.570312 50.480469 C 59.570312 49.144531 59.398438 48.140625 59.058594 47.476562 C 58.71875 46.808594 58.207031 46.476562 57.523438 46.476562 Z M 57.523438 45.433594 C 58.613281 45.433594 59.445312 45.867188 60.023438 46.730469 C 60.597656 47.589844 60.882812 48.839844 60.882812 50.480469 C 60.882812 52.117188 60.597656 53.367188 60.023438 54.230469 C 59.445312 55.089844 58.613281 55.519531 57.523438 55.519531 C 56.433594 55.519531 55.601562 55.089844 55.027344 54.230469 C 54.453125 53.367188 54.164062 52.117188 54.164062 50.480469 C 54.164062 48.839844 54.453125 47.589844 55.027344 46.730469 C 55.601562 45.867188 56.433594 45.433594 57.523438 45.433594 Z M 57.523438 45.433594 "/>
<path style=" stroke:none;fill-rule:nonzero;fill:rgb(0%,0%,0%);fill-opacity:1;" d="M 66.007812 46.476562 C 65.332031 46.476562 64.820312 46.808594 64.480469 47.476562 C 64.140625 48.140625 63.96875 49.144531 63.96875 50.480469 C 63.96875 51.8125 64.140625 52.8125 64.480469 53.480469 C 64.820312 54.144531 65.332031 54.480469 66.007812 54.480469 C 66.6875 54.480469 67.199219 54.144531 67.539062 53.480469 C 67.882812 52.8125 68.054688 51.8125 68.054688 50.480469 C 68.054688 49.144531 67.882812 48.140625 67.539062 47.476562 C 67.199219 46.808594 66.6875 46.476562 66.007812 46.476562 Z M 66.007812 45.433594 C 67.097656 45.433594 67.929688 45.867188 68.503906 46.730469 C 69.082031 47.589844 69.367188 48.839844 69.367188 50.480469 C 69.367188 52.117188 69.082031 53.367188 68.503906 54.230469 C 67.929688 55.089844 67.097656 55.519531 66.007812 55.519531 C 64.917969 55.519531 64.085938 55.089844 63.511719 54.230469 C 62.9375 53.367188 62.648438 52.117188 62.648438 50.480469 C 62.648438 48.839844 62.9375 47.589844 63.511719 46.730469 C 64.085938 45.867188 64.917969 45.433594 66.007812 45.433594 Z M 66.007812 45.433594 "/>
<path style="fill:none;stroke-width:0.8;stroke-linecap:butt;stroke-linejoin:round;stroke:rgb(0%,0%,0%);stroke-opacity:1;stroke-miterlimit:4;" d="M -0.00117111 -0.00117207 L -3.499218 -0.00117207 " transform="matrix(1.333333,0,0,1.333333,79.587499,14.665625)"/>
<path style=" stroke:none;fill-rule:nonzero;fill:rgb(0%,0%,0%);fill-opacity:1;" d="M 30.394531 18.625 L 34.984375 18.625 L 34.984375 19.730469 L 28.816406 19.730469 L 28.816406 18.625 C 29.3125 18.109375 29.992188 17.414062 30.855469 16.546875 C 31.714844 15.675781 32.257812 15.113281 32.480469 14.859375 C 32.898438 14.386719 33.195312 13.988281 33.359375 13.660156 C 33.527344 13.332031 33.613281 13.011719 33.613281 12.695312 C 33.613281 12.175781 33.429688 11.757812 33.070312 11.429688 C 32.707031 11.105469 32.234375 10.941406 31.652344 10.941406 C 31.238281 10.941406 30.804688 11.011719 30.347656 11.15625 C 29.890625 11.300781 29.398438 11.515625 28.878906 11.808594 L 28.878906 10.480469 C 29.410156 10.265625 29.902344 10.105469 30.363281 9.996094 C 30.824219 9.890625 31.246094 9.835938 31.628906 9.835938 C 32.632812 9.835938 33.4375 10.085938 34.035156 10.589844 C 34.632812 11.09375 34.933594 11.765625 34.933594 12.609375 C 34.933594 13.007812 34.859375 13.386719 34.707031 13.746094 C 34.558594 14.101562 34.289062 14.523438 33.890625 15.011719 C 33.785156 15.136719 33.4375 15.5 32.855469 16.101562 C 32.277344 16.703125 31.457031 17.542969 30.394531 18.625 Z M 30.394531 18.625 "/>
<path style=" stroke:none;fill-rule:nonzero;fill:rgb(0%,0%,0%);fill-opacity:1;" d="M 37.761719 10.011719 L 42.921875 10.011719 L 42.921875 11.117188 L 38.964844 11.117188 L 38.964844 13.5 C 39.15625 13.433594 39.34375 13.386719 39.535156 13.355469 C 39.726562 13.320312 39.917969 13.304688 40.109375 13.304688 C 41.195312 13.304688 42.054688 13.601562 42.6875 14.199219 C 43.320312 14.792969 43.640625 15.597656 43.640625 16.613281 C 43.640625 17.660156 43.3125 18.472656 42.664062 19.050781 C 42.011719 19.632812 41.09375 19.921875 39.90625 19.921875 C 39.5 19.921875 39.082031 19.886719 38.660156 19.816406 C 38.238281 19.746094 37.800781 19.644531 37.351562 19.503906 L 37.351562 18.179688 C 37.738281 18.394531 38.144531 18.550781 38.558594 18.65625 C 38.976562 18.761719 39.417969 18.8125 39.882812 18.8125 C 40.632812 18.8125 41.226562 18.617188 41.664062 18.222656 C 42.101562 17.828125 42.324219 17.289062 42.324219 16.613281 C 42.324219 15.9375 42.101562 15.402344 41.664062 15.007812 C 41.226562 14.609375 40.632812 14.414062 39.882812 14.414062 C 39.53125 14.414062 39.179688 14.453125 38.828125 14.527344 C 38.480469 14.605469 38.125 14.726562 37.761719 14.894531 Z M 37.761719 10.011719 "/>
<path style=" stroke:none;fill-rule:nonzero;fill:rgb(0%,0%,0%);fill-opacity:1;" d="M 49.042969 10.878906 C 48.363281 10.878906 47.855469 11.210938 47.515625 11.878906 C 47.171875 12.542969 47.003906 13.542969 47.003906 14.882812 C 47.003906 16.214844 47.171875 17.210938 47.515625 17.878906 C 47.855469 18.546875 48.363281 18.878906 49.042969 18.878906 C 49.722656 18.878906 50.234375 18.546875 50.574219 17.878906 C 50.917969 17.210938 51.085938 16.214844 51.085938 14.882812 C 51.085938 13.542969 50.917969 12.542969 50.574219 11.878906 C 50.234375 11.210938 49.722656 10.878906 49.042969 10.878906 Z M 49.042969 9.835938 C 50.132812 9.835938 50.964844 10.265625 51.539062 11.128906 C 52.113281 11.992188 52.402344 13.242188 52.402344 14.882812 C 52.402344 16.515625 52.113281 17.765625 51.539062 18.628906 C 50.964844 19.492188 50.132812 19.921875 49.042969 19.921875 C 47.953125 19.921875 47.121094 19.492188 46.546875 18.628906 C 45.96875 17.765625 45.683594 16.515625 45.683594 14.882812 C 45.683594 13.242188 45.96875 11.992188 46.546875 11.128906 C 47.121094 10.265625 47.953125 9.835938 49.042969 9.835938 Z M 49.042969 9.835938 "/>
<path style=" stroke:none;fill-rule:nonzero;fill:rgb(0%,0%,0%);fill-opacity:1;" d="M 57.523438 10.878906 C 56.847656 10.878906 56.339844 11.210938 55.996094 11.878906 C 55.65625 12.542969 55.488281 13.542969 55.488281 14.882812 C 55.488281 16.214844 55.65625 17.210938 55.996094 17.878906 C 56.339844 18.546875 56.847656 18.878906 57.523438 18.878906 C 58.207031 18.878906 58.71875 18.546875 59.058594 17.878906 C 59.398438 17.210938 59.570312 16.214844 59.570312 14.882812 C 59.570312 13.542969 59.398438 12.542969 59.058594 11.878906 C 58.71875 11.210938 58.207031 10.878906 57.523438 10.878906 Z M 57.523438 9.835938 C 58.613281 9.835938 59.445312 10.265625 60.023438 11.128906 C 60.597656 11.992188 60.882812 13.242188 60.882812 14.882812 C 60.882812 16.515625 60.597656 17.765625 60.023438 18.628906 C 59.445312 19.492188 58.613281 19.921875 57.523438 19.921875 C 56.433594 19.921875 55.601562 19.492188 55.027344 18.628906 C 54.453125 17.765625 54.164062 16.515625 54.164062 14.882812 C 54.164062 13.242188 54.453125 11.992188 55.027344 11.128906 C 55.601562 10.265625 56.433594 9.835938 57.523438 9.835938 Z M 57.523438 9.835938 "/>
<path style=" stroke:none;fill-rule:nonzero;fill:rgb(0%,0%,0%);fill-opacity:1;" d="M 66.007812 10.878906 C 65.332031 10.878906 64.820312 11.210938 64.480469 11.878906 C 64.140625 12.542969 63.96875 13.542969 63.96875 14.882812 C 63.96875 16.214844 64.140625 17.210938 64.480469 17.878906 C 64.820312 18.546875 65.332031 18.878906 66.007812 18.878906 C 66.6875 18.878906 67.199219 18.546875 67.539062 17.878906 C 67.882812 17.210938 68.054688 16.214844 68.054688 14.882812 C 68.054688 13.542969 67.882812 12.542969 67.539062 11.878906 C 67.199219 11.210938 66.6875 10.878906 66.007812 10.878906 Z M 66.007812 9.835938 C 67.097656 9.835938 67.929688 10.265625 68.503906 11.128906 C 69.082031 11.992188 69.367188 13.242188 69.367188 14.882812 C 69.367188 16.515625 69.082031 17.765625 68.503906 18.628906 C 67.929688 19.492188 67.097656 19.921875 66.007812 19.921875 C 64.917969 19.921875 64.085938 19.492188 63.511719 18.628906 C 62.9375 17.765625 62.648438 16.515625 62.648438 14.882812 C 62.648438 13.242188 62.9375 11.992188 63.511719 11.128906 C 64.085938 10.265625 64.917969 9.835938 66.007812 9.835938 Z M 66.007812 9.835938 "/>
<path style=" stroke:none;fill-rule:nonzero;fill:rgb(0%,0%,0%);fill-opacity:1;" d="M 12.71875 114.367188 L 13.839844 114.367188 C 13.652344 114.707031 13.511719 115.046875 13.417969 115.386719 C 13.324219 115.726562 13.277344 116.070312 13.277344 116.417969 C 13.277344 117.195312 13.527344 117.796875 14.019531 118.230469 C 14.511719 118.660156 15.203125 118.871094 16.089844 118.871094 C 16.980469 118.871094 17.671875 118.660156 18.167969 118.230469 C 18.660156 117.796875 18.902344 117.195312 18.902344 116.417969 C 18.902344 116.070312 18.859375 115.726562 18.765625 115.386719 C 18.671875 115.046875 18.53125 114.707031 18.34375 114.367188 L 19.453125 114.367188 C 19.609375 114.703125 19.722656 115.046875 19.800781 115.40625 C 19.882812 115.761719 19.921875 116.144531 19.921875 116.546875 C 19.921875 117.644531 19.574219 118.519531 18.886719 119.167969 C 18.195312 119.8125 17.265625 120.136719 16.089844 120.136719 C 14.902344 120.136719 13.96875 119.808594 13.289062 119.15625 C 12.605469 118.503906 12.265625 117.605469 12.265625 116.46875 C 12.265625 116.101562 12.304688 115.742188 12.378906 115.390625 C 12.453125 115.039062 12.566406 114.695312 12.71875 114.367188 Z M 12.71875 114.367188 "/>
<path style=" stroke:none;fill-rule:nonzero;fill:rgb(0%,0%,0%);fill-opacity:1;" d="M 13.277344 109.457031 C 13.277344 110.101562 13.53125 110.609375 14.03125 110.980469 C 14.53125 111.355469 15.21875 111.542969 16.089844 111.542969 C 16.964844 111.542969 17.652344 111.355469 18.152344 110.984375 C 18.652344 110.613281 18.902344 110.105469 18.902344 109.457031 C 18.902344 108.820312 18.652344 108.3125 18.148438 107.941406 C 17.644531 107.570312 16.960938 107.382812 16.089844 107.382812 C 15.226562 107.382812 14.542969 107.570312 14.039062 107.941406 C 13.53125 108.3125 13.277344 108.820312 13.277344 109.457031 Z M 12.265625 109.457031 C 12.265625 108.417969 12.601562 107.597656 13.28125 107.003906 C 13.957031 106.410156 14.894531 106.109375 16.089844 106.109375 C 17.285156 106.109375 18.222656 106.410156 18.902344 107.003906 C 19.582031 107.597656 19.921875 108.417969 19.921875 109.457031 C 19.921875 110.503906 19.582031 111.324219 18.902344 111.917969 C 18.222656 112.507812 17.285156 112.804688 16.089844 112.804688 C 14.894531 112.804688 13.957031 112.507812 13.28125 111.917969 C 12.601562 111.324219 12.265625 110.503906 12.265625 109.457031 Z M 12.265625 109.457031 "/>
<path style=" stroke:none;fill-rule:nonzero;fill:rgb(0%,0%,0%);fill-opacity:1;" d="M 16.855469 104.25 L 12.441406 104.25 L 12.441406 103.050781 L 16.808594 103.050781 C 17.5 103.050781 18.015625 102.917969 18.363281 102.648438 C 18.707031 102.378906 18.878906 101.976562 18.878906 101.4375 C 18.878906 100.789062 18.671875 100.28125 18.261719 99.90625 C 17.847656 99.527344 17.285156 99.339844 16.574219 99.339844 L 12.441406 99.339844 L 12.441406 98.144531 L 19.730469 98.144531 L 19.730469 99.339844 L 18.609375 99.339844 C 19.054688 99.632812 19.382812 99.96875 19.597656 100.351562 C 19.8125 100.738281 19.921875 101.183594 19.921875 101.691406 C 19.921875 102.527344 19.660156 103.164062 19.140625 103.597656 C 18.617188 104.03125 17.855469 104.25 16.855469 104.25 Z M 12.265625 101.234375 Z M 12.265625 101.234375 "/>
<path style=" stroke:none;fill-rule:nonzero;fill:rgb(0%,0%,0%);fill-opacity:1;" d="M 15.328125 89.613281 L 19.730469 89.613281 L 19.730469 90.8125 L 15.367188 90.8125 C 14.679688 90.8125 14.164062 90.945312 13.820312 91.214844 C 13.476562 91.484375 13.304688 91.886719 13.304688 92.425781 C 13.304688 93.074219 13.511719 93.582031 13.925781 93.957031 C 14.335938 94.332031 14.898438 94.515625 15.609375 94.515625 L 19.730469 94.515625 L 19.730469 95.722656 L 12.441406 95.722656 L 12.441406 94.515625 L 13.574219 94.515625 C 13.132812 94.230469 12.804688 93.890625 12.589844 93.503906 C 12.371094 93.117188 12.265625 92.667969 12.265625 92.160156 C 12.265625 91.320312 12.523438 90.6875 13.042969 90.257812 C 13.558594 89.828125 14.320312 89.613281 15.328125 89.613281 Z M 15.328125 89.613281 "/>
<path style=" stroke:none;fill-rule:nonzero;fill:rgb(0%,0%,0%);fill-opacity:1;" d="M 10.367188 86.039062 L 12.441406 86.039062 L 12.441406 83.574219 L 13.371094 83.574219 L 13.371094 86.039062 L 17.328125 86.039062 C 17.921875 86.039062 18.304688 85.957031 18.476562 85.796875 C 18.644531 85.632812 18.730469 85.300781 18.730469 84.800781 L 18.730469 83.574219 L 19.730469 83.574219 L 19.730469 84.800781 C 19.730469 85.726562 19.558594 86.367188 19.214844 86.71875 C 18.867188 87.066406 18.242188 87.242188 17.328125 87.242188 L 13.371094 87.242188 L 13.371094 88.125 L 12.441406 88.125 L 12.441406 87.242188 L 10.367188 87.242188 Z M 10.367188 86.039062 "/>
<path style="fill:none;stroke-width:0.8;stroke-linecap:square;stroke-linejoin:miter;stroke:rgb(0%,0%,0%);stroke-opacity:1;stroke-miterlimit:4;" d="M 59.689453 144.498047 L 59.689453 8.595703 " transform="matrix(1.333333,0,0,1.333333,0,0.000000000000014211)"/>
<path style="fill:none;stroke-width:0.8;stroke-linecap:square;stroke-linejoin:miter;stroke:rgb(0%,0%,0%);stroke-opacity:1;stroke-miterlimit:4;" d="M 254.991211 144.498047 L 254.991211 8.595703 " transform="matrix(1.333333,0,0,1.333333,0,0.000000000000014211)"/>
<path style="fill:none;stroke-width:0.8;stroke-linecap:square;stroke-linejoin:miter;stroke:rgb(0%,0%,0%);stroke-opacity:1;stroke-miterlimit:4;" d="M 59.689453 144.498047 L 254.991211 144.498047 " transform="matrix(1.333333,0,0,1.333333,0,0.000000000000014211)"/>
<path style="fill:none;stroke-width:0.8;stroke-linecap:square;stroke-linejoin:miter;stroke:rgb(0%,0%,0%);stroke-opacity:1;stroke-miterlimit:4;" d="M 59.689453 8.595703 L 254.991211 8.595703 " transform="matrix(1.333333,0,0,1.333333,0,0.000000000000014211)"/>
<use xlink:href="#surface23" mask="url(#mask0)"/>
<path style=" stroke:none;fill-rule:nonzero;fill:rgb(12.156863%,46.666667%,70.588237%);fill-opacity:1;" d="M 209.851562 33.59375 L 236.519531 33.59375 L 236.519531 24.261719 L 209.851562 24.261719 Z M 209.851562 33.59375 "/>
<path style=" stroke:none;fill-rule:nonzero;fill:rgb(0%,0%,0%);fill-opacity:1;" d="M 251.265625 27.140625 C 250.625 27.140625 250.117188 27.390625 249.742188 27.894531 C 249.371094 28.394531 249.183594 29.082031 249.183594 29.953125 C 249.183594 30.828125 249.367188 31.511719 249.738281 32.015625 C 250.113281 32.515625 250.621094 32.765625 251.265625 32.765625 C 251.90625 32.765625 252.410156 32.515625 252.785156 32.011719 C 253.15625 31.507812 253.34375 30.820312 253.34375 29.953125 C 253.34375 29.089844 253.15625 28.40625 252.785156 27.898438 C 252.410156 27.394531 251.90625 27.140625 251.265625 27.140625 Z M 251.265625 26.128906 C 252.308594 26.128906 253.125 26.464844 253.722656 27.144531 C 254.316406 27.820312 254.613281 28.757812 254.613281 29.953125 C 254.613281 31.148438 254.316406 32.082031 253.722656 32.765625 C 253.125 33.445312 252.308594 33.785156 251.265625 33.785156 C 250.222656 33.785156 249.402344 33.445312 248.808594 32.765625 C 248.214844 32.082031 247.921875 31.148438 247.921875 29.953125 C 247.921875 28.757812 248.214844 27.820312 248.808594 27.144531 C 249.402344 26.464844 250.222656 26.128906 251.265625 26.128906 Z M 251.265625 26.128906 "/>
<path style=" stroke:none;fill-rule:nonzero;fill:rgb(0%,0%,0%);fill-opacity:1;" d="M 260.824219 27.421875 C 260.691406 27.34375 260.542969 27.285156 260.382812 27.25 C 260.226562 27.210938 260.050781 27.195312 259.863281 27.195312 C 259.183594 27.195312 258.664062 27.414062 258.300781 27.855469 C 257.9375 28.292969 257.757812 28.925781 257.757812 29.753906 L 257.757812 33.59375 L 256.554688 33.59375 L 256.554688 26.300781 L 257.757812 26.300781 L 257.757812 27.433594 C 258.011719 26.992188 258.339844 26.664062 258.742188 26.449219 C 259.144531 26.234375 259.636719 26.128906 260.214844 26.128906 C 260.296875 26.128906 260.386719 26.132812 260.488281 26.144531 C 260.585938 26.152344 260.695312 26.167969 260.816406 26.191406 Z M 260.824219 27.421875 "/>
<path style=" stroke:none;fill-rule:nonzero;fill:rgb(0%,0%,0%);fill-opacity:1;" d="M 262.082031 26.300781 L 263.277344 26.300781 L 263.277344 33.59375 L 262.082031 33.59375 Z M 262.082031 23.460938 L 263.277344 23.460938 L 263.277344 24.980469 L 262.082031 24.980469 Z M 262.082031 23.460938 "/>
<path style=" stroke:none;fill-rule:nonzero;fill:rgb(0%,0%,0%);fill-opacity:1;" d="M 270.582031 29.863281 C 270.582031 28.996094 270.402344 28.320312 270.046875 27.847656 C 269.6875 27.367188 269.1875 27.128906 268.539062 27.128906 C 267.898438 27.128906 267.398438 27.367188 267.039062 27.847656 C 266.679688 28.320312 266.503906 28.996094 266.503906 29.863281 C 266.503906 30.726562 266.679688 31.398438 267.039062 31.875 C 267.398438 32.351562 267.898438 32.589844 268.539062 32.589844 C 269.1875 32.589844 269.6875 32.351562 270.046875 31.875 C 270.402344 31.398438 270.582031 30.726562 270.582031 29.863281 Z M 271.78125 32.691406 C 271.78125 33.929688 271.503906 34.851562 270.953125 35.457031 C 270.402344 36.0625 269.558594 36.367188 268.421875 36.367188 C 268.003906 36.367188 267.605469 36.335938 267.230469 36.273438 C 266.859375 36.210938 266.496094 36.113281 266.144531 35.984375 L 266.144531 34.820312 C 266.496094 35.007812 266.84375 35.148438 267.183594 35.238281 C 267.527344 35.332031 267.878906 35.378906 268.234375 35.378906 C 269.019531 35.378906 269.609375 35.171875 269.996094 34.761719 C 270.386719 34.351562 270.582031 33.734375 270.582031 32.902344 L 270.582031 32.308594 C 270.335938 32.742188 270.019531 33.0625 269.632812 33.273438 C 269.246094 33.488281 268.785156 33.59375 268.246094 33.59375 C 267.351562 33.59375 266.632812 33.253906 266.085938 32.574219 C 265.539062 31.890625 265.265625 30.988281 265.265625 29.863281 C 265.265625 28.734375 265.539062 27.832031 266.085938 27.148438 C 266.632812 26.46875 267.351562 26.128906 268.246094 26.128906 C 268.785156 26.128906 269.246094 26.234375 269.632812 26.445312 C 270.019531 26.660156 270.335938 26.980469 270.582031 27.410156 L 270.582031 26.300781 L 271.78125 26.300781 Z M 271.78125 32.691406 "/>
<path style=" stroke:none;fill-rule:nonzero;fill:rgb(0%,0%,0%);fill-opacity:1;" d="M 274.25 26.300781 L 275.445312 26.300781 L 275.445312 33.59375 L 274.25 33.59375 Z M 274.25 23.460938 L 275.445312 23.460938 L 275.445312 24.980469 L 274.25 24.980469 Z M 274.25 23.460938 "/>
<path style=" stroke:none;fill-rule:nonzero;fill:rgb(0%,0%,0%);fill-opacity:1;" d="M 284.015625 29.191406 L 284.015625 33.59375 L 282.816406 33.59375 L 282.816406 29.230469 C 282.816406 28.539062 282.683594 28.023438 282.414062 27.683594 C 282.144531 27.339844 281.742188 27.167969 281.203125 27.167969 C 280.554688 27.167969 280.046875 27.375 279.671875 27.789062 C 279.296875 28.199219 279.113281 28.761719 279.113281 29.472656 L 279.113281 33.59375 L 277.90625 33.59375 L 277.90625 26.300781 L 279.113281 26.300781 L 279.113281 27.433594 C 279.398438 26.996094 279.738281 26.667969 280.125 26.453125 C 280.511719 26.234375 280.960938 26.128906 281.46875 26.128906 C 282.308594 26.128906 282.941406 26.386719 283.371094 26.902344 C 283.800781 27.421875 284.015625 28.183594 284.015625 29.191406 Z M 284.015625 29.191406 "/>
<path style=" stroke:none;fill-rule:nonzero;fill:url(#pattern6);" d="M 209.851562 53.164062 L 236.519531 53.164062 L 236.519531 43.832031 L 209.851562 43.832031 Z M 209.851562 53.164062 "/>
<path style=" stroke:none;fill-rule:nonzero;fill:rgb(0%,0%,0%);fill-opacity:1;" d="M 253.089844 46.085938 L 253.089844 47.222656 C 252.753906 47.046875 252.402344 46.917969 252.035156 46.832031 C 251.671875 46.742188 251.292969 46.699219 250.902344 46.699219 C 250.308594 46.699219 249.863281 46.789062 249.566406 46.972656 C 249.265625 47.15625 249.117188 47.429688 249.117188 47.792969 C 249.117188 48.070312 249.226562 48.289062 249.4375 48.449219 C 249.648438 48.605469 250.078125 48.757812 250.722656 48.898438 L 251.132812 48.992188 C 251.980469 49.171875 252.585938 49.429688 252.945312 49.761719 C 253.300781 50.09375 253.480469 50.558594 253.480469 51.152344 C 253.480469 51.828125 253.214844 52.367188 252.675781 52.761719 C 252.140625 53.15625 251.402344 53.355469 250.464844 53.355469 C 250.078125 53.355469 249.667969 53.316406 249.246094 53.238281 C 248.820312 53.164062 248.375 53.050781 247.910156 52.898438 L 247.910156 51.660156 C 248.351562 51.890625 248.789062 52.0625 249.214844 52.179688 C 249.644531 52.292969 250.070312 52.351562 250.492188 52.351562 C 251.058594 52.351562 251.492188 52.253906 251.792969 52.058594 C 252.097656 51.867188 252.25 51.59375 252.25 51.242188 C 252.25 50.917969 252.140625 50.667969 251.921875 50.496094 C 251.703125 50.320312 251.222656 50.15625 250.480469 49.992188 L 250.0625 49.894531 C 249.320312 49.738281 248.785156 49.5 248.453125 49.175781 C 248.125 48.851562 247.960938 48.410156 247.960938 47.847656 C 247.960938 47.160156 248.203125 46.628906 248.691406 46.257812 C 249.175781 45.882812 249.867188 45.699219 250.761719 45.699219 C 251.203125 45.699219 251.617188 45.730469 252.007812 45.796875 C 252.398438 45.859375 252.761719 45.957031 253.089844 46.085938 Z M 253.089844 46.085938 "/>
<path style=" stroke:none;fill-rule:nonzero;fill:rgb(0%,0%,0%);fill-opacity:1;" d="M 255.265625 50.289062 L 255.265625 45.871094 L 256.464844 45.871094 L 256.464844 50.242188 C 256.464844 50.933594 256.597656 51.449219 256.867188 51.796875 C 257.136719 52.140625 257.539062 52.3125 258.078125 52.3125 C 258.722656 52.3125 259.234375 52.105469 259.609375 51.695312 C 259.984375 51.28125 260.171875 50.71875 260.171875 50.007812 L 260.171875 45.871094 L 261.371094 45.871094 L 261.371094 53.164062 L 260.171875 53.164062 L 260.171875 52.042969 C 259.882812 52.488281 259.546875 52.816406 259.160156 53.03125 C 258.777344 53.246094 258.332031 53.355469 257.824219 53.355469 C 256.984375 53.355469 256.351562 53.09375 255.914062 52.574219 C 255.480469 52.050781 255.265625 51.289062 255.265625 50.289062 Z M 258.28125 45.699219 Z M 258.28125 45.699219 "/>
<path style=" stroke:none;fill-rule:nonzero;fill:rgb(0%,0%,0%);fill-opacity:1;" d="M 269.074219 49.523438 C 269.074219 48.644531 268.894531 47.953125 268.53125 47.453125 C 268.167969 46.949219 267.671875 46.699219 267.035156 46.699219 C 266.402344 46.699219 265.902344 46.949219 265.539062 47.453125 C 265.179688 47.953125 264.996094 48.644531 264.996094 49.523438 C 264.996094 50.40625 265.179688 51.097656 265.539062 51.597656 C 265.902344 52.097656 266.402344 52.351562 267.035156 52.351562 C 267.671875 52.351562 268.167969 52.097656 268.53125 51.597656 C 268.894531 51.097656 269.074219 50.40625 269.074219 49.523438 Z M 264.996094 46.980469 C 265.25 46.546875 265.566406 46.222656 265.953125 46.015625 C 266.335938 45.804688 266.796875 45.699219 267.328125 45.699219 C 268.214844 45.699219 268.933594 46.050781 269.488281 46.753906 C 270.039062 47.453125 270.316406 48.378906 270.316406 49.523438 C 270.316406 50.671875 270.039062 51.597656 269.488281 52.300781 C 268.933594 53.003906 268.214844 53.355469 267.328125 53.355469 C 266.796875 53.355469 266.335938 53.25 265.953125 53.039062 C 265.566406 52.828125 265.25 52.503906 264.996094 52.070312 L 264.996094 53.164062 L 263.792969 53.164062 L 263.792969 43.035156 L 264.996094 43.035156 Z M 264.996094 46.980469 "/>
<path style=" stroke:none;fill-rule:nonzero;fill:rgb(0%,0%,0%);fill-opacity:1;" d="M 276.949219 46.085938 L 276.949219 47.222656 C 276.613281 47.046875 276.261719 46.917969 275.894531 46.832031 C 275.53125 46.742188 275.15625 46.699219 274.761719 46.699219 C 274.167969 46.699219 273.722656 46.789062 273.425781 46.972656 C 273.128906 47.15625 272.980469 47.429688 272.980469 47.792969 C 272.980469 48.070312 273.085938 48.289062 273.296875 48.449219 C 273.511719 48.605469 273.9375 48.757812 274.582031 48.898438 L 274.992188 48.992188 C 275.84375 49.171875 276.445312 49.429688 276.804688 49.761719 C 277.164062 50.09375 277.34375 50.558594 277.34375 51.152344 C 277.34375 51.828125 277.074219 52.367188 276.539062 52.761719 C 276 53.15625 275.265625 53.355469 274.328125 53.355469 C 273.9375 53.355469 273.53125 53.316406 273.105469 53.238281 C 272.683594 53.164062 272.238281 53.050781 271.769531 52.898438 L 271.769531 51.660156 C 272.210938 51.890625 272.648438 52.0625 273.078125 52.179688 C 273.507812 52.292969 273.933594 52.351562 274.355469 52.351562 C 274.917969 52.351562 275.351562 52.253906 275.65625 52.058594 C 275.957031 51.867188 276.109375 51.59375 276.109375 51.242188 C 276.109375 50.917969 276 50.667969 275.78125 50.496094 C 275.5625 50.320312 275.082031 50.15625 274.339844 49.992188 L 273.921875 49.894531 C 273.179688 49.738281 272.644531 49.5 272.316406 49.175781 C 271.984375 48.851562 271.820312 48.410156 271.820312 47.847656 C 271.820312 47.160156 272.0625 46.628906 272.550781 46.257812 C 273.035156 45.882812 273.726562 45.699219 274.621094 45.699219 C 275.0625 45.699219 275.480469 45.730469 275.867188 45.796875 C 276.261719 45.859375 276.621094 45.957031 276.949219 46.085938 Z M 276.949219 46.085938 "/>
<path style=" stroke:none;fill-rule:nonzero;fill:rgb(0%,0%,0%);fill-opacity:1;" d="M 282.5625 49.5 C 281.59375 49.5 280.925781 49.609375 280.550781 49.832031 C 280.175781 50.050781 279.992188 50.429688 279.992188 50.964844 C 279.992188 51.390625 280.132812 51.726562 280.410156 51.976562 C 280.691406 52.226562 281.074219 52.351562 281.554688 52.351562 C 282.21875 52.351562 282.75 52.113281 283.152344 51.644531 C 283.554688 51.171875 283.753906 50.546875 283.753906 49.765625 L 283.753906 49.5 Z M 284.953125 49.003906 L 284.953125 53.164062 L 283.753906 53.164062 L 283.753906 52.058594 C 283.480469 52.5 283.140625 52.828125 282.730469 53.039062 C 282.324219 53.25 281.824219 53.355469 281.234375 53.355469 C 280.488281 53.355469 279.894531 53.144531 279.453125 52.726562 C 279.011719 52.304688 278.792969 51.746094 278.792969 51.042969 C 278.792969 50.222656 279.066406 49.605469 279.617188 49.1875 C 280.164062 48.769531 280.984375 48.5625 282.074219 48.5625 L 283.753906 48.5625 L 283.753906 48.445312 C 283.753906 47.890625 283.574219 47.464844 283.210938 47.164062 C 282.847656 46.863281 282.339844 46.710938 281.683594 46.710938 C 281.269531 46.710938 280.863281 46.761719 280.464844 46.863281 C 280.070312 46.960938 279.691406 47.113281 279.328125 47.3125 L 279.328125 46.203125 C 279.765625 46.035156 280.191406 45.910156 280.601562 45.824219 C 281.015625 45.738281 281.417969 45.699219 281.808594 45.699219 C 282.863281 45.699219 283.652344 45.972656 284.171875 46.519531 C 284.691406 47.066406 284.953125 47.894531 284.953125 49.003906 Z M 284.953125 49.003906 "/>
<path style=" stroke:none;fill-rule:nonzero;fill:rgb(0%,0%,0%);fill-opacity:1;" d="M 293.097656 47.273438 C 293.398438 46.734375 293.753906 46.335938 294.171875 46.082031 C 294.589844 45.824219 295.078125 45.699219 295.640625 45.699219 C 296.402344 45.699219 296.988281 45.964844 297.402344 46.496094 C 297.8125 47.027344 298.019531 47.78125 298.019531 48.761719 L 298.019531 53.164062 L 296.816406 53.164062 L 296.816406 48.800781 C 296.816406 48.101562 296.691406 47.585938 296.441406 47.246094 C 296.195312 46.910156 295.816406 46.738281 295.3125 46.738281 C 294.691406 46.738281 294.199219 46.945312 293.839844 47.359375 C 293.480469 47.769531 293.296875 48.332031 293.296875 49.042969 L 293.296875 53.164062 L 292.09375 53.164062 L 292.09375 48.800781 C 292.09375 48.097656 291.972656 47.578125 291.722656 47.242188 C 291.476562 46.90625 291.09375 46.738281 290.578125 46.738281 C 289.964844 46.738281 289.480469 46.945312 289.117188 47.359375 C 288.757812 47.773438 288.578125 48.335938 288.578125 49.042969 L 288.578125 53.164062 L 287.375 53.164062 L 287.375 45.871094 L 288.578125 45.871094 L 288.578125 47.007812 C 288.851562 46.558594 289.179688 46.230469 289.5625 46.015625 C 289.941406 45.804688 290.398438 45.699219 290.921875 45.699219 C 291.453125 45.699219 291.902344 45.832031 292.273438 46.101562 C 292.644531 46.371094 292.917969 46.761719 293.097656 47.273438 Z M 293.097656 47.273438 "/>
<path style=" stroke:none;fill-rule:nonzero;fill:rgb(0%,0%,0%);fill-opacity:1;" d="M 301.566406 52.070312 L 301.566406 55.9375 L 300.363281 55.9375 L 300.363281 45.871094 L 301.566406 45.871094 L 301.566406 46.980469 C 301.820312 46.546875 302.136719 46.222656 302.519531 46.015625 C 302.90625 45.804688 303.363281 45.699219 303.898438 45.699219 C 304.785156 45.699219 305.503906 46.050781 306.054688 46.753906 C 306.609375 47.453125 306.886719 48.378906 306.886719 49.523438 C 306.886719 50.671875 306.609375 51.597656 306.054688 52.300781 C 305.503906 53.003906 304.785156 53.355469 303.898438 53.355469 C 303.363281 53.355469 302.90625 53.25 302.519531 53.039062 C 302.136719 52.828125 301.820312 52.503906 301.566406 52.070312 Z M 305.644531 49.523438 C 305.644531 48.644531 305.460938 47.953125 305.097656 47.453125 C 304.738281 46.949219 304.238281 46.699219 303.605469 46.699219 C 302.972656 46.699219 302.472656 46.949219 302.109375 47.453125 C 301.746094 47.953125 301.566406 48.644531 301.566406 49.523438 C 301.566406 50.40625 301.746094 51.097656 302.109375 51.597656 C 302.472656 52.097656 302.972656 52.351562 303.605469 52.351562 C 304.238281 52.351562 304.738281 52.097656 305.097656 51.597656 C 305.460938 51.097656 305.644531 50.40625 305.644531 49.523438 Z M 305.644531 49.523438 "/>
<path style=" stroke:none;fill-rule:nonzero;fill:rgb(0%,0%,0%);fill-opacity:1;" d="M 308.871094 43.035156 L 310.070312 43.035156 L 310.070312 53.164062 L 308.871094 53.164062 Z M 308.871094 43.035156 "/>
<path style=" stroke:none;fill-rule:nonzero;fill:rgb(0%,0%,0%);fill-opacity:1;" d="M 318.8125 49.21875 L 318.8125 49.804688 L 313.304688 49.804688 C 313.359375 50.628906 313.605469 51.257812 314.050781 51.691406 C 314.496094 52.121094 315.113281 52.335938 315.910156 52.335938 C 316.367188 52.335938 316.816406 52.28125 317.246094 52.167969 C 317.679688 52.054688 318.109375 51.886719 318.535156 51.660156 L 318.535156 52.792969 C 318.105469 52.976562 317.664062 53.113281 317.210938 53.210938 C 316.761719 53.304688 316.300781 53.355469 315.839844 53.355469 C 314.675781 53.355469 313.753906 53.015625 313.074219 52.339844 C 312.394531 51.660156 312.054688 50.746094 312.054688 49.589844 C 312.054688 48.394531 312.378906 47.449219 313.023438 46.75 C 313.667969 46.046875 314.535156 45.699219 315.628906 45.699219 C 316.609375 45.699219 317.386719 46.015625 317.957031 46.644531 C 318.527344 47.277344 318.8125 48.132812 318.8125 49.21875 Z M 317.617188 48.867188 C 317.605469 48.210938 317.421875 47.691406 317.066406 47.300781 C 316.707031 46.910156 316.234375 46.710938 315.640625 46.710938 C 314.972656 46.710938 314.441406 46.902344 314.039062 47.277344 C 313.636719 47.65625 313.40625 48.1875 313.34375 48.875 Z M 317.617188 48.867188 "/>
<path style=" stroke:none;fill-rule:nonzero;fill:rgb(0%,0%,0%);fill-opacity:1;" d="M 325.578125 46.980469 L 325.578125 43.035156 L 326.773438 43.035156 L 326.773438 53.164062 L 325.578125 53.164062 L 325.578125 52.070312 C 325.324219 52.503906 325.007812 52.828125 324.621094 53.039062 C 324.238281 53.25 323.777344 53.355469 323.238281 53.355469 C 322.359375 53.355469 321.640625 53.003906 321.085938 52.300781 C 320.535156 51.597656 320.257812 50.671875 320.257812 49.523438 C 320.257812 48.378906 320.535156 47.453125 321.085938 46.753906 C 321.640625 46.050781 322.359375 45.699219 323.238281 45.699219 C 323.777344 45.699219 324.238281 45.804688 324.621094 46.015625 C 325.007812 46.222656 325.324219 46.546875 325.578125 46.980469 Z M 321.496094 49.523438 C 321.496094 50.40625 321.675781 51.097656 322.039062 51.597656 C 322.402344 52.097656 322.898438 52.351562 323.53125 52.351562 C 324.167969 52.351562 324.664062 52.097656 325.027344 51.597656 C 325.394531 51.097656 325.578125 50.40625 325.578125 49.523438 C 325.578125 48.644531 325.394531 47.953125 325.027344 47.453125 C 324.664062 46.949219 324.167969 46.699219 323.53125 46.699219 C 322.898438 46.699219 322.402344 46.949219 322.039062 47.453125 C 321.675781 47.953125 321.496094 48.644531 321.496094 49.523438 Z M 321.496094 49.523438 "/>
</g>
</svg>
