<?xml version="1.0" encoding="UTF-8"?>
<svg xmlns="http://www.w3.org/2000/svg" xmlns:xlink="http://www.w3.org/1999/xlink" width="326.827087" height="240.875" viewBox="0 0 326.827087 240.875" version="1.1">
<defs>
<clipPath id="clip1">
  <path d="M 56.828125 9.601562 L 317.226562 9.601562 L 317.226562 110 L 56.828125 110 Z M 56.828125 9.601562 "/>
</clipPath>
<clipPath id="clip2">
  <path d="M 56.828125 107 L 317.226562 107 L 317.226562 133 L 56.828125 133 Z M 56.828125 107 "/>
</clipPath>
<clipPath id="clip3">
  <path d="M 56.828125 130 L 317.226562 130 L 317.226562 151 L 56.828125 151 Z M 56.828125 130 "/>
</clipPath>
<clipPath id="clip4">
  <path d="M 56.828125 148 L 317.226562 148 L 317.226562 167 L 56.828125 167 Z M 56.828125 148 "/>
</clipPath>
<clipPath id="clip5">
  <path d="M 56.828125 164 L 317.226562 164 L 317.226562 180 L 56.828125 180 Z M 56.828125 164 "/>
</clipPath>
<clipPath id="clip6">
  <path d="M 56.828125 177 L 282 177 L 282 190.800781 L 56.828125 190.800781 Z M 56.828125 177 "/>
</clipPath>
<clipPath id="clip7">
  <path d="M 279 189 L 317.226562 189 L 317.226562 190.800781 L 279 190.800781 Z M 279 189 "/>
</clipPath>
<clipPath id="clip8">
  <path d="M 56.828125 189 L 59 189 L 59 190.800781 L 56.828125 190.800781 Z M 56.828125 189 "/>
</clipPath>
</defs>
<g id="surface1">
<path style=" stroke:none;fill-rule:nonzero;fill:rgb(100%,100%,100%);fill-opacity:1;" d="M 56.828125 190.800781 L 317.226562 190.800781 L 317.226562 9.601562 L 56.828125 9.601562 Z M 56.828125 190.800781 "/>
<path style="fill:none;stroke-width:0.8;stroke-linecap:butt;stroke-linejoin:round;stroke:rgb(0%,0%,0%);stroke-opacity:1;stroke-miterlimit:4;" d="M 0.000778198 0.000579834 L 0.000778198 3.498627 " transform="matrix(1.333333,0,0,1.333333,117.858337,190.800008)"/>
<path style=" stroke:none;fill-rule:nonzero;fill:rgb(0%,0%,0%);fill-opacity:1;" d="M 109.441406 205.53125 L 117.789062 205.53125 L 117.789062 206.636719 L 109.441406 206.636719 Z M 109.441406 205.53125 "/>
<path style=" stroke:none;fill-rule:nonzero;fill:rgb(0%,0%,0%);fill-opacity:1;" d="M 124.242188 201.691406 L 120.921875 206.878906 L 124.242188 206.878906 Z M 123.894531 200.542969 L 125.550781 200.542969 L 125.550781 206.878906 L 126.9375 206.878906 L 126.9375 207.972656 L 125.550781 207.972656 L 125.550781 210.265625 L 124.242188 210.265625 L 124.242188 207.972656 L 119.855469 207.972656 L 119.855469 206.703125 Z M 123.894531 200.542969 "/>
<path style="fill:none;stroke-width:0.8;stroke-linecap:butt;stroke-linejoin:round;stroke:rgb(0%,0%,0%);stroke-opacity:1;stroke-miterlimit:4;" d="M 0.000778198 0.000579834 L 0.000778198 3.498627 " transform="matrix(1.333333,0,0,1.333333,199.233337,190.800008)"/>
<path style=" stroke:none;fill-rule:nonzero;fill:rgb(0%,0%,0%);fill-opacity:1;" d="M 190.816406 205.53125 L 199.164062 205.53125 L 199.164062 206.636719 L 190.816406 206.636719 Z M 190.816406 205.53125 "/>
<path style=" stroke:none;fill-rule:nonzero;fill:rgb(0%,0%,0%);fill-opacity:1;" d="M 203.136719 209.160156 L 207.726562 209.160156 L 207.726562 210.265625 L 201.554688 210.265625 L 201.554688 209.160156 C 202.054688 208.640625 202.734375 207.949219 203.59375 207.078125 C 204.457031 206.207031 204.996094 205.648438 205.21875 205.394531 C 205.640625 204.921875 205.933594 204.523438 206.101562 204.195312 C 206.269531 203.867188 206.351562 203.542969 206.351562 203.226562 C 206.351562 202.710938 206.171875 202.289062 205.808594 201.964844 C 205.445312 201.636719 204.972656 201.476562 204.390625 201.476562 C 203.980469 201.476562 203.542969 201.546875 203.085938 201.691406 C 202.628906 201.832031 202.140625 202.050781 201.617188 202.339844 L 201.617188 201.011719 C 202.148438 200.800781 202.640625 200.640625 203.101562 200.53125 C 203.5625 200.421875 203.984375 200.367188 204.367188 200.367188 C 205.375 200.367188 206.175781 200.621094 206.773438 201.125 C 207.375 201.628906 207.671875 202.300781 207.671875 203.140625 C 207.671875 203.542969 207.597656 203.921875 207.449219 204.277344 C 207.300781 204.636719 207.027344 205.058594 206.632812 205.542969 C 206.523438 205.671875 206.179688 206.035156 205.597656 206.636719 C 205.015625 207.238281 204.195312 208.078125 203.136719 209.160156 Z M 203.136719 209.160156 "/>
<path style="fill:none;stroke-width:0.8;stroke-linecap:butt;stroke-linejoin:round;stroke:rgb(0%,0%,0%);stroke-opacity:1;stroke-miterlimit:4;" d="M 0.000778198 0.000579834 L 0.000778198 3.498627 " transform="matrix(1.333333,0,0,1.333333,280.608337,190.800008)"/>
<path style=" stroke:none;fill-rule:nonzero;fill:rgb(0%,0%,0%);fill-opacity:1;" d="M 280.605469 201.410156 C 279.929688 201.410156 279.417969 201.742188 279.078125 202.410156 C 278.738281 203.074219 278.566406 204.078125 278.566406 205.414062 C 278.566406 206.746094 278.738281 207.746094 279.078125 208.414062 C 279.417969 209.078125 279.929688 209.414062 280.605469 209.414062 C 281.285156 209.414062 281.796875 209.078125 282.136719 208.414062 C 282.480469 207.746094 282.648438 206.746094 282.648438 205.414062 C 282.648438 204.078125 282.480469 203.074219 282.136719 202.410156 C 281.796875 201.742188 281.285156 201.410156 280.605469 201.410156 Z M 280.605469 200.367188 C 281.695312 200.367188 282.527344 200.800781 283.101562 201.664062 C 283.675781 202.523438 283.964844 203.773438 283.964844 205.414062 C 283.964844 207.050781 283.675781 208.300781 283.101562 209.164062 C 282.527344 210.023438 281.695312 210.453125 280.605469 210.453125 C 279.515625 210.453125 278.683594 210.023438 278.109375 209.164062 C 277.535156 208.300781 277.246094 207.050781 277.246094 205.414062 C 277.246094 203.773438 277.535156 202.523438 278.109375 201.664062 C 278.683594 200.800781 279.515625 200.367188 280.605469 200.367188 Z M 280.605469 200.367188 "/>
<path style=" stroke:none;fill-rule:nonzero;fill:rgb(0%,0%,0%);fill-opacity:1;" d="M 186.160156 221.210938 L 183.519531 224.757812 L 186.292969 228.503906 L 184.882812 228.503906 L 182.757812 225.636719 L 180.636719 228.503906 L 179.222656 228.503906 L 182.054688 224.6875 L 179.464844 221.210938 L 180.878906 221.210938 L 182.808594 223.808594 L 184.742188 221.210938 Z M 186.160156 221.210938 "/>
<path style=" stroke:none;fill-rule:nonzero;fill:rgb(0%,0%,0%);fill-opacity:1;" d="M 188.382812 227.394531 L 190.53125 227.394531 L 190.53125 219.980469 L 188.195312 220.449219 L 188.195312 219.25 L 190.519531 218.78125 L 191.835938 218.78125 L 191.835938 227.394531 L 193.980469 227.394531 L 193.980469 228.503906 L 188.382812 228.503906 Z M 188.382812 227.394531 "/>
<path style="fill:none;stroke-width:0.8;stroke-linecap:butt;stroke-linejoin:round;stroke:rgb(0%,0%,0%);stroke-opacity:1;stroke-miterlimit:4;" d="M 0.000782013 0.000579834 L -3.500195 0.000579834 " transform="matrix(1.333333,0,0,1.333333,56.827082,190.800008)"/>
<path style=" stroke:none;fill-rule:nonzero;fill:rgb(0%,0%,0%);fill-opacity:1;" d="M 29.25 191.132812 L 37.597656 191.132812 L 37.597656 192.238281 L 29.25 192.238281 Z M 29.25 191.132812 "/>
<path style=" stroke:none;fill-rule:nonzero;fill:rgb(0%,0%,0%);fill-opacity:1;" d="M 44.417969 190.625 C 45.050781 190.757812 45.539062 191.039062 45.894531 191.464844 C 46.246094 191.890625 46.425781 192.414062 46.425781 193.039062 C 46.425781 194 46.09375 194.742188 45.433594 195.269531 C 44.773438 195.792969 43.835938 196.054688 42.621094 196.054688 C 42.214844 196.054688 41.796875 196.015625 41.363281 195.933594 C 40.929688 195.855469 40.484375 195.734375 40.027344 195.570312 L 40.027344 194.304688 C 40.390625 194.515625 40.789062 194.675781 41.222656 194.785156 C 41.65625 194.894531 42.109375 194.945312 42.585938 194.945312 C 43.40625 194.945312 44.035156 194.785156 44.46875 194.460938 C 44.898438 194.132812 45.117188 193.660156 45.117188 193.039062 C 45.117188 192.46875 44.914062 192.019531 44.511719 191.695312 C 44.113281 191.375 43.554688 191.210938 42.839844 191.210938 L 41.707031 191.210938 L 41.707031 190.128906 L 42.890625 190.128906 C 43.535156 190.128906 44.03125 190 44.375 189.742188 C 44.71875 189.484375 44.886719 189.113281 44.886719 188.625 C 44.886719 188.128906 44.710938 187.746094 44.355469 187.476562 C 44.003906 187.210938 43.5 187.074219 42.839844 187.074219 C 42.476562 187.074219 42.089844 187.117188 41.679688 187.195312 C 41.265625 187.273438 40.8125 187.394531 40.316406 187.558594 L 40.316406 186.386719 C 40.816406 186.246094 41.285156 186.144531 41.722656 186.074219 C 42.15625 186.003906 42.570312 185.96875 42.957031 185.96875 C 43.953125 185.96875 44.742188 186.195312 45.324219 186.652344 C 45.90625 187.105469 46.195312 187.714844 46.195312 188.488281 C 46.195312 189.027344 46.042969 189.480469 45.734375 189.851562 C 45.425781 190.222656 44.988281 190.480469 44.417969 190.625 Z M 44.417969 190.625 "/>
<path style="fill:none;stroke-width:0.8;stroke-linecap:butt;stroke-linejoin:round;stroke:rgb(0%,0%,0%);stroke-opacity:1;stroke-miterlimit:4;" d="M 0.000782013 0.0010376 L -3.500195 0.0010376 " transform="matrix(1.333333,0,0,1.333333,56.827082,144.33846)"/>
<path style=" stroke:none;fill-rule:nonzero;fill:rgb(0%,0%,0%);fill-opacity:1;" d="M 29.25 144.671875 L 37.597656 144.671875 L 37.597656 145.777344 L 29.25 145.777344 Z M 29.25 144.671875 "/>
<path style=" stroke:none;fill-rule:nonzero;fill:rgb(0%,0%,0%);fill-opacity:1;" d="M 41.566406 148.296875 L 46.15625 148.296875 L 46.15625 149.402344 L 39.988281 149.402344 L 39.988281 148.296875 C 40.484375 147.78125 41.164062 147.089844 42.027344 146.21875 C 42.886719 145.347656 43.429688 144.785156 43.652344 144.535156 C 44.070312 144.0625 44.367188 143.660156 44.53125 143.332031 C 44.699219 143.003906 44.785156 142.683594 44.785156 142.367188 C 44.785156 141.851562 44.601562 141.429688 44.242188 141.105469 C 43.878906 140.777344 43.40625 140.613281 42.824219 140.613281 C 42.410156 140.613281 41.976562 140.6875 41.519531 140.828125 C 41.0625 140.972656 40.570312 141.191406 40.050781 141.480469 L 40.050781 140.152344 C 40.582031 139.941406 41.074219 139.777344 41.535156 139.671875 C 41.996094 139.5625 42.417969 139.507812 42.800781 139.507812 C 43.804688 139.507812 44.609375 139.761719 45.207031 140.265625 C 45.804688 140.765625 46.105469 141.441406 46.105469 142.28125 C 46.105469 142.679688 46.03125 143.058594 45.878906 143.417969 C 45.730469 143.777344 45.460938 144.195312 45.0625 144.683594 C 44.957031 144.808594 44.609375 145.171875 44.027344 145.773438 C 43.449219 146.375 42.628906 147.21875 41.566406 148.296875 Z M 41.566406 148.296875 "/>
<path style="fill:none;stroke-width:0.8;stroke-linecap:butt;stroke-linejoin:round;stroke:rgb(0%,0%,0%);stroke-opacity:1;stroke-miterlimit:4;" d="M 0.000782013 -0.00144196 L -3.500195 -0.00144196 " transform="matrix(1.333333,0,0,1.333333,56.827082,97.876923)"/>
<path style=" stroke:none;fill-rule:nonzero;fill:rgb(0%,0%,0%);fill-opacity:1;" d="M 29.25 98.210938 L 37.597656 98.210938 L 37.597656 99.316406 L 29.25 99.316406 Z M 29.25 98.210938 "/>
<path style=" stroke:none;fill-rule:nonzero;fill:rgb(0%,0%,0%);fill-opacity:1;" d="M 40.664062 101.835938 L 42.8125 101.835938 L 42.8125 94.417969 L 40.472656 94.886719 L 40.472656 93.691406 L 42.800781 93.222656 L 44.113281 93.222656 L 44.113281 101.835938 L 46.261719 101.835938 L 46.261719 102.941406 L 40.664062 102.941406 Z M 40.664062 101.835938 "/>
<path style="fill:none;stroke-width:0.8;stroke-linecap:butt;stroke-linejoin:round;stroke:rgb(0%,0%,0%);stroke-opacity:1;stroke-miterlimit:4;" d="M 0.000782013 -0.000991821 L -3.500195 -0.000991821 " transform="matrix(1.333333,0,0,1.333333,56.827082,51.415385)"/>
<path style=" stroke:none;fill-rule:nonzero;fill:rgb(0%,0%,0%);fill-opacity:1;" d="M 43.246094 47.625 C 42.570312 47.625 42.0625 47.960938 41.722656 48.625 C 41.378906 49.292969 41.210938 50.292969 41.210938 51.632812 C 41.210938 52.964844 41.378906 53.960938 41.722656 54.628906 C 42.0625 55.296875 42.570312 55.628906 43.246094 55.628906 C 43.929688 55.628906 44.441406 55.296875 44.78125 54.628906 C 45.121094 53.960938 45.292969 52.964844 45.292969 51.632812 C 45.292969 50.292969 45.121094 49.292969 44.78125 48.625 C 44.441406 47.960938 43.929688 47.625 43.246094 47.625 Z M 43.246094 46.585938 C 44.339844 46.585938 45.171875 47.015625 45.746094 47.878906 C 46.320312 48.738281 46.609375 49.992188 46.609375 51.632812 C 46.609375 53.265625 46.320312 54.515625 45.746094 55.378906 C 45.171875 56.238281 44.339844 56.671875 43.246094 56.671875 C 42.160156 56.671875 41.328125 56.238281 40.753906 55.378906 C 40.175781 54.515625 39.890625 53.265625 39.890625 51.632812 C 39.890625 49.992188 40.175781 48.738281 40.753906 47.878906 C 41.328125 47.015625 42.160156 46.585938 43.246094 46.585938 Z M 43.246094 46.585938 "/>
<path style=" stroke:none;fill-rule:nonzero;fill:rgb(0%,0%,0%);fill-opacity:1;" d="M 12.441406 101.070312 L 15.988281 103.707031 L 19.730469 100.933594 L 19.730469 102.347656 L 16.867188 104.46875 L 19.730469 106.589844 L 19.730469 108.003906 L 15.917969 105.171875 L 12.441406 107.761719 L 12.441406 106.351562 L 15.039062 104.417969 L 12.441406 102.484375 Z M 12.441406 101.070312 "/>
<path style=" stroke:none;fill-rule:nonzero;fill:rgb(0%,0%,0%);fill-opacity:1;" d="M 18.625 97.9375 L 18.625 93.347656 L 19.730469 93.347656 L 19.730469 99.519531 L 18.625 99.519531 C 18.109375 99.019531 17.414062 98.339844 16.546875 97.480469 C 15.675781 96.617188 15.113281 96.074219 14.859375 95.855469 C 14.386719 95.433594 13.988281 95.140625 13.660156 94.972656 C 13.332031 94.804688 13.011719 94.722656 12.695312 94.722656 C 12.175781 94.722656 11.757812 94.902344 11.429688 95.265625 C 11.105469 95.628906 10.941406 96.101562 10.941406 96.683594 C 10.941406 97.09375 11.011719 97.53125 11.15625 97.988281 C 11.300781 98.445312 11.515625 98.933594 11.808594 99.457031 L 10.480469 99.457031 C 10.265625 98.925781 10.105469 98.429688 9.996094 97.972656 C 9.890625 97.511719 9.835938 97.089844 9.835938 96.707031 C 9.835938 95.699219 10.085938 94.898438 10.589844 94.300781 C 11.09375 93.699219 11.765625 93.402344 12.609375 93.402344 C 13.007812 93.402344 13.386719 93.476562 13.746094 93.625 C 14.101562 93.773438 14.523438 94.046875 15.011719 94.441406 C 15.136719 94.550781 15.5 94.894531 16.101562 95.476562 C 16.703125 96.058594 17.542969 96.878906 18.625 97.9375 Z M 18.625 97.9375 "/>
<path style="fill:none;stroke-width:1.5;stroke-linecap:square;stroke-linejoin:round;stroke:rgb(100%,49.803922%,5.490196%);stroke-opacity:1;stroke-miterlimit:4;" d="M 57.878906 108.254883 L 70.083984 94.31543 L 78.348633 85.608398 L 84.908203 79.107422 L 90.459961 73.910156 L 95.326172 69.600586 L 99.685547 65.950195 L 103.655273 62.80957 L 107.305664 60.084961 L 110.692383 57.700195 L 113.856445 55.605469 L 116.827148 53.753906 L 119.630859 52.116211 L 122.285156 50.663086 L 124.804688 49.374023 L 127.207031 48.222656 L 129.500977 47.197266 L 131.692383 46.283203 L 133.792969 45.46875 L 135.811523 44.739258 L 137.750977 44.088867 " transform="matrix(1.333333,0,0,1.333333,0,0)"/>
<path style="fill-rule:nonzero;fill:rgb(100%,49.803922%,5.490196%);fill-opacity:1;stroke-width:1;stroke-linecap:butt;stroke-linejoin:round;stroke:rgb(100%,49.803922%,5.490196%);stroke-opacity:1;stroke-miterlimit:4;" d="M 0.000782013 3.001038 C 0.794727 3.001038 1.559376 2.684631 2.121876 2.122131 C 2.684376 1.559631 3.000782 0.794983 3.000782 0.0010376 C 3.000782 -0.795837 2.684376 -1.557556 2.121876 -2.120056 C 1.559376 -2.682556 0.794727 -2.998962 0.000782013 -2.998962 C -0.796093 -2.998962 -1.557812 -2.682556 -2.120312 -2.120056 C -2.682812 -1.557556 -2.999218 -0.795837 -2.999218 0.0010376 C -2.999218 0.794983 -2.682812 1.559631 -2.120312 2.122131 C -1.557812 2.684631 -0.796093 3.001038 0.000782013 3.001038 Z M 0.000782013 3.001038 " transform="matrix(1.333333,0,0,1.333333,77.170832,144.33846)"/>
<path style="fill-rule:nonzero;fill:rgb(100%,49.803922%,5.490196%);fill-opacity:1;stroke-width:1;stroke-linecap:butt;stroke-linejoin:round;stroke:rgb(100%,49.803922%,5.490196%);stroke-opacity:1;stroke-miterlimit:4;" d="M -0.00038147 3.000046 C 0.796494 3.000046 1.558212 2.68364 2.120712 2.12114 C 2.683212 1.55864 2.999619 0.796921 2.999619 0.0000457764 C 2.999619 -0.796829 2.683212 -1.558548 2.120712 -2.121048 C 1.558212 -2.683548 0.796494 -2.999954 -0.00038147 -2.999954 C -0.794327 -2.999954 -1.558975 -2.683548 -2.121475 -2.121048 C -2.683975 -1.558548 -3.000381 -0.796829 -3.000381 0.0000457764 C -3.000381 0.796921 -2.683975 1.55864 -2.121475 2.12114 C -1.558975 2.68364 -0.794327 3.000046 -0.00038147 3.000046 Z M -0.00038147 3.000046 " transform="matrix(1.333333,0,0,1.333333,93.445821,125.753845)"/>
<path style="fill-rule:nonzero;fill:rgb(100%,49.803922%,5.490196%);fill-opacity:1;stroke-width:1;stroke-linecap:butt;stroke-linejoin:round;stroke:rgb(100%,49.803922%,5.490196%);stroke-opacity:1;stroke-miterlimit:4;" d="M -0.0000534058 3.000305 C 0.796822 3.000305 1.55854 2.683899 2.12104 2.121399 C 2.68354 1.558899 2.999947 0.79425 2.999947 0.000305176 C 2.999947 -0.79657 2.68354 -1.558289 2.12104 -2.120789 C 1.55854 -2.683289 0.796822 -2.999695 -0.0000534058 -2.999695 C -0.796928 -2.999695 -1.558647 -2.683289 -2.121147 -2.120789 C -2.683647 -1.558289 -3.000053 -0.79657 -3.000053 0.000305176 C -3.000053 0.79425 -2.683647 1.558899 -2.121147 2.121399 C -1.558647 2.683899 -0.796928 3.000305 -0.0000534058 3.000305 Z M -0.0000534058 3.000305 " transform="matrix(1.333333,0,0,1.333333,104.464915,114.144124)"/>
<path style="fill-rule:nonzero;fill:rgb(100%,49.803922%,5.490196%);fill-opacity:1;stroke-width:1;stroke-linecap:butt;stroke-linejoin:round;stroke:rgb(100%,49.803922%,5.490196%);stroke-opacity:1;stroke-miterlimit:4;" d="M 0.000190735 2.999016 C 0.797066 2.999016 1.558784 2.68261 2.121284 2.12011 C 2.683784 1.55761 3.000191 0.795891 3.000191 -0.000984192 C 3.000191 -0.79493 2.683784 -1.559578 2.121284 -2.122078 C 1.558784 -2.684578 0.797066 -3.000984 0.000190735 -3.000984 C -0.796684 -3.000984 -1.558403 -2.684578 -2.120903 -2.122078 C -2.683403 -1.559578 -2.999809 -0.79493 -2.999809 -0.000984192 C -2.999809 0.795891 -2.683403 1.55761 -2.120903 2.12011 C -1.558403 2.68261 -0.796684 2.999016 0.000190735 2.999016 Z M 0.000190735 2.999016 " transform="matrix(1.333333,0,0,1.333333,113.210683,105.477875)"/>
<path style="fill-rule:nonzero;fill:rgb(100%,49.803922%,5.490196%);fill-opacity:1;stroke-width:1;stroke-linecap:butt;stroke-linejoin:round;stroke:rgb(100%,49.803922%,5.490196%);stroke-opacity:1;stroke-miterlimit:4;" d="M 0.000350952 2.999428 C 0.794296 2.999428 1.558945 2.683022 2.121445 2.120522 C 2.683945 1.558022 3.000351 0.796303 3.000351 -0.000572205 C 3.000351 -0.794518 2.683945 -1.559166 2.121445 -2.121666 C 1.558945 -2.684166 0.794296 -3.000572 0.000350952 -3.000572 C -0.796524 -3.000572 -1.558243 -2.684166 -2.120743 -2.121666 C -2.683243 -1.559166 -2.999649 -0.794518 -2.999649 -0.000572205 C -2.999649 0.796303 -2.683243 1.558022 -2.120743 2.120522 C -1.558243 2.683022 -0.796524 2.999428 0.000350952 2.999428 Z M 0.000350952 2.999428 " transform="matrix(1.333333,0,0,1.333333,120.612813,98.547638)"/>
<path style="fill-rule:nonzero;fill:rgb(100%,49.803922%,5.490196%);fill-opacity:1;stroke-width:1;stroke-linecap:butt;stroke-linejoin:round;stroke:rgb(100%,49.803922%,5.490196%);stroke-opacity:1;stroke-miterlimit:4;" d="M 0.000343323 2.999237 C 0.794289 2.999237 1.558937 2.682831 2.121437 2.120331 C 2.683937 1.557831 3.000343 0.796112 3.000343 -0.000762939 C 3.000343 -0.794708 2.683937 -1.559357 2.121437 -2.121857 C 1.558937 -2.684357 0.794289 -3.000763 0.000343323 -3.000763 C -0.796532 -3.000763 -1.55825 -2.684357 -2.12075 -2.121857 C -2.68325 -1.559357 -2.999657 -0.794708 -2.999657 -0.000762939 C -2.999657 0.796112 -2.68325 1.557831 -2.12075 2.120331 C -1.55825 2.682831 -0.796532 2.999237 0.000343323 2.999237 Z M 0.000343323 2.999237 " transform="matrix(1.333333,0,0,1.333333,127.101105,92.801799)"/>
<path style="fill-rule:nonzero;fill:rgb(100%,49.803922%,5.490196%);fill-opacity:1;stroke-width:1;stroke-linecap:butt;stroke-linejoin:round;stroke:rgb(100%,49.803922%,5.490196%);stroke-opacity:1;stroke-miterlimit:4;" d="M -0.0010376 3.000694 C 0.795837 3.000694 1.557556 2.684288 2.120056 2.121788 C 2.682556 1.559288 2.998962 0.79464 2.998962 0.000694275 C 2.998962 -0.796181 2.682556 -1.557899 2.120056 -2.120399 C 1.557556 -2.682899 0.795837 -2.999306 -0.0010376 -2.999306 C -0.794983 -2.999306 -1.559631 -2.682899 -2.122131 -2.120399 C -2.684631 -1.557899 -3.001038 -0.796181 -3.001038 0.000694275 C -3.001038 0.79464 -2.684631 1.559288 -2.122131 2.121788 C -1.559631 2.684288 -0.794983 3.000694 -0.0010376 3.000694 Z M -0.0010376 3.000694 " transform="matrix(1.333333,0,0,1.333333,132.915446,87.932668)"/>
<path style="fill-rule:nonzero;fill:rgb(100%,49.803922%,5.490196%);fill-opacity:1;stroke-width:1;stroke-linecap:butt;stroke-linejoin:round;stroke:rgb(100%,49.803922%,5.490196%);stroke-opacity:1;stroke-miterlimit:4;" d="M 0.000946045 2.999481 C 0.794891 2.999481 1.55954 2.683075 2.12204 2.120575 C 2.68454 1.558075 3.000946 0.796356 3.000946 -0.000518799 C 3.000946 -0.794464 2.68454 -1.559113 2.12204 -2.121613 C 1.55954 -2.684113 0.794891 -3.000519 0.000946045 -3.000519 C -0.795929 -3.000519 -1.557648 -2.684113 -2.120148 -2.121613 C -2.682648 -1.559113 -2.999054 -0.794464 -2.999054 -0.000518799 C -2.999054 0.796356 -2.682648 1.558075 -2.120148 2.120575 C -1.557648 2.683075 -0.795929 2.999481 0.000946045 2.999481 Z M 0.000946045 2.999481 " transform="matrix(1.333333,0,0,1.333333,138.20577,83.746785)"/>
<path style="fill-rule:nonzero;fill:rgb(100%,49.803922%,5.490196%);fill-opacity:1;stroke-width:1;stroke-linecap:butt;stroke-linejoin:round;stroke:rgb(100%,49.803922%,5.490196%);stroke-opacity:1;stroke-miterlimit:4;" d="M 0.000808716 3.000751 C 0.794754 3.000751 1.559402 2.684345 2.121902 2.121845 C 2.684402 1.559345 3.000809 0.794697 3.000809 0.000751495 C 3.000809 -0.796124 2.684402 -1.557842 2.121902 -2.120342 C 1.559402 -2.682842 0.794754 -2.999249 0.000808716 -2.999249 C -0.796066 -2.999249 -1.557785 -2.682842 -2.120285 -2.120342 C -2.682785 -1.557842 -2.999191 -0.796124 -2.999191 0.000751495 C -2.999191 0.794697 -2.682785 1.559345 -2.120285 2.121845 C -1.557785 2.684345 -0.796066 3.000751 0.000808716 3.000751 Z M 0.000808716 3.000751 " transform="matrix(1.333333,0,0,1.333333,143.07314,80.112279)"/>
<path style="fill-rule:nonzero;fill:rgb(100%,49.803922%,5.490196%);fill-opacity:1;stroke-width:1;stroke-linecap:butt;stroke-linejoin:round;stroke:rgb(100%,49.803922%,5.490196%);stroke-opacity:1;stroke-miterlimit:4;" d="M 0.000259399 2.99979 C 0.794205 2.99979 1.558853 2.683384 2.121353 2.120884 C 2.683853 1.558384 3.000259 0.796665 3.000259 -0.000209808 C 3.000259 -0.794155 2.683853 -1.558804 2.121353 -2.121304 C 1.558853 -2.683804 0.794205 -3.00021 0.000259399 -3.00021 C -0.796616 -3.00021 -1.558334 -2.683804 -2.120834 -2.121304 C -2.683334 -1.558804 -2.999741 -0.794155 -2.999741 -0.000209808 C -2.999741 0.796665 -2.683334 1.558384 -2.120834 2.120884 C -1.558334 2.683384 -0.796616 2.99979 0.000259399 2.99979 Z M 0.000259399 2.99979 " transform="matrix(1.333333,0,0,1.333333,147.589498,76.933873)"/>
<path style="fill-rule:nonzero;fill:rgb(100%,49.803922%,5.490196%);fill-opacity:1;stroke-width:1;stroke-linecap:butt;stroke-linejoin:round;stroke:rgb(100%,49.803922%,5.490196%);stroke-opacity:1;stroke-miterlimit:4;" d="M 0.00025177 3.000744 C 0.794197 3.000744 1.558846 2.684338 2.121346 2.121838 C 2.683846 1.559338 3.000252 0.794689 3.000252 0.000743866 C 3.000252 -0.796131 2.683846 -1.55785 2.121346 -2.12035 C 1.558846 -2.68285 0.794197 -2.999256 0.00025177 -2.999256 C -0.796623 -2.999256 -1.558342 -2.68285 -2.120842 -2.12035 C -2.683342 -1.55785 -2.999748 -0.796131 -2.999748 0.000743866 C -2.999748 0.794689 -2.683342 1.559338 -2.120842 2.121838 C -1.558342 2.684338 -0.796623 3.000744 0.00025177 3.000744 Z M 0.00025177 3.000744 " transform="matrix(1.333333,0,0,1.333333,151.808258,74.139633)"/>
<path style="fill-rule:nonzero;fill:rgb(100%,49.803922%,5.490196%);fill-opacity:1;stroke-width:1;stroke-linecap:butt;stroke-linejoin:round;stroke:rgb(100%,49.803922%,5.490196%);stroke-opacity:1;stroke-miterlimit:4;" d="M -0.000587463 2.998886 C 0.796288 2.998886 1.558006 2.68248 2.120506 2.11998 C 2.683006 1.55748 2.999413 0.795761 2.999413 -0.00111389 C 2.999413 -0.795059 2.683006 -1.559708 2.120506 -2.122208 C 1.558006 -2.684708 0.796288 -3.001114 -0.000587463 -3.001114 C -0.794533 -3.001114 -1.559181 -2.684708 -2.121681 -2.122208 C -2.684181 -1.559708 -3.000587 -0.795059 -3.000587 -0.00111389 C -3.000587 0.795761 -2.684181 1.55748 -2.121681 2.11998 C -1.559181 2.68248 -0.794533 2.998886 -0.000587463 2.998886 Z M -0.000587463 2.998886 " transform="matrix(1.333333,0,0,1.333333,155.770315,71.67336)"/>
<path style="fill-rule:nonzero;fill:rgb(100%,49.803922%,5.490196%);fill-opacity:1;stroke-width:1;stroke-linecap:butt;stroke-linejoin:round;stroke:rgb(100%,49.803922%,5.490196%);stroke-opacity:1;stroke-miterlimit:4;" d="M -0.0000305176 2.998722 C 0.796844 2.998722 1.558563 2.685246 2.121063 2.122746 C 2.683563 1.557316 2.999969 0.795597 2.999969 -0.00127792 C 2.999969 -0.795223 2.683563 -1.559872 2.121063 -2.122372 C 1.558563 -2.684872 0.796844 -3.001278 -0.0000305176 -3.001278 C -0.796906 -3.001278 -1.558624 -2.684872 -2.121124 -2.122372 C -2.683624 -1.559872 -3.000031 -0.795223 -3.000031 -0.00127792 C -3.000031 0.795597 -2.683624 1.557316 -2.121124 2.122746 C -1.558624 2.685246 -0.796906 2.998722 -0.0000305176 2.998722 Z M -0.0000305176 2.998722 " transform="matrix(1.333333,0,0,1.333333,159.507853,69.489985)"/>
<path style="fill-rule:nonzero;fill:rgb(100%,49.803922%,5.490196%);fill-opacity:1;stroke-width:1;stroke-linecap:butt;stroke-linejoin:round;stroke:rgb(100%,49.803922%,5.490196%);stroke-opacity:1;stroke-miterlimit:4;" d="M 0.0000915527 2.99868 C 0.796967 2.99868 1.558685 2.685204 2.121185 2.122704 C 2.683685 1.560204 3.000092 0.795555 3.000092 -0.00131989 C 3.000092 -0.795265 2.683685 -1.559914 2.121185 -2.122414 C 1.558685 -2.684914 0.796967 -3.00132 0.0000915527 -3.00132 C -0.796783 -3.00132 -1.558502 -2.684914 -2.121002 -2.122414 C -2.683502 -1.559914 -2.999908 -0.795265 -2.999908 -0.00131989 C -2.999908 0.795555 -2.683502 1.560204 -2.121002 2.122704 C -1.558502 2.685204 -0.796783 2.99868 0.0000915527 2.99868 Z M 0.0000915527 2.99868 " transform="matrix(1.333333,0,0,1.333333,163.046753,67.552541)"/>
<path style="fill-rule:nonzero;fill:rgb(100%,49.803922%,5.490196%);fill-opacity:1;stroke-width:1;stroke-linecap:butt;stroke-linejoin:round;stroke:rgb(100%,49.803922%,5.490196%);stroke-opacity:1;stroke-miterlimit:4;" d="M -0.0014267 3.001358 C 0.795448 3.001358 1.560097 2.684952 2.122597 2.122452 C 2.685097 1.559952 2.998573 0.795303 2.998573 0.00135803 C 2.998573 -0.795517 2.685097 -1.560165 2.122597 -2.122665 C 1.560097 -2.685165 0.795448 -2.998642 -0.0014267 -2.998642 C -0.795372 -2.998642 -1.56002 -2.685165 -2.12252 -2.122665 C -2.68502 -1.560165 -3.001427 -0.795517 -3.001427 0.00135803 C -3.001427 0.795303 -2.68502 1.559952 -2.12252 2.122452 C -1.56002 2.684952 -0.795372 3.001358 -0.0014267 3.001358 Z M -0.0014267 3.001358 " transform="matrix(1.333333,0,0,1.333333,166.408152,65.830221)"/>
<path style="fill-rule:nonzero;fill:rgb(100%,49.803922%,5.490196%);fill-opacity:1;stroke-width:1;stroke-linecap:butt;stroke-linejoin:round;stroke:rgb(100%,49.803922%,5.490196%);stroke-opacity:1;stroke-miterlimit:4;" d="M -0.000205994 2.999931 C 0.796669 2.999931 1.558388 2.683525 2.120888 2.121025 C 2.683388 1.558525 2.999794 0.796806 2.999794 -0.0000686646 C 2.999794 -0.796944 2.683388 -1.558662 2.120888 -2.121162 C 1.558388 -2.683662 0.796669 -3.000069 -0.000205994 -3.000069 C -0.794151 -3.000069 -1.5588 -2.683662 -2.1213 -2.121162 C -2.6838 -1.558662 -3.000206 -0.796944 -3.000206 -0.0000686646 C -3.000206 0.796806 -2.6838 1.558525 -2.1213 2.121025 C -1.5588 2.683525 -0.794151 2.999931 -0.000205994 2.999931 Z M -0.000205994 2.999931 " transform="matrix(1.333333,0,0,1.333333,169.60965,64.296967)"/>
<path style="fill-rule:nonzero;fill:rgb(100%,49.803922%,5.490196%);fill-opacity:1;stroke-width:1;stroke-linecap:butt;stroke-linejoin:round;stroke:rgb(100%,49.803922%,5.490196%);stroke-opacity:1;stroke-miterlimit:4;" d="M -0.00146484 2.999386 C 0.79541 2.999386 1.560059 2.68298 2.122559 2.12048 C 2.685059 1.55798 2.998535 0.796261 2.998535 -0.000614166 C 2.998535 -0.794559 2.685059 -1.559208 2.122559 -2.121708 C 1.560059 -2.684208 0.79541 -3.000614 -0.00146484 -3.000614 C -0.79541 -3.000614 -1.560059 -2.684208 -2.122559 -2.121708 C -2.685059 -1.559208 -3.001465 -0.794559 -3.001465 -0.000614166 C -3.001465 0.796261 -2.685059 1.55798 -2.122559 2.12048 C -1.560059 2.68298 -0.79541 2.999386 -0.00146484 2.999386 Z M -0.00146484 2.999386 " transform="matrix(1.333333,0,0,1.333333,172.666016,62.930506)"/>
<path style="fill-rule:nonzero;fill:rgb(100%,49.803922%,5.490196%);fill-opacity:1;stroke-width:1;stroke-linecap:butt;stroke-linejoin:round;stroke:rgb(100%,49.803922%,5.490196%);stroke-opacity:1;stroke-miterlimit:4;" d="M -0.0000305176 2.999477 C 0.796844 2.999477 1.558563 2.683071 2.121063 2.120571 C 2.683563 1.558071 2.999969 0.796352 2.999969 -0.000522614 C 2.999969 -0.794468 2.683563 -1.559116 2.121063 -2.121616 C 1.558563 -2.684116 0.796844 -3.000523 -0.0000305176 -3.000523 C -0.796906 -3.000523 -1.558624 -2.684116 -2.121124 -2.121616 C -2.683624 -1.559116 -3.000031 -0.794468 -3.000031 -0.000522614 C -3.000031 0.796352 -2.683624 1.558071 -2.121124 2.120571 C -1.558624 2.683071 -0.796906 2.999477 -0.0000305176 2.999477 Z M -0.0000305176 2.999477 " transform="matrix(1.333333,0,0,1.333333,175.589884,61.711634)"/>
<path style="fill-rule:nonzero;fill:rgb(100%,49.803922%,5.490196%);fill-opacity:1;stroke-width:1;stroke-linecap:butt;stroke-linejoin:round;stroke:rgb(100%,49.803922%,5.490196%);stroke-opacity:1;stroke-miterlimit:4;" d="M -0.00108337 3.001019 C 0.795792 3.001019 1.55751 2.684612 2.12001 2.122112 C 2.68251 1.559612 2.998917 0.794964 2.998917 0.00101852 C 2.998917 -0.795856 2.68251 -1.557575 2.12001 -2.120075 C 1.55751 -2.682575 0.795792 -2.998981 -0.00108337 -2.998981 C -0.795029 -2.998981 -1.559677 -2.682575 -2.122177 -2.120075 C -2.684677 -1.557575 -3.001083 -0.795856 -3.001083 0.00101852 C -3.001083 0.794964 -2.684677 1.559612 -2.122177 2.122112 C -1.559677 2.684612 -0.795029 3.001019 -0.00108337 3.001019 Z M -0.00108337 3.001019 " transform="matrix(1.333333,0,0,1.333333,178.392069,60.623642)"/>
<path style="fill-rule:nonzero;fill:rgb(100%,49.803922%,5.490196%);fill-opacity:1;stroke-width:1;stroke-linecap:butt;stroke-linejoin:round;stroke:rgb(100%,49.803922%,5.490196%);stroke-opacity:1;stroke-miterlimit:4;" d="M 0.0000457764 3.000294 C 0.796921 3.000294 1.55864 2.683887 2.12114 2.121387 C 2.68364 1.558887 3.000046 0.794239 3.000046 0.000293732 C 3.000046 -0.796581 2.68364 -1.5583 2.12114 -2.1208 C 1.55864 -2.6833 0.796921 -2.999706 0.0000457764 -2.999706 C -0.796829 -2.999706 -1.558548 -2.6833 -2.121048 -2.1208 C -2.683548 -1.5583 -2.999954 -0.796581 -2.999954 0.000293732 C -2.999954 0.794239 -2.683548 1.558887 -2.121048 2.121387 C -1.558548 2.683887 -0.796829 3.000294 0.0000457764 3.000294 Z M 0.0000457764 3.000294 " transform="matrix(1.333333,0,0,1.333333,181.08197,59.651952)"/>
<path style="fill-rule:nonzero;fill:rgb(100%,49.803922%,5.490196%);fill-opacity:1;stroke-width:1;stroke-linecap:butt;stroke-linejoin:round;stroke:rgb(100%,49.803922%,5.490196%);stroke-opacity:1;stroke-miterlimit:4;" d="M 0.00012207 3.001057 C 0.796997 3.001057 1.558716 2.68465 2.121216 2.12215 C 2.683716 1.55965 3.000122 0.795002 3.000122 0.00105667 C 3.000122 -0.795818 2.683716 -1.557537 2.121216 -2.120037 C 1.558716 -2.682537 0.796997 -2.998943 0.00012207 -2.998943 C -0.796753 -2.998943 -1.558472 -2.682537 -2.120972 -2.120037 C -2.683472 -1.557537 -2.999878 -0.795818 -2.999878 0.00105667 C -2.999878 0.795002 -2.683472 1.55965 -2.120972 2.12215 C -1.558472 2.68465 -0.796753 3.001057 0.00012207 3.001057 Z M 0.00012207 3.001057 " transform="matrix(1.333333,0,0,1.333333,183.667806,58.783747)"/>
<g clip-path="url(#clip1)" clip-rule="nonzero">
<path style="fill:none;stroke-width:1.5;stroke-linecap:butt;stroke-linejoin:round;stroke:rgb(12.156863%,46.666667%,70.588237%);stroke-opacity:1;stroke-miterlimit:4;" d="M 97.101562 7.201172 L 94.49707 7.854492 L 91.444336 8.645508 L 88.394531 9.454102 L 85.341797 10.286133 L 83.90918 10.68457 L 82.291992 11.194336 L 79.239258 12.181641 L 76.186523 13.192383 L 73.306641 14.167969 L 73.136719 14.235352 L 70.083984 15.457031 L 67.03418 16.702148 L 64.751953 17.654297 L 63.981445 18.035156 L 60.928711 19.570312 L 57.878906 21.137695 L 54.826172 23.094727 L 52.485352 24.624023 L 51.776367 25.22168 L 48.723633 27.834961 L 48.410156 28.107422 L 45.670898 31.453125 L 45.55957 31.59375 L 43.880859 35.077148 L 43.321289 38.560547 L 43.880859 42.046875 L 45.55957 45.530273 L 45.670898 45.670898 L 48.410156 49.016602 L 48.723633 49.289062 L 51.776367 51.902344 L 52.485352 52.5 L 54.826172 54.029297 L 57.878906 55.983398 L 60.928711 57.553711 L 63.981445 59.088867 L 64.751953 59.469727 L 67.03418 60.421875 L 70.083984 61.666992 L 73.136719 62.885742 L 73.306641 62.953125 L 76.186523 63.928711 L 79.239258 64.939453 L 82.291992 65.926758 L 83.90918 66.439453 L 85.341797 66.837891 L 88.394531 67.666992 L 91.444336 68.478516 L 94.49707 69.266602 L 97.101562 69.922852 L 97.549805 70.025391 L 100.599609 70.693359 L 103.652344 71.34375 L 106.702148 71.976562 L 109.754883 72.591797 L 112.807617 73.186523 L 113.967773 73.40625 L 115.857422 73.731445 L 118.910156 74.238281 L 121.959961 74.727539 L 125.012695 75.199219 L 128.06543 75.65625 L 131.115234 76.095703 L 134.167969 76.517578 L 136.96875 76.892578 L 137.217773 76.921875 L 140.270508 77.279297 L 143.323242 77.619141 L 146.373047 77.944336 L 149.425781 78.254883 L 152.475586 78.550781 L 155.52832 78.832031 L 158.581055 79.095703 L 161.630859 79.347656 L 164.683594 79.582031 L 167.733398 79.801758 L 170.786133 80.006836 L 173.838867 80.194336 L 176.888672 80.370117 L 177.035156 80.375977 L 179.941406 80.516602 L 182.991211 80.648438 L 186.043945 80.768555 L 189.09668 80.871094 L 192.146484 80.961914 L 195.199219 81.038086 L 198.249023 81.102539 L 201.301758 81.149414 L 204.354492 81.18457 L 207.404297 81.205078 L 210.457031 81.213867 L 213.506836 81.205078 L 216.55957 81.18457 L 219.612305 81.149414 L 222.662109 81.102539 L 225.714844 81.038086 L 228.764648 80.961914 L 231.817383 80.871094 L 234.870117 80.768555 L 237.919922 80.648438 " transform="matrix(1.333333,0,0,1.333333,0,0)"/>
</g>
<g clip-path="url(#clip2)" clip-rule="nonzero">
<path style="fill:none;stroke-width:1.5;stroke-linecap:butt;stroke-linejoin:round;stroke:rgb(12.156863%,46.666667%,70.588237%);stroke-opacity:1;stroke-miterlimit:4;" d="M 42.621094 81.038086 L 45.670898 81.799805 L 48.723633 82.543945 L 51.776367 83.276367 L 54.263672 83.862305 L 54.826172 83.985352 L 57.878906 84.635742 L 60.928711 85.274414 L 63.981445 85.901367 L 67.03418 86.513672 L 70.083984 87.114258 L 71.291016 87.345703 L 73.136719 87.676758 L 76.186523 88.209961 L 79.239258 88.734375 L 82.291992 89.244141 L 85.341797 89.742188 L 88.394531 90.228516 L 91.444336 90.706055 L 92.276367 90.832031 L 94.49707 91.145508 L 97.549805 91.567383 L 100.599609 91.977539 L 103.652344 92.375977 L 106.702148 92.765625 L 109.754883 93.140625 L 112.807617 93.506836 L 115.857422 93.861328 L 118.910156 94.204102 L 119.944336 94.31543 L 121.959961 94.520508 L 125.012695 94.822266 L 128.06543 95.112305 L 131.115234 95.393555 L 134.167969 95.663086 L 137.217773 95.920898 L 140.270508 96.169922 L 143.323242 96.407227 L 146.373047 96.632812 L 149.425781 96.849609 L 152.475586 97.054688 L 155.52832 97.250977 L 158.581055 97.435547 L 161.630859 97.611328 L 164.683594 97.772461 L 165.208008 97.798828 L 167.733398 97.918945 L 170.786133 98.053711 L 173.838867 98.179688 L 176.888672 98.293945 L 179.941406 98.396484 L 182.991211 98.493164 L 186.043945 98.575195 L 189.09668 98.651367 L 192.146484 98.71582 L 195.199219 98.771484 L 198.249023 98.81543 L 201.301758 98.850586 L 204.354492 98.874023 L 207.404297 98.891602 L 210.457031 98.894531 L 213.506836 98.891602 L 216.55957 98.874023 L 219.612305 98.850586 L 222.662109 98.81543 L 225.714844 98.771484 L 228.764648 98.71582 L 231.817383 98.651367 L 234.870117 98.575195 L 237.919922 98.493164 " transform="matrix(1.333333,0,0,1.333333,0,0)"/>
</g>
<g clip-path="url(#clip3)" clip-rule="nonzero">
<path style="fill:none;stroke-width:1.5;stroke-linecap:butt;stroke-linejoin:round;stroke:rgb(12.156863%,46.666667%,70.588237%);stroke-opacity:1;stroke-miterlimit:4;" d="M 42.621094 98.771484 L 45.670898 99.313477 L 48.723633 99.84668 L 51.776367 100.368164 L 54.826172 100.880859 L 57.272461 101.285156 L 57.878906 101.378906 L 60.928711 101.844727 L 63.981445 102.301758 L 67.03418 102.75 L 70.083984 103.186523 L 73.136719 103.614258 L 76.186523 104.033203 L 79.239258 104.443359 L 81.714844 104.768555 L 82.291992 104.841797 L 85.341797 105.210938 L 88.394531 105.574219 L 91.444336 105.925781 L 94.49707 106.271484 L 97.549805 106.605469 L 100.599609 106.930664 L 103.652344 107.25 L 106.702148 107.557617 L 109.754883 107.856445 L 112.807617 108.146484 L 113.967773 108.254883 L 115.857422 108.418945 L 118.910156 108.679688 L 121.959961 108.928711 L 125.012695 109.171875 L 128.06543 109.40625 L 131.115234 109.631836 L 134.167969 109.848633 L 137.217773 110.056641 L 140.270508 110.255859 L 143.323242 110.446289 L 146.373047 110.62793 L 149.425781 110.803711 L 152.475586 110.970703 L 155.52832 111.125977 L 158.581055 111.275391 L 161.630859 111.416016 L 164.683594 111.547852 L 167.733398 111.670898 L 169.543945 111.738281 L 170.786133 111.782227 L 173.838867 111.884766 L 176.888672 111.978516 L 179.941406 112.063477 L 182.991211 112.139648 L 186.043945 112.207031 L 189.09668 112.268555 L 192.146484 112.321289 L 195.199219 112.365234 L 198.249023 112.40332 L 201.301758 112.432617 L 204.354492 112.450195 L 207.404297 112.464844 L 210.457031 112.467773 L 213.506836 112.464844 L 216.55957 112.450195 L 219.612305 112.432617 L 222.662109 112.40332 L 225.714844 112.365234 L 228.764648 112.321289 L 231.817383 112.268555 L 234.870117 112.207031 L 237.919922 112.139648 " transform="matrix(1.333333,0,0,1.333333,0,0)"/>
</g>
<g clip-path="url(#clip4)" clip-rule="nonzero">
<path style="fill:none;stroke-width:1.5;stroke-linecap:butt;stroke-linejoin:round;stroke:rgb(12.156863%,46.666667%,70.588237%);stroke-opacity:1;stroke-miterlimit:4;" d="M 42.621094 112.365234 L 45.670898 112.807617 L 48.723633 113.241211 L 51.776367 113.666016 L 54.826172 114.084961 L 57.878906 114.495117 L 60.928711 114.893555 L 63.477539 115.22168 L 63.981445 115.286133 L 67.03418 115.652344 L 70.083984 116.012695 L 73.136719 116.364258 L 76.186523 116.709961 L 79.239258 117.046875 L 82.291992 117.375 L 85.341797 117.697266 L 88.394531 118.010742 L 91.444336 118.31543 L 94.49707 118.614258 L 95.472656 118.708008 L 97.549805 118.895508 L 100.599609 119.167969 L 103.652344 119.431641 L 106.702148 119.686523 L 109.754883 119.935547 L 112.807617 120.175781 L 115.857422 120.410156 L 118.910156 120.635742 L 121.959961 120.855469 L 125.012695 121.066406 L 128.06543 121.268555 L 131.115234 121.464844 L 134.167969 121.655273 L 137.217773 121.836914 L 140.270508 122.009766 L 143.323242 122.176758 L 143.604492 122.191406 L 146.373047 122.332031 L 149.425781 122.475586 L 152.475586 122.616211 L 155.52832 122.748047 L 158.581055 122.871094 L 161.630859 122.988281 L 164.683594 123.099609 L 167.733398 123.202148 L 170.786133 123.298828 L 173.838867 123.386719 L 176.888672 123.46875 L 179.941406 123.544922 L 182.991211 123.612305 L 186.043945 123.670898 L 189.09668 123.723633 L 192.146484 123.770508 L 195.199219 123.811523 L 198.249023 123.84082 L 201.301758 123.867188 L 204.354492 123.884766 L 207.404297 123.896484 L 210.457031 123.899414 L 213.506836 123.896484 L 216.55957 123.884766 L 219.612305 123.867188 L 222.662109 123.84082 L 225.714844 123.811523 L 228.764648 123.770508 L 231.817383 123.723633 L 234.870117 123.670898 L 237.919922 123.612305 " transform="matrix(1.333333,0,0,1.333333,0,0)"/>
</g>
<g clip-path="url(#clip5)" clip-rule="nonzero">
<path style="fill:none;stroke-width:1.5;stroke-linecap:butt;stroke-linejoin:round;stroke:rgb(12.156863%,46.666667%,70.588237%);stroke-opacity:1;stroke-miterlimit:4;" d="M 42.621094 123.811523 L 45.670898 124.198242 L 48.723633 124.579102 L 51.776367 124.951172 L 54.826172 125.317383 L 57.878906 125.677734 L 60.928711 126.014648 L 63.981445 126.345703 L 67.03418 126.670898 L 70.083984 126.990234 L 73.136719 127.300781 L 76.186523 127.602539 L 79.239258 127.901367 L 82.291992 128.191406 L 85.341797 128.475586 L 88.394531 128.750977 L 91.444336 129.020508 L 93.070312 129.161133 L 94.49707 129.28125 L 97.549805 129.527344 L 100.599609 129.767578 L 103.652344 129.999023 L 106.702148 130.227539 L 109.754883 130.447266 L 112.807617 130.661133 L 115.857422 130.869141 L 118.910156 131.068359 L 121.959961 131.261719 L 125.012695 131.449219 L 128.06543 131.630859 L 131.115234 131.803711 L 134.167969 131.973633 L 137.217773 132.134766 L 140.270508 132.287109 L 143.323242 132.436523 L 146.373047 132.577148 L 147.9375 132.647461 L 149.425781 132.708984 L 152.475586 132.832031 L 155.52832 132.949219 L 158.581055 133.060547 L 161.630859 133.166016 L 164.683594 133.262695 L 167.733398 133.356445 L 170.786133 133.441406 L 173.838867 133.520508 L 176.888672 133.59375 L 179.941406 133.661133 L 182.991211 133.719727 L 186.043945 133.772461 L 189.09668 133.822266 L 192.146484 133.863281 L 195.199219 133.898438 L 198.249023 133.924805 L 201.301758 133.948242 L 204.354492 133.962891 L 207.404297 133.974609 L 210.457031 133.977539 L 213.506836 133.974609 L 216.55957 133.962891 L 219.612305 133.948242 L 222.662109 133.924805 L 225.714844 133.898438 L 228.764648 133.863281 L 231.817383 133.822266 L 234.870117 133.772461 L 237.919922 133.719727 " transform="matrix(1.333333,0,0,1.333333,0,0)"/>
</g>
<g clip-path="url(#clip6)" clip-rule="nonzero">
<path style="fill:none;stroke-width:1.5;stroke-linecap:butt;stroke-linejoin:round;stroke:rgb(12.156863%,46.666667%,70.588237%);stroke-opacity:1;stroke-miterlimit:4;" d="M 42.621094 133.898438 L 45.670898 134.244141 L 48.723633 134.581055 L 51.776367 134.915039 L 54.826172 135.240234 L 57.878906 135.55957 L 60.928711 135.873047 L 63.477539 136.130859 L 63.981445 136.180664 L 67.03418 136.470703 L 70.083984 136.754883 L 73.136719 137.033203 L 76.186523 137.305664 L 79.239258 137.569336 L 82.291992 137.830078 L 85.341797 138.084961 L 88.394531 138.331055 L 91.444336 138.574219 L 94.49707 138.808594 L 97.549805 139.037109 L 100.599609 139.259766 L 103.652344 139.476562 L 105.641602 139.614258 L 106.702148 139.6875 L 109.754883 139.883789 L 112.807617 140.077148 L 115.857422 140.261719 L 118.910156 140.443359 L 121.959961 140.616211 L 125.012695 140.786133 L 128.06543 140.947266 L 131.115234 141.102539 L 134.167969 141.254883 L 137.217773 141.398438 L 140.270508 141.539062 L 143.323242 141.670898 L 146.373047 141.796875 L 149.425781 141.919922 L 152.475586 142.03418 L 155.52832 142.142578 L 158.581055 142.245117 L 161.630859 142.344727 L 164.683594 142.435547 L 167.733398 142.520508 L 170.786133 142.599609 L 173.838867 142.675781 L 176.888672 142.743164 L 179.941406 142.804688 L 182.991211 142.860352 L 186.043945 142.910156 L 189.09668 142.954102 L 192.146484 142.995117 L 195.199219 143.027344 L 198.249023 143.053711 L 201.301758 143.074219 L 204.354492 143.088867 L 207.404297 143.097656 L 210.457031 143.100586 " transform="matrix(1.333333,0,0,1.333333,0,0)"/>
</g>
<g clip-path="url(#clip7)" clip-rule="nonzero">
<path style="fill:none;stroke-width:1.5;stroke-linecap:butt;stroke-linejoin:round;stroke:rgb(12.156863%,46.666667%,70.588237%);stroke-opacity:1;stroke-miterlimit:4;" d="M 210.457031 143.100586 L 213.506836 143.097656 L 216.55957 143.088867 L 219.612305 143.074219 L 222.662109 143.053711 L 225.714844 143.027344 L 228.764648 142.995117 L 231.817383 142.954102 L 234.870117 142.910156 L 237.919922 142.860352 " transform="matrix(1.333333,0,0,1.333333,0,0)"/>
</g>
<g clip-path="url(#clip8)" clip-rule="nonzero">
<path style="fill:none;stroke-width:1.5;stroke-linecap:butt;stroke-linejoin:round;stroke:rgb(12.156863%,46.666667%,70.588237%);stroke-opacity:1;stroke-miterlimit:4;" d="M 42.621094 143.027344 L 43.321289 143.100586 " transform="matrix(1.333333,0,0,1.333333,0,0)"/>
</g>
<path style="fill:none;stroke-width:0.8;stroke-linecap:square;stroke-linejoin:miter;stroke:rgb(0%,0%,0%);stroke-opacity:1;stroke-miterlimit:4;" d="M 42.621094 143.100586 L 42.621094 7.201172 " transform="matrix(1.333333,0,0,1.333333,0,0)"/>
<path style="fill:none;stroke-width:0.8;stroke-linecap:square;stroke-linejoin:miter;stroke:rgb(0%,0%,0%);stroke-opacity:1;stroke-miterlimit:4;" d="M 237.919922 143.100586 L 237.919922 7.201172 " transform="matrix(1.333333,0,0,1.333333,0,0)"/>
<path style="fill:none;stroke-width:0.8;stroke-linecap:square;stroke-linejoin:miter;stroke:rgb(0%,0%,0%);stroke-opacity:1;stroke-miterlimit:4;" d="M 42.621094 143.100586 L 237.919922 143.100586 " transform="matrix(1.333333,0,0,1.333333,0,0)"/>
<path style="fill:none;stroke-width:0.8;stroke-linecap:square;stroke-linejoin:miter;stroke:rgb(0%,0%,0%);stroke-opacity:1;stroke-miterlimit:4;" d="M 42.621094 7.201172 L 237.919922 7.201172 " transform="matrix(1.333333,0,0,1.333333,0,0)"/>
</g>
</svg>
