<?xml version="1.0" encoding="UTF-8"?>
<svg xmlns="http://www.w3.org/2000/svg" xmlns:xlink="http://www.w3.org/1999/xlink" width="326.827087" height="240.875" viewBox="0 0 326.827087 240.875" version="1.1">
<defs>
<clipPath id="clip1">
  <path d="M 56.828125 29 L 317.226562 29 L 317.226562 119 L 56.828125 119 Z M 56.828125 29 "/>
</clipPath>
<clipPath id="clip2">
  <path d="M 56.828125 116 L 317.226562 116 L 317.226562 140 L 56.828125 140 Z M 56.828125 116 "/>
</clipPath>
<clipPath id="clip3">
  <path d="M 56.828125 137 L 317.226562 137 L 317.226562 156 L 56.828125 156 Z M 56.828125 137 "/>
</clipPath>
<clipPath id="clip4">
  <path d="M 56.828125 153 L 317.226562 153 L 317.226562 170 L 56.828125 170 Z M 56.828125 153 "/>
</clipPath>
<clipPath id="clip5">
  <path d="M 56.828125 167 L 317.226562 167 L 317.226562 182 L 56.828125 182 Z M 56.828125 167 "/>
</clipPath>
<clipPath id="clip6">
  <path d="M 56.828125 178 L 282 178 L 282 190.800781 L 56.828125 190.800781 Z M 56.828125 178 "/>
</clipPath>
<clipPath id="clip7">
  <path d="M 279 189 L 317.226562 189 L 317.226562 190.800781 L 279 190.800781 Z M 279 189 "/>
</clipPath>
<clipPath id="clip8">
  <path d="M 56.828125 189 L 59 189 L 59 190.800781 L 56.828125 190.800781 Z M 56.828125 189 "/>
</clipPath>
</defs>
<g id="surface1">
<path style=" stroke:none;fill-rule:nonzero;fill:rgb(100%,100%,100%);fill-opacity:1;" d="M 56.828125 190.800781 L 317.226562 190.800781 L 317.226562 9.601562 L 56.828125 9.601562 Z M 56.828125 190.800781 "/>
<path style="fill:none;stroke-width:0.8;stroke-linecap:butt;stroke-linejoin:round;stroke:rgb(0%,0%,0%);stroke-opacity:1;stroke-miterlimit:4;" d="M 0.000778198 0.000579834 L 0.000778198 3.498627 " transform="matrix(1.333333,0,0,1.333333,117.858337,190.800008)"/>
<path style=" stroke:none;fill-rule:nonzero;fill:rgb(0%,0%,0%);fill-opacity:1;" d="M 109.441406 205.53125 L 117.789062 205.53125 L 117.789062 206.636719 L 109.441406 206.636719 Z M 109.441406 205.53125 "/>
<path style=" stroke:none;fill-rule:nonzero;fill:rgb(0%,0%,0%);fill-opacity:1;" d="M 124.242188 201.691406 L 120.921875 206.878906 L 124.242188 206.878906 Z M 123.894531 200.542969 L 125.550781 200.542969 L 125.550781 206.878906 L 126.9375 206.878906 L 126.9375 207.972656 L 125.550781 207.972656 L 125.550781 210.265625 L 124.242188 210.265625 L 124.242188 207.972656 L 119.855469 207.972656 L 119.855469 206.703125 Z M 123.894531 200.542969 "/>
<path style="fill:none;stroke-width:0.8;stroke-linecap:butt;stroke-linejoin:round;stroke:rgb(0%,0%,0%);stroke-opacity:1;stroke-miterlimit:4;" d="M 0.000778198 0.000579834 L 0.000778198 3.498627 " transform="matrix(1.333333,0,0,1.333333,199.233337,190.800008)"/>
<path style=" stroke:none;fill-rule:nonzero;fill:rgb(0%,0%,0%);fill-opacity:1;" d="M 190.816406 205.53125 L 199.164062 205.53125 L 199.164062 206.636719 L 190.816406 206.636719 Z M 190.816406 205.53125 "/>
<path style=" stroke:none;fill-rule:nonzero;fill:rgb(0%,0%,0%);fill-opacity:1;" d="M 203.136719 209.160156 L 207.726562 209.160156 L 207.726562 210.265625 L 201.554688 210.265625 L 201.554688 209.160156 C 202.054688 208.640625 202.734375 207.949219 203.59375 207.078125 C 204.457031 206.207031 204.996094 205.648438 205.21875 205.394531 C 205.640625 204.921875 205.933594 204.523438 206.101562 204.195312 C 206.269531 203.867188 206.351562 203.542969 206.351562 203.226562 C 206.351562 202.710938 206.171875 202.289062 205.808594 201.964844 C 205.445312 201.636719 204.972656 201.476562 204.390625 201.476562 C 203.980469 201.476562 203.542969 201.546875 203.085938 201.691406 C 202.628906 201.832031 202.140625 202.050781 201.617188 202.339844 L 201.617188 201.011719 C 202.148438 200.800781 202.640625 200.640625 203.101562 200.53125 C 203.5625 200.421875 203.984375 200.367188 204.367188 200.367188 C 205.375 200.367188 206.175781 200.621094 206.773438 201.125 C 207.375 201.628906 207.671875 202.300781 207.671875 203.140625 C 207.671875 203.542969 207.597656 203.921875 207.449219 204.277344 C 207.300781 204.636719 207.027344 205.058594 206.632812 205.542969 C 206.523438 205.671875 206.179688 206.035156 205.597656 206.636719 C 205.015625 207.238281 204.195312 208.078125 203.136719 209.160156 Z M 203.136719 209.160156 "/>
<path style="fill:none;stroke-width:0.8;stroke-linecap:butt;stroke-linejoin:round;stroke:rgb(0%,0%,0%);stroke-opacity:1;stroke-miterlimit:4;" d="M 0.000778198 0.000579834 L 0.000778198 3.498627 " transform="matrix(1.333333,0,0,1.333333,280.608337,190.800008)"/>
<path style=" stroke:none;fill-rule:nonzero;fill:rgb(0%,0%,0%);fill-opacity:1;" d="M 280.605469 201.410156 C 279.929688 201.410156 279.417969 201.742188 279.078125 202.410156 C 278.738281 203.074219 278.566406 204.078125 278.566406 205.414062 C 278.566406 206.746094 278.738281 207.746094 279.078125 208.414062 C 279.417969 209.078125 279.929688 209.414062 280.605469 209.414062 C 281.285156 209.414062 281.796875 209.078125 282.136719 208.414062 C 282.480469 207.746094 282.648438 206.746094 282.648438 205.414062 C 282.648438 204.078125 282.480469 203.074219 282.136719 202.410156 C 281.796875 201.742188 281.285156 201.410156 280.605469 201.410156 Z M 280.605469 200.367188 C 281.695312 200.367188 282.527344 200.800781 283.101562 201.664062 C 283.675781 202.523438 283.964844 203.773438 283.964844 205.414062 C 283.964844 207.050781 283.675781 208.300781 283.101562 209.164062 C 282.527344 210.023438 281.695312 210.453125 280.605469 210.453125 C 279.515625 210.453125 278.683594 210.023438 278.109375 209.164062 C 277.535156 208.300781 277.246094 207.050781 277.246094 205.414062 C 277.246094 203.773438 277.535156 202.523438 278.109375 201.664062 C 278.683594 200.800781 279.515625 200.367188 280.605469 200.367188 Z M 280.605469 200.367188 "/>
<path style=" stroke:none;fill-rule:nonzero;fill:rgb(0%,0%,0%);fill-opacity:1;" d="M 186.160156 221.210938 L 183.519531 224.757812 L 186.292969 228.503906 L 184.882812 228.503906 L 182.757812 225.636719 L 180.636719 228.503906 L 179.222656 228.503906 L 182.054688 224.6875 L 179.464844 221.210938 L 180.878906 221.210938 L 182.808594 223.808594 L 184.742188 221.210938 Z M 186.160156 221.210938 "/>
<path style=" stroke:none;fill-rule:nonzero;fill:rgb(0%,0%,0%);fill-opacity:1;" d="M 188.382812 227.394531 L 190.53125 227.394531 L 190.53125 219.980469 L 188.195312 220.449219 L 188.195312 219.25 L 190.519531 218.78125 L 191.835938 218.78125 L 191.835938 227.394531 L 193.980469 227.394531 L 193.980469 228.503906 L 188.382812 228.503906 Z M 188.382812 227.394531 "/>
<path style="fill:none;stroke-width:0.8;stroke-linecap:butt;stroke-linejoin:round;stroke:rgb(0%,0%,0%);stroke-opacity:1;stroke-miterlimit:4;" d="M 0.000782013 0.000579834 L -3.500195 0.000579834 " transform="matrix(1.333333,0,0,1.333333,56.827082,190.800008)"/>
<path style=" stroke:none;fill-rule:nonzero;fill:rgb(0%,0%,0%);fill-opacity:1;" d="M 29.25 191.132812 L 37.597656 191.132812 L 37.597656 192.238281 L 29.25 192.238281 Z M 29.25 191.132812 "/>
<path style=" stroke:none;fill-rule:nonzero;fill:rgb(0%,0%,0%);fill-opacity:1;" d="M 44.417969 190.625 C 45.050781 190.757812 45.539062 191.039062 45.894531 191.464844 C 46.246094 191.890625 46.425781 192.414062 46.425781 193.039062 C 46.425781 194 46.09375 194.742188 45.433594 195.269531 C 44.773438 195.792969 43.835938 196.054688 42.621094 196.054688 C 42.214844 196.054688 41.796875 196.015625 41.363281 195.933594 C 40.929688 195.855469 40.484375 195.734375 40.027344 195.570312 L 40.027344 194.304688 C 40.390625 194.515625 40.789062 194.675781 41.222656 194.785156 C 41.65625 194.894531 42.109375 194.945312 42.585938 194.945312 C 43.40625 194.945312 44.035156 194.785156 44.46875 194.460938 C 44.898438 194.132812 45.117188 193.660156 45.117188 193.039062 C 45.117188 192.46875 44.914062 192.019531 44.511719 191.695312 C 44.113281 191.375 43.554688 191.210938 42.839844 191.210938 L 41.707031 191.210938 L 41.707031 190.128906 L 42.890625 190.128906 C 43.535156 190.128906 44.03125 190 44.375 189.742188 C 44.71875 189.484375 44.886719 189.113281 44.886719 188.625 C 44.886719 188.128906 44.710938 187.746094 44.355469 187.476562 C 44.003906 187.210938 43.5 187.074219 42.839844 187.074219 C 42.476562 187.074219 42.089844 187.117188 41.679688 187.195312 C 41.265625 187.273438 40.8125 187.394531 40.316406 187.558594 L 40.316406 186.386719 C 40.816406 186.246094 41.285156 186.144531 41.722656 186.074219 C 42.15625 186.003906 42.570312 185.96875 42.957031 185.96875 C 43.953125 185.96875 44.742188 186.195312 45.324219 186.652344 C 45.90625 187.105469 46.195312 187.714844 46.195312 188.488281 C 46.195312 189.027344 46.042969 189.480469 45.734375 189.851562 C 45.425781 190.222656 44.988281 190.480469 44.417969 190.625 Z M 44.417969 190.625 "/>
<path style="fill:none;stroke-width:0.8;stroke-linecap:butt;stroke-linejoin:round;stroke:rgb(0%,0%,0%);stroke-opacity:1;stroke-miterlimit:4;" d="M 0.000782013 -0.000473022 L -3.500195 -0.000473022 " transform="matrix(1.333333,0,0,1.333333,56.827082,149.711568)"/>
<path style=" stroke:none;fill-rule:nonzero;fill:rgb(0%,0%,0%);fill-opacity:1;" d="M 29.25 150.042969 L 37.597656 150.042969 L 37.597656 151.148438 L 29.25 151.148438 Z M 29.25 150.042969 "/>
<path style=" stroke:none;fill-rule:nonzero;fill:rgb(0%,0%,0%);fill-opacity:1;" d="M 41.566406 153.671875 L 46.15625 153.671875 L 46.15625 154.777344 L 39.988281 154.777344 L 39.988281 153.671875 C 40.484375 153.152344 41.164062 152.460938 42.027344 151.589844 C 42.886719 150.722656 43.429688 150.160156 43.652344 149.90625 C 44.070312 149.433594 44.367188 149.035156 44.53125 148.707031 C 44.699219 148.378906 44.785156 148.054688 44.785156 147.738281 C 44.785156 147.222656 44.601562 146.800781 44.242188 146.476562 C 43.878906 146.152344 43.40625 145.988281 42.824219 145.988281 C 42.410156 145.988281 41.976562 146.058594 41.519531 146.203125 C 41.0625 146.34375 40.570312 146.5625 40.050781 146.855469 L 40.050781 145.523438 C 40.582031 145.3125 41.074219 145.152344 41.535156 145.042969 C 41.996094 144.933594 42.417969 144.882812 42.800781 144.882812 C 43.804688 144.882812 44.609375 145.132812 45.207031 145.636719 C 45.804688 146.140625 46.105469 146.8125 46.105469 147.652344 C 46.105469 148.054688 46.03125 148.433594 45.878906 148.792969 C 45.730469 149.148438 45.460938 149.570312 45.0625 150.054688 C 44.957031 150.183594 44.609375 150.546875 44.027344 151.148438 C 43.449219 151.75 42.628906 152.589844 41.566406 153.671875 Z M 41.566406 153.671875 "/>
<path style="fill:none;stroke-width:0.8;stroke-linecap:butt;stroke-linejoin:round;stroke:rgb(0%,0%,0%);stroke-opacity:1;stroke-miterlimit:4;" d="M 0.000782013 0.00140381 L -3.500195 0.00140381 " transform="matrix(1.333333,0,0,1.333333,56.827082,108.623128)"/>
<path style=" stroke:none;fill-rule:nonzero;fill:rgb(0%,0%,0%);fill-opacity:1;" d="M 29.25 108.957031 L 37.597656 108.957031 L 37.597656 110.0625 L 29.25 110.0625 Z M 29.25 108.957031 "/>
<path style=" stroke:none;fill-rule:nonzero;fill:rgb(0%,0%,0%);fill-opacity:1;" d="M 40.664062 112.582031 L 42.8125 112.582031 L 42.8125 105.164062 L 40.472656 105.632812 L 40.472656 104.4375 L 42.800781 103.96875 L 44.113281 103.96875 L 44.113281 112.582031 L 46.261719 112.582031 L 46.261719 113.6875 L 40.664062 113.6875 Z M 40.664062 112.582031 "/>
<path style="fill:none;stroke-width:0.8;stroke-linecap:butt;stroke-linejoin:round;stroke:rgb(0%,0%,0%);stroke-opacity:1;stroke-miterlimit:4;" d="M 0.000782013 0.000347137 L -3.500195 0.000347137 " transform="matrix(1.333333,0,0,1.333333,56.827082,67.534693)"/>
<path style=" stroke:none;fill-rule:nonzero;fill:rgb(0%,0%,0%);fill-opacity:1;" d="M 43.246094 63.746094 C 42.570312 63.746094 42.0625 64.078125 41.722656 64.746094 C 41.378906 65.410156 41.210938 66.414062 41.210938 67.75 C 41.210938 69.082031 41.378906 70.082031 41.722656 70.75 C 42.0625 71.414062 42.570312 71.75 43.246094 71.75 C 43.929688 71.75 44.441406 71.414062 44.78125 70.75 C 45.121094 70.082031 45.292969 69.082031 45.292969 67.75 C 45.292969 66.414062 45.121094 65.410156 44.78125 64.746094 C 44.441406 64.078125 43.929688 63.746094 43.246094 63.746094 Z M 43.246094 62.703125 C 44.339844 62.703125 45.171875 63.136719 45.746094 64 C 46.320312 64.859375 46.609375 66.109375 46.609375 67.75 C 46.609375 69.386719 46.320312 70.636719 45.746094 71.5 C 45.171875 72.359375 44.339844 72.789062 43.246094 72.789062 C 42.160156 72.789062 41.328125 72.359375 40.753906 71.5 C 40.175781 70.636719 39.890625 69.386719 39.890625 67.75 C 39.890625 66.109375 40.175781 64.859375 40.753906 64 C 41.328125 63.136719 42.160156 62.703125 43.246094 62.703125 Z M 43.246094 62.703125 "/>
<path style="fill:none;stroke-width:0.8;stroke-linecap:butt;stroke-linejoin:round;stroke:rgb(0%,0%,0%);stroke-opacity:1;stroke-miterlimit:4;" d="M 0.000782013 -0.000709534 L -3.500195 -0.000709534 " transform="matrix(1.333333,0,0,1.333333,56.827082,26.446259)"/>
<path style=" stroke:none;fill-rule:nonzero;fill:rgb(0%,0%,0%);fill-opacity:1;" d="M 40.664062 30.40625 L 42.8125 30.40625 L 42.8125 22.988281 L 40.476562 23.457031 L 40.476562 22.261719 L 42.800781 21.792969 L 44.113281 21.792969 L 44.113281 30.40625 L 46.261719 30.40625 L 46.261719 31.511719 L 40.664062 31.511719 Z M 40.664062 30.40625 "/>
<path style=" stroke:none;fill-rule:nonzero;fill:rgb(0%,0%,0%);fill-opacity:1;" d="M 12.441406 101.070312 L 15.988281 103.707031 L 19.730469 100.933594 L 19.730469 102.347656 L 16.867188 104.46875 L 19.730469 106.589844 L 19.730469 108.003906 L 15.917969 105.171875 L 12.441406 107.761719 L 12.441406 106.351562 L 15.039062 104.417969 L 12.441406 102.484375 Z M 12.441406 101.070312 "/>
<path style=" stroke:none;fill-rule:nonzero;fill:rgb(0%,0%,0%);fill-opacity:1;" d="M 18.625 97.9375 L 18.625 93.347656 L 19.730469 93.347656 L 19.730469 99.519531 L 18.625 99.519531 C 18.109375 99.019531 17.414062 98.339844 16.546875 97.480469 C 15.675781 96.617188 15.113281 96.074219 14.859375 95.855469 C 14.386719 95.433594 13.988281 95.140625 13.660156 94.972656 C 13.332031 94.804688 13.011719 94.722656 12.695312 94.722656 C 12.175781 94.722656 11.757812 94.902344 11.429688 95.265625 C 11.105469 95.628906 10.941406 96.101562 10.941406 96.683594 C 10.941406 97.09375 11.011719 97.53125 11.15625 97.988281 C 11.300781 98.445312 11.515625 98.933594 11.808594 99.457031 L 10.480469 99.457031 C 10.265625 98.925781 10.105469 98.429688 9.996094 97.972656 C 9.890625 97.511719 9.835938 97.089844 9.835938 96.707031 C 9.835938 95.699219 10.085938 94.898438 10.589844 94.300781 C 11.09375 93.699219 11.765625 93.402344 12.609375 93.402344 C 13.007812 93.402344 13.386719 93.476562 13.746094 93.625 C 14.101562 93.773438 14.523438 94.046875 15.011719 94.441406 C 15.136719 94.550781 15.5 94.894531 16.101562 95.476562 C 16.703125 96.058594 17.542969 96.878906 18.625 97.9375 Z M 18.625 97.9375 "/>
<path style="fill:none;stroke-width:1.5;stroke-linecap:square;stroke-linejoin:round;stroke:rgb(100%,49.803922%,5.490196%);stroke-opacity:1;stroke-miterlimit:4;" d="M 57.878906 112.283203 L 70.083984 13.672852 L 81.313477 72.837891 L 91.646484 37.338867 L 101.150391 58.637695 L 109.895508 45.858398 L 117.94043 53.525391 L 125.34082 48.925781 L 132.149414 51.685547 L 138.416016 50.030273 L 144.178711 51.023438 L 149.481445 50.428711 L 154.359375 50.786133 L 158.847656 50.569336 L 162.975586 50.698242 L 166.772461 50.62207 L 170.267578 50.668945 L 173.484375 50.639648 L 176.44043 50.657227 L 179.162109 50.648438 L 181.666992 50.654297 " transform="matrix(1.333333,0,0,1.333333,0,0)"/>
<path style="fill-rule:nonzero;fill:rgb(100%,49.803922%,5.490196%);fill-opacity:1;stroke-width:1;stroke-linecap:butt;stroke-linejoin:round;stroke:rgb(100%,49.803922%,5.490196%);stroke-opacity:1;stroke-miterlimit:4;" d="M 0.000782013 2.999527 C 0.794727 2.999527 1.559376 2.683121 2.121876 2.120621 C 2.684376 1.558121 3.000782 0.796402 3.000782 -0.000473022 C 3.000782 -0.794418 2.684376 -1.559067 2.121876 -2.121567 C 1.559376 -2.684067 0.794727 -3.000473 0.000782013 -3.000473 C -0.796093 -3.000473 -1.557812 -2.684067 -2.120312 -2.121567 C -2.682812 -1.559067 -2.999218 -0.794418 -2.999218 -0.000473022 C -2.999218 0.796402 -2.682812 1.558121 -2.120312 2.120621 C -1.557812 2.683121 -0.796093 2.999527 0.000782013 2.999527 Z M 0.000782013 2.999527 " transform="matrix(1.333333,0,0,1.333333,77.170832,149.711568)"/>
<path style="fill-rule:nonzero;fill:rgb(100%,49.803922%,5.490196%);fill-opacity:1;stroke-width:1;stroke-linecap:butt;stroke-linejoin:round;stroke:rgb(100%,49.803922%,5.490196%);stroke-opacity:1;stroke-miterlimit:4;" d="M -0.000389099 3.001423 C 0.796486 3.001423 1.558205 2.685017 2.120705 2.122517 C 2.683205 1.560017 2.999611 0.795368 2.999611 0.00142288 C 2.999611 -0.795452 2.683205 -1.560101 2.120705 -2.122601 C 1.558205 -2.685101 0.796486 -2.998577 -0.000389099 -2.998577 C -0.794334 -2.998577 -1.558983 -2.685101 -2.121483 -2.122601 C -2.683983 -1.560101 -3.000389 -0.795452 -3.000389 0.00142288 C -3.000389 0.795368 -2.683983 1.560017 -2.121483 2.122517 C -1.558983 2.685017 -0.794334 3.001423 -0.000389099 3.001423 Z M -0.000389099 3.001423 " transform="matrix(1.333333,0,0,1.333333,93.445831,18.228572)"/>
<path style="fill-rule:nonzero;fill:rgb(100%,49.803922%,5.490196%);fill-opacity:1;stroke-width:1;stroke-linecap:butt;stroke-linejoin:round;stroke:rgb(100%,49.803922%,5.490196%);stroke-opacity:1;stroke-miterlimit:4;" d="M -0.000648499 2.999115 C 0.796227 2.999115 1.557945 2.682709 2.120445 2.120209 C 2.682945 1.557709 2.999352 0.79599 2.999352 -0.00088501 C 2.999352 -0.79483 2.682945 -1.559479 2.120445 -2.121979 C 1.557945 -2.684479 0.796227 -3.000885 -0.000648499 -3.000885 C -0.794594 -3.000885 -1.559242 -2.684479 -2.121742 -2.121979 C -2.684242 -1.559479 -3.000648 -0.79483 -3.000648 -0.00088501 C -3.000648 0.79599 -2.684242 1.557709 -2.121742 2.120209 C -1.559242 2.682709 -0.794594 2.999115 -0.000648499 2.999115 Z M -0.000648499 2.999115 " transform="matrix(1.333333,0,0,1.333333,108.418833,97.118368)"/>
<path style="fill-rule:nonzero;fill:rgb(100%,49.803922%,5.490196%);fill-opacity:1;stroke-width:1;stroke-linecap:butt;stroke-linejoin:round;stroke:rgb(100%,49.803922%,5.490196%);stroke-opacity:1;stroke-miterlimit:4;" d="M 0.000991821 3.0005 C 0.794937 3.0005 1.559586 2.684093 2.122086 2.121593 C 2.684586 1.559093 3.000992 0.794445 3.000992 0.000499725 C 3.000992 -0.796375 2.684586 -1.558094 2.122086 -2.120594 C 1.559586 -2.683094 0.794937 -2.9995 0.000991821 -2.9995 C -0.795883 -2.9995 -1.557602 -2.683094 -2.120102 -2.120594 C -2.682602 -1.558094 -2.999008 -0.796375 -2.999008 0.000499725 C -2.999008 0.794445 -2.682602 1.559093 -2.120102 2.121593 C -1.557602 2.684093 -0.795883 3.0005 0.000991821 3.0005 Z M 0.000991821 3.0005 " transform="matrix(1.333333,0,0,1.333333,122.19399,49.78449)"/>
<path style="fill-rule:nonzero;fill:rgb(100%,49.803922%,5.490196%);fill-opacity:1;stroke-width:1;stroke-linecap:butt;stroke-linejoin:round;stroke:rgb(100%,49.803922%,5.490196%);stroke-opacity:1;stroke-miterlimit:4;" d="M 0.000038147 2.999084 C 0.796913 2.999084 1.558632 2.682678 2.121132 2.120178 C 2.683632 1.557678 3.000038 0.795959 3.000038 -0.000915527 C 3.000038 -0.794861 2.683632 -1.559509 2.121132 -2.122009 C 1.558632 -2.684509 0.796913 -3.000916 0.000038147 -3.000916 C -0.796837 -3.000916 -1.558556 -2.684509 -2.121056 -2.122009 C -2.683556 -1.559509 -2.999962 -0.794861 -2.999962 -0.000915527 C -2.999962 0.795959 -2.683556 1.557678 -2.121056 2.120178 C -1.558556 2.682678 -0.796837 2.999084 0.000038147 2.999084 Z M 0.000038147 2.999084 " transform="matrix(1.333333,0,0,1.333333,134.867137,78.184814)"/>
<path style="fill-rule:nonzero;fill:rgb(100%,49.803922%,5.490196%);fill-opacity:1;stroke-width:1;stroke-linecap:butt;stroke-linejoin:round;stroke:rgb(100%,49.803922%,5.490196%);stroke-opacity:1;stroke-miterlimit:4;" d="M 0.000679016 2.999935 C 0.794624 2.999935 1.559273 2.683529 2.121773 2.121029 C 2.684273 1.558529 3.000679 0.79681 3.000679 -0.0000648499 C 3.000679 -0.79694 2.684273 -1.558659 2.121773 -2.121159 C 1.559273 -2.683659 0.794624 -3.000065 0.000679016 -3.000065 C -0.796196 -3.000065 -1.557915 -2.683659 -2.120415 -2.121159 C -2.682915 -1.558659 -2.999321 -0.79694 -2.999321 -0.0000648499 C -2.999321 0.79681 -2.682915 1.558529 -2.120415 2.121029 C -1.557915 2.683529 -0.796196 2.999935 0.000679016 2.999935 Z M 0.000679016 2.999935 " transform="matrix(1.333333,0,0,1.333333,146.526438,61.144618)"/>
<path style="fill-rule:nonzero;fill:rgb(100%,49.803922%,5.490196%);fill-opacity:1;stroke-width:1;stroke-linecap:butt;stroke-linejoin:round;stroke:rgb(100%,49.803922%,5.490196%);stroke-opacity:1;stroke-miterlimit:4;" d="M 0.000686646 2.998837 C 0.794632 2.998837 1.55928 2.68536 2.12178 2.11993 C 2.68428 1.55743 3.000687 0.795712 3.000687 -0.00116348 C 3.000687 -0.795109 2.68428 -1.559757 2.12178 -2.122257 C 1.55928 -2.684757 0.794632 -3.001163 0.000686646 -3.001163 C -0.796188 -3.001163 -1.557907 -2.684757 -2.120407 -2.122257 C -2.682907 -1.559757 -2.999313 -0.795109 -2.999313 -0.00116348 C -2.999313 0.795712 -2.682907 1.55743 -2.120407 2.11993 C -1.557907 2.68536 -0.796188 2.998837 0.000686646 2.998837 Z M 0.000686646 2.998837 " transform="matrix(1.333333,0,0,1.333333,157.252991,71.368739)"/>
<path style="fill-rule:nonzero;fill:rgb(100%,49.803922%,5.490196%);fill-opacity:1;stroke-width:1;stroke-linecap:butt;stroke-linejoin:round;stroke:rgb(100%,49.803922%,5.490196%);stroke-opacity:1;stroke-miterlimit:4;" d="M -0.000244141 3.00008 C 0.796631 3.00008 1.55835 2.683674 2.12085 2.121174 C 2.68335 1.558674 2.999756 0.796955 2.999756 0.0000801086 C 2.999756 -0.796795 2.68335 -1.558514 2.12085 -2.121014 C 1.55835 -2.683514 0.796631 -2.99992 -0.000244141 -2.99992 C -0.794189 -2.99992 -1.558838 -2.683514 -2.121338 -2.121014 C -2.683838 -1.558514 -3.000244 -0.796795 -3.000244 0.0000801086 C -3.000244 0.796955 -2.683838 1.558674 -2.121338 2.121174 C -1.558838 2.683674 -0.794189 3.00008 -0.000244141 3.00008 Z M -0.000244141 3.00008 " transform="matrix(1.333333,0,0,1.333333,167.121419,65.234268)"/>
<path style="fill-rule:nonzero;fill:rgb(100%,49.803922%,5.490196%);fill-opacity:1;stroke-width:1;stroke-linecap:butt;stroke-linejoin:round;stroke:rgb(100%,49.803922%,5.490196%);stroke-opacity:1;stroke-miterlimit:4;" d="M -0.000869751 2.999336 C 0.796005 2.999336 1.557724 2.68293 2.120224 2.12043 C 2.682724 1.55793 2.99913 0.796211 2.99913 -0.000663757 C 2.99913 -0.794609 2.682724 -1.559258 2.120224 -2.121758 C 1.557724 -2.684258 0.796005 -3.000664 -0.000869751 -3.000664 C -0.794815 -3.000664 -1.559464 -2.684258 -2.121964 -2.121758 C -2.684464 -1.559258 -3.00087 -0.794609 -3.00087 -0.000663757 C -3.00087 0.796211 -2.684464 1.55793 -2.121964 2.12043 C -1.559464 2.68293 -0.794815 2.999336 -0.000869751 2.999336 Z M -0.000869751 2.999336 " transform="matrix(1.333333,0,0,1.333333,176.200378,68.914948)"/>
<path style="fill-rule:nonzero;fill:rgb(100%,49.803922%,5.490196%);fill-opacity:1;stroke-width:1;stroke-linecap:butt;stroke-linejoin:round;stroke:rgb(100%,49.803922%,5.490196%);stroke-opacity:1;stroke-miterlimit:4;" d="M 0.00126648 3.00037 C 0.795212 3.00037 1.55986 2.683964 2.12236 2.121464 C 2.68486 1.558964 3.001266 0.794315 3.001266 0.000370026 C 3.001266 -0.796505 2.68486 -1.558224 2.12236 -2.120724 C 1.55986 -2.683224 0.795212 -2.99963 0.00126648 -2.99963 C -0.795609 -2.99963 -1.557327 -2.683224 -2.122757 -2.120724 C -2.685257 -1.558224 -2.998734 -0.796505 -2.998734 0.000370026 C -2.998734 0.794315 -2.685257 1.558964 -2.122757 2.121464 C -1.557327 2.683964 -0.795609 3.00037 0.00126648 3.00037 Z M 0.00126648 3.00037 " transform="matrix(1.333333,0,0,1.333333,184.552999,66.706538)"/>
<path style="fill-rule:nonzero;fill:rgb(100%,49.803922%,5.490196%);fill-opacity:1;stroke-width:1;stroke-linecap:butt;stroke-linejoin:round;stroke:rgb(100%,49.803922%,5.490196%);stroke-opacity:1;stroke-miterlimit:4;" d="M 0.000640869 2.999748 C 0.794586 2.999748 1.559235 2.683342 2.121735 2.120842 C 2.684235 1.558342 3.000641 0.796623 3.000641 -0.00025177 C 3.000641 -0.794197 2.684235 -1.558846 2.121735 -2.121346 C 1.559235 -2.683846 0.794586 -3.000252 0.000640869 -3.000252 C -0.796234 -3.000252 -1.557953 -2.683846 -2.120453 -2.121346 C -2.682953 -1.558846 -2.999359 -0.794197 -2.999359 -0.00025177 C -2.999359 0.796623 -2.682953 1.558342 -2.120453 2.120842 C -1.557953 2.683342 -0.796234 2.999748 0.000640869 2.999748 Z M 0.000640869 2.999748 " transform="matrix(1.333333,0,0,1.333333,192.237427,68.031586)"/>
<path style="fill-rule:nonzero;fill:rgb(100%,49.803922%,5.490196%);fill-opacity:1;stroke-width:1;stroke-linecap:butt;stroke-linejoin:round;stroke:rgb(100%,49.803922%,5.490196%);stroke-opacity:1;stroke-miterlimit:4;" d="M 0.00111389 3.001293 C 0.795059 3.001293 1.559708 2.684887 2.122208 2.122387 C 2.684708 1.559887 3.001114 0.795238 3.001114 0.00129318 C 3.001114 -0.795582 2.684708 -1.557301 2.122208 -2.12273 C 1.559708 -2.68523 0.795059 -2.998707 0.00111389 -2.998707 C -0.795761 -2.998707 -1.55748 -2.68523 -2.11998 -2.12273 C -2.68248 -1.557301 -2.998886 -0.795582 -2.998886 0.00129318 C -2.998886 0.795238 -2.68248 1.559887 -2.11998 2.122387 C -1.55748 2.684887 -0.795761 3.001293 0.00111389 3.001293 Z M 0.00111389 3.001293 " transform="matrix(1.333333,0,0,1.333333,199.307109,67.236557)"/>
<path style="fill-rule:nonzero;fill:rgb(100%,49.803922%,5.490196%);fill-opacity:1;stroke-width:1;stroke-linecap:butt;stroke-linejoin:round;stroke:rgb(100%,49.803922%,5.490196%);stroke-opacity:1;stroke-miterlimit:4;" d="M 0.000976562 3.000954 C 0.794922 3.000954 1.55957 2.684547 2.12207 2.122047 C 2.68457 1.559547 3.000977 0.794899 3.000977 0.000953674 C 3.000977 -0.795921 2.68457 -1.55764 2.12207 -2.12014 C 1.55957 -2.68264 0.794922 -2.999046 0.000976562 -2.999046 C -0.795898 -2.999046 -1.557617 -2.68264 -2.120117 -2.12014 C -2.682617 -1.55764 -2.999023 -0.795921 -2.999023 0.000953674 C -2.999023 0.794899 -2.682617 1.559547 -2.120117 2.122047 C -1.557617 2.684547 -0.795898 3.000954 0.000976562 3.000954 Z M 0.000976562 3.000954 " transform="matrix(1.333333,0,0,1.333333,205.811198,67.713572)"/>
<path style="fill-rule:nonzero;fill:rgb(100%,49.803922%,5.490196%);fill-opacity:1;stroke-width:1;stroke-linecap:butt;stroke-linejoin:round;stroke:rgb(100%,49.803922%,5.490196%);stroke-opacity:1;stroke-miterlimit:4;" d="M 0.00141907 2.998814 C 0.795364 2.998814 1.560013 2.685337 2.122513 2.119907 C 2.685013 1.557407 3.001419 0.795689 3.001419 -0.00118637 C 3.001419 -0.795132 2.685013 -1.55978 2.122513 -2.12228 C 1.560013 -2.68478 0.795364 -3.001186 0.00141907 -3.001186 C -0.795456 -3.001186 -1.560104 -2.68478 -2.122604 -2.12228 C -2.685104 -1.55978 -2.998581 -0.795132 -2.998581 -0.00118637 C -2.998581 0.795689 -2.685104 1.557407 -2.122604 2.119907 C -1.560104 2.685337 -0.795456 2.998814 0.00141907 2.998814 Z M 0.00141907 2.998814 " transform="matrix(1.333333,0,0,1.333333,211.794983,67.427363)"/>
<path style="fill-rule:nonzero;fill:rgb(100%,49.803922%,5.490196%);fill-opacity:1;stroke-width:1;stroke-linecap:butt;stroke-linejoin:round;stroke:rgb(100%,49.803922%,5.490196%);stroke-opacity:1;stroke-miterlimit:4;" d="M 0.000549316 2.998924 C 0.794495 2.998924 1.559143 2.682518 2.121643 2.120018 C 2.684143 1.557518 3.000549 0.795799 3.000549 -0.00107574 C 3.000549 -0.795021 2.684143 -1.559669 2.121643 -2.122169 C 1.559143 -2.684669 0.794495 -3.001076 0.000549316 -3.001076 C -0.796326 -3.001076 -1.558044 -2.684669 -2.120544 -2.122169 C -2.683044 -1.559669 -2.999451 -0.795021 -2.999451 -0.00107574 C -2.999451 0.795799 -2.683044 1.557518 -2.120544 2.120018 C -1.558044 2.682518 -0.796326 2.998924 0.000549316 2.998924 Z M 0.000549316 2.998924 " transform="matrix(1.333333,0,0,1.333333,217.300049,67.599091)"/>
<path style="fill-rule:nonzero;fill:rgb(100%,49.803922%,5.490196%);fill-opacity:1;stroke-width:1;stroke-linecap:butt;stroke-linejoin:round;stroke:rgb(100%,49.803922%,5.490196%);stroke-opacity:1;stroke-miterlimit:4;" d="M -0.00106812 3.000027 C 0.795807 3.000027 1.557526 2.68362 2.120026 2.12112 C 2.682526 1.55862 2.998932 0.796902 2.998932 0.0000267029 C 2.998932 -0.796848 2.682526 -1.558567 2.120026 -2.121067 C 1.557526 -2.683567 0.795807 -2.999973 -0.00106812 -2.999973 C -0.795013 -2.999973 -1.559662 -2.683567 -2.122162 -2.121067 C -2.684662 -1.558567 -3.001068 -0.796848 -3.001068 0.0000267029 C -3.001068 0.796902 -2.684662 1.55862 -2.122162 2.12112 C -1.559662 2.68362 -0.795013 3.000027 -0.00106812 3.000027 Z M -0.00106812 3.000027 " transform="matrix(1.333333,0,0,1.333333,222.364705,67.496058)"/>
<path style="fill-rule:nonzero;fill:rgb(100%,49.803922%,5.490196%);fill-opacity:1;stroke-width:1;stroke-linecap:butt;stroke-linejoin:round;stroke:rgb(100%,49.803922%,5.490196%);stroke-opacity:1;stroke-miterlimit:4;" d="M -0.000564575 3.000538 C 0.79631 3.000538 1.558029 2.684132 2.120529 2.121632 C 2.683029 1.559132 2.999435 0.794483 2.999435 0.000537872 C 2.999435 -0.796337 2.683029 -1.558056 2.120529 -2.120556 C 1.558029 -2.683056 0.79631 -2.999462 -0.000564575 -2.999462 C -0.79451 -2.999462 -1.559158 -2.683056 -2.121658 -2.120556 C -2.684158 -1.558056 -3.000565 -0.796337 -3.000565 0.000537872 C -3.000565 0.794483 -2.684158 1.559132 -2.121658 2.121632 C -1.559158 2.684132 -0.79451 3.000538 -0.000564575 3.000538 Z M -0.000564575 3.000538 " transform="matrix(1.333333,0,0,1.333333,227.02419,67.557877)"/>
<path style="fill-rule:nonzero;fill:rgb(100%,49.803922%,5.490196%);fill-opacity:1;stroke-width:1;stroke-linecap:butt;stroke-linejoin:round;stroke:rgb(100%,49.803922%,5.490196%);stroke-opacity:1;stroke-miterlimit:4;" d="M 0.00117493 2.999062 C 0.79512 2.999062 1.559769 2.682655 2.122269 2.120155 C 2.684769 1.557655 3.001175 0.795937 3.001175 -0.000938416 C 3.001175 -0.794884 2.684769 -1.559532 2.122269 -2.122032 C 1.559769 -2.684532 0.79512 -3.000938 0.00117493 -3.000938 C -0.7957 -3.000938 -1.557419 -2.684532 -2.119919 -2.122032 C -2.685349 -1.559532 -2.998825 -0.794884 -2.998825 -0.000938416 C -2.998825 0.795937 -2.685349 1.557655 -2.119919 2.120155 C -1.557419 2.682655 -0.7957 2.999062 0.00117493 2.999062 Z M 0.00117493 2.999062 " transform="matrix(1.333333,0,0,1.333333,231.310933,67.520782)"/>
<path style="fill-rule:nonzero;fill:rgb(100%,49.803922%,5.490196%);fill-opacity:1;stroke-width:1;stroke-linecap:butt;stroke-linejoin:round;stroke:rgb(100%,49.803922%,5.490196%);stroke-opacity:1;stroke-miterlimit:4;" d="M -0.000610352 2.999947 C 0.796265 2.999947 1.557983 2.68354 2.120483 2.12104 C 2.682983 1.55854 2.99939 0.796822 2.99939 -0.0000534058 C 2.99939 -0.796928 2.682983 -1.558647 2.120483 -2.121147 C 1.557983 -2.683647 0.796265 -3.000053 -0.000610352 -3.000053 C -0.794556 -3.000053 -1.559204 -2.683647 -2.121704 -2.121147 C -2.684204 -1.558647 -3.00061 -0.796928 -3.00061 -0.0000534058 C -3.00061 0.796822 -2.684204 1.55854 -2.121704 2.12104 C -1.559204 2.68354 -0.794556 2.999947 -0.000610352 2.999947 Z M -0.000610352 2.999947 " transform="matrix(1.333333,0,0,1.333333,235.25472,67.54304)"/>
<path style="fill-rule:nonzero;fill:rgb(100%,49.803922%,5.490196%);fill-opacity:1;stroke-width:1;stroke-linecap:butt;stroke-linejoin:round;stroke:rgb(100%,49.803922%,5.490196%);stroke-opacity:1;stroke-miterlimit:4;" d="M -0.000152588 3.001171 C 0.796722 3.001171 1.558441 2.684765 2.120941 2.122265 C 2.683441 1.559765 2.999847 0.795116 2.999847 0.00117111 C 2.999847 -0.795704 2.683441 -1.557423 2.120941 -2.119923 C 1.558441 -2.685352 0.796722 -2.998829 -0.000152588 -2.998829 C -0.797028 -2.998829 -1.558746 -2.685352 -2.121246 -2.119923 C -2.683746 -1.557423 -3.000153 -0.795704 -3.000153 0.00117111 C -3.000153 0.795116 -2.683746 1.559765 -2.121246 2.122265 C -1.558746 2.684765 -0.797028 3.001171 -0.000152588 3.001171 Z M -0.000152588 3.001171 " transform="matrix(1.333333,0,0,1.333333,238.883016,67.529689)"/>
<path style="fill-rule:nonzero;fill:rgb(100%,49.803922%,5.490196%);fill-opacity:1;stroke-width:1;stroke-linecap:butt;stroke-linejoin:round;stroke:rgb(100%,49.803922%,5.490196%);stroke-opacity:1;stroke-miterlimit:4;" d="M 0.0012207 3.001022 C 0.795166 3.001022 1.559814 2.684616 2.122314 2.122116 C 2.684814 1.559616 3.001221 0.794968 3.001221 0.00102234 C 3.001221 -0.795853 2.684814 -1.557571 2.122314 -2.120071 C 1.559814 -2.682571 0.795166 -2.998978 0.0012207 -2.998978 C -0.795654 -2.998978 -1.557373 -2.682571 -2.119873 -2.120071 C -2.685303 -1.557571 -2.998779 -0.795853 -2.998779 0.00102234 C -2.998779 0.794968 -2.685303 1.559616 -2.119873 2.122116 C -1.557373 2.684616 -0.795654 3.001022 0.0012207 3.001022 Z M 0.0012207 3.001022 " transform="matrix(1.333333,0,0,1.333333,242.221029,67.537699)"/>
<g clip-path="url(#clip1)" clip-rule="nonzero">
<path style="fill:none;stroke-width:1.5;stroke-linecap:butt;stroke-linejoin:round;stroke:rgb(12.156863%,46.666667%,70.588237%);stroke-opacity:1;stroke-miterlimit:4;" d="M 97.101562 22.916016 L 94.49707 23.496094 L 91.444336 24.193359 L 88.394531 24.911133 L 85.341797 25.643555 L 83.90918 25.998047 L 82.291992 26.449219 L 79.239258 27.322266 L 76.186523 28.21582 L 73.306641 29.080078 L 73.136719 29.138672 L 70.083984 30.216797 L 67.03418 31.318359 L 64.751953 32.162109 L 63.981445 32.496094 L 60.928711 33.855469 L 57.878906 35.244141 L 54.826172 36.972656 L 52.485352 38.323242 L 51.776367 38.853516 L 48.723633 41.165039 L 48.410156 41.405273 L 45.670898 44.364258 L 45.55957 44.487305 L 43.880859 47.569336 L 43.321289 50.651367 L 43.880859 53.733398 L 45.55957 56.81543 L 45.670898 56.938477 L 48.410156 59.894531 L 48.723633 60.137695 L 51.776367 62.449219 L 52.485352 62.976562 L 54.826172 64.330078 L 57.878906 66.058594 L 60.928711 67.447266 L 63.981445 68.803711 L 64.751953 69.140625 L 67.03418 69.981445 L 70.083984 71.085938 L 73.136719 72.164062 L 73.306641 72.222656 L 76.186523 73.083984 L 79.239258 73.977539 L 82.291992 74.853516 L 83.90918 75.304688 L 85.341797 75.65625 L 88.394531 76.391602 L 91.444336 77.106445 L 94.49707 77.806641 L 97.101562 78.386719 L 97.549805 78.474609 L 100.599609 79.066406 L 103.652344 79.643555 L 106.702148 80.203125 L 109.754883 80.745117 L 112.807617 81.272461 L 113.967773 81.46875 L 115.857422 81.75293 L 118.910156 82.201172 L 121.959961 82.634766 L 125.012695 83.050781 L 128.06543 83.455078 L 131.115234 83.844727 L 134.167969 84.219727 L 136.96875 84.547852 L 137.217773 84.577148 L 140.270508 84.890625 L 143.323242 85.192383 L 146.373047 85.479492 L 149.425781 85.754883 L 152.475586 86.015625 L 155.52832 86.264648 L 158.581055 86.499023 L 161.630859 86.71875 L 164.683594 86.926758 L 167.733398 87.120117 L 170.786133 87.301758 L 173.838867 87.46875 L 176.888672 87.624023 L 177.035156 87.629883 L 179.941406 87.75293 L 182.991211 87.870117 L 186.043945 87.975586 L 189.09668 88.069336 L 192.146484 88.148438 L 195.199219 88.21582 L 198.249023 88.271484 L 201.301758 88.31543 L 204.354492 88.344727 L 207.404297 88.365234 L 210.457031 88.371094 L 213.506836 88.365234 L 216.55957 88.344727 L 219.612305 88.31543 L 222.662109 88.271484 L 225.714844 88.21582 L 228.764648 88.148438 L 231.817383 88.069336 L 234.870117 87.975586 L 237.919922 87.870117 " transform="matrix(1.333333,0,0,1.333333,0,0)"/>
</g>
<g clip-path="url(#clip2)" clip-rule="nonzero">
<path style="fill:none;stroke-width:1.5;stroke-linecap:butt;stroke-linejoin:round;stroke:rgb(12.156863%,46.666667%,70.588237%);stroke-opacity:1;stroke-miterlimit:4;" d="M 42.621094 88.21582 L 45.670898 88.886719 L 48.723633 89.548828 L 51.776367 90.193359 L 54.263672 90.711914 L 54.826172 90.820312 L 57.878906 91.397461 L 60.928711 91.962891 L 63.981445 92.516602 L 67.03418 93.058594 L 70.083984 93.588867 L 71.291016 93.793945 L 73.136719 94.086914 L 76.186523 94.558594 L 79.239258 95.021484 L 82.291992 95.472656 L 85.341797 95.915039 L 88.394531 96.342773 L 91.444336 96.764648 L 92.276367 96.875977 L 94.49707 97.154297 L 97.549805 97.526367 L 100.599609 97.889648 L 103.652344 98.241211 L 106.702148 98.583984 L 109.754883 98.917969 L 112.807617 99.240234 L 115.857422 99.553711 L 118.910156 99.858398 L 119.944336 99.958008 L 121.959961 100.139648 L 125.012695 100.40625 L 128.06543 100.661133 L 131.115234 100.910156 L 134.167969 101.147461 L 137.217773 101.375977 L 140.270508 101.595703 L 143.323242 101.806641 L 146.373047 102.005859 L 149.425781 102.199219 L 152.475586 102.380859 L 155.52832 102.553711 L 158.581055 102.717773 L 161.630859 102.870117 L 164.683594 103.016602 L 165.208008 103.040039 L 167.733398 103.145508 L 170.786133 103.262695 L 173.838867 103.374023 L 176.888672 103.473633 L 179.941406 103.567383 L 182.991211 103.649414 L 186.043945 103.725586 L 189.09668 103.792969 L 192.146484 103.848633 L 195.199219 103.898438 L 198.249023 103.936523 L 201.301758 103.96875 L 204.354492 103.989258 L 207.404297 104.003906 L 210.457031 104.006836 L 213.506836 104.003906 L 216.55957 103.989258 L 219.612305 103.96875 L 222.662109 103.936523 L 225.714844 103.898438 L 228.764648 103.848633 L 231.817383 103.792969 L 234.870117 103.725586 L 237.919922 103.649414 " transform="matrix(1.333333,0,0,1.333333,0,0)"/>
</g>
<g clip-path="url(#clip3)" clip-rule="nonzero">
<path style="fill:none;stroke-width:1.5;stroke-linecap:butt;stroke-linejoin:round;stroke:rgb(12.156863%,46.666667%,70.588237%);stroke-opacity:1;stroke-miterlimit:4;" d="M 42.621094 103.898438 L 45.670898 104.375977 L 48.723633 104.847656 L 51.776367 105.310547 L 54.826172 105.764648 L 57.272461 106.119141 L 57.878906 106.204102 L 60.928711 106.617188 L 63.981445 107.018555 L 67.03418 107.414062 L 70.083984 107.803711 L 73.136719 108.181641 L 76.186523 108.553711 L 79.239258 108.914062 L 81.714844 109.201172 L 82.291992 109.265625 L 85.341797 109.59375 L 88.394531 109.913086 L 91.444336 110.226562 L 94.49707 110.52832 L 97.549805 110.827148 L 100.599609 111.114258 L 103.652344 111.395508 L 106.702148 111.667969 L 109.754883 111.931641 L 112.807617 112.189453 L 113.967773 112.283203 L 115.857422 112.429688 L 118.910156 112.658203 L 121.959961 112.880859 L 125.012695 113.094727 L 128.06543 113.302734 L 131.115234 113.501953 L 134.167969 113.692383 L 137.217773 113.876953 L 140.270508 114.052734 L 143.323242 114.222656 L 146.373047 114.383789 L 149.425781 114.539062 L 152.475586 114.685547 L 155.52832 114.823242 L 158.581055 114.955078 L 161.630859 115.081055 L 164.683594 115.195312 L 167.733398 115.303711 L 169.543945 115.365234 L 170.786133 115.40332 L 173.838867 115.494141 L 176.888672 115.576172 L 179.941406 115.652344 L 182.991211 115.719727 L 186.043945 115.78125 L 189.09668 115.833984 L 192.146484 115.880859 L 195.199219 115.921875 L 198.249023 115.954102 L 201.301758 115.977539 L 204.354492 115.995117 L 207.404297 116.006836 L 210.457031 116.009766 L 213.506836 116.006836 L 216.55957 115.995117 L 219.612305 115.977539 L 222.662109 115.954102 L 225.714844 115.921875 L 228.764648 115.880859 L 231.817383 115.833984 L 234.870117 115.78125 L 237.919922 115.719727 " transform="matrix(1.333333,0,0,1.333333,0,0)"/>
</g>
<g clip-path="url(#clip4)" clip-rule="nonzero">
<path style="fill:none;stroke-width:1.5;stroke-linecap:butt;stroke-linejoin:round;stroke:rgb(12.156863%,46.666667%,70.588237%);stroke-opacity:1;stroke-miterlimit:4;" d="M 42.621094 115.921875 L 45.670898 116.311523 L 48.723633 116.695312 L 51.776367 117.070312 L 54.826172 117.439453 L 57.878906 117.802734 L 60.928711 118.157227 L 63.477539 118.447266 L 63.981445 118.50293 L 67.03418 118.828125 L 70.083984 119.144531 L 73.136719 119.458008 L 76.186523 119.762695 L 79.239258 120.058594 L 82.291992 120.351562 L 85.341797 120.635742 L 88.394531 120.911133 L 91.444336 121.183594 L 94.49707 121.447266 L 95.472656 121.529297 L 97.549805 121.696289 L 100.599609 121.936523 L 103.652344 122.167969 L 106.702148 122.393555 L 109.754883 122.613281 L 112.807617 122.827148 L 115.857422 123.032227 L 118.910156 123.234375 L 121.959961 123.427734 L 125.012695 123.612305 L 128.06543 123.793945 L 131.115234 123.966797 L 134.167969 124.133789 L 137.217773 124.294922 L 140.270508 124.450195 L 143.323242 124.59668 L 143.604492 124.611328 L 146.373047 124.731445 L 149.425781 124.860352 L 152.475586 124.983398 L 155.52832 125.100586 L 158.581055 125.211914 L 161.630859 125.314453 L 164.683594 125.411133 L 167.733398 125.501953 L 170.786133 125.586914 L 173.838867 125.666016 L 176.888672 125.739258 L 179.941406 125.803711 L 182.991211 125.865234 L 186.043945 125.917969 L 189.09668 125.964844 L 192.146484 126.005859 L 195.199219 126.041016 L 198.249023 126.070312 L 201.301758 126.09082 L 204.354492 126.108398 L 207.404297 126.117188 L 210.457031 126.120117 L 213.506836 126.117188 L 216.55957 126.108398 L 219.612305 126.09082 L 222.662109 126.070312 L 225.714844 126.041016 L 228.764648 126.005859 L 231.817383 125.964844 L 234.870117 125.917969 L 237.919922 125.865234 " transform="matrix(1.333333,0,0,1.333333,0,0)"/>
</g>
<g clip-path="url(#clip5)" clip-rule="nonzero">
<path style="fill:none;stroke-width:1.5;stroke-linecap:butt;stroke-linejoin:round;stroke:rgb(12.156863%,46.666667%,70.588237%);stroke-opacity:1;stroke-miterlimit:4;" d="M 42.621094 126.041016 L 45.670898 126.383789 L 48.723633 126.720703 L 51.776367 127.051758 L 54.826172 127.374023 L 57.878906 127.69043 L 60.928711 127.992188 L 63.981445 128.285156 L 67.03418 128.572266 L 70.083984 128.850586 L 73.136719 129.125977 L 76.186523 129.395508 L 79.239258 129.65918 L 82.291992 129.914062 L 85.341797 130.166016 L 88.394531 130.412109 L 91.444336 130.649414 L 93.070312 130.772461 L 94.49707 130.87793 L 97.549805 131.094727 L 100.599609 131.308594 L 103.652344 131.513672 L 106.702148 131.71582 L 109.754883 131.90918 L 112.807617 132.099609 L 115.857422 132.28125 L 118.910156 132.459961 L 121.959961 132.629883 L 125.012695 132.796875 L 128.06543 132.958008 L 131.115234 133.110352 L 134.167969 133.259766 L 137.217773 133.400391 L 140.270508 133.538086 L 143.323242 133.669922 L 146.373047 133.792969 L 147.9375 133.854492 L 149.425781 133.910156 L 152.475586 134.021484 L 155.52832 134.124023 L 158.581055 134.220703 L 161.630859 134.314453 L 164.683594 134.402344 L 167.733398 134.481445 L 170.786133 134.557617 L 173.838867 134.62793 L 176.888672 134.692383 L 179.941406 134.750977 L 182.991211 134.803711 L 186.043945 134.853516 L 189.09668 134.894531 L 192.146484 134.929688 L 195.199219 134.961914 L 198.249023 134.988281 L 201.301758 135.005859 L 204.354492 135.020508 L 207.404297 135.029297 L 210.457031 135.032227 L 213.506836 135.029297 L 216.55957 135.020508 L 219.612305 135.005859 L 222.662109 134.988281 L 225.714844 134.961914 L 228.764648 134.929688 L 231.817383 134.894531 L 234.870117 134.853516 L 237.919922 134.803711 " transform="matrix(1.333333,0,0,1.333333,0,0)"/>
</g>
<g clip-path="url(#clip6)" clip-rule="nonzero">
<path style="fill:none;stroke-width:1.5;stroke-linecap:butt;stroke-linejoin:round;stroke:rgb(12.156863%,46.666667%,70.588237%);stroke-opacity:1;stroke-miterlimit:4;" d="M 42.621094 134.961914 L 45.670898 135.266602 L 48.723633 135.56543 L 51.776367 135.861328 L 54.826172 136.148438 L 57.878906 136.432617 L 60.928711 136.710938 L 63.477539 136.936523 L 63.981445 136.980469 L 67.03418 137.235352 L 70.083984 137.487305 L 73.136719 137.733398 L 76.186523 137.973633 L 79.239258 138.210938 L 82.291992 138.439453 L 85.341797 138.665039 L 88.394531 138.881836 L 91.444336 139.095703 L 94.49707 139.303711 L 97.549805 139.508789 L 100.599609 139.705078 L 103.652344 139.895508 L 105.641602 140.018555 L 106.702148 140.080078 L 109.754883 140.255859 L 112.807617 140.425781 L 115.857422 140.589844 L 118.910156 140.750977 L 121.959961 140.90332 L 125.012695 141.052734 L 128.06543 141.196289 L 131.115234 141.333984 L 134.167969 141.46875 L 137.217773 141.594727 L 140.270508 141.717773 L 143.323242 141.834961 L 146.373047 141.949219 L 149.425781 142.054688 L 152.475586 142.157227 L 155.52832 142.253906 L 158.581055 142.344727 L 161.630859 142.432617 L 164.683594 142.511719 L 167.733398 142.587891 L 170.786133 142.658203 L 173.838867 142.722656 L 176.888672 142.78418 L 179.941406 142.839844 L 182.991211 142.889648 L 186.043945 142.933594 L 189.09668 142.97168 L 192.146484 143.006836 L 195.199219 143.036133 L 198.249023 143.05957 L 201.301758 143.077148 L 204.354492 143.088867 L 207.404297 143.097656 L 210.457031 143.100586 " transform="matrix(1.333333,0,0,1.333333,0,0)"/>
</g>
<g clip-path="url(#clip7)" clip-rule="nonzero">
<path style="fill:none;stroke-width:1.5;stroke-linecap:butt;stroke-linejoin:round;stroke:rgb(12.156863%,46.666667%,70.588237%);stroke-opacity:1;stroke-miterlimit:4;" d="M 210.457031 143.100586 L 213.506836 143.097656 L 216.55957 143.088867 L 219.612305 143.077148 L 222.662109 143.05957 L 225.714844 143.036133 L 228.764648 143.006836 L 231.817383 142.97168 L 234.870117 142.933594 L 237.919922 142.889648 " transform="matrix(1.333333,0,0,1.333333,0,0)"/>
</g>
<g clip-path="url(#clip8)" clip-rule="nonzero">
<path style="fill:none;stroke-width:1.5;stroke-linecap:butt;stroke-linejoin:round;stroke:rgb(12.156863%,46.666667%,70.588237%);stroke-opacity:1;stroke-miterlimit:4;" d="M 42.621094 143.036133 L 43.321289 143.100586 " transform="matrix(1.333333,0,0,1.333333,0,0)"/>
</g>
<path style="fill:none;stroke-width:0.8;stroke-linecap:square;stroke-linejoin:miter;stroke:rgb(0%,0%,0%);stroke-opacity:1;stroke-miterlimit:4;" d="M 42.621094 143.100586 L 42.621094 7.201172 " transform="matrix(1.333333,0,0,1.333333,0,0)"/>
<path style="fill:none;stroke-width:0.8;stroke-linecap:square;stroke-linejoin:miter;stroke:rgb(0%,0%,0%);stroke-opacity:1;stroke-miterlimit:4;" d="M 237.919922 143.100586 L 237.919922 7.201172 " transform="matrix(1.333333,0,0,1.333333,0,0)"/>
<path style="fill:none;stroke-width:0.8;stroke-linecap:square;stroke-linejoin:miter;stroke:rgb(0%,0%,0%);stroke-opacity:1;stroke-miterlimit:4;" d="M 42.621094 143.100586 L 237.919922 143.100586 " transform="matrix(1.333333,0,0,1.333333,0,0)"/>
<path style="fill:none;stroke-width:0.8;stroke-linecap:square;stroke-linejoin:miter;stroke:rgb(0%,0%,0%);stroke-opacity:1;stroke-miterlimit:4;" d="M 42.621094 7.201172 L 237.919922 7.201172 " transform="matrix(1.333333,0,0,1.333333,0,0)"/>
</g>
</svg>
