<?xml version="1.0" encoding="UTF-8"?>
<svg xmlns="http://www.w3.org/2000/svg" xmlns:xlink="http://www.w3.org/1999/xlink" width="427.25415" height="244.474996" viewBox="0 0 427.25415 244.474996" version="1.1">
<defs>
<clipPath id="clip1">
  <path d="M 61 9.601562 L 64 9.601562 L 64 194.398438 L 61 194.398438 Z M 61 9.601562 "/>
</clipPath>
<clipPath id="clip2">
  <path d="M 104 9.601562 L 106 9.601562 L 106 194.398438 L 104 194.398438 Z M 104 9.601562 "/>
</clipPath>
<clipPath id="clip3">
  <path d="M 146 9.601562 L 149 9.601562 L 149 194.398438 L 146 194.398438 Z M 146 9.601562 "/>
</clipPath>
<clipPath id="clip4">
  <path d="M 189 9.601562 L 191 9.601562 L 191 194.398438 L 189 194.398438 Z M 189 9.601562 "/>
</clipPath>
<clipPath id="clip5">
  <path d="M 231 9.601562 L 234 9.601562 L 234 194.398438 L 231 194.398438 Z M 231 9.601562 "/>
</clipPath>
<clipPath id="clip6">
  <path d="M 274 9.601562 L 277 9.601562 L 277 194.398438 L 274 194.398438 Z M 274 9.601562 "/>
</clipPath>
<clipPath id="clip7">
  <path d="M 317 9.601562 L 319 9.601562 L 319 194.398438 L 317 194.398438 Z M 317 9.601562 "/>
</clipPath>
<clipPath id="clip8">
  <path d="M 359 9.601562 L 362 9.601562 L 362 194.398438 L 359 194.398438 Z M 359 9.601562 "/>
</clipPath>
<clipPath id="clip9">
  <path d="M 402 9.601562 L 404 9.601562 L 404 194.398438 L 402 194.398438 Z M 402 9.601562 "/>
</clipPath>
<clipPath id="clip10">
  <path d="M 45.652344 185 L 417.652344 185 L 417.652344 187 L 45.652344 187 Z M 45.652344 185 "/>
</clipPath>
<clipPath id="clip11">
  <path d="M 45.652344 142 L 417.652344 142 L 417.652344 145 L 45.652344 145 Z M 45.652344 142 "/>
</clipPath>
<clipPath id="clip12">
  <path d="M 45.652344 100 L 417.652344 100 L 417.652344 102 L 45.652344 102 Z M 45.652344 100 "/>
</clipPath>
<clipPath id="clip13">
  <path d="M 45.652344 57 L 417.652344 57 L 417.652344 60 L 45.652344 60 Z M 45.652344 57 "/>
</clipPath>
<clipPath id="clip14">
  <path d="M 45.652344 15 L 417.652344 15 L 417.652344 17 L 45.652344 17 Z M 45.652344 15 "/>
</clipPath>
</defs>
<g id="surface1">
<path style=" stroke:none;fill-rule:nonzero;fill:rgb(100%,100%,100%);fill-opacity:1;" d="M 0 244.476562 L 427.253906 244.476562 L 427.253906 0 L 0 0 Z M 0 244.476562 "/>
<path style=" stroke:none;fill-rule:nonzero;fill:rgb(100%,100%,100%);fill-opacity:1;" d="M 45.652344 194.398438 L 417.652344 194.398438 L 417.652344 9.601562 L 45.652344 9.601562 Z M 45.652344 194.398438 "/>
<g clip-path="url(#clip1)" clip-rule="nonzero">
<path style="fill:none;stroke-width:0.8;stroke-linecap:square;stroke-linejoin:round;stroke:rgb(69.01961%,69.01961%,69.01961%);stroke-opacity:1;stroke-miterlimit:4;" d="M 46.921875 145.798828 L 46.921875 7.201172 " transform="matrix(1.333333,0,0,1.333333,0,0.000000000000014211)"/>
</g>
<path style="fill:none;stroke-width:0.8;stroke-linecap:butt;stroke-linejoin:round;stroke:rgb(0%,0%,0%);stroke-opacity:1;stroke-miterlimit:4;" d="M -0.00056839 -0.00117493 L -0.00056839 3.499802 " transform="matrix(1.333333,0,0,1.333333,62.563258,194.400004)"/>
<path style=" stroke:none;fill-rule:nonzero;fill:rgb(0%,0%,0%);fill-opacity:1;" d="M 54.148438 209.132812 L 62.492188 209.132812 L 62.492188 210.238281 L 54.148438 210.238281 Z M 54.148438 209.132812 "/>
<path style=" stroke:none;fill-rule:nonzero;fill:rgb(0%,0%,0%);fill-opacity:1;" d="M 68.144531 209.246094 C 67.519531 209.246094 67.027344 209.414062 66.667969 209.75 C 66.3125 210.085938 66.132812 210.542969 66.132812 211.128906 C 66.132812 211.714844 66.3125 212.175781 66.667969 212.511719 C 67.027344 212.84375 67.519531 213.011719 68.144531 213.011719 C 68.769531 213.011719 69.261719 212.84375 69.621094 212.507812 C 69.984375 212.171875 70.164062 211.710938 70.164062 211.128906 C 70.164062 210.542969 69.984375 210.085938 69.625 209.75 C 69.269531 209.414062 68.773438 209.246094 68.144531 209.246094 Z M 66.828125 208.691406 C 66.265625 208.550781 65.828125 208.289062 65.511719 207.902344 C 65.199219 207.515625 65.039062 207.042969 65.039062 206.488281 C 65.039062 205.710938 65.316406 205.097656 65.871094 204.644531 C 66.421875 204.195312 67.183594 203.96875 68.144531 203.96875 C 69.113281 203.96875 69.871094 204.195312 70.421875 204.644531 C 70.976562 205.097656 71.25 205.710938 71.25 206.488281 C 71.25 207.042969 71.09375 207.515625 70.777344 207.902344 C 70.464844 208.289062 70.027344 208.550781 69.46875 208.691406 C 70.101562 208.835938 70.59375 209.125 70.945312 209.554688 C 71.300781 209.984375 71.476562 210.507812 71.476562 211.128906 C 71.476562 212.070312 71.191406 212.796875 70.617188 213.300781 C 70.039062 213.804688 69.214844 214.054688 68.144531 214.054688 C 67.074219 214.054688 66.25 213.804688 65.671875 213.300781 C 65.097656 212.796875 64.8125 212.070312 64.8125 211.128906 C 64.8125 210.507812 64.988281 209.984375 65.34375 209.554688 C 65.703125 209.125 66.195312 208.835938 66.828125 208.691406 Z M 66.347656 206.613281 C 66.347656 207.117188 66.503906 207.507812 66.820312 207.789062 C 67.136719 208.070312 67.578125 208.210938 68.144531 208.210938 C 68.710938 208.210938 69.152344 208.070312 69.46875 207.789062 C 69.789062 207.507812 69.949219 207.117188 69.949219 206.613281 C 69.949219 206.109375 69.789062 205.714844 69.46875 205.433594 C 69.152344 205.152344 68.710938 205.011719 68.144531 205.011719 C 67.578125 205.011719 67.136719 205.152344 66.820312 205.433594 C 66.503906 205.714844 66.347656 206.109375 66.347656 206.613281 Z M 66.347656 206.613281 "/>
<g clip-path="url(#clip2)" clip-rule="nonzero">
<path style="fill:none;stroke-width:0.8;stroke-linecap:square;stroke-linejoin:round;stroke:rgb(69.01961%,69.01961%,69.01961%);stroke-opacity:1;stroke-miterlimit:4;" d="M 78.826172 145.798828 L 78.826172 7.201172 " transform="matrix(1.333333,0,0,1.333333,0,0.000000000000014211)"/>
</g>
<path style="fill:none;stroke-width:0.8;stroke-linecap:butt;stroke-linejoin:round;stroke:rgb(0%,0%,0%);stroke-opacity:1;stroke-miterlimit:4;" d="M -0.000213623 -0.00117493 L -0.000213623 3.499802 " transform="matrix(1.333333,0,0,1.333333,105.101847,194.400004)"/>
<path style=" stroke:none;fill-rule:nonzero;fill:rgb(0%,0%,0%);fill-opacity:1;" d="M 96.6875 209.132812 L 105.03125 209.132812 L 105.03125 210.238281 L 96.6875 210.238281 Z M 96.6875 209.132812 "/>
<path style=" stroke:none;fill-rule:nonzero;fill:rgb(0%,0%,0%);fill-opacity:1;" d="M 110.847656 208.480469 C 110.257812 208.480469 109.789062 208.683594 109.445312 209.085938 C 109.097656 209.492188 108.925781 210.042969 108.925781 210.746094 C 108.925781 211.445312 109.097656 211.996094 109.445312 212.402344 C 109.789062 212.808594 110.257812 213.011719 110.847656 213.011719 C 111.4375 213.011719 111.90625 212.808594 112.25 212.402344 C 112.59375 211.996094 112.765625 211.445312 112.765625 210.746094 C 112.765625 210.042969 112.59375 209.492188 112.25 209.085938 C 111.90625 208.683594 111.4375 208.480469 110.847656 208.480469 Z M 113.457031 204.359375 L 113.457031 205.554688 C 113.128906 205.402344 112.792969 205.28125 112.457031 205.199219 C 112.121094 205.117188 111.789062 205.074219 111.457031 205.074219 C 110.589844 205.074219 109.925781 205.367188 109.46875 205.953125 C 109.011719 206.539062 108.75 207.425781 108.683594 208.609375 C 108.941406 208.234375 109.261719 207.941406 109.648438 207.742188 C 110.035156 207.539062 110.460938 207.441406 110.925781 207.441406 C 111.902344 207.441406 112.671875 207.734375 113.238281 208.328125 C 113.804688 208.921875 114.089844 209.726562 114.089844 210.746094 C 114.089844 211.746094 113.792969 212.546875 113.203125 213.148438 C 112.613281 213.753906 111.828125 214.054688 110.847656 214.054688 C 109.722656 214.054688 108.863281 213.625 108.269531 212.761719 C 107.675781 211.898438 107.375 210.652344 107.375 209.015625 C 107.375 207.476562 107.742188 206.253906 108.46875 205.339844 C 109.199219 204.425781 110.179688 203.96875 111.40625 203.96875 C 111.738281 203.96875 112.070312 204 112.40625 204.066406 C 112.742188 204.132812 113.09375 204.230469 113.457031 204.359375 Z M 113.457031 204.359375 "/>
<g clip-path="url(#clip3)" clip-rule="nonzero">
<path style="fill:none;stroke-width:0.8;stroke-linecap:square;stroke-linejoin:round;stroke:rgb(69.01961%,69.01961%,69.01961%);stroke-opacity:1;stroke-miterlimit:4;" d="M 110.730469 145.798828 L 110.730469 7.201172 " transform="matrix(1.333333,0,0,1.333333,0,0.000000000000014211)"/>
</g>
<path style="fill:none;stroke-width:0.8;stroke-linecap:butt;stroke-linejoin:round;stroke:rgb(0%,0%,0%);stroke-opacity:1;stroke-miterlimit:4;" d="M 0.000137329 -0.00117493 L 0.000137329 3.499802 " transform="matrix(1.333333,0,0,1.333333,147.640442,194.400004)"/>
<path style=" stroke:none;fill-rule:nonzero;fill:rgb(0%,0%,0%);fill-opacity:1;" d="M 139.226562 209.132812 L 147.570312 209.132812 L 147.570312 210.238281 L 139.226562 210.238281 Z M 139.226562 209.132812 "/>
<path style=" stroke:none;fill-rule:nonzero;fill:rgb(0%,0%,0%);fill-opacity:1;" d="M 154.023438 205.289062 L 150.703125 210.480469 L 154.023438 210.480469 Z M 153.679688 204.144531 L 155.332031 204.144531 L 155.332031 210.480469 L 156.71875 210.480469 L 156.71875 211.574219 L 155.332031 211.574219 L 155.332031 213.863281 L 154.023438 213.863281 L 154.023438 211.574219 L 149.636719 211.574219 L 149.636719 210.304688 Z M 153.679688 204.144531 "/>
<g clip-path="url(#clip4)" clip-rule="nonzero">
<path style="fill:none;stroke-width:0.8;stroke-linecap:square;stroke-linejoin:round;stroke:rgb(69.01961%,69.01961%,69.01961%);stroke-opacity:1;stroke-miterlimit:4;" d="M 142.634766 145.798828 L 142.634766 7.201172 " transform="matrix(1.333333,0,0,1.333333,0,0.000000000000014211)"/>
</g>
<path style="fill:none;stroke-width:0.8;stroke-linecap:butt;stroke-linejoin:round;stroke:rgb(0%,0%,0%);stroke-opacity:1;stroke-miterlimit:4;" d="M 0.000488281 -0.00117493 L 0.000488281 3.499802 " transform="matrix(1.333333,0,0,1.333333,190.179036,194.400004)"/>
<path style=" stroke:none;fill-rule:nonzero;fill:rgb(0%,0%,0%);fill-opacity:1;" d="M 181.761719 209.132812 L 190.109375 209.132812 L 190.109375 210.238281 L 181.761719 210.238281 Z M 181.761719 209.132812 "/>
<path style=" stroke:none;fill-rule:nonzero;fill:rgb(0%,0%,0%);fill-opacity:1;" d="M 194.082031 212.757812 L 198.671875 212.757812 L 198.671875 213.863281 L 192.5 213.863281 L 192.5 212.757812 C 193 212.242188 193.679688 211.546875 194.539062 210.679688 C 195.402344 209.808594 195.945312 209.246094 196.164062 208.992188 C 196.585938 208.523438 196.878906 208.121094 197.046875 207.792969 C 197.214844 207.464844 197.296875 207.144531 197.296875 206.828125 C 197.296875 206.308594 197.117188 205.890625 196.753906 205.566406 C 196.390625 205.238281 195.917969 205.074219 195.335938 205.074219 C 194.925781 205.074219 194.488281 205.148438 194.03125 205.289062 C 193.574219 205.433594 193.085938 205.648438 192.566406 205.941406 L 192.566406 204.613281 C 193.09375 204.398438 193.589844 204.238281 194.046875 204.132812 C 194.507812 204.023438 194.929688 203.96875 195.3125 203.96875 C 196.320312 203.96875 197.121094 204.222656 197.722656 204.726562 C 198.320312 205.226562 198.617188 205.898438 198.617188 206.742188 C 198.617188 207.140625 198.542969 207.519531 198.394531 207.878906 C 198.246094 208.234375 197.972656 208.65625 197.578125 209.144531 C 197.46875 209.269531 197.125 209.632812 196.542969 210.234375 C 195.960938 210.835938 195.140625 211.679688 194.082031 212.757812 Z M 194.082031 212.757812 "/>
<g clip-path="url(#clip5)" clip-rule="nonzero">
<path style="fill:none;stroke-width:0.8;stroke-linecap:square;stroke-linejoin:round;stroke:rgb(69.01961%,69.01961%,69.01961%);stroke-opacity:1;stroke-miterlimit:4;" d="M 174.539062 145.798828 L 174.539062 7.201172 " transform="matrix(1.333333,0,0,1.333333,0,0.000000000000014211)"/>
</g>
<path style="fill:none;stroke-width:0.8;stroke-linecap:butt;stroke-linejoin:round;stroke:rgb(0%,0%,0%);stroke-opacity:1;stroke-miterlimit:4;" d="M 0.000839233 -0.00117493 L 0.000839233 3.499802 " transform="matrix(1.333333,0,0,1.333333,232.717631,194.400004)"/>
<path style=" stroke:none;fill-rule:nonzero;fill:rgb(0%,0%,0%);fill-opacity:1;" d="M 232.714844 205.011719 C 232.035156 205.011719 231.527344 205.34375 231.1875 206.011719 C 230.847656 206.675781 230.675781 207.675781 230.675781 209.015625 C 230.675781 210.347656 230.847656 211.347656 231.1875 212.011719 C 231.527344 212.679688 232.035156 213.011719 232.714844 213.011719 C 233.394531 213.011719 233.90625 212.679688 234.246094 212.011719 C 234.589844 211.347656 234.757812 210.347656 234.757812 209.015625 C 234.757812 207.675781 234.589844 206.675781 234.246094 206.011719 C 233.90625 205.34375 233.394531 205.011719 232.714844 205.011719 Z M 232.714844 203.96875 C 233.804688 203.96875 234.636719 204.398438 235.210938 205.261719 C 235.785156 206.125 236.074219 207.375 236.074219 209.015625 C 236.074219 210.652344 235.785156 211.898438 235.210938 212.761719 C 234.636719 213.625 233.804688 214.054688 232.714844 214.054688 C 231.625 214.054688 230.792969 213.625 230.21875 212.761719 C 229.644531 211.898438 229.355469 210.652344 229.355469 209.015625 C 229.355469 207.375 229.644531 206.125 230.21875 205.261719 C 230.792969 204.398438 231.625 203.96875 232.714844 203.96875 Z M 232.714844 203.96875 "/>
<g clip-path="url(#clip6)" clip-rule="nonzero">
<path style="fill:none;stroke-width:0.8;stroke-linecap:square;stroke-linejoin:round;stroke:rgb(69.01961%,69.01961%,69.01961%);stroke-opacity:1;stroke-miterlimit:4;" d="M 206.443359 145.798828 L 206.443359 7.201172 " transform="matrix(1.333333,0,0,1.333333,0,0.000000000000014211)"/>
</g>
<path style="fill:none;stroke-width:0.8;stroke-linecap:butt;stroke-linejoin:round;stroke:rgb(0%,0%,0%);stroke-opacity:1;stroke-miterlimit:4;" d="M 0.00119019 -0.00117493 L 0.00119019 3.499802 " transform="matrix(1.333333,0,0,1.333333,275.256226,194.400004)"/>
<path style=" stroke:none;fill-rule:nonzero;fill:rgb(0%,0%,0%);fill-opacity:1;" d="M 273.574219 212.757812 L 278.164062 212.757812 L 278.164062 213.863281 L 271.992188 213.863281 L 271.992188 212.757812 C 272.492188 212.242188 273.171875 211.546875 274.03125 210.679688 C 274.894531 209.808594 275.433594 209.246094 275.65625 208.992188 C 276.078125 208.523438 276.371094 208.121094 276.539062 207.792969 C 276.707031 207.464844 276.789062 207.144531 276.789062 206.828125 C 276.789062 206.308594 276.609375 205.890625 276.246094 205.566406 C 275.882812 205.238281 275.410156 205.074219 274.828125 205.074219 C 274.417969 205.074219 273.980469 205.148438 273.523438 205.289062 C 273.066406 205.433594 272.578125 205.648438 272.054688 205.941406 L 272.054688 204.613281 C 272.585938 204.398438 273.078125 204.238281 273.539062 204.132812 C 274 204.023438 274.421875 203.96875 274.804688 203.96875 C 275.8125 203.96875 276.613281 204.222656 277.210938 204.726562 C 277.8125 205.226562 278.109375 205.898438 278.109375 206.742188 C 278.109375 207.140625 278.035156 207.519531 277.886719 207.878906 C 277.738281 208.234375 277.464844 208.65625 277.070312 209.144531 C 276.960938 209.269531 276.617188 209.632812 276.035156 210.234375 C 275.453125 210.835938 274.632812 211.679688 273.574219 212.757812 Z M 273.574219 212.757812 "/>
<g clip-path="url(#clip7)" clip-rule="nonzero">
<path style="fill:none;stroke-width:0.8;stroke-linecap:square;stroke-linejoin:round;stroke:rgb(69.01961%,69.01961%,69.01961%);stroke-opacity:1;stroke-miterlimit:4;" d="M 238.344727 145.798828 L 238.344727 7.201172 " transform="matrix(1.333333,0,0,1.333333,0,0.000000000000014211)"/>
</g>
<path style="fill:none;stroke-width:0.8;stroke-linecap:butt;stroke-linejoin:round;stroke:rgb(0%,0%,0%);stroke-opacity:1;stroke-miterlimit:4;" d="M -0.00137329 -0.00117493 L -0.00137329 3.499802 " transform="matrix(1.333333,0,0,1.333333,317.7948,194.400004)"/>
<path style=" stroke:none;fill-rule:nonzero;fill:rgb(0%,0%,0%);fill-opacity:1;" d="M 318.59375 205.289062 L 315.273438 210.480469 L 318.59375 210.480469 Z M 318.246094 204.144531 L 319.902344 204.144531 L 319.902344 210.480469 L 321.289062 210.480469 L 321.289062 211.574219 L 319.902344 211.574219 L 319.902344 213.863281 L 318.59375 213.863281 L 318.59375 211.574219 L 314.207031 211.574219 L 314.207031 210.304688 Z M 318.246094 204.144531 "/>
<g clip-path="url(#clip8)" clip-rule="nonzero">
<path style="fill:none;stroke-width:0.8;stroke-linecap:square;stroke-linejoin:round;stroke:rgb(69.01961%,69.01961%,69.01961%);stroke-opacity:1;stroke-miterlimit:4;" d="M 270.249023 145.798828 L 270.249023 7.201172 " transform="matrix(1.333333,0,0,1.333333,0,0.000000000000014211)"/>
</g>
<path style="fill:none;stroke-width:0.8;stroke-linecap:butt;stroke-linejoin:round;stroke:rgb(0%,0%,0%);stroke-opacity:1;stroke-miterlimit:4;" d="M -0.0010376 -0.00117493 L -0.0010376 3.499802 " transform="matrix(1.333333,0,0,1.333333,360.333415,194.400004)"/>
<path style=" stroke:none;fill-rule:nonzero;fill:rgb(0%,0%,0%);fill-opacity:1;" d="M 360.492188 208.480469 C 359.902344 208.480469 359.433594 208.683594 359.089844 209.085938 C 358.746094 209.492188 358.574219 210.042969 358.574219 210.746094 C 358.574219 211.445312 358.746094 211.996094 359.089844 212.402344 C 359.433594 212.808594 359.902344 213.011719 360.492188 213.011719 C 361.085938 213.011719 361.550781 212.808594 361.894531 212.402344 C 362.242188 211.996094 362.414062 211.445312 362.414062 210.746094 C 362.414062 210.042969 362.242188 209.492188 361.894531 209.085938 C 361.550781 208.683594 361.085938 208.480469 360.492188 208.480469 Z M 363.105469 204.359375 L 363.105469 205.554688 C 362.773438 205.402344 362.441406 205.28125 362.105469 205.199219 C 361.769531 205.117188 361.433594 205.074219 361.105469 205.074219 C 360.234375 205.074219 359.574219 205.367188 359.113281 205.953125 C 358.65625 206.539062 358.398438 207.425781 358.332031 208.609375 C 358.585938 208.234375 358.90625 207.941406 359.292969 207.742188 C 359.679688 207.539062 360.105469 207.441406 360.570312 207.441406 C 361.546875 207.441406 362.320312 207.734375 362.886719 208.328125 C 363.453125 208.921875 363.734375 209.726562 363.734375 210.746094 C 363.734375 211.746094 363.441406 212.546875 362.851562 213.148438 C 362.261719 213.753906 361.472656 214.054688 360.492188 214.054688 C 359.367188 214.054688 358.507812 213.625 357.914062 212.761719 C 357.320312 211.898438 357.023438 210.652344 357.023438 209.015625 C 357.023438 207.476562 357.386719 206.253906 358.117188 205.339844 C 358.847656 204.425781 359.824219 203.96875 361.050781 203.96875 C 361.382812 203.96875 361.714844 204 362.050781 204.066406 C 362.386719 204.132812 362.738281 204.230469 363.105469 204.359375 Z M 363.105469 204.359375 "/>
<g clip-path="url(#clip9)" clip-rule="nonzero">
<path style="fill:none;stroke-width:0.8;stroke-linecap:square;stroke-linejoin:round;stroke:rgb(69.01961%,69.01961%,69.01961%);stroke-opacity:1;stroke-miterlimit:4;" d="M 302.15332 145.798828 L 302.15332 7.201172 " transform="matrix(1.333333,0,0,1.333333,0,0.000000000000014211)"/>
</g>
<path style="fill:none;stroke-width:0.8;stroke-linecap:butt;stroke-linejoin:round;stroke:rgb(0%,0%,0%);stroke-opacity:1;stroke-miterlimit:4;" d="M -0.000671387 -0.00117493 L -0.000671387 3.499802 " transform="matrix(1.333333,0,0,1.333333,402.871989,194.400004)"/>
<path style=" stroke:none;fill-rule:nonzero;fill:rgb(0%,0%,0%);fill-opacity:1;" d="M 402.867188 209.246094 C 402.242188 209.246094 401.75 209.414062 401.394531 209.75 C 401.035156 210.085938 400.855469 210.542969 400.855469 211.128906 C 400.855469 211.714844 401.035156 212.175781 401.394531 212.511719 C 401.75 212.84375 402.242188 213.011719 402.867188 213.011719 C 403.492188 213.011719 403.984375 212.84375 404.34375 212.507812 C 404.707031 212.171875 404.886719 211.710938 404.886719 211.128906 C 404.886719 210.542969 404.707031 210.085938 404.347656 209.75 C 403.992188 209.414062 403.5 209.246094 402.867188 209.246094 Z M 401.554688 208.691406 C 400.988281 208.550781 400.550781 208.289062 400.234375 207.902344 C 399.921875 207.515625 399.761719 207.042969 399.761719 206.488281 C 399.761719 205.710938 400.039062 205.097656 400.59375 204.644531 C 401.148438 204.195312 401.90625 203.96875 402.867188 203.96875 C 403.835938 203.96875 404.59375 204.195312 405.148438 204.644531 C 405.699219 205.097656 405.972656 205.710938 405.972656 206.488281 C 405.972656 207.042969 405.816406 207.515625 405.5 207.902344 C 405.1875 208.289062 404.75 208.550781 404.191406 208.691406 C 404.824219 208.835938 405.316406 209.125 405.667969 209.554688 C 406.023438 209.984375 406.199219 210.507812 406.199219 211.128906 C 406.199219 212.070312 405.914062 212.796875 405.339844 213.300781 C 404.761719 213.804688 403.941406 214.054688 402.867188 214.054688 C 401.796875 214.054688 400.972656 213.804688 400.398438 213.300781 C 399.820312 212.796875 399.535156 212.070312 399.535156 211.128906 C 399.535156 210.507812 399.710938 209.984375 400.066406 209.554688 C 400.425781 209.125 400.917969 208.835938 401.554688 208.691406 Z M 401.070312 206.613281 C 401.070312 207.117188 401.230469 207.507812 401.542969 207.789062 C 401.859375 208.070312 402.300781 208.210938 402.867188 208.210938 C 403.433594 208.210938 403.875 208.070312 404.191406 207.789062 C 404.511719 207.507812 404.671875 207.117188 404.671875 206.613281 C 404.671875 206.109375 404.511719 205.714844 404.191406 205.433594 C 403.875 205.152344 403.433594 205.011719 402.867188 205.011719 C 402.300781 205.011719 401.859375 205.152344 401.542969 205.433594 C 401.230469 205.714844 401.070312 206.109375 401.070312 206.613281 Z M 401.070312 206.613281 "/>
<path style=" stroke:none;fill-rule:nonzero;fill:rgb(0%,0%,0%);fill-opacity:1;" d="M 235.027344 224.808594 L 232.390625 228.359375 L 235.164062 232.101562 L 233.75 232.101562 L 231.628906 229.238281 L 229.507812 232.101562 L 228.089844 232.101562 L 230.925781 228.289062 L 228.332031 224.808594 L 229.746094 224.808594 L 231.679688 227.410156 L 233.613281 224.808594 Z M 235.027344 224.808594 "/>
<g clip-path="url(#clip10)" clip-rule="nonzero">
<path style="fill:none;stroke-width:0.8;stroke-linecap:square;stroke-linejoin:round;stroke:rgb(69.01961%,69.01961%,69.01961%);stroke-opacity:1;stroke-miterlimit:4;" d="M 34.239258 139.5 L 313.239258 139.5 " transform="matrix(1.333333,0,0,1.333333,0,0.000000000000014211)"/>
</g>
<path style="fill:none;stroke-width:0.8;stroke-linecap:butt;stroke-linejoin:round;stroke:rgb(0%,0%,0%);stroke-opacity:1;stroke-miterlimit:4;" d="M -0.00136566 0 L -3.499413 0 " transform="matrix(1.333333,0,0,1.333333,45.654165,186)"/>
<path style=" stroke:none;fill-rule:nonzero;fill:rgb(0%,0%,0%);fill-opacity:1;" d="M 32.074219 182.210938 C 31.398438 182.210938 30.890625 182.542969 30.546875 183.210938 C 30.207031 183.875 30.039062 184.878906 30.039062 186.214844 C 30.039062 187.546875 30.207031 188.546875 30.546875 189.214844 C 30.890625 189.878906 31.398438 190.214844 32.074219 190.214844 C 32.757812 190.214844 33.269531 189.878906 33.609375 189.214844 C 33.949219 188.546875 34.121094 187.546875 34.121094 186.214844 C 34.121094 184.878906 33.949219 183.875 33.609375 183.210938 C 33.269531 182.542969 32.757812 182.210938 32.074219 182.210938 Z M 32.074219 181.167969 C 33.164062 181.167969 33.996094 181.601562 34.574219 182.464844 C 35.148438 183.324219 35.433594 184.574219 35.433594 186.214844 C 35.433594 187.851562 35.148438 189.101562 34.574219 189.964844 C 33.996094 190.824219 33.164062 191.253906 32.074219 191.253906 C 30.984375 191.253906 30.152344 190.824219 29.578125 189.964844 C 29.003906 189.101562 28.714844 187.851562 28.714844 186.214844 C 28.714844 184.574219 29.003906 183.324219 29.578125 182.464844 C 30.152344 181.601562 30.984375 181.167969 32.074219 181.167969 Z M 32.074219 181.167969 "/>
<g clip-path="url(#clip11)" clip-rule="nonzero">
<path style="fill:none;stroke-width:0.8;stroke-linecap:square;stroke-linejoin:round;stroke:rgb(69.01961%,69.01961%,69.01961%);stroke-opacity:1;stroke-miterlimit:4;" d="M 34.239258 107.601562 L 313.239258 107.601562 " transform="matrix(1.333333,0,0,1.333333,0,0.000000000000014211)"/>
</g>
<path style="fill:none;stroke-width:0.8;stroke-linecap:butt;stroke-linejoin:round;stroke:rgb(0%,0%,0%);stroke-opacity:1;stroke-miterlimit:4;" d="M -0.00136566 0.000297546 L -3.499413 0.000297546 " transform="matrix(1.333333,0,0,1.333333,45.654165,143.468353)"/>
<path style=" stroke:none;fill-rule:nonzero;fill:rgb(0%,0%,0%);fill-opacity:1;" d="M 30.394531 147.429688 L 34.984375 147.429688 L 34.984375 148.535156 L 28.816406 148.535156 L 28.816406 147.429688 C 29.3125 146.910156 29.992188 146.21875 30.855469 145.347656 C 31.714844 144.476562 32.257812 143.914062 32.480469 143.664062 C 32.898438 143.191406 33.195312 142.789062 33.359375 142.464844 C 33.527344 142.136719 33.613281 141.8125 33.613281 141.496094 C 33.613281 140.980469 33.429688 140.558594 33.070312 140.234375 C 32.707031 139.90625 32.234375 139.746094 31.652344 139.746094 C 31.238281 139.746094 30.804688 139.816406 30.347656 139.960938 C 29.890625 140.101562 29.398438 140.320312 28.878906 140.609375 L 28.878906 139.28125 C 29.410156 139.070312 29.902344 138.910156 30.363281 138.800781 C 30.824219 138.691406 31.246094 138.636719 31.628906 138.636719 C 32.632812 138.636719 33.4375 138.890625 34.035156 139.394531 C 34.632812 139.898438 34.933594 140.570312 34.933594 141.410156 C 34.933594 141.8125 34.859375 142.191406 34.707031 142.546875 C 34.558594 142.90625 34.289062 143.328125 33.890625 143.8125 C 33.785156 143.941406 33.4375 144.304688 32.855469 144.90625 C 32.277344 145.507812 31.457031 146.347656 30.394531 147.429688 Z M 30.394531 147.429688 "/>
<g clip-path="url(#clip12)" clip-rule="nonzero">
<path style="fill:none;stroke-width:0.8;stroke-linecap:square;stroke-linejoin:round;stroke:rgb(69.01961%,69.01961%,69.01961%);stroke-opacity:1;stroke-miterlimit:4;" d="M 34.239258 75.703125 L 313.239258 75.703125 " transform="matrix(1.333333,0,0,1.333333,0,0.000000000000014211)"/>
</g>
<path style="fill:none;stroke-width:0.8;stroke-linecap:butt;stroke-linejoin:round;stroke:rgb(0%,0%,0%);stroke-opacity:1;stroke-miterlimit:4;" d="M -0.00136566 0.000587463 L -3.499413 0.000587463 " transform="matrix(1.333333,0,0,1.333333,45.654165,100.936717)"/>
<path style=" stroke:none;fill-rule:nonzero;fill:rgb(0%,0%,0%);fill-opacity:1;" d="M 32.878906 97.425781 L 29.554688 102.617188 L 32.878906 102.617188 Z M 32.53125 96.28125 L 34.183594 96.28125 L 34.183594 102.617188 L 35.574219 102.617188 L 35.574219 103.710938 L 34.183594 103.710938 L 34.183594 106.003906 L 32.878906 106.003906 L 32.878906 103.710938 L 28.488281 103.710938 L 28.488281 102.441406 Z M 32.53125 96.28125 "/>
<g clip-path="url(#clip13)" clip-rule="nonzero">
<path style="fill:none;stroke-width:0.8;stroke-linecap:square;stroke-linejoin:round;stroke:rgb(69.01961%,69.01961%,69.01961%);stroke-opacity:1;stroke-miterlimit:4;" d="M 34.239258 43.804687 L 313.239258 43.804687 " transform="matrix(1.333333,0,0,1.333333,0,0.000000000000014211)"/>
</g>
<path style="fill:none;stroke-width:0.8;stroke-linecap:butt;stroke-linejoin:round;stroke:rgb(0%,0%,0%);stroke-opacity:1;stroke-miterlimit:4;" d="M -0.00136566 0.00088501 L -3.499413 0.00088501 " transform="matrix(1.333333,0,0,1.333333,45.654165,58.40507)"/>
<path style=" stroke:none;fill-rule:nonzero;fill:rgb(0%,0%,0%);fill-opacity:1;" d="M 32.238281 58.085938 C 31.648438 58.085938 31.179688 58.289062 30.835938 58.695312 C 30.492188 59.097656 30.320312 59.648438 30.320312 60.351562 C 30.320312 61.050781 30.492188 61.601562 30.835938 62.011719 C 31.179688 62.414062 31.648438 62.617188 32.238281 62.617188 C 32.828125 62.617188 33.296875 62.414062 33.640625 62.011719 C 33.984375 61.601562 34.160156 61.050781 34.160156 60.351562 C 34.160156 59.648438 33.984375 59.097656 33.640625 58.695312 C 33.296875 58.289062 32.828125 58.085938 32.238281 58.085938 Z M 34.851562 53.964844 L 34.851562 55.164062 C 34.519531 55.007812 34.1875 54.886719 33.851562 54.804688 C 33.515625 54.722656 33.179688 54.679688 32.851562 54.679688 C 31.980469 54.679688 31.320312 54.972656 30.859375 55.558594 C 30.402344 56.144531 30.140625 57.03125 30.078125 58.214844 C 30.332031 57.839844 30.652344 57.550781 31.039062 57.347656 C 31.425781 57.144531 31.851562 57.046875 32.316406 57.046875 C 33.292969 57.046875 34.066406 57.34375 34.632812 57.933594 C 35.199219 58.527344 35.480469 59.332031 35.480469 60.351562 C 35.480469 61.351562 35.1875 62.152344 34.597656 62.757812 C 34.003906 63.359375 33.21875 63.660156 32.238281 63.660156 C 31.113281 63.660156 30.253906 63.230469 29.660156 62.367188 C 29.066406 61.507812 28.769531 60.257812 28.769531 58.621094 C 28.769531 57.085938 29.132812 55.859375 29.863281 54.945312 C 30.589844 54.03125 31.570312 53.574219 32.796875 53.574219 C 33.128906 53.574219 33.460938 53.609375 33.796875 53.671875 C 34.132812 53.738281 34.484375 53.835938 34.851562 53.964844 Z M 34.851562 53.964844 "/>
<g clip-path="url(#clip14)" clip-rule="nonzero">
<path style="fill:none;stroke-width:0.8;stroke-linecap:square;stroke-linejoin:round;stroke:rgb(69.01961%,69.01961%,69.01961%);stroke-opacity:1;stroke-miterlimit:4;" d="M 34.239258 11.90625 L 313.239258 11.90625 " transform="matrix(1.333333,0,0,1.333333,0,0.000000000000014211)"/>
</g>
<path style="fill:none;stroke-width:0.8;stroke-linecap:butt;stroke-linejoin:round;stroke:rgb(0%,0%,0%);stroke-opacity:1;stroke-miterlimit:4;" d="M -0.00136566 0.00117683 L -3.499413 0.00117683 " transform="matrix(1.333333,0,0,1.333333,45.654165,15.873431)"/>
<path style=" stroke:none;fill-rule:nonzero;fill:rgb(0%,0%,0%);fill-opacity:1;" d="M 32.074219 16.324219 C 31.449219 16.324219 30.957031 16.488281 30.601562 16.824219 C 30.242188 17.160156 30.066406 17.617188 30.066406 18.203125 C 30.066406 18.789062 30.242188 19.25 30.601562 19.585938 C 30.957031 19.917969 31.449219 20.085938 32.074219 20.085938 C 32.699219 20.085938 33.191406 19.917969 33.550781 19.582031 C 33.914062 19.246094 34.09375 18.785156 34.09375 18.203125 C 34.09375 17.617188 33.914062 17.160156 33.554688 16.824219 C 33.199219 16.488281 32.707031 16.324219 32.074219 16.324219 Z M 30.761719 15.765625 C 30.195312 15.625 29.757812 15.363281 29.441406 14.976562 C 29.128906 14.589844 28.972656 14.117188 28.972656 13.5625 C 28.972656 12.785156 29.246094 12.171875 29.800781 11.71875 C 30.355469 11.269531 31.113281 11.042969 32.074219 11.042969 C 33.042969 11.042969 33.804688 11.269531 34.355469 11.71875 C 34.90625 12.171875 35.179688 12.785156 35.179688 13.5625 C 35.179688 14.117188 35.023438 14.589844 34.707031 14.976562 C 34.394531 15.363281 33.957031 15.625 33.398438 15.765625 C 34.03125 15.910156 34.523438 16.199219 34.878906 16.628906 C 35.230469 17.058594 35.410156 17.585938 35.410156 18.203125 C 35.410156 19.148438 35.121094 19.871094 34.546875 20.375 C 33.972656 20.878906 33.148438 21.128906 32.074219 21.128906 C 31.003906 21.128906 30.179688 20.878906 29.605469 20.375 C 29.027344 19.871094 28.742188 19.148438 28.742188 18.203125 C 28.742188 17.585938 28.917969 17.058594 29.273438 16.628906 C 29.632812 16.199219 30.128906 15.910156 30.761719 15.765625 Z M 30.277344 13.6875 C 30.277344 14.191406 30.4375 14.582031 30.75 14.863281 C 31.066406 15.144531 31.507812 15.285156 32.074219 15.285156 C 32.640625 15.285156 33.082031 15.144531 33.398438 14.863281 C 33.71875 14.582031 33.878906 14.191406 33.878906 13.6875 C 33.878906 13.183594 33.71875 12.789062 33.398438 12.507812 C 33.082031 12.226562 32.640625 12.085938 32.074219 12.085938 C 31.507812 12.085938 31.066406 12.226562 30.75 12.507812 C 30.4375 12.789062 30.277344 13.183594 30.277344 13.6875 Z M 30.277344 13.6875 "/>
<path style=" stroke:none;fill-rule:nonzero;fill:rgb(0%,0%,0%);fill-opacity:1;" d="M 13.558594 118.4375 C 13.480469 118.570312 13.421875 118.71875 13.386719 118.875 C 13.351562 119.035156 13.332031 119.207031 13.332031 119.398438 C 13.332031 120.078125 13.550781 120.597656 13.992188 120.960938 C 14.433594 121.320312 15.066406 121.503906 15.890625 121.503906 L 19.730469 121.503906 L 19.730469 122.707031 L 12.441406 122.707031 L 12.441406 121.503906 L 13.574219 121.503906 C 13.128906 121.25 12.800781 120.921875 12.585938 120.519531 C 12.371094 120.117188 12.265625 119.625 12.265625 119.046875 C 12.265625 118.964844 12.269531 118.875 12.28125 118.773438 C 12.289062 118.675781 12.308594 118.5625 12.328125 118.441406 Z M 13.558594 118.4375 "/>
<path style=" stroke:none;fill-rule:nonzero;fill:rgb(0%,0%,0%);fill-opacity:1;" d="M 15.785156 111.242188 L 16.371094 111.242188 L 16.371094 116.75 C 17.195312 116.699219 17.824219 116.449219 18.257812 116.003906 C 18.6875 115.558594 18.902344 114.941406 18.902344 114.144531 C 18.902344 113.6875 18.847656 113.242188 18.734375 112.808594 C 18.621094 112.375 18.453125 111.949219 18.226562 111.519531 L 19.359375 111.519531 C 19.542969 111.953125 19.679688 112.394531 19.777344 112.84375 C 19.871094 113.296875 19.921875 113.753906 19.921875 114.21875 C 19.921875 115.382812 19.582031 116.300781 18.90625 116.980469 C 18.226562 117.660156 17.3125 118 16.15625 118 C 14.964844 118 14.015625 117.679688 13.316406 117.035156 C 12.617188 116.390625 12.265625 115.519531 12.265625 114.425781 C 12.265625 113.445312 12.582031 112.667969 13.210938 112.097656 C 13.84375 111.527344 14.699219 111.242188 15.785156 111.242188 Z M 15.433594 112.441406 C 14.777344 112.449219 14.257812 112.632812 13.867188 112.988281 C 13.476562 113.347656 13.277344 113.824219 13.277344 114.414062 C 13.277344 115.082031 13.46875 115.617188 13.847656 116.015625 C 14.222656 116.417969 14.753906 116.648438 15.441406 116.710938 Z M 15.433594 112.441406 "/>
<path style=" stroke:none;fill-rule:nonzero;fill:rgb(0%,0%,0%);fill-opacity:1;" d="M 9.601562 109.277344 L 9.601562 108.078125 L 19.730469 108.078125 L 19.730469 109.277344 Z M 9.601562 109.277344 "/>
<path style=" stroke:none;fill-rule:nonzero;fill:rgb(0%,0%,0%);fill-opacity:1;" d="M 16.855469 105.695312 L 12.441406 105.695312 L 12.441406 104.496094 L 16.808594 104.496094 C 17.5 104.496094 18.015625 104.363281 18.363281 104.09375 C 18.707031 103.824219 18.878906 103.421875 18.878906 102.882812 C 18.878906 102.238281 18.671875 101.726562 18.261719 101.351562 C 17.847656 100.976562 17.285156 100.785156 16.574219 100.785156 L 12.441406 100.785156 L 12.441406 99.589844 L 19.730469 99.589844 L 19.730469 100.785156 L 18.609375 100.785156 C 19.054688 101.078125 19.382812 101.414062 19.597656 101.800781 C 19.8125 102.183594 19.921875 102.628906 19.921875 103.136719 C 19.921875 103.972656 19.660156 104.609375 19.140625 105.046875 C 18.617188 105.476562 17.855469 105.695312 16.855469 105.695312 Z M 12.265625 102.679688 Z M 12.265625 102.679688 "/>
<path style=" stroke:none;fill-rule:nonzero;fill:rgb(0%,0%,0%);fill-opacity:1;" d="M 9.613281 94.246094 C 10.613281 94.824219 11.597656 95.257812 12.578125 95.539062 C 13.554688 95.824219 14.542969 95.964844 15.546875 95.964844 C 16.546875 95.964844 17.539062 95.820312 18.523438 95.535156 C 19.507812 95.25 20.496094 94.820312 21.488281 94.246094 L 21.488281 95.285156 C 20.46875 95.9375 19.464844 96.421875 18.480469 96.746094 C 17.496094 97.070312 16.519531 97.230469 15.546875 97.230469 C 14.578125 97.230469 13.601562 97.070312 12.621094 96.75 C 11.640625 96.429688 10.636719 95.941406 9.613281 95.285156 Z M 9.613281 94.246094 "/>
<path style=" stroke:none;fill-rule:nonzero;fill:rgb(0%,0%,0%);fill-opacity:1;" d="M 12.441406 85.855469 L 15.988281 88.496094 L 19.730469 85.722656 L 19.730469 87.132812 L 16.867188 89.257812 L 19.730469 91.378906 L 19.730469 92.792969 L 15.917969 89.960938 L 12.441406 92.550781 L 12.441406 91.136719 L 15.039062 89.207031 L 12.441406 87.273438 Z M 12.441406 85.855469 "/>
<path style=" stroke:none;fill-rule:nonzero;fill:rgb(0%,0%,0%);fill-opacity:1;" d="M 9.613281 84.214844 L 9.613281 83.175781 C 10.636719 82.523438 11.640625 82.039062 12.621094 81.714844 C 13.601562 81.390625 14.578125 81.230469 15.546875 81.230469 C 16.519531 81.230469 17.496094 81.390625 18.480469 81.714844 C 19.464844 82.039062 20.46875 82.523438 21.488281 83.175781 L 21.488281 84.214844 C 20.496094 83.640625 19.507812 83.210938 18.523438 82.925781 C 17.539062 82.640625 16.546875 82.496094 15.546875 82.496094 C 14.542969 82.496094 13.554688 82.640625 12.578125 82.925781 C 11.597656 83.210938 10.613281 83.640625 9.613281 84.214844 Z M 9.613281 84.214844 "/>
<path style="fill:none;stroke-width:1.5;stroke-linecap:square;stroke-linejoin:round;stroke:rgb(12.156863%,46.666667%,70.588237%);stroke-opacity:1;stroke-miterlimit:4;" d="M 46.921875 139.5 L 174.539062 139.5 L 300.55957 13.5 " transform="matrix(1.333333,0,0,1.333333,0,0.000000000000014211)"/>
<path style="fill:none;stroke-width:0.8;stroke-linecap:square;stroke-linejoin:miter;stroke:rgb(0%,0%,0%);stroke-opacity:1;stroke-miterlimit:4;" d="M 34.239258 145.798828 L 34.239258 7.201172 " transform="matrix(1.333333,0,0,1.333333,0,0.000000000000014211)"/>
<path style="fill:none;stroke-width:0.8;stroke-linecap:square;stroke-linejoin:miter;stroke:rgb(0%,0%,0%);stroke-opacity:1;stroke-miterlimit:4;" d="M 313.239258 145.798828 L 313.239258 7.201172 " transform="matrix(1.333333,0,0,1.333333,0,0.000000000000014211)"/>
<path style="fill:none;stroke-width:0.8;stroke-linecap:square;stroke-linejoin:miter;stroke:rgb(0%,0%,0%);stroke-opacity:1;stroke-miterlimit:4;" d="M 34.239258 145.798828 L 313.239258 145.798828 " transform="matrix(1.333333,0,0,1.333333,0,0.000000000000014211)"/>
<path style="fill:none;stroke-width:0.8;stroke-linecap:square;stroke-linejoin:miter;stroke:rgb(0%,0%,0%);stroke-opacity:1;stroke-miterlimit:4;" d="M 34.239258 7.201172 L 313.239258 7.201172 " transform="matrix(1.333333,0,0,1.333333,0,0.000000000000014211)"/>
</g>
</svg>
