<?xml version="1.0" encoding="UTF-8"?>
<svg xmlns="http://www.w3.org/2000/svg" xmlns:xlink="http://www.w3.org/1999/xlink" width="326.827087" height="240.875" viewBox="0 0 326.827087 240.875" version="1.1">
<defs>
<clipPath id="clip1">
  <path d="M 67 9.601562 L 70 9.601562 L 70 190.800781 L 67 190.800781 Z M 67 9.601562 "/>
</clipPath>
<clipPath id="clip2">
  <path d="M 127 9.601562 L 129 9.601562 L 129 190.800781 L 127 190.800781 Z M 127 9.601562 "/>
</clipPath>
<clipPath id="clip3">
  <path d="M 186 9.601562 L 189 9.601562 L 189 190.800781 L 186 190.800781 Z M 186 9.601562 "/>
</clipPath>
<clipPath id="clip4">
  <path d="M 245 9.601562 L 248 9.601562 L 248 190.800781 L 245 190.800781 Z M 245 9.601562 "/>
</clipPath>
<clipPath id="clip5">
  <path d="M 305 9.601562 L 307 9.601562 L 307 190.800781 L 305 190.800781 Z M 305 9.601562 "/>
</clipPath>
<clipPath id="clip6">
  <path d="M 56.828125 150 L 317.226562 150 L 317.226562 153 L 56.828125 153 Z M 56.828125 150 "/>
</clipPath>
<clipPath id="clip7">
  <path d="M 56.828125 98 L 317.226562 98 L 317.226562 101 L 56.828125 101 Z M 56.828125 98 "/>
</clipPath>
<clipPath id="clip8">
  <path d="M 56.828125 46 L 317.226562 46 L 317.226562 49 L 56.828125 49 Z M 56.828125 46 "/>
</clipPath>
</defs>
<g id="surface1">
<path style=" stroke:none;fill-rule:nonzero;fill:rgb(100%,100%,100%);fill-opacity:1;" d="M 56.828125 190.800781 L 317.226562 190.800781 L 317.226562 9.601562 L 56.828125 9.601562 Z M 56.828125 190.800781 "/>
<g clip-path="url(#clip1)" clip-rule="nonzero">
<path style="fill:none;stroke-width:0.8;stroke-linecap:square;stroke-linejoin:round;stroke:rgb(69.01961%,69.01961%,69.01961%);stroke-opacity:1;stroke-miterlimit:4;" d="M 51.498047 143.100586 L 51.498047 7.201172 " transform="matrix(1.333333,0,0,1.333333,0,0)"/>
</g>
<path style="fill:none;stroke-width:0.8;stroke-linecap:butt;stroke-linejoin:round;stroke:rgb(0%,0%,0%);stroke-opacity:1;stroke-miterlimit:4;" d="M 0.000461578 0.000579834 L 0.000461578 3.498627 " transform="matrix(1.333333,0,0,1.333333,68.663447,190.800008)"/>
<path style=" stroke:none;fill-rule:nonzero;fill:rgb(0%,0%,0%);fill-opacity:1;" d="M 60.246094 205.53125 L 68.59375 205.53125 L 68.59375 206.636719 L 60.246094 206.636719 Z M 60.246094 205.53125 "/>
<path style=" stroke:none;fill-rule:nonzero;fill:rgb(0%,0%,0%);fill-opacity:1;" d="M 72.566406 209.160156 L 77.15625 209.160156 L 77.15625 210.265625 L 70.984375 210.265625 L 70.984375 209.160156 C 71.484375 208.640625 72.164062 207.949219 73.023438 207.078125 C 73.886719 206.207031 74.429688 205.648438 74.648438 205.394531 C 75.070312 204.921875 75.363281 204.523438 75.53125 204.195312 C 75.699219 203.867188 75.78125 203.542969 75.78125 203.226562 C 75.78125 202.710938 75.601562 202.289062 75.238281 201.964844 C 74.875 201.636719 74.402344 201.476562 73.820312 201.476562 C 73.410156 201.476562 72.972656 201.546875 72.515625 201.691406 C 72.058594 201.832031 71.570312 202.050781 71.050781 202.339844 L 71.050781 201.011719 C 71.578125 200.800781 72.074219 200.640625 72.53125 200.53125 C 72.992188 200.421875 73.414062 200.367188 73.796875 200.367188 C 74.804688 200.367188 75.605469 200.621094 76.207031 201.125 C 76.804688 201.628906 77.101562 202.300781 77.101562 203.140625 C 77.101562 203.542969 77.027344 203.921875 76.878906 204.277344 C 76.730469 204.636719 76.457031 205.058594 76.0625 205.542969 C 75.953125 205.671875 75.609375 206.035156 75.027344 206.636719 C 74.445312 207.238281 73.625 208.078125 72.566406 209.160156 Z M 72.566406 209.160156 "/>
<g clip-path="url(#clip2)" clip-rule="nonzero">
<path style="fill:none;stroke-width:0.8;stroke-linecap:square;stroke-linejoin:round;stroke:rgb(69.01961%,69.01961%,69.01961%);stroke-opacity:1;stroke-miterlimit:4;" d="M 95.994141 143.100586 L 95.994141 7.201172 " transform="matrix(1.333333,0,0,1.333333,0,0)"/>
</g>
<path style="fill:none;stroke-width:0.8;stroke-linecap:butt;stroke-linejoin:round;stroke:rgb(0%,0%,0%);stroke-opacity:1;stroke-miterlimit:4;" d="M -0.00105286 0.000579834 L -0.00105286 3.498627 " transform="matrix(1.333333,0,0,1.333333,127.993591,190.800008)"/>
<path style=" stroke:none;fill-rule:nonzero;fill:rgb(0%,0%,0%);fill-opacity:1;" d="M 119.578125 205.53125 L 127.921875 205.53125 L 127.921875 206.636719 L 119.578125 206.636719 Z M 119.578125 205.53125 "/>
<path style=" stroke:none;fill-rule:nonzero;fill:rgb(0%,0%,0%);fill-opacity:1;" d="M 130.992188 209.160156 L 133.140625 209.160156 L 133.140625 201.742188 L 130.800781 202.210938 L 130.800781 201.011719 L 133.125 200.542969 L 134.441406 200.542969 L 134.441406 209.160156 L 136.589844 209.160156 L 136.589844 210.265625 L 130.992188 210.265625 Z M 130.992188 209.160156 "/>
<g clip-path="url(#clip3)" clip-rule="nonzero">
<path style="fill:none;stroke-width:0.8;stroke-linecap:square;stroke-linejoin:round;stroke:rgb(69.01961%,69.01961%,69.01961%);stroke-opacity:1;stroke-miterlimit:4;" d="M 140.493164 143.100586 L 140.493164 7.201172 " transform="matrix(1.333333,0,0,1.333333,0,0)"/>
</g>
<path style="fill:none;stroke-width:0.8;stroke-linecap:butt;stroke-linejoin:round;stroke:rgb(0%,0%,0%);stroke-opacity:1;stroke-miterlimit:4;" d="M 0.000366211 0.000579834 L 0.000366211 3.498627 " transform="matrix(1.333333,0,0,1.333333,187.32373,190.800008)"/>
<path style=" stroke:none;fill-rule:nonzero;fill:rgb(0%,0%,0%);fill-opacity:1;" d="M 187.320312 201.410156 C 186.644531 201.410156 186.132812 201.742188 185.792969 202.410156 C 185.453125 203.074219 185.28125 204.078125 185.28125 205.414062 C 185.28125 206.746094 185.453125 207.746094 185.792969 208.414062 C 186.132812 209.078125 186.644531 209.414062 187.320312 209.414062 C 188 209.414062 188.511719 209.078125 188.851562 208.414062 C 189.195312 207.746094 189.367188 206.746094 189.367188 205.414062 C 189.367188 204.078125 189.195312 203.074219 188.851562 202.410156 C 188.511719 201.742188 188 201.410156 187.320312 201.410156 Z M 187.320312 200.367188 C 188.410156 200.367188 189.242188 200.800781 189.816406 201.664062 C 190.390625 202.523438 190.679688 203.773438 190.679688 205.414062 C 190.679688 207.050781 190.390625 208.300781 189.816406 209.164062 C 189.242188 210.023438 188.410156 210.453125 187.320312 210.453125 C 186.230469 210.453125 185.398438 210.023438 184.824219 209.164062 C 184.25 208.300781 183.960938 207.050781 183.960938 205.414062 C 183.960938 203.773438 184.25 202.523438 184.824219 201.664062 C 185.398438 200.800781 186.230469 200.367188 187.320312 200.367188 Z M 187.320312 200.367188 "/>
<g clip-path="url(#clip4)" clip-rule="nonzero">
<path style="fill:none;stroke-width:0.8;stroke-linecap:square;stroke-linejoin:round;stroke:rgb(69.01961%,69.01961%,69.01961%);stroke-opacity:1;stroke-miterlimit:4;" d="M 184.989258 143.100586 L 184.989258 7.201172 " transform="matrix(1.333333,0,0,1.333333,0,0)"/>
</g>
<path style="fill:none;stroke-width:0.8;stroke-linecap:butt;stroke-linejoin:round;stroke:rgb(0%,0%,0%);stroke-opacity:1;stroke-miterlimit:4;" d="M -0.00114441 0.000579834 L -0.00114441 3.498627 " transform="matrix(1.333333,0,0,1.333333,246.65387,190.800008)"/>
<path style=" stroke:none;fill-rule:nonzero;fill:rgb(0%,0%,0%);fill-opacity:1;" d="M 244.066406 209.160156 L 246.214844 209.160156 L 246.214844 201.742188 L 243.875 202.210938 L 243.875 201.011719 L 246.203125 200.542969 L 247.515625 200.542969 L 247.515625 209.160156 L 249.664062 209.160156 L 249.664062 210.265625 L 244.066406 210.265625 Z M 244.066406 209.160156 "/>
<g clip-path="url(#clip5)" clip-rule="nonzero">
<path style="fill:none;stroke-width:0.8;stroke-linecap:square;stroke-linejoin:round;stroke:rgb(69.01961%,69.01961%,69.01961%);stroke-opacity:1;stroke-miterlimit:4;" d="M 229.488281 143.100586 L 229.488281 7.201172 " transform="matrix(1.333333,0,0,1.333333,0,0)"/>
</g>
<path style="fill:none;stroke-width:0.8;stroke-linecap:butt;stroke-linejoin:round;stroke:rgb(0%,0%,0%);stroke-opacity:1;stroke-miterlimit:4;" d="M 0.000259399 0.000579834 L 0.000259399 3.498627 " transform="matrix(1.333333,0,0,1.333333,305.984029,190.800008)"/>
<path style=" stroke:none;fill-rule:nonzero;fill:rgb(0%,0%,0%);fill-opacity:1;" d="M 304.300781 209.160156 L 308.890625 209.160156 L 308.890625 210.265625 L 302.71875 210.265625 L 302.71875 209.160156 C 303.21875 208.640625 303.898438 207.949219 304.757812 207.078125 C 305.621094 206.207031 306.164062 205.648438 306.382812 205.394531 C 306.804688 204.921875 307.097656 204.523438 307.265625 204.195312 C 307.433594 203.867188 307.515625 203.542969 307.515625 203.226562 C 307.515625 202.710938 307.335938 202.289062 306.972656 201.964844 C 306.609375 201.636719 306.140625 201.476562 305.558594 201.476562 C 305.144531 201.476562 304.710938 201.546875 304.25 201.691406 C 303.792969 201.832031 303.304688 202.050781 302.785156 202.339844 L 302.785156 201.011719 C 303.3125 200.800781 303.808594 200.640625 304.265625 200.53125 C 304.726562 200.421875 305.148438 200.367188 305.53125 200.367188 C 306.539062 200.367188 307.339844 200.621094 307.941406 201.125 C 308.539062 201.628906 308.839844 202.300781 308.839844 203.140625 C 308.839844 203.542969 308.761719 203.921875 308.613281 204.277344 C 308.464844 204.636719 308.191406 205.058594 307.796875 205.542969 C 307.6875 205.671875 307.34375 206.035156 306.761719 206.636719 C 306.179688 207.238281 305.359375 208.078125 304.300781 209.160156 Z M 304.300781 209.160156 "/>
<path style=" stroke:none;fill-rule:nonzero;fill:rgb(0%,0%,0%);fill-opacity:1;" d="M 190.398438 221.210938 L 187.761719 224.757812 L 190.535156 228.503906 L 189.121094 228.503906 L 187 225.636719 L 184.878906 228.503906 L 183.464844 228.503906 L 186.296875 224.6875 L 183.707031 221.210938 L 185.117188 221.210938 L 187.050781 223.808594 L 188.984375 221.210938 Z M 190.398438 221.210938 "/>
<g clip-path="url(#clip6)" clip-rule="nonzero">
<path style="fill:none;stroke-width:0.8;stroke-linecap:square;stroke-linejoin:round;stroke:rgb(69.01961%,69.01961%,69.01961%);stroke-opacity:1;stroke-miterlimit:4;" d="M 42.621094 113.583984 L 237.919922 113.583984 " transform="matrix(1.333333,0,0,1.333333,0,0)"/>
</g>
<path style="fill:none;stroke-width:0.8;stroke-linecap:butt;stroke-linejoin:round;stroke:rgb(0%,0%,0%);stroke-opacity:1;stroke-miterlimit:4;" d="M 0.000782013 0.000198364 L -3.500195 0.000198364 " transform="matrix(1.333333,0,0,1.333333,56.827082,151.445048)"/>
<path style=" stroke:none;fill-rule:nonzero;fill:rgb(0%,0%,0%);fill-opacity:1;" d="M 29.25 151.777344 L 37.597656 151.777344 L 37.597656 152.882812 L 29.25 152.882812 Z M 29.25 151.777344 "/>
<path style=" stroke:none;fill-rule:nonzero;fill:rgb(0%,0%,0%);fill-opacity:1;" d="M 40.449219 146.789062 L 45.613281 146.789062 L 45.613281 147.898438 L 41.652344 147.898438 L 41.652344 150.28125 C 41.84375 150.214844 42.035156 150.164062 42.222656 150.132812 C 42.414062 150.101562 42.605469 150.085938 42.800781 150.085938 C 43.882812 150.085938 44.742188 150.382812 45.375 150.976562 C 46.011719 151.570312 46.328125 152.375 46.328125 153.390625 C 46.328125 154.4375 46.003906 155.25 45.351562 155.832031 C 44.699219 156.410156 43.78125 156.699219 42.597656 156.699219 C 42.1875 156.699219 41.773438 156.664062 41.347656 156.597656 C 40.925781 156.527344 40.488281 156.421875 40.039062 156.285156 L 40.039062 154.960938 C 40.429688 155.171875 40.832031 155.332031 41.25 155.4375 C 41.664062 155.539062 42.105469 155.59375 42.570312 155.59375 C 43.320312 155.59375 43.914062 155.394531 44.351562 155 C 44.792969 154.605469 45.011719 154.070312 45.011719 153.390625 C 45.011719 152.714844 44.792969 152.179688 44.351562 151.785156 C 43.914062 151.390625 43.320312 151.191406 42.570312 151.191406 C 42.21875 151.191406 41.867188 151.230469 41.519531 151.308594 C 41.167969 151.386719 40.8125 151.507812 40.449219 151.671875 Z M 40.449219 146.789062 "/>
<g clip-path="url(#clip7)" clip-rule="nonzero">
<path style="fill:none;stroke-width:0.8;stroke-linecap:square;stroke-linejoin:round;stroke:rgb(69.01961%,69.01961%,69.01961%);stroke-opacity:1;stroke-miterlimit:4;" d="M 42.621094 74.686523 L 237.919922 74.686523 " transform="matrix(1.333333,0,0,1.333333,0,0)"/>
</g>
<path style="fill:none;stroke-width:0.8;stroke-linecap:butt;stroke-linejoin:round;stroke:rgb(0%,0%,0%);stroke-opacity:1;stroke-miterlimit:4;" d="M 0.000782013 0.000968933 L -3.500195 0.000968933 " transform="matrix(1.333333,0,0,1.333333,56.827082,99.580739)"/>
<path style=" stroke:none;fill-rule:nonzero;fill:rgb(0%,0%,0%);fill-opacity:1;" d="M 43.246094 95.792969 C 42.570312 95.792969 42.0625 96.125 41.722656 96.792969 C 41.378906 97.457031 41.210938 98.457031 41.210938 99.796875 C 41.210938 101.128906 41.378906 102.128906 41.722656 102.792969 C 42.0625 103.460938 42.570312 103.792969 43.246094 103.792969 C 43.929688 103.792969 44.441406 103.460938 44.78125 102.792969 C 45.121094 102.128906 45.292969 101.128906 45.292969 99.796875 C 45.292969 98.457031 45.121094 97.457031 44.78125 96.792969 C 44.441406 96.125 43.929688 95.792969 43.246094 95.792969 Z M 43.246094 94.75 C 44.339844 94.75 45.171875 95.183594 45.746094 96.042969 C 46.320312 96.90625 46.609375 98.15625 46.609375 99.796875 C 46.609375 101.433594 46.320312 102.683594 45.746094 103.542969 C 45.171875 104.40625 44.339844 104.835938 43.246094 104.835938 C 42.160156 104.835938 41.328125 104.40625 40.753906 103.542969 C 40.175781 102.683594 39.890625 101.433594 39.890625 99.796875 C 39.890625 98.15625 40.175781 96.90625 40.753906 96.042969 C 41.328125 95.183594 42.160156 94.75 43.246094 94.75 Z M 43.246094 94.75 "/>
<g clip-path="url(#clip8)" clip-rule="nonzero">
<path style="fill:none;stroke-width:0.8;stroke-linecap:square;stroke-linejoin:round;stroke:rgb(69.01961%,69.01961%,69.01961%);stroke-opacity:1;stroke-miterlimit:4;" d="M 42.621094 35.786133 L 237.919922 35.786133 " transform="matrix(1.333333,0,0,1.333333,0,0)"/>
</g>
<path style="fill:none;stroke-width:0.8;stroke-linecap:butt;stroke-linejoin:round;stroke:rgb(0%,0%,0%);stroke-opacity:1;stroke-miterlimit:4;" d="M 0.000782013 -0.00118256 L -3.500195 -0.00118256 " transform="matrix(1.333333,0,0,1.333333,56.827082,47.71642)"/>
<path style=" stroke:none;fill-rule:nonzero;fill:rgb(0%,0%,0%);fill-opacity:1;" d="M 40.449219 43.0625 L 45.613281 43.0625 L 45.613281 44.167969 L 41.652344 44.167969 L 41.652344 46.550781 C 41.84375 46.484375 42.035156 46.4375 42.226562 46.40625 C 42.417969 46.371094 42.609375 46.355469 42.800781 46.355469 C 43.882812 46.355469 44.742188 46.652344 45.378906 47.25 C 46.011719 47.84375 46.328125 48.648438 46.328125 49.664062 C 46.328125 50.710938 46.003906 51.523438 45.351562 52.101562 C 44.699219 52.683594 43.78125 52.972656 42.597656 52.972656 C 42.191406 52.972656 41.773438 52.9375 41.351562 52.867188 C 40.929688 52.796875 40.492188 52.695312 40.039062 52.554688 L 40.039062 51.230469 C 40.429688 51.445312 40.832031 51.601562 41.25 51.707031 C 41.667969 51.8125 42.105469 51.863281 42.570312 51.863281 C 43.320312 51.863281 43.917969 51.667969 44.355469 51.273438 C 44.792969 50.878906 45.011719 50.339844 45.011719 49.664062 C 45.011719 48.988281 44.792969 48.453125 44.355469 48.058594 C 43.917969 47.660156 43.320312 47.464844 42.570312 47.464844 C 42.21875 47.464844 41.867188 47.503906 41.519531 47.578125 C 41.171875 47.65625 40.8125 47.777344 40.449219 47.945312 Z M 40.449219 43.0625 "/>
<path style=" stroke:none;fill-rule:nonzero;fill:rgb(0%,0%,0%);fill-opacity:1;" d="M 9.601562 106.746094 L 10.597656 106.746094 L 10.597656 107.894531 C 10.597656 108.320312 10.683594 108.621094 10.859375 108.789062 C 11.03125 108.957031 11.34375 109.039062 11.796875 109.039062 L 12.441406 109.039062 L 12.441406 107.066406 L 13.371094 107.066406 L 13.371094 109.039062 L 19.730469 109.039062 L 19.730469 110.242188 L 13.371094 110.242188 L 13.371094 111.386719 L 12.441406 111.386719 L 12.441406 110.242188 L 11.929688 110.242188 C 11.121094 110.242188 10.527344 110.054688 10.160156 109.675781 C 9.785156 109.296875 9.601562 108.699219 9.601562 107.878906 Z M 9.601562 106.746094 "/>
<path style=" stroke:none;fill-rule:nonzero;fill:rgb(0%,0%,0%);fill-opacity:1;" d="M 9.613281 102.867188 C 10.613281 103.449219 11.597656 103.878906 12.578125 104.164062 C 13.554688 104.445312 14.542969 104.585938 15.546875 104.585938 C 16.546875 104.585938 17.539062 104.445312 18.523438 104.160156 C 19.507812 103.875 20.496094 103.445312 21.488281 102.867188 L 21.488281 103.910156 C 20.46875 104.558594 19.464844 105.046875 18.480469 105.371094 C 17.496094 105.691406 16.519531 105.855469 15.546875 105.855469 C 14.578125 105.855469 13.601562 105.695312 12.621094 105.375 C 11.640625 105.050781 10.636719 104.5625 9.613281 103.910156 Z M 9.613281 102.867188 "/>
<path style=" stroke:none;fill-rule:nonzero;fill:rgb(0%,0%,0%);fill-opacity:1;" d="M 12.441406 94.480469 L 15.988281 97.117188 L 19.730469 94.34375 L 19.730469 95.757812 L 16.867188 97.878906 L 19.730469 100 L 19.730469 101.414062 L 15.917969 98.582031 L 12.441406 101.175781 L 12.441406 99.761719 L 15.039062 97.828125 L 12.441406 95.894531 Z M 12.441406 94.480469 "/>
<path style=" stroke:none;fill-rule:nonzero;fill:rgb(0%,0%,0%);fill-opacity:1;" d="M 9.613281 92.839844 L 9.613281 91.796875 C 10.636719 91.148438 11.640625 90.660156 12.621094 90.335938 C 13.601562 90.015625 14.578125 89.851562 15.546875 89.851562 C 16.519531 89.851562 17.496094 90.015625 18.480469 90.335938 C 19.464844 90.660156 20.46875 91.148438 21.488281 91.796875 L 21.488281 92.839844 C 20.496094 92.261719 19.507812 91.832031 18.523438 91.546875 C 17.539062 91.261719 16.546875 91.121094 15.546875 91.121094 C 14.542969 91.121094 13.554688 91.261719 12.578125 91.546875 C 11.597656 91.832031 10.613281 92.261719 9.613281 92.839844 Z M 9.613281 92.839844 "/>
<path style="fill:none;stroke-width:1.5;stroke-linecap:square;stroke-linejoin:round;stroke:rgb(12.156863%,46.666667%,70.588237%);stroke-opacity:1;stroke-miterlimit:4;" d="M 51.498047 136.921875 L 54.612305 130.614258 L 57.726562 124.746094 L 60.84082 119.305664 L 63.958008 114.272461 L 67.072266 109.631836 L 70.186523 105.37207 L 73.300781 101.469727 L 76.415039 97.916016 L 79.532227 94.69043 L 82.646484 91.77832 L 85.760742 89.162109 L 88.875 86.830078 L 91.989258 84.761719 L 95.106445 82.942383 L 98.220703 81.354492 L 101.780273 79.807617 L 105.339844 78.521484 L 108.899414 77.469727 L 112.904297 76.541016 L 116.90918 75.84375 L 121.359375 75.304688 L 126.254883 74.941406 L 132.038086 74.739258 L 140.938477 74.686523 L 151.171875 74.578125 L 156.958008 74.291016 L 161.850586 73.825195 L 166.300781 73.168945 L 170.305664 72.345703 L 173.865234 71.402344 L 177.424805 70.236328 L 180.984375 68.824219 L 184.101562 67.362305 L 187.21582 65.680664 L 190.330078 63.755859 L 193.444336 61.576172 L 196.558594 59.124023 L 199.675781 56.381836 L 202.790039 53.337891 L 205.904297 49.974609 L 209.018555 46.271484 L 212.132812 42.219727 L 215.25 37.795898 L 218.364258 32.991211 L 221.478516 27.785156 L 224.592773 22.163086 L 227.707031 16.107422 L 229.042969 13.376953 " transform="matrix(1.333333,0,0,1.333333,0,0)"/>
<path style="fill:none;stroke-width:0.8;stroke-linecap:square;stroke-linejoin:miter;stroke:rgb(0%,0%,0%);stroke-opacity:1;stroke-miterlimit:4;" d="M 42.621094 143.100586 L 42.621094 7.201172 " transform="matrix(1.333333,0,0,1.333333,0,0)"/>
<path style="fill:none;stroke-width:0.8;stroke-linecap:square;stroke-linejoin:miter;stroke:rgb(0%,0%,0%);stroke-opacity:1;stroke-miterlimit:4;" d="M 237.919922 143.100586 L 237.919922 7.201172 " transform="matrix(1.333333,0,0,1.333333,0,0)"/>
<path style="fill:none;stroke-width:0.8;stroke-linecap:square;stroke-linejoin:miter;stroke:rgb(0%,0%,0%);stroke-opacity:1;stroke-miterlimit:4;" d="M 42.621094 143.100586 L 237.919922 143.100586 " transform="matrix(1.333333,0,0,1.333333,0,0)"/>
<path style="fill:none;stroke-width:0.8;stroke-linecap:square;stroke-linejoin:miter;stroke:rgb(0%,0%,0%);stroke-opacity:1;stroke-miterlimit:4;" d="M 42.621094 7.201172 L 237.919922 7.201172 " transform="matrix(1.333333,0,0,1.333333,0,0)"/>
<path style="fill:none;stroke-width:1;stroke-linecap:round;stroke-linejoin:round;stroke:rgb(0%,0%,0%);stroke-opacity:1;stroke-miterlimit:4;" d="M 146.223633 102.026367 C 144.457031 94.083984 142.772461 86.504883 141.169922 79.289062 " transform="matrix(1.333333,0,0,1.333333,0,0)"/>
<path style="fill:none;stroke-width:1;stroke-linecap:round;stroke-linejoin:round;stroke:rgb(0%,0%,0%);stroke-opacity:1;stroke-miterlimit:4;" d="M 140.085938 83.625 L 141.169922 79.289062 L 143.988281 82.757812 " transform="matrix(1.333333,0,0,1.333333,0,0)"/>
<path style=" stroke:none;fill-rule:nonzero;fill:rgb(0%,0%,0%);fill-opacity:1;" d="M 162.375 144.367188 L 162.375 145.5 C 162.039062 145.328125 161.6875 145.199219 161.320312 145.113281 C 160.957031 145.023438 160.582031 144.980469 160.1875 144.980469 C 159.59375 144.980469 159.148438 145.070312 158.851562 145.253906 C 158.554688 145.433594 158.40625 145.707031 158.40625 146.074219 C 158.40625 146.351562 158.511719 146.570312 158.722656 146.726562 C 158.9375 146.886719 159.363281 147.039062 160.007812 147.179688 L 160.417969 147.273438 C 161.269531 147.453125 161.871094 147.710938 162.230469 148.042969 C 162.589844 148.375 162.769531 148.839844 162.769531 149.433594 C 162.769531 150.109375 162.5 150.648438 161.964844 151.042969 C 161.425781 151.4375 160.691406 151.632812 159.753906 151.632812 C 159.363281 151.632812 158.957031 151.597656 158.53125 151.519531 C 158.109375 151.445312 157.664062 151.328125 157.195312 151.179688 L 157.195312 149.941406 C 157.636719 150.171875 158.074219 150.34375 158.503906 150.460938 C 158.933594 150.574219 159.359375 150.628906 159.78125 150.628906 C 160.34375 150.628906 160.777344 150.535156 161.082031 150.339844 C 161.382812 150.148438 161.535156 149.875 161.535156 149.523438 C 161.535156 149.199219 161.425781 148.949219 161.207031 148.777344 C 160.988281 148.601562 160.507812 148.433594 159.765625 148.273438 L 159.347656 148.175781 C 158.609375 148.019531 158.070312 147.78125 157.742188 147.457031 C 157.410156 147.132812 157.246094 146.691406 157.246094 146.125 C 157.246094 145.441406 157.488281 144.910156 157.976562 144.539062 C 158.460938 144.164062 159.152344 143.976562 160.046875 143.976562 C 160.488281 143.976562 160.90625 144.011719 161.296875 144.078125 C 161.6875 144.140625 162.046875 144.238281 162.375 144.367188 Z M 162.375 144.367188 "/>
<path style=" stroke:none;fill-rule:nonzero;fill:rgb(0%,0%,0%);fill-opacity:1;" d="M 167.988281 147.78125 C 167.019531 147.78125 166.351562 147.890625 165.976562 148.113281 C 165.601562 148.332031 165.417969 148.710938 165.417969 149.246094 C 165.417969 149.671875 165.558594 150.007812 165.835938 150.257812 C 166.117188 150.507812 166.5 150.628906 166.980469 150.628906 C 167.644531 150.628906 168.175781 150.394531 168.578125 149.925781 C 168.980469 149.453125 169.179688 148.828125 169.179688 148.046875 L 169.179688 147.78125 Z M 170.378906 147.285156 L 170.378906 151.445312 L 169.179688 151.445312 L 169.179688 150.339844 C 168.90625 150.78125 168.566406 151.105469 168.160156 151.316406 C 167.75 151.527344 167.25 151.632812 166.660156 151.632812 C 165.914062 151.632812 165.320312 151.425781 164.878906 151.003906 C 164.4375 150.585938 164.21875 150.023438 164.21875 149.320312 C 164.21875 148.503906 164.492188 147.882812 165.042969 147.46875 C 165.589844 147.050781 166.410156 146.84375 167.5 146.84375 L 169.179688 146.84375 L 169.179688 146.722656 C 169.179688 146.171875 169 145.746094 168.636719 145.445312 C 168.273438 145.144531 167.765625 144.992188 167.109375 144.992188 C 166.695312 144.992188 166.289062 145.042969 165.890625 145.144531 C 165.496094 145.242188 165.117188 145.394531 164.753906 145.59375 L 164.753906 144.484375 C 165.191406 144.316406 165.617188 144.1875 166.027344 144.105469 C 166.441406 144.019531 166.84375 143.976562 167.234375 143.976562 C 168.289062 143.976562 169.078125 144.253906 169.597656 144.800781 C 170.117188 145.34375 170.378906 146.171875 170.378906 147.285156 Z M 170.378906 147.285156 "/>
<path style=" stroke:none;fill-rule:nonzero;fill:rgb(0%,0%,0%);fill-opacity:1;" d="M 177.644531 145.257812 L 177.644531 141.3125 L 178.839844 141.3125 L 178.839844 151.445312 L 177.644531 151.445312 L 177.644531 150.351562 C 177.390625 150.785156 177.074219 151.105469 176.6875 151.316406 C 176.304688 151.527344 175.84375 151.632812 175.304688 151.632812 C 174.425781 151.632812 173.707031 151.285156 173.152344 150.582031 C 172.601562 149.875 172.324219 148.953125 172.324219 147.804688 C 172.324219 146.660156 172.601562 145.734375 173.152344 145.03125 C 173.707031 144.328125 174.425781 143.976562 175.304688 143.976562 C 175.84375 143.976562 176.304688 144.082031 176.6875 144.296875 C 177.074219 144.503906 177.390625 144.828125 177.644531 145.257812 Z M 173.5625 147.804688 C 173.5625 148.6875 173.742188 149.378906 174.105469 149.878906 C 174.46875 150.378906 174.964844 150.628906 175.601562 150.628906 C 176.234375 150.628906 176.730469 150.378906 177.09375 149.878906 C 177.460938 149.378906 177.644531 148.6875 177.644531 147.804688 C 177.644531 146.925781 177.460938 146.234375 177.09375 145.734375 C 176.730469 145.230469 176.234375 144.980469 175.601562 144.980469 C 174.964844 144.980469 174.46875 145.230469 174.105469 145.734375 C 173.742188 146.234375 173.5625 146.925781 173.5625 147.804688 Z M 173.5625 147.804688 "/>
<path style=" stroke:none;fill-rule:nonzero;fill:rgb(0%,0%,0%);fill-opacity:1;" d="M 186.105469 145.257812 L 186.105469 141.3125 L 187.304688 141.3125 L 187.304688 151.445312 L 186.105469 151.445312 L 186.105469 150.351562 C 185.855469 150.785156 185.539062 151.105469 185.152344 151.316406 C 184.769531 151.527344 184.308594 151.632812 183.769531 151.632812 C 182.890625 151.632812 182.171875 151.285156 181.617188 150.582031 C 181.066406 149.875 180.789062 148.953125 180.789062 147.804688 C 180.789062 146.660156 181.066406 145.734375 181.617188 145.03125 C 182.171875 144.328125 182.890625 143.976562 183.769531 143.976562 C 184.308594 143.976562 184.769531 144.082031 185.152344 144.296875 C 185.539062 144.503906 185.855469 144.828125 186.105469 145.257812 Z M 182.027344 147.804688 C 182.027344 148.6875 182.207031 149.378906 182.570312 149.878906 C 182.933594 150.378906 183.429688 150.628906 184.0625 150.628906 C 184.695312 150.628906 185.195312 150.378906 185.558594 149.878906 C 185.925781 149.378906 186.105469 148.6875 186.105469 147.804688 C 186.105469 146.925781 185.925781 146.234375 185.558594 145.734375 C 185.195312 145.230469 184.695312 144.980469 184.0625 144.980469 C 183.429688 144.980469 182.933594 145.230469 182.570312 145.734375 C 182.207031 146.234375 182.027344 146.925781 182.027344 147.804688 Z M 182.027344 147.804688 "/>
<path style=" stroke:none;fill-rule:nonzero;fill:rgb(0%,0%,0%);fill-opacity:1;" d="M 189.773438 141.3125 L 190.96875 141.3125 L 190.96875 151.445312 L 189.773438 151.445312 Z M 189.773438 141.3125 "/>
<path style=" stroke:none;fill-rule:nonzero;fill:rgb(0%,0%,0%);fill-opacity:1;" d="M 199.714844 147.5 L 199.714844 148.085938 L 194.207031 148.085938 C 194.257812 148.910156 194.507812 149.539062 194.953125 149.96875 C 195.394531 150.402344 196.015625 150.617188 196.808594 150.617188 C 197.269531 150.617188 197.714844 150.5625 198.148438 150.449219 C 198.578125 150.335938 199.007812 150.167969 199.433594 149.941406 L 199.433594 151.074219 C 199.003906 151.257812 198.5625 151.394531 198.113281 151.492188 C 197.660156 151.585938 197.203125 151.632812 196.738281 151.632812 C 195.574219 151.632812 194.652344 151.296875 193.976562 150.621094 C 193.296875 149.941406 192.957031 149.027344 192.957031 147.871094 C 192.957031 146.675781 193.277344 145.730469 193.921875 145.03125 C 194.566406 144.328125 195.4375 143.976562 196.53125 143.976562 C 197.511719 143.976562 198.289062 144.292969 198.859375 144.925781 C 199.429688 145.558594 199.714844 146.414062 199.714844 147.5 Z M 198.515625 147.148438 C 198.507812 146.492188 198.324219 145.972656 197.964844 145.582031 C 197.609375 145.1875 197.132812 144.992188 196.542969 144.992188 C 195.875 144.992188 195.339844 145.183594 194.941406 145.558594 C 194.539062 145.9375 194.308594 146.46875 194.246094 147.15625 Z M 198.515625 147.148438 "/>
<path style=" stroke:none;fill-rule:nonzero;fill:rgb(0%,0%,0%);fill-opacity:1;" d="M 207.078125 150.351562 L 207.078125 154.21875 L 205.871094 154.21875 L 205.871094 144.152344 L 207.078125 144.152344 L 207.078125 145.257812 C 207.328125 144.828125 207.648438 144.503906 208.03125 144.296875 C 208.414062 144.082031 208.875 143.976562 209.40625 143.976562 C 210.292969 143.976562 211.011719 144.328125 211.566406 145.03125 C 212.121094 145.734375 212.398438 146.660156 212.398438 147.804688 C 212.398438 148.953125 212.121094 149.875 211.566406 150.582031 C 211.011719 151.285156 210.292969 151.632812 209.40625 151.632812 C 208.875 151.632812 208.414062 151.527344 208.03125 151.316406 C 207.648438 151.105469 207.328125 150.785156 207.078125 150.351562 Z M 211.152344 147.804688 C 211.152344 146.925781 210.972656 146.234375 210.609375 145.734375 C 210.246094 145.230469 209.75 144.980469 209.117188 144.980469 C 208.480469 144.980469 207.984375 145.230469 207.621094 145.734375 C 207.257812 146.234375 207.078125 146.925781 207.078125 147.804688 C 207.078125 148.6875 207.257812 149.378906 207.621094 149.878906 C 207.984375 150.378906 208.480469 150.628906 209.117188 150.628906 C 209.75 150.628906 210.246094 150.378906 210.609375 149.878906 C 210.972656 149.378906 211.152344 148.6875 211.152344 147.804688 Z M 211.152344 147.804688 "/>
<path style=" stroke:none;fill-rule:nonzero;fill:rgb(0%,0%,0%);fill-opacity:1;" d="M 217.207031 144.992188 C 216.566406 144.992188 216.058594 145.242188 215.683594 145.746094 C 215.308594 146.246094 215.125 146.933594 215.125 147.804688 C 215.125 148.675781 215.308594 149.363281 215.679688 149.867188 C 216.050781 150.367188 216.5625 150.617188 217.207031 150.617188 C 217.847656 150.617188 218.351562 150.367188 218.722656 149.863281 C 219.097656 149.359375 219.285156 148.671875 219.285156 147.804688 C 219.285156 146.941406 219.097656 146.257812 218.722656 145.75 C 218.351562 145.246094 217.847656 144.992188 217.207031 144.992188 Z M 217.207031 143.976562 C 218.25 143.976562 219.066406 144.316406 219.660156 144.996094 C 220.257812 145.671875 220.554688 146.609375 220.554688 147.804688 C 220.554688 149 220.257812 149.933594 219.660156 150.617188 C 219.066406 151.296875 218.25 151.632812 217.207031 151.632812 C 216.160156 151.632812 215.339844 151.296875 214.75 150.617188 C 214.15625 149.933594 213.859375 149 213.859375 147.804688 C 213.859375 146.609375 214.15625 145.671875 214.75 144.996094 C 215.339844 144.316406 216.160156 143.976562 217.207031 143.976562 Z M 217.207031 143.976562 "/>
<path style=" stroke:none;fill-rule:nonzero;fill:rgb(0%,0%,0%);fill-opacity:1;" d="M 222.539062 144.152344 L 223.738281 144.152344 L 223.738281 151.445312 L 222.539062 151.445312 Z M 222.539062 141.3125 L 223.738281 141.3125 L 223.738281 142.832031 L 222.539062 142.832031 Z M 222.539062 141.3125 "/>
<path style=" stroke:none;fill-rule:nonzero;fill:rgb(0%,0%,0%);fill-opacity:1;" d="M 232.304688 147.042969 L 232.304688 151.445312 L 231.109375 151.445312 L 231.109375 147.082031 C 231.109375 146.390625 230.972656 145.875 230.703125 145.535156 C 230.433594 145.191406 230.03125 145.019531 229.492188 145.019531 C 228.847656 145.019531 228.335938 145.226562 227.960938 145.640625 C 227.589844 146.050781 227.402344 146.613281 227.402344 147.324219 L 227.402344 151.445312 L 226.199219 151.445312 L 226.199219 144.152344 L 227.402344 144.152344 L 227.402344 145.285156 C 227.691406 144.847656 228.027344 144.519531 228.414062 144.304688 C 228.804688 144.085938 229.253906 143.976562 229.761719 143.976562 C 230.597656 143.976562 231.230469 144.238281 231.660156 144.753906 C 232.089844 145.273438 232.304688 146.035156 232.304688 147.042969 Z M 232.304688 147.042969 "/>
<path style=" stroke:none;fill-rule:nonzero;fill:rgb(0%,0%,0%);fill-opacity:1;" d="M 235.878906 142.082031 L 235.878906 144.152344 L 238.347656 144.152344 L 238.347656 145.085938 L 235.878906 145.085938 L 235.878906 149.042969 C 235.878906 149.636719 235.960938 150.019531 236.125 150.1875 C 236.285156 150.359375 236.617188 150.441406 237.117188 150.441406 L 238.347656 150.441406 L 238.347656 151.445312 L 237.117188 151.445312 C 236.191406 151.445312 235.554688 151.273438 235.203125 150.929688 C 234.851562 150.582031 234.675781 149.953125 234.675781 149.042969 L 234.675781 145.085938 L 233.796875 145.085938 L 233.796875 144.152344 L 234.675781 144.152344 L 234.675781 142.082031 Z M 235.878906 142.082031 "/>
</g>
</svg>
