<?xml version="1.0" encoding="UTF-8"?>
<svg xmlns="http://www.w3.org/2000/svg" xmlns:xlink="http://www.w3.org/1999/xlink" width="305.900004" height="244.16038" viewBox="0 0 305.900004 244.16038" version="1.1">
<defs>
<clipPath id="clip1">
  <path d="M 55 12.886719 L 58 12.886719 L 58 194.085938 L 55 194.085938 Z M 55 12.886719 "/>
</clipPath>
<clipPath id="clip2">
  <path d="M 113 12.886719 L 115 12.886719 L 115 194.085938 L 113 194.085938 Z M 113 12.886719 "/>
</clipPath>
<clipPath id="clip3">
  <path d="M 171 12.886719 L 173 12.886719 L 173 194.085938 L 171 194.085938 Z M 171 12.886719 "/>
</clipPath>
<clipPath id="clip4">
  <path d="M 229 12.886719 L 231 12.886719 L 231 194.085938 L 229 194.085938 Z M 229 12.886719 "/>
</clipPath>
<clipPath id="clip5">
  <path d="M 287 12.886719 L 287.816406 12.886719 L 287.816406 194.085938 L 287 194.085938 Z M 287 12.886719 "/>
</clipPath>
<clipPath id="clip6">
  <path d="M 27.417969 190 L 287.816406 190 L 287.816406 192 L 27.417969 192 Z M 27.417969 190 "/>
</clipPath>
<clipPath id="clip7">
  <path d="M 27.417969 146 L 287.816406 146 L 287.816406 148 L 27.417969 148 Z M 27.417969 146 "/>
</clipPath>
<clipPath id="clip8">
  <path d="M 27.417969 102 L 287.816406 102 L 287.816406 104 L 27.417969 104 Z M 27.417969 102 "/>
</clipPath>
<clipPath id="clip9">
  <path d="M 27.417969 57 L 287.816406 57 L 287.816406 60 L 27.417969 60 Z M 27.417969 57 "/>
</clipPath>
<clipPath id="clip10">
  <path d="M 27.417969 13 L 287.816406 13 L 287.816406 16 L 27.417969 16 Z M 27.417969 13 "/>
</clipPath>
<clipPath id="clip11">
  <path d="M 27.417969 19 L 287.816406 19 L 287.816406 188 L 27.417969 188 Z M 27.417969 19 "/>
</clipPath>
<filter id="alpha" filterUnits="objectBoundingBox" x="0%" y="0%" width="100%" height="100%">
  <feColorMatrix type="matrix" in="SourceGraphic" values="0 0 0 0 1 0 0 0 0 1 0 0 0 0 1 0 0 0 1 0"/>
</filter>
<mask id="mask0">
  <g filter="url(#alpha)">
<rect x="0" y="0" width="305.900004" height="244.16038" style="fill:rgb(0%,0%,0%);fill-opacity:0.8;stroke:none;"/>
  </g>
</mask>
<clipPath id="clip12">
  <rect x="0" y="0" width="306" height="245"/>
</clipPath>
<g id="surface5" clip-path="url(#clip12)">
<path style="fill-rule:nonzero;fill:rgb(100%,100%,100%);fill-opacity:1;stroke-width:1;stroke-linecap:butt;stroke-linejoin:miter;stroke:rgb(80.000001%,80.000001%,80.000001%);stroke-opacity:1;stroke-miterlimit:4;" d="M 131.094727 32.34082 L 208.863281 32.34082 C 210.196289 32.34082 210.861328 31.675781 210.861328 30.342773 L 210.861328 16.664062 C 210.861328 15.331055 210.196289 14.663086 208.863281 14.663086 L 131.094727 14.663086 C 129.761719 14.663086 129.09375 15.331055 129.09375 16.664062 L 129.09375 30.342773 C 129.09375 31.675781 129.761719 32.34082 131.094727 32.34082 Z M 131.094727 32.34082 " transform="matrix(1.333333,0,0,1.333333,0.000000000000028422,0)"/>
</g>
</defs>
<g id="surface1">
<path style=" stroke:none;fill-rule:nonzero;fill:rgb(100%,100%,100%);fill-opacity:1;" d="M 27.417969 194.085938 L 287.816406 194.085938 L 287.816406 12.886719 L 27.417969 12.886719 Z M 27.417969 194.085938 "/>
<g clip-path="url(#clip1)" clip-rule="nonzero">
<path style="fill:none;stroke-width:0.8;stroke-linecap:square;stroke-linejoin:round;stroke:rgb(69.01961%,69.01961%,69.01961%);stroke-opacity:1;stroke-miterlimit:4;" d="M 42.263672 145.564453 L 42.263672 9.665039 " transform="matrix(1.333333,0,0,1.333333,0.000000000000028422,0)"/>
</g>
<path style="fill:none;stroke-width:0.8;stroke-linecap:butt;stroke-linejoin:round;stroke:rgb(0%,0%,0%);stroke-opacity:1;stroke-miterlimit:4;" d="M 0.00117111 0.000427246 L 0.00117111 3.501404 " transform="matrix(1.333333,0,0,1.333333,56.350001,194.085368)"/>
<path style=" stroke:none;fill-rule:nonzero;fill:rgb(0%,0%,0%);fill-opacity:1;" d="M 54.667969 212.445312 L 59.257812 212.445312 L 59.257812 213.550781 L 53.085938 213.550781 L 53.085938 212.445312 C 53.585938 211.925781 54.265625 211.234375 55.125 210.363281 C 55.988281 209.492188 56.527344 208.933594 56.75 208.679688 C 57.171875 208.207031 57.464844 207.808594 57.632812 207.480469 C 57.800781 207.152344 57.882812 206.828125 57.882812 206.511719 C 57.882812 205.996094 57.703125 205.574219 57.339844 205.25 C 56.976562 204.921875 56.503906 204.761719 55.921875 204.761719 C 55.511719 204.761719 55.074219 204.832031 54.617188 204.976562 C 54.160156 205.117188 53.671875 205.335938 53.148438 205.628906 L 53.148438 204.296875 C 53.679688 204.085938 54.171875 203.925781 54.632812 203.816406 C 55.09375 203.707031 55.515625 203.652344 55.898438 203.652344 C 56.90625 203.652344 57.707031 203.90625 58.304688 204.410156 C 58.90625 204.914062 59.203125 205.585938 59.203125 206.425781 C 59.203125 206.828125 59.128906 207.207031 58.980469 207.566406 C 58.832031 207.921875 58.558594 208.34375 58.164062 208.828125 C 58.054688 208.957031 57.710938 209.320312 57.128906 209.921875 C 56.546875 210.523438 55.726562 211.363281 54.667969 212.445312 Z M 54.667969 212.445312 "/>
<g clip-path="url(#clip2)" clip-rule="nonzero">
<path style="fill:none;stroke-width:0.8;stroke-linecap:square;stroke-linejoin:round;stroke:rgb(69.01961%,69.01961%,69.01961%);stroke-opacity:1;stroke-miterlimit:4;" d="M 85.661133 145.564453 L 85.661133 9.665039 " transform="matrix(1.333333,0,0,1.333333,0.000000000000028422,0)"/>
</g>
<path style="fill:none;stroke-width:0.8;stroke-linecap:butt;stroke-linejoin:round;stroke:rgb(0%,0%,0%);stroke-opacity:1;stroke-miterlimit:4;" d="M -0.00136566 0.000427246 L -0.00136566 3.501404 " transform="matrix(1.333333,0,0,1.333333,114.216665,194.085368)"/>
<path style=" stroke:none;fill-rule:nonzero;fill:rgb(0%,0%,0%);fill-opacity:1;" d="M 115.015625 204.976562 L 111.695312 210.164062 L 115.015625 210.164062 Z M 114.667969 203.828125 L 116.324219 203.828125 L 116.324219 210.164062 L 117.710938 210.164062 L 117.710938 211.257812 L 116.324219 211.257812 L 116.324219 213.550781 L 115.015625 213.550781 L 115.015625 211.257812 L 110.628906 211.257812 L 110.628906 209.988281 Z M 114.667969 203.828125 "/>
<g clip-path="url(#clip3)" clip-rule="nonzero">
<path style="fill:none;stroke-width:0.8;stroke-linecap:square;stroke-linejoin:round;stroke:rgb(69.01961%,69.01961%,69.01961%);stroke-opacity:1;stroke-miterlimit:4;" d="M 129.061523 145.564453 L 129.061523 9.665039 " transform="matrix(1.333333,0,0,1.333333,0.000000000000028422,0)"/>
</g>
<path style="fill:none;stroke-width:0.8;stroke-linecap:butt;stroke-linejoin:round;stroke:rgb(0%,0%,0%);stroke-opacity:1;stroke-miterlimit:4;" d="M -0.000976563 0.000427246 L -0.000976563 3.501404 " transform="matrix(1.333333,0,0,1.333333,172.083333,194.085368)"/>
<path style=" stroke:none;fill-rule:nonzero;fill:rgb(0%,0%,0%);fill-opacity:1;" d="M 172.242188 208.167969 C 171.652344 208.167969 171.183594 208.367188 170.839844 208.773438 C 170.496094 209.175781 170.324219 209.726562 170.324219 210.429688 C 170.324219 211.128906 170.496094 211.683594 170.839844 212.089844 C 171.183594 212.496094 171.652344 212.699219 172.242188 212.699219 C 172.835938 212.699219 173.300781 212.496094 173.644531 212.089844 C 173.992188 211.683594 174.164062 211.128906 174.164062 210.429688 C 174.164062 209.726562 173.992188 209.175781 173.644531 208.773438 C 173.300781 208.367188 172.835938 208.167969 172.242188 208.167969 Z M 174.855469 204.042969 L 174.855469 205.242188 C 174.523438 205.085938 174.191406 204.96875 173.855469 204.886719 C 173.519531 204.800781 173.183594 204.761719 172.855469 204.761719 C 171.984375 204.761719 171.324219 205.054688 170.863281 205.640625 C 170.40625 206.226562 170.148438 207.109375 170.082031 208.296875 C 170.335938 207.917969 170.65625 207.628906 171.042969 207.425781 C 171.429688 207.226562 171.855469 207.125 172.320312 207.125 C 173.296875 207.125 174.070312 207.421875 174.636719 208.015625 C 175.203125 208.605469 175.484375 209.410156 175.484375 210.429688 C 175.484375 211.429688 175.191406 212.230469 174.601562 212.835938 C 174.007812 213.4375 173.222656 213.738281 172.242188 213.738281 C 171.117188 213.738281 170.257812 213.308594 169.664062 212.449219 C 169.070312 211.585938 168.773438 210.335938 168.773438 208.699219 C 168.773438 207.164062 169.136719 205.9375 169.867188 205.023438 C 170.597656 204.109375 171.574219 203.652344 172.800781 203.652344 C 173.132812 203.652344 173.464844 203.6875 173.800781 203.753906 C 174.136719 203.816406 174.488281 203.914062 174.855469 204.042969 Z M 174.855469 204.042969 "/>
<g clip-path="url(#clip4)" clip-rule="nonzero">
<path style="fill:none;stroke-width:0.8;stroke-linecap:square;stroke-linejoin:round;stroke:rgb(69.01961%,69.01961%,69.01961%);stroke-opacity:1;stroke-miterlimit:4;" d="M 172.461914 145.564453 L 172.461914 9.665039 " transform="matrix(1.333333,0,0,1.333333,0.000000000000028422,0)"/>
</g>
<path style="fill:none;stroke-width:0.8;stroke-linecap:butt;stroke-linejoin:round;stroke:rgb(0%,0%,0%);stroke-opacity:1;stroke-miterlimit:4;" d="M -0.000579834 0.000427246 L -0.000579834 3.501404 " transform="matrix(1.333333,0,0,1.333333,229.949992,194.085368)"/>
<path style=" stroke:none;fill-rule:nonzero;fill:rgb(0%,0%,0%);fill-opacity:1;" d="M 229.945312 208.933594 C 229.320312 208.933594 228.828125 209.101562 228.472656 209.433594 C 228.113281 209.769531 227.933594 210.230469 227.933594 210.816406 C 227.933594 211.402344 228.113281 211.859375 228.472656 212.195312 C 228.828125 212.53125 229.320312 212.699219 229.945312 212.699219 C 230.570312 212.699219 231.0625 212.53125 231.421875 212.195312 C 231.785156 211.855469 231.964844 211.398438 231.964844 210.816406 C 231.964844 210.230469 231.785156 209.769531 231.425781 209.433594 C 231.070312 209.101562 230.578125 208.933594 229.945312 208.933594 Z M 228.632812 208.375 C 228.066406 208.234375 227.628906 207.972656 227.3125 207.585938 C 227 207.199219 226.839844 206.726562 226.839844 206.171875 C 226.839844 205.398438 227.117188 204.78125 227.671875 204.332031 C 228.226562 203.878906 228.984375 203.652344 229.945312 203.652344 C 230.914062 203.652344 231.671875 203.878906 232.226562 204.332031 C 232.777344 204.78125 233.050781 205.398438 233.050781 206.171875 C 233.050781 206.726562 232.894531 207.199219 232.578125 207.585938 C 232.265625 207.972656 231.828125 208.234375 231.269531 208.375 C 231.902344 208.523438 232.394531 208.8125 232.746094 209.242188 C 233.101562 209.671875 233.277344 210.195312 233.277344 210.816406 C 233.277344 211.757812 232.992188 212.480469 232.417969 212.984375 C 231.839844 213.488281 231.019531 213.738281 229.945312 213.738281 C 228.875 213.738281 228.050781 213.488281 227.476562 212.984375 C 226.898438 212.480469 226.613281 211.757812 226.613281 210.816406 C 226.613281 210.195312 226.789062 209.671875 227.144531 209.242188 C 227.503906 208.8125 227.996094 208.523438 228.632812 208.375 Z M 228.148438 206.296875 C 228.148438 206.800781 228.308594 207.191406 228.621094 207.476562 C 228.9375 207.757812 229.378906 207.898438 229.945312 207.898438 C 230.511719 207.898438 230.953125 207.757812 231.269531 207.476562 C 231.589844 207.191406 231.75 206.800781 231.75 206.296875 C 231.75 205.792969 231.589844 205.402344 231.269531 205.117188 C 230.953125 204.835938 230.511719 204.695312 229.945312 204.695312 C 229.378906 204.695312 228.9375 204.835938 228.621094 205.117188 C 228.308594 205.402344 228.148438 205.792969 228.148438 206.296875 Z M 228.148438 206.296875 "/>
<g clip-path="url(#clip5)" clip-rule="nonzero">
<path style="fill:none;stroke-width:0.8;stroke-linecap:square;stroke-linejoin:round;stroke:rgb(69.01961%,69.01961%,69.01961%);stroke-opacity:1;stroke-miterlimit:4;" d="M 215.862305 145.564453 L 215.862305 9.665039 " transform="matrix(1.333333,0,0,1.333333,0.000000000000028422,0)"/>
</g>
<path style="fill:none;stroke-width:0.8;stroke-linecap:butt;stroke-linejoin:round;stroke:rgb(0%,0%,0%);stroke-opacity:1;stroke-miterlimit:4;" d="M -0.000198364 0.000427246 L -0.000198364 3.501404 " transform="matrix(1.333333,0,0,1.333333,287.816671,194.085368)"/>
<path style=" stroke:none;fill-rule:nonzero;fill:rgb(0%,0%,0%);fill-opacity:1;" d="M 280.988281 212.445312 L 283.136719 212.445312 L 283.136719 205.027344 L 280.796875 205.496094 L 280.796875 204.296875 L 283.121094 203.828125 L 284.4375 203.828125 L 284.4375 212.445312 L 286.585938 212.445312 L 286.585938 213.550781 L 280.988281 213.550781 Z M 280.988281 212.445312 "/>
<path style=" stroke:none;fill-rule:nonzero;fill:rgb(0%,0%,0%);fill-opacity:1;" d="M 292.054688 204.695312 C 291.378906 204.695312 290.867188 205.027344 290.527344 205.695312 C 290.1875 206.359375 290.015625 207.363281 290.015625 208.699219 C 290.015625 210.03125 290.1875 211.03125 290.527344 211.699219 C 290.867188 212.363281 291.378906 212.699219 292.054688 212.699219 C 292.734375 212.699219 293.246094 212.363281 293.585938 211.699219 C 293.929688 211.03125 294.101562 210.03125 294.101562 208.699219 C 294.101562 207.363281 293.929688 206.359375 293.585938 205.695312 C 293.246094 205.027344 292.734375 204.695312 292.054688 204.695312 Z M 292.054688 203.652344 C 293.144531 203.652344 293.976562 204.085938 294.550781 204.949219 C 295.125 205.808594 295.414062 207.058594 295.414062 208.699219 C 295.414062 210.335938 295.125 211.585938 294.550781 212.449219 C 293.976562 213.308594 293.144531 213.738281 292.054688 213.738281 C 290.964844 213.738281 290.132812 213.308594 289.558594 212.449219 C 288.984375 211.585938 288.695312 210.335938 288.695312 208.699219 C 288.695312 207.058594 288.984375 205.808594 289.558594 204.949219 C 290.132812 204.085938 290.964844 203.652344 292.054688 203.652344 Z M 292.054688 203.652344 "/>
<path style=" stroke:none;fill-rule:nonzero;fill:rgb(0%,0%,0%);fill-opacity:1;" d="M 144.804688 227.839844 L 144.804688 228.425781 L 139.296875 228.425781 C 139.351562 229.253906 139.597656 229.878906 140.042969 230.3125 C 140.488281 230.746094 141.109375 230.960938 141.902344 230.960938 C 142.363281 230.960938 142.808594 230.902344 143.238281 230.792969 C 143.671875 230.679688 144.101562 230.507812 144.527344 230.285156 L 144.527344 231.417969 C 144.097656 231.597656 143.65625 231.738281 143.203125 231.832031 C 142.753906 231.929688 142.296875 231.976562 141.832031 231.976562 C 140.667969 231.976562 139.746094 231.640625 139.066406 230.960938 C 138.386719 230.285156 138.046875 229.367188 138.046875 228.210938 C 138.046875 227.019531 138.371094 226.074219 139.015625 225.371094 C 139.660156 224.671875 140.527344 224.320312 141.621094 224.320312 C 142.601562 224.320312 143.378906 224.636719 143.949219 225.269531 C 144.519531 225.898438 144.804688 226.757812 144.804688 227.839844 Z M 143.609375 227.488281 C 143.601562 226.835938 143.417969 226.3125 143.058594 225.921875 C 142.699219 225.53125 142.226562 225.335938 141.636719 225.335938 C 140.96875 225.335938 140.433594 225.523438 140.03125 225.902344 C 139.628906 226.28125 139.398438 226.8125 139.335938 227.496094 Z M 143.609375 227.488281 "/>
<path style=" stroke:none;fill-rule:nonzero;fill:rgb(0%,0%,0%);fill-opacity:1;" d="M 147.929688 230.695312 L 147.929688 234.558594 L 146.726562 234.558594 L 146.726562 224.496094 L 147.929688 224.496094 L 147.929688 225.601562 C 148.183594 225.167969 148.5 224.847656 148.882812 224.636719 C 149.269531 224.425781 149.726562 224.320312 150.261719 224.320312 C 151.148438 224.320312 151.867188 224.671875 152.417969 225.375 C 152.972656 226.078125 153.25 227.003906 153.25 228.148438 C 153.25 229.292969 152.972656 230.21875 152.417969 230.921875 C 151.867188 231.625 151.148438 231.976562 150.261719 231.976562 C 149.726562 231.976562 149.269531 231.871094 148.882812 231.660156 C 148.5 231.449219 148.183594 231.128906 147.929688 230.695312 Z M 152.007812 228.148438 C 152.007812 227.265625 151.824219 226.578125 151.464844 226.074219 C 151.101562 225.574219 150.601562 225.324219 149.96875 225.324219 C 149.335938 225.324219 148.835938 225.574219 148.472656 226.074219 C 148.113281 226.578125 147.929688 227.265625 147.929688 228.148438 C 147.929688 229.027344 148.113281 229.71875 148.472656 230.222656 C 148.835938 230.722656 149.335938 230.972656 149.96875 230.972656 C 150.601562 230.972656 151.101562 230.722656 151.464844 230.222656 C 151.824219 229.71875 152.007812 229.027344 152.007812 228.148438 Z M 152.007812 228.148438 "/>
<path style=" stroke:none;fill-rule:nonzero;fill:rgb(0%,0%,0%);fill-opacity:1;" d="M 158.058594 225.335938 C 157.417969 225.335938 156.910156 225.585938 156.539062 226.085938 C 156.164062 226.589844 155.976562 227.277344 155.976562 228.148438 C 155.976562 229.019531 156.164062 229.707031 156.535156 230.207031 C 156.90625 230.710938 157.414062 230.960938 158.058594 230.960938 C 158.699219 230.960938 159.203125 230.707031 159.578125 230.207031 C 159.949219 229.703125 160.136719 229.015625 160.136719 228.148438 C 160.136719 227.285156 159.949219 226.597656 159.578125 226.09375 C 159.203125 225.589844 158.699219 225.335938 158.058594 225.335938 Z M 158.058594 224.320312 C 159.101562 224.320312 159.921875 224.660156 160.515625 225.335938 C 161.109375 226.015625 161.410156 226.949219 161.410156 228.148438 C 161.410156 229.339844 161.109375 230.277344 160.515625 230.957031 C 159.921875 231.636719 159.101562 231.976562 158.058594 231.976562 C 157.015625 231.976562 156.195312 231.636719 155.601562 230.957031 C 155.011719 230.277344 154.714844 229.339844 154.714844 228.148438 C 154.714844 226.949219 155.011719 226.015625 155.601562 225.335938 C 156.195312 224.660156 157.015625 224.320312 158.058594 224.320312 Z M 158.058594 224.320312 "/>
<path style=" stroke:none;fill-rule:nonzero;fill:rgb(0%,0%,0%);fill-opacity:1;" d="M 168.640625 224.773438 L 168.640625 225.894531 C 168.300781 225.707031 167.960938 225.566406 167.621094 225.476562 C 167.28125 225.382812 166.9375 225.335938 166.589844 225.335938 C 165.8125 225.335938 165.207031 225.582031 164.777344 226.074219 C 164.347656 226.566406 164.132812 227.257812 164.132812 228.148438 C 164.132812 229.039062 164.347656 229.730469 164.777344 230.222656 C 165.207031 230.714844 165.8125 230.960938 166.589844 230.960938 C 166.9375 230.960938 167.28125 230.914062 167.621094 230.820312 C 167.960938 230.726562 168.300781 230.585938 168.640625 230.398438 L 168.640625 231.507812 C 168.304688 231.664062 167.960938 231.78125 167.601562 231.859375 C 167.246094 231.9375 166.863281 231.976562 166.460938 231.976562 C 165.359375 231.976562 164.488281 231.632812 163.839844 230.941406 C 163.195312 230.25 162.871094 229.320312 162.871094 228.148438 C 162.871094 226.957031 163.199219 226.023438 163.851562 225.34375 C 164.503906 224.660156 165.402344 224.320312 166.539062 224.320312 C 166.90625 224.320312 167.265625 224.359375 167.617188 224.433594 C 167.96875 224.511719 168.308594 224.625 168.640625 224.773438 Z M 168.640625 224.773438 "/>
<path style=" stroke:none;fill-rule:nonzero;fill:rgb(0%,0%,0%);fill-opacity:1;" d="M 176.785156 227.386719 L 176.785156 231.789062 L 175.589844 231.789062 L 175.589844 227.425781 C 175.589844 226.734375 175.453125 226.21875 175.183594 225.878906 C 174.914062 225.535156 174.511719 225.363281 173.972656 225.363281 C 173.328125 225.363281 172.816406 225.570312 172.441406 225.980469 C 172.070312 226.390625 171.882812 226.953125 171.882812 227.667969 L 171.882812 231.789062 L 170.679688 231.789062 L 170.679688 221.65625 L 171.882812 221.65625 L 171.882812 225.628906 C 172.167969 225.191406 172.507812 224.863281 172.894531 224.644531 C 173.285156 224.429688 173.730469 224.320312 174.242188 224.320312 C 175.078125 224.320312 175.710938 224.578125 176.140625 225.097656 C 176.570312 225.617188 176.785156 226.378906 176.785156 227.386719 Z M 176.785156 227.386719 "/>
<g clip-path="url(#clip6)" clip-rule="nonzero">
<path style="fill:none;stroke-width:0.8;stroke-linecap:square;stroke-linejoin:round;stroke:rgb(69.01961%,69.01961%,69.01961%);stroke-opacity:1;stroke-miterlimit:4;" d="M 20.563477 143.185547 L 215.862305 143.185547 " transform="matrix(1.333333,0,0,1.333333,0.000000000000028422,0)"/>
</g>
<path style="fill:none;stroke-width:0.8;stroke-linecap:butt;stroke-linejoin:round;stroke:rgb(0%,0%,0%);stroke-opacity:1;stroke-miterlimit:4;" d="M 0.000976562 0.000366211 L -3.5 0.000366211 " transform="matrix(1.333333,0,0,1.333333,27.416667,190.913574)"/>
<path style=" stroke:none;fill-rule:nonzero;fill:rgb(0%,0%,0%);fill-opacity:1;" d="M 11.253906 194.871094 L 13.402344 194.871094 L 13.402344 187.457031 L 11.066406 187.925781 L 11.066406 186.726562 L 13.390625 186.257812 L 14.703125 186.257812 L 14.703125 194.871094 L 16.851562 194.871094 L 16.851562 195.980469 L 11.253906 195.980469 Z M 11.253906 194.871094 "/>
<g clip-path="url(#clip7)" clip-rule="nonzero">
<path style="fill:none;stroke-width:0.8;stroke-linecap:square;stroke-linejoin:round;stroke:rgb(69.01961%,69.01961%,69.01961%);stroke-opacity:1;stroke-miterlimit:4;" d="M 20.563477 110.138672 L 215.862305 110.138672 " transform="matrix(1.333333,0,0,1.333333,0.000000000000028422,0)"/>
</g>
<path style="fill:none;stroke-width:0.8;stroke-linecap:butt;stroke-linejoin:round;stroke:rgb(0%,0%,0%);stroke-opacity:1;stroke-miterlimit:4;" d="M 0.000976562 -0.0000152588 L -3.5 -0.0000152588 " transform="matrix(1.333333,0,0,1.333333,27.416667,146.851583)"/>
<path style=" stroke:none;fill-rule:nonzero;fill:rgb(0%,0%,0%);fill-opacity:1;" d="M 12.160156 150.8125 L 16.746094 150.8125 L 16.746094 151.917969 L 10.578125 151.917969 L 10.578125 150.8125 C 11.074219 150.292969 11.753906 149.601562 12.617188 148.730469 C 13.480469 147.859375 14.019531 147.300781 14.242188 147.046875 C 14.664062 146.574219 14.957031 146.175781 15.121094 145.847656 C 15.289062 145.519531 15.375 145.195312 15.375 144.878906 C 15.375 144.363281 15.195312 143.941406 14.832031 143.617188 C 14.46875 143.289062 13.996094 143.128906 13.414062 143.128906 C 13.003906 143.128906 12.566406 143.199219 12.109375 143.34375 C 11.652344 143.484375 11.164062 143.703125 10.640625 143.996094 L 10.640625 142.664062 C 11.171875 142.453125 11.664062 142.292969 12.125 142.183594 C 12.585938 142.074219 13.007812 142.019531 13.390625 142.019531 C 14.398438 142.019531 15.199219 142.273438 15.796875 142.777344 C 16.398438 143.28125 16.695312 143.953125 16.695312 144.792969 C 16.695312 145.195312 16.621094 145.574219 16.472656 145.933594 C 16.320312 146.289062 16.050781 146.710938 15.652344 147.195312 C 15.546875 147.324219 15.199219 147.6875 14.617188 148.289062 C 14.039062 148.890625 13.21875 149.730469 12.160156 150.8125 Z M 12.160156 150.8125 "/>
<g clip-path="url(#clip8)" clip-rule="nonzero">
<path style="fill:none;stroke-width:0.8;stroke-linecap:square;stroke-linejoin:round;stroke:rgb(69.01961%,69.01961%,69.01961%);stroke-opacity:1;stroke-miterlimit:4;" d="M 20.563477 77.091797 L 215.862305 77.091797 " transform="matrix(1.333333,0,0,1.333333,0.000000000000028422,0)"/>
</g>
<path style="fill:none;stroke-width:0.8;stroke-linecap:butt;stroke-linejoin:round;stroke:rgb(0%,0%,0%);stroke-opacity:1;stroke-miterlimit:4;" d="M 0.000976562 -0.000404358 L -3.5 -0.000404358 " transform="matrix(1.333333,0,0,1.333333,27.416667,102.789602)"/>
<path style=" stroke:none;fill-rule:nonzero;fill:rgb(0%,0%,0%);fill-opacity:1;" d="M 15.011719 102.613281 C 15.640625 102.75 16.128906 103.027344 16.484375 103.457031 C 16.835938 103.878906 17.015625 104.40625 17.015625 105.03125 C 17.015625 105.988281 16.683594 106.730469 16.023438 107.257812 C 15.367188 107.78125 14.429688 108.042969 13.210938 108.042969 C 12.804688 108.042969 12.386719 108.003906 11.953125 107.925781 C 11.523438 107.84375 11.078125 107.722656 10.617188 107.5625 L 10.617188 106.292969 C 10.980469 106.503906 11.378906 106.664062 11.8125 106.773438 C 12.246094 106.882812 12.703125 106.9375 13.175781 106.9375 C 14 106.9375 14.625 106.773438 15.058594 106.449219 C 15.492188 106.125 15.707031 105.652344 15.707031 105.03125 C 15.707031 104.457031 15.503906 104.007812 15.105469 103.6875 C 14.703125 103.363281 14.144531 103.199219 13.429688 103.199219 L 12.296875 103.199219 L 12.296875 102.121094 L 13.480469 102.121094 C 14.128906 102.121094 14.621094 101.992188 14.964844 101.730469 C 15.308594 101.472656 15.480469 101.101562 15.480469 100.617188 C 15.480469 100.117188 15.300781 99.734375 14.949219 99.46875 C 14.59375 99.199219 14.089844 99.066406 13.429688 99.066406 C 13.066406 99.066406 12.679688 99.105469 12.269531 99.183594 C 11.855469 99.261719 11.402344 99.382812 10.910156 99.546875 L 10.910156 98.375 C 11.410156 98.238281 11.875 98.132812 12.3125 98.0625 C 12.75 97.992188 13.160156 97.960938 13.546875 97.960938 C 14.542969 97.960938 15.335938 98.1875 15.914062 98.640625 C 16.496094 99.09375 16.789062 99.707031 16.789062 100.476562 C 16.789062 101.015625 16.632812 101.472656 16.324219 101.84375 C 16.015625 102.214844 15.578125 102.46875 15.011719 102.613281 Z M 15.011719 102.613281 "/>
<g clip-path="url(#clip9)" clip-rule="nonzero">
<path style="fill:none;stroke-width:0.8;stroke-linecap:square;stroke-linejoin:round;stroke:rgb(69.01961%,69.01961%,69.01961%);stroke-opacity:1;stroke-miterlimit:4;" d="M 20.563477 44.044922 L 215.862305 44.044922 " transform="matrix(1.333333,0,0,1.333333,0.000000000000028422,0)"/>
</g>
<path style="fill:none;stroke-width:0.8;stroke-linecap:butt;stroke-linejoin:round;stroke:rgb(0%,0%,0%);stroke-opacity:1;stroke-miterlimit:4;" d="M 0.000976562 -0.000785828 L -3.5 -0.000785828 " transform="matrix(1.333333,0,0,1.333333,27.416667,58.72761)"/>
<path style=" stroke:none;fill-rule:nonzero;fill:rgb(0%,0%,0%);fill-opacity:1;" d="M 14.640625 55.21875 L 11.320312 60.40625 L 14.640625 60.40625 Z M 14.292969 54.074219 L 15.949219 54.074219 L 15.949219 60.40625 L 17.335938 60.40625 L 17.335938 61.5 L 15.949219 61.5 L 15.949219 63.792969 L 14.640625 63.792969 L 14.640625 61.5 L 10.253906 61.5 L 10.253906 60.234375 Z M 14.292969 54.074219 "/>
<g clip-path="url(#clip10)" clip-rule="nonzero">
<path style="fill:none;stroke-width:0.8;stroke-linecap:square;stroke-linejoin:round;stroke:rgb(69.01961%,69.01961%,69.01961%);stroke-opacity:1;stroke-miterlimit:4;" d="M 20.563477 10.998047 L 215.862305 10.998047 " transform="matrix(1.333333,0,0,1.333333,0.000000000000028422,0)"/>
</g>
<path style="fill:none;stroke-width:0.8;stroke-linecap:butt;stroke-linejoin:round;stroke:rgb(0%,0%,0%);stroke-opacity:1;stroke-miterlimit:4;" d="M 0.000976562 -0.00117207 L -3.5 -0.00117207 " transform="matrix(1.333333,0,0,1.333333,27.416667,14.665625)"/>
<path style=" stroke:none;fill-rule:nonzero;fill:rgb(0%,0%,0%);fill-opacity:1;" d="M 11.039062 10.011719 L 16.203125 10.011719 L 16.203125 11.117188 L 12.242188 11.117188 L 12.242188 13.5 C 12.433594 13.433594 12.625 13.386719 12.816406 13.355469 C 13.007812 13.320312 13.199219 13.304688 13.390625 13.304688 C 14.472656 13.304688 15.332031 13.601562 15.964844 14.199219 C 16.601562 14.792969 16.917969 15.597656 16.917969 16.613281 C 16.917969 17.660156 16.59375 18.472656 15.941406 19.050781 C 15.289062 19.632812 14.371094 19.921875 13.1875 19.921875 C 12.777344 19.921875 12.363281 19.886719 11.941406 19.816406 C 11.515625 19.746094 11.082031 19.644531 10.628906 19.503906 L 10.628906 18.179688 C 11.019531 18.394531 11.421875 18.550781 11.839844 18.65625 C 12.257812 18.761719 12.695312 18.8125 13.160156 18.8125 C 13.910156 18.8125 14.507812 18.617188 14.945312 18.222656 C 15.382812 17.828125 15.601562 17.289062 15.601562 16.613281 C 15.601562 15.9375 15.382812 15.402344 14.945312 15.007812 C 14.507812 14.609375 13.910156 14.414062 13.160156 14.414062 C 12.808594 14.414062 12.457031 14.453125 12.109375 14.527344 C 11.757812 14.605469 11.402344 14.726562 11.039062 14.894531 Z M 11.039062 10.011719 "/>
<g clip-path="url(#clip11)" clip-rule="nonzero">
<path style="fill:none;stroke-width:1.5;stroke-linecap:square;stroke-linejoin:round;stroke:rgb(12.156863%,46.666667%,70.588237%);stroke-opacity:1;stroke-miterlimit:4;" d="M 3.061523 15.84082 L 7.262695 17.935547 L 11.463867 19.708008 L 15.662109 20.891602 L 19.863281 22.318359 L 20.563477 22.831055 L 24.761719 42.213867 L 28.962891 43.939453 L 33.161133 46.907227 L 37.362305 50.607422 L 41.563477 53.34375 L 42.263672 53.660156 L 46.461914 76.746094 L 50.663086 78.65332 L 54.861328 80.917969 L 59.0625 82.125 L 63.263672 82.986328 L 63.963867 83.100586 L 68.162109 99.09375 L 72.363281 101.765625 L 76.561523 102.193359 L 80.762695 104.25 L 84.963867 103.939453 L 85.661133 103.833984 L 89.862305 114.893555 L 94.063477 112.075195 L 98.261719 114.679688 L 102.462891 115.180664 L 106.661133 115.107422 L 107.361328 115.836914 L 111.5625 123 L 115.763672 124.602539 L 119.961914 124.541016 L 124.163086 123.94043 L 128.361328 123.899414 L 129.061523 123.240234 L 133.262695 129.556641 L 137.463867 129.123047 L 141.662109 127.719727 L 145.863281 126.363281 L 150.061523 125.191406 L 150.761719 124.916016 L 154.962891 133.013672 L 159.161133 134.601562 L 163.362305 131.947266 L 167.563477 129.93457 L 171.761719 130.543945 L 172.461914 130.790039 L 176.663086 132.131836 L 180.861328 131.094727 L 185.0625 132.688477 L 189.263672 134.244141 L 193.461914 133.907227 L 194.162109 133.576172 L 198.363281 137.891602 L 202.561523 139.385742 L 206.762695 138.457031 L 210.963867 136.130859 L 215.162109 134.496094 L 215.862305 134.162109 " transform="matrix(1.333333,0,0,1.333333,0.000000000000028422,0)"/>
</g>
<path style="fill:none;stroke-width:0.8;stroke-linecap:square;stroke-linejoin:miter;stroke:rgb(0%,0%,0%);stroke-opacity:1;stroke-miterlimit:4;" d="M 20.563477 145.564453 L 20.563477 9.665039 " transform="matrix(1.333333,0,0,1.333333,0.000000000000028422,0)"/>
<path style="fill:none;stroke-width:0.8;stroke-linecap:square;stroke-linejoin:miter;stroke:rgb(0%,0%,0%);stroke-opacity:1;stroke-miterlimit:4;" d="M 215.862305 145.564453 L 215.862305 9.665039 " transform="matrix(1.333333,0,0,1.333333,0.000000000000028422,0)"/>
<path style="fill:none;stroke-width:0.8;stroke-linecap:square;stroke-linejoin:miter;stroke:rgb(0%,0%,0%);stroke-opacity:1;stroke-miterlimit:4;" d="M 20.563477 145.564453 L 215.862305 145.564453 " transform="matrix(1.333333,0,0,1.333333,0.000000000000028422,0)"/>
<path style="fill:none;stroke-width:0.8;stroke-linecap:square;stroke-linejoin:miter;stroke:rgb(0%,0%,0%);stroke-opacity:1;stroke-miterlimit:4;" d="M 20.563477 9.665039 L 215.862305 9.665039 " transform="matrix(1.333333,0,0,1.333333,0.000000000000028422,0)"/>
<use xlink:href="#surface5" mask="url(#mask0)"/>
<path style="fill:none;stroke-width:1.5;stroke-linecap:square;stroke-linejoin:round;stroke:rgb(12.156863%,46.666667%,70.588237%);stroke-opacity:1;stroke-miterlimit:4;" d="M 133.092773 22.763672 L 153.09375 22.763672 " transform="matrix(1.333333,0,0,1.333333,0.000000000000028422,0)"/>
<path style=" stroke:none;fill-rule:nonzero;fill:rgb(0%,0%,0%);fill-opacity:1;" d="M 217.234375 25.652344 L 217.234375 27.726562 L 219.699219 27.726562 L 219.699219 28.65625 L 217.234375 28.65625 L 217.234375 32.613281 C 217.234375 33.210938 217.316406 33.589844 217.476562 33.761719 C 217.640625 33.929688 217.972656 34.015625 218.472656 34.015625 L 219.699219 34.015625 L 219.699219 35.015625 L 218.472656 35.015625 C 217.546875 35.015625 216.90625 34.84375 216.554688 34.5 C 216.203125 34.152344 216.027344 33.527344 216.027344 32.613281 L 216.027344 28.65625 L 215.148438 28.65625 L 215.148438 27.726562 L 216.027344 27.726562 L 216.027344 25.652344 Z M 217.234375 25.652344 "/>
<path style=" stroke:none;fill-rule:nonzero;fill:rgb(0%,0%,0%);fill-opacity:1;" d="M 225.5 28.84375 C 225.367188 28.765625 225.21875 28.710938 225.0625 28.671875 C 224.902344 28.636719 224.730469 28.617188 224.539062 28.617188 C 223.859375 28.617188 223.339844 28.835938 222.976562 29.277344 C 222.617188 29.71875 222.433594 30.351562 222.433594 31.175781 L 222.433594 35.015625 L 221.230469 35.015625 L 221.230469 27.726562 L 222.433594 27.726562 L 222.433594 28.859375 C 222.6875 28.414062 223.015625 28.085938 223.417969 27.871094 C 223.820312 27.65625 224.3125 27.550781 224.890625 27.550781 C 224.972656 27.550781 225.0625 27.554688 225.164062 27.566406 C 225.261719 27.578125 225.375 27.59375 225.496094 27.613281 Z M 225.5 28.84375 "/>
<path style=" stroke:none;fill-rule:nonzero;fill:rgb(0%,0%,0%);fill-opacity:1;" d="M 230.070312 31.351562 C 229.105469 31.351562 228.433594 31.460938 228.058594 31.683594 C 227.6875 31.902344 227.5 32.28125 227.5 32.816406 C 227.5 33.242188 227.640625 33.578125 227.921875 33.828125 C 228.199219 34.078125 228.582031 34.203125 229.0625 34.203125 C 229.726562 34.203125 230.261719 33.964844 230.660156 33.496094 C 231.0625 33.023438 231.265625 32.398438 231.265625 31.617188 L 231.265625 31.351562 Z M 232.460938 30.855469 L 232.460938 35.015625 L 231.265625 35.015625 L 231.265625 33.910156 C 230.988281 34.351562 230.648438 34.679688 230.242188 34.890625 C 229.832031 35.101562 229.332031 35.207031 228.742188 35.207031 C 227.996094 35.207031 227.402344 34.996094 226.960938 34.578125 C 226.519531 34.15625 226.300781 33.597656 226.300781 32.894531 C 226.300781 32.074219 226.574219 31.457031 227.125 31.039062 C 227.675781 30.621094 228.492188 30.414062 229.582031 30.414062 L 231.265625 30.414062 L 231.265625 30.296875 C 231.265625 29.746094 231.082031 29.316406 230.71875 29.015625 C 230.359375 28.714844 229.847656 28.566406 229.191406 28.566406 C 228.777344 28.566406 228.371094 28.613281 227.972656 28.714844 C 227.578125 28.816406 227.199219 28.964844 226.835938 29.164062 L 226.835938 28.054688 C 227.273438 27.886719 227.699219 27.761719 228.113281 27.675781 C 228.523438 27.59375 228.925781 27.550781 229.316406 27.550781 C 230.371094 27.550781 231.160156 27.824219 231.679688 28.371094 C 232.203125 28.917969 232.460938 29.746094 232.460938 30.855469 Z M 232.460938 30.855469 "/>
<path style=" stroke:none;fill-rule:nonzero;fill:rgb(0%,0%,0%);fill-opacity:1;" d="M 234.929688 27.726562 L 236.125 27.726562 L 236.125 35.015625 L 234.929688 35.015625 Z M 234.929688 24.886719 L 236.125 24.886719 L 236.125 26.402344 L 234.929688 26.402344 Z M 234.929688 24.886719 "/>
<path style=" stroke:none;fill-rule:nonzero;fill:rgb(0%,0%,0%);fill-opacity:1;" d="M 244.695312 30.613281 L 244.695312 35.015625 L 243.496094 35.015625 L 243.496094 30.652344 C 243.496094 29.964844 243.363281 29.449219 243.09375 29.105469 C 242.824219 28.761719 242.421875 28.589844 241.882812 28.589844 C 241.234375 28.589844 240.726562 28.796875 240.351562 29.210938 C 239.976562 29.621094 239.789062 30.183594 239.789062 30.894531 L 239.789062 35.015625 L 238.585938 35.015625 L 238.585938 27.726562 L 239.789062 27.726562 L 239.789062 28.859375 C 240.078125 28.417969 240.414062 28.089844 240.804688 27.875 C 241.191406 27.660156 241.640625 27.550781 242.148438 27.550781 C 242.988281 27.550781 243.621094 27.808594 244.050781 28.328125 C 244.480469 28.84375 244.695312 29.609375 244.695312 30.613281 Z M 244.695312 30.613281 "/>
<path style=" stroke:none;fill-rule:nonzero;fill:rgb(0%,0%,0%);fill-opacity:1;" d="M 251.320312 24.886719 L 252.519531 24.886719 L 252.519531 35.015625 L 251.320312 35.015625 Z M 251.320312 24.886719 "/>
<path style=" stroke:none;fill-rule:nonzero;fill:rgb(0%,0%,0%);fill-opacity:1;" d="M 257.851562 28.566406 C 257.210938 28.566406 256.703125 28.816406 256.328125 29.316406 C 255.953125 29.816406 255.765625 30.503906 255.765625 31.378906 C 255.765625 32.25 255.953125 32.9375 256.324219 33.4375 C 256.695312 33.9375 257.203125 34.191406 257.851562 34.191406 C 258.488281 34.191406 258.996094 33.9375 259.367188 33.433594 C 259.742188 32.929688 259.929688 32.246094 259.929688 31.378906 C 259.929688 30.511719 259.742188 29.828125 259.367188 29.324219 C 258.996094 28.816406 258.488281 28.566406 257.851562 28.566406 Z M 257.851562 27.550781 C 258.890625 27.550781 259.710938 27.890625 260.304688 28.566406 C 260.902344 29.242188 261.199219 30.179688 261.199219 31.378906 C 261.199219 32.570312 260.902344 33.507812 260.304688 34.1875 C 259.710938 34.867188 258.890625 35.207031 257.851562 35.207031 C 256.804688 35.207031 255.984375 34.867188 255.390625 34.1875 C 254.800781 33.507812 254.503906 32.570312 254.503906 31.378906 C 254.503906 30.179688 254.800781 29.242188 255.390625 28.566406 C 255.984375 27.890625 256.804688 27.550781 257.851562 27.550781 Z M 257.851562 27.550781 "/>
<path style=" stroke:none;fill-rule:nonzero;fill:rgb(0%,0%,0%);fill-opacity:1;" d="M 267.832031 27.941406 L 267.832031 29.074219 C 267.492188 28.898438 267.140625 28.769531 266.777344 28.683594 C 266.414062 28.597656 266.035156 28.550781 265.644531 28.550781 C 265.050781 28.550781 264.601562 28.644531 264.304688 28.824219 C 264.007812 29.007812 263.859375 29.28125 263.859375 29.644531 C 263.859375 29.921875 263.964844 30.140625 264.179688 30.300781 C 264.390625 30.457031 264.820312 30.609375 265.460938 30.753906 L 265.871094 30.84375 C 266.722656 31.027344 267.328125 31.28125 267.683594 31.613281 C 268.042969 31.945312 268.222656 32.410156 268.222656 33.003906 C 268.222656 33.683594 267.953125 34.21875 267.417969 34.613281 C 266.882812 35.007812 266.144531 35.207031 265.207031 35.207031 C 264.816406 35.207031 264.410156 35.167969 263.988281 35.089844 C 263.5625 35.015625 263.117188 34.902344 262.648438 34.75 L 262.648438 33.511719 C 263.09375 33.742188 263.527344 33.914062 263.957031 34.03125 C 264.386719 34.144531 264.8125 34.203125 265.234375 34.203125 C 265.800781 34.203125 266.234375 34.105469 266.535156 33.914062 C 266.839844 33.71875 266.992188 33.445312 266.992188 33.097656 C 266.992188 32.769531 266.882812 32.523438 266.664062 32.347656 C 266.445312 32.175781 265.964844 32.007812 265.222656 31.847656 L 264.804688 31.746094 C 264.0625 31.59375 263.527344 31.351562 263.195312 31.027344 C 262.867188 30.707031 262.703125 30.261719 262.703125 29.699219 C 262.703125 29.011719 262.945312 28.484375 263.429688 28.109375 C 263.917969 27.738281 264.609375 27.550781 265.503906 27.550781 C 265.945312 27.550781 266.359375 27.582031 266.75 27.648438 C 267.140625 27.710938 267.503906 27.808594 267.832031 27.941406 Z M 267.832031 27.941406 "/>
<path style=" stroke:none;fill-rule:nonzero;fill:rgb(0%,0%,0%);fill-opacity:1;" d="M 274.777344 27.941406 L 274.777344 29.074219 C 274.441406 28.898438 274.089844 28.769531 273.722656 28.683594 C 273.359375 28.597656 272.980469 28.550781 272.589844 28.550781 C 271.996094 28.550781 271.550781 28.644531 271.253906 28.824219 C 270.957031 29.007812 270.808594 29.28125 270.808594 29.644531 C 270.808594 29.921875 270.914062 30.140625 271.125 30.300781 C 271.339844 30.457031 271.765625 30.609375 272.410156 30.753906 L 272.820312 30.84375 C 273.667969 31.027344 274.273438 31.28125 274.632812 31.613281 C 274.992188 31.945312 275.167969 32.410156 275.167969 33.003906 C 275.167969 33.683594 274.902344 34.21875 274.367188 34.613281 C 273.828125 35.007812 273.09375 35.207031 272.15625 35.207031 C 271.765625 35.207031 271.359375 35.167969 270.933594 35.089844 C 270.511719 35.015625 270.066406 34.902344 269.597656 34.75 L 269.597656 33.511719 C 270.039062 33.742188 270.476562 33.914062 270.90625 34.03125 C 271.335938 34.144531 271.761719 34.203125 272.183594 34.203125 C 272.746094 34.203125 273.179688 34.105469 273.480469 33.914062 C 273.785156 33.71875 273.9375 33.445312 273.9375 33.097656 C 273.9375 32.769531 273.828125 32.523438 273.609375 32.347656 C 273.390625 32.175781 272.910156 32.007812 272.167969 31.847656 L 271.75 31.746094 C 271.007812 31.59375 270.472656 31.351562 270.140625 31.027344 C 269.8125 30.707031 269.648438 30.261719 269.648438 29.699219 C 269.648438 29.011719 269.890625 28.484375 270.378906 28.109375 C 270.863281 27.738281 271.554688 27.550781 272.449219 27.550781 C 272.890625 27.550781 273.304688 27.582031 273.695312 27.648438 C 274.089844 27.710938 274.449219 27.808594 274.777344 27.941406 Z M 274.777344 27.941406 "/>
</g>
</svg>
