<?xml version="1.0" encoding="UTF-8"?>
<svg xmlns="http://www.w3.org/2000/svg" xmlns:xlink="http://www.w3.org/1999/xlink" width="336.858337" height="240.875" viewBox="0 0 336.858337 240.875" version="1.1">
<defs>
<clipPath id="clip1">
  <path d="M 86 9.601562 L 89 9.601562 L 89 190.800781 L 86 190.800781 Z M 86 9.601562 "/>
</clipPath>
<clipPath id="clip2">
  <path d="M 144 9.601562 L 146 9.601562 L 146 190.800781 L 144 190.800781 Z M 144 9.601562 "/>
</clipPath>
<clipPath id="clip3">
  <path d="M 202 9.601562 L 204 9.601562 L 204 190.800781 L 202 190.800781 Z M 202 9.601562 "/>
</clipPath>
<clipPath id="clip4">
  <path d="M 260 9.601562 L 262 9.601562 L 262 190.800781 L 260 190.800781 Z M 260 9.601562 "/>
</clipPath>
<clipPath id="clip5">
  <path d="M 318 9.601562 L 318.773438 9.601562 L 318.773438 190.800781 L 318 190.800781 Z M 318 9.601562 "/>
</clipPath>
<clipPath id="clip6">
  <path d="M 58.375 159 L 318.773438 159 L 318.773438 161 L 58.375 161 Z M 58.375 159 "/>
</clipPath>
<clipPath id="clip7">
  <path d="M 58.375 113 L 318.773438 113 L 318.773438 116 L 58.375 116 Z M 58.375 113 "/>
</clipPath>
<clipPath id="clip8">
  <path d="M 58.375 68 L 318.773438 68 L 318.773438 70 L 58.375 70 Z M 58.375 68 "/>
</clipPath>
<clipPath id="clip9">
  <path d="M 58.375 23 L 318.773438 23 L 318.773438 25 L 58.375 25 Z M 58.375 23 "/>
</clipPath>
<clipPath id="clip10">
  <path d="M 58.375 16 L 318.773438 16 L 318.773438 184 L 58.375 184 Z M 58.375 16 "/>
</clipPath>
</defs>
<g id="surface1">
<path style=" stroke:none;fill-rule:nonzero;fill:rgb(100%,100%,100%);fill-opacity:1;" d="M 58.375 190.800781 L 318.773438 190.800781 L 318.773438 9.601562 L 58.375 9.601562 Z M 58.375 190.800781 "/>
<g clip-path="url(#clip1)" clip-rule="nonzero">
<path style="fill:none;stroke-width:0.8;stroke-linecap:square;stroke-linejoin:round;stroke:rgb(69.01961%,69.01961%,69.01961%);stroke-opacity:1;stroke-miterlimit:4;" d="M 65.481445 143.100586 L 65.481445 7.201172 " transform="matrix(1.333333,0,0,1.333333,0,0)"/>
</g>
<path style="fill:none;stroke-width:0.8;stroke-linecap:butt;stroke-linejoin:round;stroke:rgb(0%,0%,0%);stroke-opacity:1;stroke-miterlimit:4;" d="M 0.000198364 0.000579834 L 0.000198364 3.498627 " transform="matrix(1.333333,0,0,1.333333,87.308329,190.800008)"/>
<path style=" stroke:none;fill-rule:nonzero;fill:rgb(0%,0%,0%);fill-opacity:1;" d="M 85.625 209.160156 L 90.214844 209.160156 L 90.214844 210.265625 L 84.042969 210.265625 L 84.042969 209.160156 C 84.542969 208.640625 85.222656 207.949219 86.082031 207.078125 C 86.945312 206.207031 87.488281 205.648438 87.707031 205.394531 C 88.128906 204.921875 88.421875 204.523438 88.589844 204.195312 C 88.757812 203.867188 88.839844 203.542969 88.839844 203.226562 C 88.839844 202.710938 88.660156 202.289062 88.296875 201.964844 C 87.933594 201.636719 87.464844 201.476562 86.882812 201.476562 C 86.46875 201.476562 86.035156 201.546875 85.574219 201.691406 C 85.117188 201.832031 84.628906 202.050781 84.109375 202.339844 L 84.109375 201.011719 C 84.636719 200.800781 85.132812 200.640625 85.589844 200.53125 C 86.054688 200.421875 86.472656 200.367188 86.855469 200.367188 C 87.863281 200.367188 88.664062 200.621094 89.265625 201.125 C 89.863281 201.628906 90.164062 202.300781 90.164062 203.140625 C 90.164062 203.542969 90.085938 203.921875 89.9375 204.277344 C 89.789062 204.636719 89.515625 205.058594 89.121094 205.542969 C 89.011719 205.671875 88.667969 206.035156 88.085938 206.636719 C 87.503906 207.238281 86.683594 208.078125 85.625 209.160156 Z M 85.625 209.160156 "/>
<g clip-path="url(#clip2)" clip-rule="nonzero">
<path style="fill:none;stroke-width:0.8;stroke-linecap:square;stroke-linejoin:round;stroke:rgb(69.01961%,69.01961%,69.01961%);stroke-opacity:1;stroke-miterlimit:4;" d="M 108.881836 143.100586 L 108.881836 7.201172 " transform="matrix(1.333333,0,0,1.333333,0,0)"/>
</g>
<path style="fill:none;stroke-width:0.8;stroke-linecap:butt;stroke-linejoin:round;stroke:rgb(0%,0%,0%);stroke-opacity:1;stroke-miterlimit:4;" d="M 0.000587463 0.000579834 L 0.000587463 3.498627 " transform="matrix(1.333333,0,0,1.333333,145.174998,190.800008)"/>
<path style=" stroke:none;fill-rule:nonzero;fill:rgb(0%,0%,0%);fill-opacity:1;" d="M 145.972656 201.691406 L 142.652344 206.878906 L 145.972656 206.878906 Z M 145.628906 200.542969 L 147.28125 200.542969 L 147.28125 206.878906 L 148.667969 206.878906 L 148.667969 207.972656 L 147.28125 207.972656 L 147.28125 210.265625 L 145.972656 210.265625 L 145.972656 207.972656 L 141.585938 207.972656 L 141.585938 206.703125 Z M 145.628906 200.542969 "/>
<g clip-path="url(#clip3)" clip-rule="nonzero">
<path style="fill:none;stroke-width:0.8;stroke-linecap:square;stroke-linejoin:round;stroke:rgb(69.01961%,69.01961%,69.01961%);stroke-opacity:1;stroke-miterlimit:4;" d="M 152.282227 143.100586 L 152.282227 7.201172 " transform="matrix(1.333333,0,0,1.333333,0,0)"/>
</g>
<path style="fill:none;stroke-width:0.8;stroke-linecap:butt;stroke-linejoin:round;stroke:rgb(0%,0%,0%);stroke-opacity:1;stroke-miterlimit:4;" d="M 0.000976562 0.000579834 L 0.000976562 3.498627 " transform="matrix(1.333333,0,0,1.333333,203.041667,190.800008)"/>
<path style=" stroke:none;fill-rule:nonzero;fill:rgb(0%,0%,0%);fill-opacity:1;" d="M 203.203125 204.882812 C 202.613281 204.882812 202.144531 205.082031 201.796875 205.488281 C 201.453125 205.890625 201.28125 206.441406 201.28125 207.144531 C 201.28125 207.84375 201.453125 208.398438 201.796875 208.804688 C 202.144531 209.210938 202.613281 209.414062 203.203125 209.414062 C 203.792969 209.414062 204.257812 209.210938 204.605469 208.804688 C 204.949219 208.398438 205.121094 207.84375 205.121094 207.144531 C 205.121094 206.441406 204.949219 205.890625 204.605469 205.488281 C 204.257812 205.082031 203.792969 204.882812 203.203125 204.882812 Z M 205.8125 200.757812 L 205.8125 201.957031 C 205.480469 201.800781 205.148438 201.683594 204.8125 201.601562 C 204.476562 201.515625 204.144531 201.476562 203.8125 201.476562 C 202.945312 201.476562 202.28125 201.769531 201.824219 202.355469 C 201.367188 202.941406 201.105469 203.824219 201.039062 205.011719 C 201.296875 204.632812 201.617188 204.34375 202.003906 204.140625 C 202.390625 203.941406 202.816406 203.839844 203.277344 203.839844 C 204.253906 203.839844 205.027344 204.136719 205.59375 204.730469 C 206.160156 205.320312 206.445312 206.125 206.445312 207.144531 C 206.445312 208.144531 206.148438 208.945312 205.558594 209.550781 C 204.96875 210.152344 204.183594 210.453125 203.203125 210.453125 C 202.078125 210.453125 201.21875 210.023438 200.621094 209.164062 C 200.027344 208.300781 199.730469 207.050781 199.730469 205.414062 C 199.730469 203.878906 200.097656 202.652344 200.824219 201.738281 C 201.554688 200.824219 202.53125 200.367188 203.761719 200.367188 C 204.089844 200.367188 204.425781 200.402344 204.761719 200.464844 C 205.097656 200.53125 205.445312 200.628906 205.8125 200.757812 Z M 205.8125 200.757812 "/>
<g clip-path="url(#clip4)" clip-rule="nonzero">
<path style="fill:none;stroke-width:0.8;stroke-linecap:square;stroke-linejoin:round;stroke:rgb(69.01961%,69.01961%,69.01961%);stroke-opacity:1;stroke-miterlimit:4;" d="M 195.682617 143.100586 L 195.682617 7.201172 " transform="matrix(1.333333,0,0,1.333333,0,0)"/>
</g>
<path style="fill:none;stroke-width:0.8;stroke-linecap:butt;stroke-linejoin:round;stroke:rgb(0%,0%,0%);stroke-opacity:1;stroke-miterlimit:4;" d="M 0.00137329 0.000579834 L 0.00137329 3.498627 " transform="matrix(1.333333,0,0,1.333333,260.908325,190.800008)"/>
<path style=" stroke:none;fill-rule:nonzero;fill:rgb(0%,0%,0%);fill-opacity:1;" d="M 260.902344 205.648438 C 260.277344 205.648438 259.789062 205.816406 259.429688 206.148438 C 259.070312 206.484375 258.894531 206.945312 258.894531 207.527344 C 258.894531 208.117188 259.070312 208.574219 259.429688 208.910156 C 259.789062 209.246094 260.277344 209.414062 260.902344 209.414062 C 261.527344 209.414062 262.023438 209.246094 262.382812 208.910156 C 262.742188 208.570312 262.921875 208.109375 262.921875 207.527344 C 262.921875 206.945312 262.742188 206.484375 262.386719 206.148438 C 262.027344 205.816406 261.535156 205.648438 260.902344 205.648438 Z M 259.589844 205.089844 C 259.027344 204.949219 258.585938 204.6875 258.269531 204.300781 C 257.957031 203.914062 257.800781 203.441406 257.800781 202.886719 C 257.800781 202.109375 258.078125 201.496094 258.628906 201.046875 C 259.183594 200.59375 259.941406 200.367188 260.902344 200.367188 C 261.871094 200.367188 262.632812 200.59375 263.183594 201.046875 C 263.734375 201.496094 264.011719 202.109375 264.011719 202.886719 C 264.011719 203.441406 263.851562 203.914062 263.539062 204.300781 C 263.222656 204.6875 262.785156 204.949219 262.226562 205.089844 C 262.859375 205.238281 263.351562 205.527344 263.707031 205.957031 C 264.058594 206.386719 264.238281 206.910156 264.238281 207.527344 C 264.238281 208.472656 263.949219 209.195312 263.375 209.699219 C 262.800781 210.203125 261.976562 210.453125 260.902344 210.453125 C 259.832031 210.453125 259.007812 210.203125 258.433594 209.699219 C 257.859375 209.195312 257.570312 208.472656 257.570312 207.527344 C 257.570312 206.910156 257.75 206.386719 258.105469 205.957031 C 258.460938 205.527344 258.957031 205.238281 259.589844 205.089844 Z M 259.109375 203.011719 C 259.109375 203.515625 259.265625 203.90625 259.578125 204.191406 C 259.894531 204.472656 260.335938 204.613281 260.902344 204.613281 C 261.46875 204.613281 261.910156 204.472656 262.230469 204.191406 C 262.546875 203.90625 262.707031 203.515625 262.707031 203.011719 C 262.707031 202.507812 262.546875 202.117188 262.230469 201.832031 C 261.910156 201.550781 261.46875 201.410156 260.902344 201.410156 C 260.335938 201.410156 259.894531 201.550781 259.578125 201.832031 C 259.265625 202.117188 259.109375 202.507812 259.109375 203.011719 Z M 259.109375 203.011719 "/>
<g clip-path="url(#clip5)" clip-rule="nonzero">
<path style="fill:none;stroke-width:0.8;stroke-linecap:square;stroke-linejoin:round;stroke:rgb(69.01961%,69.01961%,69.01961%);stroke-opacity:1;stroke-miterlimit:4;" d="M 239.080078 143.100586 L 239.080078 7.201172 " transform="matrix(1.333333,0,0,1.333333,0,0)"/>
</g>
<path style="fill:none;stroke-width:0.8;stroke-linecap:butt;stroke-linejoin:round;stroke:rgb(0%,0%,0%);stroke-opacity:1;stroke-miterlimit:4;" d="M -0.00117493 0.000579834 L -0.00117493 3.498627 " transform="matrix(1.333333,0,0,1.333333,318.775004,190.800008)"/>
<path style=" stroke:none;fill-rule:nonzero;fill:rgb(0%,0%,0%);fill-opacity:1;" d="M 311.945312 209.160156 L 314.09375 209.160156 L 314.09375 201.742188 L 311.757812 202.210938 L 311.757812 201.011719 L 314.082031 200.542969 L 315.394531 200.542969 L 315.394531 209.160156 L 317.542969 209.160156 L 317.542969 210.265625 L 311.945312 210.265625 Z M 311.945312 209.160156 "/>
<path style=" stroke:none;fill-rule:nonzero;fill:rgb(0%,0%,0%);fill-opacity:1;" d="M 323.011719 201.410156 C 322.335938 201.410156 321.828125 201.742188 321.484375 202.410156 C 321.144531 203.074219 320.976562 204.078125 320.976562 205.414062 C 320.976562 206.746094 321.144531 207.746094 321.484375 208.414062 C 321.828125 209.078125 322.335938 209.414062 323.011719 209.414062 C 323.695312 209.414062 324.207031 209.078125 324.546875 208.414062 C 324.886719 207.746094 325.058594 206.746094 325.058594 205.414062 C 325.058594 204.078125 324.886719 203.074219 324.546875 202.410156 C 324.207031 201.742188 323.695312 201.410156 323.011719 201.410156 Z M 323.011719 200.367188 C 324.101562 200.367188 324.933594 200.800781 325.511719 201.664062 C 326.085938 202.523438 326.371094 203.773438 326.371094 205.414062 C 326.371094 207.050781 326.085938 208.300781 325.511719 209.164062 C 324.933594 210.023438 324.101562 210.453125 323.011719 210.453125 C 321.921875 210.453125 321.089844 210.023438 320.515625 209.164062 C 319.941406 208.300781 319.652344 207.050781 319.652344 205.414062 C 319.652344 203.773438 319.941406 202.523438 320.515625 201.664062 C 321.089844 200.800781 321.921875 200.367188 323.011719 200.367188 Z M 323.011719 200.367188 "/>
<path style=" stroke:none;fill-rule:nonzero;fill:rgb(0%,0%,0%);fill-opacity:1;" d="M 175.765625 224.554688 L 175.765625 225.140625 L 170.257812 225.140625 C 170.308594 225.964844 170.558594 226.59375 171.003906 227.027344 C 171.445312 227.460938 172.066406 227.675781 172.859375 227.675781 C 173.320312 227.675781 173.765625 227.617188 174.199219 227.507812 C 174.628906 227.394531 175.058594 227.222656 175.484375 226.996094 L 175.484375 228.132812 C 175.054688 228.3125 174.613281 228.453125 174.164062 228.546875 C 173.710938 228.644531 173.253906 228.691406 172.789062 228.691406 C 171.625 228.691406 170.703125 228.351562 170.023438 227.675781 C 169.347656 227 169.007812 226.082031 169.007812 224.925781 C 169.007812 223.734375 169.328125 222.789062 169.972656 222.085938 C 170.617188 221.386719 171.488281 221.035156 172.582031 221.035156 C 173.5625 221.035156 174.335938 221.351562 174.910156 221.984375 C 175.480469 222.613281 175.765625 223.472656 175.765625 224.554688 Z M 174.566406 224.203125 C 174.558594 223.550781 174.375 223.027344 174.015625 222.636719 C 173.660156 222.246094 173.183594 222.050781 172.59375 222.050781 C 171.925781 222.050781 171.390625 222.238281 170.988281 222.617188 C 170.589844 222.996094 170.355469 223.527344 170.296875 224.210938 Z M 174.566406 224.203125 "/>
<path style=" stroke:none;fill-rule:nonzero;fill:rgb(0%,0%,0%);fill-opacity:1;" d="M 178.886719 227.410156 L 178.886719 231.273438 L 177.683594 231.273438 L 177.683594 221.210938 L 178.886719 221.210938 L 178.886719 222.316406 C 179.140625 221.882812 179.460938 221.5625 179.84375 221.351562 C 180.226562 221.140625 180.6875 221.035156 181.21875 221.035156 C 182.105469 221.035156 182.824219 221.386719 183.378906 222.089844 C 183.933594 222.792969 184.210938 223.714844 184.210938 224.863281 C 184.210938 226.007812 183.933594 226.933594 183.378906 227.636719 C 182.824219 228.339844 182.105469 228.691406 181.21875 228.691406 C 180.6875 228.691406 180.226562 228.585938 179.84375 228.375 C 179.460938 228.164062 179.140625 227.839844 178.886719 227.410156 Z M 182.964844 224.863281 C 182.964844 223.980469 182.785156 223.289062 182.421875 222.789062 C 182.058594 222.289062 181.5625 222.039062 180.929688 222.039062 C 180.292969 222.039062 179.792969 222.289062 179.433594 222.789062 C 179.070312 223.289062 178.886719 223.980469 178.886719 224.863281 C 178.886719 225.742188 179.070312 226.433594 179.433594 226.933594 C 179.792969 227.4375 180.292969 227.6875 180.929688 227.6875 C 181.5625 227.6875 182.058594 227.4375 182.421875 226.933594 C 182.785156 226.433594 182.964844 225.742188 182.964844 224.863281 Z M 182.964844 224.863281 "/>
<path style=" stroke:none;fill-rule:nonzero;fill:rgb(0%,0%,0%);fill-opacity:1;" d="M 189.019531 222.050781 C 188.378906 222.050781 187.871094 222.300781 187.496094 222.800781 C 187.121094 223.304688 186.933594 223.992188 186.933594 224.863281 C 186.933594 225.734375 187.121094 226.421875 187.492188 226.921875 C 187.863281 227.425781 188.371094 227.675781 189.019531 227.675781 C 189.65625 227.675781 190.164062 227.421875 190.535156 226.921875 C 190.910156 226.417969 191.097656 225.730469 191.097656 224.863281 C 191.097656 224 190.910156 223.3125 190.535156 222.808594 C 190.164062 222.304688 189.65625 222.050781 189.019531 222.050781 Z M 189.019531 221.035156 C 190.058594 221.035156 190.878906 221.375 191.472656 222.050781 C 192.070312 222.726562 192.367188 223.664062 192.367188 224.863281 C 192.367188 226.054688 192.070312 226.992188 191.472656 227.671875 C 190.878906 228.351562 190.058594 228.691406 189.019531 228.691406 C 187.972656 228.691406 187.152344 228.351562 186.558594 227.671875 C 185.96875 226.992188 185.671875 226.054688 185.671875 224.863281 C 185.671875 223.664062 185.96875 222.726562 186.558594 222.050781 C 187.152344 221.375 187.972656 221.035156 189.019531 221.035156 Z M 189.019531 221.035156 "/>
<path style=" stroke:none;fill-rule:nonzero;fill:rgb(0%,0%,0%);fill-opacity:1;" d="M 199.597656 221.488281 L 199.597656 222.609375 C 199.261719 222.421875 198.921875 222.28125 198.582031 222.191406 C 198.238281 222.097656 197.894531 222.050781 197.550781 222.050781 C 196.769531 222.050781 196.167969 222.296875 195.738281 222.789062 C 195.308594 223.28125 195.09375 223.972656 195.09375 224.863281 C 195.09375 225.753906 195.308594 226.445312 195.738281 226.9375 C 196.167969 227.429688 196.769531 227.675781 197.550781 227.675781 C 197.894531 227.675781 198.238281 227.628906 198.582031 227.535156 C 198.921875 227.441406 199.261719 227.300781 199.597656 227.113281 L 199.597656 228.222656 C 199.265625 228.378906 198.917969 228.496094 198.558594 228.574219 C 198.203125 228.652344 197.820312 228.691406 197.417969 228.691406 C 196.320312 228.691406 195.445312 228.347656 194.800781 227.65625 C 194.152344 226.964844 193.832031 226.035156 193.832031 224.863281 C 193.832031 223.671875 194.15625 222.738281 194.808594 222.058594 C 195.464844 221.375 196.359375 221.035156 197.496094 221.035156 C 197.863281 221.035156 198.226562 221.074219 198.578125 221.148438 C 198.925781 221.226562 199.269531 221.339844 199.597656 221.488281 Z M 199.597656 221.488281 "/>
<path style=" stroke:none;fill-rule:nonzero;fill:rgb(0%,0%,0%);fill-opacity:1;" d="M 207.746094 224.101562 L 207.746094 228.503906 L 206.546875 228.503906 L 206.546875 224.140625 C 206.546875 223.449219 206.410156 222.933594 206.140625 222.589844 C 205.871094 222.25 205.46875 222.078125 204.933594 222.078125 C 204.285156 222.078125 203.773438 222.285156 203.402344 222.695312 C 203.027344 223.105469 202.839844 223.667969 202.839844 224.382812 L 202.839844 228.503906 L 201.636719 228.503906 L 201.636719 218.371094 L 202.839844 218.371094 L 202.839844 222.34375 C 203.128906 221.90625 203.464844 221.578125 203.851562 221.359375 C 204.242188 221.144531 204.691406 221.035156 205.199219 221.035156 C 206.035156 221.035156 206.667969 221.292969 207.097656 221.8125 C 207.527344 222.332031 207.746094 223.09375 207.746094 224.101562 Z M 207.746094 224.101562 "/>
<g clip-path="url(#clip6)" clip-rule="nonzero">
<path style="fill:none;stroke-width:0.8;stroke-linecap:square;stroke-linejoin:round;stroke:rgb(69.01961%,69.01961%,69.01961%);stroke-opacity:1;stroke-miterlimit:4;" d="M 43.78125 119.917969 L 239.080078 119.917969 " transform="matrix(1.333333,0,0,1.333333,0,0)"/>
</g>
<path style="fill:none;stroke-width:0.8;stroke-linecap:butt;stroke-linejoin:round;stroke:rgb(0%,0%,0%);stroke-opacity:1;stroke-miterlimit:4;" d="M 0 0.000808716 L -3.500977 0.000808716 " transform="matrix(1.333333,0,0,1.333333,58.375,159.889547)"/>
<path style=" stroke:none;fill-rule:nonzero;fill:rgb(0%,0%,0%);fill-opacity:1;" d="M 32.074219 156.101562 C 31.398438 156.101562 30.890625 156.433594 30.546875 157.101562 C 30.207031 157.765625 30.039062 158.769531 30.039062 160.105469 C 30.039062 161.4375 30.207031 162.4375 30.546875 163.101562 C 30.890625 163.769531 31.398438 164.101562 32.074219 164.101562 C 32.757812 164.101562 33.269531 163.769531 33.609375 163.101562 C 33.949219 162.4375 34.121094 161.4375 34.121094 160.105469 C 34.121094 158.769531 33.949219 157.765625 33.609375 157.101562 C 33.269531 156.433594 32.757812 156.101562 32.074219 156.101562 Z M 32.074219 155.058594 C 33.164062 155.058594 33.996094 155.492188 34.574219 156.351562 C 35.148438 157.214844 35.433594 158.464844 35.433594 160.105469 C 35.433594 161.742188 35.148438 162.992188 34.574219 163.851562 C 33.996094 164.714844 33.164062 165.144531 32.074219 165.144531 C 30.984375 165.144531 30.152344 164.714844 29.578125 163.851562 C 29.003906 162.992188 28.714844 161.742188 28.714844 160.105469 C 28.714844 158.464844 29.003906 157.214844 29.578125 156.351562 C 30.152344 155.492188 30.984375 155.058594 32.074219 155.058594 Z M 32.074219 155.058594 "/>
<path style=" stroke:none;fill-rule:nonzero;fill:rgb(0%,0%,0%);fill-opacity:1;" d="M 37.746094 163.300781 L 39.121094 163.300781 L 39.121094 164.957031 L 37.746094 164.957031 Z M 37.746094 163.300781 "/>
<path style=" stroke:none;fill-rule:nonzero;fill:rgb(0%,0%,0%);fill-opacity:1;" d="M 43.117188 163.847656 L 47.707031 163.847656 L 47.707031 164.957031 L 41.535156 164.957031 L 41.535156 163.847656 C 42.035156 163.332031 42.714844 162.640625 43.574219 161.769531 C 44.4375 160.898438 44.980469 160.335938 45.199219 160.085938 C 45.621094 159.613281 45.914062 159.210938 46.082031 158.882812 C 46.25 158.554688 46.332031 158.234375 46.332031 157.917969 C 46.332031 157.402344 46.152344 156.980469 45.789062 156.65625 C 45.425781 156.328125 44.957031 156.164062 44.375 156.164062 C 43.960938 156.164062 43.527344 156.238281 43.066406 156.378906 C 42.609375 156.523438 42.121094 156.742188 41.601562 157.03125 L 41.601562 155.703125 C 42.128906 155.492188 42.625 155.332031 43.082031 155.222656 C 43.546875 155.113281 43.964844 155.058594 44.347656 155.058594 C 45.355469 155.058594 46.15625 155.3125 46.757812 155.816406 C 47.355469 156.320312 47.65625 156.992188 47.65625 157.832031 C 47.65625 158.230469 47.578125 158.613281 47.429688 158.96875 C 47.28125 159.328125 47.007812 159.75 46.613281 160.234375 C 46.503906 160.359375 46.160156 160.726562 45.578125 161.324219 C 44.996094 161.925781 44.175781 162.769531 43.117188 163.847656 Z M 43.117188 163.847656 "/>
<g clip-path="url(#clip7)" clip-rule="nonzero">
<path style="fill:none;stroke-width:0.8;stroke-linecap:square;stroke-linejoin:round;stroke:rgb(69.01961%,69.01961%,69.01961%);stroke-opacity:1;stroke-miterlimit:4;" d="M 43.78125 85.907227 L 239.080078 85.907227 " transform="matrix(1.333333,0,0,1.333333,0,0)"/>
</g>
<path style="fill:none;stroke-width:0.8;stroke-linecap:butt;stroke-linejoin:round;stroke:rgb(0%,0%,0%);stroke-opacity:1;stroke-miterlimit:4;" d="M 0 0.00120544 L -3.500977 0.00120544 " transform="matrix(1.333333,0,0,1.333333,58.375,114.541361)"/>
<path style=" stroke:none;fill-rule:nonzero;fill:rgb(0%,0%,0%);fill-opacity:1;" d="M 32.074219 110.753906 C 31.398438 110.753906 30.890625 111.085938 30.546875 111.753906 C 30.207031 112.417969 30.039062 113.417969 30.039062 114.757812 C 30.039062 116.089844 30.207031 117.089844 30.546875 117.753906 C 30.890625 118.421875 31.398438 118.753906 32.074219 118.753906 C 32.757812 118.753906 33.269531 118.421875 33.609375 117.753906 C 33.949219 117.089844 34.121094 116.089844 34.121094 114.757812 C 34.121094 113.417969 33.949219 112.417969 33.609375 111.753906 C 33.269531 111.085938 32.757812 110.753906 32.074219 110.753906 Z M 32.074219 109.710938 C 33.164062 109.710938 33.996094 110.140625 34.574219 111.003906 C 35.148438 111.867188 35.433594 113.117188 35.433594 114.757812 C 35.433594 116.394531 35.148438 117.640625 34.574219 118.503906 C 33.996094 119.367188 33.164062 119.796875 32.074219 119.796875 C 30.984375 119.796875 30.152344 119.367188 29.578125 118.503906 C 29.003906 117.640625 28.714844 116.394531 28.714844 114.757812 C 28.714844 113.117188 29.003906 111.867188 29.578125 111.003906 C 30.152344 110.140625 30.984375 109.710938 32.074219 109.710938 Z M 32.074219 109.710938 "/>
<path style=" stroke:none;fill-rule:nonzero;fill:rgb(0%,0%,0%);fill-opacity:1;" d="M 37.746094 117.953125 L 39.121094 117.953125 L 39.121094 119.605469 L 37.746094 119.605469 Z M 37.746094 117.953125 "/>
<path style=" stroke:none;fill-rule:nonzero;fill:rgb(0%,0%,0%);fill-opacity:1;" d="M 45.597656 111.03125 L 42.277344 116.222656 L 45.597656 116.222656 Z M 45.253906 109.886719 L 46.90625 109.886719 L 46.90625 116.222656 L 48.292969 116.222656 L 48.292969 117.316406 L 46.90625 117.316406 L 46.90625 119.605469 L 45.597656 119.605469 L 45.597656 117.316406 L 41.210938 117.316406 L 41.210938 116.046875 Z M 45.253906 109.886719 "/>
<g clip-path="url(#clip8)" clip-rule="nonzero">
<path style="fill:none;stroke-width:0.8;stroke-linecap:square;stroke-linejoin:round;stroke:rgb(69.01961%,69.01961%,69.01961%);stroke-opacity:1;stroke-miterlimit:4;" d="M 43.78125 51.893555 L 239.080078 51.893555 " transform="matrix(1.333333,0,0,1.333333,0,0)"/>
</g>
<path style="fill:none;stroke-width:0.8;stroke-linecap:butt;stroke-linejoin:round;stroke:rgb(0%,0%,0%);stroke-opacity:1;stroke-miterlimit:4;" d="M 0 -0.00133133 L -3.500977 -0.00133133 " transform="matrix(1.333333,0,0,1.333333,58.375,69.193181)"/>
<path style=" stroke:none;fill-rule:nonzero;fill:rgb(0%,0%,0%);fill-opacity:1;" d="M 32.074219 65.40625 C 31.398438 65.40625 30.890625 65.738281 30.546875 66.40625 C 30.207031 67.070312 30.039062 68.070312 30.039062 69.410156 C 30.039062 70.742188 30.207031 71.738281 30.546875 72.40625 C 30.890625 73.074219 31.398438 73.40625 32.074219 73.40625 C 32.757812 73.40625 33.269531 73.074219 33.609375 72.40625 C 33.949219 71.738281 34.121094 70.742188 34.121094 69.410156 C 34.121094 68.070312 33.949219 67.070312 33.609375 66.40625 C 33.269531 65.738281 32.757812 65.40625 32.074219 65.40625 Z M 32.074219 64.363281 C 33.164062 64.363281 33.996094 64.792969 34.574219 65.65625 C 35.148438 66.519531 35.433594 67.769531 35.433594 69.410156 C 35.433594 71.042969 35.148438 72.292969 34.574219 73.15625 C 33.996094 74.019531 33.164062 74.449219 32.074219 74.449219 C 30.984375 74.449219 30.152344 74.019531 29.578125 73.15625 C 29.003906 72.292969 28.714844 71.042969 28.714844 69.410156 C 28.714844 67.769531 29.003906 66.519531 29.578125 65.65625 C 30.152344 64.792969 30.984375 64.363281 32.074219 64.363281 Z M 32.074219 64.363281 "/>
<path style=" stroke:none;fill-rule:nonzero;fill:rgb(0%,0%,0%);fill-opacity:1;" d="M 37.746094 72.605469 L 39.121094 72.605469 L 39.121094 74.257812 L 37.746094 74.257812 Z M 37.746094 72.605469 "/>
<path style=" stroke:none;fill-rule:nonzero;fill:rgb(0%,0%,0%);fill-opacity:1;" d="M 44.960938 68.875 C 44.371094 68.875 43.902344 69.078125 43.558594 69.480469 C 43.210938 69.882812 43.039062 70.4375 43.039062 71.140625 C 43.039062 71.839844 43.210938 72.390625 43.558594 72.796875 C 43.902344 73.203125 44.371094 73.40625 44.960938 73.40625 C 45.550781 73.40625 46.019531 73.203125 46.363281 72.796875 C 46.707031 72.390625 46.878906 71.839844 46.878906 71.140625 C 46.878906 70.4375 46.707031 69.882812 46.363281 69.480469 C 46.019531 69.078125 45.550781 68.875 44.960938 68.875 Z M 47.570312 64.753906 L 47.570312 65.949219 C 47.242188 65.792969 46.90625 65.675781 46.570312 65.59375 C 46.234375 65.511719 45.902344 65.46875 45.570312 65.46875 C 44.703125 65.46875 44.039062 65.761719 43.582031 66.347656 C 43.125 66.933594 42.863281 67.820312 42.796875 69.003906 C 43.054688 68.625 43.375 68.335938 43.761719 68.136719 C 44.148438 67.933594 44.574219 67.832031 45.039062 67.832031 C 46.015625 67.832031 46.785156 68.128906 47.351562 68.722656 C 47.917969 69.316406 48.203125 70.121094 48.203125 71.140625 C 48.203125 72.136719 47.90625 72.941406 47.316406 73.542969 C 46.726562 74.148438 45.941406 74.449219 44.960938 74.449219 C 43.835938 74.449219 42.976562 74.019531 42.382812 73.15625 C 41.789062 72.292969 41.488281 71.042969 41.488281 69.410156 C 41.488281 67.871094 41.855469 66.648438 42.582031 65.734375 C 43.3125 64.820312 44.292969 64.363281 45.519531 64.363281 C 45.851562 64.363281 46.183594 64.394531 46.519531 64.460938 C 46.855469 64.527344 47.207031 64.625 47.570312 64.753906 Z M 47.570312 64.753906 "/>
<g clip-path="url(#clip9)" clip-rule="nonzero">
<path style="fill:none;stroke-width:0.8;stroke-linecap:square;stroke-linejoin:round;stroke:rgb(69.01961%,69.01961%,69.01961%);stroke-opacity:1;stroke-miterlimit:4;" d="M 43.78125 17.882812 L 239.080078 17.882812 " transform="matrix(1.333333,0,0,1.333333,0,0)"/>
</g>
<path style="fill:none;stroke-width:0.8;stroke-linecap:butt;stroke-linejoin:round;stroke:rgb(0%,0%,0%);stroke-opacity:1;stroke-miterlimit:4;" d="M 0 -0.000934601 L -3.500977 -0.000934601 " transform="matrix(1.333333,0,0,1.333333,58.375,23.844996)"/>
<path style=" stroke:none;fill-rule:nonzero;fill:rgb(0%,0%,0%);fill-opacity:1;" d="M 32.074219 20.054688 C 31.398438 20.054688 30.890625 20.390625 30.546875 21.054688 C 30.207031 21.722656 30.039062 22.722656 30.039062 24.0625 C 30.039062 25.390625 30.207031 26.390625 30.546875 27.058594 C 30.890625 27.726562 31.398438 28.058594 32.074219 28.058594 C 32.757812 28.058594 33.269531 27.726562 33.609375 27.058594 C 33.949219 26.390625 34.121094 25.390625 34.121094 24.0625 C 34.121094 22.722656 33.949219 21.722656 33.609375 21.054688 C 33.269531 20.390625 32.757812 20.054688 32.074219 20.054688 Z M 32.074219 19.015625 C 33.164062 19.015625 33.996094 19.445312 34.574219 20.308594 C 35.148438 21.167969 35.433594 22.421875 35.433594 24.0625 C 35.433594 25.695312 35.148438 26.945312 34.574219 27.808594 C 33.996094 28.667969 33.164062 29.101562 32.074219 29.101562 C 30.984375 29.101562 30.152344 28.667969 29.578125 27.808594 C 29.003906 26.945312 28.714844 25.695312 28.714844 24.0625 C 28.714844 22.421875 29.003906 21.167969 29.578125 20.308594 C 30.152344 19.445312 30.984375 19.015625 32.074219 19.015625 Z M 32.074219 19.015625 "/>
<path style=" stroke:none;fill-rule:nonzero;fill:rgb(0%,0%,0%);fill-opacity:1;" d="M 37.746094 27.257812 L 39.121094 27.257812 L 39.121094 28.910156 L 37.746094 28.910156 Z M 37.746094 27.257812 "/>
<path style=" stroke:none;fill-rule:nonzero;fill:rgb(0%,0%,0%);fill-opacity:1;" d="M 44.796875 24.292969 C 44.171875 24.292969 43.679688 24.460938 43.320312 24.796875 C 42.964844 25.128906 42.785156 25.589844 42.785156 26.175781 C 42.785156 26.761719 42.964844 27.222656 43.320312 27.554688 C 43.679688 27.890625 44.171875 28.058594 44.796875 28.058594 C 45.421875 28.058594 45.914062 27.890625 46.273438 27.554688 C 46.632812 27.21875 46.816406 26.757812 46.816406 26.175781 C 46.816406 25.589844 46.636719 25.128906 46.277344 24.796875 C 45.921875 24.460938 45.425781 24.292969 44.796875 24.292969 Z M 43.480469 23.734375 C 42.917969 23.597656 42.476562 23.335938 42.164062 22.949219 C 41.847656 22.5625 41.691406 22.089844 41.691406 21.535156 C 41.691406 20.757812 41.96875 20.144531 42.519531 19.691406 C 43.074219 19.242188 43.832031 19.015625 44.796875 19.015625 C 45.765625 19.015625 46.523438 19.242188 47.074219 19.691406 C 47.625 20.144531 47.902344 20.757812 47.902344 21.535156 C 47.902344 22.089844 47.746094 22.5625 47.429688 22.949219 C 47.117188 23.335938 46.679688 23.597656 46.121094 23.734375 C 46.753906 23.882812 47.246094 24.171875 47.597656 24.601562 C 47.953125 25.03125 48.128906 25.554688 48.128906 26.175781 C 48.128906 27.117188 47.84375 27.84375 47.265625 28.347656 C 46.691406 28.847656 45.867188 29.101562 44.796875 29.101562 C 43.726562 29.101562 42.902344 28.847656 42.324219 28.347656 C 41.75 27.84375 41.464844 27.117188 41.464844 26.175781 C 41.464844 25.554688 41.640625 25.03125 41.996094 24.601562 C 42.351562 24.171875 42.847656 23.882812 43.480469 23.734375 Z M 43 21.660156 C 43 22.160156 43.15625 22.554688 43.472656 22.835938 C 43.785156 23.117188 44.226562 23.257812 44.796875 23.257812 C 45.363281 23.257812 45.804688 23.117188 46.121094 22.835938 C 46.441406 22.554688 46.601562 22.160156 46.601562 21.660156 C 46.601562 21.15625 46.441406 20.761719 46.121094 20.480469 C 45.804688 20.199219 45.363281 20.054688 44.796875 20.054688 C 44.226562 20.054688 43.785156 20.199219 43.472656 20.480469 C 43.15625 20.761719 43 21.15625 43 21.660156 Z M 43 21.660156 "/>
<path style=" stroke:none;fill-rule:nonzero;fill:rgb(0%,0%,0%);fill-opacity:1;" d="M 10.367188 124.097656 L 12.441406 124.097656 L 12.441406 121.628906 L 13.371094 121.628906 L 13.371094 124.097656 L 17.328125 124.097656 C 17.921875 124.097656 18.304688 124.015625 18.476562 123.851562 C 18.644531 123.691406 18.730469 123.359375 18.730469 122.859375 L 18.730469 121.628906 L 19.730469 121.628906 L 19.730469 122.859375 C 19.730469 123.785156 19.558594 124.421875 19.214844 124.773438 C 18.867188 125.125 18.242188 125.300781 17.328125 125.300781 L 13.371094 125.300781 L 13.371094 126.179688 L 12.441406 126.179688 L 12.441406 125.300781 L 10.367188 125.300781 Z M 10.367188 124.097656 "/>
<path style=" stroke:none;fill-rule:nonzero;fill:rgb(0%,0%,0%);fill-opacity:1;" d="M 15.785156 113.816406 L 16.371094 113.816406 L 16.371094 119.324219 C 17.195312 119.269531 17.824219 119.023438 18.257812 118.578125 C 18.6875 118.132812 18.902344 117.515625 18.902344 116.71875 C 18.902344 116.261719 18.847656 115.816406 18.734375 115.382812 C 18.621094 114.949219 18.453125 114.519531 18.226562 114.09375 L 19.359375 114.09375 C 19.542969 114.527344 19.679688 114.964844 19.777344 115.417969 C 19.871094 115.871094 19.921875 116.328125 19.921875 116.789062 C 19.921875 117.953125 19.582031 118.875 18.90625 119.554688 C 18.226562 120.234375 17.3125 120.574219 16.15625 120.574219 C 14.964844 120.574219 14.015625 120.253906 13.316406 119.609375 C 12.617188 118.964844 12.265625 118.09375 12.265625 117 C 12.265625 116.019531 12.582031 115.242188 13.210938 114.671875 C 13.84375 114.101562 14.699219 113.816406 15.785156 113.816406 Z M 15.433594 115.015625 C 14.777344 115.023438 14.257812 115.207031 13.867188 115.5625 C 13.476562 115.921875 13.277344 116.394531 13.277344 116.988281 C 13.277344 117.65625 13.46875 118.191406 13.847656 118.589844 C 14.222656 118.992188 14.753906 119.222656 15.441406 119.285156 Z M 15.433594 115.015625 "/>
<path style=" stroke:none;fill-rule:nonzero;fill:rgb(0%,0%,0%);fill-opacity:1;" d="M 12.652344 107.203125 L 13.789062 107.203125 C 13.613281 107.539062 13.484375 107.890625 13.398438 108.257812 C 13.308594 108.621094 13.265625 109 13.265625 109.390625 C 13.265625 109.984375 13.359375 110.429688 13.539062 110.726562 C 13.722656 111.023438 13.996094 111.171875 14.359375 111.171875 C 14.636719 111.171875 14.855469 111.066406 15.015625 110.855469 C 15.171875 110.640625 15.324219 110.214844 15.464844 109.570312 L 15.558594 109.160156 C 15.742188 108.3125 15.996094 107.707031 16.328125 107.347656 C 16.660156 106.988281 17.125 106.8125 17.71875 106.8125 C 18.398438 106.8125 18.933594 107.078125 19.328125 107.613281 C 19.722656 108.152344 19.921875 108.886719 19.921875 109.824219 C 19.921875 110.214844 19.882812 110.621094 19.804688 111.046875 C 19.730469 111.46875 19.617188 111.914062 19.464844 112.382812 L 18.226562 112.382812 C 18.457031 111.941406 18.628906 111.503906 18.746094 111.074219 C 18.859375 110.644531 18.917969 110.21875 18.917969 109.796875 C 18.917969 109.234375 18.820312 108.800781 18.628906 108.5 C 18.433594 108.195312 18.160156 108.042969 17.808594 108.042969 C 17.484375 108.042969 17.234375 108.152344 17.0625 108.371094 C 16.890625 108.589844 16.722656 109.070312 16.558594 109.8125 L 16.460938 110.230469 C 16.308594 110.972656 16.066406 111.507812 15.742188 111.835938 C 15.421875 112.167969 14.976562 112.332031 14.414062 112.332031 C 13.726562 112.332031 13.195312 112.089844 12.824219 111.601562 C 12.453125 111.117188 12.265625 110.425781 12.265625 109.53125 C 12.265625 109.089844 12.296875 108.675781 12.363281 108.285156 C 12.425781 107.890625 12.523438 107.53125 12.652344 107.203125 Z M 12.652344 107.203125 "/>
<path style=" stroke:none;fill-rule:nonzero;fill:rgb(0%,0%,0%);fill-opacity:1;" d="M 10.367188 103.71875 L 12.441406 103.71875 L 12.441406 101.25 L 13.371094 101.25 L 13.371094 103.71875 L 17.328125 103.71875 C 17.921875 103.71875 18.304688 103.636719 18.476562 103.472656 C 18.644531 103.3125 18.730469 102.980469 18.730469 102.480469 L 18.730469 101.25 L 19.730469 101.25 L 19.730469 102.480469 C 19.730469 103.40625 19.558594 104.042969 19.214844 104.394531 C 18.867188 104.746094 18.242188 104.921875 17.328125 104.921875 L 13.371094 104.921875 L 13.371094 105.800781 L 12.441406 105.800781 L 12.441406 104.921875 L 10.367188 104.921875 Z M 10.367188 103.71875 "/>
<path style=" stroke:none;fill-rule:nonzero;fill:rgb(0%,0%,0%);fill-opacity:1;" d="M 16.066406 92.121094 C 16.066406 93.089844 16.175781 93.761719 16.398438 94.136719 C 16.617188 94.507812 16.996094 94.695312 17.53125 94.695312 C 17.957031 94.695312 18.292969 94.554688 18.542969 94.273438 C 18.792969 93.996094 18.917969 93.613281 18.917969 93.132812 C 18.917969 92.46875 18.679688 91.933594 18.210938 91.535156 C 17.738281 91.132812 17.113281 90.929688 16.332031 90.929688 L 16.066406 90.929688 Z M 15.570312 89.734375 L 19.730469 89.734375 L 19.730469 90.929688 L 18.625 90.929688 C 19.066406 91.203125 19.394531 91.546875 19.605469 91.953125 C 19.816406 92.363281 19.921875 92.863281 19.921875 93.453125 C 19.921875 94.199219 19.710938 94.792969 19.292969 95.234375 C 18.871094 95.671875 18.3125 95.894531 17.609375 95.894531 C 16.789062 95.894531 16.171875 95.621094 15.753906 95.070312 C 15.335938 94.519531 15.128906 93.703125 15.128906 92.613281 L 15.128906 90.929688 L 15.011719 90.929688 C 14.460938 90.929688 14.03125 91.113281 13.730469 91.476562 C 13.429688 91.835938 13.277344 92.347656 13.277344 93.003906 C 13.277344 93.417969 13.328125 93.824219 13.429688 94.222656 C 13.527344 94.617188 13.679688 94.996094 13.878906 95.359375 L 12.769531 95.359375 C 12.601562 94.921875 12.476562 94.496094 12.390625 94.082031 C 12.308594 93.671875 12.265625 93.269531 12.265625 92.878906 C 12.265625 91.824219 12.539062 91.035156 13.085938 90.515625 C 13.632812 89.992188 14.460938 89.734375 15.570312 89.734375 Z M 15.570312 89.734375 "/>
<path style=" stroke:none;fill-rule:nonzero;fill:rgb(0%,0%,0%);fill-opacity:1;" d="M 12.71875 82.019531 L 13.839844 82.019531 C 13.652344 82.359375 13.511719 82.699219 13.417969 83.039062 C 13.324219 83.378906 13.277344 83.722656 13.277344 84.070312 C 13.277344 84.847656 13.527344 85.449219 14.019531 85.882812 C 14.511719 86.3125 15.203125 86.523438 16.089844 86.523438 C 16.980469 86.523438 17.671875 86.3125 18.167969 85.882812 C 18.660156 85.449219 18.902344 84.847656 18.902344 84.070312 C 18.902344 83.722656 18.859375 83.378906 18.765625 83.039062 C 18.671875 82.699219 18.53125 82.359375 18.34375 82.019531 L 19.453125 82.019531 C 19.609375 82.355469 19.722656 82.699219 19.800781 83.058594 C 19.882812 83.414062 19.921875 83.796875 19.921875 84.199219 C 19.921875 85.300781 19.574219 86.171875 18.886719 86.820312 C 18.195312 87.464844 17.265625 87.789062 16.089844 87.789062 C 14.902344 87.789062 13.96875 87.460938 13.289062 86.808594 C 12.605469 86.15625 12.265625 85.257812 12.265625 84.121094 C 12.265625 83.753906 12.304688 83.394531 12.378906 83.042969 C 12.453125 82.691406 12.566406 82.347656 12.71875 82.019531 Z M 12.71875 82.019531 "/>
<path style=" stroke:none;fill-rule:nonzero;fill:rgb(0%,0%,0%);fill-opacity:1;" d="M 12.71875 74.6875 L 13.839844 74.6875 C 13.652344 75.027344 13.511719 75.367188 13.417969 75.707031 C 13.324219 76.046875 13.277344 76.390625 13.277344 76.738281 C 13.277344 77.515625 13.527344 78.121094 14.019531 78.550781 C 14.511719 78.980469 15.203125 79.195312 16.089844 79.195312 C 16.980469 79.195312 17.671875 78.980469 18.167969 78.550781 C 18.660156 78.121094 18.902344 77.515625 18.902344 76.738281 C 18.902344 76.390625 18.859375 76.046875 18.765625 75.707031 C 18.671875 75.367188 18.53125 75.027344 18.34375 74.6875 L 19.453125 74.6875 C 19.609375 75.023438 19.722656 75.371094 19.800781 75.726562 C 19.882812 76.085938 19.921875 76.464844 19.921875 76.871094 C 19.921875 77.96875 19.574219 78.839844 18.886719 79.488281 C 18.195312 80.132812 17.265625 80.457031 16.089844 80.457031 C 14.902344 80.457031 13.96875 80.128906 13.289062 79.476562 C 12.605469 78.824219 12.265625 77.929688 12.265625 76.789062 C 12.265625 76.421875 12.304688 76.0625 12.378906 75.710938 C 12.453125 75.359375 12.566406 75.019531 12.71875 74.6875 Z M 12.71875 74.6875 "/>
<g clip-path="url(#clip10)" clip-rule="nonzero">
<path style="fill:none;stroke-width:1.5;stroke-linecap:square;stroke-linejoin:round;stroke:rgb(12.156863%,46.666667%,70.588237%);stroke-opacity:1;stroke-miterlimit:4;" d="M 43.78125 136.921875 L 65.481445 49.12207 L 87.181641 26.132812 L 108.881836 29.516602 L 130.582031 17.663086 L 152.282227 19.482422 L 173.982422 18.580078 L 195.682617 16.998047 L 217.379883 15.588867 L 239.080078 13.376953 " transform="matrix(1.333333,0,0,1.333333,0,0)"/>
</g>
<path style="fill:none;stroke-width:0.8;stroke-linecap:square;stroke-linejoin:miter;stroke:rgb(0%,0%,0%);stroke-opacity:1;stroke-miterlimit:4;" d="M 43.78125 143.100586 L 43.78125 7.201172 " transform="matrix(1.333333,0,0,1.333333,0,0)"/>
<path style="fill:none;stroke-width:0.8;stroke-linecap:square;stroke-linejoin:miter;stroke:rgb(0%,0%,0%);stroke-opacity:1;stroke-miterlimit:4;" d="M 239.080078 143.100586 L 239.080078 7.201172 " transform="matrix(1.333333,0,0,1.333333,0,0)"/>
<path style="fill:none;stroke-width:0.8;stroke-linecap:square;stroke-linejoin:miter;stroke:rgb(0%,0%,0%);stroke-opacity:1;stroke-miterlimit:4;" d="M 43.78125 143.100586 L 239.080078 143.100586 " transform="matrix(1.333333,0,0,1.333333,0,0)"/>
<path style="fill:none;stroke-width:0.8;stroke-linecap:square;stroke-linejoin:miter;stroke:rgb(0%,0%,0%);stroke-opacity:1;stroke-miterlimit:4;" d="M 43.78125 7.201172 L 239.080078 7.201172 " transform="matrix(1.333333,0,0,1.333333,0,0)"/>
</g>
</svg>
