<?xml version="1.0" encoding="UTF-8"?>
<svg xmlns="http://www.w3.org/2000/svg" xmlns:xlink="http://www.w3.org/1999/xlink" width="318.620829" height="240.875" viewBox="0 0 318.620829 240.875" version="1.1">
<defs>
<clipPath id="clip1">
  <path d="M 68 9.601562 L 70 9.601562 L 70 190.800781 L 68 190.800781 Z M 68 9.601562 "/>
</clipPath>
<clipPath id="clip2">
  <path d="M 126 9.601562 L 128 9.601562 L 128 190.800781 L 126 190.800781 Z M 126 9.601562 "/>
</clipPath>
<clipPath id="clip3">
  <path d="M 184 9.601562 L 186 9.601562 L 186 190.800781 L 184 190.800781 Z M 184 9.601562 "/>
</clipPath>
<clipPath id="clip4">
  <path d="M 241 9.601562 L 244 9.601562 L 244 190.800781 L 241 190.800781 Z M 241 9.601562 "/>
</clipPath>
<clipPath id="clip5">
  <path d="M 299 9.601562 L 300.539062 9.601562 L 300.539062 190.800781 L 299 190.800781 Z M 299 9.601562 "/>
</clipPath>
<clipPath id="clip6">
  <path d="M 40.136719 168 L 300.539062 168 L 300.539062 171 L 40.136719 171 Z M 40.136719 168 "/>
</clipPath>
<clipPath id="clip7">
  <path d="M 40.136719 128 L 300.539062 128 L 300.539062 130 L 40.136719 130 Z M 40.136719 128 "/>
</clipPath>
<clipPath id="clip8">
  <path d="M 40.136719 88 L 300.539062 88 L 300.539062 90 L 40.136719 90 Z M 40.136719 88 "/>
</clipPath>
<clipPath id="clip9">
  <path d="M 40.136719 47 L 300.539062 47 L 300.539062 50 L 40.136719 50 Z M 40.136719 47 "/>
</clipPath>
<clipPath id="clip10">
  <path d="M 40.136719 22 L 300.539062 22 L 300.539062 184 L 40.136719 184 Z M 40.136719 22 "/>
</clipPath>
<clipPath id="clip11">
  <path d="M 40.136719 16 L 300.539062 16 L 300.539062 73 L 40.136719 73 Z M 40.136719 16 "/>
</clipPath>
<clipPath id="clip12">
  <path d="M 40.136719 26 L 300.539062 26 L 300.539062 49 L 40.136719 49 Z M 40.136719 26 "/>
</clipPath>
<filter id="alpha" filterUnits="objectBoundingBox" x="0%" y="0%" width="100%" height="100%">
  <feColorMatrix type="matrix" in="SourceGraphic" values="0 0 0 0 1 0 0 0 0 1 0 0 0 0 1 0 0 0 1 0"/>
</filter>
<mask id="mask0">
  <g filter="url(#alpha)">
<rect x="0" y="0" width="318.620829" height="240.875" style="fill:rgb(0%,0%,0%);fill-opacity:0.8;stroke:none;"/>
  </g>
</mask>
<clipPath id="clip13">
  <rect x="0" y="0" width="319" height="241"/>
</clipPath>
<g id="surface5" clip-path="url(#clip13)">
<path style="fill-rule:nonzero;fill:rgb(100%,100%,100%);fill-opacity:1;stroke-width:1;stroke-linecap:butt;stroke-linejoin:miter;stroke:rgb(80.000001%,80.000001%,80.000001%);stroke-opacity:1;stroke-miterlimit:4;" d="M 140.633789 98.666016 L 218.402344 98.666016 C 219.735352 98.666016 220.40332 98.000977 220.40332 96.667969 L 220.40332 53.633789 C 220.40332 52.300781 219.735352 51.632812 218.402344 51.632812 L 140.633789 51.632812 C 139.300781 51.632812 138.635742 52.300781 138.635742 53.633789 L 138.635742 96.667969 C 138.635742 98.000977 139.300781 98.666016 140.633789 98.666016 Z M 140.633789 98.666016 " transform="matrix(1.333333,0,0,1.333333,0.000000000000028422,0)"/>
</g>
</defs>
<g id="surface1">
<path style=" stroke:none;fill-rule:nonzero;fill:rgb(100%,100%,100%);fill-opacity:1;" d="M 40.136719 190.800781 L 300.539062 190.800781 L 300.539062 9.601562 L 40.136719 9.601562 Z M 40.136719 190.800781 "/>
<g clip-path="url(#clip1)" clip-rule="nonzero">
<path style="fill:none;stroke-width:0.8;stroke-linecap:square;stroke-linejoin:round;stroke:rgb(69.01961%,69.01961%,69.01961%);stroke-opacity:1;stroke-miterlimit:4;" d="M 51.802734 143.100586 L 51.802734 7.201172 " transform="matrix(1.333333,0,0,1.333333,0.000000000000028422,0)"/>
</g>
<path style="fill:none;stroke-width:0.8;stroke-linecap:butt;stroke-linejoin:round;stroke:rgb(0%,0%,0%);stroke-opacity:1;stroke-miterlimit:4;" d="M -0.000389099 0.000579834 L -0.000389099 3.498627 " transform="matrix(1.333333,0,0,1.333333,69.070831,190.800008)"/>
<path style=" stroke:none;fill-rule:nonzero;fill:rgb(0%,0%,0%);fill-opacity:1;" d="M 67.386719 209.160156 L 71.976562 209.160156 L 71.976562 210.265625 L 65.804688 210.265625 L 65.804688 209.160156 C 66.304688 208.640625 66.984375 207.949219 67.847656 207.078125 C 68.707031 206.207031 69.25 205.648438 69.472656 205.394531 C 69.890625 204.921875 70.183594 204.523438 70.351562 204.195312 C 70.519531 203.867188 70.605469 203.542969 70.605469 203.226562 C 70.605469 202.710938 70.421875 202.289062 70.058594 201.964844 C 69.699219 201.636719 69.226562 201.476562 68.644531 201.476562 C 68.230469 201.476562 67.796875 201.546875 67.335938 201.691406 C 66.878906 201.832031 66.390625 202.050781 65.871094 202.339844 L 65.871094 201.011719 C 66.398438 200.800781 66.894531 200.640625 67.355469 200.53125 C 67.816406 200.421875 68.238281 200.367188 68.617188 200.367188 C 69.625 200.367188 70.429688 200.621094 71.027344 201.125 C 71.625 201.628906 71.925781 202.300781 71.925781 203.140625 C 71.925781 203.542969 71.851562 203.921875 71.699219 204.277344 C 71.550781 204.636719 71.277344 205.058594 70.882812 205.542969 C 70.773438 205.671875 70.429688 206.035156 69.847656 206.636719 C 69.265625 207.238281 68.445312 208.078125 67.386719 209.160156 Z M 67.386719 209.160156 "/>
<g clip-path="url(#clip2)" clip-rule="nonzero">
<path style="fill:none;stroke-width:0.8;stroke-linecap:square;stroke-linejoin:round;stroke:rgb(69.01961%,69.01961%,69.01961%);stroke-opacity:1;stroke-miterlimit:4;" d="M 95.203125 143.100586 L 95.203125 7.201172 " transform="matrix(1.333333,0,0,1.333333,0.000000000000028422,0)"/>
</g>
<path style="fill:none;stroke-width:0.8;stroke-linecap:butt;stroke-linejoin:round;stroke:rgb(0%,0%,0%);stroke-opacity:1;stroke-miterlimit:4;" d="M -0.000000000000028422 0.000579834 L -0.000000000000028422 3.498627 " transform="matrix(1.333333,0,0,1.333333,126.9375,190.800008)"/>
<path style=" stroke:none;fill-rule:nonzero;fill:rgb(0%,0%,0%);fill-opacity:1;" d="M 127.734375 201.691406 L 124.414062 206.878906 L 127.734375 206.878906 Z M 127.390625 200.542969 L 129.042969 200.542969 L 129.042969 206.878906 L 130.429688 206.878906 L 130.429688 207.972656 L 129.042969 207.972656 L 129.042969 210.265625 L 127.734375 210.265625 L 127.734375 207.972656 L 123.347656 207.972656 L 123.347656 206.703125 Z M 127.390625 200.542969 "/>
<g clip-path="url(#clip3)" clip-rule="nonzero">
<path style="fill:none;stroke-width:0.8;stroke-linecap:square;stroke-linejoin:round;stroke:rgb(69.01961%,69.01961%,69.01961%);stroke-opacity:1;stroke-miterlimit:4;" d="M 138.603516 143.100586 L 138.603516 7.201172 " transform="matrix(1.333333,0,0,1.333333,0.000000000000028422,0)"/>
</g>
<path style="fill:none;stroke-width:0.8;stroke-linecap:butt;stroke-linejoin:round;stroke:rgb(0%,0%,0%);stroke-opacity:1;stroke-miterlimit:4;" d="M 0.000396729 0.000579834 L 0.000396729 3.498627 " transform="matrix(1.333333,0,0,1.333333,184.804159,190.800008)"/>
<path style=" stroke:none;fill-rule:nonzero;fill:rgb(0%,0%,0%);fill-opacity:1;" d="M 184.964844 204.882812 C 184.375 204.882812 183.90625 205.082031 183.558594 205.488281 C 183.214844 205.890625 183.042969 206.441406 183.042969 207.144531 C 183.042969 207.84375 183.214844 208.398438 183.558594 208.804688 C 183.90625 209.210938 184.375 209.414062 184.964844 209.414062 C 185.554688 209.414062 186.023438 209.210938 186.367188 208.804688 C 186.710938 208.398438 186.882812 207.84375 186.882812 207.144531 C 186.882812 206.441406 186.710938 205.890625 186.367188 205.488281 C 186.023438 205.082031 185.554688 204.882812 184.964844 204.882812 Z M 187.574219 200.757812 L 187.574219 201.957031 C 187.246094 201.800781 186.910156 201.683594 186.574219 201.601562 C 186.238281 201.515625 185.90625 201.476562 185.574219 201.476562 C 184.707031 201.476562 184.042969 201.769531 183.585938 202.355469 C 183.128906 202.941406 182.867188 203.824219 182.800781 205.011719 C 183.058594 204.632812 183.378906 204.34375 183.765625 204.140625 C 184.152344 203.941406 184.578125 203.839844 185.042969 203.839844 C 186.019531 203.839844 186.789062 204.136719 187.355469 204.730469 C 187.921875 205.320312 188.207031 206.125 188.207031 207.144531 C 188.207031 208.144531 187.910156 208.945312 187.320312 209.550781 C 186.730469 210.152344 185.945312 210.453125 184.964844 210.453125 C 183.839844 210.453125 182.980469 210.023438 182.386719 209.164062 C 181.789062 208.300781 181.492188 207.050781 181.492188 205.414062 C 181.492188 203.878906 181.859375 202.652344 182.585938 201.738281 C 183.316406 200.824219 184.296875 200.367188 185.523438 200.367188 C 185.851562 200.367188 186.1875 200.402344 186.523438 200.464844 C 186.859375 200.53125 187.210938 200.628906 187.574219 200.757812 Z M 187.574219 200.757812 "/>
<g clip-path="url(#clip4)" clip-rule="nonzero">
<path style="fill:none;stroke-width:0.8;stroke-linecap:square;stroke-linejoin:round;stroke:rgb(69.01961%,69.01961%,69.01961%);stroke-opacity:1;stroke-miterlimit:4;" d="M 182.003906 143.100586 L 182.003906 7.201172 " transform="matrix(1.333333,0,0,1.333333,0.000000000000028422,0)"/>
</g>
<path style="fill:none;stroke-width:0.8;stroke-linecap:butt;stroke-linejoin:round;stroke:rgb(0%,0%,0%);stroke-opacity:1;stroke-miterlimit:4;" d="M 0.000778198 0.000579834 L 0.000778198 3.498627 " transform="matrix(1.333333,0,0,1.333333,242.670837,190.800008)"/>
<path style=" stroke:none;fill-rule:nonzero;fill:rgb(0%,0%,0%);fill-opacity:1;" d="M 242.667969 205.648438 C 242.042969 205.648438 241.550781 205.816406 241.191406 206.148438 C 240.835938 206.484375 240.65625 206.945312 240.65625 207.527344 C 240.65625 208.117188 240.835938 208.574219 241.191406 208.910156 C 241.550781 209.246094 242.042969 209.414062 242.667969 209.414062 C 243.292969 209.414062 243.785156 209.246094 244.144531 208.910156 C 244.503906 208.570312 244.683594 208.109375 244.683594 207.527344 C 244.683594 206.945312 244.507812 206.484375 244.148438 206.148438 C 243.789062 205.816406 243.296875 205.648438 242.667969 205.648438 Z M 241.351562 205.089844 C 240.789062 204.949219 240.347656 204.6875 240.035156 204.300781 C 239.71875 203.914062 239.5625 203.441406 239.5625 202.886719 C 239.5625 202.109375 239.839844 201.496094 240.390625 201.046875 C 240.945312 200.59375 241.703125 200.367188 242.667969 200.367188 C 243.632812 200.367188 244.394531 200.59375 244.945312 201.046875 C 245.496094 201.496094 245.773438 202.109375 245.773438 202.886719 C 245.773438 203.441406 245.617188 203.914062 245.300781 204.300781 C 244.984375 204.6875 244.550781 204.949219 243.988281 205.089844 C 244.621094 205.238281 245.117188 205.527344 245.46875 205.957031 C 245.824219 206.386719 246 206.910156 246 207.527344 C 246 208.472656 245.710938 209.195312 245.136719 209.699219 C 244.5625 210.203125 243.738281 210.453125 242.667969 210.453125 C 241.597656 210.453125 240.773438 210.203125 240.195312 209.699219 C 239.621094 209.195312 239.332031 208.472656 239.332031 207.527344 C 239.332031 206.910156 239.511719 206.386719 239.867188 205.957031 C 240.222656 205.527344 240.71875 205.238281 241.351562 205.089844 Z M 240.871094 203.011719 C 240.871094 203.515625 241.027344 203.90625 241.339844 204.191406 C 241.65625 204.472656 242.097656 204.613281 242.667969 204.613281 C 243.230469 204.613281 243.671875 204.472656 243.992188 204.191406 C 244.3125 203.90625 244.472656 203.515625 244.472656 203.011719 C 244.472656 202.507812 244.3125 202.117188 243.992188 201.832031 C 243.671875 201.550781 243.230469 201.410156 242.667969 201.410156 C 242.097656 201.410156 241.65625 201.550781 241.339844 201.832031 C 241.027344 202.117188 240.871094 202.507812 240.871094 203.011719 Z M 240.871094 203.011719 "/>
<g clip-path="url(#clip5)" clip-rule="nonzero">
<path style="fill:none;stroke-width:0.8;stroke-linecap:square;stroke-linejoin:round;stroke:rgb(69.01961%,69.01961%,69.01961%);stroke-opacity:1;stroke-miterlimit:4;" d="M 225.404297 143.100586 L 225.404297 7.201172 " transform="matrix(1.333333,0,0,1.333333,0.000000000000028422,0)"/>
</g>
<path style="fill:none;stroke-width:0.8;stroke-linecap:butt;stroke-linejoin:round;stroke:rgb(0%,0%,0%);stroke-opacity:1;stroke-miterlimit:4;" d="M 0.00117493 0.000579834 L 0.00117493 3.498627 " transform="matrix(1.333333,0,0,1.333333,300.537496,190.800008)"/>
<path style=" stroke:none;fill-rule:nonzero;fill:rgb(0%,0%,0%);fill-opacity:1;" d="M 293.707031 209.160156 L 295.855469 209.160156 L 295.855469 201.742188 L 293.519531 202.210938 L 293.519531 201.011719 L 295.84375 200.542969 L 297.160156 200.542969 L 297.160156 209.160156 L 299.304688 209.160156 L 299.304688 210.265625 L 293.707031 210.265625 Z M 293.707031 209.160156 "/>
<path style=" stroke:none;fill-rule:nonzero;fill:rgb(0%,0%,0%);fill-opacity:1;" d="M 304.773438 201.410156 C 304.097656 201.410156 303.589844 201.742188 303.246094 202.410156 C 302.90625 203.074219 302.738281 204.078125 302.738281 205.414062 C 302.738281 206.746094 302.90625 207.746094 303.246094 208.414062 C 303.589844 209.078125 304.097656 209.414062 304.773438 209.414062 C 305.457031 209.414062 305.96875 209.078125 306.308594 208.414062 C 306.648438 207.746094 306.820312 206.746094 306.820312 205.414062 C 306.820312 204.078125 306.648438 203.074219 306.308594 202.410156 C 305.96875 201.742188 305.457031 201.410156 304.773438 201.410156 Z M 304.773438 200.367188 C 305.863281 200.367188 306.699219 200.800781 307.273438 201.664062 C 307.847656 202.523438 308.136719 203.773438 308.136719 205.414062 C 308.136719 207.050781 307.847656 208.300781 307.273438 209.164062 C 306.699219 210.023438 305.863281 210.453125 304.773438 210.453125 C 303.6875 210.453125 302.855469 210.023438 302.277344 209.164062 C 301.703125 208.300781 301.417969 207.050781 301.417969 205.414062 C 301.417969 203.773438 301.703125 202.523438 302.277344 201.664062 C 302.855469 200.800781 303.6875 200.367188 304.773438 200.367188 Z M 304.773438 200.367188 "/>
<path style=" stroke:none;fill-rule:nonzero;fill:rgb(0%,0%,0%);fill-opacity:1;" d="M 157.527344 224.554688 L 157.527344 225.140625 L 152.019531 225.140625 C 152.070312 225.964844 152.320312 226.59375 152.765625 227.027344 C 153.210938 227.460938 153.828125 227.675781 154.621094 227.675781 C 155.082031 227.675781 155.527344 227.617188 155.960938 227.507812 C 156.390625 227.394531 156.820312 227.222656 157.246094 226.996094 L 157.246094 228.132812 C 156.816406 228.3125 156.375 228.453125 155.925781 228.546875 C 155.472656 228.644531 155.015625 228.691406 154.550781 228.691406 C 153.386719 228.691406 152.464844 228.351562 151.789062 227.675781 C 151.109375 227 150.769531 226.082031 150.769531 224.925781 C 150.769531 223.734375 151.089844 222.789062 151.734375 222.085938 C 152.378906 221.386719 153.25 221.035156 154.34375 221.035156 C 155.324219 221.035156 156.101562 221.351562 156.671875 221.984375 C 157.242188 222.613281 157.527344 223.472656 157.527344 224.554688 Z M 156.328125 224.203125 C 156.320312 223.550781 156.136719 223.027344 155.777344 222.636719 C 155.421875 222.246094 154.945312 222.050781 154.355469 222.050781 C 153.6875 222.050781 153.152344 222.238281 152.753906 222.617188 C 152.351562 222.996094 152.121094 223.527344 152.058594 224.210938 Z M 156.328125 224.203125 "/>
<path style=" stroke:none;fill-rule:nonzero;fill:rgb(0%,0%,0%);fill-opacity:1;" d="M 160.652344 227.410156 L 160.652344 231.273438 L 159.445312 231.273438 L 159.445312 221.210938 L 160.652344 221.210938 L 160.652344 222.316406 C 160.902344 221.882812 161.222656 221.5625 161.605469 221.351562 C 161.988281 221.140625 162.449219 221.035156 162.980469 221.035156 C 163.867188 221.035156 164.585938 221.386719 165.140625 222.089844 C 165.695312 222.792969 165.972656 223.714844 165.972656 224.863281 C 165.972656 226.007812 165.695312 226.933594 165.140625 227.636719 C 164.585938 228.339844 163.867188 228.691406 162.980469 228.691406 C 162.449219 228.691406 161.988281 228.585938 161.605469 228.375 C 161.222656 228.164062 160.902344 227.839844 160.652344 227.410156 Z M 164.726562 224.863281 C 164.726562 223.980469 164.546875 223.289062 164.183594 222.789062 C 163.820312 222.289062 163.324219 222.039062 162.691406 222.039062 C 162.054688 222.039062 161.558594 222.289062 161.195312 222.789062 C 160.832031 223.289062 160.652344 223.980469 160.652344 224.863281 C 160.652344 225.742188 160.832031 226.433594 161.195312 226.933594 C 161.558594 227.4375 162.054688 227.6875 162.691406 227.6875 C 163.324219 227.6875 163.820312 227.4375 164.183594 226.933594 C 164.546875 226.433594 164.726562 225.742188 164.726562 224.863281 Z M 164.726562 224.863281 "/>
<path style=" stroke:none;fill-rule:nonzero;fill:rgb(0%,0%,0%);fill-opacity:1;" d="M 170.78125 222.050781 C 170.140625 222.050781 169.632812 222.300781 169.257812 222.800781 C 168.882812 223.304688 168.699219 223.992188 168.699219 224.863281 C 168.699219 225.734375 168.882812 226.421875 169.253906 226.921875 C 169.625 227.425781 170.136719 227.675781 170.78125 227.675781 C 171.421875 227.675781 171.925781 227.421875 172.296875 226.921875 C 172.671875 226.417969 172.859375 225.730469 172.859375 224.863281 C 172.859375 224 172.671875 223.3125 172.296875 222.808594 C 171.925781 222.304688 171.421875 222.050781 170.78125 222.050781 Z M 170.78125 221.035156 C 171.824219 221.035156 172.640625 221.375 173.234375 222.050781 C 173.832031 222.726562 174.128906 223.664062 174.128906 224.863281 C 174.128906 226.054688 173.832031 226.992188 173.234375 227.671875 C 172.640625 228.351562 171.824219 228.691406 170.78125 228.691406 C 169.734375 228.691406 168.914062 228.351562 168.324219 227.671875 C 167.730469 226.992188 167.433594 226.054688 167.433594 224.863281 C 167.433594 223.664062 167.730469 222.726562 168.324219 222.050781 C 168.914062 221.375 169.734375 221.035156 170.78125 221.035156 Z M 170.78125 221.035156 "/>
<path style=" stroke:none;fill-rule:nonzero;fill:rgb(0%,0%,0%);fill-opacity:1;" d="M 181.363281 221.488281 L 181.363281 222.609375 C 181.023438 222.421875 180.683594 222.28125 180.34375 222.191406 C 180.003906 222.097656 179.660156 222.050781 179.3125 222.050781 C 178.535156 222.050781 177.929688 222.296875 177.5 222.789062 C 177.070312 223.28125 176.855469 223.972656 176.855469 224.863281 C 176.855469 225.753906 177.070312 226.445312 177.5 226.9375 C 177.929688 227.429688 178.535156 227.675781 179.3125 227.675781 C 179.660156 227.675781 180.003906 227.628906 180.34375 227.535156 C 180.683594 227.441406 181.023438 227.300781 181.363281 227.113281 L 181.363281 228.222656 C 181.027344 228.378906 180.679688 228.496094 180.320312 228.574219 C 179.964844 228.652344 179.585938 228.691406 179.179688 228.691406 C 178.082031 228.691406 177.207031 228.347656 176.5625 227.65625 C 175.914062 226.964844 175.59375 226.035156 175.59375 224.863281 C 175.59375 223.671875 175.917969 222.738281 176.570312 222.058594 C 177.226562 221.375 178.121094 221.035156 179.257812 221.035156 C 179.628906 221.035156 179.988281 221.074219 180.339844 221.148438 C 180.691406 221.226562 181.03125 221.339844 181.363281 221.488281 Z M 181.363281 221.488281 "/>
<path style=" stroke:none;fill-rule:nonzero;fill:rgb(0%,0%,0%);fill-opacity:1;" d="M 189.507812 224.101562 L 189.507812 228.503906 L 188.308594 228.503906 L 188.308594 224.140625 C 188.308594 223.449219 188.175781 222.933594 187.90625 222.589844 C 187.636719 222.25 187.230469 222.078125 186.695312 222.078125 C 186.046875 222.078125 185.535156 222.285156 185.164062 222.695312 C 184.789062 223.105469 184.601562 223.667969 184.601562 224.382812 L 184.601562 228.503906 L 183.398438 228.503906 L 183.398438 218.371094 L 184.601562 218.371094 L 184.601562 222.34375 C 184.890625 221.90625 185.226562 221.578125 185.617188 221.359375 C 186.003906 221.144531 186.453125 221.035156 186.960938 221.035156 C 187.796875 221.035156 188.433594 221.292969 188.859375 221.8125 C 189.292969 222.332031 189.507812 223.09375 189.507812 224.101562 Z M 189.507812 224.101562 "/>
<g clip-path="url(#clip6)" clip-rule="nonzero">
<path style="fill:none;stroke-width:0.8;stroke-linecap:square;stroke-linejoin:round;stroke:rgb(69.01961%,69.01961%,69.01961%);stroke-opacity:1;stroke-miterlimit:4;" d="M 30.102539 127.174805 L 225.404297 127.174805 " transform="matrix(1.333333,0,0,1.333333,0.000000000000028422,0)"/>
</g>
<path style="fill:none;stroke-width:0.8;stroke-linecap:butt;stroke-linejoin:round;stroke:rgb(0%,0%,0%);stroke-opacity:1;stroke-miterlimit:4;" d="M -0.000585556 0.000816345 L -3.498632 0.000816345 " transform="matrix(1.333333,0,0,1.333333,40.137499,169.565318)"/>
<path style=" stroke:none;fill-rule:nonzero;fill:rgb(0%,0%,0%);fill-opacity:1;" d="M 13.835938 165.777344 C 13.160156 165.777344 12.652344 166.109375 12.308594 166.777344 C 11.96875 167.441406 11.800781 168.445312 11.800781 169.78125 C 11.800781 171.113281 11.96875 172.113281 12.308594 172.777344 C 12.652344 173.445312 13.160156 173.777344 13.835938 173.777344 C 14.519531 173.777344 15.03125 173.445312 15.371094 172.777344 C 15.710938 172.113281 15.882812 171.113281 15.882812 169.78125 C 15.882812 168.445312 15.710938 167.441406 15.371094 166.777344 C 15.03125 166.109375 14.519531 165.777344 13.835938 165.777344 Z M 13.835938 164.734375 C 14.929688 164.734375 15.761719 165.167969 16.335938 166.027344 C 16.910156 166.890625 17.199219 168.140625 17.199219 169.78125 C 17.199219 171.417969 16.910156 172.667969 16.335938 173.527344 C 15.761719 174.390625 14.929688 174.820312 13.835938 174.820312 C 12.75 174.820312 11.917969 174.390625 11.339844 173.527344 C 10.765625 172.667969 10.480469 171.417969 10.480469 169.78125 C 10.480469 168.140625 10.765625 166.890625 11.339844 166.027344 C 11.917969 165.167969 12.75 164.734375 13.835938 164.734375 Z M 13.835938 164.734375 "/>
<path style=" stroke:none;fill-rule:nonzero;fill:rgb(0%,0%,0%);fill-opacity:1;" d="M 19.507812 172.976562 L 20.882812 172.976562 L 20.882812 174.632812 L 19.507812 174.632812 Z M 19.507812 172.976562 "/>
<path style=" stroke:none;fill-rule:nonzero;fill:rgb(0%,0%,0%);fill-opacity:1;" d="M 24.878906 173.523438 L 29.46875 173.523438 L 29.46875 174.632812 L 23.296875 174.632812 L 23.296875 173.523438 C 23.796875 173.007812 24.476562 172.316406 25.339844 171.445312 C 26.199219 170.574219 26.742188 170.011719 26.964844 169.761719 C 27.382812 169.289062 27.675781 168.886719 27.84375 168.558594 C 28.011719 168.230469 28.097656 167.910156 28.097656 167.59375 C 28.097656 167.078125 27.914062 166.65625 27.550781 166.332031 C 27.191406 166.003906 26.71875 165.839844 26.136719 165.839844 C 25.722656 165.839844 25.289062 165.914062 24.828125 166.054688 C 24.371094 166.199219 23.882812 166.417969 23.363281 166.707031 L 23.363281 165.378906 C 23.890625 165.167969 24.386719 165.007812 24.847656 164.898438 C 25.308594 164.789062 25.730469 164.734375 26.109375 164.734375 C 27.117188 164.734375 27.921875 164.988281 28.519531 165.492188 C 29.117188 165.992188 29.417969 166.667969 29.417969 167.507812 C 29.417969 167.90625 29.34375 168.289062 29.191406 168.644531 C 29.042969 169.003906 28.769531 169.425781 28.375 169.910156 C 28.265625 170.035156 27.921875 170.398438 27.339844 171 C 26.757812 171.601562 25.9375 172.445312 24.878906 173.523438 Z M 24.878906 173.523438 "/>
<g clip-path="url(#clip7)" clip-rule="nonzero">
<path style="fill:none;stroke-width:0.8;stroke-linecap:square;stroke-linejoin:round;stroke:rgb(69.01961%,69.01961%,69.01961%);stroke-opacity:1;stroke-miterlimit:4;" d="M 30.102539 96.870117 L 225.404297 96.870117 " transform="matrix(1.333333,0,0,1.333333,0.000000000000028422,0)"/>
</g>
<path style="fill:none;stroke-width:0.8;stroke-linecap:butt;stroke-linejoin:round;stroke:rgb(0%,0%,0%);stroke-opacity:1;stroke-miterlimit:4;" d="M -0.000585556 -0.000389099 L -3.498632 -0.000389099 " transform="matrix(1.333333,0,0,1.333333,40.137499,129.160675)"/>
<path style=" stroke:none;fill-rule:nonzero;fill:rgb(0%,0%,0%);fill-opacity:1;" d="M 13.835938 125.371094 C 13.160156 125.371094 12.652344 125.707031 12.308594 126.371094 C 11.96875 127.039062 11.800781 128.039062 11.800781 129.375 C 11.800781 130.707031 11.96875 131.707031 12.308594 132.375 C 12.652344 133.039062 13.160156 133.375 13.835938 133.375 C 14.519531 133.375 15.03125 133.039062 15.371094 132.375 C 15.710938 131.707031 15.882812 130.707031 15.882812 129.375 C 15.882812 128.039062 15.710938 127.039062 15.371094 126.371094 C 15.03125 125.707031 14.519531 125.371094 13.835938 125.371094 Z M 13.835938 124.332031 C 14.929688 124.332031 15.761719 124.761719 16.335938 125.625 C 16.910156 126.484375 17.199219 127.734375 17.199219 129.375 C 17.199219 131.011719 16.910156 132.261719 16.335938 133.125 C 15.761719 133.984375 14.929688 134.414062 13.835938 134.414062 C 12.75 134.414062 11.917969 133.984375 11.339844 133.125 C 10.765625 132.261719 10.480469 131.011719 10.480469 129.375 C 10.480469 127.734375 10.765625 126.484375 11.339844 125.625 C 11.917969 124.761719 12.75 124.332031 13.835938 124.332031 Z M 13.835938 124.332031 "/>
<path style=" stroke:none;fill-rule:nonzero;fill:rgb(0%,0%,0%);fill-opacity:1;" d="M 19.507812 132.570312 L 20.882812 132.570312 L 20.882812 134.226562 L 19.507812 134.226562 Z M 19.507812 132.570312 "/>
<path style=" stroke:none;fill-rule:nonzero;fill:rgb(0%,0%,0%);fill-opacity:1;" d="M 27.359375 125.652344 L 24.039062 130.839844 L 27.359375 130.839844 Z M 27.015625 124.503906 L 28.667969 124.503906 L 28.667969 130.839844 L 30.058594 130.839844 L 30.058594 131.933594 L 28.667969 131.933594 L 28.667969 134.226562 L 27.359375 134.226562 L 27.359375 131.933594 L 22.972656 131.933594 L 22.972656 130.664062 Z M 27.015625 124.503906 "/>
<g clip-path="url(#clip8)" clip-rule="nonzero">
<path style="fill:none;stroke-width:0.8;stroke-linecap:square;stroke-linejoin:round;stroke:rgb(69.01961%,69.01961%,69.01961%);stroke-opacity:1;stroke-miterlimit:4;" d="M 30.102539 66.568359 L 225.404297 66.568359 " transform="matrix(1.333333,0,0,1.333333,0.000000000000028422,0)"/>
</g>
<path style="fill:none;stroke-width:0.8;stroke-linecap:butt;stroke-linejoin:round;stroke:rgb(0%,0%,0%);stroke-opacity:1;stroke-miterlimit:4;" d="M -0.000585556 0.00132751 L -3.498632 0.00132751 " transform="matrix(1.333333,0,0,1.333333,40.137499,88.756042)"/>
<path style=" stroke:none;fill-rule:nonzero;fill:rgb(0%,0%,0%);fill-opacity:1;" d="M 13.835938 84.96875 C 13.160156 84.96875 12.652344 85.300781 12.308594 85.96875 C 11.96875 86.632812 11.800781 87.632812 11.800781 88.972656 C 11.800781 90.304688 11.96875 91.304688 12.308594 91.96875 C 12.652344 92.636719 13.160156 92.96875 13.835938 92.96875 C 14.519531 92.96875 15.03125 92.636719 15.371094 91.96875 C 15.710938 91.304688 15.882812 90.304688 15.882812 88.972656 C 15.882812 87.632812 15.710938 86.632812 15.371094 85.96875 C 15.03125 85.300781 14.519531 84.96875 13.835938 84.96875 Z M 13.835938 83.925781 C 14.929688 83.925781 15.761719 84.355469 16.335938 85.21875 C 16.910156 86.082031 17.199219 87.332031 17.199219 88.972656 C 17.199219 90.609375 16.910156 91.855469 16.335938 92.71875 C 15.761719 93.582031 14.929688 94.011719 13.835938 94.011719 C 12.75 94.011719 11.917969 93.582031 11.339844 92.71875 C 10.765625 91.855469 10.480469 90.609375 10.480469 88.972656 C 10.480469 87.332031 10.765625 86.082031 11.339844 85.21875 C 11.917969 84.355469 12.75 83.925781 13.835938 83.925781 Z M 13.835938 83.925781 "/>
<path style=" stroke:none;fill-rule:nonzero;fill:rgb(0%,0%,0%);fill-opacity:1;" d="M 19.507812 92.167969 L 20.882812 92.167969 L 20.882812 93.820312 L 19.507812 93.820312 Z M 19.507812 92.167969 "/>
<path style=" stroke:none;fill-rule:nonzero;fill:rgb(0%,0%,0%);fill-opacity:1;" d="M 26.722656 88.4375 C 26.132812 88.4375 25.664062 88.640625 25.320312 89.042969 C 24.976562 89.449219 24.800781 90 24.800781 90.703125 C 24.800781 91.402344 24.976562 91.953125 25.320312 92.359375 C 25.664062 92.765625 26.132812 92.96875 26.722656 92.96875 C 27.3125 92.96875 27.78125 92.765625 28.125 92.359375 C 28.46875 91.953125 28.640625 91.402344 28.640625 90.703125 C 28.640625 90 28.46875 89.449219 28.125 89.042969 C 27.78125 88.640625 27.3125 88.4375 26.722656 88.4375 Z M 29.332031 84.316406 L 29.332031 85.511719 C 29.003906 85.359375 28.671875 85.238281 28.332031 85.15625 C 27.996094 85.074219 27.664062 85.03125 27.332031 85.03125 C 26.464844 85.03125 25.800781 85.324219 25.34375 85.910156 C 24.886719 86.496094 24.625 87.382812 24.5625 88.566406 C 24.816406 88.191406 25.136719 87.898438 25.523438 87.699219 C 25.910156 87.496094 26.335938 87.398438 26.800781 87.398438 C 27.777344 87.398438 28.546875 87.691406 29.113281 88.285156 C 29.683594 88.878906 29.964844 89.683594 29.964844 90.703125 C 29.964844 91.703125 29.671875 92.503906 29.078125 93.105469 C 28.488281 93.710938 27.703125 94.011719 26.722656 94.011719 C 25.597656 94.011719 24.738281 93.582031 24.144531 92.71875 C 23.550781 91.855469 23.253906 90.609375 23.253906 88.972656 C 23.253906 87.4375 23.617188 86.210938 24.347656 85.296875 C 25.074219 84.382812 26.054688 83.925781 27.28125 83.925781 C 27.613281 83.925781 27.945312 83.957031 28.28125 84.023438 C 28.617188 84.089844 28.96875 84.1875 29.332031 84.316406 Z M 29.332031 84.316406 "/>
<g clip-path="url(#clip9)" clip-rule="nonzero">
<path style="fill:none;stroke-width:0.8;stroke-linecap:square;stroke-linejoin:round;stroke:rgb(69.01961%,69.01961%,69.01961%);stroke-opacity:1;stroke-miterlimit:4;" d="M 30.102539 36.263672 L 225.404297 36.263672 " transform="matrix(1.333333,0,0,1.333333,0.000000000000028422,0)"/>
</g>
<path style="fill:none;stroke-width:0.8;stroke-linecap:butt;stroke-linejoin:round;stroke:rgb(0%,0%,0%);stroke-opacity:1;stroke-miterlimit:4;" d="M -0.000585556 0.00012207 L -3.498632 0.00012207 " transform="matrix(1.333333,0,0,1.333333,40.137499,48.3514)"/>
<path style=" stroke:none;fill-rule:nonzero;fill:rgb(0%,0%,0%);fill-opacity:1;" d="M 13.835938 44.5625 C 13.160156 44.5625 12.652344 44.894531 12.308594 45.5625 C 11.96875 46.226562 11.800781 47.230469 11.800781 48.566406 C 11.800781 49.898438 11.96875 50.898438 12.308594 51.566406 C 12.652344 52.230469 13.160156 52.566406 13.835938 52.566406 C 14.519531 52.566406 15.03125 52.230469 15.371094 51.566406 C 15.710938 50.898438 15.882812 49.898438 15.882812 48.566406 C 15.882812 47.230469 15.710938 46.226562 15.371094 45.5625 C 15.03125 44.894531 14.519531 44.5625 13.835938 44.5625 Z M 13.835938 43.519531 C 14.929688 43.519531 15.761719 43.953125 16.335938 44.816406 C 16.910156 45.675781 17.199219 46.925781 17.199219 48.566406 C 17.199219 50.203125 16.910156 51.453125 16.335938 52.316406 C 15.761719 53.175781 14.929688 53.605469 13.835938 53.605469 C 12.75 53.605469 11.917969 53.175781 11.339844 52.316406 C 10.765625 51.453125 10.480469 50.203125 10.480469 48.566406 C 10.480469 46.925781 10.765625 45.675781 11.339844 44.816406 C 11.917969 43.953125 12.75 43.519531 13.835938 43.519531 Z M 13.835938 43.519531 "/>
<path style=" stroke:none;fill-rule:nonzero;fill:rgb(0%,0%,0%);fill-opacity:1;" d="M 19.507812 51.761719 L 20.882812 51.761719 L 20.882812 53.417969 L 19.507812 53.417969 Z M 19.507812 51.761719 "/>
<path style=" stroke:none;fill-rule:nonzero;fill:rgb(0%,0%,0%);fill-opacity:1;" d="M 26.558594 48.800781 C 25.933594 48.800781 25.441406 48.96875 25.082031 49.300781 C 24.726562 49.636719 24.546875 50.097656 24.546875 50.679688 C 24.546875 51.269531 24.726562 51.726562 25.082031 52.0625 C 25.441406 52.398438 25.933594 52.566406 26.558594 52.566406 C 27.183594 52.566406 27.675781 52.398438 28.035156 52.0625 C 28.398438 51.722656 28.578125 51.261719 28.578125 50.679688 C 28.578125 50.097656 28.398438 49.636719 28.039062 49.300781 C 27.683594 48.96875 27.1875 48.800781 26.558594 48.800781 Z M 25.246094 48.242188 C 24.679688 48.101562 24.242188 47.839844 23.925781 47.453125 C 23.613281 47.066406 23.453125 46.59375 23.453125 46.039062 C 23.453125 45.261719 23.730469 44.648438 24.285156 44.199219 C 24.839844 43.746094 25.597656 43.519531 26.558594 43.519531 C 27.527344 43.519531 28.285156 43.746094 28.839844 44.199219 C 29.390625 44.648438 29.664062 45.261719 29.664062 46.039062 C 29.664062 46.59375 29.507812 47.066406 29.191406 47.453125 C 28.878906 47.839844 28.441406 48.101562 27.882812 48.242188 C 28.515625 48.390625 29.007812 48.679688 29.359375 49.109375 C 29.714844 49.539062 29.890625 50.0625 29.890625 50.679688 C 29.890625 51.625 29.605469 52.347656 29.03125 52.851562 C 28.453125 53.355469 27.632812 53.605469 26.558594 53.605469 C 25.488281 53.605469 24.664062 53.355469 24.089844 52.851562 C 23.511719 52.347656 23.226562 51.625 23.226562 50.679688 C 23.226562 50.0625 23.402344 49.539062 23.757812 49.109375 C 24.117188 48.679688 24.609375 48.390625 25.246094 48.242188 Z M 24.761719 46.164062 C 24.761719 46.667969 24.921875 47.058594 25.234375 47.34375 C 25.550781 47.625 25.992188 47.765625 26.558594 47.765625 C 27.125 47.765625 27.566406 47.625 27.882812 47.34375 C 28.203125 47.058594 28.363281 46.667969 28.363281 46.164062 C 28.363281 45.660156 28.203125 45.269531 27.882812 44.984375 C 27.566406 44.703125 27.125 44.5625 26.558594 44.5625 C 25.992188 44.5625 25.550781 44.703125 25.234375 44.984375 C 24.921875 45.269531 24.761719 45.660156 24.761719 46.164062 Z M 24.761719 46.164062 "/>
<g clip-path="url(#clip10)" clip-rule="nonzero">
<path style="fill:none;stroke-width:1.5;stroke-linecap:square;stroke-linejoin:round;stroke:rgb(12.156863%,46.666667%,70.588237%);stroke-opacity:1;stroke-miterlimit:4;" d="M 12.744141 18.210938 L 17.083008 48.911133 L 21.421875 63.049805 L 25.763672 71.188477 L 30.102539 77.777344 L 34.444336 109.268555 L 38.783203 108.418945 L 43.12207 109.801758 L 47.463867 110.411133 L 51.802734 111.205078 L 56.144531 117.667969 L 60.483398 117.073242 L 64.822266 117.418945 L 69.164062 117.884766 L 73.50293 118.250977 L 77.841797 123.421875 L 82.183594 123.023438 L 86.522461 122.982422 L 90.864258 122.786133 L 95.203125 122.81543 L 99.541992 124.751953 L 103.883789 125.329102 L 108.222656 125.566406 L 112.564453 125.692383 L 116.90332 125.932617 L 121.242187 126.899414 L 125.583984 128.361328 L 129.922852 128.736328 L 134.261719 128.44043 L 138.603516 128.428711 L 142.942383 131.736328 L 147.28418 130.681641 L 151.623047 130.822266 L 155.961914 130.59668 L 160.303711 130.751953 L 164.642578 134.704102 L 168.984375 134.080078 L 173.323242 133.262695 L 177.662109 132.960938 L 182.003906 132.694336 L 186.342773 135.905273 L 190.68457 135.703125 L 195.023437 135 L 199.362305 134.853516 L 203.704102 134.651367 L 208.042969 136.253906 L 212.381836 136.921875 L 216.723633 136.901367 L 221.0625 136.637695 L 225.404297 136.280273 " transform="matrix(1.333333,0,0,1.333333,0.000000000000028422,0)"/>
</g>
<g clip-path="url(#clip11)" clip-rule="nonzero">
<path style="fill:none;stroke-width:1.5;stroke-linecap:butt;stroke-linejoin:round;stroke:rgb(74.901962%,0%,74.901962%);stroke-opacity:1;stroke-dasharray:5.55,2.4;stroke-miterlimit:4;" d="M 12.744141 53.396484 L 17.083008 43.517578 L 21.421875 38.932617 L 25.763672 36.360352 L 30.102539 34.209961 L 34.444336 22.87207 L 38.783203 23.557617 L 43.12207 23.115234 L 47.463867 23.039062 L 51.802734 22.866211 L 56.144531 20.707031 L 60.483398 21.079102 L 64.822266 20.794922 L 69.164062 20.545898 L 73.50293 20.402344 L 77.841797 18.413086 L 82.183594 18.421875 L 86.522461 18.430664 L 90.864258 18.439453 L 95.203125 18.489258 L 99.541992 17.847656 L 103.883789 17.733398 L 108.222656 17.566406 L 112.564453 17.630859 L 116.90332 17.504883 L 121.242187 17.129883 L 125.583984 16.78418 L 129.922852 16.652344 L 134.261719 16.743164 L 138.603516 16.772461 L 142.942383 15.366211 L 147.28418 15.808594 L 151.623047 15.75 L 155.961914 15.861328 L 160.303711 15.708984 L 164.642578 13.918945 L 168.984375 14.170898 L 173.323242 14.616211 L 177.662109 14.824219 L 182.003906 14.950195 L 186.342773 13.376953 L 190.68457 13.672852 L 195.023437 13.998047 L 199.362305 14.0625 L 203.704102 14.203125 L 208.042969 14.208984 L 212.381836 13.573242 L 216.723633 13.640625 L 221.0625 13.705078 L 225.404297 13.845703 " transform="matrix(1.333333,0,0,1.333333,0.000000000000028422,0)"/>
</g>
<g clip-path="url(#clip12)" clip-rule="nonzero">
<path style="fill:none;stroke-width:1.5;stroke-linecap:butt;stroke-linejoin:round;stroke:rgb(0%,50.196081%,0%);stroke-opacity:1;stroke-dasharray:9.6,2.4,1.5,2.4;stroke-miterlimit:4;" d="M 30.102539 31.142578 L 51.802734 23.232422 L 73.50293 35.838867 L 95.203125 25.945312 L 116.90332 24.263672 L 138.603516 21.914062 L 160.303711 26.15625 L 182.003906 20.642578 L 203.704102 22.658203 L 225.404297 23.370117 " transform="matrix(1.333333,0,0,1.333333,0.000000000000028422,0)"/>
</g>
<path style="fill:none;stroke-width:0.8;stroke-linecap:square;stroke-linejoin:miter;stroke:rgb(0%,0%,0%);stroke-opacity:1;stroke-miterlimit:4;" d="M 30.102539 143.100586 L 30.102539 7.201172 " transform="matrix(1.333333,0,0,1.333333,0.000000000000028422,0)"/>
<path style="fill:none;stroke-width:0.8;stroke-linecap:square;stroke-linejoin:miter;stroke:rgb(0%,0%,0%);stroke-opacity:1;stroke-miterlimit:4;" d="M 225.404297 143.100586 L 225.404297 7.201172 " transform="matrix(1.333333,0,0,1.333333,0.000000000000028422,0)"/>
<path style="fill:none;stroke-width:0.8;stroke-linecap:square;stroke-linejoin:miter;stroke:rgb(0%,0%,0%);stroke-opacity:1;stroke-miterlimit:4;" d="M 30.102539 143.100586 L 225.404297 143.100586 " transform="matrix(1.333333,0,0,1.333333,0.000000000000028422,0)"/>
<path style="fill:none;stroke-width:0.8;stroke-linecap:square;stroke-linejoin:miter;stroke:rgb(0%,0%,0%);stroke-opacity:1;stroke-miterlimit:4;" d="M 30.102539 7.201172 L 225.404297 7.201172 " transform="matrix(1.333333,0,0,1.333333,0.000000000000028422,0)"/>
<use xlink:href="#surface5" mask="url(#mask0)"/>
<path style="fill:none;stroke-width:1.5;stroke-linecap:square;stroke-linejoin:round;stroke:rgb(12.156863%,46.666667%,70.588237%);stroke-opacity:1;stroke-miterlimit:4;" d="M 142.634766 59.730469 L 162.635742 59.730469 " transform="matrix(1.333333,0,0,1.333333,0.000000000000028422,0)"/>
<path style=" stroke:none;fill-rule:nonzero;fill:rgb(0%,0%,0%);fill-opacity:1;" d="M 229.953125 74.945312 L 229.953125 77.015625 L 232.421875 77.015625 L 232.421875 77.949219 L 229.953125 77.949219 L 229.953125 81.90625 C 229.953125 82.5 230.035156 82.882812 230.199219 83.050781 C 230.359375 83.222656 230.691406 83.304688 231.191406 83.304688 L 232.421875 83.304688 L 232.421875 84.308594 L 231.191406 84.308594 C 230.265625 84.308594 229.628906 84.136719 229.277344 83.792969 C 228.925781 83.445312 228.75 82.816406 228.75 81.90625 L 228.75 77.949219 L 227.871094 77.949219 L 227.871094 77.015625 L 228.75 77.015625 L 228.75 74.945312 Z M 229.953125 74.945312 "/>
<path style=" stroke:none;fill-rule:nonzero;fill:rgb(0%,0%,0%);fill-opacity:1;" d="M 238.222656 78.136719 C 238.085938 78.058594 237.941406 78 237.78125 77.964844 C 237.625 77.925781 237.449219 77.910156 237.257812 77.910156 C 236.582031 77.910156 236.0625 78.128906 235.699219 78.570312 C 235.335938 79.007812 235.15625 79.640625 235.15625 80.464844 L 235.15625 84.308594 L 233.949219 84.308594 L 233.949219 77.015625 L 235.15625 77.015625 L 235.15625 78.148438 C 235.40625 77.707031 235.734375 77.378906 236.136719 77.164062 C 236.542969 76.949219 237.035156 76.839844 237.609375 76.839844 C 237.691406 76.839844 237.785156 76.847656 237.882812 76.859375 C 237.984375 76.867188 238.09375 76.882812 238.214844 76.90625 Z M 238.222656 78.136719 "/>
<path style=" stroke:none;fill-rule:nonzero;fill:rgb(0%,0%,0%);fill-opacity:1;" d="M 242.792969 80.644531 C 241.824219 80.644531 241.152344 80.753906 240.78125 80.976562 C 240.40625 81.195312 240.21875 81.574219 240.21875 82.109375 C 240.21875 82.535156 240.359375 82.871094 240.640625 83.121094 C 240.921875 83.371094 241.300781 83.492188 241.78125 83.492188 C 242.449219 83.492188 242.980469 83.257812 243.382812 82.789062 C 243.785156 82.316406 243.984375 81.691406 243.984375 80.910156 L 243.984375 80.644531 Z M 245.183594 80.148438 L 245.183594 84.308594 L 243.984375 84.308594 L 243.984375 83.203125 C 243.710938 83.644531 243.371094 83.96875 242.960938 84.179688 C 242.554688 84.390625 242.054688 84.496094 241.464844 84.496094 C 240.71875 84.496094 240.125 84.289062 239.683594 83.867188 C 239.242188 83.449219 239.023438 82.886719 239.023438 82.183594 C 239.023438 81.367188 239.296875 80.746094 239.84375 80.332031 C 240.394531 79.914062 241.214844 79.707031 242.304688 79.707031 L 243.984375 79.707031 L 243.984375 79.585938 C 243.984375 79.035156 243.804688 78.609375 243.441406 78.308594 C 243.078125 78.007812 242.570312 77.855469 241.914062 77.855469 C 241.496094 77.855469 241.089844 77.90625 240.695312 78.007812 C 240.300781 78.105469 239.921875 78.257812 239.558594 78.457031 L 239.558594 77.347656 C 239.996094 77.179688 240.421875 77.050781 240.832031 76.96875 C 241.246094 76.882812 241.644531 76.839844 242.035156 76.839844 C 243.09375 76.839844 243.878906 77.117188 244.402344 77.664062 C 244.921875 78.207031 245.183594 79.035156 245.183594 80.148438 Z M 245.183594 80.148438 "/>
<path style=" stroke:none;fill-rule:nonzero;fill:rgb(0%,0%,0%);fill-opacity:1;" d="M 247.648438 77.015625 L 248.847656 77.015625 L 248.847656 84.308594 L 247.648438 84.308594 Z M 247.648438 74.175781 L 248.847656 74.175781 L 248.847656 75.695312 L 247.648438 75.695312 Z M 247.648438 74.175781 "/>
<path style=" stroke:none;fill-rule:nonzero;fill:rgb(0%,0%,0%);fill-opacity:1;" d="M 257.414062 79.90625 L 257.414062 84.308594 L 256.21875 84.308594 L 256.21875 79.945312 C 256.21875 79.253906 256.082031 78.738281 255.8125 78.398438 C 255.542969 78.054688 255.140625 77.882812 254.601562 77.882812 C 253.957031 77.882812 253.445312 78.089844 253.070312 78.503906 C 252.699219 78.914062 252.511719 79.476562 252.511719 80.1875 L 252.511719 84.308594 L 251.308594 84.308594 L 251.308594 77.015625 L 252.511719 77.015625 L 252.511719 78.148438 C 252.800781 77.710938 253.136719 77.382812 253.523438 77.167969 C 253.914062 76.949219 254.363281 76.839844 254.871094 76.839844 C 255.707031 76.839844 256.339844 77.101562 256.769531 77.617188 C 257.199219 78.136719 257.414062 78.898438 257.414062 79.90625 Z M 257.414062 79.90625 "/>
<path style=" stroke:none;fill-rule:nonzero;fill:rgb(0%,0%,0%);fill-opacity:1;" d="M 264.042969 74.175781 L 265.238281 74.175781 L 265.238281 84.308594 L 264.042969 84.308594 Z M 264.042969 74.175781 "/>
<path style=" stroke:none;fill-rule:nonzero;fill:rgb(0%,0%,0%);fill-opacity:1;" d="M 270.570312 77.855469 C 269.929688 77.855469 269.421875 78.105469 269.046875 78.609375 C 268.675781 79.109375 268.488281 79.796875 268.488281 80.667969 C 268.488281 81.539062 268.671875 82.226562 269.042969 82.730469 C 269.417969 83.230469 269.925781 83.480469 270.570312 83.480469 C 271.210938 83.480469 271.714844 83.230469 272.089844 82.726562 C 272.460938 82.222656 272.648438 81.535156 272.648438 80.667969 C 272.648438 79.804688 272.460938 79.121094 272.089844 78.613281 C 271.714844 78.109375 271.210938 77.855469 270.570312 77.855469 Z M 270.570312 76.839844 C 271.613281 76.839844 272.429688 77.179688 273.027344 77.859375 C 273.621094 78.535156 273.917969 79.472656 273.917969 80.667969 C 273.917969 81.863281 273.621094 82.796875 273.027344 83.480469 C 272.429688 84.160156 271.613281 84.496094 270.570312 84.496094 C 269.527344 84.496094 268.707031 84.160156 268.113281 83.480469 C 267.523438 82.796875 267.226562 81.863281 267.226562 80.667969 C 267.226562 79.472656 267.523438 78.535156 268.113281 77.859375 C 268.707031 77.179688 269.527344 76.839844 270.570312 76.839844 Z M 270.570312 76.839844 "/>
<path style=" stroke:none;fill-rule:nonzero;fill:rgb(0%,0%,0%);fill-opacity:1;" d="M 280.550781 77.230469 L 280.550781 78.363281 C 280.214844 78.191406 279.863281 78.0625 279.496094 77.976562 C 279.132812 77.886719 278.757812 77.84375 278.363281 77.84375 C 277.769531 77.84375 277.324219 77.933594 277.027344 78.117188 C 276.730469 78.296875 276.582031 78.570312 276.582031 78.9375 C 276.582031 79.214844 276.6875 79.433594 276.898438 79.589844 C 277.113281 79.75 277.539062 79.902344 278.183594 80.042969 L 278.59375 80.136719 C 279.445312 80.316406 280.046875 80.574219 280.40625 80.90625 C 280.765625 81.238281 280.945312 81.703125 280.945312 82.296875 C 280.945312 82.972656 280.675781 83.511719 280.140625 83.90625 C 279.601562 84.300781 278.867188 84.496094 277.929688 84.496094 C 277.539062 84.496094 277.132812 84.460938 276.707031 84.382812 C 276.285156 84.308594 275.839844 84.191406 275.371094 84.042969 L 275.371094 82.804688 C 275.8125 83.035156 276.25 83.207031 276.679688 83.324219 C 277.109375 83.4375 277.535156 83.492188 277.957031 83.492188 C 278.519531 83.492188 278.953125 83.398438 279.257812 83.203125 C 279.558594 83.011719 279.710938 82.738281 279.710938 82.386719 C 279.710938 82.0625 279.601562 81.8125 279.382812 81.640625 C 279.164062 81.464844 278.683594 81.296875 277.941406 81.136719 L 277.523438 81.039062 C 276.785156 80.882812 276.246094 80.644531 275.917969 80.320312 C 275.585938 79.996094 275.421875 79.554688 275.421875 78.988281 C 275.421875 78.304688 275.664062 77.773438 276.152344 77.402344 C 276.636719 77.027344 277.328125 76.839844 278.222656 76.839844 C 278.664062 76.839844 279.082031 76.875 279.472656 76.941406 C 279.863281 77.003906 280.222656 77.101562 280.550781 77.230469 Z M 280.550781 77.230469 "/>
<path style=" stroke:none;fill-rule:nonzero;fill:rgb(0%,0%,0%);fill-opacity:1;" d="M 287.5 77.230469 L 287.5 78.363281 C 287.160156 78.191406 286.808594 78.0625 286.445312 77.976562 C 286.082031 77.886719 285.703125 77.84375 285.3125 77.84375 C 284.714844 77.84375 284.269531 77.933594 283.972656 78.117188 C 283.675781 78.296875 283.527344 78.570312 283.527344 78.9375 C 283.527344 79.214844 283.632812 79.433594 283.847656 79.589844 C 284.058594 79.75 284.488281 79.902344 285.128906 80.042969 L 285.539062 80.136719 C 286.390625 80.316406 286.996094 80.574219 287.351562 80.90625 C 287.710938 81.238281 287.890625 81.703125 287.890625 82.296875 C 287.890625 82.972656 287.621094 83.511719 287.085938 83.90625 C 286.550781 84.300781 285.8125 84.496094 284.875 84.496094 C 284.484375 84.496094 284.078125 84.460938 283.65625 84.382812 C 283.230469 84.308594 282.785156 84.191406 282.316406 84.042969 L 282.316406 82.804688 C 282.761719 83.035156 283.195312 83.207031 283.625 83.324219 C 284.054688 83.4375 284.480469 83.492188 284.902344 83.492188 C 285.464844 83.492188 285.898438 83.398438 286.203125 83.203125 C 286.507812 83.011719 286.660156 82.738281 286.660156 82.386719 C 286.660156 82.0625 286.550781 81.8125 286.328125 81.640625 C 286.113281 81.464844 285.632812 81.296875 284.886719 81.136719 L 284.472656 81.039062 C 283.730469 80.882812 283.195312 80.644531 282.863281 80.320312 C 282.535156 79.996094 282.371094 79.554688 282.371094 78.988281 C 282.371094 78.304688 282.613281 77.773438 283.097656 77.402344 C 283.585938 77.027344 284.273438 76.839844 285.167969 76.839844 C 285.609375 76.839844 286.027344 76.875 286.417969 76.941406 C 286.808594 77.003906 287.167969 77.101562 287.5 77.230469 Z M 287.5 77.230469 "/>
<path style="fill:none;stroke-width:1.5;stroke-linecap:butt;stroke-linejoin:round;stroke:rgb(74.901962%,0%,74.901962%);stroke-opacity:1;stroke-dasharray:5.55,2.4;stroke-miterlimit:4;" d="M 142.634766 74.408203 L 162.635742 74.408203 " transform="matrix(1.333333,0,0,1.333333,0.000000000000028422,0)"/>
<path style=" stroke:none;fill-rule:nonzero;fill:rgb(0%,0%,0%);fill-opacity:1;" d="M 229.953125 94.515625 L 229.953125 96.585938 L 232.421875 96.585938 L 232.421875 97.519531 L 229.953125 97.519531 L 229.953125 101.476562 C 229.953125 102.070312 230.035156 102.453125 230.199219 102.621094 C 230.359375 102.792969 230.691406 102.878906 231.191406 102.878906 L 232.421875 102.878906 L 232.421875 103.878906 L 231.191406 103.878906 C 230.265625 103.878906 229.628906 103.707031 229.277344 103.363281 C 228.925781 103.015625 228.75 102.386719 228.75 101.476562 L 228.75 97.519531 L 227.871094 97.519531 L 227.871094 96.585938 L 228.75 96.585938 L 228.75 94.515625 Z M 229.953125 94.515625 "/>
<path style=" stroke:none;fill-rule:nonzero;fill:rgb(0%,0%,0%);fill-opacity:1;" d="M 238.222656 97.707031 C 238.085938 97.628906 237.941406 97.570312 237.78125 97.535156 C 237.625 97.496094 237.449219 97.480469 237.257812 97.480469 C 236.582031 97.480469 236.0625 97.699219 235.699219 98.140625 C 235.335938 98.578125 235.15625 99.210938 235.15625 100.039062 L 235.15625 103.878906 L 233.949219 103.878906 L 233.949219 96.585938 L 235.15625 96.585938 L 235.15625 97.722656 C 235.40625 97.277344 235.734375 96.949219 236.136719 96.734375 C 236.542969 96.519531 237.035156 96.414062 237.609375 96.414062 C 237.691406 96.414062 237.785156 96.417969 237.882812 96.429688 C 237.984375 96.4375 238.09375 96.453125 238.214844 96.476562 Z M 238.222656 97.707031 "/>
<path style=" stroke:none;fill-rule:nonzero;fill:rgb(0%,0%,0%);fill-opacity:1;" d="M 242.792969 100.214844 C 241.824219 100.214844 241.152344 100.324219 240.78125 100.546875 C 240.40625 100.765625 240.21875 101.144531 240.21875 101.679688 C 240.21875 102.105469 240.359375 102.441406 240.640625 102.691406 C 240.921875 102.941406 241.300781 103.066406 241.78125 103.066406 C 242.449219 103.066406 242.980469 102.828125 243.382812 102.359375 C 243.785156 101.886719 243.984375 101.261719 243.984375 100.480469 L 243.984375 100.214844 Z M 245.183594 99.71875 L 245.183594 103.878906 L 243.984375 103.878906 L 243.984375 102.773438 C 243.710938 103.214844 243.371094 103.539062 242.960938 103.753906 C 242.554688 103.964844 242.054688 104.070312 241.464844 104.070312 C 240.71875 104.070312 240.125 103.859375 239.683594 103.441406 C 239.242188 103.019531 239.023438 102.460938 239.023438 101.757812 C 239.023438 100.9375 239.296875 100.320312 239.84375 99.902344 C 240.394531 99.484375 241.214844 99.277344 242.304688 99.277344 L 243.984375 99.277344 L 243.984375 99.160156 C 243.984375 98.605469 243.804688 98.179688 243.441406 97.878906 C 243.078125 97.578125 242.570312 97.425781 241.914062 97.425781 C 241.496094 97.425781 241.089844 97.476562 240.695312 97.578125 C 240.300781 97.675781 239.921875 97.828125 239.558594 98.027344 L 239.558594 96.917969 C 239.996094 96.75 240.421875 96.621094 240.832031 96.539062 C 241.246094 96.453125 241.644531 96.414062 242.035156 96.414062 C 243.09375 96.414062 243.878906 96.6875 244.402344 97.234375 C 244.921875 97.777344 245.183594 98.609375 245.183594 99.71875 Z M 245.183594 99.71875 "/>
<path style=" stroke:none;fill-rule:nonzero;fill:rgb(0%,0%,0%);fill-opacity:1;" d="M 247.648438 96.585938 L 248.847656 96.585938 L 248.847656 103.878906 L 247.648438 103.878906 Z M 247.648438 93.746094 L 248.847656 93.746094 L 248.847656 95.265625 L 247.648438 95.265625 Z M 247.648438 93.746094 "/>
<path style=" stroke:none;fill-rule:nonzero;fill:rgb(0%,0%,0%);fill-opacity:1;" d="M 257.414062 99.476562 L 257.414062 103.878906 L 256.21875 103.878906 L 256.21875 99.515625 C 256.21875 98.828125 256.082031 98.308594 255.8125 97.96875 C 255.542969 97.625 255.140625 97.453125 254.601562 97.453125 C 253.957031 97.453125 253.445312 97.660156 253.070312 98.074219 C 252.699219 98.484375 252.511719 99.046875 252.511719 99.757812 L 252.511719 103.878906 L 251.308594 103.878906 L 251.308594 96.585938 L 252.511719 96.585938 L 252.511719 97.722656 C 252.800781 97.28125 253.136719 96.953125 253.523438 96.738281 C 253.914062 96.519531 254.363281 96.414062 254.871094 96.414062 C 255.707031 96.414062 256.339844 96.671875 256.769531 97.191406 C 257.199219 97.707031 257.414062 98.46875 257.414062 99.476562 Z M 257.414062 99.476562 "/>
<path style=" stroke:none;fill-rule:nonzero;fill:rgb(0%,0%,0%);fill-opacity:1;" d="M 267.355469 100.214844 C 266.390625 100.214844 265.71875 100.324219 265.34375 100.546875 C 264.96875 100.765625 264.785156 101.144531 264.785156 101.679688 C 264.785156 102.105469 264.925781 102.441406 265.203125 102.691406 C 265.484375 102.941406 265.867188 103.066406 266.347656 103.066406 C 267.011719 103.066406 267.546875 102.828125 267.945312 102.359375 C 268.347656 101.886719 268.546875 101.261719 268.546875 100.480469 L 268.546875 100.214844 Z M 269.746094 99.71875 L 269.746094 103.878906 L 268.546875 103.878906 L 268.546875 102.773438 C 268.273438 103.214844 267.933594 103.539062 267.527344 103.753906 C 267.117188 103.964844 266.617188 104.070312 266.027344 104.070312 C 265.28125 104.070312 264.6875 103.859375 264.246094 103.441406 C 263.804688 103.019531 263.585938 102.460938 263.585938 101.757812 C 263.585938 100.9375 263.859375 100.320312 264.410156 99.902344 C 264.957031 99.484375 265.777344 99.277344 266.867188 99.277344 L 268.546875 99.277344 L 268.546875 99.160156 C 268.546875 98.605469 268.367188 98.179688 268.003906 97.878906 C 267.640625 97.578125 267.132812 97.425781 266.476562 97.425781 C 266.0625 97.425781 265.65625 97.476562 265.257812 97.578125 C 264.863281 97.675781 264.484375 97.828125 264.121094 98.027344 L 264.121094 96.917969 C 264.558594 96.75 264.984375 96.621094 265.394531 96.539062 C 265.808594 96.453125 266.210938 96.414062 266.601562 96.414062 C 267.65625 96.414062 268.445312 96.6875 268.964844 97.234375 C 269.484375 97.777344 269.746094 98.609375 269.746094 99.71875 Z M 269.746094 99.71875 "/>
<path style=" stroke:none;fill-rule:nonzero;fill:rgb(0%,0%,0%);fill-opacity:1;" d="M 277.460938 96.867188 L 277.460938 97.988281 C 277.121094 97.800781 276.78125 97.660156 276.441406 97.566406 C 276.101562 97.472656 275.757812 97.425781 275.410156 97.425781 C 274.632812 97.425781 274.027344 97.671875 273.597656 98.167969 C 273.167969 98.660156 272.953125 99.347656 272.953125 100.238281 C 272.953125 101.128906 273.167969 101.820312 273.597656 102.316406 C 274.027344 102.804688 274.632812 103.050781 275.410156 103.050781 C 275.757812 103.050781 276.101562 103.003906 276.441406 102.914062 C 276.78125 102.820312 277.121094 102.679688 277.460938 102.492188 L 277.460938 103.601562 C 277.125 103.753906 276.78125 103.871094 276.421875 103.949219 C 276.0625 104.027344 275.683594 104.070312 275.28125 104.070312 C 274.179688 104.070312 273.308594 103.722656 272.660156 103.035156 C 272.015625 102.34375 271.691406 101.410156 271.691406 100.238281 C 271.691406 99.050781 272.019531 98.117188 272.671875 97.433594 C 273.324219 96.753906 274.222656 96.414062 275.359375 96.414062 C 275.726562 96.414062 276.085938 96.449219 276.4375 96.527344 C 276.789062 96.601562 277.128906 96.714844 277.460938 96.867188 Z M 277.460938 96.867188 "/>
<path style=" stroke:none;fill-rule:nonzero;fill:rgb(0%,0%,0%);fill-opacity:1;" d="M 284.792969 96.867188 L 284.792969 97.988281 C 284.453125 97.800781 284.113281 97.660156 283.773438 97.566406 C 283.433594 97.472656 283.089844 97.425781 282.742188 97.425781 C 281.964844 97.425781 281.359375 97.671875 280.929688 98.167969 C 280.5 98.660156 280.285156 99.347656 280.285156 100.238281 C 280.285156 101.128906 280.5 101.820312 280.929688 102.316406 C 281.359375 102.804688 281.964844 103.050781 282.742188 103.050781 C 283.089844 103.050781 283.433594 103.003906 283.773438 102.914062 C 284.113281 102.820312 284.453125 102.679688 284.792969 102.492188 L 284.792969 103.601562 C 284.457031 103.753906 284.109375 103.871094 283.75 103.949219 C 283.394531 104.027344 283.015625 104.070312 282.609375 104.070312 C 281.511719 104.070312 280.636719 103.722656 279.992188 103.035156 C 279.34375 102.34375 279.023438 101.410156 279.023438 100.238281 C 279.023438 99.050781 279.347656 98.117188 280 97.433594 C 280.65625 96.753906 281.550781 96.414062 282.6875 96.414062 C 283.058594 96.414062 283.417969 96.449219 283.769531 96.527344 C 284.121094 96.601562 284.460938 96.714844 284.792969 96.867188 Z M 284.792969 96.867188 "/>
<path style="fill:none;stroke-width:1.5;stroke-linecap:butt;stroke-linejoin:round;stroke:rgb(0%,50.196081%,0%);stroke-opacity:1;stroke-dasharray:9.6,2.4,1.5,2.4;stroke-miterlimit:4;" d="M 142.634766 89.088867 L 162.635742 89.088867 " transform="matrix(1.333333,0,0,1.333333,0.000000000000028422,0)"/>
<path style=" stroke:none;fill-rule:nonzero;fill:rgb(0%,0%,0%);fill-opacity:1;" d="M 229.953125 114.085938 L 229.953125 116.160156 L 232.421875 116.160156 L 232.421875 117.089844 L 229.953125 117.089844 L 229.953125 121.046875 C 229.953125 121.640625 230.035156 122.023438 230.199219 122.195312 C 230.359375 122.363281 230.691406 122.449219 231.191406 122.449219 L 232.421875 122.449219 L 232.421875 123.449219 L 231.191406 123.449219 C 230.265625 123.449219 229.628906 123.277344 229.277344 122.933594 C 228.925781 122.585938 228.75 121.960938 228.75 121.046875 L 228.75 117.089844 L 227.871094 117.089844 L 227.871094 116.160156 L 228.75 116.160156 L 228.75 114.085938 Z M 229.953125 114.085938 "/>
<path style=" stroke:none;fill-rule:nonzero;fill:rgb(0%,0%,0%);fill-opacity:1;" d="M 240.234375 119.503906 L 240.234375 120.089844 L 234.726562 120.089844 C 234.777344 120.914062 235.027344 121.542969 235.472656 121.976562 C 235.917969 122.40625 236.535156 122.621094 237.328125 122.621094 C 237.789062 122.621094 238.234375 122.566406 238.667969 122.453125 C 239.097656 122.339844 239.527344 122.171875 239.953125 121.945312 L 239.953125 123.078125 C 239.523438 123.261719 239.082031 123.398438 238.632812 123.496094 C 238.179688 123.589844 237.722656 123.640625 237.257812 123.640625 C 236.09375 123.640625 235.171875 123.300781 234.496094 122.625 C 233.816406 121.945312 233.476562 121.03125 233.476562 119.875 C 233.476562 118.683594 233.796875 117.734375 234.441406 117.035156 C 235.085938 116.335938 235.957031 115.984375 237.050781 115.984375 C 238.03125 115.984375 238.808594 116.300781 239.378906 116.929688 C 239.949219 117.5625 240.234375 118.417969 240.234375 119.503906 Z M 239.035156 119.152344 C 239.027344 118.496094 238.84375 117.976562 238.484375 117.585938 C 238.128906 117.195312 237.652344 116.996094 237.0625 116.996094 C 236.394531 116.996094 235.859375 117.1875 235.460938 117.566406 C 235.058594 117.941406 234.828125 118.472656 234.765625 119.160156 Z M 239.035156 119.152344 "/>
<path style=" stroke:none;fill-rule:nonzero;fill:rgb(0%,0%,0%);fill-opacity:1;" d="M 246.847656 116.371094 L 246.847656 117.507812 C 246.511719 117.332031 246.160156 117.203125 245.792969 117.117188 C 245.429688 117.027344 245.050781 116.984375 244.660156 116.984375 C 244.066406 116.984375 243.621094 117.078125 243.324219 117.257812 C 243.027344 117.441406 242.875 117.714844 242.875 118.078125 C 242.875 118.355469 242.984375 118.574219 243.195312 118.734375 C 243.40625 118.890625 243.835938 119.042969 244.480469 119.183594 L 244.890625 119.277344 C 245.738281 119.460938 246.34375 119.714844 246.703125 120.046875 C 247.058594 120.378906 247.238281 120.84375 247.238281 121.4375 C 247.238281 122.117188 246.972656 122.652344 246.433594 123.046875 C 245.898438 123.441406 245.164062 123.640625 244.226562 123.640625 C 243.835938 123.640625 243.425781 123.601562 243.003906 123.523438 C 242.582031 123.449219 242.132812 123.335938 241.667969 123.183594 L 241.667969 121.945312 C 242.109375 122.175781 242.546875 122.347656 242.976562 122.464844 C 243.402344 122.578125 243.828125 122.636719 244.25 122.636719 C 244.816406 122.636719 245.25 122.539062 245.550781 122.347656 C 245.855469 122.152344 246.007812 121.878906 246.007812 121.527344 C 246.007812 121.203125 245.898438 120.953125 245.679688 120.78125 C 245.460938 120.609375 244.980469 120.441406 244.238281 120.277344 L 243.820312 120.179688 C 243.078125 120.027344 242.542969 119.785156 242.210938 119.460938 C 241.882812 119.140625 241.71875 118.695312 241.71875 118.132812 C 241.71875 117.445312 241.960938 116.914062 242.449219 116.542969 C 242.933594 116.171875 243.625 115.984375 244.519531 115.984375 C 244.960938 115.984375 245.375 116.015625 245.765625 116.082031 C 246.15625 116.144531 246.519531 116.242188 246.847656 116.371094 Z M 246.847656 116.371094 "/>
<path style=" stroke:none;fill-rule:nonzero;fill:rgb(0%,0%,0%);fill-opacity:1;" d="M 250.332031 114.085938 L 250.332031 116.160156 L 252.796875 116.160156 L 252.796875 117.089844 L 250.332031 117.089844 L 250.332031 121.046875 C 250.332031 121.640625 250.414062 122.023438 250.574219 122.195312 C 250.738281 122.363281 251.070312 122.449219 251.570312 122.449219 L 252.796875 122.449219 L 252.796875 123.449219 L 251.570312 123.449219 C 250.644531 123.449219 250.007812 123.277344 249.65625 122.933594 C 249.304688 122.585938 249.128906 121.960938 249.128906 121.046875 L 249.128906 117.089844 L 248.25 117.089844 L 248.25 116.160156 L 249.128906 116.160156 L 249.128906 114.085938 Z M 250.332031 114.085938 "/>
<path style=" stroke:none;fill-rule:nonzero;fill:rgb(0%,0%,0%);fill-opacity:1;" d="M 261.925781 119.785156 C 260.960938 119.785156 260.289062 119.894531 259.914062 120.117188 C 259.539062 120.335938 259.355469 120.714844 259.355469 121.25 C 259.355469 121.675781 259.496094 122.011719 259.773438 122.261719 C 260.054688 122.511719 260.4375 122.636719 260.917969 122.636719 C 261.582031 122.636719 262.117188 122.398438 262.515625 121.929688 C 262.917969 121.457031 263.117188 120.832031 263.117188 120.050781 L 263.117188 119.785156 Z M 264.316406 119.289062 L 264.316406 123.449219 L 263.117188 123.449219 L 263.117188 122.34375 C 262.84375 122.785156 262.503906 123.113281 262.097656 123.324219 C 261.6875 123.535156 261.1875 123.640625 260.597656 123.640625 C 259.851562 123.640625 259.257812 123.429688 258.816406 123.011719 C 258.375 122.589844 258.15625 122.03125 258.15625 121.328125 C 258.15625 120.507812 258.429688 119.890625 258.980469 119.472656 C 259.527344 119.054688 260.347656 118.847656 261.4375 118.847656 L 263.117188 118.847656 L 263.117188 118.730469 C 263.117188 118.179688 262.9375 117.75 262.574219 117.449219 C 262.210938 117.148438 261.703125 116.996094 261.046875 116.996094 C 260.632812 116.996094 260.226562 117.046875 259.828125 117.148438 C 259.433594 117.246094 259.054688 117.398438 258.691406 117.597656 L 258.691406 116.488281 C 259.128906 116.320312 259.554688 116.195312 259.964844 116.109375 C 260.378906 116.027344 260.78125 115.984375 261.171875 115.984375 C 262.226562 115.984375 263.015625 116.257812 263.535156 116.804688 C 264.054688 117.351562 264.316406 118.179688 264.316406 119.289062 Z M 264.316406 119.289062 "/>
<path style=" stroke:none;fill-rule:nonzero;fill:rgb(0%,0%,0%);fill-opacity:1;" d="M 272.03125 116.4375 L 272.03125 117.558594 C 271.691406 117.371094 271.351562 117.230469 271.011719 117.136719 C 270.671875 117.042969 270.328125 116.996094 269.980469 116.996094 C 269.203125 116.996094 268.597656 117.246094 268.167969 117.738281 C 267.738281 118.230469 267.523438 118.921875 267.523438 119.808594 C 267.523438 120.699219 267.738281 121.390625 268.167969 121.886719 C 268.597656 122.378906 269.203125 122.621094 269.980469 122.621094 C 270.328125 122.621094 270.671875 122.578125 271.011719 122.484375 C 271.351562 122.390625 271.691406 122.25 272.03125 122.0625 L 272.03125 123.171875 C 271.695312 123.328125 271.351562 123.441406 270.992188 123.519531 C 270.632812 123.601562 270.253906 123.640625 269.851562 123.640625 C 268.75 123.640625 267.878906 123.292969 267.230469 122.605469 C 266.585938 121.914062 266.261719 120.984375 266.261719 119.808594 C 266.261719 118.621094 266.589844 117.6875 267.242188 117.007812 C 267.894531 116.324219 268.792969 115.984375 269.929688 115.984375 C 270.296875 115.984375 270.65625 116.023438 271.007812 116.097656 C 271.359375 116.171875 271.699219 116.285156 272.03125 116.4375 Z M 272.03125 116.4375 "/>
<path style=" stroke:none;fill-rule:nonzero;fill:rgb(0%,0%,0%);fill-opacity:1;" d="M 279.363281 116.4375 L 279.363281 117.558594 C 279.023438 117.371094 278.683594 117.230469 278.34375 117.136719 C 278.003906 117.042969 277.660156 116.996094 277.3125 116.996094 C 276.535156 116.996094 275.929688 117.246094 275.5 117.738281 C 275.070312 118.230469 274.855469 118.921875 274.855469 119.808594 C 274.855469 120.699219 275.070312 121.390625 275.5 121.886719 C 275.929688 122.378906 276.535156 122.621094 277.3125 122.621094 C 277.660156 122.621094 278.003906 122.578125 278.34375 122.484375 C 278.683594 122.390625 279.023438 122.25 279.363281 122.0625 L 279.363281 123.171875 C 279.027344 123.328125 278.679688 123.441406 278.320312 123.519531 C 277.964844 123.601562 277.585938 123.640625 277.179688 123.640625 C 276.082031 123.640625 275.207031 123.292969 274.5625 122.605469 C 273.914062 121.914062 273.59375 120.984375 273.59375 119.808594 C 273.59375 118.621094 273.917969 117.6875 274.570312 117.007812 C 275.226562 116.324219 276.121094 115.984375 277.257812 115.984375 C 277.628906 115.984375 277.988281 116.023438 278.339844 116.097656 C 278.691406 116.171875 279.03125 116.285156 279.363281 116.4375 Z M 279.363281 116.4375 "/>
</g>
</svg>
