<?xml version="1.0" encoding="UTF-8"?>
<svg xmlns="http://www.w3.org/2000/svg" xmlns:xlink="http://www.w3.org/1999/xlink" width="341.099996" height="240.875" viewBox="0 0 341.099996 240.875" version="1.1">
<defs>
<clipPath id="clip1">
  <path d="M 66.859375 9.601562 L 68 9.601562 L 68 190.800781 L 66.859375 190.800781 Z M 66.859375 9.601562 "/>
</clipPath>
<clipPath id="clip2">
  <path d="M 131 9.601562 L 133 9.601562 L 133 190.800781 L 131 190.800781 Z M 131 9.601562 "/>
</clipPath>
<clipPath id="clip3">
  <path d="M 196 9.601562 L 198 9.601562 L 198 190.800781 L 196 190.800781 Z M 196 9.601562 "/>
</clipPath>
<clipPath id="clip4">
  <path d="M 261 9.601562 L 263 9.601562 L 263 190.800781 L 261 190.800781 Z M 261 9.601562 "/>
</clipPath>
<clipPath id="clip5">
  <path d="M 326 9.601562 L 327.257812 9.601562 L 327.257812 190.800781 L 326 190.800781 Z M 326 9.601562 "/>
</clipPath>
<clipPath id="clip6">
  <path d="M 66.859375 189 L 327.257812 189 L 327.257812 190.800781 L 66.859375 190.800781 Z M 66.859375 189 "/>
</clipPath>
<clipPath id="clip7">
  <path d="M 66.859375 149 L 327.257812 149 L 327.257812 152 L 66.859375 152 Z M 66.859375 149 "/>
</clipPath>
<clipPath id="clip8">
  <path d="M 66.859375 109 L 327.257812 109 L 327.257812 111 L 66.859375 111 Z M 66.859375 109 "/>
</clipPath>
<clipPath id="clip9">
  <path d="M 66.859375 69 L 327.257812 69 L 327.257812 71 L 66.859375 71 Z M 66.859375 69 "/>
</clipPath>
<clipPath id="clip10">
  <path d="M 66.859375 29 L 327.257812 29 L 327.257812 31 L 66.859375 31 Z M 66.859375 29 "/>
</clipPath>
<clipPath id="clip11">
  <path d="M 66.859375 16 L 327.257812 16 L 327.257812 184 L 66.859375 184 Z M 66.859375 16 "/>
</clipPath>
</defs>
<g id="surface1">
<path style=" stroke:none;fill-rule:nonzero;fill:rgb(100%,100%,100%);fill-opacity:1;" d="M 66.859375 190.800781 L 327.257812 190.800781 L 327.257812 9.601562 L 66.859375 9.601562 Z M 66.859375 190.800781 "/>
<g clip-path="url(#clip1)" clip-rule="nonzero">
<path style="fill:none;stroke-width:0.8;stroke-linecap:square;stroke-linejoin:round;stroke:rgb(69.01961%,69.01961%,69.01961%);stroke-opacity:1;stroke-miterlimit:4;" d="M 50.144531 143.100586 L 50.144531 7.201172 " transform="matrix(1.333333,0,0,1.333333,0,0)"/>
</g>
<path style="fill:none;stroke-width:0.8;stroke-linecap:butt;stroke-linejoin:round;stroke:rgb(0%,0%,0%);stroke-opacity:1;stroke-miterlimit:4;" d="M 0.000782013 0.000579834 L 0.000782013 3.498627 " transform="matrix(1.333333,0,0,1.333333,66.858332,190.800008)"/>
<path style=" stroke:none;fill-rule:nonzero;fill:rgb(0%,0%,0%);fill-opacity:1;" d="M 64.269531 209.160156 L 66.417969 209.160156 L 66.417969 201.742188 L 64.082031 202.210938 L 64.082031 201.011719 L 66.40625 200.542969 L 67.722656 200.542969 L 67.722656 209.160156 L 69.867188 209.160156 L 69.867188 210.265625 L 64.269531 210.265625 Z M 64.269531 209.160156 "/>
<g clip-path="url(#clip2)" clip-rule="nonzero">
<path style="fill:none;stroke-width:0.8;stroke-linecap:square;stroke-linejoin:round;stroke:rgb(69.01961%,69.01961%,69.01961%);stroke-opacity:1;stroke-miterlimit:4;" d="M 98.967773 143.100586 L 98.967773 7.201172 " transform="matrix(1.333333,0,0,1.333333,0,0)"/>
</g>
<path style="fill:none;stroke-width:0.8;stroke-linecap:butt;stroke-linejoin:round;stroke:rgb(0%,0%,0%);stroke-opacity:1;stroke-miterlimit:4;" d="M -0.000976562 0.000579834 L -0.000976562 3.498627 " transform="matrix(1.333333,0,0,1.333333,131.958333,190.800008)"/>
<path style=" stroke:none;fill-rule:nonzero;fill:rgb(0%,0%,0%);fill-opacity:1;" d="M 130.273438 209.160156 L 134.863281 209.160156 L 134.863281 210.265625 L 128.695312 210.265625 L 128.695312 209.160156 C 129.191406 208.640625 129.871094 207.949219 130.734375 207.078125 C 131.597656 206.207031 132.136719 205.648438 132.359375 205.394531 C 132.777344 204.921875 133.074219 204.523438 133.238281 204.195312 C 133.40625 203.867188 133.492188 203.542969 133.492188 203.226562 C 133.492188 202.710938 133.308594 202.289062 132.949219 201.964844 C 132.585938 201.636719 132.113281 201.476562 131.53125 201.476562 C 131.117188 201.476562 130.683594 201.546875 130.226562 201.691406 C 129.769531 201.832031 129.277344 202.050781 128.757812 202.339844 L 128.757812 201.011719 C 129.289062 200.800781 129.78125 200.640625 130.242188 200.53125 C 130.703125 200.421875 131.125 200.367188 131.507812 200.367188 C 132.511719 200.367188 133.316406 200.621094 133.914062 201.125 C 134.511719 201.628906 134.8125 202.300781 134.8125 203.140625 C 134.8125 203.542969 134.738281 203.921875 134.585938 204.277344 C 134.4375 204.636719 134.167969 205.058594 133.769531 205.542969 C 133.664062 205.671875 133.316406 206.035156 132.734375 206.636719 C 132.15625 207.238281 131.335938 208.078125 130.273438 209.160156 Z M 130.273438 209.160156 "/>
<g clip-path="url(#clip3)" clip-rule="nonzero">
<path style="fill:none;stroke-width:0.8;stroke-linecap:square;stroke-linejoin:round;stroke:rgb(69.01961%,69.01961%,69.01961%);stroke-opacity:1;stroke-miterlimit:4;" d="M 147.793945 143.100586 L 147.793945 7.201172 " transform="matrix(1.333333,0,0,1.333333,0,0)"/>
</g>
<path style="fill:none;stroke-width:0.8;stroke-linecap:butt;stroke-linejoin:round;stroke:rgb(0%,0%,0%);stroke-opacity:1;stroke-miterlimit:4;" d="M 0.000198364 0.000579834 L 0.000198364 3.498627 " transform="matrix(1.333333,0,0,1.333333,197.058329,190.800008)"/>
<path style=" stroke:none;fill-rule:nonzero;fill:rgb(0%,0%,0%);fill-opacity:1;" d="M 198.226562 205.023438 C 198.855469 205.15625 199.347656 205.4375 199.699219 205.863281 C 200.054688 206.289062 200.230469 206.816406 200.230469 207.441406 C 200.230469 208.398438 199.902344 209.140625 199.242188 209.667969 C 198.582031 210.191406 197.644531 210.453125 196.429688 210.453125 C 196.023438 210.453125 195.601562 210.414062 195.171875 210.332031 C 194.738281 210.253906 194.292969 210.132812 193.832031 209.972656 L 193.832031 208.703125 C 194.195312 208.914062 194.597656 209.074219 195.027344 209.183594 C 195.464844 209.292969 195.917969 209.347656 196.390625 209.347656 C 197.214844 209.347656 197.84375 209.183594 198.273438 208.859375 C 198.707031 208.535156 198.921875 208.058594 198.921875 207.441406 C 198.921875 206.867188 198.722656 206.417969 198.320312 206.097656 C 197.917969 205.773438 197.359375 205.609375 196.644531 205.609375 L 195.511719 205.609375 L 195.511719 204.527344 L 196.699219 204.527344 C 197.34375 204.527344 197.839844 204.398438 198.179688 204.140625 C 198.523438 203.882812 198.695312 203.511719 198.695312 203.023438 C 198.695312 202.527344 198.519531 202.144531 198.164062 201.878906 C 197.8125 201.609375 197.304688 201.476562 196.644531 201.476562 C 196.285156 201.476562 195.898438 201.515625 195.484375 201.59375 C 195.074219 201.671875 194.621094 201.792969 194.125 201.957031 L 194.125 200.785156 C 194.625 200.648438 195.09375 200.542969 195.527344 200.472656 C 195.964844 200.402344 196.375 200.367188 196.761719 200.367188 C 197.761719 200.367188 198.550781 200.597656 199.132812 201.050781 C 199.714844 201.503906 200.003906 202.117188 200.003906 202.886719 C 200.003906 203.425781 199.851562 203.882812 199.542969 204.253906 C 199.234375 204.621094 198.796875 204.878906 198.226562 205.023438 Z M 198.226562 205.023438 "/>
<g clip-path="url(#clip4)" clip-rule="nonzero">
<path style="fill:none;stroke-width:0.8;stroke-linecap:square;stroke-linejoin:round;stroke:rgb(69.01961%,69.01961%,69.01961%);stroke-opacity:1;stroke-miterlimit:4;" d="M 196.620117 143.100586 L 196.620117 7.201172 " transform="matrix(1.333333,0,0,1.333333,0,0)"/>
</g>
<path style="fill:none;stroke-width:0.8;stroke-linecap:butt;stroke-linejoin:round;stroke:rgb(0%,0%,0%);stroke-opacity:1;stroke-miterlimit:4;" d="M 0.00137329 0.000579834 L 0.00137329 3.498627 " transform="matrix(1.333333,0,0,1.333333,262.158325,190.800008)"/>
<path style=" stroke:none;fill-rule:nonzero;fill:rgb(0%,0%,0%);fill-opacity:1;" d="M 262.957031 201.691406 L 259.636719 206.878906 L 262.957031 206.878906 Z M 262.609375 200.542969 L 264.265625 200.542969 L 264.265625 206.878906 L 265.652344 206.878906 L 265.652344 207.972656 L 264.265625 207.972656 L 264.265625 210.265625 L 262.957031 210.265625 L 262.957031 207.972656 L 258.570312 207.972656 L 258.570312 206.703125 Z M 262.609375 200.542969 "/>
<g clip-path="url(#clip5)" clip-rule="nonzero">
<path style="fill:none;stroke-width:0.8;stroke-linecap:square;stroke-linejoin:round;stroke:rgb(69.01961%,69.01961%,69.01961%);stroke-opacity:1;stroke-miterlimit:4;" d="M 245.443359 143.100586 L 245.443359 7.201172 " transform="matrix(1.333333,0,0,1.333333,0,0)"/>
</g>
<path style="fill:none;stroke-width:0.8;stroke-linecap:butt;stroke-linejoin:round;stroke:rgb(0%,0%,0%);stroke-opacity:1;stroke-miterlimit:4;" d="M -0.000396729 0.000579834 L -0.000396729 3.498627 " transform="matrix(1.333333,0,0,1.333333,327.258341,190.800008)"/>
<path style=" stroke:none;fill-rule:nonzero;fill:rgb(0%,0%,0%);fill-opacity:1;" d="M 324.457031 200.542969 L 329.617188 200.542969 L 329.617188 201.652344 L 325.660156 201.652344 L 325.660156 204.035156 C 325.851562 203.96875 326.039062 203.917969 326.230469 203.886719 C 326.421875 203.855469 326.613281 203.839844 326.804688 203.839844 C 327.890625 203.839844 328.75 204.136719 329.382812 204.730469 C 330.019531 205.324219 330.335938 206.128906 330.335938 207.144531 C 330.335938 208.191406 330.007812 209.003906 329.359375 209.585938 C 328.707031 210.164062 327.789062 210.453125 326.605469 210.453125 C 326.195312 210.453125 325.78125 210.417969 325.355469 210.351562 C 324.933594 210.28125 324.496094 210.175781 324.046875 210.039062 L 324.046875 208.714844 C 324.4375 208.925781 324.839844 209.085938 325.257812 209.191406 C 325.671875 209.292969 326.113281 209.347656 326.578125 209.347656 C 327.328125 209.347656 327.921875 209.148438 328.359375 208.753906 C 328.800781 208.359375 329.019531 207.824219 329.019531 207.144531 C 329.019531 206.46875 328.800781 205.933594 328.359375 205.539062 C 327.921875 205.144531 327.328125 204.945312 326.578125 204.945312 C 326.226562 204.945312 325.875 204.984375 325.523438 205.0625 C 325.175781 205.140625 324.820312 205.261719 324.457031 205.425781 Z M 324.457031 200.542969 "/>
<path style=" stroke:none;fill-rule:nonzero;fill:rgb(0%,0%,0%);fill-opacity:1;" d="M 184.246094 224.554688 L 184.246094 225.140625 L 178.738281 225.140625 C 178.792969 225.964844 179.039062 226.59375 179.484375 227.027344 C 179.929688 227.460938 180.550781 227.675781 181.34375 227.675781 C 181.804688 227.675781 182.25 227.617188 182.679688 227.507812 C 183.113281 227.394531 183.542969 227.222656 183.96875 226.996094 L 183.96875 228.132812 C 183.539062 228.3125 183.097656 228.453125 182.644531 228.546875 C 182.195312 228.644531 181.738281 228.691406 181.273438 228.691406 C 180.109375 228.691406 179.1875 228.351562 178.507812 227.675781 C 177.828125 227 177.488281 226.082031 177.488281 224.925781 C 177.488281 223.734375 177.8125 222.789062 178.457031 222.085938 C 179.101562 221.386719 179.96875 221.035156 181.066406 221.035156 C 182.046875 221.035156 182.820312 221.351562 183.390625 221.984375 C 183.960938 222.613281 184.246094 223.472656 184.246094 224.554688 Z M 183.050781 224.203125 C 183.042969 223.550781 182.859375 223.027344 182.5 222.636719 C 182.140625 222.246094 181.667969 222.050781 181.078125 222.050781 C 180.410156 222.050781 179.875 222.238281 179.472656 222.617188 C 179.070312 222.996094 178.839844 223.527344 178.777344 224.210938 Z M 183.050781 224.203125 "/>
<path style=" stroke:none;fill-rule:nonzero;fill:rgb(0%,0%,0%);fill-opacity:1;" d="M 187.371094 227.410156 L 187.371094 231.273438 L 186.167969 231.273438 L 186.167969 221.210938 L 187.371094 221.210938 L 187.371094 222.316406 C 187.625 221.882812 187.941406 221.5625 188.324219 221.351562 C 188.710938 221.140625 189.167969 221.035156 189.703125 221.035156 C 190.589844 221.035156 191.308594 221.386719 191.863281 222.089844 C 192.414062 222.792969 192.691406 223.714844 192.691406 224.863281 C 192.691406 226.007812 192.414062 226.933594 191.863281 227.636719 C 191.308594 228.339844 190.589844 228.691406 189.703125 228.691406 C 189.167969 228.691406 188.710938 228.585938 188.324219 228.375 C 187.941406 228.164062 187.625 227.839844 187.371094 227.410156 Z M 191.449219 224.863281 C 191.449219 223.980469 191.269531 223.289062 190.90625 222.789062 C 190.542969 222.289062 190.042969 222.039062 189.410156 222.039062 C 188.777344 222.039062 188.277344 222.289062 187.914062 222.789062 C 187.554688 223.289062 187.371094 223.980469 187.371094 224.863281 C 187.371094 225.742188 187.554688 226.433594 187.914062 226.933594 C 188.277344 227.4375 188.777344 227.6875 189.410156 227.6875 C 190.042969 227.6875 190.542969 227.4375 190.90625 226.933594 C 191.269531 226.433594 191.449219 225.742188 191.449219 224.863281 Z M 191.449219 224.863281 "/>
<path style=" stroke:none;fill-rule:nonzero;fill:rgb(0%,0%,0%);fill-opacity:1;" d="M 197.503906 222.050781 C 196.859375 222.050781 196.351562 222.300781 195.980469 222.800781 C 195.605469 223.304688 195.417969 223.992188 195.417969 224.863281 C 195.417969 225.734375 195.605469 226.421875 195.976562 226.921875 C 196.347656 227.425781 196.855469 227.675781 197.503906 227.675781 C 198.140625 227.675781 198.648438 227.421875 199.019531 226.921875 C 199.390625 226.417969 199.578125 225.730469 199.578125 224.863281 C 199.578125 224 199.390625 223.3125 199.019531 222.808594 C 198.648438 222.304688 198.140625 222.050781 197.503906 222.050781 Z M 197.503906 221.035156 C 198.542969 221.035156 199.363281 221.375 199.957031 222.050781 C 200.550781 222.726562 200.851562 223.664062 200.851562 224.863281 C 200.851562 226.054688 200.550781 226.992188 199.957031 227.671875 C 199.363281 228.351562 198.542969 228.691406 197.503906 228.691406 C 196.457031 228.691406 195.636719 228.351562 195.042969 227.671875 C 194.453125 226.992188 194.15625 226.054688 194.15625 224.863281 C 194.15625 223.664062 194.453125 222.726562 195.042969 222.050781 C 195.636719 221.375 196.457031 221.035156 197.503906 221.035156 Z M 197.503906 221.035156 "/>
<path style=" stroke:none;fill-rule:nonzero;fill:rgb(0%,0%,0%);fill-opacity:1;" d="M 208.082031 221.488281 L 208.082031 222.609375 C 207.742188 222.421875 207.402344 222.28125 207.0625 222.191406 C 206.722656 222.097656 206.378906 222.050781 206.03125 222.050781 C 205.253906 222.050781 204.652344 222.296875 204.21875 222.789062 C 203.789062 223.28125 203.578125 223.972656 203.578125 224.863281 C 203.578125 225.753906 203.789062 226.445312 204.21875 226.9375 C 204.652344 227.429688 205.253906 227.675781 206.03125 227.675781 C 206.378906 227.675781 206.722656 227.628906 207.0625 227.535156 C 207.402344 227.441406 207.742188 227.300781 208.082031 227.113281 L 208.082031 228.222656 C 207.746094 228.378906 207.402344 228.496094 207.042969 228.574219 C 206.6875 228.652344 206.304688 228.691406 205.902344 228.691406 C 204.800781 228.691406 203.929688 228.347656 203.28125 227.65625 C 202.636719 226.964844 202.3125 226.035156 202.3125 224.863281 C 202.3125 223.671875 202.640625 222.738281 203.292969 222.058594 C 203.945312 221.375 204.84375 221.035156 205.980469 221.035156 C 206.347656 221.035156 206.707031 221.074219 207.058594 221.148438 C 207.410156 221.226562 207.753906 221.339844 208.082031 221.488281 Z M 208.082031 221.488281 "/>
<path style=" stroke:none;fill-rule:nonzero;fill:rgb(0%,0%,0%);fill-opacity:1;" d="M 216.226562 224.101562 L 216.226562 228.503906 L 215.03125 228.503906 L 215.03125 224.140625 C 215.03125 223.449219 214.894531 222.933594 214.625 222.589844 C 214.355469 222.25 213.953125 222.078125 213.414062 222.078125 C 212.769531 222.078125 212.257812 222.285156 211.882812 222.695312 C 211.511719 223.105469 211.324219 223.667969 211.324219 224.382812 L 211.324219 228.503906 L 210.121094 228.503906 L 210.121094 218.371094 L 211.324219 218.371094 L 211.324219 222.34375 C 211.609375 221.90625 211.949219 221.578125 212.335938 221.359375 C 212.726562 221.144531 213.171875 221.035156 213.683594 221.035156 C 214.519531 221.035156 215.152344 221.292969 215.582031 221.8125 C 216.011719 222.332031 216.226562 223.09375 216.226562 224.101562 Z M 216.226562 224.101562 "/>
<g clip-path="url(#clip6)" clip-rule="nonzero">
<path style="fill:none;stroke-width:0.8;stroke-linecap:square;stroke-linejoin:round;stroke:rgb(69.01961%,69.01961%,69.01961%);stroke-opacity:1;stroke-miterlimit:4;" d="M 50.144531 142.96582 L 245.443359 142.96582 " transform="matrix(1.333333,0,0,1.333333,0,0)"/>
</g>
<path style="fill:none;stroke-width:0.8;stroke-linecap:butt;stroke-linejoin:round;stroke:rgb(0%,0%,0%);stroke-opacity:1;stroke-miterlimit:4;" d="M 0.000782013 -0.00112915 L -3.500195 -0.00112915 " transform="matrix(1.333333,0,0,1.333333,66.858332,190.622599)"/>
<path style=" stroke:none;fill-rule:nonzero;fill:rgb(0%,0%,0%);fill-opacity:1;" d="M 32.074219 186.835938 C 31.398438 186.835938 30.890625 187.167969 30.546875 187.835938 C 30.207031 188.5 30.039062 189.5 30.039062 190.839844 C 30.039062 192.171875 30.207031 193.167969 30.546875 193.835938 C 30.890625 194.503906 31.398438 194.835938 32.074219 194.835938 C 32.757812 194.835938 33.269531 194.503906 33.609375 193.835938 C 33.949219 193.167969 34.121094 192.171875 34.121094 190.839844 C 34.121094 189.5 33.949219 188.5 33.609375 187.835938 C 33.269531 187.167969 32.757812 186.835938 32.074219 186.835938 Z M 32.074219 185.792969 C 33.164062 185.792969 33.996094 186.222656 34.574219 187.085938 C 35.148438 187.945312 35.433594 189.199219 35.433594 190.839844 C 35.433594 192.472656 35.148438 193.722656 34.574219 194.585938 C 33.996094 195.445312 33.164062 195.878906 32.074219 195.878906 C 30.984375 195.878906 30.152344 195.445312 29.578125 194.585938 C 29.003906 193.722656 28.714844 192.472656 28.714844 190.839844 C 28.714844 189.199219 29.003906 187.945312 29.578125 187.085938 C 30.152344 186.222656 30.984375 185.792969 32.074219 185.792969 Z M 32.074219 185.792969 "/>
<path style=" stroke:none;fill-rule:nonzero;fill:rgb(0%,0%,0%);fill-opacity:1;" d="M 37.746094 194.035156 L 39.121094 194.035156 L 39.121094 195.6875 L 37.746094 195.6875 Z M 37.746094 194.035156 "/>
<path style=" stroke:none;fill-rule:nonzero;fill:rgb(0%,0%,0%);fill-opacity:1;" d="M 45.597656 187.113281 L 42.277344 192.304688 L 45.597656 192.304688 Z M 45.253906 185.96875 L 46.90625 185.96875 L 46.90625 192.304688 L 48.292969 192.304688 L 48.292969 193.398438 L 46.90625 193.398438 L 46.90625 195.6875 L 45.597656 195.6875 L 45.597656 193.398438 L 41.210938 193.398438 L 41.210938 192.128906 Z M 45.253906 185.96875 "/>
<path style=" stroke:none;fill-rule:nonzero;fill:rgb(0%,0%,0%);fill-opacity:1;" d="M 53.28125 186.835938 C 52.601562 186.835938 52.09375 187.167969 51.753906 187.835938 C 51.410156 188.5 51.242188 189.5 51.242188 190.839844 C 51.242188 192.171875 51.410156 193.167969 51.753906 193.835938 C 52.09375 194.503906 52.601562 194.835938 53.28125 194.835938 C 53.960938 194.835938 54.472656 194.503906 54.8125 193.835938 C 55.15625 193.167969 55.324219 192.171875 55.324219 190.839844 C 55.324219 189.5 55.15625 188.5 54.8125 187.835938 C 54.472656 187.167969 53.960938 186.835938 53.28125 186.835938 Z M 53.28125 185.792969 C 54.371094 185.792969 55.203125 186.222656 55.777344 187.085938 C 56.351562 187.945312 56.640625 189.199219 56.640625 190.839844 C 56.640625 192.472656 56.351562 193.722656 55.777344 194.585938 C 55.203125 195.445312 54.371094 195.878906 53.28125 195.878906 C 52.191406 195.878906 51.359375 195.445312 50.785156 194.585938 C 50.207031 193.722656 49.921875 192.472656 49.921875 190.839844 C 49.921875 189.199219 50.207031 187.945312 50.785156 187.085938 C 51.359375 186.222656 52.191406 185.792969 53.28125 185.792969 Z M 53.28125 185.792969 "/>
<g clip-path="url(#clip7)" clip-rule="nonzero">
<path style="fill:none;stroke-width:0.8;stroke-linecap:square;stroke-linejoin:round;stroke:rgb(69.01961%,69.01961%,69.01961%);stroke-opacity:1;stroke-miterlimit:4;" d="M 50.144531 112.819336 L 245.443359 112.819336 " transform="matrix(1.333333,0,0,1.333333,0,0)"/>
</g>
<path style="fill:none;stroke-width:0.8;stroke-linecap:butt;stroke-linejoin:round;stroke:rgb(0%,0%,0%);stroke-opacity:1;stroke-miterlimit:4;" d="M 0.000782013 0.000404358 L -3.500195 0.000404358 " transform="matrix(1.333333,0,0,1.333333,66.858332,150.425242)"/>
<path style=" stroke:none;fill-rule:nonzero;fill:rgb(0%,0%,0%);fill-opacity:1;" d="M 32.074219 146.636719 C 31.398438 146.636719 30.890625 146.96875 30.546875 147.636719 C 30.207031 148.300781 30.039062 149.304688 30.039062 150.640625 C 30.039062 151.972656 30.207031 152.972656 30.546875 153.640625 C 30.890625 154.304688 31.398438 154.640625 32.074219 154.640625 C 32.757812 154.640625 33.269531 154.304688 33.609375 153.640625 C 33.949219 152.972656 34.121094 151.972656 34.121094 150.640625 C 34.121094 149.304688 33.949219 148.300781 33.609375 147.636719 C 33.269531 146.96875 32.757812 146.636719 32.074219 146.636719 Z M 32.074219 145.59375 C 33.164062 145.59375 33.996094 146.027344 34.574219 146.890625 C 35.148438 147.75 35.433594 149 35.433594 150.640625 C 35.433594 152.277344 35.148438 153.527344 34.574219 154.390625 C 33.996094 155.25 33.164062 155.679688 32.074219 155.679688 C 30.984375 155.679688 30.152344 155.25 29.578125 154.390625 C 29.003906 153.527344 28.714844 152.277344 28.714844 150.640625 C 28.714844 149 29.003906 147.75 29.578125 146.890625 C 30.152344 146.027344 30.984375 145.59375 32.074219 145.59375 Z M 32.074219 145.59375 "/>
<path style=" stroke:none;fill-rule:nonzero;fill:rgb(0%,0%,0%);fill-opacity:1;" d="M 37.746094 153.835938 L 39.121094 153.835938 L 39.121094 155.492188 L 37.746094 155.492188 Z M 37.746094 153.835938 "/>
<path style=" stroke:none;fill-rule:nonzero;fill:rgb(0%,0%,0%);fill-opacity:1;" d="M 45.597656 146.914062 L 42.277344 152.105469 L 45.597656 152.105469 Z M 45.253906 145.769531 L 46.90625 145.769531 L 46.90625 152.105469 L 48.292969 152.105469 L 48.292969 153.199219 L 46.90625 153.199219 L 46.90625 155.492188 L 45.597656 155.492188 L 45.597656 153.199219 L 41.210938 153.199219 L 41.210938 151.929688 Z M 45.253906 145.769531 "/>
<path style=" stroke:none;fill-rule:nonzero;fill:rgb(0%,0%,0%);fill-opacity:1;" d="M 50.480469 145.769531 L 55.644531 145.769531 L 55.644531 146.878906 L 51.6875 146.878906 L 51.6875 149.257812 C 51.875 149.195312 52.066406 149.144531 52.257812 149.113281 C 52.449219 149.082031 52.640625 149.066406 52.832031 149.066406 C 53.917969 149.066406 54.773438 149.363281 55.410156 149.957031 C 56.042969 150.550781 56.359375 151.355469 56.359375 152.371094 C 56.359375 153.417969 56.035156 154.230469 55.382812 154.8125 C 54.730469 155.390625 53.8125 155.679688 52.628906 155.679688 C 52.222656 155.679688 51.804688 155.644531 51.382812 155.578125 C 50.960938 155.507812 50.523438 155.402344 50.070312 155.265625 L 50.070312 153.941406 C 50.460938 154.152344 50.863281 154.3125 51.28125 154.414062 C 51.699219 154.519531 52.136719 154.570312 52.601562 154.570312 C 53.355469 154.570312 53.949219 154.375 54.386719 153.980469 C 54.824219 153.585938 55.042969 153.050781 55.042969 152.371094 C 55.042969 151.695312 54.824219 151.160156 54.386719 150.765625 C 53.949219 150.371094 53.355469 150.171875 52.601562 150.171875 C 52.25 150.171875 51.898438 150.210938 51.550781 150.289062 C 51.203125 150.367188 50.84375 150.488281 50.480469 150.652344 Z M 50.480469 145.769531 "/>
<g clip-path="url(#clip8)" clip-rule="nonzero">
<path style="fill:none;stroke-width:0.8;stroke-linecap:square;stroke-linejoin:round;stroke:rgb(69.01961%,69.01961%,69.01961%);stroke-opacity:1;stroke-miterlimit:4;" d="M 50.144531 82.669922 L 245.443359 82.669922 " transform="matrix(1.333333,0,0,1.333333,0,0)"/>
</g>
<path style="fill:none;stroke-width:0.8;stroke-linecap:butt;stroke-linejoin:round;stroke:rgb(0%,0%,0%);stroke-opacity:1;stroke-miterlimit:4;" d="M 0.000782013 -0.000991821 L -3.500195 -0.000991821 " transform="matrix(1.333333,0,0,1.333333,66.858332,110.227885)"/>
<path style=" stroke:none;fill-rule:nonzero;fill:rgb(0%,0%,0%);fill-opacity:1;" d="M 32.074219 106.4375 C 31.398438 106.4375 30.890625 106.773438 30.546875 107.4375 C 30.207031 108.105469 30.039062 109.105469 30.039062 110.445312 C 30.039062 111.777344 30.207031 112.773438 30.546875 113.441406 C 30.890625 114.109375 31.398438 114.441406 32.074219 114.441406 C 32.757812 114.441406 33.269531 114.109375 33.609375 113.441406 C 33.949219 112.773438 34.121094 111.777344 34.121094 110.445312 C 34.121094 109.105469 33.949219 108.105469 33.609375 107.4375 C 33.269531 106.773438 32.757812 106.4375 32.074219 106.4375 Z M 32.074219 105.398438 C 33.164062 105.398438 33.996094 105.828125 34.574219 106.691406 C 35.148438 107.550781 35.433594 108.804688 35.433594 110.445312 C 35.433594 112.078125 35.148438 113.328125 34.574219 114.191406 C 33.996094 115.050781 33.164062 115.484375 32.074219 115.484375 C 30.984375 115.484375 30.152344 115.050781 29.578125 114.191406 C 29.003906 113.328125 28.714844 112.078125 28.714844 110.445312 C 28.714844 108.804688 29.003906 107.550781 29.578125 106.691406 C 30.152344 105.828125 30.984375 105.398438 32.074219 105.398438 Z M 32.074219 105.398438 "/>
<path style=" stroke:none;fill-rule:nonzero;fill:rgb(0%,0%,0%);fill-opacity:1;" d="M 37.746094 113.640625 L 39.121094 113.640625 L 39.121094 115.292969 L 37.746094 115.292969 Z M 37.746094 113.640625 "/>
<path style=" stroke:none;fill-rule:nonzero;fill:rgb(0%,0%,0%);fill-opacity:1;" d="M 42 105.574219 L 47.160156 105.574219 L 47.160156 106.679688 L 43.203125 106.679688 L 43.203125 109.0625 C 43.394531 108.996094 43.582031 108.949219 43.773438 108.917969 C 43.964844 108.882812 44.15625 108.867188 44.347656 108.867188 C 45.433594 108.867188 46.292969 109.164062 46.925781 109.761719 C 47.558594 110.355469 47.878906 111.160156 47.878906 112.175781 C 47.878906 113.21875 47.550781 114.035156 46.902344 114.613281 C 46.25 115.195312 45.332031 115.484375 44.144531 115.484375 C 43.738281 115.484375 43.320312 115.449219 42.898438 115.378906 C 42.476562 115.308594 42.039062 115.207031 41.589844 115.066406 L 41.589844 113.742188 C 41.976562 113.957031 42.382812 114.113281 42.796875 114.21875 C 43.214844 114.324219 43.65625 114.375 44.121094 114.375 C 44.871094 114.375 45.464844 114.175781 45.902344 113.78125 C 46.339844 113.386719 46.5625 112.851562 46.5625 112.175781 C 46.5625 111.5 46.339844 110.964844 45.902344 110.570312 C 45.464844 110.171875 44.871094 109.976562 44.121094 109.976562 C 43.769531 109.976562 43.417969 110.011719 43.066406 110.089844 C 42.71875 110.167969 42.363281 110.289062 42 110.457031 Z M 42 105.574219 "/>
<path style=" stroke:none;fill-rule:nonzero;fill:rgb(0%,0%,0%);fill-opacity:1;" d="M 53.28125 106.4375 C 52.601562 106.4375 52.09375 106.773438 51.753906 107.4375 C 51.410156 108.105469 51.242188 109.105469 51.242188 110.445312 C 51.242188 111.777344 51.410156 112.773438 51.753906 113.441406 C 52.09375 114.109375 52.601562 114.441406 53.28125 114.441406 C 53.960938 114.441406 54.472656 114.109375 54.8125 113.441406 C 55.15625 112.773438 55.324219 111.777344 55.324219 110.445312 C 55.324219 109.105469 55.15625 108.105469 54.8125 107.4375 C 54.472656 106.773438 53.960938 106.4375 53.28125 106.4375 Z M 53.28125 105.398438 C 54.371094 105.398438 55.203125 105.828125 55.777344 106.691406 C 56.351562 107.550781 56.640625 108.804688 56.640625 110.445312 C 56.640625 112.078125 56.351562 113.328125 55.777344 114.191406 C 55.203125 115.050781 54.371094 115.484375 53.28125 115.484375 C 52.191406 115.484375 51.359375 115.050781 50.785156 114.191406 C 50.207031 113.328125 49.921875 112.078125 49.921875 110.445312 C 49.921875 108.804688 50.207031 107.550781 50.785156 106.691406 C 51.359375 105.828125 52.191406 105.398438 53.28125 105.398438 Z M 53.28125 105.398438 "/>
<g clip-path="url(#clip9)" clip-rule="nonzero">
<path style="fill:none;stroke-width:0.8;stroke-linecap:square;stroke-linejoin:round;stroke:rgb(69.01961%,69.01961%,69.01961%);stroke-opacity:1;stroke-miterlimit:4;" d="M 50.144531 52.523438 L 245.443359 52.523438 " transform="matrix(1.333333,0,0,1.333333,0,0)"/>
</g>
<path style="fill:none;stroke-width:0.8;stroke-linecap:butt;stroke-linejoin:round;stroke:rgb(0%,0%,0%);stroke-opacity:1;stroke-miterlimit:4;" d="M 0.000782013 0.000541687 L -3.500195 0.000541687 " transform="matrix(1.333333,0,0,1.333333,66.858332,70.030528)"/>
<path style=" stroke:none;fill-rule:nonzero;fill:rgb(0%,0%,0%);fill-opacity:1;" d="M 32.074219 66.242188 C 31.398438 66.242188 30.890625 66.574219 30.546875 67.242188 C 30.207031 67.90625 30.039062 68.910156 30.039062 70.246094 C 30.039062 71.578125 30.207031 72.578125 30.546875 73.242188 C 30.890625 73.910156 31.398438 74.242188 32.074219 74.242188 C 32.757812 74.242188 33.269531 73.910156 33.609375 73.242188 C 33.949219 72.578125 34.121094 71.578125 34.121094 70.246094 C 34.121094 68.910156 33.949219 67.90625 33.609375 67.242188 C 33.269531 66.574219 32.757812 66.242188 32.074219 66.242188 Z M 32.074219 65.199219 C 33.164062 65.199219 33.996094 65.632812 34.574219 66.492188 C 35.148438 67.355469 35.433594 68.605469 35.433594 70.246094 C 35.433594 71.882812 35.148438 73.132812 34.574219 73.992188 C 33.996094 74.855469 33.164062 75.285156 32.074219 75.285156 C 30.984375 75.285156 30.152344 74.855469 29.578125 73.992188 C 29.003906 73.132812 28.714844 71.882812 28.714844 70.246094 C 28.714844 68.605469 29.003906 67.355469 29.578125 66.492188 C 30.152344 65.632812 30.984375 65.199219 32.074219 65.199219 Z M 32.074219 65.199219 "/>
<path style=" stroke:none;fill-rule:nonzero;fill:rgb(0%,0%,0%);fill-opacity:1;" d="M 37.746094 73.441406 L 39.121094 73.441406 L 39.121094 75.097656 L 37.746094 75.097656 Z M 37.746094 73.441406 "/>
<path style=" stroke:none;fill-rule:nonzero;fill:rgb(0%,0%,0%);fill-opacity:1;" d="M 42 65.375 L 47.160156 65.375 L 47.160156 66.484375 L 43.203125 66.484375 L 43.203125 68.863281 C 43.394531 68.800781 43.582031 68.75 43.773438 68.71875 C 43.964844 68.6875 44.15625 68.671875 44.347656 68.671875 C 45.433594 68.671875 46.292969 68.96875 46.925781 69.5625 C 47.558594 70.15625 47.878906 70.960938 47.878906 71.976562 C 47.878906 73.023438 47.550781 73.835938 46.902344 74.417969 C 46.25 74.996094 45.332031 75.285156 44.144531 75.285156 C 43.738281 75.285156 43.320312 75.25 42.898438 75.179688 C 42.476562 75.113281 42.039062 75.007812 41.589844 74.867188 L 41.589844 73.546875 C 41.976562 73.757812 42.382812 73.917969 42.796875 74.019531 C 43.214844 74.125 43.65625 74.175781 44.121094 74.175781 C 44.871094 74.175781 45.464844 73.980469 45.902344 73.585938 C 46.339844 73.191406 46.5625 72.65625 46.5625 71.976562 C 46.5625 71.300781 46.339844 70.765625 45.902344 70.371094 C 45.464844 69.976562 44.871094 69.777344 44.121094 69.777344 C 43.769531 69.777344 43.417969 69.816406 43.066406 69.894531 C 42.71875 69.972656 42.363281 70.09375 42 70.257812 Z M 42 65.375 "/>
<path style=" stroke:none;fill-rule:nonzero;fill:rgb(0%,0%,0%);fill-opacity:1;" d="M 50.480469 65.375 L 55.644531 65.375 L 55.644531 66.484375 L 51.6875 66.484375 L 51.6875 68.863281 C 51.875 68.800781 52.066406 68.75 52.257812 68.71875 C 52.449219 68.6875 52.640625 68.671875 52.832031 68.671875 C 53.917969 68.671875 54.773438 68.96875 55.410156 69.5625 C 56.042969 70.15625 56.359375 70.960938 56.359375 71.976562 C 56.359375 73.023438 56.035156 73.835938 55.382812 74.417969 C 54.730469 74.996094 53.8125 75.285156 52.628906 75.285156 C 52.222656 75.285156 51.804688 75.25 51.382812 75.179688 C 50.960938 75.113281 50.523438 75.007812 50.070312 74.867188 L 50.070312 73.546875 C 50.460938 73.757812 50.863281 73.917969 51.28125 74.019531 C 51.699219 74.125 52.136719 74.175781 52.601562 74.175781 C 53.355469 74.175781 53.949219 73.980469 54.386719 73.585938 C 54.824219 73.191406 55.042969 72.65625 55.042969 71.976562 C 55.042969 71.300781 54.824219 70.765625 54.386719 70.371094 C 53.949219 69.976562 53.355469 69.777344 52.601562 69.777344 C 52.25 69.777344 51.898438 69.816406 51.550781 69.894531 C 51.203125 69.972656 50.84375 70.09375 50.480469 70.257812 Z M 50.480469 65.375 "/>
<g clip-path="url(#clip10)" clip-rule="nonzero">
<path style="fill:none;stroke-width:0.8;stroke-linecap:square;stroke-linejoin:round;stroke:rgb(69.01961%,69.01961%,69.01961%);stroke-opacity:1;stroke-miterlimit:4;" d="M 50.144531 22.374023 L 245.443359 22.374023 " transform="matrix(1.333333,0,0,1.333333,0,0)"/>
</g>
<path style="fill:none;stroke-width:0.8;stroke-linecap:butt;stroke-linejoin:round;stroke:rgb(0%,0%,0%);stroke-opacity:1;stroke-miterlimit:4;" d="M 0.000782013 -0.000852585 L -3.500195 -0.000852585 " transform="matrix(1.333333,0,0,1.333333,66.858332,29.833168)"/>
<path style=" stroke:none;fill-rule:nonzero;fill:rgb(0%,0%,0%);fill-opacity:1;" d="M 32.074219 26.042969 C 31.398438 26.042969 30.890625 26.378906 30.546875 27.042969 C 30.207031 27.710938 30.039062 28.710938 30.039062 30.046875 C 30.039062 31.378906 30.207031 32.378906 30.546875 33.046875 C 30.890625 33.714844 31.398438 34.046875 32.074219 34.046875 C 32.757812 34.046875 33.269531 33.714844 33.609375 33.046875 C 33.949219 32.378906 34.121094 31.378906 34.121094 30.046875 C 34.121094 28.710938 33.949219 27.710938 33.609375 27.042969 C 33.269531 26.378906 32.757812 26.042969 32.074219 26.042969 Z M 32.074219 25.003906 C 33.164062 25.003906 33.996094 25.433594 34.574219 26.296875 C 35.148438 27.15625 35.433594 28.410156 35.433594 30.046875 C 35.433594 31.683594 35.148438 32.933594 34.574219 33.796875 C 33.996094 34.65625 33.164062 35.089844 32.074219 35.089844 C 30.984375 35.089844 30.152344 34.65625 29.578125 33.796875 C 29.003906 32.933594 28.714844 31.683594 28.714844 30.046875 C 28.714844 28.410156 29.003906 27.15625 29.578125 26.296875 C 30.152344 25.433594 30.984375 25.003906 32.074219 25.003906 Z M 32.074219 25.003906 "/>
<path style=" stroke:none;fill-rule:nonzero;fill:rgb(0%,0%,0%);fill-opacity:1;" d="M 37.746094 33.246094 L 39.121094 33.246094 L 39.121094 34.898438 L 37.746094 34.898438 Z M 37.746094 33.246094 "/>
<path style=" stroke:none;fill-rule:nonzero;fill:rgb(0%,0%,0%);fill-opacity:1;" d="M 44.960938 29.515625 C 44.371094 29.515625 43.902344 29.71875 43.558594 30.121094 C 43.210938 30.523438 43.039062 31.078125 43.039062 31.78125 C 43.039062 32.480469 43.210938 33.03125 43.558594 33.4375 C 43.902344 33.84375 44.371094 34.046875 44.960938 34.046875 C 45.550781 34.046875 46.019531 33.84375 46.363281 33.4375 C 46.707031 33.03125 46.878906 32.480469 46.878906 31.78125 C 46.878906 31.078125 46.707031 30.523438 46.363281 30.121094 C 46.019531 29.71875 45.550781 29.515625 44.960938 29.515625 Z M 47.570312 25.390625 L 47.570312 26.589844 C 47.242188 26.433594 46.90625 26.316406 46.570312 26.234375 C 46.234375 26.152344 45.902344 26.109375 45.570312 26.109375 C 44.703125 26.109375 44.039062 26.402344 43.582031 26.988281 C 43.125 27.574219 42.863281 28.460938 42.796875 29.644531 C 43.054688 29.265625 43.375 28.976562 43.761719 28.777344 C 44.148438 28.574219 44.574219 28.472656 45.039062 28.472656 C 46.015625 28.472656 46.785156 28.769531 47.351562 29.363281 C 47.917969 29.953125 48.203125 30.761719 48.203125 31.78125 C 48.203125 32.777344 47.90625 33.578125 47.316406 34.183594 C 46.726562 34.785156 45.941406 35.089844 44.960938 35.089844 C 43.835938 35.089844 42.976562 34.65625 42.382812 33.796875 C 41.789062 32.933594 41.488281 31.683594 41.488281 30.046875 C 41.488281 28.511719 41.855469 27.289062 42.582031 26.375 C 43.3125 25.460938 44.292969 25.003906 45.519531 25.003906 C 45.851562 25.003906 46.183594 25.035156 46.519531 25.101562 C 46.855469 25.167969 47.207031 25.261719 47.570312 25.390625 Z M 47.570312 25.390625 "/>
<path style=" stroke:none;fill-rule:nonzero;fill:rgb(0%,0%,0%);fill-opacity:1;" d="M 53.28125 26.042969 C 52.601562 26.042969 52.09375 26.378906 51.753906 27.042969 C 51.410156 27.710938 51.242188 28.710938 51.242188 30.046875 C 51.242188 31.378906 51.410156 32.378906 51.753906 33.046875 C 52.09375 33.714844 52.601562 34.046875 53.28125 34.046875 C 53.960938 34.046875 54.472656 33.714844 54.8125 33.046875 C 55.15625 32.378906 55.324219 31.378906 55.324219 30.046875 C 55.324219 28.710938 55.15625 27.710938 54.8125 27.042969 C 54.472656 26.378906 53.960938 26.042969 53.28125 26.042969 Z M 53.28125 25.003906 C 54.371094 25.003906 55.203125 25.433594 55.777344 26.296875 C 56.351562 27.15625 56.640625 28.410156 56.640625 30.046875 C 56.640625 31.683594 56.351562 32.933594 55.777344 33.796875 C 55.203125 34.65625 54.371094 35.089844 53.28125 35.089844 C 52.191406 35.089844 51.359375 34.65625 50.785156 33.796875 C 50.207031 32.933594 49.921875 31.683594 49.921875 30.046875 C 49.921875 28.410156 50.207031 27.15625 50.785156 26.296875 C 51.359375 25.433594 52.191406 25.003906 53.28125 25.003906 Z M 53.28125 25.003906 "/>
<path style=" stroke:none;fill-rule:nonzero;fill:rgb(0%,0%,0%);fill-opacity:1;" d="M 9.601562 111.820312 L 9.601562 110.621094 L 19.730469 110.621094 L 19.730469 111.820312 Z M 9.601562 111.820312 "/>
<path style=" stroke:none;fill-rule:nonzero;fill:rgb(0%,0%,0%);fill-opacity:1;" d="M 13.277344 105.292969 C 13.277344 105.933594 13.53125 106.441406 14.03125 106.8125 C 14.53125 107.1875 15.21875 107.375 16.089844 107.375 C 16.964844 107.375 17.652344 107.1875 18.152344 106.820312 C 18.652344 106.445312 18.902344 105.9375 18.902344 105.292969 C 18.902344 104.652344 18.652344 104.148438 18.148438 103.773438 C 17.644531 103.402344 16.960938 103.214844 16.089844 103.214844 C 15.226562 103.214844 14.542969 103.402344 14.039062 103.773438 C 13.53125 104.148438 13.277344 104.652344 13.277344 105.292969 Z M 12.265625 105.292969 C 12.265625 104.25 12.601562 103.433594 13.28125 102.835938 C 13.957031 102.242188 14.894531 101.945312 16.089844 101.945312 C 17.285156 101.945312 18.222656 102.242188 18.902344 102.835938 C 19.582031 103.433594 19.921875 104.25 19.921875 105.292969 C 19.921875 106.335938 19.582031 107.15625 18.902344 107.75 C 18.222656 108.339844 17.285156 108.636719 16.089844 108.636719 C 14.894531 108.636719 13.957031 108.339844 13.28125 107.75 C 12.601562 107.15625 12.265625 106.335938 12.265625 105.292969 Z M 12.265625 105.292969 "/>
<path style=" stroke:none;fill-rule:nonzero;fill:rgb(0%,0%,0%);fill-opacity:1;" d="M 12.652344 95.3125 L 13.789062 95.3125 C 13.613281 95.648438 13.484375 96 13.398438 96.363281 C 13.308594 96.730469 13.265625 97.105469 13.265625 97.5 C 13.265625 98.09375 13.359375 98.539062 13.539062 98.835938 C 13.722656 99.132812 13.996094 99.28125 14.359375 99.28125 C 14.636719 99.28125 14.855469 99.175781 15.015625 98.964844 C 15.171875 98.75 15.324219 98.324219 15.464844 97.679688 L 15.558594 97.269531 C 15.742188 96.417969 15.996094 95.816406 16.328125 95.457031 C 16.660156 95.097656 17.125 94.917969 17.71875 94.917969 C 18.398438 94.917969 18.933594 95.1875 19.328125 95.722656 C 19.722656 96.257812 19.921875 96.996094 19.921875 97.933594 C 19.921875 98.324219 19.882812 98.730469 19.804688 99.15625 C 19.730469 99.578125 19.617188 100.023438 19.464844 100.492188 L 18.226562 100.492188 C 18.457031 100.050781 18.628906 99.613281 18.746094 99.183594 C 18.859375 98.753906 18.917969 98.328125 18.917969 97.90625 C 18.917969 97.34375 18.820312 96.910156 18.628906 96.605469 C 18.433594 96.300781 18.160156 96.152344 17.808594 96.152344 C 17.484375 96.152344 17.234375 96.261719 17.0625 96.480469 C 16.890625 96.699219 16.722656 97.179688 16.558594 97.921875 L 16.460938 98.339844 C 16.308594 99.078125 16.066406 99.617188 15.742188 99.945312 C 15.421875 100.277344 14.976562 100.441406 14.414062 100.441406 C 13.726562 100.441406 13.195312 100.195312 12.824219 99.710938 C 12.453125 99.226562 12.265625 98.535156 12.265625 97.640625 C 12.265625 97.199219 12.296875 96.78125 12.363281 96.390625 C 12.425781 96 12.523438 95.640625 12.652344 95.3125 Z M 12.652344 95.3125 "/>
<path style=" stroke:none;fill-rule:nonzero;fill:rgb(0%,0%,0%);fill-opacity:1;" d="M 12.652344 88.363281 L 13.789062 88.363281 C 13.613281 88.703125 13.484375 89.054688 13.398438 89.417969 C 13.308594 89.78125 13.265625 90.160156 13.265625 90.550781 C 13.265625 91.144531 13.359375 91.59375 13.539062 91.890625 C 13.722656 92.1875 13.996094 92.335938 14.359375 92.335938 C 14.636719 92.335938 14.855469 92.230469 15.015625 92.015625 C 15.171875 91.804688 15.324219 91.375 15.464844 90.734375 L 15.558594 90.324219 C 15.742188 89.472656 15.996094 88.867188 16.328125 88.511719 C 16.660156 88.152344 17.125 87.972656 17.71875 87.972656 C 18.398438 87.972656 18.933594 88.242188 19.328125 88.777344 C 19.722656 89.3125 19.921875 90.050781 19.921875 90.988281 C 19.921875 91.378906 19.882812 91.785156 19.804688 92.207031 C 19.730469 92.632812 19.617188 93.078125 19.464844 93.546875 L 18.226562 93.546875 C 18.457031 93.101562 18.628906 92.667969 18.746094 92.238281 C 18.859375 91.808594 18.917969 91.382812 18.917969 90.960938 C 18.917969 90.394531 18.820312 89.964844 18.628906 89.660156 C 18.433594 89.355469 18.160156 89.203125 17.808594 89.203125 C 17.484375 89.203125 17.234375 89.3125 17.0625 89.53125 C 16.890625 89.75 16.722656 90.230469 16.558594 90.976562 L 16.460938 91.390625 C 16.308594 92.132812 16.066406 92.667969 15.742188 93 C 15.421875 93.328125 14.976562 93.492188 14.414062 93.492188 C 13.726562 93.492188 13.195312 93.25 12.824219 92.765625 C 12.453125 92.277344 12.265625 91.589844 12.265625 90.695312 C 12.265625 90.25 12.296875 89.835938 12.363281 89.445312 C 12.425781 89.054688 12.523438 88.695312 12.652344 88.363281 Z M 12.652344 88.363281 "/>
<g clip-path="url(#clip11)" clip-rule="nonzero">
<path style="fill:none;stroke-width:1.5;stroke-linecap:square;stroke-linejoin:round;stroke:rgb(12.156863%,46.666667%,70.588237%);stroke-opacity:1;stroke-miterlimit:4;" d="M 11.083008 13.376953 L 20.847656 59.569336 L 30.612305 78.067383 L 40.379883 87.990234 L 50.144531 94.283203 L 59.90918 99.011719 L 69.673828 102.650391 L 79.438477 105.670898 L 89.203125 108.240234 L 98.967773 110.516602 L 108.732422 112.97168 L 118.5 115.174805 L 128.264648 117.175781 L 138.029297 119.012695 L 147.793945 120.65625 L 157.558594 122.745117 L 167.323242 124.608398 L 177.087891 126.310547 L 186.852539 127.866211 L 196.620117 129.295898 L 206.384766 131.144531 L 216.149414 132.793945 L 225.914062 134.311523 L 235.678711 135.673828 L 245.443359 136.921875 " transform="matrix(1.333333,0,0,1.333333,0,0)"/>
</g>
<path style="fill:none;stroke-width:0.8;stroke-linecap:square;stroke-linejoin:miter;stroke:rgb(0%,0%,0%);stroke-opacity:1;stroke-miterlimit:4;" d="M 50.144531 143.100586 L 50.144531 7.201172 " transform="matrix(1.333333,0,0,1.333333,0,0)"/>
<path style="fill:none;stroke-width:0.8;stroke-linecap:square;stroke-linejoin:miter;stroke:rgb(0%,0%,0%);stroke-opacity:1;stroke-miterlimit:4;" d="M 245.443359 143.100586 L 245.443359 7.201172 " transform="matrix(1.333333,0,0,1.333333,0,0)"/>
<path style="fill:none;stroke-width:0.8;stroke-linecap:square;stroke-linejoin:miter;stroke:rgb(0%,0%,0%);stroke-opacity:1;stroke-miterlimit:4;" d="M 50.144531 143.100586 L 245.443359 143.100586 " transform="matrix(1.333333,0,0,1.333333,0,0)"/>
<path style="fill:none;stroke-width:0.8;stroke-linecap:square;stroke-linejoin:miter;stroke:rgb(0%,0%,0%);stroke-opacity:1;stroke-miterlimit:4;" d="M 50.144531 7.201172 L 245.443359 7.201172 " transform="matrix(1.333333,0,0,1.333333,0,0)"/>
</g>
</svg>
