<?xml version="1.0" encoding="UTF-8"?>
<svg xmlns="http://www.w3.org/2000/svg" xmlns:xlink="http://www.w3.org/1999/xlink" width="312.85439" height="240.875" viewBox="0 0 312.85439 240.875" version="1.1">
<defs>
<filter id="alpha" filterUnits="objectBoundingBox" x="0%" y="0%" width="100%" height="100%">
  <feColorMatrix type="matrix" in="SourceGraphic" values="0 0 0 0 1 0 0 0 0 1 0 0 0 0 1 0 0 0 1 0"/>
</filter>
<mask id="mask0">
  <g filter="url(#alpha)">
<rect x="0" y="0" width="312.85439" height="240.875" style="fill:rgb(0%,0%,0%);fill-opacity:0.8;stroke:none;"/>
  </g>
</mask>
<clipPath id="clip1">
  <rect x="0" y="0" width="313" height="241"/>
</clipPath>
<g id="surface5" clip-path="url(#clip1)">
<path style="fill-rule:nonzero;fill:rgb(100%,100%,100%);fill-opacity:1;stroke-width:1;stroke-linecap:butt;stroke-linejoin:miter;stroke:rgb(80.000001%,80.000001%,80.000001%);stroke-opacity:1;stroke-miterlimit:4;" d="M 126.852539 73.913086 L 218.402344 73.913086 C 219.735352 73.913086 220.40332 73.245117 220.40332 71.912109 L 220.40332 14.200195 C 220.40332 12.867188 219.735352 12.199219 218.402344 12.199219 L 126.852539 12.199219 C 125.519531 12.199219 124.851562 12.867188 124.851562 14.200195 L 124.851562 71.912109 C 124.851562 73.245117 125.519531 73.913086 126.852539 73.913086 Z M 126.852539 73.913086 " transform="matrix(1.333333,0,0,1.333333,0,0)"/>
</g>
</defs>
<g id="surface1">
<path style=" stroke:none;fill-rule:nonzero;fill:rgb(100%,100%,100%);fill-opacity:1;" d="M 40.136719 190.800781 L 300.539062 190.800781 L 300.539062 9.601562 L 40.136719 9.601562 Z M 40.136719 190.800781 "/>
<path style="fill:none;stroke-width:0.8;stroke-linecap:butt;stroke-linejoin:round;stroke:rgb(0%,0%,0%);stroke-opacity:1;stroke-miterlimit:4;" d="M -0.000904083 0.000579834 L -0.000904083 3.498627 " transform="matrix(1.333333,0,0,1.333333,51.973862,190.800008)"/>
<path style=" stroke:none;fill-rule:nonzero;fill:rgb(0%,0%,0%);fill-opacity:1;" d="M 51.96875 201.410156 C 51.292969 201.410156 50.785156 201.742188 50.441406 202.410156 C 50.101562 203.074219 49.933594 204.078125 49.933594 205.414062 C 49.933594 206.746094 50.101562 207.746094 50.441406 208.414062 C 50.785156 209.078125 51.292969 209.414062 51.96875 209.414062 C 52.652344 209.414062 53.164062 209.078125 53.503906 208.414062 C 53.84375 207.746094 54.015625 206.746094 54.015625 205.414062 C 54.015625 204.078125 53.84375 203.074219 53.503906 202.410156 C 53.164062 201.742188 52.652344 201.410156 51.96875 201.410156 Z M 51.96875 200.367188 C 53.058594 200.367188 53.894531 200.800781 54.46875 201.664062 C 55.042969 202.523438 55.332031 203.773438 55.332031 205.414062 C 55.332031 207.050781 55.042969 208.300781 54.46875 209.164062 C 53.894531 210.023438 53.058594 210.453125 51.96875 210.453125 C 50.878906 210.453125 50.050781 210.023438 49.472656 209.164062 C 48.898438 208.300781 48.613281 207.050781 48.613281 205.414062 C 48.613281 203.773438 48.898438 202.523438 49.472656 201.664062 C 50.050781 200.800781 50.878906 200.367188 51.96875 200.367188 Z M 51.96875 200.367188 "/>
<path style="fill:none;stroke-width:0.8;stroke-linecap:butt;stroke-linejoin:round;stroke:rgb(0%,0%,0%);stroke-opacity:1;stroke-miterlimit:4;" d="M -0.000968933 0.000579834 L -0.000968933 3.498627 " transform="matrix(1.333333,0,0,1.333333,112.673167,190.800008)"/>
<path style=" stroke:none;fill-rule:nonzero;fill:rgb(0%,0%,0%);fill-opacity:1;" d="M 105.84375 209.160156 L 107.992188 209.160156 L 107.992188 201.742188 L 105.65625 202.210938 L 105.65625 201.011719 L 107.980469 200.542969 L 109.292969 200.542969 L 109.292969 209.160156 L 111.441406 209.160156 L 111.441406 210.265625 L 105.84375 210.265625 Z M 105.84375 209.160156 "/>
<path style=" stroke:none;fill-rule:nonzero;fill:rgb(0%,0%,0%);fill-opacity:1;" d="M 116.910156 201.410156 C 116.234375 201.410156 115.726562 201.742188 115.382812 202.410156 C 115.042969 203.074219 114.871094 204.078125 114.871094 205.414062 C 114.871094 206.746094 115.042969 207.746094 115.382812 208.414062 C 115.726562 209.078125 116.234375 209.414062 116.910156 209.414062 C 117.59375 209.414062 118.101562 209.078125 118.445312 208.414062 C 118.785156 207.746094 118.957031 206.746094 118.957031 205.414062 C 118.957031 204.078125 118.785156 203.074219 118.445312 202.410156 C 118.101562 201.742188 117.59375 201.410156 116.910156 201.410156 Z M 116.910156 200.367188 C 118 200.367188 118.832031 200.800781 119.410156 201.664062 C 119.984375 202.523438 120.269531 203.773438 120.269531 205.414062 C 120.269531 207.050781 119.984375 208.300781 119.410156 209.164062 C 118.832031 210.023438 118 210.453125 116.910156 210.453125 C 115.820312 210.453125 114.988281 210.023438 114.414062 209.164062 C 113.839844 208.300781 113.550781 207.050781 113.550781 205.414062 C 113.550781 203.773438 113.839844 202.523438 114.414062 201.664062 C 114.988281 200.800781 115.820312 200.367188 116.910156 200.367188 Z M 116.910156 200.367188 "/>
<path style="fill:none;stroke-width:0.8;stroke-linecap:butt;stroke-linejoin:round;stroke:rgb(0%,0%,0%);stroke-opacity:1;stroke-miterlimit:4;" d="M -0.00102234 0.000579834 L -0.00102234 3.498627 " transform="matrix(1.333333,0,0,1.333333,173.372457,190.800008)"/>
<path style=" stroke:none;fill-rule:nonzero;fill:rgb(0%,0%,0%);fill-opacity:1;" d="M 167.449219 209.160156 L 172.035156 209.160156 L 172.035156 210.265625 L 165.867188 210.265625 L 165.867188 209.160156 C 166.363281 208.640625 167.042969 207.949219 167.90625 207.078125 C 168.769531 206.207031 169.308594 205.648438 169.53125 205.394531 C 169.953125 204.921875 170.246094 204.523438 170.410156 204.195312 C 170.582031 203.867188 170.664062 203.542969 170.664062 203.226562 C 170.664062 202.710938 170.484375 202.289062 170.121094 201.964844 C 169.757812 201.636719 169.285156 201.476562 168.703125 201.476562 C 168.292969 201.476562 167.855469 201.546875 167.398438 201.691406 C 166.941406 201.832031 166.453125 202.050781 165.929688 202.339844 L 165.929688 201.011719 C 166.460938 200.800781 166.953125 200.640625 167.414062 200.53125 C 167.875 200.421875 168.296875 200.367188 168.679688 200.367188 C 169.6875 200.367188 170.488281 200.621094 171.085938 201.125 C 171.6875 201.628906 171.984375 202.300781 171.984375 203.140625 C 171.984375 203.542969 171.910156 203.921875 171.761719 204.277344 C 171.613281 204.636719 171.339844 205.058594 170.941406 205.542969 C 170.835938 205.671875 170.488281 206.035156 169.90625 206.636719 C 169.328125 207.238281 168.507812 208.078125 167.449219 209.160156 Z M 167.449219 209.160156 "/>
<path style=" stroke:none;fill-rule:nonzero;fill:rgb(0%,0%,0%);fill-opacity:1;" d="M 177.609375 201.410156 C 176.933594 201.410156 176.425781 201.742188 176.082031 202.410156 C 175.742188 203.074219 175.570312 204.078125 175.570312 205.414062 C 175.570312 206.746094 175.742188 207.746094 176.082031 208.414062 C 176.425781 209.078125 176.933594 209.414062 177.609375 209.414062 C 178.292969 209.414062 178.804688 209.078125 179.144531 208.414062 C 179.484375 207.746094 179.65625 206.746094 179.65625 205.414062 C 179.65625 204.078125 179.484375 203.074219 179.144531 202.410156 C 178.804688 201.742188 178.292969 201.410156 177.609375 201.410156 Z M 177.609375 200.367188 C 178.699219 200.367188 179.53125 200.800781 180.109375 201.664062 C 180.683594 202.523438 180.96875 203.773438 180.96875 205.414062 C 180.96875 207.050781 180.683594 208.300781 180.109375 209.164062 C 179.53125 210.023438 178.699219 210.453125 177.609375 210.453125 C 176.519531 210.453125 175.6875 210.023438 175.113281 209.164062 C 174.539062 208.300781 174.25 207.050781 174.25 205.414062 C 174.25 203.773438 174.539062 202.523438 175.113281 201.664062 C 175.6875 200.800781 176.519531 200.367188 177.609375 200.367188 Z M 177.609375 200.367188 "/>
<path style="fill:none;stroke-width:0.8;stroke-linecap:butt;stroke-linejoin:round;stroke:rgb(0%,0%,0%);stroke-opacity:1;stroke-miterlimit:4;" d="M -0.00108337 0.000579834 L -0.00108337 3.498627 " transform="matrix(1.333333,0,0,1.333333,234.071757,190.800008)"/>
<path style=" stroke:none;fill-rule:nonzero;fill:rgb(0%,0%,0%);fill-opacity:1;" d="M 231 205.023438 C 231.628906 205.15625 232.117188 205.4375 232.472656 205.863281 C 232.824219 206.289062 233.003906 206.816406 233.003906 207.441406 C 233.003906 208.398438 232.671875 209.140625 232.011719 209.667969 C 231.355469 210.191406 230.417969 210.453125 229.199219 210.453125 C 228.792969 210.453125 228.375 210.414062 227.941406 210.332031 C 227.511719 210.253906 227.066406 210.132812 226.605469 209.972656 L 226.605469 208.703125 C 226.96875 208.914062 227.367188 209.074219 227.800781 209.183594 C 228.234375 209.292969 228.691406 209.347656 229.164062 209.347656 C 229.988281 209.347656 230.613281 209.183594 231.046875 208.859375 C 231.480469 208.535156 231.695312 208.058594 231.695312 207.441406 C 231.695312 206.867188 231.492188 206.417969 231.09375 206.097656 C 230.691406 205.773438 230.132812 205.609375 229.417969 205.609375 L 228.285156 205.609375 L 228.285156 204.527344 L 229.46875 204.527344 C 230.117188 204.527344 230.609375 204.398438 230.953125 204.140625 C 231.296875 203.882812 231.46875 203.511719 231.46875 203.023438 C 231.46875 202.527344 231.289062 202.144531 230.9375 201.878906 C 230.582031 201.609375 230.078125 201.476562 229.417969 201.476562 C 229.054688 201.476562 228.667969 201.515625 228.257812 201.59375 C 227.84375 201.671875 227.390625 201.792969 226.898438 201.957031 L 226.898438 200.785156 C 227.398438 200.648438 227.863281 200.542969 228.300781 200.472656 C 228.738281 200.402344 229.148438 200.367188 229.535156 200.367188 C 230.53125 200.367188 231.324219 200.597656 231.902344 201.050781 C 232.484375 201.503906 232.777344 202.117188 232.777344 202.886719 C 232.777344 203.425781 232.621094 203.882812 232.3125 204.253906 C 232.003906 204.621094 231.566406 204.878906 231 205.023438 Z M 231 205.023438 "/>
<path style=" stroke:none;fill-rule:nonzero;fill:rgb(0%,0%,0%);fill-opacity:1;" d="M 238.308594 201.410156 C 237.632812 201.410156 237.125 201.742188 236.78125 202.410156 C 236.441406 203.074219 236.273438 204.078125 236.273438 205.414062 C 236.273438 206.746094 236.441406 207.746094 236.78125 208.414062 C 237.125 209.078125 237.632812 209.414062 238.308594 209.414062 C 238.992188 209.414062 239.503906 209.078125 239.84375 208.414062 C 240.183594 207.746094 240.355469 206.746094 240.355469 205.414062 C 240.355469 204.078125 240.183594 203.074219 239.84375 202.410156 C 239.503906 201.742188 238.992188 201.410156 238.308594 201.410156 Z M 238.308594 200.367188 C 239.398438 200.367188 240.230469 200.800781 240.808594 201.664062 C 241.382812 202.523438 241.667969 203.773438 241.667969 205.414062 C 241.667969 207.050781 241.382812 208.300781 240.808594 209.164062 C 240.230469 210.023438 239.398438 210.453125 238.308594 210.453125 C 237.21875 210.453125 236.386719 210.023438 235.8125 209.164062 C 235.238281 208.300781 234.949219 207.050781 234.949219 205.414062 C 234.949219 203.773438 235.238281 202.523438 235.8125 201.664062 C 236.386719 200.800781 237.21875 200.367188 238.308594 200.367188 Z M 238.308594 200.367188 "/>
<path style="fill:none;stroke-width:0.8;stroke-linecap:butt;stroke-linejoin:round;stroke:rgb(0%,0%,0%);stroke-opacity:1;stroke-miterlimit:4;" d="M -0.00114441 0.000579834 L -0.00114441 3.498627 " transform="matrix(1.333333,0,0,1.333333,294.771057,190.800008)"/>
<path style=" stroke:none;fill-rule:nonzero;fill:rgb(0%,0%,0%);fill-opacity:1;" d="M 291.328125 201.691406 L 288.007812 206.878906 L 291.328125 206.878906 Z M 290.980469 200.542969 L 292.636719 200.542969 L 292.636719 206.878906 L 294.023438 206.878906 L 294.023438 207.972656 L 292.636719 207.972656 L 292.636719 210.265625 L 291.328125 210.265625 L 291.328125 207.972656 L 286.941406 207.972656 L 286.941406 206.703125 Z M 290.980469 200.542969 "/>
<path style=" stroke:none;fill-rule:nonzero;fill:rgb(0%,0%,0%);fill-opacity:1;" d="M 299.007812 201.410156 C 298.332031 201.410156 297.824219 201.742188 297.480469 202.410156 C 297.140625 203.074219 296.972656 204.078125 296.972656 205.414062 C 296.972656 206.746094 297.140625 207.746094 297.480469 208.414062 C 297.824219 209.078125 298.332031 209.414062 299.007812 209.414062 C 299.691406 209.414062 300.203125 209.078125 300.542969 208.414062 C 300.882812 207.746094 301.054688 206.746094 301.054688 205.414062 C 301.054688 204.078125 300.882812 203.074219 300.542969 202.410156 C 300.203125 201.742188 299.691406 201.410156 299.007812 201.410156 Z M 299.007812 200.367188 C 300.097656 200.367188 300.929688 200.800781 301.507812 201.664062 C 302.082031 202.523438 302.367188 203.773438 302.367188 205.414062 C 302.367188 207.050781 302.082031 208.300781 301.507812 209.164062 C 300.929688 210.023438 300.097656 210.453125 299.007812 210.453125 C 297.917969 210.453125 297.085938 210.023438 296.511719 209.164062 C 295.9375 208.300781 295.648438 207.050781 295.648438 205.414062 C 295.648438 203.773438 295.9375 202.523438 296.511719 201.664062 C 297.085938 200.800781 297.917969 200.367188 299.007812 200.367188 Z M 299.007812 200.367188 "/>
<path style=" stroke:none;fill-rule:nonzero;fill:rgb(0%,0%,0%);fill-opacity:1;" d="M 157.71875 219.140625 L 157.71875 221.210938 L 160.183594 221.210938 L 160.183594 222.140625 L 157.71875 222.140625 L 157.71875 226.101562 C 157.71875 226.695312 157.800781 227.078125 157.960938 227.246094 C 158.125 227.414062 158.457031 227.5 158.957031 227.5 L 160.183594 227.5 L 160.183594 228.503906 L 158.957031 228.503906 C 158.03125 228.503906 157.390625 228.328125 157.039062 227.984375 C 156.6875 227.640625 156.511719 227.011719 156.511719 226.101562 L 156.511719 222.140625 L 155.632812 222.140625 L 155.632812 221.210938 L 156.511719 221.210938 L 156.511719 219.140625 Z M 157.71875 219.140625 "/>
<path style=" stroke:none;fill-rule:nonzero;fill:rgb(0%,0%,0%);fill-opacity:1;" d="M 161.761719 221.210938 L 162.957031 221.210938 L 162.957031 228.503906 L 161.761719 228.503906 Z M 161.761719 218.371094 L 162.957031 218.371094 L 162.957031 219.890625 L 161.761719 219.890625 Z M 161.761719 218.371094 "/>
<path style=" stroke:none;fill-rule:nonzero;fill:rgb(0%,0%,0%);fill-opacity:1;" d="M 171.140625 222.609375 C 171.441406 222.070312 171.800781 221.675781 172.214844 221.417969 C 172.632812 221.164062 173.125 221.035156 173.6875 221.035156 C 174.445312 221.035156 175.035156 221.300781 175.445312 221.832031 C 175.859375 222.363281 176.066406 223.121094 176.066406 224.101562 L 176.066406 228.503906 L 174.859375 228.503906 L 174.859375 224.140625 C 174.859375 223.441406 174.734375 222.921875 174.488281 222.585938 C 174.242188 222.246094 173.863281 222.078125 173.355469 222.078125 C 172.734375 222.078125 172.246094 222.285156 171.882812 222.695312 C 171.523438 223.105469 171.34375 223.667969 171.34375 224.382812 L 171.34375 228.503906 L 170.140625 228.503906 L 170.140625 224.140625 C 170.140625 223.4375 170.015625 222.917969 169.769531 222.582031 C 169.523438 222.246094 169.140625 222.078125 168.621094 222.078125 C 168.011719 222.078125 167.523438 222.285156 167.164062 222.699219 C 166.804688 223.113281 166.621094 223.671875 166.621094 224.382812 L 166.621094 228.503906 L 165.417969 228.503906 L 165.417969 221.210938 L 166.621094 221.210938 L 166.621094 222.34375 C 166.898438 221.898438 167.222656 221.566406 167.605469 221.355469 C 167.988281 221.140625 168.441406 221.035156 168.964844 221.035156 C 169.496094 221.035156 169.949219 221.171875 170.320312 221.441406 C 170.691406 221.707031 170.964844 222.097656 171.140625 222.609375 Z M 171.140625 222.609375 "/>
<path style=" stroke:none;fill-rule:nonzero;fill:rgb(0%,0%,0%);fill-opacity:1;" d="M 184.691406 224.554688 L 184.691406 225.140625 L 179.183594 225.140625 C 179.234375 225.964844 179.484375 226.59375 179.929688 227.027344 C 180.371094 227.460938 180.992188 227.675781 181.785156 227.675781 C 182.246094 227.675781 182.691406 227.617188 183.125 227.507812 C 183.554688 227.394531 183.984375 227.222656 184.410156 226.996094 L 184.410156 228.132812 C 183.980469 228.3125 183.539062 228.453125 183.089844 228.546875 C 182.636719 228.644531 182.179688 228.691406 181.714844 228.691406 C 180.550781 228.691406 179.628906 228.351562 178.949219 227.675781 C 178.273438 227 177.933594 226.082031 177.933594 224.925781 C 177.933594 223.734375 178.253906 222.789062 178.898438 222.085938 C 179.542969 221.386719 180.414062 221.035156 181.507812 221.035156 C 182.488281 221.035156 183.261719 221.351562 183.835938 221.984375 C 184.40625 222.613281 184.691406 223.472656 184.691406 224.554688 Z M 183.492188 224.203125 C 183.484375 223.550781 183.300781 223.027344 182.941406 222.636719 C 182.585938 222.246094 182.109375 222.050781 181.519531 222.050781 C 180.851562 222.050781 180.316406 222.238281 179.914062 222.617188 C 179.515625 222.996094 179.28125 223.527344 179.222656 224.210938 Z M 183.492188 224.203125 "/>
<path style="fill:none;stroke-width:0.8;stroke-linecap:butt;stroke-linejoin:round;stroke:rgb(0%,0%,0%);stroke-opacity:1;stroke-miterlimit:4;" d="M -0.000585556 -0.000854492 L -3.498632 -0.000854492 " transform="matrix(1.333333,0,0,1.333333,40.137499,182.563639)"/>
<path style=" stroke:none;fill-rule:nonzero;fill:rgb(0%,0%,0%);fill-opacity:1;" d="M 13.835938 178.773438 C 13.160156 178.773438 12.652344 179.109375 12.308594 179.773438 C 11.96875 180.441406 11.800781 181.441406 11.800781 182.777344 C 11.800781 184.109375 11.96875 185.109375 12.308594 185.777344 C 12.652344 186.445312 13.160156 186.777344 13.835938 186.777344 C 14.519531 186.777344 15.03125 186.445312 15.371094 185.777344 C 15.710938 185.109375 15.882812 184.109375 15.882812 182.777344 C 15.882812 181.441406 15.710938 180.441406 15.371094 179.773438 C 15.03125 179.109375 14.519531 178.773438 13.835938 178.773438 Z M 13.835938 177.734375 C 14.929688 177.734375 15.761719 178.164062 16.335938 179.027344 C 16.910156 179.886719 17.199219 181.140625 17.199219 182.777344 C 17.199219 184.414062 16.910156 185.664062 16.335938 186.527344 C 15.761719 187.386719 14.929688 187.820312 13.835938 187.820312 C 12.75 187.820312 11.917969 187.386719 11.339844 186.527344 C 10.765625 185.664062 10.480469 184.414062 10.480469 182.777344 C 10.480469 181.140625 10.765625 179.886719 11.339844 179.027344 C 11.917969 178.164062 12.75 177.734375 13.835938 177.734375 Z M 13.835938 177.734375 "/>
<path style=" stroke:none;fill-rule:nonzero;fill:rgb(0%,0%,0%);fill-opacity:1;" d="M 19.507812 185.976562 L 20.882812 185.976562 L 20.882812 187.628906 L 19.507812 187.628906 Z M 19.507812 185.976562 "/>
<path style=" stroke:none;fill-rule:nonzero;fill:rgb(0%,0%,0%);fill-opacity:1;" d="M 26.558594 178.773438 C 25.882812 178.773438 25.375 179.109375 25.03125 179.773438 C 24.691406 180.441406 24.519531 181.441406 24.519531 182.777344 C 24.519531 184.109375 24.691406 185.109375 25.03125 185.777344 C 25.375 186.445312 25.882812 186.777344 26.558594 186.777344 C 27.242188 186.777344 27.75 186.445312 28.09375 185.777344 C 28.433594 185.109375 28.605469 184.109375 28.605469 182.777344 C 28.605469 181.441406 28.433594 180.441406 28.09375 179.773438 C 27.75 179.109375 27.242188 178.773438 26.558594 178.773438 Z M 26.558594 177.734375 C 27.648438 177.734375 28.480469 178.164062 29.058594 179.027344 C 29.632812 179.886719 29.917969 181.140625 29.917969 182.777344 C 29.917969 184.414062 29.632812 185.664062 29.058594 186.527344 C 28.480469 187.386719 27.648438 187.820312 26.558594 187.820312 C 25.46875 187.820312 24.636719 187.386719 24.0625 186.527344 C 23.488281 185.664062 23.199219 184.414062 23.199219 182.777344 C 23.199219 181.140625 23.488281 179.886719 24.0625 179.027344 C 24.636719 178.164062 25.46875 177.734375 26.558594 177.734375 Z M 26.558594 177.734375 "/>
<path style="fill:none;stroke-width:0.8;stroke-linecap:butt;stroke-linejoin:round;stroke:rgb(0%,0%,0%);stroke-opacity:1;stroke-miterlimit:4;" d="M -0.000585556 -0.000747681 L -3.498632 -0.000747681 " transform="matrix(1.333333,0,0,1.333333,40.137499,149.618184)"/>
<path style=" stroke:none;fill-rule:nonzero;fill:rgb(0%,0%,0%);fill-opacity:1;" d="M 13.835938 145.828125 C 13.160156 145.828125 12.652344 146.164062 12.308594 146.828125 C 11.96875 147.496094 11.800781 148.496094 11.800781 149.832031 C 11.800781 151.164062 11.96875 152.164062 12.308594 152.832031 C 12.652344 153.5 13.160156 153.832031 13.835938 153.832031 C 14.519531 153.832031 15.03125 153.5 15.371094 152.832031 C 15.710938 152.164062 15.882812 151.164062 15.882812 149.832031 C 15.882812 148.496094 15.710938 147.496094 15.371094 146.828125 C 15.03125 146.164062 14.519531 145.828125 13.835938 145.828125 Z M 13.835938 144.789062 C 14.929688 144.789062 15.761719 145.21875 16.335938 146.082031 C 16.910156 146.941406 17.199219 148.195312 17.199219 149.832031 C 17.199219 151.46875 16.910156 152.71875 16.335938 153.582031 C 15.761719 154.441406 14.929688 154.875 13.835938 154.875 C 12.75 154.875 11.917969 154.441406 11.339844 153.582031 C 10.765625 152.71875 10.480469 151.46875 10.480469 149.832031 C 10.480469 148.195312 10.765625 146.941406 11.339844 146.082031 C 11.917969 145.21875 12.75 144.789062 13.835938 144.789062 Z M 13.835938 144.789062 "/>
<path style=" stroke:none;fill-rule:nonzero;fill:rgb(0%,0%,0%);fill-opacity:1;" d="M 19.507812 153.03125 L 20.882812 153.03125 L 20.882812 154.683594 L 19.507812 154.683594 Z M 19.507812 153.03125 "/>
<path style=" stroke:none;fill-rule:nonzero;fill:rgb(0%,0%,0%);fill-opacity:1;" d="M 24.878906 153.578125 L 29.46875 153.578125 L 29.46875 154.683594 L 23.296875 154.683594 L 23.296875 153.578125 C 23.796875 153.0625 24.476562 152.367188 25.339844 151.5 C 26.199219 150.628906 26.742188 150.066406 26.964844 149.8125 C 27.382812 149.339844 27.675781 148.941406 27.84375 148.613281 C 28.011719 148.285156 28.097656 147.964844 28.097656 147.644531 C 28.097656 147.128906 27.914062 146.707031 27.550781 146.382812 C 27.191406 146.058594 26.71875 145.894531 26.136719 145.894531 C 25.722656 145.894531 25.289062 145.964844 24.828125 146.109375 C 24.371094 146.25 23.882812 146.46875 23.363281 146.761719 L 23.363281 145.433594 C 23.890625 145.21875 24.386719 145.058594 24.847656 144.949219 C 25.308594 144.84375 25.730469 144.789062 26.109375 144.789062 C 27.117188 144.789062 27.921875 145.039062 28.519531 145.542969 C 29.117188 146.046875 29.417969 146.71875 29.417969 147.5625 C 29.417969 147.960938 29.34375 148.339844 29.191406 148.699219 C 29.042969 149.054688 28.769531 149.476562 28.375 149.964844 C 28.265625 150.089844 27.921875 150.453125 27.339844 151.054688 C 26.757812 151.65625 25.9375 152.496094 24.878906 153.578125 Z M 24.878906 153.578125 "/>
<path style="fill:none;stroke-width:0.8;stroke-linecap:butt;stroke-linejoin:round;stroke:rgb(0%,0%,0%);stroke-opacity:1;stroke-miterlimit:4;" d="M -0.000585556 -0.000640869 L -3.498632 -0.000640869 " transform="matrix(1.333333,0,0,1.333333,40.137499,116.672729)"/>
<path style=" stroke:none;fill-rule:nonzero;fill:rgb(0%,0%,0%);fill-opacity:1;" d="M 13.835938 112.882812 C 13.160156 112.882812 12.652344 113.21875 12.308594 113.882812 C 11.96875 114.550781 11.800781 115.550781 11.800781 116.886719 C 11.800781 118.21875 11.96875 119.21875 12.308594 119.886719 C 12.652344 120.554688 13.160156 120.886719 13.835938 120.886719 C 14.519531 120.886719 15.03125 120.554688 15.371094 119.886719 C 15.710938 119.21875 15.882812 118.21875 15.882812 116.886719 C 15.882812 115.550781 15.710938 114.550781 15.371094 113.882812 C 15.03125 113.21875 14.519531 112.882812 13.835938 112.882812 Z M 13.835938 111.84375 C 14.929688 111.84375 15.761719 112.273438 16.335938 113.136719 C 16.910156 113.996094 17.199219 115.25 17.199219 116.886719 C 17.199219 118.523438 16.910156 119.773438 16.335938 120.636719 C 15.761719 121.496094 14.929688 121.929688 13.835938 121.929688 C 12.75 121.929688 11.917969 121.496094 11.339844 120.636719 C 10.765625 119.773438 10.480469 118.523438 10.480469 116.886719 C 10.480469 115.25 10.765625 113.996094 11.339844 113.136719 C 11.917969 112.273438 12.75 111.84375 13.835938 111.84375 Z M 13.835938 111.84375 "/>
<path style=" stroke:none;fill-rule:nonzero;fill:rgb(0%,0%,0%);fill-opacity:1;" d="M 19.507812 120.085938 L 20.882812 120.085938 L 20.882812 121.738281 L 19.507812 121.738281 Z M 19.507812 120.085938 "/>
<path style=" stroke:none;fill-rule:nonzero;fill:rgb(0%,0%,0%);fill-opacity:1;" d="M 27.359375 113.164062 L 24.039062 118.351562 L 27.359375 118.351562 Z M 27.015625 112.015625 L 28.667969 112.015625 L 28.667969 118.351562 L 30.058594 118.351562 L 30.058594 119.445312 L 28.667969 119.445312 L 28.667969 121.738281 L 27.359375 121.738281 L 27.359375 119.445312 L 22.972656 119.445312 L 22.972656 118.179688 Z M 27.015625 112.015625 "/>
<path style="fill:none;stroke-width:0.8;stroke-linecap:butt;stroke-linejoin:round;stroke:rgb(0%,0%,0%);stroke-opacity:1;stroke-miterlimit:4;" d="M -0.000585556 -0.000534058 L -3.498632 -0.000534058 " transform="matrix(1.333333,0,0,1.333333,40.137499,83.727275)"/>
<path style=" stroke:none;fill-rule:nonzero;fill:rgb(0%,0%,0%);fill-opacity:1;" d="M 13.835938 79.9375 C 13.160156 79.9375 12.652344 80.273438 12.308594 80.9375 C 11.96875 81.605469 11.800781 82.605469 11.800781 83.941406 C 11.800781 85.273438 11.96875 86.273438 12.308594 86.941406 C 12.652344 87.609375 13.160156 87.941406 13.835938 87.941406 C 14.519531 87.941406 15.03125 87.609375 15.371094 86.941406 C 15.710938 86.273438 15.882812 85.273438 15.882812 83.941406 C 15.882812 82.605469 15.710938 81.605469 15.371094 80.9375 C 15.03125 80.273438 14.519531 79.9375 13.835938 79.9375 Z M 13.835938 78.898438 C 14.929688 78.898438 15.761719 79.328125 16.335938 80.191406 C 16.910156 81.050781 17.199219 82.300781 17.199219 83.941406 C 17.199219 85.578125 16.910156 86.828125 16.335938 87.691406 C 15.761719 88.550781 14.929688 88.984375 13.835938 88.984375 C 12.75 88.984375 11.917969 88.550781 11.339844 87.691406 C 10.765625 86.828125 10.480469 85.578125 10.480469 83.941406 C 10.480469 82.300781 10.765625 81.050781 11.339844 80.191406 C 11.917969 79.328125 12.75 78.898438 13.835938 78.898438 Z M 13.835938 78.898438 "/>
<path style=" stroke:none;fill-rule:nonzero;fill:rgb(0%,0%,0%);fill-opacity:1;" d="M 19.507812 87.140625 L 20.882812 87.140625 L 20.882812 88.792969 L 19.507812 88.792969 Z M 19.507812 87.140625 "/>
<path style=" stroke:none;fill-rule:nonzero;fill:rgb(0%,0%,0%);fill-opacity:1;" d="M 26.722656 83.410156 C 26.132812 83.410156 25.664062 83.613281 25.320312 84.015625 C 24.976562 84.417969 24.800781 84.972656 24.800781 85.675781 C 24.800781 86.371094 24.976562 86.925781 25.320312 87.332031 C 25.664062 87.738281 26.132812 87.941406 26.722656 87.941406 C 27.3125 87.941406 27.78125 87.738281 28.125 87.332031 C 28.46875 86.925781 28.640625 86.371094 28.640625 85.675781 C 28.640625 84.972656 28.46875 84.417969 28.125 84.015625 C 27.78125 83.613281 27.3125 83.410156 26.722656 83.410156 Z M 29.332031 79.285156 L 29.332031 80.484375 C 29.003906 80.328125 28.671875 80.210938 28.332031 80.128906 C 27.996094 80.046875 27.664062 80.003906 27.332031 80.003906 C 26.464844 80.003906 25.800781 80.296875 25.34375 80.882812 C 24.886719 81.46875 24.625 82.355469 24.5625 83.539062 C 24.816406 83.160156 25.136719 82.871094 25.523438 82.671875 C 25.910156 82.46875 26.335938 82.367188 26.800781 82.367188 C 27.777344 82.367188 28.546875 82.664062 29.113281 83.257812 C 29.683594 83.847656 29.964844 84.65625 29.964844 85.675781 C 29.964844 86.671875 29.671875 87.472656 29.078125 88.078125 C 28.488281 88.679688 27.703125 88.984375 26.722656 88.984375 C 25.597656 88.984375 24.738281 88.550781 24.144531 87.691406 C 23.550781 86.828125 23.253906 85.578125 23.253906 83.941406 C 23.253906 82.40625 23.617188 81.183594 24.347656 80.269531 C 25.074219 79.355469 26.054688 78.898438 27.28125 78.898438 C 27.613281 78.898438 27.945312 78.929688 28.28125 78.996094 C 28.617188 79.058594 28.96875 79.15625 29.332031 79.285156 Z M 29.332031 79.285156 "/>
<path style="fill:none;stroke-width:0.8;stroke-linecap:butt;stroke-linejoin:round;stroke:rgb(0%,0%,0%);stroke-opacity:1;stroke-miterlimit:4;" d="M -0.000585556 -0.000427246 L -3.498632 -0.000427246 " transform="matrix(1.333333,0,0,1.333333,40.137499,50.78182)"/>
<path style=" stroke:none;fill-rule:nonzero;fill:rgb(0%,0%,0%);fill-opacity:1;" d="M 13.835938 46.992188 C 13.160156 46.992188 12.652344 47.328125 12.308594 47.992188 C 11.96875 48.660156 11.800781 49.660156 11.800781 50.996094 C 11.800781 52.328125 11.96875 53.328125 12.308594 53.996094 C 12.652344 54.660156 13.160156 54.996094 13.835938 54.996094 C 14.519531 54.996094 15.03125 54.660156 15.371094 53.996094 C 15.710938 53.328125 15.882812 52.328125 15.882812 50.996094 C 15.882812 49.660156 15.710938 48.660156 15.371094 47.992188 C 15.03125 47.328125 14.519531 46.992188 13.835938 46.992188 Z M 13.835938 45.953125 C 14.929688 45.953125 15.761719 46.382812 16.335938 47.246094 C 16.910156 48.105469 17.199219 49.355469 17.199219 50.996094 C 17.199219 52.632812 16.910156 53.882812 16.335938 54.746094 C 15.761719 55.605469 14.929688 56.035156 13.835938 56.035156 C 12.75 56.035156 11.917969 55.605469 11.339844 54.746094 C 10.765625 53.882812 10.480469 52.632812 10.480469 50.996094 C 10.480469 49.355469 10.765625 48.105469 11.339844 47.246094 C 11.917969 46.382812 12.75 45.953125 13.835938 45.953125 Z M 13.835938 45.953125 "/>
<path style=" stroke:none;fill-rule:nonzero;fill:rgb(0%,0%,0%);fill-opacity:1;" d="M 19.507812 54.191406 L 20.882812 54.191406 L 20.882812 55.847656 L 19.507812 55.847656 Z M 19.507812 54.191406 "/>
<path style=" stroke:none;fill-rule:nonzero;fill:rgb(0%,0%,0%);fill-opacity:1;" d="M 26.558594 51.230469 C 25.933594 51.230469 25.441406 51.398438 25.082031 51.734375 C 24.726562 52.066406 24.546875 52.527344 24.546875 53.113281 C 24.546875 53.699219 24.726562 54.160156 25.082031 54.492188 C 25.441406 54.828125 25.933594 54.996094 26.558594 54.996094 C 27.183594 54.996094 27.675781 54.828125 28.035156 54.492188 C 28.398438 54.152344 28.578125 53.695312 28.578125 53.113281 C 28.578125 52.527344 28.398438 52.066406 28.039062 51.734375 C 27.683594 51.398438 27.1875 51.230469 26.558594 51.230469 Z M 25.246094 50.671875 C 24.679688 50.535156 24.242188 50.269531 23.925781 49.886719 C 23.613281 49.496094 23.453125 49.027344 23.453125 48.46875 C 23.453125 47.695312 23.730469 47.082031 24.285156 46.628906 C 24.839844 46.175781 25.597656 45.953125 26.558594 45.953125 C 27.527344 45.953125 28.285156 46.175781 28.839844 46.628906 C 29.390625 47.082031 29.664062 47.695312 29.664062 48.46875 C 29.664062 49.027344 29.507812 49.496094 29.191406 49.886719 C 28.878906 50.269531 28.441406 50.535156 27.882812 50.671875 C 28.515625 50.820312 29.007812 51.109375 29.359375 51.539062 C 29.714844 51.96875 29.890625 52.492188 29.890625 53.113281 C 29.890625 54.054688 29.605469 54.777344 29.03125 55.28125 C 28.453125 55.785156 27.632812 56.035156 26.558594 56.035156 C 25.488281 56.035156 24.664062 55.785156 24.089844 55.28125 C 23.511719 54.777344 23.226562 54.054688 23.226562 53.113281 C 23.226562 52.492188 23.402344 51.96875 23.757812 51.539062 C 24.117188 51.109375 24.609375 50.820312 25.246094 50.671875 Z M 24.761719 48.59375 C 24.761719 49.097656 24.921875 49.492188 25.234375 49.773438 C 25.550781 50.054688 25.992188 50.195312 26.558594 50.195312 C 27.125 50.195312 27.566406 50.054688 27.882812 49.773438 C 28.203125 49.492188 28.363281 49.097656 28.363281 48.59375 C 28.363281 48.089844 28.203125 47.699219 27.882812 47.417969 C 27.566406 47.132812 27.125 46.992188 26.558594 46.992188 C 25.992188 46.992188 25.550781 47.132812 25.234375 47.417969 C 24.921875 47.699219 24.761719 48.089844 24.761719 48.59375 Z M 24.761719 48.59375 "/>
<path style="fill:none;stroke-width:0.8;stroke-linecap:butt;stroke-linejoin:round;stroke:rgb(0%,0%,0%);stroke-opacity:1;stroke-miterlimit:4;" d="M -0.000585556 -0.000319481 L -3.498632 -0.000319481 " transform="matrix(1.333333,0,0,1.333333,40.137499,17.836363)"/>
<path style=" stroke:none;fill-rule:nonzero;fill:rgb(0%,0%,0%);fill-opacity:1;" d="M 11.253906 21.796875 L 13.402344 21.796875 L 13.402344 14.378906 L 11.066406 14.847656 L 11.066406 13.648438 L 13.390625 13.179688 L 14.703125 13.179688 L 14.703125 21.796875 L 16.851562 21.796875 L 16.851562 22.902344 L 11.253906 22.902344 Z M 11.253906 21.796875 "/>
<path style=" stroke:none;fill-rule:nonzero;fill:rgb(0%,0%,0%);fill-opacity:1;" d="M 19.507812 21.246094 L 20.882812 21.246094 L 20.882812 22.902344 L 19.507812 22.902344 Z M 19.507812 21.246094 "/>
<path style=" stroke:none;fill-rule:nonzero;fill:rgb(0%,0%,0%);fill-opacity:1;" d="M 26.558594 14.046875 C 25.882812 14.046875 25.375 14.382812 25.03125 15.046875 C 24.691406 15.714844 24.519531 16.714844 24.519531 18.050781 C 24.519531 19.382812 24.691406 20.382812 25.03125 21.050781 C 25.375 21.714844 25.882812 22.050781 26.558594 22.050781 C 27.242188 22.050781 27.75 21.714844 28.09375 21.050781 C 28.433594 20.382812 28.605469 19.382812 28.605469 18.050781 C 28.605469 16.714844 28.433594 15.714844 28.09375 15.046875 C 27.75 14.382812 27.242188 14.046875 26.558594 14.046875 Z M 26.558594 13.007812 C 27.648438 13.007812 28.480469 13.4375 29.058594 14.300781 C 29.632812 15.160156 29.917969 16.410156 29.917969 18.050781 C 29.917969 19.6875 29.632812 20.9375 29.058594 21.800781 C 28.480469 22.660156 27.648438 23.089844 26.558594 23.089844 C 25.46875 23.089844 24.636719 22.660156 24.0625 21.800781 C 23.488281 20.9375 23.199219 19.6875 23.199219 18.050781 C 23.199219 16.410156 23.488281 15.160156 24.0625 14.300781 C 24.636719 13.4375 25.46875 13.007812 26.558594 13.007812 Z M 26.558594 13.007812 "/>
<path style="fill:none;stroke-width:1.5;stroke-linecap:square;stroke-linejoin:round;stroke:rgb(12.156863%,46.666667%,70.588237%);stroke-opacity:1;stroke-miterlimit:4;" d="M 38.979492 13.376953 L 43.532227 19.555664 L 48.084961 25.423828 L 52.637695 30.999023 L 57.19043 36.292969 L 61.743164 41.326172 L 66.295898 46.104492 L 70.848633 50.645508 L 75.401367 54.960938 L 79.951172 59.05957 L 84.503906 62.950195 L 89.056641 66.650391 L 93.609375 70.163086 L 98.162109 73.50293 L 102.714844 76.672852 L 107.267578 79.68457 L 111.820312 82.546875 L 116.373047 85.265625 L 120.925781 87.849609 L 125.475586 90.301758 L 130.02832 92.633789 L 134.581055 94.848633 L 139.133789 96.952148 L 143.686523 98.950195 L 148.239258 100.848633 L 152.791992 102.65332 L 157.344727 104.367188 L 161.897461 105.993164 L 166.450195 107.540039 L 171 109.010742 L 175.552734 110.405273 L 180.105469 111.732422 L 184.658203 112.989258 L 189.210938 114.1875 L 193.763672 115.324219 L 198.316406 116.405273 L 202.869141 117.430664 L 207.421875 118.40332 L 211.974609 119.329102 L 216.524414 120.210938 " transform="matrix(1.333333,0,0,1.333333,0,0)"/>
<path style="fill:none;stroke-width:1.5;stroke-linecap:square;stroke-linejoin:round;stroke:rgb(100%,49.803922%,5.490196%);stroke-opacity:1;stroke-miterlimit:4;" d="M 38.979492 13.376953 L 43.532227 25.731445 L 48.084961 36.849609 L 52.637695 46.857422 L 57.19043 55.863281 L 61.743164 63.969727 L 66.295898 71.264648 L 70.848633 77.830078 L 75.401367 83.739258 L 79.951172 89.05957 L 84.503906 93.84375 L 89.056641 98.15332 L 93.609375 102.029297 L 98.162109 105.518555 L 102.714844 108.65918 L 107.267578 111.486328 L 111.820312 114.029297 L 116.373047 116.317383 L 120.925781 118.379883 L 125.475586 120.234375 L 130.02832 121.901367 L 134.581055 123.404297 L 139.133789 124.754883 L 143.686523 125.973633 L 148.239258 127.069336 L 152.791992 128.053711 L 157.344727 128.941406 L 161.897461 129.738281 L 166.450195 130.456055 L 171 131.103516 L 175.552734 131.686523 L 180.105469 132.208008 L 184.658203 132.679688 L 189.210938 133.104492 L 193.763672 133.485352 L 198.316406 133.831055 L 202.869141 134.138672 L 207.421875 134.416992 L 211.974609 134.668945 L 216.524414 134.894531 " transform="matrix(1.333333,0,0,1.333333,0,0)"/>
<path style="fill:none;stroke-width:1.5;stroke-linecap:square;stroke-linejoin:round;stroke:rgb(17.254902%,62.7451%,17.254902%);stroke-opacity:1;stroke-miterlimit:4;" d="M 38.979492 13.376953 L 43.532227 62.794922 L 48.084961 92.446289 L 52.637695 110.238281 L 57.19043 120.911133 L 61.743164 127.31543 L 66.295898 131.15918 L 70.848633 133.464844 L 75.401367 134.847656 L 79.951172 135.676758 L 84.503906 136.174805 L 89.056641 136.473633 L 93.609375 136.652344 L 98.162109 136.760742 L 102.714844 136.825195 L 107.267578 136.863281 L 111.820312 136.886719 L 116.373047 136.901367 L 120.925781 136.910156 L 125.475586 136.916016 L 130.02832 136.918945 L 134.581055 136.918945 L 139.133789 136.921875 L 216.524414 136.921875 " transform="matrix(1.333333,0,0,1.333333,0,0)"/>
<path style="fill:none;stroke-width:1.5;stroke-linecap:square;stroke-linejoin:round;stroke:rgb(83.92157%,15.294118%,15.686275%);stroke-opacity:1;stroke-miterlimit:4;" d="M 38.979492 13.376953 L 43.532227 136.921875 L 216.524414 136.921875 " transform="matrix(1.333333,0,0,1.333333,0,0)"/>
<path style="fill:none;stroke-width:0.8;stroke-linecap:square;stroke-linejoin:miter;stroke:rgb(0%,0%,0%);stroke-opacity:1;stroke-miterlimit:4;" d="M 30.102539 143.100586 L 30.102539 7.201172 " transform="matrix(1.333333,0,0,1.333333,0,0)"/>
<path style="fill:none;stroke-width:0.8;stroke-linecap:square;stroke-linejoin:miter;stroke:rgb(0%,0%,0%);stroke-opacity:1;stroke-miterlimit:4;" d="M 225.404297 143.100586 L 225.404297 7.201172 " transform="matrix(1.333333,0,0,1.333333,0,0)"/>
<path style="fill:none;stroke-width:0.8;stroke-linecap:square;stroke-linejoin:miter;stroke:rgb(0%,0%,0%);stroke-opacity:1;stroke-miterlimit:4;" d="M 30.102539 143.100586 L 225.404297 143.100586 " transform="matrix(1.333333,0,0,1.333333,0,0)"/>
<path style="fill:none;stroke-width:0.8;stroke-linecap:square;stroke-linejoin:miter;stroke:rgb(0%,0%,0%);stroke-opacity:1;stroke-miterlimit:4;" d="M 30.102539 7.201172 L 225.404297 7.201172 " transform="matrix(1.333333,0,0,1.333333,0,0)"/>
<use xlink:href="#surface5" mask="url(#mask0)"/>
<path style="fill:none;stroke-width:1.5;stroke-linecap:square;stroke-linejoin:round;stroke:rgb(12.156863%,46.666667%,70.588237%);stroke-opacity:1;stroke-miterlimit:4;" d="M 128.850586 20.299805 L 148.851562 20.299805 " transform="matrix(1.333333,0,0,1.333333,0,0)"/>
<path style=" stroke:none;fill-rule:nonzero;fill:rgb(0%,0%,0%);fill-opacity:1;" d="M 215.628906 28.089844 C 215.628906 27.210938 215.445312 26.519531 215.082031 26.019531 C 214.722656 25.515625 214.222656 25.265625 213.589844 25.265625 C 212.953125 25.265625 212.457031 25.515625 212.09375 26.019531 C 211.730469 26.519531 211.550781 27.210938 211.550781 28.089844 C 211.550781 28.972656 211.730469 29.664062 212.09375 30.164062 C 212.457031 30.664062 212.953125 30.917969 213.589844 30.917969 C 214.222656 30.917969 214.722656 30.664062 215.082031 30.164062 C 215.445312 29.664062 215.628906 28.972656 215.628906 28.089844 Z M 211.550781 25.546875 C 211.804688 25.113281 212.121094 24.789062 212.503906 24.582031 C 212.890625 24.371094 213.347656 24.265625 213.882812 24.265625 C 214.765625 24.265625 215.488281 24.617188 216.039062 25.320312 C 216.59375 26.023438 216.871094 26.945312 216.871094 28.089844 C 216.871094 29.238281 216.59375 30.164062 216.039062 30.867188 C 215.488281 31.570312 214.765625 31.921875 213.882812 31.921875 C 213.347656 31.921875 212.890625 31.816406 212.503906 31.605469 C 212.121094 31.394531 211.804688 31.070312 211.550781 30.636719 L 211.550781 31.730469 L 210.347656 31.730469 L 210.347656 21.601562 L 211.550781 21.601562 Z M 211.550781 25.546875 "/>
<path style=" stroke:none;fill-rule:nonzero;fill:rgb(0%,0%,0%);fill-opacity:1;" d="M 225.09375 27.785156 L 225.09375 28.371094 L 219.585938 28.371094 C 219.636719 29.195312 219.886719 29.824219 220.332031 30.257812 C 220.773438 30.6875 221.394531 30.902344 222.1875 30.902344 C 222.648438 30.902344 223.09375 30.847656 223.527344 30.734375 C 223.957031 30.621094 224.386719 30.453125 224.8125 30.226562 L 224.8125 31.359375 C 224.382812 31.542969 223.941406 31.679688 223.492188 31.777344 C 223.039062 31.871094 222.582031 31.921875 222.117188 31.921875 C 220.953125 31.921875 220.03125 31.582031 219.351562 30.90625 C 218.675781 30.226562 218.335938 29.3125 218.335938 28.15625 C 218.335938 26.964844 218.65625 26.015625 219.300781 25.316406 C 219.945312 24.617188 220.816406 24.265625 221.910156 24.265625 C 222.890625 24.265625 223.664062 24.582031 224.238281 25.210938 C 224.808594 25.84375 225.09375 26.699219 225.09375 27.785156 Z M 223.894531 27.433594 C 223.886719 26.777344 223.703125 26.257812 223.34375 25.867188 C 222.988281 25.476562 222.511719 25.277344 221.921875 25.277344 C 221.253906 25.277344 220.71875 25.46875 220.316406 25.847656 C 219.917969 26.222656 219.683594 26.753906 219.625 27.441406 Z M 223.894531 27.433594 "/>
<path style=" stroke:none;fill-rule:nonzero;fill:rgb(0%,0%,0%);fill-opacity:1;" d="M 228.242188 22.367188 L 228.242188 24.441406 L 230.710938 24.441406 L 230.710938 25.371094 L 228.242188 25.371094 L 228.242188 29.328125 C 228.242188 29.921875 228.324219 30.304688 228.488281 30.476562 C 228.648438 30.644531 228.980469 30.730469 229.480469 30.730469 L 230.710938 30.730469 L 230.710938 31.730469 L 229.480469 31.730469 C 228.554688 31.730469 227.917969 31.558594 227.566406 31.214844 C 227.214844 30.867188 227.039062 30.242188 227.039062 29.328125 L 227.039062 25.371094 L 226.160156 25.371094 L 226.160156 24.441406 L 227.039062 24.441406 L 227.039062 22.367188 Z M 228.242188 22.367188 "/>
<path style=" stroke:none;fill-rule:nonzero;fill:rgb(0%,0%,0%);fill-opacity:1;" d="M 235.601562 28.066406 C 234.632812 28.066406 233.960938 28.175781 233.589844 28.398438 C 233.214844 28.617188 233.027344 28.996094 233.027344 29.53125 C 233.027344 29.957031 233.167969 30.292969 233.449219 30.542969 C 233.730469 30.792969 234.109375 30.917969 234.589844 30.917969 C 235.253906 30.917969 235.789062 30.679688 236.191406 30.210938 C 236.589844 29.738281 236.792969 29.113281 236.792969 28.332031 L 236.792969 28.066406 Z M 237.992188 27.570312 L 237.992188 31.730469 L 236.792969 31.730469 L 236.792969 30.625 C 236.519531 31.066406 236.179688 31.394531 235.769531 31.605469 C 235.359375 31.816406 234.863281 31.921875 234.273438 31.921875 C 233.527344 31.921875 232.933594 31.710938 232.492188 31.292969 C 232.050781 30.871094 231.828125 30.3125 231.828125 29.609375 C 231.828125 28.789062 232.105469 28.171875 232.652344 27.753906 C 233.203125 27.335938 234.023438 27.128906 235.109375 27.128906 L 236.792969 27.128906 L 236.792969 27.011719 C 236.792969 26.460938 236.609375 26.03125 236.25 25.730469 C 235.886719 25.429688 235.378906 25.277344 234.722656 25.277344 C 234.304688 25.277344 233.898438 25.328125 233.503906 25.429688 C 233.109375 25.527344 232.730469 25.679688 232.367188 25.878906 L 232.367188 24.769531 C 232.804688 24.601562 233.226562 24.476562 233.640625 24.390625 C 234.054688 24.308594 234.453125 24.265625 234.84375 24.265625 C 235.898438 24.265625 236.6875 24.539062 237.210938 25.085938 C 237.730469 25.632812 237.992188 26.460938 237.992188 27.570312 Z M 237.992188 27.570312 "/>
<path style=" stroke:none;fill-rule:nonzero;fill:rgb(0%,0%,0%);fill-opacity:1;" d="M 244.851562 25.675781 L 253.195312 25.675781 L 253.195312 26.769531 L 244.851562 26.769531 Z M 244.851562 28.332031 L 253.195312 28.332031 L 253.195312 29.441406 L 244.851562 29.441406 Z M 244.851562 28.332031 "/>
<path style=" stroke:none;fill-rule:nonzero;fill:rgb(0%,0%,0%);fill-opacity:1;" d="M 263.085938 22.878906 C 262.410156 22.878906 261.902344 23.210938 261.558594 23.878906 C 261.21875 24.542969 261.050781 25.542969 261.050781 26.882812 C 261.050781 28.214844 261.21875 29.210938 261.558594 29.878906 C 261.902344 30.546875 262.410156 30.878906 263.085938 30.878906 C 263.769531 30.878906 264.28125 30.546875 264.621094 29.878906 C 264.960938 29.210938 265.132812 28.214844 265.132812 26.882812 C 265.132812 25.542969 264.960938 24.542969 264.621094 23.878906 C 264.28125 23.210938 263.769531 22.878906 263.085938 22.878906 Z M 263.085938 21.835938 C 264.175781 21.835938 265.007812 22.265625 265.585938 23.128906 C 266.160156 23.992188 266.445312 25.242188 266.445312 26.882812 C 266.445312 28.515625 266.160156 29.765625 265.585938 30.628906 C 265.007812 31.492188 264.175781 31.921875 263.085938 31.921875 C 261.996094 31.921875 261.164062 31.492188 260.589844 30.628906 C 260.015625 29.765625 259.726562 28.515625 259.726562 26.882812 C 259.726562 25.242188 260.015625 23.992188 260.589844 23.128906 C 261.164062 22.265625 261.996094 21.835938 263.085938 21.835938 Z M 263.085938 21.835938 "/>
<path style=" stroke:none;fill-rule:nonzero;fill:rgb(0%,0%,0%);fill-opacity:1;" d="M 268.757812 30.078125 L 270.132812 30.078125 L 270.132812 31.730469 L 268.757812 31.730469 Z M 268.757812 30.078125 "/>
<path style=" stroke:none;fill-rule:nonzero;fill:rgb(0%,0%,0%);fill-opacity:1;" d="M 273.035156 31.527344 L 273.035156 30.332031 C 273.367188 30.488281 273.699219 30.609375 274.035156 30.691406 C 274.375 30.773438 274.707031 30.8125 275.035156 30.8125 C 275.902344 30.8125 276.566406 30.519531 277.023438 29.9375 C 277.480469 29.355469 277.742188 28.46875 277.808594 27.277344 C 277.554688 27.652344 277.238281 27.9375 276.847656 28.136719 C 276.464844 28.335938 276.035156 28.4375 275.566406 28.4375 C 274.597656 28.4375 273.828125 28.144531 273.261719 27.554688 C 272.691406 26.96875 272.410156 26.164062 272.410156 25.140625 C 272.410156 24.144531 272.703125 23.34375 273.296875 22.742188 C 273.886719 22.136719 274.671875 21.835938 275.652344 21.835938 C 276.777344 21.835938 277.636719 22.265625 278.226562 23.128906 C 278.820312 23.992188 279.117188 25.242188 279.117188 26.882812 C 279.117188 28.414062 278.753906 29.636719 278.023438 30.550781 C 277.296875 31.464844 276.320312 31.921875 275.09375 31.921875 C 274.761719 31.921875 274.429688 31.886719 274.089844 31.824219 C 273.75 31.757812 273.398438 31.660156 273.035156 31.527344 Z M 275.652344 27.410156 C 276.242188 27.410156 276.710938 27.207031 277.054688 26.804688 C 277.398438 26.398438 277.574219 25.847656 277.574219 25.140625 C 277.574219 24.441406 277.398438 23.890625 277.054688 23.484375 C 276.710938 23.078125 276.242188 22.878906 275.652344 22.878906 C 275.0625 22.878906 274.59375 23.078125 274.25 23.484375 C 273.90625 23.890625 273.734375 24.441406 273.734375 25.140625 C 273.734375 25.847656 273.90625 26.398438 274.25 26.804688 C 274.59375 27.207031 275.0625 27.410156 275.652344 27.410156 Z M 275.652344 27.410156 "/>
<path style=" stroke:none;fill-rule:nonzero;fill:rgb(0%,0%,0%);fill-opacity:1;" d="M 281.492188 22.011719 L 286.65625 22.011719 L 286.65625 23.117188 L 282.695312 23.117188 L 282.695312 25.5 C 282.886719 25.433594 283.078125 25.386719 283.269531 25.355469 C 283.460938 25.320312 283.652344 25.304688 283.84375 25.304688 C 284.925781 25.304688 285.785156 25.601562 286.421875 26.199219 C 287.054688 26.792969 287.371094 27.597656 287.371094 28.613281 C 287.371094 29.660156 287.046875 30.472656 286.394531 31.050781 C 285.742188 31.632812 284.824219 31.921875 283.640625 31.921875 C 283.234375 31.921875 282.816406 31.886719 282.394531 31.816406 C 281.972656 31.746094 281.535156 31.644531 281.082031 31.503906 L 281.082031 30.179688 C 281.472656 30.394531 281.875 30.550781 282.292969 30.65625 C 282.710938 30.761719 283.148438 30.8125 283.613281 30.8125 C 284.363281 30.8125 284.960938 30.617188 285.398438 30.222656 C 285.835938 29.828125 286.054688 29.289062 286.054688 28.613281 C 286.054688 27.9375 285.835938 27.402344 285.398438 27.007812 C 284.960938 26.609375 284.363281 26.414062 283.613281 26.414062 C 283.261719 26.414062 282.910156 26.453125 282.5625 26.527344 C 282.214844 26.605469 281.855469 26.726562 281.492188 26.894531 Z M 281.492188 22.011719 "/>
<path style="fill:none;stroke-width:1.5;stroke-linecap:square;stroke-linejoin:round;stroke:rgb(100%,49.803922%,5.490196%);stroke-opacity:1;stroke-miterlimit:4;" d="M 128.850586 34.977539 L 148.851562 34.977539 " transform="matrix(1.333333,0,0,1.333333,0,0)"/>
<path style=" stroke:none;fill-rule:nonzero;fill:rgb(0%,0%,0%);fill-opacity:1;" d="M 215.628906 47.664062 C 215.628906 46.78125 215.445312 46.089844 215.082031 45.589844 C 214.722656 45.089844 214.222656 44.835938 213.589844 44.835938 C 212.953125 44.835938 212.457031 45.089844 212.09375 45.589844 C 211.730469 46.089844 211.550781 46.78125 211.550781 47.664062 C 211.550781 48.542969 211.730469 49.234375 212.09375 49.734375 C 212.457031 50.238281 212.953125 50.488281 213.589844 50.488281 C 214.222656 50.488281 214.722656 50.238281 215.082031 49.734375 C 215.445312 49.234375 215.628906 48.542969 215.628906 47.664062 Z M 211.550781 45.117188 C 211.804688 44.683594 212.121094 44.363281 212.503906 44.152344 C 212.890625 43.941406 213.347656 43.835938 213.882812 43.835938 C 214.765625 43.835938 215.488281 44.1875 216.039062 44.890625 C 216.59375 45.59375 216.871094 46.515625 216.871094 47.664062 C 216.871094 48.808594 216.59375 49.734375 216.039062 50.4375 C 215.488281 51.140625 214.765625 51.492188 213.882812 51.492188 C 213.347656 51.492188 212.890625 51.386719 212.503906 51.175781 C 212.121094 50.964844 211.804688 50.640625 211.550781 50.207031 L 211.550781 51.300781 L 210.347656 51.300781 L 210.347656 41.171875 L 211.550781 41.171875 Z M 211.550781 45.117188 "/>
<path style=" stroke:none;fill-rule:nonzero;fill:rgb(0%,0%,0%);fill-opacity:1;" d="M 225.09375 47.355469 L 225.09375 47.941406 L 219.585938 47.941406 C 219.636719 48.765625 219.886719 49.394531 220.332031 49.828125 C 220.773438 50.257812 221.394531 50.476562 222.1875 50.476562 C 222.648438 50.476562 223.09375 50.417969 223.527344 50.304688 C 223.957031 50.195312 224.386719 50.023438 224.8125 49.796875 L 224.8125 50.929688 C 224.382812 51.113281 223.941406 51.253906 223.492188 51.347656 C 223.039062 51.445312 222.582031 51.492188 222.117188 51.492188 C 220.953125 51.492188 220.03125 51.152344 219.351562 50.476562 C 218.675781 49.800781 218.335938 48.882812 218.335938 47.726562 C 218.335938 46.535156 218.65625 45.585938 219.300781 44.886719 C 219.945312 44.1875 220.816406 43.835938 221.910156 43.835938 C 222.890625 43.835938 223.664062 44.152344 224.238281 44.785156 C 224.808594 45.414062 225.09375 46.273438 225.09375 47.355469 Z M 223.894531 47.003906 C 223.886719 46.351562 223.703125 45.828125 223.34375 45.4375 C 222.988281 45.046875 222.511719 44.851562 221.921875 44.851562 C 221.253906 44.851562 220.71875 45.039062 220.316406 45.417969 C 219.917969 45.792969 219.683594 46.328125 219.625 47.011719 Z M 223.894531 47.003906 "/>
<path style=" stroke:none;fill-rule:nonzero;fill:rgb(0%,0%,0%);fill-opacity:1;" d="M 228.242188 41.941406 L 228.242188 44.011719 L 230.710938 44.011719 L 230.710938 44.941406 L 228.242188 44.941406 L 228.242188 48.898438 C 228.242188 49.496094 228.324219 49.875 228.488281 50.046875 C 228.648438 50.214844 228.980469 50.300781 229.480469 50.300781 L 230.710938 50.300781 L 230.710938 51.300781 L 229.480469 51.300781 C 228.554688 51.300781 227.917969 51.128906 227.566406 50.785156 C 227.214844 50.441406 227.039062 49.8125 227.039062 48.898438 L 227.039062 44.941406 L 226.160156 44.941406 L 226.160156 44.011719 L 227.039062 44.011719 L 227.039062 41.941406 Z M 228.242188 41.941406 "/>
<path style=" stroke:none;fill-rule:nonzero;fill:rgb(0%,0%,0%);fill-opacity:1;" d="M 235.601562 47.636719 C 234.632812 47.636719 233.960938 47.746094 233.589844 47.96875 C 233.214844 48.191406 233.027344 48.566406 233.027344 49.101562 C 233.027344 49.527344 233.167969 49.863281 233.449219 50.113281 C 233.730469 50.363281 234.109375 50.488281 234.589844 50.488281 C 235.253906 50.488281 235.789062 50.253906 236.191406 49.78125 C 236.589844 49.308594 236.792969 48.683594 236.792969 47.902344 L 236.792969 47.636719 Z M 237.992188 47.140625 L 237.992188 51.300781 L 236.792969 51.300781 L 236.792969 50.195312 C 236.519531 50.636719 236.179688 50.964844 235.769531 51.175781 C 235.359375 51.386719 234.863281 51.492188 234.273438 51.492188 C 233.527344 51.492188 232.933594 51.28125 232.492188 50.863281 C 232.050781 50.441406 231.828125 49.882812 231.828125 49.179688 C 231.828125 48.359375 232.105469 47.742188 232.652344 47.324219 C 233.203125 46.910156 234.023438 46.699219 235.109375 46.699219 L 236.792969 46.699219 L 236.792969 46.582031 C 236.792969 46.03125 236.609375 45.601562 236.25 45.300781 C 235.886719 45 235.378906 44.851562 234.722656 44.851562 C 234.304688 44.851562 233.898438 44.898438 233.503906 45 C 233.109375 45.101562 232.730469 45.25 232.367188 45.449219 L 232.367188 44.339844 C 232.804688 44.171875 233.226562 44.046875 233.640625 43.960938 C 234.054688 43.878906 234.453125 43.835938 234.84375 43.835938 C 235.898438 43.835938 236.6875 44.109375 237.210938 44.65625 C 237.730469 45.203125 237.992188 46.03125 237.992188 47.140625 Z M 237.992188 47.140625 "/>
<path style=" stroke:none;fill-rule:nonzero;fill:rgb(0%,0%,0%);fill-opacity:1;" d="M 244.851562 45.246094 L 253.195312 45.246094 L 253.195312 46.339844 L 244.851562 46.339844 Z M 244.851562 47.902344 L 253.195312 47.902344 L 253.195312 49.011719 L 244.851562 49.011719 Z M 244.851562 47.902344 "/>
<path style=" stroke:none;fill-rule:nonzero;fill:rgb(0%,0%,0%);fill-opacity:1;" d="M 263.085938 42.449219 C 262.410156 42.449219 261.902344 42.78125 261.558594 43.449219 C 261.21875 44.113281 261.050781 45.113281 261.050781 46.453125 C 261.050781 47.785156 261.21875 48.785156 261.558594 49.449219 C 261.902344 50.117188 262.410156 50.449219 263.085938 50.449219 C 263.769531 50.449219 264.28125 50.117188 264.621094 49.449219 C 264.960938 48.785156 265.132812 47.785156 265.132812 46.453125 C 265.132812 45.113281 264.960938 44.113281 264.621094 43.449219 C 264.28125 42.78125 263.769531 42.449219 263.085938 42.449219 Z M 263.085938 41.40625 C 264.175781 41.40625 265.007812 41.835938 265.585938 42.699219 C 266.160156 43.5625 266.445312 44.8125 266.445312 46.453125 C 266.445312 48.089844 266.160156 49.335938 265.585938 50.199219 C 265.007812 51.0625 264.175781 51.492188 263.085938 51.492188 C 261.996094 51.492188 261.164062 51.0625 260.589844 50.199219 C 260.015625 49.335938 259.726562 48.089844 259.726562 46.453125 C 259.726562 44.8125 260.015625 43.5625 260.589844 42.699219 C 261.164062 41.835938 261.996094 41.40625 263.085938 41.40625 Z M 263.085938 41.40625 "/>
<path style=" stroke:none;fill-rule:nonzero;fill:rgb(0%,0%,0%);fill-opacity:1;" d="M 268.757812 49.648438 L 270.132812 49.648438 L 270.132812 51.300781 L 268.757812 51.300781 Z M 268.757812 49.648438 "/>
<path style=" stroke:none;fill-rule:nonzero;fill:rgb(0%,0%,0%);fill-opacity:1;" d="M 273.035156 51.101562 L 273.035156 49.902344 C 273.367188 50.058594 273.699219 50.179688 274.035156 50.261719 C 274.375 50.34375 274.707031 50.382812 275.035156 50.382812 C 275.902344 50.382812 276.566406 50.089844 277.023438 49.507812 C 277.480469 48.925781 277.742188 48.039062 277.808594 46.847656 C 277.554688 47.222656 277.238281 47.507812 276.847656 47.707031 C 276.464844 47.910156 276.035156 48.007812 275.566406 48.007812 C 274.597656 48.007812 273.828125 47.714844 273.261719 47.128906 C 272.691406 46.539062 272.410156 45.734375 272.410156 44.710938 C 272.410156 43.714844 272.703125 42.914062 273.296875 42.3125 C 273.886719 41.707031 274.671875 41.40625 275.652344 41.40625 C 276.777344 41.40625 277.636719 41.835938 278.226562 42.699219 C 278.820312 43.5625 279.117188 44.8125 279.117188 46.453125 C 279.117188 47.984375 278.753906 49.207031 278.023438 50.121094 C 277.296875 51.035156 276.320312 51.492188 275.09375 51.492188 C 274.761719 51.492188 274.429688 51.460938 274.089844 51.394531 C 273.75 51.328125 273.398438 51.230469 273.035156 51.101562 Z M 275.652344 46.980469 C 276.242188 46.980469 276.710938 46.777344 277.054688 46.375 C 277.398438 45.972656 277.574219 45.417969 277.574219 44.710938 C 277.574219 44.015625 277.398438 43.460938 277.054688 43.054688 C 276.710938 42.652344 276.242188 42.449219 275.652344 42.449219 C 275.0625 42.449219 274.59375 42.652344 274.25 43.054688 C 273.90625 43.460938 273.734375 44.015625 273.734375 44.710938 C 273.734375 45.417969 273.90625 45.972656 274.25 46.375 C 274.59375 46.777344 275.0625 46.980469 275.652344 46.980469 Z M 275.652344 46.980469 "/>
<path style=" stroke:none;fill-rule:nonzero;fill:rgb(0%,0%,0%);fill-opacity:1;" d="M 284.289062 42.449219 C 283.613281 42.449219 283.105469 42.78125 282.765625 43.449219 C 282.421875 44.113281 282.253906 45.113281 282.253906 46.453125 C 282.253906 47.785156 282.421875 48.785156 282.765625 49.449219 C 283.105469 50.117188 283.613281 50.449219 284.289062 50.449219 C 284.972656 50.449219 285.484375 50.117188 285.824219 49.449219 C 286.164062 48.785156 286.335938 47.785156 286.335938 46.453125 C 286.335938 45.113281 286.164062 44.113281 285.824219 43.449219 C 285.484375 42.78125 284.972656 42.449219 284.289062 42.449219 Z M 284.289062 41.40625 C 285.382812 41.40625 286.214844 41.835938 286.789062 42.699219 C 287.363281 43.5625 287.652344 44.8125 287.652344 46.453125 C 287.652344 48.089844 287.363281 49.335938 286.789062 50.199219 C 286.214844 51.0625 285.382812 51.492188 284.289062 51.492188 C 283.203125 51.492188 282.371094 51.0625 281.796875 50.199219 C 281.21875 49.335938 280.933594 48.089844 280.933594 46.453125 C 280.933594 44.8125 281.21875 43.5625 281.796875 42.699219 C 282.371094 41.835938 283.203125 41.40625 284.289062 41.40625 Z M 284.289062 41.40625 "/>
<path style="fill:none;stroke-width:1.5;stroke-linecap:square;stroke-linejoin:round;stroke:rgb(17.254902%,62.7451%,17.254902%);stroke-opacity:1;stroke-miterlimit:4;" d="M 128.850586 49.655273 L 148.851562 49.655273 " transform="matrix(1.333333,0,0,1.333333,0,0)"/>
<path style=" stroke:none;fill-rule:nonzero;fill:rgb(0%,0%,0%);fill-opacity:1;" d="M 215.628906 67.234375 C 215.628906 66.351562 215.445312 65.660156 215.082031 65.160156 C 214.722656 64.660156 214.222656 64.410156 213.589844 64.410156 C 212.953125 64.410156 212.457031 64.660156 212.09375 65.160156 C 211.730469 65.660156 211.550781 66.351562 211.550781 67.234375 C 211.550781 68.113281 211.730469 68.804688 212.09375 69.304688 C 212.457031 69.808594 212.953125 70.058594 213.589844 70.058594 C 214.222656 70.058594 214.722656 69.808594 215.082031 69.304688 C 215.445312 68.804688 215.628906 68.113281 215.628906 67.234375 Z M 211.550781 64.6875 C 211.804688 64.253906 212.121094 63.933594 212.503906 63.722656 C 212.890625 63.511719 213.347656 63.40625 213.882812 63.40625 C 214.765625 63.40625 215.488281 63.757812 216.039062 64.460938 C 216.59375 65.164062 216.871094 66.085938 216.871094 67.234375 C 216.871094 68.378906 216.59375 69.304688 216.039062 70.007812 C 215.488281 70.710938 214.765625 71.0625 213.882812 71.0625 C 213.347656 71.0625 212.890625 70.957031 212.503906 70.746094 C 212.121094 70.535156 211.804688 70.210938 211.550781 69.777344 L 211.550781 70.871094 L 210.347656 70.871094 L 210.347656 60.742188 L 211.550781 60.742188 Z M 211.550781 64.6875 "/>
<path style=" stroke:none;fill-rule:nonzero;fill:rgb(0%,0%,0%);fill-opacity:1;" d="M 225.09375 66.925781 L 225.09375 67.511719 L 219.585938 67.511719 C 219.636719 68.335938 219.886719 68.964844 220.332031 69.398438 C 220.773438 69.828125 221.394531 70.046875 222.1875 70.046875 C 222.648438 70.046875 223.09375 69.988281 223.527344 69.878906 C 223.957031 69.765625 224.386719 69.59375 224.8125 69.367188 L 224.8125 70.503906 C 224.382812 70.683594 223.941406 70.824219 223.492188 70.917969 C 223.039062 71.015625 222.582031 71.0625 222.117188 71.0625 C 220.953125 71.0625 220.03125 70.722656 219.351562 70.046875 C 218.675781 69.371094 218.335938 68.453125 218.335938 67.296875 C 218.335938 66.105469 218.65625 65.160156 219.300781 64.457031 C 219.945312 63.757812 220.816406 63.40625 221.910156 63.40625 C 222.890625 63.40625 223.664062 63.722656 224.238281 64.355469 C 224.808594 64.984375 225.09375 65.84375 225.09375 66.925781 Z M 223.894531 66.574219 C 223.886719 65.921875 223.703125 65.398438 223.34375 65.007812 C 222.988281 64.617188 222.511719 64.421875 221.921875 64.421875 C 221.253906 64.421875 220.71875 64.609375 220.316406 64.988281 C 219.917969 65.367188 219.683594 65.898438 219.625 66.582031 Z M 223.894531 66.574219 "/>
<path style=" stroke:none;fill-rule:nonzero;fill:rgb(0%,0%,0%);fill-opacity:1;" d="M 228.242188 61.511719 L 228.242188 63.582031 L 230.710938 63.582031 L 230.710938 64.511719 L 228.242188 64.511719 L 228.242188 68.472656 C 228.242188 69.066406 228.324219 69.445312 228.488281 69.617188 C 228.648438 69.785156 228.980469 69.871094 229.480469 69.871094 L 230.710938 69.871094 L 230.710938 70.871094 L 229.480469 70.871094 C 228.554688 70.871094 227.917969 70.699219 227.566406 70.355469 C 227.214844 70.011719 227.039062 69.382812 227.039062 68.472656 L 227.039062 64.511719 L 226.160156 64.511719 L 226.160156 63.582031 L 227.039062 63.582031 L 227.039062 61.511719 Z M 228.242188 61.511719 "/>
<path style=" stroke:none;fill-rule:nonzero;fill:rgb(0%,0%,0%);fill-opacity:1;" d="M 235.601562 67.207031 C 234.632812 67.207031 233.960938 67.320312 233.589844 67.539062 C 233.214844 67.761719 233.027344 68.136719 233.027344 68.671875 C 233.027344 69.097656 233.167969 69.433594 233.449219 69.683594 C 233.730469 69.933594 234.109375 70.058594 234.589844 70.058594 C 235.253906 70.058594 235.789062 69.824219 236.191406 69.351562 C 236.589844 68.882812 236.792969 68.253906 236.792969 67.476562 L 236.792969 67.207031 Z M 237.992188 66.710938 L 237.992188 70.871094 L 236.792969 70.871094 L 236.792969 69.765625 C 236.519531 70.207031 236.179688 70.535156 235.769531 70.746094 C 235.359375 70.957031 234.863281 71.0625 234.273438 71.0625 C 233.527344 71.0625 232.933594 70.851562 232.492188 70.433594 C 232.050781 70.015625 231.828125 69.453125 231.828125 68.75 C 231.828125 67.929688 232.105469 67.3125 232.652344 66.894531 C 233.203125 66.480469 234.023438 66.269531 235.109375 66.269531 L 236.792969 66.269531 L 236.792969 66.152344 C 236.792969 65.601562 236.609375 65.175781 236.25 64.871094 C 235.886719 64.570312 235.378906 64.421875 234.722656 64.421875 C 234.304688 64.421875 233.898438 64.472656 233.503906 64.570312 C 233.109375 64.671875 232.730469 64.820312 232.367188 65.019531 L 232.367188 63.914062 C 232.804688 63.742188 233.226562 63.617188 233.640625 63.535156 C 234.054688 63.449219 234.453125 63.40625 234.84375 63.40625 C 235.898438 63.40625 236.6875 63.679688 237.210938 64.226562 C 237.730469 64.773438 237.992188 65.601562 237.992188 66.710938 Z M 237.992188 66.710938 "/>
<path style=" stroke:none;fill-rule:nonzero;fill:rgb(0%,0%,0%);fill-opacity:1;" d="M 244.851562 64.820312 L 253.195312 64.820312 L 253.195312 65.914062 L 244.851562 65.914062 Z M 244.851562 67.476562 L 253.195312 67.476562 L 253.195312 68.582031 L 244.851562 68.582031 Z M 244.851562 67.476562 "/>
<path style=" stroke:none;fill-rule:nonzero;fill:rgb(0%,0%,0%);fill-opacity:1;" d="M 263.085938 62.019531 C 262.410156 62.019531 261.902344 62.351562 261.558594 63.019531 C 261.21875 63.683594 261.050781 64.683594 261.050781 66.023438 C 261.050781 67.355469 261.21875 68.355469 261.558594 69.019531 C 261.902344 69.6875 262.410156 70.019531 263.085938 70.019531 C 263.769531 70.019531 264.28125 69.6875 264.621094 69.019531 C 264.960938 68.355469 265.132812 67.355469 265.132812 66.023438 C 265.132812 64.683594 264.960938 63.683594 264.621094 63.019531 C 264.28125 62.351562 263.769531 62.019531 263.085938 62.019531 Z M 263.085938 60.976562 C 264.175781 60.976562 265.007812 61.410156 265.585938 62.269531 C 266.160156 63.132812 266.445312 64.382812 266.445312 66.023438 C 266.445312 67.660156 266.160156 68.910156 265.585938 69.769531 C 265.007812 70.632812 264.175781 71.0625 263.085938 71.0625 C 261.996094 71.0625 261.164062 70.632812 260.589844 69.769531 C 260.015625 68.910156 259.726562 67.660156 259.726562 66.023438 C 259.726562 64.382812 260.015625 63.132812 260.589844 62.269531 C 261.164062 61.410156 261.996094 60.976562 263.085938 60.976562 Z M 263.085938 60.976562 "/>
<path style=" stroke:none;fill-rule:nonzero;fill:rgb(0%,0%,0%);fill-opacity:1;" d="M 268.757812 69.21875 L 270.132812 69.21875 L 270.132812 70.871094 L 268.757812 70.871094 Z M 268.757812 69.21875 "/>
<path style=" stroke:none;fill-rule:nonzero;fill:rgb(0%,0%,0%);fill-opacity:1;" d="M 275.972656 65.488281 C 275.382812 65.488281 274.914062 65.691406 274.566406 66.097656 C 274.222656 66.5 274.050781 67.050781 274.050781 67.753906 C 274.050781 68.453125 274.222656 69.003906 274.566406 69.414062 C 274.914062 69.816406 275.382812 70.019531 275.972656 70.019531 C 276.5625 70.019531 277.03125 69.816406 277.375 69.414062 C 277.71875 69.003906 277.890625 68.453125 277.890625 67.753906 C 277.890625 67.050781 277.71875 66.5 277.375 66.097656 C 277.03125 65.691406 276.5625 65.488281 275.972656 65.488281 Z M 278.582031 61.367188 L 278.582031 62.566406 C 278.253906 62.410156 277.917969 62.289062 277.582031 62.207031 C 277.246094 62.125 276.914062 62.082031 276.582031 62.082031 C 275.714844 62.082031 275.050781 62.375 274.59375 62.960938 C 274.136719 63.546875 273.875 64.433594 273.808594 65.617188 C 274.066406 65.242188 274.386719 64.953125 274.773438 64.75 C 275.160156 64.546875 275.585938 64.449219 276.050781 64.449219 C 277.027344 64.449219 277.796875 64.746094 278.363281 65.335938 C 278.929688 65.929688 279.214844 66.734375 279.214844 67.753906 C 279.214844 68.753906 278.917969 69.554688 278.328125 70.160156 C 277.738281 70.761719 276.953125 71.0625 275.972656 71.0625 C 274.847656 71.0625 273.988281 70.632812 273.394531 69.769531 C 272.796875 68.910156 272.5 67.660156 272.5 66.023438 C 272.5 64.488281 272.867188 63.261719 273.59375 62.347656 C 274.324219 61.433594 275.304688 60.976562 276.53125 60.976562 C 276.859375 60.976562 277.195312 61.007812 277.53125 61.074219 C 277.867188 61.140625 278.21875 61.238281 278.582031 61.367188 Z M 278.582031 61.367188 "/>
<path style=" stroke:none;fill-rule:nonzero;fill:rgb(0%,0%,0%);fill-opacity:1;" d="M 284.289062 62.019531 C 283.613281 62.019531 283.105469 62.351562 282.765625 63.019531 C 282.421875 63.683594 282.253906 64.683594 282.253906 66.023438 C 282.253906 67.355469 282.421875 68.355469 282.765625 69.019531 C 283.105469 69.6875 283.613281 70.019531 284.289062 70.019531 C 284.972656 70.019531 285.484375 69.6875 285.824219 69.019531 C 286.164062 68.355469 286.335938 67.355469 286.335938 66.023438 C 286.335938 64.683594 286.164062 63.683594 285.824219 63.019531 C 285.484375 62.351562 284.972656 62.019531 284.289062 62.019531 Z M 284.289062 60.976562 C 285.382812 60.976562 286.214844 61.410156 286.789062 62.269531 C 287.363281 63.132812 287.652344 64.382812 287.652344 66.023438 C 287.652344 67.660156 287.363281 68.910156 286.789062 69.769531 C 286.214844 70.632812 285.382812 71.0625 284.289062 71.0625 C 283.203125 71.0625 282.371094 70.632812 281.796875 69.769531 C 281.21875 68.910156 280.933594 67.660156 280.933594 66.023438 C 280.933594 64.382812 281.21875 63.132812 281.796875 62.269531 C 282.371094 61.410156 283.203125 60.976562 284.289062 60.976562 Z M 284.289062 60.976562 "/>
<path style="fill:none;stroke-width:1.5;stroke-linecap:square;stroke-linejoin:round;stroke:rgb(83.92157%,15.294118%,15.686275%);stroke-opacity:1;stroke-miterlimit:4;" d="M 128.850586 64.333008 L 148.851562 64.333008 " transform="matrix(1.333333,0,0,1.333333,0,0)"/>
<path style=" stroke:none;fill-rule:nonzero;fill:rgb(0%,0%,0%);fill-opacity:1;" d="M 215.628906 86.804688 C 215.628906 85.921875 215.445312 85.234375 215.082031 84.730469 C 214.722656 84.230469 214.222656 83.980469 213.589844 83.980469 C 212.953125 83.980469 212.457031 84.230469 212.09375 84.730469 C 211.730469 85.234375 211.550781 85.921875 211.550781 86.804688 C 211.550781 87.683594 211.730469 88.375 212.09375 88.878906 C 212.457031 89.378906 212.953125 89.628906 213.589844 89.628906 C 214.222656 89.628906 214.722656 89.378906 215.082031 88.878906 C 215.445312 88.375 215.628906 87.683594 215.628906 86.804688 Z M 211.550781 84.257812 C 211.804688 83.824219 212.121094 83.503906 212.503906 83.292969 C 212.890625 83.082031 213.347656 82.976562 213.882812 82.976562 C 214.765625 82.976562 215.488281 83.328125 216.039062 84.03125 C 216.59375 84.734375 216.871094 85.660156 216.871094 86.804688 C 216.871094 87.949219 216.59375 88.875 216.039062 89.578125 C 215.488281 90.28125 214.765625 90.632812 213.882812 90.632812 C 213.347656 90.632812 212.890625 90.527344 212.503906 90.316406 C 212.121094 90.105469 211.804688 89.785156 211.550781 89.351562 L 211.550781 90.445312 L 210.347656 90.445312 L 210.347656 80.3125 L 211.550781 80.3125 Z M 211.550781 84.257812 "/>
<path style=" stroke:none;fill-rule:nonzero;fill:rgb(0%,0%,0%);fill-opacity:1;" d="M 225.09375 86.496094 L 225.09375 87.082031 L 219.585938 87.082031 C 219.636719 87.910156 219.886719 88.535156 220.332031 88.96875 C 220.773438 89.402344 221.394531 89.617188 222.1875 89.617188 C 222.648438 89.617188 223.09375 89.558594 223.527344 89.449219 C 223.957031 89.335938 224.386719 89.164062 224.8125 88.941406 L 224.8125 90.074219 C 224.382812 90.253906 223.941406 90.394531 223.492188 90.488281 C 223.039062 90.585938 222.582031 90.632812 222.117188 90.632812 C 220.953125 90.632812 220.03125 90.296875 219.351562 89.617188 C 218.675781 88.941406 218.335938 88.023438 218.335938 86.867188 C 218.335938 85.675781 218.65625 84.730469 219.300781 84.027344 C 219.945312 83.328125 220.816406 82.976562 221.910156 82.976562 C 222.890625 82.976562 223.664062 83.292969 224.238281 83.925781 C 224.808594 84.554688 225.09375 85.414062 225.09375 86.496094 Z M 223.894531 86.144531 C 223.886719 85.492188 223.703125 84.96875 223.34375 84.578125 C 222.988281 84.1875 222.511719 83.992188 221.921875 83.992188 C 221.253906 83.992188 220.71875 84.179688 220.316406 84.558594 C 219.917969 84.9375 219.683594 85.46875 219.625 86.152344 Z M 223.894531 86.144531 "/>
<path style=" stroke:none;fill-rule:nonzero;fill:rgb(0%,0%,0%);fill-opacity:1;" d="M 228.242188 81.082031 L 228.242188 83.152344 L 230.710938 83.152344 L 230.710938 84.082031 L 228.242188 84.082031 L 228.242188 88.042969 C 228.242188 88.636719 228.324219 89.019531 228.488281 89.1875 C 228.648438 89.355469 228.980469 89.441406 229.480469 89.441406 L 230.710938 89.441406 L 230.710938 90.445312 L 229.480469 90.445312 C 228.554688 90.445312 227.917969 90.273438 227.566406 89.925781 C 227.214844 89.582031 227.039062 88.953125 227.039062 88.042969 L 227.039062 84.082031 L 226.160156 84.082031 L 226.160156 83.152344 L 227.039062 83.152344 L 227.039062 81.082031 Z M 228.242188 81.082031 "/>
<path style=" stroke:none;fill-rule:nonzero;fill:rgb(0%,0%,0%);fill-opacity:1;" d="M 235.601562 86.777344 C 234.632812 86.777344 233.960938 86.890625 233.589844 87.109375 C 233.214844 87.332031 233.027344 87.710938 233.027344 88.242188 C 233.027344 88.667969 233.167969 89.007812 233.449219 89.257812 C 233.730469 89.503906 234.109375 89.628906 234.589844 89.628906 C 235.253906 89.628906 235.789062 89.394531 236.191406 88.921875 C 236.589844 88.453125 236.792969 87.828125 236.792969 87.046875 L 236.792969 86.777344 Z M 237.992188 86.285156 L 237.992188 90.445312 L 236.792969 90.445312 L 236.792969 89.335938 C 236.519531 89.777344 236.179688 90.105469 235.769531 90.316406 C 235.359375 90.527344 234.863281 90.632812 234.273438 90.632812 C 233.527344 90.632812 232.933594 90.421875 232.492188 90.003906 C 232.050781 89.585938 231.828125 89.023438 231.828125 88.320312 C 231.828125 87.5 232.105469 86.882812 232.652344 86.464844 C 233.203125 86.050781 234.023438 85.839844 235.109375 85.839844 L 236.792969 85.839844 L 236.792969 85.722656 C 236.792969 85.171875 236.609375 84.746094 236.25 84.445312 C 235.886719 84.140625 235.378906 83.992188 234.722656 83.992188 C 234.304688 83.992188 233.898438 84.042969 233.503906 84.140625 C 233.109375 84.242188 232.730469 84.390625 232.367188 84.589844 L 232.367188 83.484375 C 232.804688 83.3125 233.226562 83.1875 233.640625 83.105469 C 234.054688 83.019531 234.453125 82.976562 234.84375 82.976562 C 235.898438 82.976562 236.6875 83.25 237.210938 83.796875 C 237.730469 84.34375 237.992188 85.171875 237.992188 86.285156 Z M 237.992188 86.285156 "/>
<path style=" stroke:none;fill-rule:nonzero;fill:rgb(0%,0%,0%);fill-opacity:1;" d="M 244.851562 84.390625 L 253.195312 84.390625 L 253.195312 85.484375 L 244.851562 85.484375 Z M 244.851562 87.046875 L 253.195312 87.046875 L 253.195312 88.152344 L 244.851562 88.152344 Z M 244.851562 87.046875 "/>
<path style=" stroke:none;fill-rule:nonzero;fill:rgb(0%,0%,0%);fill-opacity:1;" d="M 263.085938 81.589844 C 262.410156 81.589844 261.902344 81.921875 261.558594 82.589844 C 261.21875 83.253906 261.050781 84.257812 261.050781 85.59375 C 261.050781 86.925781 261.21875 87.925781 261.558594 88.589844 C 261.902344 89.257812 262.410156 89.589844 263.085938 89.589844 C 263.769531 89.589844 264.28125 89.257812 264.621094 88.589844 C 264.960938 87.925781 265.132812 86.925781 265.132812 85.59375 C 265.132812 84.257812 264.960938 83.253906 264.621094 82.589844 C 264.28125 81.921875 263.769531 81.589844 263.085938 81.589844 Z M 263.085938 80.546875 C 264.175781 80.546875 265.007812 80.980469 265.585938 81.839844 C 266.160156 82.703125 266.445312 83.953125 266.445312 85.59375 C 266.445312 87.230469 266.160156 88.480469 265.585938 89.339844 C 265.007812 90.203125 264.175781 90.632812 263.085938 90.632812 C 261.996094 90.632812 261.164062 90.203125 260.589844 89.339844 C 260.015625 88.480469 259.726562 87.230469 259.726562 85.59375 C 259.726562 83.953125 260.015625 82.703125 260.589844 81.839844 C 261.164062 80.980469 261.996094 80.546875 263.085938 80.546875 Z M 263.085938 80.546875 "/>
<path style=" stroke:none;fill-rule:nonzero;fill:rgb(0%,0%,0%);fill-opacity:1;" d="M 268.757812 88.789062 L 270.132812 88.789062 L 270.132812 90.445312 L 268.757812 90.445312 Z M 268.757812 88.789062 "/>
<path style=" stroke:none;fill-rule:nonzero;fill:rgb(0%,0%,0%);fill-opacity:1;" d="M 275.808594 81.589844 C 275.132812 81.589844 274.621094 81.921875 274.28125 82.589844 C 273.941406 83.253906 273.769531 84.257812 273.769531 85.59375 C 273.769531 86.925781 273.941406 87.925781 274.28125 88.589844 C 274.621094 89.257812 275.132812 89.589844 275.808594 89.589844 C 276.488281 89.589844 277 89.257812 277.339844 88.589844 C 277.683594 87.925781 277.855469 86.925781 277.855469 85.59375 C 277.855469 84.257812 277.683594 83.253906 277.339844 82.589844 C 277 81.921875 276.488281 81.589844 275.808594 81.589844 Z M 275.808594 80.546875 C 276.898438 80.546875 277.730469 80.980469 278.304688 81.839844 C 278.878906 82.703125 279.167969 83.953125 279.167969 85.59375 C 279.167969 87.230469 278.878906 88.480469 278.304688 89.339844 C 277.730469 90.203125 276.898438 90.632812 275.808594 90.632812 C 274.71875 90.632812 273.886719 90.203125 273.3125 89.339844 C 272.738281 88.480469 272.449219 87.230469 272.449219 85.59375 C 272.449219 83.953125 272.738281 82.703125 273.3125 81.839844 C 273.886719 80.980469 274.71875 80.546875 275.808594 80.546875 Z M 275.808594 80.546875 "/>
<path style=" stroke:none;fill-rule:nonzero;fill:rgb(0%,0%,0%);fill-opacity:1;" d="M 284.289062 81.589844 C 283.613281 81.589844 283.105469 81.921875 282.765625 82.589844 C 282.421875 83.253906 282.253906 84.257812 282.253906 85.59375 C 282.253906 86.925781 282.421875 87.925781 282.765625 88.589844 C 283.105469 89.257812 283.613281 89.589844 284.289062 89.589844 C 284.972656 89.589844 285.484375 89.257812 285.824219 88.589844 C 286.164062 87.925781 286.335938 86.925781 286.335938 85.59375 C 286.335938 84.257812 286.164062 83.253906 285.824219 82.589844 C 285.484375 81.921875 284.972656 81.589844 284.289062 81.589844 Z M 284.289062 80.546875 C 285.382812 80.546875 286.214844 80.980469 286.789062 81.839844 C 287.363281 82.703125 287.652344 83.953125 287.652344 85.59375 C 287.652344 87.230469 287.363281 88.480469 286.789062 89.339844 C 286.214844 90.203125 285.382812 90.632812 284.289062 90.632812 C 283.203125 90.632812 282.371094 90.203125 281.796875 89.339844 C 281.21875 88.480469 280.933594 87.230469 280.933594 85.59375 C 280.933594 83.953125 281.21875 82.703125 281.796875 81.839844 C 282.371094 80.980469 283.203125 80.546875 284.289062 80.546875 Z M 284.289062 80.546875 "/>
</g>
</svg>
