<?xml version="1.0" encoding="UTF-8"?>
<svg xmlns="http://www.w3.org/2000/svg" xmlns:xlink="http://www.w3.org/1999/xlink" width="318.620829" height="244.474996" viewBox="0 0 318.620829 244.474996" version="1.1">
<defs>
<clipPath id="clip1">
  <path d="M 68 9.601562 L 70 9.601562 L 70 194.398438 L 68 194.398438 Z M 68 9.601562 "/>
</clipPath>
<clipPath id="clip2">
  <path d="M 126 9.601562 L 128 9.601562 L 128 194.398438 L 126 194.398438 Z M 126 9.601562 "/>
</clipPath>
<clipPath id="clip3">
  <path d="M 184 9.601562 L 186 9.601562 L 186 194.398438 L 184 194.398438 Z M 184 9.601562 "/>
</clipPath>
<clipPath id="clip4">
  <path d="M 241 9.601562 L 244 9.601562 L 244 194.398438 L 241 194.398438 Z M 241 9.601562 "/>
</clipPath>
<clipPath id="clip5">
  <path d="M 299 9.601562 L 300.539062 9.601562 L 300.539062 194.398438 L 299 194.398438 Z M 299 9.601562 "/>
</clipPath>
<clipPath id="clip6">
  <path d="M 40.136719 162 L 300.539062 162 L 300.539062 165 L 40.136719 165 Z M 40.136719 162 "/>
</clipPath>
<clipPath id="clip7">
  <path d="M 40.136719 101 L 300.539062 101 L 300.539062 103 L 40.136719 103 Z M 40.136719 101 "/>
</clipPath>
<clipPath id="clip8">
  <path d="M 40.136719 39 L 300.539062 39 L 300.539062 42 L 40.136719 42 Z M 40.136719 39 "/>
</clipPath>
<clipPath id="clip9">
  <path d="M 40.136719 42 L 300.539062 42 L 300.539062 150 L 40.136719 150 Z M 40.136719 42 "/>
</clipPath>
<clipPath id="clip10">
  <path d="M 40.136719 25 L 300.539062 25 L 300.539062 59 L 40.136719 59 Z M 40.136719 25 "/>
</clipPath>
<clipPath id="clip11">
  <path d="M 40.136719 25 L 300.539062 25 L 300.539062 47 L 40.136719 47 Z M 40.136719 25 "/>
</clipPath>
<filter id="alpha" filterUnits="objectBoundingBox" x="0%" y="0%" width="100%" height="100%">
  <feColorMatrix type="matrix" in="SourceGraphic" values="0 0 0 0 1 0 0 0 0 1 0 0 0 0 1 0 0 0 1 0"/>
</filter>
<mask id="mask0">
  <g filter="url(#alpha)">
<rect x="0" y="0" width="318.620829" height="244.474996" style="fill:rgb(0%,0%,0%);fill-opacity:0.8;stroke:none;"/>
  </g>
</mask>
<clipPath id="clip12">
  <rect x="0" y="0" width="319" height="245"/>
</clipPath>
<g id="surface5" clip-path="url(#clip12)">
<path style="fill-rule:nonzero;fill:rgb(100%,100%,100%);fill-opacity:1;stroke-width:1;stroke-linecap:butt;stroke-linejoin:miter;stroke:rgb(80.000001%,80.000001%,80.000001%);stroke-opacity:1;stroke-miterlimit:4;" d="M 140.633789 100.016602 L 218.402344 100.016602 C 219.735352 100.016602 220.40332 99.351562 220.40332 98.018555 L 220.40332 54.981445 C 220.40332 53.648438 219.735352 52.983398 218.402344 52.983398 L 140.633789 52.983398 C 139.300781 52.983398 138.635742 53.648438 138.635742 54.981445 L 138.635742 98.018555 C 138.635742 99.351562 139.300781 100.016602 140.633789 100.016602 Z M 140.633789 100.016602 " transform="matrix(1.333333,0,0,1.333333,0,-0.000000000000014211)"/>
</g>
</defs>
<g id="surface1">
<path style=" stroke:none;fill-rule:nonzero;fill:rgb(100%,100%,100%);fill-opacity:1;" d="M 0 244.476562 L 318.621094 244.476562 L 318.621094 0 L 0 0 Z M 0 244.476562 "/>
<path style=" stroke:none;fill-rule:nonzero;fill:rgb(100%,100%,100%);fill-opacity:1;" d="M 40.136719 194.398438 L 300.539062 194.398438 L 300.539062 9.601562 L 40.136719 9.601562 Z M 40.136719 194.398438 "/>
<g clip-path="url(#clip1)" clip-rule="nonzero">
<path style="fill:none;stroke-width:0.8;stroke-linecap:square;stroke-linejoin:round;stroke:rgb(69.01961%,69.01961%,69.01961%);stroke-opacity:1;stroke-miterlimit:4;" d="M 51.802734 145.798828 L 51.802734 7.201172 " transform="matrix(1.333333,0,0,1.333333,0,-0.000000000000014211)"/>
</g>
<path style="fill:none;stroke-width:0.8;stroke-linecap:butt;stroke-linejoin:round;stroke:rgb(0%,0%,0%);stroke-opacity:1;stroke-miterlimit:4;" d="M -0.000389099 -0.00117493 L -0.000389099 3.499802 " transform="matrix(1.333333,0,0,1.333333,69.070831,194.400004)"/>
<path style=" stroke:none;fill-rule:nonzero;fill:rgb(0%,0%,0%);fill-opacity:1;" d="M 67.386719 212.757812 L 71.976562 212.757812 L 71.976562 213.863281 L 65.804688 213.863281 L 65.804688 212.757812 C 66.304688 212.242188 66.984375 211.546875 67.847656 210.679688 C 68.707031 209.808594 69.25 209.246094 69.472656 208.992188 C 69.890625 208.523438 70.183594 208.121094 70.351562 207.792969 C 70.519531 207.464844 70.605469 207.144531 70.605469 206.828125 C 70.605469 206.308594 70.421875 205.890625 70.058594 205.566406 C 69.699219 205.238281 69.226562 205.074219 68.644531 205.074219 C 68.230469 205.074219 67.796875 205.148438 67.335938 205.289062 C 66.878906 205.433594 66.390625 205.648438 65.871094 205.941406 L 65.871094 204.613281 C 66.398438 204.398438 66.894531 204.238281 67.355469 204.132812 C 67.816406 204.023438 68.238281 203.96875 68.617188 203.96875 C 69.625 203.96875 70.429688 204.222656 71.027344 204.726562 C 71.625 205.226562 71.925781 205.898438 71.925781 206.742188 C 71.925781 207.140625 71.851562 207.519531 71.699219 207.878906 C 71.550781 208.234375 71.277344 208.65625 70.882812 209.144531 C 70.773438 209.269531 70.429688 209.632812 69.847656 210.234375 C 69.265625 210.835938 68.445312 211.679688 67.386719 212.757812 Z M 67.386719 212.757812 "/>
<g clip-path="url(#clip2)" clip-rule="nonzero">
<path style="fill:none;stroke-width:0.8;stroke-linecap:square;stroke-linejoin:round;stroke:rgb(69.01961%,69.01961%,69.01961%);stroke-opacity:1;stroke-miterlimit:4;" d="M 95.203125 145.798828 L 95.203125 7.201172 " transform="matrix(1.333333,0,0,1.333333,0,-0.000000000000014211)"/>
</g>
<path style="fill:none;stroke-width:0.8;stroke-linecap:butt;stroke-linejoin:round;stroke:rgb(0%,0%,0%);stroke-opacity:1;stroke-miterlimit:4;" d="M -0.000000000000014211 -0.00117493 L -0.000000000000014211 3.499802 " transform="matrix(1.333333,0,0,1.333333,126.9375,194.400004)"/>
<path style=" stroke:none;fill-rule:nonzero;fill:rgb(0%,0%,0%);fill-opacity:1;" d="M 127.734375 205.289062 L 124.414062 210.480469 L 127.734375 210.480469 Z M 127.390625 204.144531 L 129.042969 204.144531 L 129.042969 210.480469 L 130.429688 210.480469 L 130.429688 211.574219 L 129.042969 211.574219 L 129.042969 213.863281 L 127.734375 213.863281 L 127.734375 211.574219 L 123.347656 211.574219 L 123.347656 210.304688 Z M 127.390625 204.144531 "/>
<g clip-path="url(#clip3)" clip-rule="nonzero">
<path style="fill:none;stroke-width:0.8;stroke-linecap:square;stroke-linejoin:round;stroke:rgb(69.01961%,69.01961%,69.01961%);stroke-opacity:1;stroke-miterlimit:4;" d="M 138.603516 145.798828 L 138.603516 7.201172 " transform="matrix(1.333333,0,0,1.333333,0,-0.000000000000014211)"/>
</g>
<path style="fill:none;stroke-width:0.8;stroke-linecap:butt;stroke-linejoin:round;stroke:rgb(0%,0%,0%);stroke-opacity:1;stroke-miterlimit:4;" d="M 0.000396729 -0.00117493 L 0.000396729 3.499802 " transform="matrix(1.333333,0,0,1.333333,184.804159,194.400004)"/>
<path style=" stroke:none;fill-rule:nonzero;fill:rgb(0%,0%,0%);fill-opacity:1;" d="M 184.964844 208.480469 C 184.375 208.480469 183.90625 208.683594 183.558594 209.085938 C 183.214844 209.492188 183.042969 210.042969 183.042969 210.746094 C 183.042969 211.445312 183.214844 211.996094 183.558594 212.402344 C 183.90625 212.808594 184.375 213.011719 184.964844 213.011719 C 185.554688 213.011719 186.023438 212.808594 186.367188 212.402344 C 186.710938 211.996094 186.882812 211.445312 186.882812 210.746094 C 186.882812 210.042969 186.710938 209.492188 186.367188 209.085938 C 186.023438 208.683594 185.554688 208.480469 184.964844 208.480469 Z M 187.574219 204.359375 L 187.574219 205.554688 C 187.246094 205.402344 186.910156 205.28125 186.574219 205.199219 C 186.238281 205.117188 185.90625 205.074219 185.574219 205.074219 C 184.707031 205.074219 184.042969 205.367188 183.585938 205.953125 C 183.128906 206.539062 182.867188 207.425781 182.800781 208.609375 C 183.058594 208.234375 183.378906 207.941406 183.765625 207.742188 C 184.152344 207.539062 184.578125 207.441406 185.042969 207.441406 C 186.019531 207.441406 186.789062 207.734375 187.355469 208.328125 C 187.921875 208.921875 188.207031 209.726562 188.207031 210.746094 C 188.207031 211.746094 187.910156 212.546875 187.320312 213.148438 C 186.730469 213.753906 185.945312 214.054688 184.964844 214.054688 C 183.839844 214.054688 182.980469 213.625 182.386719 212.761719 C 181.789062 211.898438 181.492188 210.652344 181.492188 209.015625 C 181.492188 207.476562 181.859375 206.253906 182.585938 205.339844 C 183.316406 204.425781 184.296875 203.96875 185.523438 203.96875 C 185.851562 203.96875 186.1875 204 186.523438 204.066406 C 186.859375 204.132812 187.210938 204.230469 187.574219 204.359375 Z M 187.574219 204.359375 "/>
<g clip-path="url(#clip4)" clip-rule="nonzero">
<path style="fill:none;stroke-width:0.8;stroke-linecap:square;stroke-linejoin:round;stroke:rgb(69.01961%,69.01961%,69.01961%);stroke-opacity:1;stroke-miterlimit:4;" d="M 182.003906 145.798828 L 182.003906 7.201172 " transform="matrix(1.333333,0,0,1.333333,0,-0.000000000000014211)"/>
</g>
<path style="fill:none;stroke-width:0.8;stroke-linecap:butt;stroke-linejoin:round;stroke:rgb(0%,0%,0%);stroke-opacity:1;stroke-miterlimit:4;" d="M 0.000778198 -0.00117493 L 0.000778198 3.499802 " transform="matrix(1.333333,0,0,1.333333,242.670837,194.400004)"/>
<path style=" stroke:none;fill-rule:nonzero;fill:rgb(0%,0%,0%);fill-opacity:1;" d="M 242.667969 209.246094 C 242.042969 209.246094 241.550781 209.414062 241.191406 209.75 C 240.835938 210.085938 240.65625 210.542969 240.65625 211.128906 C 240.65625 211.714844 240.835938 212.175781 241.191406 212.511719 C 241.550781 212.84375 242.042969 213.011719 242.667969 213.011719 C 243.292969 213.011719 243.785156 212.84375 244.144531 212.507812 C 244.503906 212.171875 244.683594 211.710938 244.683594 211.128906 C 244.683594 210.542969 244.507812 210.085938 244.148438 209.75 C 243.789062 209.414062 243.296875 209.246094 242.667969 209.246094 Z M 241.351562 208.691406 C 240.789062 208.550781 240.347656 208.289062 240.035156 207.902344 C 239.71875 207.515625 239.5625 207.042969 239.5625 206.488281 C 239.5625 205.710938 239.839844 205.097656 240.390625 204.644531 C 240.945312 204.195312 241.703125 203.96875 242.667969 203.96875 C 243.632812 203.96875 244.394531 204.195312 244.945312 204.644531 C 245.496094 205.097656 245.773438 205.710938 245.773438 206.488281 C 245.773438 207.042969 245.617188 207.515625 245.300781 207.902344 C 244.984375 208.289062 244.550781 208.550781 243.988281 208.691406 C 244.621094 208.835938 245.117188 209.125 245.46875 209.554688 C 245.824219 209.984375 246 210.507812 246 211.128906 C 246 212.070312 245.710938 212.796875 245.136719 213.300781 C 244.5625 213.804688 243.738281 214.054688 242.667969 214.054688 C 241.597656 214.054688 240.773438 213.804688 240.195312 213.300781 C 239.621094 212.796875 239.332031 212.070312 239.332031 211.128906 C 239.332031 210.507812 239.511719 209.984375 239.867188 209.554688 C 240.222656 209.125 240.71875 208.835938 241.351562 208.691406 Z M 240.871094 206.613281 C 240.871094 207.117188 241.027344 207.507812 241.339844 207.789062 C 241.65625 208.070312 242.097656 208.210938 242.667969 208.210938 C 243.230469 208.210938 243.671875 208.070312 243.992188 207.789062 C 244.3125 207.507812 244.472656 207.117188 244.472656 206.613281 C 244.472656 206.109375 244.3125 205.714844 243.992188 205.433594 C 243.671875 205.152344 243.230469 205.011719 242.667969 205.011719 C 242.097656 205.011719 241.65625 205.152344 241.339844 205.433594 C 241.027344 205.714844 240.871094 206.109375 240.871094 206.613281 Z M 240.871094 206.613281 "/>
<g clip-path="url(#clip5)" clip-rule="nonzero">
<path style="fill:none;stroke-width:0.8;stroke-linecap:square;stroke-linejoin:round;stroke:rgb(69.01961%,69.01961%,69.01961%);stroke-opacity:1;stroke-miterlimit:4;" d="M 225.404297 145.798828 L 225.404297 7.201172 " transform="matrix(1.333333,0,0,1.333333,0,-0.000000000000014211)"/>
</g>
<path style="fill:none;stroke-width:0.8;stroke-linecap:butt;stroke-linejoin:round;stroke:rgb(0%,0%,0%);stroke-opacity:1;stroke-miterlimit:4;" d="M 0.00117493 -0.00117493 L 0.00117493 3.499802 " transform="matrix(1.333333,0,0,1.333333,300.537496,194.400004)"/>
<path style=" stroke:none;fill-rule:nonzero;fill:rgb(0%,0%,0%);fill-opacity:1;" d="M 293.707031 212.757812 L 295.855469 212.757812 L 295.855469 205.339844 L 293.519531 205.808594 L 293.519531 204.613281 L 295.84375 204.144531 L 297.160156 204.144531 L 297.160156 212.757812 L 299.304688 212.757812 L 299.304688 213.863281 L 293.707031 213.863281 Z M 293.707031 212.757812 "/>
<path style=" stroke:none;fill-rule:nonzero;fill:rgb(0%,0%,0%);fill-opacity:1;" d="M 304.773438 205.011719 C 304.097656 205.011719 303.589844 205.34375 303.246094 206.011719 C 302.90625 206.675781 302.738281 207.675781 302.738281 209.015625 C 302.738281 210.347656 302.90625 211.347656 303.246094 212.011719 C 303.589844 212.679688 304.097656 213.011719 304.773438 213.011719 C 305.457031 213.011719 305.96875 212.679688 306.308594 212.011719 C 306.648438 211.347656 306.820312 210.347656 306.820312 209.015625 C 306.820312 207.675781 306.648438 206.675781 306.308594 206.011719 C 305.96875 205.34375 305.457031 205.011719 304.773438 205.011719 Z M 304.773438 203.96875 C 305.863281 203.96875 306.699219 204.398438 307.273438 205.261719 C 307.847656 206.125 308.136719 207.375 308.136719 209.015625 C 308.136719 210.652344 307.847656 211.898438 307.273438 212.761719 C 306.699219 213.625 305.863281 214.054688 304.773438 214.054688 C 303.6875 214.054688 302.855469 213.625 302.277344 212.761719 C 301.703125 211.898438 301.417969 210.652344 301.417969 209.015625 C 301.417969 207.375 301.703125 206.125 302.277344 205.261719 C 302.855469 204.398438 303.6875 203.96875 304.773438 203.96875 Z M 304.773438 203.96875 "/>
<path style=" stroke:none;fill-rule:nonzero;fill:rgb(0%,0%,0%);fill-opacity:1;" d="M 157.527344 228.15625 L 157.527344 228.742188 L 152.019531 228.742188 C 152.070312 229.566406 152.320312 230.195312 152.765625 230.628906 C 153.210938 231.058594 153.828125 231.273438 154.621094 231.273438 C 155.082031 231.273438 155.527344 231.21875 155.960938 231.105469 C 156.390625 230.992188 156.820312 230.824219 157.246094 230.597656 L 157.246094 231.730469 C 156.816406 231.914062 156.375 232.050781 155.925781 232.148438 C 155.472656 232.242188 155.015625 232.292969 154.550781 232.292969 C 153.386719 232.292969 152.464844 231.953125 151.789062 231.277344 C 151.109375 230.597656 150.769531 229.683594 150.769531 228.527344 C 150.769531 227.335938 151.089844 226.386719 151.734375 225.6875 C 152.378906 224.984375 153.25 224.636719 154.34375 224.636719 C 155.324219 224.636719 156.101562 224.953125 156.671875 225.582031 C 157.242188 226.214844 157.527344 227.070312 157.527344 228.15625 Z M 156.328125 227.804688 C 156.320312 227.148438 156.136719 226.628906 155.777344 226.238281 C 155.421875 225.847656 154.945312 225.648438 154.355469 225.648438 C 153.6875 225.648438 153.152344 225.839844 152.753906 226.214844 C 152.351562 226.59375 152.121094 227.125 152.058594 227.8125 Z M 156.328125 227.804688 "/>
<path style=" stroke:none;fill-rule:nonzero;fill:rgb(0%,0%,0%);fill-opacity:1;" d="M 160.652344 231.007812 L 160.652344 234.875 L 159.445312 234.875 L 159.445312 224.808594 L 160.652344 224.808594 L 160.652344 225.917969 C 160.902344 225.484375 161.222656 225.160156 161.605469 224.953125 C 161.988281 224.742188 162.449219 224.636719 162.980469 224.636719 C 163.867188 224.636719 164.585938 224.988281 165.140625 225.691406 C 165.695312 226.390625 165.972656 227.316406 165.972656 228.460938 C 165.972656 229.609375 165.695312 230.535156 165.140625 231.238281 C 164.585938 231.941406 163.867188 232.292969 162.980469 232.292969 C 162.449219 232.292969 161.988281 232.1875 161.605469 231.976562 C 161.222656 231.765625 160.902344 231.441406 160.652344 231.007812 Z M 164.726562 228.460938 C 164.726562 227.582031 164.546875 226.890625 164.183594 226.390625 C 163.820312 225.886719 163.324219 225.636719 162.691406 225.636719 C 162.054688 225.636719 161.558594 225.886719 161.195312 226.390625 C 160.832031 226.890625 160.652344 227.582031 160.652344 228.460938 C 160.652344 229.34375 160.832031 230.035156 161.195312 230.535156 C 161.558594 231.035156 162.054688 231.289062 162.691406 231.289062 C 163.324219 231.289062 163.820312 231.035156 164.183594 230.535156 C 164.546875 230.035156 164.726562 229.34375 164.726562 228.460938 Z M 164.726562 228.460938 "/>
<path style=" stroke:none;fill-rule:nonzero;fill:rgb(0%,0%,0%);fill-opacity:1;" d="M 170.78125 225.648438 C 170.140625 225.648438 169.632812 225.902344 169.257812 226.402344 C 168.882812 226.902344 168.699219 227.589844 168.699219 228.460938 C 168.699219 229.335938 168.882812 230.023438 169.253906 230.523438 C 169.625 231.023438 170.136719 231.273438 170.78125 231.273438 C 171.421875 231.273438 171.925781 231.023438 172.296875 230.519531 C 172.671875 230.015625 172.859375 229.332031 172.859375 228.460938 C 172.859375 227.597656 172.671875 226.914062 172.296875 226.410156 C 171.925781 225.902344 171.421875 225.648438 170.78125 225.648438 Z M 170.78125 224.636719 C 171.824219 224.636719 172.640625 224.972656 173.234375 225.652344 C 173.832031 226.328125 174.128906 227.265625 174.128906 228.460938 C 174.128906 229.65625 173.832031 230.59375 173.234375 231.273438 C 172.640625 231.953125 171.824219 232.292969 170.78125 232.292969 C 169.734375 232.292969 168.914062 231.953125 168.324219 231.273438 C 167.730469 230.59375 167.433594 229.65625 167.433594 228.460938 C 167.433594 227.265625 167.730469 226.328125 168.324219 225.652344 C 168.914062 224.972656 169.734375 224.636719 170.78125 224.636719 Z M 170.78125 224.636719 "/>
<path style=" stroke:none;fill-rule:nonzero;fill:rgb(0%,0%,0%);fill-opacity:1;" d="M 181.363281 225.089844 L 181.363281 226.210938 C 181.023438 226.023438 180.683594 225.882812 180.34375 225.789062 C 180.003906 225.695312 179.660156 225.648438 179.3125 225.648438 C 178.535156 225.648438 177.929688 225.898438 177.5 226.390625 C 177.070312 226.882812 176.855469 227.570312 176.855469 228.460938 C 176.855469 229.351562 177.070312 230.042969 177.5 230.539062 C 177.929688 231.027344 178.535156 231.273438 179.3125 231.273438 C 179.660156 231.273438 180.003906 231.226562 180.34375 231.136719 C 180.683594 231.042969 181.023438 230.902344 181.363281 230.714844 L 181.363281 231.824219 C 181.027344 231.976562 180.679688 232.09375 180.320312 232.171875 C 179.964844 232.253906 179.585938 232.292969 179.179688 232.292969 C 178.082031 232.292969 177.207031 231.945312 176.5625 231.257812 C 175.914062 230.566406 175.59375 229.632812 175.59375 228.460938 C 175.59375 227.273438 175.917969 226.339844 176.570312 225.660156 C 177.226562 224.976562 178.121094 224.636719 179.257812 224.636719 C 179.628906 224.636719 179.988281 224.671875 180.339844 224.75 C 180.691406 224.824219 181.03125 224.9375 181.363281 225.089844 Z M 181.363281 225.089844 "/>
<path style=" stroke:none;fill-rule:nonzero;fill:rgb(0%,0%,0%);fill-opacity:1;" d="M 189.507812 227.699219 L 189.507812 232.101562 L 188.308594 232.101562 L 188.308594 227.738281 C 188.308594 227.050781 188.175781 226.535156 187.90625 226.191406 C 187.636719 225.847656 187.230469 225.675781 186.695312 225.675781 C 186.046875 225.675781 185.535156 225.882812 185.164062 226.296875 C 184.789062 226.707031 184.601562 227.269531 184.601562 227.980469 L 184.601562 232.101562 L 183.398438 232.101562 L 183.398438 221.972656 L 184.601562 221.972656 L 184.601562 225.945312 C 184.890625 225.503906 185.226562 225.175781 185.617188 224.960938 C 186.003906 224.742188 186.453125 224.636719 186.960938 224.636719 C 187.796875 224.636719 188.433594 224.894531 188.859375 225.414062 C 189.292969 225.929688 189.507812 226.691406 189.507812 227.699219 Z M 189.507812 227.699219 "/>
<g clip-path="url(#clip6)" clip-rule="nonzero">
<path style="fill:none;stroke-width:0.8;stroke-linecap:square;stroke-linejoin:round;stroke:rgb(69.01961%,69.01961%,69.01961%);stroke-opacity:1;stroke-miterlimit:4;" d="M 30.102539 122.701172 L 225.404297 122.701172 " transform="matrix(1.333333,0,0,1.333333,0,-0.000000000000014211)"/>
</g>
<path style="fill:none;stroke-width:0.8;stroke-linecap:butt;stroke-linejoin:round;stroke:rgb(0%,0%,0%);stroke-opacity:1;stroke-miterlimit:4;" d="M -0.000585556 0.00117493 L -3.498632 0.00117493 " transform="matrix(1.333333,0,0,1.333333,40.137499,163.599996)"/>
<path style=" stroke:none;fill-rule:nonzero;fill:rgb(0%,0%,0%);fill-opacity:1;" d="M 13.835938 159.8125 C 13.160156 159.8125 12.652344 160.144531 12.308594 160.8125 C 11.96875 161.476562 11.800781 162.476562 11.800781 163.816406 C 11.800781 165.148438 11.96875 166.148438 12.308594 166.8125 C 12.652344 167.480469 13.160156 167.8125 13.835938 167.8125 C 14.519531 167.8125 15.03125 167.480469 15.371094 166.8125 C 15.710938 166.148438 15.882812 165.148438 15.882812 163.816406 C 15.882812 162.476562 15.710938 161.476562 15.371094 160.8125 C 15.03125 160.144531 14.519531 159.8125 13.835938 159.8125 Z M 13.835938 158.769531 C 14.929688 158.769531 15.761719 159.199219 16.335938 160.0625 C 16.910156 160.925781 17.199219 162.175781 17.199219 163.816406 C 17.199219 165.453125 16.910156 166.699219 16.335938 167.5625 C 15.761719 168.425781 14.929688 168.855469 13.835938 168.855469 C 12.75 168.855469 11.917969 168.425781 11.339844 167.5625 C 10.765625 166.699219 10.480469 165.453125 10.480469 163.816406 C 10.480469 162.175781 10.765625 160.925781 11.339844 160.0625 C 11.917969 159.199219 12.75 158.769531 13.835938 158.769531 Z M 13.835938 158.769531 "/>
<path style=" stroke:none;fill-rule:nonzero;fill:rgb(0%,0%,0%);fill-opacity:1;" d="M 19.507812 167.011719 L 20.882812 167.011719 L 20.882812 168.664062 L 19.507812 168.664062 Z M 19.507812 167.011719 "/>
<path style=" stroke:none;fill-rule:nonzero;fill:rgb(0%,0%,0%);fill-opacity:1;" d="M 27.359375 160.089844 L 24.039062 165.28125 L 27.359375 165.28125 Z M 27.015625 158.945312 L 28.667969 158.945312 L 28.667969 165.28125 L 30.058594 165.28125 L 30.058594 166.375 L 28.667969 166.375 L 28.667969 168.664062 L 27.359375 168.664062 L 27.359375 166.375 L 22.972656 166.375 L 22.972656 165.105469 Z M 27.015625 158.945312 "/>
<g clip-path="url(#clip7)" clip-rule="nonzero">
<path style="fill:none;stroke-width:0.8;stroke-linecap:square;stroke-linejoin:round;stroke:rgb(69.01961%,69.01961%,69.01961%);stroke-opacity:1;stroke-miterlimit:4;" d="M 30.102539 76.5 L 225.404297 76.5 " transform="matrix(1.333333,0,0,1.333333,0,-0.000000000000014211)"/>
</g>
<path style="fill:none;stroke-width:0.8;stroke-linecap:butt;stroke-linejoin:round;stroke:rgb(0%,0%,0%);stroke-opacity:1;stroke-miterlimit:4;" d="M -0.000585556 0 L -3.498632 0 " transform="matrix(1.333333,0,0,1.333333,40.137499,102)"/>
<path style=" stroke:none;fill-rule:nonzero;fill:rgb(0%,0%,0%);fill-opacity:1;" d="M 13.835938 98.210938 C 13.160156 98.210938 12.652344 98.542969 12.308594 99.210938 C 11.96875 99.875 11.800781 100.878906 11.800781 102.214844 C 11.800781 103.546875 11.96875 104.546875 12.308594 105.214844 C 12.652344 105.878906 13.160156 106.214844 13.835938 106.214844 C 14.519531 106.214844 15.03125 105.878906 15.371094 105.214844 C 15.710938 104.546875 15.882812 103.546875 15.882812 102.214844 C 15.882812 100.878906 15.710938 99.875 15.371094 99.210938 C 15.03125 98.542969 14.519531 98.210938 13.835938 98.210938 Z M 13.835938 97.167969 C 14.929688 97.167969 15.761719 97.601562 16.335938 98.464844 C 16.910156 99.324219 17.199219 100.574219 17.199219 102.214844 C 17.199219 103.851562 16.910156 105.101562 16.335938 105.964844 C 15.761719 106.824219 14.929688 107.253906 13.835938 107.253906 C 12.75 107.253906 11.917969 106.824219 11.339844 105.964844 C 10.765625 105.101562 10.480469 103.851562 10.480469 102.214844 C 10.480469 100.574219 10.765625 99.324219 11.339844 98.464844 C 11.917969 97.601562 12.75 97.167969 13.835938 97.167969 Z M 13.835938 97.167969 "/>
<path style=" stroke:none;fill-rule:nonzero;fill:rgb(0%,0%,0%);fill-opacity:1;" d="M 19.507812 105.410156 L 20.882812 105.410156 L 20.882812 107.066406 L 19.507812 107.066406 Z M 19.507812 105.410156 "/>
<path style=" stroke:none;fill-rule:nonzero;fill:rgb(0%,0%,0%);fill-opacity:1;" d="M 26.722656 101.683594 C 26.132812 101.683594 25.664062 101.882812 25.320312 102.289062 C 24.976562 102.691406 24.800781 103.242188 24.800781 103.945312 C 24.800781 104.644531 24.976562 105.199219 25.320312 105.605469 C 25.664062 106.011719 26.132812 106.214844 26.722656 106.214844 C 27.3125 106.214844 27.78125 106.011719 28.125 105.605469 C 28.46875 105.199219 28.640625 104.644531 28.640625 103.945312 C 28.640625 103.242188 28.46875 102.691406 28.125 102.289062 C 27.78125 101.882812 27.3125 101.683594 26.722656 101.683594 Z M 29.332031 97.558594 L 29.332031 98.757812 C 29.003906 98.601562 28.671875 98.484375 28.332031 98.402344 C 27.996094 98.316406 27.664062 98.277344 27.332031 98.277344 C 26.464844 98.277344 25.800781 98.570312 25.34375 99.15625 C 24.886719 99.742188 24.625 100.625 24.5625 101.8125 C 24.816406 101.433594 25.136719 101.144531 25.523438 100.941406 C 25.910156 100.742188 26.335938 100.640625 26.800781 100.640625 C 27.777344 100.640625 28.546875 100.9375 29.113281 101.53125 C 29.683594 102.121094 29.964844 102.925781 29.964844 103.945312 C 29.964844 104.945312 29.671875 105.746094 29.078125 106.351562 C 28.488281 106.953125 27.703125 107.253906 26.722656 107.253906 C 25.597656 107.253906 24.738281 106.824219 24.144531 105.964844 C 23.550781 105.101562 23.253906 103.851562 23.253906 102.214844 C 23.253906 100.679688 23.617188 99.453125 24.347656 98.539062 C 25.074219 97.625 26.054688 97.167969 27.28125 97.167969 C 27.613281 97.167969 27.945312 97.203125 28.28125 97.269531 C 28.617188 97.332031 28.96875 97.429688 29.332031 97.558594 Z M 29.332031 97.558594 "/>
<g clip-path="url(#clip8)" clip-rule="nonzero">
<path style="fill:none;stroke-width:0.8;stroke-linecap:square;stroke-linejoin:round;stroke:rgb(69.01961%,69.01961%,69.01961%);stroke-opacity:1;stroke-miterlimit:4;" d="M 30.102539 30.298828 L 225.404297 30.298828 " transform="matrix(1.333333,0,0,1.333333,0,-0.000000000000014211)"/>
</g>
<path style="fill:none;stroke-width:0.8;stroke-linecap:butt;stroke-linejoin:round;stroke:rgb(0%,0%,0%);stroke-opacity:1;stroke-miterlimit:4;" d="M -0.000585556 -0.00117111 L -3.498632 -0.00117111 " transform="matrix(1.333333,0,0,1.333333,40.137499,40.399999)"/>
<path style=" stroke:none;fill-rule:nonzero;fill:rgb(0%,0%,0%);fill-opacity:1;" d="M 13.835938 36.613281 C 13.160156 36.613281 12.652344 36.945312 12.308594 37.613281 C 11.96875 38.277344 11.800781 39.277344 11.800781 40.617188 C 11.800781 41.949219 11.96875 42.945312 12.308594 43.613281 C 12.652344 44.28125 13.160156 44.613281 13.835938 44.613281 C 14.519531 44.613281 15.03125 44.28125 15.371094 43.613281 C 15.710938 42.945312 15.882812 41.949219 15.882812 40.617188 C 15.882812 39.277344 15.710938 38.277344 15.371094 37.613281 C 15.03125 36.945312 14.519531 36.613281 13.835938 36.613281 Z M 13.835938 35.570312 C 14.929688 35.570312 15.761719 36 16.335938 36.863281 C 16.910156 37.726562 17.199219 38.976562 17.199219 40.617188 C 17.199219 42.25 16.910156 43.5 16.335938 44.363281 C 15.761719 45.226562 14.929688 45.65625 13.835938 45.65625 C 12.75 45.65625 11.917969 45.226562 11.339844 44.363281 C 10.765625 43.5 10.480469 42.25 10.480469 40.617188 C 10.480469 38.976562 10.765625 37.726562 11.339844 36.863281 C 11.917969 36 12.75 35.570312 13.835938 35.570312 Z M 13.835938 35.570312 "/>
<path style=" stroke:none;fill-rule:nonzero;fill:rgb(0%,0%,0%);fill-opacity:1;" d="M 19.507812 43.8125 L 20.882812 43.8125 L 20.882812 45.464844 L 19.507812 45.464844 Z M 19.507812 43.8125 "/>
<path style=" stroke:none;fill-rule:nonzero;fill:rgb(0%,0%,0%);fill-opacity:1;" d="M 26.558594 40.847656 C 25.933594 40.847656 25.441406 41.015625 25.082031 41.351562 C 24.726562 41.6875 24.546875 42.144531 24.546875 42.730469 C 24.546875 43.316406 24.726562 43.777344 25.082031 44.113281 C 25.441406 44.445312 25.933594 44.613281 26.558594 44.613281 C 27.183594 44.613281 27.675781 44.445312 28.035156 44.109375 C 28.398438 43.773438 28.578125 43.3125 28.578125 42.730469 C 28.578125 42.144531 28.398438 41.6875 28.039062 41.351562 C 27.683594 41.015625 27.1875 40.847656 26.558594 40.847656 Z M 25.246094 40.289062 C 24.679688 40.152344 24.242188 39.890625 23.925781 39.503906 C 23.613281 39.117188 23.453125 38.644531 23.453125 38.089844 C 23.453125 37.3125 23.730469 36.699219 24.285156 36.246094 C 24.839844 35.796875 25.597656 35.570312 26.558594 35.570312 C 27.527344 35.570312 28.285156 35.796875 28.839844 36.246094 C 29.390625 36.699219 29.664062 37.3125 29.664062 38.089844 C 29.664062 38.644531 29.507812 39.117188 29.191406 39.503906 C 28.878906 39.890625 28.441406 40.152344 27.882812 40.289062 C 28.515625 40.4375 29.007812 40.726562 29.359375 41.15625 C 29.714844 41.585938 29.890625 42.109375 29.890625 42.730469 C 29.890625 43.671875 29.605469 44.398438 29.03125 44.902344 C 28.453125 45.402344 27.632812 45.65625 26.558594 45.65625 C 25.488281 45.65625 24.664062 45.402344 24.089844 44.902344 C 23.511719 44.398438 23.226562 43.671875 23.226562 42.730469 C 23.226562 42.109375 23.402344 41.585938 23.757812 41.15625 C 24.117188 40.726562 24.609375 40.4375 25.246094 40.289062 Z M 24.761719 38.214844 C 24.761719 38.714844 24.921875 39.109375 25.234375 39.390625 C 25.550781 39.671875 25.992188 39.8125 26.558594 39.8125 C 27.125 39.8125 27.566406 39.671875 27.882812 39.390625 C 28.203125 39.109375 28.363281 38.714844 28.363281 38.214844 C 28.363281 37.710938 28.203125 37.316406 27.882812 37.035156 C 27.566406 36.753906 27.125 36.613281 26.558594 36.613281 C 25.992188 36.613281 25.550781 36.753906 25.234375 37.035156 C 24.921875 37.316406 24.761719 37.710938 24.761719 38.214844 Z M 24.761719 38.214844 "/>
<g clip-path="url(#clip9)" clip-rule="nonzero">
<path style="fill:none;stroke-width:1.5;stroke-linecap:square;stroke-linejoin:round;stroke:rgb(12.156863%,46.666667%,70.588237%);stroke-opacity:1;stroke-miterlimit:4;" d="M 30.102539 32.868164 L 51.802734 82.511719 L 73.50293 92.835938 L 95.203125 98.53125 L 116.90332 102.023438 L 138.603516 104.557617 L 160.303711 106.757812 L 182.003906 108.47168 L 203.704102 109.795898 L 225.404297 110.944336 " transform="matrix(1.333333,0,0,1.333333,0,-0.000000000000014211)"/>
</g>
<g clip-path="url(#clip10)" clip-rule="nonzero">
<path style="fill:none;stroke-width:1.5;stroke-linecap:butt;stroke-linejoin:round;stroke:rgb(74.901962%,0%,74.901962%);stroke-opacity:1;stroke-dasharray:5.55,2.4;stroke-miterlimit:4;" d="M 30.102539 42.931641 L 51.802734 27.65918 L 73.50293 25.013672 L 95.203125 23.43457 L 116.90332 22.388672 L 138.603516 21.588867 L 160.303711 21.014648 L 182.003906 20.402344 L 203.704102 20.200195 L 225.404297 19.678711 " transform="matrix(1.333333,0,0,1.333333,0,-0.000000000000014211)"/>
</g>
<g clip-path="url(#clip11)" clip-rule="nonzero">
<path style="fill:none;stroke-width:1.5;stroke-linecap:butt;stroke-linejoin:round;stroke:rgb(0%,50.196081%,0%);stroke-opacity:1;stroke-dasharray:9.6,2.4,1.5,2.4;stroke-miterlimit:4;" d="M 30.102539 34.341797 L 51.802734 26.487305 L 73.50293 28.453125 L 95.203125 23.185547 L 116.90332 21.776367 L 138.603516 23.047852 L 160.303711 21.199219 L 182.003906 20.920898 L 203.704102 20.15918 L 225.404297 23.692383 " transform="matrix(1.333333,0,0,1.333333,0,-0.000000000000014211)"/>
</g>
<path style="fill:none;stroke-width:0.8;stroke-linecap:square;stroke-linejoin:miter;stroke:rgb(0%,0%,0%);stroke-opacity:1;stroke-miterlimit:4;" d="M 30.102539 145.798828 L 30.102539 7.201172 " transform="matrix(1.333333,0,0,1.333333,0,-0.000000000000014211)"/>
<path style="fill:none;stroke-width:0.8;stroke-linecap:square;stroke-linejoin:miter;stroke:rgb(0%,0%,0%);stroke-opacity:1;stroke-miterlimit:4;" d="M 225.404297 145.798828 L 225.404297 7.201172 " transform="matrix(1.333333,0,0,1.333333,0,-0.000000000000014211)"/>
<path style="fill:none;stroke-width:0.8;stroke-linecap:square;stroke-linejoin:miter;stroke:rgb(0%,0%,0%);stroke-opacity:1;stroke-miterlimit:4;" d="M 30.102539 145.798828 L 225.404297 145.798828 " transform="matrix(1.333333,0,0,1.333333,0,-0.000000000000014211)"/>
<path style="fill:none;stroke-width:0.8;stroke-linecap:square;stroke-linejoin:miter;stroke:rgb(0%,0%,0%);stroke-opacity:1;stroke-miterlimit:4;" d="M 30.102539 7.201172 L 225.404297 7.201172 " transform="matrix(1.333333,0,0,1.333333,0,-0.000000000000014211)"/>
<use xlink:href="#surface5" mask="url(#mask0)"/>
<path style="fill:none;stroke-width:1.5;stroke-linecap:square;stroke-linejoin:round;stroke:rgb(12.156863%,46.666667%,70.588237%);stroke-opacity:1;stroke-miterlimit:4;" d="M 142.634766 61.081055 L 162.635742 61.081055 " transform="matrix(1.333333,0,0,1.333333,0,-0.000000000000014211)"/>
<path style=" stroke:none;fill-rule:nonzero;fill:rgb(0%,0%,0%);fill-opacity:1;" d="M 229.953125 76.746094 L 229.953125 78.816406 L 232.421875 78.816406 L 232.421875 79.746094 L 229.953125 79.746094 L 229.953125 83.707031 C 229.953125 84.300781 230.035156 84.683594 230.199219 84.851562 C 230.359375 85.023438 230.691406 85.105469 231.191406 85.105469 L 232.421875 85.105469 L 232.421875 86.109375 L 231.191406 86.109375 C 230.265625 86.109375 229.628906 85.9375 229.277344 85.589844 C 228.925781 85.246094 228.75 84.617188 228.75 83.707031 L 228.75 79.746094 L 227.871094 79.746094 L 227.871094 78.816406 L 228.75 78.816406 L 228.75 76.746094 Z M 229.953125 76.746094 "/>
<path style=" stroke:none;fill-rule:nonzero;fill:rgb(0%,0%,0%);fill-opacity:1;" d="M 238.222656 79.933594 C 238.085938 79.859375 237.941406 79.800781 237.78125 79.765625 C 237.625 79.726562 237.449219 79.707031 237.257812 79.707031 C 236.582031 79.707031 236.0625 79.929688 235.699219 80.367188 C 235.335938 80.808594 235.15625 81.441406 235.15625 82.265625 L 235.15625 86.109375 L 233.949219 86.109375 L 233.949219 78.816406 L 235.15625 78.816406 L 235.15625 79.949219 C 235.40625 79.507812 235.734375 79.179688 236.136719 78.964844 C 236.542969 78.75 237.035156 78.640625 237.609375 78.640625 C 237.691406 78.640625 237.785156 78.648438 237.882812 78.660156 C 237.984375 78.667969 238.09375 78.683594 238.214844 78.707031 Z M 238.222656 79.933594 "/>
<path style=" stroke:none;fill-rule:nonzero;fill:rgb(0%,0%,0%);fill-opacity:1;" d="M 242.792969 82.445312 C 241.824219 82.445312 241.152344 82.554688 240.78125 82.773438 C 240.40625 82.996094 240.21875 83.375 240.21875 83.910156 C 240.21875 84.332031 240.359375 84.671875 240.640625 84.921875 C 240.921875 85.167969 241.300781 85.292969 241.78125 85.292969 C 242.449219 85.292969 242.980469 85.058594 243.382812 84.585938 C 243.785156 84.117188 243.984375 83.492188 243.984375 82.710938 L 243.984375 82.445312 Z M 245.183594 81.949219 L 245.183594 86.109375 L 243.984375 86.109375 L 243.984375 85.003906 C 243.710938 85.445312 243.371094 85.769531 242.960938 85.980469 C 242.554688 86.191406 242.054688 86.296875 241.464844 86.296875 C 240.71875 86.296875 240.125 86.089844 239.683594 85.667969 C 239.242188 85.25 239.023438 84.6875 239.023438 83.984375 C 239.023438 83.164062 239.296875 82.546875 239.84375 82.132812 C 240.394531 81.714844 241.214844 81.507812 242.304688 81.507812 L 243.984375 81.507812 L 243.984375 81.386719 C 243.984375 80.835938 243.804688 80.410156 243.441406 80.109375 C 243.078125 79.808594 242.570312 79.65625 241.914062 79.65625 C 241.496094 79.65625 241.089844 79.707031 240.695312 79.804688 C 240.300781 79.90625 239.921875 80.054688 239.558594 80.257812 L 239.558594 79.148438 C 239.996094 78.976562 240.421875 78.851562 240.832031 78.769531 C 241.246094 78.683594 241.644531 78.640625 242.035156 78.640625 C 243.09375 78.640625 243.878906 78.914062 244.402344 79.460938 C 244.921875 80.007812 245.183594 80.835938 245.183594 81.949219 Z M 245.183594 81.949219 "/>
<path style=" stroke:none;fill-rule:nonzero;fill:rgb(0%,0%,0%);fill-opacity:1;" d="M 247.648438 78.816406 L 248.847656 78.816406 L 248.847656 86.109375 L 247.648438 86.109375 Z M 247.648438 75.976562 L 248.847656 75.976562 L 248.847656 77.496094 L 247.648438 77.496094 Z M 247.648438 75.976562 "/>
<path style=" stroke:none;fill-rule:nonzero;fill:rgb(0%,0%,0%);fill-opacity:1;" d="M 257.414062 81.707031 L 257.414062 86.109375 L 256.21875 86.109375 L 256.21875 81.746094 C 256.21875 81.054688 256.082031 80.539062 255.8125 80.199219 C 255.542969 79.855469 255.140625 79.683594 254.601562 79.683594 C 253.957031 79.683594 253.445312 79.890625 253.070312 80.300781 C 252.699219 80.714844 252.511719 81.273438 252.511719 81.988281 L 252.511719 86.109375 L 251.308594 86.109375 L 251.308594 78.816406 L 252.511719 78.816406 L 252.511719 79.949219 C 252.800781 79.511719 253.136719 79.183594 253.523438 78.964844 C 253.914062 78.75 254.363281 78.640625 254.871094 78.640625 C 255.707031 78.640625 256.339844 78.902344 256.769531 79.417969 C 257.199219 79.9375 257.414062 80.699219 257.414062 81.707031 Z M 257.414062 81.707031 "/>
<path style=" stroke:none;fill-rule:nonzero;fill:rgb(0%,0%,0%);fill-opacity:1;" d="M 264.042969 75.976562 L 265.238281 75.976562 L 265.238281 86.109375 L 264.042969 86.109375 Z M 264.042969 75.976562 "/>
<path style=" stroke:none;fill-rule:nonzero;fill:rgb(0%,0%,0%);fill-opacity:1;" d="M 270.570312 79.65625 C 269.929688 79.65625 269.421875 79.90625 269.046875 80.410156 C 268.675781 80.910156 268.488281 81.597656 268.488281 82.46875 C 268.488281 83.339844 268.671875 84.027344 269.042969 84.527344 C 269.417969 85.03125 269.925781 85.28125 270.570312 85.28125 C 271.210938 85.28125 271.714844 85.03125 272.089844 84.527344 C 272.460938 84.023438 272.648438 83.335938 272.648438 82.46875 C 272.648438 81.605469 272.460938 80.921875 272.089844 80.414062 C 271.714844 79.910156 271.210938 79.65625 270.570312 79.65625 Z M 270.570312 78.640625 C 271.613281 78.640625 272.429688 78.980469 273.027344 79.660156 C 273.621094 80.335938 273.917969 81.273438 273.917969 82.46875 C 273.917969 83.660156 273.621094 84.597656 273.027344 85.277344 C 272.429688 85.957031 271.613281 86.296875 270.570312 86.296875 C 269.527344 86.296875 268.707031 85.957031 268.113281 85.277344 C 267.523438 84.597656 267.226562 83.660156 267.226562 82.46875 C 267.226562 81.273438 267.523438 80.335938 268.113281 79.660156 C 268.707031 78.980469 269.527344 78.640625 270.570312 78.640625 Z M 270.570312 78.640625 "/>
<path style=" stroke:none;fill-rule:nonzero;fill:rgb(0%,0%,0%);fill-opacity:1;" d="M 280.550781 79.03125 L 280.550781 80.164062 C 280.214844 79.992188 279.863281 79.859375 279.496094 79.773438 C 279.132812 79.6875 278.757812 79.644531 278.363281 79.644531 C 277.769531 79.644531 277.324219 79.734375 277.027344 79.917969 C 276.730469 80.097656 276.582031 80.371094 276.582031 80.738281 C 276.582031 81.015625 276.6875 81.234375 276.898438 81.390625 C 277.113281 81.550781 277.539062 81.699219 278.183594 81.84375 L 278.59375 81.933594 C 279.445312 82.117188 280.046875 82.375 280.40625 82.707031 C 280.765625 83.039062 280.945312 83.5 280.945312 84.097656 C 280.945312 84.773438 280.675781 85.308594 280.140625 85.707031 C 279.601562 86.101562 278.867188 86.296875 277.929688 86.296875 C 277.539062 86.296875 277.132812 86.257812 276.707031 86.183594 C 276.285156 86.105469 275.839844 85.992188 275.371094 85.839844 L 275.371094 84.605469 C 275.8125 84.835938 276.25 85.007812 276.679688 85.121094 C 277.109375 85.238281 277.535156 85.292969 277.957031 85.292969 C 278.519531 85.292969 278.953125 85.195312 279.257812 85.003906 C 279.558594 84.8125 279.710938 84.539062 279.710938 84.1875 C 279.710938 83.863281 279.601562 83.613281 279.382812 83.441406 C 279.164062 83.265625 278.683594 83.097656 277.941406 82.9375 L 277.523438 82.839844 C 276.785156 82.683594 276.246094 82.445312 275.917969 82.121094 C 275.585938 81.796875 275.421875 81.351562 275.421875 80.789062 C 275.421875 80.101562 275.664062 79.574219 276.152344 79.203125 C 276.636719 78.828125 277.328125 78.640625 278.222656 78.640625 C 278.664062 78.640625 279.082031 78.675781 279.472656 78.738281 C 279.863281 78.804688 280.222656 78.902344 280.550781 79.03125 Z M 280.550781 79.03125 "/>
<path style=" stroke:none;fill-rule:nonzero;fill:rgb(0%,0%,0%);fill-opacity:1;" d="M 287.5 79.03125 L 287.5 80.164062 C 287.160156 79.992188 286.808594 79.859375 286.445312 79.773438 C 286.082031 79.6875 285.703125 79.644531 285.3125 79.644531 C 284.714844 79.644531 284.269531 79.734375 283.972656 79.917969 C 283.675781 80.097656 283.527344 80.371094 283.527344 80.738281 C 283.527344 81.015625 283.632812 81.234375 283.847656 81.390625 C 284.058594 81.550781 284.488281 81.699219 285.128906 81.84375 L 285.539062 81.933594 C 286.390625 82.117188 286.996094 82.375 287.351562 82.707031 C 287.710938 83.039062 287.890625 83.5 287.890625 84.097656 C 287.890625 84.773438 287.621094 85.308594 287.085938 85.707031 C 286.550781 86.101562 285.8125 86.296875 284.875 86.296875 C 284.484375 86.296875 284.078125 86.257812 283.65625 86.183594 C 283.230469 86.105469 282.785156 85.992188 282.316406 85.839844 L 282.316406 84.605469 C 282.761719 84.835938 283.195312 85.007812 283.625 85.121094 C 284.054688 85.238281 284.480469 85.292969 284.902344 85.292969 C 285.464844 85.292969 285.898438 85.195312 286.203125 85.003906 C 286.507812 84.8125 286.660156 84.539062 286.660156 84.1875 C 286.660156 83.863281 286.550781 83.613281 286.328125 83.441406 C 286.113281 83.265625 285.632812 83.097656 284.886719 82.9375 L 284.472656 82.839844 C 283.730469 82.683594 283.195312 82.445312 282.863281 82.121094 C 282.535156 81.796875 282.371094 81.351562 282.371094 80.789062 C 282.371094 80.101562 282.613281 79.574219 283.097656 79.203125 C 283.585938 78.828125 284.273438 78.640625 285.167969 78.640625 C 285.609375 78.640625 286.027344 78.675781 286.417969 78.738281 C 286.808594 78.804688 287.167969 78.902344 287.5 79.03125 Z M 287.5 79.03125 "/>
<path style="fill:none;stroke-width:1.5;stroke-linecap:butt;stroke-linejoin:round;stroke:rgb(74.901962%,0%,74.901962%);stroke-opacity:1;stroke-dasharray:5.55,2.4;stroke-miterlimit:4;" d="M 142.634766 75.758789 L 162.635742 75.758789 " transform="matrix(1.333333,0,0,1.333333,0,-0.000000000000014211)"/>
<path style=" stroke:none;fill-rule:nonzero;fill:rgb(0%,0%,0%);fill-opacity:1;" d="M 229.953125 96.316406 L 229.953125 98.386719 L 232.421875 98.386719 L 232.421875 99.320312 L 229.953125 99.320312 L 229.953125 103.277344 C 229.953125 103.871094 230.035156 104.253906 230.199219 104.421875 C 230.359375 104.59375 230.691406 104.675781 231.191406 104.675781 L 232.421875 104.675781 L 232.421875 105.679688 L 231.191406 105.679688 C 230.265625 105.679688 229.628906 105.507812 229.277344 105.164062 C 228.925781 104.816406 228.75 104.1875 228.75 103.277344 L 228.75 99.320312 L 227.871094 99.320312 L 227.871094 98.386719 L 228.75 98.386719 L 228.75 96.316406 Z M 229.953125 96.316406 "/>
<path style=" stroke:none;fill-rule:nonzero;fill:rgb(0%,0%,0%);fill-opacity:1;" d="M 238.222656 99.507812 C 238.085938 99.429688 237.941406 99.371094 237.78125 99.335938 C 237.625 99.296875 237.449219 99.277344 237.257812 99.277344 C 236.582031 99.277344 236.0625 99.5 235.699219 99.941406 C 235.335938 100.378906 235.15625 101.011719 235.15625 101.835938 L 235.15625 105.679688 L 233.949219 105.679688 L 233.949219 98.386719 L 235.15625 98.386719 L 235.15625 99.519531 C 235.40625 99.078125 235.734375 98.75 236.136719 98.535156 C 236.542969 98.320312 237.035156 98.210938 237.609375 98.210938 C 237.691406 98.210938 237.785156 98.21875 237.882812 98.230469 C 237.984375 98.238281 238.09375 98.253906 238.214844 98.277344 Z M 238.222656 99.507812 "/>
<path style=" stroke:none;fill-rule:nonzero;fill:rgb(0%,0%,0%);fill-opacity:1;" d="M 242.792969 102.015625 C 241.824219 102.015625 241.152344 102.125 240.78125 102.347656 C 240.40625 102.566406 240.21875 102.945312 240.21875 103.480469 C 240.21875 103.902344 240.359375 104.242188 240.640625 104.492188 C 240.921875 104.742188 241.300781 104.863281 241.78125 104.863281 C 242.449219 104.863281 242.980469 104.628906 243.382812 104.160156 C 243.785156 103.6875 243.984375 103.0625 243.984375 102.28125 L 243.984375 102.015625 Z M 245.183594 101.519531 L 245.183594 105.679688 L 243.984375 105.679688 L 243.984375 104.574219 C 243.710938 105.015625 243.371094 105.339844 242.960938 105.550781 C 242.554688 105.761719 242.054688 105.867188 241.464844 105.867188 C 240.71875 105.867188 240.125 105.660156 239.683594 105.238281 C 239.242188 104.820312 239.023438 104.257812 239.023438 103.554688 C 239.023438 102.738281 239.296875 102.117188 239.84375 101.703125 C 240.394531 101.285156 241.214844 101.078125 242.304688 101.078125 L 243.984375 101.078125 L 243.984375 100.957031 C 243.984375 100.40625 243.804688 99.980469 243.441406 99.679688 C 243.078125 99.378906 242.570312 99.226562 241.914062 99.226562 C 241.496094 99.226562 241.089844 99.277344 240.695312 99.378906 C 240.300781 99.476562 239.921875 99.628906 239.558594 99.828125 L 239.558594 98.71875 C 239.996094 98.550781 240.421875 98.421875 240.832031 98.339844 C 241.246094 98.253906 241.644531 98.210938 242.035156 98.210938 C 243.09375 98.210938 243.878906 98.484375 244.402344 99.035156 C 244.921875 99.578125 245.183594 100.40625 245.183594 101.519531 Z M 245.183594 101.519531 "/>
<path style=" stroke:none;fill-rule:nonzero;fill:rgb(0%,0%,0%);fill-opacity:1;" d="M 247.648438 98.386719 L 248.847656 98.386719 L 248.847656 105.679688 L 247.648438 105.679688 Z M 247.648438 95.546875 L 248.847656 95.546875 L 248.847656 97.066406 L 247.648438 97.066406 Z M 247.648438 95.546875 "/>
<path style=" stroke:none;fill-rule:nonzero;fill:rgb(0%,0%,0%);fill-opacity:1;" d="M 257.414062 101.277344 L 257.414062 105.679688 L 256.21875 105.679688 L 256.21875 101.316406 C 256.21875 100.625 256.082031 100.109375 255.8125 99.769531 C 255.542969 99.425781 255.140625 99.253906 254.601562 99.253906 C 253.957031 99.253906 253.445312 99.460938 253.070312 99.871094 C 252.699219 100.285156 252.511719 100.847656 252.511719 101.558594 L 252.511719 105.679688 L 251.308594 105.679688 L 251.308594 98.386719 L 252.511719 98.386719 L 252.511719 99.519531 C 252.800781 99.082031 253.136719 98.753906 253.523438 98.539062 C 253.914062 98.320312 254.363281 98.210938 254.871094 98.210938 C 255.707031 98.210938 256.339844 98.472656 256.769531 98.988281 C 257.199219 99.507812 257.414062 100.269531 257.414062 101.277344 Z M 257.414062 101.277344 "/>
<path style=" stroke:none;fill-rule:nonzero;fill:rgb(0%,0%,0%);fill-opacity:1;" d="M 267.355469 102.015625 C 266.390625 102.015625 265.71875 102.125 265.34375 102.347656 C 264.96875 102.566406 264.785156 102.945312 264.785156 103.480469 C 264.785156 103.902344 264.925781 104.242188 265.203125 104.492188 C 265.484375 104.742188 265.867188 104.863281 266.347656 104.863281 C 267.011719 104.863281 267.546875 104.628906 267.945312 104.160156 C 268.347656 103.6875 268.546875 103.0625 268.546875 102.28125 L 268.546875 102.015625 Z M 269.746094 101.519531 L 269.746094 105.679688 L 268.546875 105.679688 L 268.546875 104.574219 C 268.273438 105.015625 267.933594 105.339844 267.527344 105.550781 C 267.117188 105.761719 266.617188 105.867188 266.027344 105.867188 C 265.28125 105.867188 264.6875 105.660156 264.246094 105.238281 C 263.804688 104.820312 263.585938 104.257812 263.585938 103.554688 C 263.585938 102.738281 263.859375 102.117188 264.410156 101.703125 C 264.957031 101.285156 265.777344 101.078125 266.867188 101.078125 L 268.546875 101.078125 L 268.546875 100.957031 C 268.546875 100.40625 268.367188 99.980469 268.003906 99.679688 C 267.640625 99.378906 267.132812 99.226562 266.476562 99.226562 C 266.0625 99.226562 265.65625 99.277344 265.257812 99.378906 C 264.863281 99.476562 264.484375 99.628906 264.121094 99.828125 L 264.121094 98.71875 C 264.558594 98.550781 264.984375 98.421875 265.394531 98.339844 C 265.808594 98.253906 266.210938 98.210938 266.601562 98.210938 C 267.65625 98.210938 268.445312 98.484375 268.964844 99.035156 C 269.484375 99.578125 269.746094 100.40625 269.746094 101.519531 Z M 269.746094 101.519531 "/>
<path style=" stroke:none;fill-rule:nonzero;fill:rgb(0%,0%,0%);fill-opacity:1;" d="M 277.460938 98.667969 L 277.460938 99.789062 C 277.121094 99.601562 276.78125 99.460938 276.441406 99.367188 C 276.101562 99.273438 275.757812 99.226562 275.410156 99.226562 C 274.632812 99.226562 274.027344 99.472656 273.597656 99.964844 C 273.167969 100.457031 272.953125 101.148438 272.953125 102.039062 C 272.953125 102.929688 273.167969 103.621094 273.597656 104.113281 C 274.027344 104.605469 274.632812 104.851562 275.410156 104.851562 C 275.757812 104.851562 276.101562 104.804688 276.441406 104.710938 C 276.78125 104.621094 277.121094 104.480469 277.460938 104.292969 L 277.460938 105.398438 C 277.125 105.554688 276.78125 105.671875 276.421875 105.75 C 276.0625 105.828125 275.683594 105.867188 275.28125 105.867188 C 274.179688 105.867188 273.308594 105.523438 272.660156 104.832031 C 272.015625 104.144531 271.691406 103.210938 271.691406 102.039062 C 271.691406 100.851562 272.019531 99.914062 272.671875 99.234375 C 273.324219 98.554688 274.222656 98.210938 275.359375 98.210938 C 275.726562 98.210938 276.085938 98.25 276.4375 98.328125 C 276.789062 98.402344 277.128906 98.515625 277.460938 98.667969 Z M 277.460938 98.667969 "/>
<path style=" stroke:none;fill-rule:nonzero;fill:rgb(0%,0%,0%);fill-opacity:1;" d="M 284.792969 98.667969 L 284.792969 99.789062 C 284.453125 99.601562 284.113281 99.460938 283.773438 99.367188 C 283.433594 99.273438 283.089844 99.226562 282.742188 99.226562 C 281.964844 99.226562 281.359375 99.472656 280.929688 99.964844 C 280.5 100.457031 280.285156 101.148438 280.285156 102.039062 C 280.285156 102.929688 280.5 103.621094 280.929688 104.113281 C 281.359375 104.605469 281.964844 104.851562 282.742188 104.851562 C 283.089844 104.851562 283.433594 104.804688 283.773438 104.710938 C 284.113281 104.621094 284.453125 104.480469 284.792969 104.292969 L 284.792969 105.398438 C 284.457031 105.554688 284.109375 105.671875 283.75 105.75 C 283.394531 105.828125 283.015625 105.867188 282.609375 105.867188 C 281.511719 105.867188 280.636719 105.523438 279.992188 104.832031 C 279.34375 104.144531 279.023438 103.210938 279.023438 102.039062 C 279.023438 100.851562 279.347656 99.914062 280 99.234375 C 280.65625 98.554688 281.550781 98.210938 282.6875 98.210938 C 283.058594 98.210938 283.417969 98.25 283.769531 98.328125 C 284.121094 98.402344 284.460938 98.515625 284.792969 98.667969 Z M 284.792969 98.667969 "/>
<path style="fill:none;stroke-width:1.5;stroke-linecap:butt;stroke-linejoin:round;stroke:rgb(0%,50.196081%,0%);stroke-opacity:1;stroke-dasharray:9.6,2.4,1.5,2.4;stroke-miterlimit:4;" d="M 142.634766 90.436523 L 162.635742 90.436523 " transform="matrix(1.333333,0,0,1.333333,0,-0.000000000000014211)"/>
<path style=" stroke:none;fill-rule:nonzero;fill:rgb(0%,0%,0%);fill-opacity:1;" d="M 229.953125 115.886719 L 229.953125 117.957031 L 232.421875 117.957031 L 232.421875 118.890625 L 229.953125 118.890625 L 229.953125 122.847656 C 229.953125 123.441406 230.035156 123.824219 230.199219 123.992188 C 230.359375 124.164062 230.691406 124.246094 231.191406 124.246094 L 232.421875 124.246094 L 232.421875 125.25 L 231.191406 125.25 C 230.265625 125.25 229.628906 125.078125 229.277344 124.734375 C 228.925781 124.386719 228.75 123.757812 228.75 122.847656 L 228.75 118.890625 L 227.871094 118.890625 L 227.871094 117.957031 L 228.75 117.957031 L 228.75 115.886719 Z M 229.953125 115.886719 "/>
<path style=" stroke:none;fill-rule:nonzero;fill:rgb(0%,0%,0%);fill-opacity:1;" d="M 240.234375 121.304688 L 240.234375 121.890625 L 234.726562 121.890625 C 234.777344 122.714844 235.027344 123.34375 235.472656 123.773438 C 235.917969 124.207031 236.535156 124.421875 237.328125 124.421875 C 237.789062 124.421875 238.234375 124.367188 238.667969 124.253906 C 239.097656 124.140625 239.527344 123.972656 239.953125 123.746094 L 239.953125 124.878906 C 239.523438 125.0625 239.082031 125.199219 238.632812 125.296875 C 238.179688 125.390625 237.722656 125.441406 237.257812 125.441406 C 236.09375 125.441406 235.171875 125.101562 234.496094 124.425781 C 233.816406 123.746094 233.476562 122.832031 233.476562 121.675781 C 233.476562 120.480469 233.796875 119.535156 234.441406 118.835938 C 235.085938 118.132812 235.957031 117.785156 237.050781 117.785156 C 238.03125 117.785156 238.808594 118.097656 239.378906 118.730469 C 239.949219 119.363281 240.234375 120.21875 240.234375 121.304688 Z M 239.035156 120.953125 C 239.027344 120.296875 238.84375 119.777344 238.484375 119.386719 C 238.128906 118.992188 237.652344 118.796875 237.0625 118.796875 C 236.394531 118.796875 235.859375 118.988281 235.460938 119.363281 C 235.058594 119.742188 234.828125 120.273438 234.765625 120.960938 Z M 239.035156 120.953125 "/>
<path style=" stroke:none;fill-rule:nonzero;fill:rgb(0%,0%,0%);fill-opacity:1;" d="M 246.847656 118.171875 L 246.847656 119.304688 C 246.511719 119.132812 246.160156 119.003906 245.792969 118.917969 C 245.429688 118.828125 245.050781 118.785156 244.660156 118.785156 C 244.066406 118.785156 243.621094 118.875 243.324219 119.058594 C 243.027344 119.242188 242.875 119.515625 242.875 119.878906 C 242.875 120.15625 242.984375 120.375 243.195312 120.535156 C 243.40625 120.691406 243.835938 120.84375 244.480469 120.984375 L 244.890625 121.078125 C 245.738281 121.257812 246.34375 121.515625 246.703125 121.847656 C 247.058594 122.179688 247.238281 122.644531 247.238281 123.238281 C 247.238281 123.914062 246.972656 124.453125 246.433594 124.847656 C 245.898438 125.242188 245.164062 125.441406 244.226562 125.441406 C 243.835938 125.441406 243.425781 125.402344 243.003906 125.324219 C 242.582031 125.25 242.132812 125.132812 241.667969 124.984375 L 241.667969 123.746094 C 242.109375 123.976562 242.546875 124.148438 242.976562 124.265625 C 243.402344 124.378906 243.828125 124.433594 244.25 124.433594 C 244.816406 124.433594 245.25 124.339844 245.550781 124.144531 C 245.855469 123.953125 246.007812 123.679688 246.007812 123.328125 C 246.007812 123.003906 245.898438 122.753906 245.679688 122.582031 C 245.460938 122.40625 244.980469 122.242188 244.238281 122.078125 L 243.820312 121.980469 C 243.078125 121.824219 242.542969 121.585938 242.210938 121.261719 C 241.882812 120.9375 241.71875 120.496094 241.71875 119.929688 C 241.71875 119.246094 241.960938 118.714844 242.449219 118.34375 C 242.933594 117.96875 243.625 117.785156 244.519531 117.785156 C 244.960938 117.785156 245.375 117.816406 245.765625 117.882812 C 246.15625 117.945312 246.519531 118.042969 246.847656 118.171875 Z M 246.847656 118.171875 "/>
<path style=" stroke:none;fill-rule:nonzero;fill:rgb(0%,0%,0%);fill-opacity:1;" d="M 250.332031 115.886719 L 250.332031 117.957031 L 252.796875 117.957031 L 252.796875 118.890625 L 250.332031 118.890625 L 250.332031 122.847656 C 250.332031 123.441406 250.414062 123.824219 250.574219 123.992188 C 250.738281 124.164062 251.070312 124.246094 251.570312 124.246094 L 252.796875 124.246094 L 252.796875 125.25 L 251.570312 125.25 C 250.644531 125.25 250.007812 125.078125 249.65625 124.734375 C 249.304688 124.386719 249.128906 123.757812 249.128906 122.847656 L 249.128906 118.890625 L 248.25 118.890625 L 248.25 117.957031 L 249.128906 117.957031 L 249.128906 115.886719 Z M 250.332031 115.886719 "/>
<path style=" stroke:none;fill-rule:nonzero;fill:rgb(0%,0%,0%);fill-opacity:1;" d="M 261.925781 121.585938 C 260.960938 121.585938 260.289062 121.695312 259.914062 121.917969 C 259.539062 122.136719 259.355469 122.515625 259.355469 123.050781 C 259.355469 123.476562 259.496094 123.8125 259.773438 124.0625 C 260.054688 124.3125 260.4375 124.433594 260.917969 124.433594 C 261.582031 124.433594 262.117188 124.199219 262.515625 123.730469 C 262.917969 123.257812 263.117188 122.632812 263.117188 121.851562 L 263.117188 121.585938 Z M 264.316406 121.089844 L 264.316406 125.25 L 263.117188 125.25 L 263.117188 124.144531 C 262.84375 124.585938 262.503906 124.910156 262.097656 125.121094 C 261.6875 125.335938 261.1875 125.441406 260.597656 125.441406 C 259.851562 125.441406 259.257812 125.230469 258.816406 124.808594 C 258.375 124.390625 258.15625 123.828125 258.15625 123.128906 C 258.15625 122.308594 258.429688 121.691406 258.980469 121.273438 C 259.527344 120.855469 260.347656 120.648438 261.4375 120.648438 L 263.117188 120.648438 L 263.117188 120.527344 C 263.117188 119.976562 262.9375 119.550781 262.574219 119.25 C 262.210938 118.949219 261.703125 118.796875 261.046875 118.796875 C 260.632812 118.796875 260.226562 118.847656 259.828125 118.949219 C 259.433594 119.046875 259.054688 119.199219 258.691406 119.398438 L 258.691406 118.289062 C 259.128906 118.121094 259.554688 117.992188 259.964844 117.910156 C 260.378906 117.824219 260.78125 117.785156 261.171875 117.785156 C 262.226562 117.785156 263.015625 118.058594 263.535156 118.605469 C 264.054688 119.148438 264.316406 119.976562 264.316406 121.089844 Z M 264.316406 121.089844 "/>
<path style=" stroke:none;fill-rule:nonzero;fill:rgb(0%,0%,0%);fill-opacity:1;" d="M 272.03125 118.238281 L 272.03125 119.359375 C 271.691406 119.171875 271.351562 119.03125 271.011719 118.9375 C 270.671875 118.84375 270.328125 118.796875 269.980469 118.796875 C 269.203125 118.796875 268.597656 119.042969 268.167969 119.539062 C 267.738281 120.027344 267.523438 120.71875 267.523438 121.609375 C 267.523438 122.5 267.738281 123.191406 268.167969 123.683594 C 268.597656 124.175781 269.203125 124.421875 269.980469 124.421875 C 270.328125 124.421875 270.671875 124.375 271.011719 124.285156 C 271.351562 124.191406 271.691406 124.050781 272.03125 123.863281 L 272.03125 124.972656 C 271.695312 125.125 271.351562 125.242188 270.992188 125.320312 C 270.632812 125.398438 270.253906 125.441406 269.851562 125.441406 C 268.75 125.441406 267.878906 125.09375 267.230469 124.402344 C 266.585938 123.714844 266.261719 122.78125 266.261719 121.609375 C 266.261719 120.421875 266.589844 119.488281 267.242188 118.804688 C 267.894531 118.125 268.792969 117.785156 269.929688 117.785156 C 270.296875 117.785156 270.65625 117.820312 271.007812 117.898438 C 271.359375 117.972656 271.699219 118.085938 272.03125 118.238281 Z M 272.03125 118.238281 "/>
<path style=" stroke:none;fill-rule:nonzero;fill:rgb(0%,0%,0%);fill-opacity:1;" d="M 279.363281 118.238281 L 279.363281 119.359375 C 279.023438 119.171875 278.683594 119.03125 278.34375 118.9375 C 278.003906 118.84375 277.660156 118.796875 277.3125 118.796875 C 276.535156 118.796875 275.929688 119.042969 275.5 119.539062 C 275.070312 120.027344 274.855469 120.71875 274.855469 121.609375 C 274.855469 122.5 275.070312 123.191406 275.5 123.683594 C 275.929688 124.175781 276.535156 124.421875 277.3125 124.421875 C 277.660156 124.421875 278.003906 124.375 278.34375 124.285156 C 278.683594 124.191406 279.023438 124.050781 279.363281 123.863281 L 279.363281 124.972656 C 279.027344 125.125 278.679688 125.242188 278.320312 125.320312 C 277.964844 125.398438 277.585938 125.441406 277.179688 125.441406 C 276.082031 125.441406 275.207031 125.09375 274.5625 124.402344 C 273.914062 123.714844 273.59375 122.78125 273.59375 121.609375 C 273.59375 120.421875 273.917969 119.488281 274.570312 118.804688 C 275.226562 118.125 276.121094 117.785156 277.257812 117.785156 C 277.628906 117.785156 277.988281 117.820312 278.339844 117.898438 C 278.691406 117.972656 279.03125 118.085938 279.363281 118.238281 Z M 279.363281 118.238281 "/>
</g>
</svg>
