<?xml version="1.0" encoding="UTF-8"?>
<svg xmlns="http://www.w3.org/2000/svg" xmlns:xlink="http://www.w3.org/1999/xlink" width="326.827087" height="240.875" viewBox="0 0 326.827087 240.875" version="1.1">
<defs>
<clipPath id="clip1">
  <path d="M 67 9.601562 L 70 9.601562 L 70 190.800781 L 67 190.800781 Z M 67 9.601562 "/>
</clipPath>
<clipPath id="clip2">
  <path d="M 147 9.601562 L 149 9.601562 L 149 190.800781 L 147 190.800781 Z M 147 9.601562 "/>
</clipPath>
<clipPath id="clip3">
  <path d="M 226 9.601562 L 228 9.601562 L 228 190.800781 L 226 190.800781 Z M 226 9.601562 "/>
</clipPath>
<clipPath id="clip4">
  <path d="M 305 9.601562 L 307 9.601562 L 307 190.800781 L 305 190.800781 Z M 305 9.601562 "/>
</clipPath>
<clipPath id="clip5">
  <path d="M 56.828125 179 L 317.226562 179 L 317.226562 181 L 56.828125 181 Z M 56.828125 179 "/>
</clipPath>
<clipPath id="clip6">
  <path d="M 56.828125 125 L 317.226562 125 L 317.226562 127 L 56.828125 127 Z M 56.828125 125 "/>
</clipPath>
<clipPath id="clip7">
  <path d="M 56.828125 70 L 317.226562 70 L 317.226562 73 L 56.828125 73 Z M 56.828125 70 "/>
</clipPath>
<clipPath id="clip8">
  <path d="M 56.828125 16 L 317.226562 16 L 317.226562 18 L 56.828125 18 Z M 56.828125 16 "/>
</clipPath>
</defs>
<g id="surface1">
<path style=" stroke:none;fill-rule:nonzero;fill:rgb(100%,100%,100%);fill-opacity:1;" d="M 56.828125 190.800781 L 317.226562 190.800781 L 317.226562 9.601562 L 56.828125 9.601562 Z M 56.828125 190.800781 "/>
<g clip-path="url(#clip1)" clip-rule="nonzero">
<path style="fill:none;stroke-width:0.8;stroke-linecap:square;stroke-linejoin:round;stroke:rgb(69.01961%,69.01961%,69.01961%);stroke-opacity:1;stroke-miterlimit:4;" d="M 51.498047 143.100586 L 51.498047 7.201172 " transform="matrix(1.333333,0,0,1.333333,0,0)"/>
</g>
<path style="fill:none;stroke-width:0.8;stroke-linecap:butt;stroke-linejoin:round;stroke:rgb(0%,0%,0%);stroke-opacity:1;stroke-miterlimit:4;" d="M 0.000461578 0.000579834 L 0.000461578 3.498627 " transform="matrix(1.333333,0,0,1.333333,68.663447,190.800008)"/>
<path style=" stroke:none;fill-rule:nonzero;fill:rgb(0%,0%,0%);fill-opacity:1;" d="M 60.246094 205.53125 L 68.59375 205.53125 L 68.59375 206.636719 L 60.246094 206.636719 Z M 60.246094 205.53125 "/>
<path style=" stroke:none;fill-rule:nonzero;fill:rgb(0%,0%,0%);fill-opacity:1;" d="M 71.660156 209.160156 L 73.808594 209.160156 L 73.808594 201.742188 L 71.472656 202.210938 L 71.472656 201.011719 L 73.796875 200.542969 L 75.113281 200.542969 L 75.113281 209.160156 L 77.257812 209.160156 L 77.257812 210.265625 L 71.660156 210.265625 Z M 71.660156 209.160156 "/>
<g clip-path="url(#clip2)" clip-rule="nonzero">
<path style="fill:none;stroke-width:0.8;stroke-linecap:square;stroke-linejoin:round;stroke:rgb(69.01961%,69.01961%,69.01961%);stroke-opacity:1;stroke-miterlimit:4;" d="M 110.876953 143.100586 L 110.876953 7.201172 " transform="matrix(1.333333,0,0,1.333333,0,0)"/>
</g>
<path style="fill:none;stroke-width:0.8;stroke-linecap:butt;stroke-linejoin:round;stroke:rgb(0%,0%,0%);stroke-opacity:1;stroke-miterlimit:4;" d="M -0.00038147 0.000579834 L -0.00038147 3.498627 " transform="matrix(1.333333,0,0,1.333333,147.836446,190.800008)"/>
<path style=" stroke:none;fill-rule:nonzero;fill:rgb(0%,0%,0%);fill-opacity:1;" d="M 147.832031 201.410156 C 147.15625 201.410156 146.648438 201.742188 146.304688 202.410156 C 145.964844 203.074219 145.792969 204.078125 145.792969 205.414062 C 145.792969 206.746094 145.964844 207.746094 146.304688 208.414062 C 146.648438 209.078125 147.15625 209.414062 147.832031 209.414062 C 148.515625 209.414062 149.023438 209.078125 149.367188 208.414062 C 149.707031 207.746094 149.878906 206.746094 149.878906 205.414062 C 149.878906 204.078125 149.707031 203.074219 149.367188 202.410156 C 149.023438 201.742188 148.515625 201.410156 147.832031 201.410156 Z M 147.832031 200.367188 C 148.921875 200.367188 149.753906 200.800781 150.332031 201.664062 C 150.90625 202.523438 151.191406 203.773438 151.191406 205.414062 C 151.191406 207.050781 150.90625 208.300781 150.332031 209.164062 C 149.753906 210.023438 148.921875 210.453125 147.832031 210.453125 C 146.742188 210.453125 145.910156 210.023438 145.335938 209.164062 C 144.761719 208.300781 144.472656 207.050781 144.472656 205.414062 C 144.472656 203.773438 144.761719 202.523438 145.335938 201.664062 C 145.910156 200.800781 146.742188 200.367188 147.832031 200.367188 Z M 147.832031 200.367188 "/>
<g clip-path="url(#clip3)" clip-rule="nonzero">
<path style="fill:none;stroke-width:0.8;stroke-linecap:square;stroke-linejoin:round;stroke:rgb(69.01961%,69.01961%,69.01961%);stroke-opacity:1;stroke-miterlimit:4;" d="M 170.255859 143.100586 L 170.255859 7.201172 " transform="matrix(1.333333,0,0,1.333333,0,0)"/>
</g>
<path style="fill:none;stroke-width:0.8;stroke-linecap:butt;stroke-linejoin:round;stroke:rgb(0%,0%,0%);stroke-opacity:1;stroke-miterlimit:4;" d="M -0.0012207 0.000579834 L -0.0012207 3.498627 " transform="matrix(1.333333,0,0,1.333333,227.00944,190.800008)"/>
<path style=" stroke:none;fill-rule:nonzero;fill:rgb(0%,0%,0%);fill-opacity:1;" d="M 224.421875 209.160156 L 226.570312 209.160156 L 226.570312 201.742188 L 224.230469 202.210938 L 224.230469 201.011719 L 226.558594 200.542969 L 227.871094 200.542969 L 227.871094 209.160156 L 230.019531 209.160156 L 230.019531 210.265625 L 224.421875 210.265625 Z M 224.421875 209.160156 "/>
<g clip-path="url(#clip4)" clip-rule="nonzero">
<path style="fill:none;stroke-width:0.8;stroke-linecap:square;stroke-linejoin:round;stroke:rgb(69.01961%,69.01961%,69.01961%);stroke-opacity:1;stroke-miterlimit:4;" d="M 229.637695 143.100586 L 229.637695 7.201172 " transform="matrix(1.333333,0,0,1.333333,0,0)"/>
</g>
<path style="fill:none;stroke-width:0.8;stroke-linecap:butt;stroke-linejoin:round;stroke:rgb(0%,0%,0%);stroke-opacity:1;stroke-miterlimit:4;" d="M 0.000854492 0.000579834 L 0.000854492 3.498627 " transform="matrix(1.333333,0,0,1.333333,306.182454,190.800008)"/>
<path style=" stroke:none;fill-rule:nonzero;fill:rgb(0%,0%,0%);fill-opacity:1;" d="M 304.5 209.160156 L 309.089844 209.160156 L 309.089844 210.265625 L 302.917969 210.265625 L 302.917969 209.160156 C 303.417969 208.640625 304.097656 207.949219 304.957031 207.078125 C 305.820312 206.207031 306.363281 205.648438 306.582031 205.394531 C 307.003906 204.921875 307.296875 204.523438 307.464844 204.195312 C 307.632812 203.867188 307.714844 203.542969 307.714844 203.226562 C 307.714844 202.710938 307.535156 202.289062 307.171875 201.964844 C 306.808594 201.636719 306.335938 201.476562 305.753906 201.476562 C 305.34375 201.476562 304.90625 201.546875 304.449219 201.691406 C 303.992188 201.832031 303.503906 202.050781 302.984375 202.339844 L 302.984375 201.011719 C 303.511719 200.800781 304.007812 200.640625 304.464844 200.53125 C 304.925781 200.421875 305.347656 200.367188 305.730469 200.367188 C 306.738281 200.367188 307.539062 200.621094 308.140625 201.125 C 308.738281 201.628906 309.035156 202.300781 309.035156 203.140625 C 309.035156 203.542969 308.960938 203.921875 308.8125 204.277344 C 308.664062 204.636719 308.390625 205.058594 307.996094 205.542969 C 307.886719 205.671875 307.542969 206.035156 306.960938 206.636719 C 306.378906 207.238281 305.558594 208.078125 304.5 209.160156 Z M 304.5 209.160156 "/>
<path style=" stroke:none;fill-rule:nonzero;fill:rgb(0%,0%,0%);fill-opacity:1;" d="M 190.398438 221.210938 L 187.761719 224.757812 L 190.535156 228.503906 L 189.121094 228.503906 L 187 225.636719 L 184.878906 228.503906 L 183.464844 228.503906 L 186.296875 224.6875 L 183.707031 221.210938 L 185.117188 221.210938 L 187.050781 223.808594 L 188.984375 221.210938 Z M 190.398438 221.210938 "/>
<g clip-path="url(#clip5)" clip-rule="nonzero">
<path style="fill:none;stroke-width:0.8;stroke-linecap:square;stroke-linejoin:round;stroke:rgb(69.01961%,69.01961%,69.01961%);stroke-opacity:1;stroke-miterlimit:4;" d="M 42.621094 135.020508 L 237.919922 135.020508 " transform="matrix(1.333333,0,0,1.333333,0,0)"/>
</g>
<path style="fill:none;stroke-width:0.8;stroke-linecap:butt;stroke-linejoin:round;stroke:rgb(0%,0%,0%);stroke-opacity:1;stroke-miterlimit:4;" d="M 0.000782013 -0.000854492 L -3.500195 -0.000854492 " transform="matrix(1.333333,0,0,1.333333,56.827082,180.028483)"/>
<path style=" stroke:none;fill-rule:nonzero;fill:rgb(0%,0%,0%);fill-opacity:1;" d="M 29.25 180.359375 L 37.597656 180.359375 L 37.597656 181.46875 L 29.25 181.46875 Z M 29.25 180.359375 "/>
<path style=" stroke:none;fill-rule:nonzero;fill:rgb(0%,0%,0%);fill-opacity:1;" d="M 40.664062 183.988281 L 42.8125 183.988281 L 42.8125 176.570312 L 40.472656 177.039062 L 40.472656 175.84375 L 42.800781 175.375 L 44.113281 175.375 L 44.113281 183.988281 L 46.261719 183.988281 L 46.261719 185.09375 L 40.664062 185.09375 Z M 40.664062 183.988281 "/>
<g clip-path="url(#clip6)" clip-rule="nonzero">
<path style="fill:none;stroke-width:0.8;stroke-linecap:square;stroke-linejoin:round;stroke:rgb(69.01961%,69.01961%,69.01961%);stroke-opacity:1;stroke-miterlimit:4;" d="M 42.621094 94.324219 L 237.919922 94.324219 " transform="matrix(1.333333,0,0,1.333333,0,0)"/>
</g>
<path style="fill:none;stroke-width:0.8;stroke-linecap:butt;stroke-linejoin:round;stroke:rgb(0%,0%,0%);stroke-opacity:1;stroke-miterlimit:4;" d="M 0.000782013 -0.0001297 L -3.500195 -0.0001297 " transform="matrix(1.333333,0,0,1.333333,56.827082,125.765798)"/>
<path style=" stroke:none;fill-rule:nonzero;fill:rgb(0%,0%,0%);fill-opacity:1;" d="M 43.246094 121.976562 C 42.570312 121.976562 42.0625 122.3125 41.722656 122.976562 C 41.378906 123.640625 41.210938 124.644531 41.210938 125.980469 C 41.210938 127.3125 41.378906 128.3125 41.722656 128.980469 C 42.0625 129.644531 42.570312 129.980469 43.246094 129.980469 C 43.929688 129.980469 44.441406 129.644531 44.78125 128.980469 C 45.121094 128.3125 45.292969 127.3125 45.292969 125.980469 C 45.292969 124.644531 45.121094 123.640625 44.78125 122.976562 C 44.441406 122.3125 43.929688 121.976562 43.246094 121.976562 Z M 43.246094 120.9375 C 44.339844 120.9375 45.171875 121.367188 45.746094 122.230469 C 46.320312 123.089844 46.609375 124.339844 46.609375 125.980469 C 46.609375 127.617188 46.320312 128.867188 45.746094 129.730469 C 45.171875 130.589844 44.339844 131.019531 43.246094 131.019531 C 42.160156 131.019531 41.328125 130.589844 40.753906 129.730469 C 40.175781 128.867188 39.890625 127.617188 39.890625 125.980469 C 39.890625 124.339844 40.175781 123.089844 40.753906 122.230469 C 41.328125 121.367188 42.160156 120.9375 43.246094 120.9375 Z M 43.246094 120.9375 "/>
<g clip-path="url(#clip7)" clip-rule="nonzero">
<path style="fill:none;stroke-width:0.8;stroke-linecap:square;stroke-linejoin:round;stroke:rgb(69.01961%,69.01961%,69.01961%);stroke-opacity:1;stroke-miterlimit:4;" d="M 42.621094 53.62793 L 237.919922 53.62793 " transform="matrix(1.333333,0,0,1.333333,0,0)"/>
</g>
<path style="fill:none;stroke-width:0.8;stroke-linecap:butt;stroke-linejoin:round;stroke:rgb(0%,0%,0%);stroke-opacity:1;stroke-miterlimit:4;" d="M 0.000782013 0.000587463 L -3.500195 0.000587463 " transform="matrix(1.333333,0,0,1.333333,56.827082,71.503123)"/>
<path style=" stroke:none;fill-rule:nonzero;fill:rgb(0%,0%,0%);fill-opacity:1;" d="M 40.664062 75.460938 L 42.8125 75.460938 L 42.8125 68.046875 L 40.476562 68.515625 L 40.476562 67.316406 L 42.800781 66.847656 L 44.113281 66.847656 L 44.113281 75.460938 L 46.261719 75.460938 L 46.261719 76.570312 L 40.664062 76.570312 Z M 40.664062 75.460938 "/>
<g clip-path="url(#clip8)" clip-rule="nonzero">
<path style="fill:none;stroke-width:0.8;stroke-linecap:square;stroke-linejoin:round;stroke:rgb(69.01961%,69.01961%,69.01961%);stroke-opacity:1;stroke-miterlimit:4;" d="M 42.621094 12.931641 L 237.919922 12.931641 " transform="matrix(1.333333,0,0,1.333333,0,0)"/>
</g>
<path style="fill:none;stroke-width:0.8;stroke-linecap:butt;stroke-linejoin:round;stroke:rgb(0%,0%,0%);stroke-opacity:1;stroke-miterlimit:4;" d="M 0.000782013 0.00130367 L -3.500195 0.00130367 " transform="matrix(1.333333,0,0,1.333333,56.827082,17.240449)"/>
<path style=" stroke:none;fill-rule:nonzero;fill:rgb(0%,0%,0%);fill-opacity:1;" d="M 41.570312 21.199219 L 46.160156 21.199219 L 46.160156 22.304688 L 39.988281 22.304688 L 39.988281 21.199219 C 40.484375 20.683594 41.164062 19.988281 42.027344 19.121094 C 42.890625 18.25 43.429688 17.6875 43.652344 17.433594 C 44.074219 16.964844 44.367188 16.5625 44.535156 16.234375 C 44.703125 15.90625 44.785156 15.585938 44.785156 15.269531 C 44.785156 14.75 44.605469 14.332031 44.242188 14.007812 C 43.878906 13.679688 43.40625 13.515625 42.824219 13.515625 C 42.414062 13.515625 41.976562 13.589844 41.519531 13.730469 C 41.0625 13.875 40.574219 14.089844 40.050781 14.382812 L 40.050781 13.054688 C 40.582031 12.839844 41.074219 12.679688 41.535156 12.574219 C 41.996094 12.464844 42.417969 12.410156 42.800781 12.410156 C 43.808594 12.410156 44.609375 12.664062 45.207031 13.167969 C 45.808594 13.667969 46.105469 14.339844 46.105469 15.183594 C 46.105469 15.582031 46.03125 15.960938 45.882812 16.320312 C 45.734375 16.675781 45.460938 17.097656 45.066406 17.585938 C 44.957031 17.710938 44.609375 18.074219 44.027344 18.675781 C 43.449219 19.277344 42.628906 20.121094 41.570312 21.199219 Z M 41.570312 21.199219 "/>
<path style=" stroke:none;fill-rule:nonzero;fill:rgb(0%,0%,0%);fill-opacity:1;" d="M 9.601562 106.746094 L 10.597656 106.746094 L 10.597656 107.894531 C 10.597656 108.320312 10.683594 108.621094 10.859375 108.789062 C 11.03125 108.957031 11.34375 109.039062 11.796875 109.039062 L 12.441406 109.039062 L 12.441406 107.066406 L 13.371094 107.066406 L 13.371094 109.039062 L 19.730469 109.039062 L 19.730469 110.242188 L 13.371094 110.242188 L 13.371094 111.386719 L 12.441406 111.386719 L 12.441406 110.242188 L 11.929688 110.242188 C 11.121094 110.242188 10.527344 110.054688 10.160156 109.675781 C 9.785156 109.296875 9.601562 108.699219 9.601562 107.878906 Z M 9.601562 106.746094 "/>
<path style=" stroke:none;fill-rule:nonzero;fill:rgb(0%,0%,0%);fill-opacity:1;" d="M 9.613281 102.867188 C 10.613281 103.449219 11.597656 103.878906 12.578125 104.164062 C 13.554688 104.445312 14.542969 104.585938 15.546875 104.585938 C 16.546875 104.585938 17.539062 104.445312 18.523438 104.160156 C 19.507812 103.875 20.496094 103.445312 21.488281 102.867188 L 21.488281 103.910156 C 20.46875 104.558594 19.464844 105.046875 18.480469 105.371094 C 17.496094 105.691406 16.519531 105.855469 15.546875 105.855469 C 14.578125 105.855469 13.601562 105.695312 12.621094 105.375 C 11.640625 105.050781 10.636719 104.5625 9.613281 103.910156 Z M 9.613281 102.867188 "/>
<path style=" stroke:none;fill-rule:nonzero;fill:rgb(0%,0%,0%);fill-opacity:1;" d="M 12.441406 94.480469 L 15.988281 97.117188 L 19.730469 94.34375 L 19.730469 95.757812 L 16.867188 97.878906 L 19.730469 100 L 19.730469 101.414062 L 15.917969 98.582031 L 12.441406 101.175781 L 12.441406 99.761719 L 15.039062 97.828125 L 12.441406 95.894531 Z M 12.441406 94.480469 "/>
<path style=" stroke:none;fill-rule:nonzero;fill:rgb(0%,0%,0%);fill-opacity:1;" d="M 9.613281 92.839844 L 9.613281 91.796875 C 10.636719 91.148438 11.640625 90.660156 12.621094 90.335938 C 13.601562 90.015625 14.578125 89.851562 15.546875 89.851562 C 16.519531 89.851562 17.496094 90.015625 18.480469 90.335938 C 19.464844 90.660156 20.46875 91.148438 21.488281 91.796875 L 21.488281 92.839844 C 20.496094 92.261719 19.507812 91.832031 18.523438 91.546875 C 17.539062 91.261719 16.546875 91.121094 15.546875 91.121094 C 14.542969 91.121094 13.554688 91.261719 12.578125 91.546875 C 11.597656 91.832031 10.613281 92.261719 9.613281 92.839844 Z M 9.613281 92.839844 "/>
<path style="fill:none;stroke-width:1.5;stroke-linecap:square;stroke-linejoin:round;stroke:rgb(12.156863%,46.666667%,70.588237%);stroke-opacity:1;stroke-miterlimit:4;" d="M 51.498047 53.62793 L 53.279297 55.022461 L 55.060547 56.748047 L 56.841797 58.760742 L 59.217773 61.831055 L 62.185547 66.146484 L 65.748047 71.777344 L 73.467773 84.140625 L 76.438477 88.453125 L 78.811523 91.570312 L 81.1875 94.324219 L 83.563477 96.670898 L 85.344727 98.141602 L 87.125977 99.354492 L 88.907227 100.303711 L 90.688477 100.989258 L 92.469727 101.416992 L 94.250977 101.586914 L 96.032227 101.519531 L 97.813477 101.223633 L 99.594727 100.719727 L 101.970703 99.764648 L 104.34668 98.537109 L 107.314453 96.723633 L 118.59668 89.469727 L 120.972656 88.368164 L 122.753906 87.738281 L 124.535156 87.301758 L 126.316406 87.082031 L 128.097656 87.09082 L 129.878906 87.345703 L 131.660156 87.858398 L 133.441406 88.631836 L 135.222656 89.668945 L 137.003906 90.969727 L 138.785156 92.525391 L 140.566406 94.324219 L 142.942383 97.078125 L 145.318359 100.195312 L 148.286133 104.507812 L 151.848633 110.109375 L 160.163086 123.398438 L 163.130859 127.623047 L 165.506836 130.587891 L 167.288086 132.509766 L 169.069336 134.129883 L 170.850586 135.407227 L 172.037109 136.057617 L 173.226562 136.529297 L 174.413086 136.822266 L 175.602539 136.921875 L 176.789062 136.828125 L 177.975586 136.529297 L 179.165039 136.025391 L 180.351562 135.307617 L 181.538086 134.378906 L 182.727539 133.233398 L 184.508789 131.112305 L 186.290039 128.504883 L 188.071289 125.422852 L 189.852539 121.87793 L 191.633789 117.890625 L 194.009766 111.931641 L 196.382812 105.304688 L 199.353516 96.228516 L 202.916016 84.457031 L 210.041016 59.727539 L 214.198242 45.849609 L 217.166016 36.764648 L 219.541992 30.219727 L 221.323242 25.831055 L 223.104492 21.955078 L 224.885742 18.641602 L 226.666992 15.943359 L 227.856445 14.507812 L 229.042969 13.376953 " transform="matrix(1.333333,0,0,1.333333,0,0)"/>
<path style="fill:none;stroke-width:0.8;stroke-linecap:square;stroke-linejoin:miter;stroke:rgb(0%,0%,0%);stroke-opacity:1;stroke-miterlimit:4;" d="M 42.621094 143.100586 L 42.621094 7.201172 " transform="matrix(1.333333,0,0,1.333333,0,0)"/>
<path style="fill:none;stroke-width:0.8;stroke-linecap:square;stroke-linejoin:miter;stroke:rgb(0%,0%,0%);stroke-opacity:1;stroke-miterlimit:4;" d="M 237.919922 143.100586 L 237.919922 7.201172 " transform="matrix(1.333333,0,0,1.333333,0,0)"/>
<path style="fill:none;stroke-width:0.8;stroke-linecap:square;stroke-linejoin:miter;stroke:rgb(0%,0%,0%);stroke-opacity:1;stroke-miterlimit:4;" d="M 42.621094 143.100586 L 237.919922 143.100586 " transform="matrix(1.333333,0,0,1.333333,0,0)"/>
<path style="fill:none;stroke-width:0.8;stroke-linecap:square;stroke-linejoin:miter;stroke:rgb(0%,0%,0%);stroke-opacity:1;stroke-miterlimit:4;" d="M 42.621094 7.201172 L 237.919922 7.201172 " transform="matrix(1.333333,0,0,1.333333,0,0)"/>
<path style="fill:none;stroke-width:1;stroke-linecap:round;stroke-linejoin:round;stroke:rgb(0%,0%,0%);stroke-opacity:1;stroke-miterlimit:4;" d="M 99.269531 123.524414 C 97.40918 117.814453 95.660156 112.461914 94.03125 107.460938 " transform="matrix(1.333333,0,0,1.333333,0,0)"/>
<path style="fill:none;stroke-width:1;stroke-linecap:round;stroke-linejoin:round;stroke:rgb(0%,0%,0%);stroke-opacity:1;stroke-miterlimit:4;" d="M 93.369141 111.884766 L 94.03125 107.460938 L 97.171875 110.642578 " transform="matrix(1.333333,0,0,1.333333,0,0)"/>
<path style=" stroke:none;fill-rule:nonzero;fill:rgb(0%,0%,0%);fill-opacity:1;" d="M 88.128906 169.898438 L 89.328125 169.898438 L 89.328125 180.027344 L 88.128906 180.027344 Z M 88.128906 169.898438 "/>
<path style=" stroke:none;fill-rule:nonzero;fill:rgb(0%,0%,0%);fill-opacity:1;" d="M 94.660156 173.578125 C 94.015625 173.578125 93.507812 173.828125 93.136719 174.328125 C 92.761719 174.828125 92.574219 175.515625 92.574219 176.390625 C 92.574219 177.261719 92.761719 177.949219 93.132812 178.449219 C 93.503906 178.949219 94.011719 179.203125 94.660156 179.203125 C 95.296875 179.203125 95.804688 178.949219 96.175781 178.445312 C 96.550781 177.941406 96.734375 177.257812 96.734375 176.390625 C 96.734375 175.523438 96.550781 174.839844 96.175781 174.335938 C 95.804688 173.828125 95.296875 173.578125 94.660156 173.578125 Z M 94.660156 172.5625 C 95.699219 172.5625 96.519531 172.902344 97.113281 173.578125 C 97.707031 174.253906 98.007812 175.191406 98.007812 176.390625 C 98.007812 177.582031 97.707031 178.519531 97.113281 179.199219 C 96.519531 179.878906 95.699219 180.21875 94.660156 180.21875 C 93.613281 180.21875 92.792969 179.878906 92.199219 179.199219 C 91.609375 178.519531 91.3125 177.582031 91.3125 176.390625 C 91.3125 175.191406 91.609375 174.253906 92.199219 173.578125 C 92.792969 172.902344 93.613281 172.5625 94.660156 172.5625 Z M 94.660156 172.5625 "/>
<path style=" stroke:none;fill-rule:nonzero;fill:rgb(0%,0%,0%);fill-opacity:1;" d="M 105.238281 173.015625 L 105.238281 174.136719 C 104.902344 173.949219 104.5625 173.808594 104.21875 173.714844 C 103.878906 173.621094 103.535156 173.578125 103.1875 173.578125 C 102.410156 173.578125 101.808594 173.824219 101.375 174.316406 C 100.949219 174.808594 100.734375 175.5 100.734375 176.390625 C 100.734375 177.277344 100.949219 177.972656 101.375 178.464844 C 101.808594 178.957031 102.410156 179.203125 103.1875 179.203125 C 103.535156 179.203125 103.878906 179.15625 104.21875 179.0625 C 104.5625 178.96875 104.902344 178.828125 105.238281 178.640625 L 105.238281 179.75 C 104.90625 179.90625 104.558594 180.023438 104.199219 180.097656 C 103.84375 180.179688 103.460938 180.21875 103.058594 180.21875 C 101.960938 180.21875 101.085938 179.871094 100.4375 179.183594 C 99.792969 178.492188 99.46875 177.5625 99.46875 176.390625 C 99.46875 175.199219 99.796875 174.265625 100.449219 173.585938 C 101.105469 172.902344 102 172.5625 103.136719 172.5625 C 103.503906 172.5625 103.863281 172.601562 104.214844 172.675781 C 104.566406 172.75 104.910156 172.863281 105.238281 173.015625 Z M 105.238281 173.015625 "/>
<path style=" stroke:none;fill-rule:nonzero;fill:rgb(0%,0%,0%);fill-opacity:1;" d="M 110.636719 176.363281 C 109.667969 176.363281 108.996094 176.472656 108.625 176.695312 C 108.25 176.914062 108.0625 177.292969 108.0625 177.828125 C 108.0625 178.253906 108.203125 178.589844 108.484375 178.839844 C 108.765625 179.089844 109.144531 179.214844 109.625 179.214844 C 110.292969 179.214844 110.824219 178.976562 111.226562 178.507812 C 111.628906 178.035156 111.828125 177.410156 111.828125 176.628906 L 111.828125 176.363281 Z M 113.027344 175.867188 L 113.027344 180.027344 L 111.828125 180.027344 L 111.828125 178.921875 C 111.554688 179.363281 111.214844 179.691406 110.804688 179.902344 C 110.398438 180.113281 109.898438 180.21875 109.308594 180.21875 C 108.5625 180.21875 107.96875 180.007812 107.527344 179.589844 C 107.085938 179.167969 106.867188 178.609375 106.867188 177.90625 C 106.867188 177.085938 107.140625 176.46875 107.6875 176.050781 C 108.238281 175.632812 109.058594 175.425781 110.148438 175.425781 L 111.828125 175.425781 L 111.828125 175.308594 C 111.828125 174.757812 111.648438 174.328125 111.285156 174.027344 C 110.921875 173.726562 110.414062 173.578125 109.757812 173.578125 C 109.339844 173.578125 108.933594 173.625 108.539062 173.726562 C 108.144531 173.828125 107.765625 173.976562 107.402344 174.175781 L 107.402344 173.066406 C 107.839844 172.898438 108.265625 172.773438 108.675781 172.6875 C 109.089844 172.605469 109.492188 172.5625 109.878906 172.5625 C 110.9375 172.5625 111.722656 172.835938 112.246094 173.382812 C 112.765625 173.929688 113.027344 174.757812 113.027344 175.867188 Z M 113.027344 175.867188 "/>
<path style=" stroke:none;fill-rule:nonzero;fill:rgb(0%,0%,0%);fill-opacity:1;" d="M 115.492188 169.898438 L 116.691406 169.898438 L 116.691406 180.027344 L 115.492188 180.027344 Z M 115.492188 169.898438 "/>
<path style=" stroke:none;fill-rule:nonzero;fill:rgb(0%,0%,0%);fill-opacity:1;" d="M 129.113281 174.136719 C 129.414062 173.597656 129.769531 173.199219 130.1875 172.945312 C 130.605469 172.691406 131.09375 172.5625 131.660156 172.5625 C 132.417969 172.5625 133.003906 172.828125 133.417969 173.359375 C 133.828125 173.890625 134.035156 174.644531 134.035156 175.625 L 134.035156 180.027344 L 132.832031 180.027344 L 132.832031 175.664062 C 132.832031 174.96875 132.707031 174.449219 132.457031 174.113281 C 132.210938 173.773438 131.835938 173.601562 131.328125 173.601562 C 130.707031 173.601562 130.214844 173.808594 129.855469 174.222656 C 129.496094 174.632812 129.316406 175.195312 129.316406 175.90625 L 129.316406 180.027344 L 128.109375 180.027344 L 128.109375 175.664062 C 128.109375 174.964844 127.988281 174.445312 127.738281 174.109375 C 127.492188 173.773438 127.109375 173.601562 126.59375 173.601562 C 125.980469 173.601562 125.496094 173.808594 125.132812 174.222656 C 124.773438 174.636719 124.59375 175.199219 124.59375 175.90625 L 124.59375 180.027344 L 123.390625 180.027344 L 123.390625 172.738281 L 124.59375 172.738281 L 124.59375 173.871094 C 124.867188 173.421875 125.195312 173.09375 125.578125 172.878906 C 125.960938 172.667969 126.414062 172.5625 126.9375 172.5625 C 127.46875 172.5625 127.917969 172.695312 128.289062 172.964844 C 128.660156 173.234375 128.933594 173.625 129.113281 174.136719 Z M 129.113281 174.136719 "/>
<path style=" stroke:none;fill-rule:nonzero;fill:rgb(0%,0%,0%);fill-opacity:1;" d="M 136.421875 172.738281 L 137.621094 172.738281 L 137.621094 180.027344 L 136.421875 180.027344 Z M 136.421875 169.898438 L 137.621094 169.898438 L 137.621094 171.414062 L 136.421875 171.414062 Z M 136.421875 169.898438 "/>
<path style=" stroke:none;fill-rule:nonzero;fill:rgb(0%,0%,0%);fill-opacity:1;" d="M 146.191406 175.625 L 146.191406 180.027344 L 144.992188 180.027344 L 144.992188 175.664062 C 144.992188 174.976562 144.859375 174.460938 144.589844 174.117188 C 144.320312 173.773438 143.914062 173.601562 143.378906 173.601562 C 142.730469 173.601562 142.21875 173.808594 141.847656 174.222656 C 141.472656 174.632812 141.285156 175.195312 141.285156 175.90625 L 141.285156 180.027344 L 140.082031 180.027344 L 140.082031 172.738281 L 141.285156 172.738281 L 141.285156 173.871094 C 141.574219 173.429688 141.910156 173.101562 142.300781 172.886719 C 142.6875 172.671875 143.136719 172.5625 143.644531 172.5625 C 144.480469 172.5625 145.117188 172.820312 145.542969 173.339844 C 145.976562 173.855469 146.191406 174.621094 146.191406 175.625 Z M 146.191406 175.625 "/>
<path style=" stroke:none;fill-rule:nonzero;fill:rgb(0%,0%,0%);fill-opacity:1;" d="M 148.578125 172.738281 L 149.777344 172.738281 L 149.777344 180.027344 L 148.578125 180.027344 Z M 148.578125 169.898438 L 149.777344 169.898438 L 149.777344 171.414062 L 148.578125 171.414062 Z M 148.578125 169.898438 "/>
<path style=" stroke:none;fill-rule:nonzero;fill:rgb(0%,0%,0%);fill-opacity:1;" d="M 157.960938 174.136719 C 158.261719 173.597656 158.617188 173.199219 159.035156 172.945312 C 159.453125 172.691406 159.941406 172.5625 160.507812 172.5625 C 161.265625 172.5625 161.851562 172.828125 162.265625 173.359375 C 162.675781 173.890625 162.882812 174.644531 162.882812 175.625 L 162.882812 180.027344 L 161.679688 180.027344 L 161.679688 175.664062 C 161.679688 174.96875 161.554688 174.449219 161.304688 174.113281 C 161.058594 173.773438 160.683594 173.601562 160.175781 173.601562 C 159.554688 173.601562 159.0625 173.808594 158.703125 174.222656 C 158.34375 174.632812 158.164062 175.195312 158.164062 175.90625 L 158.164062 180.027344 L 156.957031 180.027344 L 156.957031 175.664062 C 156.957031 174.964844 156.835938 174.445312 156.585938 174.109375 C 156.339844 173.773438 155.957031 173.601562 155.441406 173.601562 C 154.828125 173.601562 154.34375 173.808594 153.980469 174.222656 C 153.621094 174.636719 153.441406 175.199219 153.441406 175.90625 L 153.441406 180.027344 L 152.238281 180.027344 L 152.238281 172.738281 L 153.441406 172.738281 L 153.441406 173.871094 C 153.714844 173.421875 154.042969 173.09375 154.425781 172.878906 C 154.808594 172.667969 155.261719 172.5625 155.785156 172.5625 C 156.316406 172.5625 156.765625 172.695312 157.136719 172.964844 C 157.507812 173.234375 157.78125 173.625 157.960938 174.136719 Z M 157.960938 174.136719 "/>
<path style=" stroke:none;fill-rule:nonzero;fill:rgb(0%,0%,0%);fill-opacity:1;" d="M 165.148438 177.152344 L 165.148438 172.738281 L 166.347656 172.738281 L 166.347656 177.105469 C 166.347656 177.796875 166.480469 178.3125 166.75 178.660156 C 167.019531 179.003906 167.421875 179.175781 167.960938 179.175781 C 168.605469 179.175781 169.117188 178.96875 169.492188 178.558594 C 169.867188 178.144531 170.058594 177.582031 170.058594 176.871094 L 170.058594 172.738281 L 171.253906 172.738281 L 171.253906 180.027344 L 170.058594 180.027344 L 170.058594 178.90625 C 169.765625 179.351562 169.429688 179.679688 169.042969 179.894531 C 168.660156 180.109375 168.214844 180.21875 167.707031 180.21875 C 166.871094 180.21875 166.234375 179.957031 165.796875 179.4375 C 165.363281 178.914062 165.148438 178.152344 165.148438 177.152344 Z M 168.164062 172.5625 Z M 168.164062 172.5625 "/>
<path style=" stroke:none;fill-rule:nonzero;fill:rgb(0%,0%,0%);fill-opacity:1;" d="M 179.398438 174.136719 C 179.699219 173.597656 180.058594 173.199219 180.472656 172.945312 C 180.890625 172.691406 181.382812 172.5625 181.945312 172.5625 C 182.703125 172.5625 183.289062 172.828125 183.703125 173.359375 C 184.117188 173.890625 184.320312 174.644531 184.320312 175.625 L 184.320312 180.027344 L 183.117188 180.027344 L 183.117188 175.664062 C 183.117188 174.96875 182.992188 174.449219 182.746094 174.113281 C 182.496094 173.773438 182.121094 173.601562 181.613281 173.601562 C 180.992188 173.601562 180.5 173.808594 180.140625 174.222656 C 179.78125 174.632812 179.601562 175.195312 179.601562 175.90625 L 179.601562 180.027344 L 178.398438 180.027344 L 178.398438 175.664062 C 178.398438 174.964844 178.273438 174.445312 178.027344 174.109375 C 177.777344 173.773438 177.398438 173.601562 176.878906 173.601562 C 176.269531 173.601562 175.78125 173.808594 175.417969 174.222656 C 175.058594 174.636719 174.878906 175.199219 174.878906 175.90625 L 174.878906 180.027344 L 173.675781 180.027344 L 173.675781 172.738281 L 174.878906 172.738281 L 174.878906 173.871094 C 175.152344 173.421875 175.480469 173.09375 175.863281 172.878906 C 176.246094 172.667969 176.699219 172.5625 177.222656 172.5625 C 177.753906 172.5625 178.207031 172.695312 178.574219 172.964844 C 178.945312 173.234375 179.222656 173.625 179.398438 174.136719 Z M 179.398438 174.136719 "/>
<path style="fill:none;stroke-width:1;stroke-linecap:round;stroke-linejoin:round;stroke:rgb(0%,0%,0%);stroke-opacity:1;stroke-miterlimit:4;" d="M 185.774414 67.828125 C 182.677734 88.889648 179.636719 109.579102 176.648438 129.902344 " transform="matrix(1.333333,0,0,1.333333,0,0)"/>
<path style="fill:none;stroke-width:1;stroke-linecap:round;stroke-linejoin:round;stroke:rgb(0%,0%,0%);stroke-opacity:1;stroke-miterlimit:4;" d="M 179.208984 126.237305 L 176.648438 129.902344 L 175.250977 125.654297 " transform="matrix(1.333333,0,0,1.333333,0,0)"/>
<path style=" stroke:none;fill-rule:nonzero;fill:rgb(0%,0%,0%);fill-opacity:1;" d="M 201.394531 78.625 C 201.394531 77.757812 201.214844 77.085938 200.855469 76.609375 C 200.5 76.128906 199.996094 75.890625 199.351562 75.890625 C 198.710938 75.890625 198.210938 76.128906 197.851562 76.609375 C 197.492188 77.085938 197.3125 77.757812 197.3125 78.625 C 197.3125 79.488281 197.492188 80.160156 197.851562 80.636719 C 198.210938 81.113281 198.710938 81.355469 199.351562 81.355469 C 199.996094 81.355469 200.5 81.113281 200.855469 80.636719 C 201.214844 80.160156 201.394531 79.488281 201.394531 78.625 Z M 202.59375 81.453125 C 202.59375 82.691406 202.316406 83.613281 201.765625 84.21875 C 201.214844 84.824219 200.371094 85.128906 199.234375 85.128906 C 198.8125 85.128906 198.414062 85.097656 198.042969 85.035156 C 197.667969 84.972656 197.304688 84.875 196.953125 84.746094 L 196.953125 83.582031 C 197.304688 83.769531 197.652344 83.910156 197.996094 84 C 198.339844 84.09375 198.6875 84.140625 199.042969 84.140625 C 199.832031 84.140625 200.417969 83.933594 200.808594 83.523438 C 201.199219 83.113281 201.394531 82.496094 201.394531 81.667969 L 201.394531 81.074219 C 201.148438 81.503906 200.832031 81.824219 200.445312 82.035156 C 200.058594 82.25 199.597656 82.355469 199.058594 82.355469 C 198.164062 82.355469 197.445312 82.015625 196.898438 81.335938 C 196.347656 80.652344 196.074219 79.75 196.074219 78.625 C 196.074219 77.496094 196.347656 76.59375 196.898438 75.910156 C 197.445312 75.230469 198.164062 74.890625 199.058594 74.890625 C 199.597656 74.890625 200.058594 74.996094 200.445312 75.207031 C 200.832031 75.421875 201.148438 75.742188 201.394531 76.171875 L 201.394531 75.0625 L 202.59375 75.0625 Z M 202.59375 81.453125 "/>
<path style=" stroke:none;fill-rule:nonzero;fill:rgb(0%,0%,0%);fill-opacity:1;" d="M 205.058594 72.222656 L 206.257812 72.222656 L 206.257812 82.355469 L 205.058594 82.355469 Z M 205.058594 72.222656 "/>
<path style=" stroke:none;fill-rule:nonzero;fill:rgb(0%,0%,0%);fill-opacity:1;" d="M 211.589844 75.902344 C 210.949219 75.902344 210.441406 76.152344 210.066406 76.65625 C 209.691406 77.15625 209.507812 77.84375 209.507812 78.714844 C 209.507812 79.589844 209.691406 80.273438 210.0625 80.777344 C 210.433594 81.277344 210.945312 81.527344 211.589844 81.527344 C 212.226562 81.527344 212.734375 81.277344 213.105469 80.773438 C 213.480469 80.269531 213.667969 79.585938 213.667969 78.714844 C 213.667969 77.851562 213.480469 77.167969 213.105469 76.660156 C 212.734375 76.15625 212.226562 75.902344 211.589844 75.902344 Z M 211.589844 74.890625 C 212.632812 74.890625 213.449219 75.226562 214.042969 75.90625 C 214.640625 76.582031 214.9375 77.519531 214.9375 78.714844 C 214.9375 79.910156 214.640625 80.847656 214.042969 81.527344 C 213.449219 82.207031 212.632812 82.546875 211.589844 82.546875 C 210.542969 82.546875 209.722656 82.207031 209.132812 81.527344 C 208.539062 80.847656 208.242188 79.910156 208.242188 78.714844 C 208.242188 77.519531 208.539062 76.582031 209.132812 75.90625 C 209.722656 75.226562 210.542969 74.890625 211.589844 74.890625 Z M 211.589844 74.890625 "/>
<path style=" stroke:none;fill-rule:nonzero;fill:rgb(0%,0%,0%);fill-opacity:1;" d="M 222.15625 78.714844 C 222.15625 77.835938 221.976562 77.144531 221.613281 76.644531 C 221.25 76.140625 220.753906 75.890625 220.121094 75.890625 C 219.484375 75.890625 218.988281 76.140625 218.625 76.644531 C 218.261719 77.144531 218.082031 77.835938 218.082031 78.714844 C 218.082031 79.597656 218.261719 80.289062 218.625 80.789062 C 218.988281 81.289062 219.484375 81.542969 220.121094 81.542969 C 220.753906 81.542969 221.25 81.289062 221.613281 80.789062 C 221.976562 80.289062 222.15625 79.597656 222.15625 78.714844 Z M 218.082031 76.171875 C 218.332031 75.738281 218.652344 75.414062 219.035156 75.207031 C 219.417969 74.996094 219.878906 74.890625 220.410156 74.890625 C 221.296875 74.890625 222.015625 75.242188 222.570312 75.941406 C 223.125 76.644531 223.402344 77.570312 223.402344 78.714844 C 223.402344 79.863281 223.125 80.785156 222.570312 81.492188 C 222.015625 82.195312 221.296875 82.546875 220.410156 82.546875 C 219.878906 82.546875 219.417969 82.441406 219.035156 82.230469 C 218.652344 82.015625 218.332031 81.695312 218.082031 81.261719 L 218.082031 82.355469 L 216.875 82.355469 L 216.875 72.222656 L 218.082031 72.222656 Z M 218.082031 76.171875 "/>
<path style=" stroke:none;fill-rule:nonzero;fill:rgb(0%,0%,0%);fill-opacity:1;" d="M 228.699219 78.691406 C 227.730469 78.691406 227.0625 78.800781 226.6875 79.023438 C 226.3125 79.242188 226.128906 79.621094 226.128906 80.15625 C 226.128906 80.582031 226.265625 80.917969 226.546875 81.167969 C 226.828125 81.417969 227.210938 81.542969 227.691406 81.542969 C 228.355469 81.542969 228.886719 81.304688 229.289062 80.835938 C 229.691406 80.363281 229.890625 79.738281 229.890625 78.957031 L 229.890625 78.691406 Z M 231.089844 78.195312 L 231.089844 82.355469 L 229.890625 82.355469 L 229.890625 81.25 C 229.617188 81.691406 229.277344 82.015625 228.867188 82.230469 C 228.460938 82.441406 227.960938 82.546875 227.371094 82.546875 C 226.625 82.546875 226.03125 82.335938 225.589844 81.917969 C 225.148438 81.496094 224.929688 80.933594 224.929688 80.234375 C 224.929688 79.414062 225.203125 78.796875 225.753906 78.378906 C 226.300781 77.960938 227.121094 77.753906 228.210938 77.753906 L 229.890625 77.753906 L 229.890625 77.636719 C 229.890625 77.082031 229.710938 76.65625 229.347656 76.355469 C 228.984375 76.054688 228.476562 75.902344 227.820312 75.902344 C 227.40625 75.902344 227 75.953125 226.601562 76.054688 C 226.207031 76.152344 225.828125 76.304688 225.464844 76.503906 L 225.464844 75.394531 C 225.902344 75.226562 226.328125 75.097656 226.738281 75.015625 C 227.152344 74.929688 227.554688 74.890625 227.945312 74.890625 C 229 74.890625 229.789062 75.164062 230.308594 75.710938 C 230.828125 76.253906 231.089844 77.085938 231.089844 78.195312 Z M 231.089844 78.195312 "/>
<path style=" stroke:none;fill-rule:nonzero;fill:rgb(0%,0%,0%);fill-opacity:1;" d="M 233.554688 72.222656 L 234.753906 72.222656 L 234.753906 82.355469 L 233.554688 82.355469 Z M 233.554688 72.222656 "/>
<path style=" stroke:none;fill-rule:nonzero;fill:rgb(0%,0%,0%);fill-opacity:1;" d="M 247.175781 76.464844 C 247.476562 75.925781 247.835938 75.527344 248.25 75.273438 C 248.667969 75.015625 249.15625 74.890625 249.722656 74.890625 C 250.480469 74.890625 251.066406 75.15625 251.480469 75.6875 C 251.894531 76.21875 252.097656 76.972656 252.097656 77.953125 L 252.097656 82.355469 L 250.894531 82.355469 L 250.894531 77.992188 C 250.894531 77.292969 250.769531 76.777344 250.523438 76.4375 C 250.273438 76.101562 249.898438 75.929688 249.390625 75.929688 C 248.769531 75.929688 248.277344 76.136719 247.917969 76.550781 C 247.558594 76.960938 247.378906 77.523438 247.378906 78.234375 L 247.378906 82.355469 L 246.175781 82.355469 L 246.175781 77.992188 C 246.175781 77.289062 246.050781 76.769531 245.804688 76.433594 C 245.554688 76.097656 245.175781 75.929688 244.65625 75.929688 C 244.042969 75.929688 243.558594 76.136719 243.195312 76.550781 C 242.835938 76.964844 242.65625 77.527344 242.65625 78.234375 L 242.65625 82.355469 L 241.453125 82.355469 L 241.453125 75.0625 L 242.65625 75.0625 L 242.65625 76.199219 C 242.929688 75.75 243.257812 75.421875 243.640625 75.207031 C 244.023438 74.996094 244.476562 74.890625 245 74.890625 C 245.53125 74.890625 245.980469 75.023438 246.351562 75.292969 C 246.722656 75.5625 247 75.953125 247.175781 76.464844 Z M 247.175781 76.464844 "/>
<path style=" stroke:none;fill-rule:nonzero;fill:rgb(0%,0%,0%);fill-opacity:1;" d="M 254.488281 75.0625 L 255.683594 75.0625 L 255.683594 82.355469 L 254.488281 82.355469 Z M 254.488281 72.222656 L 255.683594 72.222656 L 255.683594 73.742188 L 254.488281 73.742188 Z M 254.488281 72.222656 "/>
<path style=" stroke:none;fill-rule:nonzero;fill:rgb(0%,0%,0%);fill-opacity:1;" d="M 264.253906 77.953125 L 264.253906 82.355469 L 263.054688 82.355469 L 263.054688 77.992188 C 263.054688 77.304688 262.921875 76.785156 262.652344 76.445312 C 262.382812 76.101562 261.980469 75.929688 261.441406 75.929688 C 260.792969 75.929688 260.285156 76.136719 259.910156 76.550781 C 259.535156 76.960938 259.351562 77.523438 259.351562 78.234375 L 259.351562 82.355469 L 258.144531 82.355469 L 258.144531 75.0625 L 259.351562 75.0625 L 259.351562 76.199219 C 259.636719 75.757812 259.976562 75.429688 260.363281 75.214844 C 260.75 74.996094 261.199219 74.890625 261.707031 74.890625 C 262.546875 74.890625 263.179688 75.148438 263.609375 75.667969 C 264.039062 76.183594 264.253906 76.945312 264.253906 77.953125 Z M 264.253906 77.953125 "/>
<path style=" stroke:none;fill-rule:nonzero;fill:rgb(0%,0%,0%);fill-opacity:1;" d="M 266.640625 75.0625 L 267.839844 75.0625 L 267.839844 82.355469 L 266.640625 82.355469 Z M 266.640625 72.222656 L 267.839844 72.222656 L 267.839844 73.742188 L 266.640625 73.742188 Z M 266.640625 72.222656 "/>
<path style=" stroke:none;fill-rule:nonzero;fill:rgb(0%,0%,0%);fill-opacity:1;" d="M 276.023438 76.464844 C 276.324219 75.925781 276.683594 75.527344 277.097656 75.273438 C 277.515625 75.015625 278.003906 74.890625 278.570312 74.890625 C 279.328125 74.890625 279.914062 75.15625 280.328125 75.6875 C 280.742188 76.21875 280.945312 76.972656 280.945312 77.953125 L 280.945312 82.355469 L 279.742188 82.355469 L 279.742188 77.992188 C 279.742188 77.292969 279.617188 76.777344 279.371094 76.4375 C 279.121094 76.101562 278.746094 75.929688 278.238281 75.929688 C 277.617188 75.929688 277.125 76.136719 276.765625 76.550781 C 276.40625 76.960938 276.226562 77.523438 276.226562 78.234375 L 276.226562 82.355469 L 275.023438 82.355469 L 275.023438 77.992188 C 275.023438 77.289062 274.898438 76.769531 274.652344 76.433594 C 274.402344 76.097656 274.023438 75.929688 273.503906 75.929688 C 272.890625 75.929688 272.40625 76.136719 272.042969 76.550781 C 271.683594 76.964844 271.503906 77.527344 271.503906 78.234375 L 271.503906 82.355469 L 270.300781 82.355469 L 270.300781 75.0625 L 271.503906 75.0625 L 271.503906 76.199219 C 271.777344 75.75 272.105469 75.421875 272.488281 75.207031 C 272.871094 74.996094 273.324219 74.890625 273.847656 74.890625 C 274.378906 74.890625 274.828125 75.023438 275.199219 75.292969 C 275.570312 75.5625 275.847656 75.953125 276.023438 76.464844 Z M 276.023438 76.464844 "/>
<path style=" stroke:none;fill-rule:nonzero;fill:rgb(0%,0%,0%);fill-opacity:1;" d="M 283.210938 79.480469 L 283.210938 75.0625 L 284.410156 75.0625 L 284.410156 79.433594 C 284.410156 80.121094 284.542969 80.640625 284.8125 80.988281 C 285.082031 81.332031 285.484375 81.503906 286.023438 81.503906 C 286.671875 81.503906 287.179688 81.296875 287.554688 80.886719 C 287.933594 80.472656 288.121094 79.910156 288.121094 79.199219 L 288.121094 75.0625 L 289.316406 75.0625 L 289.316406 82.355469 L 288.121094 82.355469 L 288.121094 81.234375 C 287.828125 81.679688 287.492188 82.007812 287.109375 82.222656 C 286.722656 82.4375 286.277344 82.546875 285.769531 82.546875 C 284.933594 82.546875 284.296875 82.285156 283.863281 81.765625 C 283.429688 81.242188 283.210938 80.480469 283.210938 79.480469 Z M 286.226562 74.890625 Z M 286.226562 74.890625 "/>
<path style=" stroke:none;fill-rule:nonzero;fill:rgb(0%,0%,0%);fill-opacity:1;" d="M 297.460938 76.464844 C 297.761719 75.925781 298.121094 75.527344 298.539062 75.273438 C 298.953125 75.015625 299.445312 74.890625 300.007812 74.890625 C 300.769531 74.890625 301.355469 75.15625 301.765625 75.6875 C 302.179688 76.21875 302.386719 76.972656 302.386719 77.953125 L 302.386719 82.355469 L 301.179688 82.355469 L 301.179688 77.992188 C 301.179688 77.292969 301.058594 76.777344 300.808594 76.4375 C 300.5625 76.101562 300.183594 75.929688 299.675781 75.929688 C 299.054688 75.929688 298.566406 76.136719 298.203125 76.550781 C 297.84375 76.960938 297.664062 77.523438 297.664062 78.234375 L 297.664062 82.355469 L 296.460938 82.355469 L 296.460938 77.992188 C 296.460938 77.289062 296.335938 76.769531 296.089844 76.433594 C 295.84375 76.097656 295.460938 75.929688 294.945312 75.929688 C 294.332031 75.929688 293.84375 76.136719 293.484375 76.550781 C 293.125 76.964844 292.945312 77.527344 292.945312 78.234375 L 292.945312 82.355469 L 291.738281 82.355469 L 291.738281 75.0625 L 292.945312 75.0625 L 292.945312 76.199219 C 293.21875 75.75 293.546875 75.421875 293.925781 75.207031 C 294.308594 74.996094 294.761719 74.890625 295.289062 74.890625 C 295.816406 74.890625 296.269531 75.023438 296.640625 75.292969 C 297.011719 75.5625 297.285156 75.953125 297.460938 76.464844 Z M 297.460938 76.464844 "/>
</g>
</svg>
