<?xml version="1.0" encoding="UTF-8"?>
<svg xmlns="http://www.w3.org/2000/svg" xmlns:xlink="http://www.w3.org/1999/xlink" width="439.975016" height="244.474996" viewBox="0 0 439.975016 244.474996" version="1.1">
<defs>
<clipPath id="clip1">
  <path d="M 74 9.601562 L 77 9.601562 L 77 194.398438 L 74 194.398438 Z M 74 9.601562 "/>
</clipPath>
<clipPath id="clip2">
  <path d="M 117 9.601562 L 119 9.601562 L 119 194.398438 L 117 194.398438 Z M 117 9.601562 "/>
</clipPath>
<clipPath id="clip3">
  <path d="M 159 9.601562 L 162 9.601562 L 162 194.398438 L 159 194.398438 Z M 159 9.601562 "/>
</clipPath>
<clipPath id="clip4">
  <path d="M 202 9.601562 L 204 9.601562 L 204 194.398438 L 202 194.398438 Z M 202 9.601562 "/>
</clipPath>
<clipPath id="clip5">
  <path d="M 244 9.601562 L 247 9.601562 L 247 194.398438 L 244 194.398438 Z M 244 9.601562 "/>
</clipPath>
<clipPath id="clip6">
  <path d="M 287 9.601562 L 289 9.601562 L 289 194.398438 L 287 194.398438 Z M 287 9.601562 "/>
</clipPath>
<clipPath id="clip7">
  <path d="M 329 9.601562 L 332 9.601562 L 332 194.398438 L 329 194.398438 Z M 329 9.601562 "/>
</clipPath>
<clipPath id="clip8">
  <path d="M 372 9.601562 L 374 9.601562 L 374 194.398438 L 372 194.398438 Z M 372 9.601562 "/>
</clipPath>
<clipPath id="clip9">
  <path d="M 414 9.601562 L 417 9.601562 L 417 194.398438 L 414 194.398438 Z M 414 9.601562 "/>
</clipPath>
<clipPath id="clip10">
  <path d="M 58.375 185 L 430.375 185 L 430.375 187 L 58.375 187 Z M 58.375 185 "/>
</clipPath>
<clipPath id="clip11">
  <path d="M 58.375 151 L 430.375 151 L 430.375 154 L 58.375 154 Z M 58.375 151 "/>
</clipPath>
<clipPath id="clip12">
  <path d="M 58.375 118 L 430.375 118 L 430.375 120 L 58.375 120 Z M 58.375 118 "/>
</clipPath>
<clipPath id="clip13">
  <path d="M 58.375 84 L 430.375 84 L 430.375 86 L 58.375 86 Z M 58.375 84 "/>
</clipPath>
<clipPath id="clip14">
  <path d="M 58.375 50 L 430.375 50 L 430.375 53 L 58.375 53 Z M 58.375 50 "/>
</clipPath>
<clipPath id="clip15">
  <path d="M 58.375 17 L 430.375 17 L 430.375 19 L 58.375 19 Z M 58.375 17 "/>
</clipPath>
</defs>
<g id="surface1">
<path style=" stroke:none;fill-rule:nonzero;fill:rgb(100%,100%,100%);fill-opacity:1;" d="M 0 244.476562 L 439.976562 244.476562 L 439.976562 0 L 0 0 Z M 0 244.476562 "/>
<path style=" stroke:none;fill-rule:nonzero;fill:rgb(100%,100%,100%);fill-opacity:1;" d="M 58.375 194.398438 L 430.375 194.398438 L 430.375 9.601562 L 58.375 9.601562 Z M 58.375 194.398438 "/>
<g clip-path="url(#clip1)" clip-rule="nonzero">
<path style="fill:none;stroke-width:0.8;stroke-linecap:square;stroke-linejoin:round;stroke:rgb(69.01961%,69.01961%,69.01961%);stroke-opacity:1;stroke-miterlimit:4;" d="M 56.463867 145.798828 L 56.463867 7.201172 " transform="matrix(1.333333,0,0,1.333333,-0.000000000000028422,-0.000000000000014211)"/>
</g>
<path style="fill:none;stroke-width:0.8;stroke-linecap:butt;stroke-linejoin:round;stroke:rgb(0%,0%,0%);stroke-opacity:1;stroke-miterlimit:4;" d="M 0.000801086 -0.00117493 L 0.000801086 3.499802 " transform="matrix(1.333333,0,0,1.333333,75.284088,194.400004)"/>
<path style=" stroke:none;fill-rule:nonzero;fill:rgb(0%,0%,0%);fill-opacity:1;" d="M 66.867188 209.132812 L 75.214844 209.132812 L 75.214844 210.238281 L 66.867188 210.238281 Z M 66.867188 209.132812 "/>
<path style=" stroke:none;fill-rule:nonzero;fill:rgb(0%,0%,0%);fill-opacity:1;" d="M 80.867188 209.246094 C 80.242188 209.246094 79.75 209.414062 79.390625 209.75 C 79.035156 210.085938 78.855469 210.542969 78.855469 211.128906 C 78.855469 211.714844 79.035156 212.175781 79.390625 212.511719 C 79.75 212.84375 80.242188 213.011719 80.867188 213.011719 C 81.492188 213.011719 81.984375 212.84375 82.34375 212.507812 C 82.703125 212.171875 82.882812 211.710938 82.882812 211.128906 C 82.882812 210.542969 82.703125 210.085938 82.347656 209.75 C 81.988281 209.414062 81.496094 209.246094 80.867188 209.246094 Z M 79.550781 208.691406 C 78.988281 208.550781 78.546875 208.289062 78.230469 207.902344 C 77.917969 207.515625 77.761719 207.042969 77.761719 206.488281 C 77.761719 205.710938 78.039062 205.097656 78.589844 204.644531 C 79.144531 204.195312 79.902344 203.96875 80.867188 203.96875 C 81.832031 203.96875 82.59375 204.195312 83.144531 204.644531 C 83.695312 205.097656 83.972656 205.710938 83.972656 206.488281 C 83.972656 207.042969 83.8125 207.515625 83.5 207.902344 C 83.183594 208.289062 82.746094 208.550781 82.1875 208.691406 C 82.820312 208.835938 83.316406 209.125 83.667969 209.554688 C 84.023438 209.984375 84.199219 210.507812 84.199219 211.128906 C 84.199219 212.070312 83.910156 212.796875 83.335938 213.300781 C 82.761719 213.804688 81.9375 214.054688 80.867188 214.054688 C 79.792969 214.054688 78.972656 213.804688 78.394531 213.300781 C 77.820312 212.796875 77.53125 212.070312 77.53125 211.128906 C 77.53125 210.507812 77.710938 209.984375 78.066406 209.554688 C 78.421875 209.125 78.917969 208.835938 79.550781 208.691406 Z M 79.070312 206.613281 C 79.070312 207.117188 79.226562 207.507812 79.539062 207.789062 C 79.855469 208.070312 80.296875 208.210938 80.867188 208.210938 C 81.429688 208.210938 81.871094 208.070312 82.191406 207.789062 C 82.511719 207.507812 82.667969 207.117188 82.667969 206.613281 C 82.667969 206.109375 82.511719 205.714844 82.191406 205.433594 C 81.871094 205.152344 81.429688 205.011719 80.867188 205.011719 C 80.296875 205.011719 79.855469 205.152344 79.539062 205.433594 C 79.226562 205.714844 79.070312 206.109375 79.070312 206.613281 Z M 79.070312 206.613281 "/>
<g clip-path="url(#clip2)" clip-rule="nonzero">
<path style="fill:none;stroke-width:0.8;stroke-linecap:square;stroke-linejoin:round;stroke:rgb(69.01961%,69.01961%,69.01961%);stroke-opacity:1;stroke-miterlimit:4;" d="M 88.368164 145.798828 L 88.368164 7.201172 " transform="matrix(1.333333,0,0,1.333333,-0.000000000000028422,-0.000000000000014211)"/>
</g>
<path style="fill:none;stroke-width:0.8;stroke-linecap:butt;stroke-linejoin:round;stroke:rgb(0%,0%,0%);stroke-opacity:1;stroke-miterlimit:4;" d="M 0.00115204 -0.00117493 L 0.00115204 3.499802 " transform="matrix(1.333333,0,0,1.333333,117.822683,194.400004)"/>
<path style=" stroke:none;fill-rule:nonzero;fill:rgb(0%,0%,0%);fill-opacity:1;" d="M 109.40625 209.132812 L 117.753906 209.132812 L 117.753906 210.238281 L 109.40625 210.238281 Z M 109.40625 209.132812 "/>
<path style=" stroke:none;fill-rule:nonzero;fill:rgb(0%,0%,0%);fill-opacity:1;" d="M 123.570312 208.480469 C 122.976562 208.480469 122.511719 208.683594 122.164062 209.085938 C 121.820312 209.492188 121.648438 210.042969 121.648438 210.746094 C 121.648438 211.445312 121.820312 211.996094 122.164062 212.402344 C 122.511719 212.808594 122.976562 213.011719 123.570312 213.011719 C 124.160156 213.011719 124.625 212.808594 124.96875 212.402344 C 125.316406 211.996094 125.488281 211.445312 125.488281 210.746094 C 125.488281 210.042969 125.316406 209.492188 124.96875 209.085938 C 124.625 208.683594 124.160156 208.480469 123.570312 208.480469 Z M 126.179688 204.359375 L 126.179688 205.554688 C 125.847656 205.402344 125.515625 205.28125 125.179688 205.199219 C 124.84375 205.117188 124.507812 205.074219 124.179688 205.074219 C 123.3125 205.074219 122.648438 205.367188 122.1875 205.953125 C 121.730469 206.539062 121.472656 207.425781 121.40625 208.609375 C 121.660156 208.234375 121.980469 207.941406 122.367188 207.742188 C 122.757812 207.539062 123.183594 207.441406 123.644531 207.441406 C 124.621094 207.441406 125.394531 207.734375 125.960938 208.328125 C 126.527344 208.921875 126.808594 209.726562 126.808594 210.746094 C 126.808594 211.746094 126.515625 212.546875 125.925781 213.148438 C 125.335938 213.753906 124.550781 214.054688 123.570312 214.054688 C 122.445312 214.054688 121.582031 213.625 120.988281 212.761719 C 120.394531 211.898438 120.097656 210.652344 120.097656 209.015625 C 120.097656 207.476562 120.460938 206.253906 121.191406 205.339844 C 121.921875 204.425781 122.898438 203.96875 124.125 203.96875 C 124.457031 203.96875 124.789062 204 125.125 204.066406 C 125.464844 204.132812 125.8125 204.230469 126.179688 204.359375 Z M 126.179688 204.359375 "/>
<g clip-path="url(#clip3)" clip-rule="nonzero">
<path style="fill:none;stroke-width:0.8;stroke-linecap:square;stroke-linejoin:round;stroke:rgb(69.01961%,69.01961%,69.01961%);stroke-opacity:1;stroke-miterlimit:4;" d="M 120.269531 145.798828 L 120.269531 7.201172 " transform="matrix(1.333333,0,0,1.333333,-0.000000000000028422,-0.000000000000014211)"/>
</g>
<path style="fill:none;stroke-width:0.8;stroke-linecap:butt;stroke-linejoin:round;stroke:rgb(0%,0%,0%);stroke-opacity:1;stroke-miterlimit:4;" d="M -0.0014267 -0.00117493 L -0.0014267 3.499802 " transform="matrix(1.333333,0,0,1.333333,160.361277,194.400004)"/>
<path style=" stroke:none;fill-rule:nonzero;fill:rgb(0%,0%,0%);fill-opacity:1;" d="M 151.945312 209.132812 L 160.292969 209.132812 L 160.292969 210.238281 L 151.945312 210.238281 Z M 151.945312 209.132812 "/>
<path style=" stroke:none;fill-rule:nonzero;fill:rgb(0%,0%,0%);fill-opacity:1;" d="M 166.746094 205.289062 L 163.421875 210.480469 L 166.746094 210.480469 Z M 166.398438 204.144531 L 168.054688 204.144531 L 168.054688 210.480469 L 169.441406 210.480469 L 169.441406 211.574219 L 168.054688 211.574219 L 168.054688 213.863281 L 166.746094 213.863281 L 166.746094 211.574219 L 162.355469 211.574219 L 162.355469 210.304688 Z M 166.398438 204.144531 "/>
<g clip-path="url(#clip4)" clip-rule="nonzero">
<path style="fill:none;stroke-width:0.8;stroke-linecap:square;stroke-linejoin:round;stroke:rgb(69.01961%,69.01961%,69.01961%);stroke-opacity:1;stroke-miterlimit:4;" d="M 152.173828 145.798828 L 152.173828 7.201172 " transform="matrix(1.333333,0,0,1.333333,-0.000000000000028422,-0.000000000000014211)"/>
</g>
<path style="fill:none;stroke-width:0.8;stroke-linecap:butt;stroke-linejoin:round;stroke:rgb(0%,0%,0%);stroke-opacity:1;stroke-miterlimit:4;" d="M -0.00106812 -0.00117493 L -0.00106812 3.499802 " transform="matrix(1.333333,0,0,1.333333,202.899862,194.400004)"/>
<path style=" stroke:none;fill-rule:nonzero;fill:rgb(0%,0%,0%);fill-opacity:1;" d="M 194.484375 209.132812 L 202.828125 209.132812 L 202.828125 210.238281 L 194.484375 210.238281 Z M 194.484375 209.132812 "/>
<path style=" stroke:none;fill-rule:nonzero;fill:rgb(0%,0%,0%);fill-opacity:1;" d="M 206.800781 212.757812 L 211.390625 212.757812 L 211.390625 213.863281 L 205.21875 213.863281 L 205.21875 212.757812 C 205.71875 212.242188 206.398438 211.546875 207.261719 210.679688 C 208.121094 209.808594 208.664062 209.246094 208.886719 208.992188 C 209.304688 208.523438 209.601562 208.121094 209.765625 207.792969 C 209.933594 207.464844 210.019531 207.144531 210.019531 206.828125 C 210.019531 206.308594 209.835938 205.890625 209.476562 205.566406 C 209.113281 205.238281 208.640625 205.074219 208.058594 205.074219 C 207.644531 205.074219 207.210938 205.148438 206.75 205.289062 C 206.296875 205.433594 205.804688 205.648438 205.285156 205.941406 L 205.285156 204.613281 C 205.8125 204.398438 206.308594 204.238281 206.769531 204.132812 C 207.230469 204.023438 207.652344 203.96875 208.03125 203.96875 C 209.039062 203.96875 209.84375 204.222656 210.441406 204.726562 C 211.039062 205.226562 211.339844 205.898438 211.339844 206.742188 C 211.339844 207.140625 211.265625 207.519531 211.113281 207.878906 C 210.964844 208.234375 210.695312 208.65625 210.296875 209.144531 C 210.1875 209.269531 209.84375 209.632812 209.261719 210.234375 C 208.683594 210.835938 207.863281 211.679688 206.800781 212.757812 Z M 206.800781 212.757812 "/>
<g clip-path="url(#clip5)" clip-rule="nonzero">
<path style="fill:none;stroke-width:0.8;stroke-linecap:square;stroke-linejoin:round;stroke:rgb(69.01961%,69.01961%,69.01961%);stroke-opacity:1;stroke-miterlimit:4;" d="M 184.078125 145.798828 L 184.078125 7.201172 " transform="matrix(1.333333,0,0,1.333333,-0.000000000000028422,-0.000000000000014211)"/>
</g>
<path style="fill:none;stroke-width:0.8;stroke-linecap:butt;stroke-linejoin:round;stroke:rgb(0%,0%,0%);stroke-opacity:1;stroke-miterlimit:4;" d="M -0.000717163 -0.00117493 L -0.000717163 3.499802 " transform="matrix(1.333333,0,0,1.333333,245.438456,194.400004)"/>
<path style=" stroke:none;fill-rule:nonzero;fill:rgb(0%,0%,0%);fill-opacity:1;" d="M 245.433594 205.011719 C 244.757812 205.011719 244.25 205.34375 243.90625 206.011719 C 243.566406 206.675781 243.398438 207.675781 243.398438 209.015625 C 243.398438 210.347656 243.566406 211.347656 243.90625 212.011719 C 244.25 212.679688 244.757812 213.011719 245.433594 213.011719 C 246.117188 213.011719 246.628906 212.679688 246.96875 212.011719 C 247.308594 211.347656 247.480469 210.347656 247.480469 209.015625 C 247.480469 207.675781 247.308594 206.675781 246.96875 206.011719 C 246.628906 205.34375 246.117188 205.011719 245.433594 205.011719 Z M 245.433594 203.96875 C 246.523438 203.96875 247.355469 204.398438 247.933594 205.261719 C 248.507812 206.125 248.792969 207.375 248.792969 209.015625 C 248.792969 210.652344 248.507812 211.898438 247.933594 212.761719 C 247.355469 213.625 246.523438 214.054688 245.433594 214.054688 C 244.34375 214.054688 243.511719 213.625 242.9375 212.761719 C 242.363281 211.898438 242.074219 210.652344 242.074219 209.015625 C 242.074219 207.375 242.363281 206.125 242.9375 205.261719 C 243.511719 204.398438 244.34375 203.96875 245.433594 203.96875 Z M 245.433594 203.96875 "/>
<g clip-path="url(#clip6)" clip-rule="nonzero">
<path style="fill:none;stroke-width:0.8;stroke-linecap:square;stroke-linejoin:round;stroke:rgb(69.01961%,69.01961%,69.01961%);stroke-opacity:1;stroke-miterlimit:4;" d="M 215.982422 145.798828 L 215.982422 7.201172 " transform="matrix(1.333333,0,0,1.333333,-0.000000000000028422,-0.000000000000014211)"/>
</g>
<path style="fill:none;stroke-width:0.8;stroke-linecap:butt;stroke-linejoin:round;stroke:rgb(0%,0%,0%);stroke-opacity:1;stroke-miterlimit:4;" d="M -0.000366211 -0.00117493 L -0.000366211 3.499802 " transform="matrix(1.333333,0,0,1.333333,287.977051,194.400004)"/>
<path style=" stroke:none;fill-rule:nonzero;fill:rgb(0%,0%,0%);fill-opacity:1;" d="M 286.292969 212.757812 L 290.882812 212.757812 L 290.882812 213.863281 L 284.710938 213.863281 L 284.710938 212.757812 C 285.210938 212.242188 285.890625 211.546875 286.753906 210.679688 C 287.613281 209.808594 288.15625 209.246094 288.378906 208.992188 C 288.796875 208.523438 289.089844 208.121094 289.257812 207.792969 C 289.425781 207.464844 289.511719 207.144531 289.511719 206.828125 C 289.511719 206.308594 289.328125 205.890625 288.964844 205.566406 C 288.605469 205.238281 288.132812 205.074219 287.550781 205.074219 C 287.136719 205.074219 286.703125 205.148438 286.242188 205.289062 C 285.785156 205.433594 285.296875 205.648438 284.777344 205.941406 L 284.777344 204.613281 C 285.304688 204.398438 285.800781 204.238281 286.261719 204.132812 C 286.722656 204.023438 287.144531 203.96875 287.523438 203.96875 C 288.53125 203.96875 289.335938 204.222656 289.933594 204.726562 C 290.53125 205.226562 290.832031 205.898438 290.832031 206.742188 C 290.832031 207.140625 290.757812 207.519531 290.605469 207.878906 C 290.457031 208.234375 290.183594 208.65625 289.789062 209.144531 C 289.679688 209.269531 289.335938 209.632812 288.753906 210.234375 C 288.171875 210.835938 287.351562 211.679688 286.292969 212.757812 Z M 286.292969 212.757812 "/>
<g clip-path="url(#clip7)" clip-rule="nonzero">
<path style="fill:none;stroke-width:0.8;stroke-linecap:square;stroke-linejoin:round;stroke:rgb(69.01961%,69.01961%,69.01961%);stroke-opacity:1;stroke-miterlimit:4;" d="M 247.886719 145.798828 L 247.886719 7.201172 " transform="matrix(1.333333,0,0,1.333333,-0.000000000000028422,-0.000000000000014211)"/>
</g>
<path style="fill:none;stroke-width:0.8;stroke-linecap:butt;stroke-linejoin:round;stroke:rgb(0%,0%,0%);stroke-opacity:1;stroke-miterlimit:4;" d="M -0.0000152588 -0.00117493 L -0.0000152588 3.499802 " transform="matrix(1.333333,0,0,1.333333,330.515645,194.400004)"/>
<path style=" stroke:none;fill-rule:nonzero;fill:rgb(0%,0%,0%);fill-opacity:1;" d="M 331.3125 205.289062 L 327.992188 210.480469 L 331.3125 210.480469 Z M 330.96875 204.144531 L 332.621094 204.144531 L 332.621094 210.480469 L 334.007812 210.480469 L 334.007812 211.574219 L 332.621094 211.574219 L 332.621094 213.863281 L 331.3125 213.863281 L 331.3125 211.574219 L 326.925781 211.574219 L 326.925781 210.304688 Z M 330.96875 204.144531 "/>
<g clip-path="url(#clip8)" clip-rule="nonzero">
<path style="fill:none;stroke-width:0.8;stroke-linecap:square;stroke-linejoin:round;stroke:rgb(69.01961%,69.01961%,69.01961%);stroke-opacity:1;stroke-miterlimit:4;" d="M 279.791016 145.798828 L 279.791016 7.201172 " transform="matrix(1.333333,0,0,1.333333,-0.000000000000028422,-0.000000000000014211)"/>
</g>
<path style="fill:none;stroke-width:0.8;stroke-linecap:butt;stroke-linejoin:round;stroke:rgb(0%,0%,0%);stroke-opacity:1;stroke-miterlimit:4;" d="M 0.000335693 -0.00117493 L 0.000335693 3.499802 " transform="matrix(1.333333,0,0,1.333333,373.05424,194.400004)"/>
<path style=" stroke:none;fill-rule:nonzero;fill:rgb(0%,0%,0%);fill-opacity:1;" d="M 373.214844 208.480469 C 372.625 208.480469 372.15625 208.683594 371.808594 209.085938 C 371.464844 209.492188 371.292969 210.042969 371.292969 210.746094 C 371.292969 211.445312 371.464844 211.996094 371.808594 212.402344 C 372.15625 212.808594 372.625 213.011719 373.214844 213.011719 C 373.804688 213.011719 374.273438 212.808594 374.617188 212.402344 C 374.960938 211.996094 375.132812 211.445312 375.132812 210.746094 C 375.132812 210.042969 374.960938 209.492188 374.617188 209.085938 C 374.273438 208.683594 373.804688 208.480469 373.214844 208.480469 Z M 375.824219 204.359375 L 375.824219 205.554688 C 375.496094 205.402344 375.160156 205.28125 374.824219 205.199219 C 374.488281 205.117188 374.15625 205.074219 373.824219 205.074219 C 372.957031 205.074219 372.292969 205.367188 371.835938 205.953125 C 371.378906 206.539062 371.117188 207.425781 371.050781 208.609375 C 371.308594 208.234375 371.628906 207.941406 372.015625 207.742188 C 372.402344 207.539062 372.828125 207.441406 373.292969 207.441406 C 374.269531 207.441406 375.039062 207.734375 375.605469 208.328125 C 376.171875 208.921875 376.457031 209.726562 376.457031 210.746094 C 376.457031 211.746094 376.160156 212.546875 375.570312 213.148438 C 374.980469 213.753906 374.195312 214.054688 373.214844 214.054688 C 372.089844 214.054688 371.230469 213.625 370.636719 212.761719 C 370.042969 211.898438 369.742188 210.652344 369.742188 209.015625 C 369.742188 207.476562 370.109375 206.253906 370.835938 205.339844 C 371.566406 204.425781 372.546875 203.96875 373.773438 203.96875 C 374.105469 203.96875 374.4375 204 374.773438 204.066406 C 375.109375 204.132812 375.460938 204.230469 375.824219 204.359375 Z M 375.824219 204.359375 "/>
<g clip-path="url(#clip9)" clip-rule="nonzero">
<path style="fill:none;stroke-width:0.8;stroke-linecap:square;stroke-linejoin:round;stroke:rgb(69.01961%,69.01961%,69.01961%);stroke-opacity:1;stroke-miterlimit:4;" d="M 311.695312 145.798828 L 311.695312 7.201172 " transform="matrix(1.333333,0,0,1.333333,-0.000000000000028422,-0.000000000000014211)"/>
</g>
<path style="fill:none;stroke-width:0.8;stroke-linecap:butt;stroke-linejoin:round;stroke:rgb(0%,0%,0%);stroke-opacity:1;stroke-miterlimit:4;" d="M 0.000701904 -0.00117493 L 0.000701904 3.499802 " transform="matrix(1.333333,0,0,1.333333,415.592814,194.400004)"/>
<path style=" stroke:none;fill-rule:nonzero;fill:rgb(0%,0%,0%);fill-opacity:1;" d="M 415.589844 209.246094 C 414.964844 209.246094 414.472656 209.414062 414.113281 209.75 C 413.757812 210.085938 413.578125 210.542969 413.578125 211.128906 C 413.578125 211.714844 413.757812 212.175781 414.113281 212.511719 C 414.472656 212.84375 414.964844 213.011719 415.589844 213.011719 C 416.214844 213.011719 416.707031 212.84375 417.066406 212.507812 C 417.425781 212.171875 417.605469 211.710938 417.605469 211.128906 C 417.605469 210.542969 417.429688 210.085938 417.070312 209.75 C 416.714844 209.414062 416.21875 209.246094 415.589844 209.246094 Z M 414.273438 208.691406 C 413.710938 208.550781 413.269531 208.289062 412.957031 207.902344 C 412.640625 207.515625 412.484375 207.042969 412.484375 206.488281 C 412.484375 205.710938 412.761719 205.097656 413.3125 204.644531 C 413.867188 204.195312 414.625 203.96875 415.589844 203.96875 C 416.558594 203.96875 417.316406 204.195312 417.867188 204.644531 C 418.417969 205.097656 418.695312 205.710938 418.695312 206.488281 C 418.695312 207.042969 418.539062 207.515625 418.222656 207.902344 C 417.90625 208.289062 417.472656 208.550781 416.910156 208.691406 C 417.542969 208.835938 418.039062 209.125 418.390625 209.554688 C 418.746094 209.984375 418.921875 210.507812 418.921875 211.128906 C 418.921875 212.070312 418.632812 212.796875 418.058594 213.300781 C 417.484375 213.804688 416.660156 214.054688 415.589844 214.054688 C 414.519531 214.054688 413.695312 213.804688 413.117188 213.300781 C 412.542969 212.796875 412.253906 212.070312 412.253906 211.128906 C 412.253906 210.507812 412.433594 209.984375 412.789062 209.554688 C 413.144531 209.125 413.640625 208.835938 414.273438 208.691406 Z M 413.792969 206.613281 C 413.792969 207.117188 413.949219 207.507812 414.261719 207.789062 C 414.578125 208.070312 415.019531 208.210938 415.589844 208.210938 C 416.152344 208.210938 416.59375 208.070312 416.914062 207.789062 C 417.234375 207.507812 417.394531 207.117188 417.394531 206.613281 C 417.394531 206.109375 417.234375 205.714844 416.914062 205.433594 C 416.59375 205.152344 416.152344 205.011719 415.589844 205.011719 C 415.019531 205.011719 414.578125 205.152344 414.261719 205.433594 C 413.949219 205.714844 413.792969 206.109375 413.792969 206.613281 Z M 413.792969 206.613281 "/>
<path style=" stroke:none;fill-rule:nonzero;fill:rgb(0%,0%,0%);fill-opacity:1;" d="M 247.746094 224.808594 L 245.109375 228.359375 L 247.882812 232.101562 L 246.472656 232.101562 L 244.347656 229.238281 L 242.226562 232.101562 L 240.8125 232.101562 L 243.644531 228.289062 L 241.054688 224.808594 L 242.464844 224.808594 L 244.398438 227.410156 L 246.332031 224.808594 Z M 247.746094 224.808594 "/>
<g clip-path="url(#clip10)" clip-rule="nonzero">
<path style="fill:none;stroke-width:0.8;stroke-linecap:square;stroke-linejoin:round;stroke:rgb(69.01961%,69.01961%,69.01961%);stroke-opacity:1;stroke-miterlimit:4;" d="M 43.78125 139.541016 L 322.78125 139.541016 " transform="matrix(1.333333,0,0,1.333333,-0.000000000000028422,-0.000000000000014211)"/>
</g>
<path style="fill:none;stroke-width:0.8;stroke-linecap:butt;stroke-linejoin:round;stroke:rgb(0%,0%,0%);stroke-opacity:1;stroke-miterlimit:4;" d="M 0.000000000000014211 -0.00126648 L -3.500977 -0.00126648 " transform="matrix(1.333333,0,0,1.333333,58.375,186.056376)"/>
<path style=" stroke:none;fill-rule:nonzero;fill:rgb(0%,0%,0%);fill-opacity:1;" d="M 32.074219 182.269531 C 31.398438 182.269531 30.890625 182.601562 30.546875 183.269531 C 30.207031 183.933594 30.039062 184.933594 30.039062 186.273438 C 30.039062 187.605469 30.207031 188.601562 30.546875 189.269531 C 30.890625 189.9375 31.398438 190.269531 32.074219 190.269531 C 32.757812 190.269531 33.269531 189.9375 33.609375 189.269531 C 33.949219 188.601562 34.121094 187.605469 34.121094 186.273438 C 34.121094 184.933594 33.949219 183.933594 33.609375 183.269531 C 33.269531 182.601562 32.757812 182.269531 32.074219 182.269531 Z M 32.074219 181.226562 C 33.164062 181.226562 33.996094 181.65625 34.574219 182.519531 C 35.148438 183.382812 35.433594 184.632812 35.433594 186.273438 C 35.433594 187.90625 35.148438 189.15625 34.574219 190.019531 C 33.996094 190.882812 33.164062 191.3125 32.074219 191.3125 C 30.984375 191.3125 30.152344 190.882812 29.578125 190.019531 C 29.003906 189.15625 28.714844 187.90625 28.714844 186.273438 C 28.714844 184.632812 29.003906 183.382812 29.578125 182.519531 C 30.152344 181.65625 30.984375 181.226562 32.074219 181.226562 Z M 32.074219 181.226562 "/>
<path style=" stroke:none;fill-rule:nonzero;fill:rgb(0%,0%,0%);fill-opacity:1;" d="M 37.746094 189.46875 L 39.121094 189.46875 L 39.121094 191.121094 L 37.746094 191.121094 Z M 37.746094 189.46875 "/>
<path style=" stroke:none;fill-rule:nonzero;fill:rgb(0%,0%,0%);fill-opacity:1;" d="M 44.796875 182.269531 C 44.121094 182.269531 43.609375 182.601562 43.269531 183.269531 C 42.929688 183.933594 42.757812 184.933594 42.757812 186.273438 C 42.757812 187.605469 42.929688 188.601562 43.269531 189.269531 C 43.609375 189.9375 44.121094 190.269531 44.796875 190.269531 C 45.476562 190.269531 45.988281 189.9375 46.328125 189.269531 C 46.671875 188.601562 46.84375 187.605469 46.84375 186.273438 C 46.84375 184.933594 46.671875 183.933594 46.328125 183.269531 C 45.988281 182.601562 45.476562 182.269531 44.796875 182.269531 Z M 44.796875 181.226562 C 45.886719 181.226562 46.71875 181.65625 47.292969 182.519531 C 47.871094 183.382812 48.15625 184.632812 48.15625 186.273438 C 48.15625 187.90625 47.871094 189.15625 47.292969 190.019531 C 46.71875 190.882812 45.886719 191.3125 44.796875 191.3125 C 43.707031 191.3125 42.875 190.882812 42.300781 190.019531 C 41.726562 189.15625 41.4375 187.90625 41.4375 186.273438 C 41.4375 184.632812 41.726562 183.382812 42.300781 182.519531 C 42.875 181.65625 43.707031 181.226562 44.796875 181.226562 Z M 44.796875 181.226562 "/>
<g clip-path="url(#clip11)" clip-rule="nonzero">
<path style="fill:none;stroke-width:0.8;stroke-linecap:square;stroke-linejoin:round;stroke:rgb(69.01961%,69.01961%,69.01961%);stroke-opacity:1;stroke-miterlimit:4;" d="M 43.78125 114.325195 L 322.78125 114.325195 " transform="matrix(1.333333,0,0,1.333333,-0.000000000000028422,-0.000000000000014211)"/>
</g>
<path style="fill:none;stroke-width:0.8;stroke-linecap:butt;stroke-linejoin:round;stroke:rgb(0%,0%,0%);stroke-opacity:1;stroke-miterlimit:4;" d="M 0.000000000000014211 0.000717163 L -3.500977 0.000717163 " transform="matrix(1.333333,0,0,1.333333,58.375,152.432638)"/>
<path style=" stroke:none;fill-rule:nonzero;fill:rgb(0%,0%,0%);fill-opacity:1;" d="M 32.074219 148.644531 C 31.398438 148.644531 30.890625 148.976562 30.546875 149.644531 C 30.207031 150.308594 30.039062 151.3125 30.039062 152.648438 C 30.039062 153.980469 30.207031 154.980469 30.546875 155.644531 C 30.890625 156.3125 31.398438 156.644531 32.074219 156.644531 C 32.757812 156.644531 33.269531 156.3125 33.609375 155.644531 C 33.949219 154.980469 34.121094 153.980469 34.121094 152.648438 C 34.121094 151.3125 33.949219 150.308594 33.609375 149.644531 C 33.269531 148.976562 32.757812 148.644531 32.074219 148.644531 Z M 32.074219 147.601562 C 33.164062 147.601562 33.996094 148.035156 34.574219 148.894531 C 35.148438 149.757812 35.433594 151.007812 35.433594 152.648438 C 35.433594 154.285156 35.148438 155.535156 34.574219 156.394531 C 33.996094 157.257812 33.164062 157.6875 32.074219 157.6875 C 30.984375 157.6875 30.152344 157.257812 29.578125 156.394531 C 29.003906 155.535156 28.714844 154.285156 28.714844 152.648438 C 28.714844 151.007812 29.003906 149.757812 29.578125 148.894531 C 30.152344 148.035156 30.984375 147.601562 32.074219 147.601562 Z M 32.074219 147.601562 "/>
<path style=" stroke:none;fill-rule:nonzero;fill:rgb(0%,0%,0%);fill-opacity:1;" d="M 37.746094 155.84375 L 39.121094 155.84375 L 39.121094 157.5 L 37.746094 157.5 Z M 37.746094 155.84375 "/>
<path style=" stroke:none;fill-rule:nonzero;fill:rgb(0%,0%,0%);fill-opacity:1;" d="M 43.117188 156.390625 L 47.707031 156.390625 L 47.707031 157.5 L 41.535156 157.5 L 41.535156 156.390625 C 42.035156 155.875 42.714844 155.183594 43.574219 154.3125 C 44.4375 153.441406 44.980469 152.878906 45.199219 152.628906 C 45.621094 152.15625 45.914062 151.753906 46.082031 151.425781 C 46.25 151.101562 46.332031 150.777344 46.332031 150.460938 C 46.332031 149.945312 46.152344 149.523438 45.789062 149.199219 C 45.425781 148.871094 44.957031 148.707031 44.375 148.707031 C 43.960938 148.707031 43.527344 148.78125 43.066406 148.921875 C 42.609375 149.066406 42.121094 149.285156 41.601562 149.574219 L 41.601562 148.246094 C 42.128906 148.035156 42.625 147.875 43.082031 147.765625 C 43.546875 147.65625 43.964844 147.601562 44.347656 147.601562 C 45.355469 147.601562 46.15625 147.855469 46.757812 148.359375 C 47.355469 148.863281 47.65625 149.535156 47.65625 150.375 C 47.65625 150.773438 47.578125 151.15625 47.429688 151.511719 C 47.28125 151.871094 47.007812 152.292969 46.613281 152.777344 C 46.503906 152.902344 46.160156 153.269531 45.578125 153.867188 C 44.996094 154.46875 44.175781 155.3125 43.117188 156.390625 Z M 43.117188 156.390625 "/>
<g clip-path="url(#clip12)" clip-rule="nonzero">
<path style="fill:none;stroke-width:0.8;stroke-linecap:square;stroke-linejoin:round;stroke:rgb(69.01961%,69.01961%,69.01961%);stroke-opacity:1;stroke-miterlimit:4;" d="M 43.78125 89.106445 L 322.78125 89.106445 " transform="matrix(1.333333,0,0,1.333333,-0.000000000000028422,-0.000000000000014211)"/>
</g>
<path style="fill:none;stroke-width:0.8;stroke-linecap:butt;stroke-linejoin:round;stroke:rgb(0%,0%,0%);stroke-opacity:1;stroke-miterlimit:4;" d="M 0.000000000000014211 -0.000228882 L -3.500977 -0.000228882 " transform="matrix(1.333333,0,0,1.333333,58.375,118.808899)"/>
<path style=" stroke:none;fill-rule:nonzero;fill:rgb(0%,0%,0%);fill-opacity:1;" d="M 32.074219 115.019531 C 31.398438 115.019531 30.890625 115.355469 30.546875 116.019531 C 30.207031 116.6875 30.039062 117.6875 30.039062 119.023438 C 30.039062 120.355469 30.207031 121.355469 30.546875 122.023438 C 30.890625 122.6875 31.398438 123.023438 32.074219 123.023438 C 32.757812 123.023438 33.269531 122.6875 33.609375 122.023438 C 33.949219 121.355469 34.121094 120.355469 34.121094 119.023438 C 34.121094 117.6875 33.949219 116.6875 33.609375 116.019531 C 33.269531 115.355469 32.757812 115.019531 32.074219 115.019531 Z M 32.074219 113.980469 C 33.164062 113.980469 33.996094 114.410156 34.574219 115.273438 C 35.148438 116.132812 35.433594 117.382812 35.433594 119.023438 C 35.433594 120.660156 35.148438 121.910156 34.574219 122.773438 C 33.996094 123.632812 33.164062 124.0625 32.074219 124.0625 C 30.984375 124.0625 30.152344 123.632812 29.578125 122.773438 C 29.003906 121.910156 28.714844 120.660156 28.714844 119.023438 C 28.714844 117.382812 29.003906 116.132812 29.578125 115.273438 C 30.152344 114.410156 30.984375 113.980469 32.074219 113.980469 Z M 32.074219 113.980469 "/>
<path style=" stroke:none;fill-rule:nonzero;fill:rgb(0%,0%,0%);fill-opacity:1;" d="M 37.746094 122.21875 L 39.121094 122.21875 L 39.121094 123.875 L 37.746094 123.875 Z M 37.746094 122.21875 "/>
<path style=" stroke:none;fill-rule:nonzero;fill:rgb(0%,0%,0%);fill-opacity:1;" d="M 45.597656 115.300781 L 42.277344 120.488281 L 45.597656 120.488281 Z M 45.253906 114.152344 L 46.90625 114.152344 L 46.90625 120.488281 L 48.292969 120.488281 L 48.292969 121.582031 L 46.90625 121.582031 L 46.90625 123.875 L 45.597656 123.875 L 45.597656 121.582031 L 41.210938 121.582031 L 41.210938 120.3125 Z M 45.253906 114.152344 "/>
<g clip-path="url(#clip13)" clip-rule="nonzero">
<path style="fill:none;stroke-width:0.8;stroke-linecap:square;stroke-linejoin:round;stroke:rgb(69.01961%,69.01961%,69.01961%);stroke-opacity:1;stroke-miterlimit:4;" d="M 43.78125 63.887695 L 322.78125 63.887695 " transform="matrix(1.333333,0,0,1.333333,-0.000000000000028422,-0.000000000000014211)"/>
</g>
<path style="fill:none;stroke-width:0.8;stroke-linecap:butt;stroke-linejoin:round;stroke:rgb(0%,0%,0%);stroke-opacity:1;stroke-miterlimit:4;" d="M 0.000000000000014211 -0.00117874 L -3.500977 -0.00117874 " transform="matrix(1.333333,0,0,1.333333,58.375,85.185165)"/>
<path style=" stroke:none;fill-rule:nonzero;fill:rgb(0%,0%,0%);fill-opacity:1;" d="M 32.074219 81.398438 C 31.398438 81.398438 30.890625 81.730469 30.546875 82.398438 C 30.207031 83.0625 30.039062 84.0625 30.039062 85.402344 C 30.039062 86.734375 30.207031 87.730469 30.546875 88.398438 C 30.890625 89.066406 31.398438 89.398438 32.074219 89.398438 C 32.757812 89.398438 33.269531 89.066406 33.609375 88.398438 C 33.949219 87.730469 34.121094 86.734375 34.121094 85.402344 C 34.121094 84.0625 33.949219 83.0625 33.609375 82.398438 C 33.269531 81.730469 32.757812 81.398438 32.074219 81.398438 Z M 32.074219 80.355469 C 33.164062 80.355469 33.996094 80.785156 34.574219 81.648438 C 35.148438 82.511719 35.433594 83.761719 35.433594 85.402344 C 35.433594 87.035156 35.148438 88.285156 34.574219 89.148438 C 33.996094 90.011719 33.164062 90.441406 32.074219 90.441406 C 30.984375 90.441406 30.152344 90.011719 29.578125 89.148438 C 29.003906 88.285156 28.714844 87.035156 28.714844 85.402344 C 28.714844 83.761719 29.003906 82.511719 29.578125 81.648438 C 30.152344 80.785156 30.984375 80.355469 32.074219 80.355469 Z M 32.074219 80.355469 "/>
<path style=" stroke:none;fill-rule:nonzero;fill:rgb(0%,0%,0%);fill-opacity:1;" d="M 37.746094 88.597656 L 39.121094 88.597656 L 39.121094 90.25 L 37.746094 90.25 Z M 37.746094 88.597656 "/>
<path style=" stroke:none;fill-rule:nonzero;fill:rgb(0%,0%,0%);fill-opacity:1;" d="M 44.960938 84.867188 C 44.371094 84.867188 43.902344 85.070312 43.558594 85.472656 C 43.210938 85.875 43.039062 86.429688 43.039062 87.132812 C 43.039062 87.832031 43.210938 88.382812 43.558594 88.789062 C 43.902344 89.195312 44.371094 89.398438 44.960938 89.398438 C 45.550781 89.398438 46.019531 89.195312 46.363281 88.789062 C 46.707031 88.382812 46.878906 87.832031 46.878906 87.132812 C 46.878906 86.429688 46.707031 85.875 46.363281 85.472656 C 46.019531 85.070312 45.550781 84.867188 44.960938 84.867188 Z M 47.570312 80.746094 L 47.570312 81.941406 C 47.242188 81.785156 46.90625 81.667969 46.570312 81.585938 C 46.234375 81.503906 45.902344 81.460938 45.570312 81.460938 C 44.703125 81.460938 44.039062 81.753906 43.582031 82.339844 C 43.125 82.925781 42.863281 83.8125 42.796875 84.996094 C 43.054688 84.617188 43.375 84.328125 43.761719 84.128906 C 44.148438 83.925781 44.574219 83.824219 45.039062 83.824219 C 46.015625 83.824219 46.785156 84.121094 47.351562 84.714844 C 47.917969 85.308594 48.203125 86.113281 48.203125 87.132812 C 48.203125 88.128906 47.90625 88.933594 47.316406 89.535156 C 46.726562 90.140625 45.941406 90.441406 44.960938 90.441406 C 43.835938 90.441406 42.976562 90.011719 42.382812 89.148438 C 41.789062 88.285156 41.488281 87.035156 41.488281 85.402344 C 41.488281 83.863281 41.855469 82.640625 42.582031 81.726562 C 43.3125 80.8125 44.292969 80.355469 45.519531 80.355469 C 45.851562 80.355469 46.183594 80.386719 46.519531 80.453125 C 46.855469 80.519531 47.207031 80.617188 47.570312 80.746094 Z M 47.570312 80.746094 "/>
<g clip-path="url(#clip14)" clip-rule="nonzero">
<path style="fill:none;stroke-width:0.8;stroke-linecap:square;stroke-linejoin:round;stroke:rgb(69.01961%,69.01961%,69.01961%);stroke-opacity:1;stroke-miterlimit:4;" d="M 43.78125 38.671875 L 322.78125 38.671875 " transform="matrix(1.333333,0,0,1.333333,-0.000000000000028422,-0.000000000000014211)"/>
</g>
<path style="fill:none;stroke-width:0.8;stroke-linecap:butt;stroke-linejoin:round;stroke:rgb(0%,0%,0%);stroke-opacity:1;stroke-miterlimit:4;" d="M 0.000000000000014211 0.000804901 L -3.500977 0.000804901 " transform="matrix(1.333333,0,0,1.333333,58.375,51.561427)"/>
<path style=" stroke:none;fill-rule:nonzero;fill:rgb(0%,0%,0%);fill-opacity:1;" d="M 32.074219 47.773438 C 31.398438 47.773438 30.890625 48.105469 30.546875 48.773438 C 30.207031 49.4375 30.039062 50.441406 30.039062 51.777344 C 30.039062 53.109375 30.207031 54.109375 30.546875 54.773438 C 30.890625 55.441406 31.398438 55.773438 32.074219 55.773438 C 32.757812 55.773438 33.269531 55.441406 33.609375 54.773438 C 33.949219 54.109375 34.121094 53.109375 34.121094 51.777344 C 34.121094 50.441406 33.949219 49.4375 33.609375 48.773438 C 33.269531 48.105469 32.757812 47.773438 32.074219 47.773438 Z M 32.074219 46.730469 C 33.164062 46.730469 33.996094 47.164062 34.574219 48.023438 C 35.148438 48.886719 35.433594 50.136719 35.433594 51.777344 C 35.433594 53.414062 35.148438 54.664062 34.574219 55.523438 C 33.996094 56.386719 33.164062 56.816406 32.074219 56.816406 C 30.984375 56.816406 30.152344 56.386719 29.578125 55.523438 C 29.003906 54.664062 28.714844 53.414062 28.714844 51.777344 C 28.714844 50.136719 29.003906 48.886719 29.578125 48.023438 C 30.152344 47.164062 30.984375 46.730469 32.074219 46.730469 Z M 32.074219 46.730469 "/>
<path style=" stroke:none;fill-rule:nonzero;fill:rgb(0%,0%,0%);fill-opacity:1;" d="M 37.746094 54.972656 L 39.121094 54.972656 L 39.121094 56.628906 L 37.746094 56.628906 Z M 37.746094 54.972656 "/>
<path style=" stroke:none;fill-rule:nonzero;fill:rgb(0%,0%,0%);fill-opacity:1;" d="M 44.796875 52.011719 C 44.171875 52.011719 43.679688 52.179688 43.320312 52.511719 C 42.964844 52.847656 42.785156 53.308594 42.785156 53.890625 C 42.785156 54.476562 42.964844 54.9375 43.320312 55.273438 C 43.679688 55.609375 44.171875 55.773438 44.796875 55.773438 C 45.421875 55.773438 45.914062 55.605469 46.273438 55.269531 C 46.632812 54.933594 46.816406 54.472656 46.816406 53.890625 C 46.816406 53.308594 46.636719 52.847656 46.277344 52.511719 C 45.921875 52.179688 45.425781 52.011719 44.796875 52.011719 Z M 43.480469 51.453125 C 42.917969 51.3125 42.476562 51.050781 42.164062 50.664062 C 41.847656 50.277344 41.691406 49.804688 41.691406 49.25 C 41.691406 48.472656 41.96875 47.859375 42.519531 47.410156 C 43.074219 46.957031 43.832031 46.730469 44.796875 46.730469 C 45.765625 46.730469 46.523438 46.957031 47.074219 47.410156 C 47.625 47.859375 47.902344 48.472656 47.902344 49.25 C 47.902344 49.804688 47.746094 50.277344 47.429688 50.664062 C 47.117188 51.050781 46.679688 51.3125 46.121094 51.453125 C 46.753906 51.597656 47.246094 51.886719 47.597656 52.320312 C 47.953125 52.746094 48.128906 53.273438 48.128906 53.890625 C 48.128906 54.835938 47.84375 55.558594 47.265625 56.0625 C 46.691406 56.566406 45.867188 56.816406 44.796875 56.816406 C 43.726562 56.816406 42.902344 56.566406 42.324219 56.0625 C 41.75 55.558594 41.464844 54.835938 41.464844 53.890625 C 41.464844 53.273438 41.640625 52.746094 41.996094 52.320312 C 42.351562 51.886719 42.847656 51.597656 43.480469 51.453125 Z M 43 49.375 C 43 49.878906 43.15625 50.269531 43.472656 50.550781 C 43.785156 50.835938 44.226562 50.976562 44.796875 50.976562 C 45.363281 50.976562 45.804688 50.835938 46.121094 50.550781 C 46.441406 50.269531 46.601562 49.878906 46.601562 49.375 C 46.601562 48.871094 46.441406 48.476562 46.121094 48.195312 C 45.804688 47.914062 45.363281 47.773438 44.796875 47.773438 C 44.226562 47.773438 43.785156 47.914062 43.472656 48.195312 C 43.15625 48.476562 43 48.871094 43 49.375 Z M 43 49.375 "/>
<g clip-path="url(#clip15)" clip-rule="nonzero">
<path style="fill:none;stroke-width:0.8;stroke-linecap:square;stroke-linejoin:round;stroke:rgb(69.01961%,69.01961%,69.01961%);stroke-opacity:1;stroke-miterlimit:4;" d="M 43.78125 13.453125 L 322.78125 13.453125 " transform="matrix(1.333333,0,0,1.333333,-0.000000000000028422,-0.000000000000014211)"/>
</g>
<path style="fill:none;stroke-width:0.8;stroke-linecap:butt;stroke-linejoin:round;stroke:rgb(0%,0%,0%);stroke-opacity:1;stroke-miterlimit:4;" d="M 0.000000000000014211 -0.000144005 L -3.500977 -0.000144005 " transform="matrix(1.333333,0,0,1.333333,58.375,17.937692)"/>
<path style=" stroke:none;fill-rule:nonzero;fill:rgb(0%,0%,0%);fill-opacity:1;" d="M 29.492188 21.898438 L 31.640625 21.898438 L 31.640625 14.480469 L 29.300781 14.949219 L 29.300781 13.75 L 31.628906 13.28125 L 32.941406 13.28125 L 32.941406 21.898438 L 35.089844 21.898438 L 35.089844 23.003906 L 29.492188 23.003906 Z M 29.492188 21.898438 "/>
<path style=" stroke:none;fill-rule:nonzero;fill:rgb(0%,0%,0%);fill-opacity:1;" d="M 37.746094 21.347656 L 39.121094 21.347656 L 39.121094 23.003906 L 37.746094 23.003906 Z M 37.746094 21.347656 "/>
<path style=" stroke:none;fill-rule:nonzero;fill:rgb(0%,0%,0%);fill-opacity:1;" d="M 44.796875 14.148438 C 44.121094 14.148438 43.609375 14.484375 43.269531 15.148438 C 42.929688 15.8125 42.757812 16.816406 42.757812 18.152344 C 42.757812 19.484375 42.929688 20.484375 43.269531 21.152344 C 43.609375 21.816406 44.121094 22.152344 44.796875 22.152344 C 45.476562 22.152344 45.988281 21.816406 46.328125 21.152344 C 46.671875 20.484375 46.84375 19.484375 46.84375 18.152344 C 46.84375 16.816406 46.671875 15.8125 46.328125 15.148438 C 45.988281 14.484375 45.476562 14.148438 44.796875 14.148438 Z M 44.796875 13.109375 C 45.886719 13.109375 46.71875 13.539062 47.292969 14.402344 C 47.871094 15.261719 48.15625 16.511719 48.15625 18.152344 C 48.15625 19.789062 47.871094 21.039062 47.292969 21.902344 C 46.71875 22.761719 45.886719 23.191406 44.796875 23.191406 C 43.707031 23.191406 42.875 22.761719 42.300781 21.902344 C 41.726562 21.039062 41.4375 19.789062 41.4375 18.152344 C 41.4375 16.511719 41.726562 15.261719 42.300781 14.402344 C 42.875 13.539062 43.707031 13.109375 44.796875 13.109375 Z M 44.796875 13.109375 "/>
<path style=" stroke:none;fill-rule:nonzero;fill:rgb(0%,0%,0%);fill-opacity:1;" d="M 12.652344 131.457031 L 13.789062 131.457031 C 13.613281 131.796875 13.484375 132.148438 13.398438 132.511719 C 13.308594 132.875 13.265625 133.253906 13.265625 133.644531 C 13.265625 134.242188 13.359375 134.6875 13.539062 134.984375 C 13.722656 135.28125 13.996094 135.429688 14.359375 135.429688 C 14.636719 135.429688 14.855469 135.324219 15.015625 135.109375 C 15.171875 134.898438 15.324219 134.46875 15.464844 133.828125 L 15.558594 133.417969 C 15.742188 132.566406 15.996094 131.960938 16.328125 131.605469 C 16.660156 131.246094 17.125 131.066406 17.71875 131.066406 C 18.398438 131.066406 18.933594 131.335938 19.328125 131.871094 C 19.722656 132.40625 19.921875 133.144531 19.921875 134.082031 C 19.921875 134.472656 19.882812 134.878906 19.804688 135.300781 C 19.730469 135.726562 19.617188 136.171875 19.464844 136.640625 L 18.226562 136.640625 C 18.457031 136.195312 18.628906 135.761719 18.746094 135.332031 C 18.859375 134.902344 18.917969 134.476562 18.917969 134.054688 C 18.917969 133.492188 18.820312 133.058594 18.628906 132.753906 C 18.433594 132.449219 18.160156 132.296875 17.808594 132.296875 C 17.484375 132.296875 17.234375 132.40625 17.0625 132.628906 C 16.890625 132.84375 16.722656 133.324219 16.558594 134.070312 L 16.460938 134.484375 C 16.308594 135.226562 16.066406 135.761719 15.742188 136.09375 C 15.421875 136.421875 14.976562 136.585938 14.414062 136.585938 C 13.726562 136.585938 13.195312 136.34375 12.824219 135.859375 C 12.453125 135.371094 12.265625 134.683594 12.265625 133.789062 C 12.265625 133.347656 12.296875 132.929688 12.363281 132.539062 C 12.425781 132.148438 12.523438 131.789062 12.652344 131.457031 Z M 12.652344 131.457031 "/>
<path style=" stroke:none;fill-rule:nonzero;fill:rgb(0%,0%,0%);fill-opacity:1;" d="M 12.441406 129.160156 L 12.441406 127.960938 L 19.730469 127.960938 L 19.730469 129.160156 Z M 9.601562 129.160156 L 9.601562 127.960938 L 11.117188 127.960938 L 11.117188 129.160156 Z M 9.601562 129.160156 "/>
<path style=" stroke:none;fill-rule:nonzero;fill:rgb(0%,0%,0%);fill-opacity:1;" d="M 16 120.65625 C 15.132812 120.65625 14.460938 120.835938 13.984375 121.195312 C 13.503906 121.550781 13.265625 122.054688 13.265625 122.699219 C 13.265625 123.34375 13.503906 123.84375 13.984375 124.199219 C 14.460938 124.558594 15.132812 124.738281 16 124.738281 C 16.863281 124.738281 17.535156 124.558594 18.011719 124.199219 C 18.492188 123.84375 18.730469 123.34375 18.730469 122.699219 C 18.730469 122.054688 18.492188 121.550781 18.011719 121.195312 C 17.535156 120.835938 16.863281 120.65625 16 120.65625 Z M 18.828125 119.460938 C 20.066406 119.460938 20.992188 119.734375 21.597656 120.285156 C 22.203125 120.835938 22.503906 121.679688 22.503906 122.816406 C 22.503906 123.238281 22.472656 123.636719 22.410156 124.007812 C 22.347656 124.382812 22.25 124.746094 22.121094 125.097656 L 20.957031 125.097656 C 21.148438 124.746094 21.285156 124.398438 21.378906 124.054688 C 21.46875 123.710938 21.515625 123.363281 21.515625 123.007812 C 21.515625 122.222656 21.308594 121.632812 20.898438 121.242188 C 20.492188 120.851562 19.871094 120.65625 19.042969 120.65625 L 18.449219 120.65625 C 18.878906 120.90625 19.199219 121.222656 19.414062 121.605469 C 19.625 121.992188 19.730469 122.457031 19.730469 122.996094 C 19.730469 123.886719 19.390625 124.609375 18.710938 125.15625 C 18.027344 125.703125 17.125 125.976562 16 125.976562 C 14.871094 125.976562 13.96875 125.703125 13.289062 125.15625 C 12.605469 124.609375 12.265625 123.886719 12.265625 122.996094 C 12.265625 122.457031 12.371094 121.992188 12.582031 121.605469 C 12.796875 121.222656 13.117188 120.90625 13.546875 120.65625 L 12.441406 120.65625 L 12.441406 119.460938 Z M 18.828125 119.460938 "/>
<path style=" stroke:none;fill-rule:nonzero;fill:rgb(0%,0%,0%);fill-opacity:1;" d="M 13.839844 111.316406 C 13.300781 111.015625 12.902344 110.65625 12.648438 110.238281 C 12.390625 109.824219 12.265625 109.332031 12.265625 108.769531 C 12.265625 108.007812 12.53125 107.421875 13.0625 107.011719 C 13.59375 106.597656 14.347656 106.390625 15.328125 106.390625 L 19.730469 106.390625 L 19.730469 107.597656 L 15.367188 107.597656 C 14.671875 107.597656 14.152344 107.71875 13.816406 107.96875 C 13.476562 108.214844 13.304688 108.59375 13.304688 109.101562 C 13.304688 109.722656 13.511719 110.210938 13.925781 110.574219 C 14.335938 110.933594 14.898438 111.113281 15.609375 111.113281 L 19.730469 111.113281 L 19.730469 112.316406 L 15.367188 112.316406 C 14.664062 112.316406 14.148438 112.441406 13.808594 112.6875 C 13.472656 112.933594 13.304688 113.316406 13.304688 113.832031 C 13.304688 114.445312 13.511719 114.933594 13.925781 115.292969 C 14.339844 115.652344 14.902344 115.832031 15.609375 115.832031 L 19.730469 115.832031 L 19.730469 117.039062 L 12.441406 117.039062 L 12.441406 115.832031 L 13.574219 115.832031 C 13.125 115.558594 12.796875 115.230469 12.582031 114.851562 C 12.371094 114.46875 12.265625 114.015625 12.265625 113.488281 C 12.265625 112.960938 12.398438 112.507812 12.667969 112.136719 C 12.9375 111.765625 13.328125 111.492188 13.839844 111.316406 Z M 13.839844 111.316406 "/>
<path style=" stroke:none;fill-rule:nonzero;fill:rgb(0%,0%,0%);fill-opacity:1;" d="M 13.277344 101.179688 C 13.277344 101.820312 13.53125 102.328125 14.03125 102.703125 C 14.53125 103.074219 15.21875 103.261719 16.089844 103.261719 C 16.964844 103.261719 17.652344 103.078125 18.152344 102.707031 C 18.652344 102.332031 18.902344 101.824219 18.902344 101.179688 C 18.902344 100.539062 18.652344 100.035156 18.148438 99.660156 C 17.644531 99.289062 16.960938 99.101562 16.089844 99.101562 C 15.226562 99.101562 14.542969 99.289062 14.039062 99.660156 C 13.53125 100.035156 13.277344 100.539062 13.277344 101.179688 Z M 12.265625 101.179688 C 12.265625 100.136719 12.601562 99.320312 13.28125 98.722656 C 13.957031 98.128906 14.894531 97.832031 16.089844 97.832031 C 17.285156 97.832031 18.222656 98.128906 18.902344 98.722656 C 19.582031 99.320312 19.921875 100.136719 19.921875 101.179688 C 19.921875 102.222656 19.582031 103.042969 18.902344 103.636719 C 18.222656 104.226562 17.285156 104.523438 16.089844 104.523438 C 14.894531 104.523438 13.957031 104.226562 13.28125 103.636719 C 12.601562 103.042969 12.265625 102.222656 12.265625 101.179688 Z M 12.265625 101.179688 "/>
<path style=" stroke:none;fill-rule:nonzero;fill:rgb(0%,0%,0%);fill-opacity:1;" d="M 12.441406 95.847656 L 12.441406 94.648438 L 19.730469 94.648438 L 19.730469 95.847656 Z M 9.601562 95.847656 L 9.601562 94.648438 L 11.117188 94.648438 L 11.117188 95.847656 Z M 9.601562 95.847656 "/>
<path style=" stroke:none;fill-rule:nonzero;fill:rgb(0%,0%,0%);fill-opacity:1;" d="M 13.546875 87.34375 L 9.601562 87.34375 L 9.601562 86.144531 L 19.730469 86.144531 L 19.730469 87.34375 L 18.636719 87.34375 C 19.070312 87.59375 19.394531 87.914062 19.605469 88.296875 C 19.816406 88.679688 19.921875 89.140625 19.921875 89.679688 C 19.921875 90.5625 19.570312 91.277344 18.867188 91.832031 C 18.164062 92.386719 17.238281 92.664062 16.089844 92.664062 C 14.945312 92.664062 14.023438 92.386719 13.320312 91.832031 C 12.617188 91.277344 12.265625 90.5625 12.265625 89.679688 C 12.265625 89.140625 12.371094 88.679688 12.582031 88.296875 C 12.789062 87.914062 13.113281 87.59375 13.546875 87.34375 Z M 16.089844 91.425781 C 16.972656 91.425781 17.664062 91.242188 18.164062 90.882812 C 18.664062 90.519531 18.917969 90.019531 18.917969 89.386719 C 18.917969 88.753906 18.664062 88.253906 18.164062 87.890625 C 17.664062 87.527344 16.972656 87.34375 16.089844 87.34375 C 15.210938 87.34375 14.519531 87.527344 14.019531 87.890625 C 13.515625 88.253906 13.265625 88.753906 13.265625 89.386719 C 13.265625 90.019531 13.515625 90.519531 14.019531 90.882812 C 14.519531 91.242188 15.210938 91.425781 16.089844 91.425781 Z M 16.089844 91.425781 "/>
<path style=" stroke:none;fill-rule:nonzero;fill:rgb(0%,0%,0%);fill-opacity:1;" d="M 9.613281 80.800781 C 10.613281 81.382812 11.597656 81.8125 12.578125 82.097656 C 13.554688 82.378906 14.542969 82.519531 15.546875 82.519531 C 16.546875 82.519531 17.539062 82.378906 18.523438 82.09375 C 19.507812 81.808594 20.496094 81.378906 21.488281 80.800781 L 21.488281 81.84375 C 20.46875 82.492188 19.464844 82.980469 18.480469 83.304688 C 17.496094 83.625 16.519531 83.789062 15.546875 83.789062 C 14.578125 83.789062 13.601562 83.628906 12.621094 83.308594 C 11.640625 82.984375 10.636719 82.496094 9.613281 81.84375 Z M 9.613281 80.800781 "/>
<path style=" stroke:none;fill-rule:nonzero;fill:rgb(0%,0%,0%);fill-opacity:1;" d="M 12.441406 72.414062 L 15.988281 75.050781 L 19.730469 72.277344 L 19.730469 73.691406 L 16.867188 75.8125 L 19.730469 77.933594 L 19.730469 79.347656 L 15.917969 76.515625 L 12.441406 79.105469 L 12.441406 77.695312 L 15.039062 75.761719 L 12.441406 73.828125 Z M 12.441406 72.414062 "/>
<path style=" stroke:none;fill-rule:nonzero;fill:rgb(0%,0%,0%);fill-opacity:1;" d="M 9.613281 70.773438 L 9.613281 69.730469 C 10.636719 69.082031 11.640625 68.59375 12.621094 68.269531 C 13.601562 67.945312 14.578125 67.785156 15.546875 67.785156 C 16.519531 67.785156 17.496094 67.945312 18.480469 68.269531 C 19.464844 68.59375 20.46875 69.082031 21.488281 69.730469 L 21.488281 70.773438 C 20.496094 70.195312 19.507812 69.765625 18.523438 69.480469 C 17.539062 69.195312 16.546875 69.054688 15.546875 69.054688 C 14.542969 69.054688 13.554688 69.195312 12.578125 69.480469 C 11.597656 69.765625 10.613281 70.195312 9.613281 70.773438 Z M 9.613281 70.773438 "/>
<path style="fill:none;stroke-width:1.5;stroke-linecap:square;stroke-linejoin:round;stroke:rgb(12.156863%,46.666667%,70.588237%);stroke-opacity:1;stroke-miterlimit:4;" d="M 56.463867 139.5 L 81.987305 139.333008 L 96.342773 139.02832 L 105.914062 138.609375 L 113.891602 138.011719 L 120.269531 137.273437 L 125.056641 136.5 L 129.84082 135.46875 L 133.03125 134.604492 L 136.22168 133.561523 L 139.412109 132.313477 L 142.602539 130.825195 L 145.792969 129.055664 L 148.983398 126.963867 L 152.173828 124.511719 L 155.364258 121.655273 L 158.554688 118.362305 L 161.745117 114.600586 L 164.935547 110.355469 L 168.125977 105.632812 L 171.316406 100.450195 L 174.506836 94.863281 L 179.293945 85.883789 L 193.649414 58.130859 L 196.839844 52.543945 L 200.030273 47.364258 L 203.220703 42.638672 L 206.411133 38.396484 L 209.601562 34.634766 L 212.791992 31.338867 L 215.982422 28.482422 L 219.172852 26.030273 L 222.363281 23.941406 L 225.553711 22.171875 L 228.744141 20.680664 L 231.93457 19.432617 L 235.125 18.392578 L 238.31543 17.525391 L 243.102539 16.494141 L 247.886719 15.720703 L 254.267578 14.982422 L 260.648437 14.481445 L 268.623047 14.080078 L 279.791016 13.763672 L 295.743164 13.567383 L 310.098633 13.5 " transform="matrix(1.333333,0,0,1.333333,-0.000000000000028422,-0.000000000000014211)"/>
<path style="fill:none;stroke-width:0.8;stroke-linecap:square;stroke-linejoin:miter;stroke:rgb(0%,0%,0%);stroke-opacity:1;stroke-miterlimit:4;" d="M 43.78125 145.798828 L 43.78125 7.201172 " transform="matrix(1.333333,0,0,1.333333,-0.000000000000028422,-0.000000000000014211)"/>
<path style="fill:none;stroke-width:0.8;stroke-linecap:square;stroke-linejoin:miter;stroke:rgb(0%,0%,0%);stroke-opacity:1;stroke-miterlimit:4;" d="M 322.78125 145.798828 L 322.78125 7.201172 " transform="matrix(1.333333,0,0,1.333333,-0.000000000000028422,-0.000000000000014211)"/>
<path style="fill:none;stroke-width:0.8;stroke-linecap:square;stroke-linejoin:miter;stroke:rgb(0%,0%,0%);stroke-opacity:1;stroke-miterlimit:4;" d="M 43.78125 145.798828 L 322.78125 145.798828 " transform="matrix(1.333333,0,0,1.333333,-0.000000000000028422,-0.000000000000014211)"/>
<path style="fill:none;stroke-width:0.8;stroke-linecap:square;stroke-linejoin:miter;stroke:rgb(0%,0%,0%);stroke-opacity:1;stroke-miterlimit:4;" d="M 43.78125 7.201172 L 322.78125 7.201172 " transform="matrix(1.333333,0,0,1.333333,-0.000000000000028422,-0.000000000000014211)"/>
</g>
</svg>
