<?xml version="1.0" encoding="UTF-8"?>
<svg xmlns="http://www.w3.org/2000/svg" xmlns:xlink="http://www.w3.org/1999/xlink" width="318.620829" height="240.875" viewBox="0 0 318.620829 240.875" version="1.1">
<defs>
<clipPath id="clip1">
  <path d="M 40.136719 9.601562 L 41 9.601562 L 41 190.800781 L 40.136719 190.800781 Z M 40.136719 9.601562 "/>
</clipPath>
<clipPath id="clip2">
  <path d="M 82 9.601562 L 85 9.601562 L 85 190.800781 L 82 190.800781 Z M 82 9.601562 "/>
</clipPath>
<clipPath id="clip3">
  <path d="M 126 9.601562 L 128 9.601562 L 128 190.800781 L 126 190.800781 Z M 126 9.601562 "/>
</clipPath>
<clipPath id="clip4">
  <path d="M 169 9.601562 L 172 9.601562 L 172 190.800781 L 169 190.800781 Z M 169 9.601562 "/>
</clipPath>
<clipPath id="clip5">
  <path d="M 212 9.601562 L 215 9.601562 L 215 190.800781 L 212 190.800781 Z M 212 9.601562 "/>
</clipPath>
<clipPath id="clip6">
  <path d="M 256 9.601562 L 258 9.601562 L 258 190.800781 L 256 190.800781 Z M 256 9.601562 "/>
</clipPath>
<clipPath id="clip7">
  <path d="M 299 9.601562 L 300.539062 9.601562 L 300.539062 190.800781 L 299 190.800781 Z M 299 9.601562 "/>
</clipPath>
<clipPath id="clip8">
  <path d="M 40.136719 155 L 300.539062 155 L 300.539062 158 L 40.136719 158 Z M 40.136719 155 "/>
</clipPath>
<clipPath id="clip9">
  <path d="M 40.136719 116 L 300.539062 116 L 300.539062 119 L 40.136719 119 Z M 40.136719 116 "/>
</clipPath>
<clipPath id="clip10">
  <path d="M 40.136719 77 L 300.539062 77 L 300.539062 80 L 40.136719 80 Z M 40.136719 77 "/>
</clipPath>
<clipPath id="clip11">
  <path d="M 40.136719 39 L 300.539062 39 L 300.539062 41 L 40.136719 41 Z M 40.136719 39 "/>
</clipPath>
<clipPath id="clip12">
  <path d="M 40.136719 16 L 300.539062 16 L 300.539062 177 L 40.136719 177 Z M 40.136719 16 "/>
</clipPath>
<clipPath id="clip13">
  <path d="M 40.136719 123 L 300.539062 123 L 300.539062 184 L 40.136719 184 Z M 40.136719 123 "/>
</clipPath>
<clipPath id="clip14">
  <path d="M 47 125 L 300.539062 125 L 300.539062 141 L 47 141 Z M 47 125 "/>
</clipPath>
<filter id="alpha" filterUnits="objectBoundingBox" x="0%" y="0%" width="100%" height="100%">
  <feColorMatrix type="matrix" in="SourceGraphic" values="0 0 0 0 1 0 0 0 0 1 0 0 0 0 1 0 0 0 1 0"/>
</filter>
<mask id="mask0">
  <g filter="url(#alpha)">
<rect x="0" y="0" width="318.620829" height="240.875" style="fill:rgb(0%,0%,0%);fill-opacity:0.8;stroke:none;"/>
  </g>
</mask>
<clipPath id="clip15">
  <rect x="0" y="0" width="319" height="241"/>
</clipPath>
<g id="surface5" clip-path="url(#clip15)">
<path style="fill-rule:nonzero;fill:rgb(100%,100%,100%);fill-opacity:1;stroke-width:1;stroke-linecap:butt;stroke-linejoin:miter;stroke:rgb(80.000001%,80.000001%,80.000001%);stroke-opacity:1;stroke-miterlimit:4;" d="M 140.633789 59.235352 L 218.402344 59.235352 C 219.735352 59.235352 220.40332 58.567383 220.40332 57.234375 L 220.40332 14.200195 C 220.40332 12.867188 219.735352 12.199219 218.402344 12.199219 L 140.633789 12.199219 C 139.300781 12.199219 138.635742 12.867188 138.635742 14.200195 L 138.635742 57.234375 C 138.635742 58.567383 139.300781 59.235352 140.633789 59.235352 Z M 140.633789 59.235352 " transform="matrix(1.333333,0,0,1.333333,0.000000000000028422,0)"/>
</g>
</defs>
<g id="surface1">
<path style=" stroke:none;fill-rule:nonzero;fill:rgb(100%,100%,100%);fill-opacity:1;" d="M 40.136719 190.800781 L 300.539062 190.800781 L 300.539062 9.601562 L 40.136719 9.601562 Z M 40.136719 190.800781 "/>
<g clip-path="url(#clip1)" clip-rule="nonzero">
<path style="fill:none;stroke-width:0.8;stroke-linecap:square;stroke-linejoin:round;stroke:rgb(69.01961%,69.01961%,69.01961%);stroke-opacity:1;stroke-miterlimit:4;" d="M 30.102539 143.100586 L 30.102539 7.201172 " transform="matrix(1.333333,0,0,1.333333,0.000000000000028422,0)"/>
</g>
<path style="fill:none;stroke-width:0.8;stroke-linecap:butt;stroke-linejoin:round;stroke:rgb(0%,0%,0%);stroke-opacity:1;stroke-miterlimit:4;" d="M -0.000585556 0.000579834 L -0.000585556 3.498627 " transform="matrix(1.333333,0,0,1.333333,40.137499,190.800008)"/>
<path style=" stroke:none;fill-rule:nonzero;fill:rgb(0%,0%,0%);fill-opacity:1;" d="M 40.132812 201.410156 C 39.457031 201.410156 38.949219 201.742188 38.605469 202.410156 C 38.265625 203.074219 38.097656 204.078125 38.097656 205.414062 C 38.097656 206.746094 38.265625 207.746094 38.605469 208.414062 C 38.949219 209.078125 39.457031 209.414062 40.132812 209.414062 C 40.816406 209.414062 41.328125 209.078125 41.667969 208.414062 C 42.007812 207.746094 42.179688 206.746094 42.179688 205.414062 C 42.179688 204.078125 42.007812 203.074219 41.667969 202.410156 C 41.328125 201.742188 40.816406 201.410156 40.132812 201.410156 Z M 40.132812 200.367188 C 41.222656 200.367188 42.054688 200.800781 42.632812 201.664062 C 43.207031 202.523438 43.492188 203.773438 43.492188 205.414062 C 43.492188 207.050781 43.207031 208.300781 42.632812 209.164062 C 42.054688 210.023438 41.222656 210.453125 40.132812 210.453125 C 39.042969 210.453125 38.210938 210.023438 37.636719 209.164062 C 37.0625 208.300781 36.773438 207.050781 36.773438 205.414062 C 36.773438 203.773438 37.0625 202.523438 37.636719 201.664062 C 38.210938 200.800781 39.042969 200.367188 40.132812 200.367188 Z M 40.132812 200.367188 "/>
<g clip-path="url(#clip2)" clip-rule="nonzero">
<path style="fill:none;stroke-width:0.8;stroke-linecap:square;stroke-linejoin:round;stroke:rgb(69.01961%,69.01961%,69.01961%);stroke-opacity:1;stroke-miterlimit:4;" d="M 62.654297 143.100586 L 62.654297 7.201172 " transform="matrix(1.333333,0,0,1.333333,0.000000000000028422,0)"/>
</g>
<path style="fill:none;stroke-width:0.8;stroke-linecap:butt;stroke-linejoin:round;stroke:rgb(0%,0%,0%);stroke-opacity:1;stroke-miterlimit:4;" d="M 0.00117111 0.000579834 L 0.00117111 3.498627 " transform="matrix(1.333333,0,0,1.333333,83.537501,190.800008)"/>
<path style=" stroke:none;fill-rule:nonzero;fill:rgb(0%,0%,0%);fill-opacity:1;" d="M 80.734375 200.542969 L 85.898438 200.542969 L 85.898438 201.652344 L 81.941406 201.652344 L 81.941406 204.035156 C 82.128906 203.96875 82.320312 203.917969 82.511719 203.886719 C 82.703125 203.855469 82.894531 203.839844 83.085938 203.839844 C 84.171875 203.839844 85.027344 204.136719 85.664062 204.730469 C 86.296875 205.324219 86.613281 206.128906 86.613281 207.144531 C 86.613281 208.191406 86.289062 209.003906 85.636719 209.585938 C 84.984375 210.164062 84.066406 210.453125 82.882812 210.453125 C 82.476562 210.453125 82.058594 210.417969 81.636719 210.351562 C 81.214844 210.28125 80.777344 210.175781 80.324219 210.039062 L 80.324219 208.714844 C 80.714844 208.925781 81.117188 209.085938 81.535156 209.191406 C 81.953125 209.292969 82.390625 209.347656 82.855469 209.347656 C 83.609375 209.347656 84.203125 209.148438 84.640625 208.753906 C 85.078125 208.359375 85.296875 207.824219 85.296875 207.144531 C 85.296875 206.46875 85.078125 205.933594 84.640625 205.539062 C 84.203125 205.144531 83.609375 204.945312 82.855469 204.945312 C 82.503906 204.945312 82.152344 204.984375 81.804688 205.0625 C 81.457031 205.140625 81.097656 205.261719 80.734375 205.425781 Z M 80.734375 200.542969 "/>
<g clip-path="url(#clip3)" clip-rule="nonzero">
<path style="fill:none;stroke-width:0.8;stroke-linecap:square;stroke-linejoin:round;stroke:rgb(69.01961%,69.01961%,69.01961%);stroke-opacity:1;stroke-miterlimit:4;" d="M 95.203125 143.100586 L 95.203125 7.201172 " transform="matrix(1.333333,0,0,1.333333,0.000000000000028422,0)"/>
</g>
<path style="fill:none;stroke-width:0.8;stroke-linecap:butt;stroke-linejoin:round;stroke:rgb(0%,0%,0%);stroke-opacity:1;stroke-miterlimit:4;" d="M -0.000000000000028422 0.000579834 L -0.000000000000028422 3.498627 " transform="matrix(1.333333,0,0,1.333333,126.9375,190.800008)"/>
<path style=" stroke:none;fill-rule:nonzero;fill:rgb(0%,0%,0%);fill-opacity:1;" d="M 120.109375 209.160156 L 122.257812 209.160156 L 122.257812 201.742188 L 119.917969 202.210938 L 119.917969 201.011719 L 122.242188 200.542969 L 123.558594 200.542969 L 123.558594 209.160156 L 125.707031 209.160156 L 125.707031 210.265625 L 120.109375 210.265625 Z M 120.109375 209.160156 "/>
<path style=" stroke:none;fill-rule:nonzero;fill:rgb(0%,0%,0%);fill-opacity:1;" d="M 131.175781 201.410156 C 130.5 201.410156 129.988281 201.742188 129.648438 202.410156 C 129.308594 203.074219 129.136719 204.078125 129.136719 205.414062 C 129.136719 206.746094 129.308594 207.746094 129.648438 208.414062 C 129.988281 209.078125 130.5 209.414062 131.175781 209.414062 C 131.855469 209.414062 132.367188 209.078125 132.707031 208.414062 C 133.050781 207.746094 133.21875 206.746094 133.21875 205.414062 C 133.21875 204.078125 133.050781 203.074219 132.707031 202.410156 C 132.367188 201.742188 131.855469 201.410156 131.175781 201.410156 Z M 131.175781 200.367188 C 132.265625 200.367188 133.097656 200.800781 133.671875 201.664062 C 134.246094 202.523438 134.535156 203.773438 134.535156 205.414062 C 134.535156 207.050781 134.246094 208.300781 133.671875 209.164062 C 133.097656 210.023438 132.265625 210.453125 131.175781 210.453125 C 130.085938 210.453125 129.253906 210.023438 128.679688 209.164062 C 128.105469 208.300781 127.816406 207.050781 127.816406 205.414062 C 127.816406 203.773438 128.105469 202.523438 128.679688 201.664062 C 129.253906 200.800781 130.085938 200.367188 131.175781 200.367188 Z M 131.175781 200.367188 "/>
<g clip-path="url(#clip4)" clip-rule="nonzero">
<path style="fill:none;stroke-width:0.8;stroke-linecap:square;stroke-linejoin:round;stroke:rgb(69.01961%,69.01961%,69.01961%);stroke-opacity:1;stroke-miterlimit:4;" d="M 127.751953 143.100586 L 127.751953 7.201172 " transform="matrix(1.333333,0,0,1.333333,0.000000000000028422,0)"/>
</g>
<path style="fill:none;stroke-width:0.8;stroke-linecap:butt;stroke-linejoin:round;stroke:rgb(0%,0%,0%);stroke-opacity:1;stroke-miterlimit:4;" d="M -0.00117493 0.000579834 L -0.00117493 3.498627 " transform="matrix(1.333333,0,0,1.333333,170.337504,190.800008)"/>
<path style=" stroke:none;fill-rule:nonzero;fill:rgb(0%,0%,0%);fill-opacity:1;" d="M 163.507812 209.160156 L 165.65625 209.160156 L 165.65625 201.742188 L 163.320312 202.210938 L 163.320312 201.011719 L 165.644531 200.542969 L 166.957031 200.542969 L 166.957031 209.160156 L 169.105469 209.160156 L 169.105469 210.265625 L 163.507812 210.265625 Z M 163.507812 209.160156 "/>
<path style=" stroke:none;fill-rule:nonzero;fill:rgb(0%,0%,0%);fill-opacity:1;" d="M 171.777344 200.542969 L 176.9375 200.542969 L 176.9375 201.652344 L 172.980469 201.652344 L 172.980469 204.035156 C 173.171875 203.96875 173.363281 203.917969 173.550781 203.886719 C 173.742188 203.855469 173.933594 203.839844 174.125 203.839844 C 175.210938 203.839844 176.070312 204.136719 176.703125 204.730469 C 177.339844 205.324219 177.65625 206.128906 177.65625 207.144531 C 177.65625 208.191406 177.332031 209.003906 176.679688 209.585938 C 176.027344 210.164062 175.109375 210.453125 173.925781 210.453125 C 173.515625 210.453125 173.101562 210.417969 172.675781 210.351562 C 172.253906 210.28125 171.816406 210.175781 171.367188 210.039062 L 171.367188 208.714844 C 171.757812 208.925781 172.160156 209.085938 172.578125 209.191406 C 172.992188 209.292969 173.433594 209.347656 173.898438 209.347656 C 174.648438 209.347656 175.242188 209.148438 175.679688 208.753906 C 176.121094 208.359375 176.339844 207.824219 176.339844 207.144531 C 176.339844 206.46875 176.121094 205.933594 175.679688 205.539062 C 175.242188 205.144531 174.648438 204.945312 173.898438 204.945312 C 173.546875 204.945312 173.195312 204.984375 172.84375 205.0625 C 172.496094 205.140625 172.140625 205.261719 171.777344 205.425781 Z M 171.777344 200.542969 "/>
<g clip-path="url(#clip5)" clip-rule="nonzero">
<path style="fill:none;stroke-width:0.8;stroke-linecap:square;stroke-linejoin:round;stroke:rgb(69.01961%,69.01961%,69.01961%);stroke-opacity:1;stroke-miterlimit:4;" d="M 160.303711 143.100586 L 160.303711 7.201172 " transform="matrix(1.333333,0,0,1.333333,0.000000000000028422,0)"/>
</g>
<path style="fill:none;stroke-width:0.8;stroke-linecap:butt;stroke-linejoin:round;stroke:rgb(0%,0%,0%);stroke-opacity:1;stroke-miterlimit:4;" d="M 0.000579834 0.000579834 L 0.000579834 3.498627 " transform="matrix(1.333333,0,0,1.333333,213.737508,190.800008)"/>
<path style=" stroke:none;fill-rule:nonzero;fill:rgb(0%,0%,0%);fill-opacity:1;" d="M 207.8125 209.160156 L 212.402344 209.160156 L 212.402344 210.265625 L 206.230469 210.265625 L 206.230469 209.160156 C 206.730469 208.640625 207.410156 207.949219 208.269531 207.078125 C 209.132812 206.207031 209.675781 205.648438 209.894531 205.394531 C 210.316406 204.921875 210.609375 204.523438 210.777344 204.195312 C 210.945312 203.867188 211.027344 203.542969 211.027344 203.226562 C 211.027344 202.710938 210.847656 202.289062 210.484375 201.964844 C 210.121094 201.636719 209.652344 201.476562 209.070312 201.476562 C 208.65625 201.476562 208.222656 201.546875 207.761719 201.691406 C 207.304688 201.832031 206.816406 202.050781 206.296875 202.339844 L 206.296875 201.011719 C 206.824219 200.800781 207.320312 200.640625 207.777344 200.53125 C 208.242188 200.421875 208.660156 200.367188 209.042969 200.367188 C 210.050781 200.367188 210.851562 200.621094 211.453125 201.125 C 212.050781 201.628906 212.351562 202.300781 212.351562 203.140625 C 212.351562 203.542969 212.273438 203.921875 212.125 204.277344 C 211.976562 204.636719 211.703125 205.058594 211.308594 205.542969 C 211.199219 205.671875 210.855469 206.035156 210.273438 206.636719 C 209.691406 207.238281 208.871094 208.078125 207.8125 209.160156 Z M 207.8125 209.160156 "/>
<path style=" stroke:none;fill-rule:nonzero;fill:rgb(0%,0%,0%);fill-opacity:1;" d="M 217.976562 201.410156 C 217.296875 201.410156 216.789062 201.742188 216.449219 202.410156 C 216.105469 203.074219 215.9375 204.078125 215.9375 205.414062 C 215.9375 206.746094 216.105469 207.746094 216.449219 208.414062 C 216.789062 209.078125 217.296875 209.414062 217.976562 209.414062 C 218.65625 209.414062 219.167969 209.078125 219.507812 208.414062 C 219.851562 207.746094 220.019531 206.746094 220.019531 205.414062 C 220.019531 204.078125 219.851562 203.074219 219.507812 202.410156 C 219.167969 201.742188 218.65625 201.410156 217.976562 201.410156 Z M 217.976562 200.367188 C 219.066406 200.367188 219.898438 200.800781 220.472656 201.664062 C 221.046875 202.523438 221.335938 203.773438 221.335938 205.414062 C 221.335938 207.050781 221.046875 208.300781 220.472656 209.164062 C 219.898438 210.023438 219.066406 210.453125 217.976562 210.453125 C 216.886719 210.453125 216.054688 210.023438 215.480469 209.164062 C 214.902344 208.300781 214.617188 207.050781 214.617188 205.414062 C 214.617188 203.773438 214.902344 202.523438 215.480469 201.664062 C 216.054688 200.800781 216.886719 200.367188 217.976562 200.367188 Z M 217.976562 200.367188 "/>
<g clip-path="url(#clip6)" clip-rule="nonzero">
<path style="fill:none;stroke-width:0.8;stroke-linecap:square;stroke-linejoin:round;stroke:rgb(69.01961%,69.01961%,69.01961%);stroke-opacity:1;stroke-miterlimit:4;" d="M 192.852539 143.100586 L 192.852539 7.201172 " transform="matrix(1.333333,0,0,1.333333,0.000000000000028422,0)"/>
</g>
<path style="fill:none;stroke-width:0.8;stroke-linecap:butt;stroke-linejoin:round;stroke:rgb(0%,0%,0%);stroke-opacity:1;stroke-miterlimit:4;" d="M -0.000579834 0.000579834 L -0.000579834 3.498627 " transform="matrix(1.333333,0,0,1.333333,257.137492,190.800008)"/>
<path style=" stroke:none;fill-rule:nonzero;fill:rgb(0%,0%,0%);fill-opacity:1;" d="M 251.210938 209.160156 L 255.800781 209.160156 L 255.800781 210.265625 L 249.632812 210.265625 L 249.632812 209.160156 C 250.128906 208.640625 250.808594 207.949219 251.671875 207.078125 C 252.535156 206.207031 253.074219 205.648438 253.296875 205.394531 C 253.714844 204.921875 254.011719 204.523438 254.175781 204.195312 C 254.34375 203.867188 254.429688 203.542969 254.429688 203.226562 C 254.429688 202.710938 254.246094 202.289062 253.886719 201.964844 C 253.523438 201.636719 253.050781 201.476562 252.46875 201.476562 C 252.054688 201.476562 251.621094 201.546875 251.164062 201.691406 C 250.707031 201.832031 250.214844 202.050781 249.695312 202.339844 L 249.695312 201.011719 C 250.226562 200.800781 250.71875 200.640625 251.179688 200.53125 C 251.640625 200.421875 252.0625 200.367188 252.445312 200.367188 C 253.449219 200.367188 254.253906 200.621094 254.851562 201.125 C 255.449219 201.628906 255.75 202.300781 255.75 203.140625 C 255.75 203.542969 255.675781 203.921875 255.523438 204.277344 C 255.375 204.636719 255.105469 205.058594 254.707031 205.542969 C 254.601562 205.671875 254.253906 206.035156 253.671875 206.636719 C 253.09375 207.238281 252.273438 208.078125 251.210938 209.160156 Z M 251.210938 209.160156 "/>
<path style=" stroke:none;fill-rule:nonzero;fill:rgb(0%,0%,0%);fill-opacity:1;" d="M 258.578125 200.542969 L 263.738281 200.542969 L 263.738281 201.652344 L 259.78125 201.652344 L 259.78125 204.035156 C 259.972656 203.96875 260.160156 203.917969 260.351562 203.886719 C 260.542969 203.855469 260.734375 203.839844 260.925781 203.839844 C 262.011719 203.839844 262.871094 204.136719 263.503906 204.730469 C 264.136719 205.324219 264.457031 206.128906 264.457031 207.144531 C 264.457031 208.191406 264.128906 209.003906 263.480469 209.585938 C 262.828125 210.164062 261.910156 210.453125 260.726562 210.453125 C 260.316406 210.453125 259.902344 210.417969 259.476562 210.351562 C 259.054688 210.28125 258.617188 210.175781 258.167969 210.039062 L 258.167969 208.714844 C 258.558594 208.925781 258.960938 209.085938 259.375 209.191406 C 259.792969 209.292969 260.234375 209.347656 260.699219 209.347656 C 261.449219 209.347656 262.042969 209.148438 262.480469 208.753906 C 262.917969 208.359375 263.140625 207.824219 263.140625 207.144531 C 263.140625 206.46875 262.917969 205.933594 262.480469 205.539062 C 262.042969 205.144531 261.449219 204.945312 260.699219 204.945312 C 260.347656 204.945312 259.996094 204.984375 259.644531 205.0625 C 259.296875 205.140625 258.941406 205.261719 258.578125 205.425781 Z M 258.578125 200.542969 "/>
<g clip-path="url(#clip7)" clip-rule="nonzero">
<path style="fill:none;stroke-width:0.8;stroke-linecap:square;stroke-linejoin:round;stroke:rgb(69.01961%,69.01961%,69.01961%);stroke-opacity:1;stroke-miterlimit:4;" d="M 225.404297 143.100586 L 225.404297 7.201172 " transform="matrix(1.333333,0,0,1.333333,0.000000000000028422,0)"/>
</g>
<path style="fill:none;stroke-width:0.8;stroke-linecap:butt;stroke-linejoin:round;stroke:rgb(0%,0%,0%);stroke-opacity:1;stroke-miterlimit:4;" d="M 0.00117493 0.000579834 L 0.00117493 3.498627 " transform="matrix(1.333333,0,0,1.333333,300.537496,190.800008)"/>
<path style=" stroke:none;fill-rule:nonzero;fill:rgb(0%,0%,0%);fill-opacity:1;" d="M 297.464844 205.023438 C 298.09375 205.15625 298.585938 205.4375 298.9375 205.863281 C 299.292969 206.289062 299.46875 206.816406 299.46875 207.441406 C 299.46875 208.398438 299.140625 209.140625 298.480469 209.667969 C 297.820312 210.191406 296.882812 210.453125 295.667969 210.453125 C 295.257812 210.453125 294.839844 210.414062 294.410156 210.332031 C 293.976562 210.253906 293.53125 210.132812 293.070312 209.972656 L 293.070312 208.703125 C 293.433594 208.914062 293.832031 209.074219 294.265625 209.183594 C 294.703125 209.292969 295.15625 209.347656 295.628906 209.347656 C 296.453125 209.347656 297.082031 209.183594 297.511719 208.859375 C 297.945312 208.535156 298.160156 208.058594 298.160156 207.441406 C 298.160156 206.867188 297.960938 206.417969 297.558594 206.097656 C 297.15625 205.773438 296.597656 205.609375 295.882812 205.609375 L 294.75 205.609375 L 294.75 204.527344 L 295.933594 204.527344 C 296.582031 204.527344 297.074219 204.398438 297.417969 204.140625 C 297.761719 203.882812 297.933594 203.511719 297.933594 203.023438 C 297.933594 202.527344 297.757812 202.144531 297.402344 201.878906 C 297.050781 201.609375 296.542969 201.476562 295.882812 201.476562 C 295.523438 201.476562 295.136719 201.515625 294.722656 201.59375 C 294.308594 201.671875 293.855469 201.792969 293.363281 201.957031 L 293.363281 200.785156 C 293.863281 200.648438 294.332031 200.542969 294.765625 200.472656 C 295.203125 200.402344 295.613281 200.367188 296 200.367188 C 297 200.367188 297.789062 200.597656 298.367188 201.050781 C 298.949219 201.503906 299.242188 202.117188 299.242188 202.886719 C 299.242188 203.425781 299.085938 203.882812 298.777344 204.253906 C 298.472656 204.621094 298.03125 204.878906 297.464844 205.023438 Z M 297.464844 205.023438 "/>
<path style=" stroke:none;fill-rule:nonzero;fill:rgb(0%,0%,0%);fill-opacity:1;" d="M 304.773438 201.410156 C 304.097656 201.410156 303.589844 201.742188 303.246094 202.410156 C 302.90625 203.074219 302.738281 204.078125 302.738281 205.414062 C 302.738281 206.746094 302.90625 207.746094 303.246094 208.414062 C 303.589844 209.078125 304.097656 209.414062 304.773438 209.414062 C 305.457031 209.414062 305.96875 209.078125 306.308594 208.414062 C 306.648438 207.746094 306.820312 206.746094 306.820312 205.414062 C 306.820312 204.078125 306.648438 203.074219 306.308594 202.410156 C 305.96875 201.742188 305.457031 201.410156 304.773438 201.410156 Z M 304.773438 200.367188 C 305.863281 200.367188 306.699219 200.800781 307.273438 201.664062 C 307.847656 202.523438 308.136719 203.773438 308.136719 205.414062 C 308.136719 207.050781 307.847656 208.300781 307.273438 209.164062 C 306.699219 210.023438 305.863281 210.453125 304.773438 210.453125 C 303.6875 210.453125 302.855469 210.023438 302.277344 209.164062 C 301.703125 208.300781 301.417969 207.050781 301.417969 205.414062 C 301.417969 203.773438 301.703125 202.523438 302.277344 201.664062 C 302.855469 200.800781 303.6875 200.367188 304.773438 200.367188 Z M 304.773438 200.367188 "/>
<path style=" stroke:none;fill-rule:nonzero;fill:rgb(0%,0%,0%);fill-opacity:1;" d="M 157.527344 224.554688 L 157.527344 225.140625 L 152.019531 225.140625 C 152.070312 225.964844 152.320312 226.59375 152.765625 227.027344 C 153.210938 227.460938 153.828125 227.675781 154.621094 227.675781 C 155.082031 227.675781 155.527344 227.617188 155.960938 227.507812 C 156.390625 227.394531 156.820312 227.222656 157.246094 226.996094 L 157.246094 228.132812 C 156.816406 228.3125 156.375 228.453125 155.925781 228.546875 C 155.472656 228.644531 155.015625 228.691406 154.550781 228.691406 C 153.386719 228.691406 152.464844 228.351562 151.789062 227.675781 C 151.109375 227 150.769531 226.082031 150.769531 224.925781 C 150.769531 223.734375 151.089844 222.789062 151.734375 222.085938 C 152.378906 221.386719 153.25 221.035156 154.34375 221.035156 C 155.324219 221.035156 156.101562 221.351562 156.671875 221.984375 C 157.242188 222.613281 157.527344 223.472656 157.527344 224.554688 Z M 156.328125 224.203125 C 156.320312 223.550781 156.136719 223.027344 155.777344 222.636719 C 155.421875 222.246094 154.945312 222.050781 154.355469 222.050781 C 153.6875 222.050781 153.152344 222.238281 152.753906 222.617188 C 152.351562 222.996094 152.121094 223.527344 152.058594 224.210938 Z M 156.328125 224.203125 "/>
<path style=" stroke:none;fill-rule:nonzero;fill:rgb(0%,0%,0%);fill-opacity:1;" d="M 160.652344 227.410156 L 160.652344 231.273438 L 159.445312 231.273438 L 159.445312 221.210938 L 160.652344 221.210938 L 160.652344 222.316406 C 160.902344 221.882812 161.222656 221.5625 161.605469 221.351562 C 161.988281 221.140625 162.449219 221.035156 162.980469 221.035156 C 163.867188 221.035156 164.585938 221.386719 165.140625 222.089844 C 165.695312 222.792969 165.972656 223.714844 165.972656 224.863281 C 165.972656 226.007812 165.695312 226.933594 165.140625 227.636719 C 164.585938 228.339844 163.867188 228.691406 162.980469 228.691406 C 162.449219 228.691406 161.988281 228.585938 161.605469 228.375 C 161.222656 228.164062 160.902344 227.839844 160.652344 227.410156 Z M 164.726562 224.863281 C 164.726562 223.980469 164.546875 223.289062 164.183594 222.789062 C 163.820312 222.289062 163.324219 222.039062 162.691406 222.039062 C 162.054688 222.039062 161.558594 222.289062 161.195312 222.789062 C 160.832031 223.289062 160.652344 223.980469 160.652344 224.863281 C 160.652344 225.742188 160.832031 226.433594 161.195312 226.933594 C 161.558594 227.4375 162.054688 227.6875 162.691406 227.6875 C 163.324219 227.6875 163.820312 227.4375 164.183594 226.933594 C 164.546875 226.433594 164.726562 225.742188 164.726562 224.863281 Z M 164.726562 224.863281 "/>
<path style=" stroke:none;fill-rule:nonzero;fill:rgb(0%,0%,0%);fill-opacity:1;" d="M 170.78125 222.050781 C 170.140625 222.050781 169.632812 222.300781 169.257812 222.800781 C 168.882812 223.304688 168.699219 223.992188 168.699219 224.863281 C 168.699219 225.734375 168.882812 226.421875 169.253906 226.921875 C 169.625 227.425781 170.136719 227.675781 170.78125 227.675781 C 171.421875 227.675781 171.925781 227.421875 172.296875 226.921875 C 172.671875 226.417969 172.859375 225.730469 172.859375 224.863281 C 172.859375 224 172.671875 223.3125 172.296875 222.808594 C 171.925781 222.304688 171.421875 222.050781 170.78125 222.050781 Z M 170.78125 221.035156 C 171.824219 221.035156 172.640625 221.375 173.234375 222.050781 C 173.832031 222.726562 174.128906 223.664062 174.128906 224.863281 C 174.128906 226.054688 173.832031 226.992188 173.234375 227.671875 C 172.640625 228.351562 171.824219 228.691406 170.78125 228.691406 C 169.734375 228.691406 168.914062 228.351562 168.324219 227.671875 C 167.730469 226.992188 167.433594 226.054688 167.433594 224.863281 C 167.433594 223.664062 167.730469 222.726562 168.324219 222.050781 C 168.914062 221.375 169.734375 221.035156 170.78125 221.035156 Z M 170.78125 221.035156 "/>
<path style=" stroke:none;fill-rule:nonzero;fill:rgb(0%,0%,0%);fill-opacity:1;" d="M 181.363281 221.488281 L 181.363281 222.609375 C 181.023438 222.421875 180.683594 222.28125 180.34375 222.191406 C 180.003906 222.097656 179.660156 222.050781 179.3125 222.050781 C 178.535156 222.050781 177.929688 222.296875 177.5 222.789062 C 177.070312 223.28125 176.855469 223.972656 176.855469 224.863281 C 176.855469 225.753906 177.070312 226.445312 177.5 226.9375 C 177.929688 227.429688 178.535156 227.675781 179.3125 227.675781 C 179.660156 227.675781 180.003906 227.628906 180.34375 227.535156 C 180.683594 227.441406 181.023438 227.300781 181.363281 227.113281 L 181.363281 228.222656 C 181.027344 228.378906 180.679688 228.496094 180.320312 228.574219 C 179.964844 228.652344 179.585938 228.691406 179.179688 228.691406 C 178.082031 228.691406 177.207031 228.347656 176.5625 227.65625 C 175.914062 226.964844 175.59375 226.035156 175.59375 224.863281 C 175.59375 223.671875 175.917969 222.738281 176.570312 222.058594 C 177.226562 221.375 178.121094 221.035156 179.257812 221.035156 C 179.628906 221.035156 179.988281 221.074219 180.339844 221.148438 C 180.691406 221.226562 181.03125 221.339844 181.363281 221.488281 Z M 181.363281 221.488281 "/>
<path style=" stroke:none;fill-rule:nonzero;fill:rgb(0%,0%,0%);fill-opacity:1;" d="M 189.507812 224.101562 L 189.507812 228.503906 L 188.308594 228.503906 L 188.308594 224.140625 C 188.308594 223.449219 188.175781 222.933594 187.90625 222.589844 C 187.636719 222.25 187.230469 222.078125 186.695312 222.078125 C 186.046875 222.078125 185.535156 222.285156 185.164062 222.695312 C 184.789062 223.105469 184.601562 223.667969 184.601562 224.382812 L 184.601562 228.503906 L 183.398438 228.503906 L 183.398438 218.371094 L 184.601562 218.371094 L 184.601562 222.34375 C 184.890625 221.90625 185.226562 221.578125 185.617188 221.359375 C 186.003906 221.144531 186.453125 221.035156 186.960938 221.035156 C 187.796875 221.035156 188.433594 221.292969 188.859375 221.8125 C 189.292969 222.332031 189.507812 223.09375 189.507812 224.101562 Z M 189.507812 224.101562 "/>
<g clip-path="url(#clip8)" clip-rule="nonzero">
<path style="fill:none;stroke-width:0.8;stroke-linecap:square;stroke-linejoin:round;stroke:rgb(69.01961%,69.01961%,69.01961%);stroke-opacity:1;stroke-miterlimit:4;" d="M 30.102539 117.295898 L 225.404297 117.295898 " transform="matrix(1.333333,0,0,1.333333,0.000000000000028422,0)"/>
</g>
<path style="fill:none;stroke-width:0.8;stroke-linecap:butt;stroke-linejoin:round;stroke:rgb(0%,0%,0%);stroke-opacity:1;stroke-miterlimit:4;" d="M -0.000585556 0.000511169 L -3.498632 0.000511169 " transform="matrix(1.333333,0,0,1.333333,40.137499,156.39385)"/>
<path style=" stroke:none;fill-rule:nonzero;fill:rgb(0%,0%,0%);fill-opacity:1;" d="M 13.835938 152.605469 C 13.160156 152.605469 12.652344 152.9375 12.308594 153.605469 C 11.96875 154.269531 11.800781 155.273438 11.800781 156.609375 C 11.800781 157.941406 11.96875 158.941406 12.308594 159.605469 C 12.652344 160.273438 13.160156 160.605469 13.835938 160.605469 C 14.519531 160.605469 15.03125 160.273438 15.371094 159.605469 C 15.710938 158.941406 15.882812 157.941406 15.882812 156.609375 C 15.882812 155.273438 15.710938 154.269531 15.371094 153.605469 C 15.03125 152.9375 14.519531 152.605469 13.835938 152.605469 Z M 13.835938 151.5625 C 14.929688 151.5625 15.761719 151.996094 16.335938 152.855469 C 16.910156 153.71875 17.199219 154.96875 17.199219 156.609375 C 17.199219 158.246094 16.910156 159.496094 16.335938 160.355469 C 15.761719 161.21875 14.929688 161.648438 13.835938 161.648438 C 12.75 161.648438 11.917969 161.21875 11.339844 160.355469 C 10.765625 159.496094 10.480469 158.246094 10.480469 156.609375 C 10.480469 154.96875 10.765625 153.71875 11.339844 152.855469 C 11.917969 151.996094 12.75 151.5625 13.835938 151.5625 Z M 13.835938 151.5625 "/>
<path style=" stroke:none;fill-rule:nonzero;fill:rgb(0%,0%,0%);fill-opacity:1;" d="M 19.507812 159.804688 L 20.882812 159.804688 L 20.882812 161.460938 L 19.507812 161.460938 Z M 19.507812 159.804688 "/>
<path style=" stroke:none;fill-rule:nonzero;fill:rgb(0%,0%,0%);fill-opacity:1;" d="M 23.761719 151.738281 L 28.921875 151.738281 L 28.921875 152.847656 L 24.964844 152.847656 L 24.964844 155.226562 C 25.15625 155.164062 25.34375 155.113281 25.535156 155.082031 C 25.726562 155.050781 25.917969 155.035156 26.109375 155.035156 C 27.195312 155.035156 28.054688 155.332031 28.6875 155.925781 C 29.324219 156.519531 29.640625 157.324219 29.640625 158.339844 C 29.640625 159.386719 29.3125 160.199219 28.664062 160.78125 C 28.011719 161.359375 27.09375 161.648438 25.910156 161.648438 C 25.5 161.648438 25.085938 161.613281 24.660156 161.542969 C 24.238281 161.476562 23.800781 161.371094 23.351562 161.230469 L 23.351562 159.910156 C 23.742188 160.121094 24.144531 160.28125 24.5625 160.382812 C 24.976562 160.488281 25.417969 160.539062 25.882812 160.539062 C 26.632812 160.539062 27.226562 160.34375 27.664062 159.949219 C 28.105469 159.554688 28.324219 159.019531 28.324219 158.339844 C 28.324219 157.664062 28.105469 157.128906 27.664062 156.734375 C 27.226562 156.339844 26.632812 156.140625 25.882812 156.140625 C 25.53125 156.140625 25.179688 156.179688 24.828125 156.257812 C 24.480469 156.335938 24.125 156.457031 23.761719 156.621094 Z M 23.761719 151.738281 "/>
<g clip-path="url(#clip9)" clip-rule="nonzero">
<path style="fill:none;stroke-width:0.8;stroke-linecap:square;stroke-linejoin:round;stroke:rgb(69.01961%,69.01961%,69.01961%);stroke-opacity:1;stroke-miterlimit:4;" d="M 30.102539 88.157227 L 225.404297 88.157227 " transform="matrix(1.333333,0,0,1.333333,0.000000000000028422,0)"/>
</g>
<path style="fill:none;stroke-width:0.8;stroke-linecap:butt;stroke-linejoin:round;stroke:rgb(0%,0%,0%);stroke-opacity:1;stroke-miterlimit:4;" d="M -0.000585556 0.0000915527 L -3.498632 0.0000915527 " transform="matrix(1.333333,0,0,1.333333,40.137499,117.542847)"/>
<path style=" stroke:none;fill-rule:nonzero;fill:rgb(0%,0%,0%);fill-opacity:1;" d="M 11.253906 121.503906 L 13.402344 121.503906 L 13.402344 114.085938 L 11.066406 114.554688 L 11.066406 113.355469 L 13.390625 112.886719 L 14.703125 112.886719 L 14.703125 121.503906 L 16.851562 121.503906 L 16.851562 122.609375 L 11.253906 122.609375 Z M 11.253906 121.503906 "/>
<path style=" stroke:none;fill-rule:nonzero;fill:rgb(0%,0%,0%);fill-opacity:1;" d="M 19.507812 120.953125 L 20.882812 120.953125 L 20.882812 122.609375 L 19.507812 122.609375 Z M 19.507812 120.953125 "/>
<path style=" stroke:none;fill-rule:nonzero;fill:rgb(0%,0%,0%);fill-opacity:1;" d="M 26.558594 113.753906 C 25.882812 113.753906 25.375 114.085938 25.03125 114.753906 C 24.691406 115.417969 24.519531 116.421875 24.519531 117.757812 C 24.519531 119.089844 24.691406 120.089844 25.03125 120.757812 C 25.375 121.421875 25.882812 121.757812 26.558594 121.757812 C 27.242188 121.757812 27.75 121.421875 28.09375 120.757812 C 28.433594 120.089844 28.605469 119.089844 28.605469 117.757812 C 28.605469 116.421875 28.433594 115.417969 28.09375 114.753906 C 27.75 114.085938 27.242188 113.753906 26.558594 113.753906 Z M 26.558594 112.710938 C 27.648438 112.710938 28.480469 113.144531 29.058594 114.007812 C 29.632812 114.867188 29.917969 116.117188 29.917969 117.757812 C 29.917969 119.394531 29.632812 120.644531 29.058594 121.507812 C 28.480469 122.367188 27.648438 122.796875 26.558594 122.796875 C 25.46875 122.796875 24.636719 122.367188 24.0625 121.507812 C 23.488281 120.644531 23.199219 119.394531 23.199219 117.757812 C 23.199219 116.117188 23.488281 114.867188 24.0625 114.007812 C 24.636719 113.144531 25.46875 112.710938 26.558594 112.710938 Z M 26.558594 112.710938 "/>
<g clip-path="url(#clip10)" clip-rule="nonzero">
<path style="fill:none;stroke-width:0.8;stroke-linecap:square;stroke-linejoin:round;stroke:rgb(69.01961%,69.01961%,69.01961%);stroke-opacity:1;stroke-miterlimit:4;" d="M 30.102539 59.018555 L 225.404297 59.018555 " transform="matrix(1.333333,0,0,1.333333,0.000000000000028422,0)"/>
</g>
<path style="fill:none;stroke-width:0.8;stroke-linecap:butt;stroke-linejoin:round;stroke:rgb(0%,0%,0%);stroke-opacity:1;stroke-miterlimit:4;" d="M -0.000585556 -0.000331879 L -3.498632 -0.000331879 " transform="matrix(1.333333,0,0,1.333333,40.137499,78.691849)"/>
<path style=" stroke:none;fill-rule:nonzero;fill:rgb(0%,0%,0%);fill-opacity:1;" d="M 11.253906 82.652344 L 13.402344 82.652344 L 13.402344 75.234375 L 11.066406 75.703125 L 11.066406 74.503906 L 13.390625 74.035156 L 14.703125 74.035156 L 14.703125 82.652344 L 16.851562 82.652344 L 16.851562 83.757812 L 11.253906 83.757812 Z M 11.253906 82.652344 "/>
<path style=" stroke:none;fill-rule:nonzero;fill:rgb(0%,0%,0%);fill-opacity:1;" d="M 19.507812 82.101562 L 20.882812 82.101562 L 20.882812 83.757812 L 19.507812 83.757812 Z M 19.507812 82.101562 "/>
<path style=" stroke:none;fill-rule:nonzero;fill:rgb(0%,0%,0%);fill-opacity:1;" d="M 23.761719 74.035156 L 28.921875 74.035156 L 28.921875 75.144531 L 24.964844 75.144531 L 24.964844 77.527344 C 25.15625 77.460938 25.34375 77.414062 25.535156 77.378906 C 25.726562 77.347656 25.917969 77.332031 26.109375 77.332031 C 27.195312 77.332031 28.054688 77.628906 28.6875 78.222656 C 29.324219 78.820312 29.640625 79.625 29.640625 80.640625 C 29.640625 81.683594 29.3125 82.496094 28.664062 83.078125 C 28.011719 83.65625 27.09375 83.945312 25.910156 83.945312 C 25.5 83.945312 25.085938 83.914062 24.660156 83.84375 C 24.238281 83.773438 23.800781 83.667969 23.351562 83.53125 L 23.351562 82.207031 C 23.742188 82.421875 24.144531 82.578125 24.5625 82.683594 C 24.976562 82.785156 25.417969 82.839844 25.882812 82.839844 C 26.632812 82.839844 27.226562 82.640625 27.664062 82.246094 C 28.105469 81.851562 28.324219 81.316406 28.324219 80.640625 C 28.324219 79.960938 28.105469 79.425781 27.664062 79.03125 C 27.226562 78.636719 26.632812 78.4375 25.882812 78.4375 C 25.53125 78.4375 25.179688 78.476562 24.828125 78.554688 C 24.480469 78.632812 24.125 78.753906 23.761719 78.921875 Z M 23.761719 74.035156 "/>
<g clip-path="url(#clip11)" clip-rule="nonzero">
<path style="fill:none;stroke-width:0.8;stroke-linecap:square;stroke-linejoin:round;stroke:rgb(69.01961%,69.01961%,69.01961%);stroke-opacity:1;stroke-miterlimit:4;" d="M 30.102539 29.879883 L 225.404297 29.879883 " transform="matrix(1.333333,0,0,1.333333,0.000000000000028422,0)"/>
</g>
<path style="fill:none;stroke-width:0.8;stroke-linecap:butt;stroke-linejoin:round;stroke:rgb(0%,0%,0%);stroke-opacity:1;stroke-miterlimit:4;" d="M -0.000585556 -0.000753403 L -3.498632 -0.000753403 " transform="matrix(1.333333,0,0,1.333333,40.137499,39.840848)"/>
<path style=" stroke:none;fill-rule:nonzero;fill:rgb(0%,0%,0%);fill-opacity:1;" d="M 12.160156 43.800781 L 16.746094 43.800781 L 16.746094 44.90625 L 10.578125 44.90625 L 10.578125 43.800781 C 11.074219 43.285156 11.753906 42.589844 12.617188 41.722656 C 13.480469 40.851562 14.019531 40.289062 14.242188 40.035156 C 14.664062 39.5625 14.957031 39.164062 15.121094 38.835938 C 15.289062 38.507812 15.375 38.1875 15.375 37.867188 C 15.375 37.351562 15.195312 36.929688 14.832031 36.605469 C 14.46875 36.28125 13.996094 36.117188 13.414062 36.117188 C 13.003906 36.117188 12.566406 36.1875 12.109375 36.332031 C 11.652344 36.472656 11.164062 36.691406 10.640625 36.984375 L 10.640625 35.65625 C 11.171875 35.441406 11.664062 35.28125 12.125 35.171875 C 12.585938 35.066406 13.007812 35.011719 13.390625 35.011719 C 14.398438 35.011719 15.199219 35.261719 15.796875 35.765625 C 16.398438 36.269531 16.695312 36.941406 16.695312 37.785156 C 16.695312 38.183594 16.621094 38.5625 16.472656 38.921875 C 16.320312 39.277344 16.050781 39.699219 15.652344 40.1875 C 15.546875 40.3125 15.199219 40.675781 14.617188 41.277344 C 14.039062 41.878906 13.21875 42.71875 12.160156 43.800781 Z M 12.160156 43.800781 "/>
<path style=" stroke:none;fill-rule:nonzero;fill:rgb(0%,0%,0%);fill-opacity:1;" d="M 19.507812 43.253906 L 20.882812 43.253906 L 20.882812 44.90625 L 19.507812 44.90625 Z M 19.507812 43.253906 "/>
<path style=" stroke:none;fill-rule:nonzero;fill:rgb(0%,0%,0%);fill-opacity:1;" d="M 26.558594 36.050781 C 25.882812 36.050781 25.375 36.386719 25.03125 37.050781 C 24.691406 37.71875 24.519531 38.71875 24.519531 40.054688 C 24.519531 41.386719 24.691406 42.386719 25.03125 43.054688 C 25.375 43.722656 25.882812 44.054688 26.558594 44.054688 C 27.242188 44.054688 27.75 43.722656 28.09375 43.054688 C 28.433594 42.386719 28.605469 41.386719 28.605469 40.054688 C 28.605469 38.71875 28.433594 37.71875 28.09375 37.050781 C 27.75 36.386719 27.242188 36.050781 26.558594 36.050781 Z M 26.558594 35.011719 C 27.648438 35.011719 28.480469 35.441406 29.058594 36.304688 C 29.632812 37.164062 29.917969 38.417969 29.917969 40.054688 C 29.917969 41.691406 29.632812 42.941406 29.058594 43.804688 C 28.480469 44.664062 27.648438 45.097656 26.558594 45.097656 C 25.46875 45.097656 24.636719 44.664062 24.0625 43.804688 C 23.488281 42.941406 23.199219 41.691406 23.199219 40.054688 C 23.199219 38.417969 23.488281 37.164062 24.0625 36.304688 C 24.636719 35.441406 25.46875 35.011719 26.558594 35.011719 Z M 26.558594 35.011719 "/>
<g clip-path="url(#clip12)" clip-rule="nonzero">
<path style="fill:none;stroke-width:1.5;stroke-linecap:square;stroke-linejoin:round;stroke:rgb(12.156863%,46.666667%,70.588237%);stroke-opacity:1;stroke-miterlimit:4;" d="M 31.461914 13.376953 L 32.844727 31.822266 L 34.230469 49.628906 L 35.616211 60.84375 L 37.97168 104.501953 L 39.354492 105.246094 L 40.740234 106.725586 L 42.125977 107.619141 L 44.481445 116.34375 L 45.864258 116.610352 L 47.25 116.850586 L 48.635742 116.958984 L 50.991211 119.730469 L 52.376953 120.087891 L 53.759766 120.114258 L 55.145508 120.389648 L 57.500977 122.378906 L 58.886719 122.326172 L 60.269531 122.036133 L 61.655273 121.927734 L 64.010742 123.017578 L 65.396484 122.800781 L 66.779297 123.073242 L 68.165039 123.064453 L 70.520508 123.960938 L 71.90625 124.03418 L 73.291992 124.086914 L 74.674805 124.166016 L 77.030273 124.450195 L 78.416016 124.573242 L 79.801758 124.754883 L 81.18457 124.866211 L 83.540039 124.924805 L 84.925781 125.455078 L 86.311523 125.367188 L 87.697266 125.44043 L 90.049805 126.055664 L 91.435547 125.894531 L 92.821289 126.09668 L 94.207031 126.035156 L 96.55957 126.612305 L 97.945312 126.503906 L 99.331055 126.462891 L 100.716797 126.500977 L 103.069336 127.189453 L 104.455078 127.016602 L 105.84082 126.946289 L 107.226562 126.93457 L 109.579102 127.391602 L 110.964844 127.236328 L 112.350586 127.092773 L 113.736328 127.110352 L 116.091797 127.869141 L 117.474609 127.716797 L 118.860352 127.640625 L 120.246094 127.702148 L 122.601562 127.49707 L 123.984375 127.957031 L 125.370117 127.875 L 126.755859 127.790039 L 129.111328 128.220703 L 130.49707 128.496094 L 131.879883 128.425781 L 133.265625 128.255859 L 135.621094 127.833984 L 137.006836 128.15625 L 138.389648 128.170898 L 139.775391 128.402344 L 142.130859 129.146484 L 143.516602 128.844727 L 144.899414 128.879883 L 146.285156 128.780273 L 148.640625 129.140625 L 150.026367 128.958984 L 151.412109 128.994141 L 152.794922 128.938477 L 155.150391 129.445312 L 156.536133 129.287109 L 157.921875 129.120117 L 159.304687 129.246094 L 161.660156 129.046875 L 163.045898 129.28125 L 164.431641 129.421875 L 165.814453 129.427734 L 168.169922 129.65332 L 169.555664 129.375 L 170.941406 129.462891 L 172.327148 129.386719 L 174.679687 129.905273 L 176.06543 129.84375 L 177.451172 129.773438 L 178.836914 129.735352 L 181.189453 130.010742 L 182.575195 129.770508 L 183.960937 129.902344 L 185.34668 129.767578 L 187.699219 129.93457 L 189.084961 130.03418 L 190.470703 130.03418 L 191.856445 130.03125 L 194.211914 129.922852 L 195.594727 130.083984 L 196.980469 130.072266 L 198.366211 130.051758 L 200.72168 130.265625 L 202.104492 130.561523 L 203.490234 130.412109 L 204.875977 130.374023 L 207.231445 130.649414 L 208.614258 130.321289 L 210 130.207031 L 211.385742 130.262695 L 213.741211 130.294922 L 215.126953 130.494141 L 216.509766 130.643555 L 217.895508 130.643555 L 220.250977 131.077148 L 221.636719 130.631836 L 223.019531 130.716797 L 224.405273 130.6875 " transform="matrix(1.333333,0,0,1.333333,0.000000000000028422,0)"/>
</g>
<g clip-path="url(#clip13)" clip-rule="nonzero">
<path style="fill:none;stroke-width:1.5;stroke-linecap:butt;stroke-linejoin:round;stroke:rgb(74.901962%,0%,74.901962%);stroke-opacity:1;stroke-dasharray:5.55,2.4;stroke-miterlimit:4;" d="M 31.461914 136.921875 L 32.844727 130.520508 L 34.230469 124.417969 L 35.616211 120.354492 L 37.97168 104.598633 L 39.354492 104.085938 L 40.740234 103.532227 L 42.125977 103.116211 L 44.481445 99.383789 L 45.864258 99.407227 L 47.25 99.263672 L 48.635742 99.178711 L 50.991211 97.757812 L 52.376953 97.828125 L 53.759766 97.860352 L 55.145508 97.763672 L 57.500977 97.125 L 58.886719 97.013672 L 60.269531 97.069336 L 61.655273 97.139648 L 64.010742 96.776367 L 65.396484 96.911133 L 66.779297 96.755859 L 68.165039 96.764648 L 70.520508 96.369141 L 71.90625 96.401367 L 73.291992 96.295898 L 74.674805 96.287109 L 77.030273 96.09375 L 78.416016 96.105469 L 79.801758 96.123047 L 81.18457 96.061523 L 83.540039 95.970703 L 84.925781 95.900391 L 86.311523 95.876953 L 87.697266 95.874023 L 90.049805 95.578125 L 91.435547 95.645508 L 92.821289 95.595703 L 94.207031 95.592773 L 96.55957 95.504883 L 97.945312 95.475586 L 99.331055 95.542969 L 100.716797 95.542969 L 103.069336 95.308594 L 104.455078 95.267578 L 105.84082 95.282227 L 107.226562 95.308594 L 109.579102 95.085938 L 110.964844 95.100586 L 112.350586 95.200195 L 113.736328 95.25293 L 116.091797 95.012695 L 117.474609 94.989258 L 118.860352 94.980469 L 120.246094 94.945312 L 122.601562 95.000977 L 123.984375 94.807617 L 125.370117 94.951172 L 126.755859 94.974609 L 129.111328 94.992188 L 130.49707 94.839844 L 131.879883 94.854492 L 133.265625 94.889648 L 135.621094 95.053711 L 137.006836 94.916016 L 138.389648 94.836914 L 139.775391 94.769531 L 142.130859 94.450195 L 143.516602 94.567383 L 144.899414 94.611328 L 146.285156 94.722656 L 148.640625 94.573242 L 150.026367 94.573242 L 151.412109 94.532227 L 152.794922 94.582031 L 155.150391 94.379883 L 156.536133 94.40625 L 157.921875 94.549805 L 159.304687 94.491211 L 161.660156 94.450195 L 163.045898 94.365234 L 164.431641 94.356445 L 165.814453 94.379883 L 168.169922 94.256836 L 169.555664 94.426758 L 170.941406 94.432617 L 172.327148 94.447266 L 174.679687 94.318359 L 176.06543 94.289062 L 178.836914 94.324219 L 181.189453 94.083984 L 182.575195 94.236328 L 183.960937 94.201172 L 185.34668 94.262695 L 187.699219 94.198242 L 189.084961 94.133789 L 190.470703 94.133789 L 191.856445 94.12207 L 194.211914 94.12207 L 195.594727 94.116211 L 196.980469 94.133789 L 198.366211 94.183594 L 200.72168 94.148438 L 202.104492 93.966797 L 203.490234 93.978516 L 204.875977 94.010742 L 207.231445 93.861328 L 208.614258 93.963867 L 210 94.075195 L 211.385742 94.051758 L 213.741211 94.12207 L 215.126953 93.993164 L 216.509766 93.928711 L 217.895508 93.919922 L 220.250977 93.74707 L 221.636719 93.981445 L 223.019531 93.911133 L 224.405273 93.905273 " transform="matrix(1.333333,0,0,1.333333,0.000000000000028422,0)"/>
</g>
<g clip-path="url(#clip14)" clip-rule="nonzero">
<path style="fill:none;stroke-width:1.5;stroke-linecap:butt;stroke-linejoin:round;stroke:rgb(0%,50.196081%,0%);stroke-opacity:1;stroke-dasharray:9.6,2.4,1.5,2.4;stroke-miterlimit:4;" d="M 36.612305 104.71875 L 43.12207 102.46875 L 49.631836 103.063477 L 56.144531 99.94043 L 62.654297 97.567383 L 69.164062 97.517578 L 75.673828 100.139648 L 82.183594 96.911133 L 88.693359 97.083984 L 95.203125 96.829102 L 101.712891 96.222656 L 108.222656 96.357422 L 114.732422 96.117188 L 121.242187 96.09375 L 127.751953 96.263672 L 134.261719 95.604492 L 140.774414 95.897461 L 147.28418 96.011719 L 153.793945 95.308594 L 160.303711 95.791992 L 166.813477 97.68457 L 173.323242 95.610352 L 179.833008 95.797852 L 186.342773 95.191406 L 192.852539 95.733398 L 199.362305 94.951172 L 205.87207 95.44043 L 212.381836 95.121094 L 218.894531 95.355469 L 225.404297 95.390625 " transform="matrix(1.333333,0,0,1.333333,0.000000000000028422,0)"/>
</g>
<path style="fill:none;stroke-width:0.8;stroke-linecap:square;stroke-linejoin:miter;stroke:rgb(0%,0%,0%);stroke-opacity:1;stroke-miterlimit:4;" d="M 30.102539 143.100586 L 30.102539 7.201172 " transform="matrix(1.333333,0,0,1.333333,0.000000000000028422,0)"/>
<path style="fill:none;stroke-width:0.8;stroke-linecap:square;stroke-linejoin:miter;stroke:rgb(0%,0%,0%);stroke-opacity:1;stroke-miterlimit:4;" d="M 225.404297 143.100586 L 225.404297 7.201172 " transform="matrix(1.333333,0,0,1.333333,0.000000000000028422,0)"/>
<path style="fill:none;stroke-width:0.8;stroke-linecap:square;stroke-linejoin:miter;stroke:rgb(0%,0%,0%);stroke-opacity:1;stroke-miterlimit:4;" d="M 30.102539 143.100586 L 225.404297 143.100586 " transform="matrix(1.333333,0,0,1.333333,0.000000000000028422,0)"/>
<path style="fill:none;stroke-width:0.8;stroke-linecap:square;stroke-linejoin:miter;stroke:rgb(0%,0%,0%);stroke-opacity:1;stroke-miterlimit:4;" d="M 30.102539 7.201172 L 225.404297 7.201172 " transform="matrix(1.333333,0,0,1.333333,0.000000000000028422,0)"/>
<use xlink:href="#surface5" mask="url(#mask0)"/>
<path style="fill:none;stroke-width:1.5;stroke-linecap:square;stroke-linejoin:round;stroke:rgb(12.156863%,46.666667%,70.588237%);stroke-opacity:1;stroke-miterlimit:4;" d="M 142.634766 20.299805 L 162.635742 20.299805 " transform="matrix(1.333333,0,0,1.333333,0.000000000000028422,0)"/>
<path style=" stroke:none;fill-rule:nonzero;fill:rgb(0%,0%,0%);fill-opacity:1;" d="M 229.953125 22.367188 L 229.953125 24.441406 L 232.421875 24.441406 L 232.421875 25.371094 L 229.953125 25.371094 L 229.953125 29.328125 C 229.953125 29.921875 230.035156 30.304688 230.199219 30.476562 C 230.359375 30.644531 230.691406 30.730469 231.191406 30.730469 L 232.421875 30.730469 L 232.421875 31.730469 L 231.191406 31.730469 C 230.265625 31.730469 229.628906 31.558594 229.277344 31.214844 C 228.925781 30.867188 228.75 30.242188 228.75 29.328125 L 228.75 25.371094 L 227.871094 25.371094 L 227.871094 24.441406 L 228.75 24.441406 L 228.75 22.367188 Z M 229.953125 22.367188 "/>
<path style=" stroke:none;fill-rule:nonzero;fill:rgb(0%,0%,0%);fill-opacity:1;" d="M 238.222656 25.558594 C 238.085938 25.480469 237.941406 25.421875 237.78125 25.386719 C 237.625 25.351562 237.449219 25.332031 237.257812 25.332031 C 236.582031 25.332031 236.0625 25.550781 235.699219 25.992188 C 235.335938 26.433594 235.15625 27.066406 235.15625 27.890625 L 235.15625 31.730469 L 233.949219 31.730469 L 233.949219 24.441406 L 235.15625 24.441406 L 235.15625 25.574219 C 235.40625 25.128906 235.734375 24.800781 236.136719 24.585938 C 236.542969 24.371094 237.035156 24.265625 237.609375 24.265625 C 237.691406 24.265625 237.785156 24.269531 237.882812 24.28125 C 237.984375 24.289062 238.09375 24.308594 238.214844 24.328125 Z M 238.222656 25.558594 "/>
<path style=" stroke:none;fill-rule:nonzero;fill:rgb(0%,0%,0%);fill-opacity:1;" d="M 242.792969 28.066406 C 241.824219 28.066406 241.152344 28.175781 240.78125 28.398438 C 240.40625 28.617188 240.21875 28.996094 240.21875 29.53125 C 240.21875 29.957031 240.359375 30.292969 240.640625 30.542969 C 240.921875 30.792969 241.300781 30.917969 241.78125 30.917969 C 242.449219 30.917969 242.980469 30.679688 243.382812 30.210938 C 243.785156 29.738281 243.984375 29.113281 243.984375 28.332031 L 243.984375 28.066406 Z M 245.183594 27.570312 L 245.183594 31.730469 L 243.984375 31.730469 L 243.984375 30.625 C 243.710938 31.066406 243.371094 31.394531 242.960938 31.605469 C 242.554688 31.816406 242.054688 31.921875 241.464844 31.921875 C 240.71875 31.921875 240.125 31.710938 239.683594 31.292969 C 239.242188 30.871094 239.023438 30.3125 239.023438 29.609375 C 239.023438 28.789062 239.296875 28.171875 239.84375 27.753906 C 240.394531 27.335938 241.214844 27.128906 242.304688 27.128906 L 243.984375 27.128906 L 243.984375 27.011719 C 243.984375 26.460938 243.804688 26.03125 243.441406 25.730469 C 243.078125 25.429688 242.570312 25.277344 241.914062 25.277344 C 241.496094 25.277344 241.089844 25.328125 240.695312 25.429688 C 240.300781 25.527344 239.921875 25.679688 239.558594 25.878906 L 239.558594 24.769531 C 239.996094 24.601562 240.421875 24.476562 240.832031 24.390625 C 241.246094 24.308594 241.644531 24.265625 242.035156 24.265625 C 243.09375 24.265625 243.878906 24.539062 244.402344 25.085938 C 244.921875 25.632812 245.183594 26.460938 245.183594 27.570312 Z M 245.183594 27.570312 "/>
<path style=" stroke:none;fill-rule:nonzero;fill:rgb(0%,0%,0%);fill-opacity:1;" d="M 247.648438 24.441406 L 248.847656 24.441406 L 248.847656 31.730469 L 247.648438 31.730469 Z M 247.648438 21.601562 L 248.847656 21.601562 L 248.847656 23.117188 L 247.648438 23.117188 Z M 247.648438 21.601562 "/>
<path style=" stroke:none;fill-rule:nonzero;fill:rgb(0%,0%,0%);fill-opacity:1;" d="M 257.414062 27.328125 L 257.414062 31.730469 L 256.21875 31.730469 L 256.21875 27.367188 C 256.21875 26.679688 256.082031 26.164062 255.8125 25.820312 C 255.542969 25.476562 255.140625 25.304688 254.601562 25.304688 C 253.957031 25.304688 253.445312 25.511719 253.070312 25.925781 C 252.699219 26.335938 252.511719 26.898438 252.511719 27.609375 L 252.511719 31.730469 L 251.308594 31.730469 L 251.308594 24.441406 L 252.511719 24.441406 L 252.511719 25.574219 C 252.800781 25.132812 253.136719 24.804688 253.523438 24.589844 C 253.914062 24.371094 254.363281 24.265625 254.871094 24.265625 C 255.707031 24.265625 256.339844 24.523438 256.769531 25.042969 C 257.199219 25.558594 257.414062 26.320312 257.414062 27.328125 Z M 257.414062 27.328125 "/>
<path style=" stroke:none;fill-rule:nonzero;fill:rgb(0%,0%,0%);fill-opacity:1;" d="M 264.042969 21.601562 L 265.238281 21.601562 L 265.238281 31.730469 L 264.042969 31.730469 Z M 264.042969 21.601562 "/>
<path style=" stroke:none;fill-rule:nonzero;fill:rgb(0%,0%,0%);fill-opacity:1;" d="M 270.570312 25.277344 C 269.929688 25.277344 269.421875 25.53125 269.046875 26.03125 C 268.675781 26.53125 268.488281 27.21875 268.488281 28.089844 C 268.488281 28.964844 268.671875 29.652344 269.042969 30.152344 C 269.417969 30.652344 269.925781 30.902344 270.570312 30.902344 C 271.210938 30.902344 271.714844 30.652344 272.089844 30.148438 C 272.460938 29.644531 272.648438 28.960938 272.648438 28.089844 C 272.648438 27.226562 272.460938 26.542969 272.089844 26.039062 C 271.714844 25.53125 271.210938 25.277344 270.570312 25.277344 Z M 270.570312 24.265625 C 271.613281 24.265625 272.429688 24.601562 273.027344 25.28125 C 273.621094 25.957031 273.917969 26.894531 273.917969 28.089844 C 273.917969 29.285156 273.621094 30.222656 273.027344 30.902344 C 272.429688 31.582031 271.613281 31.921875 270.570312 31.921875 C 269.527344 31.921875 268.707031 31.582031 268.113281 30.902344 C 267.523438 30.222656 267.226562 29.285156 267.226562 28.089844 C 267.226562 26.894531 267.523438 25.957031 268.113281 25.28125 C 268.707031 24.601562 269.527344 24.265625 270.570312 24.265625 Z M 270.570312 24.265625 "/>
<path style=" stroke:none;fill-rule:nonzero;fill:rgb(0%,0%,0%);fill-opacity:1;" d="M 280.550781 24.652344 L 280.550781 25.789062 C 280.214844 25.613281 279.863281 25.484375 279.496094 25.398438 C 279.132812 25.308594 278.757812 25.265625 278.363281 25.265625 C 277.769531 25.265625 277.324219 25.359375 277.027344 25.539062 C 276.730469 25.722656 276.582031 25.996094 276.582031 26.359375 C 276.582031 26.636719 276.6875 26.855469 276.898438 27.015625 C 277.113281 27.171875 277.539062 27.324219 278.183594 27.464844 L 278.59375 27.558594 C 279.445312 27.742188 280.046875 27.996094 280.40625 28.328125 C 280.765625 28.660156 280.945312 29.125 280.945312 29.71875 C 280.945312 30.398438 280.675781 30.933594 280.140625 31.328125 C 279.601562 31.722656 278.867188 31.921875 277.929688 31.921875 C 277.539062 31.921875 277.132812 31.882812 276.707031 31.804688 C 276.285156 31.730469 275.839844 31.617188 275.371094 31.464844 L 275.371094 30.226562 C 275.8125 30.457031 276.25 30.628906 276.679688 30.746094 C 277.109375 30.859375 277.535156 30.917969 277.957031 30.917969 C 278.519531 30.917969 278.953125 30.820312 279.257812 30.628906 C 279.558594 30.433594 279.710938 30.160156 279.710938 29.808594 C 279.710938 29.484375 279.601562 29.234375 279.382812 29.0625 C 279.164062 28.890625 278.683594 28.722656 277.941406 28.558594 L 277.523438 28.460938 C 276.785156 28.308594 276.246094 28.066406 275.917969 27.742188 C 275.585938 27.421875 275.421875 26.976562 275.421875 26.414062 C 275.421875 25.726562 275.664062 25.195312 276.152344 24.824219 C 276.636719 24.453125 277.328125 24.265625 278.222656 24.265625 C 278.664062 24.265625 279.082031 24.296875 279.472656 24.363281 C 279.863281 24.425781 280.222656 24.523438 280.550781 24.652344 Z M 280.550781 24.652344 "/>
<path style=" stroke:none;fill-rule:nonzero;fill:rgb(0%,0%,0%);fill-opacity:1;" d="M 287.5 24.652344 L 287.5 25.789062 C 287.160156 25.613281 286.808594 25.484375 286.445312 25.398438 C 286.082031 25.308594 285.703125 25.265625 285.3125 25.265625 C 284.714844 25.265625 284.269531 25.359375 283.972656 25.539062 C 283.675781 25.722656 283.527344 25.996094 283.527344 26.359375 C 283.527344 26.636719 283.632812 26.855469 283.847656 27.015625 C 284.058594 27.171875 284.488281 27.324219 285.128906 27.464844 L 285.539062 27.558594 C 286.390625 27.742188 286.996094 27.996094 287.351562 28.328125 C 287.710938 28.660156 287.890625 29.125 287.890625 29.71875 C 287.890625 30.398438 287.621094 30.933594 287.085938 31.328125 C 286.550781 31.722656 285.8125 31.921875 284.875 31.921875 C 284.484375 31.921875 284.078125 31.882812 283.65625 31.804688 C 283.230469 31.730469 282.785156 31.617188 282.316406 31.464844 L 282.316406 30.226562 C 282.761719 30.457031 283.195312 30.628906 283.625 30.746094 C 284.054688 30.859375 284.480469 30.917969 284.902344 30.917969 C 285.464844 30.917969 285.898438 30.820312 286.203125 30.628906 C 286.507812 30.433594 286.660156 30.160156 286.660156 29.808594 C 286.660156 29.484375 286.550781 29.234375 286.328125 29.0625 C 286.113281 28.890625 285.632812 28.722656 284.886719 28.558594 L 284.472656 28.460938 C 283.730469 28.308594 283.195312 28.066406 282.863281 27.742188 C 282.535156 27.421875 282.371094 26.976562 282.371094 26.414062 C 282.371094 25.726562 282.613281 25.195312 283.097656 24.824219 C 283.585938 24.453125 284.273438 24.265625 285.167969 24.265625 C 285.609375 24.265625 286.027344 24.296875 286.417969 24.363281 C 286.808594 24.425781 287.167969 24.523438 287.5 24.652344 Z M 287.5 24.652344 "/>
<path style="fill:none;stroke-width:1.5;stroke-linecap:butt;stroke-linejoin:round;stroke:rgb(74.901962%,0%,74.901962%);stroke-opacity:1;stroke-dasharray:5.55,2.4;stroke-miterlimit:4;" d="M 142.634766 34.977539 L 162.635742 34.977539 " transform="matrix(1.333333,0,0,1.333333,0.000000000000028422,0)"/>
<path style=" stroke:none;fill-rule:nonzero;fill:rgb(0%,0%,0%);fill-opacity:1;" d="M 229.953125 41.941406 L 229.953125 44.011719 L 232.421875 44.011719 L 232.421875 44.941406 L 229.953125 44.941406 L 229.953125 48.898438 C 229.953125 49.496094 230.035156 49.875 230.199219 50.046875 C 230.359375 50.214844 230.691406 50.300781 231.191406 50.300781 L 232.421875 50.300781 L 232.421875 51.300781 L 231.191406 51.300781 C 230.265625 51.300781 229.628906 51.128906 229.277344 50.785156 C 228.925781 50.441406 228.75 49.8125 228.75 48.898438 L 228.75 44.941406 L 227.871094 44.941406 L 227.871094 44.011719 L 228.75 44.011719 L 228.75 41.941406 Z M 229.953125 41.941406 "/>
<path style=" stroke:none;fill-rule:nonzero;fill:rgb(0%,0%,0%);fill-opacity:1;" d="M 238.222656 45.128906 C 238.085938 45.050781 237.941406 44.996094 237.78125 44.957031 C 237.625 44.921875 237.449219 44.902344 237.257812 44.902344 C 236.582031 44.902344 236.0625 45.121094 235.699219 45.5625 C 235.335938 46.003906 235.15625 46.636719 235.15625 47.460938 L 235.15625 51.300781 L 233.949219 51.300781 L 233.949219 44.011719 L 235.15625 44.011719 L 235.15625 45.144531 C 235.40625 44.699219 235.734375 44.371094 236.136719 44.160156 C 236.542969 43.941406 237.035156 43.835938 237.609375 43.835938 C 237.691406 43.835938 237.785156 43.839844 237.882812 43.851562 C 237.984375 43.863281 238.09375 43.878906 238.214844 43.898438 Z M 238.222656 45.128906 "/>
<path style=" stroke:none;fill-rule:nonzero;fill:rgb(0%,0%,0%);fill-opacity:1;" d="M 242.792969 47.636719 C 241.824219 47.636719 241.152344 47.746094 240.78125 47.96875 C 240.40625 48.191406 240.21875 48.566406 240.21875 49.101562 C 240.21875 49.527344 240.359375 49.863281 240.640625 50.113281 C 240.921875 50.363281 241.300781 50.488281 241.78125 50.488281 C 242.449219 50.488281 242.980469 50.253906 243.382812 49.78125 C 243.785156 49.308594 243.984375 48.683594 243.984375 47.902344 L 243.984375 47.636719 Z M 245.183594 47.140625 L 245.183594 51.300781 L 243.984375 51.300781 L 243.984375 50.195312 C 243.710938 50.636719 243.371094 50.964844 242.960938 51.175781 C 242.554688 51.386719 242.054688 51.492188 241.464844 51.492188 C 240.71875 51.492188 240.125 51.28125 239.683594 50.863281 C 239.242188 50.441406 239.023438 49.882812 239.023438 49.179688 C 239.023438 48.359375 239.296875 47.742188 239.84375 47.324219 C 240.394531 46.910156 241.214844 46.699219 242.304688 46.699219 L 243.984375 46.699219 L 243.984375 46.582031 C 243.984375 46.03125 243.804688 45.601562 243.441406 45.300781 C 243.078125 45 242.570312 44.851562 241.914062 44.851562 C 241.496094 44.851562 241.089844 44.898438 240.695312 45 C 240.300781 45.101562 239.921875 45.25 239.558594 45.449219 L 239.558594 44.339844 C 239.996094 44.171875 240.421875 44.046875 240.832031 43.960938 C 241.246094 43.878906 241.644531 43.835938 242.035156 43.835938 C 243.09375 43.835938 243.878906 44.109375 244.402344 44.65625 C 244.921875 45.203125 245.183594 46.03125 245.183594 47.140625 Z M 245.183594 47.140625 "/>
<path style=" stroke:none;fill-rule:nonzero;fill:rgb(0%,0%,0%);fill-opacity:1;" d="M 247.648438 44.011719 L 248.847656 44.011719 L 248.847656 51.300781 L 247.648438 51.300781 Z M 247.648438 41.171875 L 248.847656 41.171875 L 248.847656 42.691406 L 247.648438 42.691406 Z M 247.648438 41.171875 "/>
<path style=" stroke:none;fill-rule:nonzero;fill:rgb(0%,0%,0%);fill-opacity:1;" d="M 257.414062 46.898438 L 257.414062 51.300781 L 256.21875 51.300781 L 256.21875 46.941406 C 256.21875 46.25 256.082031 45.734375 255.8125 45.390625 C 255.542969 45.046875 255.140625 44.878906 254.601562 44.878906 C 253.957031 44.878906 253.445312 45.082031 253.070312 45.496094 C 252.699219 45.90625 252.511719 46.46875 252.511719 47.179688 L 252.511719 51.300781 L 251.308594 51.300781 L 251.308594 44.011719 L 252.511719 44.011719 L 252.511719 45.144531 C 252.800781 44.703125 253.136719 44.378906 253.523438 44.160156 C 253.914062 43.945312 254.363281 43.835938 254.871094 43.835938 C 255.707031 43.835938 256.339844 44.09375 256.769531 44.613281 C 257.199219 45.128906 257.414062 45.894531 257.414062 46.898438 Z M 257.414062 46.898438 "/>
<path style=" stroke:none;fill-rule:nonzero;fill:rgb(0%,0%,0%);fill-opacity:1;" d="M 267.355469 47.636719 C 266.390625 47.636719 265.71875 47.746094 265.34375 47.96875 C 264.96875 48.191406 264.785156 48.566406 264.785156 49.101562 C 264.785156 49.527344 264.925781 49.863281 265.203125 50.113281 C 265.484375 50.363281 265.867188 50.488281 266.347656 50.488281 C 267.011719 50.488281 267.546875 50.253906 267.945312 49.78125 C 268.347656 49.308594 268.546875 48.683594 268.546875 47.902344 L 268.546875 47.636719 Z M 269.746094 47.140625 L 269.746094 51.300781 L 268.546875 51.300781 L 268.546875 50.195312 C 268.273438 50.636719 267.933594 50.964844 267.527344 51.175781 C 267.117188 51.386719 266.617188 51.492188 266.027344 51.492188 C 265.28125 51.492188 264.6875 51.28125 264.246094 50.863281 C 263.804688 50.441406 263.585938 49.882812 263.585938 49.179688 C 263.585938 48.359375 263.859375 47.742188 264.410156 47.324219 C 264.957031 46.910156 265.777344 46.699219 266.867188 46.699219 L 268.546875 46.699219 L 268.546875 46.582031 C 268.546875 46.03125 268.367188 45.601562 268.003906 45.300781 C 267.640625 45 267.132812 44.851562 266.476562 44.851562 C 266.0625 44.851562 265.65625 44.898438 265.257812 45 C 264.863281 45.101562 264.484375 45.25 264.121094 45.449219 L 264.121094 44.339844 C 264.558594 44.171875 264.984375 44.046875 265.394531 43.960938 C 265.808594 43.878906 266.210938 43.835938 266.601562 43.835938 C 267.65625 43.835938 268.445312 44.109375 268.964844 44.65625 C 269.484375 45.203125 269.746094 46.03125 269.746094 47.140625 Z M 269.746094 47.140625 "/>
<path style=" stroke:none;fill-rule:nonzero;fill:rgb(0%,0%,0%);fill-opacity:1;" d="M 277.460938 44.289062 L 277.460938 45.410156 C 277.121094 45.222656 276.78125 45.082031 276.441406 44.988281 C 276.101562 44.898438 275.757812 44.851562 275.410156 44.851562 C 274.632812 44.851562 274.027344 45.097656 273.597656 45.589844 C 273.167969 46.082031 272.953125 46.773438 272.953125 47.664062 C 272.953125 48.554688 273.167969 49.246094 273.597656 49.738281 C 274.027344 50.230469 274.632812 50.476562 275.410156 50.476562 C 275.757812 50.476562 276.101562 50.429688 276.441406 50.335938 C 276.78125 50.242188 277.121094 50.101562 277.460938 49.914062 L 277.460938 51.023438 C 277.125 51.179688 276.78125 51.296875 276.421875 51.371094 C 276.0625 51.453125 275.683594 51.492188 275.28125 51.492188 C 274.179688 51.492188 273.308594 51.148438 272.660156 50.457031 C 272.015625 49.765625 271.691406 48.835938 271.691406 47.664062 C 271.691406 46.472656 272.019531 45.539062 272.671875 44.859375 C 273.324219 44.175781 274.222656 43.835938 275.359375 43.835938 C 275.726562 43.835938 276.085938 43.875 276.4375 43.949219 C 276.789062 44.023438 277.128906 44.136719 277.460938 44.289062 Z M 277.460938 44.289062 "/>
<path style=" stroke:none;fill-rule:nonzero;fill:rgb(0%,0%,0%);fill-opacity:1;" d="M 284.792969 44.289062 L 284.792969 45.410156 C 284.453125 45.222656 284.113281 45.082031 283.773438 44.988281 C 283.433594 44.898438 283.089844 44.851562 282.742188 44.851562 C 281.964844 44.851562 281.359375 45.097656 280.929688 45.589844 C 280.5 46.082031 280.285156 46.773438 280.285156 47.664062 C 280.285156 48.554688 280.5 49.246094 280.929688 49.738281 C 281.359375 50.230469 281.964844 50.476562 282.742188 50.476562 C 283.089844 50.476562 283.433594 50.429688 283.773438 50.335938 C 284.113281 50.242188 284.453125 50.101562 284.792969 49.914062 L 284.792969 51.023438 C 284.457031 51.179688 284.109375 51.296875 283.75 51.371094 C 283.394531 51.453125 283.015625 51.492188 282.609375 51.492188 C 281.511719 51.492188 280.636719 51.148438 279.992188 50.457031 C 279.34375 49.765625 279.023438 48.835938 279.023438 47.664062 C 279.023438 46.472656 279.347656 45.539062 280 44.859375 C 280.65625 44.175781 281.550781 43.835938 282.6875 43.835938 C 283.058594 43.835938 283.417969 43.875 283.769531 43.949219 C 284.121094 44.023438 284.460938 44.136719 284.792969 44.289062 Z M 284.792969 44.289062 "/>
<path style="fill:none;stroke-width:1.5;stroke-linecap:butt;stroke-linejoin:round;stroke:rgb(0%,50.196081%,0%);stroke-opacity:1;stroke-dasharray:9.6,2.4,1.5,2.4;stroke-miterlimit:4;" d="M 142.634766 49.655273 L 162.635742 49.655273 " transform="matrix(1.333333,0,0,1.333333,0.000000000000028422,0)"/>
<path style=" stroke:none;fill-rule:nonzero;fill:rgb(0%,0%,0%);fill-opacity:1;" d="M 229.953125 61.511719 L 229.953125 63.582031 L 232.421875 63.582031 L 232.421875 64.511719 L 229.953125 64.511719 L 229.953125 68.472656 C 229.953125 69.066406 230.035156 69.445312 230.199219 69.617188 C 230.359375 69.785156 230.691406 69.871094 231.191406 69.871094 L 232.421875 69.871094 L 232.421875 70.871094 L 231.191406 70.871094 C 230.265625 70.871094 229.628906 70.699219 229.277344 70.355469 C 228.925781 70.011719 228.75 69.382812 228.75 68.472656 L 228.75 64.511719 L 227.871094 64.511719 L 227.871094 63.582031 L 228.75 63.582031 L 228.75 61.511719 Z M 229.953125 61.511719 "/>
<path style=" stroke:none;fill-rule:nonzero;fill:rgb(0%,0%,0%);fill-opacity:1;" d="M 240.234375 66.925781 L 240.234375 67.511719 L 234.726562 67.511719 C 234.777344 68.335938 235.027344 68.964844 235.472656 69.398438 C 235.917969 69.828125 236.535156 70.046875 237.328125 70.046875 C 237.789062 70.046875 238.234375 69.988281 238.667969 69.878906 C 239.097656 69.765625 239.527344 69.59375 239.953125 69.367188 L 239.953125 70.503906 C 239.523438 70.683594 239.082031 70.824219 238.632812 70.917969 C 238.179688 71.015625 237.722656 71.0625 237.257812 71.0625 C 236.09375 71.0625 235.171875 70.722656 234.496094 70.046875 C 233.816406 69.371094 233.476562 68.453125 233.476562 67.296875 C 233.476562 66.105469 233.796875 65.160156 234.441406 64.457031 C 235.085938 63.757812 235.957031 63.40625 237.050781 63.40625 C 238.03125 63.40625 238.808594 63.722656 239.378906 64.355469 C 239.949219 64.984375 240.234375 65.84375 240.234375 66.925781 Z M 239.035156 66.574219 C 239.027344 65.921875 238.84375 65.398438 238.484375 65.007812 C 238.128906 64.617188 237.652344 64.421875 237.0625 64.421875 C 236.394531 64.421875 235.859375 64.609375 235.460938 64.988281 C 235.058594 65.367188 234.828125 65.898438 234.765625 66.582031 Z M 239.035156 66.574219 "/>
<path style=" stroke:none;fill-rule:nonzero;fill:rgb(0%,0%,0%);fill-opacity:1;" d="M 246.847656 63.796875 L 246.847656 64.929688 C 246.511719 64.753906 246.160156 64.625 245.792969 64.539062 C 245.429688 64.453125 245.050781 64.410156 244.660156 64.410156 C 244.066406 64.410156 243.621094 64.5 243.324219 64.679688 C 243.027344 64.863281 242.875 65.136719 242.875 65.503906 C 242.875 65.78125 242.984375 65.996094 243.195312 66.15625 C 243.40625 66.316406 243.835938 66.464844 244.480469 66.609375 L 244.890625 66.699219 C 245.738281 66.882812 246.34375 67.140625 246.703125 67.472656 C 247.058594 67.804688 247.238281 68.265625 247.238281 68.859375 C 247.238281 69.539062 246.972656 70.074219 246.433594 70.472656 C 245.898438 70.867188 245.164062 71.0625 244.226562 71.0625 C 243.835938 71.0625 243.425781 71.023438 243.003906 70.949219 C 242.582031 70.871094 242.132812 70.757812 241.667969 70.605469 L 241.667969 69.367188 C 242.109375 69.597656 242.546875 69.773438 242.976562 69.886719 C 243.402344 70 243.828125 70.058594 244.25 70.058594 C 244.816406 70.058594 245.25 69.960938 245.550781 69.769531 C 245.855469 69.574219 246.007812 69.304688 246.007812 68.953125 C 246.007812 68.628906 245.898438 68.378906 245.679688 68.203125 C 245.460938 68.03125 244.980469 67.863281 244.238281 67.703125 L 243.820312 67.605469 C 243.078125 67.449219 242.542969 67.210938 242.210938 66.886719 C 241.882812 66.5625 241.71875 66.117188 241.71875 65.554688 C 241.71875 64.867188 241.960938 64.339844 242.449219 63.964844 C 242.933594 63.59375 243.625 63.40625 244.519531 63.40625 C 244.960938 63.40625 245.375 63.4375 245.765625 63.503906 C 246.15625 63.566406 246.519531 63.664062 246.847656 63.796875 Z M 246.847656 63.796875 "/>
<path style=" stroke:none;fill-rule:nonzero;fill:rgb(0%,0%,0%);fill-opacity:1;" d="M 250.332031 61.511719 L 250.332031 63.582031 L 252.796875 63.582031 L 252.796875 64.511719 L 250.332031 64.511719 L 250.332031 68.472656 C 250.332031 69.066406 250.414062 69.445312 250.574219 69.617188 C 250.738281 69.785156 251.070312 69.871094 251.570312 69.871094 L 252.796875 69.871094 L 252.796875 70.871094 L 251.570312 70.871094 C 250.644531 70.871094 250.007812 70.699219 249.65625 70.355469 C 249.304688 70.011719 249.128906 69.382812 249.128906 68.472656 L 249.128906 64.511719 L 248.25 64.511719 L 248.25 63.582031 L 249.128906 63.582031 L 249.128906 61.511719 Z M 250.332031 61.511719 "/>
<path style=" stroke:none;fill-rule:nonzero;fill:rgb(0%,0%,0%);fill-opacity:1;" d="M 261.925781 67.207031 C 260.960938 67.207031 260.289062 67.320312 259.914062 67.539062 C 259.539062 67.761719 259.355469 68.136719 259.355469 68.671875 C 259.355469 69.097656 259.496094 69.433594 259.773438 69.683594 C 260.054688 69.933594 260.4375 70.058594 260.917969 70.058594 C 261.582031 70.058594 262.117188 69.824219 262.515625 69.351562 C 262.917969 68.882812 263.117188 68.253906 263.117188 67.476562 L 263.117188 67.207031 Z M 264.316406 66.710938 L 264.316406 70.871094 L 263.117188 70.871094 L 263.117188 69.765625 C 262.84375 70.207031 262.503906 70.535156 262.097656 70.746094 C 261.6875 70.957031 261.1875 71.0625 260.597656 71.0625 C 259.851562 71.0625 259.257812 70.851562 258.816406 70.433594 C 258.375 70.015625 258.15625 69.453125 258.15625 68.75 C 258.15625 67.929688 258.429688 67.3125 258.980469 66.894531 C 259.527344 66.480469 260.347656 66.269531 261.4375 66.269531 L 263.117188 66.269531 L 263.117188 66.152344 C 263.117188 65.601562 262.9375 65.175781 262.574219 64.871094 C 262.210938 64.570312 261.703125 64.421875 261.046875 64.421875 C 260.632812 64.421875 260.226562 64.472656 259.828125 64.570312 C 259.433594 64.671875 259.054688 64.820312 258.691406 65.019531 L 258.691406 63.914062 C 259.128906 63.742188 259.554688 63.617188 259.964844 63.535156 C 260.378906 63.449219 260.78125 63.40625 261.171875 63.40625 C 262.226562 63.40625 263.015625 63.679688 263.535156 64.226562 C 264.054688 64.773438 264.316406 65.601562 264.316406 66.710938 Z M 264.316406 66.710938 "/>
<path style=" stroke:none;fill-rule:nonzero;fill:rgb(0%,0%,0%);fill-opacity:1;" d="M 272.03125 63.859375 L 272.03125 64.980469 C 271.691406 64.792969 271.351562 64.652344 271.011719 64.558594 C 270.671875 64.46875 270.328125 64.421875 269.980469 64.421875 C 269.203125 64.421875 268.597656 64.667969 268.167969 65.160156 C 267.738281 65.652344 267.523438 66.34375 267.523438 67.234375 C 267.523438 68.125 267.738281 68.816406 268.167969 69.308594 C 268.597656 69.800781 269.203125 70.046875 269.980469 70.046875 C 270.328125 70.046875 270.671875 70 271.011719 69.90625 C 271.351562 69.8125 271.691406 69.671875 272.03125 69.484375 L 272.03125 70.59375 C 271.695312 70.75 271.351562 70.867188 270.992188 70.945312 C 270.632812 71.023438 270.253906 71.0625 269.851562 71.0625 C 268.75 71.0625 267.878906 70.71875 267.230469 70.027344 C 266.585938 69.335938 266.261719 68.40625 266.261719 67.234375 C 266.261719 66.042969 266.589844 65.109375 267.242188 64.429688 C 267.894531 63.746094 268.792969 63.40625 269.929688 63.40625 C 270.296875 63.40625 270.65625 63.445312 271.007812 63.519531 C 271.359375 63.597656 271.699219 63.710938 272.03125 63.859375 Z M 272.03125 63.859375 "/>
<path style=" stroke:none;fill-rule:nonzero;fill:rgb(0%,0%,0%);fill-opacity:1;" d="M 279.363281 63.859375 L 279.363281 64.980469 C 279.023438 64.792969 278.683594 64.652344 278.34375 64.558594 C 278.003906 64.46875 277.660156 64.421875 277.3125 64.421875 C 276.535156 64.421875 275.929688 64.667969 275.5 65.160156 C 275.070312 65.652344 274.855469 66.34375 274.855469 67.234375 C 274.855469 68.125 275.070312 68.816406 275.5 69.308594 C 275.929688 69.800781 276.535156 70.046875 277.3125 70.046875 C 277.660156 70.046875 278.003906 70 278.34375 69.90625 C 278.683594 69.8125 279.023438 69.671875 279.363281 69.484375 L 279.363281 70.59375 C 279.027344 70.75 278.679688 70.867188 278.320312 70.945312 C 277.964844 71.023438 277.585938 71.0625 277.179688 71.0625 C 276.082031 71.0625 275.207031 70.71875 274.5625 70.027344 C 273.914062 69.335938 273.59375 68.40625 273.59375 67.234375 C 273.59375 66.042969 273.917969 65.109375 274.570312 64.429688 C 275.226562 63.746094 276.121094 63.40625 277.257812 63.40625 C 277.628906 63.40625 277.988281 63.445312 278.339844 63.519531 C 278.691406 63.597656 279.03125 63.710938 279.363281 63.859375 Z M 279.363281 63.859375 "/>
</g>
</svg>
