<?xml version="1.0" encoding="UTF-8"?>
<svg xmlns="http://www.w3.org/2000/svg" xmlns:xlink="http://www.w3.org/1999/xlink" width="336.858337" height="240.875" viewBox="0 0 336.858337 240.875" version="1.1">
<defs>
<clipPath id="clip1">
  <path d="M 86 9.601562 L 89 9.601562 L 89 190.800781 L 86 190.800781 Z M 86 9.601562 "/>
</clipPath>
<clipPath id="clip2">
  <path d="M 144 9.601562 L 146 9.601562 L 146 190.800781 L 144 190.800781 Z M 144 9.601562 "/>
</clipPath>
<clipPath id="clip3">
  <path d="M 202 9.601562 L 204 9.601562 L 204 190.800781 L 202 190.800781 Z M 202 9.601562 "/>
</clipPath>
<clipPath id="clip4">
  <path d="M 260 9.601562 L 262 9.601562 L 262 190.800781 L 260 190.800781 Z M 260 9.601562 "/>
</clipPath>
<clipPath id="clip5">
  <path d="M 318 9.601562 L 318.773438 9.601562 L 318.773438 190.800781 L 318 190.800781 Z M 318 9.601562 "/>
</clipPath>
<clipPath id="clip6">
  <path d="M 58.375 174 L 318.773438 174 L 318.773438 176 L 58.375 176 Z M 58.375 174 "/>
</clipPath>
<clipPath id="clip7">
  <path d="M 58.375 142 L 318.773438 142 L 318.773438 144 L 58.375 144 Z M 58.375 142 "/>
</clipPath>
<clipPath id="clip8">
  <path d="M 58.375 110 L 318.773438 110 L 318.773438 113 L 58.375 113 Z M 58.375 110 "/>
</clipPath>
<clipPath id="clip9">
  <path d="M 58.375 78 L 318.773438 78 L 318.773438 81 L 58.375 81 Z M 58.375 78 "/>
</clipPath>
<clipPath id="clip10">
  <path d="M 58.375 47 L 318.773438 47 L 318.773438 49 L 58.375 49 Z M 58.375 47 "/>
</clipPath>
<clipPath id="clip11">
  <path d="M 58.375 15 L 318.773438 15 L 318.773438 18 L 58.375 18 Z M 58.375 15 "/>
</clipPath>
<clipPath id="clip12">
  <path d="M 58.375 16 L 318.773438 16 L 318.773438 184 L 58.375 184 Z M 58.375 16 "/>
</clipPath>
</defs>
<g id="surface1">
<path style=" stroke:none;fill-rule:nonzero;fill:rgb(100%,100%,100%);fill-opacity:1;" d="M 58.375 190.800781 L 318.773438 190.800781 L 318.773438 9.601562 L 58.375 9.601562 Z M 58.375 190.800781 "/>
<g clip-path="url(#clip1)" clip-rule="nonzero">
<path style="fill:none;stroke-width:0.8;stroke-linecap:square;stroke-linejoin:round;stroke:rgb(69.01961%,69.01961%,69.01961%);stroke-opacity:1;stroke-miterlimit:4;" d="M 65.481445 143.100586 L 65.481445 7.201172 " transform="matrix(1.333333,0,0,1.333333,0,0)"/>
</g>
<path style="fill:none;stroke-width:0.8;stroke-linecap:butt;stroke-linejoin:round;stroke:rgb(0%,0%,0%);stroke-opacity:1;stroke-miterlimit:4;" d="M 0.000198364 0.000579834 L 0.000198364 3.498627 " transform="matrix(1.333333,0,0,1.333333,87.308329,190.800008)"/>
<path style=" stroke:none;fill-rule:nonzero;fill:rgb(0%,0%,0%);fill-opacity:1;" d="M 85.625 209.160156 L 90.214844 209.160156 L 90.214844 210.265625 L 84.042969 210.265625 L 84.042969 209.160156 C 84.542969 208.640625 85.222656 207.949219 86.082031 207.078125 C 86.945312 206.207031 87.488281 205.648438 87.707031 205.394531 C 88.128906 204.921875 88.421875 204.523438 88.589844 204.195312 C 88.757812 203.867188 88.839844 203.542969 88.839844 203.226562 C 88.839844 202.710938 88.660156 202.289062 88.296875 201.964844 C 87.933594 201.636719 87.464844 201.476562 86.882812 201.476562 C 86.46875 201.476562 86.035156 201.546875 85.574219 201.691406 C 85.117188 201.832031 84.628906 202.050781 84.109375 202.339844 L 84.109375 201.011719 C 84.636719 200.800781 85.132812 200.640625 85.589844 200.53125 C 86.054688 200.421875 86.472656 200.367188 86.855469 200.367188 C 87.863281 200.367188 88.664062 200.621094 89.265625 201.125 C 89.863281 201.628906 90.164062 202.300781 90.164062 203.140625 C 90.164062 203.542969 90.085938 203.921875 89.9375 204.277344 C 89.789062 204.636719 89.515625 205.058594 89.121094 205.542969 C 89.011719 205.671875 88.667969 206.035156 88.085938 206.636719 C 87.503906 207.238281 86.683594 208.078125 85.625 209.160156 Z M 85.625 209.160156 "/>
<g clip-path="url(#clip2)" clip-rule="nonzero">
<path style="fill:none;stroke-width:0.8;stroke-linecap:square;stroke-linejoin:round;stroke:rgb(69.01961%,69.01961%,69.01961%);stroke-opacity:1;stroke-miterlimit:4;" d="M 108.881836 143.100586 L 108.881836 7.201172 " transform="matrix(1.333333,0,0,1.333333,0,0)"/>
</g>
<path style="fill:none;stroke-width:0.8;stroke-linecap:butt;stroke-linejoin:round;stroke:rgb(0%,0%,0%);stroke-opacity:1;stroke-miterlimit:4;" d="M 0.000587463 0.000579834 L 0.000587463 3.498627 " transform="matrix(1.333333,0,0,1.333333,145.174998,190.800008)"/>
<path style=" stroke:none;fill-rule:nonzero;fill:rgb(0%,0%,0%);fill-opacity:1;" d="M 145.972656 201.691406 L 142.652344 206.878906 L 145.972656 206.878906 Z M 145.628906 200.542969 L 147.28125 200.542969 L 147.28125 206.878906 L 148.667969 206.878906 L 148.667969 207.972656 L 147.28125 207.972656 L 147.28125 210.265625 L 145.972656 210.265625 L 145.972656 207.972656 L 141.585938 207.972656 L 141.585938 206.703125 Z M 145.628906 200.542969 "/>
<g clip-path="url(#clip3)" clip-rule="nonzero">
<path style="fill:none;stroke-width:0.8;stroke-linecap:square;stroke-linejoin:round;stroke:rgb(69.01961%,69.01961%,69.01961%);stroke-opacity:1;stroke-miterlimit:4;" d="M 152.282227 143.100586 L 152.282227 7.201172 " transform="matrix(1.333333,0,0,1.333333,0,0)"/>
</g>
<path style="fill:none;stroke-width:0.8;stroke-linecap:butt;stroke-linejoin:round;stroke:rgb(0%,0%,0%);stroke-opacity:1;stroke-miterlimit:4;" d="M 0.000976562 0.000579834 L 0.000976562 3.498627 " transform="matrix(1.333333,0,0,1.333333,203.041667,190.800008)"/>
<path style=" stroke:none;fill-rule:nonzero;fill:rgb(0%,0%,0%);fill-opacity:1;" d="M 203.203125 204.882812 C 202.613281 204.882812 202.144531 205.082031 201.796875 205.488281 C 201.453125 205.890625 201.28125 206.441406 201.28125 207.144531 C 201.28125 207.84375 201.453125 208.398438 201.796875 208.804688 C 202.144531 209.210938 202.613281 209.414062 203.203125 209.414062 C 203.792969 209.414062 204.257812 209.210938 204.605469 208.804688 C 204.949219 208.398438 205.121094 207.84375 205.121094 207.144531 C 205.121094 206.441406 204.949219 205.890625 204.605469 205.488281 C 204.257812 205.082031 203.792969 204.882812 203.203125 204.882812 Z M 205.8125 200.757812 L 205.8125 201.957031 C 205.480469 201.800781 205.148438 201.683594 204.8125 201.601562 C 204.476562 201.515625 204.144531 201.476562 203.8125 201.476562 C 202.945312 201.476562 202.28125 201.769531 201.824219 202.355469 C 201.367188 202.941406 201.105469 203.824219 201.039062 205.011719 C 201.296875 204.632812 201.617188 204.34375 202.003906 204.140625 C 202.390625 203.941406 202.816406 203.839844 203.277344 203.839844 C 204.253906 203.839844 205.027344 204.136719 205.59375 204.730469 C 206.160156 205.320312 206.445312 206.125 206.445312 207.144531 C 206.445312 208.144531 206.148438 208.945312 205.558594 209.550781 C 204.96875 210.152344 204.183594 210.453125 203.203125 210.453125 C 202.078125 210.453125 201.21875 210.023438 200.621094 209.164062 C 200.027344 208.300781 199.730469 207.050781 199.730469 205.414062 C 199.730469 203.878906 200.097656 202.652344 200.824219 201.738281 C 201.554688 200.824219 202.53125 200.367188 203.761719 200.367188 C 204.089844 200.367188 204.425781 200.402344 204.761719 200.464844 C 205.097656 200.53125 205.445312 200.628906 205.8125 200.757812 Z M 205.8125 200.757812 "/>
<g clip-path="url(#clip4)" clip-rule="nonzero">
<path style="fill:none;stroke-width:0.8;stroke-linecap:square;stroke-linejoin:round;stroke:rgb(69.01961%,69.01961%,69.01961%);stroke-opacity:1;stroke-miterlimit:4;" d="M 195.682617 143.100586 L 195.682617 7.201172 " transform="matrix(1.333333,0,0,1.333333,0,0)"/>
</g>
<path style="fill:none;stroke-width:0.8;stroke-linecap:butt;stroke-linejoin:round;stroke:rgb(0%,0%,0%);stroke-opacity:1;stroke-miterlimit:4;" d="M 0.00137329 0.000579834 L 0.00137329 3.498627 " transform="matrix(1.333333,0,0,1.333333,260.908325,190.800008)"/>
<path style=" stroke:none;fill-rule:nonzero;fill:rgb(0%,0%,0%);fill-opacity:1;" d="M 260.902344 205.648438 C 260.277344 205.648438 259.789062 205.816406 259.429688 206.148438 C 259.070312 206.484375 258.894531 206.945312 258.894531 207.527344 C 258.894531 208.117188 259.070312 208.574219 259.429688 208.910156 C 259.789062 209.246094 260.277344 209.414062 260.902344 209.414062 C 261.527344 209.414062 262.023438 209.246094 262.382812 208.910156 C 262.742188 208.570312 262.921875 208.109375 262.921875 207.527344 C 262.921875 206.945312 262.742188 206.484375 262.386719 206.148438 C 262.027344 205.816406 261.535156 205.648438 260.902344 205.648438 Z M 259.589844 205.089844 C 259.027344 204.949219 258.585938 204.6875 258.269531 204.300781 C 257.957031 203.914062 257.800781 203.441406 257.800781 202.886719 C 257.800781 202.109375 258.078125 201.496094 258.628906 201.046875 C 259.183594 200.59375 259.941406 200.367188 260.902344 200.367188 C 261.871094 200.367188 262.632812 200.59375 263.183594 201.046875 C 263.734375 201.496094 264.011719 202.109375 264.011719 202.886719 C 264.011719 203.441406 263.851562 203.914062 263.539062 204.300781 C 263.222656 204.6875 262.785156 204.949219 262.226562 205.089844 C 262.859375 205.238281 263.351562 205.527344 263.707031 205.957031 C 264.058594 206.386719 264.238281 206.910156 264.238281 207.527344 C 264.238281 208.472656 263.949219 209.195312 263.375 209.699219 C 262.800781 210.203125 261.976562 210.453125 260.902344 210.453125 C 259.832031 210.453125 259.007812 210.203125 258.433594 209.699219 C 257.859375 209.195312 257.570312 208.472656 257.570312 207.527344 C 257.570312 206.910156 257.75 206.386719 258.105469 205.957031 C 258.460938 205.527344 258.957031 205.238281 259.589844 205.089844 Z M 259.109375 203.011719 C 259.109375 203.515625 259.265625 203.90625 259.578125 204.191406 C 259.894531 204.472656 260.335938 204.613281 260.902344 204.613281 C 261.46875 204.613281 261.910156 204.472656 262.230469 204.191406 C 262.546875 203.90625 262.707031 203.515625 262.707031 203.011719 C 262.707031 202.507812 262.546875 202.117188 262.230469 201.832031 C 261.910156 201.550781 261.46875 201.410156 260.902344 201.410156 C 260.335938 201.410156 259.894531 201.550781 259.578125 201.832031 C 259.265625 202.117188 259.109375 202.507812 259.109375 203.011719 Z M 259.109375 203.011719 "/>
<g clip-path="url(#clip5)" clip-rule="nonzero">
<path style="fill:none;stroke-width:0.8;stroke-linecap:square;stroke-linejoin:round;stroke:rgb(69.01961%,69.01961%,69.01961%);stroke-opacity:1;stroke-miterlimit:4;" d="M 239.080078 143.100586 L 239.080078 7.201172 " transform="matrix(1.333333,0,0,1.333333,0,0)"/>
</g>
<path style="fill:none;stroke-width:0.8;stroke-linecap:butt;stroke-linejoin:round;stroke:rgb(0%,0%,0%);stroke-opacity:1;stroke-miterlimit:4;" d="M -0.00117493 0.000579834 L -0.00117493 3.498627 " transform="matrix(1.333333,0,0,1.333333,318.775004,190.800008)"/>
<path style=" stroke:none;fill-rule:nonzero;fill:rgb(0%,0%,0%);fill-opacity:1;" d="M 311.945312 209.160156 L 314.09375 209.160156 L 314.09375 201.742188 L 311.757812 202.210938 L 311.757812 201.011719 L 314.082031 200.542969 L 315.394531 200.542969 L 315.394531 209.160156 L 317.542969 209.160156 L 317.542969 210.265625 L 311.945312 210.265625 Z M 311.945312 209.160156 "/>
<path style=" stroke:none;fill-rule:nonzero;fill:rgb(0%,0%,0%);fill-opacity:1;" d="M 323.011719 201.410156 C 322.335938 201.410156 321.828125 201.742188 321.484375 202.410156 C 321.144531 203.074219 320.976562 204.078125 320.976562 205.414062 C 320.976562 206.746094 321.144531 207.746094 321.484375 208.414062 C 321.828125 209.078125 322.335938 209.414062 323.011719 209.414062 C 323.695312 209.414062 324.207031 209.078125 324.546875 208.414062 C 324.886719 207.746094 325.058594 206.746094 325.058594 205.414062 C 325.058594 204.078125 324.886719 203.074219 324.546875 202.410156 C 324.207031 201.742188 323.695312 201.410156 323.011719 201.410156 Z M 323.011719 200.367188 C 324.101562 200.367188 324.933594 200.800781 325.511719 201.664062 C 326.085938 202.523438 326.371094 203.773438 326.371094 205.414062 C 326.371094 207.050781 326.085938 208.300781 325.511719 209.164062 C 324.933594 210.023438 324.101562 210.453125 323.011719 210.453125 C 321.921875 210.453125 321.089844 210.023438 320.515625 209.164062 C 319.941406 208.300781 319.652344 207.050781 319.652344 205.414062 C 319.652344 203.773438 319.941406 202.523438 320.515625 201.664062 C 321.089844 200.800781 321.921875 200.367188 323.011719 200.367188 Z M 323.011719 200.367188 "/>
<path style=" stroke:none;fill-rule:nonzero;fill:rgb(0%,0%,0%);fill-opacity:1;" d="M 175.765625 224.554688 L 175.765625 225.140625 L 170.257812 225.140625 C 170.308594 225.964844 170.558594 226.59375 171.003906 227.027344 C 171.445312 227.460938 172.066406 227.675781 172.859375 227.675781 C 173.320312 227.675781 173.765625 227.617188 174.199219 227.507812 C 174.628906 227.394531 175.058594 227.222656 175.484375 226.996094 L 175.484375 228.132812 C 175.054688 228.3125 174.613281 228.453125 174.164062 228.546875 C 173.710938 228.644531 173.253906 228.691406 172.789062 228.691406 C 171.625 228.691406 170.703125 228.351562 170.023438 227.675781 C 169.347656 227 169.007812 226.082031 169.007812 224.925781 C 169.007812 223.734375 169.328125 222.789062 169.972656 222.085938 C 170.617188 221.386719 171.488281 221.035156 172.582031 221.035156 C 173.5625 221.035156 174.335938 221.351562 174.910156 221.984375 C 175.480469 222.613281 175.765625 223.472656 175.765625 224.554688 Z M 174.566406 224.203125 C 174.558594 223.550781 174.375 223.027344 174.015625 222.636719 C 173.660156 222.246094 173.183594 222.050781 172.59375 222.050781 C 171.925781 222.050781 171.390625 222.238281 170.988281 222.617188 C 170.589844 222.996094 170.355469 223.527344 170.296875 224.210938 Z M 174.566406 224.203125 "/>
<path style=" stroke:none;fill-rule:nonzero;fill:rgb(0%,0%,0%);fill-opacity:1;" d="M 178.886719 227.410156 L 178.886719 231.273438 L 177.683594 231.273438 L 177.683594 221.210938 L 178.886719 221.210938 L 178.886719 222.316406 C 179.140625 221.882812 179.460938 221.5625 179.84375 221.351562 C 180.226562 221.140625 180.6875 221.035156 181.21875 221.035156 C 182.105469 221.035156 182.824219 221.386719 183.378906 222.089844 C 183.933594 222.792969 184.210938 223.714844 184.210938 224.863281 C 184.210938 226.007812 183.933594 226.933594 183.378906 227.636719 C 182.824219 228.339844 182.105469 228.691406 181.21875 228.691406 C 180.6875 228.691406 180.226562 228.585938 179.84375 228.375 C 179.460938 228.164062 179.140625 227.839844 178.886719 227.410156 Z M 182.964844 224.863281 C 182.964844 223.980469 182.785156 223.289062 182.421875 222.789062 C 182.058594 222.289062 181.5625 222.039062 180.929688 222.039062 C 180.292969 222.039062 179.792969 222.289062 179.433594 222.789062 C 179.070312 223.289062 178.886719 223.980469 178.886719 224.863281 C 178.886719 225.742188 179.070312 226.433594 179.433594 226.933594 C 179.792969 227.4375 180.292969 227.6875 180.929688 227.6875 C 181.5625 227.6875 182.058594 227.4375 182.421875 226.933594 C 182.785156 226.433594 182.964844 225.742188 182.964844 224.863281 Z M 182.964844 224.863281 "/>
<path style=" stroke:none;fill-rule:nonzero;fill:rgb(0%,0%,0%);fill-opacity:1;" d="M 189.019531 222.050781 C 188.378906 222.050781 187.871094 222.300781 187.496094 222.800781 C 187.121094 223.304688 186.933594 223.992188 186.933594 224.863281 C 186.933594 225.734375 187.121094 226.421875 187.492188 226.921875 C 187.863281 227.425781 188.371094 227.675781 189.019531 227.675781 C 189.65625 227.675781 190.164062 227.421875 190.535156 226.921875 C 190.910156 226.417969 191.097656 225.730469 191.097656 224.863281 C 191.097656 224 190.910156 223.3125 190.535156 222.808594 C 190.164062 222.304688 189.65625 222.050781 189.019531 222.050781 Z M 189.019531 221.035156 C 190.058594 221.035156 190.878906 221.375 191.472656 222.050781 C 192.070312 222.726562 192.367188 223.664062 192.367188 224.863281 C 192.367188 226.054688 192.070312 226.992188 191.472656 227.671875 C 190.878906 228.351562 190.058594 228.691406 189.019531 228.691406 C 187.972656 228.691406 187.152344 228.351562 186.558594 227.671875 C 185.96875 226.992188 185.671875 226.054688 185.671875 224.863281 C 185.671875 223.664062 185.96875 222.726562 186.558594 222.050781 C 187.152344 221.375 187.972656 221.035156 189.019531 221.035156 Z M 189.019531 221.035156 "/>
<path style=" stroke:none;fill-rule:nonzero;fill:rgb(0%,0%,0%);fill-opacity:1;" d="M 199.597656 221.488281 L 199.597656 222.609375 C 199.261719 222.421875 198.921875 222.28125 198.582031 222.191406 C 198.238281 222.097656 197.894531 222.050781 197.550781 222.050781 C 196.769531 222.050781 196.167969 222.296875 195.738281 222.789062 C 195.308594 223.28125 195.09375 223.972656 195.09375 224.863281 C 195.09375 225.753906 195.308594 226.445312 195.738281 226.9375 C 196.167969 227.429688 196.769531 227.675781 197.550781 227.675781 C 197.894531 227.675781 198.238281 227.628906 198.582031 227.535156 C 198.921875 227.441406 199.261719 227.300781 199.597656 227.113281 L 199.597656 228.222656 C 199.265625 228.378906 198.917969 228.496094 198.558594 228.574219 C 198.203125 228.652344 197.820312 228.691406 197.417969 228.691406 C 196.320312 228.691406 195.445312 228.347656 194.800781 227.65625 C 194.152344 226.964844 193.832031 226.035156 193.832031 224.863281 C 193.832031 223.671875 194.15625 222.738281 194.808594 222.058594 C 195.464844 221.375 196.359375 221.035156 197.496094 221.035156 C 197.863281 221.035156 198.226562 221.074219 198.578125 221.148438 C 198.925781 221.226562 199.269531 221.339844 199.597656 221.488281 Z M 199.597656 221.488281 "/>
<path style=" stroke:none;fill-rule:nonzero;fill:rgb(0%,0%,0%);fill-opacity:1;" d="M 207.746094 224.101562 L 207.746094 228.503906 L 206.546875 228.503906 L 206.546875 224.140625 C 206.546875 223.449219 206.410156 222.933594 206.140625 222.589844 C 205.871094 222.25 205.46875 222.078125 204.933594 222.078125 C 204.285156 222.078125 203.773438 222.285156 203.402344 222.695312 C 203.027344 223.105469 202.839844 223.667969 202.839844 224.382812 L 202.839844 228.503906 L 201.636719 228.503906 L 201.636719 218.371094 L 202.839844 218.371094 L 202.839844 222.34375 C 203.128906 221.90625 203.464844 221.578125 203.851562 221.359375 C 204.242188 221.144531 204.691406 221.035156 205.199219 221.035156 C 206.035156 221.035156 206.667969 221.292969 207.097656 221.8125 C 207.527344 222.332031 207.746094 223.09375 207.746094 224.101562 Z M 207.746094 224.101562 "/>
<g clip-path="url(#clip6)" clip-rule="nonzero">
<path style="fill:none;stroke-width:0.8;stroke-linecap:square;stroke-linejoin:round;stroke:rgb(69.01961%,69.01961%,69.01961%);stroke-opacity:1;stroke-miterlimit:4;" d="M 43.78125 131.185547 L 239.080078 131.185547 " transform="matrix(1.333333,0,0,1.333333,0,0)"/>
</g>
<path style="fill:none;stroke-width:0.8;stroke-linecap:butt;stroke-linejoin:round;stroke:rgb(0%,0%,0%);stroke-opacity:1;stroke-miterlimit:4;" d="M 0 -0.00138855 L -3.500977 -0.00138855 " transform="matrix(1.333333,0,0,1.333333,58.375,174.915914)"/>
<path style=" stroke:none;fill-rule:nonzero;fill:rgb(0%,0%,0%);fill-opacity:1;" d="M 32.074219 171.128906 C 31.398438 171.128906 30.890625 171.460938 30.546875 172.128906 C 30.207031 172.792969 30.039062 173.792969 30.039062 175.132812 C 30.039062 176.464844 30.207031 177.460938 30.546875 178.128906 C 30.890625 178.796875 31.398438 179.128906 32.074219 179.128906 C 32.757812 179.128906 33.269531 178.796875 33.609375 178.128906 C 33.949219 177.460938 34.121094 176.464844 34.121094 175.132812 C 34.121094 173.792969 33.949219 172.792969 33.609375 172.128906 C 33.269531 171.460938 32.757812 171.128906 32.074219 171.128906 Z M 32.074219 170.085938 C 33.164062 170.085938 33.996094 170.515625 34.574219 171.378906 C 35.148438 172.242188 35.433594 173.492188 35.433594 175.132812 C 35.433594 176.769531 35.148438 178.015625 34.574219 178.878906 C 33.996094 179.742188 33.164062 180.171875 32.074219 180.171875 C 30.984375 180.171875 30.152344 179.742188 29.578125 178.878906 C 29.003906 178.015625 28.714844 176.769531 28.714844 175.132812 C 28.714844 173.492188 29.003906 172.242188 29.578125 171.378906 C 30.152344 170.515625 30.984375 170.085938 32.074219 170.085938 Z M 32.074219 170.085938 "/>
<path style=" stroke:none;fill-rule:nonzero;fill:rgb(0%,0%,0%);fill-opacity:1;" d="M 37.746094 178.328125 L 39.121094 178.328125 L 39.121094 179.980469 L 37.746094 179.980469 Z M 37.746094 178.328125 "/>
<path style=" stroke:none;fill-rule:nonzero;fill:rgb(0%,0%,0%);fill-opacity:1;" d="M 45.597656 171.40625 L 42.277344 176.597656 L 45.597656 176.597656 Z M 45.253906 170.261719 L 46.90625 170.261719 L 46.90625 176.597656 L 48.292969 176.597656 L 48.292969 177.691406 L 46.90625 177.691406 L 46.90625 179.980469 L 45.597656 179.980469 L 45.597656 177.691406 L 41.210938 177.691406 L 41.210938 176.421875 Z M 45.253906 170.261719 "/>
<g clip-path="url(#clip7)" clip-rule="nonzero">
<path style="fill:none;stroke-width:0.8;stroke-linecap:square;stroke-linejoin:round;stroke:rgb(69.01961%,69.01961%,69.01961%);stroke-opacity:1;stroke-miterlimit:4;" d="M 43.78125 107.387695 L 239.080078 107.387695 " transform="matrix(1.333333,0,0,1.333333,0,0)"/>
</g>
<path style="fill:none;stroke-width:0.8;stroke-linecap:butt;stroke-linejoin:round;stroke:rgb(0%,0%,0%);stroke-opacity:1;stroke-miterlimit:4;" d="M 0 0.000686646 L -3.500977 0.000686646 " transform="matrix(1.333333,0,0,1.333333,58.375,143.182678)"/>
<path style=" stroke:none;fill-rule:nonzero;fill:rgb(0%,0%,0%);fill-opacity:1;" d="M 32.074219 139.394531 C 31.398438 139.394531 30.890625 139.726562 30.546875 140.394531 C 30.207031 141.058594 30.039062 142.0625 30.039062 143.398438 C 30.039062 144.730469 30.207031 145.730469 30.546875 146.394531 C 30.890625 147.0625 31.398438 147.394531 32.074219 147.394531 C 32.757812 147.394531 33.269531 147.0625 33.609375 146.394531 C 33.949219 145.730469 34.121094 144.730469 34.121094 143.398438 C 34.121094 142.0625 33.949219 141.058594 33.609375 140.394531 C 33.269531 139.726562 32.757812 139.394531 32.074219 139.394531 Z M 32.074219 138.351562 C 33.164062 138.351562 33.996094 138.785156 34.574219 139.644531 C 35.148438 140.507812 35.433594 141.757812 35.433594 143.398438 C 35.433594 145.035156 35.148438 146.285156 34.574219 147.144531 C 33.996094 148.007812 33.164062 148.4375 32.074219 148.4375 C 30.984375 148.4375 30.152344 148.007812 29.578125 147.144531 C 29.003906 146.285156 28.714844 145.035156 28.714844 143.398438 C 28.714844 141.757812 29.003906 140.507812 29.578125 139.644531 C 30.152344 138.785156 30.984375 138.351562 32.074219 138.351562 Z M 32.074219 138.351562 "/>
<path style=" stroke:none;fill-rule:nonzero;fill:rgb(0%,0%,0%);fill-opacity:1;" d="M 37.746094 146.59375 L 39.121094 146.59375 L 39.121094 148.25 L 37.746094 148.25 Z M 37.746094 146.59375 "/>
<path style=" stroke:none;fill-rule:nonzero;fill:rgb(0%,0%,0%);fill-opacity:1;" d="M 42 138.527344 L 47.160156 138.527344 L 47.160156 139.636719 L 43.203125 139.636719 L 43.203125 142.015625 C 43.394531 141.953125 43.582031 141.902344 43.773438 141.871094 C 43.964844 141.839844 44.15625 141.824219 44.347656 141.824219 C 45.433594 141.824219 46.292969 142.121094 46.925781 142.714844 C 47.558594 143.308594 47.878906 144.113281 47.878906 145.128906 C 47.878906 146.175781 47.550781 146.988281 46.902344 147.570312 C 46.25 148.148438 45.332031 148.4375 44.144531 148.4375 C 43.738281 148.4375 43.320312 148.402344 42.898438 148.332031 C 42.476562 148.265625 42.039062 148.160156 41.589844 148.019531 L 41.589844 146.699219 C 41.976562 146.910156 42.382812 147.070312 42.796875 147.171875 C 43.214844 147.277344 43.65625 147.328125 44.121094 147.328125 C 44.871094 147.328125 45.464844 147.132812 45.902344 146.738281 C 46.339844 146.34375 46.5625 145.808594 46.5625 145.128906 C 46.5625 144.453125 46.339844 143.917969 45.902344 143.523438 C 45.464844 143.128906 44.871094 142.929688 44.121094 142.929688 C 43.769531 142.929688 43.417969 142.96875 43.066406 143.046875 C 42.71875 143.125 42.363281 143.246094 42 143.410156 Z M 42 138.527344 "/>
<g clip-path="url(#clip8)" clip-rule="nonzero">
<path style="fill:none;stroke-width:0.8;stroke-linecap:square;stroke-linejoin:round;stroke:rgb(69.01961%,69.01961%,69.01961%);stroke-opacity:1;stroke-miterlimit:4;" d="M 43.78125 83.586914 L 239.080078 83.586914 " transform="matrix(1.333333,0,0,1.333333,0,0)"/>
</g>
<path style="fill:none;stroke-width:0.8;stroke-linecap:butt;stroke-linejoin:round;stroke:rgb(0%,0%,0%);stroke-opacity:1;stroke-miterlimit:4;" d="M 0 -0.000160217 L -3.500977 -0.000160217 " transform="matrix(1.333333,0,0,1.333333,58.375,111.449432)"/>
<path style=" stroke:none;fill-rule:nonzero;fill:rgb(0%,0%,0%);fill-opacity:1;" d="M 32.074219 107.660156 C 31.398438 107.660156 30.890625 107.996094 30.546875 108.660156 C 30.207031 109.324219 30.039062 110.328125 30.039062 111.664062 C 30.039062 112.996094 30.207031 113.996094 30.546875 114.664062 C 30.890625 115.328125 31.398438 115.664062 32.074219 115.664062 C 32.757812 115.664062 33.269531 115.328125 33.609375 114.664062 C 33.949219 113.996094 34.121094 112.996094 34.121094 111.664062 C 34.121094 110.328125 33.949219 109.324219 33.609375 108.660156 C 33.269531 107.996094 32.757812 107.660156 32.074219 107.660156 Z M 32.074219 106.621094 C 33.164062 106.621094 33.996094 107.050781 34.574219 107.914062 C 35.148438 108.773438 35.433594 110.023438 35.433594 111.664062 C 35.433594 113.300781 35.148438 114.550781 34.574219 115.414062 C 33.996094 116.273438 33.164062 116.703125 32.074219 116.703125 C 30.984375 116.703125 30.152344 116.273438 29.578125 115.414062 C 29.003906 114.550781 28.714844 113.300781 28.714844 111.664062 C 28.714844 110.023438 29.003906 108.773438 29.578125 107.914062 C 30.152344 107.050781 30.984375 106.621094 32.074219 106.621094 Z M 32.074219 106.621094 "/>
<path style=" stroke:none;fill-rule:nonzero;fill:rgb(0%,0%,0%);fill-opacity:1;" d="M 37.746094 114.859375 L 39.121094 114.859375 L 39.121094 116.515625 L 37.746094 116.515625 Z M 37.746094 114.859375 "/>
<path style=" stroke:none;fill-rule:nonzero;fill:rgb(0%,0%,0%);fill-opacity:1;" d="M 44.960938 111.132812 C 44.371094 111.132812 43.902344 111.332031 43.558594 111.738281 C 43.210938 112.140625 43.039062 112.695312 43.039062 113.394531 C 43.039062 114.09375 43.210938 114.648438 43.558594 115.054688 C 43.902344 115.460938 44.371094 115.664062 44.960938 115.664062 C 45.550781 115.664062 46.019531 115.460938 46.363281 115.054688 C 46.707031 114.648438 46.878906 114.09375 46.878906 113.394531 C 46.878906 112.695312 46.707031 112.140625 46.363281 111.738281 C 46.019531 111.332031 45.550781 111.132812 44.960938 111.132812 Z M 47.570312 107.007812 L 47.570312 108.207031 C 47.242188 108.050781 46.90625 107.933594 46.570312 107.851562 C 46.234375 107.765625 45.902344 107.726562 45.570312 107.726562 C 44.703125 107.726562 44.039062 108.019531 43.582031 108.605469 C 43.125 109.191406 42.863281 110.074219 42.796875 111.261719 C 43.054688 110.882812 43.375 110.59375 43.761719 110.390625 C 44.148438 110.191406 44.574219 110.089844 45.039062 110.089844 C 46.015625 110.089844 46.785156 110.386719 47.351562 110.980469 C 47.917969 111.570312 48.203125 112.375 48.203125 113.394531 C 48.203125 114.394531 47.90625 115.195312 47.316406 115.800781 C 46.726562 116.402344 45.941406 116.703125 44.960938 116.703125 C 43.835938 116.703125 42.976562 116.273438 42.382812 115.414062 C 41.789062 114.550781 41.488281 113.300781 41.488281 111.664062 C 41.488281 110.128906 41.855469 108.902344 42.582031 107.988281 C 43.3125 107.074219 44.292969 106.621094 45.519531 106.621094 C 45.851562 106.621094 46.183594 106.652344 46.519531 106.71875 C 46.855469 106.78125 47.207031 106.878906 47.570312 107.007812 Z M 47.570312 107.007812 "/>
<g clip-path="url(#clip9)" clip-rule="nonzero">
<path style="fill:none;stroke-width:0.8;stroke-linecap:square;stroke-linejoin:round;stroke:rgb(69.01961%,69.01961%,69.01961%);stroke-opacity:1;stroke-miterlimit:4;" d="M 43.78125 59.786133 L 239.080078 59.786133 " transform="matrix(1.333333,0,0,1.333333,0,0)"/>
</g>
<path style="fill:none;stroke-width:0.8;stroke-linecap:butt;stroke-linejoin:round;stroke:rgb(0%,0%,0%);stroke-opacity:1;stroke-miterlimit:4;" d="M 0 -0.00101089 L -3.500977 -0.00101089 " transform="matrix(1.333333,0,0,1.333333,58.375,79.716192)"/>
<path style=" stroke:none;fill-rule:nonzero;fill:rgb(0%,0%,0%);fill-opacity:1;" d="M 32.074219 75.925781 C 31.398438 75.925781 30.890625 76.261719 30.546875 76.925781 C 30.207031 77.59375 30.039062 78.59375 30.039062 79.933594 C 30.039062 81.265625 30.207031 82.261719 30.546875 82.929688 C 30.890625 83.597656 31.398438 83.929688 32.074219 83.929688 C 32.757812 83.929688 33.269531 83.597656 33.609375 82.929688 C 33.949219 82.261719 34.121094 81.265625 34.121094 79.933594 C 34.121094 78.59375 33.949219 77.59375 33.609375 76.925781 C 33.269531 76.261719 32.757812 75.925781 32.074219 75.925781 Z M 32.074219 74.886719 C 33.164062 74.886719 33.996094 75.316406 34.574219 76.179688 C 35.148438 77.039062 35.433594 78.292969 35.433594 79.933594 C 35.433594 81.566406 35.148438 82.816406 34.574219 83.679688 C 33.996094 84.539062 33.164062 84.972656 32.074219 84.972656 C 30.984375 84.972656 30.152344 84.539062 29.578125 83.679688 C 29.003906 82.816406 28.714844 81.566406 28.714844 79.933594 C 28.714844 78.292969 29.003906 77.039062 29.578125 76.179688 C 30.152344 75.316406 30.984375 74.886719 32.074219 74.886719 Z M 32.074219 74.886719 "/>
<path style=" stroke:none;fill-rule:nonzero;fill:rgb(0%,0%,0%);fill-opacity:1;" d="M 37.746094 83.128906 L 39.121094 83.128906 L 39.121094 84.78125 L 37.746094 84.78125 Z M 37.746094 83.128906 "/>
<path style=" stroke:none;fill-rule:nonzero;fill:rgb(0%,0%,0%);fill-opacity:1;" d="M 41.652344 75.0625 L 47.902344 75.0625 L 47.902344 75.621094 L 44.375 84.78125 L 43 84.78125 L 46.320312 76.167969 L 41.652344 76.167969 Z M 41.652344 75.0625 "/>
<g clip-path="url(#clip10)" clip-rule="nonzero">
<path style="fill:none;stroke-width:0.8;stroke-linecap:square;stroke-linejoin:round;stroke:rgb(69.01961%,69.01961%,69.01961%);stroke-opacity:1;stroke-miterlimit:4;" d="M 43.78125 35.988281 L 239.080078 35.988281 " transform="matrix(1.333333,0,0,1.333333,0,0)"/>
</g>
<path style="fill:none;stroke-width:0.8;stroke-linecap:butt;stroke-linejoin:round;stroke:rgb(0%,0%,0%);stroke-opacity:1;stroke-miterlimit:4;" d="M 0 0.00107193 L -3.500977 0.00107193 " transform="matrix(1.333333,0,0,1.333333,58.375,47.982946)"/>
<path style=" stroke:none;fill-rule:nonzero;fill:rgb(0%,0%,0%);fill-opacity:1;" d="M 32.074219 44.195312 C 31.398438 44.195312 30.890625 44.527344 30.546875 45.195312 C 30.207031 45.859375 30.039062 46.859375 30.039062 48.199219 C 30.039062 49.53125 30.207031 50.53125 30.546875 51.195312 C 30.890625 51.863281 31.398438 52.195312 32.074219 52.195312 C 32.757812 52.195312 33.269531 51.863281 33.609375 51.195312 C 33.949219 50.53125 34.121094 49.53125 34.121094 48.199219 C 34.121094 46.859375 33.949219 45.859375 33.609375 45.195312 C 33.269531 44.527344 32.757812 44.195312 32.074219 44.195312 Z M 32.074219 43.152344 C 33.164062 43.152344 33.996094 43.585938 34.574219 44.445312 C 35.148438 45.308594 35.433594 46.558594 35.433594 48.199219 C 35.433594 49.835938 35.148438 51.085938 34.574219 51.945312 C 33.996094 52.808594 33.164062 53.238281 32.074219 53.238281 C 30.984375 53.238281 30.152344 52.808594 29.578125 51.945312 C 29.003906 51.085938 28.714844 49.835938 28.714844 48.199219 C 28.714844 46.558594 29.003906 45.308594 29.578125 44.445312 C 30.152344 43.585938 30.984375 43.152344 32.074219 43.152344 Z M 32.074219 43.152344 "/>
<path style=" stroke:none;fill-rule:nonzero;fill:rgb(0%,0%,0%);fill-opacity:1;" d="M 37.746094 51.394531 L 39.121094 51.394531 L 39.121094 53.046875 L 37.746094 53.046875 Z M 37.746094 51.394531 "/>
<path style=" stroke:none;fill-rule:nonzero;fill:rgb(0%,0%,0%);fill-opacity:1;" d="M 44.796875 48.433594 C 44.171875 48.433594 43.679688 48.597656 43.320312 48.933594 C 42.964844 49.269531 42.785156 49.726562 42.785156 50.3125 C 42.785156 50.898438 42.964844 51.359375 43.320312 51.695312 C 43.679688 52.027344 44.171875 52.195312 44.796875 52.195312 C 45.421875 52.195312 45.914062 52.027344 46.273438 51.691406 C 46.632812 51.355469 46.816406 50.894531 46.816406 50.3125 C 46.816406 49.726562 46.636719 49.269531 46.277344 48.933594 C 45.921875 48.597656 45.425781 48.433594 44.796875 48.433594 Z M 43.480469 47.875 C 42.917969 47.734375 42.476562 47.472656 42.164062 47.085938 C 41.847656 46.699219 41.691406 46.226562 41.691406 45.671875 C 41.691406 44.894531 41.96875 44.28125 42.519531 43.828125 C 43.074219 43.378906 43.832031 43.152344 44.796875 43.152344 C 45.765625 43.152344 46.523438 43.378906 47.074219 43.828125 C 47.625 44.28125 47.902344 44.894531 47.902344 45.671875 C 47.902344 46.226562 47.746094 46.699219 47.429688 47.085938 C 47.117188 47.472656 46.679688 47.734375 46.121094 47.875 C 46.753906 48.019531 47.246094 48.308594 47.597656 48.742188 C 47.953125 49.167969 48.128906 49.695312 48.128906 50.3125 C 48.128906 51.257812 47.84375 51.980469 47.265625 52.484375 C 46.691406 52.988281 45.867188 53.238281 44.796875 53.238281 C 43.726562 53.238281 42.902344 52.988281 42.324219 52.484375 C 41.75 51.980469 41.464844 51.257812 41.464844 50.3125 C 41.464844 49.695312 41.640625 49.167969 41.996094 48.742188 C 42.351562 48.308594 42.847656 48.019531 43.480469 47.875 Z M 43 45.796875 C 43 46.300781 43.15625 46.691406 43.472656 46.972656 C 43.785156 47.253906 44.226562 47.398438 44.796875 47.398438 C 45.363281 47.398438 45.804688 47.253906 46.121094 46.972656 C 46.441406 46.691406 46.601562 46.300781 46.601562 45.796875 C 46.601562 45.292969 46.441406 44.898438 46.121094 44.617188 C 45.804688 44.335938 45.363281 44.195312 44.796875 44.195312 C 44.226562 44.195312 43.785156 44.335938 43.472656 44.617188 C 43.15625 44.898438 43 45.292969 43 45.796875 Z M 43 45.796875 "/>
<g clip-path="url(#clip11)" clip-rule="nonzero">
<path style="fill:none;stroke-width:0.8;stroke-linecap:square;stroke-linejoin:round;stroke:rgb(69.01961%,69.01961%,69.01961%);stroke-opacity:1;stroke-miterlimit:4;" d="M 43.78125 12.1875 L 239.080078 12.1875 " transform="matrix(1.333333,0,0,1.333333,0,0)"/>
</g>
<path style="fill:none;stroke-width:0.8;stroke-linecap:butt;stroke-linejoin:round;stroke:rgb(0%,0%,0%);stroke-opacity:1;stroke-miterlimit:4;" d="M 0 0.000224113 L -3.500977 0.000224113 " transform="matrix(1.333333,0,0,1.333333,58.375,16.249701)"/>
<path style=" stroke:none;fill-rule:nonzero;fill:rgb(0%,0%,0%);fill-opacity:1;" d="M 32.074219 12.460938 C 31.398438 12.460938 30.890625 12.792969 30.546875 13.460938 C 30.207031 14.125 30.039062 15.128906 30.039062 16.464844 C 30.039062 17.796875 30.207031 18.796875 30.546875 19.464844 C 30.890625 20.128906 31.398438 20.464844 32.074219 20.464844 C 32.757812 20.464844 33.269531 20.128906 33.609375 19.464844 C 33.949219 18.796875 34.121094 17.796875 34.121094 16.464844 C 34.121094 15.128906 33.949219 14.125 33.609375 13.460938 C 33.269531 12.792969 32.757812 12.460938 32.074219 12.460938 Z M 32.074219 11.417969 C 33.164062 11.417969 33.996094 11.851562 34.574219 12.714844 C 35.148438 13.574219 35.433594 14.824219 35.433594 16.464844 C 35.433594 18.101562 35.148438 19.351562 34.574219 20.214844 C 33.996094 21.074219 33.164062 21.503906 32.074219 21.503906 C 30.984375 21.503906 30.152344 21.074219 29.578125 20.214844 C 29.003906 19.351562 28.714844 18.101562 28.714844 16.464844 C 28.714844 14.824219 29.003906 13.574219 29.578125 12.714844 C 30.152344 11.851562 30.984375 11.417969 32.074219 11.417969 Z M 32.074219 11.417969 "/>
<path style=" stroke:none;fill-rule:nonzero;fill:rgb(0%,0%,0%);fill-opacity:1;" d="M 37.746094 19.660156 L 39.121094 19.660156 L 39.121094 21.316406 L 37.746094 21.316406 Z M 37.746094 19.660156 "/>
<path style=" stroke:none;fill-rule:nonzero;fill:rgb(0%,0%,0%);fill-opacity:1;" d="M 42.023438 21.113281 L 42.023438 19.914062 C 42.355469 20.074219 42.6875 20.191406 43.027344 20.273438 C 43.363281 20.355469 43.695312 20.398438 44.023438 20.398438 C 44.890625 20.398438 45.554688 20.105469 46.011719 19.523438 C 46.46875 18.9375 46.730469 18.050781 46.796875 16.859375 C 46.546875 17.234375 46.226562 17.523438 45.839844 17.722656 C 45.453125 17.921875 45.023438 18.023438 44.558594 18.023438 C 43.585938 18.023438 42.816406 17.726562 42.25 17.140625 C 41.683594 16.550781 41.398438 15.746094 41.398438 14.726562 C 41.398438 13.730469 41.695312 12.929688 42.285156 12.324219 C 42.875 11.722656 43.660156 11.417969 44.640625 11.417969 C 45.765625 11.417969 46.625 11.851562 47.214844 12.714844 C 47.808594 13.574219 48.105469 14.824219 48.105469 16.464844 C 48.105469 17.996094 47.742188 19.21875 47.011719 20.132812 C 46.285156 21.046875 45.308594 21.503906 44.082031 21.503906 C 43.75 21.503906 43.417969 21.472656 43.078125 21.40625 C 42.738281 21.339844 42.390625 21.242188 42.023438 21.113281 Z M 44.640625 16.992188 C 45.230469 16.992188 45.699219 16.792969 46.042969 16.386719 C 46.386719 15.984375 46.5625 15.429688 46.5625 14.726562 C 46.5625 14.027344 46.386719 13.476562 46.042969 13.070312 C 45.699219 12.664062 45.230469 12.460938 44.640625 12.460938 C 44.050781 12.460938 43.582031 12.664062 43.238281 13.070312 C 42.894531 13.476562 42.722656 14.027344 42.722656 14.726562 C 42.722656 15.429688 42.894531 15.984375 43.238281 16.386719 C 43.582031 16.792969 44.050781 16.992188 44.640625 16.992188 Z M 44.640625 16.992188 "/>
<path style=" stroke:none;fill-rule:nonzero;fill:rgb(0%,0%,0%);fill-opacity:1;" d="M 10.367188 124.097656 L 12.441406 124.097656 L 12.441406 121.628906 L 13.371094 121.628906 L 13.371094 124.097656 L 17.328125 124.097656 C 17.921875 124.097656 18.304688 124.015625 18.476562 123.851562 C 18.644531 123.691406 18.730469 123.359375 18.730469 122.859375 L 18.730469 121.628906 L 19.730469 121.628906 L 19.730469 122.859375 C 19.730469 123.785156 19.558594 124.421875 19.214844 124.773438 C 18.867188 125.125 18.242188 125.300781 17.328125 125.300781 L 13.371094 125.300781 L 13.371094 126.179688 L 12.441406 126.179688 L 12.441406 125.300781 L 10.367188 125.300781 Z M 10.367188 124.097656 "/>
<path style=" stroke:none;fill-rule:nonzero;fill:rgb(0%,0%,0%);fill-opacity:1;" d="M 15.785156 113.816406 L 16.371094 113.816406 L 16.371094 119.324219 C 17.195312 119.269531 17.824219 119.023438 18.257812 118.578125 C 18.6875 118.132812 18.902344 117.515625 18.902344 116.71875 C 18.902344 116.261719 18.847656 115.816406 18.734375 115.382812 C 18.621094 114.949219 18.453125 114.519531 18.226562 114.09375 L 19.359375 114.09375 C 19.542969 114.527344 19.679688 114.964844 19.777344 115.417969 C 19.871094 115.871094 19.921875 116.328125 19.921875 116.789062 C 19.921875 117.953125 19.582031 118.875 18.90625 119.554688 C 18.226562 120.234375 17.3125 120.574219 16.15625 120.574219 C 14.964844 120.574219 14.015625 120.253906 13.316406 119.609375 C 12.617188 118.964844 12.265625 118.09375 12.265625 117 C 12.265625 116.019531 12.582031 115.242188 13.210938 114.671875 C 13.84375 114.101562 14.699219 113.816406 15.785156 113.816406 Z M 15.433594 115.015625 C 14.777344 115.023438 14.257812 115.207031 13.867188 115.5625 C 13.476562 115.921875 13.277344 116.394531 13.277344 116.988281 C 13.277344 117.65625 13.46875 118.191406 13.847656 118.589844 C 14.222656 118.992188 14.753906 119.222656 15.441406 119.285156 Z M 15.433594 115.015625 "/>
<path style=" stroke:none;fill-rule:nonzero;fill:rgb(0%,0%,0%);fill-opacity:1;" d="M 12.652344 107.203125 L 13.789062 107.203125 C 13.613281 107.539062 13.484375 107.890625 13.398438 108.257812 C 13.308594 108.621094 13.265625 109 13.265625 109.390625 C 13.265625 109.984375 13.359375 110.429688 13.539062 110.726562 C 13.722656 111.023438 13.996094 111.171875 14.359375 111.171875 C 14.636719 111.171875 14.855469 111.066406 15.015625 110.855469 C 15.171875 110.640625 15.324219 110.214844 15.464844 109.570312 L 15.558594 109.160156 C 15.742188 108.3125 15.996094 107.707031 16.328125 107.347656 C 16.660156 106.988281 17.125 106.8125 17.71875 106.8125 C 18.398438 106.8125 18.933594 107.078125 19.328125 107.613281 C 19.722656 108.152344 19.921875 108.886719 19.921875 109.824219 C 19.921875 110.214844 19.882812 110.621094 19.804688 111.046875 C 19.730469 111.46875 19.617188 111.914062 19.464844 112.382812 L 18.226562 112.382812 C 18.457031 111.941406 18.628906 111.503906 18.746094 111.074219 C 18.859375 110.644531 18.917969 110.21875 18.917969 109.796875 C 18.917969 109.234375 18.820312 108.800781 18.628906 108.5 C 18.433594 108.195312 18.160156 108.042969 17.808594 108.042969 C 17.484375 108.042969 17.234375 108.152344 17.0625 108.371094 C 16.890625 108.589844 16.722656 109.070312 16.558594 109.8125 L 16.460938 110.230469 C 16.308594 110.972656 16.066406 111.507812 15.742188 111.835938 C 15.421875 112.167969 14.976562 112.332031 14.414062 112.332031 C 13.726562 112.332031 13.195312 112.089844 12.824219 111.601562 C 12.453125 111.117188 12.265625 110.425781 12.265625 109.53125 C 12.265625 109.089844 12.296875 108.675781 12.363281 108.285156 C 12.425781 107.890625 12.523438 107.53125 12.652344 107.203125 Z M 12.652344 107.203125 "/>
<path style=" stroke:none;fill-rule:nonzero;fill:rgb(0%,0%,0%);fill-opacity:1;" d="M 10.367188 103.71875 L 12.441406 103.71875 L 12.441406 101.25 L 13.371094 101.25 L 13.371094 103.71875 L 17.328125 103.71875 C 17.921875 103.71875 18.304688 103.636719 18.476562 103.472656 C 18.644531 103.3125 18.730469 102.980469 18.730469 102.480469 L 18.730469 101.25 L 19.730469 101.25 L 19.730469 102.480469 C 19.730469 103.40625 19.558594 104.042969 19.214844 104.394531 C 18.867188 104.746094 18.242188 104.921875 17.328125 104.921875 L 13.371094 104.921875 L 13.371094 105.800781 L 12.441406 105.800781 L 12.441406 104.921875 L 10.367188 104.921875 Z M 10.367188 103.71875 "/>
<path style=" stroke:none;fill-rule:nonzero;fill:rgb(0%,0%,0%);fill-opacity:1;" d="M 16.066406 92.121094 C 16.066406 93.089844 16.175781 93.761719 16.398438 94.136719 C 16.617188 94.507812 16.996094 94.695312 17.53125 94.695312 C 17.957031 94.695312 18.292969 94.554688 18.542969 94.273438 C 18.792969 93.996094 18.917969 93.613281 18.917969 93.132812 C 18.917969 92.46875 18.679688 91.933594 18.210938 91.535156 C 17.738281 91.132812 17.113281 90.929688 16.332031 90.929688 L 16.066406 90.929688 Z M 15.570312 89.734375 L 19.730469 89.734375 L 19.730469 90.929688 L 18.625 90.929688 C 19.066406 91.203125 19.394531 91.546875 19.605469 91.953125 C 19.816406 92.363281 19.921875 92.863281 19.921875 93.453125 C 19.921875 94.199219 19.710938 94.792969 19.292969 95.234375 C 18.871094 95.671875 18.3125 95.894531 17.609375 95.894531 C 16.789062 95.894531 16.171875 95.621094 15.753906 95.070312 C 15.335938 94.519531 15.128906 93.703125 15.128906 92.613281 L 15.128906 90.929688 L 15.011719 90.929688 C 14.460938 90.929688 14.03125 91.113281 13.730469 91.476562 C 13.429688 91.835938 13.277344 92.347656 13.277344 93.003906 C 13.277344 93.417969 13.328125 93.824219 13.429688 94.222656 C 13.527344 94.617188 13.679688 94.996094 13.878906 95.359375 L 12.769531 95.359375 C 12.601562 94.921875 12.476562 94.496094 12.390625 94.082031 C 12.308594 93.671875 12.265625 93.269531 12.265625 92.878906 C 12.265625 91.824219 12.539062 91.035156 13.085938 90.515625 C 13.632812 89.992188 14.460938 89.734375 15.570312 89.734375 Z M 15.570312 89.734375 "/>
<path style=" stroke:none;fill-rule:nonzero;fill:rgb(0%,0%,0%);fill-opacity:1;" d="M 12.71875 82.019531 L 13.839844 82.019531 C 13.652344 82.359375 13.511719 82.699219 13.417969 83.039062 C 13.324219 83.378906 13.277344 83.722656 13.277344 84.070312 C 13.277344 84.847656 13.527344 85.449219 14.019531 85.882812 C 14.511719 86.3125 15.203125 86.523438 16.089844 86.523438 C 16.980469 86.523438 17.671875 86.3125 18.167969 85.882812 C 18.660156 85.449219 18.902344 84.847656 18.902344 84.070312 C 18.902344 83.722656 18.859375 83.378906 18.765625 83.039062 C 18.671875 82.699219 18.53125 82.359375 18.34375 82.019531 L 19.453125 82.019531 C 19.609375 82.355469 19.722656 82.699219 19.800781 83.058594 C 19.882812 83.414062 19.921875 83.796875 19.921875 84.199219 C 19.921875 85.300781 19.574219 86.171875 18.886719 86.820312 C 18.195312 87.464844 17.265625 87.789062 16.089844 87.789062 C 14.902344 87.789062 13.96875 87.460938 13.289062 86.808594 C 12.605469 86.15625 12.265625 85.257812 12.265625 84.121094 C 12.265625 83.753906 12.304688 83.394531 12.378906 83.042969 C 12.453125 82.691406 12.566406 82.347656 12.71875 82.019531 Z M 12.71875 82.019531 "/>
<path style=" stroke:none;fill-rule:nonzero;fill:rgb(0%,0%,0%);fill-opacity:1;" d="M 12.71875 74.6875 L 13.839844 74.6875 C 13.652344 75.027344 13.511719 75.367188 13.417969 75.707031 C 13.324219 76.046875 13.277344 76.390625 13.277344 76.738281 C 13.277344 77.515625 13.527344 78.121094 14.019531 78.550781 C 14.511719 78.980469 15.203125 79.195312 16.089844 79.195312 C 16.980469 79.195312 17.671875 78.980469 18.167969 78.550781 C 18.660156 78.121094 18.902344 77.515625 18.902344 76.738281 C 18.902344 76.390625 18.859375 76.046875 18.765625 75.707031 C 18.671875 75.367188 18.53125 75.027344 18.34375 74.6875 L 19.453125 74.6875 C 19.609375 75.023438 19.722656 75.371094 19.800781 75.726562 C 19.882812 76.085938 19.921875 76.464844 19.921875 76.871094 C 19.921875 77.96875 19.574219 78.839844 18.886719 79.488281 C 18.195312 80.132812 17.265625 80.457031 16.089844 80.457031 C 14.902344 80.457031 13.96875 80.128906 13.289062 79.476562 C 12.605469 78.824219 12.265625 77.929688 12.265625 76.789062 C 12.265625 76.421875 12.304688 76.0625 12.378906 75.710938 C 12.453125 75.359375 12.566406 75.019531 12.71875 74.6875 Z M 12.71875 74.6875 "/>
<g clip-path="url(#clip12)" clip-rule="nonzero">
<path style="fill:none;stroke-width:1.5;stroke-linecap:square;stroke-linejoin:round;stroke:rgb(12.156863%,46.666667%,70.588237%);stroke-opacity:1;stroke-miterlimit:4;" d="M 43.78125 136.921875 L 65.481445 88.013672 L 87.181641 54.741211 L 108.881836 33.011719 L 130.582031 23.396484 L 152.282227 19.731445 L 173.982422 13.376953 L 195.682617 46.839844 L 217.379883 26.15918 L 239.080078 66.023438 " transform="matrix(1.333333,0,0,1.333333,0,0)"/>
</g>
<path style="fill:none;stroke-width:0.8;stroke-linecap:square;stroke-linejoin:miter;stroke:rgb(0%,0%,0%);stroke-opacity:1;stroke-miterlimit:4;" d="M 43.78125 143.100586 L 43.78125 7.201172 " transform="matrix(1.333333,0,0,1.333333,0,0)"/>
<path style="fill:none;stroke-width:0.8;stroke-linecap:square;stroke-linejoin:miter;stroke:rgb(0%,0%,0%);stroke-opacity:1;stroke-miterlimit:4;" d="M 239.080078 143.100586 L 239.080078 7.201172 " transform="matrix(1.333333,0,0,1.333333,0,0)"/>
<path style="fill:none;stroke-width:0.8;stroke-linecap:square;stroke-linejoin:miter;stroke:rgb(0%,0%,0%);stroke-opacity:1;stroke-miterlimit:4;" d="M 43.78125 143.100586 L 239.080078 143.100586 " transform="matrix(1.333333,0,0,1.333333,0,0)"/>
<path style="fill:none;stroke-width:0.8;stroke-linecap:square;stroke-linejoin:miter;stroke:rgb(0%,0%,0%);stroke-opacity:1;stroke-miterlimit:4;" d="M 43.78125 7.201172 L 239.080078 7.201172 " transform="matrix(1.333333,0,0,1.333333,0,0)"/>
</g>
</svg>
