<?xml version="1.0" encoding="UTF-8"?>
<svg xmlns="http://www.w3.org/2000/svg" xmlns:xlink="http://www.w3.org/1999/xlink" width="352.2771" height="240.875" viewBox="0 0 352.2771 240.875" version="1.1">
<defs>
<clipPath id="clip1">
  <path d="M 82.277344 85 L 342.675781 85 L 342.675781 88 L 82.277344 88 Z M 82.277344 85 "/>
</clipPath>
<clipPath id="clip2">
  <path d="M 82.277344 85 L 308 85 L 308 88 L 82.277344 88 Z M 82.277344 85 "/>
</clipPath>
<clipPath id="clip3">
  <path d="M 305 85 L 342.675781 85 L 342.675781 88 L 305 88 Z M 305 85 "/>
</clipPath>
<clipPath id="clip4">
  <path d="M 82.277344 85 L 85 85 L 85 88 L 82.277344 88 Z M 82.277344 85 "/>
</clipPath>
</defs>
<g id="surface1">
<path style=" stroke:none;fill-rule:nonzero;fill:rgb(100%,100%,100%);fill-opacity:1;" d="M 82.277344 190.800781 L 342.675781 190.800781 L 342.675781 9.601562 L 82.277344 9.601562 Z M 82.277344 190.800781 "/>
<path style="fill:none;stroke-width:0.8;stroke-linecap:butt;stroke-linejoin:round;stroke:rgb(0%,0%,0%);stroke-opacity:1;stroke-miterlimit:4;" d="M 0.000198364 0.000579834 L 0.000198364 3.498627 " transform="matrix(1.333333,0,0,1.333333,143.308329,190.800008)"/>
<path style=" stroke:none;fill-rule:nonzero;fill:rgb(0%,0%,0%);fill-opacity:1;" d="M 134.894531 205.53125 L 143.238281 205.53125 L 143.238281 206.636719 L 134.894531 206.636719 Z M 134.894531 205.53125 "/>
<path style=" stroke:none;fill-rule:nonzero;fill:rgb(0%,0%,0%);fill-opacity:1;" d="M 149.691406 201.691406 L 146.371094 206.878906 L 149.691406 206.878906 Z M 149.347656 200.542969 L 151 200.542969 L 151 206.878906 L 152.386719 206.878906 L 152.386719 207.972656 L 151 207.972656 L 151 210.265625 L 149.691406 210.265625 L 149.691406 207.972656 L 145.304688 207.972656 L 145.304688 206.703125 Z M 149.347656 200.542969 "/>
<path style="fill:none;stroke-width:0.8;stroke-linecap:butt;stroke-linejoin:round;stroke:rgb(0%,0%,0%);stroke-opacity:1;stroke-miterlimit:4;" d="M 0.000198364 0.000579834 L 0.000198364 3.498627 " transform="matrix(1.333333,0,0,1.333333,224.683329,190.800008)"/>
<path style=" stroke:none;fill-rule:nonzero;fill:rgb(0%,0%,0%);fill-opacity:1;" d="M 216.269531 205.53125 L 224.613281 205.53125 L 224.613281 206.636719 L 216.269531 206.636719 Z M 216.269531 205.53125 "/>
<path style=" stroke:none;fill-rule:nonzero;fill:rgb(0%,0%,0%);fill-opacity:1;" d="M 228.585938 209.160156 L 233.175781 209.160156 L 233.175781 210.265625 L 227.003906 210.265625 L 227.003906 209.160156 C 227.503906 208.640625 228.183594 207.949219 229.042969 207.078125 C 229.90625 206.207031 230.449219 205.648438 230.667969 205.394531 C 231.089844 204.921875 231.382812 204.523438 231.550781 204.195312 C 231.71875 203.867188 231.800781 203.542969 231.800781 203.226562 C 231.800781 202.710938 231.621094 202.289062 231.257812 201.964844 C 230.894531 201.636719 230.421875 201.476562 229.839844 201.476562 C 229.429688 201.476562 228.992188 201.546875 228.535156 201.691406 C 228.078125 201.832031 227.589844 202.050781 227.070312 202.339844 L 227.070312 201.011719 C 227.597656 200.800781 228.09375 200.640625 228.550781 200.53125 C 229.011719 200.421875 229.433594 200.367188 229.816406 200.367188 C 230.824219 200.367188 231.625 200.621094 232.226562 201.125 C 232.824219 201.628906 233.121094 202.300781 233.121094 203.140625 C 233.121094 203.542969 233.046875 203.921875 232.898438 204.277344 C 232.75 204.636719 232.476562 205.058594 232.082031 205.542969 C 231.972656 205.671875 231.628906 206.035156 231.046875 206.636719 C 230.464844 207.238281 229.644531 208.078125 228.585938 209.160156 Z M 228.585938 209.160156 "/>
<path style="fill:none;stroke-width:0.8;stroke-linecap:butt;stroke-linejoin:round;stroke:rgb(0%,0%,0%);stroke-opacity:1;stroke-miterlimit:4;" d="M 0.000198364 0.000579834 L 0.000198364 3.498627 " transform="matrix(1.333333,0,0,1.333333,306.058329,190.800008)"/>
<path style=" stroke:none;fill-rule:nonzero;fill:rgb(0%,0%,0%);fill-opacity:1;" d="M 306.054688 201.410156 C 305.378906 201.410156 304.867188 201.742188 304.527344 202.410156 C 304.1875 203.074219 304.015625 204.078125 304.015625 205.414062 C 304.015625 206.746094 304.1875 207.746094 304.527344 208.414062 C 304.867188 209.078125 305.378906 209.414062 306.054688 209.414062 C 306.734375 209.414062 307.246094 209.078125 307.585938 208.414062 C 307.929688 207.746094 308.101562 206.746094 308.101562 205.414062 C 308.101562 204.078125 307.929688 203.074219 307.585938 202.410156 C 307.246094 201.742188 306.734375 201.410156 306.054688 201.410156 Z M 306.054688 200.367188 C 307.144531 200.367188 307.976562 200.800781 308.550781 201.664062 C 309.128906 202.523438 309.414062 203.773438 309.414062 205.414062 C 309.414062 207.050781 309.128906 208.300781 308.550781 209.164062 C 307.976562 210.023438 307.144531 210.453125 306.054688 210.453125 C 304.964844 210.453125 304.132812 210.023438 303.558594 209.164062 C 302.984375 208.300781 302.695312 207.050781 302.695312 205.414062 C 302.695312 203.773438 302.984375 202.523438 303.558594 201.664062 C 304.132812 200.800781 304.964844 200.367188 306.054688 200.367188 Z M 306.054688 200.367188 "/>
<path style=" stroke:none;fill-rule:nonzero;fill:rgb(0%,0%,0%);fill-opacity:1;" d="M 211.609375 221.210938 L 208.972656 224.757812 L 211.742188 228.503906 L 210.332031 228.503906 L 208.207031 225.636719 L 206.085938 228.503906 L 204.671875 228.503906 L 207.507812 224.6875 L 204.914062 221.210938 L 206.328125 221.210938 L 208.261719 223.808594 L 210.195312 221.210938 Z M 211.609375 221.210938 "/>
<path style=" stroke:none;fill-rule:nonzero;fill:rgb(0%,0%,0%);fill-opacity:1;" d="M 213.835938 227.394531 L 215.980469 227.394531 L 215.980469 219.980469 L 213.644531 220.449219 L 213.644531 219.25 L 215.96875 218.78125 L 217.285156 218.78125 L 217.285156 227.394531 L 219.433594 227.394531 L 219.433594 228.503906 L 213.835938 228.503906 Z M 213.835938 227.394531 "/>
<path style="fill:none;stroke-width:0.8;stroke-linecap:butt;stroke-linejoin:round;stroke:rgb(0%,0%,0%);stroke-opacity:1;stroke-miterlimit:4;" d="M 0.00019455 0.00146484 L -3.500782 0.00146484 " transform="matrix(1.333333,0,0,1.333333,82.277084,143.896484)"/>
<path style=" stroke:none;fill-rule:nonzero;fill:rgb(0%,0%,0%);fill-opacity:1;" d="M 29.25 144.230469 L 37.597656 144.230469 L 37.597656 145.335938 L 29.25 145.335938 Z M 29.25 144.230469 "/>
<path style=" stroke:none;fill-rule:nonzero;fill:rgb(0%,0%,0%);fill-opacity:1;" d="M 40.664062 147.855469 L 42.8125 147.855469 L 42.8125 140.4375 L 40.472656 140.90625 L 40.472656 139.710938 L 42.800781 139.242188 L 44.113281 139.242188 L 44.113281 147.855469 L 46.261719 147.855469 L 46.261719 148.960938 L 40.664062 148.960938 Z M 40.664062 147.855469 "/>
<path style=" stroke:none;fill-rule:nonzero;fill:rgb(0%,0%,0%);fill-opacity:1;" d="M 51.730469 140.109375 C 51.054688 140.109375 50.542969 140.441406 50.203125 141.109375 C 49.863281 141.773438 49.691406 142.773438 49.691406 144.113281 C 49.691406 145.445312 49.863281 146.441406 50.203125 147.109375 C 50.542969 147.777344 51.054688 148.109375 51.730469 148.109375 C 52.410156 148.109375 52.921875 147.777344 53.261719 147.109375 C 53.605469 146.441406 53.777344 145.445312 53.777344 144.113281 C 53.777344 142.773438 53.605469 141.773438 53.261719 141.109375 C 52.921875 140.441406 52.410156 140.109375 51.730469 140.109375 Z M 51.730469 139.066406 C 52.820312 139.066406 53.652344 139.496094 54.226562 140.359375 C 54.804688 141.222656 55.089844 142.472656 55.089844 144.113281 C 55.089844 145.75 54.804688 146.996094 54.226562 147.859375 C 53.652344 148.722656 52.820312 149.152344 51.730469 149.152344 C 50.640625 149.152344 49.808594 148.722656 49.234375 147.859375 C 48.660156 146.996094 48.371094 145.75 48.371094 144.113281 C 48.371094 142.472656 48.660156 141.222656 49.234375 140.359375 C 49.808594 139.496094 50.640625 139.066406 51.730469 139.066406 Z M 51.730469 139.066406 "/>
<path style=" stroke:none;fill-rule:nonzero;fill:rgb(0%,0%,0%);fill-opacity:1;" d="M 60.214844 140.109375 C 59.535156 140.109375 59.027344 140.441406 58.6875 141.109375 C 58.34375 141.773438 58.175781 142.773438 58.175781 144.113281 C 58.175781 145.445312 58.34375 146.441406 58.6875 147.109375 C 59.027344 147.777344 59.535156 148.109375 60.214844 148.109375 C 60.894531 148.109375 61.40625 147.777344 61.746094 147.109375 C 62.089844 146.441406 62.257812 145.445312 62.257812 144.113281 C 62.257812 142.773438 62.089844 141.773438 61.746094 141.109375 C 61.40625 140.441406 60.894531 140.109375 60.214844 140.109375 Z M 60.214844 139.066406 C 61.304688 139.066406 62.136719 139.496094 62.710938 140.359375 C 63.285156 141.222656 63.574219 142.472656 63.574219 144.113281 C 63.574219 145.75 63.285156 146.996094 62.710938 147.859375 C 62.136719 148.722656 61.304688 149.152344 60.214844 149.152344 C 59.125 149.152344 58.292969 148.722656 57.71875 147.859375 C 57.140625 146.996094 56.855469 145.75 56.855469 144.113281 C 56.855469 142.472656 57.140625 141.222656 57.71875 140.359375 C 58.292969 139.496094 59.125 139.066406 60.214844 139.066406 Z M 60.214844 139.066406 "/>
<path style=" stroke:none;fill-rule:nonzero;fill:rgb(0%,0%,0%);fill-opacity:1;" d="M 68.695312 140.109375 C 68.019531 140.109375 67.511719 140.441406 67.167969 141.109375 C 66.828125 141.773438 66.660156 142.773438 66.660156 144.113281 C 66.660156 145.445312 66.828125 146.441406 67.167969 147.109375 C 67.511719 147.777344 68.019531 148.109375 68.695312 148.109375 C 69.378906 148.109375 69.890625 147.777344 70.230469 147.109375 C 70.570312 146.441406 70.742188 145.445312 70.742188 144.113281 C 70.742188 142.773438 70.570312 141.773438 70.230469 141.109375 C 69.890625 140.441406 69.378906 140.109375 68.695312 140.109375 Z M 68.695312 139.066406 C 69.785156 139.066406 70.617188 139.496094 71.195312 140.359375 C 71.769531 141.222656 72.054688 142.472656 72.054688 144.113281 C 72.054688 145.75 71.769531 146.996094 71.195312 147.859375 C 70.617188 148.722656 69.785156 149.152344 68.695312 149.152344 C 67.605469 149.152344 66.773438 148.722656 66.199219 147.859375 C 65.625 146.996094 65.335938 145.75 65.335938 144.113281 C 65.335938 142.472656 65.625 141.222656 66.199219 140.359375 C 66.773438 139.496094 67.605469 139.066406 68.695312 139.066406 Z M 68.695312 139.066406 "/>
<path style="fill:none;stroke-width:0.8;stroke-linecap:butt;stroke-linejoin:round;stroke:rgb(0%,0%,0%);stroke-opacity:1;stroke-miterlimit:4;" d="M 0.00019455 -0.0000534058 L -3.500782 -0.0000534058 " transform="matrix(1.333333,0,0,1.333333,82.277084,86.472727)"/>
<path style=" stroke:none;fill-rule:nonzero;fill:rgb(0%,0%,0%);fill-opacity:1;" d="M 68.699219 82.683594 C 68.023438 82.683594 67.511719 83.015625 67.171875 83.683594 C 66.832031 84.347656 66.660156 85.351562 66.660156 86.6875 C 66.660156 88.019531 66.832031 89.019531 67.171875 89.6875 C 67.511719 90.351562 68.023438 90.6875 68.699219 90.6875 C 69.378906 90.6875 69.890625 90.351562 70.230469 89.6875 C 70.574219 89.019531 70.742188 88.019531 70.742188 86.6875 C 70.742188 85.351562 70.574219 84.347656 70.230469 83.683594 C 69.890625 83.015625 69.378906 82.683594 68.699219 82.683594 Z M 68.699219 81.640625 C 69.789062 81.640625 70.621094 82.074219 71.195312 82.9375 C 71.769531 83.796875 72.058594 85.046875 72.058594 86.6875 C 72.058594 88.324219 71.769531 89.574219 71.195312 90.4375 C 70.621094 91.296875 69.789062 91.726562 68.699219 91.726562 C 67.609375 91.726562 66.777344 91.296875 66.203125 90.4375 C 65.628906 89.574219 65.339844 88.324219 65.339844 86.6875 C 65.339844 85.046875 65.628906 83.796875 66.203125 82.9375 C 66.777344 82.074219 67.609375 81.640625 68.699219 81.640625 Z M 68.699219 81.640625 "/>
<path style="fill:none;stroke-width:0.8;stroke-linecap:butt;stroke-linejoin:round;stroke:rgb(0%,0%,0%);stroke-opacity:1;stroke-miterlimit:4;" d="M 0.00019455 0.00135612 L -3.500782 0.00135612 " transform="matrix(1.333333,0,0,1.333333,82.277084,29.048973)"/>
<path style=" stroke:none;fill-rule:nonzero;fill:rgb(0%,0%,0%);fill-opacity:1;" d="M 40.664062 33.007812 L 42.8125 33.007812 L 42.8125 25.589844 L 40.476562 26.058594 L 40.476562 24.863281 L 42.800781 24.394531 L 44.113281 24.394531 L 44.113281 33.007812 L 46.261719 33.007812 L 46.261719 34.113281 L 40.664062 34.113281 Z M 40.664062 33.007812 "/>
<path style=" stroke:none;fill-rule:nonzero;fill:rgb(0%,0%,0%);fill-opacity:1;" d="M 51.730469 25.261719 C 51.054688 25.261719 50.546875 25.59375 50.203125 26.261719 C 49.863281 26.925781 49.695312 27.925781 49.695312 29.265625 C 49.695312 30.597656 49.863281 31.597656 50.203125 32.261719 C 50.546875 32.929688 51.054688 33.261719 51.730469 33.261719 C 52.414062 33.261719 52.925781 32.929688 53.265625 32.261719 C 53.605469 31.597656 53.777344 30.597656 53.777344 29.265625 C 53.777344 27.925781 53.605469 26.925781 53.265625 26.261719 C 52.925781 25.59375 52.414062 25.261719 51.730469 25.261719 Z M 51.730469 24.21875 C 52.820312 24.21875 53.652344 24.648438 54.230469 25.511719 C 54.804688 26.375 55.089844 27.625 55.089844 29.265625 C 55.089844 30.902344 54.804688 32.148438 54.230469 33.011719 C 53.652344 33.875 52.820312 34.304688 51.730469 34.304688 C 50.640625 34.304688 49.808594 33.875 49.234375 33.011719 C 48.660156 32.148438 48.371094 30.902344 48.371094 29.265625 C 48.371094 27.625 48.660156 26.375 49.234375 25.511719 C 49.808594 24.648438 50.640625 24.21875 51.730469 24.21875 Z M 51.730469 24.21875 "/>
<path style=" stroke:none;fill-rule:nonzero;fill:rgb(0%,0%,0%);fill-opacity:1;" d="M 60.214844 25.261719 C 59.539062 25.261719 59.027344 25.59375 58.6875 26.261719 C 58.347656 26.925781 58.175781 27.925781 58.175781 29.265625 C 58.175781 30.597656 58.347656 31.597656 58.6875 32.261719 C 59.027344 32.929688 59.539062 33.261719 60.214844 33.261719 C 60.894531 33.261719 61.40625 32.929688 61.746094 32.261719 C 62.089844 31.597656 62.261719 30.597656 62.261719 29.265625 C 62.261719 27.925781 62.089844 26.925781 61.746094 26.261719 C 61.40625 25.59375 60.894531 25.261719 60.214844 25.261719 Z M 60.214844 24.21875 C 61.304688 24.21875 62.136719 24.648438 62.710938 25.511719 C 63.285156 26.375 63.574219 27.625 63.574219 29.265625 C 63.574219 30.902344 63.285156 32.148438 62.710938 33.011719 C 62.136719 33.875 61.304688 34.304688 60.214844 34.304688 C 59.125 34.304688 58.292969 33.875 57.71875 33.011719 C 57.144531 32.148438 56.855469 30.902344 56.855469 29.265625 C 56.855469 27.625 57.144531 26.375 57.71875 25.511719 C 58.292969 24.648438 59.125 24.21875 60.214844 24.21875 Z M 60.214844 24.21875 "/>
<path style=" stroke:none;fill-rule:nonzero;fill:rgb(0%,0%,0%);fill-opacity:1;" d="M 68.695312 25.261719 C 68.019531 25.261719 67.511719 25.59375 67.171875 26.261719 C 66.828125 26.925781 66.660156 27.925781 66.660156 29.265625 C 66.660156 30.597656 66.828125 31.597656 67.171875 32.261719 C 67.511719 32.929688 68.019531 33.261719 68.695312 33.261719 C 69.378906 33.261719 69.890625 32.929688 70.230469 32.261719 C 70.570312 31.597656 70.742188 30.597656 70.742188 29.265625 C 70.742188 27.925781 70.570312 26.925781 70.230469 26.261719 C 69.890625 25.59375 69.378906 25.261719 68.695312 25.261719 Z M 68.695312 24.21875 C 69.789062 24.21875 70.621094 24.648438 71.195312 25.511719 C 71.769531 26.375 72.058594 27.625 72.058594 29.265625 C 72.058594 30.902344 71.769531 32.148438 71.195312 33.011719 C 70.621094 33.875 69.789062 34.304688 68.695312 34.304688 C 67.609375 34.304688 66.777344 33.875 66.203125 33.011719 C 65.625 32.148438 65.339844 30.902344 65.339844 29.265625 C 65.339844 27.625 65.625 26.375 66.203125 25.511719 C 66.777344 24.648438 67.609375 24.21875 68.695312 24.21875 Z M 68.695312 24.21875 "/>
<path style=" stroke:none;fill-rule:nonzero;fill:rgb(0%,0%,0%);fill-opacity:1;" d="M 12.441406 101.070312 L 15.988281 103.707031 L 19.730469 100.933594 L 19.730469 102.347656 L 16.867188 104.46875 L 19.730469 106.589844 L 19.730469 108.003906 L 15.917969 105.171875 L 12.441406 107.761719 L 12.441406 106.351562 L 15.039062 104.417969 L 12.441406 102.484375 Z M 12.441406 101.070312 "/>
<path style=" stroke:none;fill-rule:nonzero;fill:rgb(0%,0%,0%);fill-opacity:1;" d="M 18.625 97.9375 L 18.625 93.347656 L 19.730469 93.347656 L 19.730469 99.519531 L 18.625 99.519531 C 18.109375 99.019531 17.414062 98.339844 16.546875 97.480469 C 15.675781 96.617188 15.113281 96.074219 14.859375 95.855469 C 14.386719 95.433594 13.988281 95.140625 13.660156 94.972656 C 13.332031 94.804688 13.011719 94.722656 12.695312 94.722656 C 12.175781 94.722656 11.757812 94.902344 11.429688 95.265625 C 11.105469 95.628906 10.941406 96.101562 10.941406 96.683594 C 10.941406 97.09375 11.011719 97.53125 11.15625 97.988281 C 11.300781 98.445312 11.515625 98.933594 11.808594 99.457031 L 10.480469 99.457031 C 10.265625 98.925781 10.105469 98.429688 9.996094 97.972656 C 9.890625 97.511719 9.835938 97.089844 9.835938 96.707031 C 9.835938 95.699219 10.085938 94.898438 10.589844 94.300781 C 11.09375 93.699219 11.765625 93.402344 12.609375 93.402344 C 13.007812 93.402344 13.386719 93.476562 13.746094 93.625 C 14.101562 93.773438 14.523438 94.046875 15.011719 94.441406 C 15.136719 94.550781 15.5 94.894531 16.101562 95.476562 C 16.703125 96.058594 17.542969 96.878906 18.625 97.9375 Z M 18.625 97.9375 "/>
<path style="fill:none;stroke-width:1.5;stroke-linecap:square;stroke-linejoin:round;stroke:rgb(100%,49.803922%,5.490196%);stroke-opacity:1;stroke-miterlimit:4;" d="M 76.96582 64.939453 L 95.276367 64.734375 L 111.386719 65.024414 L 125.566406 64.617188 L 138.043945 65.185547 L 149.024414 64.391602 L 158.686523 65.501953 L 167.188477 63.946289 L 174.670898 66.125977 L 181.256836 63.076172 L 187.051758 67.344727 L 192.149414 61.365234 L 196.637695 69.738281 L 200.586914 58.016602 L 204.061523 74.425781 L 207.120117 51.454102 L 209.80957 83.613281 L 212.176758 38.589844 L 214.262695 101.625 L 216.09668 13.376953 L 217.708008 136.921875 " transform="matrix(1.333333,0,0,1.333333,0,0)"/>
<path style="fill-rule:nonzero;fill:rgb(100%,49.803922%,5.490196%);fill-opacity:1;stroke-width:1;stroke-linecap:butt;stroke-linejoin:round;stroke:rgb(100%,49.803922%,5.490196%);stroke-opacity:1;stroke-miterlimit:4;" d="M 0.000198364 2.998772 C 0.797073 2.998772 1.558792 2.685295 2.121292 2.119865 C 2.683792 1.557365 3.000198 0.795647 3.000198 -0.00122833 C 3.000198 -0.795174 2.683792 -1.559822 2.121292 -2.122322 C 1.558792 -2.684822 0.797073 -3.001228 0.000198364 -3.001228 C -0.796677 -3.001228 -1.558395 -2.684822 -2.120895 -2.122322 C -2.683395 -1.559822 -2.999802 -0.795174 -2.999802 -0.00122833 C -2.999802 0.795647 -2.683395 1.557365 -2.120895 2.119865 C -1.558395 2.685295 -0.796677 2.998772 0.000198364 2.998772 Z M 0.000198364 2.998772 " transform="matrix(1.333333,0,0,1.333333,102.620829,86.587575)"/>
<path style="fill-rule:nonzero;fill:rgb(100%,49.803922%,5.490196%);fill-opacity:1;stroke-width:1;stroke-linecap:butt;stroke-linejoin:round;stroke:rgb(100%,49.803922%,5.490196%);stroke-opacity:1;stroke-miterlimit:4;" d="M 0.00136566 3.00042 C 0.795311 3.00042 1.559959 2.684013 2.122459 2.121513 C 2.684959 1.559013 3.001366 0.794365 3.001366 0.000419617 C 3.001366 -0.796455 2.684959 -1.558174 2.122459 -2.120674 C 1.559959 -2.683174 0.795311 -2.99958 0.00136566 -2.99958 C -0.795509 -2.99958 -1.560158 -2.683174 -2.122658 -2.120674 C -2.685158 -1.558174 -2.998634 -0.796455 -2.998634 0.000419617 C -2.998634 0.794365 -2.685158 1.559013 -2.122658 2.121513 C -1.560158 2.684013 -0.795509 3.00042 0.00136566 3.00042 Z M 0.00136566 3.00042 " transform="matrix(1.333333,0,0,1.333333,127.033335,86.311941)"/>
<path style="fill-rule:nonzero;fill:rgb(100%,49.803922%,5.490196%);fill-opacity:1;stroke-width:1;stroke-linecap:butt;stroke-linejoin:round;stroke:rgb(100%,49.803922%,5.490196%);stroke-opacity:1;stroke-miterlimit:4;" d="M -0.000534058 3.001045 C 0.796341 3.001045 1.55806 2.684639 2.12056 2.122139 C 2.68306 1.559639 2.999466 0.794991 2.999466 0.00104523 C 2.999466 -0.79583 2.68306 -1.557549 2.12056 -2.120049 C 1.55806 -2.682549 0.796341 -2.998955 -0.000534058 -2.998955 C -0.794479 -2.998955 -1.559128 -2.682549 -2.121628 -2.120049 C -2.684128 -1.557549 -3.000534 -0.79583 -3.000534 0.00104523 C -3.000534 0.794991 -2.684128 1.559639 -2.121628 2.122139 C -1.559128 2.684639 -0.794479 3.001045 -0.000534058 3.001045 Z M -0.000534058 3.001045 " transform="matrix(1.333333,0,0,1.333333,148.516337,86.697825)"/>
<path style="fill-rule:nonzero;fill:rgb(100%,49.803922%,5.490196%);fill-opacity:1;stroke-width:1;stroke-linecap:butt;stroke-linejoin:round;stroke:rgb(100%,49.803922%,5.490196%);stroke-opacity:1;stroke-miterlimit:4;" d="M 0.00037384 2.999001 C 0.794319 2.999001 1.558968 2.682594 2.121468 2.120094 C 2.683968 1.557594 3.000374 0.795876 3.000374 -0.000999451 C 3.000374 -0.794945 2.683968 -1.559593 2.121468 -2.122093 C 1.558968 -2.684593 0.794319 -3.000999 0.00037384 -3.000999 C -0.796501 -3.000999 -1.55822 -2.684593 -2.12072 -2.122093 C -2.68322 -1.559593 -2.999626 -0.794945 -2.999626 -0.000999451 C -2.999626 0.795876 -2.68322 1.557594 -2.12072 2.120094 C -1.55822 2.682594 -0.796501 2.999001 0.00037384 2.999001 Z M 0.00037384 2.999001 " transform="matrix(1.333333,0,0,1.333333,167.421377,86.157583)"/>
<path style="fill-rule:nonzero;fill:rgb(100%,49.803922%,5.490196%);fill-opacity:1;stroke-width:1;stroke-linecap:butt;stroke-linejoin:round;stroke:rgb(100%,49.803922%,5.490196%);stroke-opacity:1;stroke-miterlimit:4;" d="M 0.000595093 3.000099 C 0.79454 3.000099 1.559189 2.683693 2.121689 2.121193 C 2.684189 1.558693 3.000595 0.796974 3.000595 0.0000991821 C 3.000595 -0.796776 2.684189 -1.558495 2.121689 -2.120995 C 1.559189 -2.683495 0.79454 -2.999901 0.000595093 -2.999901 C -0.79628 -2.999901 -1.557999 -2.683495 -2.120499 -2.120995 C -2.682999 -1.558495 -2.999405 -0.796776 -2.999405 0.0000991821 C -2.999405 0.796974 -2.682999 1.558693 -2.120499 2.121193 C -1.557999 2.683693 -0.79628 3.000099 0.000595093 3.000099 Z M 0.000595093 3.000099 " transform="matrix(1.333333,0,0,1.333333,184.0578,86.91393)"/>
<path style="fill-rule:nonzero;fill:rgb(100%,49.803922%,5.490196%);fill-opacity:1;stroke-width:1;stroke-linecap:butt;stroke-linejoin:round;stroke:rgb(100%,49.803922%,5.490196%);stroke-opacity:1;stroke-miterlimit:4;" d="M 0.00100708 3.000313 C 0.794952 3.000313 1.559601 2.683907 2.122101 2.121407 C 2.684601 1.558907 3.001007 0.794258 3.001007 0.000312805 C 3.001007 -0.796562 2.684601 -1.558281 2.122101 -2.120781 C 1.559601 -2.683281 0.794952 -2.999687 0.00100708 -2.999687 C -0.795868 -2.999687 -1.557587 -2.683281 -2.120087 -2.120781 C -2.682587 -1.558281 -2.998993 -0.796562 -2.998993 0.000312805 C -2.998993 0.794258 -2.682587 1.558907 -2.120087 2.121407 C -1.557587 2.683907 -0.795868 3.000313 0.00100708 3.000313 Z M 0.00100708 3.000313 " transform="matrix(1.333333,0,0,1.333333,198.697876,85.855052)"/>
<path style="fill-rule:nonzero;fill:rgb(100%,49.803922%,5.490196%);fill-opacity:1;stroke-width:1;stroke-linecap:butt;stroke-linejoin:round;stroke:rgb(100%,49.803922%,5.490196%);stroke-opacity:1;stroke-miterlimit:4;" d="M 0.000671387 2.998848 C 0.794617 2.998848 1.559265 2.682442 2.121765 2.119942 C 2.684265 1.557442 3.000671 0.795723 3.000671 -0.00115204 C 3.000671 -0.795097 2.684265 -1.559746 2.121765 -2.122246 C 1.559265 -2.684746 0.794617 -3.001152 0.000671387 -3.001152 C -0.796204 -3.001152 -1.557922 -2.684746 -2.120422 -2.122246 C -2.682922 -1.559746 -2.999329 -0.795097 -2.999329 -0.00115204 C -2.999329 0.795723 -2.682922 1.557442 -2.120422 2.119942 C -1.557922 2.682442 -0.796204 2.998848 0.000671387 2.998848 Z M 0.000671387 2.998848 " transform="matrix(1.333333,0,0,1.333333,211.581136,87.337474)"/>
<path style="fill-rule:nonzero;fill:rgb(100%,49.803922%,5.490196%);fill-opacity:1;stroke-width:1;stroke-linecap:butt;stroke-linejoin:round;stroke:rgb(100%,49.803922%,5.490196%);stroke-opacity:1;stroke-miterlimit:4;" d="M -0.000320435 2.999729 C 0.796555 2.999729 1.558273 2.683323 2.120773 2.120823 C 2.683273 1.558323 2.99968 0.796604 2.99968 -0.000270844 C 2.99968 -0.794216 2.683273 -1.558865 2.120773 -2.121365 C 1.558273 -2.683865 0.796555 -3.000271 -0.000320435 -3.000271 C -0.794266 -3.000271 -1.558914 -2.683865 -2.121414 -2.121365 C -2.683914 -1.558865 -3.00032 -0.794216 -3.00032 -0.000270844 C -3.00032 0.796604 -2.683914 1.558323 -2.121414 2.120823 C -1.558914 2.683323 -0.794266 2.999729 -0.000320435 2.999729 Z M -0.000320435 2.999729 " transform="matrix(1.333333,0,0,1.333333,222.918396,85.26208)"/>
<path style="fill-rule:nonzero;fill:rgb(100%,49.803922%,5.490196%);fill-opacity:1;stroke-width:1;stroke-linecap:butt;stroke-linejoin:round;stroke:rgb(100%,49.803922%,5.490196%);stroke-opacity:1;stroke-miterlimit:4;" d="M -0.000488281 3.000252 C 0.796387 3.000252 1.558105 2.683846 2.120605 2.121346 C 2.683105 1.558846 2.999512 0.794197 2.999512 0.00025177 C 2.999512 -0.796623 2.683105 -1.558342 2.120605 -2.120842 C 1.558105 -2.683342 0.796387 -2.999748 -0.000488281 -2.999748 C -0.794434 -2.999748 -1.559082 -2.683342 -2.121582 -2.120842 C -2.684082 -1.558342 -3.000488 -0.796623 -3.000488 0.00025177 C -3.000488 0.794197 -2.684082 1.558846 -2.121582 2.121346 C -1.559082 2.683846 -0.794434 3.000252 -0.000488281 3.000252 Z M -0.000488281 3.000252 " transform="matrix(1.333333,0,0,1.333333,232.895182,88.167633)"/>
<path style="fill-rule:nonzero;fill:rgb(100%,49.803922%,5.490196%);fill-opacity:1;stroke-width:1;stroke-linecap:butt;stroke-linejoin:round;stroke:rgb(100%,49.803922%,5.490196%);stroke-opacity:1;stroke-miterlimit:4;" d="M 0.000762939 3.001278 C 0.794708 3.001278 1.559357 2.684872 2.121857 2.122372 C 2.684357 1.559872 3.000763 0.795223 3.000763 0.00127792 C 3.000763 -0.795597 2.684357 -1.557316 2.121857 -2.122746 C 1.559357 -2.685246 0.794708 -2.998722 0.000762939 -2.998722 C -0.796112 -2.998722 -1.557831 -2.685246 -2.120331 -2.122746 C -2.682831 -1.557316 -2.999237 -0.795597 -2.999237 0.00127792 C -2.999237 0.795223 -2.682831 1.559872 -2.120331 2.122372 C -1.557831 2.684872 -0.796112 3.001278 0.000762939 3.001278 Z M 0.000762939 3.001278 " transform="matrix(1.333333,0,0,1.333333,241.674764,84.099859)"/>
<path style="fill-rule:nonzero;fill:rgb(100%,49.803922%,5.490196%);fill-opacity:1;stroke-width:1;stroke-linecap:butt;stroke-linejoin:round;stroke:rgb(100%,49.803922%,5.490196%);stroke-opacity:1;stroke-miterlimit:4;" d="M 0.00115967 2.998665 C 0.795105 2.998665 1.559753 2.685188 2.122253 2.122688 C 2.684753 1.560188 3.00116 0.79554 3.00116 -0.00133514 C 3.00116 -0.79528 2.684753 -1.559929 2.122253 -2.122429 C 1.559753 -2.684929 0.795105 -3.001335 0.00115967 -3.001335 C -0.795715 -3.001335 -1.557434 -2.684929 -2.119934 -2.122429 C -2.685364 -1.559929 -2.99884 -0.79528 -2.99884 -0.00133514 C -2.99884 0.79554 -2.685364 1.560188 -2.119934 2.122688 C -1.557434 2.685188 -0.795715 2.998665 0.00115967 2.998665 Z M 0.00115967 2.998665 " transform="matrix(1.333333,0,0,1.333333,249.400798,89.794749)"/>
<path style="fill-rule:nonzero;fill:rgb(100%,49.803922%,5.490196%);fill-opacity:1;stroke-width:1;stroke-linecap:butt;stroke-linejoin:round;stroke:rgb(100%,49.803922%,5.490196%);stroke-opacity:1;stroke-miterlimit:4;" d="M -0.000366211 2.998806 C 0.796509 2.998806 1.558228 2.685329 2.120728 2.1199 C 2.683228 1.5574 2.999634 0.795681 2.999634 -0.001194 C 2.999634 -0.795139 2.683228 -1.559788 2.120728 -2.122288 C 1.558228 -2.684788 0.796509 -3.001194 -0.000366211 -3.001194 C -0.794312 -3.001194 -1.55896 -2.684788 -2.12146 -2.122288 C -2.68396 -1.559788 -3.000366 -0.795139 -3.000366 -0.001194 C -3.000366 0.795681 -2.68396 1.5574 -2.12146 2.1199 C -1.55896 2.685329 -0.794312 2.998806 -0.000366211 2.998806 Z M -0.000366211 2.998806 " transform="matrix(1.333333,0,0,1.333333,256.199707,81.821905)"/>
<path style="fill-rule:nonzero;fill:rgb(100%,49.803922%,5.490196%);fill-opacity:1;stroke-width:1;stroke-linecap:butt;stroke-linejoin:round;stroke:rgb(100%,49.803922%,5.490196%);stroke-opacity:1;stroke-miterlimit:4;" d="M 0.000640869 3.000366 C 0.794586 3.000366 1.559235 2.68396 2.121735 2.12146 C 2.684235 1.55896 3.000641 0.794312 3.000641 0.000366211 C 3.000641 -0.796509 2.684235 -1.558228 2.121735 -2.120728 C 1.559235 -2.683228 0.794586 -2.999634 0.000640869 -2.999634 C -0.796234 -2.999634 -1.557953 -2.683228 -2.120453 -2.120728 C -2.682953 -1.558228 -2.999359 -0.796509 -2.999359 0.000366211 C -2.999359 0.794312 -2.682953 1.55896 -2.120453 2.12146 C -1.557953 2.68396 -0.796234 3.000366 0.000640869 3.000366 Z M 0.000640869 3.000366 " transform="matrix(1.333333,0,0,1.333333,262.182739,92.983887)"/>
<path style="fill-rule:nonzero;fill:rgb(100%,49.803922%,5.490196%);fill-opacity:1;stroke-width:1;stroke-linecap:butt;stroke-linejoin:round;stroke:rgb(100%,49.803922%,5.490196%);stroke-opacity:1;stroke-miterlimit:4;" d="M 0.00105286 2.998768 C 0.794998 2.998768 1.559647 2.685291 2.122147 2.119862 C 2.684647 1.557362 3.001053 0.795643 3.001053 -0.00123215 C 3.001053 -0.795177 2.684647 -1.559826 2.122147 -2.122326 C 1.559647 -2.684826 0.794998 -3.001232 0.00105286 -3.001232 C -0.795822 -3.001232 -1.557541 -2.684826 -2.120041 -2.122326 C -2.682541 -1.559826 -2.998947 -0.795177 -2.998947 -0.00123215 C -2.998947 0.795643 -2.682541 1.557362 -2.120041 2.119862 C -1.557541 2.685291 -0.795822 2.998768 0.00105286 2.998768 Z M 0.00105286 2.998768 " transform="matrix(1.333333,0,0,1.333333,267.447815,77.357112)"/>
<path style="fill-rule:nonzero;fill:rgb(100%,49.803922%,5.490196%);fill-opacity:1;stroke-width:1;stroke-linecap:butt;stroke-linejoin:round;stroke:rgb(100%,49.803922%,5.490196%);stroke-opacity:1;stroke-miterlimit:4;" d="M 0.000717163 2.99984 C 0.794662 2.99984 1.559311 2.683434 2.121811 2.120934 C 2.684311 1.558434 3.000717 0.796715 3.000717 -0.000160217 C 3.000717 -0.797035 2.684311 -1.558754 2.121811 -2.121254 C 1.559311 -2.683754 0.794662 -3.00016 0.000717163 -3.00016 C -0.796158 -3.00016 -1.557877 -2.683754 -2.120377 -2.121254 C -2.682877 -1.558754 -2.999283 -0.797035 -2.999283 -0.000160217 C -2.999283 0.796715 -2.682877 1.558434 -2.120377 2.120934 C -1.557877 2.683434 -0.796158 2.99984 0.000717163 2.99984 Z M 0.000717163 2.99984 " transform="matrix(1.333333,0,0,1.333333,272.081075,99.234589)"/>
<path style="fill-rule:nonzero;fill:rgb(100%,49.803922%,5.490196%);fill-opacity:1;stroke-width:1;stroke-linecap:butt;stroke-linejoin:round;stroke:rgb(100%,49.803922%,5.490196%);stroke-opacity:1;stroke-miterlimit:4;" d="M 0.00135803 2.999512 C 0.795303 2.999512 1.559952 2.683105 2.122452 2.120605 C 2.684952 1.558105 3.001358 0.796387 3.001358 -0.000488281 C 3.001358 -0.794434 2.684952 -1.559082 2.122452 -2.121582 C 1.559952 -2.684082 0.795303 -3.000488 0.00135803 -3.000488 C -0.795517 -3.000488 -1.560165 -2.684082 -2.122665 -2.121582 C -2.685165 -1.559082 -2.998642 -0.794434 -2.998642 -0.000488281 C -2.998642 0.796387 -2.685165 1.558105 -2.122665 2.120605 C -1.560165 2.683105 -0.795517 2.999512 0.00135803 2.999512 Z M 0.00135803 2.999512 " transform="matrix(1.333333,0,0,1.333333,276.158346,68.60612)"/>
<path style="fill-rule:nonzero;fill:rgb(100%,49.803922%,5.490196%);fill-opacity:1;stroke-width:1;stroke-linecap:butt;stroke-linejoin:round;stroke:rgb(100%,49.803922%,5.490196%);stroke-opacity:1;stroke-miterlimit:4;" d="M -0.000183105 2.998795 C 0.796692 2.998795 1.558411 2.685318 2.120911 2.119888 C 2.683411 1.557388 2.999817 0.79567 2.999817 -0.00120544 C 2.999817 -0.795151 2.683411 -1.559799 2.120911 -2.122299 C 1.558411 -2.684799 0.796692 -3.001205 -0.000183105 -3.001205 C -0.797058 -3.001205 -1.558777 -2.684799 -2.121277 -2.122299 C -2.683777 -1.559799 -3.000183 -0.795151 -3.000183 -0.00120544 C -3.000183 0.79567 -2.683777 1.557388 -2.121277 2.119888 C -1.558777 2.685318 -0.797058 2.998795 -0.000183105 2.998795 Z M -0.000183105 2.998795 " transform="matrix(1.333333,0,0,1.333333,279.746338,111.485982)"/>
<path style="fill-rule:nonzero;fill:rgb(100%,49.803922%,5.490196%);fill-opacity:1;stroke-width:1;stroke-linecap:butt;stroke-linejoin:round;stroke:rgb(100%,49.803922%,5.490196%);stroke-opacity:1;stroke-miterlimit:4;" d="M -0.00108337 2.999214 C 0.795792 2.999214 1.55751 2.682808 2.12001 2.120308 C 2.68251 1.557808 2.998917 0.796089 2.998917 -0.000785828 C 2.998917 -0.794731 2.68251 -1.55938 2.12001 -2.12188 C 1.55751 -2.68438 0.795792 -3.000786 -0.00108337 -3.000786 C -0.795029 -3.000786 -1.559677 -2.68438 -2.122177 -2.12188 C -2.684677 -1.55938 -3.001083 -0.794731 -3.001083 -0.000785828 C -3.001083 0.796089 -2.684677 1.557808 -2.122177 2.120308 C -1.559677 2.682808 -0.795029 2.999214 -0.00108337 2.999214 Z M -0.00108337 2.999214 " transform="matrix(1.333333,0,0,1.333333,282.903788,51.454173)"/>
<path style="fill-rule:nonzero;fill:rgb(100%,49.803922%,5.490196%);fill-opacity:1;stroke-width:1;stroke-linecap:butt;stroke-linejoin:round;stroke:rgb(100%,49.803922%,5.490196%);stroke-opacity:1;stroke-miterlimit:4;" d="M 0.000946045 3.000977 C 0.794891 3.000977 1.55954 2.68457 2.12204 2.12207 C 2.68454 1.55957 3.000946 0.794922 3.000946 0.000976562 C 3.000946 -0.795898 2.68454 -1.557617 2.12204 -2.120117 C 1.55954 -2.682617 0.794891 -2.999023 0.000946045 -2.999023 C -0.795929 -2.999023 -1.557648 -2.682617 -2.120148 -2.120117 C -2.682648 -1.557617 -2.999054 -0.795898 -2.999054 0.000976562 C -2.999054 0.794922 -2.682648 1.55957 -2.120148 2.12207 C -1.557648 2.68457 -0.795929 3.000977 0.000946045 3.000977 Z M 0.000946045 3.000977 " transform="matrix(1.333333,0,0,1.333333,285.682332,135.498698)"/>
<path style="fill-rule:nonzero;fill:rgb(100%,49.803922%,5.490196%);fill-opacity:1;stroke-width:1;stroke-linecap:butt;stroke-linejoin:round;stroke:rgb(100%,49.803922%,5.490196%);stroke-opacity:1;stroke-miterlimit:4;" d="M 0.00109863 2.999681 C 0.795044 2.999681 1.559692 2.683274 2.122192 2.120774 C 2.684692 1.558274 3.001099 0.796556 3.001099 -0.000319481 C 3.001099 -0.794265 2.684692 -1.558913 2.122192 -2.121413 C 1.559692 -2.683913 0.795044 -3.000319 0.00109863 -3.000319 C -0.795776 -3.000319 -1.557495 -2.683913 -2.119995 -2.121413 C -2.682495 -1.558913 -2.998901 -0.794265 -2.998901 -0.000319481 C -2.998901 0.796556 -2.682495 1.558274 -2.119995 2.120774 C -1.557495 2.683274 -0.795776 2.999681 0.00109863 2.999681 Z M 0.00109863 2.999681 " transform="matrix(1.333333,0,0,1.333333,288.127441,17.836363)"/>
<path style="fill-rule:nonzero;fill:rgb(100%,49.803922%,5.490196%);fill-opacity:1;stroke-width:1;stroke-linecap:butt;stroke-linejoin:round;stroke:rgb(100%,49.803922%,5.490196%);stroke-opacity:1;stroke-miterlimit:4;" d="M -0.00135803 2.999146 C 0.795517 2.999146 1.560165 2.682739 2.122665 2.120239 C 2.685165 1.557739 2.998642 0.796021 2.998642 -0.000854492 C 2.998642 -0.7948 2.685165 -1.559448 2.122665 -2.121948 C 1.560165 -2.684448 0.795517 -3.000854 -0.00135803 -3.000854 C -0.795303 -3.000854 -1.559952 -2.684448 -2.122452 -2.121948 C -2.684952 -1.559448 -3.001358 -0.7948 -3.001358 -0.000854492 C -3.001358 0.796021 -2.684952 1.557739 -2.122452 2.120239 C -1.559952 2.682739 -0.795303 2.999146 -0.00135803 2.999146 Z M -0.00135803 2.999146 " transform="matrix(1.333333,0,0,1.333333,290.279154,182.563639)"/>
<g clip-path="url(#clip1)" clip-rule="nonzero">
<path style="fill:none;stroke-width:1.5;stroke-linecap:butt;stroke-linejoin:round;stroke:rgb(12.156863%,46.666667%,70.588237%);stroke-opacity:1;stroke-miterlimit:4;" d="M 116.188477 64.816406 L 110.53418 64.816406 L 107.481445 64.819336 L 101.378906 64.819336 L 98.326172 64.822266 L 95.276367 64.822266 L 92.393555 64.825195 L 89.170898 64.825195 L 86.121094 64.828125 L 83.068359 64.828125 L 80.018555 64.831055 L 76.96582 64.833984 L 73.913086 64.833984 L 71.572266 64.836914 L 70.863281 64.836914 L 67.810547 64.839844 L 67.49707 64.842773 L 64.760742 64.845703 L 64.646484 64.845703 L 62.967773 64.851562 L 62.408203 64.854492 L 62.967773 64.857422 L 64.646484 64.863281 L 64.760742 64.863281 L 67.49707 64.866211 L 67.810547 64.869141 L 70.863281 64.87207 L 71.572266 64.87207 L 73.913086 64.875 L 76.96582 64.875 L 80.018555 64.87793 L 83.068359 64.880859 L 86.121094 64.880859 L 89.170898 64.883789 L 92.393555 64.883789 L 95.276367 64.886719 L 98.326172 64.886719 L 101.378906 64.889648 L 107.481445 64.889648 L 110.53418 64.892578 L 116.636719 64.892578 L 119.686523 64.895508 L 128.841797 64.895508 L 131.894531 64.898438 L 144.099609 64.898438 L 147.152344 64.901367 L 162.410156 64.901367 L 165.459961 64.904297 L 186.823242 64.904297 L 189.873047 64.907227 L 257.006836 64.907227 " transform="matrix(1.333333,0,0,1.333333,0,0)"/>
<path style="fill:none;stroke-width:1.5;stroke-linecap:butt;stroke-linejoin:round;stroke:rgb(12.156863%,46.666667%,70.588237%);stroke-opacity:1;stroke-miterlimit:4;" d="M 61.708008 64.907227 L 64.760742 64.907227 L 67.810547 64.910156 L 76.96582 64.910156 L 80.018555 64.913086 L 86.121094 64.913086 L 89.170898 64.916016 L 101.378906 64.916016 L 104.428711 64.918945 L 116.636719 64.918945 L 119.686523 64.921875 L 137.99707 64.921875 L 139.03125 64.924805 L 162.410156 64.924805 L 165.459961 64.927734 L 257.006836 64.927734 " transform="matrix(1.333333,0,0,1.333333,0,0)"/>
<path style="fill:none;stroke-width:1.5;stroke-linecap:butt;stroke-linejoin:round;stroke:rgb(12.156863%,46.666667%,70.588237%);stroke-opacity:1;stroke-miterlimit:4;" d="M 61.708008 64.927734 L 64.760742 64.930664 L 76.362305 64.930664 L 76.96582 64.933594 L 92.223633 64.933594 L 95.276367 64.936523 L 110.53418 64.936523 L 113.583984 64.939453 L 134.944336 64.939453 L 137.99707 64.942383 L 168.512695 64.942383 L 171.56543 64.945312 L 257.006836 64.945312 " transform="matrix(1.333333,0,0,1.333333,0,0)"/>
<path style="fill:none;stroke-width:1.5;stroke-linecap:butt;stroke-linejoin:round;stroke:rgb(12.156863%,46.666667%,70.588237%);stroke-opacity:1;stroke-miterlimit:4;" d="M 61.708008 64.945312 L 64.760742 64.945312 L 67.810547 64.948242 L 83.068359 64.948242 L 86.121094 64.951172 L 104.428711 64.951172 L 107.481445 64.954102 L 131.894531 64.954102 L 134.944336 64.957031 L 171.56543 64.957031 L 174.615234 64.959961 L 257.006836 64.959961 " transform="matrix(1.333333,0,0,1.333333,0,0)"/>
<path style="fill:none;stroke-width:1.5;stroke-linecap:butt;stroke-linejoin:round;stroke:rgb(12.156863%,46.666667%,70.588237%);stroke-opacity:1;stroke-miterlimit:4;" d="M 61.708008 64.959961 L 70.863281 64.959961 L 73.913086 64.962891 L 92.223633 64.962891 L 95.276367 64.96582 L 119.686523 64.96582 L 122.739258 64.96875 L 156.307617 64.96875 L 159.357422 64.97168 L 257.006836 64.97168 " transform="matrix(1.333333,0,0,1.333333,0,0)"/>
</g>
<g clip-path="url(#clip2)" clip-rule="nonzero">
<path style="fill:none;stroke-width:1.5;stroke-linecap:butt;stroke-linejoin:round;stroke:rgb(12.156863%,46.666667%,70.588237%);stroke-opacity:1;stroke-miterlimit:4;" d="M 61.708008 64.97168 L 64.760742 64.97168 L 67.810547 64.974609 L 89.170898 64.974609 L 92.223633 64.977539 L 116.636719 64.977539 L 119.686523 64.980469 L 159.357422 64.980469 L 162.410156 64.983398 L 229.543945 64.983398 " transform="matrix(1.333333,0,0,1.333333,0,0)"/>
</g>
<g clip-path="url(#clip3)" clip-rule="nonzero">
<path style="fill:none;stroke-width:1.5;stroke-linecap:butt;stroke-linejoin:round;stroke:rgb(12.156863%,46.666667%,70.588237%);stroke-opacity:1;stroke-miterlimit:4;" d="M 229.543945 64.983398 L 257.006836 64.983398 " transform="matrix(1.333333,0,0,1.333333,0,0)"/>
</g>
<g clip-path="url(#clip4)" clip-rule="nonzero">
<path style="fill:none;stroke-width:1.5;stroke-linecap:butt;stroke-linejoin:round;stroke:rgb(12.156863%,46.666667%,70.588237%);stroke-opacity:1;stroke-miterlimit:4;" d="M 61.708008 64.983398 L 62.408203 64.983398 " transform="matrix(1.333333,0,0,1.333333,0,0)"/>
</g>
<path style="fill:none;stroke-width:0.8;stroke-linecap:square;stroke-linejoin:miter;stroke:rgb(0%,0%,0%);stroke-opacity:1;stroke-miterlimit:4;" d="M 61.708008 143.100586 L 61.708008 7.201172 " transform="matrix(1.333333,0,0,1.333333,0,0)"/>
<path style="fill:none;stroke-width:0.8;stroke-linecap:square;stroke-linejoin:miter;stroke:rgb(0%,0%,0%);stroke-opacity:1;stroke-miterlimit:4;" d="M 257.006836 143.100586 L 257.006836 7.201172 " transform="matrix(1.333333,0,0,1.333333,0,0)"/>
<path style="fill:none;stroke-width:0.8;stroke-linecap:square;stroke-linejoin:miter;stroke:rgb(0%,0%,0%);stroke-opacity:1;stroke-miterlimit:4;" d="M 61.708008 143.100586 L 257.006836 143.100586 " transform="matrix(1.333333,0,0,1.333333,0,0)"/>
<path style="fill:none;stroke-width:0.8;stroke-linecap:square;stroke-linejoin:miter;stroke:rgb(0%,0%,0%);stroke-opacity:1;stroke-miterlimit:4;" d="M 61.708008 7.201172 L 257.006836 7.201172 " transform="matrix(1.333333,0,0,1.333333,0,0)"/>
</g>
</svg>
