<?xml version="1.0" encoding="UTF-8"?>
<svg xmlns="http://www.w3.org/2000/svg" xmlns:xlink="http://www.w3.org/1999/xlink" width="318.620829" height="240.875" viewBox="0 0 318.620829 240.875" version="1.1">
<defs>
<clipPath id="clip1">
  <path d="M 68 9.601562 L 70 9.601562 L 70 190.800781 L 68 190.800781 Z M 68 9.601562 "/>
</clipPath>
<clipPath id="clip2">
  <path d="M 126 9.601562 L 128 9.601562 L 128 190.800781 L 126 190.800781 Z M 126 9.601562 "/>
</clipPath>
<clipPath id="clip3">
  <path d="M 184 9.601562 L 186 9.601562 L 186 190.800781 L 184 190.800781 Z M 184 9.601562 "/>
</clipPath>
<clipPath id="clip4">
  <path d="M 241 9.601562 L 244 9.601562 L 244 190.800781 L 241 190.800781 Z M 241 9.601562 "/>
</clipPath>
<clipPath id="clip5">
  <path d="M 299 9.601562 L 300.539062 9.601562 L 300.539062 190.800781 L 299 190.800781 Z M 299 9.601562 "/>
</clipPath>
<clipPath id="clip6">
  <path d="M 40.136719 157 L 300.539062 157 L 300.539062 159 L 40.136719 159 Z M 40.136719 157 "/>
</clipPath>
<clipPath id="clip7">
  <path d="M 40.136719 122 L 300.539062 122 L 300.539062 125 L 40.136719 125 Z M 40.136719 122 "/>
</clipPath>
<clipPath id="clip8">
  <path d="M 40.136719 88 L 300.539062 88 L 300.539062 90 L 40.136719 90 Z M 40.136719 88 "/>
</clipPath>
<clipPath id="clip9">
  <path d="M 40.136719 53 L 300.539062 53 L 300.539062 55 L 40.136719 55 Z M 40.136719 53 "/>
</clipPath>
<clipPath id="clip10">
  <path d="M 40.136719 18 L 300.539062 18 L 300.539062 21 L 40.136719 21 Z M 40.136719 18 "/>
</clipPath>
<clipPath id="clip11">
  <path d="M 40.136719 16 L 300.539062 16 L 300.539062 184 L 40.136719 184 Z M 40.136719 16 "/>
</clipPath>
<clipPath id="clip12">
  <path d="M 40.136719 69 L 300.539062 69 L 300.539062 129 L 40.136719 129 Z M 40.136719 69 "/>
</clipPath>
<clipPath id="clip13">
  <path d="M 40.136719 73 L 300.539062 73 L 300.539062 111 L 40.136719 111 Z M 40.136719 73 "/>
</clipPath>
<filter id="alpha" filterUnits="objectBoundingBox" x="0%" y="0%" width="100%" height="100%">
  <feColorMatrix type="matrix" in="SourceGraphic" values="0 0 0 0 1 0 0 0 0 1 0 0 0 0 1 0 0 0 1 0"/>
</filter>
<mask id="mask0">
  <g filter="url(#alpha)">
<rect x="0" y="0" width="318.620829" height="240.875" style="fill:rgb(0%,0%,0%);fill-opacity:0.8;stroke:none;"/>
  </g>
</mask>
<clipPath id="clip14">
  <rect x="0" y="0" width="319" height="241"/>
</clipPath>
<g id="surface5" clip-path="url(#clip14)">
<path style="fill-rule:nonzero;fill:rgb(100%,100%,100%);fill-opacity:1;stroke-width:1;stroke-linecap:butt;stroke-linejoin:miter;stroke:rgb(80.000001%,80.000001%,80.000001%);stroke-opacity:1;stroke-miterlimit:4;" d="M 37.104492 59.235352 L 114.873047 59.235352 C 116.206055 59.235352 116.871094 58.567383 116.871094 57.234375 L 116.871094 14.200195 C 116.871094 12.867188 116.206055 12.199219 114.873047 12.199219 L 37.104492 12.199219 C 35.768555 12.199219 35.103516 12.867188 35.103516 14.200195 L 35.103516 57.234375 C 35.103516 58.567383 35.768555 59.235352 37.104492 59.235352 Z M 37.104492 59.235352 " transform="matrix(1.333333,0,0,1.333333,0.000000000000028422,0)"/>
</g>
</defs>
<g id="surface1">
<path style=" stroke:none;fill-rule:nonzero;fill:rgb(100%,100%,100%);fill-opacity:1;" d="M 40.136719 190.800781 L 300.539062 190.800781 L 300.539062 9.601562 L 40.136719 9.601562 Z M 40.136719 190.800781 "/>
<g clip-path="url(#clip1)" clip-rule="nonzero">
<path style="fill:none;stroke-width:0.8;stroke-linecap:square;stroke-linejoin:round;stroke:rgb(69.01961%,69.01961%,69.01961%);stroke-opacity:1;stroke-miterlimit:4;" d="M 51.802734 143.100586 L 51.802734 7.201172 " transform="matrix(1.333333,0,0,1.333333,0.000000000000028422,0)"/>
</g>
<path style="fill:none;stroke-width:0.8;stroke-linecap:butt;stroke-linejoin:round;stroke:rgb(0%,0%,0%);stroke-opacity:1;stroke-miterlimit:4;" d="M -0.000389099 0.000579834 L -0.000389099 3.498627 " transform="matrix(1.333333,0,0,1.333333,69.070831,190.800008)"/>
<path style=" stroke:none;fill-rule:nonzero;fill:rgb(0%,0%,0%);fill-opacity:1;" d="M 67.386719 209.160156 L 71.976562 209.160156 L 71.976562 210.265625 L 65.804688 210.265625 L 65.804688 209.160156 C 66.304688 208.640625 66.984375 207.949219 67.847656 207.078125 C 68.707031 206.207031 69.25 205.648438 69.472656 205.394531 C 69.890625 204.921875 70.183594 204.523438 70.351562 204.195312 C 70.519531 203.867188 70.605469 203.542969 70.605469 203.226562 C 70.605469 202.710938 70.421875 202.289062 70.058594 201.964844 C 69.699219 201.636719 69.226562 201.476562 68.644531 201.476562 C 68.230469 201.476562 67.796875 201.546875 67.335938 201.691406 C 66.878906 201.832031 66.390625 202.050781 65.871094 202.339844 L 65.871094 201.011719 C 66.398438 200.800781 66.894531 200.640625 67.355469 200.53125 C 67.816406 200.421875 68.238281 200.367188 68.617188 200.367188 C 69.625 200.367188 70.429688 200.621094 71.027344 201.125 C 71.625 201.628906 71.925781 202.300781 71.925781 203.140625 C 71.925781 203.542969 71.851562 203.921875 71.699219 204.277344 C 71.550781 204.636719 71.277344 205.058594 70.882812 205.542969 C 70.773438 205.671875 70.429688 206.035156 69.847656 206.636719 C 69.265625 207.238281 68.445312 208.078125 67.386719 209.160156 Z M 67.386719 209.160156 "/>
<g clip-path="url(#clip2)" clip-rule="nonzero">
<path style="fill:none;stroke-width:0.8;stroke-linecap:square;stroke-linejoin:round;stroke:rgb(69.01961%,69.01961%,69.01961%);stroke-opacity:1;stroke-miterlimit:4;" d="M 95.203125 143.100586 L 95.203125 7.201172 " transform="matrix(1.333333,0,0,1.333333,0.000000000000028422,0)"/>
</g>
<path style="fill:none;stroke-width:0.8;stroke-linecap:butt;stroke-linejoin:round;stroke:rgb(0%,0%,0%);stroke-opacity:1;stroke-miterlimit:4;" d="M -0.000000000000028422 0.000579834 L -0.000000000000028422 3.498627 " transform="matrix(1.333333,0,0,1.333333,126.9375,190.800008)"/>
<path style=" stroke:none;fill-rule:nonzero;fill:rgb(0%,0%,0%);fill-opacity:1;" d="M 127.734375 201.691406 L 124.414062 206.878906 L 127.734375 206.878906 Z M 127.390625 200.542969 L 129.042969 200.542969 L 129.042969 206.878906 L 130.429688 206.878906 L 130.429688 207.972656 L 129.042969 207.972656 L 129.042969 210.265625 L 127.734375 210.265625 L 127.734375 207.972656 L 123.347656 207.972656 L 123.347656 206.703125 Z M 127.390625 200.542969 "/>
<g clip-path="url(#clip3)" clip-rule="nonzero">
<path style="fill:none;stroke-width:0.8;stroke-linecap:square;stroke-linejoin:round;stroke:rgb(69.01961%,69.01961%,69.01961%);stroke-opacity:1;stroke-miterlimit:4;" d="M 138.603516 143.100586 L 138.603516 7.201172 " transform="matrix(1.333333,0,0,1.333333,0.000000000000028422,0)"/>
</g>
<path style="fill:none;stroke-width:0.8;stroke-linecap:butt;stroke-linejoin:round;stroke:rgb(0%,0%,0%);stroke-opacity:1;stroke-miterlimit:4;" d="M 0.000396729 0.000579834 L 0.000396729 3.498627 " transform="matrix(1.333333,0,0,1.333333,184.804159,190.800008)"/>
<path style=" stroke:none;fill-rule:nonzero;fill:rgb(0%,0%,0%);fill-opacity:1;" d="M 184.964844 204.882812 C 184.375 204.882812 183.90625 205.082031 183.558594 205.488281 C 183.214844 205.890625 183.042969 206.441406 183.042969 207.144531 C 183.042969 207.84375 183.214844 208.398438 183.558594 208.804688 C 183.90625 209.210938 184.375 209.414062 184.964844 209.414062 C 185.554688 209.414062 186.023438 209.210938 186.367188 208.804688 C 186.710938 208.398438 186.882812 207.84375 186.882812 207.144531 C 186.882812 206.441406 186.710938 205.890625 186.367188 205.488281 C 186.023438 205.082031 185.554688 204.882812 184.964844 204.882812 Z M 187.574219 200.757812 L 187.574219 201.957031 C 187.246094 201.800781 186.910156 201.683594 186.574219 201.601562 C 186.238281 201.515625 185.90625 201.476562 185.574219 201.476562 C 184.707031 201.476562 184.042969 201.769531 183.585938 202.355469 C 183.128906 202.941406 182.867188 203.824219 182.800781 205.011719 C 183.058594 204.632812 183.378906 204.34375 183.765625 204.140625 C 184.152344 203.941406 184.578125 203.839844 185.042969 203.839844 C 186.019531 203.839844 186.789062 204.136719 187.355469 204.730469 C 187.921875 205.320312 188.207031 206.125 188.207031 207.144531 C 188.207031 208.144531 187.910156 208.945312 187.320312 209.550781 C 186.730469 210.152344 185.945312 210.453125 184.964844 210.453125 C 183.839844 210.453125 182.980469 210.023438 182.386719 209.164062 C 181.789062 208.300781 181.492188 207.050781 181.492188 205.414062 C 181.492188 203.878906 181.859375 202.652344 182.585938 201.738281 C 183.316406 200.824219 184.296875 200.367188 185.523438 200.367188 C 185.851562 200.367188 186.1875 200.402344 186.523438 200.464844 C 186.859375 200.53125 187.210938 200.628906 187.574219 200.757812 Z M 187.574219 200.757812 "/>
<g clip-path="url(#clip4)" clip-rule="nonzero">
<path style="fill:none;stroke-width:0.8;stroke-linecap:square;stroke-linejoin:round;stroke:rgb(69.01961%,69.01961%,69.01961%);stroke-opacity:1;stroke-miterlimit:4;" d="M 182.003906 143.100586 L 182.003906 7.201172 " transform="matrix(1.333333,0,0,1.333333,0.000000000000028422,0)"/>
</g>
<path style="fill:none;stroke-width:0.8;stroke-linecap:butt;stroke-linejoin:round;stroke:rgb(0%,0%,0%);stroke-opacity:1;stroke-miterlimit:4;" d="M 0.000778198 0.000579834 L 0.000778198 3.498627 " transform="matrix(1.333333,0,0,1.333333,242.670837,190.800008)"/>
<path style=" stroke:none;fill-rule:nonzero;fill:rgb(0%,0%,0%);fill-opacity:1;" d="M 242.667969 205.648438 C 242.042969 205.648438 241.550781 205.816406 241.191406 206.148438 C 240.835938 206.484375 240.65625 206.945312 240.65625 207.527344 C 240.65625 208.117188 240.835938 208.574219 241.191406 208.910156 C 241.550781 209.246094 242.042969 209.414062 242.667969 209.414062 C 243.292969 209.414062 243.785156 209.246094 244.144531 208.910156 C 244.503906 208.570312 244.683594 208.109375 244.683594 207.527344 C 244.683594 206.945312 244.507812 206.484375 244.148438 206.148438 C 243.789062 205.816406 243.296875 205.648438 242.667969 205.648438 Z M 241.351562 205.089844 C 240.789062 204.949219 240.347656 204.6875 240.035156 204.300781 C 239.71875 203.914062 239.5625 203.441406 239.5625 202.886719 C 239.5625 202.109375 239.839844 201.496094 240.390625 201.046875 C 240.945312 200.59375 241.703125 200.367188 242.667969 200.367188 C 243.632812 200.367188 244.394531 200.59375 244.945312 201.046875 C 245.496094 201.496094 245.773438 202.109375 245.773438 202.886719 C 245.773438 203.441406 245.617188 203.914062 245.300781 204.300781 C 244.984375 204.6875 244.550781 204.949219 243.988281 205.089844 C 244.621094 205.238281 245.117188 205.527344 245.46875 205.957031 C 245.824219 206.386719 246 206.910156 246 207.527344 C 246 208.472656 245.710938 209.195312 245.136719 209.699219 C 244.5625 210.203125 243.738281 210.453125 242.667969 210.453125 C 241.597656 210.453125 240.773438 210.203125 240.195312 209.699219 C 239.621094 209.195312 239.332031 208.472656 239.332031 207.527344 C 239.332031 206.910156 239.511719 206.386719 239.867188 205.957031 C 240.222656 205.527344 240.71875 205.238281 241.351562 205.089844 Z M 240.871094 203.011719 C 240.871094 203.515625 241.027344 203.90625 241.339844 204.191406 C 241.65625 204.472656 242.097656 204.613281 242.667969 204.613281 C 243.230469 204.613281 243.671875 204.472656 243.992188 204.191406 C 244.3125 203.90625 244.472656 203.515625 244.472656 203.011719 C 244.472656 202.507812 244.3125 202.117188 243.992188 201.832031 C 243.671875 201.550781 243.230469 201.410156 242.667969 201.410156 C 242.097656 201.410156 241.65625 201.550781 241.339844 201.832031 C 241.027344 202.117188 240.871094 202.507812 240.871094 203.011719 Z M 240.871094 203.011719 "/>
<g clip-path="url(#clip5)" clip-rule="nonzero">
<path style="fill:none;stroke-width:0.8;stroke-linecap:square;stroke-linejoin:round;stroke:rgb(69.01961%,69.01961%,69.01961%);stroke-opacity:1;stroke-miterlimit:4;" d="M 225.404297 143.100586 L 225.404297 7.201172 " transform="matrix(1.333333,0,0,1.333333,0.000000000000028422,0)"/>
</g>
<path style="fill:none;stroke-width:0.8;stroke-linecap:butt;stroke-linejoin:round;stroke:rgb(0%,0%,0%);stroke-opacity:1;stroke-miterlimit:4;" d="M 0.00117493 0.000579834 L 0.00117493 3.498627 " transform="matrix(1.333333,0,0,1.333333,300.537496,190.800008)"/>
<path style=" stroke:none;fill-rule:nonzero;fill:rgb(0%,0%,0%);fill-opacity:1;" d="M 293.707031 209.160156 L 295.855469 209.160156 L 295.855469 201.742188 L 293.519531 202.210938 L 293.519531 201.011719 L 295.84375 200.542969 L 297.160156 200.542969 L 297.160156 209.160156 L 299.304688 209.160156 L 299.304688 210.265625 L 293.707031 210.265625 Z M 293.707031 209.160156 "/>
<path style=" stroke:none;fill-rule:nonzero;fill:rgb(0%,0%,0%);fill-opacity:1;" d="M 304.773438 201.410156 C 304.097656 201.410156 303.589844 201.742188 303.246094 202.410156 C 302.90625 203.074219 302.738281 204.078125 302.738281 205.414062 C 302.738281 206.746094 302.90625 207.746094 303.246094 208.414062 C 303.589844 209.078125 304.097656 209.414062 304.773438 209.414062 C 305.457031 209.414062 305.96875 209.078125 306.308594 208.414062 C 306.648438 207.746094 306.820312 206.746094 306.820312 205.414062 C 306.820312 204.078125 306.648438 203.074219 306.308594 202.410156 C 305.96875 201.742188 305.457031 201.410156 304.773438 201.410156 Z M 304.773438 200.367188 C 305.863281 200.367188 306.699219 200.800781 307.273438 201.664062 C 307.847656 202.523438 308.136719 203.773438 308.136719 205.414062 C 308.136719 207.050781 307.847656 208.300781 307.273438 209.164062 C 306.699219 210.023438 305.863281 210.453125 304.773438 210.453125 C 303.6875 210.453125 302.855469 210.023438 302.277344 209.164062 C 301.703125 208.300781 301.417969 207.050781 301.417969 205.414062 C 301.417969 203.773438 301.703125 202.523438 302.277344 201.664062 C 302.855469 200.800781 303.6875 200.367188 304.773438 200.367188 Z M 304.773438 200.367188 "/>
<path style=" stroke:none;fill-rule:nonzero;fill:rgb(0%,0%,0%);fill-opacity:1;" d="M 157.527344 224.554688 L 157.527344 225.140625 L 152.019531 225.140625 C 152.070312 225.964844 152.320312 226.59375 152.765625 227.027344 C 153.210938 227.460938 153.828125 227.675781 154.621094 227.675781 C 155.082031 227.675781 155.527344 227.617188 155.960938 227.507812 C 156.390625 227.394531 156.820312 227.222656 157.246094 226.996094 L 157.246094 228.132812 C 156.816406 228.3125 156.375 228.453125 155.925781 228.546875 C 155.472656 228.644531 155.015625 228.691406 154.550781 228.691406 C 153.386719 228.691406 152.464844 228.351562 151.789062 227.675781 C 151.109375 227 150.769531 226.082031 150.769531 224.925781 C 150.769531 223.734375 151.089844 222.789062 151.734375 222.085938 C 152.378906 221.386719 153.25 221.035156 154.34375 221.035156 C 155.324219 221.035156 156.101562 221.351562 156.671875 221.984375 C 157.242188 222.613281 157.527344 223.472656 157.527344 224.554688 Z M 156.328125 224.203125 C 156.320312 223.550781 156.136719 223.027344 155.777344 222.636719 C 155.421875 222.246094 154.945312 222.050781 154.355469 222.050781 C 153.6875 222.050781 153.152344 222.238281 152.753906 222.617188 C 152.351562 222.996094 152.121094 223.527344 152.058594 224.210938 Z M 156.328125 224.203125 "/>
<path style=" stroke:none;fill-rule:nonzero;fill:rgb(0%,0%,0%);fill-opacity:1;" d="M 160.652344 227.410156 L 160.652344 231.273438 L 159.445312 231.273438 L 159.445312 221.210938 L 160.652344 221.210938 L 160.652344 222.316406 C 160.902344 221.882812 161.222656 221.5625 161.605469 221.351562 C 161.988281 221.140625 162.449219 221.035156 162.980469 221.035156 C 163.867188 221.035156 164.585938 221.386719 165.140625 222.089844 C 165.695312 222.792969 165.972656 223.714844 165.972656 224.863281 C 165.972656 226.007812 165.695312 226.933594 165.140625 227.636719 C 164.585938 228.339844 163.867188 228.691406 162.980469 228.691406 C 162.449219 228.691406 161.988281 228.585938 161.605469 228.375 C 161.222656 228.164062 160.902344 227.839844 160.652344 227.410156 Z M 164.726562 224.863281 C 164.726562 223.980469 164.546875 223.289062 164.183594 222.789062 C 163.820312 222.289062 163.324219 222.039062 162.691406 222.039062 C 162.054688 222.039062 161.558594 222.289062 161.195312 222.789062 C 160.832031 223.289062 160.652344 223.980469 160.652344 224.863281 C 160.652344 225.742188 160.832031 226.433594 161.195312 226.933594 C 161.558594 227.4375 162.054688 227.6875 162.691406 227.6875 C 163.324219 227.6875 163.820312 227.4375 164.183594 226.933594 C 164.546875 226.433594 164.726562 225.742188 164.726562 224.863281 Z M 164.726562 224.863281 "/>
<path style=" stroke:none;fill-rule:nonzero;fill:rgb(0%,0%,0%);fill-opacity:1;" d="M 170.78125 222.050781 C 170.140625 222.050781 169.632812 222.300781 169.257812 222.800781 C 168.882812 223.304688 168.699219 223.992188 168.699219 224.863281 C 168.699219 225.734375 168.882812 226.421875 169.253906 226.921875 C 169.625 227.425781 170.136719 227.675781 170.78125 227.675781 C 171.421875 227.675781 171.925781 227.421875 172.296875 226.921875 C 172.671875 226.417969 172.859375 225.730469 172.859375 224.863281 C 172.859375 224 172.671875 223.3125 172.296875 222.808594 C 171.925781 222.304688 171.421875 222.050781 170.78125 222.050781 Z M 170.78125 221.035156 C 171.824219 221.035156 172.640625 221.375 173.234375 222.050781 C 173.832031 222.726562 174.128906 223.664062 174.128906 224.863281 C 174.128906 226.054688 173.832031 226.992188 173.234375 227.671875 C 172.640625 228.351562 171.824219 228.691406 170.78125 228.691406 C 169.734375 228.691406 168.914062 228.351562 168.324219 227.671875 C 167.730469 226.992188 167.433594 226.054688 167.433594 224.863281 C 167.433594 223.664062 167.730469 222.726562 168.324219 222.050781 C 168.914062 221.375 169.734375 221.035156 170.78125 221.035156 Z M 170.78125 221.035156 "/>
<path style=" stroke:none;fill-rule:nonzero;fill:rgb(0%,0%,0%);fill-opacity:1;" d="M 181.363281 221.488281 L 181.363281 222.609375 C 181.023438 222.421875 180.683594 222.28125 180.34375 222.191406 C 180.003906 222.097656 179.660156 222.050781 179.3125 222.050781 C 178.535156 222.050781 177.929688 222.296875 177.5 222.789062 C 177.070312 223.28125 176.855469 223.972656 176.855469 224.863281 C 176.855469 225.753906 177.070312 226.445312 177.5 226.9375 C 177.929688 227.429688 178.535156 227.675781 179.3125 227.675781 C 179.660156 227.675781 180.003906 227.628906 180.34375 227.535156 C 180.683594 227.441406 181.023438 227.300781 181.363281 227.113281 L 181.363281 228.222656 C 181.027344 228.378906 180.679688 228.496094 180.320312 228.574219 C 179.964844 228.652344 179.585938 228.691406 179.179688 228.691406 C 178.082031 228.691406 177.207031 228.347656 176.5625 227.65625 C 175.914062 226.964844 175.59375 226.035156 175.59375 224.863281 C 175.59375 223.671875 175.917969 222.738281 176.570312 222.058594 C 177.226562 221.375 178.121094 221.035156 179.257812 221.035156 C 179.628906 221.035156 179.988281 221.074219 180.339844 221.148438 C 180.691406 221.226562 181.03125 221.339844 181.363281 221.488281 Z M 181.363281 221.488281 "/>
<path style=" stroke:none;fill-rule:nonzero;fill:rgb(0%,0%,0%);fill-opacity:1;" d="M 189.507812 224.101562 L 189.507812 228.503906 L 188.308594 228.503906 L 188.308594 224.140625 C 188.308594 223.449219 188.175781 222.933594 187.90625 222.589844 C 187.636719 222.25 187.230469 222.078125 186.695312 222.078125 C 186.046875 222.078125 185.535156 222.285156 185.164062 222.695312 C 184.789062 223.105469 184.601562 223.667969 184.601562 224.382812 L 184.601562 228.503906 L 183.398438 228.503906 L 183.398438 218.371094 L 184.601562 218.371094 L 184.601562 222.34375 C 184.890625 221.90625 185.226562 221.578125 185.617188 221.359375 C 186.003906 221.144531 186.453125 221.035156 186.960938 221.035156 C 187.796875 221.035156 188.433594 221.292969 188.859375 221.8125 C 189.292969 222.332031 189.507812 223.09375 189.507812 224.101562 Z M 189.507812 224.101562 "/>
<g clip-path="url(#clip6)" clip-rule="nonzero">
<path style="fill:none;stroke-width:0.8;stroke-linecap:square;stroke-linejoin:round;stroke:rgb(69.01961%,69.01961%,69.01961%);stroke-opacity:1;stroke-miterlimit:4;" d="M 30.102539 118.643555 L 225.404297 118.643555 " transform="matrix(1.333333,0,0,1.333333,0.000000000000028422,0)"/>
</g>
<path style="fill:none;stroke-width:0.8;stroke-linecap:butt;stroke-linejoin:round;stroke:rgb(0%,0%,0%);stroke-opacity:1;stroke-miterlimit:4;" d="M -0.000585556 0.000999451 L -3.498632 0.000999451 " transform="matrix(1.333333,0,0,1.333333,40.137499,158.190074)"/>
<path style=" stroke:none;fill-rule:nonzero;fill:rgb(0%,0%,0%);fill-opacity:1;" d="M 13.835938 154.402344 C 13.160156 154.402344 12.652344 154.734375 12.308594 155.402344 C 11.96875 156.066406 11.800781 157.066406 11.800781 158.40625 C 11.800781 159.738281 11.96875 160.738281 12.308594 161.402344 C 12.652344 162.070312 13.160156 162.402344 13.835938 162.402344 C 14.519531 162.402344 15.03125 162.070312 15.371094 161.402344 C 15.710938 160.738281 15.882812 159.738281 15.882812 158.40625 C 15.882812 157.066406 15.710938 156.066406 15.371094 155.402344 C 15.03125 154.734375 14.519531 154.402344 13.835938 154.402344 Z M 13.835938 153.359375 C 14.929688 153.359375 15.761719 153.792969 16.335938 154.652344 C 16.910156 155.515625 17.199219 156.765625 17.199219 158.40625 C 17.199219 160.042969 16.910156 161.292969 16.335938 162.152344 C 15.761719 163.015625 14.929688 163.445312 13.835938 163.445312 C 12.75 163.445312 11.917969 163.015625 11.339844 162.152344 C 10.765625 161.292969 10.480469 160.042969 10.480469 158.40625 C 10.480469 156.765625 10.765625 155.515625 11.339844 154.652344 C 11.917969 153.792969 12.75 153.359375 13.835938 153.359375 Z M 13.835938 153.359375 "/>
<path style=" stroke:none;fill-rule:nonzero;fill:rgb(0%,0%,0%);fill-opacity:1;" d="M 19.507812 161.601562 L 20.882812 161.601562 L 20.882812 163.253906 L 19.507812 163.253906 Z M 19.507812 161.601562 "/>
<path style=" stroke:none;fill-rule:nonzero;fill:rgb(0%,0%,0%);fill-opacity:1;" d="M 27.359375 154.679688 L 24.039062 159.871094 L 27.359375 159.871094 Z M 27.015625 153.535156 L 28.667969 153.535156 L 28.667969 159.871094 L 30.058594 159.871094 L 30.058594 160.964844 L 28.667969 160.964844 L 28.667969 163.253906 L 27.359375 163.253906 L 27.359375 160.964844 L 22.972656 160.964844 L 22.972656 159.695312 Z M 27.015625 153.535156 "/>
<g clip-path="url(#clip7)" clip-rule="nonzero">
<path style="fill:none;stroke-width:0.8;stroke-linecap:square;stroke-linejoin:round;stroke:rgb(69.01961%,69.01961%,69.01961%);stroke-opacity:1;stroke-miterlimit:4;" d="M 30.102539 92.630859 L 225.404297 92.630859 " transform="matrix(1.333333,0,0,1.333333,0.000000000000028422,0)"/>
</g>
<path style="fill:none;stroke-width:0.8;stroke-linecap:butt;stroke-linejoin:round;stroke:rgb(0%,0%,0%);stroke-opacity:1;stroke-miterlimit:4;" d="M -0.000585556 0.000846863 L -3.498632 0.000846863 " transform="matrix(1.333333,0,0,1.333333,40.137499,123.506683)"/>
<path style=" stroke:none;fill-rule:nonzero;fill:rgb(0%,0%,0%);fill-opacity:1;" d="M 13.835938 119.71875 C 13.160156 119.71875 12.652344 120.050781 12.308594 120.71875 C 11.96875 121.382812 11.800781 122.386719 11.800781 123.722656 C 11.800781 125.054688 11.96875 126.054688 12.308594 126.71875 C 12.652344 127.386719 13.160156 127.71875 13.835938 127.71875 C 14.519531 127.71875 15.03125 127.386719 15.371094 126.71875 C 15.710938 126.054688 15.882812 125.054688 15.882812 123.722656 C 15.882812 122.386719 15.710938 121.382812 15.371094 120.71875 C 15.03125 120.050781 14.519531 119.71875 13.835938 119.71875 Z M 13.835938 118.675781 C 14.929688 118.675781 15.761719 119.109375 16.335938 119.96875 C 16.910156 120.832031 17.199219 122.082031 17.199219 123.722656 C 17.199219 125.359375 16.910156 126.609375 16.335938 127.46875 C 15.761719 128.332031 14.929688 128.761719 13.835938 128.761719 C 12.75 128.761719 11.917969 128.332031 11.339844 127.46875 C 10.765625 126.609375 10.480469 125.359375 10.480469 123.722656 C 10.480469 122.082031 10.765625 120.832031 11.339844 119.96875 C 11.917969 119.109375 12.75 118.675781 13.835938 118.675781 Z M 13.835938 118.675781 "/>
<path style=" stroke:none;fill-rule:nonzero;fill:rgb(0%,0%,0%);fill-opacity:1;" d="M 19.507812 126.917969 L 20.882812 126.917969 L 20.882812 128.574219 L 19.507812 128.574219 Z M 19.507812 126.917969 "/>
<path style=" stroke:none;fill-rule:nonzero;fill:rgb(0%,0%,0%);fill-opacity:1;" d="M 26.722656 123.1875 C 26.132812 123.1875 25.664062 123.390625 25.320312 123.796875 C 24.976562 124.199219 24.800781 124.75 24.800781 125.453125 C 24.800781 126.152344 24.976562 126.703125 25.320312 127.113281 C 25.664062 127.515625 26.132812 127.71875 26.722656 127.71875 C 27.3125 127.71875 27.78125 127.515625 28.125 127.113281 C 28.46875 126.703125 28.640625 126.152344 28.640625 125.453125 C 28.640625 124.75 28.46875 124.199219 28.125 123.796875 C 27.78125 123.390625 27.3125 123.1875 26.722656 123.1875 Z M 29.332031 119.066406 L 29.332031 120.265625 C 29.003906 120.109375 28.671875 119.988281 28.332031 119.90625 C 27.996094 119.824219 27.664062 119.78125 27.332031 119.78125 C 26.464844 119.78125 25.800781 120.074219 25.34375 120.660156 C 24.886719 121.246094 24.625 122.132812 24.5625 123.316406 C 24.816406 122.941406 25.136719 122.652344 25.523438 122.449219 C 25.910156 122.246094 26.335938 122.148438 26.800781 122.148438 C 27.777344 122.148438 28.546875 122.445312 29.113281 123.035156 C 29.683594 123.628906 29.964844 124.433594 29.964844 125.453125 C 29.964844 126.453125 29.671875 127.253906 29.078125 127.859375 C 28.488281 128.460938 27.703125 128.761719 26.722656 128.761719 C 25.597656 128.761719 24.738281 128.332031 24.144531 127.46875 C 23.550781 126.609375 23.253906 125.359375 23.253906 123.722656 C 23.253906 122.1875 23.617188 120.960938 24.347656 120.046875 C 25.074219 119.132812 26.054688 118.675781 27.28125 118.675781 C 27.613281 118.675781 27.945312 118.710938 28.28125 118.773438 C 28.617188 118.839844 28.96875 118.9375 29.332031 119.066406 Z M 29.332031 119.066406 "/>
<g clip-path="url(#clip8)" clip-rule="nonzero">
<path style="fill:none;stroke-width:0.8;stroke-linecap:square;stroke-linejoin:round;stroke:rgb(69.01961%,69.01961%,69.01961%);stroke-opacity:1;stroke-miterlimit:4;" d="M 30.102539 66.618164 L 225.404297 66.618164 " transform="matrix(1.333333,0,0,1.333333,0.000000000000028422,0)"/>
</g>
<path style="fill:none;stroke-width:0.8;stroke-linecap:butt;stroke-linejoin:round;stroke:rgb(0%,0%,0%);stroke-opacity:1;stroke-miterlimit:4;" d="M -0.000585556 0.000686646 L -3.498632 0.000686646 " transform="matrix(1.333333,0,0,1.333333,40.137499,88.823303)"/>
<path style=" stroke:none;fill-rule:nonzero;fill:rgb(0%,0%,0%);fill-opacity:1;" d="M 13.835938 85.035156 C 13.160156 85.035156 12.652344 85.367188 12.308594 86.035156 C 11.96875 86.699219 11.800781 87.703125 11.800781 89.039062 C 11.800781 90.371094 11.96875 91.371094 12.308594 92.035156 C 12.652344 92.703125 13.160156 93.035156 13.835938 93.035156 C 14.519531 93.035156 15.03125 92.703125 15.371094 92.035156 C 15.710938 91.371094 15.882812 90.371094 15.882812 89.039062 C 15.882812 87.703125 15.710938 86.699219 15.371094 86.035156 C 15.03125 85.367188 14.519531 85.035156 13.835938 85.035156 Z M 13.835938 83.992188 C 14.929688 83.992188 15.761719 84.425781 16.335938 85.285156 C 16.910156 86.148438 17.199219 87.398438 17.199219 89.039062 C 17.199219 90.675781 16.910156 91.925781 16.335938 92.785156 C 15.761719 93.648438 14.929688 94.078125 13.835938 94.078125 C 12.75 94.078125 11.917969 93.648438 11.339844 92.785156 C 10.765625 91.925781 10.480469 90.675781 10.480469 89.039062 C 10.480469 87.398438 10.765625 86.148438 11.339844 85.285156 C 11.917969 84.425781 12.75 83.992188 13.835938 83.992188 Z M 13.835938 83.992188 "/>
<path style=" stroke:none;fill-rule:nonzero;fill:rgb(0%,0%,0%);fill-opacity:1;" d="M 19.507812 92.234375 L 20.882812 92.234375 L 20.882812 93.890625 L 19.507812 93.890625 Z M 19.507812 92.234375 "/>
<path style=" stroke:none;fill-rule:nonzero;fill:rgb(0%,0%,0%);fill-opacity:1;" d="M 26.558594 89.273438 C 25.933594 89.273438 25.441406 89.441406 25.082031 89.773438 C 24.726562 90.109375 24.546875 90.570312 24.546875 91.152344 C 24.546875 91.738281 24.726562 92.199219 25.082031 92.535156 C 25.441406 92.871094 25.933594 93.035156 26.558594 93.035156 C 27.183594 93.035156 27.675781 92.867188 28.035156 92.53125 C 28.398438 92.195312 28.578125 91.734375 28.578125 91.152344 C 28.578125 90.570312 28.398438 90.109375 28.039062 89.773438 C 27.683594 89.441406 27.1875 89.273438 26.558594 89.273438 Z M 25.246094 88.714844 C 24.679688 88.574219 24.242188 88.3125 23.925781 87.925781 C 23.613281 87.539062 23.453125 87.066406 23.453125 86.511719 C 23.453125 85.734375 23.730469 85.121094 24.285156 84.671875 C 24.839844 84.21875 25.597656 83.992188 26.558594 83.992188 C 27.527344 83.992188 28.285156 84.21875 28.839844 84.671875 C 29.390625 85.121094 29.664062 85.734375 29.664062 86.511719 C 29.664062 87.066406 29.507812 87.539062 29.191406 87.925781 C 28.878906 88.3125 28.441406 88.574219 27.882812 88.714844 C 28.515625 88.859375 29.007812 89.148438 29.359375 89.582031 C 29.714844 90.007812 29.890625 90.535156 29.890625 91.152344 C 29.890625 92.097656 29.605469 92.820312 29.03125 93.324219 C 28.453125 93.828125 27.632812 94.078125 26.558594 94.078125 C 25.488281 94.078125 24.664062 93.828125 24.089844 93.324219 C 23.511719 92.820312 23.226562 92.097656 23.226562 91.152344 C 23.226562 90.535156 23.402344 90.007812 23.757812 89.582031 C 24.117188 89.148438 24.609375 88.859375 25.246094 88.714844 Z M 24.761719 86.636719 C 24.761719 87.140625 24.921875 87.53125 25.234375 87.8125 C 25.550781 88.097656 25.992188 88.238281 26.558594 88.238281 C 27.125 88.238281 27.566406 88.097656 27.882812 87.8125 C 28.203125 87.53125 28.363281 87.140625 28.363281 86.636719 C 28.363281 86.132812 28.203125 85.738281 27.882812 85.457031 C 27.566406 85.175781 27.125 85.035156 26.558594 85.035156 C 25.992188 85.035156 25.550781 85.175781 25.234375 85.457031 C 24.921875 85.738281 24.761719 86.132812 24.761719 86.636719 Z M 24.761719 86.636719 "/>
<g clip-path="url(#clip9)" clip-rule="nonzero">
<path style="fill:none;stroke-width:0.8;stroke-linecap:square;stroke-linejoin:round;stroke:rgb(69.01961%,69.01961%,69.01961%);stroke-opacity:1;stroke-miterlimit:4;" d="M 30.102539 40.605469 L 225.404297 40.605469 " transform="matrix(1.333333,0,0,1.333333,0.000000000000028422,0)"/>
</g>
<path style="fill:none;stroke-width:0.8;stroke-linecap:butt;stroke-linejoin:round;stroke:rgb(0%,0%,0%);stroke-opacity:1;stroke-miterlimit:4;" d="M -0.000585556 0.000534058 L -3.498632 0.000534058 " transform="matrix(1.333333,0,0,1.333333,40.137499,54.139913)"/>
<path style=" stroke:none;fill-rule:nonzero;fill:rgb(0%,0%,0%);fill-opacity:1;" d="M 11.253906 58.097656 L 13.402344 58.097656 L 13.402344 50.683594 L 11.066406 51.152344 L 11.066406 49.953125 L 13.390625 49.484375 L 14.703125 49.484375 L 14.703125 58.097656 L 16.851562 58.097656 L 16.851562 59.207031 L 11.253906 59.207031 Z M 11.253906 58.097656 "/>
<path style=" stroke:none;fill-rule:nonzero;fill:rgb(0%,0%,0%);fill-opacity:1;" d="M 19.507812 57.550781 L 20.882812 57.550781 L 20.882812 59.207031 L 19.507812 59.207031 Z M 19.507812 57.550781 "/>
<path style=" stroke:none;fill-rule:nonzero;fill:rgb(0%,0%,0%);fill-opacity:1;" d="M 26.558594 50.351562 C 25.882812 50.351562 25.375 50.683594 25.03125 51.351562 C 24.691406 52.015625 24.519531 53.019531 24.519531 54.355469 C 24.519531 55.6875 24.691406 56.6875 25.03125 57.351562 C 25.375 58.019531 25.882812 58.351562 26.558594 58.351562 C 27.242188 58.351562 27.75 58.019531 28.09375 57.351562 C 28.433594 56.6875 28.605469 55.6875 28.605469 54.355469 C 28.605469 53.019531 28.433594 52.015625 28.09375 51.351562 C 27.75 50.683594 27.242188 50.351562 26.558594 50.351562 Z M 26.558594 49.308594 C 27.648438 49.308594 28.480469 49.742188 29.058594 50.601562 C 29.632812 51.464844 29.917969 52.714844 29.917969 54.355469 C 29.917969 55.992188 29.632812 57.242188 29.058594 58.101562 C 28.480469 58.964844 27.648438 59.394531 26.558594 59.394531 C 25.46875 59.394531 24.636719 58.964844 24.0625 58.101562 C 23.488281 57.242188 23.199219 55.992188 23.199219 54.355469 C 23.199219 52.714844 23.488281 51.464844 24.0625 50.601562 C 24.636719 49.742188 25.46875 49.308594 26.558594 49.308594 Z M 26.558594 49.308594 "/>
<g clip-path="url(#clip10)" clip-rule="nonzero">
<path style="fill:none;stroke-width:0.8;stroke-linecap:square;stroke-linejoin:round;stroke:rgb(69.01961%,69.01961%,69.01961%);stroke-opacity:1;stroke-miterlimit:4;" d="M 30.102539 14.592773 L 225.404297 14.592773 " transform="matrix(1.333333,0,0,1.333333,0.000000000000028422,0)"/>
</g>
<path style="fill:none;stroke-width:0.8;stroke-linecap:butt;stroke-linejoin:round;stroke:rgb(0%,0%,0%);stroke-opacity:1;stroke-miterlimit:4;" d="M -0.000585556 0.000380516 L -3.498632 0.000380516 " transform="matrix(1.333333,0,0,1.333333,40.137499,19.456524)"/>
<path style=" stroke:none;fill-rule:nonzero;fill:rgb(0%,0%,0%);fill-opacity:1;" d="M 11.253906 23.414062 L 13.402344 23.414062 L 13.402344 16 L 11.066406 16.46875 L 11.066406 15.269531 L 13.390625 14.800781 L 14.703125 14.800781 L 14.703125 23.414062 L 16.851562 23.414062 L 16.851562 24.523438 L 11.253906 24.523438 Z M 11.253906 23.414062 "/>
<path style=" stroke:none;fill-rule:nonzero;fill:rgb(0%,0%,0%);fill-opacity:1;" d="M 19.507812 22.867188 L 20.882812 22.867188 L 20.882812 24.523438 L 19.507812 24.523438 Z M 19.507812 22.867188 "/>
<path style=" stroke:none;fill-rule:nonzero;fill:rgb(0%,0%,0%);fill-opacity:1;" d="M 24.878906 23.414062 L 29.46875 23.414062 L 29.46875 24.523438 L 23.296875 24.523438 L 23.296875 23.414062 C 23.796875 22.898438 24.476562 22.207031 25.339844 21.335938 C 26.199219 20.464844 26.742188 19.902344 26.964844 19.652344 C 27.382812 19.179688 27.675781 18.777344 27.84375 18.453125 C 28.011719 18.125 28.097656 17.800781 28.097656 17.484375 C 28.097656 16.96875 27.914062 16.546875 27.550781 16.222656 C 27.191406 15.894531 26.71875 15.734375 26.136719 15.734375 C 25.722656 15.734375 25.289062 15.804688 24.828125 15.945312 C 24.371094 16.089844 23.882812 16.308594 23.363281 16.597656 L 23.363281 15.269531 C 23.890625 15.058594 24.386719 14.898438 24.847656 14.789062 C 25.308594 14.679688 25.730469 14.625 26.109375 14.625 C 27.117188 14.625 27.921875 14.878906 28.519531 15.382812 C 29.117188 15.886719 29.417969 16.558594 29.417969 17.398438 C 29.417969 17.800781 29.34375 18.179688 29.191406 18.535156 C 29.042969 18.894531 28.769531 19.316406 28.375 19.800781 C 28.265625 19.925781 27.921875 20.292969 27.339844 20.894531 C 26.757812 21.496094 25.9375 22.335938 24.878906 23.414062 Z M 24.878906 23.414062 "/>
<g clip-path="url(#clip11)" clip-rule="nonzero">
<path style="fill:none;stroke-width:1.5;stroke-linecap:square;stroke-linejoin:round;stroke:rgb(12.156863%,46.666667%,70.588237%);stroke-opacity:1;stroke-miterlimit:4;" d="M 12.744141 13.376953 L 17.083008 44.381836 L 21.421875 59.698242 L 25.763672 68.033203 L 30.102539 74.443359 L 34.444336 103.239258 L 38.783203 106.696289 L 43.12207 107.929688 L 47.463867 109.306641 L 51.802734 110.232422 L 56.144531 117.483398 L 60.483398 116.821289 L 64.822266 116.393555 L 69.164062 117.65332 L 73.50293 118.441406 L 77.841797 124.268555 L 82.183594 122.542969 L 86.522461 122.663086 L 90.864258 123.123047 L 95.203125 123.541992 L 99.541992 125.449219 L 103.883789 125.727539 L 108.222656 126.451172 L 112.564453 127.037109 L 116.90332 127.318359 L 121.242187 127.87793 L 125.583984 129.375 L 129.922852 130.163086 L 134.261719 130.019531 L 138.603516 130.03418 L 142.942383 130.87793 L 147.28418 131.666016 L 151.623047 131.132812 L 155.961914 131.654297 L 160.303711 131.923828 L 164.642578 131.469727 L 168.984375 132.459961 L 173.323242 132.544922 L 177.662109 132.864258 L 182.003906 133.31543 L 186.342773 134.956055 L 190.68457 135.219727 L 195.023437 135.134766 L 199.362305 135.295898 L 203.704102 134.900391 L 208.042969 136.921875 L 212.381836 136.552734 L 216.723633 135.887695 L 221.0625 136.066406 L 225.404297 135.987305 " transform="matrix(1.333333,0,0,1.333333,0.000000000000028422,0)"/>
</g>
<g clip-path="url(#clip12)" clip-rule="nonzero">
<path style="fill:none;stroke-width:1.5;stroke-linecap:butt;stroke-linejoin:round;stroke:rgb(74.901962%,0%,74.901962%);stroke-opacity:1;stroke-dasharray:5.55,2.4;stroke-miterlimit:4;" d="M 12.744141 95.648438 L 17.083008 85.751953 L 21.421875 80.557617 L 25.763672 77.657227 L 30.102539 75.483398 L 34.444336 65.165039 L 38.783203 63.776367 L 43.12207 63.445312 L 47.463867 62.958984 L 51.802734 62.569336 L 56.144531 59.803711 L 60.483398 60.149414 L 64.822266 60.287109 L 69.164062 59.856445 L 73.50293 59.542969 L 77.841797 57.436523 L 82.183594 58.236328 L 86.522461 58.242188 L 90.864258 57.999023 L 95.203125 57.84375 L 99.541992 57.208008 L 103.883789 57.067383 L 108.222656 56.677734 L 112.564453 56.493164 L 116.90332 56.460938 L 121.242187 56.463867 L 125.583984 55.916016 L 129.922852 55.491211 L 134.261719 55.558594 L 138.603516 55.59668 L 142.942383 55.87793 L 147.28418 55.353516 L 151.623047 55.3125 L 155.961914 55.054688 L 160.303711 54.987305 L 164.642578 55.045898 L 168.984375 54.694336 L 173.323242 54.606445 L 177.662109 54.585938 L 182.003906 54.424805 L 186.342773 53.478516 L 190.68457 53.759766 L 195.023437 53.768555 L 199.362305 53.674805 L 203.704102 53.885742 L 208.042969 52.819336 L 212.381836 52.959961 L 216.723633 53.229492 L 221.0625 53.302734 L 225.404297 53.402344 " transform="matrix(1.333333,0,0,1.333333,0.000000000000028422,0)"/>
</g>
<g clip-path="url(#clip13)" clip-rule="nonzero">
<path style="fill:none;stroke-width:1.5;stroke-linecap:butt;stroke-linejoin:round;stroke:rgb(0%,50.196081%,0%);stroke-opacity:1;stroke-dasharray:9.6,2.4,1.5,2.4;stroke-miterlimit:4;" d="M 30.102539 75.773438 L 51.802734 63.041016 L 73.50293 81.887695 L 95.203125 62.443359 L 116.90332 65.094727 L 138.603516 56.018555 L 160.303711 67.529297 L 182.003906 67.892578 L 203.704102 60.023438 L 225.404297 78.621094 " transform="matrix(1.333333,0,0,1.333333,0.000000000000028422,0)"/>
</g>
<path style="fill:none;stroke-width:0.8;stroke-linecap:square;stroke-linejoin:miter;stroke:rgb(0%,0%,0%);stroke-opacity:1;stroke-miterlimit:4;" d="M 30.102539 143.100586 L 30.102539 7.201172 " transform="matrix(1.333333,0,0,1.333333,0.000000000000028422,0)"/>
<path style="fill:none;stroke-width:0.8;stroke-linecap:square;stroke-linejoin:miter;stroke:rgb(0%,0%,0%);stroke-opacity:1;stroke-miterlimit:4;" d="M 225.404297 143.100586 L 225.404297 7.201172 " transform="matrix(1.333333,0,0,1.333333,0.000000000000028422,0)"/>
<path style="fill:none;stroke-width:0.8;stroke-linecap:square;stroke-linejoin:miter;stroke:rgb(0%,0%,0%);stroke-opacity:1;stroke-miterlimit:4;" d="M 30.102539 143.100586 L 225.404297 143.100586 " transform="matrix(1.333333,0,0,1.333333,0.000000000000028422,0)"/>
<path style="fill:none;stroke-width:0.8;stroke-linecap:square;stroke-linejoin:miter;stroke:rgb(0%,0%,0%);stroke-opacity:1;stroke-miterlimit:4;" d="M 30.102539 7.201172 L 225.404297 7.201172 " transform="matrix(1.333333,0,0,1.333333,0.000000000000028422,0)"/>
<use xlink:href="#surface5" mask="url(#mask0)"/>
<path style="fill:none;stroke-width:1.5;stroke-linecap:square;stroke-linejoin:round;stroke:rgb(12.156863%,46.666667%,70.588237%);stroke-opacity:1;stroke-miterlimit:4;" d="M 39.102539 20.299805 L 59.103516 20.299805 " transform="matrix(1.333333,0,0,1.333333,0.000000000000028422,0)"/>
<path style=" stroke:none;fill-rule:nonzero;fill:rgb(0%,0%,0%);fill-opacity:1;" d="M 91.914062 22.367188 L 91.914062 24.441406 L 94.378906 24.441406 L 94.378906 25.371094 L 91.914062 25.371094 L 91.914062 29.328125 C 91.914062 29.921875 91.992188 30.304688 92.15625 30.476562 C 92.320312 30.644531 92.648438 30.730469 93.148438 30.730469 L 94.378906 30.730469 L 94.378906 31.730469 L 93.148438 31.730469 C 92.226562 31.730469 91.585938 31.558594 91.234375 31.214844 C 90.882812 30.867188 90.707031 30.242188 90.707031 29.328125 L 90.707031 25.371094 L 89.828125 25.371094 L 89.828125 24.441406 L 90.707031 24.441406 L 90.707031 22.367188 Z M 91.914062 22.367188 "/>
<path style=" stroke:none;fill-rule:nonzero;fill:rgb(0%,0%,0%);fill-opacity:1;" d="M 100.179688 25.558594 C 100.046875 25.480469 99.898438 25.421875 99.742188 25.386719 C 99.582031 25.351562 99.40625 25.332031 99.21875 25.332031 C 98.539062 25.332031 98.019531 25.550781 97.65625 25.992188 C 97.292969 26.433594 97.113281 27.066406 97.113281 27.890625 L 97.113281 31.730469 L 95.910156 31.730469 L 95.910156 24.441406 L 97.113281 24.441406 L 97.113281 25.574219 C 97.367188 25.128906 97.695312 24.800781 98.097656 24.585938 C 98.5 24.371094 98.992188 24.265625 99.570312 24.265625 C 99.652344 24.265625 99.742188 24.269531 99.84375 24.28125 C 99.941406 24.289062 100.054688 24.308594 100.171875 24.328125 Z M 100.179688 25.558594 "/>
<path style=" stroke:none;fill-rule:nonzero;fill:rgb(0%,0%,0%);fill-opacity:1;" d="M 104.75 28.066406 C 103.785156 28.066406 103.113281 28.175781 102.738281 28.398438 C 102.363281 28.617188 102.179688 28.996094 102.179688 29.53125 C 102.179688 29.957031 102.320312 30.292969 102.597656 30.542969 C 102.878906 30.792969 103.261719 30.917969 103.742188 30.917969 C 104.40625 30.917969 104.941406 30.679688 105.339844 30.210938 C 105.742188 29.738281 105.941406 29.113281 105.941406 28.332031 L 105.941406 28.066406 Z M 107.140625 27.570312 L 107.140625 31.730469 L 105.941406 31.730469 L 105.941406 30.625 C 105.667969 31.066406 105.328125 31.394531 104.921875 31.605469 C 104.511719 31.816406 104.011719 31.921875 103.421875 31.921875 C 102.675781 31.921875 102.082031 31.710938 101.640625 31.292969 C 101.199219 30.871094 100.980469 30.3125 100.980469 29.609375 C 100.980469 28.789062 101.253906 28.171875 101.804688 27.753906 C 102.351562 27.335938 103.171875 27.128906 104.261719 27.128906 L 105.941406 27.128906 L 105.941406 27.011719 C 105.941406 26.460938 105.761719 26.03125 105.398438 25.730469 C 105.035156 25.429688 104.527344 25.277344 103.871094 25.277344 C 103.457031 25.277344 103.050781 25.328125 102.652344 25.429688 C 102.257812 25.527344 101.878906 25.679688 101.515625 25.878906 L 101.515625 24.769531 C 101.953125 24.601562 102.378906 24.476562 102.789062 24.390625 C 103.203125 24.308594 103.605469 24.265625 103.996094 24.265625 C 105.050781 24.265625 105.839844 24.539062 106.359375 25.085938 C 106.878906 25.632812 107.140625 26.460938 107.140625 27.570312 Z M 107.140625 27.570312 "/>
<path style=" stroke:none;fill-rule:nonzero;fill:rgb(0%,0%,0%);fill-opacity:1;" d="M 109.605469 24.441406 L 110.804688 24.441406 L 110.804688 31.730469 L 109.605469 31.730469 Z M 109.605469 21.601562 L 110.804688 21.601562 L 110.804688 23.117188 L 109.605469 23.117188 Z M 109.605469 21.601562 "/>
<path style=" stroke:none;fill-rule:nonzero;fill:rgb(0%,0%,0%);fill-opacity:1;" d="M 119.375 27.328125 L 119.375 31.730469 L 118.175781 31.730469 L 118.175781 27.367188 C 118.175781 26.679688 118.042969 26.164062 117.773438 25.820312 C 117.503906 25.476562 117.097656 25.304688 116.5625 25.304688 C 115.914062 25.304688 115.402344 25.511719 115.03125 25.925781 C 114.65625 26.335938 114.46875 26.898438 114.46875 27.609375 L 114.46875 31.730469 L 113.265625 31.730469 L 113.265625 24.441406 L 114.46875 24.441406 L 114.46875 25.574219 C 114.757812 25.132812 115.09375 24.804688 115.484375 24.589844 C 115.871094 24.371094 116.320312 24.265625 116.828125 24.265625 C 117.664062 24.265625 118.300781 24.523438 118.726562 25.042969 C 119.160156 25.558594 119.375 26.320312 119.375 27.328125 Z M 119.375 27.328125 "/>
<path style=" stroke:none;fill-rule:nonzero;fill:rgb(0%,0%,0%);fill-opacity:1;" d="M 126 21.601562 L 127.199219 21.601562 L 127.199219 31.730469 L 126 31.730469 Z M 126 21.601562 "/>
<path style=" stroke:none;fill-rule:nonzero;fill:rgb(0%,0%,0%);fill-opacity:1;" d="M 132.53125 25.277344 C 131.886719 25.277344 131.378906 25.53125 131.007812 26.03125 C 130.632812 26.53125 130.445312 27.21875 130.445312 28.089844 C 130.445312 28.964844 130.632812 29.652344 131.003906 30.152344 C 131.375 30.652344 131.882812 30.902344 132.53125 30.902344 C 133.167969 30.902344 133.675781 30.652344 134.046875 30.148438 C 134.421875 29.644531 134.605469 28.960938 134.605469 28.089844 C 134.605469 27.226562 134.421875 26.542969 134.046875 26.039062 C 133.675781 25.53125 133.167969 25.277344 132.53125 25.277344 Z M 132.53125 24.265625 C 133.570312 24.265625 134.390625 24.601562 134.984375 25.28125 C 135.578125 25.957031 135.878906 26.894531 135.878906 28.089844 C 135.878906 29.285156 135.578125 30.222656 134.984375 30.902344 C 134.390625 31.582031 133.570312 31.921875 132.53125 31.921875 C 131.484375 31.921875 130.664062 31.582031 130.070312 30.902344 C 129.480469 30.222656 129.183594 29.285156 129.183594 28.089844 C 129.183594 26.894531 129.480469 25.957031 130.070312 25.28125 C 130.664062 24.601562 131.484375 24.265625 132.53125 24.265625 Z M 132.53125 24.265625 "/>
<path style=" stroke:none;fill-rule:nonzero;fill:rgb(0%,0%,0%);fill-opacity:1;" d="M 142.511719 24.652344 L 142.511719 25.789062 C 142.171875 25.613281 141.820312 25.484375 141.457031 25.398438 C 141.09375 25.308594 140.714844 25.265625 140.324219 25.265625 C 139.726562 25.265625 139.28125 25.359375 138.984375 25.539062 C 138.6875 25.722656 138.539062 25.996094 138.539062 26.359375 C 138.539062 26.636719 138.644531 26.855469 138.859375 27.015625 C 139.070312 27.171875 139.5 27.324219 140.140625 27.464844 L 140.550781 27.558594 C 141.402344 27.742188 142.007812 27.996094 142.363281 28.328125 C 142.722656 28.660156 142.902344 29.125 142.902344 29.71875 C 142.902344 30.398438 142.632812 30.933594 142.097656 31.328125 C 141.5625 31.722656 140.824219 31.921875 139.886719 31.921875 C 139.496094 31.921875 139.089844 31.882812 138.667969 31.804688 C 138.242188 31.730469 137.796875 31.617188 137.328125 31.464844 L 137.328125 30.226562 C 137.773438 30.457031 138.207031 30.628906 138.636719 30.746094 C 139.066406 30.859375 139.492188 30.917969 139.914062 30.917969 C 140.476562 30.917969 140.910156 30.820312 141.214844 30.628906 C 141.519531 30.433594 141.671875 30.160156 141.671875 29.808594 C 141.671875 29.484375 141.5625 29.234375 141.339844 29.0625 C 141.125 28.890625 140.644531 28.722656 139.898438 28.558594 L 139.484375 28.460938 C 138.742188 28.308594 138.207031 28.066406 137.875 27.742188 C 137.546875 27.421875 137.382812 26.976562 137.382812 26.414062 C 137.382812 25.726562 137.625 25.195312 138.109375 24.824219 C 138.597656 24.453125 139.285156 24.265625 140.179688 24.265625 C 140.621094 24.265625 141.039062 24.296875 141.429688 24.363281 C 141.820312 24.425781 142.179688 24.523438 142.511719 24.652344 Z M 142.511719 24.652344 "/>
<path style=" stroke:none;fill-rule:nonzero;fill:rgb(0%,0%,0%);fill-opacity:1;" d="M 149.457031 24.652344 L 149.457031 25.789062 C 149.121094 25.613281 148.769531 25.484375 148.402344 25.398438 C 148.039062 25.308594 147.660156 25.265625 147.269531 25.265625 C 146.675781 25.265625 146.230469 25.359375 145.933594 25.539062 C 145.636719 25.722656 145.484375 25.996094 145.484375 26.359375 C 145.484375 26.636719 145.59375 26.855469 145.804688 27.015625 C 146.015625 27.171875 146.445312 27.324219 147.089844 27.464844 L 147.5 27.558594 C 148.347656 27.742188 148.953125 27.996094 149.3125 28.328125 C 149.667969 28.660156 149.847656 29.125 149.847656 29.71875 C 149.847656 30.398438 149.582031 30.933594 149.042969 31.328125 C 148.507812 31.722656 147.773438 31.921875 146.835938 31.921875 C 146.445312 31.921875 146.035156 31.882812 145.613281 31.804688 C 145.191406 31.730469 144.742188 31.617188 144.277344 31.464844 L 144.277344 30.226562 C 144.71875 30.457031 145.15625 30.628906 145.585938 30.746094 C 146.011719 30.859375 146.4375 30.917969 146.859375 30.917969 C 147.425781 30.917969 147.859375 30.820312 148.160156 30.628906 C 148.464844 30.433594 148.617188 30.160156 148.617188 29.808594 C 148.617188 29.484375 148.507812 29.234375 148.289062 29.0625 C 148.070312 28.890625 147.589844 28.722656 146.847656 28.558594 L 146.429688 28.460938 C 145.6875 28.308594 145.152344 28.066406 144.820312 27.742188 C 144.492188 27.421875 144.328125 26.976562 144.328125 26.414062 C 144.328125 25.726562 144.570312 25.195312 145.058594 24.824219 C 145.542969 24.453125 146.234375 24.265625 147.128906 24.265625 C 147.570312 24.265625 147.984375 24.296875 148.375 24.363281 C 148.765625 24.425781 149.128906 24.523438 149.457031 24.652344 Z M 149.457031 24.652344 "/>
<path style="fill:none;stroke-width:1.5;stroke-linecap:butt;stroke-linejoin:round;stroke:rgb(74.901962%,0%,74.901962%);stroke-opacity:1;stroke-dasharray:5.55,2.4;stroke-miterlimit:4;" d="M 39.102539 34.977539 L 59.103516 34.977539 " transform="matrix(1.333333,0,0,1.333333,0.000000000000028422,0)"/>
<path style=" stroke:none;fill-rule:nonzero;fill:rgb(0%,0%,0%);fill-opacity:1;" d="M 91.914062 41.941406 L 91.914062 44.011719 L 94.378906 44.011719 L 94.378906 44.941406 L 91.914062 44.941406 L 91.914062 48.898438 C 91.914062 49.496094 91.992188 49.875 92.15625 50.046875 C 92.320312 50.214844 92.648438 50.300781 93.148438 50.300781 L 94.378906 50.300781 L 94.378906 51.300781 L 93.148438 51.300781 C 92.226562 51.300781 91.585938 51.128906 91.234375 50.785156 C 90.882812 50.441406 90.707031 49.8125 90.707031 48.898438 L 90.707031 44.941406 L 89.828125 44.941406 L 89.828125 44.011719 L 90.707031 44.011719 L 90.707031 41.941406 Z M 91.914062 41.941406 "/>
<path style=" stroke:none;fill-rule:nonzero;fill:rgb(0%,0%,0%);fill-opacity:1;" d="M 100.179688 45.128906 C 100.046875 45.050781 99.898438 44.996094 99.742188 44.957031 C 99.582031 44.921875 99.40625 44.902344 99.21875 44.902344 C 98.539062 44.902344 98.019531 45.121094 97.65625 45.5625 C 97.292969 46.003906 97.113281 46.636719 97.113281 47.460938 L 97.113281 51.300781 L 95.910156 51.300781 L 95.910156 44.011719 L 97.113281 44.011719 L 97.113281 45.144531 C 97.367188 44.699219 97.695312 44.371094 98.097656 44.160156 C 98.5 43.941406 98.992188 43.835938 99.570312 43.835938 C 99.652344 43.835938 99.742188 43.839844 99.84375 43.851562 C 99.941406 43.863281 100.054688 43.878906 100.171875 43.898438 Z M 100.179688 45.128906 "/>
<path style=" stroke:none;fill-rule:nonzero;fill:rgb(0%,0%,0%);fill-opacity:1;" d="M 104.75 47.636719 C 103.785156 47.636719 103.113281 47.746094 102.738281 47.96875 C 102.363281 48.191406 102.179688 48.566406 102.179688 49.101562 C 102.179688 49.527344 102.320312 49.863281 102.597656 50.113281 C 102.878906 50.363281 103.261719 50.488281 103.742188 50.488281 C 104.40625 50.488281 104.941406 50.253906 105.339844 49.78125 C 105.742188 49.308594 105.941406 48.683594 105.941406 47.902344 L 105.941406 47.636719 Z M 107.140625 47.140625 L 107.140625 51.300781 L 105.941406 51.300781 L 105.941406 50.195312 C 105.667969 50.636719 105.328125 50.964844 104.921875 51.175781 C 104.511719 51.386719 104.011719 51.492188 103.421875 51.492188 C 102.675781 51.492188 102.082031 51.28125 101.640625 50.863281 C 101.199219 50.441406 100.980469 49.882812 100.980469 49.179688 C 100.980469 48.359375 101.253906 47.742188 101.804688 47.324219 C 102.351562 46.910156 103.171875 46.699219 104.261719 46.699219 L 105.941406 46.699219 L 105.941406 46.582031 C 105.941406 46.03125 105.761719 45.601562 105.398438 45.300781 C 105.035156 45 104.527344 44.851562 103.871094 44.851562 C 103.457031 44.851562 103.050781 44.898438 102.652344 45 C 102.257812 45.101562 101.878906 45.25 101.515625 45.449219 L 101.515625 44.339844 C 101.953125 44.171875 102.378906 44.046875 102.789062 43.960938 C 103.203125 43.878906 103.605469 43.835938 103.996094 43.835938 C 105.050781 43.835938 105.839844 44.109375 106.359375 44.65625 C 106.878906 45.203125 107.140625 46.03125 107.140625 47.140625 Z M 107.140625 47.140625 "/>
<path style=" stroke:none;fill-rule:nonzero;fill:rgb(0%,0%,0%);fill-opacity:1;" d="M 109.605469 44.011719 L 110.804688 44.011719 L 110.804688 51.300781 L 109.605469 51.300781 Z M 109.605469 41.171875 L 110.804688 41.171875 L 110.804688 42.691406 L 109.605469 42.691406 Z M 109.605469 41.171875 "/>
<path style=" stroke:none;fill-rule:nonzero;fill:rgb(0%,0%,0%);fill-opacity:1;" d="M 119.375 46.898438 L 119.375 51.300781 L 118.175781 51.300781 L 118.175781 46.941406 C 118.175781 46.25 118.042969 45.734375 117.773438 45.390625 C 117.503906 45.046875 117.097656 44.878906 116.5625 44.878906 C 115.914062 44.878906 115.402344 45.082031 115.03125 45.496094 C 114.65625 45.90625 114.46875 46.46875 114.46875 47.179688 L 114.46875 51.300781 L 113.265625 51.300781 L 113.265625 44.011719 L 114.46875 44.011719 L 114.46875 45.144531 C 114.757812 44.703125 115.09375 44.378906 115.484375 44.160156 C 115.871094 43.945312 116.320312 43.835938 116.828125 43.835938 C 117.664062 43.835938 118.300781 44.09375 118.726562 44.613281 C 119.160156 45.128906 119.375 45.894531 119.375 46.898438 Z M 119.375 46.898438 "/>
<path style=" stroke:none;fill-rule:nonzero;fill:rgb(0%,0%,0%);fill-opacity:1;" d="M 129.316406 47.636719 C 128.347656 47.636719 127.675781 47.746094 127.300781 47.96875 C 126.929688 48.191406 126.742188 48.566406 126.742188 49.101562 C 126.742188 49.527344 126.882812 49.863281 127.164062 50.113281 C 127.445312 50.363281 127.824219 50.488281 128.304688 50.488281 C 128.96875 50.488281 129.503906 50.253906 129.90625 49.78125 C 130.304688 49.308594 130.507812 48.683594 130.507812 47.902344 L 130.507812 47.636719 Z M 131.703125 47.140625 L 131.703125 51.300781 L 130.507812 51.300781 L 130.507812 50.195312 C 130.234375 50.636719 129.890625 50.964844 129.484375 51.175781 C 129.074219 51.386719 128.578125 51.492188 127.984375 51.492188 C 127.238281 51.492188 126.644531 51.28125 126.203125 50.863281 C 125.765625 50.441406 125.542969 49.882812 125.542969 49.179688 C 125.542969 48.359375 125.820312 47.742188 126.367188 47.324219 C 126.917969 46.910156 127.738281 46.699219 128.824219 46.699219 L 130.507812 46.699219 L 130.507812 46.582031 C 130.507812 46.03125 130.324219 45.601562 129.964844 45.300781 C 129.601562 45 129.089844 44.851562 128.4375 44.851562 C 128.019531 44.851562 127.613281 44.898438 127.21875 45 C 126.824219 45.101562 126.445312 45.25 126.078125 45.449219 L 126.078125 44.339844 C 126.515625 44.171875 126.941406 44.046875 127.355469 43.960938 C 127.765625 43.878906 128.167969 43.835938 128.558594 43.835938 C 129.613281 43.835938 130.402344 44.109375 130.921875 44.65625 C 131.445312 45.203125 131.703125 46.03125 131.703125 47.140625 Z M 131.703125 47.140625 "/>
<path style=" stroke:none;fill-rule:nonzero;fill:rgb(0%,0%,0%);fill-opacity:1;" d="M 139.417969 44.289062 L 139.417969 45.410156 C 139.082031 45.222656 138.742188 45.082031 138.398438 44.988281 C 138.058594 44.898438 137.714844 44.851562 137.367188 44.851562 C 136.589844 44.851562 135.988281 45.097656 135.554688 45.589844 C 135.128906 46.082031 134.914062 46.773438 134.914062 47.664062 C 134.914062 48.554688 135.128906 49.246094 135.554688 49.738281 C 135.988281 50.230469 136.589844 50.476562 137.367188 50.476562 C 137.714844 50.476562 138.058594 50.429688 138.398438 50.335938 C 138.742188 50.242188 139.082031 50.101562 139.417969 49.914062 L 139.417969 51.023438 C 139.085938 51.179688 138.738281 51.296875 138.378906 51.371094 C 138.023438 51.453125 137.640625 51.492188 137.238281 51.492188 C 136.140625 51.492188 135.265625 51.148438 134.617188 50.457031 C 133.972656 49.765625 133.648438 48.835938 133.648438 47.664062 C 133.648438 46.472656 133.976562 45.539062 134.628906 44.859375 C 135.285156 44.175781 136.179688 43.835938 137.316406 43.835938 C 137.683594 43.835938 138.042969 43.875 138.394531 43.949219 C 138.746094 44.023438 139.089844 44.136719 139.417969 44.289062 Z M 139.417969 44.289062 "/>
<path style=" stroke:none;fill-rule:nonzero;fill:rgb(0%,0%,0%);fill-opacity:1;" d="M 146.75 44.289062 L 146.75 45.410156 C 146.410156 45.222656 146.070312 45.082031 145.730469 44.988281 C 145.390625 44.898438 145.046875 44.851562 144.699219 44.851562 C 143.921875 44.851562 143.316406 45.097656 142.886719 45.589844 C 142.457031 46.082031 142.242188 46.773438 142.242188 47.664062 C 142.242188 48.554688 142.457031 49.246094 142.886719 49.738281 C 143.316406 50.230469 143.921875 50.476562 144.699219 50.476562 C 145.046875 50.476562 145.390625 50.429688 145.730469 50.335938 C 146.070312 50.242188 146.410156 50.101562 146.75 49.914062 L 146.75 51.023438 C 146.414062 51.179688 146.070312 51.296875 145.710938 51.371094 C 145.351562 51.453125 144.972656 51.492188 144.570312 51.492188 C 143.46875 51.492188 142.597656 51.148438 141.949219 50.457031 C 141.304688 49.765625 140.980469 48.835938 140.980469 47.664062 C 140.980469 46.472656 141.308594 45.539062 141.960938 44.859375 C 142.613281 44.175781 143.511719 43.835938 144.648438 43.835938 C 145.015625 43.835938 145.375 43.875 145.726562 43.949219 C 146.078125 44.023438 146.417969 44.136719 146.75 44.289062 Z M 146.75 44.289062 "/>
<path style="fill:none;stroke-width:1.5;stroke-linecap:butt;stroke-linejoin:round;stroke:rgb(0%,50.196081%,0%);stroke-opacity:1;stroke-dasharray:9.6,2.4,1.5,2.4;stroke-miterlimit:4;" d="M 39.102539 49.655273 L 59.103516 49.655273 " transform="matrix(1.333333,0,0,1.333333,0.000000000000028422,0)"/>
<path style=" stroke:none;fill-rule:nonzero;fill:rgb(0%,0%,0%);fill-opacity:1;" d="M 91.914062 61.511719 L 91.914062 63.582031 L 94.378906 63.582031 L 94.378906 64.511719 L 91.914062 64.511719 L 91.914062 68.472656 C 91.914062 69.066406 91.992188 69.445312 92.15625 69.617188 C 92.320312 69.785156 92.648438 69.871094 93.148438 69.871094 L 94.378906 69.871094 L 94.378906 70.871094 L 93.148438 70.871094 C 92.226562 70.871094 91.585938 70.699219 91.234375 70.355469 C 90.882812 70.011719 90.707031 69.382812 90.707031 68.472656 L 90.707031 64.511719 L 89.828125 64.511719 L 89.828125 63.582031 L 90.707031 63.582031 L 90.707031 61.511719 Z M 91.914062 61.511719 "/>
<path style=" stroke:none;fill-rule:nonzero;fill:rgb(0%,0%,0%);fill-opacity:1;" d="M 102.191406 66.925781 L 102.191406 67.511719 L 96.683594 67.511719 C 96.738281 68.335938 96.984375 68.964844 97.429688 69.398438 C 97.875 69.828125 98.492188 70.046875 99.289062 70.046875 C 99.746094 70.046875 100.195312 69.988281 100.625 69.878906 C 101.058594 69.765625 101.488281 69.59375 101.914062 69.367188 L 101.914062 70.503906 C 101.484375 70.683594 101.042969 70.824219 100.589844 70.917969 C 100.140625 71.015625 99.679688 71.0625 99.21875 71.0625 C 98.054688 71.0625 97.132812 70.722656 96.453125 70.046875 C 95.773438 69.371094 95.433594 68.453125 95.433594 67.296875 C 95.433594 66.105469 95.757812 65.160156 96.402344 64.457031 C 97.046875 63.757812 97.914062 63.40625 99.007812 63.40625 C 99.988281 63.40625 100.765625 63.722656 101.335938 64.355469 C 101.90625 64.984375 102.191406 65.84375 102.191406 66.925781 Z M 100.996094 66.574219 C 100.984375 65.921875 100.804688 65.398438 100.445312 65.007812 C 100.085938 64.617188 99.613281 64.421875 99.023438 64.421875 C 98.355469 64.421875 97.820312 64.609375 97.417969 64.988281 C 97.015625 65.367188 96.785156 65.898438 96.722656 66.582031 Z M 100.996094 66.574219 "/>
<path style=" stroke:none;fill-rule:nonzero;fill:rgb(0%,0%,0%);fill-opacity:1;" d="M 108.804688 63.796875 L 108.804688 64.929688 C 108.46875 64.753906 108.117188 64.625 107.75 64.539062 C 107.386719 64.453125 107.011719 64.410156 106.617188 64.410156 C 106.023438 64.410156 105.578125 64.5 105.28125 64.679688 C 104.984375 64.863281 104.835938 65.136719 104.835938 65.503906 C 104.835938 65.78125 104.941406 65.996094 105.152344 66.15625 C 105.367188 66.316406 105.792969 66.464844 106.4375 66.609375 L 106.847656 66.699219 C 107.699219 66.882812 108.300781 67.140625 108.660156 67.472656 C 109.019531 67.804688 109.199219 68.265625 109.199219 68.859375 C 109.199219 69.539062 108.929688 70.074219 108.394531 70.472656 C 107.855469 70.867188 107.121094 71.0625 106.183594 71.0625 C 105.792969 71.0625 105.386719 71.023438 104.960938 70.949219 C 104.539062 70.871094 104.09375 70.757812 103.625 70.605469 L 103.625 69.367188 C 104.066406 69.597656 104.503906 69.773438 104.933594 69.886719 C 105.363281 70 105.789062 70.058594 106.210938 70.058594 C 106.773438 70.058594 107.207031 69.960938 107.511719 69.769531 C 107.8125 69.574219 107.964844 69.304688 107.964844 68.953125 C 107.964844 68.628906 107.855469 68.378906 107.636719 68.203125 C 107.417969 68.03125 106.9375 67.863281 106.195312 67.703125 L 105.777344 67.605469 C 105.039062 67.449219 104.5 67.210938 104.171875 66.886719 C 103.839844 66.5625 103.675781 66.117188 103.675781 65.554688 C 103.675781 64.867188 103.917969 64.339844 104.40625 63.964844 C 104.890625 63.59375 105.582031 63.40625 106.476562 63.40625 C 106.917969 63.40625 107.335938 63.4375 107.726562 63.503906 C 108.117188 63.566406 108.476562 63.664062 108.804688 63.796875 Z M 108.804688 63.796875 "/>
<path style=" stroke:none;fill-rule:nonzero;fill:rgb(0%,0%,0%);fill-opacity:1;" d="M 112.289062 61.511719 L 112.289062 63.582031 L 114.757812 63.582031 L 114.757812 64.511719 L 112.289062 64.511719 L 112.289062 68.472656 C 112.289062 69.066406 112.371094 69.445312 112.535156 69.617188 C 112.695312 69.785156 113.027344 69.871094 113.527344 69.871094 L 114.757812 69.871094 L 114.757812 70.871094 L 113.527344 70.871094 C 112.601562 70.871094 111.964844 70.699219 111.613281 70.355469 C 111.261719 70.011719 111.085938 69.382812 111.085938 68.472656 L 111.085938 64.511719 L 110.207031 64.511719 L 110.207031 63.582031 L 111.085938 63.582031 L 111.085938 61.511719 Z M 112.289062 61.511719 "/>
<path style=" stroke:none;fill-rule:nonzero;fill:rgb(0%,0%,0%);fill-opacity:1;" d="M 123.886719 67.207031 C 122.917969 67.207031 122.246094 67.320312 121.871094 67.539062 C 121.5 67.761719 121.3125 68.136719 121.3125 68.671875 C 121.3125 69.097656 121.453125 69.433594 121.734375 69.683594 C 122.015625 69.933594 122.394531 70.058594 122.875 70.058594 C 123.539062 70.058594 124.074219 69.824219 124.476562 69.351562 C 124.875 68.882812 125.078125 68.253906 125.078125 67.476562 L 125.078125 67.207031 Z M 126.273438 66.710938 L 126.273438 70.871094 L 125.078125 70.871094 L 125.078125 69.765625 C 124.804688 70.207031 124.460938 70.535156 124.054688 70.746094 C 123.644531 70.957031 123.148438 71.0625 122.554688 71.0625 C 121.808594 71.0625 121.214844 70.851562 120.773438 70.433594 C 120.335938 70.015625 120.113281 69.453125 120.113281 68.75 C 120.113281 67.929688 120.390625 67.3125 120.9375 66.894531 C 121.488281 66.480469 122.308594 66.269531 123.394531 66.269531 L 125.078125 66.269531 L 125.078125 66.152344 C 125.078125 65.601562 124.894531 65.175781 124.535156 64.871094 C 124.171875 64.570312 123.660156 64.421875 123.007812 64.421875 C 122.589844 64.421875 122.183594 64.472656 121.789062 64.570312 C 121.394531 64.671875 121.015625 64.820312 120.648438 65.019531 L 120.648438 63.914062 C 121.085938 63.742188 121.511719 63.617188 121.925781 63.535156 C 122.335938 63.449219 122.738281 63.40625 123.128906 63.40625 C 124.183594 63.40625 124.972656 63.679688 125.492188 64.226562 C 126.015625 64.773438 126.273438 65.601562 126.273438 66.710938 Z M 126.273438 66.710938 "/>
<path style=" stroke:none;fill-rule:nonzero;fill:rgb(0%,0%,0%);fill-opacity:1;" d="M 133.988281 63.859375 L 133.988281 64.980469 C 133.652344 64.792969 133.3125 64.652344 132.96875 64.558594 C 132.628906 64.46875 132.285156 64.421875 131.9375 64.421875 C 131.160156 64.421875 130.558594 64.667969 130.125 65.160156 C 129.699219 65.652344 129.484375 66.34375 129.484375 67.234375 C 129.484375 68.125 129.699219 68.816406 130.125 69.308594 C 130.558594 69.800781 131.160156 70.046875 131.9375 70.046875 C 132.285156 70.046875 132.628906 70 132.96875 69.90625 C 133.3125 69.8125 133.652344 69.671875 133.988281 69.484375 L 133.988281 70.59375 C 133.65625 70.75 133.308594 70.867188 132.949219 70.945312 C 132.59375 71.023438 132.210938 71.0625 131.808594 71.0625 C 130.710938 71.0625 129.835938 70.71875 129.1875 70.027344 C 128.542969 69.335938 128.21875 68.40625 128.21875 67.234375 C 128.21875 66.042969 128.546875 65.109375 129.199219 64.429688 C 129.855469 63.746094 130.75 63.40625 131.886719 63.40625 C 132.253906 63.40625 132.613281 63.445312 132.964844 63.519531 C 133.316406 63.597656 133.660156 63.710938 133.988281 63.859375 Z M 133.988281 63.859375 "/>
<path style=" stroke:none;fill-rule:nonzero;fill:rgb(0%,0%,0%);fill-opacity:1;" d="M 141.320312 63.859375 L 141.320312 64.980469 C 140.980469 64.792969 140.640625 64.652344 140.300781 64.558594 C 139.960938 64.46875 139.617188 64.421875 139.269531 64.421875 C 138.492188 64.421875 137.886719 64.667969 137.457031 65.160156 C 137.027344 65.652344 136.8125 66.34375 136.8125 67.234375 C 136.8125 68.125 137.027344 68.816406 137.457031 69.308594 C 137.886719 69.800781 138.492188 70.046875 139.269531 70.046875 C 139.617188 70.046875 139.960938 70 140.300781 69.90625 C 140.640625 69.8125 140.980469 69.671875 141.320312 69.484375 L 141.320312 70.59375 C 140.984375 70.75 140.640625 70.867188 140.28125 70.945312 C 139.921875 71.023438 139.542969 71.0625 139.140625 71.0625 C 138.039062 71.0625 137.167969 70.71875 136.519531 70.027344 C 135.875 69.335938 135.550781 68.40625 135.550781 67.234375 C 135.550781 66.042969 135.878906 65.109375 136.53125 64.429688 C 137.183594 63.746094 138.082031 63.40625 139.21875 63.40625 C 139.585938 63.40625 139.945312 63.445312 140.296875 63.519531 C 140.648438 63.597656 140.988281 63.710938 141.320312 63.859375 Z M 141.320312 63.859375 "/>
</g>
</svg>
