<?xml version="1.0" encoding="UTF-8"?>
<svg xmlns="http://www.w3.org/2000/svg" xmlns:xlink="http://www.w3.org/1999/xlink" width="305.900004" height="242.890523" viewBox="0 0 305.900004 242.890523" version="1.1">
<defs>
<clipPath id="clip1">
  <path d="M 55 11.617188 L 58 11.617188 L 58 192.816406 L 55 192.816406 Z M 55 11.617188 "/>
</clipPath>
<clipPath id="clip2">
  <path d="M 113 11.617188 L 115 11.617188 L 115 192.816406 L 113 192.816406 Z M 113 11.617188 "/>
</clipPath>
<clipPath id="clip3">
  <path d="M 171 11.617188 L 173 11.617188 L 173 192.816406 L 171 192.816406 Z M 171 11.617188 "/>
</clipPath>
<clipPath id="clip4">
  <path d="M 229 11.617188 L 231 11.617188 L 231 192.816406 L 229 192.816406 Z M 229 11.617188 "/>
</clipPath>
<clipPath id="clip5">
  <path d="M 287 11.617188 L 287.816406 11.617188 L 287.816406 192.816406 L 287 192.816406 Z M 287 11.617188 "/>
</clipPath>
<clipPath id="clip6">
  <path d="M 27.417969 147 L 287.816406 147 L 287.816406 150 L 27.417969 150 Z M 27.417969 147 "/>
</clipPath>
<clipPath id="clip7">
  <path d="M 27.417969 103 L 287.816406 103 L 287.816406 105 L 27.417969 105 Z M 27.417969 103 "/>
</clipPath>
<clipPath id="clip8">
  <path d="M 27.417969 58 L 287.816406 58 L 287.816406 61 L 27.417969 61 Z M 27.417969 58 "/>
</clipPath>
<clipPath id="clip9">
  <path d="M 27.417969 13 L 287.816406 13 L 287.816406 16 L 27.417969 16 Z M 27.417969 13 "/>
</clipPath>
<clipPath id="clip10">
  <path d="M 27.417969 18 L 287.816406 18 L 287.816406 186 L 27.417969 186 Z M 27.417969 18 "/>
</clipPath>
<clipPath id="clip11">
  <path d="M 27.417969 46 L 287.816406 46 L 287.816406 172 L 27.417969 172 Z M 27.417969 46 "/>
</clipPath>
<filter id="alpha" filterUnits="objectBoundingBox" x="0%" y="0%" width="100%" height="100%">
  <feColorMatrix type="matrix" in="SourceGraphic" values="0 0 0 0 1 0 0 0 0 1 0 0 0 0 1 0 0 0 1 0"/>
</filter>
<mask id="mask0">
  <g filter="url(#alpha)">
<rect x="0" y="0" width="305.900004" height="242.890523" style="fill:rgb(0%,0%,0%);fill-opacity:0.8;stroke:none;"/>
  </g>
</mask>
<clipPath id="clip12">
  <rect x="0" y="0" width="306" height="243"/>
</clipPath>
<g id="surface5" clip-path="url(#clip12)">
<path style="fill-rule:nonzero;fill:rgb(100%,100%,100%);fill-opacity:1;stroke-width:1;stroke-linecap:butt;stroke-linejoin:miter;stroke:rgb(80.000001%,80.000001%,80.000001%);stroke-opacity:1;stroke-miterlimit:4;" d="M 130.417969 46.069336 L 208.863281 46.069336 C 210.196289 46.069336 210.861328 45.401367 210.861328 44.068359 L 210.861328 15.711914 C 210.861328 14.378906 210.196289 13.710938 208.863281 13.710938 L 130.417969 13.710938 C 129.084961 13.710938 128.416992 14.378906 128.416992 15.711914 L 128.416992 44.068359 C 128.416992 45.401367 129.084961 46.069336 130.417969 46.069336 Z M 130.417969 46.069336 " transform="matrix(1.333333,0,0,1.333333,0,-0.000000000000014211)"/>
</g>
</defs>
<g id="surface1">
<path style=" stroke:none;fill-rule:nonzero;fill:rgb(100%,100%,100%);fill-opacity:1;" d="M 27.417969 192.816406 L 287.816406 192.816406 L 287.816406 11.617188 L 27.417969 11.617188 Z M 27.417969 192.816406 "/>
<g clip-path="url(#clip1)" clip-rule="nonzero">
<path style="fill:none;stroke-width:0.8;stroke-linecap:square;stroke-linejoin:round;stroke:rgb(69.01961%,69.01961%,69.01961%);stroke-opacity:1;stroke-miterlimit:4;" d="M 42.263672 144.612305 L 42.263672 8.712891 " transform="matrix(1.333333,0,0,1.333333,0,-0.000000000000014211)"/>
</g>
<path style="fill:none;stroke-width:0.8;stroke-linecap:butt;stroke-linejoin:round;stroke:rgb(0%,0%,0%);stroke-opacity:1;stroke-miterlimit:4;" d="M 0.00117111 0.000656128 L 0.00117111 3.498703 " transform="matrix(1.333333,0,0,1.333333,56.350001,192.815531)"/>
<path style=" stroke:none;fill-rule:nonzero;fill:rgb(0%,0%,0%);fill-opacity:1;" d="M 54.667969 211.175781 L 59.257812 211.175781 L 59.257812 212.28125 L 53.085938 212.28125 L 53.085938 211.175781 C 53.585938 210.65625 54.265625 209.964844 55.125 209.09375 C 55.988281 208.222656 56.527344 207.660156 56.75 207.410156 C 57.171875 206.9375 57.464844 206.535156 57.632812 206.210938 C 57.800781 205.882812 57.882812 205.558594 57.882812 205.242188 C 57.882812 204.726562 57.703125 204.304688 57.339844 203.980469 C 56.976562 203.652344 56.503906 203.492188 55.921875 203.492188 C 55.511719 203.492188 55.074219 203.5625 54.617188 203.707031 C 54.160156 203.847656 53.671875 204.066406 53.148438 204.355469 L 53.148438 203.027344 C 53.679688 202.816406 54.171875 202.65625 54.632812 202.546875 C 55.09375 202.4375 55.515625 202.382812 55.898438 202.382812 C 56.90625 202.382812 57.707031 202.636719 58.304688 203.140625 C 58.90625 203.644531 59.203125 204.316406 59.203125 205.15625 C 59.203125 205.558594 59.128906 205.9375 58.980469 206.292969 C 58.832031 206.652344 58.558594 207.074219 58.164062 207.558594 C 58.054688 207.6875 57.710938 208.050781 57.128906 208.652344 C 56.546875 209.253906 55.726562 210.09375 54.667969 211.175781 Z M 54.667969 211.175781 "/>
<g clip-path="url(#clip2)" clip-rule="nonzero">
<path style="fill:none;stroke-width:0.8;stroke-linecap:square;stroke-linejoin:round;stroke:rgb(69.01961%,69.01961%,69.01961%);stroke-opacity:1;stroke-miterlimit:4;" d="M 85.661133 144.612305 L 85.661133 8.712891 " transform="matrix(1.333333,0,0,1.333333,0,-0.000000000000014211)"/>
</g>
<path style="fill:none;stroke-width:0.8;stroke-linecap:butt;stroke-linejoin:round;stroke:rgb(0%,0%,0%);stroke-opacity:1;stroke-miterlimit:4;" d="M -0.00136566 0.000656128 L -0.00136566 3.498703 " transform="matrix(1.333333,0,0,1.333333,114.216665,192.815531)"/>
<path style=" stroke:none;fill-rule:nonzero;fill:rgb(0%,0%,0%);fill-opacity:1;" d="M 115.015625 203.707031 L 111.695312 208.894531 L 115.015625 208.894531 Z M 114.667969 202.558594 L 116.324219 202.558594 L 116.324219 208.894531 L 117.710938 208.894531 L 117.710938 209.988281 L 116.324219 209.988281 L 116.324219 212.28125 L 115.015625 212.28125 L 115.015625 209.988281 L 110.628906 209.988281 L 110.628906 208.71875 Z M 114.667969 202.558594 "/>
<g clip-path="url(#clip3)" clip-rule="nonzero">
<path style="fill:none;stroke-width:0.8;stroke-linecap:square;stroke-linejoin:round;stroke:rgb(69.01961%,69.01961%,69.01961%);stroke-opacity:1;stroke-miterlimit:4;" d="M 129.061523 144.612305 L 129.061523 8.712891 " transform="matrix(1.333333,0,0,1.333333,0,-0.000000000000014211)"/>
</g>
<path style="fill:none;stroke-width:0.8;stroke-linecap:butt;stroke-linejoin:round;stroke:rgb(0%,0%,0%);stroke-opacity:1;stroke-miterlimit:4;" d="M -0.000976563 0.000656128 L -0.000976563 3.498703 " transform="matrix(1.333333,0,0,1.333333,172.083333,192.815531)"/>
<path style=" stroke:none;fill-rule:nonzero;fill:rgb(0%,0%,0%);fill-opacity:1;" d="M 172.242188 206.898438 C 171.652344 206.898438 171.183594 207.097656 170.839844 207.503906 C 170.496094 207.90625 170.324219 208.457031 170.324219 209.160156 C 170.324219 209.859375 170.496094 210.414062 170.839844 210.820312 C 171.183594 211.226562 171.652344 211.429688 172.242188 211.429688 C 172.835938 211.429688 173.300781 211.226562 173.644531 210.820312 C 173.992188 210.414062 174.164062 209.859375 174.164062 209.160156 C 174.164062 208.457031 173.992188 207.90625 173.644531 207.503906 C 173.300781 207.097656 172.835938 206.898438 172.242188 206.898438 Z M 174.855469 202.773438 L 174.855469 203.972656 C 174.523438 203.816406 174.191406 203.699219 173.855469 203.617188 C 173.519531 203.53125 173.183594 203.492188 172.855469 203.492188 C 171.984375 203.492188 171.324219 203.785156 170.863281 204.371094 C 170.40625 204.957031 170.148438 205.839844 170.082031 207.027344 C 170.335938 206.648438 170.65625 206.359375 171.042969 206.15625 C 171.429688 205.957031 171.855469 205.855469 172.320312 205.855469 C 173.296875 205.855469 174.070312 206.152344 174.636719 206.746094 C 175.203125 207.335938 175.484375 208.140625 175.484375 209.160156 C 175.484375 210.160156 175.191406 210.960938 174.601562 211.566406 C 174.007812 212.167969 173.222656 212.46875 172.242188 212.46875 C 171.117188 212.46875 170.257812 212.039062 169.664062 211.179688 C 169.070312 210.316406 168.773438 209.066406 168.773438 207.429688 C 168.773438 205.894531 169.136719 204.667969 169.867188 203.753906 C 170.597656 202.839844 171.574219 202.382812 172.800781 202.382812 C 173.132812 202.382812 173.464844 202.417969 173.800781 202.480469 C 174.136719 202.546875 174.488281 202.644531 174.855469 202.773438 Z M 174.855469 202.773438 "/>
<g clip-path="url(#clip4)" clip-rule="nonzero">
<path style="fill:none;stroke-width:0.8;stroke-linecap:square;stroke-linejoin:round;stroke:rgb(69.01961%,69.01961%,69.01961%);stroke-opacity:1;stroke-miterlimit:4;" d="M 172.461914 144.612305 L 172.461914 8.712891 " transform="matrix(1.333333,0,0,1.333333,0,-0.000000000000014211)"/>
</g>
<path style="fill:none;stroke-width:0.8;stroke-linecap:butt;stroke-linejoin:round;stroke:rgb(0%,0%,0%);stroke-opacity:1;stroke-miterlimit:4;" d="M -0.000579834 0.000656128 L -0.000579834 3.498703 " transform="matrix(1.333333,0,0,1.333333,229.949992,192.815531)"/>
<path style=" stroke:none;fill-rule:nonzero;fill:rgb(0%,0%,0%);fill-opacity:1;" d="M 229.945312 207.664062 C 229.320312 207.664062 228.828125 207.832031 228.472656 208.164062 C 228.113281 208.5 227.933594 208.960938 227.933594 209.542969 C 227.933594 210.128906 228.113281 210.589844 228.472656 210.925781 C 228.828125 211.261719 229.320312 211.429688 229.945312 211.429688 C 230.570312 211.429688 231.0625 211.261719 231.421875 210.925781 C 231.785156 210.585938 231.964844 210.125 231.964844 209.542969 C 231.964844 208.960938 231.785156 208.5 231.425781 208.164062 C 231.070312 207.832031 230.578125 207.664062 229.945312 207.664062 Z M 228.632812 207.105469 C 228.066406 206.964844 227.628906 206.703125 227.3125 206.316406 C 227 205.929688 226.839844 205.457031 226.839844 204.902344 C 226.839844 204.125 227.117188 203.511719 227.671875 203.0625 C 228.226562 202.609375 228.984375 202.382812 229.945312 202.382812 C 230.914062 202.382812 231.671875 202.609375 232.226562 203.0625 C 232.777344 203.511719 233.050781 204.125 233.050781 204.902344 C 233.050781 205.457031 232.894531 205.929688 232.578125 206.316406 C 232.265625 206.703125 231.828125 206.964844 231.269531 207.105469 C 231.902344 207.253906 232.394531 207.542969 232.746094 207.972656 C 233.101562 208.402344 233.277344 208.925781 233.277344 209.542969 C 233.277344 210.488281 232.992188 211.210938 232.417969 211.714844 C 231.839844 212.21875 231.019531 212.46875 229.945312 212.46875 C 228.875 212.46875 228.050781 212.21875 227.476562 211.714844 C 226.898438 211.210938 226.613281 210.488281 226.613281 209.542969 C 226.613281 208.925781 226.789062 208.402344 227.144531 207.972656 C 227.503906 207.542969 227.996094 207.253906 228.632812 207.105469 Z M 228.148438 205.027344 C 228.148438 205.53125 228.308594 205.921875 228.621094 206.207031 C 228.9375 206.488281 229.378906 206.628906 229.945312 206.628906 C 230.511719 206.628906 230.953125 206.488281 231.269531 206.207031 C 231.589844 205.921875 231.75 205.53125 231.75 205.027344 C 231.75 204.523438 231.589844 204.128906 231.269531 203.847656 C 230.953125 203.566406 230.511719 203.425781 229.945312 203.425781 C 229.378906 203.425781 228.9375 203.566406 228.621094 203.847656 C 228.308594 204.128906 228.148438 204.523438 228.148438 205.027344 Z M 228.148438 205.027344 "/>
<g clip-path="url(#clip5)" clip-rule="nonzero">
<path style="fill:none;stroke-width:0.8;stroke-linecap:square;stroke-linejoin:round;stroke:rgb(69.01961%,69.01961%,69.01961%);stroke-opacity:1;stroke-miterlimit:4;" d="M 215.862305 144.612305 L 215.862305 8.712891 " transform="matrix(1.333333,0,0,1.333333,0,-0.000000000000014211)"/>
</g>
<path style="fill:none;stroke-width:0.8;stroke-linecap:butt;stroke-linejoin:round;stroke:rgb(0%,0%,0%);stroke-opacity:1;stroke-miterlimit:4;" d="M -0.000198364 0.000656128 L -0.000198364 3.498703 " transform="matrix(1.333333,0,0,1.333333,287.816671,192.815531)"/>
<path style=" stroke:none;fill-rule:nonzero;fill:rgb(0%,0%,0%);fill-opacity:1;" d="M 280.988281 211.175781 L 283.136719 211.175781 L 283.136719 203.757812 L 280.796875 204.226562 L 280.796875 203.027344 L 283.121094 202.558594 L 284.4375 202.558594 L 284.4375 211.175781 L 286.585938 211.175781 L 286.585938 212.28125 L 280.988281 212.28125 Z M 280.988281 211.175781 "/>
<path style=" stroke:none;fill-rule:nonzero;fill:rgb(0%,0%,0%);fill-opacity:1;" d="M 292.054688 203.425781 C 291.378906 203.425781 290.867188 203.757812 290.527344 204.425781 C 290.1875 205.089844 290.015625 206.09375 290.015625 207.429688 C 290.015625 208.761719 290.1875 209.761719 290.527344 210.429688 C 290.867188 211.09375 291.378906 211.429688 292.054688 211.429688 C 292.734375 211.429688 293.246094 211.09375 293.585938 210.429688 C 293.929688 209.761719 294.101562 208.761719 294.101562 207.429688 C 294.101562 206.09375 293.929688 205.089844 293.585938 204.425781 C 293.246094 203.757812 292.734375 203.425781 292.054688 203.425781 Z M 292.054688 202.382812 C 293.144531 202.382812 293.976562 202.816406 294.550781 203.679688 C 295.125 204.539062 295.414062 205.789062 295.414062 207.429688 C 295.414062 209.066406 295.125 210.316406 294.550781 211.179688 C 293.976562 212.039062 293.144531 212.46875 292.054688 212.46875 C 290.964844 212.46875 290.132812 212.039062 289.558594 211.179688 C 288.984375 210.316406 288.695312 209.066406 288.695312 207.429688 C 288.695312 205.789062 288.984375 204.539062 289.558594 203.679688 C 290.132812 202.816406 290.964844 202.382812 292.054688 202.382812 Z M 292.054688 202.382812 "/>
<path style=" stroke:none;fill-rule:nonzero;fill:rgb(0%,0%,0%);fill-opacity:1;" d="M 144.804688 226.570312 L 144.804688 227.15625 L 139.296875 227.15625 C 139.351562 227.980469 139.597656 228.609375 140.042969 229.042969 C 140.488281 229.472656 141.109375 229.691406 141.902344 229.691406 C 142.363281 229.691406 142.808594 229.632812 143.238281 229.523438 C 143.671875 229.410156 144.101562 229.238281 144.527344 229.011719 L 144.527344 230.148438 C 144.097656 230.328125 143.65625 230.46875 143.203125 230.5625 C 142.753906 230.660156 142.296875 230.707031 141.832031 230.707031 C 140.667969 230.707031 139.746094 230.367188 139.066406 229.691406 C 138.386719 229.015625 138.046875 228.097656 138.046875 226.941406 C 138.046875 225.75 138.371094 224.804688 139.015625 224.101562 C 139.660156 223.402344 140.527344 223.050781 141.621094 223.050781 C 142.601562 223.050781 143.378906 223.367188 143.949219 224 C 144.519531 224.628906 144.804688 225.488281 144.804688 226.570312 Z M 143.609375 226.21875 C 143.601562 225.566406 143.417969 225.042969 143.058594 224.652344 C 142.699219 224.261719 142.226562 224.066406 141.636719 224.066406 C 140.96875 224.066406 140.433594 224.253906 140.03125 224.632812 C 139.628906 225.011719 139.398438 225.542969 139.335938 226.226562 Z M 143.609375 226.21875 "/>
<path style=" stroke:none;fill-rule:nonzero;fill:rgb(0%,0%,0%);fill-opacity:1;" d="M 147.929688 229.425781 L 147.929688 233.289062 L 146.726562 233.289062 L 146.726562 223.226562 L 147.929688 223.226562 L 147.929688 224.332031 C 148.183594 223.898438 148.5 223.578125 148.882812 223.367188 C 149.269531 223.15625 149.726562 223.050781 150.261719 223.050781 C 151.148438 223.050781 151.867188 223.402344 152.417969 224.105469 C 152.972656 224.808594 153.25 225.730469 153.25 226.878906 C 153.25 228.023438 152.972656 228.949219 152.417969 229.652344 C 151.867188 230.355469 151.148438 230.707031 150.261719 230.707031 C 149.726562 230.707031 149.269531 230.601562 148.882812 230.390625 C 148.5 230.179688 148.183594 229.855469 147.929688 229.425781 Z M 152.007812 226.878906 C 152.007812 225.996094 151.824219 225.304688 151.464844 224.804688 C 151.101562 224.304688 150.601562 224.054688 149.96875 224.054688 C 149.335938 224.054688 148.835938 224.304688 148.472656 224.804688 C 148.113281 225.304688 147.929688 225.996094 147.929688 226.878906 C 147.929688 227.757812 148.113281 228.449219 148.472656 228.949219 C 148.835938 229.453125 149.335938 229.703125 149.96875 229.703125 C 150.601562 229.703125 151.101562 229.453125 151.464844 228.949219 C 151.824219 228.449219 152.007812 227.757812 152.007812 226.878906 Z M 152.007812 226.878906 "/>
<path style=" stroke:none;fill-rule:nonzero;fill:rgb(0%,0%,0%);fill-opacity:1;" d="M 158.058594 224.066406 C 157.417969 224.066406 156.910156 224.316406 156.539062 224.816406 C 156.164062 225.320312 155.976562 226.003906 155.976562 226.878906 C 155.976562 227.75 156.164062 228.4375 156.535156 228.9375 C 156.90625 229.441406 157.414062 229.691406 158.058594 229.691406 C 158.699219 229.691406 159.203125 229.4375 159.578125 228.9375 C 159.949219 228.433594 160.136719 227.746094 160.136719 226.878906 C 160.136719 226.015625 159.949219 225.328125 159.578125 224.824219 C 159.203125 224.316406 158.699219 224.066406 158.058594 224.066406 Z M 158.058594 223.050781 C 159.101562 223.050781 159.921875 223.390625 160.515625 224.066406 C 161.109375 224.742188 161.410156 225.679688 161.410156 226.878906 C 161.410156 228.070312 161.109375 229.007812 160.515625 229.6875 C 159.921875 230.367188 159.101562 230.707031 158.058594 230.707031 C 157.015625 230.707031 156.195312 230.367188 155.601562 229.6875 C 155.011719 229.007812 154.714844 228.070312 154.714844 226.878906 C 154.714844 225.679688 155.011719 224.742188 155.601562 224.066406 C 156.195312 223.390625 157.015625 223.050781 158.058594 223.050781 Z M 158.058594 223.050781 "/>
<path style=" stroke:none;fill-rule:nonzero;fill:rgb(0%,0%,0%);fill-opacity:1;" d="M 168.640625 223.503906 L 168.640625 224.625 C 168.300781 224.4375 167.960938 224.296875 167.621094 224.207031 C 167.28125 224.113281 166.9375 224.066406 166.589844 224.066406 C 165.8125 224.066406 165.207031 224.3125 164.777344 224.804688 C 164.347656 225.296875 164.132812 225.988281 164.132812 226.878906 C 164.132812 227.769531 164.347656 228.460938 164.777344 228.953125 C 165.207031 229.445312 165.8125 229.691406 166.589844 229.691406 C 166.9375 229.691406 167.28125 229.644531 167.621094 229.550781 C 167.960938 229.457031 168.300781 229.316406 168.640625 229.128906 L 168.640625 230.238281 C 168.304688 230.394531 167.960938 230.511719 167.601562 230.589844 C 167.246094 230.667969 166.863281 230.707031 166.460938 230.707031 C 165.359375 230.707031 164.488281 230.363281 163.839844 229.671875 C 163.195312 228.980469 162.871094 228.050781 162.871094 226.878906 C 162.871094 225.6875 163.199219 224.753906 163.851562 224.074219 C 164.503906 223.390625 165.402344 223.050781 166.539062 223.050781 C 166.90625 223.050781 167.265625 223.089844 167.617188 223.164062 C 167.96875 223.242188 168.308594 223.355469 168.640625 223.503906 Z M 168.640625 223.503906 "/>
<path style=" stroke:none;fill-rule:nonzero;fill:rgb(0%,0%,0%);fill-opacity:1;" d="M 176.785156 226.117188 L 176.785156 230.519531 L 175.589844 230.519531 L 175.589844 226.15625 C 175.589844 225.464844 175.453125 224.949219 175.183594 224.605469 C 174.914062 224.265625 174.511719 224.09375 173.972656 224.09375 C 173.328125 224.09375 172.816406 224.300781 172.441406 224.710938 C 172.070312 225.121094 171.882812 225.683594 171.882812 226.398438 L 171.882812 230.519531 L 170.679688 230.519531 L 170.679688 220.386719 L 171.882812 220.386719 L 171.882812 224.359375 C 172.167969 223.921875 172.507812 223.59375 172.894531 223.375 C 173.285156 223.160156 173.730469 223.050781 174.242188 223.050781 C 175.078125 223.050781 175.710938 223.308594 176.140625 223.828125 C 176.570312 224.347656 176.785156 225.109375 176.785156 226.117188 Z M 176.785156 226.117188 "/>
<g clip-path="url(#clip6)" clip-rule="nonzero">
<path style="fill:none;stroke-width:0.8;stroke-linecap:square;stroke-linejoin:round;stroke:rgb(69.01961%,69.01961%,69.01961%);stroke-opacity:1;stroke-miterlimit:4;" d="M 20.563477 111.369141 L 215.862305 111.369141 " transform="matrix(1.333333,0,0,1.333333,0,-0.000000000000014211)"/>
</g>
<path style="fill:none;stroke-width:0.8;stroke-linecap:butt;stroke-linejoin:round;stroke:rgb(0%,0%,0%);stroke-opacity:1;stroke-miterlimit:4;" d="M 0.000976562 -0.000907898 L -3.5 -0.000907898 " transform="matrix(1.333333,0,0,1.333333,27.416667,148.493398)"/>
<path style=" stroke:none;fill-rule:nonzero;fill:rgb(0%,0%,0%);fill-opacity:1;" d="M 12.160156 152.453125 L 16.746094 152.453125 L 16.746094 153.558594 L 10.578125 153.558594 L 10.578125 152.453125 C 11.074219 151.9375 11.753906 151.242188 12.617188 150.375 C 13.480469 149.503906 14.019531 148.941406 14.242188 148.6875 C 14.664062 148.214844 14.957031 147.816406 15.121094 147.488281 C 15.289062 147.160156 15.375 146.839844 15.375 146.523438 C 15.375 146.003906 15.195312 145.585938 14.832031 145.257812 C 14.46875 144.933594 13.996094 144.769531 13.414062 144.769531 C 13.003906 144.769531 12.566406 144.839844 12.109375 144.984375 C 11.652344 145.128906 11.164062 145.34375 10.640625 145.636719 L 10.640625 144.308594 C 11.171875 144.09375 11.664062 143.933594 12.125 143.824219 C 12.585938 143.71875 13.007812 143.664062 13.390625 143.664062 C 14.398438 143.664062 15.199219 143.914062 15.796875 144.417969 C 16.398438 144.921875 16.695312 145.59375 16.695312 146.4375 C 16.695312 146.835938 16.621094 147.214844 16.472656 147.574219 C 16.320312 147.929688 16.050781 148.351562 15.652344 148.839844 C 15.546875 148.964844 15.199219 149.328125 14.617188 149.929688 C 14.039062 150.53125 13.21875 151.371094 12.160156 152.453125 Z M 12.160156 152.453125 "/>
<g clip-path="url(#clip7)" clip-rule="nonzero">
<path style="fill:none;stroke-width:0.8;stroke-linecap:square;stroke-linejoin:round;stroke:rgb(69.01961%,69.01961%,69.01961%);stroke-opacity:1;stroke-miterlimit:4;" d="M 20.563477 77.912109 L 215.862305 77.912109 " transform="matrix(1.333333,0,0,1.333333,0,-0.000000000000014211)"/>
</g>
<path style="fill:none;stroke-width:0.8;stroke-linecap:butt;stroke-linejoin:round;stroke:rgb(0%,0%,0%);stroke-opacity:1;stroke-miterlimit:4;" d="M 0.000976562 -0.000999451 L -3.5 -0.000999451 " transform="matrix(1.333333,0,0,1.333333,27.416667,103.884145)"/>
<path style=" stroke:none;fill-rule:nonzero;fill:rgb(0%,0%,0%);fill-opacity:1;" d="M 15.011719 103.707031 C 15.640625 103.84375 16.128906 104.125 16.484375 104.550781 C 16.835938 104.976562 17.015625 105.5 17.015625 106.125 C 17.015625 107.082031 16.683594 107.824219 16.023438 108.351562 C 15.367188 108.875 14.429688 109.140625 13.210938 109.140625 C 12.804688 109.140625 12.386719 109.097656 11.953125 109.019531 C 11.523438 108.9375 11.078125 108.816406 10.617188 108.65625 L 10.617188 107.386719 C 10.980469 107.601562 11.378906 107.761719 11.8125 107.867188 C 12.246094 107.976562 12.703125 108.03125 13.175781 108.03125 C 14 108.03125 14.625 107.867188 15.058594 107.542969 C 15.492188 107.21875 15.707031 106.746094 15.707031 106.125 C 15.707031 105.550781 15.503906 105.101562 15.105469 104.78125 C 14.703125 104.457031 14.144531 104.296875 13.429688 104.296875 L 12.296875 104.296875 L 12.296875 103.214844 L 13.480469 103.214844 C 14.128906 103.214844 14.621094 103.085938 14.964844 102.828125 C 15.308594 102.570312 15.480469 102.195312 15.480469 101.710938 C 15.480469 101.210938 15.300781 100.828125 14.949219 100.5625 C 14.59375 100.292969 14.089844 100.160156 13.429688 100.160156 C 13.066406 100.160156 12.679688 100.199219 12.269531 100.277344 C 11.855469 100.355469 11.402344 100.476562 10.910156 100.640625 L 10.910156 99.46875 C 11.410156 99.332031 11.875 99.226562 12.3125 99.15625 C 12.75 99.089844 13.160156 99.054688 13.546875 99.054688 C 14.542969 99.054688 15.335938 99.28125 15.914062 99.734375 C 16.496094 100.1875 16.789062 100.800781 16.789062 101.574219 C 16.789062 102.113281 16.632812 102.566406 16.324219 102.9375 C 16.015625 103.308594 15.578125 103.566406 15.011719 103.707031 Z M 15.011719 103.707031 "/>
<g clip-path="url(#clip8)" clip-rule="nonzero">
<path style="fill:none;stroke-width:0.8;stroke-linecap:square;stroke-linejoin:round;stroke:rgb(69.01961%,69.01961%,69.01961%);stroke-opacity:1;stroke-miterlimit:4;" d="M 20.563477 44.455078 L 215.862305 44.455078 " transform="matrix(1.333333,0,0,1.333333,0,-0.000000000000014211)"/>
</g>
<path style="fill:none;stroke-width:0.8;stroke-linecap:butt;stroke-linejoin:round;stroke:rgb(0%,0%,0%);stroke-opacity:1;stroke-miterlimit:4;" d="M 0.000976562 -0.00108337 L -3.5 -0.00108337 " transform="matrix(1.333333,0,0,1.333333,27.416667,59.274882)"/>
<path style=" stroke:none;fill-rule:nonzero;fill:rgb(0%,0%,0%);fill-opacity:1;" d="M 14.640625 55.765625 L 11.320312 60.957031 L 14.640625 60.957031 Z M 14.292969 54.621094 L 15.949219 54.621094 L 15.949219 60.957031 L 17.335938 60.957031 L 17.335938 62.050781 L 15.949219 62.050781 L 15.949219 64.339844 L 14.640625 64.339844 L 14.640625 62.050781 L 10.253906 62.050781 L 10.253906 60.78125 Z M 14.292969 54.621094 "/>
<g clip-path="url(#clip9)" clip-rule="nonzero">
<path style="fill:none;stroke-width:0.8;stroke-linecap:square;stroke-linejoin:round;stroke:rgb(69.01961%,69.01961%,69.01961%);stroke-opacity:1;stroke-miterlimit:4;" d="M 20.563477 10.998047 L 215.862305 10.998047 " transform="matrix(1.333333,0,0,1.333333,0,-0.000000000000014211)"/>
</g>
<path style="fill:none;stroke-width:0.8;stroke-linecap:butt;stroke-linejoin:round;stroke:rgb(0%,0%,0%);stroke-opacity:1;stroke-miterlimit:4;" d="M 0.000976562 -0.00117207 L -3.5 -0.00117207 " transform="matrix(1.333333,0,0,1.333333,27.416667,14.665625)"/>
<path style=" stroke:none;fill-rule:nonzero;fill:rgb(0%,0%,0%);fill-opacity:1;" d="M 11.039062 10.011719 L 16.203125 10.011719 L 16.203125 11.117188 L 12.242188 11.117188 L 12.242188 13.5 C 12.433594 13.433594 12.625 13.386719 12.816406 13.355469 C 13.007812 13.320312 13.199219 13.304688 13.390625 13.304688 C 14.472656 13.304688 15.332031 13.601562 15.964844 14.199219 C 16.601562 14.792969 16.917969 15.597656 16.917969 16.613281 C 16.917969 17.660156 16.59375 18.472656 15.941406 19.050781 C 15.289062 19.632812 14.371094 19.921875 13.1875 19.921875 C 12.777344 19.921875 12.363281 19.886719 11.941406 19.816406 C 11.515625 19.746094 11.082031 19.644531 10.628906 19.503906 L 10.628906 18.179688 C 11.019531 18.394531 11.421875 18.550781 11.839844 18.65625 C 12.257812 18.761719 12.695312 18.8125 13.160156 18.8125 C 13.910156 18.8125 14.507812 18.617188 14.945312 18.222656 C 15.382812 17.828125 15.601562 17.289062 15.601562 16.613281 C 15.601562 15.9375 15.382812 15.402344 14.945312 15.007812 C 14.507812 14.609375 13.910156 14.414062 13.160156 14.414062 C 12.808594 14.414062 12.457031 14.453125 12.109375 14.527344 C 11.757812 14.605469 11.402344 14.726562 11.039062 14.894531 Z M 11.039062 10.011719 "/>
<g clip-path="url(#clip10)" clip-rule="nonzero">
<path style="fill:none;stroke-width:1.5;stroke-linecap:square;stroke-linejoin:round;stroke:rgb(12.156863%,46.666667%,70.588237%);stroke-opacity:1;stroke-miterlimit:4;" d="M 2.879883 14.991211 L 6.899414 14.888672 L 10.918945 17.173828 L 14.935547 18.442383 L 18.955078 20.077148 L 20.563477 21.257813 L 24.580078 42.222656 L 28.599609 43.696289 L 32.619141 46.96582 L 36.635742 48.867188 L 40.655273 51.688477 L 42.263672 52.060547 L 46.280273 75.237305 L 50.299805 75.084961 L 54.319336 75.09082 L 58.335937 77.337891 L 62.355469 77.639648 L 63.963867 78.266602 L 67.980469 93.410156 L 72 93.424805 L 76.016602 94.456055 L 80.036133 95.730469 L 84.055664 96.609375 L 85.661133 97.441406 L 89.680664 116.047852 L 93.700195 116.976562 L 97.716797 113.581055 L 101.736328 113.176758 L 105.755859 112.77832 L 107.361328 113.355469 L 111.380859 122.607422 L 115.400391 118.807617 L 119.416992 118.467773 L 123.436523 117.254883 L 127.456055 119.381836 L 129.061523 119.144531 L 133.081055 127.664062 L 137.100586 128.390625 L 141.117187 128.267578 L 145.136719 127.441406 L 149.15625 127.672852 L 150.761719 128.080078 L 154.78125 126.500977 L 158.800781 131.370117 L 162.817383 131.367187 L 166.836914 131.964844 L 170.856445 131.563477 L 172.461914 131.091797 L 176.481445 133.913086 L 180.500977 138.158203 L 184.517578 135.829102 L 188.537109 134.806641 L 192.553711 135.164062 L 194.162109 134.680664 L 198.181641 137.90332 L 202.198242 136.142578 L 206.217773 138.433594 L 210.237305 138.070312 L 214.253906 137.308594 L 215.862305 136.886719 " transform="matrix(1.333333,0,0,1.333333,0,-0.000000000000014211)"/>
</g>
<g clip-path="url(#clip11)" clip-rule="nonzero">
<path style="fill:none;stroke-width:1.5;stroke-linecap:butt;stroke-linejoin:round;stroke:rgb(74.901962%,0%,74.901962%);stroke-opacity:1;stroke-dasharray:5.55,2.4;stroke-miterlimit:4;" d="M 20.563477 35.270508 L 42.263672 63.410156 L 63.963867 86.806641 L 85.661133 102.823242 L 107.361328 112.983398 L 129.061523 119.34668 L 150.761719 122.765625 L 172.461914 124.957031 L 194.162109 127.327148 L 215.862305 128.006836 " transform="matrix(1.333333,0,0,1.333333,0,-0.000000000000014211)"/>
</g>
<path style="fill:none;stroke-width:0.8;stroke-linecap:square;stroke-linejoin:miter;stroke:rgb(0%,0%,0%);stroke-opacity:1;stroke-miterlimit:4;" d="M 20.563477 144.612305 L 20.563477 8.712891 " transform="matrix(1.333333,0,0,1.333333,0,-0.000000000000014211)"/>
<path style="fill:none;stroke-width:0.8;stroke-linecap:square;stroke-linejoin:miter;stroke:rgb(0%,0%,0%);stroke-opacity:1;stroke-miterlimit:4;" d="M 215.862305 144.612305 L 215.862305 8.712891 " transform="matrix(1.333333,0,0,1.333333,0,-0.000000000000014211)"/>
<path style="fill:none;stroke-width:0.8;stroke-linecap:square;stroke-linejoin:miter;stroke:rgb(0%,0%,0%);stroke-opacity:1;stroke-miterlimit:4;" d="M 20.563477 144.612305 L 215.862305 144.612305 " transform="matrix(1.333333,0,0,1.333333,0,-0.000000000000014211)"/>
<path style="fill:none;stroke-width:0.8;stroke-linecap:square;stroke-linejoin:miter;stroke:rgb(0%,0%,0%);stroke-opacity:1;stroke-miterlimit:4;" d="M 20.563477 8.712891 L 215.862305 8.712891 " transform="matrix(1.333333,0,0,1.333333,0,-0.000000000000014211)"/>
<use xlink:href="#surface5" mask="url(#mask0)"/>
<path style="fill:none;stroke-width:1.5;stroke-linecap:square;stroke-linejoin:round;stroke:rgb(12.156863%,46.666667%,70.588237%);stroke-opacity:1;stroke-miterlimit:4;" d="M 132.416016 21.811523 L 152.416992 21.811523 " transform="matrix(1.333333,0,0,1.333333,0,-0.000000000000014211)"/>
<path style=" stroke:none;fill-rule:nonzero;fill:rgb(0%,0%,0%);fill-opacity:1;" d="M 216.332031 24.382812 L 216.332031 26.457031 L 218.796875 26.457031 L 218.796875 27.386719 L 216.332031 27.386719 L 216.332031 31.34375 C 216.332031 31.9375 216.414062 32.320312 216.574219 32.492188 C 216.738281 32.660156 217.070312 32.746094 217.570312 32.746094 L 218.796875 32.746094 L 218.796875 33.746094 L 217.570312 33.746094 C 216.644531 33.746094 216.003906 33.574219 215.652344 33.230469 C 215.304688 32.882812 215.128906 32.253906 215.128906 31.34375 L 215.128906 27.386719 L 214.246094 27.386719 L 214.246094 26.457031 L 215.128906 26.457031 L 215.128906 24.382812 Z M 216.332031 24.382812 "/>
<path style=" stroke:none;fill-rule:nonzero;fill:rgb(0%,0%,0%);fill-opacity:1;" d="M 224.597656 27.574219 C 224.464844 27.496094 224.316406 27.4375 224.160156 27.402344 C 224 27.367188 223.828125 27.347656 223.636719 27.347656 C 222.957031 27.347656 222.4375 27.566406 222.074219 28.007812 C 221.714844 28.449219 221.53125 29.082031 221.53125 29.90625 L 221.53125 33.746094 L 220.328125 33.746094 L 220.328125 26.457031 L 221.53125 26.457031 L 221.53125 27.589844 C 221.785156 27.144531 222.113281 26.816406 222.515625 26.601562 C 222.917969 26.386719 223.410156 26.28125 223.988281 26.28125 C 224.070312 26.28125 224.160156 26.285156 224.261719 26.296875 C 224.359375 26.304688 224.472656 26.324219 224.59375 26.34375 Z M 224.597656 27.574219 "/>
<path style=" stroke:none;fill-rule:nonzero;fill:rgb(0%,0%,0%);fill-opacity:1;" d="M 229.171875 30.082031 C 228.203125 30.082031 227.53125 30.191406 227.15625 30.414062 C 226.785156 30.632812 226.597656 31.011719 226.597656 31.546875 C 226.597656 31.972656 226.738281 32.308594 227.019531 32.558594 C 227.296875 32.808594 227.679688 32.933594 228.160156 32.933594 C 228.824219 32.933594 229.359375 32.695312 229.757812 32.226562 C 230.160156 31.753906 230.363281 31.128906 230.363281 30.347656 L 230.363281 30.082031 Z M 231.558594 29.585938 L 231.558594 33.746094 L 230.363281 33.746094 L 230.363281 32.640625 C 230.089844 33.082031 229.746094 33.410156 229.339844 33.621094 C 228.929688 33.832031 228.429688 33.9375 227.839844 33.9375 C 227.09375 33.9375 226.5 33.726562 226.058594 33.308594 C 225.621094 32.886719 225.398438 32.328125 225.398438 31.625 C 225.398438 30.804688 225.671875 30.1875 226.222656 29.769531 C 226.773438 29.351562 227.589844 29.144531 228.679688 29.144531 L 230.363281 29.144531 L 230.363281 29.027344 C 230.363281 28.472656 230.179688 28.046875 229.816406 27.746094 C 229.457031 27.445312 228.945312 27.292969 228.289062 27.292969 C 227.875 27.292969 227.46875 27.34375 227.070312 27.445312 C 226.675781 27.542969 226.296875 27.695312 225.933594 27.894531 L 225.933594 26.785156 C 226.371094 26.617188 226.796875 26.492188 227.210938 26.40625 C 227.621094 26.324219 228.023438 26.28125 228.414062 26.28125 C 229.46875 26.28125 230.257812 26.554688 230.777344 27.101562 C 231.300781 27.648438 231.558594 28.476562 231.558594 29.585938 Z M 231.558594 29.585938 "/>
<path style=" stroke:none;fill-rule:nonzero;fill:rgb(0%,0%,0%);fill-opacity:1;" d="M 234.027344 26.457031 L 235.222656 26.457031 L 235.222656 33.746094 L 234.027344 33.746094 Z M 234.027344 23.617188 L 235.222656 23.617188 L 235.222656 25.132812 L 234.027344 25.132812 Z M 234.027344 23.617188 "/>
<path style=" stroke:none;fill-rule:nonzero;fill:rgb(0%,0%,0%);fill-opacity:1;" d="M 243.792969 29.34375 L 243.792969 33.746094 L 242.59375 33.746094 L 242.59375 29.382812 C 242.59375 28.695312 242.460938 28.179688 242.191406 27.835938 C 241.921875 27.492188 241.519531 27.320312 240.980469 27.320312 C 240.332031 27.320312 239.824219 27.527344 239.449219 27.941406 C 239.074219 28.351562 238.890625 28.914062 238.890625 29.625 L 238.890625 33.746094 L 237.683594 33.746094 L 237.683594 26.457031 L 238.890625 26.457031 L 238.890625 27.589844 C 239.175781 27.148438 239.515625 26.820312 239.902344 26.605469 C 240.289062 26.386719 240.738281 26.28125 241.246094 26.28125 C 242.085938 26.28125 242.71875 26.539062 243.148438 27.058594 C 243.578125 27.574219 243.792969 28.335938 243.792969 29.34375 Z M 243.792969 29.34375 "/>
<path style=" stroke:none;fill-rule:nonzero;fill:rgb(0%,0%,0%);fill-opacity:1;" d="M 250.417969 23.617188 L 251.617188 23.617188 L 251.617188 33.746094 L 250.417969 33.746094 Z M 250.417969 23.617188 "/>
<path style=" stroke:none;fill-rule:nonzero;fill:rgb(0%,0%,0%);fill-opacity:1;" d="M 256.949219 27.292969 C 256.308594 27.292969 255.800781 27.546875 255.425781 28.046875 C 255.050781 28.546875 254.867188 29.234375 254.867188 30.105469 C 254.867188 30.980469 255.050781 31.667969 255.421875 32.167969 C 255.792969 32.667969 256.304688 32.917969 256.949219 32.917969 C 257.585938 32.917969 258.09375 32.667969 258.464844 32.164062 C 258.839844 31.660156 259.027344 30.976562 259.027344 30.105469 C 259.027344 29.242188 258.839844 28.558594 258.464844 28.054688 C 258.09375 27.546875 257.585938 27.292969 256.949219 27.292969 Z M 256.949219 26.28125 C 257.992188 26.28125 258.808594 26.617188 259.402344 27.296875 C 260 27.972656 260.296875 28.910156 260.296875 30.105469 C 260.296875 31.300781 260 32.238281 259.402344 32.917969 C 258.808594 33.597656 257.992188 33.9375 256.949219 33.9375 C 255.902344 33.9375 255.082031 33.597656 254.492188 32.917969 C 253.898438 32.238281 253.601562 31.300781 253.601562 30.105469 C 253.601562 28.910156 253.898438 27.972656 254.492188 27.296875 C 255.082031 26.617188 255.902344 26.28125 256.949219 26.28125 Z M 256.949219 26.28125 "/>
<path style=" stroke:none;fill-rule:nonzero;fill:rgb(0%,0%,0%);fill-opacity:1;" d="M 266.929688 26.667969 L 266.929688 27.804688 C 266.589844 27.628906 266.242188 27.5 265.875 27.414062 C 265.511719 27.324219 265.132812 27.28125 264.742188 27.28125 C 264.148438 27.28125 263.703125 27.375 263.402344 27.554688 C 263.105469 27.738281 262.957031 28.011719 262.957031 28.375 C 262.957031 28.652344 263.066406 28.871094 263.277344 29.03125 C 263.488281 29.1875 263.917969 29.339844 264.558594 29.480469 L 264.972656 29.574219 C 265.820312 29.753906 266.425781 30.011719 266.785156 30.34375 C 267.140625 30.675781 267.320312 31.140625 267.320312 31.734375 C 267.320312 32.410156 267.054688 32.949219 266.515625 33.34375 C 265.980469 33.738281 265.242188 33.9375 264.304688 33.9375 C 263.914062 33.9375 263.507812 33.898438 263.085938 33.820312 C 262.660156 33.746094 262.214844 33.632812 261.746094 33.480469 L 261.746094 32.242188 C 262.191406 32.472656 262.628906 32.644531 263.054688 32.761719 C 263.484375 32.875 263.910156 32.933594 264.332031 32.933594 C 264.898438 32.933594 265.332031 32.835938 265.632812 32.644531 C 265.9375 32.449219 266.089844 32.175781 266.089844 31.824219 C 266.089844 31.5 265.980469 31.25 265.761719 31.078125 C 265.542969 30.90625 265.0625 30.738281 264.320312 30.574219 L 263.902344 30.476562 C 263.160156 30.324219 262.625 30.082031 262.292969 29.757812 C 261.964844 29.4375 261.800781 28.992188 261.800781 28.429688 C 261.800781 27.742188 262.042969 27.210938 262.527344 26.839844 C 263.015625 26.46875 263.707031 26.28125 264.601562 26.28125 C 265.042969 26.28125 265.457031 26.3125 265.847656 26.378906 C 266.238281 26.441406 266.601562 26.539062 266.929688 26.667969 Z M 266.929688 26.667969 "/>
<path style=" stroke:none;fill-rule:nonzero;fill:rgb(0%,0%,0%);fill-opacity:1;" d="M 273.875 26.667969 L 273.875 27.804688 C 273.539062 27.628906 273.1875 27.5 272.820312 27.414062 C 272.457031 27.324219 272.078125 27.28125 271.6875 27.28125 C 271.09375 27.28125 270.648438 27.375 270.351562 27.554688 C 270.054688 27.738281 269.90625 28.011719 269.90625 28.375 C 269.90625 28.652344 270.011719 28.871094 270.222656 29.03125 C 270.4375 29.1875 270.863281 29.339844 271.507812 29.480469 L 271.917969 29.574219 C 272.765625 29.753906 273.371094 30.011719 273.730469 30.34375 C 274.089844 30.675781 274.265625 31.140625 274.265625 31.734375 C 274.265625 32.410156 274 32.949219 273.464844 33.34375 C 272.925781 33.738281 272.191406 33.9375 271.253906 33.9375 C 270.863281 33.9375 270.457031 33.898438 270.03125 33.820312 C 269.609375 33.746094 269.164062 33.632812 268.695312 33.480469 L 268.695312 32.242188 C 269.136719 32.472656 269.574219 32.644531 270.003906 32.761719 C 270.433594 32.875 270.859375 32.933594 271.28125 32.933594 C 271.84375 32.933594 272.277344 32.835938 272.578125 32.644531 C 272.882812 32.449219 273.035156 32.175781 273.035156 31.824219 C 273.035156 31.5 272.925781 31.25 272.707031 31.078125 C 272.488281 30.90625 272.007812 30.738281 271.265625 30.574219 L 270.847656 30.476562 C 270.105469 30.324219 269.570312 30.082031 269.242188 29.757812 C 268.910156 29.4375 268.746094 28.992188 268.746094 28.429688 C 268.746094 27.742188 268.988281 27.210938 269.476562 26.839844 C 269.960938 26.46875 270.652344 26.28125 271.546875 26.28125 C 271.988281 26.28125 272.402344 26.3125 272.792969 26.378906 C 273.1875 26.441406 273.546875 26.539062 273.875 26.667969 Z M 273.875 26.667969 "/>
<path style="fill:none;stroke-width:1.5;stroke-linecap:butt;stroke-linejoin:round;stroke:rgb(74.901962%,0%,74.901962%);stroke-opacity:1;stroke-dasharray:5.55,2.4;stroke-miterlimit:4;" d="M 132.416016 36.489258 L 152.416992 36.489258 " transform="matrix(1.333333,0,0,1.333333,0,-0.000000000000014211)"/>
<path style=" stroke:none;fill-rule:nonzero;fill:rgb(0%,0%,0%);fill-opacity:1;" d="M 214.289062 46.027344 L 215.554688 46.027344 L 217.835938 52.144531 L 220.113281 46.027344 L 221.382812 46.027344 L 218.648438 53.316406 L 217.019531 53.316406 Z M 214.289062 46.027344 "/>
<path style=" stroke:none;fill-rule:nonzero;fill:rgb(0%,0%,0%);fill-opacity:1;" d="M 226.351562 49.652344 C 225.382812 49.652344 224.710938 49.761719 224.339844 49.984375 C 223.964844 50.207031 223.777344 50.582031 223.777344 51.117188 C 223.777344 51.542969 223.917969 51.878906 224.199219 52.128906 C 224.480469 52.378906 224.859375 52.503906 225.339844 52.503906 C 226.007812 52.503906 226.539062 52.269531 226.941406 51.796875 C 227.34375 51.324219 227.542969 50.699219 227.542969 49.917969 L 227.542969 49.652344 Z M 228.742188 49.15625 L 228.742188 53.316406 L 227.542969 53.316406 L 227.542969 52.210938 C 227.269531 52.652344 226.929688 52.980469 226.519531 53.191406 C 226.113281 53.402344 225.613281 53.507812 225.023438 53.507812 C 224.277344 53.507812 223.683594 53.296875 223.242188 52.878906 C 222.800781 52.457031 222.582031 51.898438 222.582031 51.195312 C 222.582031 50.375 222.855469 49.757812 223.402344 49.339844 C 223.953125 48.925781 224.773438 48.714844 225.863281 48.714844 L 227.542969 48.714844 L 227.542969 48.597656 C 227.542969 48.046875 227.363281 47.617188 227 47.316406 C 226.636719 47.015625 226.128906 46.867188 225.472656 46.867188 C 225.054688 46.867188 224.648438 46.914062 224.253906 47.015625 C 223.859375 47.117188 223.480469 47.265625 223.117188 47.464844 L 223.117188 46.355469 C 223.554688 46.1875 223.976562 46.0625 224.390625 45.976562 C 224.804688 45.894531 225.203125 45.851562 225.59375 45.851562 C 226.648438 45.851562 227.4375 46.125 227.960938 46.671875 C 228.480469 47.21875 228.742188 48.046875 228.742188 49.15625 Z M 228.742188 49.15625 "/>
<path style=" stroke:none;fill-rule:nonzero;fill:rgb(0%,0%,0%);fill-opacity:1;" d="M 231.207031 43.1875 L 232.40625 43.1875 L 232.40625 53.316406 L 231.207031 53.316406 Z M 231.207031 43.1875 "/>
<path style=" stroke:none;fill-rule:nonzero;fill:rgb(0%,0%,0%);fill-opacity:1;" d="M 234.910156 46.027344 L 236.109375 46.027344 L 236.109375 53.316406 L 234.910156 53.316406 Z M 234.910156 43.1875 L 236.109375 43.1875 L 236.109375 44.707031 L 234.910156 44.707031 Z M 234.910156 43.1875 "/>
<path style=" stroke:none;fill-rule:nonzero;fill:rgb(0%,0%,0%);fill-opacity:1;" d="M 243.414062 47.132812 L 243.414062 43.1875 L 244.613281 43.1875 L 244.613281 53.316406 L 243.414062 53.316406 L 243.414062 52.222656 C 243.164062 52.65625 242.84375 52.980469 242.460938 53.191406 C 242.078125 53.402344 241.613281 53.507812 241.078125 53.507812 C 240.195312 53.507812 239.476562 53.15625 238.925781 52.453125 C 238.371094 51.75 238.09375 50.824219 238.09375 49.679688 C 238.09375 48.53125 238.371094 47.609375 238.925781 46.90625 C 239.476562 46.203125 240.195312 45.851562 241.078125 45.851562 C 241.613281 45.851562 242.078125 45.957031 242.460938 46.167969 C 242.84375 46.378906 243.164062 46.699219 243.414062 47.132812 Z M 239.332031 49.679688 C 239.332031 50.558594 239.515625 51.25 239.875 51.75 C 240.238281 52.253906 240.738281 52.503906 241.371094 52.503906 C 242.003906 52.503906 242.503906 52.253906 242.867188 51.75 C 243.230469 51.25 243.414062 50.558594 243.414062 49.679688 C 243.414062 48.796875 243.230469 48.105469 242.867188 47.605469 C 242.503906 47.105469 242.003906 46.851562 241.371094 46.851562 C 240.738281 46.851562 240.238281 47.105469 239.875 47.605469 C 239.515625 48.105469 239.332031 48.796875 239.332031 49.679688 Z M 239.332031 49.679688 "/>
<path style=" stroke:none;fill-rule:nonzero;fill:rgb(0%,0%,0%);fill-opacity:1;" d="M 251.316406 43.1875 L 252.515625 43.1875 L 252.515625 53.316406 L 251.316406 53.316406 Z M 251.316406 43.1875 "/>
<path style=" stroke:none;fill-rule:nonzero;fill:rgb(0%,0%,0%);fill-opacity:1;" d="M 257.847656 46.867188 C 257.207031 46.867188 256.699219 47.117188 256.324219 47.617188 C 255.949219 48.117188 255.765625 48.804688 255.765625 49.679688 C 255.765625 50.550781 255.949219 51.238281 256.320312 51.738281 C 256.691406 52.238281 257.203125 52.492188 257.847656 52.492188 C 258.484375 52.492188 258.992188 52.238281 259.363281 51.738281 C 259.738281 51.230469 259.925781 50.546875 259.925781 49.679688 C 259.925781 48.8125 259.738281 48.128906 259.363281 47.625 C 258.992188 47.117188 258.484375 46.867188 257.847656 46.867188 Z M 257.847656 45.851562 C 258.890625 45.851562 259.707031 46.191406 260.300781 46.867188 C 260.898438 47.542969 261.195312 48.480469 261.195312 49.679688 C 261.195312 50.871094 260.898438 51.808594 260.300781 52.488281 C 259.707031 53.167969 258.890625 53.507812 257.847656 53.507812 C 256.800781 53.507812 255.980469 53.167969 255.390625 52.488281 C 254.796875 51.808594 254.5 50.871094 254.5 49.679688 C 254.5 48.480469 254.796875 47.542969 255.390625 46.867188 C 255.980469 46.191406 256.800781 45.851562 257.847656 45.851562 Z M 257.847656 45.851562 "/>
<path style=" stroke:none;fill-rule:nonzero;fill:rgb(0%,0%,0%);fill-opacity:1;" d="M 267.828125 46.242188 L 267.828125 47.375 C 267.488281 47.199219 267.140625 47.070312 266.773438 46.984375 C 266.410156 46.898438 266.03125 46.851562 265.640625 46.851562 C 265.046875 46.851562 264.601562 46.945312 264.300781 47.125 C 264.003906 47.308594 263.855469 47.582031 263.855469 47.945312 C 263.855469 48.222656 263.964844 48.441406 264.175781 48.601562 C 264.386719 48.757812 264.816406 48.910156 265.457031 49.054688 L 265.871094 49.144531 C 266.71875 49.328125 267.324219 49.582031 267.683594 49.914062 C 268.039062 50.246094 268.21875 50.710938 268.21875 51.304688 C 268.21875 51.984375 267.953125 52.519531 267.414062 52.914062 C 266.878906 53.308594 266.140625 53.507812 265.203125 53.507812 C 264.8125 53.507812 264.40625 53.46875 263.984375 53.394531 C 263.558594 53.316406 263.113281 53.203125 262.644531 53.050781 L 262.644531 51.8125 C 263.089844 52.042969 263.527344 52.21875 263.953125 52.332031 C 264.382812 52.445312 264.808594 52.503906 265.230469 52.503906 C 265.796875 52.503906 266.230469 52.40625 266.53125 52.214844 C 266.835938 52.019531 266.988281 51.75 266.988281 51.398438 C 266.988281 51.070312 266.878906 50.824219 266.660156 50.648438 C 266.441406 50.476562 265.960938 50.308594 265.21875 50.148438 L 264.800781 50.050781 C 264.058594 49.894531 263.523438 49.652344 263.191406 49.332031 C 262.863281 49.007812 262.699219 48.5625 262.699219 48 C 262.699219 47.3125 262.941406 46.785156 263.425781 46.410156 C 263.914062 46.039062 264.605469 45.851562 265.5 45.851562 C 265.941406 45.851562 266.355469 45.882812 266.746094 45.949219 C 267.136719 46.011719 267.5 46.109375 267.828125 46.242188 Z M 267.828125 46.242188 "/>
<path style=" stroke:none;fill-rule:nonzero;fill:rgb(0%,0%,0%);fill-opacity:1;" d="M 274.773438 46.242188 L 274.773438 47.375 C 274.4375 47.199219 274.085938 47.070312 273.71875 46.984375 C 273.355469 46.898438 272.976562 46.851562 272.585938 46.851562 C 271.992188 46.851562 271.546875 46.945312 271.25 47.125 C 270.953125 47.308594 270.804688 47.582031 270.804688 47.945312 C 270.804688 48.222656 270.910156 48.441406 271.121094 48.601562 C 271.335938 48.757812 271.761719 48.910156 272.40625 49.054688 L 272.816406 49.144531 C 273.664062 49.328125 274.269531 49.582031 274.628906 49.914062 C 274.988281 50.246094 275.164062 50.710938 275.164062 51.304688 C 275.164062 51.984375 274.898438 52.519531 274.363281 52.914062 C 273.824219 53.308594 273.089844 53.507812 272.152344 53.507812 C 271.761719 53.507812 271.355469 53.46875 270.929688 53.394531 C 270.507812 53.316406 270.0625 53.203125 269.59375 53.050781 L 269.59375 51.8125 C 270.035156 52.042969 270.472656 52.21875 270.902344 52.332031 C 271.332031 52.445312 271.757812 52.503906 272.179688 52.503906 C 272.742188 52.503906 273.175781 52.40625 273.476562 52.214844 C 273.78125 52.019531 273.933594 51.75 273.933594 51.398438 C 273.933594 51.070312 273.824219 50.824219 273.605469 50.648438 C 273.386719 50.476562 272.90625 50.308594 272.164062 50.148438 L 271.746094 50.050781 C 271.003906 49.894531 270.46875 49.652344 270.140625 49.332031 C 269.808594 49.007812 269.644531 48.5625 269.644531 48 C 269.644531 47.3125 269.886719 46.785156 270.375 46.410156 C 270.859375 46.039062 271.550781 45.851562 272.445312 45.851562 C 272.886719 45.851562 273.300781 45.882812 273.691406 45.949219 C 274.085938 46.011719 274.445312 46.109375 274.773438 46.242188 Z M 274.773438 46.242188 "/>
</g>
</svg>
