<?xml version="1.0" encoding="UTF-8"?>
<svg xmlns="http://www.w3.org/2000/svg" xmlns:xlink="http://www.w3.org/1999/xlink" width="439.975016" height="244.474996" viewBox="0 0 439.975016 244.474996" version="1.1">
<defs>
<clipPath id="clip1">
  <path d="M 74 9.601562 L 77 9.601562 L 77 194.398438 L 74 194.398438 Z M 74 9.601562 "/>
</clipPath>
<clipPath id="clip2">
  <path d="M 117 9.601562 L 119 9.601562 L 119 194.398438 L 117 194.398438 Z M 117 9.601562 "/>
</clipPath>
<clipPath id="clip3">
  <path d="M 159 9.601562 L 162 9.601562 L 162 194.398438 L 159 194.398438 Z M 159 9.601562 "/>
</clipPath>
<clipPath id="clip4">
  <path d="M 202 9.601562 L 204 9.601562 L 204 194.398438 L 202 194.398438 Z M 202 9.601562 "/>
</clipPath>
<clipPath id="clip5">
  <path d="M 244 9.601562 L 247 9.601562 L 247 194.398438 L 244 194.398438 Z M 244 9.601562 "/>
</clipPath>
<clipPath id="clip6">
  <path d="M 287 9.601562 L 289 9.601562 L 289 194.398438 L 287 194.398438 Z M 287 9.601562 "/>
</clipPath>
<clipPath id="clip7">
  <path d="M 329 9.601562 L 332 9.601562 L 332 194.398438 L 329 194.398438 Z M 329 9.601562 "/>
</clipPath>
<clipPath id="clip8">
  <path d="M 372 9.601562 L 374 9.601562 L 374 194.398438 L 372 194.398438 Z M 372 9.601562 "/>
</clipPath>
<clipPath id="clip9">
  <path d="M 414 9.601562 L 417 9.601562 L 417 194.398438 L 414 194.398438 Z M 414 9.601562 "/>
</clipPath>
<clipPath id="clip10">
  <path d="M 58.375 185 L 430.375 185 L 430.375 187 L 58.375 187 Z M 58.375 185 "/>
</clipPath>
<clipPath id="clip11">
  <path d="M 58.375 151 L 430.375 151 L 430.375 154 L 58.375 154 Z M 58.375 151 "/>
</clipPath>
<clipPath id="clip12">
  <path d="M 58.375 118 L 430.375 118 L 430.375 120 L 58.375 120 Z M 58.375 118 "/>
</clipPath>
<clipPath id="clip13">
  <path d="M 58.375 84 L 430.375 84 L 430.375 86 L 58.375 86 Z M 58.375 84 "/>
</clipPath>
<clipPath id="clip14">
  <path d="M 58.375 50 L 430.375 50 L 430.375 53 L 58.375 53 Z M 58.375 50 "/>
</clipPath>
<clipPath id="clip15">
  <path d="M 58.375 17 L 430.375 17 L 430.375 19 L 58.375 19 Z M 58.375 17 "/>
</clipPath>
</defs>
<g id="surface1">
<path style=" stroke:none;fill-rule:nonzero;fill:rgb(100%,100%,100%);fill-opacity:1;" d="M 0 244.476562 L 439.976562 244.476562 L 439.976562 0 L 0 0 Z M 0 244.476562 "/>
<path style=" stroke:none;fill-rule:nonzero;fill:rgb(100%,100%,100%);fill-opacity:1;" d="M 58.375 194.398438 L 430.375 194.398438 L 430.375 9.601562 L 58.375 9.601562 Z M 58.375 194.398438 "/>
<g clip-path="url(#clip1)" clip-rule="nonzero">
<path style="fill:none;stroke-width:0.8;stroke-linecap:square;stroke-linejoin:round;stroke:rgb(69.01961%,69.01961%,69.01961%);stroke-opacity:1;stroke-miterlimit:4;" d="M 56.463867 145.798828 L 56.463867 7.201172 " transform="matrix(1.333333,0,0,1.333333,-0.000000000000028422,-0.000000000000014211)"/>
</g>
<path style="fill:none;stroke-width:0.8;stroke-linecap:butt;stroke-linejoin:round;stroke:rgb(0%,0%,0%);stroke-opacity:1;stroke-miterlimit:4;" d="M 0.000801086 -0.00117493 L 0.000801086 3.499802 " transform="matrix(1.333333,0,0,1.333333,75.284088,194.400004)"/>
<path style=" stroke:none;fill-rule:nonzero;fill:rgb(0%,0%,0%);fill-opacity:1;" d="M 66.867188 209.132812 L 75.214844 209.132812 L 75.214844 210.238281 L 66.867188 210.238281 Z M 66.867188 209.132812 "/>
<path style=" stroke:none;fill-rule:nonzero;fill:rgb(0%,0%,0%);fill-opacity:1;" d="M 80.867188 209.246094 C 80.242188 209.246094 79.75 209.414062 79.390625 209.75 C 79.035156 210.085938 78.855469 210.542969 78.855469 211.128906 C 78.855469 211.714844 79.035156 212.175781 79.390625 212.511719 C 79.75 212.84375 80.242188 213.011719 80.867188 213.011719 C 81.492188 213.011719 81.984375 212.84375 82.34375 212.507812 C 82.703125 212.171875 82.882812 211.710938 82.882812 211.128906 C 82.882812 210.542969 82.703125 210.085938 82.347656 209.75 C 81.988281 209.414062 81.496094 209.246094 80.867188 209.246094 Z M 79.550781 208.691406 C 78.988281 208.550781 78.546875 208.289062 78.230469 207.902344 C 77.917969 207.515625 77.761719 207.042969 77.761719 206.488281 C 77.761719 205.710938 78.039062 205.097656 78.589844 204.644531 C 79.144531 204.195312 79.902344 203.96875 80.867188 203.96875 C 81.832031 203.96875 82.59375 204.195312 83.144531 204.644531 C 83.695312 205.097656 83.972656 205.710938 83.972656 206.488281 C 83.972656 207.042969 83.8125 207.515625 83.5 207.902344 C 83.183594 208.289062 82.746094 208.550781 82.1875 208.691406 C 82.820312 208.835938 83.316406 209.125 83.667969 209.554688 C 84.023438 209.984375 84.199219 210.507812 84.199219 211.128906 C 84.199219 212.070312 83.910156 212.796875 83.335938 213.300781 C 82.761719 213.804688 81.9375 214.054688 80.867188 214.054688 C 79.792969 214.054688 78.972656 213.804688 78.394531 213.300781 C 77.820312 212.796875 77.53125 212.070312 77.53125 211.128906 C 77.53125 210.507812 77.710938 209.984375 78.066406 209.554688 C 78.421875 209.125 78.917969 208.835938 79.550781 208.691406 Z M 79.070312 206.613281 C 79.070312 207.117188 79.226562 207.507812 79.539062 207.789062 C 79.855469 208.070312 80.296875 208.210938 80.867188 208.210938 C 81.429688 208.210938 81.871094 208.070312 82.191406 207.789062 C 82.511719 207.507812 82.667969 207.117188 82.667969 206.613281 C 82.667969 206.109375 82.511719 205.714844 82.191406 205.433594 C 81.871094 205.152344 81.429688 205.011719 80.867188 205.011719 C 80.296875 205.011719 79.855469 205.152344 79.539062 205.433594 C 79.226562 205.714844 79.070312 206.109375 79.070312 206.613281 Z M 79.070312 206.613281 "/>
<g clip-path="url(#clip2)" clip-rule="nonzero">
<path style="fill:none;stroke-width:0.8;stroke-linecap:square;stroke-linejoin:round;stroke:rgb(69.01961%,69.01961%,69.01961%);stroke-opacity:1;stroke-miterlimit:4;" d="M 88.368164 145.798828 L 88.368164 7.201172 " transform="matrix(1.333333,0,0,1.333333,-0.000000000000028422,-0.000000000000014211)"/>
</g>
<path style="fill:none;stroke-width:0.8;stroke-linecap:butt;stroke-linejoin:round;stroke:rgb(0%,0%,0%);stroke-opacity:1;stroke-miterlimit:4;" d="M 0.00115204 -0.00117493 L 0.00115204 3.499802 " transform="matrix(1.333333,0,0,1.333333,117.822683,194.400004)"/>
<path style=" stroke:none;fill-rule:nonzero;fill:rgb(0%,0%,0%);fill-opacity:1;" d="M 109.40625 209.132812 L 117.753906 209.132812 L 117.753906 210.238281 L 109.40625 210.238281 Z M 109.40625 209.132812 "/>
<path style=" stroke:none;fill-rule:nonzero;fill:rgb(0%,0%,0%);fill-opacity:1;" d="M 123.570312 208.480469 C 122.976562 208.480469 122.511719 208.683594 122.164062 209.085938 C 121.820312 209.492188 121.648438 210.042969 121.648438 210.746094 C 121.648438 211.445312 121.820312 211.996094 122.164062 212.402344 C 122.511719 212.808594 122.976562 213.011719 123.570312 213.011719 C 124.160156 213.011719 124.625 212.808594 124.96875 212.402344 C 125.316406 211.996094 125.488281 211.445312 125.488281 210.746094 C 125.488281 210.042969 125.316406 209.492188 124.96875 209.085938 C 124.625 208.683594 124.160156 208.480469 123.570312 208.480469 Z M 126.179688 204.359375 L 126.179688 205.554688 C 125.847656 205.402344 125.515625 205.28125 125.179688 205.199219 C 124.84375 205.117188 124.507812 205.074219 124.179688 205.074219 C 123.3125 205.074219 122.648438 205.367188 122.1875 205.953125 C 121.730469 206.539062 121.472656 207.425781 121.40625 208.609375 C 121.660156 208.234375 121.980469 207.941406 122.367188 207.742188 C 122.757812 207.539062 123.183594 207.441406 123.644531 207.441406 C 124.621094 207.441406 125.394531 207.734375 125.960938 208.328125 C 126.527344 208.921875 126.808594 209.726562 126.808594 210.746094 C 126.808594 211.746094 126.515625 212.546875 125.925781 213.148438 C 125.335938 213.753906 124.550781 214.054688 123.570312 214.054688 C 122.445312 214.054688 121.582031 213.625 120.988281 212.761719 C 120.394531 211.898438 120.097656 210.652344 120.097656 209.015625 C 120.097656 207.476562 120.460938 206.253906 121.191406 205.339844 C 121.921875 204.425781 122.898438 203.96875 124.125 203.96875 C 124.457031 203.96875 124.789062 204 125.125 204.066406 C 125.464844 204.132812 125.8125 204.230469 126.179688 204.359375 Z M 126.179688 204.359375 "/>
<g clip-path="url(#clip3)" clip-rule="nonzero">
<path style="fill:none;stroke-width:0.8;stroke-linecap:square;stroke-linejoin:round;stroke:rgb(69.01961%,69.01961%,69.01961%);stroke-opacity:1;stroke-miterlimit:4;" d="M 120.269531 145.798828 L 120.269531 7.201172 " transform="matrix(1.333333,0,0,1.333333,-0.000000000000028422,-0.000000000000014211)"/>
</g>
<path style="fill:none;stroke-width:0.8;stroke-linecap:butt;stroke-linejoin:round;stroke:rgb(0%,0%,0%);stroke-opacity:1;stroke-miterlimit:4;" d="M -0.0014267 -0.00117493 L -0.0014267 3.499802 " transform="matrix(1.333333,0,0,1.333333,160.361277,194.400004)"/>
<path style=" stroke:none;fill-rule:nonzero;fill:rgb(0%,0%,0%);fill-opacity:1;" d="M 151.945312 209.132812 L 160.292969 209.132812 L 160.292969 210.238281 L 151.945312 210.238281 Z M 151.945312 209.132812 "/>
<path style=" stroke:none;fill-rule:nonzero;fill:rgb(0%,0%,0%);fill-opacity:1;" d="M 166.746094 205.289062 L 163.421875 210.480469 L 166.746094 210.480469 Z M 166.398438 204.144531 L 168.054688 204.144531 L 168.054688 210.480469 L 169.441406 210.480469 L 169.441406 211.574219 L 168.054688 211.574219 L 168.054688 213.863281 L 166.746094 213.863281 L 166.746094 211.574219 L 162.355469 211.574219 L 162.355469 210.304688 Z M 166.398438 204.144531 "/>
<g clip-path="url(#clip4)" clip-rule="nonzero">
<path style="fill:none;stroke-width:0.8;stroke-linecap:square;stroke-linejoin:round;stroke:rgb(69.01961%,69.01961%,69.01961%);stroke-opacity:1;stroke-miterlimit:4;" d="M 152.173828 145.798828 L 152.173828 7.201172 " transform="matrix(1.333333,0,0,1.333333,-0.000000000000028422,-0.000000000000014211)"/>
</g>
<path style="fill:none;stroke-width:0.8;stroke-linecap:butt;stroke-linejoin:round;stroke:rgb(0%,0%,0%);stroke-opacity:1;stroke-miterlimit:4;" d="M -0.00106812 -0.00117493 L -0.00106812 3.499802 " transform="matrix(1.333333,0,0,1.333333,202.899862,194.400004)"/>
<path style=" stroke:none;fill-rule:nonzero;fill:rgb(0%,0%,0%);fill-opacity:1;" d="M 194.484375 209.132812 L 202.828125 209.132812 L 202.828125 210.238281 L 194.484375 210.238281 Z M 194.484375 209.132812 "/>
<path style=" stroke:none;fill-rule:nonzero;fill:rgb(0%,0%,0%);fill-opacity:1;" d="M 206.800781 212.757812 L 211.390625 212.757812 L 211.390625 213.863281 L 205.21875 213.863281 L 205.21875 212.757812 C 205.71875 212.242188 206.398438 211.546875 207.261719 210.679688 C 208.121094 209.808594 208.664062 209.246094 208.886719 208.992188 C 209.304688 208.523438 209.601562 208.121094 209.765625 207.792969 C 209.933594 207.464844 210.019531 207.144531 210.019531 206.828125 C 210.019531 206.308594 209.835938 205.890625 209.476562 205.566406 C 209.113281 205.238281 208.640625 205.074219 208.058594 205.074219 C 207.644531 205.074219 207.210938 205.148438 206.75 205.289062 C 206.296875 205.433594 205.804688 205.648438 205.285156 205.941406 L 205.285156 204.613281 C 205.8125 204.398438 206.308594 204.238281 206.769531 204.132812 C 207.230469 204.023438 207.652344 203.96875 208.03125 203.96875 C 209.039062 203.96875 209.84375 204.222656 210.441406 204.726562 C 211.039062 205.226562 211.339844 205.898438 211.339844 206.742188 C 211.339844 207.140625 211.265625 207.519531 211.113281 207.878906 C 210.964844 208.234375 210.695312 208.65625 210.296875 209.144531 C 210.1875 209.269531 209.84375 209.632812 209.261719 210.234375 C 208.683594 210.835938 207.863281 211.679688 206.800781 212.757812 Z M 206.800781 212.757812 "/>
<g clip-path="url(#clip5)" clip-rule="nonzero">
<path style="fill:none;stroke-width:0.8;stroke-linecap:square;stroke-linejoin:round;stroke:rgb(69.01961%,69.01961%,69.01961%);stroke-opacity:1;stroke-miterlimit:4;" d="M 184.078125 145.798828 L 184.078125 7.201172 " transform="matrix(1.333333,0,0,1.333333,-0.000000000000028422,-0.000000000000014211)"/>
</g>
<path style="fill:none;stroke-width:0.8;stroke-linecap:butt;stroke-linejoin:round;stroke:rgb(0%,0%,0%);stroke-opacity:1;stroke-miterlimit:4;" d="M -0.000717163 -0.00117493 L -0.000717163 3.499802 " transform="matrix(1.333333,0,0,1.333333,245.438456,194.400004)"/>
<path style=" stroke:none;fill-rule:nonzero;fill:rgb(0%,0%,0%);fill-opacity:1;" d="M 245.433594 205.011719 C 244.757812 205.011719 244.25 205.34375 243.90625 206.011719 C 243.566406 206.675781 243.398438 207.675781 243.398438 209.015625 C 243.398438 210.347656 243.566406 211.347656 243.90625 212.011719 C 244.25 212.679688 244.757812 213.011719 245.433594 213.011719 C 246.117188 213.011719 246.628906 212.679688 246.96875 212.011719 C 247.308594 211.347656 247.480469 210.347656 247.480469 209.015625 C 247.480469 207.675781 247.308594 206.675781 246.96875 206.011719 C 246.628906 205.34375 246.117188 205.011719 245.433594 205.011719 Z M 245.433594 203.96875 C 246.523438 203.96875 247.355469 204.398438 247.933594 205.261719 C 248.507812 206.125 248.792969 207.375 248.792969 209.015625 C 248.792969 210.652344 248.507812 211.898438 247.933594 212.761719 C 247.355469 213.625 246.523438 214.054688 245.433594 214.054688 C 244.34375 214.054688 243.511719 213.625 242.9375 212.761719 C 242.363281 211.898438 242.074219 210.652344 242.074219 209.015625 C 242.074219 207.375 242.363281 206.125 242.9375 205.261719 C 243.511719 204.398438 244.34375 203.96875 245.433594 203.96875 Z M 245.433594 203.96875 "/>
<g clip-path="url(#clip6)" clip-rule="nonzero">
<path style="fill:none;stroke-width:0.8;stroke-linecap:square;stroke-linejoin:round;stroke:rgb(69.01961%,69.01961%,69.01961%);stroke-opacity:1;stroke-miterlimit:4;" d="M 215.982422 145.798828 L 215.982422 7.201172 " transform="matrix(1.333333,0,0,1.333333,-0.000000000000028422,-0.000000000000014211)"/>
</g>
<path style="fill:none;stroke-width:0.8;stroke-linecap:butt;stroke-linejoin:round;stroke:rgb(0%,0%,0%);stroke-opacity:1;stroke-miterlimit:4;" d="M -0.000366211 -0.00117493 L -0.000366211 3.499802 " transform="matrix(1.333333,0,0,1.333333,287.977051,194.400004)"/>
<path style=" stroke:none;fill-rule:nonzero;fill:rgb(0%,0%,0%);fill-opacity:1;" d="M 286.292969 212.757812 L 290.882812 212.757812 L 290.882812 213.863281 L 284.710938 213.863281 L 284.710938 212.757812 C 285.210938 212.242188 285.890625 211.546875 286.753906 210.679688 C 287.613281 209.808594 288.15625 209.246094 288.378906 208.992188 C 288.796875 208.523438 289.089844 208.121094 289.257812 207.792969 C 289.425781 207.464844 289.511719 207.144531 289.511719 206.828125 C 289.511719 206.308594 289.328125 205.890625 288.964844 205.566406 C 288.605469 205.238281 288.132812 205.074219 287.550781 205.074219 C 287.136719 205.074219 286.703125 205.148438 286.242188 205.289062 C 285.785156 205.433594 285.296875 205.648438 284.777344 205.941406 L 284.777344 204.613281 C 285.304688 204.398438 285.800781 204.238281 286.261719 204.132812 C 286.722656 204.023438 287.144531 203.96875 287.523438 203.96875 C 288.53125 203.96875 289.335938 204.222656 289.933594 204.726562 C 290.53125 205.226562 290.832031 205.898438 290.832031 206.742188 C 290.832031 207.140625 290.757812 207.519531 290.605469 207.878906 C 290.457031 208.234375 290.183594 208.65625 289.789062 209.144531 C 289.679688 209.269531 289.335938 209.632812 288.753906 210.234375 C 288.171875 210.835938 287.351562 211.679688 286.292969 212.757812 Z M 286.292969 212.757812 "/>
<g clip-path="url(#clip7)" clip-rule="nonzero">
<path style="fill:none;stroke-width:0.8;stroke-linecap:square;stroke-linejoin:round;stroke:rgb(69.01961%,69.01961%,69.01961%);stroke-opacity:1;stroke-miterlimit:4;" d="M 247.886719 145.798828 L 247.886719 7.201172 " transform="matrix(1.333333,0,0,1.333333,-0.000000000000028422,-0.000000000000014211)"/>
</g>
<path style="fill:none;stroke-width:0.8;stroke-linecap:butt;stroke-linejoin:round;stroke:rgb(0%,0%,0%);stroke-opacity:1;stroke-miterlimit:4;" d="M -0.0000152588 -0.00117493 L -0.0000152588 3.499802 " transform="matrix(1.333333,0,0,1.333333,330.515645,194.400004)"/>
<path style=" stroke:none;fill-rule:nonzero;fill:rgb(0%,0%,0%);fill-opacity:1;" d="M 331.3125 205.289062 L 327.992188 210.480469 L 331.3125 210.480469 Z M 330.96875 204.144531 L 332.621094 204.144531 L 332.621094 210.480469 L 334.007812 210.480469 L 334.007812 211.574219 L 332.621094 211.574219 L 332.621094 213.863281 L 331.3125 213.863281 L 331.3125 211.574219 L 326.925781 211.574219 L 326.925781 210.304688 Z M 330.96875 204.144531 "/>
<g clip-path="url(#clip8)" clip-rule="nonzero">
<path style="fill:none;stroke-width:0.8;stroke-linecap:square;stroke-linejoin:round;stroke:rgb(69.01961%,69.01961%,69.01961%);stroke-opacity:1;stroke-miterlimit:4;" d="M 279.791016 145.798828 L 279.791016 7.201172 " transform="matrix(1.333333,0,0,1.333333,-0.000000000000028422,-0.000000000000014211)"/>
</g>
<path style="fill:none;stroke-width:0.8;stroke-linecap:butt;stroke-linejoin:round;stroke:rgb(0%,0%,0%);stroke-opacity:1;stroke-miterlimit:4;" d="M 0.000335693 -0.00117493 L 0.000335693 3.499802 " transform="matrix(1.333333,0,0,1.333333,373.05424,194.400004)"/>
<path style=" stroke:none;fill-rule:nonzero;fill:rgb(0%,0%,0%);fill-opacity:1;" d="M 373.214844 208.480469 C 372.625 208.480469 372.15625 208.683594 371.808594 209.085938 C 371.464844 209.492188 371.292969 210.042969 371.292969 210.746094 C 371.292969 211.445312 371.464844 211.996094 371.808594 212.402344 C 372.15625 212.808594 372.625 213.011719 373.214844 213.011719 C 373.804688 213.011719 374.273438 212.808594 374.617188 212.402344 C 374.960938 211.996094 375.132812 211.445312 375.132812 210.746094 C 375.132812 210.042969 374.960938 209.492188 374.617188 209.085938 C 374.273438 208.683594 373.804688 208.480469 373.214844 208.480469 Z M 375.824219 204.359375 L 375.824219 205.554688 C 375.496094 205.402344 375.160156 205.28125 374.824219 205.199219 C 374.488281 205.117188 374.15625 205.074219 373.824219 205.074219 C 372.957031 205.074219 372.292969 205.367188 371.835938 205.953125 C 371.378906 206.539062 371.117188 207.425781 371.050781 208.609375 C 371.308594 208.234375 371.628906 207.941406 372.015625 207.742188 C 372.402344 207.539062 372.828125 207.441406 373.292969 207.441406 C 374.269531 207.441406 375.039062 207.734375 375.605469 208.328125 C 376.171875 208.921875 376.457031 209.726562 376.457031 210.746094 C 376.457031 211.746094 376.160156 212.546875 375.570312 213.148438 C 374.980469 213.753906 374.195312 214.054688 373.214844 214.054688 C 372.089844 214.054688 371.230469 213.625 370.636719 212.761719 C 370.042969 211.898438 369.742188 210.652344 369.742188 209.015625 C 369.742188 207.476562 370.109375 206.253906 370.835938 205.339844 C 371.566406 204.425781 372.546875 203.96875 373.773438 203.96875 C 374.105469 203.96875 374.4375 204 374.773438 204.066406 C 375.109375 204.132812 375.460938 204.230469 375.824219 204.359375 Z M 375.824219 204.359375 "/>
<g clip-path="url(#clip9)" clip-rule="nonzero">
<path style="fill:none;stroke-width:0.8;stroke-linecap:square;stroke-linejoin:round;stroke:rgb(69.01961%,69.01961%,69.01961%);stroke-opacity:1;stroke-miterlimit:4;" d="M 311.695312 145.798828 L 311.695312 7.201172 " transform="matrix(1.333333,0,0,1.333333,-0.000000000000028422,-0.000000000000014211)"/>
</g>
<path style="fill:none;stroke-width:0.8;stroke-linecap:butt;stroke-linejoin:round;stroke:rgb(0%,0%,0%);stroke-opacity:1;stroke-miterlimit:4;" d="M 0.000701904 -0.00117493 L 0.000701904 3.499802 " transform="matrix(1.333333,0,0,1.333333,415.592814,194.400004)"/>
<path style=" stroke:none;fill-rule:nonzero;fill:rgb(0%,0%,0%);fill-opacity:1;" d="M 415.589844 209.246094 C 414.964844 209.246094 414.472656 209.414062 414.113281 209.75 C 413.757812 210.085938 413.578125 210.542969 413.578125 211.128906 C 413.578125 211.714844 413.757812 212.175781 414.113281 212.511719 C 414.472656 212.84375 414.964844 213.011719 415.589844 213.011719 C 416.214844 213.011719 416.707031 212.84375 417.066406 212.507812 C 417.425781 212.171875 417.605469 211.710938 417.605469 211.128906 C 417.605469 210.542969 417.429688 210.085938 417.070312 209.75 C 416.714844 209.414062 416.21875 209.246094 415.589844 209.246094 Z M 414.273438 208.691406 C 413.710938 208.550781 413.269531 208.289062 412.957031 207.902344 C 412.640625 207.515625 412.484375 207.042969 412.484375 206.488281 C 412.484375 205.710938 412.761719 205.097656 413.3125 204.644531 C 413.867188 204.195312 414.625 203.96875 415.589844 203.96875 C 416.558594 203.96875 417.316406 204.195312 417.867188 204.644531 C 418.417969 205.097656 418.695312 205.710938 418.695312 206.488281 C 418.695312 207.042969 418.539062 207.515625 418.222656 207.902344 C 417.90625 208.289062 417.472656 208.550781 416.910156 208.691406 C 417.542969 208.835938 418.039062 209.125 418.390625 209.554688 C 418.746094 209.984375 418.921875 210.507812 418.921875 211.128906 C 418.921875 212.070312 418.632812 212.796875 418.058594 213.300781 C 417.484375 213.804688 416.660156 214.054688 415.589844 214.054688 C 414.519531 214.054688 413.695312 213.804688 413.117188 213.300781 C 412.542969 212.796875 412.253906 212.070312 412.253906 211.128906 C 412.253906 210.507812 412.433594 209.984375 412.789062 209.554688 C 413.144531 209.125 413.640625 208.835938 414.273438 208.691406 Z M 413.792969 206.613281 C 413.792969 207.117188 413.949219 207.507812 414.261719 207.789062 C 414.578125 208.070312 415.019531 208.210938 415.589844 208.210938 C 416.152344 208.210938 416.59375 208.070312 416.914062 207.789062 C 417.234375 207.507812 417.394531 207.117188 417.394531 206.613281 C 417.394531 206.109375 417.234375 205.714844 416.914062 205.433594 C 416.59375 205.152344 416.152344 205.011719 415.589844 205.011719 C 415.019531 205.011719 414.578125 205.152344 414.261719 205.433594 C 413.949219 205.714844 413.792969 206.109375 413.792969 206.613281 Z M 413.792969 206.613281 "/>
<path style=" stroke:none;fill-rule:nonzero;fill:rgb(0%,0%,0%);fill-opacity:1;" d="M 247.746094 224.808594 L 245.109375 228.359375 L 247.882812 232.101562 L 246.472656 232.101562 L 244.347656 229.238281 L 242.226562 232.101562 L 240.8125 232.101562 L 243.644531 228.289062 L 241.054688 224.808594 L 242.464844 224.808594 L 244.398438 227.410156 L 246.332031 224.808594 Z M 247.746094 224.808594 "/>
<g clip-path="url(#clip10)" clip-rule="nonzero">
<path style="fill:none;stroke-width:0.8;stroke-linecap:square;stroke-linejoin:round;stroke:rgb(69.01961%,69.01961%,69.01961%);stroke-opacity:1;stroke-miterlimit:4;" d="M 43.78125 139.5 L 322.78125 139.5 " transform="matrix(1.333333,0,0,1.333333,-0.000000000000028422,-0.000000000000014211)"/>
</g>
<path style="fill:none;stroke-width:0.8;stroke-linecap:butt;stroke-linejoin:round;stroke:rgb(0%,0%,0%);stroke-opacity:1;stroke-miterlimit:4;" d="M 0.000000000000014211 -0.000000000000028422 L -3.500977 -0.000000000000028422 " transform="matrix(1.333333,0,0,1.333333,58.375,186)"/>
<path style=" stroke:none;fill-rule:nonzero;fill:rgb(0%,0%,0%);fill-opacity:1;" d="M 32.074219 182.210938 C 31.398438 182.210938 30.890625 182.542969 30.546875 183.210938 C 30.207031 183.875 30.039062 184.878906 30.039062 186.214844 C 30.039062 187.546875 30.207031 188.546875 30.546875 189.214844 C 30.890625 189.878906 31.398438 190.214844 32.074219 190.214844 C 32.757812 190.214844 33.269531 189.878906 33.609375 189.214844 C 33.949219 188.546875 34.121094 187.546875 34.121094 186.214844 C 34.121094 184.878906 33.949219 183.875 33.609375 183.210938 C 33.269531 182.542969 32.757812 182.210938 32.074219 182.210938 Z M 32.074219 181.167969 C 33.164062 181.167969 33.996094 181.601562 34.574219 182.464844 C 35.148438 183.324219 35.433594 184.574219 35.433594 186.214844 C 35.433594 187.851562 35.148438 189.101562 34.574219 189.964844 C 33.996094 190.824219 33.164062 191.253906 32.074219 191.253906 C 30.984375 191.253906 30.152344 190.824219 29.578125 189.964844 C 29.003906 189.101562 28.714844 187.851562 28.714844 186.214844 C 28.714844 184.574219 29.003906 183.324219 29.578125 182.464844 C 30.152344 181.601562 30.984375 181.167969 32.074219 181.167969 Z M 32.074219 181.167969 "/>
<path style=" stroke:none;fill-rule:nonzero;fill:rgb(0%,0%,0%);fill-opacity:1;" d="M 37.746094 189.410156 L 39.121094 189.410156 L 39.121094 191.066406 L 37.746094 191.066406 Z M 37.746094 189.410156 "/>
<path style=" stroke:none;fill-rule:nonzero;fill:rgb(0%,0%,0%);fill-opacity:1;" d="M 44.796875 182.210938 C 44.121094 182.210938 43.609375 182.542969 43.269531 183.210938 C 42.929688 183.875 42.757812 184.878906 42.757812 186.214844 C 42.757812 187.546875 42.929688 188.546875 43.269531 189.214844 C 43.609375 189.878906 44.121094 190.214844 44.796875 190.214844 C 45.476562 190.214844 45.988281 189.878906 46.328125 189.214844 C 46.671875 188.546875 46.84375 187.546875 46.84375 186.214844 C 46.84375 184.878906 46.671875 183.875 46.328125 183.210938 C 45.988281 182.542969 45.476562 182.210938 44.796875 182.210938 Z M 44.796875 181.167969 C 45.886719 181.167969 46.71875 181.601562 47.292969 182.464844 C 47.871094 183.324219 48.15625 184.574219 48.15625 186.214844 C 48.15625 187.851562 47.871094 189.101562 47.292969 189.964844 C 46.71875 190.824219 45.886719 191.253906 44.796875 191.253906 C 43.707031 191.253906 42.875 190.824219 42.300781 189.964844 C 41.726562 189.101562 41.4375 187.851562 41.4375 186.214844 C 41.4375 184.574219 41.726562 183.324219 42.300781 182.464844 C 42.875 181.601562 43.707031 181.167969 44.796875 181.167969 Z M 44.796875 181.167969 "/>
<g clip-path="url(#clip11)" clip-rule="nonzero">
<path style="fill:none;stroke-width:0.8;stroke-linecap:square;stroke-linejoin:round;stroke:rgb(69.01961%,69.01961%,69.01961%);stroke-opacity:1;stroke-miterlimit:4;" d="M 43.78125 114.298828 L 322.78125 114.298828 " transform="matrix(1.333333,0,0,1.333333,-0.000000000000028422,-0.000000000000014211)"/>
</g>
<path style="fill:none;stroke-width:0.8;stroke-linecap:butt;stroke-linejoin:round;stroke:rgb(0%,0%,0%);stroke-opacity:1;stroke-miterlimit:4;" d="M 0.000000000000014211 -0.00117493 L -3.500977 -0.00117493 " transform="matrix(1.333333,0,0,1.333333,58.375,152.400004)"/>
<path style=" stroke:none;fill-rule:nonzero;fill:rgb(0%,0%,0%);fill-opacity:1;" d="M 32.074219 148.613281 C 31.398438 148.613281 30.890625 148.945312 30.546875 149.613281 C 30.207031 150.277344 30.039062 151.277344 30.039062 152.617188 C 30.039062 153.949219 30.207031 154.945312 30.546875 155.613281 C 30.890625 156.28125 31.398438 156.613281 32.074219 156.613281 C 32.757812 156.613281 33.269531 156.28125 33.609375 155.613281 C 33.949219 154.945312 34.121094 153.949219 34.121094 152.617188 C 34.121094 151.277344 33.949219 150.277344 33.609375 149.613281 C 33.269531 148.945312 32.757812 148.613281 32.074219 148.613281 Z M 32.074219 147.570312 C 33.164062 147.570312 33.996094 148 34.574219 148.863281 C 35.148438 149.726562 35.433594 150.976562 35.433594 152.617188 C 35.433594 154.25 35.148438 155.5 34.574219 156.363281 C 33.996094 157.226562 33.164062 157.65625 32.074219 157.65625 C 30.984375 157.65625 30.152344 157.226562 29.578125 156.363281 C 29.003906 155.5 28.714844 154.25 28.714844 152.617188 C 28.714844 150.976562 29.003906 149.726562 29.578125 148.863281 C 30.152344 148 30.984375 147.570312 32.074219 147.570312 Z M 32.074219 147.570312 "/>
<path style=" stroke:none;fill-rule:nonzero;fill:rgb(0%,0%,0%);fill-opacity:1;" d="M 37.746094 155.8125 L 39.121094 155.8125 L 39.121094 157.464844 L 37.746094 157.464844 Z M 37.746094 155.8125 "/>
<path style=" stroke:none;fill-rule:nonzero;fill:rgb(0%,0%,0%);fill-opacity:1;" d="M 43.117188 156.359375 L 47.707031 156.359375 L 47.707031 157.464844 L 41.535156 157.464844 L 41.535156 156.359375 C 42.035156 155.84375 42.714844 155.148438 43.574219 154.28125 C 44.4375 153.410156 44.980469 152.847656 45.199219 152.59375 C 45.621094 152.121094 45.914062 151.722656 46.082031 151.394531 C 46.25 151.066406 46.332031 150.746094 46.332031 150.429688 C 46.332031 149.910156 46.152344 149.492188 45.789062 149.164062 C 45.425781 148.839844 44.957031 148.675781 44.375 148.675781 C 43.960938 148.675781 43.527344 148.746094 43.066406 148.890625 C 42.609375 149.035156 42.121094 149.25 41.601562 149.542969 L 41.601562 148.214844 C 42.128906 148 42.625 147.839844 43.082031 147.730469 C 43.546875 147.625 43.964844 147.570312 44.347656 147.570312 C 45.355469 147.570312 46.15625 147.820312 46.757812 148.324219 C 47.355469 148.828125 47.65625 149.5 47.65625 150.34375 C 47.65625 150.742188 47.578125 151.121094 47.429688 151.480469 C 47.28125 151.835938 47.007812 152.257812 46.613281 152.746094 C 46.503906 152.871094 46.160156 153.234375 45.578125 153.835938 C 44.996094 154.4375 44.175781 155.277344 43.117188 156.359375 Z M 43.117188 156.359375 "/>
<g clip-path="url(#clip12)" clip-rule="nonzero">
<path style="fill:none;stroke-width:0.8;stroke-linecap:square;stroke-linejoin:round;stroke:rgb(69.01961%,69.01961%,69.01961%);stroke-opacity:1;stroke-miterlimit:4;" d="M 43.78125 89.100586 L 322.78125 89.100586 " transform="matrix(1.333333,0,0,1.333333,-0.000000000000028422,-0.000000000000014211)"/>
</g>
<path style="fill:none;stroke-width:0.8;stroke-linecap:butt;stroke-linejoin:round;stroke:rgb(0%,0%,0%);stroke-opacity:1;stroke-miterlimit:4;" d="M 0.000000000000014211 0.000587463 L -3.500977 0.000587463 " transform="matrix(1.333333,0,0,1.333333,58.375,118.799998)"/>
<path style=" stroke:none;fill-rule:nonzero;fill:rgb(0%,0%,0%);fill-opacity:1;" d="M 32.074219 115.011719 C 31.398438 115.011719 30.890625 115.34375 30.546875 116.011719 C 30.207031 116.675781 30.039062 117.679688 30.039062 119.015625 C 30.039062 120.347656 30.207031 121.347656 30.546875 122.011719 C 30.890625 122.679688 31.398438 123.011719 32.074219 123.011719 C 32.757812 123.011719 33.269531 122.679688 33.609375 122.011719 C 33.949219 121.347656 34.121094 120.347656 34.121094 119.015625 C 34.121094 117.679688 33.949219 116.675781 33.609375 116.011719 C 33.269531 115.34375 32.757812 115.011719 32.074219 115.011719 Z M 32.074219 113.96875 C 33.164062 113.96875 33.996094 114.402344 34.574219 115.261719 C 35.148438 116.125 35.433594 117.375 35.433594 119.015625 C 35.433594 120.652344 35.148438 121.902344 34.574219 122.761719 C 33.996094 123.625 33.164062 124.054688 32.074219 124.054688 C 30.984375 124.054688 30.152344 123.625 29.578125 122.761719 C 29.003906 121.902344 28.714844 120.652344 28.714844 119.015625 C 28.714844 117.375 29.003906 116.125 29.578125 115.261719 C 30.152344 114.402344 30.984375 113.96875 32.074219 113.96875 Z M 32.074219 113.96875 "/>
<path style=" stroke:none;fill-rule:nonzero;fill:rgb(0%,0%,0%);fill-opacity:1;" d="M 37.746094 122.210938 L 39.121094 122.210938 L 39.121094 123.867188 L 37.746094 123.867188 Z M 37.746094 122.210938 "/>
<path style=" stroke:none;fill-rule:nonzero;fill:rgb(0%,0%,0%);fill-opacity:1;" d="M 45.597656 115.289062 L 42.277344 120.480469 L 45.597656 120.480469 Z M 45.253906 114.144531 L 46.90625 114.144531 L 46.90625 120.480469 L 48.292969 120.480469 L 48.292969 121.574219 L 46.90625 121.574219 L 46.90625 123.867188 L 45.597656 123.867188 L 45.597656 121.574219 L 41.210938 121.574219 L 41.210938 120.304688 Z M 45.253906 114.144531 "/>
<g clip-path="url(#clip13)" clip-rule="nonzero">
<path style="fill:none;stroke-width:0.8;stroke-linecap:square;stroke-linejoin:round;stroke:rgb(69.01961%,69.01961%,69.01961%);stroke-opacity:1;stroke-miterlimit:4;" d="M 43.78125 63.899414 L 322.78125 63.899414 " transform="matrix(1.333333,0,0,1.333333,-0.000000000000028422,-0.000000000000014211)"/>
</g>
<path style="fill:none;stroke-width:0.8;stroke-linecap:butt;stroke-linejoin:round;stroke:rgb(0%,0%,0%);stroke-opacity:1;stroke-miterlimit:4;" d="M 0.000000000000014211 -0.000587463 L -3.500977 -0.000587463 " transform="matrix(1.333333,0,0,1.333333,58.375,85.200002)"/>
<path style=" stroke:none;fill-rule:nonzero;fill:rgb(0%,0%,0%);fill-opacity:1;" d="M 32.074219 81.410156 C 31.398438 81.410156 30.890625 81.746094 30.546875 82.410156 C 30.207031 83.078125 30.039062 84.078125 30.039062 85.414062 C 30.039062 86.746094 30.207031 87.746094 30.546875 88.414062 C 30.890625 89.082031 31.398438 89.414062 32.074219 89.414062 C 32.757812 89.414062 33.269531 89.082031 33.609375 88.414062 C 33.949219 87.746094 34.121094 86.746094 34.121094 85.414062 C 34.121094 84.078125 33.949219 83.078125 33.609375 82.410156 C 33.269531 81.746094 32.757812 81.410156 32.074219 81.410156 Z M 32.074219 80.371094 C 33.164062 80.371094 33.996094 80.800781 34.574219 81.664062 C 35.148438 82.523438 35.433594 83.773438 35.433594 85.414062 C 35.433594 87.050781 35.148438 88.300781 34.574219 89.164062 C 33.996094 90.023438 33.164062 90.457031 32.074219 90.457031 C 30.984375 90.457031 30.152344 90.023438 29.578125 89.164062 C 29.003906 88.300781 28.714844 87.050781 28.714844 85.414062 C 28.714844 83.773438 29.003906 82.523438 29.578125 81.664062 C 30.152344 80.800781 30.984375 80.371094 32.074219 80.371094 Z M 32.074219 80.371094 "/>
<path style=" stroke:none;fill-rule:nonzero;fill:rgb(0%,0%,0%);fill-opacity:1;" d="M 37.746094 88.613281 L 39.121094 88.613281 L 39.121094 90.265625 L 37.746094 90.265625 Z M 37.746094 88.613281 "/>
<path style=" stroke:none;fill-rule:nonzero;fill:rgb(0%,0%,0%);fill-opacity:1;" d="M 44.960938 84.882812 C 44.371094 84.882812 43.902344 85.085938 43.558594 85.488281 C 43.210938 85.890625 43.039062 86.445312 43.039062 87.148438 C 43.039062 87.84375 43.210938 88.398438 43.558594 88.804688 C 43.902344 89.210938 44.371094 89.414062 44.960938 89.414062 C 45.550781 89.414062 46.019531 89.210938 46.363281 88.804688 C 46.707031 88.398438 46.878906 87.84375 46.878906 87.148438 C 46.878906 86.445312 46.707031 85.890625 46.363281 85.488281 C 46.019531 85.085938 45.550781 84.882812 44.960938 84.882812 Z M 47.570312 80.757812 L 47.570312 81.957031 C 47.242188 81.800781 46.90625 81.683594 46.570312 81.601562 C 46.234375 81.519531 45.902344 81.476562 45.570312 81.476562 C 44.703125 81.476562 44.039062 81.769531 43.582031 82.355469 C 43.125 82.941406 42.863281 83.828125 42.796875 85.011719 C 43.054688 84.632812 43.375 84.34375 43.761719 84.144531 C 44.148438 83.941406 44.574219 83.839844 45.039062 83.839844 C 46.015625 83.839844 46.785156 84.136719 47.351562 84.730469 C 47.917969 85.320312 48.203125 86.128906 48.203125 87.148438 C 48.203125 88.144531 47.90625 88.945312 47.316406 89.550781 C 46.726562 90.152344 45.941406 90.457031 44.960938 90.457031 C 43.835938 90.457031 42.976562 90.023438 42.382812 89.164062 C 41.789062 88.300781 41.488281 87.050781 41.488281 85.414062 C 41.488281 83.878906 41.855469 82.65625 42.582031 81.742188 C 43.3125 80.828125 44.292969 80.371094 45.519531 80.371094 C 45.851562 80.371094 46.183594 80.402344 46.519531 80.46875 C 46.855469 80.53125 47.207031 80.628906 47.570312 80.757812 Z M 47.570312 80.757812 "/>
<g clip-path="url(#clip14)" clip-rule="nonzero">
<path style="fill:none;stroke-width:0.8;stroke-linecap:square;stroke-linejoin:round;stroke:rgb(69.01961%,69.01961%,69.01961%);stroke-opacity:1;stroke-miterlimit:4;" d="M 43.78125 38.701172 L 322.78125 38.701172 " transform="matrix(1.333333,0,0,1.333333,-0.000000000000028422,-0.000000000000014211)"/>
</g>
<path style="fill:none;stroke-width:0.8;stroke-linecap:butt;stroke-linejoin:round;stroke:rgb(0%,0%,0%);stroke-opacity:1;stroke-miterlimit:4;" d="M 0.000000000000014211 0.00117111 L -3.500977 0.00117111 " transform="matrix(1.333333,0,0,1.333333,58.375,51.600001)"/>
<path style=" stroke:none;fill-rule:nonzero;fill:rgb(0%,0%,0%);fill-opacity:1;" d="M 32.074219 47.8125 C 31.398438 47.8125 30.890625 48.144531 30.546875 48.8125 C 30.207031 49.476562 30.039062 50.476562 30.039062 51.816406 C 30.039062 53.148438 30.207031 54.148438 30.546875 54.8125 C 30.890625 55.480469 31.398438 55.8125 32.074219 55.8125 C 32.757812 55.8125 33.269531 55.480469 33.609375 54.8125 C 33.949219 54.148438 34.121094 53.148438 34.121094 51.816406 C 34.121094 50.476562 33.949219 49.476562 33.609375 48.8125 C 33.269531 48.144531 32.757812 47.8125 32.074219 47.8125 Z M 32.074219 46.769531 C 33.164062 46.769531 33.996094 47.199219 34.574219 48.0625 C 35.148438 48.925781 35.433594 50.175781 35.433594 51.816406 C 35.433594 53.453125 35.148438 54.699219 34.574219 55.5625 C 33.996094 56.425781 33.164062 56.855469 32.074219 56.855469 C 30.984375 56.855469 30.152344 56.425781 29.578125 55.5625 C 29.003906 54.699219 28.714844 53.453125 28.714844 51.816406 C 28.714844 50.175781 29.003906 48.925781 29.578125 48.0625 C 30.152344 47.199219 30.984375 46.769531 32.074219 46.769531 Z M 32.074219 46.769531 "/>
<path style=" stroke:none;fill-rule:nonzero;fill:rgb(0%,0%,0%);fill-opacity:1;" d="M 37.746094 55.011719 L 39.121094 55.011719 L 39.121094 56.664062 L 37.746094 56.664062 Z M 37.746094 55.011719 "/>
<path style=" stroke:none;fill-rule:nonzero;fill:rgb(0%,0%,0%);fill-opacity:1;" d="M 44.796875 52.050781 C 44.171875 52.050781 43.679688 52.214844 43.320312 52.550781 C 42.964844 52.886719 42.785156 53.34375 42.785156 53.929688 C 42.785156 54.515625 42.964844 54.976562 43.320312 55.3125 C 43.679688 55.644531 44.171875 55.8125 44.796875 55.8125 C 45.421875 55.8125 45.914062 55.644531 46.273438 55.308594 C 46.632812 54.972656 46.816406 54.511719 46.816406 53.929688 C 46.816406 53.34375 46.636719 52.886719 46.277344 52.550781 C 45.921875 52.214844 45.425781 52.050781 44.796875 52.050781 Z M 43.480469 51.492188 C 42.917969 51.351562 42.476562 51.089844 42.164062 50.703125 C 41.847656 50.316406 41.691406 49.84375 41.691406 49.289062 C 41.691406 48.511719 41.96875 47.898438 42.519531 47.445312 C 43.074219 46.996094 43.832031 46.769531 44.796875 46.769531 C 45.765625 46.769531 46.523438 46.996094 47.074219 47.445312 C 47.625 47.898438 47.902344 48.511719 47.902344 49.289062 C 47.902344 49.84375 47.746094 50.316406 47.429688 50.703125 C 47.117188 51.089844 46.679688 51.351562 46.121094 51.492188 C 46.753906 51.636719 47.246094 51.925781 47.597656 52.355469 C 47.953125 52.785156 48.128906 53.3125 48.128906 53.929688 C 48.128906 54.875 47.84375 55.597656 47.265625 56.101562 C 46.691406 56.605469 45.867188 56.855469 44.796875 56.855469 C 43.726562 56.855469 42.902344 56.605469 42.324219 56.101562 C 41.75 55.597656 41.464844 54.875 41.464844 53.929688 C 41.464844 53.3125 41.640625 52.785156 41.996094 52.355469 C 42.351562 51.925781 42.847656 51.636719 43.480469 51.492188 Z M 43 49.414062 C 43 49.917969 43.15625 50.308594 43.472656 50.589844 C 43.785156 50.871094 44.226562 51.011719 44.796875 51.011719 C 45.363281 51.011719 45.804688 50.871094 46.121094 50.589844 C 46.441406 50.308594 46.601562 49.917969 46.601562 49.414062 C 46.601562 48.910156 46.441406 48.515625 46.121094 48.234375 C 45.804688 47.953125 45.363281 47.8125 44.796875 47.8125 C 44.226562 47.8125 43.785156 47.953125 43.472656 48.234375 C 43.15625 48.515625 43 48.910156 43 49.414062 Z M 43 49.414062 "/>
<g clip-path="url(#clip15)" clip-rule="nonzero">
<path style="fill:none;stroke-width:0.8;stroke-linecap:square;stroke-linejoin:round;stroke:rgb(69.01961%,69.01961%,69.01961%);stroke-opacity:1;stroke-miterlimit:4;" d="M 43.78125 13.5 L 322.78125 13.5 " transform="matrix(1.333333,0,0,1.333333,-0.000000000000028422,-0.000000000000014211)"/>
</g>
<path style="fill:none;stroke-width:0.8;stroke-linecap:butt;stroke-linejoin:round;stroke:rgb(0%,0%,0%);stroke-opacity:1;stroke-miterlimit:4;" d="M 0.000000000000014211 0.000000000000008882 L -3.500977 0.000000000000008882 " transform="matrix(1.333333,0,0,1.333333,58.375,18)"/>
<path style=" stroke:none;fill-rule:nonzero;fill:rgb(0%,0%,0%);fill-opacity:1;" d="M 29.492188 21.960938 L 31.640625 21.960938 L 31.640625 14.542969 L 29.300781 15.011719 L 29.300781 13.8125 L 31.628906 13.34375 L 32.941406 13.34375 L 32.941406 21.960938 L 35.089844 21.960938 L 35.089844 23.066406 L 29.492188 23.066406 Z M 29.492188 21.960938 "/>
<path style=" stroke:none;fill-rule:nonzero;fill:rgb(0%,0%,0%);fill-opacity:1;" d="M 37.746094 21.410156 L 39.121094 21.410156 L 39.121094 23.066406 L 37.746094 23.066406 Z M 37.746094 21.410156 "/>
<path style=" stroke:none;fill-rule:nonzero;fill:rgb(0%,0%,0%);fill-opacity:1;" d="M 44.796875 14.210938 C 44.121094 14.210938 43.609375 14.542969 43.269531 15.210938 C 42.929688 15.875 42.757812 16.878906 42.757812 18.214844 C 42.757812 19.546875 42.929688 20.546875 43.269531 21.214844 C 43.609375 21.878906 44.121094 22.214844 44.796875 22.214844 C 45.476562 22.214844 45.988281 21.878906 46.328125 21.214844 C 46.671875 20.546875 46.84375 19.546875 46.84375 18.214844 C 46.84375 16.878906 46.671875 15.875 46.328125 15.210938 C 45.988281 14.542969 45.476562 14.210938 44.796875 14.210938 Z M 44.796875 13.167969 C 45.886719 13.167969 46.71875 13.601562 47.292969 14.464844 C 47.871094 15.324219 48.15625 16.574219 48.15625 18.214844 C 48.15625 19.851562 47.871094 21.101562 47.292969 21.964844 C 46.71875 22.824219 45.886719 23.253906 44.796875 23.253906 C 43.707031 23.253906 42.875 22.824219 42.300781 21.964844 C 41.726562 21.101562 41.4375 19.851562 41.4375 18.214844 C 41.4375 16.574219 41.726562 15.324219 42.300781 14.464844 C 42.875 13.601562 43.707031 13.167969 44.796875 13.167969 Z M 44.796875 13.167969 "/>
<path style=" stroke:none;fill-rule:nonzero;fill:rgb(0%,0%,0%);fill-opacity:1;" d="M 16 134.667969 C 15.132812 134.667969 14.460938 134.847656 13.984375 135.207031 C 13.503906 135.5625 13.265625 136.066406 13.265625 136.714844 C 13.265625 137.355469 13.503906 137.855469 13.984375 138.214844 C 14.460938 138.570312 15.132812 138.75 16 138.75 C 16.863281 138.75 17.535156 138.570312 18.011719 138.214844 C 18.492188 137.855469 18.730469 137.355469 18.730469 136.714844 C 18.730469 136.066406 18.492188 135.5625 18.011719 135.207031 C 17.535156 134.847656 16.863281 134.667969 16 134.667969 Z M 18.828125 133.472656 C 20.066406 133.472656 20.992188 133.746094 21.597656 134.300781 C 22.203125 134.847656 22.503906 135.691406 22.503906 136.832031 C 22.503906 137.25 22.472656 137.648438 22.410156 138.023438 C 22.347656 138.394531 22.25 138.757812 22.121094 139.109375 L 20.957031 139.109375 C 21.148438 138.757812 21.285156 138.410156 21.378906 138.066406 C 21.46875 137.726562 21.515625 137.375 21.515625 137.019531 C 21.515625 136.234375 21.308594 135.644531 20.898438 135.253906 C 20.492188 134.863281 19.871094 134.667969 19.042969 134.667969 L 18.449219 134.667969 C 18.878906 134.917969 19.199219 135.234375 19.414062 135.621094 C 19.625 136.007812 19.730469 136.46875 19.730469 137.007812 C 19.730469 137.898438 19.390625 138.621094 18.710938 139.167969 C 18.027344 139.714844 17.125 139.988281 16 139.988281 C 14.871094 139.988281 13.96875 139.714844 13.289062 139.167969 C 12.605469 138.621094 12.265625 137.898438 12.265625 137.007812 C 12.265625 136.46875 12.371094 136.007812 12.582031 135.621094 C 12.796875 135.234375 13.117188 134.917969 13.546875 134.667969 L 12.441406 134.667969 L 12.441406 133.472656 Z M 18.828125 133.472656 "/>
<path style=" stroke:none;fill-rule:nonzero;fill:rgb(0%,0%,0%);fill-opacity:1;" d="M 13.558594 126.777344 C 13.480469 126.914062 13.421875 127.058594 13.386719 127.21875 C 13.351562 127.378906 13.332031 127.550781 13.332031 127.742188 C 13.332031 128.417969 13.550781 128.941406 13.992188 129.300781 C 14.433594 129.664062 15.066406 129.847656 15.890625 129.847656 L 19.730469 129.847656 L 19.730469 131.050781 L 12.441406 131.050781 L 12.441406 129.847656 L 13.574219 129.847656 C 13.128906 129.59375 12.800781 129.265625 12.585938 128.863281 C 12.371094 128.457031 12.265625 127.96875 12.265625 127.390625 C 12.265625 127.308594 12.269531 127.214844 12.28125 127.117188 C 12.289062 127.015625 12.308594 126.90625 12.328125 126.785156 Z M 13.558594 126.777344 "/>
<path style=" stroke:none;fill-rule:nonzero;fill:rgb(0%,0%,0%);fill-opacity:1;" d="M 16.066406 122.207031 C 16.066406 123.175781 16.175781 123.847656 16.398438 124.21875 C 16.617188 124.59375 16.996094 124.78125 17.53125 124.78125 C 17.957031 124.78125 18.292969 124.640625 18.542969 124.359375 C 18.792969 124.078125 18.917969 123.699219 18.917969 123.21875 C 18.917969 122.554688 18.679688 122.019531 18.210938 121.617188 C 17.738281 121.21875 17.113281 121.015625 16.332031 121.015625 L 16.066406 121.015625 Z M 15.570312 119.816406 L 19.730469 119.816406 L 19.730469 121.015625 L 18.625 121.015625 C 19.066406 121.289062 19.394531 121.628906 19.605469 122.039062 C 19.816406 122.449219 19.921875 122.945312 19.921875 123.535156 C 19.921875 124.28125 19.710938 124.875 19.292969 125.316406 C 18.871094 125.757812 18.3125 125.980469 17.609375 125.980469 C 16.789062 125.980469 16.171875 125.703125 15.753906 125.15625 C 15.335938 124.605469 15.128906 123.785156 15.128906 122.699219 L 15.128906 121.015625 L 15.011719 121.015625 C 14.460938 121.015625 14.03125 121.199219 13.730469 121.558594 C 13.429688 121.921875 13.277344 122.429688 13.277344 123.085938 C 13.277344 123.503906 13.328125 123.910156 13.429688 124.304688 C 13.527344 124.699219 13.679688 125.078125 13.878906 125.441406 L 12.769531 125.441406 C 12.601562 125.003906 12.476562 124.582031 12.390625 124.167969 C 12.308594 123.753906 12.265625 123.355469 12.265625 122.964844 C 12.265625 121.910156 12.539062 121.121094 13.085938 120.597656 C 13.632812 120.078125 14.460938 119.816406 15.570312 119.816406 Z M 15.570312 119.816406 "/>
<path style=" stroke:none;fill-rule:nonzero;fill:rgb(0%,0%,0%);fill-opacity:1;" d="M 13.546875 112.554688 L 9.601562 112.554688 L 9.601562 111.355469 L 19.730469 111.355469 L 19.730469 112.554688 L 18.636719 112.554688 C 19.070312 112.804688 19.394531 113.125 19.605469 113.507812 C 19.816406 113.890625 19.921875 114.351562 19.921875 114.890625 C 19.921875 115.773438 19.570312 116.488281 18.867188 117.042969 C 18.164062 117.597656 17.238281 117.871094 16.089844 117.871094 C 14.945312 117.871094 14.023438 117.597656 13.320312 117.042969 C 12.617188 116.488281 12.265625 115.773438 12.265625 114.890625 C 12.265625 114.351562 12.371094 113.890625 12.582031 113.507812 C 12.789062 113.125 13.113281 112.804688 13.546875 112.554688 Z M 16.089844 116.636719 C 16.972656 116.636719 17.664062 116.453125 18.164062 116.089844 C 18.664062 115.730469 18.917969 115.230469 18.917969 114.597656 C 18.917969 113.964844 18.664062 113.464844 18.164062 113.101562 C 17.664062 112.738281 16.972656 112.554688 16.089844 112.554688 C 15.210938 112.554688 14.519531 112.738281 14.019531 113.101562 C 13.515625 113.464844 13.265625 113.964844 13.265625 114.597656 C 13.265625 115.230469 13.515625 115.730469 14.019531 116.089844 C 14.519531 116.453125 15.210938 116.636719 16.089844 116.636719 Z M 16.089844 116.636719 "/>
<path style=" stroke:none;fill-rule:nonzero;fill:rgb(0%,0%,0%);fill-opacity:1;" d="M 13.277344 101.824219 C 13.277344 102.464844 13.53125 102.972656 14.03125 103.347656 C 14.53125 103.722656 15.21875 103.910156 16.089844 103.910156 C 16.964844 103.910156 17.652344 103.722656 18.152344 103.351562 C 18.652344 102.980469 18.902344 102.472656 18.902344 101.824219 C 18.902344 101.1875 18.652344 100.679688 18.148438 100.308594 C 17.644531 99.933594 16.960938 99.746094 16.089844 99.746094 C 15.226562 99.746094 14.542969 99.933594 14.039062 100.308594 C 13.53125 100.679688 13.277344 101.1875 13.277344 101.824219 Z M 12.265625 101.824219 C 12.265625 100.785156 12.601562 99.964844 13.28125 99.371094 C 13.957031 98.773438 14.894531 98.476562 16.089844 98.476562 C 17.285156 98.476562 18.222656 98.773438 18.902344 99.371094 C 19.582031 99.964844 19.921875 100.785156 19.921875 101.824219 C 19.921875 102.871094 19.582031 103.691406 18.902344 104.285156 C 18.222656 104.875 17.285156 105.171875 16.089844 105.171875 C 14.894531 105.171875 13.957031 104.875 13.28125 104.285156 C 12.601562 103.691406 12.265625 102.871094 12.265625 101.824219 Z M 12.265625 101.824219 "/>
<path style=" stroke:none;fill-rule:nonzero;fill:rgb(0%,0%,0%);fill-opacity:1;" d="M 9.601562 92.800781 L 10.597656 92.800781 L 10.597656 93.945312 C 10.597656 94.375 10.683594 94.675781 10.859375 94.84375 C 11.03125 95.007812 11.34375 95.09375 11.796875 95.09375 L 12.441406 95.09375 L 12.441406 93.121094 L 13.371094 93.121094 L 13.371094 95.09375 L 19.730469 95.09375 L 19.730469 96.296875 L 13.371094 96.296875 L 13.371094 97.441406 L 12.441406 97.441406 L 12.441406 96.296875 L 11.929688 96.296875 C 11.121094 96.296875 10.527344 96.109375 10.160156 95.730469 C 9.785156 95.351562 9.601562 94.753906 9.601562 93.933594 Z M 9.601562 92.800781 "/>
<path style=" stroke:none;fill-rule:nonzero;fill:rgb(0%,0%,0%);fill-opacity:1;" d="M 13.558594 83.335938 C 13.480469 83.46875 13.421875 83.617188 13.386719 83.773438 C 13.351562 83.933594 13.332031 84.105469 13.332031 84.296875 C 13.332031 84.976562 13.550781 85.496094 13.992188 85.859375 C 14.433594 86.21875 15.066406 86.402344 15.890625 86.402344 L 19.730469 86.402344 L 19.730469 87.605469 L 12.441406 87.605469 L 12.441406 86.402344 L 13.574219 86.402344 C 13.128906 86.148438 12.800781 85.820312 12.585938 85.417969 C 12.371094 85.015625 12.265625 84.523438 12.265625 83.945312 C 12.265625 83.863281 12.269531 83.773438 12.28125 83.671875 C 12.289062 83.574219 12.308594 83.460938 12.328125 83.339844 Z M 13.558594 83.335938 "/>
<path style=" stroke:none;fill-rule:nonzero;fill:rgb(0%,0%,0%);fill-opacity:1;" d="M 15.785156 76.140625 L 16.371094 76.140625 L 16.371094 81.648438 C 17.195312 81.597656 17.824219 81.347656 18.257812 80.902344 C 18.6875 80.457031 18.902344 79.839844 18.902344 79.046875 C 18.902344 78.585938 18.847656 78.140625 18.734375 77.707031 C 18.621094 77.277344 18.453125 76.847656 18.226562 76.421875 L 19.359375 76.421875 C 19.542969 76.851562 19.679688 77.292969 19.777344 77.742188 C 19.871094 78.195312 19.921875 78.652344 19.921875 79.117188 C 19.921875 80.28125 19.582031 81.203125 18.90625 81.878906 C 18.226562 82.558594 17.3125 82.898438 16.15625 82.898438 C 14.964844 82.898438 14.015625 82.578125 13.316406 81.933594 C 12.617188 81.289062 12.265625 80.417969 12.265625 79.324219 C 12.265625 78.34375 12.582031 77.566406 13.210938 76.996094 C 13.84375 76.425781 14.699219 76.140625 15.785156 76.140625 Z M 15.433594 77.339844 C 14.777344 77.347656 14.257812 77.53125 13.867188 77.890625 C 13.476562 78.246094 13.277344 78.722656 13.277344 79.3125 C 13.277344 79.980469 13.46875 80.515625 13.847656 80.914062 C 14.222656 81.316406 14.753906 81.546875 15.441406 81.609375 Z M 15.433594 77.339844 "/>
<path style=" stroke:none;fill-rule:nonzero;fill:rgb(0%,0%,0%);fill-opacity:1;" d="M 9.601562 74.175781 L 9.601562 72.976562 L 19.730469 72.976562 L 19.730469 74.175781 Z M 9.601562 74.175781 "/>
<path style=" stroke:none;fill-rule:nonzero;fill:rgb(0%,0%,0%);fill-opacity:1;" d="M 16.855469 70.59375 L 12.441406 70.59375 L 12.441406 69.394531 L 16.808594 69.394531 C 17.5 69.394531 18.015625 69.261719 18.363281 68.992188 C 18.707031 68.722656 18.878906 68.320312 18.878906 67.78125 C 18.878906 67.136719 18.671875 66.625 18.261719 66.25 C 17.847656 65.875 17.285156 65.683594 16.574219 65.683594 L 12.441406 65.683594 L 12.441406 64.488281 L 19.730469 64.488281 L 19.730469 65.683594 L 18.609375 65.683594 C 19.054688 65.976562 19.382812 66.3125 19.597656 66.699219 C 19.8125 67.082031 19.921875 67.527344 19.921875 68.035156 C 19.921875 68.871094 19.660156 69.507812 19.140625 69.945312 C 18.617188 70.378906 17.855469 70.59375 16.855469 70.59375 Z M 12.265625 67.578125 Z M 12.265625 67.578125 "/>
<path style="fill:none;stroke-width:1.5;stroke-linecap:square;stroke-linejoin:round;stroke:rgb(12.156863%,46.666667%,70.588237%);stroke-opacity:1;stroke-miterlimit:4;" d="M 56.463867 139.5 L 184.078125 139.5 L 185.674805 13.5 L 310.098633 13.5 " transform="matrix(1.333333,0,0,1.333333,-0.000000000000028422,-0.000000000000014211)"/>
<path style="fill:none;stroke-width:0.8;stroke-linecap:square;stroke-linejoin:miter;stroke:rgb(0%,0%,0%);stroke-opacity:1;stroke-miterlimit:4;" d="M 43.78125 145.798828 L 43.78125 7.201172 " transform="matrix(1.333333,0,0,1.333333,-0.000000000000028422,-0.000000000000014211)"/>
<path style="fill:none;stroke-width:0.8;stroke-linecap:square;stroke-linejoin:miter;stroke:rgb(0%,0%,0%);stroke-opacity:1;stroke-miterlimit:4;" d="M 322.78125 145.798828 L 322.78125 7.201172 " transform="matrix(1.333333,0,0,1.333333,-0.000000000000028422,-0.000000000000014211)"/>
<path style="fill:none;stroke-width:0.8;stroke-linecap:square;stroke-linejoin:miter;stroke:rgb(0%,0%,0%);stroke-opacity:1;stroke-miterlimit:4;" d="M 43.78125 145.798828 L 322.78125 145.798828 " transform="matrix(1.333333,0,0,1.333333,-0.000000000000028422,-0.000000000000014211)"/>
<path style="fill:none;stroke-width:0.8;stroke-linecap:square;stroke-linejoin:miter;stroke:rgb(0%,0%,0%);stroke-opacity:1;stroke-miterlimit:4;" d="M 43.78125 7.201172 L 322.78125 7.201172 " transform="matrix(1.333333,0,0,1.333333,-0.000000000000028422,-0.000000000000014211)"/>
</g>
</svg>
