<?xml version="1.0" encoding="UTF-8"?>
<svg xmlns="http://www.w3.org/2000/svg" xmlns:xlink="http://www.w3.org/1999/xlink" width="349.583333" height="240.875" viewBox="0 0 349.583333 240.875" version="1.1">
<defs>
<clipPath id="clip1">
  <path d="M 109 9.601562 L 112 9.601562 L 112 190.800781 L 109 190.800781 Z M 109 9.601562 "/>
</clipPath>
<clipPath id="clip2">
  <path d="M 163 9.601562 L 166 9.601562 L 166 190.800781 L 163 190.800781 Z M 163 9.601562 "/>
</clipPath>
<clipPath id="clip3">
  <path d="M 218 9.601562 L 220 9.601562 L 220 190.800781 L 218 190.800781 Z M 218 9.601562 "/>
</clipPath>
<clipPath id="clip4">
  <path d="M 272 9.601562 L 274 9.601562 L 274 190.800781 L 272 190.800781 Z M 272 9.601562 "/>
</clipPath>
<clipPath id="clip5">
  <path d="M 326 9.601562 L 327.257812 9.601562 L 327.257812 190.800781 L 326 190.800781 Z M 326 9.601562 "/>
</clipPath>
<clipPath id="clip6">
  <path d="M 66.859375 155 L 327.257812 155 L 327.257812 157 L 66.859375 157 Z M 66.859375 155 "/>
</clipPath>
<clipPath id="clip7">
  <path d="M 66.859375 109 L 327.257812 109 L 327.257812 112 L 66.859375 112 Z M 66.859375 109 "/>
</clipPath>
<clipPath id="clip8">
  <path d="M 66.859375 64 L 327.257812 64 L 327.257812 67 L 66.859375 67 Z M 66.859375 64 "/>
</clipPath>
<clipPath id="clip9">
  <path d="M 66.859375 19 L 327.257812 19 L 327.257812 21 L 66.859375 21 Z M 66.859375 19 "/>
</clipPath>
<clipPath id="clip10">
  <path d="M 66.859375 16 L 327.257812 16 L 327.257812 184 L 66.859375 184 Z M 66.859375 16 "/>
</clipPath>
</defs>
<g id="surface1">
<path style=" stroke:none;fill-rule:nonzero;fill:rgb(100%,100%,100%);fill-opacity:1;" d="M 66.859375 190.800781 L 327.257812 190.800781 L 327.257812 9.601562 L 66.859375 9.601562 Z M 66.859375 190.800781 "/>
<g clip-path="url(#clip1)" clip-rule="nonzero">
<path style="fill:none;stroke-width:0.8;stroke-linecap:square;stroke-linejoin:round;stroke:rgb(69.01961%,69.01961%,69.01961%);stroke-opacity:1;stroke-miterlimit:4;" d="M 82.693359 143.100586 L 82.693359 7.201172 " transform="matrix(1.333333,0,0,1.333333,0,0)"/>
</g>
<path style="fill:none;stroke-width:0.8;stroke-linecap:butt;stroke-linejoin:round;stroke:rgb(0%,0%,0%);stroke-opacity:1;stroke-miterlimit:4;" d="M -0.000389099 0.000579834 L -0.000389099 3.498627 " transform="matrix(1.333333,0,0,1.333333,110.258331,190.800008)"/>
<path style=" stroke:none;fill-rule:nonzero;fill:rgb(0%,0%,0%);fill-opacity:1;" d="M 103.214844 200.542969 L 108.378906 200.542969 L 108.378906 201.652344 L 104.417969 201.652344 L 104.417969 204.035156 C 104.609375 203.96875 104.800781 203.917969 104.988281 203.886719 C 105.179688 203.855469 105.371094 203.839844 105.566406 203.839844 C 106.648438 203.839844 107.507812 204.136719 108.140625 204.730469 C 108.777344 205.324219 109.09375 206.128906 109.09375 207.144531 C 109.09375 208.191406 108.769531 209.003906 108.117188 209.585938 C 107.464844 210.164062 106.546875 210.453125 105.363281 210.453125 C 104.953125 210.453125 104.539062 210.417969 104.113281 210.351562 C 103.691406 210.28125 103.253906 210.175781 102.804688 210.039062 L 102.804688 208.714844 C 103.195312 208.925781 103.597656 209.085938 104.015625 209.191406 C 104.429688 209.292969 104.871094 209.347656 105.335938 209.347656 C 106.085938 209.347656 106.679688 209.148438 107.117188 208.753906 C 107.558594 208.359375 107.777344 207.824219 107.777344 207.144531 C 107.777344 206.46875 107.558594 205.933594 107.117188 205.539062 C 106.679688 205.144531 106.085938 204.945312 105.335938 204.945312 C 104.984375 204.945312 104.632812 204.984375 104.285156 205.0625 C 103.933594 205.140625 103.578125 205.261719 103.214844 205.425781 Z M 103.214844 200.542969 "/>
<path style=" stroke:none;fill-rule:nonzero;fill:rgb(0%,0%,0%);fill-opacity:1;" d="M 114.496094 201.410156 C 113.820312 201.410156 113.308594 201.742188 112.96875 202.410156 C 112.628906 203.074219 112.457031 204.078125 112.457031 205.414062 C 112.457031 206.746094 112.628906 207.746094 112.96875 208.414062 C 113.308594 209.078125 113.820312 209.414062 114.496094 209.414062 C 115.175781 209.414062 115.6875 209.078125 116.027344 208.414062 C 116.371094 207.746094 116.542969 206.746094 116.542969 205.414062 C 116.542969 204.078125 116.371094 203.074219 116.027344 202.410156 C 115.6875 201.742188 115.175781 201.410156 114.496094 201.410156 Z M 114.496094 200.367188 C 115.585938 200.367188 116.417969 200.800781 116.992188 201.664062 C 117.570312 202.523438 117.855469 203.773438 117.855469 205.414062 C 117.855469 207.050781 117.570312 208.300781 116.992188 209.164062 C 116.417969 210.023438 115.585938 210.453125 114.496094 210.453125 C 113.40625 210.453125 112.574219 210.023438 112 209.164062 C 111.425781 208.300781 111.136719 207.050781 111.136719 205.414062 C 111.136719 203.773438 111.425781 202.523438 112 201.664062 C 112.574219 200.800781 113.40625 200.367188 114.496094 200.367188 Z M 114.496094 200.367188 "/>
<g clip-path="url(#clip2)" clip-rule="nonzero">
<path style="fill:none;stroke-width:0.8;stroke-linecap:square;stroke-linejoin:round;stroke:rgb(69.01961%,69.01961%,69.01961%);stroke-opacity:1;stroke-miterlimit:4;" d="M 123.380859 143.100586 L 123.380859 7.201172 " transform="matrix(1.333333,0,0,1.333333,0,0)"/>
</g>
<path style="fill:none;stroke-width:0.8;stroke-linecap:butt;stroke-linejoin:round;stroke:rgb(0%,0%,0%);stroke-opacity:1;stroke-miterlimit:4;" d="M -0.000389099 0.000579834 L -0.000389099 3.498627 " transform="matrix(1.333333,0,0,1.333333,164.508331,190.800008)"/>
<path style=" stroke:none;fill-rule:nonzero;fill:rgb(0%,0%,0%);fill-opacity:1;" d="M 153.4375 209.160156 L 155.585938 209.160156 L 155.585938 201.742188 L 153.246094 202.210938 L 153.246094 201.011719 L 155.574219 200.542969 L 156.886719 200.542969 L 156.886719 209.160156 L 159.035156 209.160156 L 159.035156 210.265625 L 153.4375 210.265625 Z M 153.4375 209.160156 "/>
<path style=" stroke:none;fill-rule:nonzero;fill:rgb(0%,0%,0%);fill-opacity:1;" d="M 164.503906 201.410156 C 163.828125 201.410156 163.320312 201.742188 162.976562 202.410156 C 162.636719 203.074219 162.464844 204.078125 162.464844 205.414062 C 162.464844 206.746094 162.636719 207.746094 162.976562 208.414062 C 163.320312 209.078125 163.828125 209.414062 164.503906 209.414062 C 165.1875 209.414062 165.695312 209.078125 166.039062 208.414062 C 166.378906 207.746094 166.550781 206.746094 166.550781 205.414062 C 166.550781 204.078125 166.378906 203.074219 166.039062 202.410156 C 165.695312 201.742188 165.1875 201.410156 164.503906 201.410156 Z M 164.503906 200.367188 C 165.59375 200.367188 166.425781 200.800781 167 201.664062 C 167.578125 202.523438 167.863281 203.773438 167.863281 205.414062 C 167.863281 207.050781 167.578125 208.300781 167 209.164062 C 166.425781 210.023438 165.59375 210.453125 164.503906 210.453125 C 163.414062 210.453125 162.582031 210.023438 162.007812 209.164062 C 161.433594 208.300781 161.144531 207.050781 161.144531 205.414062 C 161.144531 203.773438 161.433594 202.523438 162.007812 201.664062 C 162.582031 200.800781 163.414062 200.367188 164.503906 200.367188 Z M 164.503906 200.367188 "/>
<path style=" stroke:none;fill-rule:nonzero;fill:rgb(0%,0%,0%);fill-opacity:1;" d="M 172.988281 201.410156 C 172.3125 201.410156 171.800781 201.742188 171.460938 202.410156 C 171.121094 203.074219 170.949219 204.078125 170.949219 205.414062 C 170.949219 206.746094 171.121094 207.746094 171.460938 208.414062 C 171.800781 209.078125 172.3125 209.414062 172.988281 209.414062 C 173.667969 209.414062 174.179688 209.078125 174.519531 208.414062 C 174.863281 207.746094 175.03125 206.746094 175.03125 205.414062 C 175.03125 204.078125 174.863281 203.074219 174.519531 202.410156 C 174.179688 201.742188 173.667969 201.410156 172.988281 201.410156 Z M 172.988281 200.367188 C 174.078125 200.367188 174.910156 200.800781 175.484375 201.664062 C 176.058594 202.523438 176.347656 203.773438 176.347656 205.414062 C 176.347656 207.050781 176.058594 208.300781 175.484375 209.164062 C 174.910156 210.023438 174.078125 210.453125 172.988281 210.453125 C 171.898438 210.453125 171.066406 210.023438 170.492188 209.164062 C 169.917969 208.300781 169.628906 207.050781 169.628906 205.414062 C 169.628906 203.773438 169.917969 202.523438 170.492188 201.664062 C 171.066406 200.800781 171.898438 200.367188 172.988281 200.367188 Z M 172.988281 200.367188 "/>
<g clip-path="url(#clip3)" clip-rule="nonzero">
<path style="fill:none;stroke-width:0.8;stroke-linecap:square;stroke-linejoin:round;stroke:rgb(69.01961%,69.01961%,69.01961%);stroke-opacity:1;stroke-miterlimit:4;" d="M 164.068359 143.100586 L 164.068359 7.201172 " transform="matrix(1.333333,0,0,1.333333,0,0)"/>
</g>
<path style="fill:none;stroke-width:0.8;stroke-linecap:butt;stroke-linejoin:round;stroke:rgb(0%,0%,0%);stroke-opacity:1;stroke-miterlimit:4;" d="M -0.000396729 0.000579834 L -0.000396729 3.498627 " transform="matrix(1.333333,0,0,1.333333,218.758341,190.800008)"/>
<path style=" stroke:none;fill-rule:nonzero;fill:rgb(0%,0%,0%);fill-opacity:1;" d="M 207.6875 209.160156 L 209.835938 209.160156 L 209.835938 201.742188 L 207.496094 202.210938 L 207.496094 201.011719 L 209.824219 200.542969 L 211.136719 200.542969 L 211.136719 209.160156 L 213.285156 209.160156 L 213.285156 210.265625 L 207.6875 210.265625 Z M 207.6875 209.160156 "/>
<path style=" stroke:none;fill-rule:nonzero;fill:rgb(0%,0%,0%);fill-opacity:1;" d="M 215.957031 200.542969 L 221.117188 200.542969 L 221.117188 201.652344 L 217.160156 201.652344 L 217.160156 204.035156 C 217.351562 203.96875 217.539062 203.917969 217.730469 203.886719 C 217.921875 203.855469 218.113281 203.839844 218.304688 203.839844 C 219.390625 203.839844 220.25 204.136719 220.882812 204.730469 C 221.519531 205.324219 221.835938 206.128906 221.835938 207.144531 C 221.835938 208.191406 221.507812 209.003906 220.859375 209.585938 C 220.207031 210.164062 219.289062 210.453125 218.105469 210.453125 C 217.695312 210.453125 217.28125 210.417969 216.855469 210.351562 C 216.433594 210.28125 215.996094 210.175781 215.546875 210.039062 L 215.546875 208.714844 C 215.9375 208.925781 216.339844 209.085938 216.757812 209.191406 C 217.171875 209.292969 217.613281 209.347656 218.078125 209.347656 C 218.828125 209.347656 219.421875 209.148438 219.859375 208.753906 C 220.300781 208.359375 220.519531 207.824219 220.519531 207.144531 C 220.519531 206.46875 220.300781 205.933594 219.859375 205.539062 C 219.421875 205.144531 218.828125 204.945312 218.078125 204.945312 C 217.726562 204.945312 217.375 204.984375 217.023438 205.0625 C 216.675781 205.140625 216.320312 205.261719 215.957031 205.425781 Z M 215.957031 200.542969 "/>
<path style=" stroke:none;fill-rule:nonzero;fill:rgb(0%,0%,0%);fill-opacity:1;" d="M 227.238281 201.410156 C 226.5625 201.410156 226.050781 201.742188 225.710938 202.410156 C 225.371094 203.074219 225.199219 204.078125 225.199219 205.414062 C 225.199219 206.746094 225.371094 207.746094 225.710938 208.414062 C 226.050781 209.078125 226.5625 209.414062 227.238281 209.414062 C 227.917969 209.414062 228.429688 209.078125 228.769531 208.414062 C 229.113281 207.746094 229.28125 206.746094 229.28125 205.414062 C 229.28125 204.078125 229.113281 203.074219 228.769531 202.410156 C 228.429688 201.742188 227.917969 201.410156 227.238281 201.410156 Z M 227.238281 200.367188 C 228.328125 200.367188 229.160156 200.800781 229.734375 201.664062 C 230.308594 202.523438 230.597656 203.773438 230.597656 205.414062 C 230.597656 207.050781 230.308594 208.300781 229.734375 209.164062 C 229.160156 210.023438 228.328125 210.453125 227.238281 210.453125 C 226.148438 210.453125 225.316406 210.023438 224.742188 209.164062 C 224.167969 208.300781 223.878906 207.050781 223.878906 205.414062 C 223.878906 203.773438 224.167969 202.523438 224.742188 201.664062 C 225.316406 200.800781 226.148438 200.367188 227.238281 200.367188 Z M 227.238281 200.367188 "/>
<g clip-path="url(#clip4)" clip-rule="nonzero">
<path style="fill:none;stroke-width:0.8;stroke-linecap:square;stroke-linejoin:round;stroke:rgb(69.01961%,69.01961%,69.01961%);stroke-opacity:1;stroke-miterlimit:4;" d="M 204.755859 143.100586 L 204.755859 7.201172 " transform="matrix(1.333333,0,0,1.333333,0,0)"/>
</g>
<path style="fill:none;stroke-width:0.8;stroke-linecap:butt;stroke-linejoin:round;stroke:rgb(0%,0%,0%);stroke-opacity:1;stroke-miterlimit:4;" d="M -0.000396729 0.000579834 L -0.000396729 3.498627 " transform="matrix(1.333333,0,0,1.333333,273.008341,190.800008)"/>
<path style=" stroke:none;fill-rule:nonzero;fill:rgb(0%,0%,0%);fill-opacity:1;" d="M 262.839844 209.160156 L 267.429688 209.160156 L 267.429688 210.265625 L 261.261719 210.265625 L 261.261719 209.160156 C 261.757812 208.640625 262.4375 207.949219 263.300781 207.078125 C 264.164062 206.207031 264.703125 205.648438 264.925781 205.394531 C 265.347656 204.921875 265.640625 204.523438 265.804688 204.195312 C 265.972656 203.867188 266.058594 203.542969 266.058594 203.226562 C 266.058594 202.710938 265.878906 202.289062 265.515625 201.964844 C 265.152344 201.636719 264.679688 201.476562 264.097656 201.476562 C 263.683594 201.476562 263.25 201.546875 262.792969 201.691406 C 262.335938 201.832031 261.847656 202.050781 261.324219 202.339844 L 261.324219 201.011719 C 261.855469 200.800781 262.347656 200.640625 262.808594 200.53125 C 263.269531 200.421875 263.691406 200.367188 264.074219 200.367188 C 265.078125 200.367188 265.882812 200.621094 266.480469 201.125 C 267.078125 201.628906 267.378906 202.300781 267.378906 203.140625 C 267.378906 203.542969 267.304688 203.921875 267.152344 204.277344 C 267.003906 204.636719 266.734375 205.058594 266.335938 205.542969 C 266.230469 205.671875 265.882812 206.035156 265.300781 206.636719 C 264.722656 207.238281 263.902344 208.078125 262.839844 209.160156 Z M 262.839844 209.160156 "/>
<path style=" stroke:none;fill-rule:nonzero;fill:rgb(0%,0%,0%);fill-opacity:1;" d="M 273.003906 201.410156 C 272.328125 201.410156 271.820312 201.742188 271.476562 202.410156 C 271.136719 203.074219 270.964844 204.078125 270.964844 205.414062 C 270.964844 206.746094 271.136719 207.746094 271.476562 208.414062 C 271.820312 209.078125 272.328125 209.414062 273.003906 209.414062 C 273.6875 209.414062 274.195312 209.078125 274.539062 208.414062 C 274.878906 207.746094 275.050781 206.746094 275.050781 205.414062 C 275.050781 204.078125 274.878906 203.074219 274.539062 202.410156 C 274.195312 201.742188 273.6875 201.410156 273.003906 201.410156 Z M 273.003906 200.367188 C 274.09375 200.367188 274.925781 200.800781 275.5 201.664062 C 276.078125 202.523438 276.363281 203.773438 276.363281 205.414062 C 276.363281 207.050781 276.078125 208.300781 275.5 209.164062 C 274.925781 210.023438 274.09375 210.453125 273.003906 210.453125 C 271.914062 210.453125 271.082031 210.023438 270.507812 209.164062 C 269.933594 208.300781 269.644531 207.050781 269.644531 205.414062 C 269.644531 203.773438 269.933594 202.523438 270.507812 201.664062 C 271.082031 200.800781 271.914062 200.367188 273.003906 200.367188 Z M 273.003906 200.367188 "/>
<path style=" stroke:none;fill-rule:nonzero;fill:rgb(0%,0%,0%);fill-opacity:1;" d="M 281.488281 201.410156 C 280.8125 201.410156 280.300781 201.742188 279.960938 202.410156 C 279.621094 203.074219 279.449219 204.078125 279.449219 205.414062 C 279.449219 206.746094 279.621094 207.746094 279.960938 208.414062 C 280.300781 209.078125 280.8125 209.414062 281.488281 209.414062 C 282.167969 209.414062 282.679688 209.078125 283.019531 208.414062 C 283.363281 207.746094 283.53125 206.746094 283.53125 205.414062 C 283.53125 204.078125 283.363281 203.074219 283.019531 202.410156 C 282.679688 201.742188 282.167969 201.410156 281.488281 201.410156 Z M 281.488281 200.367188 C 282.578125 200.367188 283.410156 200.800781 283.984375 201.664062 C 284.558594 202.523438 284.847656 203.773438 284.847656 205.414062 C 284.847656 207.050781 284.558594 208.300781 283.984375 209.164062 C 283.410156 210.023438 282.578125 210.453125 281.488281 210.453125 C 280.398438 210.453125 279.566406 210.023438 278.992188 209.164062 C 278.417969 208.300781 278.128906 207.050781 278.128906 205.414062 C 278.128906 203.773438 278.417969 202.523438 278.992188 201.664062 C 279.566406 200.800781 280.398438 200.367188 281.488281 200.367188 Z M 281.488281 200.367188 "/>
<g clip-path="url(#clip5)" clip-rule="nonzero">
<path style="fill:none;stroke-width:0.8;stroke-linecap:square;stroke-linejoin:round;stroke:rgb(69.01961%,69.01961%,69.01961%);stroke-opacity:1;stroke-miterlimit:4;" d="M 245.443359 143.100586 L 245.443359 7.201172 " transform="matrix(1.333333,0,0,1.333333,0,0)"/>
</g>
<path style="fill:none;stroke-width:0.8;stroke-linecap:butt;stroke-linejoin:round;stroke:rgb(0%,0%,0%);stroke-opacity:1;stroke-miterlimit:4;" d="M -0.000396729 0.000579834 L -0.000396729 3.498627 " transform="matrix(1.333333,0,0,1.333333,327.258341,190.800008)"/>
<path style=" stroke:none;fill-rule:nonzero;fill:rgb(0%,0%,0%);fill-opacity:1;" d="M 317.089844 209.160156 L 321.679688 209.160156 L 321.679688 210.265625 L 315.511719 210.265625 L 315.511719 209.160156 C 316.007812 208.640625 316.6875 207.949219 317.550781 207.078125 C 318.414062 206.207031 318.953125 205.648438 319.175781 205.394531 C 319.597656 204.921875 319.890625 204.523438 320.054688 204.195312 C 320.222656 203.867188 320.308594 203.542969 320.308594 203.226562 C 320.308594 202.710938 320.128906 202.289062 319.765625 201.964844 C 319.402344 201.636719 318.929688 201.476562 318.347656 201.476562 C 317.933594 201.476562 317.5 201.546875 317.042969 201.691406 C 316.585938 201.832031 316.097656 202.050781 315.574219 202.339844 L 315.574219 201.011719 C 316.105469 200.800781 316.597656 200.640625 317.058594 200.53125 C 317.519531 200.421875 317.941406 200.367188 318.324219 200.367188 C 319.328125 200.367188 320.132812 200.621094 320.730469 201.125 C 321.328125 201.628906 321.628906 202.300781 321.628906 203.140625 C 321.628906 203.542969 321.554688 203.921875 321.402344 204.277344 C 321.253906 204.636719 320.984375 205.058594 320.585938 205.542969 C 320.480469 205.671875 320.132812 206.035156 319.550781 206.636719 C 318.972656 207.238281 318.152344 208.078125 317.089844 209.160156 Z M 317.089844 209.160156 "/>
<path style=" stroke:none;fill-rule:nonzero;fill:rgb(0%,0%,0%);fill-opacity:1;" d="M 324.457031 200.542969 L 329.617188 200.542969 L 329.617188 201.652344 L 325.660156 201.652344 L 325.660156 204.035156 C 325.851562 203.96875 326.039062 203.917969 326.230469 203.886719 C 326.421875 203.855469 326.613281 203.839844 326.804688 203.839844 C 327.890625 203.839844 328.75 204.136719 329.382812 204.730469 C 330.019531 205.324219 330.335938 206.128906 330.335938 207.144531 C 330.335938 208.191406 330.007812 209.003906 329.359375 209.585938 C 328.707031 210.164062 327.789062 210.453125 326.605469 210.453125 C 326.195312 210.453125 325.78125 210.417969 325.355469 210.351562 C 324.933594 210.28125 324.496094 210.175781 324.046875 210.039062 L 324.046875 208.714844 C 324.4375 208.925781 324.839844 209.085938 325.257812 209.191406 C 325.671875 209.292969 326.113281 209.347656 326.578125 209.347656 C 327.328125 209.347656 327.921875 209.148438 328.359375 208.753906 C 328.800781 208.359375 329.019531 207.824219 329.019531 207.144531 C 329.019531 206.46875 328.800781 205.933594 328.359375 205.539062 C 327.921875 205.144531 327.328125 204.945312 326.578125 204.945312 C 326.226562 204.945312 325.875 204.984375 325.523438 205.0625 C 325.175781 205.140625 324.820312 205.261719 324.457031 205.425781 Z M 324.457031 200.542969 "/>
<path style=" stroke:none;fill-rule:nonzero;fill:rgb(0%,0%,0%);fill-opacity:1;" d="M 335.738281 201.410156 C 335.0625 201.410156 334.550781 201.742188 334.210938 202.410156 C 333.871094 203.074219 333.699219 204.078125 333.699219 205.414062 C 333.699219 206.746094 333.871094 207.746094 334.210938 208.414062 C 334.550781 209.078125 335.0625 209.414062 335.738281 209.414062 C 336.417969 209.414062 336.929688 209.078125 337.269531 208.414062 C 337.613281 207.746094 337.78125 206.746094 337.78125 205.414062 C 337.78125 204.078125 337.613281 203.074219 337.269531 202.410156 C 336.929688 201.742188 336.417969 201.410156 335.738281 201.410156 Z M 335.738281 200.367188 C 336.828125 200.367188 337.660156 200.800781 338.234375 201.664062 C 338.808594 202.523438 339.097656 203.773438 339.097656 205.414062 C 339.097656 207.050781 338.808594 208.300781 338.234375 209.164062 C 337.660156 210.023438 336.828125 210.453125 335.738281 210.453125 C 334.648438 210.453125 333.816406 210.023438 333.242188 209.164062 C 332.667969 208.300781 332.378906 207.050781 332.378906 205.414062 C 332.378906 203.773438 332.667969 202.523438 333.242188 201.664062 C 333.816406 200.800781 334.648438 200.367188 335.738281 200.367188 Z M 335.738281 200.367188 "/>
<path style=" stroke:none;fill-rule:nonzero;fill:rgb(0%,0%,0%);fill-opacity:1;" d="M 184.246094 224.554688 L 184.246094 225.140625 L 178.738281 225.140625 C 178.792969 225.964844 179.039062 226.59375 179.484375 227.027344 C 179.929688 227.460938 180.550781 227.675781 181.34375 227.675781 C 181.804688 227.675781 182.25 227.617188 182.679688 227.507812 C 183.113281 227.394531 183.542969 227.222656 183.96875 226.996094 L 183.96875 228.132812 C 183.539062 228.3125 183.097656 228.453125 182.644531 228.546875 C 182.195312 228.644531 181.738281 228.691406 181.273438 228.691406 C 180.109375 228.691406 179.1875 228.351562 178.507812 227.675781 C 177.828125 227 177.488281 226.082031 177.488281 224.925781 C 177.488281 223.734375 177.8125 222.789062 178.457031 222.085938 C 179.101562 221.386719 179.96875 221.035156 181.066406 221.035156 C 182.046875 221.035156 182.820312 221.351562 183.390625 221.984375 C 183.960938 222.613281 184.246094 223.472656 184.246094 224.554688 Z M 183.050781 224.203125 C 183.042969 223.550781 182.859375 223.027344 182.5 222.636719 C 182.140625 222.246094 181.667969 222.050781 181.078125 222.050781 C 180.410156 222.050781 179.875 222.238281 179.472656 222.617188 C 179.070312 222.996094 178.839844 223.527344 178.777344 224.210938 Z M 183.050781 224.203125 "/>
<path style=" stroke:none;fill-rule:nonzero;fill:rgb(0%,0%,0%);fill-opacity:1;" d="M 187.371094 227.410156 L 187.371094 231.273438 L 186.167969 231.273438 L 186.167969 221.210938 L 187.371094 221.210938 L 187.371094 222.316406 C 187.625 221.882812 187.941406 221.5625 188.324219 221.351562 C 188.710938 221.140625 189.167969 221.035156 189.703125 221.035156 C 190.589844 221.035156 191.308594 221.386719 191.863281 222.089844 C 192.414062 222.792969 192.691406 223.714844 192.691406 224.863281 C 192.691406 226.007812 192.414062 226.933594 191.863281 227.636719 C 191.308594 228.339844 190.589844 228.691406 189.703125 228.691406 C 189.167969 228.691406 188.710938 228.585938 188.324219 228.375 C 187.941406 228.164062 187.625 227.839844 187.371094 227.410156 Z M 191.449219 224.863281 C 191.449219 223.980469 191.269531 223.289062 190.90625 222.789062 C 190.542969 222.289062 190.042969 222.039062 189.410156 222.039062 C 188.777344 222.039062 188.277344 222.289062 187.914062 222.789062 C 187.554688 223.289062 187.371094 223.980469 187.371094 224.863281 C 187.371094 225.742188 187.554688 226.433594 187.914062 226.933594 C 188.277344 227.4375 188.777344 227.6875 189.410156 227.6875 C 190.042969 227.6875 190.542969 227.4375 190.90625 226.933594 C 191.269531 226.433594 191.449219 225.742188 191.449219 224.863281 Z M 191.449219 224.863281 "/>
<path style=" stroke:none;fill-rule:nonzero;fill:rgb(0%,0%,0%);fill-opacity:1;" d="M 197.503906 222.050781 C 196.859375 222.050781 196.351562 222.300781 195.980469 222.800781 C 195.605469 223.304688 195.417969 223.992188 195.417969 224.863281 C 195.417969 225.734375 195.605469 226.421875 195.976562 226.921875 C 196.347656 227.425781 196.855469 227.675781 197.503906 227.675781 C 198.140625 227.675781 198.648438 227.421875 199.019531 226.921875 C 199.390625 226.417969 199.578125 225.730469 199.578125 224.863281 C 199.578125 224 199.390625 223.3125 199.019531 222.808594 C 198.648438 222.304688 198.140625 222.050781 197.503906 222.050781 Z M 197.503906 221.035156 C 198.542969 221.035156 199.363281 221.375 199.957031 222.050781 C 200.550781 222.726562 200.851562 223.664062 200.851562 224.863281 C 200.851562 226.054688 200.550781 226.992188 199.957031 227.671875 C 199.363281 228.351562 198.542969 228.691406 197.503906 228.691406 C 196.457031 228.691406 195.636719 228.351562 195.042969 227.671875 C 194.453125 226.992188 194.15625 226.054688 194.15625 224.863281 C 194.15625 223.664062 194.453125 222.726562 195.042969 222.050781 C 195.636719 221.375 196.457031 221.035156 197.503906 221.035156 Z M 197.503906 221.035156 "/>
<path style=" stroke:none;fill-rule:nonzero;fill:rgb(0%,0%,0%);fill-opacity:1;" d="M 208.082031 221.488281 L 208.082031 222.609375 C 207.742188 222.421875 207.402344 222.28125 207.0625 222.191406 C 206.722656 222.097656 206.378906 222.050781 206.03125 222.050781 C 205.253906 222.050781 204.652344 222.296875 204.21875 222.789062 C 203.789062 223.28125 203.578125 223.972656 203.578125 224.863281 C 203.578125 225.753906 203.789062 226.445312 204.21875 226.9375 C 204.652344 227.429688 205.253906 227.675781 206.03125 227.675781 C 206.378906 227.675781 206.722656 227.628906 207.0625 227.535156 C 207.402344 227.441406 207.742188 227.300781 208.082031 227.113281 L 208.082031 228.222656 C 207.746094 228.378906 207.402344 228.496094 207.042969 228.574219 C 206.6875 228.652344 206.304688 228.691406 205.902344 228.691406 C 204.800781 228.691406 203.929688 228.347656 203.28125 227.65625 C 202.636719 226.964844 202.3125 226.035156 202.3125 224.863281 C 202.3125 223.671875 202.640625 222.738281 203.292969 222.058594 C 203.945312 221.375 204.84375 221.035156 205.980469 221.035156 C 206.347656 221.035156 206.707031 221.074219 207.058594 221.148438 C 207.410156 221.226562 207.753906 221.339844 208.082031 221.488281 Z M 208.082031 221.488281 "/>
<path style=" stroke:none;fill-rule:nonzero;fill:rgb(0%,0%,0%);fill-opacity:1;" d="M 216.226562 224.101562 L 216.226562 228.503906 L 215.03125 228.503906 L 215.03125 224.140625 C 215.03125 223.449219 214.894531 222.933594 214.625 222.589844 C 214.355469 222.25 213.953125 222.078125 213.414062 222.078125 C 212.769531 222.078125 212.257812 222.285156 211.882812 222.695312 C 211.511719 223.105469 211.324219 223.667969 211.324219 224.382812 L 211.324219 228.503906 L 210.121094 228.503906 L 210.121094 218.371094 L 211.324219 218.371094 L 211.324219 222.34375 C 211.609375 221.90625 211.949219 221.578125 212.335938 221.359375 C 212.726562 221.144531 213.171875 221.035156 213.683594 221.035156 C 214.519531 221.035156 215.152344 221.292969 215.582031 221.8125 C 216.011719 222.332031 216.226562 223.09375 216.226562 224.101562 Z M 216.226562 224.101562 "/>
<g clip-path="url(#clip6)" clip-rule="nonzero">
<path style="fill:none;stroke-width:0.8;stroke-linecap:square;stroke-linejoin:round;stroke:rgb(69.01961%,69.01961%,69.01961%);stroke-opacity:1;stroke-miterlimit:4;" d="M 50.144531 116.885742 L 245.443359 116.885742 " transform="matrix(1.333333,0,0,1.333333,0,0)"/>
</g>
<path style="fill:none;stroke-width:0.8;stroke-linecap:butt;stroke-linejoin:round;stroke:rgb(0%,0%,0%);stroke-opacity:1;stroke-miterlimit:4;" d="M 0.000782013 0.000442505 L -3.500195 0.000442505 " transform="matrix(1.333333,0,0,1.333333,66.858332,155.847066)"/>
<path style=" stroke:none;fill-rule:nonzero;fill:rgb(0%,0%,0%);fill-opacity:1;" d="M 32.074219 152.058594 C 31.398438 152.058594 30.890625 152.390625 30.546875 153.058594 C 30.207031 153.722656 30.039062 154.726562 30.039062 156.0625 C 30.039062 157.394531 30.207031 158.394531 30.546875 159.0625 C 30.890625 159.726562 31.398438 160.0625 32.074219 160.0625 C 32.757812 160.0625 33.269531 159.726562 33.609375 159.0625 C 33.949219 158.394531 34.121094 157.394531 34.121094 156.0625 C 34.121094 154.726562 33.949219 153.722656 33.609375 153.058594 C 33.269531 152.390625 32.757812 152.058594 32.074219 152.058594 Z M 32.074219 151.015625 C 33.164062 151.015625 33.996094 151.449219 34.574219 152.3125 C 35.148438 153.171875 35.433594 154.421875 35.433594 156.0625 C 35.433594 157.699219 35.148438 158.949219 34.574219 159.8125 C 33.996094 160.671875 33.164062 161.101562 32.074219 161.101562 C 30.984375 161.101562 30.152344 160.671875 29.578125 159.8125 C 29.003906 158.949219 28.714844 157.699219 28.714844 156.0625 C 28.714844 154.421875 29.003906 153.171875 29.578125 152.3125 C 30.152344 151.449219 30.984375 151.015625 32.074219 151.015625 Z M 32.074219 151.015625 "/>
<path style=" stroke:none;fill-rule:nonzero;fill:rgb(0%,0%,0%);fill-opacity:1;" d="M 37.746094 159.257812 L 39.121094 159.257812 L 39.121094 160.914062 L 37.746094 160.914062 Z M 37.746094 159.257812 "/>
<path style=" stroke:none;fill-rule:nonzero;fill:rgb(0%,0%,0%);fill-opacity:1;" d="M 44.796875 152.058594 C 44.121094 152.058594 43.609375 152.390625 43.269531 153.058594 C 42.929688 153.722656 42.757812 154.726562 42.757812 156.0625 C 42.757812 157.394531 42.929688 158.394531 43.269531 159.0625 C 43.609375 159.726562 44.121094 160.0625 44.796875 160.0625 C 45.476562 160.0625 45.988281 159.726562 46.328125 159.0625 C 46.671875 158.394531 46.84375 157.394531 46.84375 156.0625 C 46.84375 154.726562 46.671875 153.722656 46.328125 153.058594 C 45.988281 152.390625 45.476562 152.058594 44.796875 152.058594 Z M 44.796875 151.015625 C 45.886719 151.015625 46.71875 151.449219 47.292969 152.3125 C 47.871094 153.171875 48.15625 154.421875 48.15625 156.0625 C 48.15625 157.699219 47.871094 158.949219 47.292969 159.8125 C 46.71875 160.671875 45.886719 161.101562 44.796875 161.101562 C 43.707031 161.101562 42.875 160.671875 42.300781 159.8125 C 41.726562 158.949219 41.4375 157.699219 41.4375 156.0625 C 41.4375 154.421875 41.726562 153.171875 42.300781 152.3125 C 42.875 151.449219 43.707031 151.015625 44.796875 151.015625 Z M 44.796875 151.015625 "/>
<path style=" stroke:none;fill-rule:nonzero;fill:rgb(0%,0%,0%);fill-opacity:1;" d="M 50.480469 151.191406 L 55.644531 151.191406 L 55.644531 152.300781 L 51.6875 152.300781 L 51.6875 154.679688 C 51.875 154.617188 52.066406 154.566406 52.257812 154.535156 C 52.449219 154.503906 52.640625 154.488281 52.832031 154.488281 C 53.917969 154.488281 54.773438 154.785156 55.410156 155.378906 C 56.042969 155.972656 56.359375 156.777344 56.359375 157.792969 C 56.359375 158.839844 56.035156 159.652344 55.382812 160.234375 C 54.730469 160.8125 53.8125 161.101562 52.628906 161.101562 C 52.222656 161.101562 51.804688 161.066406 51.382812 161 C 50.960938 160.929688 50.523438 160.824219 50.070312 160.6875 L 50.070312 159.363281 C 50.460938 159.574219 50.863281 159.734375 51.28125 159.835938 C 51.699219 159.941406 52.136719 159.992188 52.601562 159.992188 C 53.355469 159.992188 53.949219 159.796875 54.386719 159.402344 C 54.824219 159.007812 55.042969 158.472656 55.042969 157.792969 C 55.042969 157.117188 54.824219 156.582031 54.386719 156.1875 C 53.949219 155.792969 53.355469 155.59375 52.601562 155.59375 C 52.25 155.59375 51.898438 155.632812 51.550781 155.710938 C 51.203125 155.789062 50.84375 155.910156 50.480469 156.074219 Z M 50.480469 151.191406 "/>
<g clip-path="url(#clip7)" clip-rule="nonzero">
<path style="fill:none;stroke-width:0.8;stroke-linecap:square;stroke-linejoin:round;stroke:rgb(69.01961%,69.01961%,69.01961%);stroke-opacity:1;stroke-miterlimit:4;" d="M 50.144531 82.939453 L 245.443359 82.939453 " transform="matrix(1.333333,0,0,1.333333,0,0)"/>
</g>
<path style="fill:none;stroke-width:0.8;stroke-linecap:butt;stroke-linejoin:round;stroke:rgb(0%,0%,0%);stroke-opacity:1;stroke-miterlimit:4;" d="M 0.000782013 -0.00138855 L -3.500195 -0.00138855 " transform="matrix(1.333333,0,0,1.333333,66.858332,110.587789)"/>
<path style=" stroke:none;fill-rule:nonzero;fill:rgb(0%,0%,0%);fill-opacity:1;" d="M 32.074219 106.800781 C 31.398438 106.800781 30.890625 107.132812 30.546875 107.800781 C 30.207031 108.464844 30.039062 109.464844 30.039062 110.804688 C 30.039062 112.136719 30.207031 113.132812 30.546875 113.800781 C 30.890625 114.46875 31.398438 114.800781 32.074219 114.800781 C 32.757812 114.800781 33.269531 114.46875 33.609375 113.800781 C 33.949219 113.132812 34.121094 112.136719 34.121094 110.804688 C 34.121094 109.464844 33.949219 108.464844 33.609375 107.800781 C 33.269531 107.132812 32.757812 106.800781 32.074219 106.800781 Z M 32.074219 105.757812 C 33.164062 105.757812 33.996094 106.1875 34.574219 107.050781 C 35.148438 107.914062 35.433594 109.164062 35.433594 110.804688 C 35.433594 112.441406 35.148438 113.6875 34.574219 114.550781 C 33.996094 115.414062 33.164062 115.84375 32.074219 115.84375 C 30.984375 115.84375 30.152344 115.414062 29.578125 114.550781 C 29.003906 113.6875 28.714844 112.441406 28.714844 110.804688 C 28.714844 109.164062 29.003906 107.914062 29.578125 107.050781 C 30.152344 106.1875 30.984375 105.757812 32.074219 105.757812 Z M 32.074219 105.757812 "/>
<path style=" stroke:none;fill-rule:nonzero;fill:rgb(0%,0%,0%);fill-opacity:1;" d="M 37.746094 114 L 39.121094 114 L 39.121094 115.652344 L 37.746094 115.652344 Z M 37.746094 114 "/>
<path style=" stroke:none;fill-rule:nonzero;fill:rgb(0%,0%,0%);fill-opacity:1;" d="M 42.214844 114.546875 L 44.359375 114.546875 L 44.359375 107.128906 L 42.023438 107.597656 L 42.023438 106.402344 L 44.347656 105.933594 L 45.664062 105.933594 L 45.664062 114.546875 L 47.8125 114.546875 L 47.8125 115.652344 L 42.214844 115.652344 Z M 42.214844 114.546875 "/>
<path style=" stroke:none;fill-rule:nonzero;fill:rgb(0%,0%,0%);fill-opacity:1;" d="M 53.28125 106.800781 C 52.601562 106.800781 52.09375 107.132812 51.753906 107.800781 C 51.410156 108.464844 51.242188 109.464844 51.242188 110.804688 C 51.242188 112.136719 51.410156 113.132812 51.753906 113.800781 C 52.09375 114.46875 52.601562 114.800781 53.28125 114.800781 C 53.960938 114.800781 54.472656 114.46875 54.8125 113.800781 C 55.15625 113.132812 55.324219 112.136719 55.324219 110.804688 C 55.324219 109.464844 55.15625 108.464844 54.8125 107.800781 C 54.472656 107.132812 53.960938 106.800781 53.28125 106.800781 Z M 53.28125 105.757812 C 54.371094 105.757812 55.203125 106.1875 55.777344 107.050781 C 56.351562 107.914062 56.640625 109.164062 56.640625 110.804688 C 56.640625 112.441406 56.351562 113.6875 55.777344 114.550781 C 55.203125 115.414062 54.371094 115.84375 53.28125 115.84375 C 52.191406 115.84375 51.359375 115.414062 50.785156 114.550781 C 50.207031 113.6875 49.921875 112.441406 49.921875 110.804688 C 49.921875 109.164062 50.207031 107.914062 50.785156 107.050781 C 51.359375 106.1875 52.191406 105.757812 53.28125 105.757812 Z M 53.28125 105.757812 "/>
<g clip-path="url(#clip8)" clip-rule="nonzero">
<path style="fill:none;stroke-width:0.8;stroke-linecap:square;stroke-linejoin:round;stroke:rgb(69.01961%,69.01961%,69.01961%);stroke-opacity:1;stroke-miterlimit:4;" d="M 50.144531 48.996094 L 245.443359 48.996094 " transform="matrix(1.333333,0,0,1.333333,0,0)"/>
</g>
<path style="fill:none;stroke-width:0.8;stroke-linecap:butt;stroke-linejoin:round;stroke:rgb(0%,0%,0%);stroke-opacity:1;stroke-miterlimit:4;" d="M 0.000782013 -0.000286102 L -3.500195 -0.000286102 " transform="matrix(1.333333,0,0,1.333333,66.858332,65.328506)"/>
<path style=" stroke:none;fill-rule:nonzero;fill:rgb(0%,0%,0%);fill-opacity:1;" d="M 32.074219 61.539062 C 31.398438 61.539062 30.890625 61.875 30.546875 62.539062 C 30.207031 63.207031 30.039062 64.207031 30.039062 65.542969 C 30.039062 66.875 30.207031 67.875 30.546875 68.542969 C 30.890625 69.207031 31.398438 69.542969 32.074219 69.542969 C 32.757812 69.542969 33.269531 69.207031 33.609375 68.542969 C 33.949219 67.875 34.121094 66.875 34.121094 65.542969 C 34.121094 64.207031 33.949219 63.207031 33.609375 62.539062 C 33.269531 61.875 32.757812 61.539062 32.074219 61.539062 Z M 32.074219 60.5 C 33.164062 60.5 33.996094 60.929688 34.574219 61.792969 C 35.148438 62.652344 35.433594 63.902344 35.433594 65.542969 C 35.433594 67.179688 35.148438 68.429688 34.574219 69.292969 C 33.996094 70.152344 33.164062 70.582031 32.074219 70.582031 C 30.984375 70.582031 30.152344 70.152344 29.578125 69.292969 C 29.003906 68.429688 28.714844 67.179688 28.714844 65.542969 C 28.714844 63.902344 29.003906 62.652344 29.578125 61.792969 C 30.152344 60.929688 30.984375 60.5 32.074219 60.5 Z M 32.074219 60.5 "/>
<path style=" stroke:none;fill-rule:nonzero;fill:rgb(0%,0%,0%);fill-opacity:1;" d="M 37.746094 68.738281 L 39.121094 68.738281 L 39.121094 70.394531 L 37.746094 70.394531 Z M 37.746094 68.738281 "/>
<path style=" stroke:none;fill-rule:nonzero;fill:rgb(0%,0%,0%);fill-opacity:1;" d="M 42.214844 69.289062 L 44.359375 69.289062 L 44.359375 61.871094 L 42.023438 62.339844 L 42.023438 61.140625 L 44.347656 60.671875 L 45.664062 60.671875 L 45.664062 69.289062 L 47.8125 69.289062 L 47.8125 70.394531 L 42.214844 70.394531 Z M 42.214844 69.289062 "/>
<path style=" stroke:none;fill-rule:nonzero;fill:rgb(0%,0%,0%);fill-opacity:1;" d="M 50.480469 60.671875 L 55.644531 60.671875 L 55.644531 61.78125 L 51.6875 61.78125 L 51.6875 64.164062 C 51.875 64.097656 52.066406 64.050781 52.257812 64.015625 C 52.449219 63.984375 52.640625 63.96875 52.832031 63.96875 C 53.917969 63.96875 54.773438 64.265625 55.410156 64.859375 C 56.042969 65.457031 56.359375 66.261719 56.359375 67.273438 C 56.359375 68.320312 56.035156 69.132812 55.382812 69.714844 C 54.730469 70.292969 53.8125 70.582031 52.628906 70.582031 C 52.222656 70.582031 51.804688 70.550781 51.382812 70.480469 C 50.960938 70.410156 50.523438 70.304688 50.070312 70.167969 L 50.070312 68.84375 C 50.460938 69.054688 50.863281 69.214844 51.28125 69.320312 C 51.699219 69.421875 52.136719 69.476562 52.601562 69.476562 C 53.355469 69.476562 53.949219 69.277344 54.386719 68.882812 C 54.824219 68.488281 55.042969 67.953125 55.042969 67.273438 C 55.042969 66.597656 54.824219 66.0625 54.386719 65.667969 C 53.949219 65.273438 53.355469 65.074219 52.601562 65.074219 C 52.25 65.074219 51.898438 65.113281 51.550781 65.191406 C 51.203125 65.269531 50.84375 65.390625 50.480469 65.554688 Z M 50.480469 60.671875 "/>
<g clip-path="url(#clip9)" clip-rule="nonzero">
<path style="fill:none;stroke-width:0.8;stroke-linecap:square;stroke-linejoin:round;stroke:rgb(69.01961%,69.01961%,69.01961%);stroke-opacity:1;stroke-miterlimit:4;" d="M 50.144531 15.052734 L 245.443359 15.052734 " transform="matrix(1.333333,0,0,1.333333,0,0)"/>
</g>
<path style="fill:none;stroke-width:0.8;stroke-linecap:butt;stroke-linejoin:round;stroke:rgb(0%,0%,0%);stroke-opacity:1;stroke-miterlimit:4;" d="M 0.000782013 0.000812531 L -3.500195 0.000812531 " transform="matrix(1.333333,0,0,1.333333,66.858332,20.069229)"/>
<path style=" stroke:none;fill-rule:nonzero;fill:rgb(0%,0%,0%);fill-opacity:1;" d="M 32.074219 16.28125 C 31.398438 16.28125 30.890625 16.613281 30.546875 17.28125 C 30.207031 17.945312 30.039062 18.949219 30.039062 20.285156 C 30.039062 21.617188 30.207031 22.617188 30.546875 23.28125 C 30.890625 23.949219 31.398438 24.28125 32.074219 24.28125 C 32.757812 24.28125 33.269531 23.949219 33.609375 23.28125 C 33.949219 22.617188 34.121094 21.617188 34.121094 20.285156 C 34.121094 18.949219 33.949219 17.945312 33.609375 17.28125 C 33.269531 16.613281 32.757812 16.28125 32.074219 16.28125 Z M 32.074219 15.238281 C 33.164062 15.238281 33.996094 15.671875 34.574219 16.53125 C 35.148438 17.394531 35.433594 18.644531 35.433594 20.285156 C 35.433594 21.921875 35.148438 23.171875 34.574219 24.03125 C 33.996094 24.894531 33.164062 25.324219 32.074219 25.324219 C 30.984375 25.324219 30.152344 24.894531 29.578125 24.03125 C 29.003906 23.171875 28.714844 21.921875 28.714844 20.285156 C 28.714844 18.644531 29.003906 17.394531 29.578125 16.53125 C 30.152344 15.671875 30.984375 15.238281 32.074219 15.238281 Z M 32.074219 15.238281 "/>
<path style=" stroke:none;fill-rule:nonzero;fill:rgb(0%,0%,0%);fill-opacity:1;" d="M 37.746094 23.480469 L 39.121094 23.480469 L 39.121094 25.136719 L 37.746094 25.136719 Z M 37.746094 23.480469 "/>
<path style=" stroke:none;fill-rule:nonzero;fill:rgb(0%,0%,0%);fill-opacity:1;" d="M 43.117188 24.027344 L 47.707031 24.027344 L 47.707031 25.136719 L 41.535156 25.136719 L 41.535156 24.027344 C 42.035156 23.511719 42.714844 22.820312 43.574219 21.949219 C 44.4375 21.078125 44.980469 20.515625 45.199219 20.265625 C 45.621094 19.792969 45.914062 19.390625 46.082031 19.0625 C 46.25 18.734375 46.332031 18.414062 46.332031 18.097656 C 46.332031 17.582031 46.152344 17.160156 45.789062 16.835938 C 45.425781 16.507812 44.957031 16.34375 44.375 16.34375 C 43.960938 16.34375 43.527344 16.417969 43.066406 16.558594 C 42.609375 16.703125 42.121094 16.921875 41.601562 17.210938 L 41.601562 15.882812 C 42.128906 15.671875 42.625 15.511719 43.082031 15.402344 C 43.546875 15.292969 43.964844 15.238281 44.347656 15.238281 C 45.355469 15.238281 46.15625 15.492188 46.757812 15.996094 C 47.355469 16.5 47.65625 17.171875 47.65625 18.011719 C 47.65625 18.410156 47.578125 18.792969 47.429688 19.148438 C 47.28125 19.507812 47.007812 19.929688 46.613281 20.414062 C 46.503906 20.539062 46.160156 20.90625 45.578125 21.503906 C 44.996094 22.105469 44.175781 22.949219 43.117188 24.027344 Z M 43.117188 24.027344 "/>
<path style=" stroke:none;fill-rule:nonzero;fill:rgb(0%,0%,0%);fill-opacity:1;" d="M 53.28125 16.28125 C 52.601562 16.28125 52.09375 16.613281 51.753906 17.28125 C 51.410156 17.945312 51.242188 18.949219 51.242188 20.285156 C 51.242188 21.617188 51.410156 22.617188 51.753906 23.28125 C 52.09375 23.949219 52.601562 24.28125 53.28125 24.28125 C 53.960938 24.28125 54.472656 23.949219 54.8125 23.28125 C 55.15625 22.617188 55.324219 21.617188 55.324219 20.285156 C 55.324219 18.949219 55.15625 17.945312 54.8125 17.28125 C 54.472656 16.613281 53.960938 16.28125 53.28125 16.28125 Z M 53.28125 15.238281 C 54.371094 15.238281 55.203125 15.671875 55.777344 16.53125 C 56.351562 17.394531 56.640625 18.644531 56.640625 20.285156 C 56.640625 21.921875 56.351562 23.171875 55.777344 24.03125 C 55.203125 24.894531 54.371094 25.324219 53.28125 25.324219 C 52.191406 25.324219 51.359375 24.894531 50.785156 24.03125 C 50.207031 23.171875 49.921875 21.921875 49.921875 20.285156 C 49.921875 18.644531 50.207031 17.394531 50.785156 16.53125 C 51.359375 15.671875 52.191406 15.238281 53.28125 15.238281 Z M 53.28125 15.238281 "/>
<path style=" stroke:none;fill-rule:nonzero;fill:rgb(0%,0%,0%);fill-opacity:1;" d="M 9.601562 111.820312 L 9.601562 110.621094 L 19.730469 110.621094 L 19.730469 111.820312 Z M 9.601562 111.820312 "/>
<path style=" stroke:none;fill-rule:nonzero;fill:rgb(0%,0%,0%);fill-opacity:1;" d="M 13.277344 105.292969 C 13.277344 105.933594 13.53125 106.441406 14.03125 106.8125 C 14.53125 107.1875 15.21875 107.375 16.089844 107.375 C 16.964844 107.375 17.652344 107.1875 18.152344 106.820312 C 18.652344 106.445312 18.902344 105.9375 18.902344 105.292969 C 18.902344 104.652344 18.652344 104.148438 18.148438 103.773438 C 17.644531 103.402344 16.960938 103.214844 16.089844 103.214844 C 15.226562 103.214844 14.542969 103.402344 14.039062 103.773438 C 13.53125 104.148438 13.277344 104.652344 13.277344 105.292969 Z M 12.265625 105.292969 C 12.265625 104.25 12.601562 103.433594 13.28125 102.835938 C 13.957031 102.242188 14.894531 101.945312 16.089844 101.945312 C 17.285156 101.945312 18.222656 102.242188 18.902344 102.835938 C 19.582031 103.433594 19.921875 104.25 19.921875 105.292969 C 19.921875 106.335938 19.582031 107.15625 18.902344 107.75 C 18.222656 108.339844 17.285156 108.636719 16.089844 108.636719 C 14.894531 108.636719 13.957031 108.339844 13.28125 107.75 C 12.601562 107.15625 12.265625 106.335938 12.265625 105.292969 Z M 12.265625 105.292969 "/>
<path style=" stroke:none;fill-rule:nonzero;fill:rgb(0%,0%,0%);fill-opacity:1;" d="M 12.652344 95.3125 L 13.789062 95.3125 C 13.613281 95.648438 13.484375 96 13.398438 96.363281 C 13.308594 96.730469 13.265625 97.105469 13.265625 97.5 C 13.265625 98.09375 13.359375 98.539062 13.539062 98.835938 C 13.722656 99.132812 13.996094 99.28125 14.359375 99.28125 C 14.636719 99.28125 14.855469 99.175781 15.015625 98.964844 C 15.171875 98.75 15.324219 98.324219 15.464844 97.679688 L 15.558594 97.269531 C 15.742188 96.417969 15.996094 95.816406 16.328125 95.457031 C 16.660156 95.097656 17.125 94.917969 17.71875 94.917969 C 18.398438 94.917969 18.933594 95.1875 19.328125 95.722656 C 19.722656 96.257812 19.921875 96.996094 19.921875 97.933594 C 19.921875 98.324219 19.882812 98.730469 19.804688 99.15625 C 19.730469 99.578125 19.617188 100.023438 19.464844 100.492188 L 18.226562 100.492188 C 18.457031 100.050781 18.628906 99.613281 18.746094 99.183594 C 18.859375 98.753906 18.917969 98.328125 18.917969 97.90625 C 18.917969 97.34375 18.820312 96.910156 18.628906 96.605469 C 18.433594 96.300781 18.160156 96.152344 17.808594 96.152344 C 17.484375 96.152344 17.234375 96.261719 17.0625 96.480469 C 16.890625 96.699219 16.722656 97.179688 16.558594 97.921875 L 16.460938 98.339844 C 16.308594 99.078125 16.066406 99.617188 15.742188 99.945312 C 15.421875 100.277344 14.976562 100.441406 14.414062 100.441406 C 13.726562 100.441406 13.195312 100.195312 12.824219 99.710938 C 12.453125 99.226562 12.265625 98.535156 12.265625 97.640625 C 12.265625 97.199219 12.296875 96.78125 12.363281 96.390625 C 12.425781 96 12.523438 95.640625 12.652344 95.3125 Z M 12.652344 95.3125 "/>
<path style=" stroke:none;fill-rule:nonzero;fill:rgb(0%,0%,0%);fill-opacity:1;" d="M 12.652344 88.363281 L 13.789062 88.363281 C 13.613281 88.703125 13.484375 89.054688 13.398438 89.417969 C 13.308594 89.78125 13.265625 90.160156 13.265625 90.550781 C 13.265625 91.144531 13.359375 91.59375 13.539062 91.890625 C 13.722656 92.1875 13.996094 92.335938 14.359375 92.335938 C 14.636719 92.335938 14.855469 92.230469 15.015625 92.015625 C 15.171875 91.804688 15.324219 91.375 15.464844 90.734375 L 15.558594 90.324219 C 15.742188 89.472656 15.996094 88.867188 16.328125 88.511719 C 16.660156 88.152344 17.125 87.972656 17.71875 87.972656 C 18.398438 87.972656 18.933594 88.242188 19.328125 88.777344 C 19.722656 89.3125 19.921875 90.050781 19.921875 90.988281 C 19.921875 91.378906 19.882812 91.785156 19.804688 92.207031 C 19.730469 92.632812 19.617188 93.078125 19.464844 93.546875 L 18.226562 93.546875 C 18.457031 93.101562 18.628906 92.667969 18.746094 92.238281 C 18.859375 91.808594 18.917969 91.382812 18.917969 90.960938 C 18.917969 90.394531 18.820312 89.964844 18.628906 89.660156 C 18.433594 89.355469 18.160156 89.203125 17.808594 89.203125 C 17.484375 89.203125 17.234375 89.3125 17.0625 89.53125 C 16.890625 89.75 16.722656 90.230469 16.558594 90.976562 L 16.460938 91.390625 C 16.308594 92.132812 16.066406 92.667969 15.742188 93 C 15.421875 93.328125 14.976562 93.492188 14.414062 93.492188 C 13.726562 93.492188 13.195312 93.25 12.824219 92.765625 C 12.453125 92.277344 12.265625 91.589844 12.265625 90.695312 C 12.265625 90.25 12.296875 89.835938 12.363281 89.445312 C 12.425781 89.054688 12.523438 88.695312 12.652344 88.363281 Z M 12.652344 88.363281 "/>
<g clip-path="url(#clip10)" clip-rule="nonzero">
<path style="fill:none;stroke-width:1.5;stroke-linecap:square;stroke-linejoin:round;stroke:rgb(12.156863%,46.666667%,70.588237%);stroke-opacity:1;stroke-miterlimit:4;" d="M 50.144531 13.376953 L 58.280273 59.150391 L 66.418945 82.646484 L 74.557617 98.326172 L 82.693359 108.726562 L 90.832031 115.918945 L 98.967773 120.46875 L 107.106445 123.805664 L 115.245117 127.207031 L 123.380859 128.293945 L 131.519531 130.661133 L 139.655273 131.765625 L 147.793945 132.849609 L 155.932617 133.957031 L 164.068359 134.021484 L 172.207031 134.800781 L 180.342773 135.084961 L 188.481445 135.744141 L 196.620117 136.086914 L 204.755859 136.171875 L 212.894531 136.485352 L 221.030273 136.458984 L 229.168945 136.456055 L 237.307617 136.921875 L 245.443359 136.69043 " transform="matrix(1.333333,0,0,1.333333,0,0)"/>
</g>
<path style="fill:none;stroke-width:0.8;stroke-linecap:square;stroke-linejoin:miter;stroke:rgb(0%,0%,0%);stroke-opacity:1;stroke-miterlimit:4;" d="M 50.144531 143.100586 L 50.144531 7.201172 " transform="matrix(1.333333,0,0,1.333333,0,0)"/>
<path style="fill:none;stroke-width:0.8;stroke-linecap:square;stroke-linejoin:miter;stroke:rgb(0%,0%,0%);stroke-opacity:1;stroke-miterlimit:4;" d="M 245.443359 143.100586 L 245.443359 7.201172 " transform="matrix(1.333333,0,0,1.333333,0,0)"/>
<path style="fill:none;stroke-width:0.8;stroke-linecap:square;stroke-linejoin:miter;stroke:rgb(0%,0%,0%);stroke-opacity:1;stroke-miterlimit:4;" d="M 50.144531 143.100586 L 245.443359 143.100586 " transform="matrix(1.333333,0,0,1.333333,0,0)"/>
<path style="fill:none;stroke-width:0.8;stroke-linecap:square;stroke-linejoin:miter;stroke:rgb(0%,0%,0%);stroke-opacity:1;stroke-miterlimit:4;" d="M 50.144531 7.201172 L 245.443359 7.201172 " transform="matrix(1.333333,0,0,1.333333,0,0)"/>
</g>
</svg>
