<?xml version="1.0" encoding="UTF-8"?>
<svg xmlns="http://www.w3.org/2000/svg" xmlns:xlink="http://www.w3.org/1999/xlink" width="349.583333" height="240.875" viewBox="0 0 349.583333 240.875" version="1.1">
<defs>
<clipPath id="clip1">
  <path d="M 120 9.601562 L 123 9.601562 L 123 190.800781 L 120 190.800781 Z M 120 9.601562 "/>
</clipPath>
<clipPath id="clip2">
  <path d="M 189 9.601562 L 191 9.601562 L 191 190.800781 L 189 190.800781 Z M 189 9.601562 "/>
</clipPath>
<clipPath id="clip3">
  <path d="M 257 9.601562 L 260 9.601562 L 260 190.800781 L 257 190.800781 Z M 257 9.601562 "/>
</clipPath>
<clipPath id="clip4">
  <path d="M 326 9.601562 L 327.257812 9.601562 L 327.257812 190.800781 L 326 190.800781 Z M 326 9.601562 "/>
</clipPath>
<clipPath id="clip5">
  <path d="M 66.859375 159 L 327.257812 159 L 327.257812 162 L 66.859375 162 Z M 66.859375 159 "/>
</clipPath>
<clipPath id="clip6">
  <path d="M 66.859375 105 L 327.257812 105 L 327.257812 107 L 66.859375 107 Z M 66.859375 105 "/>
</clipPath>
<clipPath id="clip7">
  <path d="M 66.859375 50 L 327.257812 50 L 327.257812 53 L 66.859375 53 Z M 66.859375 50 "/>
</clipPath>
<clipPath id="clip8">
  <path d="M 66.859375 16 L 327.257812 16 L 327.257812 184 L 66.859375 184 Z M 66.859375 16 "/>
</clipPath>
</defs>
<g id="surface1">
<path style=" stroke:none;fill-rule:nonzero;fill:rgb(100%,100%,100%);fill-opacity:1;" d="M 66.859375 190.800781 L 327.257812 190.800781 L 327.257812 9.601562 L 66.859375 9.601562 Z M 66.859375 190.800781 "/>
<g clip-path="url(#clip1)" clip-rule="nonzero">
<path style="fill:none;stroke-width:0.8;stroke-linecap:square;stroke-linejoin:round;stroke:rgb(69.01961%,69.01961%,69.01961%);stroke-opacity:1;stroke-miterlimit:4;" d="M 91.259766 143.100586 L 91.259766 7.201172 " transform="matrix(1.333333,0,0,1.333333,0,0)"/>
</g>
<path style="fill:none;stroke-width:0.8;stroke-linecap:butt;stroke-linejoin:round;stroke:rgb(0%,0%,0%);stroke-opacity:1;stroke-miterlimit:4;" d="M 0.000228882 0.000579834 L 0.000228882 3.498627 " transform="matrix(1.333333,0,0,1.333333,121.679382,190.800008)"/>
<path style=" stroke:none;fill-rule:nonzero;fill:rgb(0%,0%,0%);fill-opacity:1;" d="M 114.636719 200.542969 L 119.796875 200.542969 L 119.796875 201.652344 L 115.839844 201.652344 L 115.839844 204.035156 C 116.03125 203.96875 116.21875 203.917969 116.410156 203.886719 C 116.601562 203.855469 116.792969 203.839844 116.984375 203.839844 C 118.070312 203.839844 118.929688 204.136719 119.5625 204.730469 C 120.199219 205.324219 120.515625 206.128906 120.515625 207.144531 C 120.515625 208.191406 120.1875 209.003906 119.539062 209.585938 C 118.886719 210.164062 117.96875 210.453125 116.785156 210.453125 C 116.375 210.453125 115.960938 210.417969 115.535156 210.351562 C 115.113281 210.28125 114.675781 210.175781 114.226562 210.039062 L 114.226562 208.714844 C 114.617188 208.925781 115.019531 209.085938 115.4375 209.191406 C 115.851562 209.292969 116.292969 209.347656 116.757812 209.347656 C 117.507812 209.347656 118.101562 209.148438 118.539062 208.753906 C 118.980469 208.359375 119.199219 207.824219 119.199219 207.144531 C 119.199219 206.46875 118.980469 205.933594 118.539062 205.539062 C 118.101562 205.144531 117.507812 204.945312 116.757812 204.945312 C 116.40625 204.945312 116.054688 204.984375 115.703125 205.0625 C 115.355469 205.140625 115 205.261719 114.636719 205.425781 Z M 114.636719 200.542969 "/>
<path style=" stroke:none;fill-rule:nonzero;fill:rgb(0%,0%,0%);fill-opacity:1;" d="M 125.917969 201.410156 C 125.242188 201.410156 124.730469 201.742188 124.390625 202.410156 C 124.050781 203.074219 123.878906 204.078125 123.878906 205.414062 C 123.878906 206.746094 124.050781 207.746094 124.390625 208.414062 C 124.730469 209.078125 125.242188 209.414062 125.917969 209.414062 C 126.597656 209.414062 127.109375 209.078125 127.449219 208.414062 C 127.792969 207.746094 127.960938 206.746094 127.960938 205.414062 C 127.960938 204.078125 127.792969 203.074219 127.449219 202.410156 C 127.109375 201.742188 126.597656 201.410156 125.917969 201.410156 Z M 125.917969 200.367188 C 127.007812 200.367188 127.839844 200.800781 128.414062 201.664062 C 128.988281 202.523438 129.277344 203.773438 129.277344 205.414062 C 129.277344 207.050781 128.988281 208.300781 128.414062 209.164062 C 127.839844 210.023438 127.007812 210.453125 125.917969 210.453125 C 124.828125 210.453125 123.996094 210.023438 123.421875 209.164062 C 122.847656 208.300781 122.558594 207.050781 122.558594 205.414062 C 122.558594 203.773438 122.847656 202.523438 123.421875 201.664062 C 123.996094 200.800781 124.828125 200.367188 125.917969 200.367188 Z M 125.917969 200.367188 "/>
<g clip-path="url(#clip2)" clip-rule="nonzero">
<path style="fill:none;stroke-width:0.8;stroke-linecap:square;stroke-linejoin:round;stroke:rgb(69.01961%,69.01961%,69.01961%);stroke-opacity:1;stroke-miterlimit:4;" d="M 142.655273 143.100586 L 142.655273 7.201172 " transform="matrix(1.333333,0,0,1.333333,0,0)"/>
</g>
<path style="fill:none;stroke-width:0.8;stroke-linecap:butt;stroke-linejoin:round;stroke:rgb(0%,0%,0%);stroke-opacity:1;stroke-miterlimit:4;" d="M 0.000991821 0.000579834 L 0.000991821 3.498627 " transform="matrix(1.333333,0,0,1.333333,190.205709,190.800008)"/>
<path style=" stroke:none;fill-rule:nonzero;fill:rgb(0%,0%,0%);fill-opacity:1;" d="M 179.136719 209.160156 L 181.28125 209.160156 L 181.28125 201.742188 L 178.945312 202.210938 L 178.945312 201.011719 L 181.269531 200.542969 L 182.585938 200.542969 L 182.585938 209.160156 L 184.734375 209.160156 L 184.734375 210.265625 L 179.136719 210.265625 Z M 179.136719 209.160156 "/>
<path style=" stroke:none;fill-rule:nonzero;fill:rgb(0%,0%,0%);fill-opacity:1;" d="M 190.203125 201.410156 C 189.523438 201.410156 189.015625 201.742188 188.675781 202.410156 C 188.332031 203.074219 188.164062 204.078125 188.164062 205.414062 C 188.164062 206.746094 188.332031 207.746094 188.675781 208.414062 C 189.015625 209.078125 189.523438 209.414062 190.203125 209.414062 C 190.882812 209.414062 191.394531 209.078125 191.734375 208.414062 C 192.078125 207.746094 192.246094 206.746094 192.246094 205.414062 C 192.246094 204.078125 192.078125 203.074219 191.734375 202.410156 C 191.394531 201.742188 190.882812 201.410156 190.203125 201.410156 Z M 190.203125 200.367188 C 191.292969 200.367188 192.125 200.800781 192.699219 201.664062 C 193.273438 202.523438 193.5625 203.773438 193.5625 205.414062 C 193.5625 207.050781 193.273438 208.300781 192.699219 209.164062 C 192.125 210.023438 191.292969 210.453125 190.203125 210.453125 C 189.113281 210.453125 188.28125 210.023438 187.707031 209.164062 C 187.128906 208.300781 186.84375 207.050781 186.84375 205.414062 C 186.84375 203.773438 187.128906 202.523438 187.707031 201.664062 C 188.28125 200.800781 189.113281 200.367188 190.203125 200.367188 Z M 190.203125 200.367188 "/>
<path style=" stroke:none;fill-rule:nonzero;fill:rgb(0%,0%,0%);fill-opacity:1;" d="M 198.683594 201.410156 C 198.007812 201.410156 197.5 201.742188 197.15625 202.410156 C 196.816406 203.074219 196.648438 204.078125 196.648438 205.414062 C 196.648438 206.746094 196.816406 207.746094 197.15625 208.414062 C 197.5 209.078125 198.007812 209.414062 198.683594 209.414062 C 199.367188 209.414062 199.878906 209.078125 200.21875 208.414062 C 200.558594 207.746094 200.730469 206.746094 200.730469 205.414062 C 200.730469 204.078125 200.558594 203.074219 200.21875 202.410156 C 199.878906 201.742188 199.367188 201.410156 198.683594 201.410156 Z M 198.683594 200.367188 C 199.773438 200.367188 200.605469 200.800781 201.183594 201.664062 C 201.757812 202.523438 202.042969 203.773438 202.042969 205.414062 C 202.042969 207.050781 201.757812 208.300781 201.183594 209.164062 C 200.605469 210.023438 199.773438 210.453125 198.683594 210.453125 C 197.59375 210.453125 196.761719 210.023438 196.1875 209.164062 C 195.613281 208.300781 195.324219 207.050781 195.324219 205.414062 C 195.324219 203.773438 195.613281 202.523438 196.1875 201.664062 C 196.761719 200.800781 197.59375 200.367188 198.683594 200.367188 Z M 198.683594 200.367188 "/>
<g clip-path="url(#clip3)" clip-rule="nonzero">
<path style="fill:none;stroke-width:0.8;stroke-linecap:square;stroke-linejoin:round;stroke:rgb(69.01961%,69.01961%,69.01961%);stroke-opacity:1;stroke-miterlimit:4;" d="M 194.047852 143.100586 L 194.047852 7.201172 " transform="matrix(1.333333,0,0,1.333333,0,0)"/>
</g>
<path style="fill:none;stroke-width:0.8;stroke-linecap:butt;stroke-linejoin:round;stroke:rgb(0%,0%,0%);stroke-opacity:1;stroke-miterlimit:4;" d="M -0.00115967 0.000579834 L -0.00115967 3.498627 " transform="matrix(1.333333,0,0,1.333333,258.732015,190.800008)"/>
<path style=" stroke:none;fill-rule:nonzero;fill:rgb(0%,0%,0%);fill-opacity:1;" d="M 247.660156 209.160156 L 249.808594 209.160156 L 249.808594 201.742188 L 247.472656 202.210938 L 247.472656 201.011719 L 249.796875 200.542969 L 251.109375 200.542969 L 251.109375 209.160156 L 253.257812 209.160156 L 253.257812 210.265625 L 247.660156 210.265625 Z M 247.660156 209.160156 "/>
<path style=" stroke:none;fill-rule:nonzero;fill:rgb(0%,0%,0%);fill-opacity:1;" d="M 255.929688 200.542969 L 261.09375 200.542969 L 261.09375 201.652344 L 257.132812 201.652344 L 257.132812 204.035156 C 257.324219 203.96875 257.515625 203.917969 257.703125 203.886719 C 257.894531 203.855469 258.089844 203.839844 258.28125 203.839844 C 259.363281 203.839844 260.222656 204.136719 260.855469 204.730469 C 261.492188 205.324219 261.808594 206.128906 261.808594 207.144531 C 261.808594 208.191406 261.484375 209.003906 260.832031 209.585938 C 260.179688 210.164062 259.261719 210.453125 258.078125 210.453125 C 257.667969 210.453125 257.253906 210.417969 256.828125 210.351562 C 256.40625 210.28125 255.96875 210.175781 255.519531 210.039062 L 255.519531 208.714844 C 255.910156 208.925781 256.3125 209.085938 256.730469 209.191406 C 257.144531 209.292969 257.585938 209.347656 258.050781 209.347656 C 258.800781 209.347656 259.394531 209.148438 259.832031 208.753906 C 260.273438 208.359375 260.492188 207.824219 260.492188 207.144531 C 260.492188 206.46875 260.273438 205.933594 259.832031 205.539062 C 259.394531 205.144531 258.800781 204.945312 258.050781 204.945312 C 257.699219 204.945312 257.347656 204.984375 257 205.0625 C 256.648438 205.140625 256.292969 205.261719 255.929688 205.425781 Z M 255.929688 200.542969 "/>
<path style=" stroke:none;fill-rule:nonzero;fill:rgb(0%,0%,0%);fill-opacity:1;" d="M 267.210938 201.410156 C 266.535156 201.410156 266.023438 201.742188 265.683594 202.410156 C 265.34375 203.074219 265.171875 204.078125 265.171875 205.414062 C 265.171875 206.746094 265.34375 207.746094 265.683594 208.414062 C 266.023438 209.078125 266.535156 209.414062 267.210938 209.414062 C 267.894531 209.414062 268.402344 209.078125 268.742188 208.414062 C 269.085938 207.746094 269.257812 206.746094 269.257812 205.414062 C 269.257812 204.078125 269.085938 203.074219 268.742188 202.410156 C 268.402344 201.742188 267.894531 201.410156 267.210938 201.410156 Z M 267.210938 200.367188 C 268.300781 200.367188 269.132812 200.800781 269.707031 201.664062 C 270.285156 202.523438 270.570312 203.773438 270.570312 205.414062 C 270.570312 207.050781 270.285156 208.300781 269.707031 209.164062 C 269.132812 210.023438 268.300781 210.453125 267.210938 210.453125 C 266.121094 210.453125 265.289062 210.023438 264.714844 209.164062 C 264.140625 208.300781 263.851562 207.050781 263.851562 205.414062 C 263.851562 203.773438 264.140625 202.523438 264.714844 201.664062 C 265.289062 200.800781 266.121094 200.367188 267.210938 200.367188 Z M 267.210938 200.367188 "/>
<g clip-path="url(#clip4)" clip-rule="nonzero">
<path style="fill:none;stroke-width:0.8;stroke-linecap:square;stroke-linejoin:round;stroke:rgb(69.01961%,69.01961%,69.01961%);stroke-opacity:1;stroke-miterlimit:4;" d="M 245.443359 143.100586 L 245.443359 7.201172 " transform="matrix(1.333333,0,0,1.333333,0,0)"/>
</g>
<path style="fill:none;stroke-width:0.8;stroke-linecap:butt;stroke-linejoin:round;stroke:rgb(0%,0%,0%);stroke-opacity:1;stroke-miterlimit:4;" d="M -0.000396729 0.000579834 L -0.000396729 3.498627 " transform="matrix(1.333333,0,0,1.333333,327.258341,190.800008)"/>
<path style=" stroke:none;fill-rule:nonzero;fill:rgb(0%,0%,0%);fill-opacity:1;" d="M 317.089844 209.160156 L 321.679688 209.160156 L 321.679688 210.265625 L 315.511719 210.265625 L 315.511719 209.160156 C 316.007812 208.640625 316.6875 207.949219 317.550781 207.078125 C 318.414062 206.207031 318.953125 205.648438 319.175781 205.394531 C 319.597656 204.921875 319.890625 204.523438 320.054688 204.195312 C 320.222656 203.867188 320.308594 203.542969 320.308594 203.226562 C 320.308594 202.710938 320.128906 202.289062 319.765625 201.964844 C 319.402344 201.636719 318.929688 201.476562 318.347656 201.476562 C 317.933594 201.476562 317.5 201.546875 317.042969 201.691406 C 316.585938 201.832031 316.097656 202.050781 315.574219 202.339844 L 315.574219 201.011719 C 316.105469 200.800781 316.597656 200.640625 317.058594 200.53125 C 317.519531 200.421875 317.941406 200.367188 318.324219 200.367188 C 319.328125 200.367188 320.132812 200.621094 320.730469 201.125 C 321.328125 201.628906 321.628906 202.300781 321.628906 203.140625 C 321.628906 203.542969 321.554688 203.921875 321.402344 204.277344 C 321.253906 204.636719 320.984375 205.058594 320.585938 205.542969 C 320.480469 205.671875 320.132812 206.035156 319.550781 206.636719 C 318.972656 207.238281 318.152344 208.078125 317.089844 209.160156 Z M 317.089844 209.160156 "/>
<path style=" stroke:none;fill-rule:nonzero;fill:rgb(0%,0%,0%);fill-opacity:1;" d="M 327.253906 201.410156 C 326.578125 201.410156 326.070312 201.742188 325.726562 202.410156 C 325.386719 203.074219 325.214844 204.078125 325.214844 205.414062 C 325.214844 206.746094 325.386719 207.746094 325.726562 208.414062 C 326.070312 209.078125 326.578125 209.414062 327.253906 209.414062 C 327.9375 209.414062 328.445312 209.078125 328.789062 208.414062 C 329.128906 207.746094 329.300781 206.746094 329.300781 205.414062 C 329.300781 204.078125 329.128906 203.074219 328.789062 202.410156 C 328.445312 201.742188 327.9375 201.410156 327.253906 201.410156 Z M 327.253906 200.367188 C 328.34375 200.367188 329.175781 200.800781 329.75 201.664062 C 330.328125 202.523438 330.613281 203.773438 330.613281 205.414062 C 330.613281 207.050781 330.328125 208.300781 329.75 209.164062 C 329.175781 210.023438 328.34375 210.453125 327.253906 210.453125 C 326.164062 210.453125 325.332031 210.023438 324.757812 209.164062 C 324.183594 208.300781 323.894531 207.050781 323.894531 205.414062 C 323.894531 203.773438 324.183594 202.523438 324.757812 201.664062 C 325.332031 200.800781 326.164062 200.367188 327.253906 200.367188 Z M 327.253906 200.367188 "/>
<path style=" stroke:none;fill-rule:nonzero;fill:rgb(0%,0%,0%);fill-opacity:1;" d="M 335.738281 201.410156 C 335.0625 201.410156 334.550781 201.742188 334.210938 202.410156 C 333.871094 203.074219 333.699219 204.078125 333.699219 205.414062 C 333.699219 206.746094 333.871094 207.746094 334.210938 208.414062 C 334.550781 209.078125 335.0625 209.414062 335.738281 209.414062 C 336.417969 209.414062 336.929688 209.078125 337.269531 208.414062 C 337.613281 207.746094 337.78125 206.746094 337.78125 205.414062 C 337.78125 204.078125 337.613281 203.074219 337.269531 202.410156 C 336.929688 201.742188 336.417969 201.410156 335.738281 201.410156 Z M 335.738281 200.367188 C 336.828125 200.367188 337.660156 200.800781 338.234375 201.664062 C 338.808594 202.523438 339.097656 203.773438 339.097656 205.414062 C 339.097656 207.050781 338.808594 208.300781 338.234375 209.164062 C 337.660156 210.023438 336.828125 210.453125 335.738281 210.453125 C 334.648438 210.453125 333.816406 210.023438 333.242188 209.164062 C 332.667969 208.300781 332.378906 207.050781 332.378906 205.414062 C 332.378906 203.773438 332.667969 202.523438 333.242188 201.664062 C 333.816406 200.800781 334.648438 200.367188 335.738281 200.367188 Z M 335.738281 200.367188 "/>
<path style=" stroke:none;fill-rule:nonzero;fill:rgb(0%,0%,0%);fill-opacity:1;" d="M 184.246094 224.554688 L 184.246094 225.140625 L 178.738281 225.140625 C 178.792969 225.964844 179.039062 226.59375 179.484375 227.027344 C 179.929688 227.460938 180.550781 227.675781 181.34375 227.675781 C 181.804688 227.675781 182.25 227.617188 182.679688 227.507812 C 183.113281 227.394531 183.542969 227.222656 183.96875 226.996094 L 183.96875 228.132812 C 183.539062 228.3125 183.097656 228.453125 182.644531 228.546875 C 182.195312 228.644531 181.738281 228.691406 181.273438 228.691406 C 180.109375 228.691406 179.1875 228.351562 178.507812 227.675781 C 177.828125 227 177.488281 226.082031 177.488281 224.925781 C 177.488281 223.734375 177.8125 222.789062 178.457031 222.085938 C 179.101562 221.386719 179.96875 221.035156 181.066406 221.035156 C 182.046875 221.035156 182.820312 221.351562 183.390625 221.984375 C 183.960938 222.613281 184.246094 223.472656 184.246094 224.554688 Z M 183.050781 224.203125 C 183.042969 223.550781 182.859375 223.027344 182.5 222.636719 C 182.140625 222.246094 181.667969 222.050781 181.078125 222.050781 C 180.410156 222.050781 179.875 222.238281 179.472656 222.617188 C 179.070312 222.996094 178.839844 223.527344 178.777344 224.210938 Z M 183.050781 224.203125 "/>
<path style=" stroke:none;fill-rule:nonzero;fill:rgb(0%,0%,0%);fill-opacity:1;" d="M 187.371094 227.410156 L 187.371094 231.273438 L 186.167969 231.273438 L 186.167969 221.210938 L 187.371094 221.210938 L 187.371094 222.316406 C 187.625 221.882812 187.941406 221.5625 188.324219 221.351562 C 188.710938 221.140625 189.167969 221.035156 189.703125 221.035156 C 190.589844 221.035156 191.308594 221.386719 191.863281 222.089844 C 192.414062 222.792969 192.691406 223.714844 192.691406 224.863281 C 192.691406 226.007812 192.414062 226.933594 191.863281 227.636719 C 191.308594 228.339844 190.589844 228.691406 189.703125 228.691406 C 189.167969 228.691406 188.710938 228.585938 188.324219 228.375 C 187.941406 228.164062 187.625 227.839844 187.371094 227.410156 Z M 191.449219 224.863281 C 191.449219 223.980469 191.269531 223.289062 190.90625 222.789062 C 190.542969 222.289062 190.042969 222.039062 189.410156 222.039062 C 188.777344 222.039062 188.277344 222.289062 187.914062 222.789062 C 187.554688 223.289062 187.371094 223.980469 187.371094 224.863281 C 187.371094 225.742188 187.554688 226.433594 187.914062 226.933594 C 188.277344 227.4375 188.777344 227.6875 189.410156 227.6875 C 190.042969 227.6875 190.542969 227.4375 190.90625 226.933594 C 191.269531 226.433594 191.449219 225.742188 191.449219 224.863281 Z M 191.449219 224.863281 "/>
<path style=" stroke:none;fill-rule:nonzero;fill:rgb(0%,0%,0%);fill-opacity:1;" d="M 197.503906 222.050781 C 196.859375 222.050781 196.351562 222.300781 195.980469 222.800781 C 195.605469 223.304688 195.417969 223.992188 195.417969 224.863281 C 195.417969 225.734375 195.605469 226.421875 195.976562 226.921875 C 196.347656 227.425781 196.855469 227.675781 197.503906 227.675781 C 198.140625 227.675781 198.648438 227.421875 199.019531 226.921875 C 199.390625 226.417969 199.578125 225.730469 199.578125 224.863281 C 199.578125 224 199.390625 223.3125 199.019531 222.808594 C 198.648438 222.304688 198.140625 222.050781 197.503906 222.050781 Z M 197.503906 221.035156 C 198.542969 221.035156 199.363281 221.375 199.957031 222.050781 C 200.550781 222.726562 200.851562 223.664062 200.851562 224.863281 C 200.851562 226.054688 200.550781 226.992188 199.957031 227.671875 C 199.363281 228.351562 198.542969 228.691406 197.503906 228.691406 C 196.457031 228.691406 195.636719 228.351562 195.042969 227.671875 C 194.453125 226.992188 194.15625 226.054688 194.15625 224.863281 C 194.15625 223.664062 194.453125 222.726562 195.042969 222.050781 C 195.636719 221.375 196.457031 221.035156 197.503906 221.035156 Z M 197.503906 221.035156 "/>
<path style=" stroke:none;fill-rule:nonzero;fill:rgb(0%,0%,0%);fill-opacity:1;" d="M 208.082031 221.488281 L 208.082031 222.609375 C 207.742188 222.421875 207.402344 222.28125 207.0625 222.191406 C 206.722656 222.097656 206.378906 222.050781 206.03125 222.050781 C 205.253906 222.050781 204.652344 222.296875 204.21875 222.789062 C 203.789062 223.28125 203.578125 223.972656 203.578125 224.863281 C 203.578125 225.753906 203.789062 226.445312 204.21875 226.9375 C 204.652344 227.429688 205.253906 227.675781 206.03125 227.675781 C 206.378906 227.675781 206.722656 227.628906 207.0625 227.535156 C 207.402344 227.441406 207.742188 227.300781 208.082031 227.113281 L 208.082031 228.222656 C 207.746094 228.378906 207.402344 228.496094 207.042969 228.574219 C 206.6875 228.652344 206.304688 228.691406 205.902344 228.691406 C 204.800781 228.691406 203.929688 228.347656 203.28125 227.65625 C 202.636719 226.964844 202.3125 226.035156 202.3125 224.863281 C 202.3125 223.671875 202.640625 222.738281 203.292969 222.058594 C 203.945312 221.375 204.84375 221.035156 205.980469 221.035156 C 206.347656 221.035156 206.707031 221.074219 207.058594 221.148438 C 207.410156 221.226562 207.753906 221.339844 208.082031 221.488281 Z M 208.082031 221.488281 "/>
<path style=" stroke:none;fill-rule:nonzero;fill:rgb(0%,0%,0%);fill-opacity:1;" d="M 216.226562 224.101562 L 216.226562 228.503906 L 215.03125 228.503906 L 215.03125 224.140625 C 215.03125 223.449219 214.894531 222.933594 214.625 222.589844 C 214.355469 222.25 213.953125 222.078125 213.414062 222.078125 C 212.769531 222.078125 212.257812 222.285156 211.882812 222.695312 C 211.511719 223.105469 211.324219 223.667969 211.324219 224.382812 L 211.324219 228.503906 L 210.121094 228.503906 L 210.121094 218.371094 L 211.324219 218.371094 L 211.324219 222.34375 C 211.609375 221.90625 211.949219 221.578125 212.335938 221.359375 C 212.726562 221.144531 213.171875 221.035156 213.683594 221.035156 C 214.519531 221.035156 215.152344 221.292969 215.582031 221.8125 C 216.011719 222.332031 216.226562 223.09375 216.226562 224.101562 Z M 216.226562 224.101562 "/>
<g clip-path="url(#clip5)" clip-rule="nonzero">
<path style="fill:none;stroke-width:0.8;stroke-linecap:square;stroke-linejoin:round;stroke:rgb(69.01961%,69.01961%,69.01961%);stroke-opacity:1;stroke-miterlimit:4;" d="M 50.144531 120.307617 L 245.443359 120.307617 " transform="matrix(1.333333,0,0,1.333333,0,0)"/>
</g>
<path style="fill:none;stroke-width:0.8;stroke-linecap:butt;stroke-linejoin:round;stroke:rgb(0%,0%,0%);stroke-opacity:1;stroke-miterlimit:4;" d="M 0.000782013 0.000869751 L -3.500195 0.000869751 " transform="matrix(1.333333,0,0,1.333333,66.858332,160.408997)"/>
<path style=" stroke:none;fill-rule:nonzero;fill:rgb(0%,0%,0%);fill-opacity:1;" d="M 32.074219 156.621094 C 31.398438 156.621094 30.890625 156.953125 30.546875 157.621094 C 30.207031 158.285156 30.039062 159.289062 30.039062 160.625 C 30.039062 161.957031 30.207031 162.957031 30.546875 163.621094 C 30.890625 164.289062 31.398438 164.621094 32.074219 164.621094 C 32.757812 164.621094 33.269531 164.289062 33.609375 163.621094 C 33.949219 162.957031 34.121094 161.957031 34.121094 160.625 C 34.121094 159.289062 33.949219 158.285156 33.609375 157.621094 C 33.269531 156.953125 32.757812 156.621094 32.074219 156.621094 Z M 32.074219 155.578125 C 33.164062 155.578125 33.996094 156.011719 34.574219 156.871094 C 35.148438 157.734375 35.433594 158.984375 35.433594 160.625 C 35.433594 162.261719 35.148438 163.511719 34.574219 164.371094 C 33.996094 165.234375 33.164062 165.664062 32.074219 165.664062 C 30.984375 165.664062 30.152344 165.234375 29.578125 164.371094 C 29.003906 163.511719 28.714844 162.261719 28.714844 160.625 C 28.714844 158.984375 29.003906 157.734375 29.578125 156.871094 C 30.152344 156.011719 30.984375 155.578125 32.074219 155.578125 Z M 32.074219 155.578125 "/>
<path style=" stroke:none;fill-rule:nonzero;fill:rgb(0%,0%,0%);fill-opacity:1;" d="M 37.746094 163.820312 L 39.121094 163.820312 L 39.121094 165.476562 L 37.746094 165.476562 Z M 37.746094 163.820312 "/>
<path style=" stroke:none;fill-rule:nonzero;fill:rgb(0%,0%,0%);fill-opacity:1;" d="M 44.796875 156.621094 C 44.121094 156.621094 43.609375 156.953125 43.269531 157.621094 C 42.929688 158.285156 42.757812 159.289062 42.757812 160.625 C 42.757812 161.957031 42.929688 162.957031 43.269531 163.621094 C 43.609375 164.289062 44.121094 164.621094 44.796875 164.621094 C 45.476562 164.621094 45.988281 164.289062 46.328125 163.621094 C 46.671875 162.957031 46.84375 161.957031 46.84375 160.625 C 46.84375 159.289062 46.671875 158.285156 46.328125 157.621094 C 45.988281 156.953125 45.476562 156.621094 44.796875 156.621094 Z M 44.796875 155.578125 C 45.886719 155.578125 46.71875 156.011719 47.292969 156.871094 C 47.871094 157.734375 48.15625 158.984375 48.15625 160.625 C 48.15625 162.261719 47.871094 163.511719 47.292969 164.371094 C 46.71875 165.234375 45.886719 165.664062 44.796875 165.664062 C 43.707031 165.664062 42.875 165.234375 42.300781 164.371094 C 41.726562 163.511719 41.4375 162.261719 41.4375 160.625 C 41.4375 158.984375 41.726562 157.734375 42.300781 156.871094 C 42.875 156.011719 43.707031 155.578125 44.796875 155.578125 Z M 44.796875 155.578125 "/>
<path style=" stroke:none;fill-rule:nonzero;fill:rgb(0%,0%,0%);fill-opacity:1;" d="M 50.480469 155.753906 L 55.644531 155.753906 L 55.644531 156.863281 L 51.6875 156.863281 L 51.6875 159.242188 C 51.875 159.179688 52.066406 159.128906 52.257812 159.097656 C 52.449219 159.066406 52.640625 159.050781 52.832031 159.050781 C 53.917969 159.050781 54.773438 159.347656 55.410156 159.941406 C 56.042969 160.535156 56.359375 161.339844 56.359375 162.355469 C 56.359375 163.402344 56.035156 164.214844 55.382812 164.796875 C 54.730469 165.375 53.8125 165.664062 52.628906 165.664062 C 52.222656 165.664062 51.804688 165.628906 51.382812 165.558594 C 50.960938 165.492188 50.523438 165.386719 50.070312 165.246094 L 50.070312 163.925781 C 50.460938 164.136719 50.863281 164.296875 51.28125 164.398438 C 51.699219 164.503906 52.136719 164.554688 52.601562 164.554688 C 53.355469 164.554688 53.949219 164.359375 54.386719 163.964844 C 54.824219 163.570312 55.042969 163.035156 55.042969 162.355469 C 55.042969 161.679688 54.824219 161.144531 54.386719 160.75 C 53.949219 160.355469 53.355469 160.15625 52.601562 160.15625 C 52.25 160.15625 51.898438 160.195312 51.550781 160.273438 C 51.203125 160.351562 50.84375 160.472656 50.480469 160.636719 Z M 50.480469 155.753906 "/>
<g clip-path="url(#clip6)" clip-rule="nonzero">
<path style="fill:none;stroke-width:0.8;stroke-linecap:square;stroke-linejoin:round;stroke:rgb(69.01961%,69.01961%,69.01961%);stroke-opacity:1;stroke-miterlimit:4;" d="M 50.144531 79.514648 L 245.443359 79.514648 " transform="matrix(1.333333,0,0,1.333333,0,0)"/>
</g>
<path style="fill:none;stroke-width:0.8;stroke-linecap:butt;stroke-linejoin:round;stroke:rgb(0%,0%,0%);stroke-opacity:1;stroke-miterlimit:4;" d="M 0.000782013 -0.00135803 L -3.500195 -0.00135803 " transform="matrix(1.333333,0,0,1.333333,66.858332,106.021342)"/>
<path style=" stroke:none;fill-rule:nonzero;fill:rgb(0%,0%,0%);fill-opacity:1;" d="M 32.074219 102.234375 C 31.398438 102.234375 30.890625 102.566406 30.546875 103.234375 C 30.207031 103.898438 30.039062 104.898438 30.039062 106.238281 C 30.039062 107.570312 30.207031 108.566406 30.546875 109.234375 C 30.890625 109.902344 31.398438 110.234375 32.074219 110.234375 C 32.757812 110.234375 33.269531 109.902344 33.609375 109.234375 C 33.949219 108.566406 34.121094 107.570312 34.121094 106.238281 C 34.121094 104.898438 33.949219 103.898438 33.609375 103.234375 C 33.269531 102.566406 32.757812 102.234375 32.074219 102.234375 Z M 32.074219 101.191406 C 33.164062 101.191406 33.996094 101.621094 34.574219 102.484375 C 35.148438 103.347656 35.433594 104.597656 35.433594 106.238281 C 35.433594 107.875 35.148438 109.121094 34.574219 109.984375 C 33.996094 110.847656 33.164062 111.277344 32.074219 111.277344 C 30.984375 111.277344 30.152344 110.847656 29.578125 109.984375 C 29.003906 109.121094 28.714844 107.875 28.714844 106.238281 C 28.714844 104.597656 29.003906 103.347656 29.578125 102.484375 C 30.152344 101.621094 30.984375 101.191406 32.074219 101.191406 Z M 32.074219 101.191406 "/>
<path style=" stroke:none;fill-rule:nonzero;fill:rgb(0%,0%,0%);fill-opacity:1;" d="M 37.746094 109.433594 L 39.121094 109.433594 L 39.121094 111.085938 L 37.746094 111.085938 Z M 37.746094 109.433594 "/>
<path style=" stroke:none;fill-rule:nonzero;fill:rgb(0%,0%,0%);fill-opacity:1;" d="M 42.214844 109.980469 L 44.359375 109.980469 L 44.359375 102.5625 L 42.023438 103.03125 L 42.023438 101.835938 L 44.347656 101.367188 L 45.664062 101.367188 L 45.664062 109.980469 L 47.8125 109.980469 L 47.8125 111.085938 L 42.214844 111.085938 Z M 42.214844 109.980469 "/>
<path style=" stroke:none;fill-rule:nonzero;fill:rgb(0%,0%,0%);fill-opacity:1;" d="M 53.28125 102.234375 C 52.601562 102.234375 52.09375 102.566406 51.753906 103.234375 C 51.410156 103.898438 51.242188 104.898438 51.242188 106.238281 C 51.242188 107.570312 51.410156 108.566406 51.753906 109.234375 C 52.09375 109.902344 52.601562 110.234375 53.28125 110.234375 C 53.960938 110.234375 54.472656 109.902344 54.8125 109.234375 C 55.15625 108.566406 55.324219 107.570312 55.324219 106.238281 C 55.324219 104.898438 55.15625 103.898438 54.8125 103.234375 C 54.472656 102.566406 53.960938 102.234375 53.28125 102.234375 Z M 53.28125 101.191406 C 54.371094 101.191406 55.203125 101.621094 55.777344 102.484375 C 56.351562 103.347656 56.640625 104.597656 56.640625 106.238281 C 56.640625 107.875 56.351562 109.121094 55.777344 109.984375 C 55.203125 110.847656 54.371094 111.277344 53.28125 111.277344 C 52.191406 111.277344 51.359375 110.847656 50.785156 109.984375 C 50.207031 109.121094 49.921875 107.875 49.921875 106.238281 C 49.921875 104.597656 50.207031 103.347656 50.785156 102.484375 C 51.359375 101.621094 52.191406 101.191406 53.28125 101.191406 Z M 53.28125 101.191406 "/>
<g clip-path="url(#clip7)" clip-rule="nonzero">
<path style="fill:none;stroke-width:0.8;stroke-linecap:square;stroke-linejoin:round;stroke:rgb(69.01961%,69.01961%,69.01961%);stroke-opacity:1;stroke-miterlimit:4;" d="M 50.144531 38.724609 L 245.443359 38.724609 " transform="matrix(1.333333,0,0,1.333333,0,0)"/>
</g>
<path style="fill:none;stroke-width:0.8;stroke-linecap:butt;stroke-linejoin:round;stroke:rgb(0%,0%,0%);stroke-opacity:1;stroke-miterlimit:4;" d="M 0.000782013 -0.000652313 L -3.500195 -0.000652313 " transform="matrix(1.333333,0,0,1.333333,66.858332,51.633682)"/>
<path style=" stroke:none;fill-rule:nonzero;fill:rgb(0%,0%,0%);fill-opacity:1;" d="M 32.074219 47.84375 C 31.398438 47.84375 30.890625 48.179688 30.546875 48.84375 C 30.207031 49.511719 30.039062 50.511719 30.039062 51.847656 C 30.039062 53.179688 30.207031 54.179688 30.546875 54.847656 C 30.890625 55.515625 31.398438 55.847656 32.074219 55.847656 C 32.757812 55.847656 33.269531 55.515625 33.609375 54.847656 C 33.949219 54.179688 34.121094 53.179688 34.121094 51.847656 C 34.121094 50.511719 33.949219 49.511719 33.609375 48.84375 C 33.269531 48.179688 32.757812 47.84375 32.074219 47.84375 Z M 32.074219 46.804688 C 33.164062 46.804688 33.996094 47.234375 34.574219 48.097656 C 35.148438 48.957031 35.433594 50.210938 35.433594 51.847656 C 35.433594 53.484375 35.148438 54.734375 34.574219 55.597656 C 33.996094 56.457031 33.164062 56.890625 32.074219 56.890625 C 30.984375 56.890625 30.152344 56.457031 29.578125 55.597656 C 29.003906 54.734375 28.714844 53.484375 28.714844 51.847656 C 28.714844 50.210938 29.003906 48.957031 29.578125 48.097656 C 30.152344 47.234375 30.984375 46.804688 32.074219 46.804688 Z M 32.074219 46.804688 "/>
<path style=" stroke:none;fill-rule:nonzero;fill:rgb(0%,0%,0%);fill-opacity:1;" d="M 37.746094 55.046875 L 39.121094 55.046875 L 39.121094 56.699219 L 37.746094 56.699219 Z M 37.746094 55.046875 "/>
<path style=" stroke:none;fill-rule:nonzero;fill:rgb(0%,0%,0%);fill-opacity:1;" d="M 42.214844 55.59375 L 44.359375 55.59375 L 44.359375 48.175781 L 42.023438 48.644531 L 42.023438 47.445312 L 44.347656 46.976562 L 45.664062 46.976562 L 45.664062 55.59375 L 47.8125 55.59375 L 47.8125 56.699219 L 42.214844 56.699219 Z M 42.214844 55.59375 "/>
<path style=" stroke:none;fill-rule:nonzero;fill:rgb(0%,0%,0%);fill-opacity:1;" d="M 50.480469 46.976562 L 55.644531 46.976562 L 55.644531 48.085938 L 51.6875 48.085938 L 51.6875 50.46875 C 51.875 50.402344 52.066406 50.355469 52.257812 50.320312 C 52.449219 50.289062 52.640625 50.273438 52.832031 50.273438 C 53.917969 50.273438 54.773438 50.570312 55.410156 51.164062 C 56.042969 51.761719 56.359375 52.566406 56.359375 53.582031 C 56.359375 54.625 56.035156 55.441406 55.382812 56.019531 C 54.730469 56.597656 53.8125 56.890625 52.628906 56.890625 C 52.222656 56.890625 51.804688 56.855469 51.382812 56.785156 C 50.960938 56.714844 50.523438 56.609375 50.070312 56.472656 L 50.070312 55.148438 C 50.460938 55.363281 50.863281 55.519531 51.28125 55.625 C 51.699219 55.726562 52.136719 55.78125 52.601562 55.78125 C 53.355469 55.78125 53.949219 55.582031 54.386719 55.1875 C 54.824219 54.792969 55.042969 54.257812 55.042969 53.582031 C 55.042969 52.902344 54.824219 52.367188 54.386719 51.972656 C 53.949219 51.578125 53.355469 51.378906 52.601562 51.378906 C 52.25 51.378906 51.898438 51.417969 51.550781 51.496094 C 51.203125 51.574219 50.84375 51.695312 50.480469 51.863281 Z M 50.480469 46.976562 "/>
<path style=" stroke:none;fill-rule:nonzero;fill:rgb(0%,0%,0%);fill-opacity:1;" d="M 9.601562 111.820312 L 9.601562 110.621094 L 19.730469 110.621094 L 19.730469 111.820312 Z M 9.601562 111.820312 "/>
<path style=" stroke:none;fill-rule:nonzero;fill:rgb(0%,0%,0%);fill-opacity:1;" d="M 13.277344 105.292969 C 13.277344 105.933594 13.53125 106.441406 14.03125 106.8125 C 14.53125 107.1875 15.21875 107.375 16.089844 107.375 C 16.964844 107.375 17.652344 107.1875 18.152344 106.820312 C 18.652344 106.445312 18.902344 105.9375 18.902344 105.292969 C 18.902344 104.652344 18.652344 104.148438 18.148438 103.773438 C 17.644531 103.402344 16.960938 103.214844 16.089844 103.214844 C 15.226562 103.214844 14.542969 103.402344 14.039062 103.773438 C 13.53125 104.148438 13.277344 104.652344 13.277344 105.292969 Z M 12.265625 105.292969 C 12.265625 104.25 12.601562 103.433594 13.28125 102.835938 C 13.957031 102.242188 14.894531 101.945312 16.089844 101.945312 C 17.285156 101.945312 18.222656 102.242188 18.902344 102.835938 C 19.582031 103.433594 19.921875 104.25 19.921875 105.292969 C 19.921875 106.335938 19.582031 107.15625 18.902344 107.75 C 18.222656 108.339844 17.285156 108.636719 16.089844 108.636719 C 14.894531 108.636719 13.957031 108.339844 13.28125 107.75 C 12.601562 107.15625 12.265625 106.335938 12.265625 105.292969 Z M 12.265625 105.292969 "/>
<path style=" stroke:none;fill-rule:nonzero;fill:rgb(0%,0%,0%);fill-opacity:1;" d="M 12.652344 95.3125 L 13.789062 95.3125 C 13.613281 95.648438 13.484375 96 13.398438 96.363281 C 13.308594 96.730469 13.265625 97.105469 13.265625 97.5 C 13.265625 98.09375 13.359375 98.539062 13.539062 98.835938 C 13.722656 99.132812 13.996094 99.28125 14.359375 99.28125 C 14.636719 99.28125 14.855469 99.175781 15.015625 98.964844 C 15.171875 98.75 15.324219 98.324219 15.464844 97.679688 L 15.558594 97.269531 C 15.742188 96.417969 15.996094 95.816406 16.328125 95.457031 C 16.660156 95.097656 17.125 94.917969 17.71875 94.917969 C 18.398438 94.917969 18.933594 95.1875 19.328125 95.722656 C 19.722656 96.257812 19.921875 96.996094 19.921875 97.933594 C 19.921875 98.324219 19.882812 98.730469 19.804688 99.15625 C 19.730469 99.578125 19.617188 100.023438 19.464844 100.492188 L 18.226562 100.492188 C 18.457031 100.050781 18.628906 99.613281 18.746094 99.183594 C 18.859375 98.753906 18.917969 98.328125 18.917969 97.90625 C 18.917969 97.34375 18.820312 96.910156 18.628906 96.605469 C 18.433594 96.300781 18.160156 96.152344 17.808594 96.152344 C 17.484375 96.152344 17.234375 96.261719 17.0625 96.480469 C 16.890625 96.699219 16.722656 97.179688 16.558594 97.921875 L 16.460938 98.339844 C 16.308594 99.078125 16.066406 99.617188 15.742188 99.945312 C 15.421875 100.277344 14.976562 100.441406 14.414062 100.441406 C 13.726562 100.441406 13.195312 100.195312 12.824219 99.710938 C 12.453125 99.226562 12.265625 98.535156 12.265625 97.640625 C 12.265625 97.199219 12.296875 96.78125 12.363281 96.390625 C 12.425781 96 12.523438 95.640625 12.652344 95.3125 Z M 12.652344 95.3125 "/>
<path style=" stroke:none;fill-rule:nonzero;fill:rgb(0%,0%,0%);fill-opacity:1;" d="M 12.652344 88.363281 L 13.789062 88.363281 C 13.613281 88.703125 13.484375 89.054688 13.398438 89.417969 C 13.308594 89.78125 13.265625 90.160156 13.265625 90.550781 C 13.265625 91.144531 13.359375 91.59375 13.539062 91.890625 C 13.722656 92.1875 13.996094 92.335938 14.359375 92.335938 C 14.636719 92.335938 14.855469 92.230469 15.015625 92.015625 C 15.171875 91.804688 15.324219 91.375 15.464844 90.734375 L 15.558594 90.324219 C 15.742188 89.472656 15.996094 88.867188 16.328125 88.511719 C 16.660156 88.152344 17.125 87.972656 17.71875 87.972656 C 18.398438 87.972656 18.933594 88.242188 19.328125 88.777344 C 19.722656 89.3125 19.921875 90.050781 19.921875 90.988281 C 19.921875 91.378906 19.882812 91.785156 19.804688 92.207031 C 19.730469 92.632812 19.617188 93.078125 19.464844 93.546875 L 18.226562 93.546875 C 18.457031 93.101562 18.628906 92.667969 18.746094 92.238281 C 18.859375 91.808594 18.917969 91.382812 18.917969 90.960938 C 18.917969 90.394531 18.820312 89.964844 18.628906 89.660156 C 18.433594 89.355469 18.160156 89.203125 17.808594 89.203125 C 17.484375 89.203125 17.234375 89.3125 17.0625 89.53125 C 16.890625 89.75 16.722656 90.230469 16.558594 90.976562 L 16.460938 91.390625 C 16.308594 92.132812 16.066406 92.667969 15.742188 93 C 15.421875 93.328125 14.976562 93.492188 14.414062 93.492188 C 13.726562 93.492188 13.195312 93.25 12.824219 92.765625 C 12.453125 92.277344 12.265625 91.589844 12.265625 90.695312 C 12.265625 90.25 12.296875 89.835938 12.363281 89.445312 C 12.425781 89.054688 12.523438 88.695312 12.652344 88.363281 Z M 12.652344 88.363281 "/>
<g clip-path="url(#clip8)" clip-rule="nonzero">
<path style="fill:none;stroke-width:1.5;stroke-linecap:square;stroke-linejoin:round;stroke:rgb(12.156863%,46.666667%,70.588237%);stroke-opacity:1;stroke-miterlimit:4;" d="M 50.144531 13.376953 L 60.421875 57.928711 L 70.702148 82.051758 L 80.979492 99.345703 L 91.259766 109.391602 L 101.537109 117.439453 L 111.817383 118.242188 L 122.097656 123.670898 L 132.375 127.907227 L 142.655273 127.362305 L 152.932617 128.167969 L 163.212891 131.264648 L 173.490234 132.011719 L 183.770508 132.902344 L 194.047852 131.329102 L 204.328125 133.291992 L 214.605469 135.234375 L 224.885742 136.045898 L 235.166016 134.446289 L 245.443359 136.921875 " transform="matrix(1.333333,0,0,1.333333,0,0)"/>
</g>
<path style="fill:none;stroke-width:0.8;stroke-linecap:square;stroke-linejoin:miter;stroke:rgb(0%,0%,0%);stroke-opacity:1;stroke-miterlimit:4;" d="M 50.144531 143.100586 L 50.144531 7.201172 " transform="matrix(1.333333,0,0,1.333333,0,0)"/>
<path style="fill:none;stroke-width:0.8;stroke-linecap:square;stroke-linejoin:miter;stroke:rgb(0%,0%,0%);stroke-opacity:1;stroke-miterlimit:4;" d="M 245.443359 143.100586 L 245.443359 7.201172 " transform="matrix(1.333333,0,0,1.333333,0,0)"/>
<path style="fill:none;stroke-width:0.8;stroke-linecap:square;stroke-linejoin:miter;stroke:rgb(0%,0%,0%);stroke-opacity:1;stroke-miterlimit:4;" d="M 50.144531 143.100586 L 245.443359 143.100586 " transform="matrix(1.333333,0,0,1.333333,0,0)"/>
<path style="fill:none;stroke-width:0.8;stroke-linecap:square;stroke-linejoin:miter;stroke:rgb(0%,0%,0%);stroke-opacity:1;stroke-miterlimit:4;" d="M 50.144531 7.201172 L 245.443359 7.201172 " transform="matrix(1.333333,0,0,1.333333,0,0)"/>
</g>
</svg>
