<?xml version="1.0" encoding="UTF-8"?>
<svg xmlns="http://www.w3.org/2000/svg" xmlns:xlink="http://www.w3.org/1999/xlink" width="298.597961" height="222.637492" viewBox="0 0 298.597961 222.637492" version="1.1">
<defs>
<filter id="alpha" filterUnits="objectBoundingBox" x="0%" y="0%" width="100%" height="100%">
  <feColorMatrix type="matrix" in="SourceGraphic" values="0 0 0 0 1 0 0 0 0 1 0 0 0 0 1 0 0 0 1 0"/>
</filter>
<mask id="mask0">
  <g filter="url(#alpha)">
<rect x="0" y="0" width="298.597961" height="222.637492" style="fill:rgb(0%,0%,0%);fill-opacity:0.8;stroke:none;"/>
  </g>
</mask>
<clipPath id="clip1">
  <rect x="0" y="0" width="299" height="223"/>
</clipPath>
<g id="surface5" clip-path="url(#clip1)">
<path style="fill-rule:nonzero;fill:rgb(100%,100%,100%);fill-opacity:1;stroke-width:1;stroke-linecap:butt;stroke-linejoin:miter;stroke:rgb(80.000001%,80.000001%,80.000001%);stroke-opacity:1;stroke-miterlimit:4;" d="M 114.495117 59.235352 L 208.863281 59.235352 C 210.196289 59.235352 210.861328 58.567383 210.861328 57.234375 L 210.861328 14.200195 C 210.861328 12.867188 210.196289 12.199219 208.863281 12.199219 L 114.495117 12.199219 C 113.15918 12.199219 112.494141 12.867188 112.494141 14.200195 L 112.494141 57.234375 C 112.494141 58.567383 113.15918 59.235352 114.495117 59.235352 Z M 114.495117 59.235352 " transform="matrix(1.333333,0,0,1.333333,0,0)"/>
</g>
</defs>
<g id="surface1">
<path style=" stroke:none;fill-rule:nonzero;fill:rgb(100%,100%,100%);fill-opacity:1;" d="M 27.417969 190.800781 L 287.816406 190.800781 L 287.816406 9.601562 L 27.417969 9.601562 Z M 27.417969 190.800781 "/>
<path style="fill:none;stroke-width:0.8;stroke-linecap:butt;stroke-linejoin:round;stroke:rgb(0%,0%,0%);stroke-opacity:1;stroke-miterlimit:4;" d="M -0.00113106 0.000579834 L -0.00113106 3.498627 " transform="matrix(1.333333,0,0,1.333333,36.837446,190.800008)"/>
<path style=" stroke:none;fill-rule:nonzero;fill:rgb(0%,0%,0%);fill-opacity:1;" d="M 30.472656 201.410156 C 29.796875 201.410156 29.289062 201.742188 28.945312 202.410156 C 28.605469 203.074219 28.433594 204.078125 28.433594 205.414062 C 28.433594 206.746094 28.605469 207.746094 28.945312 208.414062 C 29.289062 209.078125 29.796875 209.414062 30.472656 209.414062 C 31.15625 209.414062 31.664062 209.078125 32.007812 208.414062 C 32.347656 207.746094 32.519531 206.746094 32.519531 205.414062 C 32.519531 204.078125 32.347656 203.074219 32.007812 202.410156 C 31.664062 201.742188 31.15625 201.410156 30.472656 201.410156 Z M 30.472656 200.367188 C 31.5625 200.367188 32.394531 200.800781 32.972656 201.664062 C 33.546875 202.523438 33.832031 203.773438 33.832031 205.414062 C 33.832031 207.050781 33.546875 208.300781 32.972656 209.164062 C 32.394531 210.023438 31.5625 210.453125 30.472656 210.453125 C 29.382812 210.453125 28.550781 210.023438 27.976562 209.164062 C 27.402344 208.300781 27.113281 207.050781 27.113281 205.414062 C 27.113281 203.773438 27.402344 202.523438 27.976562 201.664062 C 28.550781 200.800781 29.382812 200.367188 30.472656 200.367188 Z M 30.472656 200.367188 "/>
<path style=" stroke:none;fill-rule:nonzero;fill:rgb(0%,0%,0%);fill-opacity:1;" d="M 36.144531 208.609375 L 37.519531 208.609375 L 37.519531 210.265625 L 36.144531 210.265625 Z M 36.144531 208.609375 "/>
<path style=" stroke:none;fill-rule:nonzero;fill:rgb(0%,0%,0%);fill-opacity:1;" d="M 43.195312 201.410156 C 42.519531 201.410156 42.007812 201.742188 41.667969 202.410156 C 41.328125 203.074219 41.15625 204.078125 41.15625 205.414062 C 41.15625 206.746094 41.328125 207.746094 41.667969 208.414062 C 42.007812 209.078125 42.519531 209.414062 43.195312 209.414062 C 43.875 209.414062 44.386719 209.078125 44.726562 208.414062 C 45.070312 207.746094 45.238281 206.746094 45.238281 205.414062 C 45.238281 204.078125 45.070312 203.074219 44.726562 202.410156 C 44.386719 201.742188 43.875 201.410156 43.195312 201.410156 Z M 43.195312 200.367188 C 44.285156 200.367188 45.117188 200.800781 45.691406 201.664062 C 46.265625 202.523438 46.554688 203.773438 46.554688 205.414062 C 46.554688 207.050781 46.265625 208.300781 45.691406 209.164062 C 45.117188 210.023438 44.285156 210.453125 43.195312 210.453125 C 42.105469 210.453125 41.273438 210.023438 40.699219 209.164062 C 40.125 208.300781 39.835938 207.050781 39.835938 205.414062 C 39.835938 203.773438 40.125 202.523438 40.699219 201.664062 C 41.273438 200.800781 42.105469 200.367188 43.195312 200.367188 Z M 43.195312 200.367188 "/>
<path style="fill:none;stroke-width:0.8;stroke-linecap:butt;stroke-linejoin:round;stroke:rgb(0%,0%,0%);stroke-opacity:1;stroke-miterlimit:4;" d="M -0.000522614 0.000579834 L -0.000522614 3.498627 " transform="matrix(1.333333,0,0,1.333333,85.149134,190.800008)"/>
<path style=" stroke:none;fill-rule:nonzero;fill:rgb(0%,0%,0%);fill-opacity:1;" d="M 78.785156 201.410156 C 78.109375 201.410156 77.597656 201.742188 77.257812 202.410156 C 76.917969 203.074219 76.746094 204.078125 76.746094 205.414062 C 76.746094 206.746094 76.917969 207.746094 77.257812 208.414062 C 77.597656 209.078125 78.109375 209.414062 78.785156 209.414062 C 79.464844 209.414062 79.976562 209.078125 80.316406 208.414062 C 80.660156 207.746094 80.832031 206.746094 80.832031 205.414062 C 80.832031 204.078125 80.660156 203.074219 80.316406 202.410156 C 79.976562 201.742188 79.464844 201.410156 78.785156 201.410156 Z M 78.785156 200.367188 C 79.875 200.367188 80.707031 200.800781 81.28125 201.664062 C 81.859375 202.523438 82.144531 203.773438 82.144531 205.414062 C 82.144531 207.050781 81.859375 208.300781 81.28125 209.164062 C 80.707031 210.023438 79.875 210.453125 78.785156 210.453125 C 77.695312 210.453125 76.863281 210.023438 76.289062 209.164062 C 75.714844 208.300781 75.425781 207.050781 75.425781 205.414062 C 75.425781 203.773438 75.714844 202.523438 76.289062 201.664062 C 76.863281 200.800781 77.695312 200.367188 78.785156 200.367188 Z M 78.785156 200.367188 "/>
<path style=" stroke:none;fill-rule:nonzero;fill:rgb(0%,0%,0%);fill-opacity:1;" d="M 84.457031 208.609375 L 85.832031 208.609375 L 85.832031 210.265625 L 84.457031 210.265625 Z M 84.457031 208.609375 "/>
<path style=" stroke:none;fill-rule:nonzero;fill:rgb(0%,0%,0%);fill-opacity:1;" d="M 89.828125 209.160156 L 94.417969 209.160156 L 94.417969 210.265625 L 88.246094 210.265625 L 88.246094 209.160156 C 88.742188 208.640625 89.425781 207.949219 90.285156 207.078125 C 91.148438 206.207031 91.6875 205.648438 91.910156 205.394531 C 92.332031 204.921875 92.625 204.523438 92.792969 204.195312 C 92.960938 203.867188 93.042969 203.542969 93.042969 203.226562 C 93.042969 202.710938 92.863281 202.289062 92.5 201.964844 C 92.136719 201.636719 91.664062 201.476562 91.082031 201.476562 C 90.671875 201.476562 90.234375 201.546875 89.777344 201.691406 C 89.320312 201.832031 88.832031 202.050781 88.308594 202.339844 L 88.308594 201.011719 C 88.839844 200.800781 89.332031 200.640625 89.792969 200.53125 C 90.253906 200.421875 90.675781 200.367188 91.058594 200.367188 C 92.066406 200.367188 92.867188 200.621094 93.464844 201.125 C 94.066406 201.628906 94.363281 202.300781 94.363281 203.140625 C 94.363281 203.542969 94.289062 203.921875 94.140625 204.277344 C 93.992188 204.636719 93.71875 205.058594 93.324219 205.542969 C 93.214844 205.671875 92.867188 206.035156 92.289062 206.636719 C 91.707031 207.238281 90.886719 208.078125 89.828125 209.160156 Z M 89.828125 209.160156 "/>
<path style="fill:none;stroke-width:0.8;stroke-linecap:butt;stroke-linejoin:round;stroke:rgb(0%,0%,0%);stroke-opacity:1;stroke-miterlimit:4;" d="M 0.0000839233 0.000579834 L 0.0000839233 3.498627 " transform="matrix(1.333333,0,0,1.333333,133.460826,190.800008)"/>
<path style=" stroke:none;fill-rule:nonzero;fill:rgb(0%,0%,0%);fill-opacity:1;" d="M 127.097656 201.410156 C 126.417969 201.410156 125.910156 201.742188 125.570312 202.410156 C 125.230469 203.074219 125.058594 204.078125 125.058594 205.414062 C 125.058594 206.746094 125.230469 207.746094 125.570312 208.414062 C 125.910156 209.078125 126.417969 209.414062 127.097656 209.414062 C 127.777344 209.414062 128.289062 209.078125 128.628906 208.414062 C 128.972656 207.746094 129.140625 206.746094 129.140625 205.414062 C 129.140625 204.078125 128.972656 203.074219 128.628906 202.410156 C 128.289062 201.742188 127.777344 201.410156 127.097656 201.410156 Z M 127.097656 200.367188 C 128.1875 200.367188 129.019531 200.800781 129.59375 201.664062 C 130.167969 202.523438 130.457031 203.773438 130.457031 205.414062 C 130.457031 207.050781 130.167969 208.300781 129.59375 209.164062 C 129.019531 210.023438 128.1875 210.453125 127.097656 210.453125 C 126.007812 210.453125 125.175781 210.023438 124.601562 209.164062 C 124.027344 208.300781 123.738281 207.050781 123.738281 205.414062 C 123.738281 203.773438 124.027344 202.523438 124.601562 201.664062 C 125.175781 200.800781 126.007812 200.367188 127.097656 200.367188 Z M 127.097656 200.367188 "/>
<path style=" stroke:none;fill-rule:nonzero;fill:rgb(0%,0%,0%);fill-opacity:1;" d="M 132.765625 208.609375 L 134.140625 208.609375 L 134.140625 210.265625 L 132.765625 210.265625 Z M 132.765625 208.609375 "/>
<path style=" stroke:none;fill-rule:nonzero;fill:rgb(0%,0%,0%);fill-opacity:1;" d="M 140.621094 201.691406 L 137.300781 206.878906 L 140.621094 206.878906 Z M 140.273438 200.542969 L 141.929688 200.542969 L 141.929688 206.878906 L 143.316406 206.878906 L 143.316406 207.972656 L 141.929688 207.972656 L 141.929688 210.265625 L 140.621094 210.265625 L 140.621094 207.972656 L 136.230469 207.972656 L 136.230469 206.703125 Z M 140.273438 200.542969 "/>
<path style="fill:none;stroke-width:0.8;stroke-linecap:butt;stroke-linejoin:round;stroke:rgb(0%,0%,0%);stroke-opacity:1;stroke-miterlimit:4;" d="M 0.000701904 0.000579834 L 0.000701904 3.498627 " transform="matrix(1.333333,0,0,1.333333,181.772502,190.800008)"/>
<path style=" stroke:none;fill-rule:nonzero;fill:rgb(0%,0%,0%);fill-opacity:1;" d="M 175.40625 201.410156 C 174.730469 201.410156 174.222656 201.742188 173.878906 202.410156 C 173.539062 203.074219 173.371094 204.078125 173.371094 205.414062 C 173.371094 206.746094 173.539062 207.746094 173.878906 208.414062 C 174.222656 209.078125 174.730469 209.414062 175.40625 209.414062 C 176.089844 209.414062 176.601562 209.078125 176.941406 208.414062 C 177.28125 207.746094 177.453125 206.746094 177.453125 205.414062 C 177.453125 204.078125 177.28125 203.074219 176.941406 202.410156 C 176.601562 201.742188 176.089844 201.410156 175.40625 201.410156 Z M 175.40625 200.367188 C 176.5 200.367188 177.332031 200.800781 177.90625 201.664062 C 178.480469 202.523438 178.769531 203.773438 178.769531 205.414062 C 178.769531 207.050781 178.480469 208.300781 177.90625 209.164062 C 177.332031 210.023438 176.5 210.453125 175.40625 210.453125 C 174.320312 210.453125 173.488281 210.023438 172.910156 209.164062 C 172.335938 208.300781 172.050781 207.050781 172.050781 205.414062 C 172.050781 203.773438 172.335938 202.523438 172.910156 201.664062 C 173.488281 200.800781 174.320312 200.367188 175.40625 200.367188 Z M 175.40625 200.367188 "/>
<path style=" stroke:none;fill-rule:nonzero;fill:rgb(0%,0%,0%);fill-opacity:1;" d="M 181.078125 208.609375 L 182.453125 208.609375 L 182.453125 210.265625 L 181.078125 210.265625 Z M 181.078125 208.609375 "/>
<path style=" stroke:none;fill-rule:nonzero;fill:rgb(0%,0%,0%);fill-opacity:1;" d="M 188.292969 204.882812 C 187.703125 204.882812 187.234375 205.082031 186.890625 205.488281 C 186.546875 205.890625 186.371094 206.441406 186.371094 207.144531 C 186.371094 207.84375 186.546875 208.398438 186.890625 208.804688 C 187.234375 209.210938 187.703125 209.414062 188.292969 209.414062 C 188.882812 209.414062 189.351562 209.210938 189.695312 208.804688 C 190.039062 208.398438 190.210938 207.84375 190.210938 207.144531 C 190.210938 206.441406 190.039062 205.890625 189.695312 205.488281 C 189.351562 205.082031 188.882812 204.882812 188.292969 204.882812 Z M 190.902344 200.757812 L 190.902344 201.957031 C 190.574219 201.800781 190.242188 201.683594 189.902344 201.601562 C 189.566406 201.515625 189.234375 201.476562 188.902344 201.476562 C 188.035156 201.476562 187.371094 201.769531 186.914062 202.355469 C 186.457031 202.941406 186.195312 203.824219 186.132812 205.011719 C 186.386719 204.632812 186.707031 204.34375 187.09375 204.140625 C 187.480469 203.941406 187.90625 203.839844 188.371094 203.839844 C 189.347656 203.839844 190.117188 204.136719 190.683594 204.730469 C 191.253906 205.320312 191.535156 206.125 191.535156 207.144531 C 191.535156 208.144531 191.242188 208.945312 190.648438 209.550781 C 190.058594 210.152344 189.273438 210.453125 188.292969 210.453125 C 187.167969 210.453125 186.308594 210.023438 185.714844 209.164062 C 185.121094 208.300781 184.824219 207.050781 184.824219 205.414062 C 184.824219 203.878906 185.1875 202.652344 185.917969 201.738281 C 186.644531 200.824219 187.625 200.367188 188.851562 200.367188 C 189.183594 200.367188 189.515625 200.402344 189.851562 200.464844 C 190.1875 200.53125 190.539062 200.628906 190.902344 200.757812 Z M 190.902344 200.757812 "/>
<path style="fill:none;stroke-width:0.8;stroke-linecap:butt;stroke-linejoin:round;stroke:rgb(0%,0%,0%);stroke-opacity:1;stroke-miterlimit:4;" d="M 0.00131226 0.000579834 L 0.00131226 3.498627 " transform="matrix(1.333333,0,0,1.333333,230.084188,190.800008)"/>
<path style=" stroke:none;fill-rule:nonzero;fill:rgb(0%,0%,0%);fill-opacity:1;" d="M 223.71875 201.410156 C 223.042969 201.410156 222.535156 201.742188 222.191406 202.410156 C 221.851562 203.074219 221.683594 204.078125 221.683594 205.414062 C 221.683594 206.746094 221.851562 207.746094 222.191406 208.414062 C 222.535156 209.078125 223.042969 209.414062 223.71875 209.414062 C 224.402344 209.414062 224.914062 209.078125 225.253906 208.414062 C 225.59375 207.746094 225.765625 206.746094 225.765625 205.414062 C 225.765625 204.078125 225.59375 203.074219 225.253906 202.410156 C 224.914062 201.742188 224.402344 201.410156 223.71875 201.410156 Z M 223.71875 200.367188 C 224.808594 200.367188 225.640625 200.800781 226.21875 201.664062 C 226.792969 202.523438 227.078125 203.773438 227.078125 205.414062 C 227.078125 207.050781 226.792969 208.300781 226.21875 209.164062 C 225.640625 210.023438 224.808594 210.453125 223.71875 210.453125 C 222.628906 210.453125 221.796875 210.023438 221.222656 209.164062 C 220.648438 208.300781 220.359375 207.050781 220.359375 205.414062 C 220.359375 203.773438 220.648438 202.523438 221.222656 201.664062 C 221.796875 200.800781 222.628906 200.367188 223.71875 200.367188 Z M 223.71875 200.367188 "/>
<path style=" stroke:none;fill-rule:nonzero;fill:rgb(0%,0%,0%);fill-opacity:1;" d="M 229.390625 208.609375 L 230.765625 208.609375 L 230.765625 210.265625 L 229.390625 210.265625 Z M 229.390625 208.609375 "/>
<path style=" stroke:none;fill-rule:nonzero;fill:rgb(0%,0%,0%);fill-opacity:1;" d="M 236.441406 205.648438 C 235.816406 205.648438 235.324219 205.816406 234.964844 206.148438 C 234.609375 206.484375 234.429688 206.945312 234.429688 207.527344 C 234.429688 208.117188 234.609375 208.574219 234.964844 208.910156 C 235.324219 209.246094 235.816406 209.414062 236.441406 209.414062 C 237.066406 209.414062 237.558594 209.246094 237.917969 208.910156 C 238.277344 208.570312 238.460938 208.109375 238.460938 207.527344 C 238.460938 206.945312 238.28125 206.484375 237.921875 206.148438 C 237.566406 205.816406 237.070312 205.648438 236.441406 205.648438 Z M 235.125 205.089844 C 234.5625 204.949219 234.121094 204.6875 233.808594 204.300781 C 233.492188 203.914062 233.335938 203.441406 233.335938 202.886719 C 233.335938 202.109375 233.613281 201.496094 234.164062 201.046875 C 234.71875 200.59375 235.476562 200.367188 236.441406 200.367188 C 237.410156 200.367188 238.167969 200.59375 238.71875 201.046875 C 239.273438 201.496094 239.546875 202.109375 239.546875 202.886719 C 239.546875 203.441406 239.390625 203.914062 239.074219 204.300781 C 238.761719 204.6875 238.324219 204.949219 237.765625 205.089844 C 238.398438 205.238281 238.890625 205.527344 239.242188 205.957031 C 239.597656 206.386719 239.773438 206.910156 239.773438 207.527344 C 239.773438 208.472656 239.488281 209.195312 238.910156 209.699219 C 238.335938 210.203125 237.511719 210.453125 236.441406 210.453125 C 235.371094 210.453125 234.546875 210.203125 233.96875 209.699219 C 233.394531 209.195312 233.109375 208.472656 233.109375 207.527344 C 233.109375 206.910156 233.285156 206.386719 233.640625 205.957031 C 233.996094 205.527344 234.492188 205.238281 235.125 205.089844 Z M 234.644531 203.011719 C 234.644531 203.515625 234.800781 203.90625 235.117188 204.191406 C 235.429688 204.472656 235.871094 204.613281 236.441406 204.613281 C 237.007812 204.613281 237.449219 204.472656 237.765625 204.191406 C 238.085938 203.90625 238.246094 203.515625 238.246094 203.011719 C 238.246094 202.507812 238.085938 202.117188 237.765625 201.832031 C 237.449219 201.550781 237.007812 201.410156 236.441406 201.410156 C 235.871094 201.410156 235.429688 201.550781 235.117188 201.832031 C 234.800781 202.117188 234.644531 202.507812 234.644531 203.011719 Z M 234.644531 203.011719 "/>
<path style="fill:none;stroke-width:0.8;stroke-linecap:butt;stroke-linejoin:round;stroke:rgb(0%,0%,0%);stroke-opacity:1;stroke-miterlimit:4;" d="M -0.00102234 0.000579834 L -0.00102234 3.498627 " transform="matrix(1.333333,0,0,1.333333,278.395894,190.800008)"/>
<path style=" stroke:none;fill-rule:nonzero;fill:rgb(0%,0%,0%);fill-opacity:1;" d="M 269.449219 209.160156 L 271.597656 209.160156 L 271.597656 201.742188 L 269.257812 202.210938 L 269.257812 201.011719 L 271.582031 200.542969 L 272.898438 200.542969 L 272.898438 209.160156 L 275.046875 209.160156 L 275.046875 210.265625 L 269.449219 210.265625 Z M 269.449219 209.160156 "/>
<path style=" stroke:none;fill-rule:nonzero;fill:rgb(0%,0%,0%);fill-opacity:1;" d="M 277.703125 208.609375 L 279.078125 208.609375 L 279.078125 210.265625 L 277.703125 210.265625 Z M 277.703125 208.609375 "/>
<path style=" stroke:none;fill-rule:nonzero;fill:rgb(0%,0%,0%);fill-opacity:1;" d="M 284.753906 201.410156 C 284.078125 201.410156 283.566406 201.742188 283.226562 202.410156 C 282.886719 203.074219 282.714844 204.078125 282.714844 205.414062 C 282.714844 206.746094 282.886719 207.746094 283.226562 208.414062 C 283.566406 209.078125 284.078125 209.414062 284.753906 209.414062 C 285.433594 209.414062 285.945312 209.078125 286.285156 208.414062 C 286.628906 207.746094 286.796875 206.746094 286.796875 205.414062 C 286.796875 204.078125 286.628906 203.074219 286.285156 202.410156 C 285.945312 201.742188 285.433594 201.410156 284.753906 201.410156 Z M 284.753906 200.367188 C 285.84375 200.367188 286.675781 200.800781 287.25 201.664062 C 287.824219 202.523438 288.113281 203.773438 288.113281 205.414062 C 288.113281 207.050781 287.824219 208.300781 287.25 209.164062 C 286.675781 210.023438 285.84375 210.453125 284.753906 210.453125 C 283.664062 210.453125 282.832031 210.023438 282.257812 209.164062 C 281.683594 208.300781 281.394531 207.050781 281.394531 205.414062 C 281.394531 203.773438 281.683594 202.523438 282.257812 201.664062 C 282.832031 200.800781 283.664062 200.367188 284.753906 200.367188 Z M 284.753906 200.367188 "/>
<path style="fill:none;stroke-width:0.8;stroke-linecap:butt;stroke-linejoin:round;stroke:rgb(0%,0%,0%);stroke-opacity:1;stroke-miterlimit:4;" d="M 0.000976562 -0.000854492 L -3.5 -0.000854492 " transform="matrix(1.333333,0,0,1.333333,27.416667,182.563639)"/>
<path style=" stroke:none;fill-rule:nonzero;fill:rgb(0%,0%,0%);fill-opacity:1;" d="M 13.835938 178.773438 C 13.160156 178.773438 12.652344 179.109375 12.308594 179.773438 C 11.96875 180.441406 11.800781 181.441406 11.800781 182.777344 C 11.800781 184.109375 11.96875 185.109375 12.308594 185.777344 C 12.652344 186.445312 13.160156 186.777344 13.835938 186.777344 C 14.519531 186.777344 15.03125 186.445312 15.371094 185.777344 C 15.710938 185.109375 15.882812 184.109375 15.882812 182.777344 C 15.882812 181.441406 15.710938 180.441406 15.371094 179.773438 C 15.03125 179.109375 14.519531 178.773438 13.835938 178.773438 Z M 13.835938 177.734375 C 14.929688 177.734375 15.761719 178.164062 16.335938 179.027344 C 16.910156 179.886719 17.199219 181.140625 17.199219 182.777344 C 17.199219 184.414062 16.910156 185.664062 16.335938 186.527344 C 15.761719 187.386719 14.929688 187.820312 13.835938 187.820312 C 12.75 187.820312 11.917969 187.386719 11.339844 186.527344 C 10.765625 185.664062 10.480469 184.414062 10.480469 182.777344 C 10.480469 181.140625 10.765625 179.886719 11.339844 179.027344 C 11.917969 178.164062 12.75 177.734375 13.835938 177.734375 Z M 13.835938 177.734375 "/>
<path style="fill:none;stroke-width:0.8;stroke-linecap:butt;stroke-linejoin:round;stroke:rgb(0%,0%,0%);stroke-opacity:1;stroke-miterlimit:4;" d="M 0.000976562 -0.000450134 L -3.5 -0.000450134 " transform="matrix(1.333333,0,0,1.333333,27.416667,146.793569)"/>
<path style=" stroke:none;fill-rule:nonzero;fill:rgb(0%,0%,0%);fill-opacity:1;" d="M 11.253906 150.753906 L 13.402344 150.753906 L 13.402344 143.335938 L 11.066406 143.804688 L 11.066406 142.605469 L 13.390625 142.136719 L 14.703125 142.136719 L 14.703125 150.753906 L 16.851562 150.753906 L 16.851562 151.859375 L 11.253906 151.859375 Z M 11.253906 150.753906 "/>
<path style="fill:none;stroke-width:0.8;stroke-linecap:butt;stroke-linejoin:round;stroke:rgb(0%,0%,0%);stroke-opacity:1;stroke-miterlimit:4;" d="M 0.000976562 -0.000038147 L -3.5 -0.000038147 " transform="matrix(1.333333,0,0,1.333333,27.416667,111.023488)"/>
<path style=" stroke:none;fill-rule:nonzero;fill:rgb(0%,0%,0%);fill-opacity:1;" d="M 12.160156 114.984375 L 16.746094 114.984375 L 16.746094 116.089844 L 10.578125 116.089844 L 10.578125 114.984375 C 11.074219 114.464844 11.753906 113.773438 12.617188 112.902344 C 13.480469 112.03125 14.019531 111.472656 14.242188 111.21875 C 14.664062 110.746094 14.957031 110.347656 15.121094 110.019531 C 15.289062 109.691406 15.375 109.367188 15.375 109.050781 C 15.375 108.535156 15.195312 108.113281 14.832031 107.789062 C 14.46875 107.460938 13.996094 107.300781 13.414062 107.300781 C 13.003906 107.300781 12.566406 107.371094 12.109375 107.515625 C 11.652344 107.65625 11.164062 107.875 10.640625 108.167969 L 10.640625 106.835938 C 11.171875 106.625 11.664062 106.464844 12.125 106.355469 C 12.585938 106.246094 13.007812 106.191406 13.390625 106.191406 C 14.398438 106.191406 15.199219 106.445312 15.796875 106.949219 C 16.398438 107.453125 16.695312 108.125 16.695312 108.964844 C 16.695312 109.367188 16.621094 109.746094 16.472656 110.105469 C 16.320312 110.460938 16.050781 110.882812 15.652344 111.367188 C 15.546875 111.496094 15.199219 111.859375 14.617188 112.460938 C 14.039062 113.0625 13.21875 113.902344 12.160156 114.984375 Z M 12.160156 114.984375 "/>
<path style="fill:none;stroke-width:0.8;stroke-linecap:butt;stroke-linejoin:round;stroke:rgb(0%,0%,0%);stroke-opacity:1;stroke-miterlimit:4;" d="M 0.000976562 0.000366211 L -3.5 0.000366211 " transform="matrix(1.333333,0,0,1.333333,27.416667,75.253418)"/>
<path style=" stroke:none;fill-rule:nonzero;fill:rgb(0%,0%,0%);fill-opacity:1;" d="M 15.011719 75.078125 C 15.640625 75.210938 16.128906 75.492188 16.484375 75.917969 C 16.835938 76.34375 17.015625 76.867188 17.015625 77.492188 C 17.015625 78.453125 16.683594 79.195312 16.023438 79.722656 C 15.367188 80.246094 14.429688 80.507812 13.210938 80.507812 C 12.804688 80.507812 12.386719 80.46875 11.953125 80.386719 C 11.523438 80.308594 11.078125 80.1875 10.617188 80.023438 L 10.617188 78.757812 C 10.980469 78.96875 11.378906 79.128906 11.8125 79.238281 C 12.246094 79.347656 12.703125 79.398438 13.175781 79.398438 C 14 79.398438 14.625 79.238281 15.058594 78.914062 C 15.492188 78.585938 15.707031 78.113281 15.707031 77.492188 C 15.707031 76.921875 15.503906 76.472656 15.105469 76.148438 C 14.703125 75.828125 14.144531 75.664062 13.429688 75.664062 L 12.296875 75.664062 L 12.296875 74.582031 L 13.480469 74.582031 C 14.128906 74.582031 14.621094 74.453125 14.964844 74.195312 C 15.308594 73.9375 15.480469 73.566406 15.480469 73.078125 C 15.480469 72.582031 15.300781 72.199219 14.949219 71.929688 C 14.59375 71.664062 14.089844 71.53125 13.429688 71.53125 C 13.066406 71.53125 12.679688 71.570312 12.269531 71.648438 C 11.855469 71.726562 11.402344 71.847656 10.910156 72.011719 L 10.910156 70.839844 C 11.410156 70.699219 11.875 70.597656 12.3125 70.527344 C 12.75 70.457031 13.160156 70.421875 13.546875 70.421875 C 14.542969 70.421875 15.335938 70.648438 15.914062 71.105469 C 16.496094 71.558594 16.789062 72.167969 16.789062 72.941406 C 16.789062 73.480469 16.632812 73.9375 16.324219 74.304688 C 16.015625 74.675781 15.578125 74.933594 15.011719 75.078125 Z M 15.011719 75.078125 "/>
<path style="fill:none;stroke-width:0.8;stroke-linecap:butt;stroke-linejoin:round;stroke:rgb(0%,0%,0%);stroke-opacity:1;stroke-miterlimit:4;" d="M 0.000976562 0.000770569 L -3.5 0.000770569 " transform="matrix(1.333333,0,0,1.333333,27.416667,39.483348)"/>
<path style=" stroke:none;fill-rule:nonzero;fill:rgb(0%,0%,0%);fill-opacity:1;" d="M 14.640625 35.972656 L 11.320312 41.164062 L 14.640625 41.164062 Z M 14.292969 34.828125 L 15.949219 34.828125 L 15.949219 41.164062 L 17.335938 41.164062 L 17.335938 42.257812 L 15.949219 42.257812 L 15.949219 44.550781 L 14.640625 44.550781 L 14.640625 42.257812 L 10.253906 42.257812 L 10.253906 40.988281 Z M 14.292969 34.828125 "/>
<path style="fill:none;stroke-width:1.5;stroke-linecap:square;stroke-linejoin:round;stroke:rgb(12.156863%,46.666667%,70.588237%);stroke-opacity:1;stroke-miterlimit:4;" d="M 29.44043 13.376953 L 31.250977 31.97168 L 33.064453 42.849609 L 34.875 50.569336 L 36.685547 56.554688 L 38.499023 61.444336 L 40.30957 65.581055 L 42.123047 69.164062 L 43.933594 72.322266 L 45.744141 75.149414 L 47.557617 77.707031 L 49.368164 80.041992 L 51.178711 82.189453 L 52.992188 84.175781 L 54.802734 86.027344 L 56.616211 87.758789 L 58.426758 89.384766 L 60.237305 90.919922 L 62.050781 92.370117 L 63.861328 93.744141 L 65.674805 95.053711 L 67.485352 96.301758 L 69.295898 97.494141 L 71.109375 98.636719 L 72.919922 99.732422 L 74.733398 100.78418 L 76.543945 101.797852 L 78.354492 102.773438 L 80.167969 103.713867 L 81.978516 104.62207 L 83.789062 105.503906 L 85.602539 106.353516 L 87.413086 107.179688 L 89.226562 107.979492 L 91.037109 108.758789 L 92.847656 109.514648 L 94.661133 110.25 L 96.47168 110.964844 L 98.285156 111.662109 L 100.095703 112.341797 L 101.90625 113.003906 L 103.719727 113.648438 L 105.530273 114.28125 L 107.34375 114.896484 L 109.154297 115.5 L 110.964844 116.091797 L 112.77832 116.666016 L 114.588867 117.231445 L 116.399414 117.785156 L 118.212891 118.327148 L 120.023438 118.857422 L 121.836914 119.378906 L 123.647461 119.891602 L 125.458008 120.392578 L 127.271484 120.884766 L 129.082031 121.368164 L 130.895508 121.842773 L 132.706055 122.308594 L 134.516602 122.768555 L 136.330078 123.219727 L 138.140625 123.662109 L 139.954102 124.098633 L 141.764648 124.526367 L 143.575195 124.951172 L 145.388672 125.367188 L 147.199219 125.774414 L 149.009766 126.178711 L 150.823242 126.577148 L 152.633789 126.966797 L 154.447266 127.353516 L 156.257812 127.734375 L 158.068359 128.109375 L 159.881836 128.478516 L 161.692383 128.844727 L 163.505859 129.205078 L 165.316406 129.55957 L 167.126953 129.911133 L 168.94043 130.256836 L 170.750977 130.599609 L 172.564453 130.936523 L 174.375 131.270508 L 176.185547 131.598633 L 177.999023 131.923828 L 179.80957 132.246094 L 181.623047 132.5625 L 183.433594 132.875977 L 185.244141 133.186523 L 187.057617 133.494141 L 188.868164 133.795898 L 190.678711 134.094727 L 192.492188 134.393555 L 194.302734 134.686523 L 196.116211 134.976562 L 197.926758 135.263672 L 199.737305 135.547852 L 201.550781 135.826172 L 203.361328 136.104492 L 205.174805 136.379883 L 206.985352 136.652344 " transform="matrix(1.333333,0,0,1.333333,0,0)"/>
<path style="fill:none;stroke-width:1.5;stroke-linecap:butt;stroke-linejoin:round;stroke:rgb(100%,49.803922%,5.490196%);stroke-opacity:1;stroke-dasharray:5.55,2.4;stroke-miterlimit:4;" d="M 29.44043 14.613281 L 31.250977 34.072266 L 33.064453 45.673828 L 34.875 54.023438 L 36.685547 60.574219 L 38.499023 65.973633 L 40.30957 70.576172 L 42.123047 74.583984 L 43.933594 78.137695 L 45.744141 81.328125 L 47.557617 84.219727 L 49.368164 86.868164 L 51.178711 89.302734 L 52.992188 91.561523 L 54.802734 93.662109 L 56.616211 95.625 L 58.426758 97.467773 L 60.237305 99.199219 L 62.050781 100.833984 L 63.861328 102.380859 L 65.674805 103.845703 L 67.485352 105.240234 L 69.295898 106.564453 L 71.109375 107.824219 L 72.919922 109.02832 L 74.733398 110.179688 L 76.543945 111.28125 L 78.354492 112.333008 L 80.167969 113.34375 L 81.978516 114.313477 L 83.789062 115.242188 L 85.602539 116.135742 L 87.413086 116.994141 L 89.226562 117.820312 L 91.037109 118.617188 L 92.847656 119.381836 L 94.661133 120.117188 L 96.47168 120.829102 L 98.285156 121.514648 L 100.095703 122.173828 L 101.90625 122.80957 L 103.719727 123.424805 L 105.530273 124.016602 L 107.34375 124.587891 L 109.154297 125.141602 L 110.964844 125.671875 L 112.77832 126.1875 L 114.588867 126.682617 L 116.399414 127.163086 L 118.212891 127.625977 L 120.023438 128.071289 L 121.836914 128.501953 L 123.647461 128.917969 L 125.458008 129.319336 L 127.271484 129.706055 L 129.082031 130.078125 L 130.895508 130.438477 L 132.706055 130.78418 L 134.516602 131.118164 L 136.330078 131.44043 L 138.140625 131.750977 L 139.954102 132.049805 L 141.764648 132.336914 L 143.575195 132.612305 L 145.388672 132.878906 L 147.199219 133.133789 L 149.009766 133.376953 L 150.823242 133.611328 L 152.633789 133.836914 L 154.447266 134.050781 L 156.257812 134.258789 L 158.068359 134.455078 L 159.881836 134.642578 L 161.692383 134.821289 L 163.505859 134.994141 L 165.316406 135.155273 L 167.126953 135.310547 L 168.94043 135.457031 L 170.750977 135.594727 L 172.564453 135.726562 L 174.375 135.849609 L 176.185547 135.963867 L 177.999023 136.072266 L 179.80957 136.174805 L 181.623047 136.268555 L 183.433594 136.356445 L 185.244141 136.438477 L 187.057617 136.511719 L 188.868164 136.579102 L 190.678711 136.640625 L 192.492188 136.696289 L 194.302734 136.743164 L 196.116211 136.787109 L 197.926758 136.822266 L 199.737305 136.854492 L 201.550781 136.87793 L 203.361328 136.898438 L 205.174805 136.913086 L 206.985352 136.918945 " transform="matrix(1.333333,0,0,1.333333,0,0)"/>
<path style="fill:none;stroke-width:1.5;stroke-linecap:butt;stroke-linejoin:round;stroke:rgb(17.254902%,62.7451%,17.254902%);stroke-opacity:1;stroke-dasharray:9.6,2.4,1.5,2.4;stroke-miterlimit:4;" d="M 29.44043 19.432617 L 31.250977 42.055664 L 33.064453 56.138672 L 34.875 66.512695 L 36.685547 74.736328 L 38.499023 81.530273 L 40.30957 87.290039 L 42.123047 92.264648 L 43.933594 96.609375 L 45.744141 100.447266 L 47.557617 103.857422 L 49.368164 106.904297 L 51.178711 109.643555 L 52.992188 112.110352 L 54.802734 114.339844 L 56.616211 116.361328 L 58.426758 118.198242 L 60.237305 119.868164 L 62.050781 121.388672 L 63.861328 122.774414 L 65.674805 124.040039 L 67.485352 125.194336 L 69.295898 126.249023 L 71.109375 127.21582 L 72.919922 128.097656 L 74.733398 128.90332 L 76.543945 129.641602 L 78.354492 130.31543 L 80.167969 130.930664 L 81.978516 131.493164 L 83.789062 132.008789 L 85.602539 132.477539 L 87.413086 132.908203 L 89.226562 133.297852 L 91.037109 133.655273 L 92.847656 133.980469 L 94.661133 134.276367 L 96.47168 134.545898 L 98.285156 134.789062 L 100.095703 135.011719 L 101.90625 135.213867 L 103.719727 135.395508 L 105.530273 135.55957 L 107.34375 135.708984 L 109.154297 135.84375 L 110.964844 135.966797 L 112.77832 136.075195 L 114.588867 136.174805 L 116.399414 136.262695 L 118.212891 136.341797 L 120.023438 136.412109 L 121.836914 136.476562 L 123.647461 136.532227 L 125.458008 136.582031 L 127.271484 136.625977 L 129.082031 136.666992 L 130.895508 136.702148 L 132.706055 136.731445 L 134.516602 136.757812 L 136.330078 136.78125 L 138.140625 136.801758 L 139.954102 136.822266 L 143.575195 136.851562 L 145.388672 136.863281 L 149.009766 136.880859 L 150.823242 136.886719 L 152.633789 136.895508 L 154.447266 136.898438 L 156.257812 136.904297 L 158.068359 136.907227 L 159.881836 136.910156 L 161.692383 136.913086 L 163.505859 136.916016 L 165.316406 136.916016 L 167.126953 136.918945 L 170.750977 136.918945 L 172.564453 136.921875 L 206.985352 136.921875 " transform="matrix(1.333333,0,0,1.333333,0,0)"/>
<path style="fill:none;stroke-width:0.8;stroke-linecap:square;stroke-linejoin:miter;stroke:rgb(0%,0%,0%);stroke-opacity:1;stroke-miterlimit:4;" d="M 20.563477 143.100586 L 20.563477 7.201172 " transform="matrix(1.333333,0,0,1.333333,0,0)"/>
<path style="fill:none;stroke-width:0.8;stroke-linecap:square;stroke-linejoin:miter;stroke:rgb(0%,0%,0%);stroke-opacity:1;stroke-miterlimit:4;" d="M 215.862305 143.100586 L 215.862305 7.201172 " transform="matrix(1.333333,0,0,1.333333,0,0)"/>
<path style="fill:none;stroke-width:0.8;stroke-linecap:square;stroke-linejoin:miter;stroke:rgb(0%,0%,0%);stroke-opacity:1;stroke-miterlimit:4;" d="M 20.563477 143.100586 L 215.862305 143.100586 " transform="matrix(1.333333,0,0,1.333333,0,0)"/>
<path style="fill:none;stroke-width:0.8;stroke-linecap:square;stroke-linejoin:miter;stroke:rgb(0%,0%,0%);stroke-opacity:1;stroke-miterlimit:4;" d="M 20.563477 7.201172 L 215.862305 7.201172 " transform="matrix(1.333333,0,0,1.333333,0,0)"/>
<use xlink:href="#surface5" mask="url(#mask0)"/>
<path style="fill:none;stroke-width:1.5;stroke-linecap:square;stroke-linejoin:round;stroke:rgb(12.156863%,46.666667%,70.588237%);stroke-opacity:1;stroke-miterlimit:4;" d="M 116.493164 20.299805 L 136.494141 20.299805 " transform="matrix(1.333333,0,0,1.333333,0,0)"/>
<path style=" stroke:none;fill-rule:nonzero;fill:rgb(0%,0%,0%);fill-opacity:1;" d="M 198.710938 28 C 198.710938 27.132812 198.535156 26.460938 198.175781 25.984375 C 197.816406 25.503906 197.316406 25.265625 196.667969 25.265625 C 196.027344 25.265625 195.527344 25.503906 195.167969 25.984375 C 194.808594 26.460938 194.632812 27.132812 194.632812 28 C 194.632812 28.863281 194.808594 29.535156 195.167969 30.011719 C 195.527344 30.492188 196.027344 30.730469 196.667969 30.730469 C 197.316406 30.730469 197.816406 30.492188 198.175781 30.011719 C 198.535156 29.535156 198.710938 28.863281 198.710938 28 Z M 199.910156 30.828125 C 199.910156 32.066406 199.632812 32.992188 199.082031 33.597656 C 198.535156 34.203125 197.691406 34.503906 196.550781 34.503906 C 196.132812 34.503906 195.734375 34.472656 195.359375 34.410156 C 194.988281 34.347656 194.625 34.25 194.273438 34.121094 L 194.273438 32.957031 C 194.625 33.148438 194.972656 33.285156 195.316406 33.378906 C 195.65625 33.46875 196.007812 33.515625 196.363281 33.515625 C 197.148438 33.515625 197.738281 33.308594 198.128906 32.898438 C 198.515625 32.492188 198.710938 31.871094 198.710938 31.042969 L 198.710938 30.449219 C 198.464844 30.878906 198.148438 31.199219 197.761719 31.414062 C 197.375 31.625 196.914062 31.730469 196.375 31.730469 C 195.480469 31.730469 194.761719 31.390625 194.214844 30.710938 C 193.667969 30.027344 193.394531 29.125 193.394531 28 C 193.394531 26.871094 193.667969 25.96875 194.214844 25.289062 C 194.761719 24.605469 195.480469 24.265625 196.375 24.265625 C 196.914062 24.265625 197.375 24.371094 197.761719 24.582031 C 198.148438 24.796875 198.464844 25.117188 198.710938 25.546875 L 198.710938 24.441406 L 199.910156 24.441406 Z M 199.910156 30.828125 "/>
<path style=" stroke:none;fill-rule:nonzero;fill:rgb(0%,0%,0%);fill-opacity:1;" d="M 205.691406 28.066406 C 204.726562 28.066406 204.054688 28.175781 203.679688 28.398438 C 203.304688 28.617188 203.121094 28.996094 203.121094 29.53125 C 203.121094 29.957031 203.261719 30.292969 203.539062 30.542969 C 203.820312 30.792969 204.203125 30.917969 204.683594 30.917969 C 205.347656 30.917969 205.882812 30.679688 206.28125 30.210938 C 206.683594 29.738281 206.882812 29.113281 206.882812 28.332031 L 206.882812 28.066406 Z M 208.082031 27.570312 L 208.082031 31.730469 L 206.882812 31.730469 L 206.882812 30.625 C 206.609375 31.066406 206.269531 31.394531 205.863281 31.605469 C 205.453125 31.816406 204.953125 31.921875 204.363281 31.921875 C 203.617188 31.921875 203.023438 31.710938 202.582031 31.292969 C 202.140625 30.871094 201.921875 30.3125 201.921875 29.609375 C 201.921875 28.789062 202.195312 28.171875 202.746094 27.753906 C 203.292969 27.335938 204.113281 27.128906 205.203125 27.128906 L 206.882812 27.128906 L 206.882812 27.011719 C 206.882812 26.460938 206.703125 26.03125 206.339844 25.730469 C 205.976562 25.429688 205.46875 25.277344 204.8125 25.277344 C 204.398438 25.277344 203.992188 25.328125 203.59375 25.429688 C 203.199219 25.527344 202.820312 25.679688 202.457031 25.878906 L 202.457031 24.769531 C 202.894531 24.601562 203.320312 24.476562 203.730469 24.390625 C 204.144531 24.308594 204.546875 24.265625 204.9375 24.265625 C 205.992188 24.265625 206.78125 24.539062 207.300781 25.085938 C 207.820312 25.632812 208.082031 26.460938 208.082031 27.570312 Z M 208.082031 27.570312 "/>
<path style=" stroke:none;fill-rule:nonzero;fill:rgb(0%,0%,0%);fill-opacity:1;" d="M 216.226562 25.839844 C 216.527344 25.300781 216.882812 24.902344 217.300781 24.648438 C 217.71875 24.390625 218.207031 24.265625 218.773438 24.265625 C 219.53125 24.265625 220.117188 24.53125 220.53125 25.0625 C 220.941406 25.59375 221.148438 26.347656 221.148438 27.328125 L 221.148438 31.730469 L 219.945312 31.730469 L 219.945312 27.367188 C 219.945312 26.671875 219.820312 26.152344 219.570312 25.816406 C 219.324219 25.476562 218.949219 25.304688 218.441406 25.304688 C 217.820312 25.304688 217.328125 25.511719 216.96875 25.925781 C 216.609375 26.335938 216.429688 26.898438 216.429688 27.609375 L 216.429688 31.730469 L 215.222656 31.730469 L 215.222656 27.367188 C 215.222656 26.664062 215.101562 26.148438 214.851562 25.808594 C 214.605469 25.472656 214.222656 25.304688 213.707031 25.304688 C 213.09375 25.304688 212.609375 25.511719 212.246094 25.925781 C 211.886719 26.339844 211.707031 26.902344 211.707031 27.609375 L 211.707031 31.730469 L 210.503906 31.730469 L 210.503906 24.441406 L 211.707031 24.441406 L 211.707031 25.574219 C 211.980469 25.125 212.308594 24.796875 212.691406 24.582031 C 213.074219 24.371094 213.527344 24.265625 214.050781 24.265625 C 214.582031 24.265625 215.03125 24.398438 215.402344 24.667969 C 215.773438 24.9375 216.046875 25.328125 216.226562 25.839844 Z M 216.226562 25.839844 "/>
<path style=" stroke:none;fill-rule:nonzero;fill:rgb(0%,0%,0%);fill-opacity:1;" d="M 229.214844 25.839844 C 229.515625 25.300781 229.871094 24.902344 230.289062 24.648438 C 230.707031 24.390625 231.195312 24.265625 231.761719 24.265625 C 232.519531 24.265625 233.105469 24.53125 233.519531 25.0625 C 233.929688 25.59375 234.136719 26.347656 234.136719 27.328125 L 234.136719 31.730469 L 232.933594 31.730469 L 232.933594 27.367188 C 232.933594 26.671875 232.808594 26.152344 232.558594 25.816406 C 232.3125 25.476562 231.9375 25.304688 231.429688 25.304688 C 230.808594 25.304688 230.316406 25.511719 229.957031 25.925781 C 229.597656 26.335938 229.417969 26.898438 229.417969 27.609375 L 229.417969 31.730469 L 228.210938 31.730469 L 228.210938 27.367188 C 228.210938 26.664062 228.089844 26.148438 227.839844 25.808594 C 227.59375 25.472656 227.210938 25.304688 226.695312 25.304688 C 226.082031 25.304688 225.597656 25.511719 225.234375 25.925781 C 224.875 26.339844 224.695312 26.902344 224.695312 27.609375 L 224.695312 31.730469 L 223.492188 31.730469 L 223.492188 24.441406 L 224.695312 24.441406 L 224.695312 25.574219 C 224.96875 25.125 225.296875 24.796875 225.679688 24.582031 C 226.0625 24.371094 226.515625 24.265625 227.039062 24.265625 C 227.570312 24.265625 228.019531 24.398438 228.390625 24.667969 C 228.761719 24.9375 229.035156 25.328125 229.214844 25.839844 Z M 229.214844 25.839844 "/>
<path style=" stroke:none;fill-rule:nonzero;fill:rgb(0%,0%,0%);fill-opacity:1;" d="M 239.839844 28.066406 C 238.871094 28.066406 238.199219 28.175781 237.828125 28.398438 C 237.453125 28.617188 237.265625 28.996094 237.265625 29.53125 C 237.265625 29.957031 237.40625 30.292969 237.6875 30.542969 C 237.96875 30.792969 238.347656 30.917969 238.828125 30.917969 C 239.496094 30.917969 240.027344 30.679688 240.429688 30.210938 C 240.832031 29.738281 241.03125 29.113281 241.03125 28.332031 L 241.03125 28.066406 Z M 242.230469 27.570312 L 242.230469 31.730469 L 241.03125 31.730469 L 241.03125 30.625 C 240.757812 31.066406 240.417969 31.394531 240.007812 31.605469 C 239.601562 31.816406 239.101562 31.921875 238.511719 31.921875 C 237.765625 31.921875 237.171875 31.710938 236.730469 31.292969 C 236.289062 30.871094 236.070312 30.3125 236.070312 29.609375 C 236.070312 28.789062 236.34375 28.171875 236.890625 27.753906 C 237.441406 27.335938 238.261719 27.128906 239.351562 27.128906 L 241.03125 27.128906 L 241.03125 27.011719 C 241.03125 26.460938 240.851562 26.03125 240.488281 25.730469 C 240.125 25.429688 239.617188 25.277344 238.960938 25.277344 C 238.542969 25.277344 238.136719 25.328125 237.742188 25.429688 C 237.347656 25.527344 236.96875 25.679688 236.605469 25.878906 L 236.605469 24.769531 C 237.042969 24.601562 237.46875 24.476562 237.878906 24.390625 C 238.292969 24.308594 238.691406 24.265625 239.082031 24.265625 C 240.140625 24.265625 240.925781 24.539062 241.449219 25.085938 C 241.96875 25.632812 242.230469 26.460938 242.230469 27.570312 Z M 242.230469 27.570312 "/>
<path style=" stroke:none;fill-rule:nonzero;fill:rgb(0%,0%,0%);fill-opacity:1;" d="M 244.851562 25.675781 L 253.199219 25.675781 L 253.199219 26.769531 L 244.851562 26.769531 Z M 244.851562 28.332031 L 253.199219 28.332031 L 253.199219 29.441406 L 244.851562 29.441406 Z M 244.851562 28.332031 "/>
<path style=" stroke:none;fill-rule:nonzero;fill:rgb(0%,0%,0%);fill-opacity:1;" d="M 258.847656 22.878906 C 258.171875 22.878906 257.664062 23.210938 257.320312 23.878906 C 256.980469 24.542969 256.8125 25.542969 256.8125 26.882812 C 256.8125 28.214844 256.980469 29.210938 257.320312 29.878906 C 257.664062 30.546875 258.171875 30.878906 258.847656 30.878906 C 259.53125 30.878906 260.042969 30.546875 260.382812 29.878906 C 260.722656 29.210938 260.894531 28.214844 260.894531 26.882812 C 260.894531 25.542969 260.722656 24.542969 260.382812 23.878906 C 260.042969 23.210938 259.53125 22.878906 258.847656 22.878906 Z M 258.847656 21.835938 C 259.9375 21.835938 260.773438 22.265625 261.347656 23.128906 C 261.921875 23.992188 262.210938 25.242188 262.210938 26.882812 C 262.210938 28.515625 261.921875 29.765625 261.347656 30.628906 C 260.773438 31.492188 259.9375 31.921875 258.847656 31.921875 C 257.761719 31.921875 256.929688 31.492188 256.351562 30.628906 C 255.777344 29.765625 255.492188 28.515625 255.492188 26.882812 C 255.492188 25.242188 255.777344 23.992188 256.351562 23.128906 C 256.929688 22.265625 257.761719 21.835938 258.847656 21.835938 Z M 258.847656 21.835938 "/>
<path style=" stroke:none;fill-rule:nonzero;fill:rgb(0%,0%,0%);fill-opacity:1;" d="M 264.519531 30.078125 L 265.894531 30.078125 L 265.894531 31.730469 L 264.519531 31.730469 Z M 264.519531 30.078125 "/>
<path style=" stroke:none;fill-rule:nonzero;fill:rgb(0%,0%,0%);fill-opacity:1;" d="M 271.570312 22.878906 C 270.894531 22.878906 270.386719 23.210938 270.042969 23.878906 C 269.703125 24.542969 269.53125 25.542969 269.53125 26.882812 C 269.53125 28.214844 269.703125 29.210938 270.042969 29.878906 C 270.386719 30.546875 270.894531 30.878906 271.570312 30.878906 C 272.253906 30.878906 272.761719 30.546875 273.105469 29.878906 C 273.445312 29.210938 273.617188 28.214844 273.617188 26.882812 C 273.617188 25.542969 273.445312 24.542969 273.105469 23.878906 C 272.761719 23.210938 272.253906 22.878906 271.570312 22.878906 Z M 271.570312 21.835938 C 272.660156 21.835938 273.492188 22.265625 274.066406 23.128906 C 274.644531 23.992188 274.929688 25.242188 274.929688 26.882812 C 274.929688 28.515625 274.644531 29.765625 274.066406 30.628906 C 273.492188 31.492188 272.660156 31.921875 271.570312 31.921875 C 270.480469 31.921875 269.648438 31.492188 269.074219 30.628906 C 268.5 29.765625 268.210938 28.515625 268.210938 26.882812 C 268.210938 25.242188 268.5 23.992188 269.074219 23.128906 C 269.648438 22.265625 270.480469 21.835938 271.570312 21.835938 Z M 271.570312 21.835938 "/>
<path style="fill:none;stroke-width:1.5;stroke-linecap:butt;stroke-linejoin:round;stroke:rgb(100%,49.803922%,5.490196%);stroke-opacity:1;stroke-dasharray:5.55,2.4;stroke-miterlimit:4;" d="M 116.493164 34.977539 L 136.494141 34.977539 " transform="matrix(1.333333,0,0,1.333333,0,0)"/>
<path style=" stroke:none;fill-rule:nonzero;fill:rgb(0%,0%,0%);fill-opacity:1;" d="M 198.710938 47.570312 C 198.710938 46.703125 198.535156 46.03125 198.175781 45.554688 C 197.816406 45.078125 197.316406 44.835938 196.667969 44.835938 C 196.027344 44.835938 195.527344 45.078125 195.167969 45.554688 C 194.808594 46.03125 194.632812 46.703125 194.632812 47.570312 C 194.632812 48.433594 194.808594 49.105469 195.167969 49.582031 C 195.527344 50.0625 196.027344 50.300781 196.667969 50.300781 C 197.316406 50.300781 197.816406 50.0625 198.175781 49.582031 C 198.535156 49.105469 198.710938 48.433594 198.710938 47.570312 Z M 199.910156 50.398438 C 199.910156 51.636719 199.632812 52.5625 199.082031 53.167969 C 198.535156 53.773438 197.691406 54.074219 196.550781 54.074219 C 196.132812 54.074219 195.734375 54.042969 195.359375 53.980469 C 194.988281 53.917969 194.625 53.820312 194.273438 53.691406 L 194.273438 52.527344 C 194.625 52.71875 194.972656 52.859375 195.316406 52.949219 C 195.65625 53.039062 196.007812 53.085938 196.363281 53.085938 C 197.148438 53.085938 197.738281 52.878906 198.128906 52.472656 C 198.515625 52.0625 198.710938 51.441406 198.710938 50.613281 L 198.710938 50.019531 C 198.464844 50.449219 198.148438 50.769531 197.761719 50.984375 C 197.375 51.195312 196.914062 51.300781 196.375 51.300781 C 195.480469 51.300781 194.761719 50.960938 194.214844 50.28125 C 193.667969 49.597656 193.394531 48.695312 193.394531 47.570312 C 193.394531 46.441406 193.667969 45.539062 194.214844 44.859375 C 194.761719 44.175781 195.480469 43.835938 196.375 43.835938 C 196.914062 43.835938 197.375 43.941406 197.761719 44.152344 C 198.148438 44.367188 198.464844 44.6875 198.710938 45.117188 L 198.710938 44.011719 L 199.910156 44.011719 Z M 199.910156 50.398438 "/>
<path style=" stroke:none;fill-rule:nonzero;fill:rgb(0%,0%,0%);fill-opacity:1;" d="M 205.691406 47.636719 C 204.726562 47.636719 204.054688 47.746094 203.679688 47.96875 C 203.304688 48.191406 203.121094 48.566406 203.121094 49.101562 C 203.121094 49.527344 203.261719 49.863281 203.539062 50.113281 C 203.820312 50.363281 204.203125 50.488281 204.683594 50.488281 C 205.347656 50.488281 205.882812 50.253906 206.28125 49.78125 C 206.683594 49.308594 206.882812 48.683594 206.882812 47.902344 L 206.882812 47.636719 Z M 208.082031 47.140625 L 208.082031 51.300781 L 206.882812 51.300781 L 206.882812 50.195312 C 206.609375 50.636719 206.269531 50.964844 205.863281 51.175781 C 205.453125 51.386719 204.953125 51.492188 204.363281 51.492188 C 203.617188 51.492188 203.023438 51.28125 202.582031 50.863281 C 202.140625 50.441406 201.921875 49.882812 201.921875 49.179688 C 201.921875 48.359375 202.195312 47.742188 202.746094 47.324219 C 203.292969 46.910156 204.113281 46.699219 205.203125 46.699219 L 206.882812 46.699219 L 206.882812 46.582031 C 206.882812 46.03125 206.703125 45.601562 206.339844 45.300781 C 205.976562 45 205.46875 44.851562 204.8125 44.851562 C 204.398438 44.851562 203.992188 44.898438 203.59375 45 C 203.199219 45.101562 202.820312 45.25 202.457031 45.449219 L 202.457031 44.339844 C 202.894531 44.171875 203.320312 44.046875 203.730469 43.960938 C 204.144531 43.878906 204.546875 43.835938 204.9375 43.835938 C 205.992188 43.835938 206.78125 44.109375 207.300781 44.65625 C 207.820312 45.203125 208.082031 46.03125 208.082031 47.140625 Z M 208.082031 47.140625 "/>
<path style=" stroke:none;fill-rule:nonzero;fill:rgb(0%,0%,0%);fill-opacity:1;" d="M 216.226562 45.410156 C 216.527344 44.871094 216.882812 44.472656 217.300781 44.21875 C 217.71875 43.964844 218.207031 43.835938 218.773438 43.835938 C 219.53125 43.835938 220.117188 44.101562 220.53125 44.632812 C 220.941406 45.164062 221.148438 45.917969 221.148438 46.898438 L 221.148438 51.300781 L 219.945312 51.300781 L 219.945312 46.941406 C 219.945312 46.242188 219.820312 45.722656 219.570312 45.386719 C 219.324219 45.046875 218.949219 44.878906 218.441406 44.878906 C 217.820312 44.878906 217.328125 45.082031 216.96875 45.496094 C 216.609375 45.90625 216.429688 46.46875 216.429688 47.179688 L 216.429688 51.300781 L 215.222656 51.300781 L 215.222656 46.941406 C 215.222656 46.238281 215.101562 45.71875 214.851562 45.382812 C 214.605469 45.046875 214.222656 44.878906 213.707031 44.878906 C 213.09375 44.878906 212.609375 45.085938 212.246094 45.496094 C 211.886719 45.910156 211.707031 46.472656 211.707031 47.179688 L 211.707031 51.300781 L 210.503906 51.300781 L 210.503906 44.011719 L 211.707031 44.011719 L 211.707031 45.144531 C 211.980469 44.695312 212.308594 44.367188 212.691406 44.152344 C 213.074219 43.941406 213.527344 43.835938 214.050781 43.835938 C 214.582031 43.835938 215.03125 43.96875 215.402344 44.238281 C 215.773438 44.507812 216.046875 44.898438 216.226562 45.410156 Z M 216.226562 45.410156 "/>
<path style=" stroke:none;fill-rule:nonzero;fill:rgb(0%,0%,0%);fill-opacity:1;" d="M 229.214844 45.410156 C 229.515625 44.871094 229.871094 44.472656 230.289062 44.21875 C 230.707031 43.964844 231.195312 43.835938 231.761719 43.835938 C 232.519531 43.835938 233.105469 44.101562 233.519531 44.632812 C 233.929688 45.164062 234.136719 45.917969 234.136719 46.898438 L 234.136719 51.300781 L 232.933594 51.300781 L 232.933594 46.941406 C 232.933594 46.242188 232.808594 45.722656 232.558594 45.386719 C 232.3125 45.046875 231.9375 44.878906 231.429688 44.878906 C 230.808594 44.878906 230.316406 45.082031 229.957031 45.496094 C 229.597656 45.90625 229.417969 46.46875 229.417969 47.179688 L 229.417969 51.300781 L 228.210938 51.300781 L 228.210938 46.941406 C 228.210938 46.238281 228.089844 45.71875 227.839844 45.382812 C 227.59375 45.046875 227.210938 44.878906 226.695312 44.878906 C 226.082031 44.878906 225.597656 45.085938 225.234375 45.496094 C 224.875 45.910156 224.695312 46.472656 224.695312 47.179688 L 224.695312 51.300781 L 223.492188 51.300781 L 223.492188 44.011719 L 224.695312 44.011719 L 224.695312 45.144531 C 224.96875 44.695312 225.296875 44.367188 225.679688 44.152344 C 226.0625 43.941406 226.515625 43.835938 227.039062 43.835938 C 227.570312 43.835938 228.019531 43.96875 228.390625 44.238281 C 228.761719 44.507812 229.035156 44.898438 229.214844 45.410156 Z M 229.214844 45.410156 "/>
<path style=" stroke:none;fill-rule:nonzero;fill:rgb(0%,0%,0%);fill-opacity:1;" d="M 239.839844 47.636719 C 238.871094 47.636719 238.199219 47.746094 237.828125 47.96875 C 237.453125 48.191406 237.265625 48.566406 237.265625 49.101562 C 237.265625 49.527344 237.40625 49.863281 237.6875 50.113281 C 237.96875 50.363281 238.347656 50.488281 238.828125 50.488281 C 239.496094 50.488281 240.027344 50.253906 240.429688 49.78125 C 240.832031 49.308594 241.03125 48.683594 241.03125 47.902344 L 241.03125 47.636719 Z M 242.230469 47.140625 L 242.230469 51.300781 L 241.03125 51.300781 L 241.03125 50.195312 C 240.757812 50.636719 240.417969 50.964844 240.007812 51.175781 C 239.601562 51.386719 239.101562 51.492188 238.511719 51.492188 C 237.765625 51.492188 237.171875 51.28125 236.730469 50.863281 C 236.289062 50.441406 236.070312 49.882812 236.070312 49.179688 C 236.070312 48.359375 236.34375 47.742188 236.890625 47.324219 C 237.441406 46.910156 238.261719 46.699219 239.351562 46.699219 L 241.03125 46.699219 L 241.03125 46.582031 C 241.03125 46.03125 240.851562 45.601562 240.488281 45.300781 C 240.125 45 239.617188 44.851562 238.960938 44.851562 C 238.542969 44.851562 238.136719 44.898438 237.742188 45 C 237.347656 45.101562 236.96875 45.25 236.605469 45.449219 L 236.605469 44.339844 C 237.042969 44.171875 237.46875 44.046875 237.878906 43.960938 C 238.292969 43.878906 238.691406 43.835938 239.082031 43.835938 C 240.140625 43.835938 240.925781 44.109375 241.449219 44.65625 C 241.96875 45.203125 242.230469 46.03125 242.230469 47.140625 Z M 242.230469 47.140625 "/>
<path style=" stroke:none;fill-rule:nonzero;fill:rgb(0%,0%,0%);fill-opacity:1;" d="M 244.851562 45.246094 L 253.199219 45.246094 L 253.199219 46.339844 L 244.851562 46.339844 Z M 244.851562 47.902344 L 253.199219 47.902344 L 253.199219 49.011719 L 244.851562 49.011719 Z M 244.851562 47.902344 "/>
<path style=" stroke:none;fill-rule:nonzero;fill:rgb(0%,0%,0%);fill-opacity:1;" d="M 256.265625 50.195312 L 258.414062 50.195312 L 258.414062 42.777344 L 256.074219 43.246094 L 256.074219 42.050781 L 258.402344 41.582031 L 259.714844 41.582031 L 259.714844 50.195312 L 261.863281 50.195312 L 261.863281 51.300781 L 256.265625 51.300781 Z M 256.265625 50.195312 "/>
<path style=" stroke:none;fill-rule:nonzero;fill:rgb(0%,0%,0%);fill-opacity:1;" d="M 264.519531 49.648438 L 265.894531 49.648438 L 265.894531 51.300781 L 264.519531 51.300781 Z M 264.519531 49.648438 "/>
<path style=" stroke:none;fill-rule:nonzero;fill:rgb(0%,0%,0%);fill-opacity:1;" d="M 271.570312 42.449219 C 270.894531 42.449219 270.386719 42.78125 270.042969 43.449219 C 269.703125 44.113281 269.53125 45.113281 269.53125 46.453125 C 269.53125 47.785156 269.703125 48.785156 270.042969 49.449219 C 270.386719 50.117188 270.894531 50.449219 271.570312 50.449219 C 272.253906 50.449219 272.761719 50.117188 273.105469 49.449219 C 273.445312 48.785156 273.617188 47.785156 273.617188 46.453125 C 273.617188 45.113281 273.445312 44.113281 273.105469 43.449219 C 272.761719 42.78125 272.253906 42.449219 271.570312 42.449219 Z M 271.570312 41.40625 C 272.660156 41.40625 273.492188 41.835938 274.066406 42.699219 C 274.644531 43.5625 274.929688 44.8125 274.929688 46.453125 C 274.929688 48.089844 274.644531 49.335938 274.066406 50.199219 C 273.492188 51.0625 272.660156 51.492188 271.570312 51.492188 C 270.480469 51.492188 269.648438 51.0625 269.074219 50.199219 C 268.5 49.335938 268.210938 48.089844 268.210938 46.453125 C 268.210938 44.8125 268.5 43.5625 269.074219 42.699219 C 269.648438 41.835938 270.480469 41.40625 271.570312 41.40625 Z M 271.570312 41.40625 "/>
<path style="fill:none;stroke-width:1.5;stroke-linecap:butt;stroke-linejoin:round;stroke:rgb(17.254902%,62.7451%,17.254902%);stroke-opacity:1;stroke-dasharray:9.6,2.4,1.5,2.4;stroke-miterlimit:4;" d="M 116.493164 49.655273 L 136.494141 49.655273 " transform="matrix(1.333333,0,0,1.333333,0,0)"/>
<path style=" stroke:none;fill-rule:nonzero;fill:rgb(0%,0%,0%);fill-opacity:1;" d="M 198.710938 67.140625 C 198.710938 66.273438 198.535156 65.601562 198.175781 65.125 C 197.816406 64.648438 197.316406 64.410156 196.667969 64.410156 C 196.027344 64.410156 195.527344 64.648438 195.167969 65.125 C 194.808594 65.601562 194.632812 66.273438 194.632812 67.140625 C 194.632812 68.003906 194.808594 68.675781 195.167969 69.152344 C 195.527344 69.632812 196.027344 69.871094 196.667969 69.871094 C 197.316406 69.871094 197.816406 69.632812 198.175781 69.152344 C 198.535156 68.675781 198.710938 68.003906 198.710938 67.140625 Z M 199.910156 69.96875 C 199.910156 71.210938 199.632812 72.132812 199.082031 72.738281 C 198.535156 73.34375 197.691406 73.644531 196.550781 73.644531 C 196.132812 73.644531 195.734375 73.613281 195.359375 73.550781 C 194.988281 73.488281 194.625 73.394531 194.273438 73.261719 L 194.273438 72.097656 C 194.625 72.289062 194.972656 72.429688 195.316406 72.519531 C 195.65625 72.609375 196.007812 72.65625 196.363281 72.65625 C 197.148438 72.65625 197.738281 72.453125 198.128906 72.042969 C 198.515625 71.632812 198.710938 71.011719 198.710938 70.183594 L 198.710938 69.589844 C 198.464844 70.019531 198.148438 70.339844 197.761719 70.554688 C 197.375 70.765625 196.914062 70.871094 196.375 70.871094 C 195.480469 70.871094 194.761719 70.53125 194.214844 69.851562 C 193.667969 69.171875 193.394531 68.265625 193.394531 67.140625 C 193.394531 66.015625 193.667969 65.109375 194.214844 64.429688 C 194.761719 63.746094 195.480469 63.40625 196.375 63.40625 C 196.914062 63.40625 197.375 63.511719 197.761719 63.726562 C 198.148438 63.9375 198.464844 64.257812 198.710938 64.6875 L 198.710938 63.582031 L 199.910156 63.582031 Z M 199.910156 69.96875 "/>
<path style=" stroke:none;fill-rule:nonzero;fill:rgb(0%,0%,0%);fill-opacity:1;" d="M 205.691406 67.207031 C 204.726562 67.207031 204.054688 67.320312 203.679688 67.539062 C 203.304688 67.761719 203.121094 68.136719 203.121094 68.671875 C 203.121094 69.097656 203.261719 69.433594 203.539062 69.683594 C 203.820312 69.933594 204.203125 70.058594 204.683594 70.058594 C 205.347656 70.058594 205.882812 69.824219 206.28125 69.351562 C 206.683594 68.882812 206.882812 68.253906 206.882812 67.476562 L 206.882812 67.207031 Z M 208.082031 66.710938 L 208.082031 70.871094 L 206.882812 70.871094 L 206.882812 69.765625 C 206.609375 70.207031 206.269531 70.535156 205.863281 70.746094 C 205.453125 70.957031 204.953125 71.0625 204.363281 71.0625 C 203.617188 71.0625 203.023438 70.851562 202.582031 70.433594 C 202.140625 70.015625 201.921875 69.453125 201.921875 68.75 C 201.921875 67.929688 202.195312 67.3125 202.746094 66.894531 C 203.292969 66.480469 204.113281 66.269531 205.203125 66.269531 L 206.882812 66.269531 L 206.882812 66.152344 C 206.882812 65.601562 206.703125 65.175781 206.339844 64.871094 C 205.976562 64.570312 205.46875 64.421875 204.8125 64.421875 C 204.398438 64.421875 203.992188 64.472656 203.59375 64.570312 C 203.199219 64.671875 202.820312 64.820312 202.457031 65.019531 L 202.457031 63.914062 C 202.894531 63.742188 203.320312 63.617188 203.730469 63.535156 C 204.144531 63.449219 204.546875 63.40625 204.9375 63.40625 C 205.992188 63.40625 206.78125 63.679688 207.300781 64.226562 C 207.820312 64.773438 208.082031 65.601562 208.082031 66.710938 Z M 208.082031 66.710938 "/>
<path style=" stroke:none;fill-rule:nonzero;fill:rgb(0%,0%,0%);fill-opacity:1;" d="M 216.226562 64.980469 C 216.527344 64.441406 216.882812 64.046875 217.300781 63.789062 C 217.71875 63.535156 218.207031 63.40625 218.773438 63.40625 C 219.53125 63.40625 220.117188 63.671875 220.53125 64.203125 C 220.941406 64.734375 221.148438 65.492188 221.148438 66.472656 L 221.148438 70.871094 L 219.945312 70.871094 L 219.945312 66.511719 C 219.945312 65.8125 219.820312 65.292969 219.570312 64.957031 C 219.324219 64.617188 218.949219 64.449219 218.441406 64.449219 C 217.820312 64.449219 217.328125 64.652344 216.96875 65.066406 C 216.609375 65.476562 216.429688 66.039062 216.429688 66.753906 L 216.429688 70.871094 L 215.222656 70.871094 L 215.222656 66.511719 C 215.222656 65.808594 215.101562 65.289062 214.851562 64.953125 C 214.605469 64.617188 214.222656 64.449219 213.707031 64.449219 C 213.09375 64.449219 212.609375 64.65625 212.246094 65.070312 C 211.886719 65.484375 211.707031 66.042969 211.707031 66.753906 L 211.707031 70.871094 L 210.503906 70.871094 L 210.503906 63.582031 L 211.707031 63.582031 L 211.707031 64.714844 C 211.980469 64.265625 212.308594 63.9375 212.691406 63.726562 C 213.074219 63.511719 213.527344 63.40625 214.050781 63.40625 C 214.582031 63.40625 215.03125 63.539062 215.402344 63.808594 C 215.773438 64.078125 216.046875 64.46875 216.226562 64.980469 Z M 216.226562 64.980469 "/>
<path style=" stroke:none;fill-rule:nonzero;fill:rgb(0%,0%,0%);fill-opacity:1;" d="M 229.214844 64.980469 C 229.515625 64.441406 229.871094 64.046875 230.289062 63.789062 C 230.707031 63.535156 231.195312 63.40625 231.761719 63.40625 C 232.519531 63.40625 233.105469 63.671875 233.519531 64.203125 C 233.929688 64.734375 234.136719 65.492188 234.136719 66.472656 L 234.136719 70.871094 L 232.933594 70.871094 L 232.933594 66.511719 C 232.933594 65.8125 232.808594 65.292969 232.558594 64.957031 C 232.3125 64.617188 231.9375 64.449219 231.429688 64.449219 C 230.808594 64.449219 230.316406 64.652344 229.957031 65.066406 C 229.597656 65.476562 229.417969 66.039062 229.417969 66.753906 L 229.417969 70.871094 L 228.210938 70.871094 L 228.210938 66.511719 C 228.210938 65.808594 228.089844 65.289062 227.839844 64.953125 C 227.59375 64.617188 227.210938 64.449219 226.695312 64.449219 C 226.082031 64.449219 225.597656 64.65625 225.234375 65.070312 C 224.875 65.484375 224.695312 66.042969 224.695312 66.753906 L 224.695312 70.871094 L 223.492188 70.871094 L 223.492188 63.582031 L 224.695312 63.582031 L 224.695312 64.714844 C 224.96875 64.265625 225.296875 63.9375 225.679688 63.726562 C 226.0625 63.511719 226.515625 63.40625 227.039062 63.40625 C 227.570312 63.40625 228.019531 63.539062 228.390625 63.808594 C 228.761719 64.078125 229.035156 64.46875 229.214844 64.980469 Z M 229.214844 64.980469 "/>
<path style=" stroke:none;fill-rule:nonzero;fill:rgb(0%,0%,0%);fill-opacity:1;" d="M 239.839844 67.207031 C 238.871094 67.207031 238.199219 67.320312 237.828125 67.539062 C 237.453125 67.761719 237.265625 68.136719 237.265625 68.671875 C 237.265625 69.097656 237.40625 69.433594 237.6875 69.683594 C 237.96875 69.933594 238.347656 70.058594 238.828125 70.058594 C 239.496094 70.058594 240.027344 69.824219 240.429688 69.351562 C 240.832031 68.882812 241.03125 68.253906 241.03125 67.476562 L 241.03125 67.207031 Z M 242.230469 66.710938 L 242.230469 70.871094 L 241.03125 70.871094 L 241.03125 69.765625 C 240.757812 70.207031 240.417969 70.535156 240.007812 70.746094 C 239.601562 70.957031 239.101562 71.0625 238.511719 71.0625 C 237.765625 71.0625 237.171875 70.851562 236.730469 70.433594 C 236.289062 70.015625 236.070312 69.453125 236.070312 68.75 C 236.070312 67.929688 236.34375 67.3125 236.890625 66.894531 C 237.441406 66.480469 238.261719 66.269531 239.351562 66.269531 L 241.03125 66.269531 L 241.03125 66.152344 C 241.03125 65.601562 240.851562 65.175781 240.488281 64.871094 C 240.125 64.570312 239.617188 64.421875 238.960938 64.421875 C 238.542969 64.421875 238.136719 64.472656 237.742188 64.570312 C 237.347656 64.671875 236.96875 64.820312 236.605469 65.019531 L 236.605469 63.914062 C 237.042969 63.742188 237.46875 63.617188 237.878906 63.535156 C 238.292969 63.449219 238.691406 63.40625 239.082031 63.40625 C 240.140625 63.40625 240.925781 63.679688 241.449219 64.226562 C 241.96875 64.773438 242.230469 65.601562 242.230469 66.710938 Z M 242.230469 66.710938 "/>
<path style=" stroke:none;fill-rule:nonzero;fill:rgb(0%,0%,0%);fill-opacity:1;" d="M 244.851562 64.820312 L 253.199219 64.820312 L 253.199219 65.914062 L 244.851562 65.914062 Z M 244.851562 67.476562 L 253.199219 67.476562 L 253.199219 68.582031 L 244.851562 68.582031 Z M 244.851562 67.476562 "/>
<path style=" stroke:none;fill-rule:nonzero;fill:rgb(0%,0%,0%);fill-opacity:1;" d="M 256.050781 61.152344 L 261.214844 61.152344 L 261.214844 62.261719 L 257.253906 62.261719 L 257.253906 64.640625 C 257.445312 64.578125 257.636719 64.527344 257.824219 64.496094 C 258.019531 64.464844 258.210938 64.449219 258.402344 64.449219 C 259.484375 64.449219 260.34375 64.746094 260.976562 65.339844 C 261.613281 65.933594 261.929688 66.738281 261.929688 67.753906 C 261.929688 68.800781 261.605469 69.613281 260.953125 70.195312 C 260.300781 70.773438 259.382812 71.0625 258.199219 71.0625 C 257.789062 71.0625 257.375 71.027344 256.949219 70.957031 C 256.527344 70.890625 256.09375 70.785156 255.640625 70.644531 L 255.640625 69.324219 C 256.03125 69.535156 256.433594 69.695312 256.851562 69.796875 C 257.269531 69.902344 257.707031 69.953125 258.171875 69.953125 C 258.921875 69.953125 259.519531 69.757812 259.957031 69.363281 C 260.394531 68.96875 260.613281 68.433594 260.613281 67.753906 C 260.613281 67.078125 260.394531 66.542969 259.957031 66.148438 C 259.519531 65.753906 258.921875 65.554688 258.171875 65.554688 C 257.820312 65.554688 257.46875 65.59375 257.121094 65.671875 C 256.769531 65.75 256.414062 65.871094 256.050781 66.035156 Z M 256.050781 61.152344 "/>
<path style=" stroke:none;fill-rule:nonzero;fill:rgb(0%,0%,0%);fill-opacity:1;" d="M 264.519531 69.21875 L 265.894531 69.21875 L 265.894531 70.871094 L 264.519531 70.871094 Z M 264.519531 69.21875 "/>
<path style=" stroke:none;fill-rule:nonzero;fill:rgb(0%,0%,0%);fill-opacity:1;" d="M 271.570312 62.019531 C 270.894531 62.019531 270.386719 62.351562 270.042969 63.019531 C 269.703125 63.683594 269.53125 64.683594 269.53125 66.023438 C 269.53125 67.355469 269.703125 68.355469 270.042969 69.019531 C 270.386719 69.6875 270.894531 70.019531 271.570312 70.019531 C 272.253906 70.019531 272.761719 69.6875 273.105469 69.019531 C 273.445312 68.355469 273.617188 67.355469 273.617188 66.023438 C 273.617188 64.683594 273.445312 63.683594 273.105469 63.019531 C 272.761719 62.351562 272.253906 62.019531 271.570312 62.019531 Z M 271.570312 60.976562 C 272.660156 60.976562 273.492188 61.410156 274.066406 62.269531 C 274.644531 63.132812 274.929688 64.382812 274.929688 66.023438 C 274.929688 67.660156 274.644531 68.910156 274.066406 69.769531 C 273.492188 70.632812 272.660156 71.0625 271.570312 71.0625 C 270.480469 71.0625 269.648438 70.632812 269.074219 69.769531 C 268.5 68.910156 268.210938 67.660156 268.210938 66.023438 C 268.210938 64.382812 268.5 63.132812 269.074219 62.269531 C 269.648438 61.410156 270.480469 60.976562 271.570312 60.976562 Z M 271.570312 60.976562 "/>
</g>
</svg>
