<?xml version="1.0" encoding="UTF-8"?>
<svg xmlns="http://www.w3.org/2000/svg" xmlns:xlink="http://www.w3.org/1999/xlink" width="328.379171" height="245.8974" viewBox="0 0 328.379171 245.8974" version="1.1">
<defs>
<clipPath id="clip1">
  <path d="M 54.136719 14.621094 L 55 14.621094 L 55 195.824219 L 54.136719 195.824219 Z M 54.136719 14.621094 "/>
</clipPath>
<clipPath id="clip2">
  <path d="M 118 14.621094 L 120 14.621094 L 120 195.824219 L 118 195.824219 Z M 118 14.621094 "/>
</clipPath>
<clipPath id="clip3">
  <path d="M 183 14.621094 L 186 14.621094 L 186 195.824219 L 183 195.824219 Z M 183 14.621094 "/>
</clipPath>
<clipPath id="clip4">
  <path d="M 248 14.621094 L 251 14.621094 L 251 195.824219 L 248 195.824219 Z M 248 14.621094 "/>
</clipPath>
<clipPath id="clip5">
  <path d="M 313 14.621094 L 314.539062 14.621094 L 314.539062 195.824219 L 313 195.824219 Z M 313 14.621094 "/>
</clipPath>
<clipPath id="clip6">
  <path d="M 54.136719 151 L 314.539062 151 L 314.539062 154 L 54.136719 154 Z M 54.136719 151 "/>
</clipPath>
<clipPath id="clip7">
  <path d="M 54.136719 105 L 314.539062 105 L 314.539062 108 L 54.136719 108 Z M 54.136719 105 "/>
</clipPath>
<clipPath id="clip8">
  <path d="M 54.136719 59 L 314.539062 59 L 314.539062 62 L 54.136719 62 Z M 54.136719 59 "/>
</clipPath>
<clipPath id="clip9">
  <path d="M 54.136719 14.621094 L 314.539062 14.621094 L 314.539062 16 L 54.136719 16 Z M 54.136719 14.621094 "/>
</clipPath>
<clipPath id="clip10">
  <path d="M 54.136719 21 L 314.539062 21 L 314.539062 189 L 54.136719 189 Z M 54.136719 21 "/>
</clipPath>
</defs>
<g id="surface1">
<path style=" stroke:none;fill-rule:nonzero;fill:rgb(100%,100%,100%);fill-opacity:1;" d="M 54.136719 195.824219 L 314.539062 195.824219 L 314.539062 14.621094 L 54.136719 14.621094 Z M 54.136719 195.824219 "/>
<g clip-path="url(#clip1)" clip-rule="nonzero">
<path style="fill:none;stroke-width:0.8;stroke-linecap:square;stroke-linejoin:round;stroke:rgb(69.01961%,69.01961%,69.01961%);stroke-opacity:1;stroke-miterlimit:4;" d="M 40.602539 146.868164 L 40.602539 10.96582 " transform="matrix(1.333333,0,0,1.333333,0,0)"/>
</g>
<path style="fill:none;stroke-width:0.8;stroke-linecap:butt;stroke-linejoin:round;stroke:rgb(0%,0%,0%);stroke-opacity:1;stroke-miterlimit:4;" d="M -0.000587463 0.00135803 L -0.000587463 3.499405 " transform="matrix(1.333333,0,0,1.333333,54.137502,195.822408)"/>
<path style=" stroke:none;fill-rule:nonzero;fill:rgb(0%,0%,0%);fill-opacity:1;" d="M 51.550781 214.179688 L 53.699219 214.179688 L 53.699219 206.765625 L 51.359375 207.234375 L 51.359375 206.035156 L 53.683594 205.566406 L 55 205.566406 L 55 214.179688 L 57.148438 214.179688 L 57.148438 215.285156 L 51.550781 215.285156 Z M 51.550781 214.179688 "/>
<g clip-path="url(#clip2)" clip-rule="nonzero">
<path style="fill:none;stroke-width:0.8;stroke-linecap:square;stroke-linejoin:round;stroke:rgb(69.01961%,69.01961%,69.01961%);stroke-opacity:1;stroke-miterlimit:4;" d="M 89.428711 146.868164 L 89.428711 10.96582 " transform="matrix(1.333333,0,0,1.333333,0,0)"/>
</g>
<path style="fill:none;stroke-width:0.8;stroke-linecap:butt;stroke-linejoin:round;stroke:rgb(0%,0%,0%);stroke-opacity:1;stroke-miterlimit:4;" d="M 0.000587463 0.00135803 L 0.000587463 3.499405 " transform="matrix(1.333333,0,0,1.333333,119.237498,195.822408)"/>
<path style=" stroke:none;fill-rule:nonzero;fill:rgb(0%,0%,0%);fill-opacity:1;" d="M 117.554688 214.179688 L 122.144531 214.179688 L 122.144531 215.285156 L 115.972656 215.285156 L 115.972656 214.179688 C 116.472656 213.664062 117.152344 212.972656 118.011719 212.101562 C 118.875 211.230469 119.417969 210.667969 119.636719 210.417969 C 120.058594 209.945312 120.351562 209.542969 120.519531 209.214844 C 120.6875 208.886719 120.769531 208.566406 120.769531 208.25 C 120.769531 207.734375 120.589844 207.3125 120.226562 206.988281 C 119.863281 206.660156 119.390625 206.496094 118.808594 206.496094 C 118.398438 206.496094 117.960938 206.570312 117.503906 206.710938 C 117.046875 206.855469 116.558594 207.074219 116.039062 207.363281 L 116.039062 206.035156 C 116.566406 205.824219 117.0625 205.660156 117.519531 205.554688 C 117.980469 205.445312 118.402344 205.390625 118.785156 205.390625 C 119.792969 205.390625 120.59375 205.644531 121.195312 206.148438 C 121.792969 206.648438 122.089844 207.324219 122.089844 208.164062 C 122.089844 208.5625 122.015625 208.941406 121.867188 209.300781 C 121.71875 209.660156 121.445312 210.078125 121.050781 210.566406 C 120.941406 210.691406 120.597656 211.054688 120.015625 211.65625 C 119.433594 212.257812 118.613281 213.101562 117.554688 214.179688 Z M 117.554688 214.179688 "/>
<g clip-path="url(#clip3)" clip-rule="nonzero">
<path style="fill:none;stroke-width:0.8;stroke-linecap:square;stroke-linejoin:round;stroke:rgb(69.01961%,69.01961%,69.01961%);stroke-opacity:1;stroke-miterlimit:4;" d="M 138.251953 146.868164 L 138.251953 10.96582 " transform="matrix(1.333333,0,0,1.333333,0,0)"/>
</g>
<path style="fill:none;stroke-width:0.8;stroke-linecap:butt;stroke-linejoin:round;stroke:rgb(0%,0%,0%);stroke-opacity:1;stroke-miterlimit:4;" d="M -0.00117493 0.00135803 L -0.00117493 3.499405 " transform="matrix(1.333333,0,0,1.333333,184.337504,195.822408)"/>
<path style=" stroke:none;fill-rule:nonzero;fill:rgb(0%,0%,0%);fill-opacity:1;" d="M 185.507812 210.046875 C 186.136719 210.179688 186.625 210.460938 186.980469 210.886719 C 187.332031 211.3125 187.511719 211.835938 187.511719 212.460938 C 187.511719 213.421875 187.179688 214.164062 186.519531 214.6875 C 185.859375 215.214844 184.921875 215.476562 183.707031 215.476562 C 183.300781 215.476562 182.882812 215.4375 182.449219 215.355469 C 182.019531 215.273438 181.570312 215.15625 181.113281 214.992188 L 181.113281 213.722656 C 181.476562 213.9375 181.875 214.097656 182.308594 214.207031 C 182.742188 214.3125 183.195312 214.367188 183.671875 214.367188 C 184.496094 214.367188 185.121094 214.207031 185.554688 213.878906 C 185.984375 213.554688 186.203125 213.082031 186.203125 212.460938 C 186.203125 211.886719 186 211.441406 185.601562 211.117188 C 185.199219 210.792969 184.640625 210.632812 183.925781 210.632812 L 182.792969 210.632812 L 182.792969 209.550781 L 183.976562 209.550781 C 184.621094 209.550781 185.117188 209.421875 185.460938 209.164062 C 185.804688 208.90625 185.976562 208.535156 185.976562 208.046875 C 185.976562 207.546875 185.796875 207.167969 185.445312 206.898438 C 185.089844 206.632812 184.585938 206.496094 183.925781 206.496094 C 183.5625 206.496094 183.175781 206.535156 182.765625 206.617188 C 182.351562 206.695312 181.898438 206.816406 181.402344 206.980469 L 181.402344 205.808594 C 181.902344 205.667969 182.371094 205.566406 182.808594 205.496094 C 183.246094 205.425781 183.65625 205.390625 184.042969 205.390625 C 185.039062 205.390625 185.828125 205.617188 186.410156 206.074219 C 186.992188 206.523438 187.285156 207.136719 187.285156 207.910156 C 187.285156 208.449219 187.128906 208.902344 186.820312 209.273438 C 186.511719 209.644531 186.074219 209.902344 185.507812 210.046875 Z M 185.507812 210.046875 "/>
<g clip-path="url(#clip4)" clip-rule="nonzero">
<path style="fill:none;stroke-width:0.8;stroke-linecap:square;stroke-linejoin:round;stroke:rgb(69.01961%,69.01961%,69.01961%);stroke-opacity:1;stroke-miterlimit:4;" d="M 187.078125 146.868164 L 187.078125 10.96582 " transform="matrix(1.333333,0,0,1.333333,0,0)"/>
</g>
<path style="fill:none;stroke-width:0.8;stroke-linecap:butt;stroke-linejoin:round;stroke:rgb(0%,0%,0%);stroke-opacity:1;stroke-miterlimit:4;" d="M 0 0.00135803 L 0 3.499405 " transform="matrix(1.333333,0,0,1.333333,249.4375,195.822408)"/>
<path style=" stroke:none;fill-rule:nonzero;fill:rgb(0%,0%,0%);fill-opacity:1;" d="M 250.234375 206.710938 L 246.914062 211.902344 L 250.234375 211.902344 Z M 249.890625 205.566406 L 251.542969 205.566406 L 251.542969 211.902344 L 252.929688 211.902344 L 252.929688 212.996094 L 251.542969 212.996094 L 251.542969 215.285156 L 250.234375 215.285156 L 250.234375 212.996094 L 245.847656 212.996094 L 245.847656 211.726562 Z M 249.890625 205.566406 "/>
<g clip-path="url(#clip5)" clip-rule="nonzero">
<path style="fill:none;stroke-width:0.8;stroke-linecap:square;stroke-linejoin:round;stroke:rgb(69.01961%,69.01961%,69.01961%);stroke-opacity:1;stroke-miterlimit:4;" d="M 235.904297 146.868164 L 235.904297 10.96582 " transform="matrix(1.333333,0,0,1.333333,0,0)"/>
</g>
<path style="fill:none;stroke-width:0.8;stroke-linecap:butt;stroke-linejoin:round;stroke:rgb(0%,0%,0%);stroke-opacity:1;stroke-miterlimit:4;" d="M 0.00117493 0.00135803 L 0.00117493 3.499405 " transform="matrix(1.333333,0,0,1.333333,314.537496,195.822408)"/>
<path style=" stroke:none;fill-rule:nonzero;fill:rgb(0%,0%,0%);fill-opacity:1;" d="M 311.734375 205.566406 L 316.898438 205.566406 L 316.898438 206.675781 L 312.941406 206.675781 L 312.941406 209.054688 C 313.128906 208.992188 313.320312 208.941406 313.511719 208.910156 C 313.703125 208.878906 313.894531 208.863281 314.085938 208.863281 C 315.171875 208.863281 316.027344 209.160156 316.664062 209.753906 C 317.296875 210.347656 317.613281 211.152344 317.613281 212.167969 C 317.613281 213.214844 317.289062 214.027344 316.636719 214.609375 C 315.984375 215.1875 315.066406 215.476562 313.882812 215.476562 C 313.476562 215.476562 313.058594 215.441406 312.636719 215.371094 C 312.214844 215.304688 311.777344 215.199219 311.324219 215.058594 L 311.324219 213.738281 C 311.714844 213.949219 312.117188 214.109375 312.535156 214.210938 C 312.953125 214.316406 313.390625 214.367188 313.855469 214.367188 C 314.609375 214.367188 315.203125 214.171875 315.640625 213.777344 C 316.078125 213.382812 316.296875 212.847656 316.296875 212.167969 C 316.296875 211.492188 316.078125 210.957031 315.640625 210.5625 C 315.203125 210.167969 314.609375 209.96875 313.855469 209.96875 C 313.503906 209.96875 313.152344 210.007812 312.804688 210.085938 C 312.457031 210.164062 312.097656 210.285156 311.734375 210.449219 Z M 311.734375 205.566406 "/>
<path style=" stroke:none;fill-rule:nonzero;fill:rgb(0%,0%,0%);fill-opacity:1;" d="M 171.527344 229.578125 L 171.527344 230.164062 L 166.019531 230.164062 C 166.070312 230.988281 166.320312 231.617188 166.765625 232.050781 C 167.210938 232.480469 167.828125 232.699219 168.621094 232.699219 C 169.082031 232.699219 169.527344 232.640625 169.960938 232.527344 C 170.390625 232.417969 170.820312 232.246094 171.246094 232.019531 L 171.246094 233.152344 C 170.816406 233.335938 170.375 233.472656 169.925781 233.570312 C 169.472656 233.667969 169.015625 233.714844 168.550781 233.714844 C 167.386719 233.714844 166.464844 233.375 165.789062 232.699219 C 165.109375 232.023438 164.769531 231.105469 164.769531 229.949219 C 164.769531 228.757812 165.089844 227.808594 165.734375 227.109375 C 166.378906 226.410156 167.25 226.058594 168.34375 226.058594 C 169.324219 226.058594 170.101562 226.375 170.671875 227.003906 C 171.242188 227.636719 171.527344 228.492188 171.527344 229.578125 Z M 170.328125 229.226562 C 170.320312 228.574219 170.136719 228.050781 169.777344 227.660156 C 169.421875 227.269531 168.945312 227.074219 168.355469 227.074219 C 167.6875 227.074219 167.152344 227.261719 166.753906 227.640625 C 166.351562 228.015625 166.121094 228.546875 166.058594 229.234375 Z M 170.328125 229.226562 "/>
<path style=" stroke:none;fill-rule:nonzero;fill:rgb(0%,0%,0%);fill-opacity:1;" d="M 174.652344 232.429688 L 174.652344 236.296875 L 173.445312 236.296875 L 173.445312 226.234375 L 174.652344 226.234375 L 174.652344 227.339844 C 174.902344 226.90625 175.222656 226.585938 175.605469 226.375 C 175.988281 226.164062 176.449219 226.058594 176.980469 226.058594 C 177.867188 226.058594 178.585938 226.410156 179.140625 227.113281 C 179.695312 227.816406 179.972656 228.738281 179.972656 229.886719 C 179.972656 231.03125 179.695312 231.957031 179.140625 232.660156 C 178.585938 233.363281 177.867188 233.714844 176.980469 233.714844 C 176.449219 233.714844 175.988281 233.609375 175.605469 233.398438 C 175.222656 233.1875 174.902344 232.863281 174.652344 232.429688 Z M 178.726562 229.886719 C 178.726562 229.003906 178.546875 228.3125 178.183594 227.8125 C 177.820312 227.3125 177.324219 227.058594 176.691406 227.058594 C 176.054688 227.058594 175.558594 227.3125 175.195312 227.8125 C 174.832031 228.3125 174.652344 229.003906 174.652344 229.886719 C 174.652344 230.765625 174.832031 231.457031 175.195312 231.957031 C 175.558594 232.460938 176.054688 232.710938 176.691406 232.710938 C 177.324219 232.710938 177.820312 232.460938 178.183594 231.957031 C 178.546875 231.457031 178.726562 230.765625 178.726562 229.886719 Z M 178.726562 229.886719 "/>
<path style=" stroke:none;fill-rule:nonzero;fill:rgb(0%,0%,0%);fill-opacity:1;" d="M 184.78125 227.074219 C 184.140625 227.074219 183.632812 227.324219 183.257812 227.824219 C 182.882812 228.324219 182.699219 229.011719 182.699219 229.886719 C 182.699219 230.757812 182.882812 231.445312 183.253906 231.945312 C 183.625 232.445312 184.136719 232.699219 184.78125 232.699219 C 185.421875 232.699219 185.925781 232.445312 186.296875 231.941406 C 186.671875 231.4375 186.859375 230.753906 186.859375 229.886719 C 186.859375 229.019531 186.671875 228.335938 186.296875 227.832031 C 185.925781 227.324219 185.421875 227.074219 184.78125 227.074219 Z M 184.78125 226.058594 C 185.824219 226.058594 186.640625 226.398438 187.234375 227.074219 C 187.832031 227.75 188.128906 228.6875 188.128906 229.886719 C 188.128906 231.078125 187.832031 232.015625 187.234375 232.695312 C 186.640625 233.375 185.824219 233.714844 184.78125 233.714844 C 183.734375 233.714844 182.914062 233.375 182.324219 232.695312 C 181.730469 232.015625 181.433594 231.078125 181.433594 229.886719 C 181.433594 228.6875 181.730469 227.75 182.324219 227.074219 C 182.914062 226.398438 183.734375 226.058594 184.78125 226.058594 Z M 184.78125 226.058594 "/>
<path style=" stroke:none;fill-rule:nonzero;fill:rgb(0%,0%,0%);fill-opacity:1;" d="M 195.363281 226.511719 L 195.363281 227.632812 C 195.023438 227.445312 194.683594 227.304688 194.34375 227.210938 C 194.003906 227.117188 193.660156 227.074219 193.3125 227.074219 C 192.535156 227.074219 191.929688 227.320312 191.5 227.8125 C 191.070312 228.304688 190.855469 228.996094 190.855469 229.886719 C 190.855469 230.773438 191.070312 231.46875 191.5 231.960938 C 191.929688 232.453125 192.535156 232.699219 193.3125 232.699219 C 193.660156 232.699219 194.003906 232.652344 194.34375 232.558594 C 194.683594 232.464844 195.023438 232.324219 195.363281 232.136719 L 195.363281 233.246094 C 195.027344 233.402344 194.679688 233.515625 194.320312 233.59375 C 193.964844 233.675781 193.585938 233.714844 193.179688 233.714844 C 192.082031 233.714844 191.207031 233.367188 190.5625 232.679688 C 189.914062 231.988281 189.59375 231.058594 189.59375 229.886719 C 189.59375 228.695312 189.917969 227.761719 190.570312 227.082031 C 191.226562 226.398438 192.121094 226.058594 193.257812 226.058594 C 193.628906 226.058594 193.988281 226.097656 194.339844 226.171875 C 194.691406 226.246094 195.03125 226.359375 195.363281 226.511719 Z M 195.363281 226.511719 "/>
<path style=" stroke:none;fill-rule:nonzero;fill:rgb(0%,0%,0%);fill-opacity:1;" d="M 203.507812 229.121094 L 203.507812 233.523438 L 202.308594 233.523438 L 202.308594 229.160156 C 202.308594 228.472656 202.175781 227.957031 201.90625 227.613281 C 201.636719 227.269531 201.230469 227.097656 200.695312 227.097656 C 200.046875 227.097656 199.535156 227.304688 199.164062 227.71875 C 198.789062 228.128906 198.601562 228.691406 198.601562 229.402344 L 198.601562 233.523438 L 197.398438 233.523438 L 197.398438 223.394531 L 198.601562 223.394531 L 198.601562 227.367188 C 198.890625 226.925781 199.226562 226.597656 199.617188 226.382812 C 200.003906 226.167969 200.453125 226.058594 200.960938 226.058594 C 201.796875 226.058594 202.433594 226.316406 202.859375 226.835938 C 203.292969 227.351562 203.507812 228.117188 203.507812 229.121094 Z M 203.507812 229.121094 "/>
<g clip-path="url(#clip6)" clip-rule="nonzero">
<path style="fill:none;stroke-width:0.8;stroke-linecap:square;stroke-linejoin:round;stroke:rgb(69.01961%,69.01961%,69.01961%);stroke-opacity:1;stroke-miterlimit:4;" d="M 40.602539 114.380859 L 235.904297 114.380859 " transform="matrix(1.333333,0,0,1.333333,0,0)"/>
</g>
<path style="fill:none;stroke-width:0.8;stroke-linecap:butt;stroke-linejoin:round;stroke:rgb(0%,0%,0%);stroke-opacity:1;stroke-miterlimit:4;" d="M -0.000587463 0.000938416 L -3.498634 0.000938416 " transform="matrix(1.333333,0,0,1.333333,54.137502,152.506561)"/>
<path style=" stroke:none;fill-rule:nonzero;fill:rgb(0%,0%,0%);fill-opacity:1;" d="M 30.394531 156.464844 L 34.984375 156.464844 L 34.984375 157.570312 L 28.816406 157.570312 L 28.816406 156.464844 C 29.3125 155.949219 29.992188 155.257812 30.855469 154.386719 C 31.714844 153.515625 32.257812 152.953125 32.480469 152.703125 C 32.898438 152.230469 33.195312 151.828125 33.359375 151.5 C 33.527344 151.171875 33.613281 150.851562 33.613281 150.535156 C 33.613281 150.019531 33.429688 149.597656 33.070312 149.273438 C 32.707031 148.945312 32.234375 148.78125 31.652344 148.78125 C 31.238281 148.78125 30.804688 148.855469 30.347656 148.996094 C 29.890625 149.140625 29.398438 149.359375 28.878906 149.648438 L 28.878906 148.320312 C 29.410156 148.109375 29.902344 147.945312 30.363281 147.839844 C 30.824219 147.730469 31.246094 147.675781 31.628906 147.675781 C 32.632812 147.675781 33.4375 147.929688 34.035156 148.433594 C 34.632812 148.933594 34.933594 149.609375 34.933594 150.449219 C 34.933594 150.847656 34.859375 151.226562 34.707031 151.585938 C 34.558594 151.945312 34.289062 152.367188 33.890625 152.851562 C 33.785156 152.976562 33.4375 153.339844 32.855469 153.941406 C 32.277344 154.542969 31.457031 155.386719 30.394531 156.464844 Z M 30.394531 156.464844 "/>
<path style=" stroke:none;fill-rule:nonzero;fill:rgb(0%,0%,0%);fill-opacity:1;" d="M 40.558594 148.71875 C 39.882812 148.71875 39.371094 149.050781 39.03125 149.71875 C 38.691406 150.382812 38.519531 151.382812 38.519531 152.722656 C 38.519531 154.054688 38.691406 155.054688 39.03125 155.71875 C 39.371094 156.386719 39.882812 156.71875 40.558594 156.71875 C 41.238281 156.71875 41.75 156.386719 42.089844 155.71875 C 42.433594 155.054688 42.605469 154.054688 42.605469 152.722656 C 42.605469 151.382812 42.433594 150.382812 42.089844 149.71875 C 41.75 149.050781 41.238281 148.71875 40.558594 148.71875 Z M 40.558594 147.675781 C 41.648438 147.675781 42.480469 148.109375 43.054688 148.96875 C 43.632812 149.832031 43.917969 151.082031 43.917969 152.722656 C 43.917969 154.359375 43.632812 155.609375 43.054688 156.46875 C 42.480469 157.332031 41.648438 157.761719 40.558594 157.761719 C 39.46875 157.761719 38.636719 157.332031 38.0625 156.46875 C 37.488281 155.609375 37.199219 154.359375 37.199219 152.722656 C 37.199219 151.082031 37.488281 149.832031 38.0625 148.96875 C 38.636719 148.109375 39.46875 147.675781 40.558594 147.675781 Z M 40.558594 147.675781 "/>
<g clip-path="url(#clip7)" clip-rule="nonzero">
<path style="fill:none;stroke-width:0.8;stroke-linecap:square;stroke-linejoin:round;stroke:rgb(69.01961%,69.01961%,69.01961%);stroke-opacity:1;stroke-miterlimit:4;" d="M 40.602539 79.918945 L 235.904297 79.918945 " transform="matrix(1.333333,0,0,1.333333,0,0)"/>
</g>
<path style="fill:none;stroke-width:0.8;stroke-linecap:butt;stroke-linejoin:round;stroke:rgb(0%,0%,0%);stroke-opacity:1;stroke-miterlimit:4;" d="M -0.000587463 -0.000740051 L -3.498634 -0.000740051 " transform="matrix(1.333333,0,0,1.333333,54.137502,106.55958)"/>
<path style=" stroke:none;fill-rule:nonzero;fill:rgb(0%,0%,0%);fill-opacity:1;" d="M 33.246094 106.382812 C 33.878906 106.519531 34.367188 106.796875 34.722656 107.226562 C 35.074219 107.648438 35.253906 108.175781 35.253906 108.800781 C 35.253906 109.757812 34.921875 110.5 34.261719 111.027344 C 33.601562 111.550781 32.664062 111.816406 31.449219 111.816406 C 31.042969 111.816406 30.625 111.773438 30.191406 111.695312 C 29.757812 111.613281 29.3125 111.492188 28.855469 111.332031 L 28.855469 110.0625 C 29.21875 110.273438 29.617188 110.4375 30.050781 110.542969 C 30.484375 110.652344 30.9375 110.707031 31.414062 110.707031 C 32.234375 110.707031 32.863281 110.542969 33.296875 110.21875 C 33.726562 109.894531 33.945312 109.421875 33.945312 108.800781 C 33.945312 108.226562 33.742188 107.777344 33.339844 107.457031 C 32.941406 107.132812 32.382812 106.972656 31.667969 106.972656 L 30.535156 106.972656 L 30.535156 105.890625 L 31.71875 105.890625 C 32.363281 105.890625 32.859375 105.761719 33.203125 105.503906 C 33.546875 105.242188 33.714844 104.871094 33.714844 104.386719 C 33.714844 103.886719 33.539062 103.503906 33.183594 103.238281 C 32.832031 102.96875 32.328125 102.835938 31.667969 102.835938 C 31.304688 102.835938 30.917969 102.875 30.507812 102.953125 C 30.09375 103.03125 29.640625 103.152344 29.144531 103.316406 L 29.144531 102.144531 C 29.644531 102.007812 30.113281 101.902344 30.550781 101.832031 C 30.984375 101.765625 31.398438 101.730469 31.785156 101.730469 C 32.78125 101.730469 33.570312 101.957031 34.152344 102.410156 C 34.734375 102.863281 35.023438 103.476562 35.023438 104.25 C 35.023438 104.785156 34.871094 105.242188 34.5625 105.613281 C 34.253906 105.984375 33.816406 106.242188 33.246094 106.382812 Z M 33.246094 106.382812 "/>
<path style=" stroke:none;fill-rule:nonzero;fill:rgb(0%,0%,0%);fill-opacity:1;" d="M 40.558594 102.769531 C 39.882812 102.769531 39.371094 103.105469 39.03125 103.769531 C 38.691406 104.4375 38.519531 105.4375 38.519531 106.773438 C 38.519531 108.105469 38.691406 109.105469 39.03125 109.773438 C 39.371094 110.441406 39.882812 110.773438 40.558594 110.773438 C 41.238281 110.773438 41.75 110.441406 42.089844 109.773438 C 42.433594 109.105469 42.605469 108.105469 42.605469 106.773438 C 42.605469 105.4375 42.433594 104.4375 42.089844 103.769531 C 41.75 103.105469 41.238281 102.769531 40.558594 102.769531 Z M 40.558594 101.730469 C 41.648438 101.730469 42.480469 102.160156 43.054688 103.023438 C 43.632812 103.882812 43.917969 105.136719 43.917969 106.773438 C 43.917969 108.410156 43.632812 109.660156 43.054688 110.523438 C 42.480469 111.382812 41.648438 111.816406 40.558594 111.816406 C 39.46875 111.816406 38.636719 111.382812 38.0625 110.523438 C 37.488281 109.660156 37.199219 108.410156 37.199219 106.773438 C 37.199219 105.136719 37.488281 103.882812 38.0625 103.023438 C 38.636719 102.160156 39.46875 101.730469 40.558594 101.730469 Z M 40.558594 101.730469 "/>
<g clip-path="url(#clip8)" clip-rule="nonzero">
<path style="fill:none;stroke-width:0.8;stroke-linecap:square;stroke-linejoin:round;stroke:rgb(69.01961%,69.01961%,69.01961%);stroke-opacity:1;stroke-miterlimit:4;" d="M 40.602539 45.459961 L 235.904297 45.459961 " transform="matrix(1.333333,0,0,1.333333,0,0)"/>
</g>
<path style="fill:none;stroke-width:0.8;stroke-linecap:butt;stroke-linejoin:round;stroke:rgb(0%,0%,0%);stroke-opacity:1;stroke-miterlimit:4;" d="M -0.000587463 0.000507355 L -3.498634 0.000507355 " transform="matrix(1.333333,0,0,1.333333,54.137502,60.612605)"/>
<path style=" stroke:none;fill-rule:nonzero;fill:rgb(0%,0%,0%);fill-opacity:1;" d="M 32.878906 57.101562 L 29.554688 62.292969 L 32.878906 62.292969 Z M 32.53125 55.957031 L 34.183594 55.957031 L 34.183594 62.292969 L 35.574219 62.292969 L 35.574219 63.386719 L 34.183594 63.386719 L 34.183594 65.679688 L 32.878906 65.679688 L 32.878906 63.386719 L 28.488281 63.386719 L 28.488281 62.117188 Z M 32.53125 55.957031 "/>
<path style=" stroke:none;fill-rule:nonzero;fill:rgb(0%,0%,0%);fill-opacity:1;" d="M 40.558594 56.824219 C 39.882812 56.824219 39.371094 57.15625 39.03125 57.824219 C 38.691406 58.488281 38.519531 59.492188 38.519531 60.828125 C 38.519531 62.160156 38.691406 63.160156 39.03125 63.824219 C 39.371094 64.492188 39.882812 64.824219 40.558594 64.824219 C 41.238281 64.824219 41.75 64.492188 42.089844 63.824219 C 42.433594 63.160156 42.605469 62.160156 42.605469 60.828125 C 42.605469 59.492188 42.433594 58.488281 42.089844 57.824219 C 41.75 57.15625 41.238281 56.824219 40.558594 56.824219 Z M 40.558594 55.78125 C 41.648438 55.78125 42.480469 56.214844 43.054688 57.074219 C 43.632812 57.9375 43.917969 59.1875 43.917969 60.828125 C 43.917969 62.464844 43.632812 63.714844 43.054688 64.574219 C 42.480469 65.4375 41.648438 65.867188 40.558594 65.867188 C 39.46875 65.867188 38.636719 65.4375 38.0625 64.574219 C 37.488281 63.714844 37.199219 62.464844 37.199219 60.828125 C 37.199219 59.1875 37.488281 57.9375 38.0625 57.074219 C 38.636719 56.214844 39.46875 55.78125 40.558594 55.78125 Z M 40.558594 55.78125 "/>
<g clip-path="url(#clip9)" clip-rule="nonzero">
<path style="fill:none;stroke-width:0.8;stroke-linecap:square;stroke-linejoin:round;stroke:rgb(69.01961%,69.01961%,69.01961%);stroke-opacity:1;stroke-miterlimit:4;" d="M 40.602539 10.998047 L 235.904297 10.998047 " transform="matrix(1.333333,0,0,1.333333,0,0)"/>
</g>
<path style="fill:none;stroke-width:0.8;stroke-linecap:butt;stroke-linejoin:round;stroke:rgb(0%,0%,0%);stroke-opacity:1;stroke-miterlimit:4;" d="M -0.000587463 -0.00117207 L -3.498634 -0.00117207 " transform="matrix(1.333333,0,0,1.333333,54.137502,14.665625)"/>
<path style=" stroke:none;fill-rule:nonzero;fill:rgb(0%,0%,0%);fill-opacity:1;" d="M 29.277344 10.011719 L 34.441406 10.011719 L 34.441406 11.117188 L 30.480469 11.117188 L 30.480469 13.5 C 30.671875 13.433594 30.863281 13.386719 31.050781 13.355469 C 31.242188 13.320312 31.433594 13.304688 31.628906 13.304688 C 32.710938 13.304688 33.570312 13.601562 34.203125 14.199219 C 34.839844 14.792969 35.15625 15.597656 35.15625 16.613281 C 35.15625 17.660156 34.832031 18.472656 34.179688 19.050781 C 33.527344 19.632812 32.609375 19.921875 31.425781 19.921875 C 31.015625 19.921875 30.601562 19.886719 30.175781 19.816406 C 29.753906 19.746094 29.316406 19.644531 28.867188 19.503906 L 28.867188 18.179688 C 29.257812 18.394531 29.660156 18.550781 30.078125 18.65625 C 30.492188 18.761719 30.933594 18.8125 31.398438 18.8125 C 32.148438 18.8125 32.742188 18.617188 33.179688 18.222656 C 33.621094 17.828125 33.839844 17.289062 33.839844 16.613281 C 33.839844 15.9375 33.621094 15.402344 33.179688 15.007812 C 32.742188 14.609375 32.148438 14.414062 31.398438 14.414062 C 31.046875 14.414062 30.695312 14.453125 30.347656 14.527344 C 29.996094 14.605469 29.640625 14.726562 29.277344 14.894531 Z M 29.277344 10.011719 "/>
<path style=" stroke:none;fill-rule:nonzero;fill:rgb(0%,0%,0%);fill-opacity:1;" d="M 40.558594 10.878906 C 39.882812 10.878906 39.371094 11.210938 39.03125 11.878906 C 38.691406 12.542969 38.519531 13.542969 38.519531 14.882812 C 38.519531 16.214844 38.691406 17.210938 39.03125 17.878906 C 39.371094 18.546875 39.882812 18.878906 40.558594 18.878906 C 41.238281 18.878906 41.75 18.546875 42.089844 17.878906 C 42.433594 17.210938 42.605469 16.214844 42.605469 14.882812 C 42.605469 13.542969 42.433594 12.542969 42.089844 11.878906 C 41.75 11.210938 41.238281 10.878906 40.558594 10.878906 Z M 40.558594 9.835938 C 41.648438 9.835938 42.480469 10.265625 43.054688 11.128906 C 43.632812 11.992188 43.917969 13.242188 43.917969 14.882812 C 43.917969 16.515625 43.632812 17.765625 43.054688 18.628906 C 42.480469 19.492188 41.648438 19.921875 40.558594 19.921875 C 39.46875 19.921875 38.636719 19.492188 38.0625 18.628906 C 37.488281 17.765625 37.199219 16.515625 37.199219 14.882812 C 37.199219 13.242188 37.488281 11.992188 38.0625 11.128906 C 38.636719 10.265625 39.46875 9.835938 40.558594 9.835938 Z M 40.558594 9.835938 "/>
<path style=" stroke:none;fill-rule:nonzero;fill:rgb(0%,0%,0%);fill-opacity:1;" d="M 9.601562 116.84375 L 9.601562 115.644531 L 19.730469 115.644531 L 19.730469 116.84375 Z M 9.601562 116.84375 "/>
<path style=" stroke:none;fill-rule:nonzero;fill:rgb(0%,0%,0%);fill-opacity:1;" d="M 13.277344 110.3125 C 13.277344 110.957031 13.53125 111.464844 14.03125 111.835938 C 14.53125 112.210938 15.21875 112.398438 16.089844 112.398438 C 16.964844 112.398438 17.652344 112.210938 18.152344 111.839844 C 18.652344 111.46875 18.902344 110.960938 18.902344 110.3125 C 18.902344 109.675781 18.652344 109.167969 18.148438 108.796875 C 17.644531 108.421875 16.960938 108.238281 16.089844 108.238281 C 15.226562 108.238281 14.542969 108.421875 14.039062 108.796875 C 13.53125 109.167969 13.277344 109.675781 13.277344 110.3125 Z M 12.265625 110.3125 C 12.265625 109.273438 12.601562 108.453125 13.28125 107.859375 C 13.957031 107.265625 14.894531 106.964844 16.089844 106.964844 C 17.285156 106.964844 18.222656 107.265625 18.902344 107.859375 C 19.582031 108.453125 19.921875 109.273438 19.921875 110.3125 C 19.921875 111.359375 19.582031 112.179688 18.902344 112.773438 C 18.222656 113.363281 17.285156 113.660156 16.089844 113.660156 C 14.894531 113.660156 13.957031 113.363281 13.28125 112.773438 C 12.601562 112.179688 12.265625 111.359375 12.265625 110.3125 Z M 12.265625 110.3125 "/>
<path style=" stroke:none;fill-rule:nonzero;fill:rgb(0%,0%,0%);fill-opacity:1;" d="M 12.652344 100.332031 L 13.789062 100.332031 C 13.613281 100.671875 13.484375 101.023438 13.398438 101.386719 C 13.308594 101.75 13.265625 102.128906 13.265625 102.519531 C 13.265625 103.117188 13.359375 103.5625 13.539062 103.859375 C 13.722656 104.15625 13.996094 104.304688 14.359375 104.304688 C 14.636719 104.304688 14.855469 104.199219 15.015625 103.984375 C 15.171875 103.773438 15.324219 103.34375 15.464844 102.703125 L 15.558594 102.292969 C 15.742188 101.441406 15.996094 100.835938 16.328125 100.480469 C 16.660156 100.121094 17.125 99.941406 17.71875 99.941406 C 18.398438 99.941406 18.933594 100.210938 19.328125 100.746094 C 19.722656 101.28125 19.921875 102.019531 19.921875 102.957031 C 19.921875 103.347656 19.882812 103.753906 19.804688 104.175781 C 19.730469 104.601562 19.617188 105.046875 19.464844 105.515625 L 18.226562 105.515625 C 18.457031 105.070312 18.628906 104.636719 18.746094 104.207031 C 18.859375 103.777344 18.917969 103.351562 18.917969 102.929688 C 18.917969 102.367188 18.820312 101.933594 18.628906 101.628906 C 18.433594 101.324219 18.160156 101.171875 17.808594 101.171875 C 17.484375 101.171875 17.234375 101.28125 17.0625 101.503906 C 16.890625 101.71875 16.722656 102.199219 16.558594 102.945312 L 16.460938 103.359375 C 16.308594 104.101562 16.066406 104.636719 15.742188 104.96875 C 15.421875 105.296875 14.976562 105.460938 14.414062 105.460938 C 13.726562 105.460938 13.195312 105.21875 12.824219 104.734375 C 12.453125 104.246094 12.265625 103.558594 12.265625 102.664062 C 12.265625 102.222656 12.296875 101.804688 12.363281 101.414062 C 12.425781 101.023438 12.523438 100.664062 12.652344 100.332031 Z M 12.652344 100.332031 "/>
<path style=" stroke:none;fill-rule:nonzero;fill:rgb(0%,0%,0%);fill-opacity:1;" d="M 12.652344 93.386719 L 13.789062 93.386719 C 13.613281 93.722656 13.484375 94.074219 13.398438 94.441406 C 13.308594 94.804688 13.265625 95.183594 13.265625 95.574219 C 13.265625 96.167969 13.359375 96.613281 13.539062 96.910156 C 13.722656 97.207031 13.996094 97.359375 14.359375 97.359375 C 14.636719 97.359375 14.855469 97.25 15.015625 97.039062 C 15.171875 96.828125 15.324219 96.398438 15.464844 95.753906 L 15.558594 95.34375 C 15.742188 94.496094 15.996094 93.890625 16.328125 93.53125 C 16.660156 93.175781 17.125 92.996094 17.71875 92.996094 C 18.398438 92.996094 18.933594 93.261719 19.328125 93.800781 C 19.722656 94.335938 19.921875 95.070312 19.921875 96.007812 C 19.921875 96.398438 19.882812 96.808594 19.804688 97.230469 C 19.730469 97.652344 19.617188 98.101562 19.464844 98.566406 L 18.226562 98.566406 C 18.457031 98.125 18.628906 97.6875 18.746094 97.257812 C 18.859375 96.832031 18.917969 96.40625 18.917969 95.984375 C 18.917969 95.417969 18.820312 94.984375 18.628906 94.683594 C 18.433594 94.378906 18.160156 94.226562 17.808594 94.226562 C 17.484375 94.226562 17.234375 94.335938 17.0625 94.554688 C 16.890625 94.773438 16.722656 95.253906 16.558594 95.996094 L 16.460938 96.414062 C 16.308594 97.15625 16.066406 97.691406 15.742188 98.023438 C 15.421875 98.351562 14.976562 98.515625 14.414062 98.515625 C 13.726562 98.515625 13.195312 98.273438 12.824219 97.785156 C 12.453125 97.300781 12.265625 96.609375 12.265625 95.714844 C 12.265625 95.273438 12.296875 94.859375 12.363281 94.46875 C 12.425781 94.078125 12.523438 93.714844 12.652344 93.386719 Z M 12.652344 93.386719 "/>
<g clip-path="url(#clip10)" clip-rule="nonzero">
<path style="fill:none;stroke-width:1.5;stroke-linecap:square;stroke-linejoin:round;stroke:rgb(12.156863%,46.666667%,70.588237%);stroke-opacity:1;stroke-miterlimit:4;" d="M 40.602539 17.144531 L 89.428711 129.46875 L 138.251953 136.719727 L 187.078125 139.104492 L 235.904297 140.689453 " transform="matrix(1.333333,0,0,1.333333,0,0)"/>
</g>
<path style="fill:none;stroke-width:0.8;stroke-linecap:square;stroke-linejoin:miter;stroke:rgb(0%,0%,0%);stroke-opacity:1;stroke-miterlimit:4;" d="M 40.602539 146.868164 L 40.602539 10.96582 " transform="matrix(1.333333,0,0,1.333333,0,0)"/>
<path style="fill:none;stroke-width:0.8;stroke-linecap:square;stroke-linejoin:miter;stroke:rgb(0%,0%,0%);stroke-opacity:1;stroke-miterlimit:4;" d="M 235.904297 146.868164 L 235.904297 10.96582 " transform="matrix(1.333333,0,0,1.333333,0,0)"/>
<path style="fill:none;stroke-width:0.8;stroke-linecap:square;stroke-linejoin:miter;stroke:rgb(0%,0%,0%);stroke-opacity:1;stroke-miterlimit:4;" d="M 40.602539 146.868164 L 235.904297 146.868164 " transform="matrix(1.333333,0,0,1.333333,0,0)"/>
<path style="fill:none;stroke-width:0.8;stroke-linecap:square;stroke-linejoin:miter;stroke:rgb(0%,0%,0%);stroke-opacity:1;stroke-miterlimit:4;" d="M 40.602539 10.96582 L 235.904297 10.96582 " transform="matrix(1.333333,0,0,1.333333,0,0)"/>
</g>
</svg>
