<?xml version="1.0" encoding="UTF-8"?>
<svg xmlns="http://www.w3.org/2000/svg" xmlns:xlink="http://www.w3.org/1999/xlink" width="451.147909" height="240.875" viewBox="0 0 451.147909 240.875" version="1.1">
<defs>
<clipPath id="clip1">
  <path d="M 85 9.601562 L 88 9.601562 L 88 190.800781 L 85 190.800781 Z M 85 9.601562 "/>
</clipPath>
<clipPath id="clip2">
  <path d="M 128 9.601562 L 130 9.601562 L 130 190.800781 L 128 190.800781 Z M 128 9.601562 "/>
</clipPath>
<clipPath id="clip3">
  <path d="M 170 9.601562 L 173 9.601562 L 173 190.800781 L 170 190.800781 Z M 170 9.601562 "/>
</clipPath>
<clipPath id="clip4">
  <path d="M 213 9.601562 L 215 9.601562 L 215 190.800781 L 213 190.800781 Z M 213 9.601562 "/>
</clipPath>
<clipPath id="clip5">
  <path d="M 255 9.601562 L 258 9.601562 L 258 190.800781 L 255 190.800781 Z M 255 9.601562 "/>
</clipPath>
<clipPath id="clip6">
  <path d="M 298 9.601562 L 300 9.601562 L 300 190.800781 L 298 190.800781 Z M 298 9.601562 "/>
</clipPath>
<clipPath id="clip7">
  <path d="M 340 9.601562 L 343 9.601562 L 343 190.800781 L 340 190.800781 Z M 340 9.601562 "/>
</clipPath>
<clipPath id="clip8">
  <path d="M 383 9.601562 L 385 9.601562 L 385 190.800781 L 383 190.800781 Z M 383 9.601562 "/>
</clipPath>
<clipPath id="clip9">
  <path d="M 426 9.601562 L 428 9.601562 L 428 190.800781 L 426 190.800781 Z M 426 9.601562 "/>
</clipPath>
<clipPath id="clip10">
  <path d="M 69.546875 181 L 441.546875 181 L 441.546875 184 L 69.546875 184 Z M 69.546875 181 "/>
</clipPath>
<clipPath id="clip11">
  <path d="M 69.546875 140 L 441.546875 140 L 441.546875 143 L 69.546875 143 Z M 69.546875 140 "/>
</clipPath>
<clipPath id="clip12">
  <path d="M 69.546875 99 L 441.546875 99 L 441.546875 101 L 69.546875 101 Z M 69.546875 99 "/>
</clipPath>
<clipPath id="clip13">
  <path d="M 69.546875 58 L 441.546875 58 L 441.546875 60 L 69.546875 60 Z M 69.546875 58 "/>
</clipPath>
<clipPath id="clip14">
  <path d="M 69.546875 17 L 441.546875 17 L 441.546875 19 L 69.546875 19 Z M 69.546875 17 "/>
</clipPath>
</defs>
<g id="surface1">
<path style=" stroke:none;fill-rule:nonzero;fill:rgb(100%,100%,100%);fill-opacity:1;" d="M 69.546875 190.800781 L 441.546875 190.800781 L 441.546875 9.601562 L 69.546875 9.601562 Z M 69.546875 190.800781 "/>
<g clip-path="url(#clip1)" clip-rule="nonzero">
<path style="fill:none;stroke-width:0.8;stroke-linecap:square;stroke-linejoin:round;stroke:rgb(69.01961%,69.01961%,69.01961%);stroke-opacity:1;stroke-miterlimit:4;" d="M 64.842773 143.100586 L 64.842773 7.201172 " transform="matrix(1.333333,0,0,1.333333,0,0)"/>
</g>
<path style="fill:none;stroke-width:0.8;stroke-linecap:butt;stroke-linejoin:round;stroke:rgb(0%,0%,0%);stroke-opacity:1;stroke-miterlimit:4;" d="M 0.0000152588 0.000579834 L 0.0000152588 3.498627 " transform="matrix(1.333333,0,0,1.333333,86.457011,190.800008)"/>
<path style=" stroke:none;fill-rule:nonzero;fill:rgb(0%,0%,0%);fill-opacity:1;" d="M 78.042969 205.53125 L 86.386719 205.53125 L 86.386719 206.636719 L 78.042969 206.636719 Z M 78.042969 205.53125 "/>
<path style=" stroke:none;fill-rule:nonzero;fill:rgb(0%,0%,0%);fill-opacity:1;" d="M 92.039062 205.648438 C 91.414062 205.648438 90.921875 205.816406 90.5625 206.148438 C 90.207031 206.484375 90.027344 206.945312 90.027344 207.527344 C 90.027344 208.117188 90.207031 208.574219 90.5625 208.910156 C 90.921875 209.246094 91.414062 209.414062 92.039062 209.414062 C 92.664062 209.414062 93.15625 209.246094 93.515625 208.910156 C 93.875 208.570312 94.058594 208.109375 94.058594 207.527344 C 94.058594 206.945312 93.878906 206.484375 93.519531 206.148438 C 93.164062 205.816406 92.667969 205.648438 92.039062 205.648438 Z M 90.722656 205.089844 C 90.160156 204.949219 89.71875 204.6875 89.40625 204.300781 C 89.089844 203.914062 88.933594 203.441406 88.933594 202.886719 C 88.933594 202.109375 89.210938 201.496094 89.761719 201.046875 C 90.316406 200.59375 91.074219 200.367188 92.039062 200.367188 C 93.007812 200.367188 93.765625 200.59375 94.316406 201.046875 C 94.867188 201.496094 95.144531 202.109375 95.144531 202.886719 C 95.144531 203.441406 94.988281 203.914062 94.671875 204.300781 C 94.359375 204.6875 93.921875 204.949219 93.359375 205.089844 C 93.996094 205.238281 94.488281 205.527344 94.839844 205.957031 C 95.195312 206.386719 95.371094 206.910156 95.371094 207.527344 C 95.371094 208.472656 95.085938 209.195312 94.507812 209.699219 C 93.933594 210.203125 93.109375 210.453125 92.039062 210.453125 C 90.96875 210.453125 90.144531 210.203125 89.566406 209.699219 C 88.992188 209.195312 88.703125 208.472656 88.703125 207.527344 C 88.703125 206.910156 88.882812 206.386719 89.238281 205.957031 C 89.59375 205.527344 90.089844 205.238281 90.722656 205.089844 Z M 90.242188 203.011719 C 90.242188 203.515625 90.398438 203.90625 90.714844 204.191406 C 91.027344 204.472656 91.46875 204.613281 92.039062 204.613281 C 92.605469 204.613281 93.046875 204.472656 93.363281 204.191406 C 93.683594 203.90625 93.84375 203.515625 93.84375 203.011719 C 93.84375 202.507812 93.683594 202.117188 93.363281 201.832031 C 93.046875 201.550781 92.605469 201.410156 92.039062 201.410156 C 91.46875 201.410156 91.027344 201.550781 90.714844 201.832031 C 90.398438 202.117188 90.242188 202.507812 90.242188 203.011719 Z M 90.242188 203.011719 "/>
<g clip-path="url(#clip2)" clip-rule="nonzero">
<path style="fill:none;stroke-width:0.8;stroke-linecap:square;stroke-linejoin:round;stroke:rgb(69.01961%,69.01961%,69.01961%);stroke-opacity:1;stroke-miterlimit:4;" d="M 96.74707 143.100586 L 96.74707 7.201172 " transform="matrix(1.333333,0,0,1.333333,0,0)"/>
</g>
<path style="fill:none;stroke-width:0.8;stroke-linecap:butt;stroke-linejoin:round;stroke:rgb(0%,0%,0%);stroke-opacity:1;stroke-miterlimit:4;" d="M 0.000366211 0.000579834 L 0.000366211 3.498627 " transform="matrix(1.333333,0,0,1.333333,128.995605,190.800008)"/>
<path style=" stroke:none;fill-rule:nonzero;fill:rgb(0%,0%,0%);fill-opacity:1;" d="M 120.578125 205.53125 L 128.925781 205.53125 L 128.925781 206.636719 L 120.578125 206.636719 Z M 120.578125 205.53125 "/>
<path style=" stroke:none;fill-rule:nonzero;fill:rgb(0%,0%,0%);fill-opacity:1;" d="M 134.742188 204.882812 C 134.152344 204.882812 133.683594 205.082031 133.335938 205.488281 C 132.992188 205.890625 132.820312 206.441406 132.820312 207.144531 C 132.820312 207.84375 132.992188 208.398438 133.335938 208.804688 C 133.683594 209.210938 134.152344 209.414062 134.742188 209.414062 C 135.332031 209.414062 135.800781 209.210938 136.144531 208.804688 C 136.488281 208.398438 136.660156 207.84375 136.660156 207.144531 C 136.660156 206.441406 136.488281 205.890625 136.144531 205.488281 C 135.800781 205.082031 135.332031 204.882812 134.742188 204.882812 Z M 137.351562 200.757812 L 137.351562 201.957031 C 137.019531 201.800781 136.6875 201.683594 136.351562 201.601562 C 136.015625 201.515625 135.683594 201.476562 135.351562 201.476562 C 134.484375 201.476562 133.820312 201.769531 133.363281 202.355469 C 132.90625 202.941406 132.644531 203.824219 132.578125 205.011719 C 132.835938 204.632812 133.15625 204.34375 133.542969 204.140625 C 133.929688 203.941406 134.355469 203.839844 134.820312 203.839844 C 135.792969 203.839844 136.566406 204.136719 137.132812 204.730469 C 137.699219 205.320312 137.984375 206.125 137.984375 207.144531 C 137.984375 208.144531 137.6875 208.945312 137.097656 209.550781 C 136.507812 210.152344 135.722656 210.453125 134.742188 210.453125 C 133.617188 210.453125 132.757812 210.023438 132.164062 209.164062 C 131.566406 208.300781 131.269531 207.050781 131.269531 205.414062 C 131.269531 203.878906 131.636719 202.652344 132.363281 201.738281 C 133.09375 200.824219 134.070312 200.367188 135.300781 200.367188 C 135.628906 200.367188 135.964844 200.402344 136.300781 200.464844 C 136.636719 200.53125 136.988281 200.628906 137.351562 200.757812 Z M 137.351562 200.757812 "/>
<g clip-path="url(#clip3)" clip-rule="nonzero">
<path style="fill:none;stroke-width:0.8;stroke-linecap:square;stroke-linejoin:round;stroke:rgb(69.01961%,69.01961%,69.01961%);stroke-opacity:1;stroke-miterlimit:4;" d="M 128.651367 143.100586 L 128.651367 7.201172 " transform="matrix(1.333333,0,0,1.333333,0,0)"/>
</g>
<path style="fill:none;stroke-width:0.8;stroke-linecap:butt;stroke-linejoin:round;stroke:rgb(0%,0%,0%);stroke-opacity:1;stroke-miterlimit:4;" d="M 0.000717163 0.000579834 L 0.000717163 3.498627 " transform="matrix(1.333333,0,0,1.333333,171.5342,190.800008)"/>
<path style=" stroke:none;fill-rule:nonzero;fill:rgb(0%,0%,0%);fill-opacity:1;" d="M 163.117188 205.53125 L 171.464844 205.53125 L 171.464844 206.636719 L 163.117188 206.636719 Z M 163.117188 205.53125 "/>
<path style=" stroke:none;fill-rule:nonzero;fill:rgb(0%,0%,0%);fill-opacity:1;" d="M 177.917969 201.691406 L 174.597656 206.878906 L 177.917969 206.878906 Z M 177.570312 200.542969 L 179.226562 200.542969 L 179.226562 206.878906 L 180.613281 206.878906 L 180.613281 207.972656 L 179.226562 207.972656 L 179.226562 210.265625 L 177.917969 210.265625 L 177.917969 207.972656 L 173.53125 207.972656 L 173.53125 206.703125 Z M 177.570312 200.542969 "/>
<g clip-path="url(#clip4)" clip-rule="nonzero">
<path style="fill:none;stroke-width:0.8;stroke-linecap:square;stroke-linejoin:round;stroke:rgb(69.01961%,69.01961%,69.01961%);stroke-opacity:1;stroke-miterlimit:4;" d="M 160.555664 143.100586 L 160.555664 7.201172 " transform="matrix(1.333333,0,0,1.333333,0,0)"/>
</g>
<path style="fill:none;stroke-width:0.8;stroke-linecap:butt;stroke-linejoin:round;stroke:rgb(0%,0%,0%);stroke-opacity:1;stroke-miterlimit:4;" d="M 0.00106812 0.000579834 L 0.00106812 3.498627 " transform="matrix(1.333333,0,0,1.333333,214.072795,190.800008)"/>
<path style=" stroke:none;fill-rule:nonzero;fill:rgb(0%,0%,0%);fill-opacity:1;" d="M 205.65625 205.53125 L 214.003906 205.53125 L 214.003906 206.636719 L 205.65625 206.636719 Z M 205.65625 205.53125 "/>
<path style=" stroke:none;fill-rule:nonzero;fill:rgb(0%,0%,0%);fill-opacity:1;" d="M 217.976562 209.160156 L 222.566406 209.160156 L 222.566406 210.265625 L 216.394531 210.265625 L 216.394531 209.160156 C 216.890625 208.640625 217.570312 207.949219 218.433594 207.078125 C 219.296875 206.207031 219.835938 205.648438 220.058594 205.394531 C 220.480469 204.921875 220.773438 204.523438 220.941406 204.195312 C 221.109375 203.867188 221.191406 203.542969 221.191406 203.226562 C 221.191406 202.710938 221.011719 202.289062 220.648438 201.964844 C 220.285156 201.636719 219.8125 201.476562 219.230469 201.476562 C 218.820312 201.476562 218.382812 201.546875 217.925781 201.691406 C 217.46875 201.832031 216.980469 202.050781 216.457031 202.339844 L 216.457031 201.011719 C 216.988281 200.800781 217.480469 200.640625 217.941406 200.53125 C 218.402344 200.421875 218.824219 200.367188 219.207031 200.367188 C 220.214844 200.367188 221.015625 200.621094 221.613281 201.125 C 222.214844 201.628906 222.511719 202.300781 222.511719 203.140625 C 222.511719 203.542969 222.4375 203.921875 222.289062 204.277344 C 222.140625 204.636719 221.867188 205.058594 221.472656 205.542969 C 221.363281 205.671875 221.015625 206.035156 220.433594 206.636719 C 219.855469 207.238281 219.035156 208.078125 217.976562 209.160156 Z M 217.976562 209.160156 "/>
<g clip-path="url(#clip5)" clip-rule="nonzero">
<path style="fill:none;stroke-width:0.8;stroke-linecap:square;stroke-linejoin:round;stroke:rgb(69.01961%,69.01961%,69.01961%);stroke-opacity:1;stroke-miterlimit:4;" d="M 192.459961 143.100586 L 192.459961 7.201172 " transform="matrix(1.333333,0,0,1.333333,0,0)"/>
</g>
<path style="fill:none;stroke-width:0.8;stroke-linecap:butt;stroke-linejoin:round;stroke:rgb(0%,0%,0%);stroke-opacity:1;stroke-miterlimit:4;" d="M 0.00141907 0.000579834 L 0.00141907 3.498627 " transform="matrix(1.333333,0,0,1.333333,256.611389,190.800008)"/>
<path style=" stroke:none;fill-rule:nonzero;fill:rgb(0%,0%,0%);fill-opacity:1;" d="M 256.605469 201.410156 C 255.929688 201.410156 255.421875 201.742188 255.082031 202.410156 C 254.738281 203.074219 254.570312 204.078125 254.570312 205.414062 C 254.570312 206.746094 254.738281 207.746094 255.082031 208.414062 C 255.421875 209.078125 255.929688 209.414062 256.605469 209.414062 C 257.289062 209.414062 257.800781 209.078125 258.140625 208.414062 C 258.480469 207.746094 258.652344 206.746094 258.652344 205.414062 C 258.652344 204.078125 258.480469 203.074219 258.140625 202.410156 C 257.800781 201.742188 257.289062 201.410156 256.605469 201.410156 Z M 256.605469 200.367188 C 257.699219 200.367188 258.53125 200.800781 259.105469 201.664062 C 259.679688 202.523438 259.96875 203.773438 259.96875 205.414062 C 259.96875 207.050781 259.679688 208.300781 259.105469 209.164062 C 258.53125 210.023438 257.699219 210.453125 256.605469 210.453125 C 255.519531 210.453125 254.6875 210.023438 254.113281 209.164062 C 253.535156 208.300781 253.25 207.050781 253.25 205.414062 C 253.25 203.773438 253.535156 202.523438 254.113281 201.664062 C 254.6875 200.800781 255.519531 200.367188 256.605469 200.367188 Z M 256.605469 200.367188 "/>
<g clip-path="url(#clip6)" clip-rule="nonzero">
<path style="fill:none;stroke-width:0.8;stroke-linecap:square;stroke-linejoin:round;stroke:rgb(69.01961%,69.01961%,69.01961%);stroke-opacity:1;stroke-miterlimit:4;" d="M 224.361328 143.100586 L 224.361328 7.201172 " transform="matrix(1.333333,0,0,1.333333,0,0)"/>
</g>
<path style="fill:none;stroke-width:0.8;stroke-linecap:butt;stroke-linejoin:round;stroke:rgb(0%,0%,0%);stroke-opacity:1;stroke-miterlimit:4;" d="M -0.00115967 0.000579834 L -0.00115967 3.498627 " transform="matrix(1.333333,0,0,1.333333,299.149984,190.800008)"/>
<path style=" stroke:none;fill-rule:nonzero;fill:rgb(0%,0%,0%);fill-opacity:1;" d="M 297.464844 209.160156 L 302.054688 209.160156 L 302.054688 210.265625 L 295.886719 210.265625 L 295.886719 209.160156 C 296.382812 208.640625 297.0625 207.949219 297.925781 207.078125 C 298.789062 206.207031 299.328125 205.648438 299.550781 205.394531 C 299.972656 204.921875 300.265625 204.523438 300.429688 204.195312 C 300.597656 203.867188 300.683594 203.542969 300.683594 203.226562 C 300.683594 202.710938 300.503906 202.289062 300.140625 201.964844 C 299.777344 201.636719 299.304688 201.476562 298.722656 201.476562 C 298.308594 201.476562 297.875 201.546875 297.417969 201.691406 C 296.960938 201.832031 296.472656 202.050781 295.949219 202.339844 L 295.949219 201.011719 C 296.480469 200.800781 296.972656 200.640625 297.433594 200.53125 C 297.894531 200.421875 298.316406 200.367188 298.699219 200.367188 C 299.703125 200.367188 300.507812 200.621094 301.105469 201.125 C 301.703125 201.628906 302.003906 202.300781 302.003906 203.140625 C 302.003906 203.542969 301.929688 203.921875 301.777344 204.277344 C 301.628906 204.636719 301.359375 205.058594 300.960938 205.542969 C 300.855469 205.671875 300.507812 206.035156 299.925781 206.636719 C 299.347656 207.238281 298.527344 208.078125 297.464844 209.160156 Z M 297.464844 209.160156 "/>
<g clip-path="url(#clip7)" clip-rule="nonzero">
<path style="fill:none;stroke-width:0.8;stroke-linecap:square;stroke-linejoin:round;stroke:rgb(69.01961%,69.01961%,69.01961%);stroke-opacity:1;stroke-miterlimit:4;" d="M 256.265625 143.100586 L 256.265625 7.201172 " transform="matrix(1.333333,0,0,1.333333,0,0)"/>
</g>
<path style="fill:none;stroke-width:0.8;stroke-linecap:butt;stroke-linejoin:round;stroke:rgb(0%,0%,0%);stroke-opacity:1;stroke-miterlimit:4;" d="M -0.000793457 0.000579834 L -0.000793457 3.498627 " transform="matrix(1.333333,0,0,1.333333,341.688558,190.800008)"/>
<path style=" stroke:none;fill-rule:nonzero;fill:rgb(0%,0%,0%);fill-opacity:1;" d="M 342.488281 201.691406 L 339.164062 206.878906 L 342.488281 206.878906 Z M 342.140625 200.542969 L 343.792969 200.542969 L 343.792969 206.878906 L 345.183594 206.878906 L 345.183594 207.972656 L 343.792969 207.972656 L 343.792969 210.265625 L 342.488281 210.265625 L 342.488281 207.972656 L 338.097656 207.972656 L 338.097656 206.703125 Z M 342.140625 200.542969 "/>
<g clip-path="url(#clip8)" clip-rule="nonzero">
<path style="fill:none;stroke-width:0.8;stroke-linecap:square;stroke-linejoin:round;stroke:rgb(69.01961%,69.01961%,69.01961%);stroke-opacity:1;stroke-miterlimit:4;" d="M 288.169922 143.100586 L 288.169922 7.201172 " transform="matrix(1.333333,0,0,1.333333,0,0)"/>
</g>
<path style="fill:none;stroke-width:0.8;stroke-linecap:butt;stroke-linejoin:round;stroke:rgb(0%,0%,0%);stroke-opacity:1;stroke-miterlimit:4;" d="M -0.000457764 0.000579834 L -0.000457764 3.498627 " transform="matrix(1.333333,0,0,1.333333,384.227173,190.800008)"/>
<path style=" stroke:none;fill-rule:nonzero;fill:rgb(0%,0%,0%);fill-opacity:1;" d="M 384.386719 204.882812 C 383.796875 204.882812 383.328125 205.082031 382.984375 205.488281 C 382.640625 205.890625 382.464844 206.441406 382.464844 207.144531 C 382.464844 207.84375 382.640625 208.398438 382.984375 208.804688 C 383.328125 209.210938 383.796875 209.414062 384.386719 209.414062 C 384.976562 209.414062 385.445312 209.210938 385.789062 208.804688 C 386.132812 208.398438 386.304688 207.84375 386.304688 207.144531 C 386.304688 206.441406 386.132812 205.890625 385.789062 205.488281 C 385.445312 205.082031 384.976562 204.882812 384.386719 204.882812 Z M 386.996094 200.757812 L 386.996094 201.957031 C 386.667969 201.800781 386.335938 201.683594 385.996094 201.601562 C 385.660156 201.515625 385.328125 201.476562 384.996094 201.476562 C 384.128906 201.476562 383.464844 201.769531 383.007812 202.355469 C 382.550781 202.941406 382.289062 203.824219 382.226562 205.011719 C 382.480469 204.632812 382.800781 204.34375 383.1875 204.140625 C 383.574219 203.941406 384 203.839844 384.464844 203.839844 C 385.441406 203.839844 386.210938 204.136719 386.777344 204.730469 C 387.347656 205.320312 387.628906 206.125 387.628906 207.144531 C 387.628906 208.144531 387.335938 208.945312 386.742188 209.550781 C 386.152344 210.152344 385.367188 210.453125 384.386719 210.453125 C 383.261719 210.453125 382.402344 210.023438 381.808594 209.164062 C 381.214844 208.300781 380.917969 207.050781 380.917969 205.414062 C 380.917969 203.878906 381.28125 202.652344 382.011719 201.738281 C 382.738281 200.824219 383.71875 200.367188 384.945312 200.367188 C 385.277344 200.367188 385.609375 200.402344 385.945312 200.464844 C 386.28125 200.53125 386.632812 200.628906 386.996094 200.757812 Z M 386.996094 200.757812 "/>
<g clip-path="url(#clip9)" clip-rule="nonzero">
<path style="fill:none;stroke-width:0.8;stroke-linecap:square;stroke-linejoin:round;stroke:rgb(69.01961%,69.01961%,69.01961%);stroke-opacity:1;stroke-miterlimit:4;" d="M 320.074219 143.100586 L 320.074219 7.201172 " transform="matrix(1.333333,0,0,1.333333,0,0)"/>
</g>
<path style="fill:none;stroke-width:0.8;stroke-linecap:butt;stroke-linejoin:round;stroke:rgb(0%,0%,0%);stroke-opacity:1;stroke-miterlimit:4;" d="M -0.0000915527 0.000579834 L -0.0000915527 3.498627 " transform="matrix(1.333333,0,0,1.333333,426.765747,190.800008)"/>
<path style=" stroke:none;fill-rule:nonzero;fill:rgb(0%,0%,0%);fill-opacity:1;" d="M 426.761719 205.648438 C 426.136719 205.648438 425.644531 205.816406 425.285156 206.148438 C 424.929688 206.484375 424.75 206.945312 424.75 207.527344 C 424.75 208.117188 424.929688 208.574219 425.285156 208.910156 C 425.644531 209.246094 426.136719 209.414062 426.761719 209.414062 C 427.386719 209.414062 427.878906 209.246094 428.238281 208.910156 C 428.601562 208.570312 428.78125 208.109375 428.78125 207.527344 C 428.78125 206.945312 428.601562 206.484375 428.242188 206.148438 C 427.886719 205.816406 427.390625 205.648438 426.761719 205.648438 Z M 425.445312 205.089844 C 424.882812 204.949219 424.445312 204.6875 424.128906 204.300781 C 423.8125 203.914062 423.65625 203.441406 423.65625 202.886719 C 423.65625 202.109375 423.933594 201.496094 424.488281 201.046875 C 425.039062 200.59375 425.800781 200.367188 426.761719 200.367188 C 427.730469 200.367188 428.488281 200.59375 429.039062 201.046875 C 429.59375 201.496094 429.867188 202.109375 429.867188 202.886719 C 429.867188 203.441406 429.710938 203.914062 429.394531 204.300781 C 429.082031 204.6875 428.644531 204.949219 428.085938 205.089844 C 428.71875 205.238281 429.210938 205.527344 429.5625 205.957031 C 429.917969 206.386719 430.09375 206.910156 430.09375 207.527344 C 430.09375 208.472656 429.808594 209.195312 429.234375 209.699219 C 428.65625 210.203125 427.832031 210.453125 426.761719 210.453125 C 425.691406 210.453125 424.867188 210.203125 424.289062 209.699219 C 423.714844 209.195312 423.429688 208.472656 423.429688 207.527344 C 423.429688 206.910156 423.605469 206.386719 423.960938 205.957031 C 424.320312 205.527344 424.8125 205.238281 425.445312 205.089844 Z M 424.964844 203.011719 C 424.964844 203.515625 425.121094 203.90625 425.4375 204.191406 C 425.75 204.472656 426.195312 204.613281 426.761719 204.613281 C 427.328125 204.613281 427.769531 204.472656 428.085938 204.191406 C 428.40625 203.90625 428.566406 203.515625 428.566406 203.011719 C 428.566406 202.507812 428.40625 202.117188 428.085938 201.832031 C 427.769531 201.550781 427.328125 201.410156 426.761719 201.410156 C 426.195312 201.410156 425.75 201.550781 425.4375 201.832031 C 425.121094 202.117188 424.964844 202.507812 424.964844 203.011719 Z M 424.964844 203.011719 "/>
<path style=" stroke:none;fill-rule:nonzero;fill:rgb(0%,0%,0%);fill-opacity:1;" d="M 258.921875 221.210938 L 256.285156 224.757812 L 259.054688 228.503906 L 257.644531 228.503906 L 255.519531 225.636719 L 253.398438 228.503906 L 251.984375 228.503906 L 254.820312 224.6875 L 252.226562 221.210938 L 253.640625 221.210938 L 255.574219 223.808594 L 257.507812 221.210938 Z M 258.921875 221.210938 "/>
<g clip-path="url(#clip10)" clip-rule="nonzero">
<path style="fill:none;stroke-width:0.8;stroke-linecap:square;stroke-linejoin:round;stroke:rgb(69.01961%,69.01961%,69.01961%);stroke-opacity:1;stroke-miterlimit:4;" d="M 52.160156 136.921875 L 331.160156 136.921875 " transform="matrix(1.333333,0,0,1.333333,0,0)"/>
</g>
<path style="fill:none;stroke-width:0.8;stroke-linecap:butt;stroke-linejoin:round;stroke:rgb(0%,0%,0%);stroke-opacity:1;stroke-miterlimit:4;" d="M -0.000782013 -0.000869751 L -3.498829 -0.000869751 " transform="matrix(1.333333,0,0,1.333333,69.547918,182.56366)"/>
<path style=" stroke:none;fill-rule:nonzero;fill:rgb(0%,0%,0%);fill-opacity:1;" d="M 29.25 182.894531 L 37.597656 182.894531 L 37.597656 184.003906 L 29.25 184.003906 Z M 29.25 182.894531 "/>
<path style=" stroke:none;fill-rule:nonzero;fill:rgb(0%,0%,0%);fill-opacity:1;" d="M 40.664062 186.523438 L 42.8125 186.523438 L 42.8125 179.105469 L 40.472656 179.574219 L 40.472656 178.378906 L 42.800781 177.910156 L 44.113281 177.910156 L 44.113281 186.523438 L 46.261719 186.523438 L 46.261719 187.628906 L 40.664062 187.628906 Z M 40.664062 186.523438 "/>
<path style=" stroke:none;fill-rule:nonzero;fill:rgb(0%,0%,0%);fill-opacity:1;" d="M 48.917969 185.976562 L 50.292969 185.976562 L 50.292969 187.628906 L 48.917969 187.628906 Z M 48.917969 185.976562 "/>
<path style=" stroke:none;fill-rule:nonzero;fill:rgb(0%,0%,0%);fill-opacity:1;" d="M 55.96875 178.773438 C 55.292969 178.773438 54.78125 179.109375 54.441406 179.773438 C 54.101562 180.441406 53.929688 181.441406 53.929688 182.777344 C 53.929688 184.109375 54.101562 185.109375 54.441406 185.777344 C 54.78125 186.445312 55.292969 186.777344 55.96875 186.777344 C 56.648438 186.777344 57.160156 186.445312 57.5 185.777344 C 57.84375 185.109375 58.015625 184.109375 58.015625 182.777344 C 58.015625 181.441406 57.84375 180.441406 57.5 179.773438 C 57.160156 179.109375 56.648438 178.773438 55.96875 178.773438 Z M 55.96875 177.734375 C 57.058594 177.734375 57.890625 178.164062 58.464844 179.027344 C 59.042969 179.886719 59.328125 181.140625 59.328125 182.777344 C 59.328125 184.414062 59.042969 185.664062 58.464844 186.527344 C 57.890625 187.386719 57.058594 187.820312 55.96875 187.820312 C 54.878906 187.820312 54.046875 187.386719 53.472656 186.527344 C 52.898438 185.664062 52.609375 184.414062 52.609375 182.777344 C 52.609375 181.140625 52.898438 179.886719 53.472656 179.027344 C 54.046875 178.164062 54.878906 177.734375 55.96875 177.734375 Z M 55.96875 177.734375 "/>
<g clip-path="url(#clip11)" clip-rule="nonzero">
<path style="fill:none;stroke-width:0.8;stroke-linecap:square;stroke-linejoin:round;stroke:rgb(69.01961%,69.01961%,69.01961%);stroke-opacity:1;stroke-miterlimit:4;" d="M 52.160156 106.037109 L 331.160156 106.037109 " transform="matrix(1.333333,0,0,1.333333,0,0)"/>
</g>
<path style="fill:none;stroke-width:0.8;stroke-linecap:butt;stroke-linejoin:round;stroke:rgb(0%,0%,0%);stroke-opacity:1;stroke-miterlimit:4;" d="M -0.000782013 0.000740051 L -3.498829 0.000740051 " transform="matrix(1.333333,0,0,1.333333,69.547918,141.381826)"/>
<path style=" stroke:none;fill-rule:nonzero;fill:rgb(0%,0%,0%);fill-opacity:1;" d="M 29.25 141.714844 L 37.597656 141.714844 L 37.597656 142.820312 L 29.25 142.820312 Z M 29.25 141.714844 "/>
<path style=" stroke:none;fill-rule:nonzero;fill:rgb(0%,0%,0%);fill-opacity:1;" d="M 43.246094 137.59375 C 42.570312 137.59375 42.0625 137.925781 41.71875 138.59375 C 41.378906 139.257812 41.210938 140.261719 41.210938 141.597656 C 41.210938 142.929688 41.378906 143.929688 41.71875 144.59375 C 42.0625 145.261719 42.570312 145.59375 43.246094 145.59375 C 43.929688 145.59375 44.441406 145.261719 44.78125 144.59375 C 45.121094 143.929688 45.292969 142.929688 45.292969 141.597656 C 45.292969 140.261719 45.121094 139.257812 44.78125 138.59375 C 44.441406 137.925781 43.929688 137.59375 43.246094 137.59375 Z M 43.246094 136.550781 C 44.335938 136.550781 45.167969 136.984375 45.746094 137.84375 C 46.320312 138.707031 46.605469 139.957031 46.605469 141.597656 C 46.605469 143.234375 46.320312 144.484375 45.746094 145.34375 C 45.167969 146.207031 44.335938 146.636719 43.246094 146.636719 C 42.15625 146.636719 41.324219 146.207031 40.75 145.34375 C 40.175781 144.484375 39.886719 143.234375 39.886719 141.597656 C 39.886719 139.957031 40.175781 138.707031 40.75 137.84375 C 41.324219 136.984375 42.15625 136.550781 43.246094 136.550781 Z M 43.246094 136.550781 "/>
<path style=" stroke:none;fill-rule:nonzero;fill:rgb(0%,0%,0%);fill-opacity:1;" d="M 48.917969 144.792969 L 50.292969 144.792969 L 50.292969 146.449219 L 48.917969 146.449219 Z M 48.917969 144.792969 "/>
<path style=" stroke:none;fill-rule:nonzero;fill:rgb(0%,0%,0%);fill-opacity:1;" d="M 53.171875 136.726562 L 58.332031 136.726562 L 58.332031 137.835938 L 54.375 137.835938 L 54.375 140.214844 C 54.566406 140.152344 54.753906 140.101562 54.945312 140.070312 C 55.136719 140.039062 55.328125 140.023438 55.519531 140.023438 C 56.605469 140.023438 57.464844 140.320312 58.097656 140.914062 C 58.730469 141.507812 59.050781 142.3125 59.050781 143.328125 C 59.050781 144.375 58.722656 145.1875 58.074219 145.769531 C 57.421875 146.347656 56.503906 146.636719 55.316406 146.636719 C 54.910156 146.636719 54.492188 146.601562 54.070312 146.53125 C 53.648438 146.464844 53.210938 146.359375 52.761719 146.21875 L 52.761719 144.898438 C 53.148438 145.109375 53.554688 145.269531 53.96875 145.371094 C 54.386719 145.476562 54.828125 145.527344 55.292969 145.527344 C 56.042969 145.527344 56.636719 145.332031 57.074219 144.9375 C 57.511719 144.542969 57.734375 144.007812 57.734375 143.328125 C 57.734375 142.652344 57.511719 142.117188 57.074219 141.722656 C 56.636719 141.328125 56.042969 141.128906 55.292969 141.128906 C 54.941406 141.128906 54.589844 141.167969 54.238281 141.246094 C 53.890625 141.324219 53.535156 141.445312 53.171875 141.609375 Z M 53.171875 136.726562 "/>
<g clip-path="url(#clip12)" clip-rule="nonzero">
<path style="fill:none;stroke-width:0.8;stroke-linecap:square;stroke-linejoin:round;stroke:rgb(69.01961%,69.01961%,69.01961%);stroke-opacity:1;stroke-miterlimit:4;" d="M 52.160156 75.149414 L 331.160156 75.149414 " transform="matrix(1.333333,0,0,1.333333,0,0)"/>
</g>
<path style="fill:none;stroke-width:0.8;stroke-linecap:butt;stroke-linejoin:round;stroke:rgb(0%,0%,0%);stroke-opacity:1;stroke-miterlimit:4;" d="M -0.000782013 -0.000587463 L -3.498829 -0.000587463 " transform="matrix(1.333333,0,0,1.333333,69.547918,100.200002)"/>
<path style=" stroke:none;fill-rule:nonzero;fill:rgb(0%,0%,0%);fill-opacity:1;" d="M 43.246094 96.410156 C 42.570312 96.410156 42.0625 96.746094 41.722656 97.410156 C 41.378906 98.078125 41.210938 99.078125 41.210938 100.414062 C 41.210938 101.746094 41.378906 102.746094 41.722656 103.414062 C 42.0625 104.082031 42.570312 104.414062 43.246094 104.414062 C 43.929688 104.414062 44.441406 104.082031 44.78125 103.414062 C 45.121094 102.746094 45.292969 101.746094 45.292969 100.414062 C 45.292969 99.078125 45.121094 98.078125 44.78125 97.410156 C 44.441406 96.746094 43.929688 96.410156 43.246094 96.410156 Z M 43.246094 95.371094 C 44.339844 95.371094 45.171875 95.800781 45.746094 96.664062 C 46.320312 97.523438 46.609375 98.773438 46.609375 100.414062 C 46.609375 102.050781 46.320312 103.300781 45.746094 104.164062 C 45.171875 105.023438 44.339844 105.457031 43.246094 105.457031 C 42.160156 105.457031 41.328125 105.023438 40.753906 104.164062 C 40.175781 103.300781 39.890625 102.050781 39.890625 100.414062 C 39.890625 98.773438 40.175781 97.523438 40.753906 96.664062 C 41.328125 95.800781 42.160156 95.371094 43.246094 95.371094 Z M 43.246094 95.371094 "/>
<path style=" stroke:none;fill-rule:nonzero;fill:rgb(0%,0%,0%);fill-opacity:1;" d="M 48.917969 103.613281 L 50.292969 103.613281 L 50.292969 105.265625 L 48.917969 105.265625 Z M 48.917969 103.613281 "/>
<path style=" stroke:none;fill-rule:nonzero;fill:rgb(0%,0%,0%);fill-opacity:1;" d="M 55.96875 96.410156 C 55.292969 96.410156 54.785156 96.746094 54.441406 97.410156 C 54.101562 98.078125 53.933594 99.078125 53.933594 100.414062 C 53.933594 101.746094 54.101562 102.746094 54.441406 103.414062 C 54.785156 104.082031 55.292969 104.414062 55.96875 104.414062 C 56.652344 104.414062 57.164062 104.082031 57.503906 103.414062 C 57.84375 102.746094 58.015625 101.746094 58.015625 100.414062 C 58.015625 99.078125 57.84375 98.078125 57.503906 97.410156 C 57.164062 96.746094 56.652344 96.410156 55.96875 96.410156 Z M 55.96875 95.371094 C 57.058594 95.371094 57.890625 95.800781 58.46875 96.664062 C 59.042969 97.523438 59.328125 98.773438 59.328125 100.414062 C 59.328125 102.050781 59.042969 103.300781 58.46875 104.164062 C 57.890625 105.023438 57.058594 105.457031 55.96875 105.457031 C 54.878906 105.457031 54.046875 105.023438 53.472656 104.164062 C 52.898438 103.300781 52.609375 102.050781 52.609375 100.414062 C 52.609375 98.773438 52.898438 97.523438 53.472656 96.664062 C 54.046875 95.800781 54.878906 95.371094 55.96875 95.371094 Z M 55.96875 95.371094 "/>
<g clip-path="url(#clip13)" clip-rule="nonzero">
<path style="fill:none;stroke-width:0.8;stroke-linecap:square;stroke-linejoin:round;stroke:rgb(69.01961%,69.01961%,69.01961%);stroke-opacity:1;stroke-miterlimit:4;" d="M 52.160156 44.264648 L 331.160156 44.264648 " transform="matrix(1.333333,0,0,1.333333,0,0)"/>
</g>
<path style="fill:none;stroke-width:0.8;stroke-linecap:butt;stroke-linejoin:round;stroke:rgb(0%,0%,0%);stroke-opacity:1;stroke-miterlimit:4;" d="M -0.000782013 0.00102234 L -3.498829 0.00102234 " transform="matrix(1.333333,0,0,1.333333,69.547918,59.018168)"/>
<path style=" stroke:none;fill-rule:nonzero;fill:rgb(0%,0%,0%);fill-opacity:1;" d="M 43.246094 55.230469 C 42.570312 55.230469 42.0625 55.5625 41.722656 56.230469 C 41.378906 56.894531 41.210938 57.894531 41.210938 59.234375 C 41.210938 60.566406 41.378906 61.566406 41.722656 62.230469 C 42.0625 62.898438 42.570312 63.230469 43.246094 63.230469 C 43.929688 63.230469 44.441406 62.898438 44.78125 62.230469 C 45.121094 61.566406 45.292969 60.566406 45.292969 59.234375 C 45.292969 57.894531 45.121094 56.894531 44.78125 56.230469 C 44.441406 55.5625 43.929688 55.230469 43.246094 55.230469 Z M 43.246094 54.1875 C 44.339844 54.1875 45.171875 54.621094 45.746094 55.480469 C 46.320312 56.34375 46.609375 57.59375 46.609375 59.234375 C 46.609375 60.871094 46.320312 62.121094 45.746094 62.980469 C 45.171875 63.84375 44.339844 64.273438 43.246094 64.273438 C 42.160156 64.273438 41.328125 63.84375 40.753906 62.980469 C 40.175781 62.121094 39.890625 60.871094 39.890625 59.234375 C 39.890625 57.59375 40.175781 56.34375 40.753906 55.480469 C 41.328125 54.621094 42.160156 54.1875 43.246094 54.1875 Z M 43.246094 54.1875 "/>
<path style=" stroke:none;fill-rule:nonzero;fill:rgb(0%,0%,0%);fill-opacity:1;" d="M 48.917969 62.429688 L 50.292969 62.429688 L 50.292969 64.082031 L 48.917969 64.082031 Z M 48.917969 62.429688 "/>
<path style=" stroke:none;fill-rule:nonzero;fill:rgb(0%,0%,0%);fill-opacity:1;" d="M 53.171875 54.363281 L 58.332031 54.363281 L 58.332031 55.472656 L 54.375 55.472656 L 54.375 57.851562 C 54.566406 57.789062 54.757812 57.738281 54.945312 57.707031 C 55.136719 57.675781 55.328125 57.660156 55.519531 57.660156 C 56.605469 57.660156 57.464844 57.957031 58.097656 58.550781 C 58.734375 59.144531 59.050781 59.949219 59.050781 60.964844 C 59.050781 62.011719 58.726562 62.824219 58.074219 63.40625 C 57.421875 63.984375 56.503906 64.273438 55.320312 64.273438 C 54.910156 64.273438 54.496094 64.238281 54.070312 64.167969 C 53.648438 64.101562 53.210938 63.996094 52.761719 63.855469 L 52.761719 62.535156 C 53.152344 62.746094 53.554688 62.90625 53.972656 63.007812 C 54.386719 63.113281 54.828125 63.164062 55.292969 63.164062 C 56.042969 63.164062 56.636719 62.96875 57.074219 62.574219 C 57.515625 62.179688 57.734375 61.644531 57.734375 60.964844 C 57.734375 60.289062 57.515625 59.753906 57.074219 59.359375 C 56.636719 58.964844 56.042969 58.765625 55.292969 58.765625 C 54.941406 58.765625 54.589844 58.804688 54.238281 58.882812 C 53.890625 58.960938 53.535156 59.082031 53.171875 59.246094 Z M 53.171875 54.363281 "/>
<g clip-path="url(#clip14)" clip-rule="nonzero">
<path style="fill:none;stroke-width:0.8;stroke-linecap:square;stroke-linejoin:round;stroke:rgb(69.01961%,69.01961%,69.01961%);stroke-opacity:1;stroke-miterlimit:4;" d="M 52.160156 13.376953 L 331.160156 13.376953 " transform="matrix(1.333333,0,0,1.333333,0,0)"/>
</g>
<path style="fill:none;stroke-width:0.8;stroke-linecap:butt;stroke-linejoin:round;stroke:rgb(0%,0%,0%);stroke-opacity:1;stroke-miterlimit:4;" d="M -0.000782013 -0.000300407 L -3.498829 -0.000300407 " transform="matrix(1.333333,0,0,1.333333,69.547918,17.836338)"/>
<path style=" stroke:none;fill-rule:nonzero;fill:rgb(0%,0%,0%);fill-opacity:1;" d="M 40.664062 21.796875 L 42.8125 21.796875 L 42.8125 14.378906 L 40.476562 14.847656 L 40.476562 13.648438 L 42.800781 13.179688 L 44.113281 13.179688 L 44.113281 21.796875 L 46.261719 21.796875 L 46.261719 22.902344 L 40.664062 22.902344 Z M 40.664062 21.796875 "/>
<path style=" stroke:none;fill-rule:nonzero;fill:rgb(0%,0%,0%);fill-opacity:1;" d="M 48.917969 21.246094 L 50.292969 21.246094 L 50.292969 22.902344 L 48.917969 22.902344 Z M 48.917969 21.246094 "/>
<path style=" stroke:none;fill-rule:nonzero;fill:rgb(0%,0%,0%);fill-opacity:1;" d="M 55.96875 14.046875 C 55.292969 14.046875 54.785156 14.382812 54.441406 15.046875 C 54.101562 15.714844 53.933594 16.714844 53.933594 18.050781 C 53.933594 19.382812 54.101562 20.382812 54.441406 21.050781 C 54.785156 21.714844 55.292969 22.050781 55.96875 22.050781 C 56.652344 22.050781 57.164062 21.714844 57.503906 21.050781 C 57.84375 20.382812 58.015625 19.382812 58.015625 18.050781 C 58.015625 16.714844 57.84375 15.714844 57.503906 15.046875 C 57.164062 14.382812 56.652344 14.046875 55.96875 14.046875 Z M 55.96875 13.007812 C 57.058594 13.007812 57.890625 13.4375 58.46875 14.300781 C 59.042969 15.160156 59.328125 16.410156 59.328125 18.050781 C 59.328125 19.6875 59.042969 20.9375 58.46875 21.800781 C 57.890625 22.660156 57.058594 23.089844 55.96875 23.089844 C 54.878906 23.089844 54.046875 22.660156 53.472656 21.800781 C 52.898438 20.9375 52.609375 19.6875 52.609375 18.050781 C 52.609375 16.410156 52.898438 15.160156 53.472656 14.300781 C 54.046875 13.4375 54.878906 13.007812 55.96875 13.007812 Z M 55.96875 13.007812 "/>
<path style=" stroke:none;fill-rule:nonzero;fill:rgb(0%,0%,0%);fill-opacity:1;" d="M 10.367188 122.054688 L 12.441406 122.054688 L 12.441406 119.589844 L 13.371094 119.589844 L 13.371094 122.054688 L 17.328125 122.054688 C 17.921875 122.054688 18.304688 121.972656 18.476562 121.8125 C 18.644531 121.648438 18.730469 121.316406 18.730469 120.816406 L 18.730469 119.589844 L 19.730469 119.589844 L 19.730469 120.816406 C 19.730469 121.742188 19.558594 122.382812 19.214844 122.730469 C 18.867188 123.082031 18.242188 123.257812 17.328125 123.257812 L 13.371094 123.257812 L 13.371094 124.136719 L 12.441406 124.136719 L 12.441406 123.257812 L 10.367188 123.257812 Z M 10.367188 122.054688 "/>
<path style=" stroke:none;fill-rule:nonzero;fill:rgb(0%,0%,0%);fill-opacity:1;" d="M 16.066406 114.699219 C 16.066406 115.667969 16.175781 116.335938 16.398438 116.710938 C 16.617188 117.085938 16.996094 117.269531 17.53125 117.269531 C 17.957031 117.269531 18.292969 117.128906 18.542969 116.851562 C 18.792969 116.570312 18.917969 116.1875 18.917969 115.707031 C 18.917969 115.042969 18.679688 114.511719 18.210938 114.109375 C 17.738281 113.707031 17.113281 113.507812 16.332031 113.507812 L 16.066406 113.507812 Z M 15.570312 112.308594 L 19.730469 112.308594 L 19.730469 113.507812 L 18.625 113.507812 C 19.066406 113.78125 19.394531 114.121094 19.605469 114.53125 C 19.816406 114.9375 19.921875 115.4375 19.921875 116.027344 C 19.921875 116.773438 19.710938 117.367188 19.292969 117.808594 C 18.871094 118.25 18.3125 118.46875 17.609375 118.46875 C 16.789062 118.46875 16.171875 118.195312 15.753906 117.644531 C 15.335938 117.097656 15.128906 116.277344 15.128906 115.1875 L 15.128906 113.507812 L 15.011719 113.507812 C 14.460938 113.507812 14.03125 113.6875 13.730469 114.050781 C 13.429688 114.414062 13.277344 114.921875 13.277344 115.578125 C 13.277344 115.992188 13.328125 116.398438 13.429688 116.796875 C 13.527344 117.191406 13.679688 117.570312 13.878906 117.933594 L 12.769531 117.933594 C 12.601562 117.496094 12.476562 117.070312 12.390625 116.660156 C 12.308594 116.246094 12.265625 115.84375 12.265625 115.453125 C 12.265625 114.398438 12.539062 113.609375 13.085938 113.089844 C 13.632812 112.570312 14.460938 112.308594 15.570312 112.308594 Z M 15.570312 112.308594 "/>
<path style=" stroke:none;fill-rule:nonzero;fill:rgb(0%,0%,0%);fill-opacity:1;" d="M 15.328125 103.78125 L 19.730469 103.78125 L 19.730469 104.976562 L 15.367188 104.976562 C 14.679688 104.976562 14.164062 105.113281 13.820312 105.382812 C 13.476562 105.652344 13.304688 106.054688 13.304688 106.59375 C 13.304688 107.238281 13.511719 107.75 13.925781 108.125 C 14.335938 108.496094 14.898438 108.683594 15.609375 108.683594 L 19.730469 108.683594 L 19.730469 109.886719 L 12.441406 109.886719 L 12.441406 108.683594 L 13.574219 108.683594 C 13.132812 108.394531 12.804688 108.058594 12.589844 107.671875 C 12.371094 107.28125 12.265625 106.832031 12.265625 106.324219 C 12.265625 105.488281 12.523438 104.855469 13.042969 104.425781 C 13.558594 103.996094 14.320312 103.78125 15.328125 103.78125 Z M 15.328125 103.78125 "/>
<path style=" stroke:none;fill-rule:nonzero;fill:rgb(0%,0%,0%);fill-opacity:1;" d="M 15.328125 95.328125 L 19.730469 95.328125 L 19.730469 96.527344 L 15.367188 96.527344 C 14.679688 96.527344 14.164062 96.660156 13.820312 96.929688 C 13.476562 97.199219 13.304688 97.605469 13.304688 98.140625 C 13.304688 98.789062 13.511719 99.300781 13.925781 99.671875 C 14.335938 100.046875 14.898438 100.234375 15.609375 100.234375 L 19.730469 100.234375 L 19.730469 101.4375 L 9.601562 101.4375 L 9.601562 100.234375 L 13.574219 100.234375 C 13.132812 99.945312 12.804688 99.609375 12.589844 99.222656 C 12.371094 98.832031 12.265625 98.382812 12.265625 97.875 C 12.265625 97.039062 12.523438 96.402344 13.042969 95.976562 C 13.558594 95.542969 14.320312 95.328125 15.328125 95.328125 Z M 15.328125 95.328125 "/>
<path style=" stroke:none;fill-rule:nonzero;fill:rgb(0%,0%,0%);fill-opacity:1;" d="M 9.613281 90.0625 C 10.613281 90.644531 11.597656 91.078125 12.578125 91.359375 C 13.554688 91.640625 14.542969 91.78125 15.546875 91.78125 C 16.546875 91.78125 17.539062 91.640625 18.523438 91.355469 C 19.507812 91.070312 20.496094 90.640625 21.488281 90.0625 L 21.488281 91.105469 C 20.46875 91.753906 19.464844 92.242188 18.480469 92.566406 C 17.496094 92.890625 16.519531 93.050781 15.546875 93.050781 C 14.578125 93.050781 13.601562 92.890625 12.621094 92.570312 C 11.640625 92.25 10.636719 91.761719 9.613281 91.105469 Z M 9.613281 90.0625 "/>
<path style=" stroke:none;fill-rule:nonzero;fill:rgb(0%,0%,0%);fill-opacity:1;" d="M 12.441406 81.675781 L 15.988281 84.3125 L 19.730469 81.542969 L 19.730469 82.953125 L 16.867188 85.078125 L 19.730469 87.199219 L 19.730469 88.613281 L 15.917969 85.777344 L 12.441406 88.371094 L 12.441406 86.957031 L 15.039062 85.023438 L 12.441406 83.089844 Z M 12.441406 81.675781 "/>
<path style=" stroke:none;fill-rule:nonzero;fill:rgb(0%,0%,0%);fill-opacity:1;" d="M 9.613281 80.035156 L 9.613281 78.996094 C 10.636719 78.34375 11.640625 77.859375 12.621094 77.535156 C 13.601562 77.210938 14.578125 77.046875 15.546875 77.046875 C 16.519531 77.046875 17.496094 77.210938 18.480469 77.535156 C 19.464844 77.859375 20.46875 78.34375 21.488281 78.996094 L 21.488281 80.035156 C 20.496094 79.460938 19.507812 79.027344 18.523438 78.746094 C 17.539062 78.460938 16.546875 78.316406 15.546875 78.316406 C 14.542969 78.316406 13.554688 78.460938 12.578125 78.746094 C 11.597656 79.027344 10.613281 79.460938 9.613281 80.035156 Z M 9.613281 80.035156 "/>
<path style="fill:none;stroke-width:1.5;stroke-linecap:square;stroke-linejoin:round;stroke:rgb(12.156863%,46.666667%,70.588237%);stroke-opacity:1;stroke-miterlimit:4;" d="M 64.842773 136.921875 L 135.032227 136.831055 L 144.603516 136.617188 L 150.984375 136.245117 L 155.768555 135.694336 L 158.958984 135.09668 L 162.149414 134.220703 L 163.746094 133.637695 L 165.339844 132.931641 L 166.936523 132.084961 L 168.530273 131.0625 L 170.126953 129.84082 L 171.720703 128.381836 L 173.317383 126.647461 L 174.911133 124.599609 L 176.507812 122.194336 L 178.101562 119.396484 L 179.698242 116.167969 L 181.291992 112.482422 L 182.888672 108.325195 L 184.482422 103.696289 L 186.079102 98.619141 L 189.269531 87.342773 L 197.244141 57.155273 L 198.837891 51.679688 L 200.43457 46.602539 L 202.02832 41.973633 L 203.625 37.816406 L 205.21875 34.130859 L 206.81543 30.902344 L 208.40918 28.104492 L 210.005859 25.702148 L 211.599609 23.654297 L 213.196289 21.919922 L 214.790039 20.458008 L 216.386719 19.236328 L 217.980469 18.216797 L 219.577148 17.367188 L 222.767578 16.081055 L 225.958008 15.202148 L 229.148438 14.607422 L 233.932617 14.053711 L 238.719727 13.749023 L 246.694336 13.514648 L 261.052734 13.400391 L 312.099609 13.376953 L 318.480469 13.376953 " transform="matrix(1.333333,0,0,1.333333,0,0)"/>
<path style="fill:none;stroke-width:0.8;stroke-linecap:square;stroke-linejoin:miter;stroke:rgb(0%,0%,0%);stroke-opacity:1;stroke-miterlimit:4;" d="M 52.160156 143.100586 L 52.160156 7.201172 " transform="matrix(1.333333,0,0,1.333333,0,0)"/>
<path style="fill:none;stroke-width:0.8;stroke-linecap:square;stroke-linejoin:miter;stroke:rgb(0%,0%,0%);stroke-opacity:1;stroke-miterlimit:4;" d="M 331.160156 143.100586 L 331.160156 7.201172 " transform="matrix(1.333333,0,0,1.333333,0,0)"/>
<path style="fill:none;stroke-width:0.8;stroke-linecap:square;stroke-linejoin:miter;stroke:rgb(0%,0%,0%);stroke-opacity:1;stroke-miterlimit:4;" d="M 52.160156 143.100586 L 331.160156 143.100586 " transform="matrix(1.333333,0,0,1.333333,0,0)"/>
<path style="fill:none;stroke-width:0.8;stroke-linecap:square;stroke-linejoin:miter;stroke:rgb(0%,0%,0%);stroke-opacity:1;stroke-miterlimit:4;" d="M 52.160156 7.201172 L 331.160156 7.201172 " transform="matrix(1.333333,0,0,1.333333,0,0)"/>
</g>
</svg>
