<?xml version="1.0" encoding="UTF-8"?>
<svg xmlns="http://www.w3.org/2000/svg" xmlns:xlink="http://www.w3.org/1999/xlink" width="332.620829" height="240.875" viewBox="0 0 332.620829 240.875" version="1.1">
<defs>
<clipPath id="clip1">
  <path d="M 73 9.601562 L 76 9.601562 L 76 190.800781 L 73 190.800781 Z M 73 9.601562 "/>
</clipPath>
<clipPath id="clip2">
  <path d="M 132 9.601562 L 135 9.601562 L 135 190.800781 L 132 190.800781 Z M 132 9.601562 "/>
</clipPath>
<clipPath id="clip3">
  <path d="M 192 9.601562 L 194 9.601562 L 194 190.800781 L 192 190.800781 Z M 192 9.601562 "/>
</clipPath>
<clipPath id="clip4">
  <path d="M 251 9.601562 L 253 9.601562 L 253 190.800781 L 251 190.800781 Z M 251 9.601562 "/>
</clipPath>
<clipPath id="clip5">
  <path d="M 310 9.601562 L 312 9.601562 L 312 190.800781 L 310 190.800781 Z M 310 9.601562 "/>
</clipPath>
<clipPath id="clip6">
  <path d="M 62.621094 181 L 323.019531 181 L 323.019531 184 L 62.621094 184 Z M 62.621094 181 "/>
</clipPath>
<clipPath id="clip7">
  <path d="M 62.621094 148 L 323.019531 148 L 323.019531 151 L 62.621094 151 Z M 62.621094 148 "/>
</clipPath>
<clipPath id="clip8">
  <path d="M 62.621094 115 L 323.019531 115 L 323.019531 118 L 62.621094 118 Z M 62.621094 115 "/>
</clipPath>
<clipPath id="clip9">
  <path d="M 62.621094 82 L 323.019531 82 L 323.019531 85 L 62.621094 85 Z M 62.621094 82 "/>
</clipPath>
<clipPath id="clip10">
  <path d="M 62.621094 50 L 323.019531 50 L 323.019531 52 L 62.621094 52 Z M 62.621094 50 "/>
</clipPath>
<clipPath id="clip11">
  <path d="M 62.621094 17 L 323.019531 17 L 323.019531 19 L 62.621094 19 Z M 62.621094 17 "/>
</clipPath>
</defs>
<g id="surface1">
<path style=" stroke:none;fill-rule:nonzero;fill:rgb(100%,100%,100%);fill-opacity:1;" d="M 62.621094 190.800781 L 323.019531 190.800781 L 323.019531 9.601562 L 62.621094 9.601562 Z M 62.621094 190.800781 "/>
<g clip-path="url(#clip1)" clip-rule="nonzero">
<path style="fill:none;stroke-width:0.8;stroke-linecap:square;stroke-linejoin:round;stroke:rgb(69.01961%,69.01961%,69.01961%);stroke-opacity:1;stroke-miterlimit:4;" d="M 55.842773 143.100586 L 55.842773 7.201172 " transform="matrix(1.333333,0,0,1.333333,0.000000000000028422,0)"/>
</g>
<path style="fill:none;stroke-width:0.8;stroke-linecap:butt;stroke-linejoin:round;stroke:rgb(0%,0%,0%);stroke-opacity:1;stroke-miterlimit:4;" d="M -0.000125885 0.000579834 L -0.000125885 3.498627 " transform="matrix(1.333333,0,0,1.333333,74.457199,190.800008)"/>
<path style=" stroke:none;fill-rule:nonzero;fill:rgb(0%,0%,0%);fill-opacity:1;" d="M 61.800781 205.53125 L 70.144531 205.53125 L 70.144531 206.636719 L 61.800781 206.636719 Z M 61.800781 205.53125 "/>
<path style=" stroke:none;fill-rule:nonzero;fill:rgb(0%,0%,0%);fill-opacity:1;" d="M 73.214844 209.160156 L 75.363281 209.160156 L 75.363281 201.742188 L 73.023438 202.210938 L 73.023438 201.011719 L 75.347656 200.542969 L 76.664062 200.542969 L 76.664062 209.160156 L 78.8125 209.160156 L 78.8125 210.265625 L 73.214844 210.265625 Z M 73.214844 209.160156 "/>
<path style=" stroke:none;fill-rule:nonzero;fill:rgb(0%,0%,0%);fill-opacity:1;" d="M 84.28125 201.410156 C 83.601562 201.410156 83.09375 201.742188 82.753906 202.410156 C 82.414062 203.074219 82.242188 204.078125 82.242188 205.414062 C 82.242188 206.746094 82.414062 207.746094 82.753906 208.414062 C 83.09375 209.078125 83.601562 209.414062 84.28125 209.414062 C 84.960938 209.414062 85.472656 209.078125 85.8125 208.414062 C 86.15625 207.746094 86.324219 206.746094 86.324219 205.414062 C 86.324219 204.078125 86.15625 203.074219 85.8125 202.410156 C 85.472656 201.742188 84.960938 201.410156 84.28125 201.410156 Z M 84.28125 200.367188 C 85.371094 200.367188 86.203125 200.800781 86.777344 201.664062 C 87.351562 202.523438 87.640625 203.773438 87.640625 205.414062 C 87.640625 207.050781 87.351562 208.300781 86.777344 209.164062 C 86.203125 210.023438 85.371094 210.453125 84.28125 210.453125 C 83.191406 210.453125 82.359375 210.023438 81.785156 209.164062 C 81.210938 208.300781 80.921875 207.050781 80.921875 205.414062 C 80.921875 203.773438 81.210938 202.523438 81.785156 201.664062 C 82.359375 200.800781 83.191406 200.367188 84.28125 200.367188 Z M 84.28125 200.367188 "/>
<g clip-path="url(#clip2)" clip-rule="nonzero">
<path style="fill:none;stroke-width:0.8;stroke-linecap:square;stroke-linejoin:round;stroke:rgb(69.01961%,69.01961%,69.01961%);stroke-opacity:1;stroke-miterlimit:4;" d="M 100.230469 143.100586 L 100.230469 7.201172 " transform="matrix(1.333333,0,0,1.333333,0.000000000000028422,0)"/>
</g>
<path style="fill:none;stroke-width:0.8;stroke-linecap:butt;stroke-linejoin:round;stroke:rgb(0%,0%,0%);stroke-opacity:1;stroke-miterlimit:4;" d="M 0.00120544 0.000579834 L 0.00120544 3.498627 " transform="matrix(1.333333,0,0,1.333333,133.639018,190.800008)"/>
<path style=" stroke:none;fill-rule:nonzero;fill:rgb(0%,0%,0%);fill-opacity:1;" d="M 125.222656 205.53125 L 133.570312 205.53125 L 133.570312 206.636719 L 125.222656 206.636719 Z M 125.222656 205.53125 "/>
<path style=" stroke:none;fill-rule:nonzero;fill:rgb(0%,0%,0%);fill-opacity:1;" d="M 136.421875 200.542969 L 141.585938 200.542969 L 141.585938 201.652344 L 137.625 201.652344 L 137.625 204.035156 C 137.816406 203.96875 138.007812 203.917969 138.199219 203.886719 C 138.390625 203.855469 138.582031 203.839844 138.773438 203.839844 C 139.855469 203.839844 140.714844 204.136719 141.347656 204.730469 C 141.984375 205.324219 142.300781 206.128906 142.300781 207.144531 C 142.300781 208.191406 141.976562 209.003906 141.324219 209.585938 C 140.671875 210.164062 139.753906 210.453125 138.570312 210.453125 C 138.160156 210.453125 137.746094 210.417969 137.324219 210.351562 C 136.898438 210.28125 136.464844 210.175781 136.011719 210.039062 L 136.011719 208.714844 C 136.402344 208.925781 136.804688 209.085938 137.222656 209.191406 C 137.640625 209.292969 138.078125 209.347656 138.542969 209.347656 C 139.292969 209.347656 139.890625 209.148438 140.328125 208.753906 C 140.765625 208.359375 140.984375 207.824219 140.984375 207.144531 C 140.984375 206.46875 140.765625 205.933594 140.328125 205.539062 C 139.890625 205.144531 139.292969 204.945312 138.542969 204.945312 C 138.191406 204.945312 137.839844 204.984375 137.492188 205.0625 C 137.140625 205.140625 136.785156 205.261719 136.421875 205.425781 Z M 136.421875 200.542969 "/>
<g clip-path="url(#clip3)" clip-rule="nonzero">
<path style="fill:none;stroke-width:0.8;stroke-linecap:square;stroke-linejoin:round;stroke:rgb(69.01961%,69.01961%,69.01961%);stroke-opacity:1;stroke-miterlimit:4;" d="M 144.615234 143.100586 L 144.615234 7.201172 " transform="matrix(1.333333,0,0,1.333333,0.000000000000028422,0)"/>
</g>
<path style="fill:none;stroke-width:0.8;stroke-linecap:butt;stroke-linejoin:round;stroke:rgb(0%,0%,0%);stroke-opacity:1;stroke-miterlimit:4;" d="M -0.000396729 0.000579834 L -0.000396729 3.498627 " transform="matrix(1.333333,0,0,1.333333,192.820841,190.800008)"/>
<path style=" stroke:none;fill-rule:nonzero;fill:rgb(0%,0%,0%);fill-opacity:1;" d="M 192.816406 201.410156 C 192.140625 201.410156 191.632812 201.742188 191.289062 202.410156 C 190.949219 203.074219 190.777344 204.078125 190.777344 205.414062 C 190.777344 206.746094 190.949219 207.746094 191.289062 208.414062 C 191.632812 209.078125 192.140625 209.414062 192.816406 209.414062 C 193.5 209.414062 194.007812 209.078125 194.351562 208.414062 C 194.691406 207.746094 194.863281 206.746094 194.863281 205.414062 C 194.863281 204.078125 194.691406 203.074219 194.351562 202.410156 C 194.007812 201.742188 193.5 201.410156 192.816406 201.410156 Z M 192.816406 200.367188 C 193.90625 200.367188 194.738281 200.800781 195.316406 201.664062 C 195.890625 202.523438 196.175781 203.773438 196.175781 205.414062 C 196.175781 207.050781 195.890625 208.300781 195.316406 209.164062 C 194.738281 210.023438 193.90625 210.453125 192.816406 210.453125 C 191.726562 210.453125 190.894531 210.023438 190.320312 209.164062 C 189.746094 208.300781 189.457031 207.050781 189.457031 205.414062 C 189.457031 203.773438 189.746094 202.523438 190.320312 201.664062 C 190.894531 200.800781 191.726562 200.367188 192.816406 200.367188 Z M 192.816406 200.367188 "/>
<g clip-path="url(#clip4)" clip-rule="nonzero">
<path style="fill:none;stroke-width:0.8;stroke-linecap:square;stroke-linejoin:round;stroke:rgb(69.01961%,69.01961%,69.01961%);stroke-opacity:1;stroke-miterlimit:4;" d="M 189.00293 143.100586 L 189.00293 7.201172 " transform="matrix(1.333333,0,0,1.333333,0.000000000000028422,0)"/>
</g>
<path style="fill:none;stroke-width:0.8;stroke-linecap:butt;stroke-linejoin:round;stroke:rgb(0%,0%,0%);stroke-opacity:1;stroke-miterlimit:4;" d="M 0.000946045 0.000579834 L 0.000946045 3.498627 " transform="matrix(1.333333,0,0,1.333333,252.002645,190.800008)"/>
<path style=" stroke:none;fill-rule:nonzero;fill:rgb(0%,0%,0%);fill-opacity:1;" d="M 249.199219 200.542969 L 254.363281 200.542969 L 254.363281 201.652344 L 250.40625 201.652344 L 250.40625 204.035156 C 250.59375 203.96875 250.785156 203.917969 250.976562 203.886719 C 251.167969 203.855469 251.359375 203.839844 251.550781 203.839844 C 252.636719 203.839844 253.496094 204.136719 254.128906 204.730469 C 254.761719 205.324219 255.078125 206.128906 255.078125 207.144531 C 255.078125 208.191406 254.753906 209.003906 254.101562 209.585938 C 253.453125 210.164062 252.535156 210.453125 251.347656 210.453125 C 250.941406 210.453125 250.523438 210.417969 250.101562 210.351562 C 249.679688 210.28125 249.242188 210.175781 248.789062 210.039062 L 248.789062 208.714844 C 249.179688 208.925781 249.582031 209.085938 250 209.191406 C 250.417969 209.292969 250.859375 209.347656 251.320312 209.347656 C 252.074219 209.347656 252.667969 209.148438 253.105469 208.753906 C 253.542969 208.359375 253.761719 207.824219 253.761719 207.144531 C 253.761719 206.46875 253.542969 205.933594 253.105469 205.539062 C 252.667969 205.144531 252.074219 204.945312 251.320312 204.945312 C 250.96875 204.945312 250.621094 204.984375 250.269531 205.0625 C 249.921875 205.140625 249.566406 205.261719 249.199219 205.425781 Z M 249.199219 200.542969 "/>
<g clip-path="url(#clip5)" clip-rule="nonzero">
<path style="fill:none;stroke-width:0.8;stroke-linecap:square;stroke-linejoin:round;stroke:rgb(69.01961%,69.01961%,69.01961%);stroke-opacity:1;stroke-miterlimit:4;" d="M 233.387695 143.100586 L 233.387695 7.201172 " transform="matrix(1.333333,0,0,1.333333,0.000000000000028422,0)"/>
</g>
<path style="fill:none;stroke-width:0.8;stroke-linecap:butt;stroke-linejoin:round;stroke:rgb(0%,0%,0%);stroke-opacity:1;stroke-miterlimit:4;" d="M -0.000656128 0.000579834 L -0.000656128 3.498627 " transform="matrix(1.333333,0,0,1.333333,311.184469,190.800008)"/>
<path style=" stroke:none;fill-rule:nonzero;fill:rgb(0%,0%,0%);fill-opacity:1;" d="M 304.355469 209.160156 L 306.503906 209.160156 L 306.503906 201.742188 L 304.164062 202.210938 L 304.164062 201.011719 L 306.492188 200.542969 L 307.804688 200.542969 L 307.804688 209.160156 L 309.953125 209.160156 L 309.953125 210.265625 L 304.355469 210.265625 Z M 304.355469 209.160156 "/>
<path style=" stroke:none;fill-rule:nonzero;fill:rgb(0%,0%,0%);fill-opacity:1;" d="M 315.421875 201.410156 C 314.746094 201.410156 314.234375 201.742188 313.894531 202.410156 C 313.554688 203.074219 313.382812 204.078125 313.382812 205.414062 C 313.382812 206.746094 313.554688 207.746094 313.894531 208.414062 C 314.234375 209.078125 314.746094 209.414062 315.421875 209.414062 C 316.105469 209.414062 316.613281 209.078125 316.953125 208.414062 C 317.296875 207.746094 317.46875 206.746094 317.46875 205.414062 C 317.46875 204.078125 317.296875 203.074219 316.953125 202.410156 C 316.613281 201.742188 316.105469 201.410156 315.421875 201.410156 Z M 315.421875 200.367188 C 316.511719 200.367188 317.34375 200.800781 317.917969 201.664062 C 318.496094 202.523438 318.78125 203.773438 318.78125 205.414062 C 318.78125 207.050781 318.496094 208.300781 317.917969 209.164062 C 317.34375 210.023438 316.511719 210.453125 315.421875 210.453125 C 314.332031 210.453125 313.5 210.023438 312.925781 209.164062 C 312.351562 208.300781 312.0625 207.050781 312.0625 205.414062 C 312.0625 203.773438 312.351562 202.523438 312.925781 201.664062 C 313.5 200.800781 314.332031 200.367188 315.421875 200.367188 Z M 315.421875 200.367188 "/>
<path style=" stroke:none;fill-rule:nonzero;fill:rgb(0%,0%,0%);fill-opacity:1;" d="M 196.195312 221.210938 L 193.554688 224.757812 L 196.328125 228.503906 L 194.917969 228.503906 L 192.792969 225.636719 L 190.671875 228.503906 L 189.257812 228.503906 L 192.089844 224.6875 L 189.5 221.210938 L 190.914062 221.210938 L 192.847656 223.808594 L 194.777344 221.210938 Z M 196.195312 221.210938 "/>
<g clip-path="url(#clip6)" clip-rule="nonzero">
<path style="fill:none;stroke-width:0.8;stroke-linecap:square;stroke-linejoin:round;stroke:rgb(69.01961%,69.01961%,69.01961%);stroke-opacity:1;stroke-miterlimit:4;" d="M 46.96582 136.921875 L 242.264648 136.921875 " transform="matrix(1.333333,0,0,1.333333,0.000000000000028422,0)"/>
</g>
<path style="fill:none;stroke-width:0.8;stroke-linecap:butt;stroke-linejoin:round;stroke:rgb(0%,0%,0%);stroke-opacity:1;stroke-miterlimit:4;" d="M 0.00019455 -0.000854492 L -3.500782 -0.000854492 " transform="matrix(1.333333,0,0,1.333333,62.620834,182.563639)"/>
<path style=" stroke:none;fill-rule:nonzero;fill:rgb(0%,0%,0%);fill-opacity:1;" d="M 49.042969 178.773438 C 48.367188 178.773438 47.855469 179.109375 47.515625 179.773438 C 47.175781 180.441406 47.003906 181.441406 47.003906 182.777344 C 47.003906 184.109375 47.175781 185.109375 47.515625 185.777344 C 47.855469 186.445312 48.367188 186.777344 49.042969 186.777344 C 49.722656 186.777344 50.234375 186.445312 50.574219 185.777344 C 50.917969 185.109375 51.085938 184.109375 51.085938 182.777344 C 51.085938 181.441406 50.917969 180.441406 50.574219 179.773438 C 50.234375 179.109375 49.722656 178.773438 49.042969 178.773438 Z M 49.042969 177.734375 C 50.132812 177.734375 50.964844 178.164062 51.539062 179.027344 C 52.113281 179.886719 52.402344 181.140625 52.402344 182.777344 C 52.402344 184.414062 52.113281 185.664062 51.539062 186.527344 C 50.964844 187.386719 50.132812 187.820312 49.042969 187.820312 C 47.953125 187.820312 47.121094 187.386719 46.546875 186.527344 C 45.972656 185.664062 45.683594 184.414062 45.683594 182.777344 C 45.683594 181.140625 45.972656 179.886719 46.546875 179.027344 C 47.121094 178.164062 47.953125 177.734375 49.042969 177.734375 Z M 49.042969 177.734375 "/>
<g clip-path="url(#clip7)" clip-rule="nonzero">
<path style="fill:none;stroke-width:0.8;stroke-linecap:square;stroke-linejoin:round;stroke:rgb(69.01961%,69.01961%,69.01961%);stroke-opacity:1;stroke-miterlimit:4;" d="M 46.96582 112.212891 L 242.264648 112.212891 " transform="matrix(1.333333,0,0,1.333333,0.000000000000028422,0)"/>
</g>
<path style="fill:none;stroke-width:0.8;stroke-linecap:butt;stroke-linejoin:round;stroke:rgb(0%,0%,0%);stroke-opacity:1;stroke-miterlimit:4;" d="M 0.00019455 -0.000747681 L -3.500782 -0.000747681 " transform="matrix(1.333333,0,0,1.333333,62.620834,149.618184)"/>
<path style=" stroke:none;fill-rule:nonzero;fill:rgb(0%,0%,0%);fill-opacity:1;" d="M 38.878906 153.578125 L 43.46875 153.578125 L 43.46875 154.683594 L 37.296875 154.683594 L 37.296875 153.578125 C 37.796875 153.0625 38.476562 152.367188 39.335938 151.5 C 40.199219 150.628906 40.742188 150.066406 40.960938 149.8125 C 41.382812 149.339844 41.675781 148.941406 41.84375 148.613281 C 42.011719 148.285156 42.097656 147.964844 42.097656 147.644531 C 42.097656 147.128906 41.914062 146.707031 41.550781 146.382812 C 41.191406 146.058594 40.71875 145.894531 40.136719 145.894531 C 39.722656 145.894531 39.289062 145.964844 38.828125 146.109375 C 38.371094 146.25 37.882812 146.46875 37.363281 146.761719 L 37.363281 145.433594 C 37.890625 145.21875 38.386719 145.058594 38.847656 144.949219 C 39.308594 144.84375 39.726562 144.789062 40.109375 144.789062 C 41.117188 144.789062 41.921875 145.039062 42.519531 145.542969 C 43.117188 146.046875 43.417969 146.71875 43.417969 147.5625 C 43.417969 147.960938 43.339844 148.339844 43.191406 148.699219 C 43.042969 149.054688 42.769531 149.476562 42.375 149.964844 C 42.265625 150.089844 41.921875 150.453125 41.339844 151.054688 C 40.757812 151.65625 39.9375 152.496094 38.878906 153.578125 Z M 38.878906 153.578125 "/>
<path style=" stroke:none;fill-rule:nonzero;fill:rgb(0%,0%,0%);fill-opacity:1;" d="M 49.042969 145.828125 C 48.363281 145.828125 47.855469 146.164062 47.515625 146.828125 C 47.175781 147.496094 47.003906 148.496094 47.003906 149.832031 C 47.003906 151.164062 47.175781 152.164062 47.515625 152.832031 C 47.855469 153.5 48.363281 153.832031 49.042969 153.832031 C 49.722656 153.832031 50.234375 153.5 50.574219 152.832031 C 50.917969 152.164062 51.085938 151.164062 51.085938 149.832031 C 51.085938 148.496094 50.917969 147.496094 50.574219 146.828125 C 50.234375 146.164062 49.722656 145.828125 49.042969 145.828125 Z M 49.042969 144.789062 C 50.132812 144.789062 50.964844 145.21875 51.539062 146.082031 C 52.113281 146.941406 52.402344 148.195312 52.402344 149.832031 C 52.402344 151.46875 52.113281 152.71875 51.539062 153.582031 C 50.964844 154.441406 50.132812 154.875 49.042969 154.875 C 47.953125 154.875 47.121094 154.441406 46.546875 153.582031 C 45.96875 152.71875 45.683594 151.46875 45.683594 149.832031 C 45.683594 148.195312 45.96875 146.941406 46.546875 146.082031 C 47.121094 145.21875 47.953125 144.789062 49.042969 144.789062 Z M 49.042969 144.789062 "/>
<g clip-path="url(#clip8)" clip-rule="nonzero">
<path style="fill:none;stroke-width:0.8;stroke-linecap:square;stroke-linejoin:round;stroke:rgb(69.01961%,69.01961%,69.01961%);stroke-opacity:1;stroke-miterlimit:4;" d="M 46.96582 87.503906 L 242.264648 87.503906 " transform="matrix(1.333333,0,0,1.333333,0.000000000000028422,0)"/>
</g>
<path style="fill:none;stroke-width:0.8;stroke-linecap:butt;stroke-linejoin:round;stroke:rgb(0%,0%,0%);stroke-opacity:1;stroke-miterlimit:4;" d="M 0.00019455 -0.000640869 L -3.500782 -0.000640869 " transform="matrix(1.333333,0,0,1.333333,62.620834,116.672729)"/>
<path style=" stroke:none;fill-rule:nonzero;fill:rgb(0%,0%,0%);fill-opacity:1;" d="M 41.359375 113.164062 L 38.039062 118.351562 L 41.359375 118.351562 Z M 41.015625 112.015625 L 42.667969 112.015625 L 42.667969 118.351562 L 44.054688 118.351562 L 44.054688 119.445312 L 42.667969 119.445312 L 42.667969 121.738281 L 41.359375 121.738281 L 41.359375 119.445312 L 36.972656 119.445312 L 36.972656 118.179688 Z M 41.015625 112.015625 "/>
<path style=" stroke:none;fill-rule:nonzero;fill:rgb(0%,0%,0%);fill-opacity:1;" d="M 49.042969 112.882812 C 48.363281 112.882812 47.855469 113.21875 47.515625 113.882812 C 47.175781 114.550781 47.003906 115.550781 47.003906 116.886719 C 47.003906 118.21875 47.175781 119.21875 47.515625 119.886719 C 47.855469 120.554688 48.363281 120.886719 49.042969 120.886719 C 49.722656 120.886719 50.234375 120.554688 50.574219 119.886719 C 50.917969 119.21875 51.085938 118.21875 51.085938 116.886719 C 51.085938 115.550781 50.917969 114.550781 50.574219 113.882812 C 50.234375 113.21875 49.722656 112.882812 49.042969 112.882812 Z M 49.042969 111.84375 C 50.132812 111.84375 50.964844 112.273438 51.539062 113.136719 C 52.113281 113.996094 52.402344 115.25 52.402344 116.886719 C 52.402344 118.523438 52.113281 119.773438 51.539062 120.636719 C 50.964844 121.496094 50.132812 121.929688 49.042969 121.929688 C 47.953125 121.929688 47.121094 121.496094 46.546875 120.636719 C 45.96875 119.773438 45.683594 118.523438 45.683594 116.886719 C 45.683594 115.25 45.96875 113.996094 46.546875 113.136719 C 47.121094 112.273438 47.953125 111.84375 49.042969 111.84375 Z M 49.042969 111.84375 "/>
<g clip-path="url(#clip9)" clip-rule="nonzero">
<path style="fill:none;stroke-width:0.8;stroke-linecap:square;stroke-linejoin:round;stroke:rgb(69.01961%,69.01961%,69.01961%);stroke-opacity:1;stroke-miterlimit:4;" d="M 46.96582 62.794922 L 242.264648 62.794922 " transform="matrix(1.333333,0,0,1.333333,0.000000000000028422,0)"/>
</g>
<path style="fill:none;stroke-width:0.8;stroke-linecap:butt;stroke-linejoin:round;stroke:rgb(0%,0%,0%);stroke-opacity:1;stroke-miterlimit:4;" d="M 0.00019455 -0.000534058 L -3.500782 -0.000534058 " transform="matrix(1.333333,0,0,1.333333,62.620834,83.727275)"/>
<path style=" stroke:none;fill-rule:nonzero;fill:rgb(0%,0%,0%);fill-opacity:1;" d="M 40.722656 83.410156 C 40.132812 83.410156 39.664062 83.613281 39.320312 84.015625 C 38.972656 84.417969 38.800781 84.972656 38.800781 85.675781 C 38.800781 86.371094 38.972656 86.925781 39.320312 87.332031 C 39.664062 87.738281 40.132812 87.941406 40.722656 87.941406 C 41.3125 87.941406 41.78125 87.738281 42.125 87.332031 C 42.46875 86.925781 42.640625 86.371094 42.640625 85.675781 C 42.640625 84.972656 42.46875 84.417969 42.125 84.015625 C 41.78125 83.613281 41.3125 83.410156 40.722656 83.410156 Z M 43.332031 79.285156 L 43.332031 80.484375 C 43.003906 80.328125 42.667969 80.210938 42.332031 80.128906 C 41.996094 80.046875 41.664062 80.003906 41.332031 80.003906 C 40.464844 80.003906 39.800781 80.296875 39.34375 80.882812 C 38.886719 81.46875 38.625 82.355469 38.558594 83.539062 C 38.816406 83.160156 39.136719 82.871094 39.523438 82.671875 C 39.910156 82.46875 40.335938 82.367188 40.800781 82.367188 C 41.777344 82.367188 42.546875 82.664062 43.113281 83.257812 C 43.679688 83.847656 43.964844 84.65625 43.964844 85.675781 C 43.964844 86.671875 43.667969 87.472656 43.078125 88.078125 C 42.488281 88.679688 41.703125 88.984375 40.722656 88.984375 C 39.597656 88.984375 38.738281 88.550781 38.144531 87.691406 C 37.550781 86.828125 37.253906 85.578125 37.253906 83.941406 C 37.253906 82.40625 37.617188 81.183594 38.347656 80.269531 C 39.074219 79.355469 40.054688 78.898438 41.28125 78.898438 C 41.613281 78.898438 41.945312 78.929688 42.28125 78.996094 C 42.617188 79.058594 42.96875 79.15625 43.332031 79.285156 Z M 43.332031 79.285156 "/>
<path style=" stroke:none;fill-rule:nonzero;fill:rgb(0%,0%,0%);fill-opacity:1;" d="M 49.042969 79.9375 C 48.363281 79.9375 47.855469 80.273438 47.515625 80.9375 C 47.175781 81.605469 47.003906 82.605469 47.003906 83.941406 C 47.003906 85.273438 47.175781 86.273438 47.515625 86.941406 C 47.855469 87.609375 48.363281 87.941406 49.042969 87.941406 C 49.722656 87.941406 50.234375 87.609375 50.574219 86.941406 C 50.917969 86.273438 51.085938 85.273438 51.085938 83.941406 C 51.085938 82.605469 50.917969 81.605469 50.574219 80.9375 C 50.234375 80.273438 49.722656 79.9375 49.042969 79.9375 Z M 49.042969 78.898438 C 50.132812 78.898438 50.964844 79.328125 51.539062 80.191406 C 52.113281 81.050781 52.402344 82.300781 52.402344 83.941406 C 52.402344 85.578125 52.113281 86.828125 51.539062 87.691406 C 50.964844 88.550781 50.132812 88.984375 49.042969 88.984375 C 47.953125 88.984375 47.121094 88.550781 46.546875 87.691406 C 45.96875 86.828125 45.683594 85.578125 45.683594 83.941406 C 45.683594 82.300781 45.96875 81.050781 46.546875 80.191406 C 47.121094 79.328125 47.953125 78.898438 49.042969 78.898438 Z M 49.042969 78.898438 "/>
<g clip-path="url(#clip10)" clip-rule="nonzero">
<path style="fill:none;stroke-width:0.8;stroke-linecap:square;stroke-linejoin:round;stroke:rgb(69.01961%,69.01961%,69.01961%);stroke-opacity:1;stroke-miterlimit:4;" d="M 46.96582 38.085938 L 242.264648 38.085938 " transform="matrix(1.333333,0,0,1.333333,0.000000000000028422,0)"/>
</g>
<path style="fill:none;stroke-width:0.8;stroke-linecap:butt;stroke-linejoin:round;stroke:rgb(0%,0%,0%);stroke-opacity:1;stroke-miterlimit:4;" d="M 0.00019455 -0.000427246 L -3.500782 -0.000427246 " transform="matrix(1.333333,0,0,1.333333,62.620834,50.78182)"/>
<path style=" stroke:none;fill-rule:nonzero;fill:rgb(0%,0%,0%);fill-opacity:1;" d="M 40.558594 51.230469 C 39.933594 51.230469 39.441406 51.398438 39.082031 51.734375 C 38.726562 52.066406 38.546875 52.527344 38.546875 53.113281 C 38.546875 53.699219 38.726562 54.160156 39.082031 54.492188 C 39.441406 54.828125 39.933594 54.996094 40.558594 54.996094 C 41.183594 54.996094 41.675781 54.828125 42.035156 54.492188 C 42.398438 54.152344 42.578125 53.695312 42.578125 53.113281 C 42.578125 52.527344 42.398438 52.066406 42.039062 51.734375 C 41.683594 51.398438 41.1875 51.230469 40.558594 51.230469 Z M 39.242188 50.671875 C 38.679688 50.535156 38.242188 50.269531 37.925781 49.886719 C 37.609375 49.496094 37.453125 49.027344 37.453125 48.46875 C 37.453125 47.695312 37.730469 47.082031 38.285156 46.628906 C 38.835938 46.175781 39.597656 45.953125 40.558594 45.953125 C 41.527344 45.953125 42.285156 46.175781 42.835938 46.628906 C 43.390625 47.082031 43.664062 47.695312 43.664062 48.46875 C 43.664062 49.027344 43.507812 49.496094 43.191406 49.886719 C 42.878906 50.269531 42.441406 50.535156 41.882812 50.671875 C 42.515625 50.820312 43.007812 51.109375 43.359375 51.539062 C 43.714844 51.96875 43.890625 52.492188 43.890625 53.113281 C 43.890625 54.054688 43.605469 54.777344 43.027344 55.28125 C 42.453125 55.785156 41.628906 56.035156 40.558594 56.035156 C 39.488281 56.035156 38.664062 55.785156 38.085938 55.28125 C 37.511719 54.777344 37.226562 54.054688 37.226562 53.113281 C 37.226562 52.492188 37.402344 51.96875 37.757812 51.539062 C 38.117188 51.109375 38.609375 50.820312 39.242188 50.671875 Z M 38.761719 48.59375 C 38.761719 49.097656 38.917969 49.492188 39.234375 49.773438 C 39.546875 50.054688 39.992188 50.195312 40.558594 50.195312 C 41.125 50.195312 41.566406 50.054688 41.882812 49.773438 C 42.203125 49.492188 42.363281 49.097656 42.363281 48.59375 C 42.363281 48.089844 42.203125 47.699219 41.882812 47.417969 C 41.566406 47.132812 41.125 46.992188 40.558594 46.992188 C 39.992188 46.992188 39.546875 47.132812 39.234375 47.417969 C 38.917969 47.699219 38.761719 48.089844 38.761719 48.59375 Z M 38.761719 48.59375 "/>
<path style=" stroke:none;fill-rule:nonzero;fill:rgb(0%,0%,0%);fill-opacity:1;" d="M 49.042969 46.992188 C 48.363281 46.992188 47.855469 47.328125 47.515625 47.992188 C 47.175781 48.660156 47.003906 49.660156 47.003906 50.996094 C 47.003906 52.328125 47.175781 53.328125 47.515625 53.996094 C 47.855469 54.660156 48.363281 54.996094 49.042969 54.996094 C 49.722656 54.996094 50.234375 54.660156 50.574219 53.996094 C 50.917969 53.328125 51.085938 52.328125 51.085938 50.996094 C 51.085938 49.660156 50.917969 48.660156 50.574219 47.992188 C 50.234375 47.328125 49.722656 46.992188 49.042969 46.992188 Z M 49.042969 45.953125 C 50.132812 45.953125 50.964844 46.382812 51.539062 47.246094 C 52.113281 48.105469 52.402344 49.355469 52.402344 50.996094 C 52.402344 52.632812 52.113281 53.882812 51.539062 54.746094 C 50.964844 55.605469 50.132812 56.035156 49.042969 56.035156 C 47.953125 56.035156 47.121094 55.605469 46.546875 54.746094 C 45.96875 53.882812 45.683594 52.632812 45.683594 50.996094 C 45.683594 49.355469 45.96875 48.105469 46.546875 47.246094 C 47.121094 46.382812 47.953125 45.953125 49.042969 45.953125 Z M 49.042969 45.953125 "/>
<g clip-path="url(#clip11)" clip-rule="nonzero">
<path style="fill:none;stroke-width:0.8;stroke-linecap:square;stroke-linejoin:round;stroke:rgb(69.01961%,69.01961%,69.01961%);stroke-opacity:1;stroke-miterlimit:4;" d="M 46.96582 13.376953 L 242.264648 13.376953 " transform="matrix(1.333333,0,0,1.333333,0.000000000000028422,0)"/>
</g>
<path style="fill:none;stroke-width:0.8;stroke-linecap:butt;stroke-linejoin:round;stroke:rgb(0%,0%,0%);stroke-opacity:1;stroke-miterlimit:4;" d="M 0.00019455 -0.000319481 L -3.500782 -0.000319481 " transform="matrix(1.333333,0,0,1.333333,62.620834,17.836363)"/>
<path style=" stroke:none;fill-rule:nonzero;fill:rgb(0%,0%,0%);fill-opacity:1;" d="M 29.492188 21.796875 L 31.640625 21.796875 L 31.640625 14.378906 L 29.300781 14.847656 L 29.300781 13.648438 L 31.628906 13.179688 L 32.941406 13.179688 L 32.941406 21.796875 L 35.089844 21.796875 L 35.089844 22.902344 L 29.492188 22.902344 Z M 29.492188 21.796875 "/>
<path style=" stroke:none;fill-rule:nonzero;fill:rgb(0%,0%,0%);fill-opacity:1;" d="M 40.558594 14.046875 C 39.882812 14.046875 39.371094 14.382812 39.03125 15.046875 C 38.691406 15.714844 38.519531 16.714844 38.519531 18.050781 C 38.519531 19.382812 38.691406 20.382812 39.03125 21.050781 C 39.371094 21.714844 39.882812 22.050781 40.558594 22.050781 C 41.238281 22.050781 41.75 21.714844 42.089844 21.050781 C 42.433594 20.382812 42.605469 19.382812 42.605469 18.050781 C 42.605469 16.714844 42.433594 15.714844 42.089844 15.046875 C 41.75 14.382812 41.238281 14.046875 40.558594 14.046875 Z M 40.558594 13.007812 C 41.648438 13.007812 42.480469 13.4375 43.054688 14.300781 C 43.632812 15.160156 43.917969 16.410156 43.917969 18.050781 C 43.917969 19.6875 43.632812 20.9375 43.054688 21.800781 C 42.480469 22.660156 41.648438 23.089844 40.558594 23.089844 C 39.46875 23.089844 38.636719 22.660156 38.0625 21.800781 C 37.488281 20.9375 37.199219 19.6875 37.199219 18.050781 C 37.199219 16.410156 37.488281 15.160156 38.0625 14.300781 C 38.636719 13.4375 39.46875 13.007812 40.558594 13.007812 Z M 40.558594 13.007812 "/>
<path style=" stroke:none;fill-rule:nonzero;fill:rgb(0%,0%,0%);fill-opacity:1;" d="M 49.042969 14.046875 C 48.363281 14.046875 47.855469 14.382812 47.515625 15.046875 C 47.171875 15.714844 47.003906 16.714844 47.003906 18.050781 C 47.003906 19.382812 47.171875 20.382812 47.515625 21.050781 C 47.855469 21.714844 48.363281 22.050781 49.042969 22.050781 C 49.722656 22.050781 50.234375 21.714844 50.574219 21.050781 C 50.917969 20.382812 51.085938 19.382812 51.085938 18.050781 C 51.085938 16.714844 50.917969 15.714844 50.574219 15.046875 C 50.234375 14.382812 49.722656 14.046875 49.042969 14.046875 Z M 49.042969 13.007812 C 50.132812 13.007812 50.964844 13.4375 51.539062 14.300781 C 52.113281 15.160156 52.402344 16.410156 52.402344 18.050781 C 52.402344 19.6875 52.113281 20.9375 51.539062 21.800781 C 50.964844 22.660156 50.132812 23.089844 49.042969 23.089844 C 47.953125 23.089844 47.121094 22.660156 46.546875 21.800781 C 45.96875 20.9375 45.683594 19.6875 45.683594 18.050781 C 45.683594 16.410156 45.96875 15.160156 46.546875 14.300781 C 47.121094 13.4375 47.953125 13.007812 49.042969 13.007812 Z M 49.042969 13.007812 "/>
<path style=" stroke:none;fill-rule:nonzero;fill:rgb(0%,0%,0%);fill-opacity:1;" d="M 9.601562 106.746094 L 10.597656 106.746094 L 10.597656 107.894531 C 10.597656 108.320312 10.683594 108.621094 10.859375 108.789062 C 11.03125 108.957031 11.34375 109.039062 11.796875 109.039062 L 12.441406 109.039062 L 12.441406 107.066406 L 13.371094 107.066406 L 13.371094 109.039062 L 19.730469 109.039062 L 19.730469 110.242188 L 13.371094 110.242188 L 13.371094 111.386719 L 12.441406 111.386719 L 12.441406 110.242188 L 11.929688 110.242188 C 11.121094 110.242188 10.527344 110.054688 10.160156 109.675781 C 9.785156 109.296875 9.601562 108.699219 9.601562 107.878906 Z M 9.601562 106.746094 "/>
<path style=" stroke:none;fill-rule:nonzero;fill:rgb(0%,0%,0%);fill-opacity:1;" d="M 9.613281 102.867188 C 10.613281 103.449219 11.597656 103.878906 12.578125 104.164062 C 13.554688 104.445312 14.542969 104.585938 15.546875 104.585938 C 16.546875 104.585938 17.539062 104.445312 18.523438 104.160156 C 19.507812 103.875 20.496094 103.445312 21.488281 102.867188 L 21.488281 103.910156 C 20.46875 104.558594 19.464844 105.046875 18.480469 105.371094 C 17.496094 105.691406 16.519531 105.855469 15.546875 105.855469 C 14.578125 105.855469 13.601562 105.695312 12.621094 105.375 C 11.640625 105.050781 10.636719 104.5625 9.613281 103.910156 Z M 9.613281 102.867188 "/>
<path style=" stroke:none;fill-rule:nonzero;fill:rgb(0%,0%,0%);fill-opacity:1;" d="M 12.441406 94.480469 L 15.988281 97.117188 L 19.730469 94.34375 L 19.730469 95.757812 L 16.867188 97.878906 L 19.730469 100 L 19.730469 101.414062 L 15.917969 98.582031 L 12.441406 101.175781 L 12.441406 99.761719 L 15.039062 97.828125 L 12.441406 95.894531 Z M 12.441406 94.480469 "/>
<path style=" stroke:none;fill-rule:nonzero;fill:rgb(0%,0%,0%);fill-opacity:1;" d="M 9.613281 92.839844 L 9.613281 91.796875 C 10.636719 91.148438 11.640625 90.660156 12.621094 90.335938 C 13.601562 90.015625 14.578125 89.851562 15.546875 89.851562 C 16.519531 89.851562 17.496094 90.015625 18.480469 90.335938 C 19.464844 90.660156 20.46875 91.148438 21.488281 91.796875 L 21.488281 92.839844 C 20.496094 92.261719 19.507812 91.832031 18.523438 91.546875 C 17.539062 91.261719 16.546875 91.121094 15.546875 91.121094 C 14.542969 91.121094 13.554688 91.261719 12.578125 91.546875 C 11.597656 91.832031 10.613281 92.261719 9.613281 92.839844 Z M 9.613281 92.839844 "/>
<path style="fill:none;stroke-width:1.5;stroke-linecap:square;stroke-linejoin:round;stroke:rgb(12.156863%,46.666667%,70.588237%);stroke-opacity:1;stroke-miterlimit:4;" d="M 55.842773 13.376953 L 60.459961 25.892578 L 64.898437 37.294922 L 69.249023 47.871094 L 73.508789 57.65625 L 77.680664 66.685547 L 81.764648 74.994141 L 85.760742 82.617188 L 89.575195 89.431641 L 93.304687 95.648438 L 96.943359 101.296875 L 100.494141 106.40625 L 103.957031 111.008789 L 107.332031 115.12793 L 110.616211 118.798828 L 113.8125 122.047852 L 116.917969 124.895508 L 120.026367 127.444336 L 123.043945 129.626953 L 125.973633 131.475586 L 128.81543 133.007812 L 131.654297 134.288086 L 134.408203 135.290039 L 137.15918 136.051758 L 139.822266 136.561523 L 142.485352 136.851562 L 145.148437 136.918945 L 147.811523 136.763672 L 150.474609 136.385742 L 153.137695 135.785156 L 155.888672 134.929688 L 158.642578 133.839844 L 161.393555 132.509766 L 164.235352 130.889648 L 167.165039 128.953125 L 170.094727 126.74707 L 173.112305 124.192383 L 176.217773 121.265625 L 179.414062 117.9375 L 182.610352 114.290039 L 185.894531 110.208984 L 189.269531 105.665039 L 192.729492 100.628906 L 196.280273 95.074219 L 199.921875 88.97168 L 203.648437 82.289062 L 207.556641 74.818359 L 211.549805 66.685547 L 215.633789 57.852539 L 219.805664 48.290039 L 224.068359 37.959961 L 228.416016 26.827148 L 232.854492 14.856445 L 233.299805 13.623047 " transform="matrix(1.333333,0,0,1.333333,0.000000000000028422,0)"/>
<path style="fill:none;stroke-width:1.5;stroke-linecap:square;stroke-linejoin:round;stroke:rgb(100%,49.803922%,5.490196%);stroke-opacity:1;stroke-miterlimit:4;" d="M 233.387695 13.376953 L 197.879883 92.446289 L 176.575195 120.911133 L 163.790039 131.15918 L 156.120117 134.847656 L 151.517578 136.174805 L 148.757812 136.652344 L 147.099609 136.825195 L 146.106445 136.886719 L 145.508789 136.910156 L 145.151367 136.918945 " transform="matrix(1.333333,0,0,1.333333,0.000000000000028422,0)"/>
<path style="fill-rule:nonzero;fill:rgb(100%,49.803922%,5.490196%);fill-opacity:1;stroke-width:1;stroke-linecap:butt;stroke-linejoin:round;stroke:rgb(100%,49.803922%,5.490196%);stroke-opacity:1;stroke-miterlimit:4;" d="M -0.000656128 2.999681 C 0.796219 2.999681 1.557938 2.683274 2.120438 2.120774 C 2.682938 1.558274 2.999344 0.796556 2.999344 -0.000319481 C 2.999344 -0.794265 2.682938 -1.558913 2.120438 -2.121413 C 1.557938 -2.683913 0.796219 -3.000319 -0.000656128 -3.000319 C -0.794601 -3.000319 -1.55925 -2.683913 -2.12175 -2.121413 C -2.68425 -1.558913 -3.000656 -0.794265 -3.000656 -0.000319481 C -3.000656 0.796556 -2.68425 1.558274 -2.12175 2.120774 C -1.55925 2.683274 -0.794601 2.999681 -0.000656128 2.999681 Z M -0.000656128 2.999681 " transform="matrix(1.333333,0,0,1.333333,311.184469,17.836363)"/>
<path style="fill-rule:nonzero;fill:rgb(100%,49.803922%,5.490196%);fill-opacity:1;stroke-width:1;stroke-linecap:butt;stroke-linejoin:round;stroke:rgb(100%,49.803922%,5.490196%);stroke-opacity:1;stroke-miterlimit:4;" d="M 0.00062561 2.999924 C 0.794571 2.999924 1.559219 2.683517 2.121719 2.121017 C 2.684219 1.558517 3.000626 0.796799 3.000626 -0.0000762939 C 3.000626 -0.796951 2.684219 -1.55867 2.121719 -2.12117 C 1.559219 -2.68367 0.794571 -3.000076 0.00062561 -3.000076 C -0.796249 -3.000076 -1.557968 -2.68367 -2.120468 -2.12117 C -2.682968 -1.55867 -2.999374 -0.796951 -2.999374 -0.0000762939 C -2.999374 0.796799 -2.682968 1.558517 -2.120468 2.121017 C -1.557968 2.683517 -0.796249 2.999924 0.00062561 2.999924 Z M 0.00062561 2.999924 " transform="matrix(1.333333,0,0,1.333333,263.83901,123.26182)"/>
<path style="fill-rule:nonzero;fill:rgb(100%,49.803922%,5.490196%);fill-opacity:1;stroke-width:1;stroke-linecap:butt;stroke-linejoin:round;stroke:rgb(100%,49.803922%,5.490196%);stroke-opacity:1;stroke-miterlimit:4;" d="M 0.00138855 2.999893 C 0.795334 2.999893 1.559982 2.683487 2.122482 2.120987 C 2.684982 1.558487 3.001389 0.796768 3.001389 -0.000106812 C 3.001389 -0.796982 2.684982 -1.558701 2.122482 -2.121201 C 1.559982 -2.683701 0.795334 -3.000107 0.00138855 -3.000107 C -0.795486 -3.000107 -1.560135 -2.683701 -2.122635 -2.121201 C -2.685135 -1.558701 -2.998611 -0.796982 -2.998611 -0.000106812 C -2.998611 0.796768 -2.685135 1.558487 -2.122635 2.120987 C -1.560135 2.683487 -0.795486 2.999893 0.00138855 2.999893 Z M 0.00138855 2.999893 " transform="matrix(1.333333,0,0,1.333333,235.431742,161.214986)"/>
<path style="fill-rule:nonzero;fill:rgb(100%,49.803922%,5.490196%);fill-opacity:1;stroke-width:1;stroke-linecap:butt;stroke-linejoin:round;stroke:rgb(100%,49.803922%,5.490196%);stroke-opacity:1;stroke-miterlimit:4;" d="M -0.000488281 3.000595 C 0.796387 3.000595 1.558105 2.684189 2.120605 2.121689 C 2.683105 1.559189 2.999512 0.79454 2.999512 0.000595093 C 2.999512 -0.79628 2.683105 -1.557999 2.120605 -2.120499 C 1.558105 -2.682999 0.796387 -2.999405 -0.000488281 -2.999405 C -0.794434 -2.999405 -1.559082 -2.682999 -2.121582 -2.120499 C -2.684082 -1.557999 -3.000488 -0.79628 -3.000488 0.000595093 C -3.000488 0.79454 -2.684082 1.559189 -2.121582 2.121689 C -1.559082 2.684189 -0.794434 3.000595 -0.000488281 3.000595 Z M -0.000488281 3.000595 " transform="matrix(1.333333,0,0,1.333333,218.38737,174.878113)"/>
<path style="fill-rule:nonzero;fill:rgb(100%,49.803922%,5.490196%);fill-opacity:1;stroke-width:1;stroke-linecap:butt;stroke-linejoin:round;stroke:rgb(100%,49.803922%,5.490196%);stroke-opacity:1;stroke-miterlimit:4;" d="M -0.000457764 3.000015 C 0.796417 3.000015 1.558136 2.683609 2.120636 2.121109 C 2.683136 1.558609 2.999542 0.79689 2.999542 0.0000152588 C 2.999542 -0.79686 2.683136 -1.558578 2.120636 -2.121078 C 1.558136 -2.683578 0.796417 -2.999985 -0.000457764 -2.999985 C -0.794403 -2.999985 -1.559052 -2.683578 -2.121552 -2.121078 C -2.684052 -1.558578 -3.000458 -0.79686 -3.000458 0.0000152588 C -3.000458 0.79689 -2.684052 1.558609 -2.121552 2.121109 C -1.559052 2.683609 -0.794403 3.000015 -0.000457764 3.000015 Z M -0.000457764 3.000015 " transform="matrix(1.333333,0,0,1.333333,208.160767,179.796855)"/>
<path style="fill-rule:nonzero;fill:rgb(100%,49.803922%,5.490196%);fill-opacity:1;stroke-width:1;stroke-linecap:butt;stroke-linejoin:round;stroke:rgb(100%,49.803922%,5.490196%);stroke-opacity:1;stroke-miterlimit:4;" d="M -0.00100708 2.999115 C 0.795868 2.999115 1.557587 2.682709 2.120087 2.120209 C 2.682587 1.557709 2.998993 0.79599 2.998993 -0.00088501 C 2.998993 -0.79483 2.682587 -1.559479 2.120087 -2.121979 C 1.557587 -2.684479 0.795868 -3.000885 -0.00100708 -3.000885 C -0.794952 -3.000885 -1.559601 -2.684479 -2.122101 -2.121979 C -2.684601 -1.559479 -3.001007 -0.79483 -3.001007 -0.00088501 C -3.001007 0.79599 -2.684601 1.557709 -2.122101 2.120209 C -1.559601 2.682709 -0.794952 2.999115 -0.00100708 2.999115 Z M -0.00100708 2.999115 " transform="matrix(1.333333,0,0,1.333333,202.02478,181.567586)"/>
<path style="fill-rule:nonzero;fill:rgb(100%,49.803922%,5.490196%);fill-opacity:1;stroke-width:1;stroke-linecap:butt;stroke-linejoin:round;stroke:rgb(100%,49.803922%,5.490196%);stroke-opacity:1;stroke-miterlimit:4;" d="M 0.000411987 2.99855 C 0.794357 2.99855 1.559006 2.685074 2.121506 2.122574 C 2.684006 1.560074 3.000412 0.795425 3.000412 -0.00144958 C 3.000412 -0.795395 2.684006 -1.560043 2.121506 -2.122543 C 1.559006 -2.685043 0.794357 -3.00145 0.000411987 -3.00145 C -0.796463 -3.00145 -1.558182 -2.685043 -2.120682 -2.122543 C -2.683182 -1.560043 -2.999588 -0.795395 -2.999588 -0.00144958 C -2.999588 0.795425 -2.683182 1.560074 -2.120682 2.122574 C -1.558182 2.685074 -0.796463 2.99855 0.000411987 2.99855 Z M 0.000411987 2.99855 " transform="matrix(1.333333,0,0,1.333333,198.343201,182.205058)"/>
<path style="fill-rule:nonzero;fill:rgb(100%,49.803922%,5.490196%);fill-opacity:1;stroke-width:1;stroke-linecap:butt;stroke-linejoin:round;stroke:rgb(100%,49.803922%,5.490196%);stroke-opacity:1;stroke-miterlimit:4;" d="M -0.00108337 2.999283 C 0.795792 2.999283 1.55751 2.682877 2.12001 2.120377 C 2.68251 1.557877 2.998917 0.796158 2.998917 -0.000717163 C 2.998917 -0.794662 2.68251 -1.559311 2.12001 -2.121811 C 1.55751 -2.684311 0.795792 -3.000717 -0.00108337 -3.000717 C -0.795029 -3.000717 -1.559677 -2.684311 -2.122177 -2.121811 C -2.684677 -1.559311 -3.001083 -0.794662 -3.001083 -0.000717163 C -3.001083 0.796158 -2.684677 1.557877 -2.122177 2.120377 C -1.559677 2.682877 -0.795029 2.999283 -0.00108337 2.999283 Z M -0.00108337 2.999283 " transform="matrix(1.333333,0,0,1.333333,196.134257,182.43455)"/>
<path style="fill-rule:nonzero;fill:rgb(100%,49.803922%,5.490196%);fill-opacity:1;stroke-width:1;stroke-linecap:butt;stroke-linejoin:round;stroke:rgb(100%,49.803922%,5.490196%);stroke-opacity:1;stroke-miterlimit:4;" d="M -0.000213623 2.99884 C 0.796661 2.99884 1.55838 2.685364 2.12088 2.119934 C 2.68338 1.557434 2.999786 0.795715 2.999786 -0.00115967 C 2.999786 -0.795105 2.68338 -1.559753 2.12088 -2.122253 C 1.55838 -2.684753 0.796661 -3.00116 -0.000213623 -3.00116 C -0.794159 -3.00116 -1.558807 -2.684753 -2.121307 -2.122253 C -2.683807 -1.559753 -3.000214 -0.795105 -3.000214 -0.00115967 C -3.000214 0.795715 -2.683807 1.557434 -2.121307 2.119934 C -1.558807 2.685364 -0.794159 2.99884 -0.000213623 2.99884 Z M -0.000213623 2.99884 " transform="matrix(1.333333,0,0,1.333333,194.808879,182.517171)"/>
<path style="fill-rule:nonzero;fill:rgb(100%,49.803922%,5.490196%);fill-opacity:1;stroke-width:1;stroke-linecap:butt;stroke-linejoin:round;stroke:rgb(100%,49.803922%,5.490196%);stroke-opacity:1;stroke-miterlimit:4;" d="M 0.00146484 2.999969 C 0.79541 2.999969 1.560059 2.683563 2.122559 2.121063 C 2.685059 1.558563 3.001465 0.796844 3.001465 -0.0000305176 C 3.001465 -0.796906 2.685059 -1.558624 2.122559 -2.121124 C 1.560059 -2.683624 0.79541 -3.000031 0.00146484 -3.000031 C -0.79541 -3.000031 -1.560059 -2.683624 -2.122559 -2.121124 C -2.685059 -1.558624 -2.998535 -0.796906 -2.998535 -0.0000305176 C -2.998535 0.796844 -2.685059 1.558563 -2.122559 2.121063 C -1.560059 2.683563 -0.79541 2.999969 0.00146484 2.999969 Z M 0.00146484 2.999969 " transform="matrix(1.333333,0,0,1.333333,194.013672,182.546916)"/>
<path style="fill-rule:nonzero;fill:rgb(100%,49.803922%,5.490196%);fill-opacity:1;stroke-width:1;stroke-linecap:butt;stroke-linejoin:round;stroke:rgb(100%,49.803922%,5.490196%);stroke-opacity:1;stroke-miterlimit:4;" d="M -0.0010376 3.000732 C 0.795837 3.000732 1.557556 2.684326 2.120056 2.121826 C 2.682556 1.559326 2.998962 0.794678 2.998962 0.000732422 C 2.998962 -0.796143 2.682556 -1.557861 2.120056 -2.120361 C 1.557556 -2.682861 0.795837 -2.999268 -0.0010376 -2.999268 C -0.794983 -2.999268 -1.559631 -2.682861 -2.122131 -2.120361 C -2.684631 -1.557861 -3.001038 -0.796143 -3.001038 0.000732422 C -3.001038 0.794678 -2.684631 1.559326 -2.122131 2.121826 C -1.559631 2.684326 -0.794983 3.000732 -0.0010376 3.000732 Z M -0.0010376 3.000732 " transform="matrix(1.333333,0,0,1.333333,193.53654,182.557617)"/>
<path style="fill:none;stroke-width:0.8;stroke-linecap:square;stroke-linejoin:miter;stroke:rgb(0%,0%,0%);stroke-opacity:1;stroke-miterlimit:4;" d="M 46.96582 143.100586 L 46.96582 7.201172 " transform="matrix(1.333333,0,0,1.333333,0.000000000000028422,0)"/>
<path style="fill:none;stroke-width:0.8;stroke-linecap:square;stroke-linejoin:miter;stroke:rgb(0%,0%,0%);stroke-opacity:1;stroke-miterlimit:4;" d="M 242.264648 143.100586 L 242.264648 7.201172 " transform="matrix(1.333333,0,0,1.333333,0.000000000000028422,0)"/>
<path style="fill:none;stroke-width:0.8;stroke-linecap:square;stroke-linejoin:miter;stroke:rgb(0%,0%,0%);stroke-opacity:1;stroke-miterlimit:4;" d="M 46.96582 143.100586 L 242.264648 143.100586 " transform="matrix(1.333333,0,0,1.333333,0.000000000000028422,0)"/>
<path style="fill:none;stroke-width:0.8;stroke-linecap:square;stroke-linejoin:miter;stroke:rgb(0%,0%,0%);stroke-opacity:1;stroke-miterlimit:4;" d="M 46.96582 7.201172 L 242.264648 7.201172 " transform="matrix(1.333333,0,0,1.333333,0.000000000000028422,0)"/>
</g>
</svg>
