<?xml version="1.0" encoding="UTF-8"?>
<svg xmlns="http://www.w3.org/2000/svg" xmlns:xlink="http://www.w3.org/1999/xlink" width="330.637492" height="240.875" viewBox="0 0 330.637492 240.875" version="1.1">
<defs>
<clipPath id="clip1">
  <path d="M 71 9.601562 L 74 9.601562 L 74 190.800781 L 71 190.800781 Z M 71 9.601562 "/>
</clipPath>
<clipPath id="clip2">
  <path d="M 136 9.601562 L 138 9.601562 L 138 190.800781 L 136 190.800781 Z M 136 9.601562 "/>
</clipPath>
<clipPath id="clip3">
  <path d="M 201 9.601562 L 203 9.601562 L 203 190.800781 L 201 190.800781 Z M 201 9.601562 "/>
</clipPath>
<clipPath id="clip4">
  <path d="M 265 9.601562 L 268 9.601562 L 268 190.800781 L 265 190.800781 Z M 265 9.601562 "/>
</clipPath>
<clipPath id="clip5">
  <path d="M 60.636719 181 L 321.039062 181 L 321.039062 184 L 60.636719 184 Z M 60.636719 181 "/>
</clipPath>
<clipPath id="clip6">
  <path d="M 60.636719 132 L 321.039062 132 L 321.039062 135 L 60.636719 135 Z M 60.636719 132 "/>
</clipPath>
<clipPath id="clip7">
  <path d="M 60.636719 83 L 321.039062 83 L 321.039062 86 L 60.636719 86 Z M 60.636719 83 "/>
</clipPath>
<clipPath id="clip8">
  <path d="M 60.636719 34 L 321.039062 34 L 321.039062 36 L 60.636719 36 Z M 60.636719 34 "/>
</clipPath>
<clipPath id="clip9">
  <path d="M 60.636719 28 L 311 28 L 311 184 L 60.636719 184 Z M 60.636719 28 "/>
</clipPath>
</defs>
<g id="surface1">
<path style=" stroke:none;fill-rule:nonzero;fill:rgb(100%,100%,100%);fill-opacity:1;" d="M 60.636719 190.800781 L 321.039062 190.800781 L 321.039062 9.601562 L 60.636719 9.601562 Z M 60.636719 190.800781 "/>
<g clip-path="url(#clip1)" clip-rule="nonzero">
<path style="fill:none;stroke-width:0.8;stroke-linecap:square;stroke-linejoin:round;stroke:rgb(69.01961%,69.01961%,69.01961%);stroke-opacity:1;stroke-miterlimit:4;" d="M 54.354492 143.100586 L 54.354492 7.201172 " transform="matrix(1.333333,0,0,1.333333,0.000000000000028422,0)"/>
</g>
<path style="fill:none;stroke-width:0.8;stroke-linecap:butt;stroke-linejoin:round;stroke:rgb(0%,0%,0%);stroke-opacity:1;stroke-miterlimit:4;" d="M -0.000904083 0.000579834 L -0.000904083 3.498627 " transform="matrix(1.333333,0,0,1.333333,72.473862,190.800008)"/>
<path style=" stroke:none;fill-rule:nonzero;fill:rgb(0%,0%,0%);fill-opacity:1;" d="M 62.394531 209.054688 L 64.542969 209.054688 L 64.542969 201.640625 L 62.207031 202.109375 L 62.207031 200.910156 L 64.53125 200.441406 L 65.84375 200.441406 L 65.84375 209.054688 L 67.992188 209.054688 L 67.992188 210.164062 L 62.394531 210.164062 Z M 62.394531 209.054688 "/>
<path style=" stroke:none;fill-rule:nonzero;fill:rgb(0%,0%,0%);fill-opacity:1;" d="M 73.460938 201.308594 C 72.785156 201.308594 72.277344 201.640625 71.933594 202.308594 C 71.59375 202.972656 71.421875 203.976562 71.421875 205.3125 C 71.421875 206.644531 71.59375 207.644531 71.933594 208.308594 C 72.277344 208.976562 72.785156 209.308594 73.460938 209.308594 C 74.144531 209.308594 74.652344 208.976562 74.996094 208.308594 C 75.335938 207.644531 75.507812 206.644531 75.507812 205.3125 C 75.507812 203.976562 75.335938 202.972656 74.996094 202.308594 C 74.652344 201.640625 74.144531 201.308594 73.460938 201.308594 Z M 73.460938 200.265625 C 74.550781 200.265625 75.382812 200.699219 75.960938 201.558594 C 76.535156 202.421875 76.820312 203.671875 76.820312 205.3125 C 76.820312 206.949219 76.535156 208.199219 75.960938 209.058594 C 75.382812 209.921875 74.550781 210.351562 73.460938 210.351562 C 72.371094 210.351562 71.539062 209.921875 70.964844 209.058594 C 70.390625 208.199219 70.101562 206.949219 70.101562 205.3125 C 70.101562 203.671875 70.390625 202.421875 70.964844 201.558594 C 71.539062 200.699219 72.371094 200.265625 73.460938 200.265625 Z M 73.460938 200.265625 "/>
<path style=" stroke:none;fill-rule:nonzero;fill:rgb(0%,0%,0%);fill-opacity:1;" d="M 80.800781 198.859375 C 80.328125 198.859375 79.972656 199.09375 79.730469 199.558594 C 79.492188 200.027344 79.375 200.726562 79.375 201.664062 C 79.375 202.59375 79.492188 203.296875 79.730469 203.761719 C 79.972656 204.230469 80.328125 204.460938 80.800781 204.460938 C 81.277344 204.460938 81.636719 204.230469 81.875 203.761719 C 82.113281 203.296875 82.234375 202.59375 82.234375 201.664062 C 82.234375 200.726562 82.113281 200.027344 81.875 199.558594 C 81.636719 199.09375 81.277344 198.859375 80.800781 198.859375 Z M 80.800781 198.132812 C 81.5625 198.132812 82.148438 198.433594 82.550781 199.035156 C 82.953125 199.640625 83.152344 200.515625 83.152344 201.664062 C 83.152344 202.808594 82.953125 203.683594 82.550781 204.285156 C 82.148438 204.890625 81.5625 205.191406 80.800781 205.191406 C 80.039062 205.191406 79.457031 204.890625 79.054688 204.285156 C 78.652344 203.683594 78.449219 202.808594 78.449219 201.664062 C 78.449219 200.515625 78.652344 199.640625 79.054688 199.035156 C 79.457031 198.433594 80.039062 198.132812 80.800781 198.132812 Z M 80.800781 198.132812 "/>
<g clip-path="url(#clip2)" clip-rule="nonzero">
<path style="fill:none;stroke-width:0.8;stroke-linecap:square;stroke-linejoin:round;stroke:rgb(69.01961%,69.01961%,69.01961%);stroke-opacity:1;stroke-miterlimit:4;" d="M 102.855469 143.100586 L 102.855469 7.201172 " transform="matrix(1.333333,0,0,1.333333,0.000000000000028422,0)"/>
</g>
<path style="fill:none;stroke-width:0.8;stroke-linecap:butt;stroke-linejoin:round;stroke:rgb(0%,0%,0%);stroke-opacity:1;stroke-miterlimit:4;" d="M -0.000663757 0.000579834 L -0.000663757 3.498627 " transform="matrix(1.333333,0,0,1.333333,137.14151,190.800008)"/>
<path style=" stroke:none;fill-rule:nonzero;fill:rgb(0%,0%,0%);fill-opacity:1;" d="M 127.0625 209.066406 L 129.210938 209.066406 L 129.210938 201.652344 L 126.871094 202.121094 L 126.871094 200.921875 L 129.199219 200.453125 L 130.511719 200.453125 L 130.511719 209.066406 L 132.660156 209.066406 L 132.660156 210.171875 L 127.0625 210.171875 Z M 127.0625 209.066406 "/>
<path style=" stroke:none;fill-rule:nonzero;fill:rgb(0%,0%,0%);fill-opacity:1;" d="M 138.128906 201.320312 C 137.453125 201.320312 136.941406 201.652344 136.601562 202.320312 C 136.261719 202.984375 136.089844 203.984375 136.089844 205.324219 C 136.089844 206.65625 136.261719 207.65625 136.601562 208.320312 C 136.941406 208.988281 137.453125 209.320312 138.128906 209.320312 C 138.8125 209.320312 139.320312 208.988281 139.660156 208.320312 C 140.003906 207.65625 140.175781 206.65625 140.175781 205.324219 C 140.175781 203.984375 140.003906 202.984375 139.660156 202.320312 C 139.320312 201.652344 138.8125 201.320312 138.128906 201.320312 Z M 138.128906 200.277344 C 139.21875 200.277344 140.050781 200.707031 140.625 201.570312 C 141.203125 202.433594 141.488281 203.683594 141.488281 205.324219 C 141.488281 206.960938 141.203125 208.207031 140.625 209.070312 C 140.050781 209.933594 139.21875 210.363281 138.128906 210.363281 C 137.039062 210.363281 136.207031 209.933594 135.632812 209.070312 C 135.058594 208.207031 134.769531 206.960938 134.769531 205.324219 C 134.769531 203.683594 135.058594 202.433594 135.632812 201.570312 C 136.207031 200.707031 137.039062 200.277344 138.128906 200.277344 Z M 138.128906 200.277344 "/>
<path style=" stroke:none;fill-rule:nonzero;fill:rgb(0%,0%,0%);fill-opacity:1;" d="M 143.660156 204.292969 L 145.164062 204.292969 L 145.164062 199.101562 L 143.527344 199.429688 L 143.527344 198.59375 L 145.15625 198.265625 L 146.074219 198.265625 L 146.074219 204.292969 L 147.578125 204.292969 L 147.578125 205.070312 L 143.660156 205.070312 Z M 143.660156 204.292969 "/>
<g clip-path="url(#clip3)" clip-rule="nonzero">
<path style="fill:none;stroke-width:0.8;stroke-linecap:square;stroke-linejoin:round;stroke:rgb(69.01961%,69.01961%,69.01961%);stroke-opacity:1;stroke-miterlimit:4;" d="M 151.356445 143.100586 L 151.356445 7.201172 " transform="matrix(1.333333,0,0,1.333333,0.000000000000028422,0)"/>
</g>
<path style="fill:none;stroke-width:0.8;stroke-linecap:butt;stroke-linejoin:round;stroke:rgb(0%,0%,0%);stroke-opacity:1;stroke-miterlimit:4;" d="M -0.000411987 0.000579834 L -0.000411987 3.498627 " transform="matrix(1.333333,0,0,1.333333,201.809143,190.800008)"/>
<path style=" stroke:none;fill-rule:nonzero;fill:rgb(0%,0%,0%);fill-opacity:1;" d="M 191.730469 209.054688 L 193.878906 209.054688 L 193.878906 201.640625 L 191.539062 202.109375 L 191.539062 200.910156 L 193.867188 200.441406 L 195.179688 200.441406 L 195.179688 209.054688 L 197.328125 209.054688 L 197.328125 210.164062 L 191.730469 210.164062 Z M 191.730469 209.054688 "/>
<path style=" stroke:none;fill-rule:nonzero;fill:rgb(0%,0%,0%);fill-opacity:1;" d="M 202.796875 201.308594 C 202.121094 201.308594 201.609375 201.640625 201.269531 202.308594 C 200.929688 202.972656 200.757812 203.976562 200.757812 205.3125 C 200.757812 206.644531 200.929688 207.644531 201.269531 208.308594 C 201.609375 208.976562 202.121094 209.308594 202.796875 209.308594 C 203.476562 209.308594 203.988281 208.976562 204.328125 208.308594 C 204.671875 207.644531 204.84375 206.644531 204.84375 205.3125 C 204.84375 203.976562 204.671875 202.972656 204.328125 202.308594 C 203.988281 201.640625 203.476562 201.308594 202.796875 201.308594 Z M 202.796875 200.265625 C 203.886719 200.265625 204.71875 200.699219 205.292969 201.558594 C 205.871094 202.421875 206.15625 203.671875 206.15625 205.3125 C 206.15625 206.949219 205.871094 208.199219 205.292969 209.058594 C 204.71875 209.921875 203.886719 210.351562 202.796875 210.351562 C 201.707031 210.351562 200.875 209.921875 200.300781 209.058594 C 199.726562 208.199219 199.4375 206.949219 199.4375 205.3125 C 199.4375 203.671875 199.726562 202.421875 200.300781 201.558594 C 200.875 200.699219 201.707031 200.265625 202.796875 200.265625 Z M 202.796875 200.265625 "/>
<path style=" stroke:none;fill-rule:nonzero;fill:rgb(0%,0%,0%);fill-opacity:1;" d="M 208.960938 204.285156 L 212.171875 204.285156 L 212.171875 205.058594 L 207.851562 205.058594 L 207.851562 204.285156 C 208.203125 203.921875 208.679688 203.4375 209.28125 202.828125 C 209.886719 202.21875 210.265625 201.824219 210.417969 201.648438 C 210.714844 201.316406 210.917969 201.039062 211.035156 200.808594 C 211.152344 200.578125 211.210938 200.355469 211.210938 200.132812 C 211.210938 199.769531 211.085938 199.476562 210.832031 199.25 C 210.578125 199.019531 210.246094 198.90625 209.839844 198.90625 C 209.550781 198.90625 209.246094 198.957031 208.925781 199.054688 C 208.605469 199.15625 208.261719 199.308594 207.898438 199.511719 L 207.898438 198.582031 C 208.269531 198.433594 208.617188 198.320312 208.9375 198.246094 C 209.261719 198.167969 209.554688 198.132812 209.820312 198.132812 C 210.527344 198.132812 211.089844 198.308594 211.507812 198.660156 C 211.925781 199.011719 212.136719 199.484375 212.136719 200.074219 C 212.136719 200.351562 212.085938 200.617188 211.980469 200.867188 C 211.875 201.117188 211.683594 201.414062 211.40625 201.753906 C 211.332031 201.84375 211.089844 202.097656 210.683594 202.519531 C 210.277344 202.9375 209.703125 203.527344 208.960938 204.285156 Z M 208.960938 204.285156 "/>
<g clip-path="url(#clip4)" clip-rule="nonzero">
<path style="fill:none;stroke-width:0.8;stroke-linecap:square;stroke-linejoin:round;stroke:rgb(69.01961%,69.01961%,69.01961%);stroke-opacity:1;stroke-miterlimit:4;" d="M 199.857422 143.100586 L 199.857422 7.201172 " transform="matrix(1.333333,0,0,1.333333,0.000000000000028422,0)"/>
</g>
<path style="fill:none;stroke-width:0.8;stroke-linecap:butt;stroke-linejoin:round;stroke:rgb(0%,0%,0%);stroke-opacity:1;stroke-miterlimit:4;" d="M -0.000167847 0.000579834 L -0.000167847 3.498627 " transform="matrix(1.333333,0,0,1.333333,266.476786,190.800008)"/>
<path style=" stroke:none;fill-rule:nonzero;fill:rgb(0%,0%,0%);fill-opacity:1;" d="M 256.398438 209.054688 L 258.546875 209.054688 L 258.546875 201.640625 L 256.207031 202.109375 L 256.207031 200.910156 L 258.53125 200.441406 L 259.847656 200.441406 L 259.847656 209.054688 L 261.996094 209.054688 L 261.996094 210.164062 L 256.398438 210.164062 Z M 256.398438 209.054688 "/>
<path style=" stroke:none;fill-rule:nonzero;fill:rgb(0%,0%,0%);fill-opacity:1;" d="M 267.464844 201.308594 C 266.789062 201.308594 266.277344 201.640625 265.9375 202.308594 C 265.597656 202.972656 265.425781 203.976562 265.425781 205.3125 C 265.425781 206.644531 265.597656 207.644531 265.9375 208.308594 C 266.277344 208.976562 266.789062 209.308594 267.464844 209.308594 C 268.144531 209.308594 268.65625 208.976562 268.996094 208.308594 C 269.339844 207.644531 269.511719 206.644531 269.511719 205.3125 C 269.511719 203.976562 269.339844 202.972656 268.996094 202.308594 C 268.65625 201.640625 268.144531 201.308594 267.464844 201.308594 Z M 267.464844 200.265625 C 268.554688 200.265625 269.386719 200.699219 269.960938 201.558594 C 270.535156 202.421875 270.824219 203.671875 270.824219 205.3125 C 270.824219 206.949219 270.535156 208.199219 269.960938 209.058594 C 269.386719 209.921875 268.554688 210.351562 267.464844 210.351562 C 266.375 210.351562 265.542969 209.921875 264.96875 209.058594 C 264.394531 208.199219 264.105469 206.949219 264.105469 205.3125 C 264.105469 203.671875 264.394531 202.421875 264.96875 201.558594 C 265.542969 200.699219 266.375 200.265625 267.464844 200.265625 Z M 267.464844 200.265625 "/>
<path style=" stroke:none;fill-rule:nonzero;fill:rgb(0%,0%,0%);fill-opacity:1;" d="M 275.625 201.390625 C 276.066406 201.484375 276.410156 201.679688 276.65625 201.976562 C 276.902344 202.277344 277.027344 202.644531 277.027344 203.082031 C 277.027344 203.75 276.796875 204.269531 276.335938 204.640625 C 275.871094 205.007812 275.214844 205.191406 274.367188 205.191406 C 274.082031 205.191406 273.789062 205.164062 273.484375 205.105469 C 273.183594 205.050781 272.871094 204.964844 272.550781 204.851562 L 272.550781 203.964844 C 272.804688 204.113281 273.082031 204.226562 273.386719 204.300781 C 273.691406 204.378906 274.007812 204.414062 274.339844 204.414062 C 274.917969 204.414062 275.355469 204.300781 275.65625 204.074219 C 275.960938 203.847656 276.113281 203.515625 276.113281 203.082031 C 276.113281 202.679688 275.972656 202.367188 275.691406 202.140625 C 275.410156 201.914062 275.019531 201.800781 274.519531 201.800781 L 273.722656 201.800781 L 273.722656 201.042969 L 274.554688 201.042969 C 275.007812 201.042969 275.351562 200.953125 275.59375 200.773438 C 275.832031 200.589844 275.953125 200.332031 275.953125 199.992188 C 275.953125 199.640625 275.828125 199.375 275.582031 199.1875 C 275.332031 199 274.980469 198.90625 274.519531 198.90625 C 274.265625 198.90625 273.992188 198.933594 273.707031 198.988281 C 273.417969 199.042969 273.097656 199.128906 272.753906 199.242188 L 272.753906 198.421875 C 273.101562 198.324219 273.429688 198.253906 273.734375 198.203125 C 274.042969 198.15625 274.328125 198.132812 274.597656 198.132812 C 275.296875 198.132812 275.851562 198.289062 276.257812 198.609375 C 276.664062 198.925781 276.867188 199.355469 276.867188 199.894531 C 276.867188 200.273438 276.761719 200.589844 276.542969 200.847656 C 276.328125 201.109375 276.023438 201.289062 275.625 201.390625 Z M 275.625 201.390625 "/>
<path style="fill:none;stroke-width:0.6;stroke-linecap:butt;stroke-linejoin:round;stroke:rgb(0%,0%,0%);stroke-opacity:1;stroke-miterlimit:4;" d="M 0.000232697 0.000579834 L 0.000232697 1.998627 " transform="matrix(1.333333,0,0,1.333333,62.456721,190.800008)"/>
<path style="fill:none;stroke-width:0.6;stroke-linecap:butt;stroke-linejoin:round;stroke:rgb(0%,0%,0%);stroke-opacity:1;stroke-miterlimit:4;" d="M 0.0000839233 0.000579834 L 0.0000839233 1.998627 " transform="matrix(1.333333,0,0,1.333333,66.206919,190.800008)"/>
<path style="fill:none;stroke-width:0.6;stroke-linecap:butt;stroke-linejoin:round;stroke:rgb(0%,0%,0%);stroke-opacity:1;stroke-miterlimit:4;" d="M 0.000591278 0.000579834 L 0.000591278 1.998627 " transform="matrix(1.333333,0,0,1.333333,69.514837,190.800008)"/>
<path style="fill:none;stroke-width:0.6;stroke-linecap:butt;stroke-linejoin:round;stroke:rgb(0%,0%,0%);stroke-opacity:1;stroke-miterlimit:4;" d="M 0.000480652 0.000579834 L 0.000480652 1.998627 " transform="matrix(1.333333,0,0,1.333333,91.940765,190.800008)"/>
<path style="fill:none;stroke-width:0.6;stroke-linecap:butt;stroke-linejoin:round;stroke:rgb(0%,0%,0%);stroke-opacity:1;stroke-miterlimit:4;" d="M -0.0000305176 0.000579834 L -0.0000305176 1.998627 " transform="matrix(1.333333,0,0,1.333333,103.328166,190.800008)"/>
<path style="fill:none;stroke-width:0.6;stroke-linecap:butt;stroke-linejoin:round;stroke:rgb(0%,0%,0%);stroke-opacity:1;stroke-miterlimit:4;" d="M -0.00106049 0.000579834 L -0.00106049 1.998627 " transform="matrix(1.333333,0,0,1.333333,111.407664,190.800008)"/>
<path style="fill:none;stroke-width:0.6;stroke-linecap:butt;stroke-linejoin:round;stroke:rgb(0%,0%,0%);stroke-opacity:1;stroke-miterlimit:4;" d="M 0.00088501 0.000579834 L 0.00088501 1.998627 " transform="matrix(1.333333,0,0,1.333333,117.674601,190.800008)"/>
<path style="fill:none;stroke-width:0.6;stroke-linecap:butt;stroke-linejoin:round;stroke:rgb(0%,0%,0%);stroke-opacity:1;stroke-miterlimit:4;" d="M 0.0013504 0.000579834 L 0.0013504 1.998627 " transform="matrix(1.333333,0,0,1.333333,122.795074,190.800008)"/>
<path style="fill:none;stroke-width:0.6;stroke-linecap:butt;stroke-linejoin:round;stroke:rgb(0%,0%,0%);stroke-opacity:1;stroke-miterlimit:4;" d="M 0.000480652 0.000579834 L 0.000480652 1.998627 " transform="matrix(1.333333,0,0,1.333333,127.124359,190.800008)"/>
<path style="fill:none;stroke-width:0.6;stroke-linecap:butt;stroke-linejoin:round;stroke:rgb(0%,0%,0%);stroke-opacity:1;stroke-miterlimit:4;" d="M 0.000328064 0.000579834 L 0.000328064 1.998627 " transform="matrix(1.333333,0,0,1.333333,130.874563,190.800008)"/>
<path style="fill:none;stroke-width:0.6;stroke-linecap:butt;stroke-linejoin:round;stroke:rgb(0%,0%,0%);stroke-opacity:1;stroke-miterlimit:4;" d="M 0.000839233 0.000579834 L 0.000839233 1.998627 " transform="matrix(1.333333,0,0,1.333333,134.182475,190.800008)"/>
<path style="fill:none;stroke-width:0.6;stroke-linecap:butt;stroke-linejoin:round;stroke:rgb(0%,0%,0%);stroke-opacity:1;stroke-miterlimit:4;" d="M 0.000724792 0.000579834 L 0.000724792 1.998627 " transform="matrix(1.333333,0,0,1.333333,156.608409,190.800008)"/>
<path style="fill:none;stroke-width:0.6;stroke-linecap:butt;stroke-linejoin:round;stroke:rgb(0%,0%,0%);stroke-opacity:1;stroke-miterlimit:4;" d="M 0.000213623 0.000579834 L 0.000213623 1.998627 " transform="matrix(1.333333,0,0,1.333333,167.995809,190.800008)"/>
<path style="fill:none;stroke-width:0.6;stroke-linecap:butt;stroke-linejoin:round;stroke:rgb(0%,0%,0%);stroke-opacity:1;stroke-miterlimit:4;" d="M -0.000808716 0.000579834 L -0.000808716 1.998627 " transform="matrix(1.333333,0,0,1.333333,176.075297,190.800008)"/>
<path style="fill:none;stroke-width:0.6;stroke-linecap:butt;stroke-linejoin:round;stroke:rgb(0%,0%,0%);stroke-opacity:1;stroke-miterlimit:4;" d="M 0.00112915 0.000579834 L 0.00112915 1.998627 " transform="matrix(1.333333,0,0,1.333333,182.342244,190.800008)"/>
<path style="fill:none;stroke-width:0.6;stroke-linecap:butt;stroke-linejoin:round;stroke:rgb(0%,0%,0%);stroke-opacity:1;stroke-miterlimit:4;" d="M -0.00132751 0.000579834 L -0.00132751 1.998627 " transform="matrix(1.333333,0,0,1.333333,187.462708,190.800008)"/>
<path style="fill:none;stroke-width:0.6;stroke-linecap:butt;stroke-linejoin:round;stroke:rgb(0%,0%,0%);stroke-opacity:1;stroke-miterlimit:4;" d="M 0.000717163 0.000579834 L 0.000717163 1.998627 " transform="matrix(1.333333,0,0,1.333333,191.792013,190.800008)"/>
<path style="fill:none;stroke-width:0.6;stroke-linecap:butt;stroke-linejoin:round;stroke:rgb(0%,0%,0%);stroke-opacity:1;stroke-miterlimit:4;" d="M 0.000564575 0.000579834 L 0.000564575 1.998627 " transform="matrix(1.333333,0,0,1.333333,195.542216,190.800008)"/>
<path style="fill:none;stroke-width:0.6;stroke-linecap:butt;stroke-linejoin:round;stroke:rgb(0%,0%,0%);stroke-opacity:1;stroke-miterlimit:4;" d="M 0.00108337 0.000579834 L 0.00108337 1.998627 " transform="matrix(1.333333,0,0,1.333333,198.850118,190.800008)"/>
<path style="fill:none;stroke-width:0.6;stroke-linecap:butt;stroke-linejoin:round;stroke:rgb(0%,0%,0%);stroke-opacity:1;stroke-miterlimit:4;" d="M 0.000976562 0.000579834 L 0.000976562 1.998627 " transform="matrix(1.333333,0,0,1.333333,221.276042,190.800008)"/>
<path style="fill:none;stroke-width:0.6;stroke-linecap:butt;stroke-linejoin:round;stroke:rgb(0%,0%,0%);stroke-opacity:1;stroke-miterlimit:4;" d="M 0.000457764 0.000579834 L 0.000457764 1.998627 " transform="matrix(1.333333,0,0,1.333333,232.663452,190.800008)"/>
<path style="fill:none;stroke-width:0.6;stroke-linecap:butt;stroke-linejoin:round;stroke:rgb(0%,0%,0%);stroke-opacity:1;stroke-miterlimit:4;" d="M -0.000564575 0.000579834 L -0.000564575 1.998627 " transform="matrix(1.333333,0,0,1.333333,240.74294,190.800008)"/>
<path style="fill:none;stroke-width:0.6;stroke-linecap:butt;stroke-linejoin:round;stroke:rgb(0%,0%,0%);stroke-opacity:1;stroke-miterlimit:4;" d="M 0.00137329 0.000579834 L 0.00137329 1.998627 " transform="matrix(1.333333,0,0,1.333333,247.009888,190.800008)"/>
<path style="fill:none;stroke-width:0.6;stroke-linecap:butt;stroke-linejoin:round;stroke:rgb(0%,0%,0%);stroke-opacity:1;stroke-miterlimit:4;" d="M -0.00108337 0.000579834 L -0.00108337 1.998627 " transform="matrix(1.333333,0,0,1.333333,252.130351,190.800008)"/>
<path style="fill:none;stroke-width:0.6;stroke-linecap:butt;stroke-linejoin:round;stroke:rgb(0%,0%,0%);stroke-opacity:1;stroke-miterlimit:4;" d="M 0.000961304 0.000579834 L 0.000961304 1.998627 " transform="matrix(1.333333,0,0,1.333333,256.459656,190.800008)"/>
<path style="fill:none;stroke-width:0.6;stroke-linecap:butt;stroke-linejoin:round;stroke:rgb(0%,0%,0%);stroke-opacity:1;stroke-miterlimit:4;" d="M 0.000808716 0.000579834 L 0.000808716 1.998627 " transform="matrix(1.333333,0,0,1.333333,260.209859,190.800008)"/>
<path style="fill:none;stroke-width:0.6;stroke-linecap:butt;stroke-linejoin:round;stroke:rgb(0%,0%,0%);stroke-opacity:1;stroke-miterlimit:4;" d="M 0.00132751 0.000579834 L 0.00132751 1.998627 " transform="matrix(1.333333,0,0,1.333333,263.517761,190.800008)"/>
<path style="fill:none;stroke-width:0.6;stroke-linecap:butt;stroke-linejoin:round;stroke:rgb(0%,0%,0%);stroke-opacity:1;stroke-miterlimit:4;" d="M 0.0012207 0.000579834 L 0.0012207 1.998627 " transform="matrix(1.333333,0,0,1.333333,285.943685,190.800008)"/>
<path style="fill:none;stroke-width:0.6;stroke-linecap:butt;stroke-linejoin:round;stroke:rgb(0%,0%,0%);stroke-opacity:1;stroke-miterlimit:4;" d="M 0.000701904 0.000579834 L 0.000701904 1.998627 " transform="matrix(1.333333,0,0,1.333333,297.331095,190.800008)"/>
<path style="fill:none;stroke-width:0.6;stroke-linecap:butt;stroke-linejoin:round;stroke:rgb(0%,0%,0%);stroke-opacity:1;stroke-miterlimit:4;" d="M -0.000320435 0.000579834 L -0.000320435 1.998627 " transform="matrix(1.333333,0,0,1.333333,305.410583,190.800008)"/>
<path style="fill:none;stroke-width:0.6;stroke-linecap:butt;stroke-linejoin:round;stroke:rgb(0%,0%,0%);stroke-opacity:1;stroke-miterlimit:4;" d="M -0.00131226 0.000579834 L -0.00131226 1.998627 " transform="matrix(1.333333,0,0,1.333333,311.677531,190.800008)"/>
<path style="fill:none;stroke-width:0.6;stroke-linecap:butt;stroke-linejoin:round;stroke:rgb(0%,0%,0%);stroke-opacity:1;stroke-miterlimit:4;" d="M -0.000839233 0.000579834 L -0.000839233 1.998627 " transform="matrix(1.333333,0,0,1.333333,316.797994,190.800008)"/>
<path style=" stroke:none;fill-rule:nonzero;fill:rgb(0%,0%,0%);fill-opacity:1;" d="M 166.332031 219.140625 L 166.332031 221.210938 L 168.796875 221.210938 L 168.796875 222.140625 L 166.332031 222.140625 L 166.332031 226.101562 C 166.332031 226.695312 166.410156 227.078125 166.574219 227.246094 C 166.738281 227.414062 167.066406 227.5 167.566406 227.5 L 168.796875 227.5 L 168.796875 228.503906 L 167.566406 228.503906 C 166.644531 228.503906 166.003906 228.328125 165.652344 227.984375 C 165.300781 227.640625 165.125 227.011719 165.125 226.101562 L 165.125 222.140625 L 164.246094 222.140625 L 164.246094 221.210938 L 165.125 221.210938 L 165.125 219.140625 Z M 166.332031 219.140625 "/>
<path style=" stroke:none;fill-rule:nonzero;fill:rgb(0%,0%,0%);fill-opacity:1;" d="M 173.199219 222.050781 C 172.554688 222.050781 172.046875 222.300781 171.675781 222.800781 C 171.300781 223.304688 171.113281 223.992188 171.113281 224.863281 C 171.113281 225.734375 171.300781 226.421875 171.671875 226.921875 C 172.042969 227.425781 172.550781 227.675781 173.199219 227.675781 C 173.835938 227.675781 174.34375 227.421875 174.714844 226.921875 C 175.089844 226.417969 175.273438 225.730469 175.273438 224.863281 C 175.273438 224 175.089844 223.3125 174.714844 222.808594 C 174.34375 222.304688 173.835938 222.050781 173.199219 222.050781 Z M 173.199219 221.035156 C 174.238281 221.035156 175.058594 221.375 175.652344 222.050781 C 176.246094 222.726562 176.546875 223.664062 176.546875 224.863281 C 176.546875 226.054688 176.246094 226.992188 175.652344 227.671875 C 175.058594 228.351562 174.238281 228.691406 173.199219 228.691406 C 172.152344 228.691406 171.332031 228.351562 170.738281 227.671875 C 170.148438 226.992188 169.851562 226.054688 169.851562 224.863281 C 169.851562 223.664062 170.148438 222.726562 170.738281 222.050781 C 171.332031 221.375 172.152344 221.035156 173.199219 221.035156 Z M 173.199219 221.035156 "/>
<path style=" stroke:none;fill-rule:nonzero;fill:rgb(0%,0%,0%);fill-opacity:1;" d="M 178.484375 218.371094 L 179.6875 218.371094 L 179.6875 224.355469 L 183.261719 221.210938 L 184.792969 221.210938 L 180.925781 224.621094 L 184.957031 228.503906 L 183.394531 228.503906 L 179.6875 224.941406 L 179.6875 228.503906 L 178.484375 228.503906 Z M 178.484375 218.371094 "/>
<path style=" stroke:none;fill-rule:nonzero;fill:rgb(0%,0%,0%);fill-opacity:1;" d="M 192.003906 224.554688 L 192.003906 225.140625 L 186.496094 225.140625 C 186.550781 225.964844 186.796875 226.59375 187.242188 227.027344 C 187.6875 227.460938 188.308594 227.675781 189.101562 227.675781 C 189.5625 227.675781 190.007812 227.617188 190.4375 227.507812 C 190.871094 227.394531 191.300781 227.222656 191.726562 226.996094 L 191.726562 228.132812 C 191.296875 228.3125 190.855469 228.453125 190.402344 228.546875 C 189.953125 228.644531 189.496094 228.691406 189.03125 228.691406 C 187.867188 228.691406 186.945312 228.351562 186.265625 227.675781 C 185.585938 227 185.246094 226.082031 185.246094 224.925781 C 185.246094 223.734375 185.570312 222.789062 186.214844 222.085938 C 186.859375 221.386719 187.726562 221.035156 188.824219 221.035156 C 189.804688 221.035156 190.578125 221.351562 191.148438 221.984375 C 191.71875 222.613281 192.003906 223.472656 192.003906 224.554688 Z M 190.808594 224.203125 C 190.800781 223.550781 190.617188 223.027344 190.257812 222.636719 C 189.898438 222.246094 189.425781 222.050781 188.835938 222.050781 C 188.167969 222.050781 187.632812 222.238281 187.230469 222.617188 C 186.828125 222.996094 186.597656 223.527344 186.535156 224.210938 Z M 190.808594 224.203125 "/>
<path style=" stroke:none;fill-rule:nonzero;fill:rgb(0%,0%,0%);fill-opacity:1;" d="M 200.035156 224.101562 L 200.035156 228.503906 L 198.835938 228.503906 L 198.835938 224.140625 C 198.835938 223.449219 198.703125 222.933594 198.433594 222.589844 C 198.164062 222.25 197.757812 222.078125 197.222656 222.078125 C 196.574219 222.078125 196.0625 222.285156 195.691406 222.695312 C 195.316406 223.105469 195.128906 223.667969 195.128906 224.382812 L 195.128906 228.503906 L 193.925781 228.503906 L 193.925781 221.210938 L 195.128906 221.210938 L 195.128906 222.34375 C 195.417969 221.90625 195.753906 221.578125 196.140625 221.359375 C 196.53125 221.144531 196.980469 221.035156 197.488281 221.035156 C 198.324219 221.035156 198.957031 221.292969 199.386719 221.8125 C 199.820312 222.332031 200.035156 223.09375 200.035156 224.101562 Z M 200.035156 224.101562 "/>
<path style=" stroke:none;fill-rule:nonzero;fill:rgb(0%,0%,0%);fill-opacity:1;" d="M 202.726562 226.847656 L 204.101562 226.847656 L 204.101562 228.503906 L 202.726562 228.503906 Z M 202.726562 221.609375 L 204.101562 221.609375 L 204.101562 223.261719 L 202.726562 223.261719 Z M 202.726562 221.609375 "/>
<path style=" stroke:none;fill-rule:nonzero;fill:rgb(0%,0%,0%);fill-opacity:1;" d="M 217.214844 221.210938 L 214.578125 224.757812 L 217.351562 228.503906 L 215.9375 228.503906 L 213.816406 225.636719 L 211.695312 228.503906 L 210.28125 228.503906 L 213.113281 224.6875 L 210.519531 221.210938 L 211.933594 221.210938 L 213.867188 223.808594 L 215.800781 221.210938 Z M 217.214844 221.210938 "/>
<g clip-path="url(#clip5)" clip-rule="nonzero">
<path style="fill:none;stroke-width:0.8;stroke-linecap:square;stroke-linejoin:round;stroke:rgb(69.01961%,69.01961%,69.01961%);stroke-opacity:1;stroke-miterlimit:4;" d="M 45.477539 136.921875 L 240.779297 136.921875 " transform="matrix(1.333333,0,0,1.333333,0.000000000000028422,0)"/>
</g>
<path style="fill:none;stroke-width:0.8;stroke-linecap:butt;stroke-linejoin:round;stroke:rgb(0%,0%,0%);stroke-opacity:1;stroke-miterlimit:4;" d="M -0.000587463 -0.000854492 L -3.498634 -0.000854492 " transform="matrix(1.333333,0,0,1.333333,60.637502,182.563639)"/>
<path style=" stroke:none;fill-rule:nonzero;fill:rgb(0%,0%,0%);fill-opacity:1;" d="M 29.492188 186.421875 L 31.640625 186.421875 L 31.640625 179.003906 L 29.300781 179.472656 L 29.300781 178.273438 L 31.628906 177.804688 L 32.941406 177.804688 L 32.941406 186.421875 L 35.089844 186.421875 L 35.089844 187.527344 L 29.492188 187.527344 Z M 29.492188 186.421875 "/>
<path style=" stroke:none;fill-rule:nonzero;fill:rgb(0%,0%,0%);fill-opacity:1;" d="M 40.558594 178.671875 C 39.882812 178.671875 39.371094 179.007812 39.03125 179.671875 C 38.691406 180.339844 38.519531 181.339844 38.519531 182.675781 C 38.519531 184.007812 38.691406 185.007812 39.03125 185.675781 C 39.371094 186.339844 39.882812 186.675781 40.558594 186.675781 C 41.238281 186.675781 41.75 186.339844 42.089844 185.675781 C 42.433594 185.007812 42.605469 184.007812 42.605469 182.675781 C 42.605469 181.339844 42.433594 180.339844 42.089844 179.671875 C 41.75 179.007812 41.238281 178.671875 40.558594 178.671875 Z M 40.558594 177.632812 C 41.648438 177.632812 42.480469 178.0625 43.054688 178.925781 C 43.632812 179.785156 43.917969 181.035156 43.917969 182.675781 C 43.917969 184.3125 43.632812 185.5625 43.054688 186.425781 C 42.480469 187.285156 41.648438 187.714844 40.558594 187.714844 C 39.46875 187.714844 38.636719 187.285156 38.0625 186.425781 C 37.488281 185.5625 37.199219 184.3125 37.199219 182.675781 C 37.199219 181.035156 37.488281 179.785156 38.0625 178.925781 C 38.636719 178.0625 39.46875 177.632812 40.558594 177.632812 Z M 40.558594 177.632812 "/>
<path style=" stroke:none;fill-rule:nonzero;fill:rgb(0%,0%,0%);fill-opacity:1;" d="M 47.898438 176.226562 C 47.425781 176.226562 47.066406 176.457031 46.828125 176.925781 C 46.589844 177.390625 46.472656 178.089844 46.472656 179.027344 C 46.472656 179.960938 46.589844 180.660156 46.828125 181.125 C 47.066406 181.59375 47.425781 181.828125 47.898438 181.828125 C 48.375 181.828125 48.734375 181.59375 48.972656 181.125 C 49.210938 180.660156 49.328125 179.960938 49.328125 179.027344 C 49.328125 178.089844 49.210938 177.390625 48.972656 176.925781 C 48.734375 176.457031 48.375 176.226562 47.898438 176.226562 Z M 47.898438 175.496094 C 48.660156 175.496094 49.242188 175.796875 49.644531 176.402344 C 50.046875 177.003906 50.25 177.878906 50.25 179.027344 C 50.25 180.171875 50.046875 181.046875 49.644531 181.652344 C 49.242188 182.253906 48.660156 182.554688 47.898438 182.554688 C 47.136719 182.554688 46.554688 182.253906 46.152344 181.652344 C 45.746094 181.046875 45.546875 180.171875 45.546875 179.027344 C 45.546875 177.878906 45.746094 177.003906 46.152344 176.402344 C 46.554688 175.796875 47.136719 175.496094 47.898438 175.496094 Z M 47.898438 175.496094 "/>
<g clip-path="url(#clip6)" clip-rule="nonzero">
<path style="fill:none;stroke-width:0.8;stroke-linecap:square;stroke-linejoin:round;stroke:rgb(69.01961%,69.01961%,69.01961%);stroke-opacity:1;stroke-miterlimit:4;" d="M 45.477539 100.089844 L 240.779297 100.089844 " transform="matrix(1.333333,0,0,1.333333,0.000000000000028422,0)"/>
</g>
<path style="fill:none;stroke-width:0.8;stroke-linecap:butt;stroke-linejoin:round;stroke:rgb(0%,0%,0%);stroke-opacity:1;stroke-miterlimit:4;" d="M -0.000587463 -0.000923157 L -3.498634 -0.000923157 " transform="matrix(1.333333,0,0,1.333333,60.637502,133.454356)"/>
<path style=" stroke:none;fill-rule:nonzero;fill:rgb(0%,0%,0%);fill-opacity:1;" d="M 29.492188 137.324219 L 31.640625 137.324219 L 31.640625 129.90625 L 29.300781 130.375 L 29.300781 129.175781 L 31.628906 128.707031 L 32.941406 128.707031 L 32.941406 137.324219 L 35.089844 137.324219 L 35.089844 138.429688 L 29.492188 138.429688 Z M 29.492188 137.324219 "/>
<path style=" stroke:none;fill-rule:nonzero;fill:rgb(0%,0%,0%);fill-opacity:1;" d="M 40.558594 129.574219 C 39.882812 129.574219 39.371094 129.90625 39.03125 130.574219 C 38.691406 131.238281 38.519531 132.242188 38.519531 133.578125 C 38.519531 134.910156 38.691406 135.910156 39.03125 136.578125 C 39.371094 137.242188 39.882812 137.578125 40.558594 137.578125 C 41.238281 137.578125 41.75 137.242188 42.089844 136.578125 C 42.433594 135.910156 42.605469 134.910156 42.605469 133.578125 C 42.605469 132.242188 42.433594 131.238281 42.089844 130.574219 C 41.75 129.90625 41.238281 129.574219 40.558594 129.574219 Z M 40.558594 128.53125 C 41.648438 128.53125 42.480469 128.964844 43.054688 129.828125 C 43.632812 130.6875 43.917969 131.9375 43.917969 133.578125 C 43.917969 135.214844 43.632812 136.464844 43.054688 137.328125 C 42.480469 138.1875 41.648438 138.617188 40.558594 138.617188 C 39.46875 138.617188 38.636719 138.1875 38.0625 137.328125 C 37.488281 136.464844 37.199219 135.214844 37.199219 133.578125 C 37.199219 131.9375 37.488281 130.6875 38.0625 129.828125 C 38.636719 128.964844 39.46875 128.53125 40.558594 128.53125 Z M 40.558594 128.53125 "/>
<path style=" stroke:none;fill-rule:nonzero;fill:rgb(0%,0%,0%);fill-opacity:1;" d="M 46.089844 132.550781 L 47.59375 132.550781 L 47.59375 127.359375 L 45.957031 127.6875 L 45.957031 126.847656 L 47.582031 126.519531 L 48.503906 126.519531 L 48.503906 132.550781 L 50.007812 132.550781 L 50.007812 133.324219 L 46.089844 133.324219 Z M 46.089844 132.550781 "/>
<g clip-path="url(#clip7)" clip-rule="nonzero">
<path style="fill:none;stroke-width:0.8;stroke-linecap:square;stroke-linejoin:round;stroke:rgb(69.01961%,69.01961%,69.01961%);stroke-opacity:1;stroke-miterlimit:4;" d="M 45.477539 63.257812 L 240.779297 63.257812 " transform="matrix(1.333333,0,0,1.333333,0.000000000000028422,0)"/>
</g>
<path style="fill:none;stroke-width:0.8;stroke-linecap:butt;stroke-linejoin:round;stroke:rgb(0%,0%,0%);stroke-opacity:1;stroke-miterlimit:4;" d="M -0.000587463 -0.000999451 L -3.498634 -0.000999451 " transform="matrix(1.333333,0,0,1.333333,60.637502,84.345083)"/>
<path style=" stroke:none;fill-rule:nonzero;fill:rgb(0%,0%,0%);fill-opacity:1;" d="M 29.492188 88.203125 L 31.640625 88.203125 L 31.640625 80.785156 L 29.300781 81.253906 L 29.300781 80.054688 L 31.628906 79.585938 L 32.941406 79.585938 L 32.941406 88.203125 L 35.089844 88.203125 L 35.089844 89.308594 L 29.492188 89.308594 Z M 29.492188 88.203125 "/>
<path style=" stroke:none;fill-rule:nonzero;fill:rgb(0%,0%,0%);fill-opacity:1;" d="M 40.558594 80.453125 C 39.882812 80.453125 39.371094 80.789062 39.03125 81.453125 C 38.691406 82.121094 38.519531 83.121094 38.519531 84.457031 C 38.519531 85.789062 38.691406 86.789062 39.03125 87.457031 C 39.371094 88.125 39.882812 88.457031 40.558594 88.457031 C 41.238281 88.457031 41.75 88.125 42.089844 87.457031 C 42.433594 86.789062 42.605469 85.789062 42.605469 84.457031 C 42.605469 83.121094 42.433594 82.121094 42.089844 81.453125 C 41.75 80.789062 41.238281 80.453125 40.558594 80.453125 Z M 40.558594 79.414062 C 41.648438 79.414062 42.480469 79.84375 43.054688 80.707031 C 43.632812 81.566406 43.917969 82.816406 43.917969 84.457031 C 43.917969 86.09375 43.632812 87.34375 43.054688 88.207031 C 42.480469 89.066406 41.648438 89.5 40.558594 89.5 C 39.46875 89.5 38.636719 89.066406 38.0625 88.207031 C 37.488281 87.34375 37.199219 86.09375 37.199219 84.457031 C 37.199219 82.816406 37.488281 81.566406 38.0625 80.707031 C 38.636719 79.84375 39.46875 79.414062 40.558594 79.414062 Z M 40.558594 79.414062 "/>
<path style=" stroke:none;fill-rule:nonzero;fill:rgb(0%,0%,0%);fill-opacity:1;" d="M 46.722656 83.429688 L 49.933594 83.429688 L 49.933594 84.203125 L 45.613281 84.203125 L 45.613281 83.429688 C 45.964844 83.070312 46.441406 82.582031 47.042969 81.976562 C 47.648438 81.363281 48.027344 80.972656 48.179688 80.792969 C 48.476562 80.464844 48.679688 80.183594 48.796875 79.953125 C 48.914062 79.726562 48.972656 79.5 48.972656 79.277344 C 48.972656 78.917969 48.847656 78.621094 48.59375 78.394531 C 48.339844 78.164062 48.007812 78.050781 47.601562 78.050781 C 47.3125 78.050781 47.007812 78.101562 46.6875 78.203125 C 46.367188 78.300781 46.023438 78.453125 45.660156 78.660156 L 45.660156 77.726562 C 46.03125 77.578125 46.375 77.46875 46.699219 77.390625 C 47.023438 77.316406 47.316406 77.277344 47.582031 77.277344 C 48.289062 77.277344 48.851562 77.453125 49.269531 77.808594 C 49.6875 78.160156 49.898438 78.628906 49.898438 79.21875 C 49.898438 79.5 49.847656 79.765625 49.742188 80.015625 C 49.636719 80.265625 49.445312 80.558594 49.167969 80.898438 C 49.09375 80.988281 48.851562 81.242188 48.445312 81.664062 C 48.039062 82.085938 47.464844 82.671875 46.722656 83.429688 Z M 46.722656 83.429688 "/>
<g clip-path="url(#clip8)" clip-rule="nonzero">
<path style="fill:none;stroke-width:0.8;stroke-linecap:square;stroke-linejoin:round;stroke:rgb(69.01961%,69.01961%,69.01961%);stroke-opacity:1;stroke-miterlimit:4;" d="M 45.477539 26.425781 L 240.779297 26.425781 " transform="matrix(1.333333,0,0,1.333333,0.000000000000028422,0)"/>
</g>
<path style="fill:none;stroke-width:0.8;stroke-linecap:butt;stroke-linejoin:round;stroke:rgb(0%,0%,0%);stroke-opacity:1;stroke-miterlimit:4;" d="M -0.000587463 -0.00107384 L -3.498634 -0.00107384 " transform="matrix(1.333333,0,0,1.333333,60.637502,35.235807)"/>
<path style=" stroke:none;fill-rule:nonzero;fill:rgb(0%,0%,0%);fill-opacity:1;" d="M 29.492188 39.09375 L 31.640625 39.09375 L 31.640625 31.675781 L 29.300781 32.144531 L 29.300781 30.945312 L 31.628906 30.476562 L 32.941406 30.476562 L 32.941406 39.09375 L 35.089844 39.09375 L 35.089844 40.199219 L 29.492188 40.199219 Z M 29.492188 39.09375 "/>
<path style=" stroke:none;fill-rule:nonzero;fill:rgb(0%,0%,0%);fill-opacity:1;" d="M 40.558594 31.34375 C 39.882812 31.34375 39.371094 31.679688 39.03125 32.34375 C 38.691406 33.011719 38.519531 34.011719 38.519531 35.347656 C 38.519531 36.679688 38.691406 37.679688 39.03125 38.347656 C 39.371094 39.015625 39.882812 39.347656 40.558594 39.347656 C 41.238281 39.347656 41.75 39.015625 42.089844 38.347656 C 42.433594 37.679688 42.605469 36.679688 42.605469 35.347656 C 42.605469 34.011719 42.433594 33.011719 42.089844 32.34375 C 41.75 31.679688 41.238281 31.34375 40.558594 31.34375 Z M 40.558594 30.304688 C 41.648438 30.304688 42.480469 30.734375 43.054688 31.597656 C 43.632812 32.457031 43.917969 33.710938 43.917969 35.347656 C 43.917969 36.984375 43.632812 38.234375 43.054688 39.097656 C 42.480469 39.957031 41.648438 40.390625 40.558594 40.390625 C 39.46875 40.390625 38.636719 39.957031 38.0625 39.097656 C 37.488281 38.234375 37.199219 36.984375 37.199219 35.347656 C 37.199219 33.710938 37.488281 32.457031 38.0625 31.597656 C 38.636719 30.734375 39.46875 30.304688 40.558594 30.304688 Z M 40.558594 30.304688 "/>
<path style=" stroke:none;fill-rule:nonzero;fill:rgb(0%,0%,0%);fill-opacity:1;" d="M 48.71875 31.425781 C 49.160156 31.519531 49.503906 31.714844 49.75 32.015625 C 49.996094 32.3125 50.121094 32.679688 50.121094 33.117188 C 50.121094 33.789062 49.890625 34.308594 49.429688 34.675781 C 48.96875 35.042969 48.3125 35.226562 47.460938 35.226562 C 47.175781 35.226562 46.882812 35.199219 46.578125 35.144531 C 46.277344 35.085938 45.964844 35.003906 45.644531 34.890625 L 45.644531 34 C 45.898438 34.148438 46.175781 34.261719 46.480469 34.339844 C 46.785156 34.414062 47.101562 34.453125 47.433594 34.453125 C 48.011719 34.453125 48.449219 34.339844 48.753906 34.109375 C 49.054688 33.882812 49.207031 33.550781 49.207031 33.117188 C 49.207031 32.714844 49.066406 32.402344 48.785156 32.175781 C 48.503906 31.949219 48.113281 31.835938 47.613281 31.835938 L 46.816406 31.835938 L 46.816406 31.082031 L 47.648438 31.082031 C 48.101562 31.082031 48.445312 30.988281 48.6875 30.808594 C 48.925781 30.628906 49.046875 30.367188 49.046875 30.027344 C 49.046875 29.679688 48.921875 29.410156 48.675781 29.222656 C 48.429688 29.035156 48.074219 28.941406 47.613281 28.941406 C 47.359375 28.941406 47.089844 28.96875 46.800781 29.027344 C 46.511719 29.078125 46.191406 29.164062 45.847656 29.28125 L 45.847656 28.460938 C 46.195312 28.363281 46.523438 28.289062 46.828125 28.242188 C 47.136719 28.191406 47.421875 28.167969 47.691406 28.167969 C 48.390625 28.167969 48.945312 28.328125 49.351562 28.644531 C 49.757812 28.960938 49.960938 29.390625 49.960938 29.929688 C 49.960938 30.308594 49.855469 30.625 49.640625 30.886719 C 49.421875 31.144531 49.117188 31.324219 48.71875 31.425781 Z M 48.71875 31.425781 "/>
<path style="fill:none;stroke-width:0.6;stroke-linecap:butt;stroke-linejoin:round;stroke:rgb(0%,0%,0%);stroke-opacity:1;stroke-miterlimit:4;" d="M -0.000587463 0.000839233 L -1.998634 0.000839233 " transform="matrix(1.333333,0,0,1.333333,60.637502,190.170756)"/>
<path style="fill:none;stroke-width:0.6;stroke-linecap:butt;stroke-linejoin:round;stroke:rgb(0%,0%,0%);stroke-opacity:1;stroke-miterlimit:4;" d="M -0.000587463 0.00105286 L -1.998634 0.00105286 " transform="matrix(1.333333,0,0,1.333333,60.637502,187.322815)"/>
<path style="fill:none;stroke-width:0.6;stroke-linecap:butt;stroke-linejoin:round;stroke:rgb(0%,0%,0%);stroke-opacity:1;stroke-miterlimit:4;" d="M -0.000587463 0.00131226 L -1.998634 0.00131226 " transform="matrix(1.333333,0,0,1.333333,60.637502,184.81075)"/>
<path style="fill:none;stroke-width:0.6;stroke-linecap:butt;stroke-linejoin:round;stroke:rgb(0%,0%,0%);stroke-opacity:1;stroke-miterlimit:4;" d="M -0.000587463 0.000732422 L -1.998634 0.000732422 " transform="matrix(1.333333,0,0,1.333333,60.637502,167.780273)"/>
<path style="fill:none;stroke-width:0.6;stroke-linecap:butt;stroke-linejoin:round;stroke:rgb(0%,0%,0%);stroke-opacity:1;stroke-miterlimit:4;" d="M -0.000587463 0.000190735 L -1.998634 0.000190735 " transform="matrix(1.333333,0,0,1.333333,60.637502,159.132558)"/>
<path style="fill:none;stroke-width:0.6;stroke-linecap:butt;stroke-linejoin:round;stroke:rgb(0%,0%,0%);stroke-opacity:1;stroke-miterlimit:4;" d="M -0.000587463 -0.000610352 L -1.998634 -0.000610352 " transform="matrix(1.333333,0,0,1.333333,60.637502,152.996908)"/>
<path style="fill:none;stroke-width:0.6;stroke-linecap:butt;stroke-linejoin:round;stroke:rgb(0%,0%,0%);stroke-opacity:1;stroke-miterlimit:4;" d="M -0.000587463 0.000419617 L -1.998634 0.000419617 " transform="matrix(1.333333,0,0,1.333333,60.637502,148.237722)"/>
<path style="fill:none;stroke-width:0.6;stroke-linecap:butt;stroke-linejoin:round;stroke:rgb(0%,0%,0%);stroke-opacity:1;stroke-miterlimit:4;" d="M -0.000587463 -0.00115204 L -1.998634 -0.00115204 " transform="matrix(1.333333,0,0,1.333333,60.637502,144.349192)"/>
<path style="fill:none;stroke-width:0.6;stroke-linecap:butt;stroke-linejoin:round;stroke:rgb(0%,0%,0%);stroke-opacity:1;stroke-miterlimit:4;" d="M -0.000587463 0.000762939 L -1.998634 0.000762939 " transform="matrix(1.333333,0,0,1.333333,60.637502,141.061483)"/>
<path style="fill:none;stroke-width:0.6;stroke-linecap:butt;stroke-linejoin:round;stroke:rgb(0%,0%,0%);stroke-opacity:1;stroke-miterlimit:4;" d="M -0.000587463 0.000976562 L -1.998634 0.000976562 " transform="matrix(1.333333,0,0,1.333333,60.637502,138.213542)"/>
<path style="fill:none;stroke-width:0.6;stroke-linecap:butt;stroke-linejoin:round;stroke:rgb(0%,0%,0%);stroke-opacity:1;stroke-miterlimit:4;" d="M -0.000587463 0.00123596 L -1.998634 0.00123596 " transform="matrix(1.333333,0,0,1.333333,60.637502,135.701477)"/>
<path style="fill:none;stroke-width:0.6;stroke-linecap:butt;stroke-linejoin:round;stroke:rgb(0%,0%,0%);stroke-opacity:1;stroke-miterlimit:4;" d="M -0.000587463 0.000663757 L -1.998634 0.000663757 " transform="matrix(1.333333,0,0,1.333333,60.637502,118.67099)"/>
<path style="fill:none;stroke-width:0.6;stroke-linecap:butt;stroke-linejoin:round;stroke:rgb(0%,0%,0%);stroke-opacity:1;stroke-miterlimit:4;" d="M -0.000587463 0.000114441 L -1.998634 0.000114441 " transform="matrix(1.333333,0,0,1.333333,60.637502,110.023285)"/>
<path style="fill:none;stroke-width:0.6;stroke-linecap:butt;stroke-linejoin:round;stroke:rgb(0%,0%,0%);stroke-opacity:1;stroke-miterlimit:4;" d="M -0.000587463 -0.000686646 L -1.998634 -0.000686646 " transform="matrix(1.333333,0,0,1.333333,60.637502,103.887634)"/>
<path style="fill:none;stroke-width:0.6;stroke-linecap:butt;stroke-linejoin:round;stroke:rgb(0%,0%,0%);stroke-opacity:1;stroke-miterlimit:4;" d="M -0.000587463 0.000343323 L -1.998634 0.000343323 " transform="matrix(1.333333,0,0,1.333333,60.637502,99.128448)"/>
<path style="fill:none;stroke-width:0.6;stroke-linecap:butt;stroke-linejoin:round;stroke:rgb(0%,0%,0%);stroke-opacity:1;stroke-miterlimit:4;" d="M -0.000587463 -0.00122833 L -1.998634 -0.00122833 " transform="matrix(1.333333,0,0,1.333333,60.637502,95.239919)"/>
<path style="fill:none;stroke-width:0.6;stroke-linecap:butt;stroke-linejoin:round;stroke:rgb(0%,0%,0%);stroke-opacity:1;stroke-miterlimit:4;" d="M -0.000587463 0.000686646 L -1.998634 0.000686646 " transform="matrix(1.333333,0,0,1.333333,60.637502,91.952209)"/>
<path style="fill:none;stroke-width:0.6;stroke-linecap:butt;stroke-linejoin:round;stroke:rgb(0%,0%,0%);stroke-opacity:1;stroke-miterlimit:4;" d="M -0.000587463 0.000900269 L -1.998634 0.000900269 " transform="matrix(1.333333,0,0,1.333333,60.637502,89.104268)"/>
<path style="fill:none;stroke-width:0.6;stroke-linecap:butt;stroke-linejoin:round;stroke:rgb(0%,0%,0%);stroke-opacity:1;stroke-miterlimit:4;" d="M -0.000587463 0.00115967 L -1.998634 0.00115967 " transform="matrix(1.333333,0,0,1.333333,60.637502,86.592204)"/>
<path style="fill:none;stroke-width:0.6;stroke-linecap:butt;stroke-linejoin:round;stroke:rgb(0%,0%,0%);stroke-opacity:1;stroke-miterlimit:4;" d="M -0.000587463 0.000587463 L -1.998634 0.000587463 " transform="matrix(1.333333,0,0,1.333333,60.637502,69.561717)"/>
<path style="fill:none;stroke-width:0.6;stroke-linecap:butt;stroke-linejoin:round;stroke:rgb(0%,0%,0%);stroke-opacity:1;stroke-miterlimit:4;" d="M -0.000587463 0.0000457764 L -1.998634 0.0000457764 " transform="matrix(1.333333,0,0,1.333333,60.637502,60.914001)"/>
<path style="fill:none;stroke-width:0.6;stroke-linecap:butt;stroke-linejoin:round;stroke:rgb(0%,0%,0%);stroke-opacity:1;stroke-miterlimit:4;" d="M -0.000587463 -0.00075531 L -1.998634 -0.00075531 " transform="matrix(1.333333,0,0,1.333333,60.637502,54.778351)"/>
<path style="fill:none;stroke-width:0.6;stroke-linecap:butt;stroke-linejoin:round;stroke:rgb(0%,0%,0%);stroke-opacity:1;stroke-miterlimit:4;" d="M -0.000587463 0.000267029 L -1.998634 0.000267029 " transform="matrix(1.333333,0,0,1.333333,60.637502,50.019175)"/>
<path style="fill:none;stroke-width:0.6;stroke-linecap:butt;stroke-linejoin:round;stroke:rgb(0%,0%,0%);stroke-opacity:1;stroke-miterlimit:4;" d="M -0.000587463 -0.00130081 L -1.998634 -0.00130081 " transform="matrix(1.333333,0,0,1.333333,60.637502,46.130641)"/>
<path style="fill:none;stroke-width:0.6;stroke-linecap:butt;stroke-linejoin:round;stroke:rgb(0%,0%,0%);stroke-opacity:1;stroke-miterlimit:4;" d="M -0.000587463 0.000614166 L -1.998634 0.000614166 " transform="matrix(1.333333,0,0,1.333333,60.637502,42.842931)"/>
<path style="fill:none;stroke-width:0.6;stroke-linecap:butt;stroke-linejoin:round;stroke:rgb(0%,0%,0%);stroke-opacity:1;stroke-miterlimit:4;" d="M -0.000587463 0.000829697 L -1.998634 0.000829697 " transform="matrix(1.333333,0,0,1.333333,60.637502,39.994987)"/>
<path style="fill:none;stroke-width:0.6;stroke-linecap:butt;stroke-linejoin:round;stroke:rgb(0%,0%,0%);stroke-opacity:1;stroke-miterlimit:4;" d="M -0.000587463 0.00108719 L -1.998634 0.00108719 " transform="matrix(1.333333,0,0,1.333333,60.637502,37.482925)"/>
<path style="fill:none;stroke-width:0.6;stroke-linecap:butt;stroke-linejoin:round;stroke:rgb(0%,0%,0%);stroke-opacity:1;stroke-miterlimit:4;" d="M -0.000587463 0.000512123 L -1.998634 0.000512123 " transform="matrix(1.333333,0,0,1.333333,60.637502,20.452442)"/>
<path style="fill:none;stroke-width:0.6;stroke-linecap:butt;stroke-linejoin:round;stroke:rgb(0%,0%,0%);stroke-opacity:1;stroke-miterlimit:4;" d="M -0.000587463 -0.0000305176 L -1.998634 -0.0000305176 " transform="matrix(1.333333,0,0,1.333333,60.637502,11.804728)"/>
<path style=" stroke:none;fill-rule:nonzero;fill:rgb(0%,0%,0%);fill-opacity:1;" d="M 9.601562 145.941406 L 10.597656 145.941406 L 10.597656 147.085938 C 10.597656 147.515625 10.683594 147.816406 10.859375 147.984375 C 11.03125 148.148438 11.34375 148.234375 11.796875 148.234375 L 12.441406 148.234375 L 12.441406 146.261719 L 13.371094 146.261719 L 13.371094 148.234375 L 19.730469 148.234375 L 19.730469 149.4375 L 13.371094 149.4375 L 13.371094 150.582031 L 12.441406 150.582031 L 12.441406 149.4375 L 11.929688 149.4375 C 11.121094 149.4375 10.527344 149.25 10.160156 148.871094 C 9.785156 148.492188 9.601562 147.894531 9.601562 147.074219 Z M 9.601562 145.941406 "/>
<path style=" stroke:none;fill-rule:nonzero;fill:rgb(0%,0%,0%);fill-opacity:1;" d="M 13.558594 140.714844 C 13.480469 140.847656 13.421875 140.996094 13.386719 141.152344 C 13.351562 141.3125 13.332031 141.488281 13.332031 141.675781 C 13.332031 142.355469 13.550781 142.875 13.992188 143.238281 C 14.433594 143.601562 15.066406 143.78125 15.890625 143.78125 L 19.730469 143.78125 L 19.730469 144.984375 L 12.441406 144.984375 L 12.441406 143.78125 L 13.574219 143.78125 C 13.128906 143.527344 12.800781 143.199219 12.585938 142.796875 C 12.371094 142.394531 12.265625 141.902344 12.265625 141.324219 C 12.265625 141.242188 12.269531 141.152344 12.28125 141.050781 C 12.289062 140.953125 12.308594 140.839844 12.328125 140.71875 Z M 13.558594 140.714844 "/>
<path style=" stroke:none;fill-rule:nonzero;fill:rgb(0%,0%,0%);fill-opacity:1;" d="M 15.785156 133.519531 L 16.371094 133.519531 L 16.371094 139.027344 C 17.195312 138.976562 17.824219 138.726562 18.257812 138.28125 C 18.6875 137.839844 18.902344 137.21875 18.902344 136.425781 C 18.902344 135.964844 18.847656 135.519531 18.734375 135.085938 C 18.621094 134.65625 18.453125 134.226562 18.226562 133.800781 L 19.359375 133.800781 C 19.542969 134.230469 19.679688 134.671875 19.777344 135.121094 C 19.871094 135.574219 19.921875 136.03125 19.921875 136.496094 C 19.921875 137.660156 19.582031 138.582031 18.90625 139.257812 C 18.226562 139.9375 17.3125 140.277344 16.15625 140.277344 C 14.964844 140.277344 14.015625 139.957031 13.316406 139.3125 C 12.617188 138.667969 12.265625 137.796875 12.265625 136.703125 C 12.265625 135.722656 12.582031 134.945312 13.210938 134.375 C 13.84375 133.804688 14.699219 133.519531 15.785156 133.519531 Z M 15.433594 134.71875 C 14.777344 134.726562 14.257812 134.910156 13.867188 135.269531 C 13.476562 135.625 13.277344 136.101562 13.277344 136.691406 C 13.277344 137.359375 13.46875 137.894531 13.847656 138.296875 C 14.222656 138.695312 14.753906 138.925781 15.441406 138.988281 Z M 15.433594 134.71875 "/>
<path style=" stroke:none;fill-rule:nonzero;fill:rgb(0%,0%,0%);fill-opacity:1;" d="M 16.089844 130.835938 C 16.972656 130.835938 17.664062 130.65625 18.164062 130.292969 C 18.664062 129.929688 18.917969 129.433594 18.917969 128.800781 C 18.917969 128.167969 18.664062 127.667969 18.164062 127.304688 C 17.664062 126.9375 16.972656 126.757812 16.089844 126.757812 C 15.210938 126.757812 14.519531 126.9375 14.019531 127.304688 C 13.515625 127.667969 13.265625 128.167969 13.265625 128.800781 C 13.265625 129.433594 13.515625 129.929688 14.019531 130.292969 C 14.519531 130.65625 15.210938 130.835938 16.089844 130.835938 Z M 18.636719 126.757812 C 19.070312 127.007812 19.394531 127.324219 19.605469 127.710938 C 19.816406 128.09375 19.921875 128.554688 19.921875 129.09375 C 19.921875 129.972656 19.570312 130.691406 18.867188 131.246094 C 18.164062 131.800781 17.238281 132.074219 16.089844 132.074219 C 14.945312 132.074219 14.023438 131.800781 13.320312 131.246094 C 12.617188 130.691406 12.265625 129.972656 12.265625 129.09375 C 12.265625 128.554688 12.371094 128.09375 12.582031 127.710938 C 12.789062 127.324219 13.113281 127.007812 13.546875 126.757812 L 12.441406 126.757812 L 12.441406 125.558594 L 22.503906 125.558594 L 22.503906 126.757812 Z M 18.636719 126.757812 "/>
<path style=" stroke:none;fill-rule:nonzero;fill:rgb(0%,0%,0%);fill-opacity:1;" d="M 16.855469 123.214844 L 12.441406 123.214844 L 12.441406 122.015625 L 16.808594 122.015625 C 17.5 122.015625 18.015625 121.882812 18.363281 121.613281 C 18.707031 121.34375 18.878906 120.941406 18.878906 120.402344 C 18.878906 119.753906 18.671875 119.246094 18.261719 118.871094 C 17.847656 118.492188 17.285156 118.304688 16.574219 118.304688 L 12.441406 118.304688 L 12.441406 117.109375 L 19.730469 117.109375 L 19.730469 118.304688 L 18.609375 118.304688 C 19.054688 118.597656 19.382812 118.933594 19.597656 119.316406 C 19.8125 119.703125 19.921875 120.148438 19.921875 120.65625 C 19.921875 121.492188 19.660156 122.128906 19.140625 122.5625 C 18.617188 122.996094 17.855469 123.214844 16.855469 123.214844 Z M 12.265625 120.199219 Z M 12.265625 120.199219 "/>
<path style=" stroke:none;fill-rule:nonzero;fill:rgb(0%,0%,0%);fill-opacity:1;" d="M 15.785156 108.402344 L 16.371094 108.402344 L 16.371094 113.910156 C 17.195312 113.859375 17.824219 113.609375 18.257812 113.164062 C 18.6875 112.722656 18.902344 112.101562 18.902344 111.308594 C 18.902344 110.847656 18.847656 110.402344 18.734375 109.96875 C 18.621094 109.539062 18.453125 109.109375 18.226562 108.683594 L 19.359375 108.683594 C 19.542969 109.113281 19.679688 109.554688 19.777344 110.003906 C 19.871094 110.457031 19.921875 110.914062 19.921875 111.378906 C 19.921875 112.542969 19.582031 113.464844 18.90625 114.140625 C 18.226562 114.820312 17.3125 115.160156 16.15625 115.160156 C 14.964844 115.160156 14.015625 114.839844 13.316406 114.195312 C 12.617188 113.550781 12.265625 112.679688 12.265625 111.585938 C 12.265625 110.605469 12.582031 109.828125 13.210938 109.257812 C 13.84375 108.6875 14.699219 108.402344 15.785156 108.402344 Z M 15.433594 109.601562 C 14.777344 109.609375 14.257812 109.792969 13.867188 110.152344 C 13.476562 110.507812 13.277344 110.984375 13.277344 111.574219 C 13.277344 112.242188 13.46875 112.777344 13.847656 113.179688 C 14.222656 113.578125 14.753906 113.808594 15.441406 113.871094 Z M 15.433594 109.601562 "/>
<path style=" stroke:none;fill-rule:nonzero;fill:rgb(0%,0%,0%);fill-opacity:1;" d="M 15.328125 100.375 L 19.730469 100.375 L 19.730469 101.574219 L 15.367188 101.574219 C 14.679688 101.574219 14.164062 101.707031 13.820312 101.976562 C 13.476562 102.246094 13.304688 102.648438 13.304688 103.1875 C 13.304688 103.835938 13.511719 104.34375 13.925781 104.71875 C 14.335938 105.09375 14.898438 105.277344 15.609375 105.277344 L 19.730469 105.277344 L 19.730469 106.484375 L 12.441406 106.484375 L 12.441406 105.277344 L 13.574219 105.277344 C 13.132812 104.992188 12.804688 104.652344 12.589844 104.265625 C 12.371094 103.878906 12.265625 103.429688 12.265625 102.921875 C 12.265625 102.082031 12.523438 101.449219 13.042969 101.019531 C 13.558594 100.589844 14.320312 100.375 15.328125 100.375 Z M 15.328125 100.375 "/>
<path style=" stroke:none;fill-rule:nonzero;fill:rgb(0%,0%,0%);fill-opacity:1;" d="M 12.71875 92.738281 L 13.839844 92.738281 C 13.652344 93.078125 13.511719 93.417969 13.417969 93.757812 C 13.324219 94.097656 13.277344 94.441406 13.277344 94.789062 C 13.277344 95.566406 13.527344 96.171875 14.019531 96.601562 C 14.511719 97.03125 15.203125 97.246094 16.089844 97.246094 C 16.980469 97.246094 17.671875 97.03125 18.167969 96.601562 C 18.660156 96.171875 18.902344 95.566406 18.902344 94.789062 C 18.902344 94.441406 18.859375 94.097656 18.765625 93.757812 C 18.671875 93.417969 18.53125 93.078125 18.34375 92.738281 L 19.453125 92.738281 C 19.609375 93.074219 19.722656 93.421875 19.800781 93.777344 C 19.882812 94.136719 19.921875 94.515625 19.921875 94.921875 C 19.921875 96.019531 19.574219 96.890625 18.886719 97.539062 C 18.195312 98.183594 17.265625 98.507812 16.089844 98.507812 C 14.902344 98.507812 13.96875 98.179688 13.289062 97.527344 C 12.605469 96.875 12.265625 95.976562 12.265625 94.839844 C 12.265625 94.472656 12.304688 94.113281 12.378906 93.761719 C 12.453125 93.410156 12.566406 93.070312 12.71875 92.738281 Z M 12.71875 92.738281 "/>
<path style=" stroke:none;fill-rule:nonzero;fill:rgb(0%,0%,0%);fill-opacity:1;" d="M 20.410156 87.621094 C 21.277344 87.960938 21.84375 88.289062 22.105469 88.613281 C 22.371094 88.933594 22.503906 89.363281 22.503906 89.898438 L 22.503906 90.859375 L 21.503906 90.859375 L 21.503906 90.152344 C 21.503906 89.824219 21.421875 89.570312 21.265625 89.386719 C 21.109375 89.203125 20.742188 89 20.160156 88.78125 L 19.613281 88.566406 L 12.441406 91.515625 L 12.441406 90.246094 L 18.140625 87.964844 L 12.441406 85.6875 L 12.441406 84.417969 Z M 20.410156 87.621094 "/>
<path style=" stroke:none;fill-rule:nonzero;fill:rgb(0%,0%,0%);fill-opacity:1;" d="M 18.078125 83.425781 L 18.078125 82.054688 L 19.730469 82.054688 L 19.730469 83.425781 Z M 12.835938 83.425781 L 12.835938 82.054688 L 14.488281 82.054688 L 14.488281 83.425781 Z M 12.835938 83.425781 "/>
<path style=" stroke:none;fill-rule:nonzero;fill:rgb(0%,0%,0%);fill-opacity:1;" d="M 15.328125 68.9375 L 19.730469 68.9375 L 19.730469 70.136719 L 15.367188 70.136719 C 14.679688 70.136719 14.164062 70.273438 13.820312 70.542969 C 13.476562 70.8125 13.304688 71.214844 13.304688 71.75 C 13.304688 72.398438 13.511719 72.910156 13.925781 73.28125 C 14.335938 73.65625 14.898438 73.84375 15.609375 73.84375 L 19.730469 73.84375 L 19.730469 75.046875 L 12.441406 75.046875 L 12.441406 73.84375 L 13.574219 73.84375 C 13.132812 73.554688 12.804688 73.21875 12.589844 72.832031 C 12.371094 72.441406 12.265625 71.992188 12.265625 71.484375 C 12.265625 70.648438 12.523438 70.015625 13.042969 69.585938 C 13.558594 69.15625 14.320312 68.9375 15.328125 68.9375 Z M 15.328125 68.9375 "/>
<path style=" stroke:none;fill-rule:nonzero;fill:rgb(0%,0%,0%);fill-opacity:1;" d="M 9.613281 63.675781 C 10.613281 64.253906 11.597656 64.6875 12.578125 64.96875 C 13.554688 65.25 14.542969 65.394531 15.546875 65.394531 C 16.546875 65.394531 17.539062 65.25 18.523438 64.964844 C 19.507812 64.679688 20.496094 64.25 21.488281 63.675781 L 21.488281 64.714844 C 20.46875 65.367188 19.464844 65.851562 18.480469 66.175781 C 17.496094 66.5 16.519531 66.660156 15.546875 66.660156 C 14.578125 66.660156 13.601562 66.5 12.621094 66.179688 C 11.640625 65.859375 10.636719 65.371094 9.613281 64.714844 Z M 9.613281 63.675781 "/>
<path style=" stroke:none;fill-rule:nonzero;fill:rgb(0%,0%,0%);fill-opacity:1;" d="M 12.441406 55.285156 L 15.988281 57.925781 L 19.730469 55.152344 L 19.730469 56.5625 L 16.867188 58.6875 L 19.730469 60.808594 L 19.730469 62.222656 L 15.917969 59.390625 L 12.441406 61.980469 L 12.441406 60.566406 L 15.039062 58.632812 L 12.441406 56.703125 Z M 12.441406 55.285156 "/>
<path style=" stroke:none;fill-rule:nonzero;fill:rgb(0%,0%,0%);fill-opacity:1;" d="M 9.613281 53.644531 L 9.613281 52.605469 C 10.636719 51.953125 11.640625 51.46875 12.621094 51.144531 C 13.601562 50.820312 14.578125 50.660156 15.546875 50.660156 C 16.519531 50.660156 17.496094 50.820312 18.480469 51.144531 C 19.464844 51.46875 20.46875 51.953125 21.488281 52.605469 L 21.488281 53.644531 C 20.496094 53.070312 19.507812 52.640625 18.523438 52.355469 C 17.539062 52.070312 16.546875 51.925781 15.546875 51.925781 C 14.542969 51.925781 13.554688 52.070312 12.578125 52.355469 C 11.597656 52.640625 10.613281 53.070312 9.613281 53.644531 Z M 9.613281 53.644531 "/>
<g clip-path="url(#clip9)" clip-rule="nonzero">
<path style="fill:none;stroke-width:1.5;stroke-linecap:square;stroke-linejoin:round;stroke:rgb(12.156863%,46.666667%,70.588237%);stroke-opacity:1;stroke-miterlimit:4;" d="M -0.999023 22.631836 L 54.354492 22.640625 L 68.956055 22.921875 L 77.496094 24.123047 L 83.554687 29.680664 L 88.256836 32.24707 L 92.097656 35.932617 L 95.34375 36.254883 L 98.15625 39.451172 L 102.855469 39.667969 L 104.862305 43.037109 L 106.696289 46.731445 L 108.383789 47.370117 L 111.395508 50.575195 L 112.754883 50.941406 L 114.032227 51.855469 L 115.236328 52.171875 L 116.375977 55.942383 L 117.457031 56.560547 L 118.485352 58.22168 L 119.463867 58.22168 L 120.401367 58.576172 L 121.297852 59.185547 L 122.15625 59.43457 L 122.982422 59.947266 L 123.776367 60.079102 L 125.282227 60.079102 L 126.688477 60.612305 L 127.356445 61.163086 L 128.003906 61.163086 L 128.633789 61.303711 L 129.243164 61.303711 L 129.837891 61.447266 L 130.415039 62.326172 L 130.974609 62.478516 L 131.522461 62.786133 L 132.055664 64.248047 L 133.083984 64.59375 L 133.579102 64.59375 L 134.06543 64.766602 L 134.537109 65.124023 L 136.330078 65.859375 L 137.173828 65.859375 L 137.583984 66.046875 L 137.985352 66.046875 L 138.37793 66.433594 L 139.142578 67.438477 L 139.517578 67.860352 L 139.883789 68.074219 L 140.595703 68.074219 L 141.955078 68.964844 L 142.605469 68.964844 L 142.921875 69.193359 L 143.232422 69.905273 L 143.540039 70.904297 L 144.436523 71.698242 L 144.726562 71.698242 L 145.013672 72.249023 L 145.576172 72.249023 L 145.851562 72.820312 L 146.124023 73.116211 L 146.390625 73.116211 L 147.685547 74.668945 L 148.901367 74.668945 L 149.138672 75 L 149.370117 75 L 149.601562 75.336914 L 149.827148 75.336914 L 150.052734 75.679688 L 150.714844 75.679688 L 150.931641 76.03125 L 151.145508 76.03125 L 151.567383 76.757812 L 151.980469 76.757812 L 152.182617 77.135742 L 152.384766 77.135742 L 152.783203 77.915039 L 153.363281 77.915039 L 153.744141 78.735352 L 153.931641 78.735352 L 154.116211 79.163086 L 154.842773 79.163086 L 155.021484 79.599609 L 155.888672 79.599609 L 156.055664 80.050781 L 156.720703 80.050781 L 156.881836 80.516602 L 157.678711 80.516602 L 157.833984 80.994141 L 158.141602 80.994141 L 158.293945 81.486328 L 158.891602 81.486328 L 159.038086 81.993164 L 159.328125 81.993164 L 159.47168 82.517578 L 159.755859 82.517578 L 159.896484 83.05957 L 160.037109 83.05957 L 160.177734 83.62207 L 160.857422 83.62207 L 160.992187 84.202148 L 161.519531 84.202148 L 161.648437 84.805664 L 162.410156 84.805664 L 162.533203 85.432617 L 162.902344 85.432617 L 163.022461 86.085938 L 163.50293 86.085938 L 163.620117 86.768555 L 164.200195 86.768555 L 164.314453 87.477539 L 165.424805 87.477539 L 165.638672 88.22168 L 166.374023 88.22168 L 166.579102 89.003906 L 167.674805 89.003906 L 167.868164 89.824219 L 168.717773 89.824219 L 168.902344 90.688477 L 169.174805 90.688477 L 169.353516 91.602539 L 169.97168 91.602539 L 170.144531 92.572266 L 171.483398 92.572266 L 171.644531 93.606445 L 172.432617 93.606445 L 172.587891 94.708008 L 173.490234 94.708008 L 173.636719 95.894531 L 175.256836 95.894531 L 175.391602 97.174805 L 176.375977 97.174805 L 176.504883 98.566406 L 178.338867 98.566406 L 178.456055 100.089844 L 180.451172 100.089844 L 180.609375 101.777344 L 182.419922 101.777344 L 182.563477 103.661133 L 185.258789 103.661133 L 185.384766 105.796875 L 188.52832 105.796875 L 188.671875 108.260742 L 191.671875 108.260742 L 191.794922 111.178711 L 195.755859 111.178711 L 195.881836 114.74707 L 200.724609 114.74707 L 200.844727 119.349609 L 207.213867 119.349609 L 207.331055 125.835938 L 216.28125 125.835938 L 216.398437 136.921875 L 231.899414 136.921875 " transform="matrix(1.333333,0,0,1.333333,0.000000000000028422,0)"/>
</g>
<path style="fill:none;stroke-width:0.8;stroke-linecap:square;stroke-linejoin:miter;stroke:rgb(0%,0%,0%);stroke-opacity:1;stroke-miterlimit:4;" d="M 45.477539 143.100586 L 45.477539 7.201172 " transform="matrix(1.333333,0,0,1.333333,0.000000000000028422,0)"/>
<path style="fill:none;stroke-width:0.8;stroke-linecap:square;stroke-linejoin:miter;stroke:rgb(0%,0%,0%);stroke-opacity:1;stroke-miterlimit:4;" d="M 240.779297 143.100586 L 240.779297 7.201172 " transform="matrix(1.333333,0,0,1.333333,0.000000000000028422,0)"/>
<path style="fill:none;stroke-width:0.8;stroke-linecap:square;stroke-linejoin:miter;stroke:rgb(0%,0%,0%);stroke-opacity:1;stroke-miterlimit:4;" d="M 45.477539 143.100586 L 240.779297 143.100586 " transform="matrix(1.333333,0,0,1.333333,0.000000000000028422,0)"/>
<path style="fill:none;stroke-width:0.8;stroke-linecap:square;stroke-linejoin:miter;stroke:rgb(0%,0%,0%);stroke-opacity:1;stroke-miterlimit:4;" d="M 45.477539 7.201172 L 240.779297 7.201172 " transform="matrix(1.333333,0,0,1.333333,0.000000000000028422,0)"/>
</g>
</svg>
