<?xml version="1.0" encoding="UTF-8"?>
<svg xmlns="http://www.w3.org/2000/svg" xmlns:xlink="http://www.w3.org/1999/xlink" width="323.430806" height="222.637492" viewBox="0 0 323.430806 222.637492" version="1.1">
<defs>
<clipPath id="clip1">
  <path d="M 59 9.601562 L 62 9.601562 L 62 190.800781 L 59 190.800781 Z M 59 9.601562 "/>
</clipPath>
<clipPath id="clip2">
  <path d="M 141 9.601562 L 143 9.601562 L 143 190.800781 L 141 190.800781 Z M 141 9.601562 "/>
</clipPath>
<clipPath id="clip3">
  <path d="M 222 9.601562 L 225 9.601562 L 225 190.800781 L 222 190.800781 Z M 222 9.601562 "/>
</clipPath>
<clipPath id="clip4">
  <path d="M 304 9.601562 L 307 9.601562 L 307 190.800781 L 304 190.800781 Z M 304 9.601562 "/>
</clipPath>
<clipPath id="clip5">
  <path d="M 48.621094 178 L 309.019531 178 L 309.019531 180 L 48.621094 180 Z M 48.621094 178 "/>
</clipPath>
<clipPath id="clip6">
  <path d="M 48.621094 137 L 309.019531 137 L 309.019531 140 L 48.621094 140 Z M 48.621094 137 "/>
</clipPath>
<clipPath id="clip7">
  <path d="M 48.621094 97 L 309.019531 97 L 309.019531 100 L 48.621094 100 Z M 48.621094 97 "/>
</clipPath>
<clipPath id="clip8">
  <path d="M 48.621094 57 L 309.019531 57 L 309.019531 59 L 48.621094 59 Z M 48.621094 57 "/>
</clipPath>
<clipPath id="clip9">
  <path d="M 48.621094 17 L 309.019531 17 L 309.019531 19 L 48.621094 19 Z M 48.621094 17 "/>
</clipPath>
</defs>
<g id="surface1">
<path style=" stroke:none;fill-rule:nonzero;fill:rgb(100%,100%,100%);fill-opacity:1;" d="M 48.621094 190.800781 L 309.019531 190.800781 L 309.019531 9.601562 L 48.621094 9.601562 Z M 48.621094 190.800781 "/>
<g clip-path="url(#clip1)" clip-rule="nonzero">
<path style="fill:none;stroke-width:0.8;stroke-linecap:square;stroke-linejoin:round;stroke:rgb(69.01961%,69.01961%,69.01961%);stroke-opacity:1;stroke-miterlimit:4;" d="M 45.342773 143.100586 L 45.342773 7.201172 " transform="matrix(1.333333,0,0,1.333333,0,0)"/>
</g>
<path style="fill:none;stroke-width:0.8;stroke-linecap:butt;stroke-linejoin:round;stroke:rgb(0%,0%,0%);stroke-opacity:1;stroke-miterlimit:4;" d="M -0.000125885 0.000579834 L -0.000125885 3.498627 " transform="matrix(1.333333,0,0,1.333333,60.457199,190.800008)"/>
<path style=" stroke:none;fill-rule:nonzero;fill:rgb(0%,0%,0%);fill-opacity:1;" d="M 60.453125 201.410156 C 59.777344 201.410156 59.269531 201.742188 58.925781 202.410156 C 58.585938 203.074219 58.414062 204.078125 58.414062 205.414062 C 58.414062 206.746094 58.585938 207.746094 58.925781 208.414062 C 59.269531 209.078125 59.777344 209.414062 60.453125 209.414062 C 61.136719 209.414062 61.644531 209.078125 61.988281 208.414062 C 62.328125 207.746094 62.5 206.746094 62.5 205.414062 C 62.5 204.078125 62.328125 203.074219 61.988281 202.410156 C 61.644531 201.742188 61.136719 201.410156 60.453125 201.410156 Z M 60.453125 200.367188 C 61.542969 200.367188 62.375 200.800781 62.949219 201.664062 C 63.527344 202.523438 63.8125 203.773438 63.8125 205.414062 C 63.8125 207.050781 63.527344 208.300781 62.949219 209.164062 C 62.375 210.023438 61.542969 210.453125 60.453125 210.453125 C 59.363281 210.453125 58.53125 210.023438 57.957031 209.164062 C 57.382812 208.300781 57.09375 207.050781 57.09375 205.414062 C 57.09375 203.773438 57.382812 202.523438 57.957031 201.664062 C 58.53125 200.800781 59.363281 200.367188 60.453125 200.367188 Z M 60.453125 200.367188 "/>
<g clip-path="url(#clip2)" clip-rule="nonzero">
<path style="fill:none;stroke-width:0.8;stroke-linecap:square;stroke-linejoin:round;stroke:rgb(69.01961%,69.01961%,69.01961%);stroke-opacity:1;stroke-miterlimit:4;" d="M 106.564453 143.100586 L 106.564453 7.201172 " transform="matrix(1.333333,0,0,1.333333,0,0)"/>
</g>
<path style="fill:none;stroke-width:0.8;stroke-linecap:butt;stroke-linejoin:round;stroke:rgb(0%,0%,0%);stroke-opacity:1;stroke-miterlimit:4;" d="M -0.00101471 0.000579834 L -0.00101471 3.498627 " transform="matrix(1.333333,0,0,1.333333,142.08729,190.800008)"/>
<path style=" stroke:none;fill-rule:nonzero;fill:rgb(0%,0%,0%);fill-opacity:1;" d="M 135.257812 209.160156 L 137.40625 209.160156 L 137.40625 201.742188 L 135.070312 202.210938 L 135.070312 201.011719 L 137.394531 200.542969 L 138.707031 200.542969 L 138.707031 209.160156 L 140.855469 209.160156 L 140.855469 210.265625 L 135.257812 210.265625 Z M 135.257812 209.160156 "/>
<path style=" stroke:none;fill-rule:nonzero;fill:rgb(0%,0%,0%);fill-opacity:1;" d="M 146.324219 201.410156 C 145.648438 201.410156 145.140625 201.742188 144.796875 202.410156 C 144.457031 203.074219 144.285156 204.078125 144.285156 205.414062 C 144.285156 206.746094 144.457031 207.746094 144.796875 208.414062 C 145.140625 209.078125 145.648438 209.414062 146.324219 209.414062 C 147.007812 209.414062 147.519531 209.078125 147.859375 208.414062 C 148.199219 207.746094 148.371094 206.746094 148.371094 205.414062 C 148.371094 204.078125 148.199219 203.074219 147.859375 202.410156 C 147.519531 201.742188 147.007812 201.410156 146.324219 201.410156 Z M 146.324219 200.367188 C 147.414062 200.367188 148.246094 200.800781 148.824219 201.664062 C 149.398438 202.523438 149.683594 203.773438 149.683594 205.414062 C 149.683594 207.050781 149.398438 208.300781 148.824219 209.164062 C 148.246094 210.023438 147.414062 210.453125 146.324219 210.453125 C 145.234375 210.453125 144.402344 210.023438 143.828125 209.164062 C 143.253906 208.300781 142.964844 207.050781 142.964844 205.414062 C 142.964844 203.773438 143.253906 202.523438 143.828125 201.664062 C 144.402344 200.800781 145.234375 200.367188 146.324219 200.367188 Z M 146.324219 200.367188 "/>
<g clip-path="url(#clip3)" clip-rule="nonzero">
<path style="fill:none;stroke-width:0.8;stroke-linecap:square;stroke-linejoin:round;stroke:rgb(69.01961%,69.01961%,69.01961%);stroke-opacity:1;stroke-miterlimit:4;" d="M 167.789062 143.100586 L 167.789062 7.201172 " transform="matrix(1.333333,0,0,1.333333,0,0)"/>
</g>
<path style="fill:none;stroke-width:0.8;stroke-linecap:butt;stroke-linejoin:round;stroke:rgb(0%,0%,0%);stroke-opacity:1;stroke-miterlimit:4;" d="M 0.00102234 0.000579834 L 0.00102234 3.498627 " transform="matrix(1.333333,0,0,1.333333,223.717387,190.800008)"/>
<path style=" stroke:none;fill-rule:nonzero;fill:rgb(0%,0%,0%);fill-opacity:1;" d="M 217.792969 209.160156 L 222.382812 209.160156 L 222.382812 210.265625 L 216.210938 210.265625 L 216.210938 209.160156 C 216.710938 208.640625 217.390625 207.949219 218.25 207.078125 C 219.113281 206.207031 219.65625 205.648438 219.875 205.394531 C 220.296875 204.921875 220.589844 204.523438 220.757812 204.195312 C 220.925781 203.867188 221.007812 203.542969 221.007812 203.226562 C 221.007812 202.710938 220.828125 202.289062 220.464844 201.964844 C 220.101562 201.636719 219.628906 201.476562 219.046875 201.476562 C 218.636719 201.476562 218.199219 201.546875 217.742188 201.691406 C 217.285156 201.832031 216.796875 202.050781 216.277344 202.339844 L 216.277344 201.011719 C 216.804688 200.800781 217.300781 200.640625 217.757812 200.53125 C 218.21875 200.421875 218.640625 200.367188 219.023438 200.367188 C 220.03125 200.367188 220.832031 200.621094 221.433594 201.125 C 222.03125 201.628906 222.328125 202.300781 222.328125 203.140625 C 222.328125 203.542969 222.253906 203.921875 222.105469 204.277344 C 221.957031 204.636719 221.683594 205.058594 221.289062 205.542969 C 221.179688 205.671875 220.835938 206.035156 220.253906 206.636719 C 219.671875 207.238281 218.851562 208.078125 217.792969 209.160156 Z M 217.792969 209.160156 "/>
<path style=" stroke:none;fill-rule:nonzero;fill:rgb(0%,0%,0%);fill-opacity:1;" d="M 227.953125 201.410156 C 227.277344 201.410156 226.769531 201.742188 226.425781 202.410156 C 226.085938 203.074219 225.917969 204.078125 225.917969 205.414062 C 225.917969 206.746094 226.085938 207.746094 226.425781 208.414062 C 226.769531 209.078125 227.277344 209.414062 227.953125 209.414062 C 228.636719 209.414062 229.148438 209.078125 229.488281 208.414062 C 229.828125 207.746094 230 206.746094 230 205.414062 C 230 204.078125 229.828125 203.074219 229.488281 202.410156 C 229.148438 201.742188 228.636719 201.410156 227.953125 201.410156 Z M 227.953125 200.367188 C 229.042969 200.367188 229.878906 200.800781 230.453125 201.664062 C 231.027344 202.523438 231.316406 203.773438 231.316406 205.414062 C 231.316406 207.050781 231.027344 208.300781 230.453125 209.164062 C 229.878906 210.023438 229.042969 210.453125 227.953125 210.453125 C 226.867188 210.453125 226.035156 210.023438 225.457031 209.164062 C 224.882812 208.300781 224.597656 207.050781 224.597656 205.414062 C 224.597656 203.773438 224.882812 202.523438 225.457031 201.664062 C 226.035156 200.800781 226.867188 200.367188 227.953125 200.367188 Z M 227.953125 200.367188 "/>
<g clip-path="url(#clip4)" clip-rule="nonzero">
<path style="fill:none;stroke-width:0.8;stroke-linecap:square;stroke-linejoin:round;stroke:rgb(69.01961%,69.01961%,69.01961%);stroke-opacity:1;stroke-miterlimit:4;" d="M 229.010742 143.100586 L 229.010742 7.201172 " transform="matrix(1.333333,0,0,1.333333,0,0)"/>
</g>
<path style="fill:none;stroke-width:0.8;stroke-linecap:butt;stroke-linejoin:round;stroke:rgb(0%,0%,0%);stroke-opacity:1;stroke-miterlimit:4;" d="M 0.000137329 0.000579834 L 0.000137329 3.498627 " transform="matrix(1.333333,0,0,1.333333,305.347473,190.800008)"/>
<path style=" stroke:none;fill-rule:nonzero;fill:rgb(0%,0%,0%);fill-opacity:1;" d="M 302.273438 205.023438 C 302.902344 205.15625 303.394531 205.4375 303.746094 205.863281 C 304.101562 206.289062 304.277344 206.816406 304.277344 207.441406 C 304.277344 208.398438 303.949219 209.140625 303.289062 209.667969 C 302.628906 210.191406 301.691406 210.453125 300.476562 210.453125 C 300.070312 210.453125 299.648438 210.414062 299.21875 210.332031 C 298.785156 210.253906 298.339844 210.132812 297.878906 209.972656 L 297.878906 208.703125 C 298.246094 208.914062 298.644531 209.074219 299.078125 209.183594 C 299.511719 209.292969 299.964844 209.347656 300.4375 209.347656 C 301.261719 209.347656 301.890625 209.183594 302.324219 208.859375 C 302.753906 208.535156 302.96875 208.058594 302.96875 207.441406 C 302.96875 206.867188 302.769531 206.417969 302.367188 206.097656 C 301.96875 205.773438 301.410156 205.609375 300.691406 205.609375 L 299.558594 205.609375 L 299.558594 204.527344 L 300.746094 204.527344 C 301.390625 204.527344 301.886719 204.398438 302.230469 204.140625 C 302.570312 203.882812 302.742188 203.511719 302.742188 203.023438 C 302.742188 202.527344 302.566406 202.144531 302.210938 201.878906 C 301.859375 201.609375 301.351562 201.476562 300.691406 201.476562 C 300.332031 201.476562 299.945312 201.515625 299.53125 201.59375 C 299.121094 201.671875 298.667969 201.792969 298.171875 201.957031 L 298.171875 200.785156 C 298.671875 200.648438 299.140625 200.542969 299.578125 200.472656 C 300.011719 200.402344 300.425781 200.367188 300.808594 200.367188 C 301.808594 200.367188 302.597656 200.597656 303.179688 201.050781 C 303.761719 201.503906 304.050781 202.117188 304.050781 202.886719 C 304.050781 203.425781 303.898438 203.882812 303.589844 204.253906 C 303.28125 204.621094 302.84375 204.878906 302.273438 205.023438 Z M 302.273438 205.023438 "/>
<path style=" stroke:none;fill-rule:nonzero;fill:rgb(0%,0%,0%);fill-opacity:1;" d="M 309.585938 201.410156 C 308.910156 201.410156 308.398438 201.742188 308.058594 202.410156 C 307.71875 203.074219 307.546875 204.078125 307.546875 205.414062 C 307.546875 206.746094 307.71875 207.746094 308.058594 208.414062 C 308.398438 209.078125 308.910156 209.414062 309.585938 209.414062 C 310.265625 209.414062 310.777344 209.078125 311.117188 208.414062 C 311.460938 207.746094 311.628906 206.746094 311.628906 205.414062 C 311.628906 204.078125 311.460938 203.074219 311.117188 202.410156 C 310.777344 201.742188 310.265625 201.410156 309.585938 201.410156 Z M 309.585938 200.367188 C 310.675781 200.367188 311.507812 200.800781 312.082031 201.664062 C 312.65625 202.523438 312.945312 203.773438 312.945312 205.414062 C 312.945312 207.050781 312.65625 208.300781 312.082031 209.164062 C 311.507812 210.023438 310.675781 210.453125 309.585938 210.453125 C 308.496094 210.453125 307.664062 210.023438 307.089844 209.164062 C 306.515625 208.300781 306.226562 207.050781 306.226562 205.414062 C 306.226562 203.773438 306.515625 202.523438 307.089844 201.664062 C 307.664062 200.800781 308.496094 200.367188 309.585938 200.367188 Z M 309.585938 200.367188 "/>
<g clip-path="url(#clip5)" clip-rule="nonzero">
<path style="fill:none;stroke-width:0.8;stroke-linecap:square;stroke-linejoin:round;stroke:rgb(69.01961%,69.01961%,69.01961%);stroke-opacity:1;stroke-miterlimit:4;" d="M 36.46582 134.288086 L 231.764648 134.288086 " transform="matrix(1.333333,0,0,1.333333,0,0)"/>
</g>
<path style="fill:none;stroke-width:0.8;stroke-linecap:butt;stroke-linejoin:round;stroke:rgb(0%,0%,0%);stroke-opacity:1;stroke-miterlimit:4;" d="M 0.00019455 -0.000915527 L -3.500782 -0.000915527 " transform="matrix(1.333333,0,0,1.333333,48.620834,179.052002)"/>
<path style=" stroke:none;fill-rule:nonzero;fill:rgb(0%,0%,0%);fill-opacity:1;" d="M 13.835938 175.261719 C 13.160156 175.261719 12.652344 175.597656 12.308594 176.261719 C 11.96875 176.929688 11.800781 177.929688 11.800781 179.269531 C 11.800781 180.597656 11.96875 181.597656 12.308594 182.265625 C 12.652344 182.933594 13.160156 183.265625 13.835938 183.265625 C 14.519531 183.265625 15.03125 182.933594 15.371094 182.265625 C 15.710938 181.597656 15.882812 180.597656 15.882812 179.269531 C 15.882812 177.929688 15.710938 176.929688 15.371094 176.261719 C 15.03125 175.597656 14.519531 175.261719 13.835938 175.261719 Z M 13.835938 174.222656 C 14.929688 174.222656 15.761719 174.652344 16.335938 175.515625 C 16.910156 176.375 17.199219 177.628906 17.199219 179.269531 C 17.199219 180.902344 16.910156 182.152344 16.335938 183.015625 C 15.761719 183.875 14.929688 184.308594 13.835938 184.308594 C 12.75 184.308594 11.917969 183.875 11.339844 183.015625 C 10.765625 182.152344 10.480469 180.902344 10.480469 179.269531 C 10.480469 177.628906 10.765625 176.375 11.339844 175.515625 C 11.917969 174.652344 12.75 174.222656 13.835938 174.222656 Z M 13.835938 174.222656 "/>
<path style=" stroke:none;fill-rule:nonzero;fill:rgb(0%,0%,0%);fill-opacity:1;" d="M 19.507812 182.464844 L 20.882812 182.464844 L 20.882812 184.117188 L 19.507812 184.117188 Z M 19.507812 182.464844 "/>
<path style=" stroke:none;fill-rule:nonzero;fill:rgb(0%,0%,0%);fill-opacity:1;" d="M 26.558594 175.261719 C 25.882812 175.261719 25.375 175.597656 25.03125 176.261719 C 24.691406 176.929688 24.519531 177.929688 24.519531 179.269531 C 24.519531 180.597656 24.691406 181.597656 25.03125 182.265625 C 25.375 182.933594 25.882812 183.265625 26.558594 183.265625 C 27.242188 183.265625 27.75 182.933594 28.09375 182.265625 C 28.433594 181.597656 28.605469 180.597656 28.605469 179.269531 C 28.605469 177.929688 28.433594 176.929688 28.09375 176.261719 C 27.75 175.597656 27.242188 175.261719 26.558594 175.261719 Z M 26.558594 174.222656 C 27.648438 174.222656 28.480469 174.652344 29.058594 175.515625 C 29.632812 176.375 29.917969 177.628906 29.917969 179.269531 C 29.917969 180.902344 29.632812 182.152344 29.058594 183.015625 C 28.480469 183.875 27.648438 184.308594 26.558594 184.308594 C 25.46875 184.308594 24.636719 183.875 24.0625 183.015625 C 23.488281 182.152344 23.199219 180.902344 23.199219 179.269531 C 23.199219 177.628906 23.488281 176.375 24.0625 175.515625 C 24.636719 174.652344 25.46875 174.222656 26.558594 174.222656 Z M 26.558594 174.222656 "/>
<path style=" stroke:none;fill-rule:nonzero;fill:rgb(0%,0%,0%);fill-opacity:1;" d="M 33.363281 183.011719 L 37.953125 183.011719 L 37.953125 184.117188 L 31.78125 184.117188 L 31.78125 183.011719 C 32.28125 182.496094 32.960938 181.800781 33.820312 180.933594 C 34.683594 180.0625 35.226562 179.5 35.445312 179.246094 C 35.867188 178.773438 36.160156 178.375 36.328125 178.046875 C 36.496094 177.71875 36.578125 177.398438 36.578125 177.082031 C 36.578125 176.5625 36.398438 176.144531 36.035156 175.816406 C 35.671875 175.492188 35.199219 175.328125 34.617188 175.328125 C 34.207031 175.328125 33.769531 175.398438 33.3125 175.542969 C 32.855469 175.6875 32.367188 175.902344 31.847656 176.195312 L 31.847656 174.867188 C 32.375 174.652344 32.871094 174.492188 33.328125 174.382812 C 33.789062 174.277344 34.210938 174.222656 34.59375 174.222656 C 35.601562 174.222656 36.402344 174.472656 37.003906 174.976562 C 37.601562 175.480469 37.898438 176.152344 37.898438 176.996094 C 37.898438 177.394531 37.824219 177.773438 37.675781 178.132812 C 37.527344 178.488281 37.253906 178.910156 36.859375 179.398438 C 36.75 179.523438 36.40625 179.886719 35.824219 180.488281 C 35.242188 181.089844 34.421875 181.929688 33.363281 183.011719 Z M 33.363281 183.011719 "/>
<g clip-path="url(#clip6)" clip-rule="nonzero">
<path style="fill:none;stroke-width:0.8;stroke-linecap:square;stroke-linejoin:round;stroke:rgb(69.01961%,69.01961%,69.01961%);stroke-opacity:1;stroke-miterlimit:4;" d="M 36.46582 104.0625 L 231.764648 104.0625 " transform="matrix(1.333333,0,0,1.333333,0,0)"/>
</g>
<path style="fill:none;stroke-width:0.8;stroke-linecap:butt;stroke-linejoin:round;stroke:rgb(0%,0%,0%);stroke-opacity:1;stroke-miterlimit:4;" d="M 0.00019455 0.00143433 L -3.500782 0.00143433 " transform="matrix(1.333333,0,0,1.333333,48.620834,138.748088)"/>
<path style=" stroke:none;fill-rule:nonzero;fill:rgb(0%,0%,0%);fill-opacity:1;" d="M 13.835938 134.960938 C 13.160156 134.960938 12.652344 135.292969 12.308594 135.960938 C 11.96875 136.625 11.800781 137.625 11.800781 138.964844 C 11.800781 140.296875 11.96875 141.296875 12.308594 141.960938 C 12.652344 142.628906 13.160156 142.960938 13.835938 142.960938 C 14.519531 142.960938 15.03125 142.628906 15.371094 141.960938 C 15.710938 141.296875 15.882812 140.296875 15.882812 138.964844 C 15.882812 137.625 15.710938 136.625 15.371094 135.960938 C 15.03125 135.292969 14.519531 134.960938 13.835938 134.960938 Z M 13.835938 133.917969 C 14.929688 133.917969 15.761719 134.347656 16.335938 135.210938 C 16.910156 136.074219 17.199219 137.324219 17.199219 138.964844 C 17.199219 140.601562 16.910156 141.847656 16.335938 142.710938 C 15.761719 143.574219 14.929688 144.003906 13.835938 144.003906 C 12.75 144.003906 11.917969 143.574219 11.339844 142.710938 C 10.765625 141.847656 10.480469 140.601562 10.480469 138.964844 C 10.480469 137.324219 10.765625 136.074219 11.339844 135.210938 C 11.917969 134.347656 12.75 133.917969 13.835938 133.917969 Z M 13.835938 133.917969 "/>
<path style=" stroke:none;fill-rule:nonzero;fill:rgb(0%,0%,0%);fill-opacity:1;" d="M 19.507812 142.160156 L 20.882812 142.160156 L 20.882812 143.8125 L 19.507812 143.8125 Z M 19.507812 142.160156 "/>
<path style=" stroke:none;fill-rule:nonzero;fill:rgb(0%,0%,0%);fill-opacity:1;" d="M 26.558594 134.960938 C 25.882812 134.960938 25.375 135.292969 25.03125 135.960938 C 24.691406 136.625 24.519531 137.625 24.519531 138.964844 C 24.519531 140.296875 24.691406 141.296875 25.03125 141.960938 C 25.375 142.628906 25.882812 142.960938 26.558594 142.960938 C 27.242188 142.960938 27.75 142.628906 28.09375 141.960938 C 28.433594 141.296875 28.605469 140.296875 28.605469 138.964844 C 28.605469 137.625 28.433594 136.625 28.09375 135.960938 C 27.75 135.292969 27.242188 134.960938 26.558594 134.960938 Z M 26.558594 133.917969 C 27.648438 133.917969 28.480469 134.347656 29.058594 135.210938 C 29.632812 136.074219 29.917969 137.324219 29.917969 138.964844 C 29.917969 140.601562 29.632812 141.847656 29.058594 142.710938 C 28.480469 143.574219 27.648438 144.003906 26.558594 144.003906 C 25.46875 144.003906 24.636719 143.574219 24.0625 142.710938 C 23.488281 141.847656 23.199219 140.601562 23.199219 138.964844 C 23.199219 137.324219 23.488281 136.074219 24.0625 135.210938 C 24.636719 134.347656 25.46875 133.917969 26.558594 133.917969 Z M 26.558594 133.917969 "/>
<path style=" stroke:none;fill-rule:nonzero;fill:rgb(0%,0%,0%);fill-opacity:1;" d="M 35.84375 135.238281 L 32.523438 140.429688 L 35.84375 140.429688 Z M 35.5 134.09375 L 37.152344 134.09375 L 37.152344 140.429688 L 38.539062 140.429688 L 38.539062 141.523438 L 37.152344 141.523438 L 37.152344 143.8125 L 35.84375 143.8125 L 35.84375 141.523438 L 31.457031 141.523438 L 31.457031 140.253906 Z M 35.5 134.09375 "/>
<g clip-path="url(#clip7)" clip-rule="nonzero">
<path style="fill:none;stroke-width:0.8;stroke-linecap:square;stroke-linejoin:round;stroke:rgb(69.01961%,69.01961%,69.01961%);stroke-opacity:1;stroke-miterlimit:4;" d="M 36.46582 73.833984 L 231.764648 73.833984 " transform="matrix(1.333333,0,0,1.333333,0,0)"/>
</g>
<path style="fill:none;stroke-width:0.8;stroke-linecap:butt;stroke-linejoin:round;stroke:rgb(0%,0%,0%);stroke-opacity:1;stroke-miterlimit:4;" d="M 0.00019455 0.000846863 L -3.500782 0.000846863 " transform="matrix(1.333333,0,0,1.333333,48.620834,98.444183)"/>
<path style=" stroke:none;fill-rule:nonzero;fill:rgb(0%,0%,0%);fill-opacity:1;" d="M 13.835938 94.65625 C 13.160156 94.65625 12.652344 94.988281 12.308594 95.65625 C 11.96875 96.320312 11.800781 97.324219 11.800781 98.660156 C 11.800781 99.992188 11.96875 100.992188 12.308594 101.65625 C 12.652344 102.324219 13.160156 102.65625 13.835938 102.65625 C 14.519531 102.65625 15.03125 102.324219 15.371094 101.65625 C 15.710938 100.992188 15.882812 99.992188 15.882812 98.660156 C 15.882812 97.324219 15.710938 96.320312 15.371094 95.65625 C 15.03125 94.988281 14.519531 94.65625 13.835938 94.65625 Z M 13.835938 93.613281 C 14.929688 93.613281 15.761719 94.046875 16.335938 94.90625 C 16.910156 95.769531 17.199219 97.019531 17.199219 98.660156 C 17.199219 100.296875 16.910156 101.546875 16.335938 102.40625 C 15.761719 103.269531 14.929688 103.699219 13.835938 103.699219 C 12.75 103.699219 11.917969 103.269531 11.339844 102.40625 C 10.765625 101.546875 10.480469 100.296875 10.480469 98.660156 C 10.480469 97.019531 10.765625 95.769531 11.339844 94.90625 C 11.917969 94.046875 12.75 93.613281 13.835938 93.613281 Z M 13.835938 93.613281 "/>
<path style=" stroke:none;fill-rule:nonzero;fill:rgb(0%,0%,0%);fill-opacity:1;" d="M 19.507812 101.855469 L 20.882812 101.855469 L 20.882812 103.511719 L 19.507812 103.511719 Z M 19.507812 101.855469 "/>
<path style=" stroke:none;fill-rule:nonzero;fill:rgb(0%,0%,0%);fill-opacity:1;" d="M 26.558594 94.65625 C 25.882812 94.65625 25.375 94.988281 25.03125 95.65625 C 24.691406 96.320312 24.519531 97.324219 24.519531 98.660156 C 24.519531 99.992188 24.691406 100.992188 25.03125 101.65625 C 25.375 102.324219 25.882812 102.65625 26.558594 102.65625 C 27.242188 102.65625 27.75 102.324219 28.09375 101.65625 C 28.433594 100.992188 28.605469 99.992188 28.605469 98.660156 C 28.605469 97.324219 28.433594 96.320312 28.09375 95.65625 C 27.75 94.988281 27.242188 94.65625 26.558594 94.65625 Z M 26.558594 93.613281 C 27.648438 93.613281 28.480469 94.046875 29.058594 94.90625 C 29.632812 95.769531 29.917969 97.019531 29.917969 98.660156 C 29.917969 100.296875 29.632812 101.546875 29.058594 102.40625 C 28.480469 103.269531 27.648438 103.699219 26.558594 103.699219 C 25.46875 103.699219 24.636719 103.269531 24.0625 102.40625 C 23.488281 101.546875 23.199219 100.296875 23.199219 98.660156 C 23.199219 97.019531 23.488281 95.769531 24.0625 94.90625 C 24.636719 94.046875 25.46875 93.613281 26.558594 93.613281 Z M 26.558594 93.613281 "/>
<path style=" stroke:none;fill-rule:nonzero;fill:rgb(0%,0%,0%);fill-opacity:1;" d="M 35.207031 98.125 C 34.617188 98.125 34.148438 98.328125 33.800781 98.734375 C 33.457031 99.136719 33.285156 99.6875 33.285156 100.390625 C 33.285156 101.089844 33.457031 101.640625 33.800781 102.050781 C 34.148438 102.453125 34.617188 102.65625 35.207031 102.65625 C 35.796875 102.65625 36.265625 102.453125 36.609375 102.050781 C 36.953125 101.640625 37.125 101.089844 37.125 100.390625 C 37.125 99.6875 36.953125 99.136719 36.609375 98.734375 C 36.265625 98.328125 35.796875 98.125 35.207031 98.125 Z M 37.816406 94.003906 L 37.816406 95.203125 C 37.488281 95.046875 37.152344 94.925781 36.816406 94.84375 C 36.480469 94.761719 36.148438 94.71875 35.816406 94.71875 C 34.949219 94.71875 34.285156 95.011719 33.828125 95.597656 C 33.371094 96.183594 33.109375 97.070312 33.042969 98.253906 C 33.300781 97.878906 33.621094 97.589844 34.007812 97.386719 C 34.394531 97.183594 34.820312 97.085938 35.285156 97.085938 C 36.261719 97.085938 37.03125 97.382812 37.597656 97.972656 C 38.164062 98.566406 38.449219 99.371094 38.449219 100.390625 C 38.449219 101.390625 38.152344 102.191406 37.5625 102.796875 C 36.972656 103.398438 36.1875 103.699219 35.207031 103.699219 C 34.082031 103.699219 33.222656 103.269531 32.628906 102.40625 C 32.03125 101.546875 31.734375 100.296875 31.734375 98.660156 C 31.734375 97.125 32.101562 95.898438 32.828125 94.984375 C 33.558594 94.070312 34.535156 93.613281 35.765625 93.613281 C 36.09375 93.613281 36.429688 93.648438 36.765625 93.710938 C 37.101562 93.777344 37.453125 93.875 37.816406 94.003906 Z M 37.816406 94.003906 "/>
<g clip-path="url(#clip8)" clip-rule="nonzero">
<path style="fill:none;stroke-width:0.8;stroke-linecap:square;stroke-linejoin:round;stroke:rgb(69.01961%,69.01961%,69.01961%);stroke-opacity:1;stroke-miterlimit:4;" d="M 36.46582 43.605469 L 231.764648 43.605469 " transform="matrix(1.333333,0,0,1.333333,0,0)"/>
</g>
<path style="fill:none;stroke-width:0.8;stroke-linecap:butt;stroke-linejoin:round;stroke:rgb(0%,0%,0%);stroke-opacity:1;stroke-miterlimit:4;" d="M 0.00019455 0.000267029 L -3.500782 0.000267029 " transform="matrix(1.333333,0,0,1.333333,48.620834,58.140269)"/>
<path style=" stroke:none;fill-rule:nonzero;fill:rgb(0%,0%,0%);fill-opacity:1;" d="M 13.835938 54.351562 C 13.160156 54.351562 12.652344 54.683594 12.308594 55.351562 C 11.96875 56.015625 11.800781 57.019531 11.800781 58.355469 C 11.800781 59.6875 11.96875 60.6875 12.308594 61.355469 C 12.652344 62.019531 13.160156 62.355469 13.835938 62.355469 C 14.519531 62.355469 15.03125 62.019531 15.371094 61.355469 C 15.710938 60.6875 15.882812 59.6875 15.882812 58.355469 C 15.882812 57.019531 15.710938 56.015625 15.371094 55.351562 C 15.03125 54.683594 14.519531 54.351562 13.835938 54.351562 Z M 13.835938 53.308594 C 14.929688 53.308594 15.761719 53.742188 16.335938 54.605469 C 16.910156 55.464844 17.199219 56.714844 17.199219 58.355469 C 17.199219 59.992188 16.910156 61.242188 16.335938 62.105469 C 15.761719 62.964844 14.929688 63.394531 13.835938 63.394531 C 12.75 63.394531 11.917969 62.964844 11.339844 62.105469 C 10.765625 61.242188 10.480469 59.992188 10.480469 58.355469 C 10.480469 56.714844 10.765625 55.464844 11.339844 54.605469 C 11.917969 53.742188 12.75 53.308594 13.835938 53.308594 Z M 13.835938 53.308594 "/>
<path style=" stroke:none;fill-rule:nonzero;fill:rgb(0%,0%,0%);fill-opacity:1;" d="M 19.507812 61.550781 L 20.882812 61.550781 L 20.882812 63.207031 L 19.507812 63.207031 Z M 19.507812 61.550781 "/>
<path style=" stroke:none;fill-rule:nonzero;fill:rgb(0%,0%,0%);fill-opacity:1;" d="M 26.558594 54.351562 C 25.882812 54.351562 25.375 54.683594 25.03125 55.351562 C 24.691406 56.015625 24.519531 57.019531 24.519531 58.355469 C 24.519531 59.6875 24.691406 60.6875 25.03125 61.355469 C 25.375 62.019531 25.882812 62.355469 26.558594 62.355469 C 27.242188 62.355469 27.75 62.019531 28.09375 61.355469 C 28.433594 60.6875 28.605469 59.6875 28.605469 58.355469 C 28.605469 57.019531 28.433594 56.015625 28.09375 55.351562 C 27.75 54.683594 27.242188 54.351562 26.558594 54.351562 Z M 26.558594 53.308594 C 27.648438 53.308594 28.480469 53.742188 29.058594 54.605469 C 29.632812 55.464844 29.917969 56.714844 29.917969 58.355469 C 29.917969 59.992188 29.632812 61.242188 29.058594 62.105469 C 28.480469 62.964844 27.648438 63.394531 26.558594 63.394531 C 25.46875 63.394531 24.636719 62.964844 24.0625 62.105469 C 23.488281 61.242188 23.199219 59.992188 23.199219 58.355469 C 23.199219 56.714844 23.488281 55.464844 24.0625 54.605469 C 24.636719 53.742188 25.46875 53.308594 26.558594 53.308594 Z M 26.558594 53.308594 "/>
<path style=" stroke:none;fill-rule:nonzero;fill:rgb(0%,0%,0%);fill-opacity:1;" d="M 35.042969 58.589844 C 34.417969 58.589844 33.925781 58.757812 33.566406 59.089844 C 33.210938 59.425781 33.03125 59.886719 33.03125 60.46875 C 33.03125 61.054688 33.210938 61.515625 33.566406 61.851562 C 33.925781 62.1875 34.417969 62.355469 35.042969 62.355469 C 35.667969 62.355469 36.160156 62.1875 36.519531 61.851562 C 36.878906 61.511719 37.0625 61.050781 37.0625 60.46875 C 37.0625 59.886719 36.882812 59.425781 36.523438 59.089844 C 36.167969 58.757812 35.671875 58.589844 35.042969 58.589844 Z M 33.726562 58.03125 C 33.164062 57.890625 32.722656 57.628906 32.410156 57.242188 C 32.09375 56.855469 31.9375 56.382812 31.9375 55.828125 C 31.9375 55.050781 32.214844 54.4375 32.765625 53.988281 C 33.320312 53.535156 34.078125 53.308594 35.042969 53.308594 C 36.011719 53.308594 36.769531 53.535156 37.320312 53.988281 C 37.871094 54.4375 38.148438 55.050781 38.148438 55.828125 C 38.148438 56.382812 37.992188 56.855469 37.675781 57.242188 C 37.363281 57.628906 36.925781 57.890625 36.363281 58.03125 C 37 58.179688 37.492188 58.46875 37.84375 58.898438 C 38.199219 59.328125 38.375 59.851562 38.375 60.46875 C 38.375 61.414062 38.085938 62.136719 37.511719 62.640625 C 36.9375 63.144531 36.113281 63.394531 35.042969 63.394531 C 33.972656 63.394531 33.148438 63.144531 32.570312 62.640625 C 31.996094 62.136719 31.707031 61.414062 31.707031 60.46875 C 31.707031 59.851562 31.886719 59.328125 32.242188 58.898438 C 32.597656 58.46875 33.09375 58.179688 33.726562 58.03125 Z M 33.246094 55.953125 C 33.246094 56.457031 33.402344 56.847656 33.71875 57.132812 C 34.03125 57.414062 34.472656 57.554688 35.042969 57.554688 C 35.605469 57.554688 36.050781 57.414062 36.367188 57.132812 C 36.6875 56.847656 36.847656 56.457031 36.847656 55.953125 C 36.847656 55.449219 36.6875 55.054688 36.367188 54.773438 C 36.050781 54.492188 35.605469 54.351562 35.042969 54.351562 C 34.472656 54.351562 34.03125 54.492188 33.71875 54.773438 C 33.402344 55.054688 33.246094 55.449219 33.246094 55.953125 Z M 33.246094 55.953125 "/>
<g clip-path="url(#clip9)" clip-rule="nonzero">
<path style="fill:none;stroke-width:0.8;stroke-linecap:square;stroke-linejoin:round;stroke:rgb(69.01961%,69.01961%,69.01961%);stroke-opacity:1;stroke-miterlimit:4;" d="M 36.46582 13.376953 L 231.764648 13.376953 " transform="matrix(1.333333,0,0,1.333333,0,0)"/>
</g>
<path style="fill:none;stroke-width:0.8;stroke-linecap:butt;stroke-linejoin:round;stroke:rgb(0%,0%,0%);stroke-opacity:1;stroke-miterlimit:4;" d="M 0.00019455 -0.000319481 L -3.500782 -0.000319481 " transform="matrix(1.333333,0,0,1.333333,48.620834,17.836363)"/>
<path style=" stroke:none;fill-rule:nonzero;fill:rgb(0%,0%,0%);fill-opacity:1;" d="M 13.835938 14.046875 C 13.160156 14.046875 12.652344 14.382812 12.308594 15.046875 C 11.96875 15.714844 11.800781 16.714844 11.800781 18.050781 C 11.800781 19.382812 11.96875 20.382812 12.308594 21.050781 C 12.652344 21.714844 13.160156 22.050781 13.835938 22.050781 C 14.519531 22.050781 15.03125 21.714844 15.371094 21.050781 C 15.710938 20.382812 15.882812 19.382812 15.882812 18.050781 C 15.882812 16.714844 15.710938 15.714844 15.371094 15.046875 C 15.03125 14.382812 14.519531 14.046875 13.835938 14.046875 Z M 13.835938 13.007812 C 14.929688 13.007812 15.761719 13.4375 16.335938 14.300781 C 16.910156 15.160156 17.199219 16.410156 17.199219 18.050781 C 17.199219 19.6875 16.910156 20.9375 16.335938 21.800781 C 15.761719 22.660156 14.929688 23.089844 13.835938 23.089844 C 12.75 23.089844 11.917969 22.660156 11.339844 21.800781 C 10.765625 20.9375 10.480469 19.6875 10.480469 18.050781 C 10.480469 16.410156 10.765625 15.160156 11.339844 14.300781 C 11.917969 13.4375 12.75 13.007812 13.835938 13.007812 Z M 13.835938 13.007812 "/>
<path style=" stroke:none;fill-rule:nonzero;fill:rgb(0%,0%,0%);fill-opacity:1;" d="M 19.507812 21.246094 L 20.882812 21.246094 L 20.882812 22.902344 L 19.507812 22.902344 Z M 19.507812 21.246094 "/>
<path style=" stroke:none;fill-rule:nonzero;fill:rgb(0%,0%,0%);fill-opacity:1;" d="M 23.976562 21.796875 L 26.125 21.796875 L 26.125 14.378906 L 23.785156 14.847656 L 23.785156 13.648438 L 26.109375 13.179688 L 27.425781 13.179688 L 27.425781 21.796875 L 29.574219 21.796875 L 29.574219 22.902344 L 23.976562 22.902344 Z M 23.976562 21.796875 "/>
<path style=" stroke:none;fill-rule:nonzero;fill:rgb(0%,0%,0%);fill-opacity:1;" d="M 35.042969 14.046875 C 34.367188 14.046875 33.855469 14.382812 33.515625 15.046875 C 33.175781 15.714844 33.003906 16.714844 33.003906 18.050781 C 33.003906 19.382812 33.175781 20.382812 33.515625 21.050781 C 33.855469 21.714844 34.367188 22.050781 35.042969 22.050781 C 35.722656 22.050781 36.234375 21.714844 36.574219 21.050781 C 36.917969 20.382812 37.085938 19.382812 37.085938 18.050781 C 37.085938 16.714844 36.917969 15.714844 36.574219 15.046875 C 36.234375 14.382812 35.722656 14.046875 35.042969 14.046875 Z M 35.042969 13.007812 C 36.132812 13.007812 36.964844 13.4375 37.539062 14.300781 C 38.113281 15.160156 38.402344 16.410156 38.402344 18.050781 C 38.402344 19.6875 38.113281 20.9375 37.539062 21.800781 C 36.964844 22.660156 36.132812 23.089844 35.042969 23.089844 C 33.953125 23.089844 33.121094 22.660156 32.546875 21.800781 C 31.972656 20.9375 31.683594 19.6875 31.683594 18.050781 C 31.683594 16.410156 31.972656 15.160156 32.546875 14.300781 C 33.121094 13.4375 33.953125 13.007812 35.042969 13.007812 Z M 35.042969 13.007812 "/>
<path style="fill:none;stroke-width:1.5;stroke-linecap:square;stroke-linejoin:round;stroke:rgb(12.156863%,46.666667%,70.588237%);stroke-opacity:1;stroke-miterlimit:4;" d="M 45.342773 13.376953 L 51.46582 57.644531 L 57.588867 77.255859 L 63.708984 88.948242 L 69.832031 96.925781 L 75.955078 102.814453 L 82.075195 107.390625 L 88.198242 111.082031 L 94.321289 114.137695 L 100.444336 116.72168 L 106.564453 118.945312 L 112.6875 120.887695 L 118.810547 122.598633 L 124.933594 124.12207 L 131.053711 125.493164 L 137.176758 126.732422 L 143.299805 127.860352 L 149.419922 128.891602 L 155.542969 129.84375 L 161.666016 130.719727 L 167.789062 131.53418 L 173.90918 132.292969 L 180.032227 133.001953 L 186.155273 133.666992 L 192.27832 134.288086 L 198.398438 134.876953 L 204.521484 135.430664 L 210.644531 135.955078 L 216.764648 136.450195 L 222.887695 136.921875 " transform="matrix(1.333333,0,0,1.333333,0,0)"/>
<path style="fill:none;stroke-width:0.8;stroke-linecap:square;stroke-linejoin:miter;stroke:rgb(0%,0%,0%);stroke-opacity:1;stroke-miterlimit:4;" d="M 36.46582 143.100586 L 36.46582 7.201172 " transform="matrix(1.333333,0,0,1.333333,0,0)"/>
<path style="fill:none;stroke-width:0.8;stroke-linecap:square;stroke-linejoin:miter;stroke:rgb(0%,0%,0%);stroke-opacity:1;stroke-miterlimit:4;" d="M 231.764648 143.100586 L 231.764648 7.201172 " transform="matrix(1.333333,0,0,1.333333,0,0)"/>
<path style="fill:none;stroke-width:0.8;stroke-linecap:square;stroke-linejoin:miter;stroke:rgb(0%,0%,0%);stroke-opacity:1;stroke-miterlimit:4;" d="M 36.46582 143.100586 L 231.764648 143.100586 " transform="matrix(1.333333,0,0,1.333333,0,0)"/>
<path style="fill:none;stroke-width:0.8;stroke-linecap:square;stroke-linejoin:miter;stroke:rgb(0%,0%,0%);stroke-opacity:1;stroke-miterlimit:4;" d="M 36.46582 7.201172 L 231.764648 7.201172 " transform="matrix(1.333333,0,0,1.333333,0,0)"/>
</g>
</svg>
