<?xml version="1.0" encoding="UTF-8"?>
<svg xmlns="http://www.w3.org/2000/svg" xmlns:xlink="http://www.w3.org/1999/xlink" width="324.705811" height="244.474996" viewBox="0 0 324.705811 244.474996" version="1.1">
<defs>
<clipPath id="clip1">
  <path d="M 65 9.601562 L 67 9.601562 L 67 194.398438 L 65 194.398438 Z M 65 9.601562 "/>
</clipPath>
<clipPath id="clip2">
  <path d="M 146 9.601562 L 149 9.601562 L 149 194.398438 L 146 194.398438 Z M 146 9.601562 "/>
</clipPath>
<clipPath id="clip3">
  <path d="M 228 9.601562 L 230 9.601562 L 230 194.398438 L 228 194.398438 Z M 228 9.601562 "/>
</clipPath>
<clipPath id="clip4">
  <path d="M 310 9.601562 L 312 9.601562 L 312 194.398438 L 310 194.398438 Z M 310 9.601562 "/>
</clipPath>
<clipPath id="clip5">
  <path d="M 54.136719 154 L 314.539062 154 L 314.539062 157 L 54.136719 157 Z M 54.136719 154 "/>
</clipPath>
<clipPath id="clip6">
  <path d="M 54.136719 104 L 314.539062 104 L 314.539062 106 L 54.136719 106 Z M 54.136719 104 "/>
</clipPath>
<clipPath id="clip7">
  <path d="M 54.136719 53 L 314.539062 53 L 314.539062 56 L 54.136719 56 Z M 54.136719 53 "/>
</clipPath>
<filter id="alpha" filterUnits="objectBoundingBox" x="0%" y="0%" width="100%" height="100%">
  <feColorMatrix type="matrix" in="SourceGraphic" values="0 0 0 0 1 0 0 0 0 1 0 0 0 0 1 0 0 0 1 0"/>
</filter>
<mask id="mask0">
  <g filter="url(#alpha)">
<rect x="0" y="0" width="324.705811" height="244.474996" style="fill:rgb(0%,0%,0%);fill-opacity:0.8;stroke:none;"/>
  </g>
</mask>
<clipPath id="clip8">
  <rect x="0" y="0" width="325" height="245"/>
</clipPath>
<g id="surface5" clip-path="url(#clip8)">
<path style="fill-rule:nonzero;fill:rgb(100%,100%,100%);fill-opacity:1;stroke-width:1;stroke-linecap:butt;stroke-linejoin:miter;stroke:rgb(80.000001%,80.000001%,80.000001%);stroke-opacity:1;stroke-miterlimit:4;" d="M 47.604492 44.557617 L 172.154297 44.557617 C 173.487305 44.557617 174.152344 43.889648 174.152344 42.556641 L 174.152344 14.200195 C 174.152344 12.867187 173.487305 12.199219 172.154297 12.199219 L 47.604492 12.199219 C 46.268555 12.199219 45.603516 12.867187 45.603516 14.200195 L 45.603516 42.556641 C 45.603516 43.889648 46.268555 44.557617 47.604492 44.557617 Z M 47.604492 44.557617 " transform="matrix(1.333333,0,0,1.333333,0,0.000000000000014211)"/>
</g>
</defs>
<g id="surface1">
<path style=" stroke:none;fill-rule:nonzero;fill:rgb(100%,100%,100%);fill-opacity:1;" d="M 0 244.476562 L 324.707031 244.476562 L 324.707031 0 L 0 0 Z M 0 244.476562 "/>
<path style=" stroke:none;fill-rule:nonzero;fill:rgb(100%,100%,100%);fill-opacity:1;" d="M 54.136719 194.398438 L 314.539062 194.398438 L 314.539062 9.601562 L 54.136719 9.601562 Z M 54.136719 194.398438 "/>
<g clip-path="url(#clip1)" clip-rule="nonzero">
<path style="fill:none;stroke-width:0.8;stroke-linecap:square;stroke-linejoin:round;stroke:rgb(69.01961%,69.01961%,69.01961%);stroke-opacity:1;stroke-miterlimit:4;" d="M 49.479492 145.798828 L 49.479492 7.201172 " transform="matrix(1.333333,0,0,1.333333,0,0.000000000000014211)"/>
</g>
<path style="fill:none;stroke-width:0.8;stroke-linecap:butt;stroke-linejoin:round;stroke:rgb(0%,0%,0%);stroke-opacity:1;stroke-miterlimit:4;" d="M -0.000904083 -0.00117493 L -0.000904083 3.499802 " transform="matrix(1.333333,0,0,1.333333,65.973862,194.400004)"/>
<path style=" stroke:none;fill-rule:nonzero;fill:rgb(0%,0%,0%);fill-opacity:1;" d="M 65.96875 205.011719 C 65.292969 205.011719 64.785156 205.34375 64.441406 206.011719 C 64.101562 206.675781 63.933594 207.675781 63.933594 209.015625 C 63.933594 210.347656 64.101562 211.347656 64.441406 212.011719 C 64.785156 212.679688 65.292969 213.011719 65.96875 213.011719 C 66.652344 213.011719 67.164062 212.679688 67.503906 212.011719 C 67.84375 211.347656 68.015625 210.347656 68.015625 209.015625 C 68.015625 207.675781 67.84375 206.675781 67.503906 206.011719 C 67.164062 205.34375 66.652344 205.011719 65.96875 205.011719 Z M 65.96875 203.96875 C 67.058594 203.96875 67.894531 204.398438 68.46875 205.261719 C 69.042969 206.125 69.332031 207.375 69.332031 209.015625 C 69.332031 210.652344 69.042969 211.898438 68.46875 212.761719 C 67.894531 213.625 67.058594 214.054688 65.96875 214.054688 C 64.878906 214.054688 64.050781 213.625 63.472656 212.761719 C 62.898438 211.898438 62.613281 210.652344 62.613281 209.015625 C 62.613281 207.375 62.898438 206.125 63.472656 205.261719 C 64.050781 204.398438 64.878906 203.96875 65.96875 203.96875 Z M 65.96875 203.96875 "/>
<g clip-path="url(#clip2)" clip-rule="nonzero">
<path style="fill:none;stroke-width:0.8;stroke-linecap:square;stroke-linejoin:round;stroke:rgb(69.01961%,69.01961%,69.01961%);stroke-opacity:1;stroke-miterlimit:4;" d="M 110.704102 145.798828 L 110.704102 7.201172 " transform="matrix(1.333333,0,0,1.333333,0,0.000000000000014211)"/>
</g>
<path style="fill:none;stroke-width:0.8;stroke-linecap:butt;stroke-linejoin:round;stroke:rgb(0%,0%,0%);stroke-opacity:1;stroke-miterlimit:4;" d="M 0.00113678 -0.00117493 L 0.00113678 3.499802 " transform="matrix(1.333333,0,0,1.333333,147.603953,194.400004)"/>
<path style=" stroke:none;fill-rule:nonzero;fill:rgb(0%,0%,0%);fill-opacity:1;" d="M 145.015625 212.757812 L 147.164062 212.757812 L 147.164062 205.339844 L 144.828125 205.808594 L 144.828125 204.613281 L 147.152344 204.144531 L 148.464844 204.144531 L 148.464844 212.757812 L 150.613281 212.757812 L 150.613281 213.863281 L 145.015625 213.863281 Z M 145.015625 212.757812 "/>
<g clip-path="url(#clip3)" clip-rule="nonzero">
<path style="fill:none;stroke-width:0.8;stroke-linecap:square;stroke-linejoin:round;stroke:rgb(69.01961%,69.01961%,69.01961%);stroke-opacity:1;stroke-miterlimit:4;" d="M 171.925781 145.798828 L 171.925781 7.201172 " transform="matrix(1.333333,0,0,1.333333,0,0.000000000000014211)"/>
</g>
<path style="fill:none;stroke-width:0.8;stroke-linecap:butt;stroke-linejoin:round;stroke:rgb(0%,0%,0%);stroke-opacity:1;stroke-miterlimit:4;" d="M 0.000244141 -0.00117493 L 0.000244141 3.499802 " transform="matrix(1.333333,0,0,1.333333,229.234049,194.400004)"/>
<path style=" stroke:none;fill-rule:nonzero;fill:rgb(0%,0%,0%);fill-opacity:1;" d="M 227.550781 212.757812 L 232.140625 212.757812 L 232.140625 213.863281 L 225.96875 213.863281 L 225.96875 212.757812 C 226.46875 212.242188 227.148438 211.546875 228.007812 210.679688 C 228.871094 209.808594 229.414062 209.246094 229.632812 208.992188 C 230.054688 208.523438 230.347656 208.121094 230.515625 207.792969 C 230.683594 207.464844 230.765625 207.144531 230.765625 206.828125 C 230.765625 206.308594 230.585938 205.890625 230.222656 205.566406 C 229.859375 205.238281 229.390625 205.074219 228.808594 205.074219 C 228.394531 205.074219 227.960938 205.148438 227.5 205.289062 C 227.042969 205.433594 226.554688 205.648438 226.035156 205.941406 L 226.035156 204.613281 C 226.5625 204.398438 227.058594 204.238281 227.515625 204.132812 C 227.976562 204.023438 228.398438 203.96875 228.78125 203.96875 C 229.789062 203.96875 230.589844 204.222656 231.191406 204.726562 C 231.789062 205.226562 232.089844 205.898438 232.089844 206.742188 C 232.089844 207.140625 232.011719 207.519531 231.863281 207.878906 C 231.714844 208.234375 231.441406 208.65625 231.046875 209.144531 C 230.9375 209.269531 230.59375 209.632812 230.011719 210.234375 C 229.429688 210.835938 228.609375 211.679688 227.550781 212.757812 Z M 227.550781 212.757812 "/>
<g clip-path="url(#clip4)" clip-rule="nonzero">
<path style="fill:none;stroke-width:0.8;stroke-linecap:square;stroke-linejoin:round;stroke:rgb(69.01961%,69.01961%,69.01961%);stroke-opacity:1;stroke-miterlimit:4;" d="M 233.147461 145.798828 L 233.147461 7.201172 " transform="matrix(1.333333,0,0,1.333333,0,0.000000000000014211)"/>
</g>
<path style="fill:none;stroke-width:0.8;stroke-linecap:butt;stroke-linejoin:round;stroke:rgb(0%,0%,0%);stroke-opacity:1;stroke-miterlimit:4;" d="M -0.000640869 -0.00117493 L -0.000640869 3.499802 " transform="matrix(1.333333,0,0,1.333333,310.864136,194.400004)"/>
<path style=" stroke:none;fill-rule:nonzero;fill:rgb(0%,0%,0%);fill-opacity:1;" d="M 312.03125 208.621094 C 312.660156 208.757812 313.152344 209.039062 313.503906 209.464844 C 313.859375 209.890625 314.035156 210.414062 314.035156 211.039062 C 314.035156 211.996094 313.707031 212.742188 313.046875 213.265625 C 312.386719 213.792969 311.449219 214.054688 310.234375 214.054688 C 309.828125 214.054688 309.410156 214.015625 308.976562 213.933594 C 308.542969 213.851562 308.097656 213.730469 307.640625 213.570312 L 307.640625 212.300781 C 308.003906 212.515625 308.402344 212.675781 308.835938 212.785156 C 309.269531 212.890625 309.722656 212.945312 310.199219 212.945312 C 311.019531 212.945312 311.648438 212.785156 312.082031 212.457031 C 312.511719 212.132812 312.730469 211.660156 312.730469 211.039062 C 312.730469 210.464844 312.527344 210.019531 312.125 209.695312 C 311.726562 209.371094 311.167969 209.210938 310.453125 209.210938 L 309.316406 209.210938 L 309.316406 208.128906 L 310.503906 208.128906 C 311.148438 208.128906 311.644531 208 311.988281 207.742188 C 312.332031 207.484375 312.5 207.109375 312.5 206.625 C 312.5 206.125 312.324219 205.742188 311.96875 205.476562 C 311.617188 205.210938 311.113281 205.074219 310.453125 205.074219 C 310.089844 205.074219 309.703125 205.113281 309.292969 205.195312 C 308.878906 205.273438 308.425781 205.390625 307.929688 205.554688 L 307.929688 204.386719 C 308.429688 204.246094 308.898438 204.140625 309.335938 204.074219 C 309.769531 204.003906 310.183594 203.96875 310.566406 203.96875 C 311.566406 203.96875 312.355469 204.195312 312.9375 204.648438 C 313.519531 205.101562 313.808594 205.714844 313.808594 206.488281 C 313.808594 207.027344 313.65625 207.480469 313.347656 207.851562 C 313.039062 208.222656 312.601562 208.480469 312.03125 208.621094 Z M 312.03125 208.621094 "/>
<path style=" stroke:none;fill-rule:nonzero;fill:rgb(0%,0%,0%);fill-opacity:1;" d="M 187.710938 224.808594 L 185.074219 228.359375 L 187.847656 232.101562 L 186.433594 232.101562 L 184.308594 229.238281 L 182.191406 232.101562 L 180.773438 232.101562 L 183.609375 228.289062 L 181.015625 224.808594 L 182.429688 224.808594 L 184.363281 227.410156 L 186.296875 224.808594 Z M 187.710938 224.808594 "/>
<g clip-path="url(#clip5)" clip-rule="nonzero">
<path style="fill:none;stroke-width:0.8;stroke-linecap:square;stroke-linejoin:round;stroke:rgb(69.01961%,69.01961%,69.01961%);stroke-opacity:1;stroke-miterlimit:4;" d="M 40.602539 116.768555 L 235.904297 116.768555 " transform="matrix(1.333333,0,0,1.333333,0,0.000000000000014211)"/>
</g>
<path style="fill:none;stroke-width:0.8;stroke-linecap:butt;stroke-linejoin:round;stroke:rgb(0%,0%,0%);stroke-opacity:1;stroke-miterlimit:4;" d="M -0.000587463 -0.00144196 L -3.498634 -0.00144196 " transform="matrix(1.333333,0,0,1.333333,54.137502,155.693329)"/>
<path style=" stroke:none;fill-rule:nonzero;fill:rgb(0%,0%,0%);fill-opacity:1;" d="M 40.558594 151.90625 C 39.882812 151.90625 39.371094 152.238281 39.03125 152.90625 C 38.691406 153.570312 38.519531 154.570312 38.519531 155.910156 C 38.519531 157.242188 38.691406 158.238281 39.03125 158.90625 C 39.371094 159.574219 39.882812 159.90625 40.558594 159.90625 C 41.242188 159.90625 41.75 159.574219 42.089844 158.90625 C 42.433594 158.238281 42.605469 157.242188 42.605469 155.910156 C 42.605469 154.570312 42.433594 153.570312 42.089844 152.90625 C 41.75 152.238281 41.242188 151.90625 40.558594 151.90625 Z M 40.558594 150.863281 C 41.648438 150.863281 42.480469 151.292969 43.054688 152.15625 C 43.632812 153.019531 43.917969 154.269531 43.917969 155.910156 C 43.917969 157.546875 43.632812 158.792969 43.054688 159.65625 C 42.480469 160.519531 41.648438 160.949219 40.558594 160.949219 C 39.46875 160.949219 38.636719 160.519531 38.0625 159.65625 C 37.488281 158.792969 37.199219 157.546875 37.199219 155.910156 C 37.199219 154.269531 37.488281 153.019531 38.0625 152.15625 C 38.636719 151.292969 39.46875 150.863281 40.558594 150.863281 Z M 40.558594 150.863281 "/>
<g clip-path="url(#clip6)" clip-rule="nonzero">
<path style="fill:none;stroke-width:0.8;stroke-linecap:square;stroke-linejoin:round;stroke:rgb(69.01961%,69.01961%,69.01961%);stroke-opacity:1;stroke-miterlimit:4;" d="M 40.602539 78.887695 L 235.904297 78.887695 " transform="matrix(1.333333,0,0,1.333333,0,0.000000000000014211)"/>
</g>
<path style="fill:none;stroke-width:0.8;stroke-linecap:butt;stroke-linejoin:round;stroke:rgb(0%,0%,0%);stroke-opacity:1;stroke-miterlimit:4;" d="M -0.000587463 0.0010376 L -3.498634 0.0010376 " transform="matrix(1.333333,0,0,1.333333,54.137502,105.18221)"/>
<path style=" stroke:none;fill-rule:nonzero;fill:rgb(0%,0%,0%);fill-opacity:1;" d="M 37.761719 100.527344 L 42.921875 100.527344 L 42.921875 101.636719 L 38.964844 101.636719 L 38.964844 104.015625 C 39.15625 103.953125 39.34375 103.902344 39.535156 103.871094 C 39.726562 103.839844 39.917969 103.824219 40.109375 103.824219 C 41.195312 103.824219 42.054688 104.121094 42.6875 104.714844 C 43.320312 105.308594 43.640625 106.113281 43.640625 107.128906 C 43.640625 108.175781 43.3125 108.988281 42.664062 109.570312 C 42.011719 110.148438 41.09375 110.4375 39.910156 110.4375 C 39.5 110.4375 39.085938 110.402344 38.660156 110.332031 C 38.238281 110.265625 37.800781 110.160156 37.351562 110.019531 L 37.351562 108.699219 C 37.742188 108.910156 38.144531 109.070312 38.558594 109.171875 C 38.976562 109.277344 39.417969 109.328125 39.882812 109.328125 C 40.632812 109.328125 41.226562 109.132812 41.664062 108.738281 C 42.101562 108.34375 42.324219 107.808594 42.324219 107.128906 C 42.324219 106.453125 42.101562 105.917969 41.664062 105.523438 C 41.226562 105.128906 40.632812 104.929688 39.882812 104.929688 C 39.53125 104.929688 39.179688 104.96875 38.828125 105.046875 C 38.480469 105.125 38.125 105.246094 37.761719 105.410156 Z M 37.761719 100.527344 "/>
<g clip-path="url(#clip7)" clip-rule="nonzero">
<path style="fill:none;stroke-width:0.8;stroke-linecap:square;stroke-linejoin:round;stroke:rgb(69.01961%,69.01961%,69.01961%);stroke-opacity:1;stroke-miterlimit:4;" d="M 40.602539 41.003906 L 235.904297 41.003906 " transform="matrix(1.333333,0,0,1.333333,0,0.000000000000014211)"/>
</g>
<path style="fill:none;stroke-width:0.8;stroke-linecap:butt;stroke-linejoin:round;stroke:rgb(0%,0%,0%);stroke-opacity:1;stroke-miterlimit:4;" d="M -0.000587463 0.000579834 L -3.498634 0.000579834 " transform="matrix(1.333333,0,0,1.333333,54.137502,54.671102)"/>
<path style=" stroke:none;fill-rule:nonzero;fill:rgb(0%,0%,0%);fill-opacity:1;" d="M 29.492188 58.628906 L 31.640625 58.628906 L 31.640625 51.214844 L 29.300781 51.683594 L 29.300781 50.484375 L 31.628906 50.015625 L 32.941406 50.015625 L 32.941406 58.628906 L 35.089844 58.628906 L 35.089844 59.738281 L 29.492188 59.738281 Z M 29.492188 58.628906 "/>
<path style=" stroke:none;fill-rule:nonzero;fill:rgb(0%,0%,0%);fill-opacity:1;" d="M 40.558594 50.882812 C 39.882812 50.882812 39.371094 51.214844 39.03125 51.882812 C 38.691406 52.546875 38.519531 53.550781 38.519531 54.886719 C 38.519531 56.21875 38.691406 57.21875 39.03125 57.882812 C 39.371094 58.550781 39.882812 58.882812 40.558594 58.882812 C 41.238281 58.882812 41.75 58.550781 42.089844 57.882812 C 42.433594 57.21875 42.605469 56.21875 42.605469 54.886719 C 42.605469 53.550781 42.433594 52.546875 42.089844 51.882812 C 41.75 51.214844 41.238281 50.882812 40.558594 50.882812 Z M 40.558594 49.839844 C 41.648438 49.839844 42.480469 50.273438 43.054688 51.132812 C 43.632812 51.996094 43.917969 53.246094 43.917969 54.886719 C 43.917969 56.523438 43.632812 57.773438 43.054688 58.632812 C 42.480469 59.496094 41.648438 59.925781 40.558594 59.925781 C 39.46875 59.925781 38.636719 59.496094 38.0625 58.632812 C 37.488281 57.773438 37.199219 56.523438 37.199219 54.886719 C 37.199219 53.246094 37.488281 51.996094 38.0625 51.132812 C 38.636719 50.273438 39.46875 49.839844 40.558594 49.839844 Z M 40.558594 49.839844 "/>
<path style=" stroke:none;fill-rule:nonzero;fill:rgb(0%,0%,0%);fill-opacity:1;" d="M 9.601562 108.546875 L 10.597656 108.546875 L 10.597656 109.691406 C 10.597656 110.121094 10.683594 110.421875 10.859375 110.589844 C 11.03125 110.753906 11.34375 110.839844 11.796875 110.839844 L 12.441406 110.839844 L 12.441406 108.867188 L 13.371094 108.867188 L 13.371094 110.839844 L 19.730469 110.839844 L 19.730469 112.042969 L 13.371094 112.042969 L 13.371094 113.1875 L 12.441406 113.1875 L 12.441406 112.042969 L 11.929688 112.042969 C 11.121094 112.042969 10.527344 111.855469 10.160156 111.476562 C 9.785156 111.097656 9.601562 110.5 9.601562 109.679688 Z M 9.601562 108.546875 "/>
<path style=" stroke:none;fill-rule:nonzero;fill:rgb(0%,0%,0%);fill-opacity:1;" d="M 9.613281 104.667969 C 10.613281 105.246094 11.597656 105.679688 12.578125 105.964844 C 13.554688 106.246094 14.542969 106.386719 15.546875 106.386719 C 16.546875 106.386719 17.539062 106.242188 18.523438 105.960938 C 19.507812 105.675781 20.496094 105.242188 21.488281 104.667969 L 21.488281 105.710938 C 20.46875 106.359375 19.464844 106.847656 18.480469 107.167969 C 17.496094 107.492188 16.519531 107.65625 15.546875 107.65625 C 14.578125 107.65625 13.601562 107.496094 12.621094 107.171875 C 11.640625 106.851562 10.636719 106.363281 9.613281 105.710938 Z M 9.613281 104.667969 "/>
<path style=" stroke:none;fill-rule:nonzero;fill:rgb(0%,0%,0%);fill-opacity:1;" d="M 12.441406 96.28125 L 15.988281 98.917969 L 19.730469 96.144531 L 19.730469 97.558594 L 16.867188 99.679688 L 19.730469 101.800781 L 19.730469 103.214844 L 15.917969 100.382812 L 12.441406 102.972656 L 12.441406 101.5625 L 15.039062 99.628906 L 12.441406 97.695312 Z M 12.441406 96.28125 "/>
<path style=" stroke:none;fill-rule:nonzero;fill:rgb(0%,0%,0%);fill-opacity:1;" d="M 9.613281 94.640625 L 9.613281 93.597656 C 10.636719 92.949219 11.640625 92.460938 12.621094 92.136719 C 13.601562 91.8125 14.578125 91.652344 15.546875 91.652344 C 16.519531 91.652344 17.496094 91.8125 18.480469 92.136719 C 19.464844 92.460938 20.46875 92.949219 21.488281 93.597656 L 21.488281 94.640625 C 20.496094 94.0625 19.507812 93.632812 18.523438 93.347656 C 17.539062 93.0625 16.546875 92.921875 15.546875 92.921875 C 14.542969 92.921875 13.554688 93.0625 12.578125 93.347656 C 11.597656 93.632812 10.613281 94.0625 9.613281 94.640625 Z M 9.613281 94.640625 "/>
<path style="fill:none;stroke-width:1.5;stroke-linecap:square;stroke-linejoin:round;stroke:rgb(12.156863%,46.666667%,70.588237%);stroke-opacity:1;stroke-miterlimit:4;" d="M 49.479492 116.768555 L 55.602539 119.572266 L 61.725586 121.921875 L 67.848633 123.817383 L 73.96875 125.255859 L 80.091797 126.240234 L 86.214844 126.770508 L 92.334961 126.84668 L 98.458008 126.46875 L 104.581055 125.633789 L 110.704102 124.347656 L 116.824219 122.604492 L 122.947266 120.407227 L 129.070312 117.755859 L 135.193359 114.647461 L 141.313477 111.087891 L 147.436523 107.071289 L 153.55957 102.600586 L 159.679688 97.675781 L 165.802734 92.296875 L 171.925781 86.463867 L 178.048828 80.173828 L 184.168945 73.432617 L 190.291992 66.234375 L 196.415039 58.582031 L 202.538086 50.475586 L 208.658203 41.912109 L 214.78125 32.897461 L 220.904297 23.425781 L 227.024414 13.5 " transform="matrix(1.333333,0,0,1.333333,0,0.000000000000014211)"/>
<path style="fill:none;stroke-width:1.5;stroke-linecap:butt;stroke-linejoin:round;stroke:rgb(74.901962%,0%,74.901962%);stroke-opacity:1;stroke-dasharray:5.55,2.4;stroke-miterlimit:4;" d="M 49.479492 139.5 L 61.725586 136.470703 L 67.848633 134.953125 L 73.96875 133.438477 L 86.214844 130.40918 L 92.334961 128.891602 L 110.704102 124.347656 L 116.824219 122.830078 L 135.193359 118.286133 L 141.313477 116.768555 L 153.55957 113.739258 L 159.679688 112.224609 L 165.802734 110.709961 L 171.925781 109.192383 L 178.048828 107.677734 L 184.168945 106.163086 L 190.291992 104.648437 L 196.415039 103.130859 L 202.538086 101.616211 L 208.658203 100.101562 L 214.78125 98.586914 L 220.904297 97.069336 L 227.024414 95.554687 " transform="matrix(1.333333,0,0,1.333333,0,0.000000000000014211)"/>
<path style="fill:none;stroke-width:0.8;stroke-linecap:square;stroke-linejoin:miter;stroke:rgb(0%,0%,0%);stroke-opacity:1;stroke-miterlimit:4;" d="M 40.602539 145.798828 L 40.602539 7.201172 " transform="matrix(1.333333,0,0,1.333333,0,0.000000000000014211)"/>
<path style="fill:none;stroke-width:0.8;stroke-linecap:square;stroke-linejoin:miter;stroke:rgb(0%,0%,0%);stroke-opacity:1;stroke-miterlimit:4;" d="M 235.904297 145.798828 L 235.904297 7.201172 " transform="matrix(1.333333,0,0,1.333333,0,0.000000000000014211)"/>
<path style="fill:none;stroke-width:0.8;stroke-linecap:square;stroke-linejoin:miter;stroke:rgb(0%,0%,0%);stroke-opacity:1;stroke-miterlimit:4;" d="M 40.602539 145.798828 L 235.904297 145.798828 " transform="matrix(1.333333,0,0,1.333333,0,0.000000000000014211)"/>
<path style="fill:none;stroke-width:0.8;stroke-linecap:square;stroke-linejoin:miter;stroke:rgb(0%,0%,0%);stroke-opacity:1;stroke-miterlimit:4;" d="M 40.602539 7.201172 L 235.904297 7.201172 " transform="matrix(1.333333,0,0,1.333333,0,0.000000000000014211)"/>
<use xlink:href="#surface5" mask="url(#mask0)"/>
<path style="fill:none;stroke-width:1.5;stroke-linecap:square;stroke-linejoin:round;stroke:rgb(12.156863%,46.666667%,70.588237%);stroke-opacity:1;stroke-miterlimit:4;" d="M 49.602539 20.299805 L 69.603516 20.299805 " transform="matrix(1.333333,0,0,1.333333,0,0.000000000000014211)"/>
<path style=" stroke:none;fill-rule:nonzero;fill:rgb(0%,0%,0%);fill-opacity:1;" d="M 108.417969 21.601562 L 108.417969 22.597656 L 107.273438 22.597656 C 106.84375 22.597656 106.546875 22.683594 106.378906 22.859375 C 106.210938 23.03125 106.128906 23.34375 106.128906 23.796875 L 106.128906 24.441406 L 108.101562 24.441406 L 108.101562 25.371094 L 106.128906 25.371094 L 106.128906 31.730469 L 104.921875 31.730469 L 104.921875 25.371094 L 103.777344 25.371094 L 103.777344 24.441406 L 104.921875 24.441406 L 104.921875 23.929688 C 104.921875 23.121094 105.113281 22.527344 105.488281 22.160156 C 105.867188 21.785156 106.464844 21.601562 107.285156 21.601562 Z M 108.417969 21.601562 "/>
<path style=" stroke:none;fill-rule:nonzero;fill:rgb(0%,0%,0%);fill-opacity:1;" d="M 112.296875 21.613281 C 111.71875 22.613281 111.285156 23.597656 111.003906 24.578125 C 110.71875 25.554688 110.578125 26.542969 110.578125 27.546875 C 110.578125 28.546875 110.722656 29.539062 111.007812 30.523438 C 111.292969 31.507812 111.722656 32.496094 112.296875 33.488281 L 111.257812 33.488281 C 110.605469 32.46875 110.121094 31.464844 109.796875 30.480469 C 109.472656 29.496094 109.3125 28.519531 109.3125 27.546875 C 109.3125 26.578125 109.472656 25.601562 109.792969 24.621094 C 110.113281 23.640625 110.601562 22.636719 111.257812 21.613281 Z M 112.296875 21.613281 "/>
<path style=" stroke:none;fill-rule:nonzero;fill:rgb(0%,0%,0%);fill-opacity:1;" d="M 120.683594 24.441406 L 118.046875 27.988281 L 120.820312 31.730469 L 119.410156 31.730469 L 117.285156 28.867188 L 115.164062 31.730469 L 113.75 31.730469 L 116.582031 27.917969 L 113.992188 24.441406 L 115.402344 24.441406 L 117.335938 27.039062 L 119.269531 24.441406 Z M 120.683594 24.441406 "/>
<path style=" stroke:none;fill-rule:nonzero;fill:rgb(0%,0%,0%);fill-opacity:1;" d="M 122.324219 21.613281 L 123.367188 21.613281 C 124.019531 22.636719 124.503906 23.640625 124.828125 24.621094 C 125.152344 25.601562 125.3125 26.578125 125.3125 27.546875 C 125.3125 28.519531 125.152344 29.496094 124.828125 30.480469 C 124.503906 31.464844 124.019531 32.46875 123.367188 33.488281 L 122.324219 33.488281 C 122.902344 32.496094 123.332031 31.507812 123.617188 30.523438 C 123.902344 29.539062 124.042969 28.546875 124.042969 27.546875 C 124.042969 26.542969 123.902344 25.554688 123.617188 24.578125 C 123.332031 23.597656 122.902344 22.613281 122.324219 21.613281 Z M 122.324219 21.613281 "/>
<path style="fill:none;stroke-width:1.5;stroke-linecap:butt;stroke-linejoin:round;stroke:rgb(74.901962%,0%,74.901962%);stroke-opacity:1;stroke-dasharray:5.55,2.4;stroke-miterlimit:4;" d="M 49.602539 34.977539 L 69.603516 34.977539 " transform="matrix(1.333333,0,0,1.333333,0,0.000000000000014211)"/>
<path style=" stroke:none;fill-rule:nonzero;fill:rgb(0%,0%,0%);fill-opacity:1;" d="M 103.429688 41.582031 L 111.652344 41.582031 L 111.652344 42.691406 L 108.203125 42.691406 L 108.203125 51.300781 L 106.882812 51.300781 L 106.882812 42.691406 L 103.429688 42.691406 Z M 103.429688 41.582031 "/>
<path style=" stroke:none;fill-rule:nonzero;fill:rgb(0%,0%,0%);fill-opacity:1;" d="M 113.984375 47.636719 C 113.019531 47.636719 112.347656 47.746094 111.972656 47.96875 C 111.601562 48.191406 111.414062 48.566406 111.414062 49.101562 C 111.414062 49.527344 111.554688 49.863281 111.835938 50.113281 C 112.113281 50.363281 112.496094 50.488281 112.976562 50.488281 C 113.640625 50.488281 114.175781 50.253906 114.574219 49.78125 C 114.976562 49.308594 115.179688 48.683594 115.179688 47.902344 L 115.179688 47.636719 Z M 116.375 47.140625 L 116.375 51.300781 L 115.179688 51.300781 L 115.179688 50.195312 C 114.902344 50.636719 114.5625 50.964844 114.15625 51.175781 C 113.746094 51.386719 113.246094 51.492188 112.65625 51.492188 C 111.910156 51.492188 111.316406 51.28125 110.875 50.863281 C 110.433594 50.441406 110.214844 49.882812 110.214844 49.179688 C 110.214844 48.359375 110.488281 47.742188 111.039062 47.324219 C 111.589844 46.910156 112.40625 46.699219 113.496094 46.699219 L 115.179688 46.699219 L 115.179688 46.582031 C 115.179688 46.03125 114.996094 45.601562 114.632812 45.300781 C 114.273438 45 113.761719 44.851562 113.105469 44.851562 C 112.691406 44.851562 112.285156 44.898438 111.886719 45 C 111.492188 45.101562 111.113281 45.25 110.75 45.449219 L 110.75 44.339844 C 111.1875 44.171875 111.613281 44.046875 112.027344 43.960938 C 112.4375 43.878906 112.839844 43.835938 113.230469 43.835938 C 114.285156 43.835938 115.074219 44.109375 115.59375 44.65625 C 116.117188 45.203125 116.375 46.03125 116.375 47.140625 Z M 116.375 47.140625 "/>
<path style=" stroke:none;fill-rule:nonzero;fill:rgb(0%,0%,0%);fill-opacity:1;" d="M 124.90625 46.898438 L 124.90625 51.300781 L 123.707031 51.300781 L 123.707031 46.941406 C 123.707031 46.25 123.570312 45.734375 123.300781 45.390625 C 123.03125 45.046875 122.628906 44.878906 122.09375 44.878906 C 121.445312 44.878906 120.933594 45.082031 120.5625 45.496094 C 120.1875 45.90625 120 46.46875 120 47.179688 L 120 51.300781 L 118.796875 51.300781 L 118.796875 44.011719 L 120 44.011719 L 120 45.144531 C 120.289062 44.703125 120.625 44.378906 121.011719 44.160156 C 121.402344 43.945312 121.851562 43.835938 122.359375 43.835938 C 123.195312 43.835938 123.828125 44.09375 124.257812 44.613281 C 124.6875 45.128906 124.90625 45.894531 124.90625 46.898438 Z M 124.90625 46.898438 "/>
<path style=" stroke:none;fill-rule:nonzero;fill:rgb(0%,0%,0%);fill-opacity:1;" d="M 132.089844 47.570312 C 132.089844 46.703125 131.910156 46.03125 131.554688 45.554688 C 131.195312 45.078125 130.695312 44.835938 130.046875 44.835938 C 129.40625 44.835938 128.90625 45.078125 128.546875 45.554688 C 128.1875 46.03125 128.007812 46.703125 128.007812 47.570312 C 128.007812 48.433594 128.1875 49.105469 128.546875 49.582031 C 128.90625 50.0625 129.40625 50.300781 130.046875 50.300781 C 130.695312 50.300781 131.195312 50.0625 131.554688 49.582031 C 131.910156 49.105469 132.089844 48.433594 132.089844 47.570312 Z M 133.289062 50.398438 C 133.289062 51.636719 133.011719 52.5625 132.460938 53.167969 C 131.910156 53.773438 131.066406 54.074219 129.929688 54.074219 C 129.507812 54.074219 129.113281 54.042969 128.738281 53.980469 C 128.363281 53.917969 128.003906 53.820312 127.652344 53.691406 L 127.652344 52.527344 C 128.003906 52.71875 128.351562 52.859375 128.691406 52.949219 C 129.035156 53.039062 129.386719 53.085938 129.742188 53.085938 C 130.527344 53.085938 131.113281 52.878906 131.503906 52.472656 C 131.894531 52.0625 132.089844 51.441406 132.089844 50.613281 L 132.089844 50.019531 C 131.84375 50.449219 131.527344 50.769531 131.140625 50.984375 C 130.753906 51.195312 130.292969 51.300781 129.753906 51.300781 C 128.859375 51.300781 128.140625 50.960938 127.59375 50.28125 C 127.046875 49.597656 126.773438 48.695312 126.773438 47.570312 C 126.773438 46.441406 127.046875 45.539062 127.59375 44.859375 C 128.140625 44.175781 128.859375 43.835938 129.753906 43.835938 C 130.292969 43.835938 130.753906 43.941406 131.140625 44.152344 C 131.527344 44.367188 131.84375 44.6875 132.089844 45.117188 L 132.089844 44.011719 L 133.289062 44.011719 Z M 133.289062 50.398438 "/>
<path style=" stroke:none;fill-rule:nonzero;fill:rgb(0%,0%,0%);fill-opacity:1;" d="M 141.992188 47.355469 L 141.992188 47.941406 L 136.484375 47.941406 C 136.539062 48.765625 136.785156 49.394531 137.230469 49.828125 C 137.675781 50.257812 138.296875 50.476562 139.089844 50.476562 C 139.550781 50.476562 139.996094 50.417969 140.425781 50.304688 C 140.859375 50.195312 141.289062 50.023438 141.714844 49.796875 L 141.714844 50.929688 C 141.285156 51.113281 140.84375 51.253906 140.390625 51.347656 C 139.941406 51.445312 139.484375 51.492188 139.019531 51.492188 C 137.855469 51.492188 136.933594 51.152344 136.253906 50.476562 C 135.574219 49.800781 135.234375 48.882812 135.234375 47.726562 C 135.234375 46.535156 135.558594 45.585938 136.203125 44.886719 C 136.847656 44.1875 137.714844 43.835938 138.808594 43.835938 C 139.789062 43.835938 140.566406 44.152344 141.136719 44.785156 C 141.707031 45.414062 141.992188 46.273438 141.992188 47.355469 Z M 140.796875 47.003906 C 140.789062 46.351562 140.605469 45.828125 140.246094 45.4375 C 139.886719 45.046875 139.414062 44.851562 138.824219 44.851562 C 138.15625 44.851562 137.621094 45.039062 137.21875 45.417969 C 136.816406 45.792969 136.585938 46.328125 136.523438 47.011719 Z M 140.796875 47.003906 "/>
<path style=" stroke:none;fill-rule:nonzero;fill:rgb(0%,0%,0%);fill-opacity:1;" d="M 150.023438 46.898438 L 150.023438 51.300781 L 148.824219 51.300781 L 148.824219 46.941406 C 148.824219 46.25 148.6875 45.734375 148.417969 45.390625 C 148.148438 45.046875 147.746094 44.878906 147.210938 44.878906 C 146.5625 44.878906 146.050781 45.082031 145.679688 45.496094 C 145.304688 45.90625 145.117188 46.46875 145.117188 47.179688 L 145.117188 51.300781 L 143.914062 51.300781 L 143.914062 44.011719 L 145.117188 44.011719 L 145.117188 45.144531 C 145.40625 44.703125 145.742188 44.378906 146.128906 44.160156 C 146.519531 43.945312 146.96875 43.835938 147.476562 43.835938 C 148.3125 43.835938 148.945312 44.09375 149.375 44.613281 C 149.804688 45.128906 150.023438 45.894531 150.023438 46.898438 Z M 150.023438 46.898438 "/>
<path style=" stroke:none;fill-rule:nonzero;fill:rgb(0%,0%,0%);fill-opacity:1;" d="M 153.59375 41.941406 L 153.59375 44.011719 L 156.0625 44.011719 L 156.0625 44.941406 L 153.59375 44.941406 L 153.59375 48.898438 C 153.59375 49.496094 153.675781 49.875 153.839844 50.046875 C 154 50.214844 154.332031 50.300781 154.832031 50.300781 L 156.0625 50.300781 L 156.0625 51.300781 L 154.832031 51.300781 C 153.90625 51.300781 153.269531 51.128906 152.917969 50.785156 C 152.566406 50.441406 152.390625 49.8125 152.390625 48.898438 L 152.390625 44.941406 L 151.511719 44.941406 L 151.511719 44.011719 L 152.390625 44.011719 L 152.390625 41.941406 Z M 153.59375 41.941406 "/>
<path style=" stroke:none;fill-rule:nonzero;fill:rgb(0%,0%,0%);fill-opacity:1;" d="M 161.875 41.171875 L 163.074219 41.171875 L 163.074219 51.300781 L 161.875 51.300781 Z M 161.875 41.171875 "/>
<path style=" stroke:none;fill-rule:nonzero;fill:rgb(0%,0%,0%);fill-opacity:1;" d="M 165.582031 44.011719 L 166.777344 44.011719 L 166.777344 51.300781 L 165.582031 51.300781 Z M 165.582031 41.171875 L 166.777344 41.171875 L 166.777344 42.691406 L 165.582031 42.691406 Z M 165.582031 41.171875 "/>
<path style=" stroke:none;fill-rule:nonzero;fill:rgb(0%,0%,0%);fill-opacity:1;" d="M 175.347656 46.898438 L 175.347656 51.300781 L 174.148438 51.300781 L 174.148438 46.941406 C 174.148438 46.25 174.015625 45.734375 173.746094 45.390625 C 173.476562 45.046875 173.074219 44.878906 172.535156 44.878906 C 171.886719 44.878906 171.378906 45.082031 171.003906 45.496094 C 170.628906 45.90625 170.441406 46.46875 170.441406 47.179688 L 170.441406 51.300781 L 169.238281 51.300781 L 169.238281 44.011719 L 170.441406 44.011719 L 170.441406 45.144531 C 170.730469 44.703125 171.066406 44.378906 171.457031 44.160156 C 171.84375 43.945312 172.292969 43.835938 172.800781 43.835938 C 173.640625 43.835938 174.273438 44.09375 174.703125 44.613281 C 175.132812 45.128906 175.347656 45.894531 175.347656 46.898438 Z M 175.347656 46.898438 "/>
<path style=" stroke:none;fill-rule:nonzero;fill:rgb(0%,0%,0%);fill-opacity:1;" d="M 183.972656 47.355469 L 183.972656 47.941406 L 178.464844 47.941406 C 178.515625 48.765625 178.765625 49.394531 179.210938 49.828125 C 179.65625 50.257812 180.273438 50.476562 181.070312 50.476562 C 181.527344 50.476562 181.972656 50.417969 182.40625 50.304688 C 182.839844 50.195312 183.265625 50.023438 183.695312 49.796875 L 183.695312 50.929688 C 183.261719 51.113281 182.820312 51.253906 182.371094 51.347656 C 181.917969 51.445312 181.460938 51.492188 180.996094 51.492188 C 179.835938 51.492188 178.914062 51.152344 178.234375 50.476562 C 177.554688 49.800781 177.214844 48.882812 177.214844 47.726562 C 177.214844 46.535156 177.535156 45.585938 178.179688 44.886719 C 178.824219 44.1875 179.695312 43.835938 180.789062 43.835938 C 181.769531 43.835938 182.546875 44.152344 183.117188 44.785156 C 183.6875 45.414062 183.972656 46.273438 183.972656 47.355469 Z M 182.773438 47.003906 C 182.765625 46.351562 182.582031 45.828125 182.226562 45.4375 C 181.867188 45.046875 181.390625 44.851562 180.800781 44.851562 C 180.132812 44.851562 179.597656 45.039062 179.199219 45.417969 C 178.796875 45.792969 178.566406 46.328125 178.503906 47.011719 Z M 182.773438 47.003906 "/>
<path style=" stroke:none;fill-rule:nonzero;fill:rgb(0%,0%,0%);fill-opacity:1;" d="M 193.054688 41.183594 C 192.472656 42.183594 192.042969 43.171875 191.757812 44.148438 C 191.476562 45.125 191.335938 46.113281 191.335938 47.117188 C 191.335938 48.117188 191.476562 49.109375 191.761719 50.09375 C 192.046875 51.078125 192.476562 52.066406 193.054688 53.058594 L 192.011719 53.058594 C 191.363281 52.039062 190.875 51.035156 190.550781 50.050781 C 190.226562 49.066406 190.066406 48.089844 190.066406 47.117188 C 190.066406 46.148438 190.226562 45.175781 190.546875 44.195312 C 190.871094 43.210938 191.359375 42.210938 192.011719 41.183594 Z M 193.054688 41.183594 "/>
<path style=" stroke:none;fill-rule:nonzero;fill:rgb(0%,0%,0%);fill-opacity:1;" d="M 201.441406 44.011719 L 198.804688 47.558594 L 201.578125 51.300781 L 200.164062 51.300781 L 198.042969 48.4375 L 195.921875 51.300781 L 194.503906 51.300781 L 197.339844 47.488281 L 194.746094 44.011719 L 196.160156 44.011719 L 198.09375 46.609375 L 200.027344 44.011719 Z M 201.441406 44.011719 "/>
<path style=" stroke:none;fill-rule:nonzero;fill:rgb(0%,0%,0%);fill-opacity:1;" d="M 203.425781 45.246094 L 211.769531 45.246094 L 211.769531 46.339844 L 203.425781 46.339844 Z M 203.425781 47.902344 L 211.769531 47.902344 L 211.769531 49.011719 L 203.425781 49.011719 Z M 203.425781 47.902344 "/>
<path style=" stroke:none;fill-rule:nonzero;fill:rgb(0%,0%,0%);fill-opacity:1;" d="M 214.839844 50.195312 L 216.988281 50.195312 L 216.988281 42.777344 L 214.648438 43.246094 L 214.648438 42.050781 L 216.972656 41.582031 L 218.289062 41.582031 L 218.289062 50.195312 L 220.4375 50.195312 L 220.4375 51.300781 L 214.839844 51.300781 Z M 214.839844 50.195312 "/>
<path style=" stroke:none;fill-rule:nonzero;fill:rgb(0%,0%,0%);fill-opacity:1;" d="M 222.738281 41.183594 L 223.777344 41.183594 C 224.429688 42.210938 224.914062 43.210938 225.238281 44.195312 C 225.5625 45.175781 225.722656 46.148438 225.722656 47.117188 C 225.722656 48.089844 225.5625 49.066406 225.238281 50.050781 C 224.914062 51.035156 224.429688 52.039062 223.777344 53.058594 L 222.738281 53.058594 C 223.3125 52.066406 223.742188 51.078125 224.027344 50.09375 C 224.3125 49.109375 224.457031 48.117188 224.457031 47.117188 C 224.457031 46.113281 224.3125 45.125 224.027344 44.148438 C 223.742188 43.171875 223.3125 42.183594 222.738281 41.183594 Z M 222.738281 41.183594 "/>
</g>
</svg>
