<?xml version="1.0" encoding="UTF-8"?>
<svg xmlns="http://www.w3.org/2000/svg" xmlns:xlink="http://www.w3.org/1999/xlink" width="326.827087" height="240.875" viewBox="0 0 326.827087 240.875" version="1.1">
<defs>
<clipPath id="clip1">
  <path d="M 164 9.601562 L 317.226562 9.601562 L 317.226562 146 L 164 146 Z M 164 9.601562 "/>
</clipPath>
<clipPath id="clip2">
  <path d="M 116 9.601562 L 317.226562 9.601562 L 317.226562 184 L 116 184 Z M 116 9.601562 "/>
</clipPath>
<clipPath id="clip3">
  <path d="M 80 9.601562 L 182 9.601562 L 182 190.800781 L 80 190.800781 Z M 80 9.601562 "/>
</clipPath>
<clipPath id="clip4">
  <path d="M 56.828125 93 L 130 93 L 130 190.800781 L 56.828125 190.800781 Z M 56.828125 93 "/>
</clipPath>
<clipPath id="clip5">
  <path d="M 56.828125 152 L 91 152 L 91 190.800781 L 56.828125 190.800781 Z M 56.828125 152 "/>
</clipPath>
<clipPath id="clip6">
  <path d="M 56.828125 188 L 59 188 L 59 190.800781 L 56.828125 190.800781 Z M 56.828125 188 "/>
</clipPath>
</defs>
<g id="surface1">
<path style=" stroke:none;fill-rule:nonzero;fill:rgb(100%,100%,100%);fill-opacity:1;" d="M 56.828125 190.800781 L 317.226562 190.800781 L 317.226562 9.601562 L 56.828125 9.601562 Z M 56.828125 190.800781 "/>
<path style="fill:none;stroke-width:0.8;stroke-linecap:butt;stroke-linejoin:round;stroke:rgb(0%,0%,0%);stroke-opacity:1;stroke-miterlimit:4;" d="M 0.000778198 0.000579834 L 0.000778198 3.498627 " transform="matrix(1.333333,0,0,1.333333,117.858337,190.800008)"/>
<path style=" stroke:none;fill-rule:nonzero;fill:rgb(0%,0%,0%);fill-opacity:1;" d="M 109.441406 205.53125 L 117.789062 205.53125 L 117.789062 206.636719 L 109.441406 206.636719 Z M 109.441406 205.53125 "/>
<path style=" stroke:none;fill-rule:nonzero;fill:rgb(0%,0%,0%);fill-opacity:1;" d="M 124.242188 201.691406 L 120.921875 206.878906 L 124.242188 206.878906 Z M 123.894531 200.542969 L 125.550781 200.542969 L 125.550781 206.878906 L 126.9375 206.878906 L 126.9375 207.972656 L 125.550781 207.972656 L 125.550781 210.265625 L 124.242188 210.265625 L 124.242188 207.972656 L 119.855469 207.972656 L 119.855469 206.703125 Z M 123.894531 200.542969 "/>
<path style="fill:none;stroke-width:0.8;stroke-linecap:butt;stroke-linejoin:round;stroke:rgb(0%,0%,0%);stroke-opacity:1;stroke-miterlimit:4;" d="M 0.000778198 0.000579834 L 0.000778198 3.498627 " transform="matrix(1.333333,0,0,1.333333,199.233337,190.800008)"/>
<path style=" stroke:none;fill-rule:nonzero;fill:rgb(0%,0%,0%);fill-opacity:1;" d="M 190.816406 205.53125 L 199.164062 205.53125 L 199.164062 206.636719 L 190.816406 206.636719 Z M 190.816406 205.53125 "/>
<path style=" stroke:none;fill-rule:nonzero;fill:rgb(0%,0%,0%);fill-opacity:1;" d="M 203.136719 209.160156 L 207.726562 209.160156 L 207.726562 210.265625 L 201.554688 210.265625 L 201.554688 209.160156 C 202.054688 208.640625 202.734375 207.949219 203.59375 207.078125 C 204.457031 206.207031 204.996094 205.648438 205.21875 205.394531 C 205.640625 204.921875 205.933594 204.523438 206.101562 204.195312 C 206.269531 203.867188 206.351562 203.542969 206.351562 203.226562 C 206.351562 202.710938 206.171875 202.289062 205.808594 201.964844 C 205.445312 201.636719 204.972656 201.476562 204.390625 201.476562 C 203.980469 201.476562 203.542969 201.546875 203.085938 201.691406 C 202.628906 201.832031 202.140625 202.050781 201.617188 202.339844 L 201.617188 201.011719 C 202.148438 200.800781 202.640625 200.640625 203.101562 200.53125 C 203.5625 200.421875 203.984375 200.367188 204.367188 200.367188 C 205.375 200.367188 206.175781 200.621094 206.773438 201.125 C 207.375 201.628906 207.671875 202.300781 207.671875 203.140625 C 207.671875 203.542969 207.597656 203.921875 207.449219 204.277344 C 207.300781 204.636719 207.027344 205.058594 206.632812 205.542969 C 206.523438 205.671875 206.179688 206.035156 205.597656 206.636719 C 205.015625 207.238281 204.195312 208.078125 203.136719 209.160156 Z M 203.136719 209.160156 "/>
<path style="fill:none;stroke-width:0.8;stroke-linecap:butt;stroke-linejoin:round;stroke:rgb(0%,0%,0%);stroke-opacity:1;stroke-miterlimit:4;" d="M 0.000778198 0.000579834 L 0.000778198 3.498627 " transform="matrix(1.333333,0,0,1.333333,280.608337,190.800008)"/>
<path style=" stroke:none;fill-rule:nonzero;fill:rgb(0%,0%,0%);fill-opacity:1;" d="M 280.605469 201.410156 C 279.929688 201.410156 279.417969 201.742188 279.078125 202.410156 C 278.738281 203.074219 278.566406 204.078125 278.566406 205.414062 C 278.566406 206.746094 278.738281 207.746094 279.078125 208.414062 C 279.417969 209.078125 279.929688 209.414062 280.605469 209.414062 C 281.285156 209.414062 281.796875 209.078125 282.136719 208.414062 C 282.480469 207.746094 282.648438 206.746094 282.648438 205.414062 C 282.648438 204.078125 282.480469 203.074219 282.136719 202.410156 C 281.796875 201.742188 281.285156 201.410156 280.605469 201.410156 Z M 280.605469 200.367188 C 281.695312 200.367188 282.527344 200.800781 283.101562 201.664062 C 283.675781 202.523438 283.964844 203.773438 283.964844 205.414062 C 283.964844 207.050781 283.675781 208.300781 283.101562 209.164062 C 282.527344 210.023438 281.695312 210.453125 280.605469 210.453125 C 279.515625 210.453125 278.683594 210.023438 278.109375 209.164062 C 277.535156 208.300781 277.246094 207.050781 277.246094 205.414062 C 277.246094 203.773438 277.535156 202.523438 278.109375 201.664062 C 278.683594 200.800781 279.515625 200.367188 280.605469 200.367188 Z M 280.605469 200.367188 "/>
<path style=" stroke:none;fill-rule:nonzero;fill:rgb(0%,0%,0%);fill-opacity:1;" d="M 186.160156 221.210938 L 183.519531 224.757812 L 186.292969 228.503906 L 184.882812 228.503906 L 182.757812 225.636719 L 180.636719 228.503906 L 179.222656 228.503906 L 182.054688 224.6875 L 179.464844 221.210938 L 180.878906 221.210938 L 182.808594 223.808594 L 184.742188 221.210938 Z M 186.160156 221.210938 "/>
<path style=" stroke:none;fill-rule:nonzero;fill:rgb(0%,0%,0%);fill-opacity:1;" d="M 188.382812 227.394531 L 190.53125 227.394531 L 190.53125 219.980469 L 188.195312 220.449219 L 188.195312 219.25 L 190.519531 218.78125 L 191.835938 218.78125 L 191.835938 227.394531 L 193.980469 227.394531 L 193.980469 228.503906 L 188.382812 228.503906 Z M 188.382812 227.394531 "/>
<path style="fill:none;stroke-width:0.8;stroke-linecap:butt;stroke-linejoin:round;stroke:rgb(0%,0%,0%);stroke-opacity:1;stroke-miterlimit:4;" d="M 0.000782013 0.000579834 L -3.500195 0.000579834 " transform="matrix(1.333333,0,0,1.333333,56.827082,190.800008)"/>
<path style=" stroke:none;fill-rule:nonzero;fill:rgb(0%,0%,0%);fill-opacity:1;" d="M 29.25 191.132812 L 37.597656 191.132812 L 37.597656 192.238281 L 29.25 192.238281 Z M 29.25 191.132812 "/>
<path style=" stroke:none;fill-rule:nonzero;fill:rgb(0%,0%,0%);fill-opacity:1;" d="M 44.417969 190.625 C 45.050781 190.757812 45.539062 191.039062 45.894531 191.464844 C 46.246094 191.890625 46.425781 192.414062 46.425781 193.039062 C 46.425781 194 46.09375 194.742188 45.433594 195.269531 C 44.773438 195.792969 43.835938 196.054688 42.621094 196.054688 C 42.214844 196.054688 41.796875 196.015625 41.363281 195.933594 C 40.929688 195.855469 40.484375 195.734375 40.027344 195.570312 L 40.027344 194.304688 C 40.390625 194.515625 40.789062 194.675781 41.222656 194.785156 C 41.65625 194.894531 42.109375 194.945312 42.585938 194.945312 C 43.40625 194.945312 44.035156 194.785156 44.46875 194.460938 C 44.898438 194.132812 45.117188 193.660156 45.117188 193.039062 C 45.117188 192.46875 44.914062 192.019531 44.511719 191.695312 C 44.113281 191.375 43.554688 191.210938 42.839844 191.210938 L 41.707031 191.210938 L 41.707031 190.128906 L 42.890625 190.128906 C 43.535156 190.128906 44.03125 190 44.375 189.742188 C 44.71875 189.484375 44.886719 189.113281 44.886719 188.625 C 44.886719 188.128906 44.710938 187.746094 44.355469 187.476562 C 44.003906 187.210938 43.5 187.074219 42.839844 187.074219 C 42.476562 187.074219 42.089844 187.117188 41.679688 187.195312 C 41.265625 187.273438 40.8125 187.394531 40.316406 187.558594 L 40.316406 186.386719 C 40.816406 186.246094 41.285156 186.144531 41.722656 186.074219 C 42.15625 186.003906 42.570312 185.96875 42.957031 185.96875 C 43.953125 185.96875 44.742188 186.195312 45.324219 186.652344 C 45.90625 187.105469 46.195312 187.714844 46.195312 188.488281 C 46.195312 189.027344 46.042969 189.480469 45.734375 189.851562 C 45.425781 190.222656 44.988281 190.480469 44.417969 190.625 Z M 44.417969 190.625 "/>
<path style="fill:none;stroke-width:0.8;stroke-linecap:butt;stroke-linejoin:round;stroke:rgb(0%,0%,0%);stroke-opacity:1;stroke-miterlimit:4;" d="M 0.000782013 0.0010376 L -3.500195 0.0010376 " transform="matrix(1.333333,0,0,1.333333,56.827082,144.33846)"/>
<path style=" stroke:none;fill-rule:nonzero;fill:rgb(0%,0%,0%);fill-opacity:1;" d="M 29.25 144.671875 L 37.597656 144.671875 L 37.597656 145.777344 L 29.25 145.777344 Z M 29.25 144.671875 "/>
<path style=" stroke:none;fill-rule:nonzero;fill:rgb(0%,0%,0%);fill-opacity:1;" d="M 41.566406 148.296875 L 46.15625 148.296875 L 46.15625 149.402344 L 39.988281 149.402344 L 39.988281 148.296875 C 40.484375 147.78125 41.164062 147.089844 42.027344 146.21875 C 42.886719 145.347656 43.429688 144.785156 43.652344 144.535156 C 44.070312 144.0625 44.367188 143.660156 44.53125 143.332031 C 44.699219 143.003906 44.785156 142.683594 44.785156 142.367188 C 44.785156 141.851562 44.601562 141.429688 44.242188 141.105469 C 43.878906 140.777344 43.40625 140.613281 42.824219 140.613281 C 42.410156 140.613281 41.976562 140.6875 41.519531 140.828125 C 41.0625 140.972656 40.570312 141.191406 40.050781 141.480469 L 40.050781 140.152344 C 40.582031 139.941406 41.074219 139.777344 41.535156 139.671875 C 41.996094 139.5625 42.417969 139.507812 42.800781 139.507812 C 43.804688 139.507812 44.609375 139.761719 45.207031 140.265625 C 45.804688 140.765625 46.105469 141.441406 46.105469 142.28125 C 46.105469 142.679688 46.03125 143.058594 45.878906 143.417969 C 45.730469 143.777344 45.460938 144.195312 45.0625 144.683594 C 44.957031 144.808594 44.609375 145.171875 44.027344 145.773438 C 43.449219 146.375 42.628906 147.21875 41.566406 148.296875 Z M 41.566406 148.296875 "/>
<path style="fill:none;stroke-width:0.8;stroke-linecap:butt;stroke-linejoin:round;stroke:rgb(0%,0%,0%);stroke-opacity:1;stroke-miterlimit:4;" d="M 0.000782013 -0.00144196 L -3.500195 -0.00144196 " transform="matrix(1.333333,0,0,1.333333,56.827082,97.876923)"/>
<path style=" stroke:none;fill-rule:nonzero;fill:rgb(0%,0%,0%);fill-opacity:1;" d="M 29.25 98.210938 L 37.597656 98.210938 L 37.597656 99.316406 L 29.25 99.316406 Z M 29.25 98.210938 "/>
<path style=" stroke:none;fill-rule:nonzero;fill:rgb(0%,0%,0%);fill-opacity:1;" d="M 40.664062 101.835938 L 42.8125 101.835938 L 42.8125 94.417969 L 40.472656 94.886719 L 40.472656 93.691406 L 42.800781 93.222656 L 44.113281 93.222656 L 44.113281 101.835938 L 46.261719 101.835938 L 46.261719 102.941406 L 40.664062 102.941406 Z M 40.664062 101.835938 "/>
<path style="fill:none;stroke-width:0.8;stroke-linecap:butt;stroke-linejoin:round;stroke:rgb(0%,0%,0%);stroke-opacity:1;stroke-miterlimit:4;" d="M 0.000782013 -0.000991821 L -3.500195 -0.000991821 " transform="matrix(1.333333,0,0,1.333333,56.827082,51.415385)"/>
<path style=" stroke:none;fill-rule:nonzero;fill:rgb(0%,0%,0%);fill-opacity:1;" d="M 43.246094 47.625 C 42.570312 47.625 42.0625 47.960938 41.722656 48.625 C 41.378906 49.292969 41.210938 50.292969 41.210938 51.632812 C 41.210938 52.964844 41.378906 53.960938 41.722656 54.628906 C 42.0625 55.296875 42.570312 55.628906 43.246094 55.628906 C 43.929688 55.628906 44.441406 55.296875 44.78125 54.628906 C 45.121094 53.960938 45.292969 52.964844 45.292969 51.632812 C 45.292969 50.292969 45.121094 49.292969 44.78125 48.625 C 44.441406 47.960938 43.929688 47.625 43.246094 47.625 Z M 43.246094 46.585938 C 44.339844 46.585938 45.171875 47.015625 45.746094 47.878906 C 46.320312 48.738281 46.609375 49.992188 46.609375 51.632812 C 46.609375 53.265625 46.320312 54.515625 45.746094 55.378906 C 45.171875 56.238281 44.339844 56.671875 43.246094 56.671875 C 42.160156 56.671875 41.328125 56.238281 40.753906 55.378906 C 40.175781 54.515625 39.890625 53.265625 39.890625 51.632812 C 39.890625 49.992188 40.175781 48.738281 40.753906 47.878906 C 41.328125 47.015625 42.160156 46.585938 43.246094 46.585938 Z M 43.246094 46.585938 "/>
<path style=" stroke:none;fill-rule:nonzero;fill:rgb(0%,0%,0%);fill-opacity:1;" d="M 12.441406 101.070312 L 15.988281 103.707031 L 19.730469 100.933594 L 19.730469 102.347656 L 16.867188 104.46875 L 19.730469 106.589844 L 19.730469 108.003906 L 15.917969 105.171875 L 12.441406 107.761719 L 12.441406 106.351562 L 15.039062 104.417969 L 12.441406 102.484375 Z M 12.441406 101.070312 "/>
<path style=" stroke:none;fill-rule:nonzero;fill:rgb(0%,0%,0%);fill-opacity:1;" d="M 18.625 97.9375 L 18.625 93.347656 L 19.730469 93.347656 L 19.730469 99.519531 L 18.625 99.519531 C 18.109375 99.019531 17.414062 98.339844 16.546875 97.480469 C 15.675781 96.617188 15.113281 96.074219 14.859375 95.855469 C 14.386719 95.433594 13.988281 95.140625 13.660156 94.972656 C 13.332031 94.804688 13.011719 94.722656 12.695312 94.722656 C 12.175781 94.722656 11.757812 94.902344 11.429688 95.265625 C 11.105469 95.628906 10.941406 96.101562 10.941406 96.683594 C 10.941406 97.09375 11.011719 97.53125 11.15625 97.988281 C 11.300781 98.445312 11.515625 98.933594 11.808594 99.457031 L 10.480469 99.457031 C 10.265625 98.925781 10.105469 98.429688 9.996094 97.972656 C 9.890625 97.511719 9.835938 97.089844 9.835938 96.707031 C 9.835938 95.699219 10.085938 94.898438 10.589844 94.300781 C 11.09375 93.699219 11.765625 93.402344 12.609375 93.402344 C 13.007812 93.402344 13.386719 93.476562 13.746094 93.625 C 14.101562 93.773438 14.523438 94.046875 15.011719 94.441406 C 15.136719 94.550781 15.5 94.894531 16.101562 95.476562 C 16.703125 96.058594 17.542969 96.878906 18.625 97.9375 Z M 18.625 97.9375 "/>
<path style="fill:none;stroke-width:1.5;stroke-linecap:square;stroke-linejoin:round;stroke:rgb(100%,49.803922%,5.490196%);stroke-opacity:1;stroke-miterlimit:4;" d="M 57.878906 108.254883 L 87.401367 75.858398 L 110.759766 57.615234 L 128.279297 46.157227 L 147.662109 48.339844 L 156.556641 43.075195 L 163.992188 46.321289 L 172.095703 43.274414 L 179.446289 42.603516 L 189.064453 45.011719 L 191.847656 37.095703 L 191.695312 37.59668 L 195.969727 39.222656 L 195.735352 37.763672 L 202.97168 40.608398 L 203.220703 47.563477 L 203.206055 43.479492 L 202.59082 42.073242 L 205.787109 43.473633 L 201.00293 41.882812 L 202.291992 39.363281 L 197.109375 36.814453 L 200.709961 35.991211 L 199.022461 31.239258 L 196.977539 41.619141 L 195.459961 41.085938 L 197.824219 38.947266 L 197.630859 36.635742 L 204.1875 41.847656 L 202.710938 45.726562 L 203.686523 46.347656 L 207.354492 44.52832 L 207.175781 41.147461 L 203.510742 41.888672 L 210.392578 41.056641 L 211.957031 36.837891 L 206.973633 43.391602 L 207.430664 45.667969 L 211.69043 39.621094 L 212.651367 35.958984 L 216.046875 36.18457 L 215.443359 40.857422 L 213.363281 39.556641 L 219.407227 36.489258 L 220.476562 39.416016 L 216.219727 42.37207 L 212.132812 40.948242 L 212.964844 39.351562 L 209.645508 38.888672 L 205.438477 37.587891 L 211.083984 30.621094 " transform="matrix(1.333333,0,0,1.333333,0,0)"/>
<path style="fill-rule:nonzero;fill:rgb(100%,49.803922%,5.490196%);fill-opacity:1;stroke-width:1;stroke-linecap:butt;stroke-linejoin:round;stroke:rgb(100%,49.803922%,5.490196%);stroke-opacity:1;stroke-miterlimit:4;" d="M 0.000782013 3.001038 C 0.794727 3.001038 1.559376 2.684631 2.121876 2.122131 C 2.684376 1.559631 3.000782 0.794983 3.000782 0.0010376 C 3.000782 -0.795837 2.684376 -1.557556 2.121876 -2.120056 C 1.559376 -2.682556 0.794727 -2.998962 0.000782013 -2.998962 C -0.796093 -2.998962 -1.557812 -2.682556 -2.120312 -2.120056 C -2.682812 -1.557556 -2.999218 -0.795837 -2.999218 0.0010376 C -2.999218 0.794983 -2.682812 1.559631 -2.120312 2.122131 C -1.557812 2.684631 -0.796093 3.001038 0.000782013 3.001038 Z M 0.000782013 3.001038 " transform="matrix(1.333333,0,0,1.333333,77.170832,144.33846)"/>
<path style="fill-rule:nonzero;fill:rgb(100%,49.803922%,5.490196%);fill-opacity:1;stroke-width:1;stroke-linecap:butt;stroke-linejoin:round;stroke:rgb(100%,49.803922%,5.490196%);stroke-opacity:1;stroke-miterlimit:4;" d="M 0.000732422 3.000984 C 0.794678 3.000984 1.559326 2.684578 2.121826 2.122078 C 2.684326 1.559578 3.000732 0.79493 3.000732 0.000984192 C 3.000732 -0.795891 2.684326 -1.55761 2.121826 -2.12011 C 1.559326 -2.68261 0.794678 -2.999016 0.000732422 -2.999016 C -0.796143 -2.999016 -1.557861 -2.68261 -2.120361 -2.12011 C -2.682861 -1.55761 -2.999268 -0.795891 -2.999268 0.000984192 C -2.999268 0.79493 -2.682861 1.559578 -2.120361 2.122078 C -1.557861 2.684578 -0.796143 3.000984 0.000732422 3.000984 Z M 0.000732422 3.000984 " transform="matrix(1.333333,0,0,1.333333,116.53418,101.143219)"/>
<path style="fill-rule:nonzero;fill:rgb(100%,49.803922%,5.490196%);fill-opacity:1;stroke-width:1;stroke-linecap:butt;stroke-linejoin:round;stroke:rgb(100%,49.803922%,5.490196%);stroke-opacity:1;stroke-miterlimit:4;" d="M -0.000724792 2.999161 C 0.79615 2.999161 1.557869 2.682755 2.120369 2.120255 C 2.682869 1.557755 2.999275 0.796036 2.999275 -0.000839233 C 2.999275 -0.794785 2.682869 -1.559433 2.120369 -2.121933 C 1.557869 -2.684433 0.79615 -3.000839 -0.000724792 -3.000839 C -0.79467 -3.000839 -1.559319 -2.684433 -2.121819 -2.121933 C -2.684319 -1.559433 -3.000725 -0.794785 -3.000725 -0.000839233 C -3.000725 0.796036 -2.684319 1.557755 -2.121819 2.120255 C -1.559319 2.682755 -0.79467 2.999161 -0.000724792 2.999161 Z M -0.000724792 2.999161 " transform="matrix(1.333333,0,0,1.333333,147.680654,76.821431)"/>
<path style="fill-rule:nonzero;fill:rgb(100%,49.803922%,5.490196%);fill-opacity:1;stroke-width:1;stroke-linecap:butt;stroke-linejoin:round;stroke:rgb(100%,49.803922%,5.490196%);stroke-opacity:1;stroke-miterlimit:4;" d="M 0.000396729 2.999008 C 0.794342 2.999008 1.55899 2.682602 2.12149 2.120102 C 2.68399 1.557602 3.000397 0.795883 3.000397 -0.000991821 C 3.000397 -0.794937 2.68399 -1.559586 2.12149 -2.122086 C 1.55899 -2.684586 0.794342 -3.000992 0.000396729 -3.000992 C -0.796478 -3.000992 -1.558197 -2.684586 -2.120697 -2.122086 C -2.683197 -1.559586 -2.999603 -0.794937 -2.999603 -0.000991821 C -2.999603 0.795883 -2.683197 1.557602 -2.120697 2.120102 C -1.558197 2.682602 -0.796478 2.999008 0.000396729 2.999008 Z M 0.000396729 2.999008 " transform="matrix(1.333333,0,0,1.333333,171.038534,61.544291)"/>
<path style="fill-rule:nonzero;fill:rgb(100%,49.803922%,5.490196%);fill-opacity:1;stroke-width:1;stroke-linecap:butt;stroke-linejoin:round;stroke:rgb(100%,49.803922%,5.490196%);stroke-opacity:1;stroke-miterlimit:4;" d="M 0.000808716 2.998764 C 0.794754 2.998764 1.559402 2.685287 2.121902 2.119858 C 2.684402 1.557358 3.000809 0.795639 3.000809 -0.00123596 C 3.000809 -0.795181 2.684402 -1.55983 2.121902 -2.12233 C 1.559402 -2.68483 0.794754 -3.001236 0.000808716 -3.001236 C -0.796066 -3.001236 -1.557785 -2.68483 -2.120285 -2.12233 C -2.682785 -1.55983 -2.999191 -0.795181 -2.999191 -0.00123596 C -2.999191 0.795639 -2.682785 1.557358 -2.120285 2.119858 C -1.557785 2.685287 -0.796066 2.998764 0.000808716 2.998764 Z M 0.000808716 2.998764 " transform="matrix(1.333333,0,0,1.333333,196.881734,64.454773)"/>
<path style="fill-rule:nonzero;fill:rgb(100%,49.803922%,5.490196%);fill-opacity:1;stroke-width:1;stroke-linecap:butt;stroke-linejoin:round;stroke:rgb(100%,49.803922%,5.490196%);stroke-opacity:1;stroke-miterlimit:4;" d="M 0.000152588 3.000305 C 0.797028 3.000305 1.558746 2.683899 2.121246 2.121399 C 2.683746 1.558899 3.000153 0.79425 3.000153 0.000305176 C 3.000153 -0.79657 2.683746 -1.558289 2.121246 -2.120789 C 1.558746 -2.683289 0.797028 -2.999695 0.000152588 -2.999695 C -0.796722 -2.999695 -1.558441 -2.683289 -2.120941 -2.120789 C -2.683441 -1.558289 -2.999847 -0.79657 -2.999847 0.000305176 C -2.999847 0.79425 -2.683441 1.558899 -2.120941 2.121399 C -1.558441 2.683899 -0.796722 3.000305 0.000152588 3.000305 Z M 0.000152588 3.000305 " transform="matrix(1.333333,0,0,1.333333,208.741984,57.433187)"/>
<path style="fill-rule:nonzero;fill:rgb(100%,49.803922%,5.490196%);fill-opacity:1;stroke-width:1;stroke-linecap:butt;stroke-linejoin:round;stroke:rgb(100%,49.803922%,5.490196%);stroke-opacity:1;stroke-miterlimit:4;" d="M 0.00117493 2.999168 C 0.79512 2.999168 1.559769 2.682762 2.122269 2.120262 C 2.684769 1.557762 3.001175 0.796043 3.001175 -0.000831604 C 3.001175 -0.794777 2.684769 -1.559425 2.122269 -2.121925 C 1.559769 -2.684425 0.79512 -3.000832 0.00117493 -3.000832 C -0.7957 -3.000832 -1.557419 -2.684425 -2.119919 -2.121925 C -2.685349 -1.559425 -2.998825 -0.794777 -2.998825 -0.000831604 C -2.998825 0.796043 -2.685349 1.557762 -2.119919 2.120262 C -1.557419 2.682762 -0.7957 2.999168 0.00117493 2.999168 Z M 0.00117493 2.999168 " transform="matrix(1.333333,0,0,1.333333,218.654683,61.762828)"/>
<path style="fill-rule:nonzero;fill:rgb(100%,49.803922%,5.490196%);fill-opacity:1;stroke-width:1;stroke-linecap:butt;stroke-linejoin:round;stroke:rgb(100%,49.803922%,5.490196%);stroke-opacity:1;stroke-miterlimit:4;" d="M 0.0000610352 3.000446 C 0.796936 3.000446 1.558655 2.68404 2.121155 2.12154 C 2.683655 1.55904 3.000061 0.794392 3.000061 0.00044632 C 3.000061 -0.796429 2.683655 -1.558147 2.121155 -2.120647 C 1.558655 -2.683147 0.796936 -2.999554 0.0000610352 -2.999554 C -0.796814 -2.999554 -1.558533 -2.683147 -2.121033 -2.120647 C -2.683533 -1.558147 -2.999939 -0.796429 -2.999939 0.00044632 C -2.999939 0.794392 -2.683533 1.55904 -2.121033 2.12154 C -1.558533 2.68404 -0.796814 3.000446 0.0000610352 3.000446 Z M 0.0000610352 3.000446 " transform="matrix(1.333333,0,0,1.333333,229.460856,57.698624)"/>
<path style="fill-rule:nonzero;fill:rgb(100%,49.803922%,5.490196%);fill-opacity:1;stroke-width:1;stroke-linecap:butt;stroke-linejoin:round;stroke:rgb(100%,49.803922%,5.490196%);stroke-opacity:1;stroke-miterlimit:4;" d="M -0.00119019 3.000561 C 0.795685 3.000561 1.557404 2.684155 2.119904 2.121655 C 2.685333 1.559155 2.99881 0.794506 2.99881 0.00056076 C 2.99881 -0.796314 2.685333 -1.558033 2.119904 -2.120533 C 1.557404 -2.683033 0.795685 -2.999439 -0.00119019 -2.999439 C -0.795135 -2.999439 -1.559784 -2.683033 -2.122284 -2.120533 C -2.684784 -1.558033 -3.00119 -0.796314 -3.00119 0.00056076 C -3.00119 0.794506 -2.684784 1.559155 -2.122284 2.121655 C -1.559784 2.684155 -0.795135 3.000561 -0.00119019 3.000561 Z M -0.00119019 3.000561 " transform="matrix(1.333333,0,0,1.333333,239.263306,56.80394)"/>
<path style="fill-rule:nonzero;fill:rgb(100%,49.803922%,5.490196%);fill-opacity:1;stroke-width:1;stroke-linecap:butt;stroke-linejoin:round;stroke:rgb(100%,49.803922%,5.490196%);stroke-opacity:1;stroke-miterlimit:4;" d="M -0.00128174 2.999737 C 0.795593 2.999737 1.557312 2.683331 2.122742 2.120831 C 2.685242 1.558331 2.998718 0.796612 2.998718 -0.000263214 C 2.998718 -0.794209 2.685242 -1.558857 2.122742 -2.121357 C 1.557312 -2.683857 0.795593 -3.000263 -0.00128174 -3.000263 C -0.795227 -3.000263 -1.559875 -2.683857 -2.122375 -2.121357 C -2.684875 -1.558857 -3.001282 -0.794209 -3.001282 -0.000263214 C -3.001282 0.796612 -2.684875 1.558331 -2.122375 2.120831 C -1.559875 2.683331 -0.795227 2.999737 -0.00128174 2.999737 Z M -0.00128174 2.999737 " transform="matrix(1.333333,0,0,1.333333,252.087646,60.015976)"/>
<path style="fill-rule:nonzero;fill:rgb(100%,49.803922%,5.490196%);fill-opacity:1;stroke-width:1;stroke-linecap:butt;stroke-linejoin:round;stroke:rgb(100%,49.803922%,5.490196%);stroke-opacity:1;stroke-miterlimit:4;" d="M -0.000823975 3.000481 C 0.796051 3.000481 1.55777 2.684074 2.12027 2.121574 C 2.68277 1.559074 2.999176 0.794426 2.999176 0.000480652 C 2.999176 -0.796394 2.68277 -1.558113 2.12027 -2.120613 C 1.55777 -2.683113 0.796051 -2.999519 -0.000823975 -2.999519 C -0.794769 -2.999519 -1.559418 -2.683113 -2.121918 -2.120613 C -2.684418 -1.558113 -3.000824 -0.796394 -3.000824 0.000480652 C -3.000824 0.794426 -2.684418 1.559074 -2.121918 2.121574 C -1.559418 2.684074 -0.794769 3.000481 -0.000823975 3.000481 Z M -0.000823975 3.000481 " transform="matrix(1.333333,0,0,1.333333,255.797974,49.460297)"/>
<path style="fill-rule:nonzero;fill:rgb(100%,49.803922%,5.490196%);fill-opacity:1;stroke-width:1;stroke-linecap:butt;stroke-linejoin:round;stroke:rgb(100%,49.803922%,5.490196%);stroke-opacity:1;stroke-miterlimit:4;" d="M 0.000335693 3.001232 C 0.794281 3.001232 1.558929 2.684826 2.121429 2.122326 C 2.683929 1.559826 3.000336 0.795177 3.000336 0.00123215 C 3.000336 -0.795643 2.683929 -1.557362 2.121429 -2.119862 C 1.558929 -2.685291 0.794281 -2.998768 0.000335693 -2.998768 C -0.796539 -2.998768 -1.558258 -2.685291 -2.120758 -2.119862 C -2.683258 -1.557362 -2.999664 -0.795643 -2.999664 0.00123215 C -2.999664 0.795177 -2.683258 1.559826 -2.120758 2.122326 C -1.558258 2.684826 -0.796539 3.001232 0.000335693 3.001232 Z M 0.000335693 3.001232 " transform="matrix(1.333333,0,0,1.333333,255.593302,50.127263)"/>
<path style="fill-rule:nonzero;fill:rgb(100%,49.803922%,5.490196%);fill-opacity:1;stroke-width:1;stroke-linecap:butt;stroke-linejoin:round;stroke:rgb(100%,49.803922%,5.490196%);stroke-opacity:1;stroke-miterlimit:4;" d="M 0.001297 3.000927 C 0.795242 3.000927 1.559891 2.684521 2.122391 2.122021 C 2.684891 1.559521 3.001297 0.794872 3.001297 0.000926971 C 3.001297 -0.795948 2.684891 -1.557667 2.122391 -2.120167 C 1.559891 -2.682667 0.795242 -2.999073 0.001297 -2.999073 C -0.795578 -2.999073 -1.557297 -2.682667 -2.122726 -2.120167 C -2.685226 -1.557667 -2.998703 -0.795948 -2.998703 0.000926971 C -2.998703 0.794872 -2.685226 1.559521 -2.122726 2.122021 C -1.557297 2.684521 -0.795578 3.000927 0.001297 3.000927 Z M 0.001297 3.000927 " transform="matrix(1.333333,0,0,1.333333,261.291239,52.295639)"/>
<path style="fill-rule:nonzero;fill:rgb(100%,49.803922%,5.490196%);fill-opacity:1;stroke-width:1;stroke-linecap:butt;stroke-linejoin:round;stroke:rgb(100%,49.803922%,5.490196%);stroke-opacity:1;stroke-miterlimit:4;" d="M -0.00106812 2.998795 C 0.795807 2.998795 1.557526 2.685318 2.120026 2.119888 C 2.682526 1.557388 2.998932 0.79567 2.998932 -0.00120544 C 2.998932 -0.795151 2.682526 -1.559799 2.120026 -2.122299 C 1.557526 -2.684799 0.795807 -3.001205 -0.00106812 -3.001205 C -0.795013 -3.001205 -1.559662 -2.684799 -2.122162 -2.122299 C -2.684662 -1.559799 -3.001068 -0.795151 -3.001068 -0.00120544 C -3.001068 0.79567 -2.684662 1.557388 -2.122162 2.119888 C -1.559662 2.685318 -0.795013 2.998795 -0.00106812 2.998795 Z M -0.00106812 2.998795 " transform="matrix(1.333333,0,0,1.333333,260.981893,50.35317)"/>
<path style="fill-rule:nonzero;fill:rgb(100%,49.803922%,5.490196%);fill-opacity:1;stroke-width:1;stroke-linecap:butt;stroke-linejoin:round;stroke:rgb(100%,49.803922%,5.490196%);stroke-opacity:1;stroke-miterlimit:4;" d="M -0.000640869 3.000439 C 0.796234 3.000439 1.557953 2.684032 2.120453 2.121532 C 2.682953 1.559032 2.999359 0.794384 2.999359 0.00043869 C 2.999359 -0.796436 2.682953 -1.558155 2.120453 -2.120655 C 1.557953 -2.683155 0.796234 -2.999561 -0.000640869 -2.999561 C -0.794586 -2.999561 -1.559235 -2.683155 -2.121735 -2.120655 C -2.684235 -1.558155 -3.000641 -0.796436 -3.000641 0.00043869 C -3.000641 0.794384 -2.684235 1.559032 -2.121735 2.121532 C -1.559235 2.684032 -0.794586 3.000439 -0.000640869 3.000439 Z M -0.000640869 3.000439 " transform="matrix(1.333333,0,0,1.333333,270.629761,54.143946)"/>
<path style="fill-rule:nonzero;fill:rgb(100%,49.803922%,5.490196%);fill-opacity:1;stroke-width:1;stroke-linecap:butt;stroke-linejoin:round;stroke:rgb(100%,49.803922%,5.490196%);stroke-opacity:1;stroke-miterlimit:4;" d="M -0.00132751 3.000008 C 0.795547 3.000008 1.560196 2.683601 2.122696 2.121101 C 2.685196 1.558601 2.998672 0.796883 2.998672 0.00000762939 C 2.998672 -0.796867 2.685196 -1.558586 2.122696 -2.121086 C 1.560196 -2.683586 0.795547 -2.999992 -0.00132751 -2.999992 C -0.795273 -2.999992 -1.559921 -2.683586 -2.122421 -2.121086 C -2.684921 -1.558586 -3.001328 -0.796867 -3.001328 0.00000762939 C -3.001328 0.796883 -2.684921 1.558601 -2.122421 2.121101 C -1.559921 2.683601 -0.795273 3.000008 -0.00132751 3.000008 Z M -0.00132751 3.000008 " transform="matrix(1.333333,0,0,1.333333,270.962708,63.417959)"/>
<path style="fill-rule:nonzero;fill:rgb(100%,49.803922%,5.490196%);fill-opacity:1;stroke-width:1;stroke-linecap:butt;stroke-linejoin:round;stroke:rgb(100%,49.803922%,5.490196%);stroke-opacity:1;stroke-miterlimit:4;" d="M -0.00088501 3.000969 C 0.79599 3.000969 1.557709 2.684563 2.120209 2.122063 C 2.682709 1.559563 2.999115 0.794914 2.999115 0.000968933 C 2.999115 -0.795906 2.682709 -1.557625 2.120209 -2.120125 C 1.557709 -2.682625 0.79599 -2.999031 -0.00088501 -2.999031 C -0.79483 -2.999031 -1.559479 -2.682625 -2.121979 -2.120125 C -2.684479 -1.557625 -3.000885 -0.795906 -3.000885 0.000968933 C -3.000885 0.794914 -2.684479 1.559563 -2.121979 2.122063 C -1.559479 2.684563 -0.79483 3.000969 -0.00088501 3.000969 Z M -0.00088501 3.000969 " transform="matrix(1.333333,0,0,1.333333,270.942586,57.971364)"/>
<path style="fill-rule:nonzero;fill:rgb(100%,49.803922%,5.490196%);fill-opacity:1;stroke-width:1;stroke-linecap:butt;stroke-linejoin:round;stroke:rgb(100%,49.803922%,5.490196%);stroke-opacity:1;stroke-miterlimit:4;" d="M -0.00134277 3.001438 C 0.795532 3.001438 1.560181 2.685032 2.122681 2.122532 C 2.685181 1.560032 2.998657 0.795383 2.998657 0.00143814 C 2.998657 -0.795437 2.685181 -1.560085 2.122681 -2.122585 C 1.560181 -2.685085 0.795532 -2.998562 -0.00134277 -2.998562 C -0.795288 -2.998562 -1.559937 -2.685085 -2.122437 -2.122585 C -2.684937 -1.560085 -3.001343 -0.795437 -3.001343 0.00143814 C -3.001343 0.795383 -2.684937 1.560032 -2.122437 2.122532 C -1.559937 2.685032 -0.795288 3.001438 -0.00134277 3.001438 Z M -0.00134277 3.001438 " transform="matrix(1.333333,0,0,1.333333,270.122884,56.095739)"/>
<path style="fill-rule:nonzero;fill:rgb(100%,49.803922%,5.490196%);fill-opacity:1;stroke-width:1;stroke-linecap:butt;stroke-linejoin:round;stroke:rgb(100%,49.803922%,5.490196%);stroke-opacity:1;stroke-miterlimit:4;" d="M -0.000747681 3.000927 C 0.796127 3.000927 1.557846 2.684521 2.120346 2.122021 C 2.682846 1.559521 2.999252 0.794872 2.999252 0.000926971 C 2.999252 -0.795948 2.682846 -1.557667 2.120346 -2.120167 C 1.557846 -2.682667 0.796127 -2.999073 -0.000747681 -2.999073 C -0.794693 -2.999073 -1.559341 -2.682667 -2.121841 -2.120167 C -2.684341 -1.557667 -3.000748 -0.795948 -3.000748 0.000926971 C -3.000748 0.794872 -2.684341 1.559521 -2.121841 2.122021 C -1.559341 2.684521 -0.794693 3.000927 -0.000747681 3.000927 Z M -0.000747681 3.000927 " transform="matrix(1.333333,0,0,1.333333,274.383809,57.963608)"/>
<path style="fill-rule:nonzero;fill:rgb(100%,49.803922%,5.490196%);fill-opacity:1;stroke-width:1;stroke-linecap:butt;stroke-linejoin:round;stroke:rgb(100%,49.803922%,5.490196%);stroke-opacity:1;stroke-miterlimit:4;" d="M 0.000198364 3.000057 C 0.797073 3.000057 1.558792 2.683651 2.121292 2.121151 C 2.683792 1.558651 3.000198 0.796932 3.000198 0.0000572205 C 3.000198 -0.796818 2.683792 -1.558537 2.121292 -2.121037 C 1.558792 -2.683537 0.797073 -2.999943 0.000198364 -2.999943 C -0.796677 -2.999943 -1.558395 -2.683537 -2.120895 -2.121037 C -2.683395 -1.558537 -2.999802 -0.796818 -2.999802 0.0000572205 C -2.999802 0.796932 -2.683395 1.558651 -2.120895 2.121151 C -1.558395 2.683651 -0.796677 3.000057 0.000198364 3.000057 Z M 0.000198364 3.000057 " transform="matrix(1.333333,0,0,1.333333,268.003642,55.843674)"/>
<path style="fill-rule:nonzero;fill:rgb(100%,49.803922%,5.490196%);fill-opacity:1;stroke-width:1;stroke-linecap:butt;stroke-linejoin:round;stroke:rgb(100%,49.803922%,5.490196%);stroke-opacity:1;stroke-miterlimit:4;" d="M 0.00109863 2.999744 C 0.795044 2.999744 1.559692 2.683338 2.122192 2.120838 C 2.684692 1.558338 3.001099 0.796619 3.001099 -0.000255585 C 3.001099 -0.794201 2.684692 -1.558849 2.122192 -2.121349 C 1.559692 -2.683849 0.795044 -3.000256 0.00109863 -3.000256 C -0.795776 -3.000256 -1.557495 -2.683849 -2.119995 -2.121349 C -2.682495 -1.558849 -2.998901 -0.794201 -2.998901 -0.000255585 C -2.998901 0.796619 -2.682495 1.558338 -2.119995 2.120838 C -1.557495 2.683338 -0.795776 2.999744 0.00109863 2.999744 Z M 0.00109863 2.999744 " transform="matrix(1.333333,0,0,1.333333,269.721191,52.484716)"/>
<path style="fill-rule:nonzero;fill:rgb(100%,49.803922%,5.490196%);fill-opacity:1;stroke-width:1;stroke-linecap:butt;stroke-linejoin:round;stroke:rgb(100%,49.803922%,5.490196%);stroke-opacity:1;stroke-miterlimit:4;" d="M -0.000579834 3.001289 C 0.796295 3.001289 1.558014 2.684883 2.120514 2.122383 C 2.683014 1.559883 2.99942 0.795235 2.99942 0.00128937 C 2.99942 -0.795586 2.683014 -1.557304 2.120514 -2.122734 C 1.558014 -2.685234 0.796295 -2.998711 -0.000579834 -2.998711 C -0.794525 -2.998711 -1.559174 -2.685234 -2.121674 -2.122734 C -2.684174 -1.557304 -3.00058 -0.795586 -3.00058 0.00128937 C -3.00058 0.795235 -2.684174 1.559883 -2.121674 2.122383 C -1.559174 2.684883 -0.794525 3.001289 -0.000579834 3.001289 Z M -0.000579834 3.001289 " transform="matrix(1.333333,0,0,1.333333,262.813273,49.084218)"/>
<path style="fill-rule:nonzero;fill:rgb(100%,49.803922%,5.490196%);fill-opacity:1;stroke-width:1;stroke-linecap:butt;stroke-linejoin:round;stroke:rgb(100%,49.803922%,5.490196%);stroke-opacity:1;stroke-miterlimit:4;" d="M 0.00050354 3.000885 C 0.794449 3.000885 1.559097 2.684479 2.121597 2.121979 C 2.684097 1.559479 3.000504 0.79483 3.000504 0.00088501 C 3.000504 -0.79599 2.684097 -1.557709 2.121597 -2.120209 C 1.559097 -2.682709 0.794449 -2.999115 0.00050354 -2.999115 C -0.796371 -2.999115 -1.55809 -2.682709 -2.12059 -2.120209 C -2.68309 -1.557709 -2.999496 -0.79599 -2.999496 0.00088501 C -2.999496 0.79483 -2.68309 1.559479 -2.12059 2.121979 C -1.55809 2.684479 -0.796371 3.000885 0.00050354 3.000885 Z M 0.00050354 3.000885 " transform="matrix(1.333333,0,0,1.333333,267.61261,47.987101)"/>
<path style="fill-rule:nonzero;fill:rgb(100%,49.803922%,5.490196%);fill-opacity:1;stroke-width:1;stroke-linecap:butt;stroke-linejoin:round;stroke:rgb(100%,49.803922%,5.490196%);stroke-opacity:1;stroke-miterlimit:4;" d="M -0.00128174 2.998543 C 0.795593 2.998543 1.557312 2.685066 2.122742 2.122566 C 2.685242 1.560066 2.998718 0.795418 2.998718 -0.00145721 C 2.998718 -0.795403 2.685242 -1.560051 2.122742 -2.122551 C 1.557312 -2.685051 0.795593 -3.001457 -0.00128174 -3.001457 C -0.795227 -3.001457 -1.559875 -2.685051 -2.122375 -2.122551 C -2.684875 -1.560051 -3.001282 -0.795403 -3.001282 -0.00145721 C -3.001282 0.795418 -2.684875 1.560066 -2.122375 2.122566 C -1.559875 2.685066 -0.795227 2.998543 -0.00128174 2.998543 Z M -0.00128174 2.998543 " transform="matrix(1.333333,0,0,1.333333,265.36499,41.654287)"/>
<path style="fill-rule:nonzero;fill:rgb(100%,49.803922%,5.490196%);fill-opacity:1;stroke-width:1;stroke-linecap:butt;stroke-linejoin:round;stroke:rgb(100%,49.803922%,5.490196%);stroke-opacity:1;stroke-miterlimit:4;" d="M -0.000244141 2.999817 C 0.796631 2.999817 1.55835 2.683411 2.12085 2.120911 C 2.68335 1.558411 2.999756 0.796692 2.999756 -0.000183105 C 2.999756 -0.797058 2.68335 -1.558777 2.12085 -2.121277 C 1.55835 -2.683777 0.796631 -3.000183 -0.000244141 -3.000183 C -0.794189 -3.000183 -1.558838 -2.683777 -2.121338 -2.121277 C -2.683838 -1.558777 -3.000244 -0.797058 -3.000244 -0.000183105 C -3.000244 0.796692 -2.683838 1.558411 -2.121338 2.120911 C -1.558838 2.683411 -0.794189 2.999817 -0.000244141 2.999817 Z M -0.000244141 2.999817 " transform="matrix(1.333333,0,0,1.333333,262.637044,55.492432)"/>
<path style="fill-rule:nonzero;fill:rgb(100%,49.803922%,5.490196%);fill-opacity:1;stroke-width:1;stroke-linecap:butt;stroke-linejoin:round;stroke:rgb(100%,49.803922%,5.490196%);stroke-opacity:1;stroke-miterlimit:4;" d="M 0.000106812 2.998859 C 0.796982 2.998859 1.558701 2.682453 2.121201 2.119953 C 2.683701 1.557453 3.000107 0.795734 3.000107 -0.00114059 C 3.000107 -0.795086 2.683701 -1.559734 2.121201 -2.122234 C 1.558701 -2.684734 0.796982 -3.001141 0.000106812 -3.001141 C -0.796768 -3.001141 -1.558487 -2.684734 -2.120987 -2.122234 C -2.683487 -1.559734 -2.999893 -0.795086 -2.999893 -0.00114059 C -2.999893 0.795734 -2.683487 1.557453 -2.120987 2.119953 C -1.558487 2.682453 -0.796768 2.998859 0.000106812 2.998859 Z M 0.000106812 2.998859 " transform="matrix(1.333333,0,0,1.333333,260.613139,54.782771)"/>
<path style="fill-rule:nonzero;fill:rgb(100%,49.803922%,5.490196%);fill-opacity:1;stroke-width:1;stroke-linecap:butt;stroke-linejoin:round;stroke:rgb(100%,49.803922%,5.490196%);stroke-opacity:1;stroke-miterlimit:4;" d="M 0.00012207 2.999203 C 0.796997 2.999203 1.558716 2.682796 2.121216 2.120296 C 2.683716 1.557796 3.000122 0.796078 3.000122 -0.000797272 C 3.000122 -0.794743 2.683716 -1.559391 2.121216 -2.121891 C 1.558716 -2.684391 0.796997 -3.000797 0.00012207 -3.000797 C -0.796753 -3.000797 -1.558472 -2.684391 -2.120972 -2.121891 C -2.683472 -1.559391 -2.999878 -0.794743 -2.999878 -0.000797272 C -2.999878 0.796078 -2.683472 1.557796 -2.120972 2.120296 C -1.558472 2.682796 -0.796753 2.999203 0.00012207 2.999203 Z M 0.00012207 2.999203 " transform="matrix(1.333333,0,0,1.333333,263.765462,51.930751)"/>
<path style="fill-rule:nonzero;fill:rgb(100%,49.803922%,5.490196%);fill-opacity:1;stroke-width:1;stroke-linecap:butt;stroke-linejoin:round;stroke:rgb(100%,49.803922%,5.490196%);stroke-opacity:1;stroke-miterlimit:4;" d="M -0.000488281 2.999298 C 0.796387 2.999298 1.558105 2.682892 2.120605 2.120392 C 2.683105 1.557892 2.999512 0.796173 2.999512 -0.000701904 C 2.999512 -0.794647 2.683105 -1.559296 2.120605 -2.121796 C 1.558105 -2.684296 0.796387 -3.000702 -0.000488281 -3.000702 C -0.794434 -3.000702 -1.559082 -2.684296 -2.121582 -2.121796 C -2.684082 -1.559296 -3.000488 -0.794647 -3.000488 -0.000701904 C -3.000488 0.796173 -2.684082 1.557892 -2.121582 2.120392 C -1.559082 2.682892 -0.794434 2.999298 -0.000488281 2.999298 Z M -0.000488281 2.999298 " transform="matrix(1.333333,0,0,1.333333,263.508464,48.848592)"/>
<path style="fill-rule:nonzero;fill:rgb(100%,49.803922%,5.490196%);fill-opacity:1;stroke-width:1;stroke-linecap:butt;stroke-linejoin:round;stroke:rgb(100%,49.803922%,5.490196%);stroke-opacity:1;stroke-miterlimit:4;" d="M 0.000473022 3.000935 C 0.794418 3.000935 1.559067 2.684528 2.121567 2.122028 C 2.684067 1.559528 3.000473 0.79488 3.000473 0.000934601 C 3.000473 -0.79594 2.684067 -1.557659 2.121567 -2.120159 C 1.559067 -2.682659 0.794418 -2.999065 0.000473022 -2.999065 C -0.796402 -2.999065 -1.558121 -2.682659 -2.120621 -2.120159 C -2.683121 -1.557659 -2.999527 -0.79594 -2.999527 0.000934601 C -2.999527 0.79488 -2.683121 1.559528 -2.120621 2.122028 C -1.558121 2.684528 -0.796402 3.000935 0.000473022 3.000935 Z M 0.000473022 3.000935 " transform="matrix(1.333333,0,0,1.333333,272.249369,55.795629)"/>
<path style="fill-rule:nonzero;fill:rgb(100%,49.803922%,5.490196%);fill-opacity:1;stroke-width:1;stroke-linecap:butt;stroke-linejoin:round;stroke:rgb(100%,49.803922%,5.490196%);stroke-opacity:1;stroke-miterlimit:4;" d="M -0.000610352 2.99905 C 0.796265 2.99905 1.557983 2.682644 2.120483 2.120144 C 2.682983 1.557644 2.99939 0.795925 2.99939 -0.00094986 C 2.99939 -0.794895 2.682983 -1.559544 2.120483 -2.122044 C 1.557983 -2.684544 0.796265 -3.00095 -0.000610352 -3.00095 C -0.794556 -3.00095 -1.559204 -2.684544 -2.121704 -2.122044 C -2.684204 -1.559544 -3.00061 -0.794895 -3.00061 -0.00094986 C -3.00061 0.795925 -2.684204 1.557644 -2.121704 2.120144 C -1.559204 2.682644 -0.794556 2.99905 -0.000610352 2.99905 Z M -0.000610352 2.99905 " transform="matrix(1.333333,0,0,1.333333,270.282064,60.970016)"/>
<path style="fill-rule:nonzero;fill:rgb(100%,49.803922%,5.490196%);fill-opacity:1;stroke-width:1;stroke-linecap:butt;stroke-linejoin:round;stroke:rgb(100%,49.803922%,5.490196%);stroke-opacity:1;stroke-miterlimit:4;" d="M 0.000564575 3.00024 C 0.79451 3.00024 1.559158 2.683834 2.121658 2.121334 C 2.684158 1.558834 3.000565 0.794186 3.000565 0.000240326 C 3.000565 -0.796635 2.684158 -1.558353 2.121658 -2.120853 C 1.559158 -2.683353 0.79451 -2.99976 0.000564575 -2.99976 C -0.79631 -2.99976 -1.558029 -2.683353 -2.120529 -2.120853 C -2.683029 -1.558353 -2.999435 -0.796635 -2.999435 0.000240326 C -2.999435 0.794186 -2.683029 1.558834 -2.120529 2.121334 C -1.558029 2.683834 -0.79631 3.00024 0.000564575 3.00024 Z M 0.000564575 3.00024 " transform="matrix(1.333333,0,0,1.333333,271.581278,61.796555)"/>
<path style="fill-rule:nonzero;fill:rgb(100%,49.803922%,5.490196%);fill-opacity:1;stroke-width:1;stroke-linecap:butt;stroke-linejoin:round;stroke:rgb(100%,49.803922%,5.490196%);stroke-opacity:1;stroke-miterlimit:4;" d="M 0.001297 2.999592 C 0.795242 2.999592 1.559891 2.683186 2.122391 2.120686 C 2.684891 1.558186 3.001297 0.796467 3.001297 -0.000408173 C 3.001297 -0.794353 2.684891 -1.559002 2.122391 -2.121502 C 1.559891 -2.684002 0.795242 -3.000408 0.001297 -3.000408 C -0.795578 -3.000408 -1.557297 -2.684002 -2.122726 -2.121502 C -2.685226 -1.559002 -2.998703 -0.794353 -2.998703 -0.000408173 C -2.998703 0.796467 -2.685226 1.558186 -2.122726 2.120686 C -1.557297 2.683186 -0.795578 2.999592 0.001297 2.999592 Z M 0.001297 2.999592 " transform="matrix(1.333333,0,0,1.333333,276.470927,59.371638)"/>
<path style="fill-rule:nonzero;fill:rgb(100%,49.803922%,5.490196%);fill-opacity:1;stroke-width:1;stroke-linecap:butt;stroke-linejoin:round;stroke:rgb(100%,49.803922%,5.490196%);stroke-opacity:1;stroke-miterlimit:4;" d="M 0.00141907 3.001389 C 0.795364 3.001389 1.560013 2.684982 2.122513 2.122482 C 2.685013 1.559982 3.001419 0.795334 3.001419 0.00138855 C 3.001419 -0.795486 2.685013 -1.560135 2.122513 -2.122635 C 1.560013 -2.685135 0.795364 -2.998611 0.00141907 -2.998611 C -0.795456 -2.998611 -1.560104 -2.685135 -2.122604 -2.122635 C -2.685104 -1.560135 -2.998581 -0.795486 -2.998581 0.00138855 C -2.998581 0.795334 -2.685104 1.559982 -2.122604 2.122482 C -1.560104 2.684982 -0.795456 3.001389 0.00141907 3.001389 Z M 0.00141907 3.001389 " transform="matrix(1.333333,0,0,1.333333,276.232483,54.86143)"/>
<path style="fill-rule:nonzero;fill:rgb(100%,49.803922%,5.490196%);fill-opacity:1;stroke-width:1;stroke-linecap:butt;stroke-linejoin:round;stroke:rgb(100%,49.803922%,5.490196%);stroke-opacity:1;stroke-miterlimit:4;" d="M -0.0000762939 2.999287 C 0.796799 2.999287 1.558517 2.68288 2.121017 2.12038 C 2.683517 1.55788 2.999924 0.796162 2.999924 -0.000713348 C 2.999924 -0.794659 2.683517 -1.559307 2.121017 -2.121807 C 1.558517 -2.684307 0.796799 -3.000713 -0.0000762939 -3.000713 C -0.796951 -3.000713 -1.55867 -2.684307 -2.12117 -2.121807 C -2.68367 -1.559307 -3.000076 -0.794659 -3.000076 -0.000713348 C -3.000076 0.796162 -2.68367 1.55788 -2.12117 2.12038 C -1.55867 2.68288 -0.796951 2.999287 -0.0000762939 2.999287 Z M -0.0000762939 2.999287 " transform="matrix(1.333333,0,0,1.333333,271.347758,55.852514)"/>
<path style="fill-rule:nonzero;fill:rgb(100%,49.803922%,5.490196%);fill-opacity:1;stroke-width:1;stroke-linecap:butt;stroke-linejoin:round;stroke:rgb(100%,49.803922%,5.490196%);stroke-opacity:1;stroke-miterlimit:4;" d="M -0.0000152588 2.999233 C 0.79686 2.999233 1.558578 2.682827 2.121078 2.120327 C 2.683578 1.557827 2.999985 0.796108 2.999985 -0.000766754 C 2.999985 -0.794712 2.683578 -1.559361 2.121078 -2.121861 C 1.558578 -2.684361 0.79686 -3.000767 -0.0000152588 -3.000767 C -0.79689 -3.000767 -1.558609 -2.684361 -2.121109 -2.121861 C -2.683609 -1.559361 -3.000015 -0.794712 -3.000015 -0.000766754 C -3.000015 0.796108 -2.683609 1.557827 -2.121109 2.120327 C -1.558609 2.682827 -0.79689 2.999233 -0.0000152588 2.999233 Z M -0.0000152588 2.999233 " transform="matrix(1.333333,0,0,1.333333,280.523458,54.74321)"/>
<path style="fill-rule:nonzero;fill:rgb(100%,49.803922%,5.490196%);fill-opacity:1;stroke-width:1;stroke-linecap:butt;stroke-linejoin:round;stroke:rgb(100%,49.803922%,5.490196%);stroke-opacity:1;stroke-miterlimit:4;" d="M 0.000473022 2.999249 C 0.794418 2.999249 1.559067 2.682842 2.121567 2.120342 C 2.684067 1.557842 3.000473 0.796124 3.000473 -0.000751495 C 3.000473 -0.794697 2.684067 -1.559345 2.121567 -2.121845 C 1.559067 -2.684345 0.794418 -3.000751 0.000473022 -3.000751 C -0.796402 -3.000751 -1.558121 -2.684345 -2.120621 -2.121845 C -2.683121 -1.559345 -2.999527 -0.794697 -2.999527 -0.000751495 C -2.999527 0.796124 -2.683121 1.557842 -2.120621 2.120342 C -1.558121 2.682842 -0.796402 2.999249 0.000473022 2.999249 Z M 0.000473022 2.999249 " transform="matrix(1.333333,0,0,1.333333,282.608744,49.118189)"/>
<path style="fill-rule:nonzero;fill:rgb(100%,49.803922%,5.490196%);fill-opacity:1;stroke-width:1;stroke-linecap:butt;stroke-linejoin:round;stroke:rgb(100%,49.803922%,5.490196%);stroke-opacity:1;stroke-miterlimit:4;" d="M -0.000274658 3.000111 C 0.7966 3.000111 1.558319 2.683704 2.120819 2.121204 C 2.683319 1.558704 2.999725 0.796986 2.999725 0.000110626 C 2.999725 -0.796764 2.683319 -1.558483 2.120819 -2.120983 C 1.558319 -2.683483 0.7966 -2.999889 -0.000274658 -2.999889 C -0.79422 -2.999889 -1.558868 -2.683483 -2.121368 -2.120983 C -2.683868 -1.558483 -3.000275 -0.796764 -3.000275 0.000110626 C -3.000275 0.796986 -2.683868 1.558704 -2.121368 2.121204 C -1.558868 2.683704 -0.79422 3.000111 -0.000274658 3.000111 Z M -0.000274658 3.000111 " transform="matrix(1.333333,0,0,1.333333,275.96521,57.855321)"/>
<path style="fill-rule:nonzero;fill:rgb(100%,49.803922%,5.490196%);fill-opacity:1;stroke-width:1;stroke-linecap:butt;stroke-linejoin:round;stroke:rgb(100%,49.803922%,5.490196%);stroke-opacity:1;stroke-miterlimit:4;" d="M 0.00117493 3.00079 C 0.79512 3.00079 1.559769 2.684383 2.122269 2.121883 C 2.684769 1.559383 3.001175 0.794735 3.001175 0.000789642 C 3.001175 -0.796085 2.684769 -1.557804 2.122269 -2.120304 C 1.559769 -2.682804 0.79512 -2.99921 0.00117493 -2.99921 C -0.7957 -2.99921 -1.557419 -2.682804 -2.119919 -2.120304 C -2.685349 -1.557804 -2.998825 -0.796085 -2.998825 0.000789642 C -2.998825 0.794735 -2.685349 1.559383 -2.119919 2.121883 C -1.557419 2.684383 -0.7957 3.00079 0.00117493 3.00079 Z M 0.00117493 3.00079 " transform="matrix(1.333333,0,0,1.333333,276.572652,60.889572)"/>
<path style="fill-rule:nonzero;fill:rgb(100%,49.803922%,5.490196%);fill-opacity:1;stroke-width:1;stroke-linecap:butt;stroke-linejoin:round;stroke:rgb(100%,49.803922%,5.490196%);stroke-opacity:1;stroke-miterlimit:4;" d="M 0.000274658 3.000664 C 0.79422 3.000664 1.558868 2.684258 2.121368 2.121758 C 2.683868 1.559258 3.000275 0.794609 3.000275 0.000663757 C 3.000275 -0.796211 2.683868 -1.55793 2.121368 -2.12043 C 1.558868 -2.68293 0.79422 -2.999336 0.000274658 -2.999336 C -0.7966 -2.999336 -1.558319 -2.68293 -2.120819 -2.12043 C -2.683319 -1.55793 -2.999725 -0.796211 -2.999725 0.000663757 C -2.999725 0.794609 -2.683319 1.559258 -2.120819 2.121758 C -1.558319 2.684258 -0.7966 3.000664 0.000274658 3.000664 Z M 0.000274658 3.000664 " transform="matrix(1.333333,0,0,1.333333,282.25354,52.82724)"/>
<path style="fill-rule:nonzero;fill:rgb(100%,49.803922%,5.490196%);fill-opacity:1;stroke-width:1;stroke-linecap:butt;stroke-linejoin:round;stroke:rgb(100%,49.803922%,5.490196%);stroke-opacity:1;stroke-miterlimit:4;" d="M 0.00105286 2.999729 C 0.794998 2.999729 1.559647 2.683323 2.122147 2.120823 C 2.684647 1.558323 3.001053 0.796604 3.001053 -0.000270844 C 3.001053 -0.794216 2.684647 -1.558865 2.122147 -2.121365 C 1.559647 -2.683865 0.794998 -3.000271 0.00105286 -3.000271 C -0.795822 -3.000271 -1.557541 -2.683865 -2.120041 -2.121365 C -2.682541 -1.558865 -2.998947 -0.794216 -2.998947 -0.000270844 C -2.998947 0.796604 -2.682541 1.558323 -2.120041 2.120823 C -1.557541 2.683323 -0.795822 2.999729 0.00105286 2.999729 Z M 0.00105286 2.999729 " transform="matrix(1.333333,0,0,1.333333,283.533752,47.945674)"/>
<path style="fill-rule:nonzero;fill:rgb(100%,49.803922%,5.490196%);fill-opacity:1;stroke-width:1;stroke-linecap:butt;stroke-linejoin:round;stroke:rgb(100%,49.803922%,5.490196%);stroke-opacity:1;stroke-miterlimit:4;" d="M -0.00131226 2.999775 C 0.795563 2.999775 1.557281 2.683369 2.122711 2.120869 C 2.685211 1.558369 2.998688 0.79665 2.998688 -0.000225067 C 2.998688 -0.79417 2.685211 -1.558819 2.122711 -2.121319 C 1.557281 -2.683819 0.795563 -3.000225 -0.00131226 -3.000225 C -0.795258 -3.000225 -1.559906 -2.683819 -2.122406 -2.121319 C -2.684906 -1.558819 -3.001312 -0.79417 -3.001312 -0.000225067 C -3.001312 0.79665 -2.684906 1.558369 -2.122406 2.120869 C -1.559906 2.683369 -0.795258 2.999775 -0.00131226 2.999775 Z M -0.00131226 2.999775 " transform="matrix(1.333333,0,0,1.333333,288.06425,48.246394)"/>
<path style="fill-rule:nonzero;fill:rgb(100%,49.803922%,5.490196%);fill-opacity:1;stroke-width:1;stroke-linecap:butt;stroke-linejoin:round;stroke:rgb(100%,49.803922%,5.490196%);stroke-opacity:1;stroke-miterlimit:4;" d="M -0.00088501 2.999783 C 0.79599 2.999783 1.557709 2.683376 2.120209 2.120876 C 2.682709 1.558376 2.999115 0.796658 2.999115 -0.000217438 C 2.999115 -0.794163 2.682709 -1.558811 2.120209 -2.121311 C 1.557709 -2.683811 0.79599 -3.000217 -0.00088501 -3.000217 C -0.79483 -3.000217 -1.559479 -2.683811 -2.121979 -2.121311 C -2.684479 -1.558811 -3.000885 -0.794163 -3.000885 -0.000217438 C -3.000885 0.796658 -2.684479 1.558376 -2.121979 2.120876 C -1.559479 2.683376 -0.79483 2.999783 -0.00088501 2.999783 Z M -0.00088501 2.999783 " transform="matrix(1.333333,0,0,1.333333,287.258993,54.476852)"/>
<path style="fill-rule:nonzero;fill:rgb(100%,49.803922%,5.490196%);fill-opacity:1;stroke-width:1;stroke-linecap:butt;stroke-linejoin:round;stroke:rgb(100%,49.803922%,5.490196%);stroke-opacity:1;stroke-miterlimit:4;" d="M -0.00062561 3.000801 C 0.796249 3.000801 1.557968 2.684395 2.120468 2.121895 C 2.682968 1.559395 2.999374 0.794746 2.999374 0.000801086 C 2.999374 -0.796074 2.682968 -1.557793 2.120468 -2.120293 C 1.557968 -2.682793 0.796249 -2.999199 -0.00062561 -2.999199 C -0.794571 -2.999199 -1.559219 -2.682793 -2.121719 -2.120293 C -2.684219 -1.557793 -3.000626 -0.796074 -3.000626 0.000801086 C -3.000626 0.794746 -2.684219 1.559395 -2.121719 2.121895 C -1.559219 2.684395 -0.794571 3.000801 -0.00062561 3.000801 Z M -0.00062561 3.000801 " transform="matrix(1.333333,0,0,1.333333,284.485209,52.741119)"/>
<path style="fill-rule:nonzero;fill:rgb(100%,49.803922%,5.490196%);fill-opacity:1;stroke-width:1;stroke-linecap:butt;stroke-linejoin:round;stroke:rgb(100%,49.803922%,5.490196%);stroke-opacity:1;stroke-miterlimit:4;" d="M -0.000610352 2.999844 C 0.796265 2.999844 1.557983 2.683437 2.120483 2.120937 C 2.682983 1.558437 2.99939 0.796719 2.99939 -0.000156403 C 2.99939 -0.797031 2.682983 -1.55875 2.120483 -2.12125 C 1.557983 -2.68375 0.796265 -3.000156 -0.000610352 -3.000156 C -0.794556 -3.000156 -1.559204 -2.68375 -2.121704 -2.12125 C -2.684204 -1.55875 -3.00061 -0.797031 -3.00061 -0.000156403 C -3.00061 0.796719 -2.684204 1.558437 -2.121704 2.120937 C -1.559204 2.683437 -0.794556 2.999844 -0.000610352 2.999844 Z M -0.000610352 2.999844 " transform="matrix(1.333333,0,0,1.333333,292.543783,48.652552)"/>
<path style="fill-rule:nonzero;fill:rgb(100%,49.803922%,5.490196%);fill-opacity:1;stroke-width:1;stroke-linecap:butt;stroke-linejoin:round;stroke:rgb(100%,49.803922%,5.490196%);stroke-opacity:1;stroke-miterlimit:4;" d="M -0.000198364 2.998966 C 0.796677 2.998966 1.558395 2.68256 2.120895 2.12006 C 2.683395 1.55756 2.999802 0.795841 2.999802 -0.00103378 C 2.999802 -0.794979 2.683395 -1.559628 2.120895 -2.122128 C 1.558395 -2.684628 0.796677 -3.001034 -0.000198364 -3.001034 C -0.797073 -3.001034 -1.558792 -2.684628 -2.121292 -2.122128 C -2.683792 -1.559628 -3.000198 -0.794979 -3.000198 -0.00103378 C -3.000198 0.795841 -2.683792 1.55756 -2.121292 2.12006 C -1.558792 2.68256 -0.797073 2.998966 -0.000198364 2.998966 Z M -0.000198364 2.998966 " transform="matrix(1.333333,0,0,1.333333,293.969014,52.556066)"/>
<path style="fill-rule:nonzero;fill:rgb(100%,49.803922%,5.490196%);fill-opacity:1;stroke-width:1;stroke-linecap:butt;stroke-linejoin:round;stroke:rgb(100%,49.803922%,5.490196%);stroke-opacity:1;stroke-miterlimit:4;" d="M 0.00140381 2.999458 C 0.795349 2.999458 1.559998 2.683052 2.122498 2.120552 C 2.684998 1.558052 3.001404 0.796333 3.001404 -0.000541687 C 3.001404 -0.794487 2.684998 -1.559135 2.122498 -2.121635 C 1.559998 -2.684135 0.795349 -3.000542 0.00140381 -3.000542 C -0.795471 -3.000542 -1.56012 -2.684135 -2.12262 -2.121635 C -2.68512 -1.559135 -2.998596 -0.794487 -2.998596 -0.000541687 C -2.998596 0.796333 -2.68512 1.558052 -2.12262 2.120552 C -1.56012 2.683052 -0.795471 2.999458 0.00140381 2.999458 Z M 0.00140381 2.999458 " transform="matrix(1.333333,0,0,1.333333,288.291097,56.496816)"/>
<path style="fill-rule:nonzero;fill:rgb(100%,49.803922%,5.490196%);fill-opacity:1;stroke-width:1;stroke-linecap:butt;stroke-linejoin:round;stroke:rgb(100%,49.803922%,5.490196%);stroke-opacity:1;stroke-miterlimit:4;" d="M -0.000808716 2.999649 C 0.796066 2.999649 1.557785 2.683243 2.120285 2.120743 C 2.682785 1.558243 2.999191 0.796524 2.999191 -0.000350952 C 2.999191 -0.794296 2.682785 -1.558945 2.120285 -2.121445 C 1.557785 -2.683945 0.796066 -3.000351 -0.000808716 -3.000351 C -0.794754 -3.000351 -1.559402 -2.683945 -2.121902 -2.121445 C -2.684402 -1.558945 -3.000809 -0.794296 -3.000809 -0.000350952 C -3.000809 0.796524 -2.684402 1.558243 -2.121902 2.120743 C -1.559402 2.683243 -0.794754 2.999649 -0.000808716 2.999649 Z M -0.000808716 2.999649 " transform="matrix(1.333333,0,0,1.333333,282.844828,54.598124)"/>
<path style="fill-rule:nonzero;fill:rgb(100%,49.803922%,5.490196%);fill-opacity:1;stroke-width:1;stroke-linecap:butt;stroke-linejoin:round;stroke:rgb(100%,49.803922%,5.490196%);stroke-opacity:1;stroke-miterlimit:4;" d="M -0.00138855 3.000687 C 0.795486 3.000687 1.560135 2.68428 2.122635 2.12178 C 2.685135 1.55928 2.998611 0.794632 2.998611 0.000686646 C 2.998611 -0.796188 2.685135 -1.557907 2.122635 -2.120407 C 1.560135 -2.682907 0.795486 -2.999313 -0.00138855 -2.999313 C -0.795334 -2.999313 -1.559982 -2.682907 -2.122482 -2.120407 C -2.684982 -1.557907 -3.001389 -0.796188 -3.001389 0.000686646 C -3.001389 0.794632 -2.684982 1.55928 -2.122482 2.12178 C -1.559982 2.68428 -0.795334 3.000687 -0.00138855 3.000687 Z M -0.00138855 3.000687 " transform="matrix(1.333333,0,0,1.333333,283.954976,52.467834)"/>
<path style="fill-rule:nonzero;fill:rgb(100%,49.803922%,5.490196%);fill-opacity:1;stroke-width:1;stroke-linecap:butt;stroke-linejoin:round;stroke:rgb(100%,49.803922%,5.490196%);stroke-opacity:1;stroke-miterlimit:4;" d="M -0.000411987 2.999485 C 0.796463 2.999485 1.558182 2.683079 2.120682 2.120579 C 2.683182 1.558079 2.999588 0.79636 2.999588 -0.000514984 C 2.999588 -0.79446 2.683182 -1.559109 2.120682 -2.121609 C 1.558182 -2.684109 0.796463 -3.000515 -0.000411987 -3.000515 C -0.794357 -3.000515 -1.559006 -2.684109 -2.121506 -2.121609 C -2.684006 -1.559109 -3.000412 -0.79446 -3.000412 -0.000514984 C -3.000412 0.79636 -2.684006 1.558079 -2.121506 2.120579 C -1.559006 2.683079 -0.794357 2.999485 -0.000411987 2.999485 Z M -0.000411987 2.999485 " transform="matrix(1.333333,0,0,1.333333,279.527893,51.852249)"/>
<path style="fill-rule:nonzero;fill:rgb(100%,49.803922%,5.490196%);fill-opacity:1;stroke-width:1;stroke-linecap:butt;stroke-linejoin:round;stroke:rgb(100%,49.803922%,5.490196%);stroke-opacity:1;stroke-miterlimit:4;" d="M -0.001297 3.001194 C 0.795578 3.001194 1.557297 2.684788 2.122726 2.122288 C 2.685226 1.559788 2.998703 0.795139 2.998703 0.001194 C 2.998703 -0.795681 2.685226 -1.5574 2.122726 -2.1199 C 1.557297 -2.685329 0.795578 -2.998806 -0.001297 -2.998806 C -0.795242 -2.998806 -1.559891 -2.685329 -2.122391 -2.1199 C -2.684891 -1.5574 -3.001297 -0.795681 -3.001297 0.001194 C -3.001297 0.795139 -2.684891 1.559788 -2.122391 2.122288 C -1.559891 2.684788 -0.795242 3.001194 -0.001297 3.001194 Z M -0.001297 3.001194 " transform="matrix(1.333333,0,0,1.333333,273.919698,50.115595)"/>
<path style="fill-rule:nonzero;fill:rgb(100%,49.803922%,5.490196%);fill-opacity:1;stroke-width:1;stroke-linecap:butt;stroke-linejoin:round;stroke:rgb(100%,49.803922%,5.490196%);stroke-opacity:1;stroke-miterlimit:4;" d="M 0.0000457764 3.000814 C 0.796921 3.000814 1.55864 2.684408 2.12114 2.121908 C 2.68364 1.559408 3.000046 0.79476 3.000046 0.000814438 C 3.000046 -0.796061 2.68364 -1.557779 2.12114 -2.120279 C 1.55864 -2.682779 0.796921 -2.999186 0.0000457764 -2.999186 C -0.796829 -2.999186 -1.558548 -2.682779 -2.121048 -2.120279 C -2.683548 -1.557779 -2.999954 -0.796061 -2.999954 0.000814438 C -2.999954 0.79476 -2.683548 1.559408 -2.121048 2.121908 C -1.558548 2.684408 -0.796829 3.000814 0.0000457764 3.000814 Z M 0.0000457764 3.000814 " transform="matrix(1.333333,0,0,1.333333,281.445251,40.827039)"/>
<g clip-path="url(#clip1)" clip-rule="nonzero">
<path style="fill:none;stroke-width:1.5;stroke-linecap:butt;stroke-linejoin:round;stroke:rgb(12.156863%,46.666667%,70.588237%);stroke-opacity:1;stroke-miterlimit:4;" d="M 133.388672 7.201172 L 131.355469 10.68457 L 131.115234 11.150391 L 129.618164 14.167969 L 128.121094 17.654297 L 128.06543 17.8125 L 126.899414 21.137695 L 125.900391 24.624023 L 125.124023 28.107422 L 125.012695 28.804688 L 124.584961 31.59375 L 124.262695 35.077148 L 124.157227 38.560547 L 124.262695 42.046875 L 124.584961 45.530273 L 125.012695 48.319336 L 125.124023 49.016602 L 125.900391 52.5 L 126.899414 55.983398 L 128.06543 59.311523 L 128.121094 59.469727 L 129.618164 62.953125 L 131.115234 65.973633 L 131.355469 66.439453 L 133.388672 69.922852 L 134.167969 71.115234 L 135.723633 73.40625 L 137.217773 75.398438 L 138.386719 76.892578 L 140.270508 79.089844 L 141.421875 80.375977 L 143.323242 82.327148 L 144.881836 83.862305 L 146.373047 85.21582 L 148.828125 87.345703 L 149.425781 87.826172 L 152.475586 90.169922 L 153.383789 90.832031 L 155.52832 92.291016 L 158.581055 94.259766 L 158.671875 94.31543 L 161.630859 96.005859 L 164.683594 97.640625 L 164.99707 97.798828 L 167.733398 99.09375 L 170.786133 100.438477 L 172.860352 101.285156 L 173.838867 101.660156 L 176.888672 102.744141 L 179.941406 103.734375 L 182.991211 104.62793 L 183.530273 104.768555 L 186.043945 105.395508 L 189.09668 106.063477 L 192.146484 106.646484 L 195.199219 107.135742 L 198.249023 107.540039 L 201.301758 107.850586 L 204.354492 108.076172 L 207.404297 108.208008 L 210.457031 108.254883 L 213.506836 108.208008 L 216.55957 108.076172 L 219.612305 107.850586 L 222.662109 107.540039 L 225.714844 107.135742 L 228.764648 106.646484 L 231.817383 106.063477 L 234.870117 105.395508 L 237.380859 104.768555 L 237.919922 104.62793 " transform="matrix(1.333333,0,0,1.333333,0,0)"/>
</g>
<g clip-path="url(#clip2)" clip-rule="nonzero">
<path style="fill:none;stroke-width:1.5;stroke-linecap:butt;stroke-linejoin:round;stroke:rgb(12.156863%,46.666667%,70.588237%);stroke-opacity:1;stroke-miterlimit:4;" d="M 94.740234 7.201172 L 94.49707 7.816406 L 93.386719 10.68457 L 92.197266 14.167969 L 91.444336 16.716797 L 91.174805 17.654297 L 90.325195 21.137695 L 89.630859 24.624023 L 89.088867 28.107422 L 88.702148 31.59375 L 88.470703 35.077148 L 88.394531 38.560547 L 88.470703 42.046875 L 88.702148 45.530273 L 89.088867 49.016602 L 89.630859 52.5 L 90.325195 55.983398 L 91.174805 59.469727 L 91.444336 60.407227 L 92.197266 62.953125 L 93.386719 66.439453 L 94.49707 69.307617 L 94.740234 69.922852 L 96.287109 73.40625 L 97.549805 75.978516 L 98.006836 76.892578 L 99.931641 80.375977 L 100.599609 81.492188 L 102.061523 83.862305 L 103.652344 86.25 L 104.402344 87.345703 L 106.702148 90.47168 L 106.977539 90.832031 L 109.754883 94.259766 L 109.801758 94.31543 L 112.807617 97.693359 L 112.904297 97.798828 L 115.857422 100.836914 L 116.308594 101.285156 L 118.910156 103.734375 L 120.046875 104.768555 L 121.959961 106.420898 L 124.157227 108.254883 L 125.012695 108.93457 L 128.06543 111.272461 L 128.698242 111.738281 L 131.115234 113.44043 L 133.749023 115.22168 L 134.167969 115.494141 L 137.217773 117.392578 L 139.426758 118.708008 L 140.270508 119.188477 L 143.323242 120.858398 L 145.87793 122.191406 L 146.373047 122.44043 L 149.425781 123.899414 L 152.475586 125.285156 L 153.383789 125.677734 L 155.52832 126.56543 L 158.581055 127.760742 L 161.630859 128.888672 L 162.418945 129.161133 L 164.683594 129.916992 L 167.733398 130.87207 L 170.786133 131.759766 L 173.838867 132.580078 L 174.102539 132.647461 L 176.888672 133.3125 L 179.941406 133.977539 L 182.991211 134.578125 L 186.043945 135.117188 L 189.09668 135.591797 L 192.146484 136.004883 L 193.256836 136.130859 L 195.199219 136.344727 L 198.249023 136.620117 L 201.301758 136.833984 L 204.354492 136.986328 L 207.404297 137.077148 L 210.457031 137.109375 L 213.506836 137.077148 L 216.55957 136.986328 L 219.612305 136.833984 L 222.662109 136.620117 L 225.714844 136.344727 L 227.657227 136.130859 L 228.764648 136.004883 L 231.817383 135.591797 L 234.870117 135.117188 L 237.919922 134.578125 " transform="matrix(1.333333,0,0,1.333333,0,0)"/>
</g>
<g clip-path="url(#clip3)" clip-rule="nonzero">
<path style="fill:none;stroke-width:1.5;stroke-linecap:butt;stroke-linejoin:round;stroke:rgb(12.156863%,46.666667%,70.588237%);stroke-opacity:1;stroke-miterlimit:4;" d="M 66.102539 7.201172 L 65.009766 10.68457 L 64.045898 14.167969 L 63.981445 14.4375 L 63.225586 17.654297 L 62.53418 21.137695 L 61.96875 24.624023 L 61.526367 28.107422 L 61.212891 31.59375 L 61.025391 35.077148 L 60.960938 38.560547 L 61.025391 42.046875 L 61.212891 45.530273 L 61.526367 49.016602 L 61.96875 52.5 L 62.53418 55.983398 L 63.225586 59.469727 L 63.981445 62.686523 L 64.045898 62.953125 L 65.009766 66.439453 L 66.102539 69.922852 L 67.03418 72.583008 L 67.327148 73.40625 L 68.707031 76.892578 L 70.083984 80.074219 L 70.21875 80.375977 L 71.894531 83.862305 L 73.136719 86.25 L 73.719727 87.345703 L 75.706055 90.832031 L 76.186523 91.617188 L 77.871094 94.31543 L 79.239258 96.375 L 80.208984 97.798828 L 82.291992 100.6875 L 82.731445 101.285156 L 85.341797 104.62793 L 85.456055 104.768555 L 88.394531 108.254883 L 91.444336 111.612305 L 91.564453 111.738281 L 94.49707 114.738281 L 94.986328 115.22168 L 97.549805 117.662109 L 98.677734 118.708008 L 100.599609 120.413086 L 102.662109 122.191406 L 103.652344 123.008789 L 106.702148 125.463867 L 106.977539 125.677734 L 109.754883 127.760742 L 111.679688 129.161133 L 112.807617 129.949219 L 115.857422 132.020508 L 116.80957 132.647461 L 118.910156 133.977539 L 121.959961 135.84668 L 122.443359 136.130859 L 125.012695 137.598633 L 128.06543 139.280273 L 128.698242 139.614258 L 131.115234 140.856445 L 134.167969 142.362305 L 135.723633 143.100586 " transform="matrix(1.333333,0,0,1.333333,0,0)"/>
</g>
<g clip-path="url(#clip4)" clip-rule="nonzero">
<path style="fill:none;stroke-width:1.5;stroke-linecap:butt;stroke-linejoin:round;stroke:rgb(12.156863%,46.666667%,70.588237%);stroke-opacity:1;stroke-miterlimit:4;" d="M 42.621094 71.115234 L 43.321289 73.40625 L 44.496094 76.892578 L 45.670898 80.074219 L 45.785156 80.375977 L 47.211914 83.862305 L 48.723633 87.28125 L 48.75293 87.345703 L 50.4375 90.832031 L 51.776367 93.416016 L 52.248047 94.31543 L 54.205078 97.798828 L 54.826172 98.844727 L 56.305664 101.285156 L 57.878906 103.734375 L 58.555664 104.768555 L 60.928711 108.208008 L 60.960938 108.254883 L 63.541992 111.738281 L 63.981445 112.306641 L 66.292969 115.22168 L 67.03418 116.112305 L 69.231445 118.708008 L 70.083984 119.671875 L 72.363281 122.191406 L 73.136719 123.008789 L 75.706055 125.677734 L 76.186523 126.155273 L 79.239258 129.125977 L 79.274414 129.161133 L 82.291992 131.923828 L 83.100586 132.647461 L 85.341797 134.578125 L 87.1875 136.130859 L 88.394531 137.109375 L 91.444336 139.523438 L 91.564453 139.614258 L 94.49707 141.799805 L 96.287109 143.100586 " transform="matrix(1.333333,0,0,1.333333,0,0)"/>
</g>
<g clip-path="url(#clip5)" clip-rule="nonzero">
<path style="fill:none;stroke-width:1.5;stroke-linecap:butt;stroke-linejoin:round;stroke:rgb(12.156863%,46.666667%,70.588237%);stroke-opacity:1;stroke-miterlimit:4;" d="M 42.621094 115.494141 L 44.944336 118.708008 L 45.670898 119.671875 L 47.610352 122.191406 L 48.723633 123.580078 L 50.4375 125.677734 L 51.776367 127.248047 L 53.43457 129.161133 L 54.826172 130.708008 L 56.610352 132.647461 L 57.878906 133.977539 L 59.973633 136.130859 L 60.928711 137.077148 L 63.541992 139.614258 L 63.981445 140.030273 L 67.03418 142.833984 L 67.327148 143.100586 " transform="matrix(1.333333,0,0,1.333333,0,0)"/>
</g>
<g clip-path="url(#clip6)" clip-rule="nonzero">
<path style="fill:none;stroke-width:1.5;stroke-linecap:butt;stroke-linejoin:round;stroke:rgb(12.156863%,46.666667%,70.588237%);stroke-opacity:1;stroke-miterlimit:4;" d="M 42.621094 142.362305 L 43.321289 143.100586 " transform="matrix(1.333333,0,0,1.333333,0,0)"/>
</g>
<path style="fill:none;stroke-width:0.8;stroke-linecap:square;stroke-linejoin:miter;stroke:rgb(0%,0%,0%);stroke-opacity:1;stroke-miterlimit:4;" d="M 42.621094 143.100586 L 42.621094 7.201172 " transform="matrix(1.333333,0,0,1.333333,0,0)"/>
<path style="fill:none;stroke-width:0.8;stroke-linecap:square;stroke-linejoin:miter;stroke:rgb(0%,0%,0%);stroke-opacity:1;stroke-miterlimit:4;" d="M 237.919922 143.100586 L 237.919922 7.201172 " transform="matrix(1.333333,0,0,1.333333,0,0)"/>
<path style="fill:none;stroke-width:0.8;stroke-linecap:square;stroke-linejoin:miter;stroke:rgb(0%,0%,0%);stroke-opacity:1;stroke-miterlimit:4;" d="M 42.621094 143.100586 L 237.919922 143.100586 " transform="matrix(1.333333,0,0,1.333333,0,0)"/>
<path style="fill:none;stroke-width:0.8;stroke-linecap:square;stroke-linejoin:miter;stroke:rgb(0%,0%,0%);stroke-opacity:1;stroke-miterlimit:4;" d="M 42.621094 7.201172 L 237.919922 7.201172 " transform="matrix(1.333333,0,0,1.333333,0,0)"/>
</g>
</svg>
