<?xml version="1.0" encoding="UTF-8"?>
<svg xmlns="http://www.w3.org/2000/svg" xmlns:xlink="http://www.w3.org/1999/xlink" width="330.637492" height="240.875" viewBox="0 0 330.637492 240.875" version="1.1">
<defs>
<clipPath id="clip1">
  <path d="M 71 9.601562 L 74 9.601562 L 74 190.800781 L 71 190.800781 Z M 71 9.601562 "/>
</clipPath>
<clipPath id="clip2">
  <path d="M 124 9.601562 L 127 9.601562 L 127 190.800781 L 124 190.800781 Z M 124 9.601562 "/>
</clipPath>
<clipPath id="clip3">
  <path d="M 177 9.601562 L 180 9.601562 L 180 190.800781 L 177 190.800781 Z M 177 9.601562 "/>
</clipPath>
<clipPath id="clip4">
  <path d="M 230 9.601562 L 232 9.601562 L 232 190.800781 L 230 190.800781 Z M 230 9.601562 "/>
</clipPath>
<clipPath id="clip5">
  <path d="M 283 9.601562 L 285 9.601562 L 285 190.800781 L 283 190.800781 Z M 283 9.601562 "/>
</clipPath>
<clipPath id="clip6">
  <path d="M 60.636719 181 L 321.039062 181 L 321.039062 184 L 60.636719 184 Z M 60.636719 181 "/>
</clipPath>
<clipPath id="clip7">
  <path d="M 60.636719 132 L 321.039062 132 L 321.039062 135 L 60.636719 135 Z M 60.636719 132 "/>
</clipPath>
<clipPath id="clip8">
  <path d="M 60.636719 83 L 321.039062 83 L 321.039062 86 L 60.636719 86 Z M 60.636719 83 "/>
</clipPath>
<clipPath id="clip9">
  <path d="M 60.636719 34 L 321.039062 34 L 321.039062 36 L 60.636719 36 Z M 60.636719 34 "/>
</clipPath>
<clipPath id="clip10">
  <path d="M 60.636719 28 L 268 28 L 268 184 L 60.636719 184 Z M 60.636719 28 "/>
</clipPath>
<clipPath id="clip11">
  <path d="M 60.636719 72 L 302 72 L 302 184 L 60.636719 184 Z M 60.636719 72 "/>
</clipPath>
<clipPath id="clip12">
  <path d="M 60.636719 109 L 311 109 L 311 184 L 60.636719 184 Z M 60.636719 109 "/>
</clipPath>
<filter id="alpha" filterUnits="objectBoundingBox" x="0%" y="0%" width="100%" height="100%">
  <feColorMatrix type="matrix" in="SourceGraphic" values="0 0 0 0 1 0 0 0 0 1 0 0 0 0 1 0 0 0 1 0"/>
</filter>
<mask id="mask0">
  <g filter="url(#alpha)">
<rect x="0" y="0" width="330.637492" height="240.875" style="fill:rgb(0%,0%,0%);fill-opacity:0.8;stroke:none;"/>
  </g>
</mask>
<clipPath id="clip13">
  <rect x="0" y="0" width="331" height="241"/>
</clipPath>
<g id="surface5" clip-path="url(#clip13)">
<path style="fill-rule:nonzero;fill:rgb(100%,100%,100%);fill-opacity:1;stroke-width:1;stroke-linecap:butt;stroke-linejoin:miter;stroke:rgb(80.000001%,80.000001%,80.000001%);stroke-opacity:1;stroke-miterlimit:4;" d="M 159.996094 59.235352 L 233.777344 59.235352 C 235.110352 59.235352 235.77832 58.567383 235.77832 57.234375 L 235.77832 14.200195 C 235.77832 12.867188 235.110352 12.199219 233.777344 12.199219 L 159.996094 12.199219 C 158.663086 12.199219 157.998047 12.867188 157.998047 14.200195 L 157.998047 57.234375 C 157.998047 58.567383 158.663086 59.235352 159.996094 59.235352 Z M 159.996094 59.235352 " transform="matrix(1.333333,0,0,1.333333,0.000000000000028422,0)"/>
</g>
</defs>
<g id="surface1">
<path style=" stroke:none;fill-rule:nonzero;fill:rgb(100%,100%,100%);fill-opacity:1;" d="M 60.636719 190.800781 L 321.039062 190.800781 L 321.039062 9.601562 L 60.636719 9.601562 Z M 60.636719 190.800781 "/>
<g clip-path="url(#clip1)" clip-rule="nonzero">
<path style="fill:none;stroke-width:0.8;stroke-linecap:square;stroke-linejoin:round;stroke:rgb(69.01961%,69.01961%,69.01961%);stroke-opacity:1;stroke-miterlimit:4;" d="M 54.354492 143.100586 L 54.354492 7.201172 " transform="matrix(1.333333,0,0,1.333333,0.000000000000028422,0)"/>
</g>
<path style="fill:none;stroke-width:0.8;stroke-linecap:butt;stroke-linejoin:round;stroke:rgb(0%,0%,0%);stroke-opacity:1;stroke-miterlimit:4;" d="M -0.000904083 0.000579834 L -0.000904083 3.498627 " transform="matrix(1.333333,0,0,1.333333,72.473862,190.800008)"/>
<path style=" stroke:none;fill-rule:nonzero;fill:rgb(0%,0%,0%);fill-opacity:1;" d="M 62.394531 209.054688 L 64.542969 209.054688 L 64.542969 201.640625 L 62.207031 202.109375 L 62.207031 200.910156 L 64.53125 200.441406 L 65.84375 200.441406 L 65.84375 209.054688 L 67.992188 209.054688 L 67.992188 210.164062 L 62.394531 210.164062 Z M 62.394531 209.054688 "/>
<path style=" stroke:none;fill-rule:nonzero;fill:rgb(0%,0%,0%);fill-opacity:1;" d="M 73.460938 201.308594 C 72.785156 201.308594 72.277344 201.640625 71.933594 202.308594 C 71.59375 202.972656 71.421875 203.976562 71.421875 205.3125 C 71.421875 206.644531 71.59375 207.644531 71.933594 208.308594 C 72.277344 208.976562 72.785156 209.308594 73.460938 209.308594 C 74.144531 209.308594 74.652344 208.976562 74.996094 208.308594 C 75.335938 207.644531 75.507812 206.644531 75.507812 205.3125 C 75.507812 203.976562 75.335938 202.972656 74.996094 202.308594 C 74.652344 201.640625 74.144531 201.308594 73.460938 201.308594 Z M 73.460938 200.265625 C 74.550781 200.265625 75.382812 200.699219 75.960938 201.558594 C 76.535156 202.421875 76.820312 203.671875 76.820312 205.3125 C 76.820312 206.949219 76.535156 208.199219 75.960938 209.058594 C 75.382812 209.921875 74.550781 210.351562 73.460938 210.351562 C 72.371094 210.351562 71.539062 209.921875 70.964844 209.058594 C 70.390625 208.199219 70.101562 206.949219 70.101562 205.3125 C 70.101562 203.671875 70.390625 202.421875 70.964844 201.558594 C 71.539062 200.699219 72.371094 200.265625 73.460938 200.265625 Z M 73.460938 200.265625 "/>
<path style=" stroke:none;fill-rule:nonzero;fill:rgb(0%,0%,0%);fill-opacity:1;" d="M 80.800781 198.859375 C 80.328125 198.859375 79.972656 199.09375 79.730469 199.558594 C 79.492188 200.027344 79.375 200.726562 79.375 201.664062 C 79.375 202.59375 79.492188 203.296875 79.730469 203.761719 C 79.972656 204.230469 80.328125 204.460938 80.800781 204.460938 C 81.277344 204.460938 81.636719 204.230469 81.875 203.761719 C 82.113281 203.296875 82.234375 202.59375 82.234375 201.664062 C 82.234375 200.726562 82.113281 200.027344 81.875 199.558594 C 81.636719 199.09375 81.277344 198.859375 80.800781 198.859375 Z M 80.800781 198.132812 C 81.5625 198.132812 82.148438 198.433594 82.550781 199.035156 C 82.953125 199.640625 83.152344 200.515625 83.152344 201.664062 C 83.152344 202.808594 82.953125 203.683594 82.550781 204.285156 C 82.148438 204.890625 81.5625 205.191406 80.800781 205.191406 C 80.039062 205.191406 79.457031 204.890625 79.054688 204.285156 C 78.652344 203.683594 78.449219 202.808594 78.449219 201.664062 C 78.449219 200.515625 78.652344 199.640625 79.054688 199.035156 C 79.457031 198.433594 80.039062 198.132812 80.800781 198.132812 Z M 80.800781 198.132812 "/>
<g clip-path="url(#clip2)" clip-rule="nonzero">
<path style="fill:none;stroke-width:0.8;stroke-linecap:square;stroke-linejoin:round;stroke:rgb(69.01961%,69.01961%,69.01961%);stroke-opacity:1;stroke-miterlimit:4;" d="M 94.02832 143.100586 L 94.02832 7.201172 " transform="matrix(1.333333,0,0,1.333333,0.000000000000028422,0)"/>
</g>
<path style="fill:none;stroke-width:0.8;stroke-linecap:butt;stroke-linejoin:round;stroke:rgb(0%,0%,0%);stroke-opacity:1;stroke-miterlimit:4;" d="M 0.00146484 0.000579834 L 0.00146484 3.498627 " transform="matrix(1.333333,0,0,1.333333,125.369141,190.800008)"/>
<path style=" stroke:none;fill-rule:nonzero;fill:rgb(0%,0%,0%);fill-opacity:1;" d="M 115.289062 209.066406 L 117.4375 209.066406 L 117.4375 201.652344 L 115.101562 202.121094 L 115.101562 200.921875 L 117.425781 200.453125 L 118.738281 200.453125 L 118.738281 209.066406 L 120.886719 209.066406 L 120.886719 210.171875 L 115.289062 210.171875 Z M 115.289062 209.066406 "/>
<path style=" stroke:none;fill-rule:nonzero;fill:rgb(0%,0%,0%);fill-opacity:1;" d="M 126.355469 201.320312 C 125.679688 201.320312 125.171875 201.652344 124.828125 202.320312 C 124.488281 202.984375 124.320312 203.984375 124.320312 205.324219 C 124.320312 206.65625 124.488281 207.65625 124.828125 208.320312 C 125.171875 208.988281 125.679688 209.320312 126.355469 209.320312 C 127.039062 209.320312 127.550781 208.988281 127.890625 208.320312 C 128.230469 207.65625 128.402344 206.65625 128.402344 205.324219 C 128.402344 203.984375 128.230469 202.984375 127.890625 202.320312 C 127.550781 201.652344 127.039062 201.320312 126.355469 201.320312 Z M 126.355469 200.277344 C 127.445312 200.277344 128.28125 200.707031 128.855469 201.570312 C 129.429688 202.433594 129.71875 203.683594 129.71875 205.324219 C 129.71875 206.960938 129.429688 208.207031 128.855469 209.070312 C 128.28125 209.933594 127.445312 210.363281 126.355469 210.363281 C 125.265625 210.363281 124.4375 209.933594 123.859375 209.070312 C 123.285156 208.207031 123 206.960938 123 205.324219 C 123 203.683594 123.285156 202.433594 123.859375 201.570312 C 124.4375 200.707031 125.265625 200.277344 126.355469 200.277344 Z M 126.355469 200.277344 "/>
<path style=" stroke:none;fill-rule:nonzero;fill:rgb(0%,0%,0%);fill-opacity:1;" d="M 131.886719 204.292969 L 133.390625 204.292969 L 133.390625 199.101562 L 131.753906 199.429688 L 131.753906 198.59375 L 133.382812 198.265625 L 134.300781 198.265625 L 134.300781 204.292969 L 135.804688 204.292969 L 135.804688 205.070312 L 131.886719 205.070312 Z M 131.886719 204.292969 "/>
<g clip-path="url(#clip3)" clip-rule="nonzero">
<path style="fill:none;stroke-width:0.8;stroke-linecap:square;stroke-linejoin:round;stroke:rgb(69.01961%,69.01961%,69.01961%);stroke-opacity:1;stroke-miterlimit:4;" d="M 133.699219 143.100586 L 133.699219 7.201172 " transform="matrix(1.333333,0,0,1.333333,0.000000000000028422,0)"/>
</g>
<path style="fill:none;stroke-width:0.8;stroke-linecap:butt;stroke-linejoin:round;stroke:rgb(0%,0%,0%);stroke-opacity:1;stroke-miterlimit:4;" d="M 0.000900269 0.000579834 L 0.000900269 3.498627 " transform="matrix(1.333333,0,0,1.333333,178.264425,190.800008)"/>
<path style=" stroke:none;fill-rule:nonzero;fill:rgb(0%,0%,0%);fill-opacity:1;" d="M 168.183594 209.054688 L 170.332031 209.054688 L 170.332031 201.640625 L 167.996094 202.109375 L 167.996094 200.910156 L 170.320312 200.441406 L 171.636719 200.441406 L 171.636719 209.054688 L 173.78125 209.054688 L 173.78125 210.164062 L 168.183594 210.164062 Z M 168.183594 209.054688 "/>
<path style=" stroke:none;fill-rule:nonzero;fill:rgb(0%,0%,0%);fill-opacity:1;" d="M 179.25 201.308594 C 178.574219 201.308594 178.066406 201.640625 177.722656 202.308594 C 177.382812 202.972656 177.214844 203.976562 177.214844 205.3125 C 177.214844 206.644531 177.382812 207.644531 177.722656 208.308594 C 178.066406 208.976562 178.574219 209.308594 179.25 209.308594 C 179.933594 209.308594 180.445312 208.976562 180.785156 208.308594 C 181.125 207.644531 181.296875 206.644531 181.296875 205.3125 C 181.296875 203.976562 181.125 202.972656 180.785156 202.308594 C 180.445312 201.640625 179.933594 201.308594 179.25 201.308594 Z M 179.25 200.265625 C 180.34375 200.265625 181.175781 200.699219 181.75 201.558594 C 182.324219 202.421875 182.613281 203.671875 182.613281 205.3125 C 182.613281 206.949219 182.324219 208.199219 181.75 209.058594 C 181.175781 209.921875 180.34375 210.351562 179.25 210.351562 C 178.164062 210.351562 177.332031 209.921875 176.753906 209.058594 C 176.179688 208.199219 175.894531 206.949219 175.894531 205.3125 C 175.894531 203.671875 176.179688 202.421875 176.753906 201.558594 C 177.332031 200.699219 178.164062 200.265625 179.25 200.265625 Z M 179.25 200.265625 "/>
<path style=" stroke:none;fill-rule:nonzero;fill:rgb(0%,0%,0%);fill-opacity:1;" d="M 185.414062 204.285156 L 188.628906 204.285156 L 188.628906 205.058594 L 184.308594 205.058594 L 184.308594 204.285156 C 184.65625 203.921875 185.132812 203.4375 185.738281 202.828125 C 186.339844 202.21875 186.71875 201.824219 186.875 201.648438 C 187.167969 201.316406 187.375 201.039062 187.492188 200.808594 C 187.609375 200.578125 187.667969 200.355469 187.667969 200.132812 C 187.667969 199.769531 187.539062 199.476562 187.285156 199.25 C 187.03125 199.019531 186.703125 198.90625 186.296875 198.90625 C 186.007812 198.90625 185.703125 198.957031 185.378906 199.054688 C 185.0625 199.15625 184.71875 199.308594 184.355469 199.511719 L 184.355469 198.582031 C 184.722656 198.433594 185.070312 198.320312 185.390625 198.246094 C 185.714844 198.167969 186.011719 198.132812 186.277344 198.132812 C 186.980469 198.132812 187.542969 198.308594 187.964844 198.660156 C 188.382812 199.011719 188.59375 199.484375 188.59375 200.074219 C 188.59375 200.351562 188.539062 200.617188 188.433594 200.867188 C 188.332031 201.117188 188.140625 201.414062 187.863281 201.753906 C 187.785156 201.84375 187.546875 202.097656 187.136719 202.519531 C 186.730469 202.9375 186.15625 203.527344 185.414062 204.285156 Z M 185.414062 204.285156 "/>
<g clip-path="url(#clip4)" clip-rule="nonzero">
<path style="fill:none;stroke-width:0.8;stroke-linecap:square;stroke-linejoin:round;stroke:rgb(69.01961%,69.01961%,69.01961%);stroke-opacity:1;stroke-miterlimit:4;" d="M 173.370117 143.100586 L 173.370117 7.201172 " transform="matrix(1.333333,0,0,1.333333,0.000000000000028422,0)"/>
</g>
<path style="fill:none;stroke-width:0.8;stroke-linecap:butt;stroke-linejoin:round;stroke:rgb(0%,0%,0%);stroke-opacity:1;stroke-miterlimit:4;" d="M 0.000335693 0.000579834 L 0.000335693 3.498627 " transform="matrix(1.333333,0,0,1.333333,231.159709,190.800008)"/>
<path style=" stroke:none;fill-rule:nonzero;fill:rgb(0%,0%,0%);fill-opacity:1;" d="M 221.082031 209.054688 L 223.226562 209.054688 L 223.226562 201.640625 L 220.890625 202.109375 L 220.890625 200.910156 L 223.214844 200.441406 L 224.53125 200.441406 L 224.53125 209.054688 L 226.679688 209.054688 L 226.679688 210.164062 L 221.082031 210.164062 Z M 221.082031 209.054688 "/>
<path style=" stroke:none;fill-rule:nonzero;fill:rgb(0%,0%,0%);fill-opacity:1;" d="M 232.148438 201.308594 C 231.46875 201.308594 230.960938 201.640625 230.621094 202.308594 C 230.28125 202.972656 230.109375 203.976562 230.109375 205.3125 C 230.109375 206.644531 230.28125 207.644531 230.621094 208.308594 C 230.960938 208.976562 231.46875 209.308594 232.148438 209.308594 C 232.828125 209.308594 233.339844 208.976562 233.679688 208.308594 C 234.023438 207.644531 234.191406 206.644531 234.191406 205.3125 C 234.191406 203.976562 234.023438 202.972656 233.679688 202.308594 C 233.339844 201.640625 232.828125 201.308594 232.148438 201.308594 Z M 232.148438 200.265625 C 233.238281 200.265625 234.070312 200.699219 234.644531 201.558594 C 235.21875 202.421875 235.507812 203.671875 235.507812 205.3125 C 235.507812 206.949219 235.21875 208.199219 234.644531 209.058594 C 234.070312 209.921875 233.238281 210.351562 232.148438 210.351562 C 231.058594 210.351562 230.226562 209.921875 229.652344 209.058594 C 229.074219 208.199219 228.789062 206.949219 228.789062 205.3125 C 228.789062 203.671875 229.074219 202.421875 229.652344 201.558594 C 230.226562 200.699219 231.058594 200.265625 232.148438 200.265625 Z M 232.148438 200.265625 "/>
<path style=" stroke:none;fill-rule:nonzero;fill:rgb(0%,0%,0%);fill-opacity:1;" d="M 240.308594 201.390625 C 240.746094 201.484375 241.089844 201.679688 241.339844 201.976562 C 241.585938 202.277344 241.710938 202.644531 241.710938 203.082031 C 241.710938 203.75 241.480469 204.269531 241.019531 204.640625 C 240.554688 205.007812 239.898438 205.191406 239.050781 205.191406 C 238.765625 205.191406 238.46875 205.164062 238.167969 205.105469 C 237.867188 205.050781 237.554688 204.964844 237.230469 204.851562 L 237.230469 203.964844 C 237.488281 204.113281 237.765625 204.226562 238.070312 204.300781 C 238.375 204.378906 238.691406 204.414062 239.023438 204.414062 C 239.597656 204.414062 240.039062 204.300781 240.339844 204.074219 C 240.644531 203.847656 240.792969 203.515625 240.792969 203.082031 C 240.792969 202.679688 240.652344 202.367188 240.371094 202.140625 C 240.09375 201.914062 239.703125 201.800781 239.199219 201.800781 L 238.40625 201.800781 L 238.40625 201.042969 L 239.238281 201.042969 C 239.6875 201.042969 240.035156 200.953125 240.273438 200.773438 C 240.515625 200.589844 240.636719 200.332031 240.636719 199.992188 C 240.636719 199.640625 240.511719 199.375 240.261719 199.1875 C 240.015625 199 239.664062 198.90625 239.199219 198.90625 C 238.949219 198.90625 238.675781 198.933594 238.386719 198.988281 C 238.097656 199.042969 237.78125 199.128906 237.4375 199.242188 L 237.4375 198.421875 C 237.785156 198.324219 238.113281 198.253906 238.417969 198.203125 C 238.722656 198.15625 239.011719 198.132812 239.28125 198.132812 C 239.980469 198.132812 240.535156 198.289062 240.941406 198.609375 C 241.347656 198.925781 241.550781 199.355469 241.550781 199.894531 C 241.550781 200.273438 241.445312 200.589844 241.226562 200.847656 C 241.011719 201.109375 240.703125 201.289062 240.308594 201.390625 Z M 240.308594 201.390625 "/>
<g clip-path="url(#clip5)" clip-rule="nonzero">
<path style="fill:none;stroke-width:0.8;stroke-linecap:square;stroke-linejoin:round;stroke:rgb(69.01961%,69.01961%,69.01961%);stroke-opacity:1;stroke-miterlimit:4;" d="M 213.041016 143.100586 L 213.041016 7.201172 " transform="matrix(1.333333,0,0,1.333333,0.000000000000028422,0)"/>
</g>
<path style="fill:none;stroke-width:0.8;stroke-linecap:butt;stroke-linejoin:round;stroke:rgb(0%,0%,0%);stroke-opacity:1;stroke-miterlimit:4;" d="M -0.000213623 0.000579834 L -0.000213623 3.498627 " transform="matrix(1.333333,0,0,1.333333,284.054972,190.800008)"/>
<path style=" stroke:none;fill-rule:nonzero;fill:rgb(0%,0%,0%);fill-opacity:1;" d="M 273.976562 209.066406 L 276.125 209.066406 L 276.125 201.652344 L 273.785156 202.121094 L 273.785156 200.921875 L 276.109375 200.453125 L 277.425781 200.453125 L 277.425781 209.066406 L 279.574219 209.066406 L 279.574219 210.171875 L 273.976562 210.171875 Z M 273.976562 209.066406 "/>
<path style=" stroke:none;fill-rule:nonzero;fill:rgb(0%,0%,0%);fill-opacity:1;" d="M 285.042969 201.320312 C 284.367188 201.320312 283.855469 201.652344 283.515625 202.320312 C 283.175781 202.984375 283.003906 203.984375 283.003906 205.324219 C 283.003906 206.65625 283.175781 207.65625 283.515625 208.320312 C 283.855469 208.988281 284.367188 209.320312 285.042969 209.320312 C 285.722656 209.320312 286.234375 208.988281 286.574219 208.320312 C 286.917969 207.65625 287.089844 206.65625 287.089844 205.324219 C 287.089844 203.984375 286.917969 202.984375 286.574219 202.320312 C 286.234375 201.652344 285.722656 201.320312 285.042969 201.320312 Z M 285.042969 200.277344 C 286.132812 200.277344 286.964844 200.707031 287.539062 201.570312 C 288.113281 202.433594 288.402344 203.683594 288.402344 205.324219 C 288.402344 206.960938 288.113281 208.207031 287.539062 209.070312 C 286.964844 209.933594 286.132812 210.363281 285.042969 210.363281 C 283.953125 210.363281 283.121094 209.933594 282.546875 209.070312 C 281.972656 208.207031 281.683594 206.960938 281.683594 205.324219 C 281.683594 203.683594 281.972656 202.433594 282.546875 201.570312 C 283.121094 200.707031 283.953125 200.277344 285.042969 200.277344 Z M 285.042969 200.277344 "/>
<path style=" stroke:none;fill-rule:nonzero;fill:rgb(0%,0%,0%);fill-opacity:1;" d="M 292.941406 199.066406 L 290.617188 202.699219 L 292.941406 202.699219 Z M 292.699219 198.265625 L 293.859375 198.265625 L 293.859375 202.699219 L 294.832031 202.699219 L 294.832031 203.464844 L 293.859375 203.464844 L 293.859375 205.070312 L 292.941406 205.070312 L 292.941406 203.464844 L 289.871094 203.464844 L 289.871094 202.578125 Z M 292.699219 198.265625 "/>
<path style="fill:none;stroke-width:0.6;stroke-linecap:butt;stroke-linejoin:round;stroke:rgb(0%,0%,0%);stroke-opacity:1;stroke-miterlimit:4;" d="M -0.000621796 0.000579834 L -0.000621796 1.998627 " transform="matrix(1.333333,0,0,1.333333,60.73911,190.800008)"/>
<path style="fill:none;stroke-width:0.6;stroke-linecap:butt;stroke-linejoin:round;stroke:rgb(0%,0%,0%);stroke-opacity:1;stroke-miterlimit:4;" d="M 0.000724792 0.000579834 L 0.000724792 1.998627 " transform="matrix(1.333333,0,0,1.333333,64.280284,190.800008)"/>
<path style="fill:none;stroke-width:0.6;stroke-linecap:butt;stroke-linejoin:round;stroke:rgb(0%,0%,0%);stroke-opacity:1;stroke-miterlimit:4;" d="M -0.0000953674 0.000579834 L -0.0000953674 1.998627 " transform="matrix(1.333333,0,0,1.333333,67.347783,190.800008)"/>
<path style="fill:none;stroke-width:0.6;stroke-linecap:butt;stroke-linejoin:round;stroke:rgb(0%,0%,0%);stroke-opacity:1;stroke-miterlimit:4;" d="M 0.00088501 0.000579834 L 0.00088501 1.998627 " transform="matrix(1.333333,0,0,1.333333,70.053507,190.800008)"/>
<path style="fill:none;stroke-width:0.6;stroke-linecap:butt;stroke-linejoin:round;stroke:rgb(0%,0%,0%);stroke-opacity:1;stroke-miterlimit:4;" d="M 0.00112915 0.000579834 L 0.00112915 1.998627 " transform="matrix(1.333333,0,0,1.333333,88.396932,190.800008)"/>
<path style="fill:none;stroke-width:0.6;stroke-linecap:butt;stroke-linejoin:round;stroke:rgb(0%,0%,0%);stroke-opacity:1;stroke-miterlimit:4;" d="M -0.000289917 0.000579834 L -0.000289917 1.998627 " transform="matrix(1.333333,0,0,1.333333,97.711324,190.800008)"/>
<path style="fill:none;stroke-width:0.6;stroke-linecap:butt;stroke-linejoin:round;stroke:rgb(0%,0%,0%);stroke-opacity:1;stroke-miterlimit:4;" d="M 0.000236511 0.000579834 L 0.000236511 1.998627 " transform="matrix(1.333333,0,0,1.333333,104.319997,190.800008)"/>
<path style="fill:none;stroke-width:0.6;stroke-linecap:butt;stroke-linejoin:round;stroke:rgb(0%,0%,0%);stroke-opacity:1;stroke-miterlimit:4;" d="M -0.000572205 0.000579834 L -0.000572205 1.998627 " transform="matrix(1.333333,0,0,1.333333,109.446075,190.800008)"/>
<path style="fill:none;stroke-width:0.6;stroke-linecap:butt;stroke-linejoin:round;stroke:rgb(0%,0%,0%);stroke-opacity:1;stroke-miterlimit:4;" d="M -0.00118256 0.000579834 L -0.00118256 1.998627 " transform="matrix(1.333333,0,0,1.333333,113.634389,190.800008)"/>
<path style="fill:none;stroke-width:0.6;stroke-linecap:butt;stroke-linejoin:round;stroke:rgb(0%,0%,0%);stroke-opacity:1;stroke-miterlimit:4;" d="M 0.000167847 0.000579834 L 0.000167847 1.998627 " transform="matrix(1.333333,0,0,1.333333,117.175557,190.800008)"/>
<path style="fill:none;stroke-width:0.6;stroke-linecap:butt;stroke-linejoin:round;stroke:rgb(0%,0%,0%);stroke-opacity:1;stroke-miterlimit:4;" d="M -0.000656128 0.000579834 L -0.000656128 1.998627 " transform="matrix(1.333333,0,0,1.333333,120.243062,190.800008)"/>
<path style="fill:none;stroke-width:0.6;stroke-linecap:butt;stroke-linejoin:round;stroke:rgb(0%,0%,0%);stroke-opacity:1;stroke-miterlimit:4;" d="M 0.000320435 0.000579834 L 0.000320435 1.998627 " transform="matrix(1.333333,0,0,1.333333,122.948792,190.800008)"/>
<path style="fill:none;stroke-width:0.6;stroke-linecap:butt;stroke-linejoin:round;stroke:rgb(0%,0%,0%);stroke-opacity:1;stroke-miterlimit:4;" d="M 0.000572205 0.000579834 L 0.000572205 1.998627 " transform="matrix(1.333333,0,0,1.333333,141.292206,190.800008)"/>
<path style="fill:none;stroke-width:0.6;stroke-linecap:butt;stroke-linejoin:round;stroke:rgb(0%,0%,0%);stroke-opacity:1;stroke-miterlimit:4;" d="M -0.000854492 0.000579834 L -0.000854492 1.998627 " transform="matrix(1.333333,0,0,1.333333,150.606608,190.800008)"/>
<path style="fill:none;stroke-width:0.6;stroke-linecap:butt;stroke-linejoin:round;stroke:rgb(0%,0%,0%);stroke-opacity:1;stroke-miterlimit:4;" d="M -0.000320435 0.000579834 L -0.000320435 1.998627 " transform="matrix(1.333333,0,0,1.333333,157.215271,190.800008)"/>
<path style="fill:none;stroke-width:0.6;stroke-linecap:butt;stroke-linejoin:round;stroke:rgb(0%,0%,0%);stroke-opacity:1;stroke-miterlimit:4;" d="M -0.00113678 0.000579834 L -0.00113678 1.998627 " transform="matrix(1.333333,0,0,1.333333,162.341359,190.800008)"/>
<path style="fill:none;stroke-width:0.6;stroke-linecap:butt;stroke-linejoin:round;stroke:rgb(0%,0%,0%);stroke-opacity:1;stroke-miterlimit:4;" d="M 0.00118256 0.000579834 L 0.00118256 1.998627 " transform="matrix(1.333333,0,0,1.333333,166.529673,190.800008)"/>
<path style="fill:none;stroke-width:0.6;stroke-linecap:butt;stroke-linejoin:round;stroke:rgb(0%,0%,0%);stroke-opacity:1;stroke-miterlimit:4;" d="M -0.000396729 0.000579834 L -0.000396729 1.998627 " transform="matrix(1.333333,0,0,1.333333,170.070841,190.800008)"/>
<path style="fill:none;stroke-width:0.6;stroke-linecap:butt;stroke-linejoin:round;stroke:rgb(0%,0%,0%);stroke-opacity:1;stroke-miterlimit:4;" d="M -0.0012207 0.000579834 L -0.0012207 1.998627 " transform="matrix(1.333333,0,0,1.333333,173.138346,190.800008)"/>
<path style="fill:none;stroke-width:0.6;stroke-linecap:butt;stroke-linejoin:round;stroke:rgb(0%,0%,0%);stroke-opacity:1;stroke-miterlimit:4;" d="M -0.000228882 0.000579834 L -0.000228882 1.998627 " transform="matrix(1.333333,0,0,1.333333,175.844055,190.800008)"/>
<path style="fill:none;stroke-width:0.6;stroke-linecap:butt;stroke-linejoin:round;stroke:rgb(0%,0%,0%);stroke-opacity:1;stroke-miterlimit:4;" d="M 0.0000152588 0.000579834 L 0.0000152588 1.998627 " transform="matrix(1.333333,0,0,1.333333,194.18748,190.800008)"/>
<path style="fill:none;stroke-width:0.6;stroke-linecap:butt;stroke-linejoin:round;stroke:rgb(0%,0%,0%);stroke-opacity:1;stroke-miterlimit:4;" d="M -0.00141907 0.000579834 L -0.00141907 1.998627 " transform="matrix(1.333333,0,0,1.333333,203.501892,190.800008)"/>
<path style="fill:none;stroke-width:0.6;stroke-linecap:butt;stroke-linejoin:round;stroke:rgb(0%,0%,0%);stroke-opacity:1;stroke-miterlimit:4;" d="M -0.00088501 0.000579834 L -0.00088501 1.998627 " transform="matrix(1.333333,0,0,1.333333,210.110555,190.800008)"/>
<path style="fill:none;stroke-width:0.6;stroke-linecap:butt;stroke-linejoin:round;stroke:rgb(0%,0%,0%);stroke-opacity:1;stroke-miterlimit:4;" d="M 0.00123596 0.000579834 L 0.00123596 1.998627 " transform="matrix(1.333333,0,0,1.333333,215.236633,190.800008)"/>
<path style="fill:none;stroke-width:0.6;stroke-linecap:butt;stroke-linejoin:round;stroke:rgb(0%,0%,0%);stroke-opacity:1;stroke-miterlimit:4;" d="M 0.00062561 0.000579834 L 0.00062561 1.998627 " transform="matrix(1.333333,0,0,1.333333,219.424947,190.800008)"/>
<path style="fill:none;stroke-width:0.6;stroke-linecap:butt;stroke-linejoin:round;stroke:rgb(0%,0%,0%);stroke-opacity:1;stroke-miterlimit:4;" d="M -0.000961304 0.000579834 L -0.000961304 1.998627 " transform="matrix(1.333333,0,0,1.333333,222.966125,190.800008)"/>
<path style="fill:none;stroke-width:0.6;stroke-linecap:butt;stroke-linejoin:round;stroke:rgb(0%,0%,0%);stroke-opacity:1;stroke-miterlimit:4;" d="M 0.00115967 0.000579834 L 0.00115967 1.998627 " transform="matrix(1.333333,0,0,1.333333,226.03361,190.800008)"/>
<path style="fill:none;stroke-width:0.6;stroke-linecap:butt;stroke-linejoin:round;stroke:rgb(0%,0%,0%);stroke-opacity:1;stroke-miterlimit:4;" d="M -0.000793457 0.000579834 L -0.000793457 1.998627 " transform="matrix(1.333333,0,0,1.333333,228.739339,190.800008)"/>
<path style="fill:none;stroke-width:0.6;stroke-linecap:butt;stroke-linejoin:round;stroke:rgb(0%,0%,0%);stroke-opacity:1;stroke-miterlimit:4;" d="M -0.000549316 0.000579834 L -0.000549316 1.998627 " transform="matrix(1.333333,0,0,1.333333,247.082764,190.800008)"/>
<path style="fill:none;stroke-width:0.6;stroke-linecap:butt;stroke-linejoin:round;stroke:rgb(0%,0%,0%);stroke-opacity:1;stroke-miterlimit:4;" d="M 0.000961304 0.000579834 L 0.000961304 1.998627 " transform="matrix(1.333333,0,0,1.333333,256.397156,190.800008)"/>
<path style="fill:none;stroke-width:0.6;stroke-linecap:butt;stroke-linejoin:round;stroke:rgb(0%,0%,0%);stroke-opacity:1;stroke-miterlimit:4;" d="M -0.00144958 0.000579834 L -0.00144958 1.998627 " transform="matrix(1.333333,0,0,1.333333,263.005839,190.800008)"/>
<path style="fill:none;stroke-width:0.6;stroke-linecap:butt;stroke-linejoin:round;stroke:rgb(0%,0%,0%);stroke-opacity:1;stroke-miterlimit:4;" d="M 0.000671387 0.000579834 L 0.000671387 1.998627 " transform="matrix(1.333333,0,0,1.333333,268.131917,190.800008)"/>
<path style="fill:none;stroke-width:0.6;stroke-linecap:butt;stroke-linejoin:round;stroke:rgb(0%,0%,0%);stroke-opacity:1;stroke-miterlimit:4;" d="M 0.0000610352 0.000579834 L 0.0000610352 1.998627 " transform="matrix(1.333333,0,0,1.333333,272.320231,190.800008)"/>
<path style="fill:none;stroke-width:0.6;stroke-linecap:butt;stroke-linejoin:round;stroke:rgb(0%,0%,0%);stroke-opacity:1;stroke-miterlimit:4;" d="M 0.00141907 0.000579834 L 0.00141907 1.998627 " transform="matrix(1.333333,0,0,1.333333,275.861389,190.800008)"/>
<path style="fill:none;stroke-width:0.6;stroke-linecap:butt;stroke-linejoin:round;stroke:rgb(0%,0%,0%);stroke-opacity:1;stroke-miterlimit:4;" d="M 0.000595093 0.000579834 L 0.000595093 1.998627 " transform="matrix(1.333333,0,0,1.333333,278.928894,190.800008)"/>
<path style="fill:none;stroke-width:0.6;stroke-linecap:butt;stroke-linejoin:round;stroke:rgb(0%,0%,0%);stroke-opacity:1;stroke-miterlimit:4;" d="M -0.00135803 0.000579834 L -0.00135803 1.998627 " transform="matrix(1.333333,0,0,1.333333,281.634623,190.800008)"/>
<path style="fill:none;stroke-width:0.6;stroke-linecap:butt;stroke-linejoin:round;stroke:rgb(0%,0%,0%);stroke-opacity:1;stroke-miterlimit:4;" d="M -0.00111389 0.000579834 L -0.00111389 1.998627 " transform="matrix(1.333333,0,0,1.333333,299.978048,190.800008)"/>
<path style="fill:none;stroke-width:0.6;stroke-linecap:butt;stroke-linejoin:round;stroke:rgb(0%,0%,0%);stroke-opacity:1;stroke-miterlimit:4;" d="M 0.000396729 0.000579834 L 0.000396729 1.998627 " transform="matrix(1.333333,0,0,1.333333,309.29244,190.800008)"/>
<path style="fill:none;stroke-width:0.6;stroke-linecap:butt;stroke-linejoin:round;stroke:rgb(0%,0%,0%);stroke-opacity:1;stroke-miterlimit:4;" d="M 0.000930786 0.000579834 L 0.000930786 1.998627 " transform="matrix(1.333333,0,0,1.333333,315.901103,190.800008)"/>
<path style="fill:none;stroke-width:0.6;stroke-linecap:butt;stroke-linejoin:round;stroke:rgb(0%,0%,0%);stroke-opacity:1;stroke-miterlimit:4;" d="M 0.000106812 0.000579834 L 0.000106812 1.998627 " transform="matrix(1.333333,0,0,1.333333,321.027201,190.800008)"/>
<path style=" stroke:none;fill-rule:nonzero;fill:rgb(0%,0%,0%);fill-opacity:1;" d="M 166.332031 219.140625 L 166.332031 221.210938 L 168.796875 221.210938 L 168.796875 222.140625 L 166.332031 222.140625 L 166.332031 226.101562 C 166.332031 226.695312 166.410156 227.078125 166.574219 227.246094 C 166.738281 227.414062 167.066406 227.5 167.566406 227.5 L 168.796875 227.5 L 168.796875 228.503906 L 167.566406 228.503906 C 166.644531 228.503906 166.003906 228.328125 165.652344 227.984375 C 165.300781 227.640625 165.125 227.011719 165.125 226.101562 L 165.125 222.140625 L 164.246094 222.140625 L 164.246094 221.210938 L 165.125 221.210938 L 165.125 219.140625 Z M 166.332031 219.140625 "/>
<path style=" stroke:none;fill-rule:nonzero;fill:rgb(0%,0%,0%);fill-opacity:1;" d="M 173.199219 222.050781 C 172.554688 222.050781 172.046875 222.300781 171.675781 222.800781 C 171.300781 223.304688 171.113281 223.992188 171.113281 224.863281 C 171.113281 225.734375 171.300781 226.421875 171.671875 226.921875 C 172.042969 227.425781 172.550781 227.675781 173.199219 227.675781 C 173.835938 227.675781 174.34375 227.421875 174.714844 226.921875 C 175.089844 226.417969 175.273438 225.730469 175.273438 224.863281 C 175.273438 224 175.089844 223.3125 174.714844 222.808594 C 174.34375 222.304688 173.835938 222.050781 173.199219 222.050781 Z M 173.199219 221.035156 C 174.238281 221.035156 175.058594 221.375 175.652344 222.050781 C 176.246094 222.726562 176.546875 223.664062 176.546875 224.863281 C 176.546875 226.054688 176.246094 226.992188 175.652344 227.671875 C 175.058594 228.351562 174.238281 228.691406 173.199219 228.691406 C 172.152344 228.691406 171.332031 228.351562 170.738281 227.671875 C 170.148438 226.992188 169.851562 226.054688 169.851562 224.863281 C 169.851562 223.664062 170.148438 222.726562 170.738281 222.050781 C 171.332031 221.375 172.152344 221.035156 173.199219 221.035156 Z M 173.199219 221.035156 "/>
<path style=" stroke:none;fill-rule:nonzero;fill:rgb(0%,0%,0%);fill-opacity:1;" d="M 178.484375 218.371094 L 179.6875 218.371094 L 179.6875 224.355469 L 183.261719 221.210938 L 184.792969 221.210938 L 180.925781 224.621094 L 184.957031 228.503906 L 183.394531 228.503906 L 179.6875 224.941406 L 179.6875 228.503906 L 178.484375 228.503906 Z M 178.484375 218.371094 "/>
<path style=" stroke:none;fill-rule:nonzero;fill:rgb(0%,0%,0%);fill-opacity:1;" d="M 192.003906 224.554688 L 192.003906 225.140625 L 186.496094 225.140625 C 186.550781 225.964844 186.796875 226.59375 187.242188 227.027344 C 187.6875 227.460938 188.308594 227.675781 189.101562 227.675781 C 189.5625 227.675781 190.007812 227.617188 190.4375 227.507812 C 190.871094 227.394531 191.300781 227.222656 191.726562 226.996094 L 191.726562 228.132812 C 191.296875 228.3125 190.855469 228.453125 190.402344 228.546875 C 189.953125 228.644531 189.496094 228.691406 189.03125 228.691406 C 187.867188 228.691406 186.945312 228.351562 186.265625 227.675781 C 185.585938 227 185.246094 226.082031 185.246094 224.925781 C 185.246094 223.734375 185.570312 222.789062 186.214844 222.085938 C 186.859375 221.386719 187.726562 221.035156 188.824219 221.035156 C 189.804688 221.035156 190.578125 221.351562 191.148438 221.984375 C 191.71875 222.613281 192.003906 223.472656 192.003906 224.554688 Z M 190.808594 224.203125 C 190.800781 223.550781 190.617188 223.027344 190.257812 222.636719 C 189.898438 222.246094 189.425781 222.050781 188.835938 222.050781 C 188.167969 222.050781 187.632812 222.238281 187.230469 222.617188 C 186.828125 222.996094 186.597656 223.527344 186.535156 224.210938 Z M 190.808594 224.203125 "/>
<path style=" stroke:none;fill-rule:nonzero;fill:rgb(0%,0%,0%);fill-opacity:1;" d="M 200.035156 224.101562 L 200.035156 228.503906 L 198.835938 228.503906 L 198.835938 224.140625 C 198.835938 223.449219 198.703125 222.933594 198.433594 222.589844 C 198.164062 222.25 197.757812 222.078125 197.222656 222.078125 C 196.574219 222.078125 196.0625 222.285156 195.691406 222.695312 C 195.316406 223.105469 195.128906 223.667969 195.128906 224.382812 L 195.128906 228.503906 L 193.925781 228.503906 L 193.925781 221.210938 L 195.128906 221.210938 L 195.128906 222.34375 C 195.417969 221.90625 195.753906 221.578125 196.140625 221.359375 C 196.53125 221.144531 196.980469 221.035156 197.488281 221.035156 C 198.324219 221.035156 198.957031 221.292969 199.386719 221.8125 C 199.820312 222.332031 200.035156 223.09375 200.035156 224.101562 Z M 200.035156 224.101562 "/>
<path style=" stroke:none;fill-rule:nonzero;fill:rgb(0%,0%,0%);fill-opacity:1;" d="M 202.726562 226.847656 L 204.101562 226.847656 L 204.101562 228.503906 L 202.726562 228.503906 Z M 202.726562 221.609375 L 204.101562 221.609375 L 204.101562 223.261719 L 202.726562 223.261719 Z M 202.726562 221.609375 "/>
<path style=" stroke:none;fill-rule:nonzero;fill:rgb(0%,0%,0%);fill-opacity:1;" d="M 217.214844 221.210938 L 214.578125 224.757812 L 217.351562 228.503906 L 215.9375 228.503906 L 213.816406 225.636719 L 211.695312 228.503906 L 210.28125 228.503906 L 213.113281 224.6875 L 210.519531 221.210938 L 211.933594 221.210938 L 213.867188 223.808594 L 215.800781 221.210938 Z M 217.214844 221.210938 "/>
<g clip-path="url(#clip6)" clip-rule="nonzero">
<path style="fill:none;stroke-width:0.8;stroke-linecap:square;stroke-linejoin:round;stroke:rgb(69.01961%,69.01961%,69.01961%);stroke-opacity:1;stroke-miterlimit:4;" d="M 45.477539 136.921875 L 240.779297 136.921875 " transform="matrix(1.333333,0,0,1.333333,0.000000000000028422,0)"/>
</g>
<path style="fill:none;stroke-width:0.8;stroke-linecap:butt;stroke-linejoin:round;stroke:rgb(0%,0%,0%);stroke-opacity:1;stroke-miterlimit:4;" d="M -0.000587463 -0.000854492 L -3.498634 -0.000854492 " transform="matrix(1.333333,0,0,1.333333,60.637502,182.563639)"/>
<path style=" stroke:none;fill-rule:nonzero;fill:rgb(0%,0%,0%);fill-opacity:1;" d="M 29.492188 186.421875 L 31.640625 186.421875 L 31.640625 179.003906 L 29.300781 179.472656 L 29.300781 178.273438 L 31.628906 177.804688 L 32.941406 177.804688 L 32.941406 186.421875 L 35.089844 186.421875 L 35.089844 187.527344 L 29.492188 187.527344 Z M 29.492188 186.421875 "/>
<path style=" stroke:none;fill-rule:nonzero;fill:rgb(0%,0%,0%);fill-opacity:1;" d="M 40.558594 178.671875 C 39.882812 178.671875 39.371094 179.007812 39.03125 179.671875 C 38.691406 180.339844 38.519531 181.339844 38.519531 182.675781 C 38.519531 184.007812 38.691406 185.007812 39.03125 185.675781 C 39.371094 186.339844 39.882812 186.675781 40.558594 186.675781 C 41.238281 186.675781 41.75 186.339844 42.089844 185.675781 C 42.433594 185.007812 42.605469 184.007812 42.605469 182.675781 C 42.605469 181.339844 42.433594 180.339844 42.089844 179.671875 C 41.75 179.007812 41.238281 178.671875 40.558594 178.671875 Z M 40.558594 177.632812 C 41.648438 177.632812 42.480469 178.0625 43.054688 178.925781 C 43.632812 179.785156 43.917969 181.035156 43.917969 182.675781 C 43.917969 184.3125 43.632812 185.5625 43.054688 186.425781 C 42.480469 187.285156 41.648438 187.714844 40.558594 187.714844 C 39.46875 187.714844 38.636719 187.285156 38.0625 186.425781 C 37.488281 185.5625 37.199219 184.3125 37.199219 182.675781 C 37.199219 181.035156 37.488281 179.785156 38.0625 178.925781 C 38.636719 178.0625 39.46875 177.632812 40.558594 177.632812 Z M 40.558594 177.632812 "/>
<path style=" stroke:none;fill-rule:nonzero;fill:rgb(0%,0%,0%);fill-opacity:1;" d="M 47.898438 176.226562 C 47.425781 176.226562 47.066406 176.457031 46.828125 176.925781 C 46.589844 177.390625 46.472656 178.089844 46.472656 179.027344 C 46.472656 179.960938 46.589844 180.660156 46.828125 181.125 C 47.066406 181.59375 47.425781 181.828125 47.898438 181.828125 C 48.375 181.828125 48.734375 181.59375 48.972656 181.125 C 49.210938 180.660156 49.328125 179.960938 49.328125 179.027344 C 49.328125 178.089844 49.210938 177.390625 48.972656 176.925781 C 48.734375 176.457031 48.375 176.226562 47.898438 176.226562 Z M 47.898438 175.496094 C 48.660156 175.496094 49.242188 175.796875 49.644531 176.402344 C 50.046875 177.003906 50.25 177.878906 50.25 179.027344 C 50.25 180.171875 50.046875 181.046875 49.644531 181.652344 C 49.242188 182.253906 48.660156 182.554688 47.898438 182.554688 C 47.136719 182.554688 46.554688 182.253906 46.152344 181.652344 C 45.746094 181.046875 45.546875 180.171875 45.546875 179.027344 C 45.546875 177.878906 45.746094 177.003906 46.152344 176.402344 C 46.554688 175.796875 47.136719 175.496094 47.898438 175.496094 Z M 47.898438 175.496094 "/>
<g clip-path="url(#clip7)" clip-rule="nonzero">
<path style="fill:none;stroke-width:0.8;stroke-linecap:square;stroke-linejoin:round;stroke:rgb(69.01961%,69.01961%,69.01961%);stroke-opacity:1;stroke-miterlimit:4;" d="M 45.477539 100.089844 L 240.779297 100.089844 " transform="matrix(1.333333,0,0,1.333333,0.000000000000028422,0)"/>
</g>
<path style="fill:none;stroke-width:0.8;stroke-linecap:butt;stroke-linejoin:round;stroke:rgb(0%,0%,0%);stroke-opacity:1;stroke-miterlimit:4;" d="M -0.000587463 -0.000923157 L -3.498634 -0.000923157 " transform="matrix(1.333333,0,0,1.333333,60.637502,133.454356)"/>
<path style=" stroke:none;fill-rule:nonzero;fill:rgb(0%,0%,0%);fill-opacity:1;" d="M 29.492188 137.324219 L 31.640625 137.324219 L 31.640625 129.90625 L 29.300781 130.375 L 29.300781 129.175781 L 31.628906 128.707031 L 32.941406 128.707031 L 32.941406 137.324219 L 35.089844 137.324219 L 35.089844 138.429688 L 29.492188 138.429688 Z M 29.492188 137.324219 "/>
<path style=" stroke:none;fill-rule:nonzero;fill:rgb(0%,0%,0%);fill-opacity:1;" d="M 40.558594 129.574219 C 39.882812 129.574219 39.371094 129.90625 39.03125 130.574219 C 38.691406 131.238281 38.519531 132.242188 38.519531 133.578125 C 38.519531 134.910156 38.691406 135.910156 39.03125 136.578125 C 39.371094 137.242188 39.882812 137.578125 40.558594 137.578125 C 41.238281 137.578125 41.75 137.242188 42.089844 136.578125 C 42.433594 135.910156 42.605469 134.910156 42.605469 133.578125 C 42.605469 132.242188 42.433594 131.238281 42.089844 130.574219 C 41.75 129.90625 41.238281 129.574219 40.558594 129.574219 Z M 40.558594 128.53125 C 41.648438 128.53125 42.480469 128.964844 43.054688 129.828125 C 43.632812 130.6875 43.917969 131.9375 43.917969 133.578125 C 43.917969 135.214844 43.632812 136.464844 43.054688 137.328125 C 42.480469 138.1875 41.648438 138.617188 40.558594 138.617188 C 39.46875 138.617188 38.636719 138.1875 38.0625 137.328125 C 37.488281 136.464844 37.199219 135.214844 37.199219 133.578125 C 37.199219 131.9375 37.488281 130.6875 38.0625 129.828125 C 38.636719 128.964844 39.46875 128.53125 40.558594 128.53125 Z M 40.558594 128.53125 "/>
<path style=" stroke:none;fill-rule:nonzero;fill:rgb(0%,0%,0%);fill-opacity:1;" d="M 46.089844 132.550781 L 47.59375 132.550781 L 47.59375 127.359375 L 45.957031 127.6875 L 45.957031 126.847656 L 47.582031 126.519531 L 48.503906 126.519531 L 48.503906 132.550781 L 50.007812 132.550781 L 50.007812 133.324219 L 46.089844 133.324219 Z M 46.089844 132.550781 "/>
<g clip-path="url(#clip8)" clip-rule="nonzero">
<path style="fill:none;stroke-width:0.8;stroke-linecap:square;stroke-linejoin:round;stroke:rgb(69.01961%,69.01961%,69.01961%);stroke-opacity:1;stroke-miterlimit:4;" d="M 45.477539 63.257812 L 240.779297 63.257812 " transform="matrix(1.333333,0,0,1.333333,0.000000000000028422,0)"/>
</g>
<path style="fill:none;stroke-width:0.8;stroke-linecap:butt;stroke-linejoin:round;stroke:rgb(0%,0%,0%);stroke-opacity:1;stroke-miterlimit:4;" d="M -0.000587463 -0.000999451 L -3.498634 -0.000999451 " transform="matrix(1.333333,0,0,1.333333,60.637502,84.345083)"/>
<path style=" stroke:none;fill-rule:nonzero;fill:rgb(0%,0%,0%);fill-opacity:1;" d="M 29.492188 88.203125 L 31.640625 88.203125 L 31.640625 80.785156 L 29.300781 81.253906 L 29.300781 80.054688 L 31.628906 79.585938 L 32.941406 79.585938 L 32.941406 88.203125 L 35.089844 88.203125 L 35.089844 89.308594 L 29.492188 89.308594 Z M 29.492188 88.203125 "/>
<path style=" stroke:none;fill-rule:nonzero;fill:rgb(0%,0%,0%);fill-opacity:1;" d="M 40.558594 80.453125 C 39.882812 80.453125 39.371094 80.789062 39.03125 81.453125 C 38.691406 82.121094 38.519531 83.121094 38.519531 84.457031 C 38.519531 85.789062 38.691406 86.789062 39.03125 87.457031 C 39.371094 88.125 39.882812 88.457031 40.558594 88.457031 C 41.238281 88.457031 41.75 88.125 42.089844 87.457031 C 42.433594 86.789062 42.605469 85.789062 42.605469 84.457031 C 42.605469 83.121094 42.433594 82.121094 42.089844 81.453125 C 41.75 80.789062 41.238281 80.453125 40.558594 80.453125 Z M 40.558594 79.414062 C 41.648438 79.414062 42.480469 79.84375 43.054688 80.707031 C 43.632812 81.566406 43.917969 82.816406 43.917969 84.457031 C 43.917969 86.09375 43.632812 87.34375 43.054688 88.207031 C 42.480469 89.066406 41.648438 89.5 40.558594 89.5 C 39.46875 89.5 38.636719 89.066406 38.0625 88.207031 C 37.488281 87.34375 37.199219 86.09375 37.199219 84.457031 C 37.199219 82.816406 37.488281 81.566406 38.0625 80.707031 C 38.636719 79.84375 39.46875 79.414062 40.558594 79.414062 Z M 40.558594 79.414062 "/>
<path style=" stroke:none;fill-rule:nonzero;fill:rgb(0%,0%,0%);fill-opacity:1;" d="M 46.722656 83.429688 L 49.933594 83.429688 L 49.933594 84.203125 L 45.613281 84.203125 L 45.613281 83.429688 C 45.964844 83.070312 46.441406 82.582031 47.042969 81.976562 C 47.648438 81.363281 48.027344 80.972656 48.179688 80.792969 C 48.476562 80.464844 48.679688 80.183594 48.796875 79.953125 C 48.914062 79.726562 48.972656 79.5 48.972656 79.277344 C 48.972656 78.917969 48.847656 78.621094 48.59375 78.394531 C 48.339844 78.164062 48.007812 78.050781 47.601562 78.050781 C 47.3125 78.050781 47.007812 78.101562 46.6875 78.203125 C 46.367188 78.300781 46.023438 78.453125 45.660156 78.660156 L 45.660156 77.726562 C 46.03125 77.578125 46.375 77.46875 46.699219 77.390625 C 47.023438 77.316406 47.316406 77.277344 47.582031 77.277344 C 48.289062 77.277344 48.851562 77.453125 49.269531 77.808594 C 49.6875 78.160156 49.898438 78.628906 49.898438 79.21875 C 49.898438 79.5 49.847656 79.765625 49.742188 80.015625 C 49.636719 80.265625 49.445312 80.558594 49.167969 80.898438 C 49.09375 80.988281 48.851562 81.242188 48.445312 81.664062 C 48.039062 82.085938 47.464844 82.671875 46.722656 83.429688 Z M 46.722656 83.429688 "/>
<g clip-path="url(#clip9)" clip-rule="nonzero">
<path style="fill:none;stroke-width:0.8;stroke-linecap:square;stroke-linejoin:round;stroke:rgb(69.01961%,69.01961%,69.01961%);stroke-opacity:1;stroke-miterlimit:4;" d="M 45.477539 26.425781 L 240.779297 26.425781 " transform="matrix(1.333333,0,0,1.333333,0.000000000000028422,0)"/>
</g>
<path style="fill:none;stroke-width:0.8;stroke-linecap:butt;stroke-linejoin:round;stroke:rgb(0%,0%,0%);stroke-opacity:1;stroke-miterlimit:4;" d="M -0.000587463 -0.00107384 L -3.498634 -0.00107384 " transform="matrix(1.333333,0,0,1.333333,60.637502,35.235807)"/>
<path style=" stroke:none;fill-rule:nonzero;fill:rgb(0%,0%,0%);fill-opacity:1;" d="M 29.492188 39.09375 L 31.640625 39.09375 L 31.640625 31.675781 L 29.300781 32.144531 L 29.300781 30.945312 L 31.628906 30.476562 L 32.941406 30.476562 L 32.941406 39.09375 L 35.089844 39.09375 L 35.089844 40.199219 L 29.492188 40.199219 Z M 29.492188 39.09375 "/>
<path style=" stroke:none;fill-rule:nonzero;fill:rgb(0%,0%,0%);fill-opacity:1;" d="M 40.558594 31.34375 C 39.882812 31.34375 39.371094 31.679688 39.03125 32.34375 C 38.691406 33.011719 38.519531 34.011719 38.519531 35.347656 C 38.519531 36.679688 38.691406 37.679688 39.03125 38.347656 C 39.371094 39.015625 39.882812 39.347656 40.558594 39.347656 C 41.238281 39.347656 41.75 39.015625 42.089844 38.347656 C 42.433594 37.679688 42.605469 36.679688 42.605469 35.347656 C 42.605469 34.011719 42.433594 33.011719 42.089844 32.34375 C 41.75 31.679688 41.238281 31.34375 40.558594 31.34375 Z M 40.558594 30.304688 C 41.648438 30.304688 42.480469 30.734375 43.054688 31.597656 C 43.632812 32.457031 43.917969 33.710938 43.917969 35.347656 C 43.917969 36.984375 43.632812 38.234375 43.054688 39.097656 C 42.480469 39.957031 41.648438 40.390625 40.558594 40.390625 C 39.46875 40.390625 38.636719 39.957031 38.0625 39.097656 C 37.488281 38.234375 37.199219 36.984375 37.199219 35.347656 C 37.199219 33.710938 37.488281 32.457031 38.0625 31.597656 C 38.636719 30.734375 39.46875 30.304688 40.558594 30.304688 Z M 40.558594 30.304688 "/>
<path style=" stroke:none;fill-rule:nonzero;fill:rgb(0%,0%,0%);fill-opacity:1;" d="M 48.71875 31.425781 C 49.160156 31.519531 49.503906 31.714844 49.75 32.015625 C 49.996094 32.3125 50.121094 32.679688 50.121094 33.117188 C 50.121094 33.789062 49.890625 34.308594 49.429688 34.675781 C 48.96875 35.042969 48.3125 35.226562 47.460938 35.226562 C 47.175781 35.226562 46.882812 35.199219 46.578125 35.144531 C 46.277344 35.085938 45.964844 35.003906 45.644531 34.890625 L 45.644531 34 C 45.898438 34.148438 46.175781 34.261719 46.480469 34.339844 C 46.785156 34.414062 47.101562 34.453125 47.433594 34.453125 C 48.011719 34.453125 48.449219 34.339844 48.753906 34.109375 C 49.054688 33.882812 49.207031 33.550781 49.207031 33.117188 C 49.207031 32.714844 49.066406 32.402344 48.785156 32.175781 C 48.503906 31.949219 48.113281 31.835938 47.613281 31.835938 L 46.816406 31.835938 L 46.816406 31.082031 L 47.648438 31.082031 C 48.101562 31.082031 48.445312 30.988281 48.6875 30.808594 C 48.925781 30.628906 49.046875 30.367188 49.046875 30.027344 C 49.046875 29.679688 48.921875 29.410156 48.675781 29.222656 C 48.429688 29.035156 48.074219 28.941406 47.613281 28.941406 C 47.359375 28.941406 47.089844 28.96875 46.800781 29.027344 C 46.511719 29.078125 46.191406 29.164062 45.847656 29.28125 L 45.847656 28.460938 C 46.195312 28.363281 46.523438 28.289062 46.828125 28.242188 C 47.136719 28.191406 47.421875 28.167969 47.691406 28.167969 C 48.390625 28.167969 48.945312 28.328125 49.351562 28.644531 C 49.757812 28.960938 49.960938 29.390625 49.960938 29.929688 C 49.960938 30.308594 49.855469 30.625 49.640625 30.886719 C 49.421875 31.144531 49.117188 31.324219 48.71875 31.425781 Z M 48.71875 31.425781 "/>
<path style="fill:none;stroke-width:0.6;stroke-linecap:butt;stroke-linejoin:round;stroke:rgb(0%,0%,0%);stroke-opacity:1;stroke-miterlimit:4;" d="M -0.000587463 0.000839233 L -1.998634 0.000839233 " transform="matrix(1.333333,0,0,1.333333,60.637502,190.170756)"/>
<path style="fill:none;stroke-width:0.6;stroke-linecap:butt;stroke-linejoin:round;stroke:rgb(0%,0%,0%);stroke-opacity:1;stroke-miterlimit:4;" d="M -0.000587463 0.00105286 L -1.998634 0.00105286 " transform="matrix(1.333333,0,0,1.333333,60.637502,187.322815)"/>
<path style="fill:none;stroke-width:0.6;stroke-linecap:butt;stroke-linejoin:round;stroke:rgb(0%,0%,0%);stroke-opacity:1;stroke-miterlimit:4;" d="M -0.000587463 0.00131226 L -1.998634 0.00131226 " transform="matrix(1.333333,0,0,1.333333,60.637502,184.81075)"/>
<path style="fill:none;stroke-width:0.6;stroke-linecap:butt;stroke-linejoin:round;stroke:rgb(0%,0%,0%);stroke-opacity:1;stroke-miterlimit:4;" d="M -0.000587463 0.000732422 L -1.998634 0.000732422 " transform="matrix(1.333333,0,0,1.333333,60.637502,167.780273)"/>
<path style="fill:none;stroke-width:0.6;stroke-linecap:butt;stroke-linejoin:round;stroke:rgb(0%,0%,0%);stroke-opacity:1;stroke-miterlimit:4;" d="M -0.000587463 0.000190735 L -1.998634 0.000190735 " transform="matrix(1.333333,0,0,1.333333,60.637502,159.132558)"/>
<path style="fill:none;stroke-width:0.6;stroke-linecap:butt;stroke-linejoin:round;stroke:rgb(0%,0%,0%);stroke-opacity:1;stroke-miterlimit:4;" d="M -0.000587463 -0.000610352 L -1.998634 -0.000610352 " transform="matrix(1.333333,0,0,1.333333,60.637502,152.996908)"/>
<path style="fill:none;stroke-width:0.6;stroke-linecap:butt;stroke-linejoin:round;stroke:rgb(0%,0%,0%);stroke-opacity:1;stroke-miterlimit:4;" d="M -0.000587463 0.000419617 L -1.998634 0.000419617 " transform="matrix(1.333333,0,0,1.333333,60.637502,148.237722)"/>
<path style="fill:none;stroke-width:0.6;stroke-linecap:butt;stroke-linejoin:round;stroke:rgb(0%,0%,0%);stroke-opacity:1;stroke-miterlimit:4;" d="M -0.000587463 -0.00115204 L -1.998634 -0.00115204 " transform="matrix(1.333333,0,0,1.333333,60.637502,144.349192)"/>
<path style="fill:none;stroke-width:0.6;stroke-linecap:butt;stroke-linejoin:round;stroke:rgb(0%,0%,0%);stroke-opacity:1;stroke-miterlimit:4;" d="M -0.000587463 0.000762939 L -1.998634 0.000762939 " transform="matrix(1.333333,0,0,1.333333,60.637502,141.061483)"/>
<path style="fill:none;stroke-width:0.6;stroke-linecap:butt;stroke-linejoin:round;stroke:rgb(0%,0%,0%);stroke-opacity:1;stroke-miterlimit:4;" d="M -0.000587463 0.000976562 L -1.998634 0.000976562 " transform="matrix(1.333333,0,0,1.333333,60.637502,138.213542)"/>
<path style="fill:none;stroke-width:0.6;stroke-linecap:butt;stroke-linejoin:round;stroke:rgb(0%,0%,0%);stroke-opacity:1;stroke-miterlimit:4;" d="M -0.000587463 0.00123596 L -1.998634 0.00123596 " transform="matrix(1.333333,0,0,1.333333,60.637502,135.701477)"/>
<path style="fill:none;stroke-width:0.6;stroke-linecap:butt;stroke-linejoin:round;stroke:rgb(0%,0%,0%);stroke-opacity:1;stroke-miterlimit:4;" d="M -0.000587463 0.000663757 L -1.998634 0.000663757 " transform="matrix(1.333333,0,0,1.333333,60.637502,118.67099)"/>
<path style="fill:none;stroke-width:0.6;stroke-linecap:butt;stroke-linejoin:round;stroke:rgb(0%,0%,0%);stroke-opacity:1;stroke-miterlimit:4;" d="M -0.000587463 0.000114441 L -1.998634 0.000114441 " transform="matrix(1.333333,0,0,1.333333,60.637502,110.023285)"/>
<path style="fill:none;stroke-width:0.6;stroke-linecap:butt;stroke-linejoin:round;stroke:rgb(0%,0%,0%);stroke-opacity:1;stroke-miterlimit:4;" d="M -0.000587463 -0.000686646 L -1.998634 -0.000686646 " transform="matrix(1.333333,0,0,1.333333,60.637502,103.887634)"/>
<path style="fill:none;stroke-width:0.6;stroke-linecap:butt;stroke-linejoin:round;stroke:rgb(0%,0%,0%);stroke-opacity:1;stroke-miterlimit:4;" d="M -0.000587463 0.000343323 L -1.998634 0.000343323 " transform="matrix(1.333333,0,0,1.333333,60.637502,99.128448)"/>
<path style="fill:none;stroke-width:0.6;stroke-linecap:butt;stroke-linejoin:round;stroke:rgb(0%,0%,0%);stroke-opacity:1;stroke-miterlimit:4;" d="M -0.000587463 -0.00122833 L -1.998634 -0.00122833 " transform="matrix(1.333333,0,0,1.333333,60.637502,95.239919)"/>
<path style="fill:none;stroke-width:0.6;stroke-linecap:butt;stroke-linejoin:round;stroke:rgb(0%,0%,0%);stroke-opacity:1;stroke-miterlimit:4;" d="M -0.000587463 0.000686646 L -1.998634 0.000686646 " transform="matrix(1.333333,0,0,1.333333,60.637502,91.952209)"/>
<path style="fill:none;stroke-width:0.6;stroke-linecap:butt;stroke-linejoin:round;stroke:rgb(0%,0%,0%);stroke-opacity:1;stroke-miterlimit:4;" d="M -0.000587463 0.000900269 L -1.998634 0.000900269 " transform="matrix(1.333333,0,0,1.333333,60.637502,89.104268)"/>
<path style="fill:none;stroke-width:0.6;stroke-linecap:butt;stroke-linejoin:round;stroke:rgb(0%,0%,0%);stroke-opacity:1;stroke-miterlimit:4;" d="M -0.000587463 0.00115967 L -1.998634 0.00115967 " transform="matrix(1.333333,0,0,1.333333,60.637502,86.592204)"/>
<path style="fill:none;stroke-width:0.6;stroke-linecap:butt;stroke-linejoin:round;stroke:rgb(0%,0%,0%);stroke-opacity:1;stroke-miterlimit:4;" d="M -0.000587463 0.000587463 L -1.998634 0.000587463 " transform="matrix(1.333333,0,0,1.333333,60.637502,69.561717)"/>
<path style="fill:none;stroke-width:0.6;stroke-linecap:butt;stroke-linejoin:round;stroke:rgb(0%,0%,0%);stroke-opacity:1;stroke-miterlimit:4;" d="M -0.000587463 0.0000457764 L -1.998634 0.0000457764 " transform="matrix(1.333333,0,0,1.333333,60.637502,60.914001)"/>
<path style="fill:none;stroke-width:0.6;stroke-linecap:butt;stroke-linejoin:round;stroke:rgb(0%,0%,0%);stroke-opacity:1;stroke-miterlimit:4;" d="M -0.000587463 -0.00075531 L -1.998634 -0.00075531 " transform="matrix(1.333333,0,0,1.333333,60.637502,54.778351)"/>
<path style="fill:none;stroke-width:0.6;stroke-linecap:butt;stroke-linejoin:round;stroke:rgb(0%,0%,0%);stroke-opacity:1;stroke-miterlimit:4;" d="M -0.000587463 0.000267029 L -1.998634 0.000267029 " transform="matrix(1.333333,0,0,1.333333,60.637502,50.019175)"/>
<path style="fill:none;stroke-width:0.6;stroke-linecap:butt;stroke-linejoin:round;stroke:rgb(0%,0%,0%);stroke-opacity:1;stroke-miterlimit:4;" d="M -0.000587463 -0.00130081 L -1.998634 -0.00130081 " transform="matrix(1.333333,0,0,1.333333,60.637502,46.130641)"/>
<path style="fill:none;stroke-width:0.6;stroke-linecap:butt;stroke-linejoin:round;stroke:rgb(0%,0%,0%);stroke-opacity:1;stroke-miterlimit:4;" d="M -0.000587463 0.000614166 L -1.998634 0.000614166 " transform="matrix(1.333333,0,0,1.333333,60.637502,42.842931)"/>
<path style="fill:none;stroke-width:0.6;stroke-linecap:butt;stroke-linejoin:round;stroke:rgb(0%,0%,0%);stroke-opacity:1;stroke-miterlimit:4;" d="M -0.000587463 0.000829697 L -1.998634 0.000829697 " transform="matrix(1.333333,0,0,1.333333,60.637502,39.994987)"/>
<path style="fill:none;stroke-width:0.6;stroke-linecap:butt;stroke-linejoin:round;stroke:rgb(0%,0%,0%);stroke-opacity:1;stroke-miterlimit:4;" d="M -0.000587463 0.00108719 L -1.998634 0.00108719 " transform="matrix(1.333333,0,0,1.333333,60.637502,37.482925)"/>
<path style="fill:none;stroke-width:0.6;stroke-linecap:butt;stroke-linejoin:round;stroke:rgb(0%,0%,0%);stroke-opacity:1;stroke-miterlimit:4;" d="M -0.000587463 0.000512123 L -1.998634 0.000512123 " transform="matrix(1.333333,0,0,1.333333,60.637502,20.452442)"/>
<path style="fill:none;stroke-width:0.6;stroke-linecap:butt;stroke-linejoin:round;stroke:rgb(0%,0%,0%);stroke-opacity:1;stroke-miterlimit:4;" d="M -0.000587463 -0.0000305176 L -1.998634 -0.0000305176 " transform="matrix(1.333333,0,0,1.333333,60.637502,11.804728)"/>
<path style=" stroke:none;fill-rule:nonzero;fill:rgb(0%,0%,0%);fill-opacity:1;" d="M 9.601562 145.941406 L 10.597656 145.941406 L 10.597656 147.085938 C 10.597656 147.515625 10.683594 147.816406 10.859375 147.984375 C 11.03125 148.148438 11.34375 148.234375 11.796875 148.234375 L 12.441406 148.234375 L 12.441406 146.261719 L 13.371094 146.261719 L 13.371094 148.234375 L 19.730469 148.234375 L 19.730469 149.4375 L 13.371094 149.4375 L 13.371094 150.582031 L 12.441406 150.582031 L 12.441406 149.4375 L 11.929688 149.4375 C 11.121094 149.4375 10.527344 149.25 10.160156 148.871094 C 9.785156 148.492188 9.601562 147.894531 9.601562 147.074219 Z M 9.601562 145.941406 "/>
<path style=" stroke:none;fill-rule:nonzero;fill:rgb(0%,0%,0%);fill-opacity:1;" d="M 13.558594 140.714844 C 13.480469 140.847656 13.421875 140.996094 13.386719 141.152344 C 13.351562 141.3125 13.332031 141.488281 13.332031 141.675781 C 13.332031 142.355469 13.550781 142.875 13.992188 143.238281 C 14.433594 143.601562 15.066406 143.78125 15.890625 143.78125 L 19.730469 143.78125 L 19.730469 144.984375 L 12.441406 144.984375 L 12.441406 143.78125 L 13.574219 143.78125 C 13.128906 143.527344 12.800781 143.199219 12.585938 142.796875 C 12.371094 142.394531 12.265625 141.902344 12.265625 141.324219 C 12.265625 141.242188 12.269531 141.152344 12.28125 141.050781 C 12.289062 140.953125 12.308594 140.839844 12.328125 140.71875 Z M 13.558594 140.714844 "/>
<path style=" stroke:none;fill-rule:nonzero;fill:rgb(0%,0%,0%);fill-opacity:1;" d="M 15.785156 133.519531 L 16.371094 133.519531 L 16.371094 139.027344 C 17.195312 138.976562 17.824219 138.726562 18.257812 138.28125 C 18.6875 137.839844 18.902344 137.21875 18.902344 136.425781 C 18.902344 135.964844 18.847656 135.519531 18.734375 135.085938 C 18.621094 134.65625 18.453125 134.226562 18.226562 133.800781 L 19.359375 133.800781 C 19.542969 134.230469 19.679688 134.671875 19.777344 135.121094 C 19.871094 135.574219 19.921875 136.03125 19.921875 136.496094 C 19.921875 137.660156 19.582031 138.582031 18.90625 139.257812 C 18.226562 139.9375 17.3125 140.277344 16.15625 140.277344 C 14.964844 140.277344 14.015625 139.957031 13.316406 139.3125 C 12.617188 138.667969 12.265625 137.796875 12.265625 136.703125 C 12.265625 135.722656 12.582031 134.945312 13.210938 134.375 C 13.84375 133.804688 14.699219 133.519531 15.785156 133.519531 Z M 15.433594 134.71875 C 14.777344 134.726562 14.257812 134.910156 13.867188 135.269531 C 13.476562 135.625 13.277344 136.101562 13.277344 136.691406 C 13.277344 137.359375 13.46875 137.894531 13.847656 138.296875 C 14.222656 138.695312 14.753906 138.925781 15.441406 138.988281 Z M 15.433594 134.71875 "/>
<path style=" stroke:none;fill-rule:nonzero;fill:rgb(0%,0%,0%);fill-opacity:1;" d="M 16.089844 130.835938 C 16.972656 130.835938 17.664062 130.65625 18.164062 130.292969 C 18.664062 129.929688 18.917969 129.433594 18.917969 128.800781 C 18.917969 128.167969 18.664062 127.667969 18.164062 127.304688 C 17.664062 126.9375 16.972656 126.757812 16.089844 126.757812 C 15.210938 126.757812 14.519531 126.9375 14.019531 127.304688 C 13.515625 127.667969 13.265625 128.167969 13.265625 128.800781 C 13.265625 129.433594 13.515625 129.929688 14.019531 130.292969 C 14.519531 130.65625 15.210938 130.835938 16.089844 130.835938 Z M 18.636719 126.757812 C 19.070312 127.007812 19.394531 127.324219 19.605469 127.710938 C 19.816406 128.09375 19.921875 128.554688 19.921875 129.09375 C 19.921875 129.972656 19.570312 130.691406 18.867188 131.246094 C 18.164062 131.800781 17.238281 132.074219 16.089844 132.074219 C 14.945312 132.074219 14.023438 131.800781 13.320312 131.246094 C 12.617188 130.691406 12.265625 129.972656 12.265625 129.09375 C 12.265625 128.554688 12.371094 128.09375 12.582031 127.710938 C 12.789062 127.324219 13.113281 127.007812 13.546875 126.757812 L 12.441406 126.757812 L 12.441406 125.558594 L 22.503906 125.558594 L 22.503906 126.757812 Z M 18.636719 126.757812 "/>
<path style=" stroke:none;fill-rule:nonzero;fill:rgb(0%,0%,0%);fill-opacity:1;" d="M 16.855469 123.214844 L 12.441406 123.214844 L 12.441406 122.015625 L 16.808594 122.015625 C 17.5 122.015625 18.015625 121.882812 18.363281 121.613281 C 18.707031 121.34375 18.878906 120.941406 18.878906 120.402344 C 18.878906 119.753906 18.671875 119.246094 18.261719 118.871094 C 17.847656 118.492188 17.285156 118.304688 16.574219 118.304688 L 12.441406 118.304688 L 12.441406 117.109375 L 19.730469 117.109375 L 19.730469 118.304688 L 18.609375 118.304688 C 19.054688 118.597656 19.382812 118.933594 19.597656 119.316406 C 19.8125 119.703125 19.921875 120.148438 19.921875 120.65625 C 19.921875 121.492188 19.660156 122.128906 19.140625 122.5625 C 18.617188 122.996094 17.855469 123.214844 16.855469 123.214844 Z M 12.265625 120.199219 Z M 12.265625 120.199219 "/>
<path style=" stroke:none;fill-rule:nonzero;fill:rgb(0%,0%,0%);fill-opacity:1;" d="M 15.785156 108.402344 L 16.371094 108.402344 L 16.371094 113.910156 C 17.195312 113.859375 17.824219 113.609375 18.257812 113.164062 C 18.6875 112.722656 18.902344 112.101562 18.902344 111.308594 C 18.902344 110.847656 18.847656 110.402344 18.734375 109.96875 C 18.621094 109.539062 18.453125 109.109375 18.226562 108.683594 L 19.359375 108.683594 C 19.542969 109.113281 19.679688 109.554688 19.777344 110.003906 C 19.871094 110.457031 19.921875 110.914062 19.921875 111.378906 C 19.921875 112.542969 19.582031 113.464844 18.90625 114.140625 C 18.226562 114.820312 17.3125 115.160156 16.15625 115.160156 C 14.964844 115.160156 14.015625 114.839844 13.316406 114.195312 C 12.617188 113.550781 12.265625 112.679688 12.265625 111.585938 C 12.265625 110.605469 12.582031 109.828125 13.210938 109.257812 C 13.84375 108.6875 14.699219 108.402344 15.785156 108.402344 Z M 15.433594 109.601562 C 14.777344 109.609375 14.257812 109.792969 13.867188 110.152344 C 13.476562 110.507812 13.277344 110.984375 13.277344 111.574219 C 13.277344 112.242188 13.46875 112.777344 13.847656 113.179688 C 14.222656 113.578125 14.753906 113.808594 15.441406 113.871094 Z M 15.433594 109.601562 "/>
<path style=" stroke:none;fill-rule:nonzero;fill:rgb(0%,0%,0%);fill-opacity:1;" d="M 15.328125 100.375 L 19.730469 100.375 L 19.730469 101.574219 L 15.367188 101.574219 C 14.679688 101.574219 14.164062 101.707031 13.820312 101.976562 C 13.476562 102.246094 13.304688 102.648438 13.304688 103.1875 C 13.304688 103.835938 13.511719 104.34375 13.925781 104.71875 C 14.335938 105.09375 14.898438 105.277344 15.609375 105.277344 L 19.730469 105.277344 L 19.730469 106.484375 L 12.441406 106.484375 L 12.441406 105.277344 L 13.574219 105.277344 C 13.132812 104.992188 12.804688 104.652344 12.589844 104.265625 C 12.371094 103.878906 12.265625 103.429688 12.265625 102.921875 C 12.265625 102.082031 12.523438 101.449219 13.042969 101.019531 C 13.558594 100.589844 14.320312 100.375 15.328125 100.375 Z M 15.328125 100.375 "/>
<path style=" stroke:none;fill-rule:nonzero;fill:rgb(0%,0%,0%);fill-opacity:1;" d="M 12.71875 92.738281 L 13.839844 92.738281 C 13.652344 93.078125 13.511719 93.417969 13.417969 93.757812 C 13.324219 94.097656 13.277344 94.441406 13.277344 94.789062 C 13.277344 95.566406 13.527344 96.171875 14.019531 96.601562 C 14.511719 97.03125 15.203125 97.246094 16.089844 97.246094 C 16.980469 97.246094 17.671875 97.03125 18.167969 96.601562 C 18.660156 96.171875 18.902344 95.566406 18.902344 94.789062 C 18.902344 94.441406 18.859375 94.097656 18.765625 93.757812 C 18.671875 93.417969 18.53125 93.078125 18.34375 92.738281 L 19.453125 92.738281 C 19.609375 93.074219 19.722656 93.421875 19.800781 93.777344 C 19.882812 94.136719 19.921875 94.515625 19.921875 94.921875 C 19.921875 96.019531 19.574219 96.890625 18.886719 97.539062 C 18.195312 98.183594 17.265625 98.507812 16.089844 98.507812 C 14.902344 98.507812 13.96875 98.179688 13.289062 97.527344 C 12.605469 96.875 12.265625 95.976562 12.265625 94.839844 C 12.265625 94.472656 12.304688 94.113281 12.378906 93.761719 C 12.453125 93.410156 12.566406 93.070312 12.71875 92.738281 Z M 12.71875 92.738281 "/>
<path style=" stroke:none;fill-rule:nonzero;fill:rgb(0%,0%,0%);fill-opacity:1;" d="M 20.410156 87.621094 C 21.277344 87.960938 21.84375 88.289062 22.105469 88.613281 C 22.371094 88.933594 22.503906 89.363281 22.503906 89.898438 L 22.503906 90.859375 L 21.503906 90.859375 L 21.503906 90.152344 C 21.503906 89.824219 21.421875 89.570312 21.265625 89.386719 C 21.109375 89.203125 20.742188 89 20.160156 88.78125 L 19.613281 88.566406 L 12.441406 91.515625 L 12.441406 90.246094 L 18.140625 87.964844 L 12.441406 85.6875 L 12.441406 84.417969 Z M 20.410156 87.621094 "/>
<path style=" stroke:none;fill-rule:nonzero;fill:rgb(0%,0%,0%);fill-opacity:1;" d="M 18.078125 83.425781 L 18.078125 82.054688 L 19.730469 82.054688 L 19.730469 83.425781 Z M 12.835938 83.425781 L 12.835938 82.054688 L 14.488281 82.054688 L 14.488281 83.425781 Z M 12.835938 83.425781 "/>
<path style=" stroke:none;fill-rule:nonzero;fill:rgb(0%,0%,0%);fill-opacity:1;" d="M 15.328125 68.9375 L 19.730469 68.9375 L 19.730469 70.136719 L 15.367188 70.136719 C 14.679688 70.136719 14.164062 70.273438 13.820312 70.542969 C 13.476562 70.8125 13.304688 71.214844 13.304688 71.75 C 13.304688 72.398438 13.511719 72.910156 13.925781 73.28125 C 14.335938 73.65625 14.898438 73.84375 15.609375 73.84375 L 19.730469 73.84375 L 19.730469 75.046875 L 12.441406 75.046875 L 12.441406 73.84375 L 13.574219 73.84375 C 13.132812 73.554688 12.804688 73.21875 12.589844 72.832031 C 12.371094 72.441406 12.265625 71.992188 12.265625 71.484375 C 12.265625 70.648438 12.523438 70.015625 13.042969 69.585938 C 13.558594 69.15625 14.320312 68.9375 15.328125 68.9375 Z M 15.328125 68.9375 "/>
<path style=" stroke:none;fill-rule:nonzero;fill:rgb(0%,0%,0%);fill-opacity:1;" d="M 9.613281 63.675781 C 10.613281 64.253906 11.597656 64.6875 12.578125 64.96875 C 13.554688 65.25 14.542969 65.394531 15.546875 65.394531 C 16.546875 65.394531 17.539062 65.25 18.523438 64.964844 C 19.507812 64.679688 20.496094 64.25 21.488281 63.675781 L 21.488281 64.714844 C 20.46875 65.367188 19.464844 65.851562 18.480469 66.175781 C 17.496094 66.5 16.519531 66.660156 15.546875 66.660156 C 14.578125 66.660156 13.601562 66.5 12.621094 66.179688 C 11.640625 65.859375 10.636719 65.371094 9.613281 64.714844 Z M 9.613281 63.675781 "/>
<path style=" stroke:none;fill-rule:nonzero;fill:rgb(0%,0%,0%);fill-opacity:1;" d="M 12.441406 55.285156 L 15.988281 57.925781 L 19.730469 55.152344 L 19.730469 56.5625 L 16.867188 58.6875 L 19.730469 60.808594 L 19.730469 62.222656 L 15.917969 59.390625 L 12.441406 61.980469 L 12.441406 60.566406 L 15.039062 58.632812 L 12.441406 56.703125 Z M 12.441406 55.285156 "/>
<path style=" stroke:none;fill-rule:nonzero;fill:rgb(0%,0%,0%);fill-opacity:1;" d="M 9.613281 53.644531 L 9.613281 52.605469 C 10.636719 51.953125 11.640625 51.46875 12.621094 51.144531 C 13.601562 50.820312 14.578125 50.660156 15.546875 50.660156 C 16.519531 50.660156 17.496094 50.820312 18.480469 51.144531 C 19.464844 51.46875 20.46875 51.953125 21.488281 52.605469 L 21.488281 53.644531 C 20.496094 53.070312 19.507812 52.640625 18.523438 52.355469 C 17.539062 52.070312 16.546875 51.925781 15.546875 51.925781 C 14.542969 51.925781 13.554688 52.070312 12.578125 52.355469 C 11.597656 52.640625 10.613281 53.070312 9.613281 53.644531 Z M 9.613281 53.644531 "/>
<g clip-path="url(#clip10)" clip-rule="nonzero">
<path style="fill:none;stroke-width:1.5;stroke-linecap:square;stroke-linejoin:round;stroke:rgb(12.156863%,46.666667%,70.588237%);stroke-opacity:1;stroke-miterlimit:4;" d="M -0.999023 22.628906 L 54.354492 22.640625 L 66.298828 22.921875 L 73.283203 24.123047 L 78.240234 29.680664 L 82.083984 32.24707 L 85.224609 35.932617 L 87.881836 36.254883 L 90.181641 39.451172 L 94.02832 39.667969 L 95.668945 43.037109 L 97.168945 46.731445 L 98.545898 47.370117 L 101.012695 50.575195 L 102.125977 50.941406 L 103.168945 51.855469 L 104.15332 52.171875 L 105.084961 55.942383 L 105.969727 56.560547 L 106.810547 58.22168 L 107.610352 58.22168 L 108.37793 58.576172 L 109.110352 59.185547 L 109.813477 59.43457 L 110.490234 59.947266 L 111.140625 60.079102 L 112.371094 60.079102 L 113.519531 60.612305 L 114.067383 61.163086 L 114.597656 61.163086 L 115.110352 61.303711 L 115.611328 61.303711 L 116.094727 61.447266 L 116.569336 62.326172 L 117.026367 62.478516 L 117.474609 62.786133 L 117.911133 64.248047 L 118.751953 64.59375 L 119.15625 64.59375 L 119.554687 64.766602 L 119.941406 65.124023 L 121.40918 65.859375 L 122.097656 65.859375 L 122.431641 66.046875 L 122.759766 66.046875 L 123.082031 66.433594 L 123.708984 67.438477 L 124.013672 67.860352 L 124.3125 68.074219 L 124.898437 68.074219 L 126.008789 68.964844 L 126.539062 68.964844 L 126.799805 69.193359 L 127.552734 71.165039 L 128.039062 71.698242 L 128.276367 71.698242 L 128.510742 72.249023 L 128.970703 72.249023 L 129.418945 73.116211 L 129.635742 73.116211 L 130.898437 74.668945 L 131.689453 74.668945 L 131.882812 75 L 132.073242 75 L 132.260742 75.336914 L 132.448242 75.336914 L 132.632812 75.679688 L 133.174805 75.679688 L 133.350586 76.03125 L 133.526367 76.03125 L 133.869141 76.757812 L 134.208984 76.757812 L 134.373047 77.135742 L 134.540039 77.135742 L 134.865234 77.915039 L 135.339844 77.915039 L 135.650391 78.735352 L 135.802734 78.735352 L 135.955078 79.163086 L 136.549805 79.163086 L 136.696289 79.599609 L 137.405273 79.599609 L 137.542969 80.050781 L 138.084961 80.050781 L 138.219727 80.516602 L 138.870117 80.516602 L 138.996094 80.994141 L 139.248047 80.994141 L 139.371094 81.486328 L 139.860352 81.486328 L 139.980469 81.993164 L 140.217773 81.993164 L 140.334961 82.517578 L 140.569336 82.517578 L 140.683594 83.05957 L 140.797852 83.05957 L 141.026367 83.62207 L 141.46875 83.62207 L 141.688477 84.202148 L 142.010742 84.202148 L 142.22168 84.805664 L 142.740234 84.805664 L 142.942383 85.432617 L 143.141602 85.432617 L 143.34082 86.085938 L 143.633789 86.085938 L 143.824219 86.768555 L 144.205078 86.768555 L 144.389648 87.477539 L 145.204102 87.477539 L 145.379883 88.22168 L 145.980469 88.22168 L 146.150391 89.003906 L 147.046875 89.003906 L 147.205078 89.824219 L 147.899414 89.824219 L 148.048828 90.688477 L 148.271484 90.688477 L 148.417969 91.602539 L 148.924805 91.602539 L 149.06543 92.572266 L 150.161133 92.572266 L 150.292969 93.606445 L 150.9375 93.606445 L 151.063477 94.708008 L 151.801758 94.708008 L 151.921875 95.894531 L 153.246094 95.894531 L 153.413086 97.174805 L 154.163086 97.174805 L 154.321289 98.566406 L 155.768555 98.566406 L 155.90918 100.089844 L 157.49707 100.089844 L 157.625977 101.777344 L 159.108398 101.777344 L 159.225586 103.661133 L 161.428711 103.661133 L 161.563477 105.796875 L 164.103516 105.796875 L 164.220703 108.260742 L 166.675781 108.260742 L 166.801758 111.178711 L 170.012695 111.178711 L 170.138672 114.74707 L 174.079102 114.74707 L 174.193359 119.349609 L 179.387695 119.349609 L 179.507812 125.835938 L 186.805664 125.835938 L 186.922852 136.921875 L 199.579102 136.921875 " transform="matrix(1.333333,0,0,1.333333,0.000000000000028422,0)"/>
</g>
<g clip-path="url(#clip11)" clip-rule="nonzero">
<path style="fill:none;stroke-width:1.5;stroke-linecap:butt;stroke-linejoin:round;stroke:rgb(74.901962%,0%,74.901962%);stroke-opacity:1;stroke-dasharray:5.55,2.4;stroke-miterlimit:4;" d="M -0.999023 54.852539 L 54.354492 54.864258 L 73.283203 61.447266 L 78.240234 61.880859 L 82.083984 62.941406 L 85.224609 63.418945 L 87.881836 65.859375 L 90.181641 67.233398 L 92.211914 68.293945 L 94.02832 69.427734 L 95.668945 69.665039 L 97.168945 70.904297 L 98.545898 71.165039 L 99.823242 71.165039 L 101.012695 71.428711 L 102.125977 74.030273 L 103.168945 74.030273 L 104.15332 74.668945 L 105.084961 74.668945 L 105.969727 75.336914 L 106.810547 75.336914 L 108.37793 76.03125 L 109.813477 76.03125 L 110.490234 76.391602 L 111.140625 76.391602 L 111.767578 77.519531 L 112.371094 77.915039 L 112.954102 77.915039 L 113.519531 78.319336 L 115.110352 78.319336 L 115.611328 79.163086 L 116.094727 79.599609 L 117.026367 79.599609 L 117.474609 80.516602 L 118.335937 80.516602 L 118.751953 81.486328 L 119.15625 81.486328 L 119.941406 82.517578 L 121.051758 82.517578 L 121.754883 83.62207 L 122.431641 83.62207 L 122.759766 84.202148 L 123.708984 84.202148 L 124.013672 84.805664 L 124.608398 84.805664 L 124.898437 85.432617 L 125.460937 85.432617 L 125.739258 86.085938 L 126.539062 86.085938 L 126.799805 86.768555 L 127.552734 86.768555 L 127.798828 87.477539 L 129.635742 87.477539 L 129.852539 88.22168 L 130.898437 88.22168 L 131.100586 89.003906 L 131.496094 89.003906 L 131.689453 89.824219 L 133.174805 89.824219 L 133.350586 90.688477 L 134.540039 90.688477 L 134.701172 91.602539 L 135.181641 91.602539 L 135.339844 92.572266 L 137.542969 92.572266 L 137.680664 93.606445 L 139.980469 93.606445 L 140.100586 94.708008 L 141.796875 94.708008 L 142.010742 95.894531 L 143.537109 95.894531 L 143.730469 97.174805 L 145.291992 97.174805 L 145.467773 98.566406 L 147.439453 98.566406 L 147.591797 100.089844 L 150.489258 100.089844 L 150.618164 101.777344 L 152.853516 101.777344 L 152.967773 103.661133 L 156.099609 103.661133 L 156.240234 105.796875 L 159.457031 105.796875 L 159.574219 108.260742 L 163.224609 108.260742 L 163.350586 111.178711 L 167.830078 111.178711 L 167.947266 114.74707 L 174.128906 114.74707 L 174.243164 119.349609 L 182.206055 119.349609 L 182.317383 125.835938 L 195.477539 125.835938 L 195.591797 136.921875 L 225.181641 136.921875 " transform="matrix(1.333333,0,0,1.333333,0.000000000000028422,0)"/>
</g>
<g clip-path="url(#clip12)" clip-rule="nonzero">
<path style="fill:none;stroke-width:1.5;stroke-linecap:butt;stroke-linejoin:round;stroke:rgb(0%,50.196081%,0%);stroke-opacity:1;stroke-dasharray:9.6,2.4,1.5,2.4;stroke-miterlimit:4;" d="M -0.999023 82.50293 L 54.354492 82.517578 L 66.298828 86.085938 L 73.283203 92.572266 L 78.240234 93.606445 L 82.083984 93.606445 L 85.224609 94.708008 L 87.881836 94.708008 L 90.181641 95.894531 L 92.211914 95.894531 L 94.02832 97.174805 L 98.545898 97.174805 L 99.823242 98.566406 L 105.969727 98.566406 L 106.810547 100.089844 L 109.813477 100.089844 L 110.490234 101.777344 L 114.067383 101.777344 L 114.597656 103.661133 L 121.051758 103.661133 L 121.40918 105.796875 L 126.275391 105.796875 L 126.539062 108.260742 L 132.632812 108.260742 L 132.814453 111.178711 L 140.569336 111.178711 L 140.683594 114.74707 L 148.271484 114.74707 L 148.417969 119.349609 L 160.652344 119.349609 L 160.795898 125.835938 L 181.787109 125.835938 L 181.904297 136.921875 L 231.899414 136.921875 " transform="matrix(1.333333,0,0,1.333333,0.000000000000028422,0)"/>
</g>
<path style="fill:none;stroke-width:0.8;stroke-linecap:square;stroke-linejoin:miter;stroke:rgb(0%,0%,0%);stroke-opacity:1;stroke-miterlimit:4;" d="M 45.477539 143.100586 L 45.477539 7.201172 " transform="matrix(1.333333,0,0,1.333333,0.000000000000028422,0)"/>
<path style="fill:none;stroke-width:0.8;stroke-linecap:square;stroke-linejoin:miter;stroke:rgb(0%,0%,0%);stroke-opacity:1;stroke-miterlimit:4;" d="M 240.779297 143.100586 L 240.779297 7.201172 " transform="matrix(1.333333,0,0,1.333333,0.000000000000028422,0)"/>
<path style="fill:none;stroke-width:0.8;stroke-linecap:square;stroke-linejoin:miter;stroke:rgb(0%,0%,0%);stroke-opacity:1;stroke-miterlimit:4;" d="M 45.477539 143.100586 L 240.779297 143.100586 " transform="matrix(1.333333,0,0,1.333333,0.000000000000028422,0)"/>
<path style="fill:none;stroke-width:0.8;stroke-linecap:square;stroke-linejoin:miter;stroke:rgb(0%,0%,0%);stroke-opacity:1;stroke-miterlimit:4;" d="M 45.477539 7.201172 L 240.779297 7.201172 " transform="matrix(1.333333,0,0,1.333333,0.000000000000028422,0)"/>
<use xlink:href="#surface5" mask="url(#mask0)"/>
<path style="fill:none;stroke-width:1.5;stroke-linecap:square;stroke-linejoin:round;stroke:rgb(12.156863%,46.666667%,70.588237%);stroke-opacity:1;stroke-miterlimit:4;" d="M 161.99707 20.299805 L 181.998047 20.299805 " transform="matrix(1.333333,0,0,1.333333,0.000000000000028422,0)"/>
<path style=" stroke:none;fill-rule:nonzero;fill:rgb(0%,0%,0%);fill-opacity:1;" d="M 254.460938 28.855469 L 254.460938 24.441406 L 255.660156 24.441406 L 255.660156 28.808594 C 255.660156 29.5 255.792969 30.015625 256.0625 30.363281 C 256.332031 30.707031 256.734375 30.878906 257.273438 30.878906 C 257.921875 30.878906 258.429688 30.671875 258.804688 30.261719 C 259.183594 29.847656 259.371094 29.285156 259.371094 28.574219 L 259.371094 24.441406 L 260.570312 24.441406 L 260.570312 31.730469 L 259.371094 31.730469 L 259.371094 30.609375 C 259.082031 31.054688 258.742188 31.382812 258.359375 31.597656 C 257.976562 31.8125 257.527344 31.921875 257.019531 31.921875 C 256.183594 31.921875 255.546875 31.660156 255.113281 31.140625 C 254.679688 30.617188 254.460938 29.855469 254.460938 28.855469 Z M 257.476562 24.265625 Z M 257.476562 24.265625 "/>
<path style=" stroke:none;fill-rule:nonzero;fill:rgb(0%,0%,0%);fill-opacity:1;" d="M 269.097656 27.328125 L 269.097656 31.730469 L 267.902344 31.730469 L 267.902344 27.367188 C 267.902344 26.679688 267.765625 26.164062 267.496094 25.820312 C 267.226562 25.476562 266.824219 25.304688 266.285156 25.304688 C 265.640625 25.304688 265.128906 25.511719 264.753906 25.925781 C 264.382812 26.335938 264.195312 26.898438 264.195312 27.609375 L 264.195312 31.730469 L 262.988281 31.730469 L 262.988281 24.441406 L 264.195312 24.441406 L 264.195312 25.574219 C 264.480469 25.132812 264.820312 24.804688 265.207031 24.589844 C 265.59375 24.371094 266.042969 24.265625 266.550781 24.265625 C 267.390625 24.265625 268.023438 24.523438 268.453125 25.042969 C 268.882812 25.558594 269.097656 26.320312 269.097656 27.328125 Z M 269.097656 27.328125 "/>
<path style=" stroke:none;fill-rule:nonzero;fill:rgb(0%,0%,0%);fill-opacity:1;" d="M 271.488281 24.441406 L 272.683594 24.441406 L 272.683594 31.730469 L 271.488281 31.730469 Z M 271.488281 21.601562 L 272.683594 21.601562 L 272.683594 23.117188 L 271.488281 23.117188 Z M 271.488281 21.601562 "/>
<path style=" stroke:none;fill-rule:nonzero;fill:rgb(0%,0%,0%);fill-opacity:1;" d="M 279.988281 28 C 279.988281 27.132812 279.808594 26.460938 279.453125 25.984375 C 279.09375 25.503906 278.59375 25.265625 277.945312 25.265625 C 277.304688 25.265625 276.804688 25.503906 276.445312 25.984375 C 276.085938 26.460938 275.90625 27.132812 275.90625 28 C 275.90625 28.863281 276.085938 29.535156 276.445312 30.011719 C 276.804688 30.492188 277.304688 30.730469 277.945312 30.730469 C 278.59375 30.730469 279.09375 30.492188 279.453125 30.011719 C 279.808594 29.535156 279.988281 28.863281 279.988281 28 Z M 281.1875 30.828125 C 281.1875 32.066406 280.910156 32.992188 280.359375 33.597656 C 279.808594 34.203125 278.964844 34.503906 277.828125 34.503906 C 277.40625 34.503906 277.011719 34.472656 276.636719 34.410156 C 276.261719 34.347656 275.902344 34.25 275.550781 34.121094 L 275.550781 32.957031 C 275.902344 33.148438 276.246094 33.285156 276.589844 33.378906 C 276.933594 33.46875 277.285156 33.515625 277.640625 33.515625 C 278.425781 33.515625 279.011719 33.308594 279.402344 32.898438 C 279.792969 32.492188 279.988281 31.871094 279.988281 31.042969 L 279.988281 30.449219 C 279.742188 30.878906 279.425781 31.199219 279.039062 31.414062 C 278.652344 31.625 278.191406 31.730469 277.652344 31.730469 C 276.757812 31.730469 276.039062 31.390625 275.492188 30.710938 C 274.945312 30.027344 274.671875 29.125 274.671875 28 C 274.671875 26.871094 274.945312 25.96875 275.492188 25.289062 C 276.039062 24.605469 276.757812 24.265625 277.652344 24.265625 C 278.191406 24.265625 278.652344 24.371094 279.039062 24.582031 C 279.425781 24.796875 279.742188 25.117188 279.988281 25.546875 L 279.988281 24.441406 L 281.1875 24.441406 Z M 281.1875 30.828125 "/>
<path style=" stroke:none;fill-rule:nonzero;fill:rgb(0%,0%,0%);fill-opacity:1;" d="M 287.878906 25.558594 C 287.746094 25.480469 287.597656 25.421875 287.441406 25.386719 C 287.28125 25.351562 287.105469 25.332031 286.917969 25.332031 C 286.238281 25.332031 285.71875 25.550781 285.355469 25.992188 C 284.992188 26.433594 284.8125 27.066406 284.8125 27.890625 L 284.8125 31.730469 L 283.609375 31.730469 L 283.609375 24.441406 L 284.8125 24.441406 L 284.8125 25.574219 C 285.066406 25.128906 285.394531 24.800781 285.796875 24.585938 C 286.199219 24.371094 286.691406 24.265625 287.269531 24.265625 C 287.351562 24.265625 287.441406 24.269531 287.542969 24.28125 C 287.640625 24.289062 287.753906 24.308594 287.875 24.328125 Z M 287.878906 25.558594 "/>
<path style=" stroke:none;fill-rule:nonzero;fill:rgb(0%,0%,0%);fill-opacity:1;" d="M 292.449219 28.066406 C 291.484375 28.066406 290.8125 28.175781 290.4375 28.398438 C 290.066406 28.617188 289.878906 28.996094 289.878906 29.53125 C 289.878906 29.957031 290.019531 30.292969 290.296875 30.542969 C 290.578125 30.792969 290.960938 30.917969 291.441406 30.917969 C 292.105469 30.917969 292.640625 30.679688 293.039062 30.210938 C 293.441406 29.738281 293.640625 29.113281 293.640625 28.332031 L 293.640625 28.066406 Z M 294.839844 27.570312 L 294.839844 31.730469 L 293.640625 31.730469 L 293.640625 30.625 C 293.367188 31.066406 293.027344 31.394531 292.621094 31.605469 C 292.210938 31.816406 291.710938 31.921875 291.121094 31.921875 C 290.375 31.921875 289.78125 31.710938 289.339844 31.292969 C 288.898438 30.871094 288.679688 30.3125 288.679688 29.609375 C 288.679688 28.789062 288.953125 28.171875 289.503906 27.753906 C 290.054688 27.335938 290.871094 27.128906 291.960938 27.128906 L 293.640625 27.128906 L 293.640625 27.011719 C 293.640625 26.460938 293.460938 26.03125 293.097656 25.730469 C 292.734375 25.429688 292.226562 25.277344 291.570312 25.277344 C 291.15625 25.277344 290.75 25.328125 290.351562 25.429688 C 289.957031 25.527344 289.578125 25.679688 289.214844 25.878906 L 289.214844 24.769531 C 289.652344 24.601562 290.078125 24.476562 290.492188 24.390625 C 290.902344 24.308594 291.304688 24.265625 291.695312 24.265625 C 292.75 24.265625 293.539062 24.539062 294.058594 25.085938 C 294.578125 25.632812 294.839844 26.460938 294.839844 27.570312 Z M 294.839844 27.570312 "/>
<path style=" stroke:none;fill-rule:nonzero;fill:rgb(0%,0%,0%);fill-opacity:1;" d="M 302.984375 25.839844 C 303.285156 25.300781 303.640625 24.902344 304.058594 24.648438 C 304.476562 24.390625 304.964844 24.265625 305.53125 24.265625 C 306.289062 24.265625 306.875 24.53125 307.289062 25.0625 C 307.699219 25.59375 307.90625 26.347656 307.90625 27.328125 L 307.90625 31.730469 L 306.703125 31.730469 L 306.703125 27.367188 C 306.703125 26.671875 306.578125 26.152344 306.328125 25.816406 C 306.082031 25.476562 305.707031 25.304688 305.199219 25.304688 C 304.578125 25.304688 304.085938 25.511719 303.726562 25.925781 C 303.367188 26.335938 303.1875 26.898438 303.1875 27.609375 L 303.1875 31.730469 L 301.980469 31.730469 L 301.980469 27.367188 C 301.980469 26.664062 301.859375 26.148438 301.609375 25.808594 C 301.363281 25.472656 300.980469 25.304688 300.464844 25.304688 C 299.851562 25.304688 299.367188 25.511719 299.003906 25.925781 C 298.644531 26.339844 298.464844 26.902344 298.464844 27.609375 L 298.464844 31.730469 L 297.261719 31.730469 L 297.261719 24.441406 L 298.464844 24.441406 L 298.464844 25.574219 C 298.738281 25.125 299.066406 24.796875 299.449219 24.582031 C 299.832031 24.371094 300.285156 24.265625 300.808594 24.265625 C 301.339844 24.265625 301.789062 24.398438 302.160156 24.667969 C 302.53125 24.9375 302.804688 25.328125 302.984375 25.839844 Z M 302.984375 25.839844 "/>
<path style="fill:none;stroke-width:1.5;stroke-linecap:butt;stroke-linejoin:round;stroke:rgb(74.901962%,0%,74.901962%);stroke-opacity:1;stroke-dasharray:5.55,2.4;stroke-miterlimit:4;" d="M 161.99707 34.977539 L 181.998047 34.977539 " transform="matrix(1.333333,0,0,1.333333,0.000000000000028422,0)"/>
<path style=" stroke:none;fill-rule:nonzero;fill:rgb(0%,0%,0%);fill-opacity:1;" d="M 259.820312 47.664062 C 259.820312 46.78125 259.640625 46.089844 259.277344 45.589844 C 258.914062 45.089844 258.417969 44.835938 257.785156 44.835938 C 257.148438 44.835938 256.648438 45.089844 256.289062 45.589844 C 255.925781 46.089844 255.742188 46.78125 255.742188 47.664062 C 255.742188 48.542969 255.925781 49.234375 256.289062 49.734375 C 256.648438 50.238281 257.148438 50.488281 257.785156 50.488281 C 258.417969 50.488281 258.914062 50.238281 259.277344 49.734375 C 259.640625 49.234375 259.820312 48.542969 259.820312 47.664062 Z M 255.742188 45.117188 C 255.996094 44.683594 256.316406 44.363281 256.699219 44.152344 C 257.082031 43.941406 257.542969 43.835938 258.074219 43.835938 C 258.960938 43.835938 259.679688 44.1875 260.234375 44.890625 C 260.789062 45.59375 261.066406 46.515625 261.066406 47.664062 C 261.066406 48.808594 260.789062 49.734375 260.234375 50.4375 C 259.679688 51.140625 258.960938 51.492188 258.074219 51.492188 C 257.542969 51.492188 257.082031 51.386719 256.699219 51.175781 C 256.316406 50.964844 255.996094 50.640625 255.742188 50.207031 L 255.742188 51.300781 L 254.539062 51.300781 L 254.539062 41.171875 L 255.742188 41.171875 Z M 255.742188 45.117188 "/>
<path style=" stroke:none;fill-rule:nonzero;fill:rgb(0%,0%,0%);fill-opacity:1;" d="M 263.050781 44.011719 L 264.246094 44.011719 L 264.246094 51.300781 L 263.050781 51.300781 Z M 263.050781 41.171875 L 264.246094 41.171875 L 264.246094 42.691406 L 263.050781 42.691406 Z M 263.050781 41.171875 "/>
<path style=" stroke:none;fill-rule:nonzero;fill:rgb(0%,0%,0%);fill-opacity:1;" d="M 271.550781 47.570312 C 271.550781 46.703125 271.371094 46.03125 271.015625 45.554688 C 270.65625 45.078125 270.15625 44.835938 269.507812 44.835938 C 268.867188 44.835938 268.367188 45.078125 268.007812 45.554688 C 267.648438 46.03125 267.46875 46.703125 267.46875 47.570312 C 267.46875 48.433594 267.648438 49.105469 268.007812 49.582031 C 268.367188 50.0625 268.867188 50.300781 269.507812 50.300781 C 270.15625 50.300781 270.65625 50.0625 271.015625 49.582031 C 271.371094 49.105469 271.550781 48.433594 271.550781 47.570312 Z M 272.75 50.398438 C 272.75 51.636719 272.472656 52.5625 271.921875 53.167969 C 271.371094 53.773438 270.527344 54.074219 269.390625 54.074219 C 268.96875 54.074219 268.574219 54.042969 268.199219 53.980469 C 267.824219 53.917969 267.464844 53.820312 267.113281 53.691406 L 267.113281 52.527344 C 267.464844 52.71875 267.808594 52.859375 268.152344 52.949219 C 268.496094 53.039062 268.847656 53.085938 269.203125 53.085938 C 269.988281 53.085938 270.574219 52.878906 270.964844 52.472656 C 271.355469 52.0625 271.550781 51.441406 271.550781 50.613281 L 271.550781 50.019531 C 271.304688 50.449219 270.988281 50.769531 270.601562 50.984375 C 270.214844 51.195312 269.753906 51.300781 269.214844 51.300781 C 268.320312 51.300781 267.601562 50.960938 267.054688 50.28125 C 266.507812 49.597656 266.234375 48.695312 266.234375 47.570312 C 266.234375 46.441406 266.507812 45.539062 267.054688 44.859375 C 267.601562 44.175781 268.320312 43.835938 269.214844 43.835938 C 269.753906 43.835938 270.214844 43.941406 270.601562 44.152344 C 270.988281 44.367188 271.304688 44.6875 271.550781 45.117188 L 271.550781 44.011719 L 272.75 44.011719 Z M 272.75 50.398438 "/>
<path style=" stroke:none;fill-rule:nonzero;fill:rgb(0%,0%,0%);fill-opacity:1;" d="M 279.441406 45.128906 C 279.308594 45.050781 279.160156 44.996094 279.003906 44.957031 C 278.84375 44.921875 278.667969 44.902344 278.480469 44.902344 C 277.800781 44.902344 277.28125 45.121094 276.917969 45.5625 C 276.554688 46.003906 276.375 46.636719 276.375 47.460938 L 276.375 51.300781 L 275.171875 51.300781 L 275.171875 44.011719 L 276.375 44.011719 L 276.375 45.144531 C 276.628906 44.699219 276.957031 44.371094 277.359375 44.160156 C 277.761719 43.941406 278.253906 43.835938 278.832031 43.835938 C 278.914062 43.835938 279.003906 43.839844 279.105469 43.851562 C 279.203125 43.863281 279.316406 43.878906 279.4375 43.898438 Z M 279.441406 45.128906 "/>
<path style=" stroke:none;fill-rule:nonzero;fill:rgb(0%,0%,0%);fill-opacity:1;" d="M 284.011719 47.636719 C 283.046875 47.636719 282.375 47.746094 282 47.96875 C 281.628906 48.191406 281.441406 48.566406 281.441406 49.101562 C 281.441406 49.527344 281.582031 49.863281 281.859375 50.113281 C 282.140625 50.363281 282.523438 50.488281 283.003906 50.488281 C 283.667969 50.488281 284.203125 50.253906 284.601562 49.78125 C 285.003906 49.308594 285.203125 48.683594 285.203125 47.902344 L 285.203125 47.636719 Z M 286.402344 47.140625 L 286.402344 51.300781 L 285.203125 51.300781 L 285.203125 50.195312 C 284.929688 50.636719 284.589844 50.964844 284.183594 51.175781 C 283.773438 51.386719 283.273438 51.492188 282.683594 51.492188 C 281.9375 51.492188 281.34375 51.28125 280.902344 50.863281 C 280.460938 50.441406 280.242188 49.882812 280.242188 49.179688 C 280.242188 48.359375 280.515625 47.742188 281.066406 47.324219 C 281.617188 46.910156 282.433594 46.699219 283.523438 46.699219 L 285.203125 46.699219 L 285.203125 46.582031 C 285.203125 46.03125 285.023438 45.601562 284.660156 45.300781 C 284.296875 45 283.789062 44.851562 283.132812 44.851562 C 282.71875 44.851562 282.3125 44.898438 281.914062 45 C 281.519531 45.101562 281.140625 45.25 280.777344 45.449219 L 280.777344 44.339844 C 281.214844 44.171875 281.640625 44.046875 282.054688 43.960938 C 282.464844 43.878906 282.867188 43.835938 283.257812 43.835938 C 284.3125 43.835938 285.101562 44.109375 285.621094 44.65625 C 286.140625 45.203125 286.402344 46.03125 286.402344 47.140625 Z M 286.402344 47.140625 "/>
<path style=" stroke:none;fill-rule:nonzero;fill:rgb(0%,0%,0%);fill-opacity:1;" d="M 294.546875 45.410156 C 294.847656 44.871094 295.203125 44.472656 295.621094 44.21875 C 296.039062 43.964844 296.527344 43.835938 297.09375 43.835938 C 297.851562 43.835938 298.4375 44.101562 298.851562 44.632812 C 299.261719 45.164062 299.46875 45.917969 299.46875 46.898438 L 299.46875 51.300781 L 298.265625 51.300781 L 298.265625 46.941406 C 298.265625 46.242188 298.140625 45.722656 297.890625 45.386719 C 297.644531 45.046875 297.269531 44.878906 296.761719 44.878906 C 296.140625 44.878906 295.648438 45.082031 295.289062 45.496094 C 294.929688 45.90625 294.75 46.46875 294.75 47.179688 L 294.75 51.300781 L 293.542969 51.300781 L 293.542969 46.941406 C 293.542969 46.238281 293.421875 45.71875 293.171875 45.382812 C 292.925781 45.046875 292.542969 44.878906 292.027344 44.878906 C 291.414062 44.878906 290.929688 45.085938 290.566406 45.496094 C 290.207031 45.910156 290.027344 46.472656 290.027344 47.179688 L 290.027344 51.300781 L 288.824219 51.300781 L 288.824219 44.011719 L 290.027344 44.011719 L 290.027344 45.144531 C 290.300781 44.695312 290.628906 44.367188 291.011719 44.152344 C 291.394531 43.941406 291.847656 43.835938 292.371094 43.835938 C 292.902344 43.835938 293.351562 43.96875 293.722656 44.238281 C 294.09375 44.507812 294.367188 44.898438 294.546875 45.410156 Z M 294.546875 45.410156 "/>
<path style="fill:none;stroke-width:1.5;stroke-linecap:butt;stroke-linejoin:round;stroke:rgb(0%,50.196081%,0%);stroke-opacity:1;stroke-dasharray:9.6,2.4,1.5,2.4;stroke-miterlimit:4;" d="M 161.99707 49.655273 L 181.998047 49.655273 " transform="matrix(1.333333,0,0,1.333333,0.000000000000028422,0)"/>
<path style=" stroke:none;fill-rule:nonzero;fill:rgb(0%,0%,0%);fill-opacity:1;" d="M 255.769531 61.511719 L 255.769531 63.582031 L 258.238281 63.582031 L 258.238281 64.511719 L 255.769531 64.511719 L 255.769531 68.472656 C 255.769531 69.066406 255.851562 69.445312 256.015625 69.617188 C 256.175781 69.785156 256.507812 69.871094 257.007812 69.871094 L 258.238281 69.871094 L 258.238281 70.871094 L 257.007812 70.871094 C 256.082031 70.871094 255.445312 70.699219 255.09375 70.355469 C 254.742188 70.011719 254.566406 69.382812 254.566406 68.472656 L 254.566406 64.511719 L 253.6875 64.511719 L 253.6875 63.582031 L 254.566406 63.582031 L 254.566406 61.511719 Z M 255.769531 61.511719 "/>
<path style=" stroke:none;fill-rule:nonzero;fill:rgb(0%,0%,0%);fill-opacity:1;" d="M 264.039062 64.699219 C 263.902344 64.621094 263.757812 64.566406 263.597656 64.527344 C 263.441406 64.492188 263.265625 64.472656 263.074219 64.472656 C 262.398438 64.472656 261.878906 64.691406 261.515625 65.132812 C 261.152344 65.574219 260.972656 66.207031 260.972656 67.03125 L 260.972656 70.871094 L 259.765625 70.871094 L 259.765625 63.582031 L 260.972656 63.582031 L 260.972656 64.714844 C 261.222656 64.273438 261.550781 63.941406 261.953125 63.730469 C 262.359375 63.515625 262.851562 63.40625 263.429688 63.40625 C 263.511719 63.40625 263.601562 63.410156 263.699219 63.421875 C 263.800781 63.433594 263.910156 63.449219 264.03125 63.472656 Z M 264.039062 64.699219 "/>
<path style=" stroke:none;fill-rule:nonzero;fill:rgb(0%,0%,0%);fill-opacity:1;" d="M 265.296875 63.582031 L 266.492188 63.582031 L 266.492188 70.871094 L 265.296875 70.871094 Z M 265.296875 60.742188 L 266.492188 60.742188 L 266.492188 62.261719 L 265.296875 62.261719 Z M 265.296875 60.742188 "/>
<path style=" stroke:none;fill-rule:nonzero;fill:rgb(0%,0%,0%);fill-opacity:1;" d="M 273.796875 67.140625 C 273.796875 66.273438 273.617188 65.601562 273.261719 65.125 C 272.902344 64.648438 272.402344 64.410156 271.753906 64.410156 C 271.113281 64.410156 270.613281 64.648438 270.253906 65.125 C 269.894531 65.601562 269.714844 66.273438 269.714844 67.140625 C 269.714844 68.003906 269.894531 68.675781 270.253906 69.152344 C 270.613281 69.632812 271.113281 69.871094 271.753906 69.871094 C 272.402344 69.871094 272.902344 69.632812 273.261719 69.152344 C 273.617188 68.675781 273.796875 68.003906 273.796875 67.140625 Z M 274.996094 69.96875 C 274.996094 71.210938 274.71875 72.132812 274.167969 72.738281 C 273.617188 73.34375 272.773438 73.644531 271.636719 73.644531 C 271.214844 73.644531 270.820312 73.613281 270.445312 73.550781 C 270.070312 73.488281 269.710938 73.394531 269.359375 73.261719 L 269.359375 72.097656 C 269.710938 72.289062 270.054688 72.429688 270.398438 72.519531 C 270.742188 72.609375 271.09375 72.65625 271.449219 72.65625 C 272.234375 72.65625 272.820312 72.453125 273.210938 72.042969 C 273.601562 71.632812 273.796875 71.011719 273.796875 70.183594 L 273.796875 69.589844 C 273.550781 70.019531 273.234375 70.339844 272.847656 70.554688 C 272.460938 70.765625 272 70.871094 271.460938 70.871094 C 270.566406 70.871094 269.847656 70.53125 269.300781 69.851562 C 268.753906 69.171875 268.480469 68.265625 268.480469 67.140625 C 268.480469 66.015625 268.753906 65.109375 269.300781 64.429688 C 269.847656 63.746094 270.566406 63.40625 271.460938 63.40625 C 272 63.40625 272.460938 63.511719 272.847656 63.726562 C 273.234375 63.9375 273.550781 64.257812 273.796875 64.6875 L 273.796875 63.582031 L 274.996094 63.582031 Z M 274.996094 69.96875 "/>
<path style=" stroke:none;fill-rule:nonzero;fill:rgb(0%,0%,0%);fill-opacity:1;" d="M 281.6875 64.699219 C 281.554688 64.621094 281.40625 64.566406 281.25 64.527344 C 281.089844 64.492188 280.914062 64.472656 280.726562 64.472656 C 280.046875 64.472656 279.527344 64.691406 279.164062 65.132812 C 278.800781 65.574219 278.621094 66.207031 278.621094 67.03125 L 278.621094 70.871094 L 277.417969 70.871094 L 277.417969 63.582031 L 278.621094 63.582031 L 278.621094 64.714844 C 278.875 64.273438 279.203125 63.941406 279.605469 63.730469 C 280.007812 63.515625 280.5 63.40625 281.078125 63.40625 C 281.160156 63.40625 281.25 63.410156 281.351562 63.421875 C 281.449219 63.433594 281.5625 63.449219 281.683594 63.472656 Z M 281.6875 64.699219 "/>
<path style=" stroke:none;fill-rule:nonzero;fill:rgb(0%,0%,0%);fill-opacity:1;" d="M 286.257812 67.207031 C 285.292969 67.207031 284.621094 67.320312 284.246094 67.539062 C 283.875 67.761719 283.6875 68.136719 283.6875 68.671875 C 283.6875 69.097656 283.828125 69.433594 284.105469 69.683594 C 284.386719 69.933594 284.769531 70.058594 285.25 70.058594 C 285.914062 70.058594 286.449219 69.824219 286.847656 69.351562 C 287.25 68.882812 287.449219 68.253906 287.449219 67.476562 L 287.449219 67.207031 Z M 288.648438 66.710938 L 288.648438 70.871094 L 287.449219 70.871094 L 287.449219 69.765625 C 287.175781 70.207031 286.835938 70.535156 286.429688 70.746094 C 286.019531 70.957031 285.519531 71.0625 284.929688 71.0625 C 284.183594 71.0625 283.589844 70.851562 283.148438 70.433594 C 282.707031 70.015625 282.488281 69.453125 282.488281 68.75 C 282.488281 67.929688 282.761719 67.3125 283.3125 66.894531 C 283.863281 66.480469 284.679688 66.269531 285.769531 66.269531 L 287.449219 66.269531 L 287.449219 66.152344 C 287.449219 65.601562 287.269531 65.175781 286.90625 64.871094 C 286.542969 64.570312 286.035156 64.421875 285.378906 64.421875 C 284.964844 64.421875 284.558594 64.472656 284.160156 64.570312 C 283.765625 64.671875 283.386719 64.820312 283.023438 65.019531 L 283.023438 63.914062 C 283.460938 63.742188 283.886719 63.617188 284.300781 63.535156 C 284.710938 63.449219 285.113281 63.40625 285.503906 63.40625 C 286.558594 63.40625 287.347656 63.679688 287.867188 64.226562 C 288.386719 64.773438 288.648438 65.601562 288.648438 66.710938 Z M 288.648438 66.710938 "/>
<path style=" stroke:none;fill-rule:nonzero;fill:rgb(0%,0%,0%);fill-opacity:1;" d="M 296.792969 64.980469 C 297.09375 64.441406 297.449219 64.046875 297.867188 63.789062 C 298.285156 63.535156 298.773438 63.40625 299.339844 63.40625 C 300.097656 63.40625 300.683594 63.671875 301.097656 64.203125 C 301.507812 64.734375 301.714844 65.492188 301.714844 66.472656 L 301.714844 70.871094 L 300.511719 70.871094 L 300.511719 66.511719 C 300.511719 65.8125 300.386719 65.292969 300.136719 64.957031 C 299.890625 64.617188 299.515625 64.449219 299.007812 64.449219 C 298.386719 64.449219 297.894531 64.652344 297.535156 65.066406 C 297.175781 65.476562 296.996094 66.039062 296.996094 66.753906 L 296.996094 70.871094 L 295.789062 70.871094 L 295.789062 66.511719 C 295.789062 65.808594 295.667969 65.289062 295.417969 64.953125 C 295.171875 64.617188 294.789062 64.449219 294.273438 64.449219 C 293.660156 64.449219 293.175781 64.65625 292.8125 65.070312 C 292.453125 65.484375 292.273438 66.042969 292.273438 66.753906 L 292.273438 70.871094 L 291.070312 70.871094 L 291.070312 63.582031 L 292.273438 63.582031 L 292.273438 64.714844 C 292.546875 64.265625 292.875 63.9375 293.257812 63.726562 C 293.640625 63.511719 294.09375 63.40625 294.617188 63.40625 C 295.148438 63.40625 295.597656 63.539062 295.96875 63.808594 C 296.339844 64.078125 296.613281 64.46875 296.792969 64.980469 Z M 296.792969 64.980469 "/>
</g>
</svg>
