<?xml version="1.0" encoding="UTF-8"?>
<svg xmlns="http://www.w3.org/2000/svg" xmlns:xlink="http://www.w3.org/1999/xlink" width="318.620829" height="240.875" viewBox="0 0 318.620829 240.875" version="1.1">
<defs>
<clipPath id="clip1">
  <path d="M 68 9.601562 L 70 9.601562 L 70 190.800781 L 68 190.800781 Z M 68 9.601562 "/>
</clipPath>
<clipPath id="clip2">
  <path d="M 126 9.601562 L 128 9.601562 L 128 190.800781 L 126 190.800781 Z M 126 9.601562 "/>
</clipPath>
<clipPath id="clip3">
  <path d="M 184 9.601562 L 186 9.601562 L 186 190.800781 L 184 190.800781 Z M 184 9.601562 "/>
</clipPath>
<clipPath id="clip4">
  <path d="M 241 9.601562 L 244 9.601562 L 244 190.800781 L 241 190.800781 Z M 241 9.601562 "/>
</clipPath>
<clipPath id="clip5">
  <path d="M 299 9.601562 L 300.539062 9.601562 L 300.539062 190.800781 L 299 190.800781 Z M 299 9.601562 "/>
</clipPath>
<clipPath id="clip6">
  <path d="M 40.136719 189 L 300.539062 189 L 300.539062 190.800781 L 40.136719 190.800781 Z M 40.136719 189 "/>
</clipPath>
<clipPath id="clip7">
  <path d="M 40.136719 152 L 300.539062 152 L 300.539062 155 L 40.136719 155 Z M 40.136719 152 "/>
</clipPath>
<clipPath id="clip8">
  <path d="M 40.136719 116 L 300.539062 116 L 300.539062 118 L 40.136719 118 Z M 40.136719 116 "/>
</clipPath>
<clipPath id="clip9">
  <path d="M 40.136719 79 L 300.539062 79 L 300.539062 81 L 40.136719 81 Z M 40.136719 79 "/>
</clipPath>
<clipPath id="clip10">
  <path d="M 40.136719 42 L 300.539062 42 L 300.539062 45 L 40.136719 45 Z M 40.136719 42 "/>
</clipPath>
<clipPath id="clip11">
  <path d="M 40.136719 16 L 300.539062 16 L 300.539062 157 L 40.136719 157 Z M 40.136719 16 "/>
</clipPath>
<clipPath id="clip12">
  <path d="M 40.136719 128 L 300.539062 128 L 300.539062 184 L 40.136719 184 Z M 40.136719 128 "/>
</clipPath>
<clipPath id="clip13">
  <path d="M 40.136719 129 L 300.539062 129 L 300.539062 184 L 40.136719 184 Z M 40.136719 129 "/>
</clipPath>
<filter id="alpha" filterUnits="objectBoundingBox" x="0%" y="0%" width="100%" height="100%">
  <feColorMatrix type="matrix" in="SourceGraphic" values="0 0 0 0 1 0 0 0 0 1 0 0 0 0 1 0 0 0 1 0"/>
</filter>
<mask id="mask0">
  <g filter="url(#alpha)">
<rect x="0" y="0" width="318.620829" height="240.875" style="fill:rgb(0%,0%,0%);fill-opacity:0.8;stroke:none;"/>
  </g>
</mask>
<clipPath id="clip14">
  <rect x="0" y="0" width="319" height="241"/>
</clipPath>
<g id="surface5" clip-path="url(#clip14)">
<path style="fill-rule:nonzero;fill:rgb(100%,100%,100%);fill-opacity:1;stroke-width:1;stroke-linecap:butt;stroke-linejoin:miter;stroke:rgb(80.000001%,80.000001%,80.000001%);stroke-opacity:1;stroke-miterlimit:4;" d="M 140.633789 59.235352 L 218.402344 59.235352 C 219.735352 59.235352 220.40332 58.567383 220.40332 57.234375 L 220.40332 14.200195 C 220.40332 12.867188 219.735352 12.199219 218.402344 12.199219 L 140.633789 12.199219 C 139.300781 12.199219 138.635742 12.867188 138.635742 14.200195 L 138.635742 57.234375 C 138.635742 58.567383 139.300781 59.235352 140.633789 59.235352 Z M 140.633789 59.235352 " transform="matrix(1.333333,0,0,1.333333,0.000000000000028422,0)"/>
</g>
</defs>
<g id="surface1">
<path style=" stroke:none;fill-rule:nonzero;fill:rgb(100%,100%,100%);fill-opacity:1;" d="M 40.136719 190.800781 L 300.539062 190.800781 L 300.539062 9.601562 L 40.136719 9.601562 Z M 40.136719 190.800781 "/>
<g clip-path="url(#clip1)" clip-rule="nonzero">
<path style="fill:none;stroke-width:0.8;stroke-linecap:square;stroke-linejoin:round;stroke:rgb(69.01961%,69.01961%,69.01961%);stroke-opacity:1;stroke-miterlimit:4;" d="M 51.802734 143.100586 L 51.802734 7.201172 " transform="matrix(1.333333,0,0,1.333333,0.000000000000028422,0)"/>
</g>
<path style="fill:none;stroke-width:0.8;stroke-linecap:butt;stroke-linejoin:round;stroke:rgb(0%,0%,0%);stroke-opacity:1;stroke-miterlimit:4;" d="M -0.000389099 0.000579834 L -0.000389099 3.498627 " transform="matrix(1.333333,0,0,1.333333,69.070831,190.800008)"/>
<path style=" stroke:none;fill-rule:nonzero;fill:rgb(0%,0%,0%);fill-opacity:1;" d="M 67.386719 209.160156 L 71.976562 209.160156 L 71.976562 210.265625 L 65.804688 210.265625 L 65.804688 209.160156 C 66.304688 208.640625 66.984375 207.949219 67.847656 207.078125 C 68.707031 206.207031 69.25 205.648438 69.472656 205.394531 C 69.890625 204.921875 70.183594 204.523438 70.351562 204.195312 C 70.519531 203.867188 70.605469 203.542969 70.605469 203.226562 C 70.605469 202.710938 70.421875 202.289062 70.058594 201.964844 C 69.699219 201.636719 69.226562 201.476562 68.644531 201.476562 C 68.230469 201.476562 67.796875 201.546875 67.335938 201.691406 C 66.878906 201.832031 66.390625 202.050781 65.871094 202.339844 L 65.871094 201.011719 C 66.398438 200.800781 66.894531 200.640625 67.355469 200.53125 C 67.816406 200.421875 68.238281 200.367188 68.617188 200.367188 C 69.625 200.367188 70.429688 200.621094 71.027344 201.125 C 71.625 201.628906 71.925781 202.300781 71.925781 203.140625 C 71.925781 203.542969 71.851562 203.921875 71.699219 204.277344 C 71.550781 204.636719 71.277344 205.058594 70.882812 205.542969 C 70.773438 205.671875 70.429688 206.035156 69.847656 206.636719 C 69.265625 207.238281 68.445312 208.078125 67.386719 209.160156 Z M 67.386719 209.160156 "/>
<g clip-path="url(#clip2)" clip-rule="nonzero">
<path style="fill:none;stroke-width:0.8;stroke-linecap:square;stroke-linejoin:round;stroke:rgb(69.01961%,69.01961%,69.01961%);stroke-opacity:1;stroke-miterlimit:4;" d="M 95.203125 143.100586 L 95.203125 7.201172 " transform="matrix(1.333333,0,0,1.333333,0.000000000000028422,0)"/>
</g>
<path style="fill:none;stroke-width:0.8;stroke-linecap:butt;stroke-linejoin:round;stroke:rgb(0%,0%,0%);stroke-opacity:1;stroke-miterlimit:4;" d="M -0.000000000000028422 0.000579834 L -0.000000000000028422 3.498627 " transform="matrix(1.333333,0,0,1.333333,126.9375,190.800008)"/>
<path style=" stroke:none;fill-rule:nonzero;fill:rgb(0%,0%,0%);fill-opacity:1;" d="M 127.734375 201.691406 L 124.414062 206.878906 L 127.734375 206.878906 Z M 127.390625 200.542969 L 129.042969 200.542969 L 129.042969 206.878906 L 130.429688 206.878906 L 130.429688 207.972656 L 129.042969 207.972656 L 129.042969 210.265625 L 127.734375 210.265625 L 127.734375 207.972656 L 123.347656 207.972656 L 123.347656 206.703125 Z M 127.390625 200.542969 "/>
<g clip-path="url(#clip3)" clip-rule="nonzero">
<path style="fill:none;stroke-width:0.8;stroke-linecap:square;stroke-linejoin:round;stroke:rgb(69.01961%,69.01961%,69.01961%);stroke-opacity:1;stroke-miterlimit:4;" d="M 138.603516 143.100586 L 138.603516 7.201172 " transform="matrix(1.333333,0,0,1.333333,0.000000000000028422,0)"/>
</g>
<path style="fill:none;stroke-width:0.8;stroke-linecap:butt;stroke-linejoin:round;stroke:rgb(0%,0%,0%);stroke-opacity:1;stroke-miterlimit:4;" d="M 0.000396729 0.000579834 L 0.000396729 3.498627 " transform="matrix(1.333333,0,0,1.333333,184.804159,190.800008)"/>
<path style=" stroke:none;fill-rule:nonzero;fill:rgb(0%,0%,0%);fill-opacity:1;" d="M 184.964844 204.882812 C 184.375 204.882812 183.90625 205.082031 183.558594 205.488281 C 183.214844 205.890625 183.042969 206.441406 183.042969 207.144531 C 183.042969 207.84375 183.214844 208.398438 183.558594 208.804688 C 183.90625 209.210938 184.375 209.414062 184.964844 209.414062 C 185.554688 209.414062 186.023438 209.210938 186.367188 208.804688 C 186.710938 208.398438 186.882812 207.84375 186.882812 207.144531 C 186.882812 206.441406 186.710938 205.890625 186.367188 205.488281 C 186.023438 205.082031 185.554688 204.882812 184.964844 204.882812 Z M 187.574219 200.757812 L 187.574219 201.957031 C 187.246094 201.800781 186.910156 201.683594 186.574219 201.601562 C 186.238281 201.515625 185.90625 201.476562 185.574219 201.476562 C 184.707031 201.476562 184.042969 201.769531 183.585938 202.355469 C 183.128906 202.941406 182.867188 203.824219 182.800781 205.011719 C 183.058594 204.632812 183.378906 204.34375 183.765625 204.140625 C 184.152344 203.941406 184.578125 203.839844 185.042969 203.839844 C 186.019531 203.839844 186.789062 204.136719 187.355469 204.730469 C 187.921875 205.320312 188.207031 206.125 188.207031 207.144531 C 188.207031 208.144531 187.910156 208.945312 187.320312 209.550781 C 186.730469 210.152344 185.945312 210.453125 184.964844 210.453125 C 183.839844 210.453125 182.980469 210.023438 182.386719 209.164062 C 181.789062 208.300781 181.492188 207.050781 181.492188 205.414062 C 181.492188 203.878906 181.859375 202.652344 182.585938 201.738281 C 183.316406 200.824219 184.296875 200.367188 185.523438 200.367188 C 185.851562 200.367188 186.1875 200.402344 186.523438 200.464844 C 186.859375 200.53125 187.210938 200.628906 187.574219 200.757812 Z M 187.574219 200.757812 "/>
<g clip-path="url(#clip4)" clip-rule="nonzero">
<path style="fill:none;stroke-width:0.8;stroke-linecap:square;stroke-linejoin:round;stroke:rgb(69.01961%,69.01961%,69.01961%);stroke-opacity:1;stroke-miterlimit:4;" d="M 182.003906 143.100586 L 182.003906 7.201172 " transform="matrix(1.333333,0,0,1.333333,0.000000000000028422,0)"/>
</g>
<path style="fill:none;stroke-width:0.8;stroke-linecap:butt;stroke-linejoin:round;stroke:rgb(0%,0%,0%);stroke-opacity:1;stroke-miterlimit:4;" d="M 0.000778198 0.000579834 L 0.000778198 3.498627 " transform="matrix(1.333333,0,0,1.333333,242.670837,190.800008)"/>
<path style=" stroke:none;fill-rule:nonzero;fill:rgb(0%,0%,0%);fill-opacity:1;" d="M 242.667969 205.648438 C 242.042969 205.648438 241.550781 205.816406 241.191406 206.148438 C 240.835938 206.484375 240.65625 206.945312 240.65625 207.527344 C 240.65625 208.117188 240.835938 208.574219 241.191406 208.910156 C 241.550781 209.246094 242.042969 209.414062 242.667969 209.414062 C 243.292969 209.414062 243.785156 209.246094 244.144531 208.910156 C 244.503906 208.570312 244.683594 208.109375 244.683594 207.527344 C 244.683594 206.945312 244.507812 206.484375 244.148438 206.148438 C 243.789062 205.816406 243.296875 205.648438 242.667969 205.648438 Z M 241.351562 205.089844 C 240.789062 204.949219 240.347656 204.6875 240.035156 204.300781 C 239.71875 203.914062 239.5625 203.441406 239.5625 202.886719 C 239.5625 202.109375 239.839844 201.496094 240.390625 201.046875 C 240.945312 200.59375 241.703125 200.367188 242.667969 200.367188 C 243.632812 200.367188 244.394531 200.59375 244.945312 201.046875 C 245.496094 201.496094 245.773438 202.109375 245.773438 202.886719 C 245.773438 203.441406 245.617188 203.914062 245.300781 204.300781 C 244.984375 204.6875 244.550781 204.949219 243.988281 205.089844 C 244.621094 205.238281 245.117188 205.527344 245.46875 205.957031 C 245.824219 206.386719 246 206.910156 246 207.527344 C 246 208.472656 245.710938 209.195312 245.136719 209.699219 C 244.5625 210.203125 243.738281 210.453125 242.667969 210.453125 C 241.597656 210.453125 240.773438 210.203125 240.195312 209.699219 C 239.621094 209.195312 239.332031 208.472656 239.332031 207.527344 C 239.332031 206.910156 239.511719 206.386719 239.867188 205.957031 C 240.222656 205.527344 240.71875 205.238281 241.351562 205.089844 Z M 240.871094 203.011719 C 240.871094 203.515625 241.027344 203.90625 241.339844 204.191406 C 241.65625 204.472656 242.097656 204.613281 242.667969 204.613281 C 243.230469 204.613281 243.671875 204.472656 243.992188 204.191406 C 244.3125 203.90625 244.472656 203.515625 244.472656 203.011719 C 244.472656 202.507812 244.3125 202.117188 243.992188 201.832031 C 243.671875 201.550781 243.230469 201.410156 242.667969 201.410156 C 242.097656 201.410156 241.65625 201.550781 241.339844 201.832031 C 241.027344 202.117188 240.871094 202.507812 240.871094 203.011719 Z M 240.871094 203.011719 "/>
<g clip-path="url(#clip5)" clip-rule="nonzero">
<path style="fill:none;stroke-width:0.8;stroke-linecap:square;stroke-linejoin:round;stroke:rgb(69.01961%,69.01961%,69.01961%);stroke-opacity:1;stroke-miterlimit:4;" d="M 225.404297 143.100586 L 225.404297 7.201172 " transform="matrix(1.333333,0,0,1.333333,0.000000000000028422,0)"/>
</g>
<path style="fill:none;stroke-width:0.8;stroke-linecap:butt;stroke-linejoin:round;stroke:rgb(0%,0%,0%);stroke-opacity:1;stroke-miterlimit:4;" d="M 0.00117493 0.000579834 L 0.00117493 3.498627 " transform="matrix(1.333333,0,0,1.333333,300.537496,190.800008)"/>
<path style=" stroke:none;fill-rule:nonzero;fill:rgb(0%,0%,0%);fill-opacity:1;" d="M 293.707031 209.160156 L 295.855469 209.160156 L 295.855469 201.742188 L 293.519531 202.210938 L 293.519531 201.011719 L 295.84375 200.542969 L 297.160156 200.542969 L 297.160156 209.160156 L 299.304688 209.160156 L 299.304688 210.265625 L 293.707031 210.265625 Z M 293.707031 209.160156 "/>
<path style=" stroke:none;fill-rule:nonzero;fill:rgb(0%,0%,0%);fill-opacity:1;" d="M 304.773438 201.410156 C 304.097656 201.410156 303.589844 201.742188 303.246094 202.410156 C 302.90625 203.074219 302.738281 204.078125 302.738281 205.414062 C 302.738281 206.746094 302.90625 207.746094 303.246094 208.414062 C 303.589844 209.078125 304.097656 209.414062 304.773438 209.414062 C 305.457031 209.414062 305.96875 209.078125 306.308594 208.414062 C 306.648438 207.746094 306.820312 206.746094 306.820312 205.414062 C 306.820312 204.078125 306.648438 203.074219 306.308594 202.410156 C 305.96875 201.742188 305.457031 201.410156 304.773438 201.410156 Z M 304.773438 200.367188 C 305.863281 200.367188 306.699219 200.800781 307.273438 201.664062 C 307.847656 202.523438 308.136719 203.773438 308.136719 205.414062 C 308.136719 207.050781 307.847656 208.300781 307.273438 209.164062 C 306.699219 210.023438 305.863281 210.453125 304.773438 210.453125 C 303.6875 210.453125 302.855469 210.023438 302.277344 209.164062 C 301.703125 208.300781 301.417969 207.050781 301.417969 205.414062 C 301.417969 203.773438 301.703125 202.523438 302.277344 201.664062 C 302.855469 200.800781 303.6875 200.367188 304.773438 200.367188 Z M 304.773438 200.367188 "/>
<path style=" stroke:none;fill-rule:nonzero;fill:rgb(0%,0%,0%);fill-opacity:1;" d="M 157.527344 224.554688 L 157.527344 225.140625 L 152.019531 225.140625 C 152.070312 225.964844 152.320312 226.59375 152.765625 227.027344 C 153.210938 227.460938 153.828125 227.675781 154.621094 227.675781 C 155.082031 227.675781 155.527344 227.617188 155.960938 227.507812 C 156.390625 227.394531 156.820312 227.222656 157.246094 226.996094 L 157.246094 228.132812 C 156.816406 228.3125 156.375 228.453125 155.925781 228.546875 C 155.472656 228.644531 155.015625 228.691406 154.550781 228.691406 C 153.386719 228.691406 152.464844 228.351562 151.789062 227.675781 C 151.109375 227 150.769531 226.082031 150.769531 224.925781 C 150.769531 223.734375 151.089844 222.789062 151.734375 222.085938 C 152.378906 221.386719 153.25 221.035156 154.34375 221.035156 C 155.324219 221.035156 156.101562 221.351562 156.671875 221.984375 C 157.242188 222.613281 157.527344 223.472656 157.527344 224.554688 Z M 156.328125 224.203125 C 156.320312 223.550781 156.136719 223.027344 155.777344 222.636719 C 155.421875 222.246094 154.945312 222.050781 154.355469 222.050781 C 153.6875 222.050781 153.152344 222.238281 152.753906 222.617188 C 152.351562 222.996094 152.121094 223.527344 152.058594 224.210938 Z M 156.328125 224.203125 "/>
<path style=" stroke:none;fill-rule:nonzero;fill:rgb(0%,0%,0%);fill-opacity:1;" d="M 160.652344 227.410156 L 160.652344 231.273438 L 159.445312 231.273438 L 159.445312 221.210938 L 160.652344 221.210938 L 160.652344 222.316406 C 160.902344 221.882812 161.222656 221.5625 161.605469 221.351562 C 161.988281 221.140625 162.449219 221.035156 162.980469 221.035156 C 163.867188 221.035156 164.585938 221.386719 165.140625 222.089844 C 165.695312 222.792969 165.972656 223.714844 165.972656 224.863281 C 165.972656 226.007812 165.695312 226.933594 165.140625 227.636719 C 164.585938 228.339844 163.867188 228.691406 162.980469 228.691406 C 162.449219 228.691406 161.988281 228.585938 161.605469 228.375 C 161.222656 228.164062 160.902344 227.839844 160.652344 227.410156 Z M 164.726562 224.863281 C 164.726562 223.980469 164.546875 223.289062 164.183594 222.789062 C 163.820312 222.289062 163.324219 222.039062 162.691406 222.039062 C 162.054688 222.039062 161.558594 222.289062 161.195312 222.789062 C 160.832031 223.289062 160.652344 223.980469 160.652344 224.863281 C 160.652344 225.742188 160.832031 226.433594 161.195312 226.933594 C 161.558594 227.4375 162.054688 227.6875 162.691406 227.6875 C 163.324219 227.6875 163.820312 227.4375 164.183594 226.933594 C 164.546875 226.433594 164.726562 225.742188 164.726562 224.863281 Z M 164.726562 224.863281 "/>
<path style=" stroke:none;fill-rule:nonzero;fill:rgb(0%,0%,0%);fill-opacity:1;" d="M 170.78125 222.050781 C 170.140625 222.050781 169.632812 222.300781 169.257812 222.800781 C 168.882812 223.304688 168.699219 223.992188 168.699219 224.863281 C 168.699219 225.734375 168.882812 226.421875 169.253906 226.921875 C 169.625 227.425781 170.136719 227.675781 170.78125 227.675781 C 171.421875 227.675781 171.925781 227.421875 172.296875 226.921875 C 172.671875 226.417969 172.859375 225.730469 172.859375 224.863281 C 172.859375 224 172.671875 223.3125 172.296875 222.808594 C 171.925781 222.304688 171.421875 222.050781 170.78125 222.050781 Z M 170.78125 221.035156 C 171.824219 221.035156 172.640625 221.375 173.234375 222.050781 C 173.832031 222.726562 174.128906 223.664062 174.128906 224.863281 C 174.128906 226.054688 173.832031 226.992188 173.234375 227.671875 C 172.640625 228.351562 171.824219 228.691406 170.78125 228.691406 C 169.734375 228.691406 168.914062 228.351562 168.324219 227.671875 C 167.730469 226.992188 167.433594 226.054688 167.433594 224.863281 C 167.433594 223.664062 167.730469 222.726562 168.324219 222.050781 C 168.914062 221.375 169.734375 221.035156 170.78125 221.035156 Z M 170.78125 221.035156 "/>
<path style=" stroke:none;fill-rule:nonzero;fill:rgb(0%,0%,0%);fill-opacity:1;" d="M 181.363281 221.488281 L 181.363281 222.609375 C 181.023438 222.421875 180.683594 222.28125 180.34375 222.191406 C 180.003906 222.097656 179.660156 222.050781 179.3125 222.050781 C 178.535156 222.050781 177.929688 222.296875 177.5 222.789062 C 177.070312 223.28125 176.855469 223.972656 176.855469 224.863281 C 176.855469 225.753906 177.070312 226.445312 177.5 226.9375 C 177.929688 227.429688 178.535156 227.675781 179.3125 227.675781 C 179.660156 227.675781 180.003906 227.628906 180.34375 227.535156 C 180.683594 227.441406 181.023438 227.300781 181.363281 227.113281 L 181.363281 228.222656 C 181.027344 228.378906 180.679688 228.496094 180.320312 228.574219 C 179.964844 228.652344 179.585938 228.691406 179.179688 228.691406 C 178.082031 228.691406 177.207031 228.347656 176.5625 227.65625 C 175.914062 226.964844 175.59375 226.035156 175.59375 224.863281 C 175.59375 223.671875 175.917969 222.738281 176.570312 222.058594 C 177.226562 221.375 178.121094 221.035156 179.257812 221.035156 C 179.628906 221.035156 179.988281 221.074219 180.339844 221.148438 C 180.691406 221.226562 181.03125 221.339844 181.363281 221.488281 Z M 181.363281 221.488281 "/>
<path style=" stroke:none;fill-rule:nonzero;fill:rgb(0%,0%,0%);fill-opacity:1;" d="M 189.507812 224.101562 L 189.507812 228.503906 L 188.308594 228.503906 L 188.308594 224.140625 C 188.308594 223.449219 188.175781 222.933594 187.90625 222.589844 C 187.636719 222.25 187.230469 222.078125 186.695312 222.078125 C 186.046875 222.078125 185.535156 222.285156 185.164062 222.695312 C 184.789062 223.105469 184.601562 223.667969 184.601562 224.382812 L 184.601562 228.503906 L 183.398438 228.503906 L 183.398438 218.371094 L 184.601562 218.371094 L 184.601562 222.34375 C 184.890625 221.90625 185.226562 221.578125 185.617188 221.359375 C 186.003906 221.144531 186.453125 221.035156 186.960938 221.035156 C 187.796875 221.035156 188.433594 221.292969 188.859375 221.8125 C 189.292969 222.332031 189.507812 223.09375 189.507812 224.101562 Z M 189.507812 224.101562 "/>
<g clip-path="url(#clip6)" clip-rule="nonzero">
<path style="fill:none;stroke-width:0.8;stroke-linecap:square;stroke-linejoin:round;stroke:rgb(69.01961%,69.01961%,69.01961%);stroke-opacity:1;stroke-miterlimit:4;" d="M 30.102539 142.40625 L 225.404297 142.40625 " transform="matrix(1.333333,0,0,1.333333,0.000000000000028422,0)"/>
</g>
<path style="fill:none;stroke-width:0.8;stroke-linecap:butt;stroke-linejoin:round;stroke:rgb(0%,0%,0%);stroke-opacity:1;stroke-miterlimit:4;" d="M -0.000585556 0.000183105 L -3.498632 0.000183105 " transform="matrix(1.333333,0,0,1.333333,40.137499,189.874756)"/>
<path style=" stroke:none;fill-rule:nonzero;fill:rgb(0%,0%,0%);fill-opacity:1;" d="M 13.835938 186.085938 C 13.160156 186.085938 12.652344 186.417969 12.308594 187.085938 C 11.96875 187.75 11.800781 188.753906 11.800781 190.089844 C 11.800781 191.421875 11.96875 192.421875 12.308594 193.089844 C 12.652344 193.753906 13.160156 194.089844 13.835938 194.089844 C 14.519531 194.089844 15.03125 193.753906 15.371094 193.089844 C 15.710938 192.421875 15.882812 191.421875 15.882812 190.089844 C 15.882812 188.753906 15.710938 187.75 15.371094 187.085938 C 15.03125 186.417969 14.519531 186.085938 13.835938 186.085938 Z M 13.835938 185.042969 C 14.929688 185.042969 15.761719 185.476562 16.335938 186.339844 C 16.910156 187.199219 17.199219 188.449219 17.199219 190.089844 C 17.199219 191.726562 16.910156 192.976562 16.335938 193.839844 C 15.761719 194.699219 14.929688 195.128906 13.835938 195.128906 C 12.75 195.128906 11.917969 194.699219 11.339844 193.839844 C 10.765625 192.976562 10.480469 191.726562 10.480469 190.089844 C 10.480469 188.449219 10.765625 187.199219 11.339844 186.339844 C 11.917969 185.476562 12.75 185.042969 13.835938 185.042969 Z M 13.835938 185.042969 "/>
<path style=" stroke:none;fill-rule:nonzero;fill:rgb(0%,0%,0%);fill-opacity:1;" d="M 19.507812 193.285156 L 20.882812 193.285156 L 20.882812 194.941406 L 19.507812 194.941406 Z M 19.507812 193.285156 "/>
<path style=" stroke:none;fill-rule:nonzero;fill:rgb(0%,0%,0%);fill-opacity:1;" d="M 26.558594 186.085938 C 25.882812 186.085938 25.375 186.417969 25.03125 187.085938 C 24.691406 187.75 24.519531 188.753906 24.519531 190.089844 C 24.519531 191.421875 24.691406 192.421875 25.03125 193.089844 C 25.375 193.753906 25.882812 194.089844 26.558594 194.089844 C 27.242188 194.089844 27.75 193.753906 28.09375 193.089844 C 28.433594 192.421875 28.605469 191.421875 28.605469 190.089844 C 28.605469 188.753906 28.433594 187.75 28.09375 187.085938 C 27.75 186.417969 27.242188 186.085938 26.558594 186.085938 Z M 26.558594 185.042969 C 27.648438 185.042969 28.480469 185.476562 29.058594 186.339844 C 29.632812 187.199219 29.917969 188.449219 29.917969 190.089844 C 29.917969 191.726562 29.632812 192.976562 29.058594 193.839844 C 28.480469 194.699219 27.648438 195.128906 26.558594 195.128906 C 25.46875 195.128906 24.636719 194.699219 24.0625 193.839844 C 23.488281 192.976562 23.199219 191.726562 23.199219 190.089844 C 23.199219 188.449219 23.488281 187.199219 24.0625 186.339844 C 24.636719 185.476562 25.46875 185.042969 26.558594 185.042969 Z M 26.558594 185.042969 "/>
<g clip-path="url(#clip7)" clip-rule="nonzero">
<path style="fill:none;stroke-width:0.8;stroke-linecap:square;stroke-linejoin:round;stroke:rgb(69.01961%,69.01961%,69.01961%);stroke-opacity:1;stroke-miterlimit:4;" d="M 30.102539 114.990234 L 225.404297 114.990234 " transform="matrix(1.333333,0,0,1.333333,0.000000000000028422,0)"/>
</g>
<path style="fill:none;stroke-width:0.8;stroke-linecap:butt;stroke-linejoin:round;stroke:rgb(0%,0%,0%);stroke-opacity:1;stroke-miterlimit:4;" d="M -0.000585556 0.000839233 L -3.498632 0.000839233 " transform="matrix(1.333333,0,0,1.333333,40.137499,153.319194)"/>
<path style=" stroke:none;fill-rule:nonzero;fill:rgb(0%,0%,0%);fill-opacity:1;" d="M 13.835938 149.53125 C 13.160156 149.53125 12.652344 149.863281 12.308594 150.53125 C 11.96875 151.195312 11.800781 152.199219 11.800781 153.535156 C 11.800781 154.867188 11.96875 155.867188 12.308594 156.53125 C 12.652344 157.199219 13.160156 157.53125 13.835938 157.53125 C 14.519531 157.53125 15.03125 157.199219 15.371094 156.53125 C 15.710938 155.867188 15.882812 154.867188 15.882812 153.535156 C 15.882812 152.199219 15.710938 151.195312 15.371094 150.53125 C 15.03125 149.863281 14.519531 149.53125 13.835938 149.53125 Z M 13.835938 148.488281 C 14.929688 148.488281 15.761719 148.921875 16.335938 149.78125 C 16.910156 150.644531 17.199219 151.894531 17.199219 153.535156 C 17.199219 155.171875 16.910156 156.421875 16.335938 157.28125 C 15.761719 158.144531 14.929688 158.574219 13.835938 158.574219 C 12.75 158.574219 11.917969 158.144531 11.339844 157.28125 C 10.765625 156.421875 10.480469 155.171875 10.480469 153.535156 C 10.480469 151.894531 10.765625 150.644531 11.339844 149.78125 C 11.917969 148.921875 12.75 148.488281 13.835938 148.488281 Z M 13.835938 148.488281 "/>
<path style=" stroke:none;fill-rule:nonzero;fill:rgb(0%,0%,0%);fill-opacity:1;" d="M 19.507812 156.730469 L 20.882812 156.730469 L 20.882812 158.386719 L 19.507812 158.386719 Z M 19.507812 156.730469 "/>
<path style=" stroke:none;fill-rule:nonzero;fill:rgb(0%,0%,0%);fill-opacity:1;" d="M 23.761719 148.664062 L 28.921875 148.664062 L 28.921875 149.773438 L 24.964844 149.773438 L 24.964844 152.152344 C 25.15625 152.089844 25.34375 152.039062 25.535156 152.007812 C 25.726562 151.976562 25.917969 151.960938 26.109375 151.960938 C 27.195312 151.960938 28.054688 152.257812 28.6875 152.851562 C 29.324219 153.445312 29.640625 154.25 29.640625 155.265625 C 29.640625 156.3125 29.3125 157.125 28.664062 157.707031 C 28.011719 158.285156 27.09375 158.574219 25.910156 158.574219 C 25.5 158.574219 25.085938 158.539062 24.660156 158.46875 C 24.238281 158.402344 23.800781 158.296875 23.351562 158.15625 L 23.351562 156.835938 C 23.742188 157.046875 24.144531 157.207031 24.5625 157.308594 C 24.976562 157.414062 25.417969 157.464844 25.882812 157.464844 C 26.632812 157.464844 27.226562 157.269531 27.664062 156.875 C 28.105469 156.480469 28.324219 155.945312 28.324219 155.265625 C 28.324219 154.589844 28.105469 154.054688 27.664062 153.660156 C 27.226562 153.265625 26.632812 153.066406 25.882812 153.066406 C 25.53125 153.066406 25.179688 153.105469 24.828125 153.183594 C 24.480469 153.261719 24.125 153.382812 23.761719 153.546875 Z M 23.761719 148.664062 "/>
<g clip-path="url(#clip8)" clip-rule="nonzero">
<path style="fill:none;stroke-width:0.8;stroke-linecap:square;stroke-linejoin:round;stroke:rgb(69.01961%,69.01961%,69.01961%);stroke-opacity:1;stroke-miterlimit:4;" d="M 30.102539 87.571289 L 225.404297 87.571289 " transform="matrix(1.333333,0,0,1.333333,0.000000000000028422,0)"/>
</g>
<path style="fill:none;stroke-width:0.8;stroke-linecap:butt;stroke-linejoin:round;stroke:rgb(0%,0%,0%);stroke-opacity:1;stroke-miterlimit:4;" d="M -0.000585556 -0.00144196 L -3.498632 -0.00144196 " transform="matrix(1.333333,0,0,1.333333,40.137499,116.763641)"/>
<path style=" stroke:none;fill-rule:nonzero;fill:rgb(0%,0%,0%);fill-opacity:1;" d="M 11.253906 120.722656 L 13.402344 120.722656 L 13.402344 113.304688 L 11.066406 113.773438 L 11.066406 112.578125 L 13.390625 112.109375 L 14.703125 112.109375 L 14.703125 120.722656 L 16.851562 120.722656 L 16.851562 121.828125 L 11.253906 121.828125 Z M 11.253906 120.722656 "/>
<path style=" stroke:none;fill-rule:nonzero;fill:rgb(0%,0%,0%);fill-opacity:1;" d="M 19.507812 120.175781 L 20.882812 120.175781 L 20.882812 121.828125 L 19.507812 121.828125 Z M 19.507812 120.175781 "/>
<path style=" stroke:none;fill-rule:nonzero;fill:rgb(0%,0%,0%);fill-opacity:1;" d="M 26.558594 112.976562 C 25.882812 112.976562 25.375 113.308594 25.03125 113.976562 C 24.691406 114.640625 24.519531 115.640625 24.519531 116.980469 C 24.519531 118.3125 24.691406 119.308594 25.03125 119.976562 C 25.375 120.644531 25.882812 120.976562 26.558594 120.976562 C 27.242188 120.976562 27.75 120.644531 28.09375 119.976562 C 28.433594 119.308594 28.605469 118.3125 28.605469 116.980469 C 28.605469 115.640625 28.433594 114.640625 28.09375 113.976562 C 27.75 113.308594 27.242188 112.976562 26.558594 112.976562 Z M 26.558594 111.933594 C 27.648438 111.933594 28.480469 112.363281 29.058594 113.226562 C 29.632812 114.089844 29.917969 115.339844 29.917969 116.980469 C 29.917969 118.617188 29.632812 119.863281 29.058594 120.726562 C 28.480469 121.589844 27.648438 122.019531 26.558594 122.019531 C 25.46875 122.019531 24.636719 121.589844 24.0625 120.726562 C 23.488281 119.863281 23.199219 118.617188 23.199219 116.980469 C 23.199219 115.339844 23.488281 114.089844 24.0625 113.226562 C 24.636719 112.363281 25.46875 111.933594 26.558594 111.933594 Z M 26.558594 111.933594 "/>
<g clip-path="url(#clip9)" clip-rule="nonzero">
<path style="fill:none;stroke-width:0.8;stroke-linecap:square;stroke-linejoin:round;stroke:rgb(69.01961%,69.01961%,69.01961%);stroke-opacity:1;stroke-miterlimit:4;" d="M 30.102539 60.155273 L 225.404297 60.155273 " transform="matrix(1.333333,0,0,1.333333,0.000000000000028422,0)"/>
</g>
<path style="fill:none;stroke-width:0.8;stroke-linecap:butt;stroke-linejoin:round;stroke:rgb(0%,0%,0%);stroke-opacity:1;stroke-miterlimit:4;" d="M -0.000585556 -0.000789642 L -3.498632 -0.000789642 " transform="matrix(1.333333,0,0,1.333333,40.137499,80.208084)"/>
<path style=" stroke:none;fill-rule:nonzero;fill:rgb(0%,0%,0%);fill-opacity:1;" d="M 11.253906 84.167969 L 13.402344 84.167969 L 13.402344 76.75 L 11.066406 77.21875 L 11.066406 76.023438 L 13.390625 75.554688 L 14.703125 75.554688 L 14.703125 84.167969 L 16.851562 84.167969 L 16.851562 85.273438 L 11.253906 85.273438 Z M 11.253906 84.167969 "/>
<path style=" stroke:none;fill-rule:nonzero;fill:rgb(0%,0%,0%);fill-opacity:1;" d="M 19.507812 83.621094 L 20.882812 83.621094 L 20.882812 85.273438 L 19.507812 85.273438 Z M 19.507812 83.621094 "/>
<path style=" stroke:none;fill-rule:nonzero;fill:rgb(0%,0%,0%);fill-opacity:1;" d="M 23.761719 75.554688 L 28.921875 75.554688 L 28.921875 76.660156 L 24.964844 76.660156 L 24.964844 79.042969 C 25.15625 78.976562 25.34375 78.929688 25.535156 78.898438 C 25.726562 78.863281 25.917969 78.847656 26.109375 78.847656 C 27.195312 78.847656 28.054688 79.144531 28.6875 79.742188 C 29.324219 80.335938 29.640625 81.140625 29.640625 82.15625 C 29.640625 83.199219 29.3125 84.015625 28.664062 84.59375 C 28.011719 85.171875 27.09375 85.464844 25.910156 85.464844 C 25.5 85.464844 25.085938 85.429688 24.660156 85.359375 C 24.238281 85.289062 23.800781 85.183594 23.351562 85.046875 L 23.351562 83.722656 C 23.742188 83.9375 24.144531 84.09375 24.5625 84.199219 C 24.976562 84.304688 25.417969 84.355469 25.882812 84.355469 C 26.632812 84.355469 27.226562 84.15625 27.664062 83.761719 C 28.105469 83.367188 28.324219 82.832031 28.324219 82.15625 C 28.324219 81.480469 28.105469 80.941406 27.664062 80.546875 C 27.226562 80.152344 26.632812 79.953125 25.882812 79.953125 C 25.53125 79.953125 25.179688 79.992188 24.828125 80.070312 C 24.480469 80.148438 24.125 80.269531 23.761719 80.4375 Z M 23.761719 75.554688 "/>
<g clip-path="url(#clip10)" clip-rule="nonzero">
<path style="fill:none;stroke-width:0.8;stroke-linecap:square;stroke-linejoin:round;stroke:rgb(69.01961%,69.01961%,69.01961%);stroke-opacity:1;stroke-miterlimit:4;" d="M 30.102539 32.739258 L 225.404297 32.739258 " transform="matrix(1.333333,0,0,1.333333,0.000000000000028422,0)"/>
</g>
<path style="fill:none;stroke-width:0.8;stroke-linecap:butt;stroke-linejoin:round;stroke:rgb(0%,0%,0%);stroke-opacity:1;stroke-miterlimit:4;" d="M -0.000585556 -0.000141144 L -3.498632 -0.000141144 " transform="matrix(1.333333,0,0,1.333333,40.137499,43.652532)"/>
<path style=" stroke:none;fill-rule:nonzero;fill:rgb(0%,0%,0%);fill-opacity:1;" d="M 12.160156 47.613281 L 16.746094 47.613281 L 16.746094 48.71875 L 10.578125 48.71875 L 10.578125 47.613281 C 11.074219 47.09375 11.753906 46.402344 12.617188 45.53125 C 13.480469 44.660156 14.019531 44.101562 14.242188 43.847656 C 14.664062 43.375 14.957031 42.976562 15.121094 42.648438 C 15.289062 42.320312 15.375 41.996094 15.375 41.679688 C 15.375 41.164062 15.195312 40.742188 14.832031 40.417969 C 14.46875 40.089844 13.996094 39.929688 13.414062 39.929688 C 13.003906 39.929688 12.566406 40 12.109375 40.144531 C 11.652344 40.285156 11.164062 40.503906 10.640625 40.796875 L 10.640625 39.464844 C 11.171875 39.253906 11.664062 39.09375 12.125 38.984375 C 12.585938 38.875 13.007812 38.824219 13.390625 38.824219 C 14.398438 38.824219 15.199219 39.074219 15.796875 39.578125 C 16.398438 40.082031 16.695312 40.753906 16.695312 41.59375 C 16.695312 41.996094 16.621094 42.375 16.472656 42.734375 C 16.320312 43.089844 16.050781 43.511719 15.652344 43.996094 C 15.546875 44.125 15.199219 44.488281 14.617188 45.089844 C 14.039062 45.691406 13.21875 46.53125 12.160156 47.613281 Z M 12.160156 47.613281 "/>
<path style=" stroke:none;fill-rule:nonzero;fill:rgb(0%,0%,0%);fill-opacity:1;" d="M 19.507812 47.0625 L 20.882812 47.0625 L 20.882812 48.71875 L 19.507812 48.71875 Z M 19.507812 47.0625 "/>
<path style=" stroke:none;fill-rule:nonzero;fill:rgb(0%,0%,0%);fill-opacity:1;" d="M 26.558594 39.863281 C 25.882812 39.863281 25.375 40.199219 25.03125 40.863281 C 24.691406 41.527344 24.519531 42.53125 24.519531 43.867188 C 24.519531 45.199219 24.691406 46.199219 25.03125 46.867188 C 25.375 47.53125 25.882812 47.867188 26.558594 47.867188 C 27.242188 47.867188 27.75 47.53125 28.09375 46.867188 C 28.433594 46.199219 28.605469 45.199219 28.605469 43.867188 C 28.605469 42.53125 28.433594 41.527344 28.09375 40.863281 C 27.75 40.199219 27.242188 39.863281 26.558594 39.863281 Z M 26.558594 38.824219 C 27.648438 38.824219 28.480469 39.253906 29.058594 40.117188 C 29.632812 40.976562 29.917969 42.226562 29.917969 43.867188 C 29.917969 45.503906 29.632812 46.753906 29.058594 47.617188 C 28.480469 48.476562 27.648438 48.90625 26.558594 48.90625 C 25.46875 48.90625 24.636719 48.476562 24.0625 47.617188 C 23.488281 46.753906 23.199219 45.503906 23.199219 43.867188 C 23.199219 42.226562 23.488281 40.976562 24.0625 40.117188 C 24.636719 39.253906 25.46875 38.824219 26.558594 38.824219 Z M 26.558594 38.824219 "/>
<g clip-path="url(#clip11)" clip-rule="nonzero">
<path style="fill:none;stroke-width:1.5;stroke-linecap:square;stroke-linejoin:round;stroke:rgb(12.156863%,46.666667%,70.588237%);stroke-opacity:1;stroke-miterlimit:4;" d="M 12.744141 13.376953 L 17.083008 14.481445 L 21.421875 14.900391 L 25.763672 15.149414 L 30.102539 15.322266 L 34.444336 16.250977 L 38.783203 17.765625 L 43.12207 27.870117 L 47.463867 39.28418 L 51.802734 47.768555 L 56.144531 86.027344 L 60.483398 88.001953 L 64.822266 89.232422 L 69.164062 90.354492 L 73.50293 91.517578 L 77.841797 97.728516 L 82.183594 99.014648 L 86.522461 99.834961 L 90.864258 100.669922 L 95.203125 101.305664 L 99.541992 105.861328 L 103.883789 105.181641 L 108.222656 105.421875 L 112.564453 105.826172 L 116.90332 105.952148 L 121.242187 107.994141 L 125.583984 108.249023 L 129.922852 108.380859 L 134.261719 108.773438 L 138.603516 109.057617 L 142.942383 109.933594 L 147.28418 110.625 L 151.623047 111.043945 L 155.961914 111.202148 L 160.303711 111.395508 L 164.642578 113.481445 L 168.984375 113.258789 L 173.323242 113.416992 L 177.662109 113.683594 L 182.003906 113.835938 L 186.342773 114.799805 L 190.68457 114.708984 L 195.023437 115.125 L 199.362305 115.066406 L 203.704102 115.201172 L 208.042969 116.551758 L 212.381836 116.425781 L 216.723633 116.261719 L 221.0625 116.449219 L 225.404297 116.680664 " transform="matrix(1.333333,0,0,1.333333,0.000000000000028422,0)"/>
</g>
<g clip-path="url(#clip12)" clip-rule="nonzero">
<path style="fill:none;stroke-width:1.5;stroke-linecap:butt;stroke-linejoin:round;stroke:rgb(74.901962%,0%,74.901962%);stroke-opacity:1;stroke-dasharray:5.55,2.4;stroke-miterlimit:4;" d="M 12.744141 136.760742 L 17.083008 136.804688 L 21.421875 136.916016 L 25.763672 136.87793 L 30.102539 136.875 L 34.444336 136.541016 L 38.783203 135.005859 L 43.12207 131.496094 L 47.463867 127.514648 L 51.802734 124.508789 L 56.144531 110.62793 L 60.483398 109.702148 L 64.822266 109.101562 L 69.164062 108.541992 L 73.50293 107.941406 L 77.841797 104.835938 L 82.183594 104.481445 L 86.522461 104.15332 L 90.864258 103.78418 L 95.203125 103.564453 L 99.541992 101.956055 L 103.883789 102.155273 L 108.222656 102.131836 L 112.564453 101.973633 L 116.90332 101.90918 L 121.242187 101.056641 L 125.583984 100.907227 L 129.922852 100.816406 L 134.261719 100.634766 L 138.603516 100.476562 L 142.942383 100.227539 L 147.28418 99.916992 L 151.623047 99.758789 L 155.961914 99.676758 L 160.303711 99.568359 L 164.642578 98.686523 L 168.984375 98.806641 L 173.323242 98.695312 L 177.662109 98.569336 L 182.003906 98.481445 L 186.342773 98.150391 L 190.68457 98.106445 L 195.023437 97.886719 L 199.362305 97.892578 L 203.704102 97.839844 L 208.042969 97.180664 L 212.381836 97.186523 L 216.723633 97.30957 L 221.0625 97.347656 L 225.404297 97.262695 " transform="matrix(1.333333,0,0,1.333333,0.000000000000028422,0)"/>
</g>
<g clip-path="url(#clip13)" clip-rule="nonzero">
<path style="fill:none;stroke-width:1.5;stroke-linecap:butt;stroke-linejoin:round;stroke:rgb(0%,50.196081%,0%);stroke-opacity:1;stroke-dasharray:9.6,2.4,1.5,2.4;stroke-miterlimit:4;" d="M 30.102539 136.921875 L 51.802734 112.391602 L 73.50293 105.125977 L 95.203125 104.018555 L 116.90332 103.321289 L 138.603516 101.466797 L 160.303711 99.975586 L 182.003906 100.59668 L 203.704102 98.226562 L 225.404297 99.662109 " transform="matrix(1.333333,0,0,1.333333,0.000000000000028422,0)"/>
</g>
<path style="fill:none;stroke-width:0.8;stroke-linecap:square;stroke-linejoin:miter;stroke:rgb(0%,0%,0%);stroke-opacity:1;stroke-miterlimit:4;" d="M 30.102539 143.100586 L 30.102539 7.201172 " transform="matrix(1.333333,0,0,1.333333,0.000000000000028422,0)"/>
<path style="fill:none;stroke-width:0.8;stroke-linecap:square;stroke-linejoin:miter;stroke:rgb(0%,0%,0%);stroke-opacity:1;stroke-miterlimit:4;" d="M 225.404297 143.100586 L 225.404297 7.201172 " transform="matrix(1.333333,0,0,1.333333,0.000000000000028422,0)"/>
<path style="fill:none;stroke-width:0.8;stroke-linecap:square;stroke-linejoin:miter;stroke:rgb(0%,0%,0%);stroke-opacity:1;stroke-miterlimit:4;" d="M 30.102539 143.100586 L 225.404297 143.100586 " transform="matrix(1.333333,0,0,1.333333,0.000000000000028422,0)"/>
<path style="fill:none;stroke-width:0.8;stroke-linecap:square;stroke-linejoin:miter;stroke:rgb(0%,0%,0%);stroke-opacity:1;stroke-miterlimit:4;" d="M 30.102539 7.201172 L 225.404297 7.201172 " transform="matrix(1.333333,0,0,1.333333,0.000000000000028422,0)"/>
<use xlink:href="#surface5" mask="url(#mask0)"/>
<path style="fill:none;stroke-width:1.5;stroke-linecap:square;stroke-linejoin:round;stroke:rgb(12.156863%,46.666667%,70.588237%);stroke-opacity:1;stroke-miterlimit:4;" d="M 142.634766 20.299805 L 162.635742 20.299805 " transform="matrix(1.333333,0,0,1.333333,0.000000000000028422,0)"/>
<path style=" stroke:none;fill-rule:nonzero;fill:rgb(0%,0%,0%);fill-opacity:1;" d="M 229.953125 22.367188 L 229.953125 24.441406 L 232.421875 24.441406 L 232.421875 25.371094 L 229.953125 25.371094 L 229.953125 29.328125 C 229.953125 29.921875 230.035156 30.304688 230.199219 30.476562 C 230.359375 30.644531 230.691406 30.730469 231.191406 30.730469 L 232.421875 30.730469 L 232.421875 31.730469 L 231.191406 31.730469 C 230.265625 31.730469 229.628906 31.558594 229.277344 31.214844 C 228.925781 30.867188 228.75 30.242188 228.75 29.328125 L 228.75 25.371094 L 227.871094 25.371094 L 227.871094 24.441406 L 228.75 24.441406 L 228.75 22.367188 Z M 229.953125 22.367188 "/>
<path style=" stroke:none;fill-rule:nonzero;fill:rgb(0%,0%,0%);fill-opacity:1;" d="M 238.222656 25.558594 C 238.085938 25.480469 237.941406 25.421875 237.78125 25.386719 C 237.625 25.351562 237.449219 25.332031 237.257812 25.332031 C 236.582031 25.332031 236.0625 25.550781 235.699219 25.992188 C 235.335938 26.433594 235.15625 27.066406 235.15625 27.890625 L 235.15625 31.730469 L 233.949219 31.730469 L 233.949219 24.441406 L 235.15625 24.441406 L 235.15625 25.574219 C 235.40625 25.128906 235.734375 24.800781 236.136719 24.585938 C 236.542969 24.371094 237.035156 24.265625 237.609375 24.265625 C 237.691406 24.265625 237.785156 24.269531 237.882812 24.28125 C 237.984375 24.289062 238.09375 24.308594 238.214844 24.328125 Z M 238.222656 25.558594 "/>
<path style=" stroke:none;fill-rule:nonzero;fill:rgb(0%,0%,0%);fill-opacity:1;" d="M 242.792969 28.066406 C 241.824219 28.066406 241.152344 28.175781 240.78125 28.398438 C 240.40625 28.617188 240.21875 28.996094 240.21875 29.53125 C 240.21875 29.957031 240.359375 30.292969 240.640625 30.542969 C 240.921875 30.792969 241.300781 30.917969 241.78125 30.917969 C 242.449219 30.917969 242.980469 30.679688 243.382812 30.210938 C 243.785156 29.738281 243.984375 29.113281 243.984375 28.332031 L 243.984375 28.066406 Z M 245.183594 27.570312 L 245.183594 31.730469 L 243.984375 31.730469 L 243.984375 30.625 C 243.710938 31.066406 243.371094 31.394531 242.960938 31.605469 C 242.554688 31.816406 242.054688 31.921875 241.464844 31.921875 C 240.71875 31.921875 240.125 31.710938 239.683594 31.292969 C 239.242188 30.871094 239.023438 30.3125 239.023438 29.609375 C 239.023438 28.789062 239.296875 28.171875 239.84375 27.753906 C 240.394531 27.335938 241.214844 27.128906 242.304688 27.128906 L 243.984375 27.128906 L 243.984375 27.011719 C 243.984375 26.460938 243.804688 26.03125 243.441406 25.730469 C 243.078125 25.429688 242.570312 25.277344 241.914062 25.277344 C 241.496094 25.277344 241.089844 25.328125 240.695312 25.429688 C 240.300781 25.527344 239.921875 25.679688 239.558594 25.878906 L 239.558594 24.769531 C 239.996094 24.601562 240.421875 24.476562 240.832031 24.390625 C 241.246094 24.308594 241.644531 24.265625 242.035156 24.265625 C 243.09375 24.265625 243.878906 24.539062 244.402344 25.085938 C 244.921875 25.632812 245.183594 26.460938 245.183594 27.570312 Z M 245.183594 27.570312 "/>
<path style=" stroke:none;fill-rule:nonzero;fill:rgb(0%,0%,0%);fill-opacity:1;" d="M 247.648438 24.441406 L 248.847656 24.441406 L 248.847656 31.730469 L 247.648438 31.730469 Z M 247.648438 21.601562 L 248.847656 21.601562 L 248.847656 23.117188 L 247.648438 23.117188 Z M 247.648438 21.601562 "/>
<path style=" stroke:none;fill-rule:nonzero;fill:rgb(0%,0%,0%);fill-opacity:1;" d="M 257.414062 27.328125 L 257.414062 31.730469 L 256.21875 31.730469 L 256.21875 27.367188 C 256.21875 26.679688 256.082031 26.164062 255.8125 25.820312 C 255.542969 25.476562 255.140625 25.304688 254.601562 25.304688 C 253.957031 25.304688 253.445312 25.511719 253.070312 25.925781 C 252.699219 26.335938 252.511719 26.898438 252.511719 27.609375 L 252.511719 31.730469 L 251.308594 31.730469 L 251.308594 24.441406 L 252.511719 24.441406 L 252.511719 25.574219 C 252.800781 25.132812 253.136719 24.804688 253.523438 24.589844 C 253.914062 24.371094 254.363281 24.265625 254.871094 24.265625 C 255.707031 24.265625 256.339844 24.523438 256.769531 25.042969 C 257.199219 25.558594 257.414062 26.320312 257.414062 27.328125 Z M 257.414062 27.328125 "/>
<path style=" stroke:none;fill-rule:nonzero;fill:rgb(0%,0%,0%);fill-opacity:1;" d="M 264.042969 21.601562 L 265.238281 21.601562 L 265.238281 31.730469 L 264.042969 31.730469 Z M 264.042969 21.601562 "/>
<path style=" stroke:none;fill-rule:nonzero;fill:rgb(0%,0%,0%);fill-opacity:1;" d="M 270.570312 25.277344 C 269.929688 25.277344 269.421875 25.53125 269.046875 26.03125 C 268.675781 26.53125 268.488281 27.21875 268.488281 28.089844 C 268.488281 28.964844 268.671875 29.652344 269.042969 30.152344 C 269.417969 30.652344 269.925781 30.902344 270.570312 30.902344 C 271.210938 30.902344 271.714844 30.652344 272.089844 30.148438 C 272.460938 29.644531 272.648438 28.960938 272.648438 28.089844 C 272.648438 27.226562 272.460938 26.542969 272.089844 26.039062 C 271.714844 25.53125 271.210938 25.277344 270.570312 25.277344 Z M 270.570312 24.265625 C 271.613281 24.265625 272.429688 24.601562 273.027344 25.28125 C 273.621094 25.957031 273.917969 26.894531 273.917969 28.089844 C 273.917969 29.285156 273.621094 30.222656 273.027344 30.902344 C 272.429688 31.582031 271.613281 31.921875 270.570312 31.921875 C 269.527344 31.921875 268.707031 31.582031 268.113281 30.902344 C 267.523438 30.222656 267.226562 29.285156 267.226562 28.089844 C 267.226562 26.894531 267.523438 25.957031 268.113281 25.28125 C 268.707031 24.601562 269.527344 24.265625 270.570312 24.265625 Z M 270.570312 24.265625 "/>
<path style=" stroke:none;fill-rule:nonzero;fill:rgb(0%,0%,0%);fill-opacity:1;" d="M 280.550781 24.652344 L 280.550781 25.789062 C 280.214844 25.613281 279.863281 25.484375 279.496094 25.398438 C 279.132812 25.308594 278.757812 25.265625 278.363281 25.265625 C 277.769531 25.265625 277.324219 25.359375 277.027344 25.539062 C 276.730469 25.722656 276.582031 25.996094 276.582031 26.359375 C 276.582031 26.636719 276.6875 26.855469 276.898438 27.015625 C 277.113281 27.171875 277.539062 27.324219 278.183594 27.464844 L 278.59375 27.558594 C 279.445312 27.742188 280.046875 27.996094 280.40625 28.328125 C 280.765625 28.660156 280.945312 29.125 280.945312 29.71875 C 280.945312 30.398438 280.675781 30.933594 280.140625 31.328125 C 279.601562 31.722656 278.867188 31.921875 277.929688 31.921875 C 277.539062 31.921875 277.132812 31.882812 276.707031 31.804688 C 276.285156 31.730469 275.839844 31.617188 275.371094 31.464844 L 275.371094 30.226562 C 275.8125 30.457031 276.25 30.628906 276.679688 30.746094 C 277.109375 30.859375 277.535156 30.917969 277.957031 30.917969 C 278.519531 30.917969 278.953125 30.820312 279.257812 30.628906 C 279.558594 30.433594 279.710938 30.160156 279.710938 29.808594 C 279.710938 29.484375 279.601562 29.234375 279.382812 29.0625 C 279.164062 28.890625 278.683594 28.722656 277.941406 28.558594 L 277.523438 28.460938 C 276.785156 28.308594 276.246094 28.066406 275.917969 27.742188 C 275.585938 27.421875 275.421875 26.976562 275.421875 26.414062 C 275.421875 25.726562 275.664062 25.195312 276.152344 24.824219 C 276.636719 24.453125 277.328125 24.265625 278.222656 24.265625 C 278.664062 24.265625 279.082031 24.296875 279.472656 24.363281 C 279.863281 24.425781 280.222656 24.523438 280.550781 24.652344 Z M 280.550781 24.652344 "/>
<path style=" stroke:none;fill-rule:nonzero;fill:rgb(0%,0%,0%);fill-opacity:1;" d="M 287.5 24.652344 L 287.5 25.789062 C 287.160156 25.613281 286.808594 25.484375 286.445312 25.398438 C 286.082031 25.308594 285.703125 25.265625 285.3125 25.265625 C 284.714844 25.265625 284.269531 25.359375 283.972656 25.539062 C 283.675781 25.722656 283.527344 25.996094 283.527344 26.359375 C 283.527344 26.636719 283.632812 26.855469 283.847656 27.015625 C 284.058594 27.171875 284.488281 27.324219 285.128906 27.464844 L 285.539062 27.558594 C 286.390625 27.742188 286.996094 27.996094 287.351562 28.328125 C 287.710938 28.660156 287.890625 29.125 287.890625 29.71875 C 287.890625 30.398438 287.621094 30.933594 287.085938 31.328125 C 286.550781 31.722656 285.8125 31.921875 284.875 31.921875 C 284.484375 31.921875 284.078125 31.882812 283.65625 31.804688 C 283.230469 31.730469 282.785156 31.617188 282.316406 31.464844 L 282.316406 30.226562 C 282.761719 30.457031 283.195312 30.628906 283.625 30.746094 C 284.054688 30.859375 284.480469 30.917969 284.902344 30.917969 C 285.464844 30.917969 285.898438 30.820312 286.203125 30.628906 C 286.507812 30.433594 286.660156 30.160156 286.660156 29.808594 C 286.660156 29.484375 286.550781 29.234375 286.328125 29.0625 C 286.113281 28.890625 285.632812 28.722656 284.886719 28.558594 L 284.472656 28.460938 C 283.730469 28.308594 283.195312 28.066406 282.863281 27.742188 C 282.535156 27.421875 282.371094 26.976562 282.371094 26.414062 C 282.371094 25.726562 282.613281 25.195312 283.097656 24.824219 C 283.585938 24.453125 284.273438 24.265625 285.167969 24.265625 C 285.609375 24.265625 286.027344 24.296875 286.417969 24.363281 C 286.808594 24.425781 287.167969 24.523438 287.5 24.652344 Z M 287.5 24.652344 "/>
<path style="fill:none;stroke-width:1.5;stroke-linecap:butt;stroke-linejoin:round;stroke:rgb(74.901962%,0%,74.901962%);stroke-opacity:1;stroke-dasharray:5.55,2.4;stroke-miterlimit:4;" d="M 142.634766 34.977539 L 162.635742 34.977539 " transform="matrix(1.333333,0,0,1.333333,0.000000000000028422,0)"/>
<path style=" stroke:none;fill-rule:nonzero;fill:rgb(0%,0%,0%);fill-opacity:1;" d="M 229.953125 41.941406 L 229.953125 44.011719 L 232.421875 44.011719 L 232.421875 44.941406 L 229.953125 44.941406 L 229.953125 48.898438 C 229.953125 49.496094 230.035156 49.875 230.199219 50.046875 C 230.359375 50.214844 230.691406 50.300781 231.191406 50.300781 L 232.421875 50.300781 L 232.421875 51.300781 L 231.191406 51.300781 C 230.265625 51.300781 229.628906 51.128906 229.277344 50.785156 C 228.925781 50.441406 228.75 49.8125 228.75 48.898438 L 228.75 44.941406 L 227.871094 44.941406 L 227.871094 44.011719 L 228.75 44.011719 L 228.75 41.941406 Z M 229.953125 41.941406 "/>
<path style=" stroke:none;fill-rule:nonzero;fill:rgb(0%,0%,0%);fill-opacity:1;" d="M 238.222656 45.128906 C 238.085938 45.050781 237.941406 44.996094 237.78125 44.957031 C 237.625 44.921875 237.449219 44.902344 237.257812 44.902344 C 236.582031 44.902344 236.0625 45.121094 235.699219 45.5625 C 235.335938 46.003906 235.15625 46.636719 235.15625 47.460938 L 235.15625 51.300781 L 233.949219 51.300781 L 233.949219 44.011719 L 235.15625 44.011719 L 235.15625 45.144531 C 235.40625 44.699219 235.734375 44.371094 236.136719 44.160156 C 236.542969 43.941406 237.035156 43.835938 237.609375 43.835938 C 237.691406 43.835938 237.785156 43.839844 237.882812 43.851562 C 237.984375 43.863281 238.09375 43.878906 238.214844 43.898438 Z M 238.222656 45.128906 "/>
<path style=" stroke:none;fill-rule:nonzero;fill:rgb(0%,0%,0%);fill-opacity:1;" d="M 242.792969 47.636719 C 241.824219 47.636719 241.152344 47.746094 240.78125 47.96875 C 240.40625 48.191406 240.21875 48.566406 240.21875 49.101562 C 240.21875 49.527344 240.359375 49.863281 240.640625 50.113281 C 240.921875 50.363281 241.300781 50.488281 241.78125 50.488281 C 242.449219 50.488281 242.980469 50.253906 243.382812 49.78125 C 243.785156 49.308594 243.984375 48.683594 243.984375 47.902344 L 243.984375 47.636719 Z M 245.183594 47.140625 L 245.183594 51.300781 L 243.984375 51.300781 L 243.984375 50.195312 C 243.710938 50.636719 243.371094 50.964844 242.960938 51.175781 C 242.554688 51.386719 242.054688 51.492188 241.464844 51.492188 C 240.71875 51.492188 240.125 51.28125 239.683594 50.863281 C 239.242188 50.441406 239.023438 49.882812 239.023438 49.179688 C 239.023438 48.359375 239.296875 47.742188 239.84375 47.324219 C 240.394531 46.910156 241.214844 46.699219 242.304688 46.699219 L 243.984375 46.699219 L 243.984375 46.582031 C 243.984375 46.03125 243.804688 45.601562 243.441406 45.300781 C 243.078125 45 242.570312 44.851562 241.914062 44.851562 C 241.496094 44.851562 241.089844 44.898438 240.695312 45 C 240.300781 45.101562 239.921875 45.25 239.558594 45.449219 L 239.558594 44.339844 C 239.996094 44.171875 240.421875 44.046875 240.832031 43.960938 C 241.246094 43.878906 241.644531 43.835938 242.035156 43.835938 C 243.09375 43.835938 243.878906 44.109375 244.402344 44.65625 C 244.921875 45.203125 245.183594 46.03125 245.183594 47.140625 Z M 245.183594 47.140625 "/>
<path style=" stroke:none;fill-rule:nonzero;fill:rgb(0%,0%,0%);fill-opacity:1;" d="M 247.648438 44.011719 L 248.847656 44.011719 L 248.847656 51.300781 L 247.648438 51.300781 Z M 247.648438 41.171875 L 248.847656 41.171875 L 248.847656 42.691406 L 247.648438 42.691406 Z M 247.648438 41.171875 "/>
<path style=" stroke:none;fill-rule:nonzero;fill:rgb(0%,0%,0%);fill-opacity:1;" d="M 257.414062 46.898438 L 257.414062 51.300781 L 256.21875 51.300781 L 256.21875 46.941406 C 256.21875 46.25 256.082031 45.734375 255.8125 45.390625 C 255.542969 45.046875 255.140625 44.878906 254.601562 44.878906 C 253.957031 44.878906 253.445312 45.082031 253.070312 45.496094 C 252.699219 45.90625 252.511719 46.46875 252.511719 47.179688 L 252.511719 51.300781 L 251.308594 51.300781 L 251.308594 44.011719 L 252.511719 44.011719 L 252.511719 45.144531 C 252.800781 44.703125 253.136719 44.378906 253.523438 44.160156 C 253.914062 43.945312 254.363281 43.835938 254.871094 43.835938 C 255.707031 43.835938 256.339844 44.09375 256.769531 44.613281 C 257.199219 45.128906 257.414062 45.894531 257.414062 46.898438 Z M 257.414062 46.898438 "/>
<path style=" stroke:none;fill-rule:nonzero;fill:rgb(0%,0%,0%);fill-opacity:1;" d="M 267.355469 47.636719 C 266.390625 47.636719 265.71875 47.746094 265.34375 47.96875 C 264.96875 48.191406 264.785156 48.566406 264.785156 49.101562 C 264.785156 49.527344 264.925781 49.863281 265.203125 50.113281 C 265.484375 50.363281 265.867188 50.488281 266.347656 50.488281 C 267.011719 50.488281 267.546875 50.253906 267.945312 49.78125 C 268.347656 49.308594 268.546875 48.683594 268.546875 47.902344 L 268.546875 47.636719 Z M 269.746094 47.140625 L 269.746094 51.300781 L 268.546875 51.300781 L 268.546875 50.195312 C 268.273438 50.636719 267.933594 50.964844 267.527344 51.175781 C 267.117188 51.386719 266.617188 51.492188 266.027344 51.492188 C 265.28125 51.492188 264.6875 51.28125 264.246094 50.863281 C 263.804688 50.441406 263.585938 49.882812 263.585938 49.179688 C 263.585938 48.359375 263.859375 47.742188 264.410156 47.324219 C 264.957031 46.910156 265.777344 46.699219 266.867188 46.699219 L 268.546875 46.699219 L 268.546875 46.582031 C 268.546875 46.03125 268.367188 45.601562 268.003906 45.300781 C 267.640625 45 267.132812 44.851562 266.476562 44.851562 C 266.0625 44.851562 265.65625 44.898438 265.257812 45 C 264.863281 45.101562 264.484375 45.25 264.121094 45.449219 L 264.121094 44.339844 C 264.558594 44.171875 264.984375 44.046875 265.394531 43.960938 C 265.808594 43.878906 266.210938 43.835938 266.601562 43.835938 C 267.65625 43.835938 268.445312 44.109375 268.964844 44.65625 C 269.484375 45.203125 269.746094 46.03125 269.746094 47.140625 Z M 269.746094 47.140625 "/>
<path style=" stroke:none;fill-rule:nonzero;fill:rgb(0%,0%,0%);fill-opacity:1;" d="M 277.460938 44.289062 L 277.460938 45.410156 C 277.121094 45.222656 276.78125 45.082031 276.441406 44.988281 C 276.101562 44.898438 275.757812 44.851562 275.410156 44.851562 C 274.632812 44.851562 274.027344 45.097656 273.597656 45.589844 C 273.167969 46.082031 272.953125 46.773438 272.953125 47.664062 C 272.953125 48.554688 273.167969 49.246094 273.597656 49.738281 C 274.027344 50.230469 274.632812 50.476562 275.410156 50.476562 C 275.757812 50.476562 276.101562 50.429688 276.441406 50.335938 C 276.78125 50.242188 277.121094 50.101562 277.460938 49.914062 L 277.460938 51.023438 C 277.125 51.179688 276.78125 51.296875 276.421875 51.371094 C 276.0625 51.453125 275.683594 51.492188 275.28125 51.492188 C 274.179688 51.492188 273.308594 51.148438 272.660156 50.457031 C 272.015625 49.765625 271.691406 48.835938 271.691406 47.664062 C 271.691406 46.472656 272.019531 45.539062 272.671875 44.859375 C 273.324219 44.175781 274.222656 43.835938 275.359375 43.835938 C 275.726562 43.835938 276.085938 43.875 276.4375 43.949219 C 276.789062 44.023438 277.128906 44.136719 277.460938 44.289062 Z M 277.460938 44.289062 "/>
<path style=" stroke:none;fill-rule:nonzero;fill:rgb(0%,0%,0%);fill-opacity:1;" d="M 284.792969 44.289062 L 284.792969 45.410156 C 284.453125 45.222656 284.113281 45.082031 283.773438 44.988281 C 283.433594 44.898438 283.089844 44.851562 282.742188 44.851562 C 281.964844 44.851562 281.359375 45.097656 280.929688 45.589844 C 280.5 46.082031 280.285156 46.773438 280.285156 47.664062 C 280.285156 48.554688 280.5 49.246094 280.929688 49.738281 C 281.359375 50.230469 281.964844 50.476562 282.742188 50.476562 C 283.089844 50.476562 283.433594 50.429688 283.773438 50.335938 C 284.113281 50.242188 284.453125 50.101562 284.792969 49.914062 L 284.792969 51.023438 C 284.457031 51.179688 284.109375 51.296875 283.75 51.371094 C 283.394531 51.453125 283.015625 51.492188 282.609375 51.492188 C 281.511719 51.492188 280.636719 51.148438 279.992188 50.457031 C 279.34375 49.765625 279.023438 48.835938 279.023438 47.664062 C 279.023438 46.472656 279.347656 45.539062 280 44.859375 C 280.65625 44.175781 281.550781 43.835938 282.6875 43.835938 C 283.058594 43.835938 283.417969 43.875 283.769531 43.949219 C 284.121094 44.023438 284.460938 44.136719 284.792969 44.289062 Z M 284.792969 44.289062 "/>
<path style="fill:none;stroke-width:1.5;stroke-linecap:butt;stroke-linejoin:round;stroke:rgb(0%,50.196081%,0%);stroke-opacity:1;stroke-dasharray:9.6,2.4,1.5,2.4;stroke-miterlimit:4;" d="M 142.634766 49.655273 L 162.635742 49.655273 " transform="matrix(1.333333,0,0,1.333333,0.000000000000028422,0)"/>
<path style=" stroke:none;fill-rule:nonzero;fill:rgb(0%,0%,0%);fill-opacity:1;" d="M 229.953125 61.511719 L 229.953125 63.582031 L 232.421875 63.582031 L 232.421875 64.511719 L 229.953125 64.511719 L 229.953125 68.472656 C 229.953125 69.066406 230.035156 69.445312 230.199219 69.617188 C 230.359375 69.785156 230.691406 69.871094 231.191406 69.871094 L 232.421875 69.871094 L 232.421875 70.871094 L 231.191406 70.871094 C 230.265625 70.871094 229.628906 70.699219 229.277344 70.355469 C 228.925781 70.011719 228.75 69.382812 228.75 68.472656 L 228.75 64.511719 L 227.871094 64.511719 L 227.871094 63.582031 L 228.75 63.582031 L 228.75 61.511719 Z M 229.953125 61.511719 "/>
<path style=" stroke:none;fill-rule:nonzero;fill:rgb(0%,0%,0%);fill-opacity:1;" d="M 240.234375 66.925781 L 240.234375 67.511719 L 234.726562 67.511719 C 234.777344 68.335938 235.027344 68.964844 235.472656 69.398438 C 235.917969 69.828125 236.535156 70.046875 237.328125 70.046875 C 237.789062 70.046875 238.234375 69.988281 238.667969 69.878906 C 239.097656 69.765625 239.527344 69.59375 239.953125 69.367188 L 239.953125 70.503906 C 239.523438 70.683594 239.082031 70.824219 238.632812 70.917969 C 238.179688 71.015625 237.722656 71.0625 237.257812 71.0625 C 236.09375 71.0625 235.171875 70.722656 234.496094 70.046875 C 233.816406 69.371094 233.476562 68.453125 233.476562 67.296875 C 233.476562 66.105469 233.796875 65.160156 234.441406 64.457031 C 235.085938 63.757812 235.957031 63.40625 237.050781 63.40625 C 238.03125 63.40625 238.808594 63.722656 239.378906 64.355469 C 239.949219 64.984375 240.234375 65.84375 240.234375 66.925781 Z M 239.035156 66.574219 C 239.027344 65.921875 238.84375 65.398438 238.484375 65.007812 C 238.128906 64.617188 237.652344 64.421875 237.0625 64.421875 C 236.394531 64.421875 235.859375 64.609375 235.460938 64.988281 C 235.058594 65.367188 234.828125 65.898438 234.765625 66.582031 Z M 239.035156 66.574219 "/>
<path style=" stroke:none;fill-rule:nonzero;fill:rgb(0%,0%,0%);fill-opacity:1;" d="M 246.847656 63.796875 L 246.847656 64.929688 C 246.511719 64.753906 246.160156 64.625 245.792969 64.539062 C 245.429688 64.453125 245.050781 64.410156 244.660156 64.410156 C 244.066406 64.410156 243.621094 64.5 243.324219 64.679688 C 243.027344 64.863281 242.875 65.136719 242.875 65.503906 C 242.875 65.78125 242.984375 65.996094 243.195312 66.15625 C 243.40625 66.316406 243.835938 66.464844 244.480469 66.609375 L 244.890625 66.699219 C 245.738281 66.882812 246.34375 67.140625 246.703125 67.472656 C 247.058594 67.804688 247.238281 68.265625 247.238281 68.859375 C 247.238281 69.539062 246.972656 70.074219 246.433594 70.472656 C 245.898438 70.867188 245.164062 71.0625 244.226562 71.0625 C 243.835938 71.0625 243.425781 71.023438 243.003906 70.949219 C 242.582031 70.871094 242.132812 70.757812 241.667969 70.605469 L 241.667969 69.367188 C 242.109375 69.597656 242.546875 69.773438 242.976562 69.886719 C 243.402344 70 243.828125 70.058594 244.25 70.058594 C 244.816406 70.058594 245.25 69.960938 245.550781 69.769531 C 245.855469 69.574219 246.007812 69.304688 246.007812 68.953125 C 246.007812 68.628906 245.898438 68.378906 245.679688 68.203125 C 245.460938 68.03125 244.980469 67.863281 244.238281 67.703125 L 243.820312 67.605469 C 243.078125 67.449219 242.542969 67.210938 242.210938 66.886719 C 241.882812 66.5625 241.71875 66.117188 241.71875 65.554688 C 241.71875 64.867188 241.960938 64.339844 242.449219 63.964844 C 242.933594 63.59375 243.625 63.40625 244.519531 63.40625 C 244.960938 63.40625 245.375 63.4375 245.765625 63.503906 C 246.15625 63.566406 246.519531 63.664062 246.847656 63.796875 Z M 246.847656 63.796875 "/>
<path style=" stroke:none;fill-rule:nonzero;fill:rgb(0%,0%,0%);fill-opacity:1;" d="M 250.332031 61.511719 L 250.332031 63.582031 L 252.796875 63.582031 L 252.796875 64.511719 L 250.332031 64.511719 L 250.332031 68.472656 C 250.332031 69.066406 250.414062 69.445312 250.574219 69.617188 C 250.738281 69.785156 251.070312 69.871094 251.570312 69.871094 L 252.796875 69.871094 L 252.796875 70.871094 L 251.570312 70.871094 C 250.644531 70.871094 250.007812 70.699219 249.65625 70.355469 C 249.304688 70.011719 249.128906 69.382812 249.128906 68.472656 L 249.128906 64.511719 L 248.25 64.511719 L 248.25 63.582031 L 249.128906 63.582031 L 249.128906 61.511719 Z M 250.332031 61.511719 "/>
<path style=" stroke:none;fill-rule:nonzero;fill:rgb(0%,0%,0%);fill-opacity:1;" d="M 261.925781 67.207031 C 260.960938 67.207031 260.289062 67.320312 259.914062 67.539062 C 259.539062 67.761719 259.355469 68.136719 259.355469 68.671875 C 259.355469 69.097656 259.496094 69.433594 259.773438 69.683594 C 260.054688 69.933594 260.4375 70.058594 260.917969 70.058594 C 261.582031 70.058594 262.117188 69.824219 262.515625 69.351562 C 262.917969 68.882812 263.117188 68.253906 263.117188 67.476562 L 263.117188 67.207031 Z M 264.316406 66.710938 L 264.316406 70.871094 L 263.117188 70.871094 L 263.117188 69.765625 C 262.84375 70.207031 262.503906 70.535156 262.097656 70.746094 C 261.6875 70.957031 261.1875 71.0625 260.597656 71.0625 C 259.851562 71.0625 259.257812 70.851562 258.816406 70.433594 C 258.375 70.015625 258.15625 69.453125 258.15625 68.75 C 258.15625 67.929688 258.429688 67.3125 258.980469 66.894531 C 259.527344 66.480469 260.347656 66.269531 261.4375 66.269531 L 263.117188 66.269531 L 263.117188 66.152344 C 263.117188 65.601562 262.9375 65.175781 262.574219 64.871094 C 262.210938 64.570312 261.703125 64.421875 261.046875 64.421875 C 260.632812 64.421875 260.226562 64.472656 259.828125 64.570312 C 259.433594 64.671875 259.054688 64.820312 258.691406 65.019531 L 258.691406 63.914062 C 259.128906 63.742188 259.554688 63.617188 259.964844 63.535156 C 260.378906 63.449219 260.78125 63.40625 261.171875 63.40625 C 262.226562 63.40625 263.015625 63.679688 263.535156 64.226562 C 264.054688 64.773438 264.316406 65.601562 264.316406 66.710938 Z M 264.316406 66.710938 "/>
<path style=" stroke:none;fill-rule:nonzero;fill:rgb(0%,0%,0%);fill-opacity:1;" d="M 272.03125 63.859375 L 272.03125 64.980469 C 271.691406 64.792969 271.351562 64.652344 271.011719 64.558594 C 270.671875 64.46875 270.328125 64.421875 269.980469 64.421875 C 269.203125 64.421875 268.597656 64.667969 268.167969 65.160156 C 267.738281 65.652344 267.523438 66.34375 267.523438 67.234375 C 267.523438 68.125 267.738281 68.816406 268.167969 69.308594 C 268.597656 69.800781 269.203125 70.046875 269.980469 70.046875 C 270.328125 70.046875 270.671875 70 271.011719 69.90625 C 271.351562 69.8125 271.691406 69.671875 272.03125 69.484375 L 272.03125 70.59375 C 271.695312 70.75 271.351562 70.867188 270.992188 70.945312 C 270.632812 71.023438 270.253906 71.0625 269.851562 71.0625 C 268.75 71.0625 267.878906 70.71875 267.230469 70.027344 C 266.585938 69.335938 266.261719 68.40625 266.261719 67.234375 C 266.261719 66.042969 266.589844 65.109375 267.242188 64.429688 C 267.894531 63.746094 268.792969 63.40625 269.929688 63.40625 C 270.296875 63.40625 270.65625 63.445312 271.007812 63.519531 C 271.359375 63.597656 271.699219 63.710938 272.03125 63.859375 Z M 272.03125 63.859375 "/>
<path style=" stroke:none;fill-rule:nonzero;fill:rgb(0%,0%,0%);fill-opacity:1;" d="M 279.363281 63.859375 L 279.363281 64.980469 C 279.023438 64.792969 278.683594 64.652344 278.34375 64.558594 C 278.003906 64.46875 277.660156 64.421875 277.3125 64.421875 C 276.535156 64.421875 275.929688 64.667969 275.5 65.160156 C 275.070312 65.652344 274.855469 66.34375 274.855469 67.234375 C 274.855469 68.125 275.070312 68.816406 275.5 69.308594 C 275.929688 69.800781 276.535156 70.046875 277.3125 70.046875 C 277.660156 70.046875 278.003906 70 278.34375 69.90625 C 278.683594 69.8125 279.023438 69.671875 279.363281 69.484375 L 279.363281 70.59375 C 279.027344 70.75 278.679688 70.867188 278.320312 70.945312 C 277.964844 71.023438 277.585938 71.0625 277.179688 71.0625 C 276.082031 71.0625 275.207031 70.71875 274.5625 70.027344 C 273.914062 69.335938 273.59375 68.40625 273.59375 67.234375 C 273.59375 66.042969 273.917969 65.109375 274.570312 64.429688 C 275.226562 63.746094 276.121094 63.40625 277.257812 63.40625 C 277.628906 63.40625 277.988281 63.445312 278.339844 63.519531 C 278.691406 63.597656 279.03125 63.710938 279.363281 63.859375 Z M 279.363281 63.859375 "/>
</g>
</svg>
