<?xml version="1.0" encoding="UTF-8"?>
<svg xmlns="http://www.w3.org/2000/svg" xmlns:xlink="http://www.w3.org/1999/xlink" width="314.947469" height="222.637492" viewBox="0 0 314.947469 222.637492" version="1.1">
<defs>
<clipPath id="clip1">
  <path d="M 51 9.601562 L 53 9.601562 L 53 190.800781 L 51 190.800781 Z M 51 9.601562 "/>
</clipPath>
<clipPath id="clip2">
  <path d="M 132 9.601562 L 135 9.601562 L 135 190.800781 L 132 190.800781 Z M 132 9.601562 "/>
</clipPath>
<clipPath id="clip3">
  <path d="M 214 9.601562 L 216 9.601562 L 216 190.800781 L 214 190.800781 Z M 214 9.601562 "/>
</clipPath>
<clipPath id="clip4">
  <path d="M 296 9.601562 L 298 9.601562 L 298 190.800781 L 296 190.800781 Z M 296 9.601562 "/>
</clipPath>
<clipPath id="clip5">
  <path d="M 40.136719 187 L 300.539062 187 L 300.539062 189 L 40.136719 189 Z M 40.136719 187 "/>
</clipPath>
<clipPath id="clip6">
  <path d="M 40.136719 130 L 300.539062 130 L 300.539062 133 L 40.136719 133 Z M 40.136719 130 "/>
</clipPath>
<clipPath id="clip7">
  <path d="M 40.136719 73 L 300.539062 73 L 300.539062 76 L 40.136719 76 Z M 40.136719 73 "/>
</clipPath>
<clipPath id="clip8">
  <path d="M 40.136719 17 L 300.539062 17 L 300.539062 19 L 40.136719 19 Z M 40.136719 17 "/>
</clipPath>
</defs>
<g id="surface1">
<path style=" stroke:none;fill-rule:nonzero;fill:rgb(100%,100%,100%);fill-opacity:1;" d="M 40.136719 190.800781 L 300.539062 190.800781 L 300.539062 9.601562 L 40.136719 9.601562 Z M 40.136719 190.800781 "/>
<g clip-path="url(#clip1)" clip-rule="nonzero">
<path style="fill:none;stroke-width:0.8;stroke-linecap:square;stroke-linejoin:round;stroke:rgb(69.01961%,69.01961%,69.01961%);stroke-opacity:1;stroke-miterlimit:4;" d="M 38.979492 143.100586 L 38.979492 7.201172 " transform="matrix(1.333333,0,0,1.333333,0,0)"/>
</g>
<path style="fill:none;stroke-width:0.8;stroke-linecap:butt;stroke-linejoin:round;stroke:rgb(0%,0%,0%);stroke-opacity:1;stroke-miterlimit:4;" d="M -0.000904083 0.000579834 L -0.000904083 3.498627 " transform="matrix(1.333333,0,0,1.333333,51.973862,190.800008)"/>
<path style=" stroke:none;fill-rule:nonzero;fill:rgb(0%,0%,0%);fill-opacity:1;" d="M 51.96875 201.410156 C 51.292969 201.410156 50.785156 201.742188 50.441406 202.410156 C 50.101562 203.074219 49.933594 204.078125 49.933594 205.414062 C 49.933594 206.746094 50.101562 207.746094 50.441406 208.414062 C 50.785156 209.078125 51.292969 209.414062 51.96875 209.414062 C 52.652344 209.414062 53.164062 209.078125 53.503906 208.414062 C 53.84375 207.746094 54.015625 206.746094 54.015625 205.414062 C 54.015625 204.078125 53.84375 203.074219 53.503906 202.410156 C 53.164062 201.742188 52.652344 201.410156 51.96875 201.410156 Z M 51.96875 200.367188 C 53.058594 200.367188 53.894531 200.800781 54.46875 201.664062 C 55.042969 202.523438 55.332031 203.773438 55.332031 205.414062 C 55.332031 207.050781 55.042969 208.300781 54.46875 209.164062 C 53.894531 210.023438 53.058594 210.453125 51.96875 210.453125 C 50.878906 210.453125 50.050781 210.023438 49.472656 209.164062 C 48.898438 208.300781 48.613281 207.050781 48.613281 205.414062 C 48.613281 203.773438 48.898438 202.523438 49.472656 201.664062 C 50.050781 200.800781 50.878906 200.367188 51.96875 200.367188 Z M 51.96875 200.367188 "/>
<g clip-path="url(#clip2)" clip-rule="nonzero">
<path style="fill:none;stroke-width:0.8;stroke-linecap:square;stroke-linejoin:round;stroke:rgb(69.01961%,69.01961%,69.01961%);stroke-opacity:1;stroke-miterlimit:4;" d="M 100.204102 143.100586 L 100.204102 7.201172 " transform="matrix(1.333333,0,0,1.333333,0,0)"/>
</g>
<path style="fill:none;stroke-width:0.8;stroke-linecap:butt;stroke-linejoin:round;stroke:rgb(0%,0%,0%);stroke-opacity:1;stroke-miterlimit:4;" d="M 0.00113678 0.000579834 L 0.00113678 3.498627 " transform="matrix(1.333333,0,0,1.333333,133.603953,190.800008)"/>
<path style=" stroke:none;fill-rule:nonzero;fill:rgb(0%,0%,0%);fill-opacity:1;" d="M 126.773438 209.160156 L 128.921875 209.160156 L 128.921875 201.742188 L 126.585938 202.210938 L 126.585938 201.011719 L 128.910156 200.542969 L 130.226562 200.542969 L 130.226562 209.160156 L 132.371094 209.160156 L 132.371094 210.265625 L 126.773438 210.265625 Z M 126.773438 209.160156 "/>
<path style=" stroke:none;fill-rule:nonzero;fill:rgb(0%,0%,0%);fill-opacity:1;" d="M 137.839844 201.410156 C 137.164062 201.410156 136.65625 201.742188 136.3125 202.410156 C 135.972656 203.074219 135.804688 204.078125 135.804688 205.414062 C 135.804688 206.746094 135.972656 207.746094 136.3125 208.414062 C 136.65625 209.078125 137.164062 209.414062 137.839844 209.414062 C 138.523438 209.414062 139.035156 209.078125 139.375 208.414062 C 139.714844 207.746094 139.886719 206.746094 139.886719 205.414062 C 139.886719 204.078125 139.714844 203.074219 139.375 202.410156 C 139.035156 201.742188 138.523438 201.410156 137.839844 201.410156 Z M 137.839844 200.367188 C 138.929688 200.367188 139.765625 200.800781 140.339844 201.664062 C 140.914062 202.523438 141.203125 203.773438 141.203125 205.414062 C 141.203125 207.050781 140.914062 208.300781 140.339844 209.164062 C 139.765625 210.023438 138.929688 210.453125 137.839844 210.453125 C 136.753906 210.453125 135.921875 210.023438 135.34375 209.164062 C 134.769531 208.300781 134.484375 207.050781 134.484375 205.414062 C 134.484375 203.773438 134.769531 202.523438 135.34375 201.664062 C 135.921875 200.800781 136.753906 200.367188 137.839844 200.367188 Z M 137.839844 200.367188 "/>
<g clip-path="url(#clip3)" clip-rule="nonzero">
<path style="fill:none;stroke-width:0.8;stroke-linecap:square;stroke-linejoin:round;stroke:rgb(69.01961%,69.01961%,69.01961%);stroke-opacity:1;stroke-miterlimit:4;" d="M 161.425781 143.100586 L 161.425781 7.201172 " transform="matrix(1.333333,0,0,1.333333,0,0)"/>
</g>
<path style="fill:none;stroke-width:0.8;stroke-linecap:butt;stroke-linejoin:round;stroke:rgb(0%,0%,0%);stroke-opacity:1;stroke-miterlimit:4;" d="M 0.000244141 0.000579834 L 0.000244141 3.498627 " transform="matrix(1.333333,0,0,1.333333,215.234049,190.800008)"/>
<path style=" stroke:none;fill-rule:nonzero;fill:rgb(0%,0%,0%);fill-opacity:1;" d="M 209.308594 209.160156 L 213.898438 209.160156 L 213.898438 210.265625 L 207.726562 210.265625 L 207.726562 209.160156 C 208.226562 208.640625 208.90625 207.949219 209.765625 207.078125 C 210.628906 206.207031 211.171875 205.648438 211.390625 205.394531 C 211.8125 204.921875 212.105469 204.523438 212.273438 204.195312 C 212.441406 203.867188 212.527344 203.542969 212.527344 203.226562 C 212.527344 202.710938 212.34375 202.289062 211.980469 201.964844 C 211.621094 201.636719 211.148438 201.476562 210.566406 201.476562 C 210.152344 201.476562 209.71875 201.546875 209.257812 201.691406 C 208.800781 201.832031 208.3125 202.050781 207.792969 202.339844 L 207.792969 201.011719 C 208.320312 200.800781 208.816406 200.640625 209.277344 200.53125 C 209.738281 200.421875 210.160156 200.367188 210.539062 200.367188 C 211.546875 200.367188 212.351562 200.621094 212.949219 201.125 C 213.546875 201.628906 213.847656 202.300781 213.847656 203.140625 C 213.847656 203.542969 213.773438 203.921875 213.621094 204.277344 C 213.472656 204.636719 213.199219 205.058594 212.804688 205.542969 C 212.695312 205.671875 212.351562 206.035156 211.769531 206.636719 C 211.1875 207.238281 210.367188 208.078125 209.308594 209.160156 Z M 209.308594 209.160156 "/>
<path style=" stroke:none;fill-rule:nonzero;fill:rgb(0%,0%,0%);fill-opacity:1;" d="M 219.472656 201.410156 C 218.792969 201.410156 218.285156 201.742188 217.945312 202.410156 C 217.605469 203.074219 217.433594 204.078125 217.433594 205.414062 C 217.433594 206.746094 217.605469 207.746094 217.945312 208.414062 C 218.285156 209.078125 218.792969 209.414062 219.472656 209.414062 C 220.152344 209.414062 220.664062 209.078125 221.003906 208.414062 C 221.347656 207.746094 221.515625 206.746094 221.515625 205.414062 C 221.515625 204.078125 221.347656 203.074219 221.003906 202.410156 C 220.664062 201.742188 220.152344 201.410156 219.472656 201.410156 Z M 219.472656 200.367188 C 220.5625 200.367188 221.394531 200.800781 221.96875 201.664062 C 222.542969 202.523438 222.832031 203.773438 222.832031 205.414062 C 222.832031 207.050781 222.542969 208.300781 221.96875 209.164062 C 221.394531 210.023438 220.5625 210.453125 219.472656 210.453125 C 218.382812 210.453125 217.550781 210.023438 216.976562 209.164062 C 216.402344 208.300781 216.113281 207.050781 216.113281 205.414062 C 216.113281 203.773438 216.402344 202.523438 216.976562 201.664062 C 217.550781 200.800781 218.382812 200.367188 219.472656 200.367188 Z M 219.472656 200.367188 "/>
<g clip-path="url(#clip4)" clip-rule="nonzero">
<path style="fill:none;stroke-width:0.8;stroke-linecap:square;stroke-linejoin:round;stroke:rgb(69.01961%,69.01961%,69.01961%);stroke-opacity:1;stroke-miterlimit:4;" d="M 222.647461 143.100586 L 222.647461 7.201172 " transform="matrix(1.333333,0,0,1.333333,0,0)"/>
</g>
<path style="fill:none;stroke-width:0.8;stroke-linecap:butt;stroke-linejoin:round;stroke:rgb(0%,0%,0%);stroke-opacity:1;stroke-miterlimit:4;" d="M -0.000640869 0.000579834 L -0.000640869 3.498627 " transform="matrix(1.333333,0,0,1.333333,296.864136,190.800008)"/>
<path style=" stroke:none;fill-rule:nonzero;fill:rgb(0%,0%,0%);fill-opacity:1;" d="M 293.792969 205.023438 C 294.421875 205.15625 294.910156 205.4375 295.265625 205.863281 C 295.617188 206.289062 295.796875 206.816406 295.796875 207.441406 C 295.796875 208.398438 295.464844 209.140625 294.804688 209.667969 C 294.144531 210.191406 293.207031 210.453125 291.992188 210.453125 C 291.585938 210.453125 291.167969 210.414062 290.734375 210.332031 C 290.304688 210.253906 289.855469 210.132812 289.398438 209.972656 L 289.398438 208.703125 C 289.761719 208.914062 290.160156 209.074219 290.59375 209.183594 C 291.027344 209.292969 291.480469 209.347656 291.957031 209.347656 C 292.78125 209.347656 293.40625 209.183594 293.839844 208.859375 C 294.269531 208.535156 294.488281 208.058594 294.488281 207.441406 C 294.488281 206.867188 294.285156 206.417969 293.886719 206.097656 C 293.484375 205.773438 292.925781 205.609375 292.210938 205.609375 L 291.078125 205.609375 L 291.078125 204.527344 L 292.261719 204.527344 C 292.90625 204.527344 293.402344 204.398438 293.746094 204.140625 C 294.089844 203.882812 294.261719 203.511719 294.261719 203.023438 C 294.261719 202.527344 294.082031 202.144531 293.730469 201.878906 C 293.375 201.609375 292.871094 201.476562 292.210938 201.476562 C 291.847656 201.476562 291.460938 201.515625 291.050781 201.59375 C 290.636719 201.671875 290.183594 201.792969 289.6875 201.957031 L 289.6875 200.785156 C 290.1875 200.648438 290.65625 200.542969 291.09375 200.472656 C 291.53125 200.402344 291.941406 200.367188 292.328125 200.367188 C 293.324219 200.367188 294.113281 200.597656 294.695312 201.050781 C 295.277344 201.503906 295.566406 202.117188 295.566406 202.886719 C 295.566406 203.425781 295.414062 203.882812 295.105469 204.253906 C 294.796875 204.621094 294.359375 204.878906 293.792969 205.023438 Z M 293.792969 205.023438 "/>
<path style=" stroke:none;fill-rule:nonzero;fill:rgb(0%,0%,0%);fill-opacity:1;" d="M 301.101562 201.410156 C 300.425781 201.410156 299.914062 201.742188 299.574219 202.410156 C 299.234375 203.074219 299.0625 204.078125 299.0625 205.414062 C 299.0625 206.746094 299.234375 207.746094 299.574219 208.414062 C 299.914062 209.078125 300.425781 209.414062 301.101562 209.414062 C 301.785156 209.414062 302.292969 209.078125 302.632812 208.414062 C 302.976562 207.746094 303.148438 206.746094 303.148438 205.414062 C 303.148438 204.078125 302.976562 203.074219 302.632812 202.410156 C 302.292969 201.742188 301.785156 201.410156 301.101562 201.410156 Z M 301.101562 200.367188 C 302.191406 200.367188 303.023438 200.800781 303.597656 201.664062 C 304.175781 202.523438 304.460938 203.773438 304.460938 205.414062 C 304.460938 207.050781 304.175781 208.300781 303.597656 209.164062 C 303.023438 210.023438 302.191406 210.453125 301.101562 210.453125 C 300.011719 210.453125 299.179688 210.023438 298.605469 209.164062 C 298.03125 208.300781 297.742188 207.050781 297.742188 205.414062 C 297.742188 203.773438 298.03125 202.523438 298.605469 201.664062 C 299.179688 200.800781 300.011719 200.367188 301.101562 200.367188 Z M 301.101562 200.367188 "/>
<g clip-path="url(#clip5)" clip-rule="nonzero">
<path style="fill:none;stroke-width:0.8;stroke-linecap:square;stroke-linejoin:round;stroke:rgb(69.01961%,69.01961%,69.01961%);stroke-opacity:1;stroke-miterlimit:4;" d="M 30.102539 141.181641 L 225.404297 141.181641 " transform="matrix(1.333333,0,0,1.333333,0,0)"/>
</g>
<path style="fill:none;stroke-width:0.8;stroke-linecap:butt;stroke-linejoin:round;stroke:rgb(0%,0%,0%);stroke-opacity:1;stroke-miterlimit:4;" d="M -0.000585556 -0.00128174 L -3.498632 -0.00128174 " transform="matrix(1.333333,0,0,1.333333,40.137499,188.243896)"/>
<path style=" stroke:none;fill-rule:nonzero;fill:rgb(0%,0%,0%);fill-opacity:1;" d="M 13.835938 184.457031 C 13.160156 184.457031 12.652344 184.789062 12.308594 185.457031 C 11.96875 186.121094 11.800781 187.121094 11.800781 188.460938 C 11.800781 189.792969 11.96875 190.789062 12.308594 191.457031 C 12.652344 192.125 13.160156 192.457031 13.835938 192.457031 C 14.519531 192.457031 15.03125 192.125 15.371094 191.457031 C 15.710938 190.789062 15.882812 189.792969 15.882812 188.460938 C 15.882812 187.121094 15.710938 186.121094 15.371094 185.457031 C 15.03125 184.789062 14.519531 184.457031 13.835938 184.457031 Z M 13.835938 183.414062 C 14.929688 183.414062 15.761719 183.84375 16.335938 184.707031 C 16.910156 185.570312 17.199219 186.820312 17.199219 188.460938 C 17.199219 190.09375 16.910156 191.34375 16.335938 192.207031 C 15.761719 193.070312 14.929688 193.5 13.835938 193.5 C 12.75 193.5 11.917969 193.070312 11.339844 192.207031 C 10.765625 191.34375 10.480469 190.09375 10.480469 188.460938 C 10.480469 186.820312 10.765625 185.570312 11.339844 184.707031 C 11.917969 183.84375 12.75 183.414062 13.835938 183.414062 Z M 13.835938 183.414062 "/>
<path style=" stroke:none;fill-rule:nonzero;fill:rgb(0%,0%,0%);fill-opacity:1;" d="M 19.507812 191.65625 L 20.882812 191.65625 L 20.882812 193.308594 L 19.507812 193.308594 Z M 19.507812 191.65625 "/>
<path style=" stroke:none;fill-rule:nonzero;fill:rgb(0%,0%,0%);fill-opacity:1;" d="M 26.558594 184.457031 C 25.882812 184.457031 25.375 184.789062 25.03125 185.457031 C 24.691406 186.121094 24.519531 187.121094 24.519531 188.460938 C 24.519531 189.792969 24.691406 190.789062 25.03125 191.457031 C 25.375 192.125 25.882812 192.457031 26.558594 192.457031 C 27.242188 192.457031 27.75 192.125 28.09375 191.457031 C 28.433594 190.789062 28.605469 189.792969 28.605469 188.460938 C 28.605469 187.121094 28.433594 186.121094 28.09375 185.457031 C 27.75 184.789062 27.242188 184.457031 26.558594 184.457031 Z M 26.558594 183.414062 C 27.648438 183.414062 28.480469 183.84375 29.058594 184.707031 C 29.632812 185.570312 29.917969 186.820312 29.917969 188.460938 C 29.917969 190.09375 29.632812 191.34375 29.058594 192.207031 C 28.480469 193.070312 27.648438 193.5 26.558594 193.5 C 25.46875 193.5 24.636719 193.070312 24.0625 192.207031 C 23.488281 191.34375 23.199219 190.09375 23.199219 188.460938 C 23.199219 186.820312 23.488281 185.570312 24.0625 184.707031 C 24.636719 183.84375 25.46875 183.414062 26.558594 183.414062 Z M 26.558594 183.414062 "/>
<g clip-path="url(#clip6)" clip-rule="nonzero">
<path style="fill:none;stroke-width:0.8;stroke-linecap:square;stroke-linejoin:round;stroke:rgb(69.01961%,69.01961%,69.01961%);stroke-opacity:1;stroke-miterlimit:4;" d="M 30.102539 98.581055 L 225.404297 98.581055 " transform="matrix(1.333333,0,0,1.333333,0,0)"/>
</g>
<path style="fill:none;stroke-width:0.8;stroke-linecap:butt;stroke-linejoin:round;stroke:rgb(0%,0%,0%);stroke-opacity:1;stroke-miterlimit:4;" d="M -0.000585556 0.0000228882 L -3.498632 0.0000228882 " transform="matrix(1.333333,0,0,1.333333,40.137499,131.441376)"/>
<path style=" stroke:none;fill-rule:nonzero;fill:rgb(0%,0%,0%);fill-opacity:1;" d="M 13.835938 127.652344 C 13.160156 127.652344 12.652344 127.984375 12.308594 128.652344 C 11.96875 129.316406 11.800781 130.320312 11.800781 131.65625 C 11.800781 132.988281 11.96875 133.988281 12.308594 134.65625 C 12.652344 135.320312 13.160156 135.65625 13.835938 135.65625 C 14.519531 135.65625 15.03125 135.320312 15.371094 134.65625 C 15.710938 133.988281 15.882812 132.988281 15.882812 131.65625 C 15.882812 130.320312 15.710938 129.316406 15.371094 128.652344 C 15.03125 127.984375 14.519531 127.652344 13.835938 127.652344 Z M 13.835938 126.609375 C 14.929688 126.609375 15.761719 127.042969 16.335938 127.90625 C 16.910156 128.765625 17.199219 130.015625 17.199219 131.65625 C 17.199219 133.292969 16.910156 134.542969 16.335938 135.40625 C 15.761719 136.265625 14.929688 136.695312 13.835938 136.695312 C 12.75 136.695312 11.917969 136.265625 11.339844 135.40625 C 10.765625 134.542969 10.480469 133.292969 10.480469 131.65625 C 10.480469 130.015625 10.765625 128.765625 11.339844 127.90625 C 11.917969 127.042969 12.75 126.609375 13.835938 126.609375 Z M 13.835938 126.609375 "/>
<path style=" stroke:none;fill-rule:nonzero;fill:rgb(0%,0%,0%);fill-opacity:1;" d="M 19.507812 134.851562 L 20.882812 134.851562 L 20.882812 136.507812 L 19.507812 136.507812 Z M 19.507812 134.851562 "/>
<path style=" stroke:none;fill-rule:nonzero;fill:rgb(0%,0%,0%);fill-opacity:1;" d="M 23.976562 135.402344 L 26.125 135.402344 L 26.125 127.984375 L 23.785156 128.453125 L 23.785156 127.253906 L 26.109375 126.785156 L 27.425781 126.785156 L 27.425781 135.402344 L 29.574219 135.402344 L 29.574219 136.507812 L 23.976562 136.507812 Z M 23.976562 135.402344 "/>
<g clip-path="url(#clip7)" clip-rule="nonzero">
<path style="fill:none;stroke-width:0.8;stroke-linecap:square;stroke-linejoin:round;stroke:rgb(69.01961%,69.01961%,69.01961%);stroke-opacity:1;stroke-miterlimit:4;" d="M 30.102539 55.980469 L 225.404297 55.980469 " transform="matrix(1.333333,0,0,1.333333,0,0)"/>
</g>
<path style="fill:none;stroke-width:0.8;stroke-linecap:butt;stroke-linejoin:round;stroke:rgb(0%,0%,0%);stroke-opacity:1;stroke-miterlimit:4;" d="M -0.000585556 0.00131607 L -3.498632 0.00131607 " transform="matrix(1.333333,0,0,1.333333,40.137499,74.63887)"/>
<path style=" stroke:none;fill-rule:nonzero;fill:rgb(0%,0%,0%);fill-opacity:1;" d="M 13.835938 70.851562 C 13.160156 70.851562 12.652344 71.183594 12.308594 71.851562 C 11.96875 72.515625 11.800781 73.515625 11.800781 74.855469 C 11.800781 76.1875 11.96875 77.1875 12.308594 77.851562 C 12.652344 78.519531 13.160156 78.851562 13.835938 78.851562 C 14.519531 78.851562 15.03125 78.519531 15.371094 77.851562 C 15.710938 77.1875 15.882812 76.1875 15.882812 74.855469 C 15.882812 73.515625 15.710938 72.515625 15.371094 71.851562 C 15.03125 71.183594 14.519531 70.851562 13.835938 70.851562 Z M 13.835938 69.808594 C 14.929688 69.808594 15.761719 70.238281 16.335938 71.101562 C 16.910156 71.964844 17.199219 73.214844 17.199219 74.855469 C 17.199219 76.492188 16.910156 77.738281 16.335938 78.601562 C 15.761719 79.464844 14.929688 79.894531 13.835938 79.894531 C 12.75 79.894531 11.917969 79.464844 11.339844 78.601562 C 10.765625 77.738281 10.480469 76.492188 10.480469 74.855469 C 10.480469 73.214844 10.765625 71.964844 11.339844 71.101562 C 11.917969 70.238281 12.75 69.808594 13.835938 69.808594 Z M 13.835938 69.808594 "/>
<path style=" stroke:none;fill-rule:nonzero;fill:rgb(0%,0%,0%);fill-opacity:1;" d="M 19.507812 78.050781 L 20.882812 78.050781 L 20.882812 79.703125 L 19.507812 79.703125 Z M 19.507812 78.050781 "/>
<path style=" stroke:none;fill-rule:nonzero;fill:rgb(0%,0%,0%);fill-opacity:1;" d="M 24.878906 78.597656 L 29.46875 78.597656 L 29.46875 79.703125 L 23.296875 79.703125 L 23.296875 78.597656 C 23.796875 78.082031 24.476562 77.386719 25.339844 76.519531 C 26.199219 75.648438 26.742188 75.085938 26.964844 74.832031 C 27.382812 74.363281 27.675781 73.960938 27.84375 73.632812 C 28.011719 73.304688 28.097656 72.984375 28.097656 72.667969 C 28.097656 72.148438 27.914062 71.730469 27.550781 71.40625 C 27.191406 71.078125 26.71875 70.914062 26.136719 70.914062 C 25.722656 70.914062 25.289062 70.988281 24.828125 71.128906 C 24.371094 71.273438 23.882812 71.488281 23.363281 71.78125 L 23.363281 70.453125 C 23.890625 70.238281 24.386719 70.078125 24.847656 69.972656 C 25.308594 69.863281 25.730469 69.808594 26.109375 69.808594 C 27.117188 69.808594 27.921875 70.0625 28.519531 70.566406 C 29.117188 71.066406 29.417969 71.738281 29.417969 72.582031 C 29.417969 72.980469 29.34375 73.359375 29.191406 73.71875 C 29.042969 74.074219 28.769531 74.496094 28.375 74.984375 C 28.265625 75.109375 27.921875 75.472656 27.339844 76.074219 C 26.757812 76.675781 25.9375 77.519531 24.878906 78.597656 Z M 24.878906 78.597656 "/>
<g clip-path="url(#clip8)" clip-rule="nonzero">
<path style="fill:none;stroke-width:0.8;stroke-linecap:square;stroke-linejoin:round;stroke:rgb(69.01961%,69.01961%,69.01961%);stroke-opacity:1;stroke-miterlimit:4;" d="M 30.102539 13.376953 L 225.404297 13.376953 " transform="matrix(1.333333,0,0,1.333333,0,0)"/>
</g>
<path style="fill:none;stroke-width:0.8;stroke-linecap:butt;stroke-linejoin:round;stroke:rgb(0%,0%,0%);stroke-opacity:1;stroke-miterlimit:4;" d="M -0.000585556 -0.000319481 L -3.498632 -0.000319481 " transform="matrix(1.333333,0,0,1.333333,40.137499,17.836363)"/>
<path style=" stroke:none;fill-rule:nonzero;fill:rgb(0%,0%,0%);fill-opacity:1;" d="M 13.835938 14.046875 C 13.160156 14.046875 12.652344 14.382812 12.308594 15.046875 C 11.96875 15.714844 11.800781 16.714844 11.800781 18.050781 C 11.800781 19.382812 11.96875 20.382812 12.308594 21.050781 C 12.652344 21.714844 13.160156 22.050781 13.835938 22.050781 C 14.519531 22.050781 15.03125 21.714844 15.371094 21.050781 C 15.710938 20.382812 15.882812 19.382812 15.882812 18.050781 C 15.882812 16.714844 15.710938 15.714844 15.371094 15.046875 C 15.03125 14.382812 14.519531 14.046875 13.835938 14.046875 Z M 13.835938 13.007812 C 14.929688 13.007812 15.761719 13.4375 16.335938 14.300781 C 16.910156 15.160156 17.199219 16.410156 17.199219 18.050781 C 17.199219 19.6875 16.910156 20.9375 16.335938 21.800781 C 15.761719 22.660156 14.929688 23.089844 13.835938 23.089844 C 12.75 23.089844 11.917969 22.660156 11.339844 21.800781 C 10.765625 20.9375 10.480469 19.6875 10.480469 18.050781 C 10.480469 16.410156 10.765625 15.160156 11.339844 14.300781 C 11.917969 13.4375 12.75 13.007812 13.835938 13.007812 Z M 13.835938 13.007812 "/>
<path style=" stroke:none;fill-rule:nonzero;fill:rgb(0%,0%,0%);fill-opacity:1;" d="M 19.507812 21.246094 L 20.882812 21.246094 L 20.882812 22.902344 L 19.507812 22.902344 Z M 19.507812 21.246094 "/>
<path style=" stroke:none;fill-rule:nonzero;fill:rgb(0%,0%,0%);fill-opacity:1;" d="M 27.730469 17.660156 C 28.359375 17.796875 28.851562 18.074219 29.203125 18.503906 C 29.558594 18.925781 29.734375 19.453125 29.734375 20.078125 C 29.734375 21.035156 29.40625 21.777344 28.746094 22.304688 C 28.085938 22.828125 27.148438 23.089844 25.933594 23.089844 C 25.527344 23.089844 25.109375 23.050781 24.675781 22.972656 C 24.242188 22.890625 23.796875 22.769531 23.339844 22.609375 L 23.339844 21.339844 C 23.703125 21.550781 24.101562 21.710938 24.535156 21.820312 C 24.96875 21.929688 25.421875 21.984375 25.894531 21.984375 C 26.71875 21.984375 27.347656 21.820312 27.78125 21.496094 C 28.210938 21.171875 28.425781 20.699219 28.425781 20.078125 C 28.425781 19.503906 28.226562 19.054688 27.824219 18.734375 C 27.425781 18.410156 26.867188 18.246094 26.152344 18.246094 L 25.015625 18.246094 L 25.015625 17.167969 L 26.203125 17.167969 C 26.847656 17.167969 27.34375 17.039062 27.6875 16.777344 C 28.027344 16.519531 28.199219 16.148438 28.199219 15.664062 C 28.199219 15.164062 28.023438 14.78125 27.667969 14.515625 C 27.316406 14.246094 26.808594 14.113281 26.152344 14.113281 C 25.789062 14.113281 25.402344 14.152344 24.988281 14.230469 C 24.578125 14.308594 24.125 14.429688 23.628906 14.59375 L 23.628906 13.421875 C 24.128906 13.285156 24.597656 13.179688 25.035156 13.109375 C 25.46875 13.039062 25.882812 13.007812 26.265625 13.007812 C 27.265625 13.007812 28.054688 13.234375 28.636719 13.6875 C 29.21875 14.140625 29.507812 14.753906 29.507812 15.523438 C 29.507812 16.0625 29.355469 16.519531 29.046875 16.890625 C 28.738281 17.261719 28.300781 17.515625 27.730469 17.660156 Z M 27.730469 17.660156 "/>
<path style="fill:none;stroke-width:1.5;stroke-linecap:square;stroke-linejoin:round;stroke:rgb(12.156863%,46.666667%,70.588237%);stroke-opacity:1;stroke-miterlimit:4;" d="M 38.979492 13.376953 L 45.102539 14.138672 L 51.225586 16.400391 L 57.348633 20.109375 L 63.46875 25.174805 L 69.591797 31.470703 L 75.714844 38.841797 L 81.834961 47.106445 L 87.958008 56.0625 L 94.081055 65.487305 L 100.204102 75.149414 L 106.324219 84.814453 L 112.447266 94.239258 L 118.570312 103.195312 L 124.693359 111.459961 L 130.813477 118.831055 L 136.936523 125.124023 L 143.05957 130.189453 L 149.179688 133.898438 L 155.302734 136.163086 L 161.425781 136.921875 L 216.524414 136.921875 " transform="matrix(1.333333,0,0,1.333333,0,0)"/>
<path style="fill:none;stroke-width:0.8;stroke-linecap:square;stroke-linejoin:miter;stroke:rgb(0%,0%,0%);stroke-opacity:1;stroke-miterlimit:4;" d="M 30.102539 143.100586 L 30.102539 7.201172 " transform="matrix(1.333333,0,0,1.333333,0,0)"/>
<path style="fill:none;stroke-width:0.8;stroke-linecap:square;stroke-linejoin:miter;stroke:rgb(0%,0%,0%);stroke-opacity:1;stroke-miterlimit:4;" d="M 225.404297 143.100586 L 225.404297 7.201172 " transform="matrix(1.333333,0,0,1.333333,0,0)"/>
<path style="fill:none;stroke-width:0.8;stroke-linecap:square;stroke-linejoin:miter;stroke:rgb(0%,0%,0%);stroke-opacity:1;stroke-miterlimit:4;" d="M 30.102539 143.100586 L 225.404297 143.100586 " transform="matrix(1.333333,0,0,1.333333,0,0)"/>
<path style="fill:none;stroke-width:0.8;stroke-linecap:square;stroke-linejoin:miter;stroke:rgb(0%,0%,0%);stroke-opacity:1;stroke-miterlimit:4;" d="M 30.102539 7.201172 L 225.404297 7.201172 " transform="matrix(1.333333,0,0,1.333333,0,0)"/>
</g>
</svg>
