<?xml version="1.0" encoding="UTF-8"?>
<svg xmlns="http://www.w3.org/2000/svg" xmlns:xlink="http://www.w3.org/1999/xlink" width="351.229167" height="245.029012" viewBox="0 0 351.229167 245.029012" version="1.1">
<defs>
<clipPath id="clip1">
  <path d="M 108 13.753906 L 111 13.753906 L 111 194.953125 L 108 194.953125 Z M 108 13.753906 "/>
</clipPath>
<clipPath id="clip2">
  <path d="M 163 13.753906 L 166 13.753906 L 166 194.953125 L 163 194.953125 Z M 163 13.753906 "/>
</clipPath>
<clipPath id="clip3">
  <path d="M 218 13.753906 L 221 13.753906 L 221 194.953125 L 218 194.953125 Z M 218 13.753906 "/>
</clipPath>
<clipPath id="clip4">
  <path d="M 273 13.753906 L 275 13.753906 L 275 194.953125 L 273 194.953125 Z M 273 13.753906 "/>
</clipPath>
<clipPath id="clip5">
  <path d="M 328 13.753906 L 328.902344 13.753906 L 328.902344 194.953125 L 328 194.953125 Z M 328 13.753906 "/>
</clipPath>
<clipPath id="clip6">
  <path d="M 68.503906 147 L 328.902344 147 L 328.902344 150 L 68.503906 150 Z M 68.503906 147 "/>
</clipPath>
<clipPath id="clip7">
  <path d="M 68.503906 80 L 328.902344 80 L 328.902344 83 L 68.503906 83 Z M 68.503906 80 "/>
</clipPath>
<clipPath id="clip8">
  <path d="M 68.503906 13.753906 L 328.902344 13.753906 L 328.902344 16 L 68.503906 16 Z M 68.503906 13.753906 "/>
</clipPath>
<clipPath id="clip9">
  <path d="M 68.503906 44 L 328.902344 44 L 328.902344 189 L 68.503906 189 Z M 68.503906 44 "/>
</clipPath>
<clipPath id="clip10">
  <path d="M 68.503906 20 L 328.902344 20 L 328.902344 120 L 68.503906 120 Z M 68.503906 20 "/>
</clipPath>
<filter id="alpha" filterUnits="objectBoundingBox" x="0%" y="0%" width="100%" height="100%">
  <feColorMatrix type="matrix" in="SourceGraphic" values="0 0 0 0 1 0 0 0 0 1 0 0 0 0 1 0 0 0 1 0"/>
</filter>
<mask id="mask0">
  <g filter="url(#alpha)">
<rect x="0" y="0" width="351.229167" height="245.029012" style="fill:rgb(0%,0%,0%);fill-opacity:0.8;stroke:none;"/>
  </g>
</mask>
<clipPath id="clip11">
  <rect x="0" y="0" width="352" height="246"/>
</clipPath>
<g id="surface5" clip-path="url(#clip11)">
<path style="fill-rule:nonzero;fill:rgb(100%,100%,100%);fill-opacity:1;stroke-width:1;stroke-linecap:butt;stroke-linejoin:miter;stroke:rgb(80.000001%,80.000001%,80.000001%);stroke-opacity:1;stroke-miterlimit:4;" d="M 184.40332 47.671875 L 239.677734 47.671875 C 241.010742 47.671875 241.678711 47.003906 241.678711 45.670898 L 241.678711 17.314453 C 241.678711 15.981445 241.010742 15.316406 239.677734 15.316406 L 184.40332 15.316406 C 183.070312 15.316406 182.402344 15.981445 182.402344 17.314453 L 182.402344 45.670898 C 182.402344 47.003906 183.070312 47.671875 184.40332 47.671875 Z M 184.40332 47.671875 " transform="matrix(1.333333,0,0,1.333333,0,-0.000000000000014211)"/>
</g>
</defs>
<g id="surface1">
<path style=" stroke:none;fill-rule:nonzero;fill:rgb(100%,100%,100%);fill-opacity:1;" d="M 68.503906 194.953125 L 328.902344 194.953125 L 328.902344 13.753906 L 68.503906 13.753906 Z M 68.503906 194.953125 "/>
<g clip-path="url(#clip1)" clip-rule="nonzero">
<path style="fill:none;stroke-width:0.8;stroke-linecap:square;stroke-linejoin:round;stroke:rgb(69.01961%,69.01961%,69.01961%);stroke-opacity:1;stroke-miterlimit:4;" d="M 82.21582 146.214844 L 82.21582 10.31543 " transform="matrix(1.333333,0,0,1.333333,0,-0.000000000000014211)"/>
</g>
<path style="fill:none;stroke-width:0.8;stroke-linecap:butt;stroke-linejoin:round;stroke:rgb(0%,0%,0%);stroke-opacity:1;stroke-miterlimit:4;" d="M 0.000854492 -0.000671387 L 0.000854492 3.500305 " transform="matrix(1.333333,0,0,1.333333,109.619954,194.95402)"/>
<path style=" stroke:none;fill-rule:nonzero;fill:rgb(0%,0%,0%);fill-opacity:1;" d="M 103.695312 213.3125 L 108.285156 213.3125 L 108.285156 214.417969 L 102.113281 214.417969 L 102.113281 213.3125 C 102.613281 212.796875 103.292969 212.101562 104.152344 211.234375 C 105.015625 210.363281 105.558594 209.800781 105.777344 209.546875 C 106.199219 209.074219 106.492188 208.675781 106.660156 208.347656 C 106.828125 208.019531 106.910156 207.699219 106.910156 207.382812 C 106.910156 206.863281 106.730469 206.445312 106.367188 206.117188 C 106.003906 205.792969 105.53125 205.628906 104.953125 205.628906 C 104.539062 205.628906 104.101562 205.699219 103.644531 205.84375 C 103.1875 205.988281 102.699219 206.203125 102.179688 206.496094 L 102.179688 205.167969 C 102.707031 204.953125 103.203125 204.792969 103.660156 204.683594 C 104.121094 204.578125 104.542969 204.523438 104.925781 204.523438 C 105.933594 204.523438 106.734375 204.773438 107.335938 205.277344 C 107.933594 205.78125 108.234375 206.453125 108.234375 207.296875 C 108.234375 207.695312 108.15625 208.074219 108.007812 208.433594 C 107.859375 208.789062 107.585938 209.210938 107.191406 209.699219 C 107.082031 209.824219 106.738281 210.1875 106.15625 210.789062 C 105.574219 211.390625 104.753906 212.230469 103.695312 213.3125 Z M 103.695312 213.3125 "/>
<path style=" stroke:none;fill-rule:nonzero;fill:rgb(0%,0%,0%);fill-opacity:1;" d="M 113.855469 205.5625 C 113.179688 205.5625 112.671875 205.898438 112.332031 206.5625 C 111.988281 207.230469 111.820312 208.230469 111.820312 209.570312 C 111.820312 210.902344 111.988281 211.898438 112.332031 212.566406 C 112.671875 213.234375 113.179688 213.566406 113.855469 213.566406 C 114.539062 213.566406 115.050781 213.234375 115.390625 212.566406 C 115.730469 211.898438 115.902344 210.902344 115.902344 209.570312 C 115.902344 208.230469 115.730469 207.230469 115.390625 206.5625 C 115.050781 205.898438 114.539062 205.5625 113.855469 205.5625 Z M 113.855469 204.523438 C 114.949219 204.523438 115.78125 204.953125 116.355469 205.816406 C 116.929688 206.675781 117.21875 207.929688 117.21875 209.570312 C 117.21875 211.203125 116.929688 212.453125 116.355469 213.316406 C 115.78125 214.175781 114.949219 214.609375 113.855469 214.609375 C 112.769531 214.609375 111.9375 214.175781 111.363281 213.316406 C 110.785156 212.453125 110.5 211.203125 110.5 209.570312 C 110.5 207.929688 110.785156 206.675781 111.363281 205.816406 C 111.9375 204.953125 112.769531 204.523438 113.855469 204.523438 Z M 113.855469 204.523438 "/>
<g clip-path="url(#clip2)" clip-rule="nonzero">
<path style="fill:none;stroke-width:0.8;stroke-linecap:square;stroke-linejoin:round;stroke:rgb(69.01961%,69.01961%,69.01961%);stroke-opacity:1;stroke-miterlimit:4;" d="M 123.331055 146.214844 L 123.331055 10.31543 " transform="matrix(1.333333,0,0,1.333333,0,-0.000000000000014211)"/>
</g>
<path style="fill:none;stroke-width:0.8;stroke-linecap:butt;stroke-linejoin:round;stroke:rgb(0%,0%,0%);stroke-opacity:1;stroke-miterlimit:4;" d="M 0.000297546 -0.000671387 L 0.000297546 3.500305 " transform="matrix(1.333333,0,0,1.333333,164.44101,194.95402)"/>
<path style=" stroke:none;fill-rule:nonzero;fill:rgb(0%,0%,0%);fill-opacity:1;" d="M 160.996094 205.84375 L 157.675781 211.03125 L 160.996094 211.03125 Z M 160.652344 204.699219 L 162.304688 204.699219 L 162.304688 211.03125 L 163.691406 211.03125 L 163.691406 212.125 L 162.304688 212.125 L 162.304688 214.417969 L 160.996094 214.417969 L 160.996094 212.125 L 156.609375 212.125 L 156.609375 210.859375 Z M 160.652344 204.699219 "/>
<path style=" stroke:none;fill-rule:nonzero;fill:rgb(0%,0%,0%);fill-opacity:1;" d="M 168.679688 205.5625 C 168 205.5625 167.492188 205.898438 167.152344 206.5625 C 166.8125 207.230469 166.640625 208.230469 166.640625 209.570312 C 166.640625 210.902344 166.8125 211.898438 167.152344 212.566406 C 167.492188 213.234375 168 213.566406 168.679688 213.566406 C 169.359375 213.566406 169.871094 213.234375 170.210938 212.566406 C 170.554688 211.898438 170.722656 210.902344 170.722656 209.570312 C 170.722656 208.230469 170.554688 207.230469 170.210938 206.5625 C 169.871094 205.898438 169.359375 205.5625 168.679688 205.5625 Z M 168.679688 204.523438 C 169.769531 204.523438 170.601562 204.953125 171.175781 205.816406 C 171.75 206.675781 172.039062 207.929688 172.039062 209.570312 C 172.039062 211.203125 171.75 212.453125 171.175781 213.316406 C 170.601562 214.175781 169.769531 214.609375 168.679688 214.609375 C 167.589844 214.609375 166.757812 214.175781 166.183594 213.316406 C 165.605469 212.453125 165.320312 211.203125 165.320312 209.570312 C 165.320312 207.929688 165.605469 206.675781 166.183594 205.816406 C 166.757812 204.953125 167.589844 204.523438 168.679688 204.523438 Z M 168.679688 204.523438 "/>
<g clip-path="url(#clip3)" clip-rule="nonzero">
<path style="fill:none;stroke-width:0.8;stroke-linecap:square;stroke-linejoin:round;stroke:rgb(69.01961%,69.01961%,69.01961%);stroke-opacity:1;stroke-miterlimit:4;" d="M 164.446289 146.214844 L 164.446289 10.31543 " transform="matrix(1.333333,0,0,1.333333,0,-0.000000000000014211)"/>
</g>
<path style="fill:none;stroke-width:0.8;stroke-linecap:butt;stroke-linejoin:round;stroke:rgb(0%,0%,0%);stroke-opacity:1;stroke-miterlimit:4;" d="M -0.000259399 -0.000671387 L -0.000259399 3.500305 " transform="matrix(1.333333,0,0,1.333333,219.262065,194.95402)"/>
<path style=" stroke:none;fill-rule:nonzero;fill:rgb(0%,0%,0%);fill-opacity:1;" d="M 215.179688 209.035156 C 214.589844 209.035156 214.121094 209.238281 213.777344 209.640625 C 213.433594 210.042969 213.261719 210.597656 213.261719 211.300781 C 213.261719 212 213.433594 212.550781 213.777344 212.957031 C 214.121094 213.363281 214.589844 213.566406 215.179688 213.566406 C 215.769531 213.566406 216.238281 213.363281 216.582031 212.957031 C 216.925781 212.550781 217.097656 212 217.097656 211.300781 C 217.097656 210.597656 216.925781 210.042969 216.582031 209.640625 C 216.238281 209.238281 215.769531 209.035156 215.179688 209.035156 Z M 217.792969 204.914062 L 217.792969 206.109375 C 217.460938 205.953125 217.128906 205.835938 216.792969 205.753906 C 216.457031 205.671875 216.121094 205.628906 215.792969 205.628906 C 214.921875 205.628906 214.261719 205.921875 213.800781 206.507812 C 213.34375 207.09375 213.082031 207.980469 213.019531 209.164062 C 213.273438 208.785156 213.59375 208.496094 213.980469 208.296875 C 214.367188 208.09375 214.792969 207.992188 215.257812 207.992188 C 216.234375 207.992188 217.003906 208.289062 217.574219 208.882812 C 218.140625 209.476562 218.421875 210.28125 218.421875 211.300781 C 218.421875 212.296875 218.128906 213.101562 217.535156 213.703125 C 216.945312 214.308594 216.160156 214.609375 215.179688 214.609375 C 214.054688 214.609375 213.195312 214.175781 212.601562 213.316406 C 212.007812 212.453125 211.710938 211.203125 211.710938 209.570312 C 211.710938 208.03125 212.074219 206.808594 212.804688 205.894531 C 213.53125 204.980469 214.511719 204.523438 215.738281 204.523438 C 216.070312 204.523438 216.402344 204.554688 216.738281 204.621094 C 217.074219 204.6875 217.425781 204.78125 217.792969 204.914062 Z M 217.792969 204.914062 "/>
<path style=" stroke:none;fill-rule:nonzero;fill:rgb(0%,0%,0%);fill-opacity:1;" d="M 223.5 205.5625 C 222.824219 205.5625 222.3125 205.898438 221.972656 206.5625 C 221.632812 207.230469 221.460938 208.230469 221.460938 209.570312 C 221.460938 210.902344 221.632812 211.898438 221.972656 212.566406 C 222.3125 213.234375 222.824219 213.566406 223.5 213.566406 C 224.179688 213.566406 224.691406 213.234375 225.03125 212.566406 C 225.375 211.898438 225.546875 210.902344 225.546875 209.570312 C 225.546875 208.230469 225.375 207.230469 225.03125 206.5625 C 224.691406 205.898438 224.179688 205.5625 223.5 205.5625 Z M 223.5 204.523438 C 224.589844 204.523438 225.421875 204.953125 225.996094 205.816406 C 226.570312 206.675781 226.859375 207.929688 226.859375 209.570312 C 226.859375 211.203125 226.570312 212.453125 225.996094 213.316406 C 225.421875 214.175781 224.589844 214.609375 223.5 214.609375 C 222.410156 214.609375 221.578125 214.175781 221.003906 213.316406 C 220.429688 212.453125 220.140625 211.203125 220.140625 209.570312 C 220.140625 207.929688 220.429688 206.675781 221.003906 205.816406 C 221.578125 204.953125 222.410156 204.523438 223.5 204.523438 Z M 223.5 204.523438 "/>
<g clip-path="url(#clip4)" clip-rule="nonzero">
<path style="fill:none;stroke-width:0.8;stroke-linecap:square;stroke-linejoin:round;stroke:rgb(69.01961%,69.01961%,69.01961%);stroke-opacity:1;stroke-miterlimit:4;" d="M 205.561523 146.214844 L 205.561523 10.31543 " transform="matrix(1.333333,0,0,1.333333,0,-0.000000000000014211)"/>
</g>
<path style="fill:none;stroke-width:0.8;stroke-linecap:butt;stroke-linejoin:round;stroke:rgb(0%,0%,0%);stroke-opacity:1;stroke-miterlimit:4;" d="M -0.000808716 -0.000671387 L -0.000808716 3.500305 " transform="matrix(1.333333,0,0,1.333333,274.08311,194.95402)"/>
<path style=" stroke:none;fill-rule:nonzero;fill:rgb(0%,0%,0%);fill-opacity:1;" d="M 269.835938 209.800781 C 269.210938 209.800781 268.71875 209.96875 268.363281 210.304688 C 268.003906 210.640625 267.828125 211.097656 267.828125 211.683594 C 267.828125 212.269531 268.003906 212.730469 268.363281 213.0625 C 268.71875 213.398438 269.210938 213.566406 269.835938 213.566406 C 270.460938 213.566406 270.953125 213.398438 271.3125 213.0625 C 271.675781 212.726562 271.855469 212.265625 271.855469 211.683594 C 271.855469 211.097656 271.675781 210.640625 271.320312 210.304688 C 270.960938 209.96875 270.46875 209.800781 269.835938 209.800781 Z M 268.523438 209.242188 C 267.957031 209.105469 267.519531 208.84375 267.203125 208.457031 C 266.890625 208.070312 266.734375 207.597656 266.734375 207.042969 C 266.734375 206.265625 267.007812 205.652344 267.5625 205.199219 C 268.117188 204.75 268.875 204.523438 269.835938 204.523438 C 270.804688 204.523438 271.566406 204.75 272.117188 205.199219 C 272.667969 205.652344 272.945312 206.265625 272.945312 207.042969 C 272.945312 207.597656 272.785156 208.070312 272.46875 208.457031 C 272.15625 208.84375 271.71875 209.105469 271.160156 209.242188 C 271.792969 209.390625 272.285156 209.679688 272.640625 210.109375 C 272.992188 210.539062 273.171875 211.0625 273.171875 211.683594 C 273.171875 212.625 272.882812 213.351562 272.308594 213.855469 C 271.734375 214.355469 270.910156 214.609375 269.835938 214.609375 C 268.765625 214.609375 267.941406 214.355469 267.367188 213.855469 C 266.792969 213.351562 266.503906 212.625 266.503906 211.683594 C 266.503906 211.0625 266.683594 210.539062 267.039062 210.109375 C 267.394531 209.679688 267.890625 209.390625 268.523438 209.242188 Z M 268.042969 207.167969 C 268.042969 207.667969 268.199219 208.0625 268.511719 208.34375 C 268.828125 208.625 269.269531 208.765625 269.835938 208.765625 C 270.402344 208.765625 270.84375 208.625 271.164062 208.34375 C 271.480469 208.0625 271.640625 207.667969 271.640625 207.167969 C 271.640625 206.664062 271.480469 206.269531 271.164062 205.988281 C 270.84375 205.707031 270.402344 205.5625 269.835938 205.5625 C 269.269531 205.5625 268.828125 205.707031 268.511719 205.988281 C 268.199219 206.269531 268.042969 206.664062 268.042969 207.167969 Z M 268.042969 207.167969 "/>
<path style=" stroke:none;fill-rule:nonzero;fill:rgb(0%,0%,0%);fill-opacity:1;" d="M 278.320312 205.5625 C 277.644531 205.5625 277.136719 205.898438 276.792969 206.5625 C 276.453125 207.230469 276.28125 208.230469 276.28125 209.570312 C 276.28125 210.902344 276.453125 211.898438 276.792969 212.566406 C 277.136719 213.234375 277.644531 213.566406 278.320312 213.566406 C 279.003906 213.566406 279.511719 213.234375 279.855469 212.566406 C 280.195312 211.898438 280.367188 210.902344 280.367188 209.570312 C 280.367188 208.230469 280.195312 207.230469 279.855469 206.5625 C 279.511719 205.898438 279.003906 205.5625 278.320312 205.5625 Z M 278.320312 204.523438 C 279.410156 204.523438 280.242188 204.953125 280.816406 205.816406 C 281.394531 206.675781 281.679688 207.929688 281.679688 209.570312 C 281.679688 211.203125 281.394531 212.453125 280.816406 213.316406 C 280.242188 214.175781 279.410156 214.609375 278.320312 214.609375 C 277.230469 214.609375 276.398438 214.175781 275.824219 213.316406 C 275.25 212.453125 274.960938 211.203125 274.960938 209.570312 C 274.960938 207.929688 275.25 206.675781 275.824219 205.816406 C 276.398438 204.953125 277.230469 204.523438 278.320312 204.523438 Z M 278.320312 204.523438 "/>
<g clip-path="url(#clip5)" clip-rule="nonzero">
<path style="fill:none;stroke-width:0.8;stroke-linecap:square;stroke-linejoin:round;stroke:rgb(69.01961%,69.01961%,69.01961%);stroke-opacity:1;stroke-miterlimit:4;" d="M 246.676758 146.214844 L 246.676758 10.31543 " transform="matrix(1.333333,0,0,1.333333,0,-0.000000000000014211)"/>
</g>
<path style="fill:none;stroke-width:0.8;stroke-linecap:butt;stroke-linejoin:round;stroke:rgb(0%,0%,0%);stroke-opacity:1;stroke-miterlimit:4;" d="M -0.00137329 -0.000671387 L -0.00137329 3.500305 " transform="matrix(1.333333,0,0,1.333333,328.904175,194.95402)"/>
<path style=" stroke:none;fill-rule:nonzero;fill:rgb(0%,0%,0%);fill-opacity:1;" d="M 317.832031 213.3125 L 319.980469 213.3125 L 319.980469 205.894531 L 317.644531 206.363281 L 317.644531 205.167969 L 319.96875 204.699219 L 321.285156 204.699219 L 321.285156 213.3125 L 323.429688 213.3125 L 323.429688 214.417969 L 317.832031 214.417969 Z M 317.832031 213.3125 "/>
<path style=" stroke:none;fill-rule:nonzero;fill:rgb(0%,0%,0%);fill-opacity:1;" d="M 328.898438 205.5625 C 328.222656 205.5625 327.714844 205.898438 327.371094 206.5625 C 327.03125 207.230469 326.863281 208.230469 326.863281 209.570312 C 326.863281 210.902344 327.03125 211.898438 327.371094 212.566406 C 327.714844 213.234375 328.222656 213.566406 328.898438 213.566406 C 329.582031 213.566406 330.09375 213.234375 330.433594 212.566406 C 330.773438 211.898438 330.945312 210.902344 330.945312 209.570312 C 330.945312 208.230469 330.773438 207.230469 330.433594 206.5625 C 330.09375 205.898438 329.582031 205.5625 328.898438 205.5625 Z M 328.898438 204.523438 C 329.988281 204.523438 330.824219 204.953125 331.398438 205.816406 C 331.972656 206.675781 332.261719 207.929688 332.261719 209.570312 C 332.261719 211.203125 331.972656 212.453125 331.398438 213.316406 C 330.824219 214.175781 329.988281 214.609375 328.898438 214.609375 C 327.8125 214.609375 326.980469 214.175781 326.402344 213.316406 C 325.828125 212.453125 325.542969 211.203125 325.542969 209.570312 C 325.542969 207.929688 325.828125 206.675781 326.402344 205.816406 C 326.980469 204.953125 327.8125 204.523438 328.898438 204.523438 Z M 328.898438 204.523438 "/>
<path style=" stroke:none;fill-rule:nonzero;fill:rgb(0%,0%,0%);fill-opacity:1;" d="M 337.382812 205.5625 C 336.707031 205.5625 336.199219 205.898438 335.855469 206.5625 C 335.515625 207.230469 335.34375 208.230469 335.34375 209.570312 C 335.34375 210.902344 335.515625 211.898438 335.855469 212.566406 C 336.199219 213.234375 336.707031 213.566406 337.382812 213.566406 C 338.066406 213.566406 338.574219 213.234375 338.917969 212.566406 C 339.257812 211.898438 339.429688 210.902344 339.429688 209.570312 C 339.429688 208.230469 339.257812 207.230469 338.917969 206.5625 C 338.574219 205.898438 338.066406 205.5625 337.382812 205.5625 Z M 337.382812 204.523438 C 338.472656 204.523438 339.304688 204.953125 339.878906 205.816406 C 340.457031 206.675781 340.742188 207.929688 340.742188 209.570312 C 340.742188 211.203125 340.457031 212.453125 339.878906 213.316406 C 339.304688 214.175781 338.472656 214.609375 337.382812 214.609375 C 336.292969 214.609375 335.460938 214.175781 334.886719 213.316406 C 334.3125 212.453125 334.023438 211.203125 334.023438 209.570312 C 334.023438 207.929688 334.3125 206.675781 334.886719 205.816406 C 335.460938 204.953125 336.292969 204.523438 337.382812 204.523438 Z M 337.382812 204.523438 "/>
<path style=" stroke:none;fill-rule:nonzero;fill:rgb(0%,0%,0%);fill-opacity:1;" d="M 182.421875 228.710938 L 182.421875 229.296875 L 176.914062 229.296875 C 176.964844 230.121094 177.214844 230.75 177.660156 231.179688 C 178.101562 231.613281 178.722656 231.828125 179.515625 231.828125 C 179.976562 231.828125 180.421875 231.773438 180.855469 231.660156 C 181.285156 231.546875 181.714844 231.378906 182.140625 231.152344 L 182.140625 232.285156 C 181.710938 232.46875 181.269531 232.605469 180.820312 232.703125 C 180.367188 232.796875 179.910156 232.84375 179.445312 232.84375 C 178.28125 232.84375 177.359375 232.507812 176.679688 231.832031 C 176.003906 231.152344 175.664062 230.238281 175.664062 229.082031 C 175.664062 227.886719 175.984375 226.941406 176.628906 226.242188 C 177.273438 225.539062 178.144531 225.1875 179.238281 225.1875 C 180.21875 225.1875 180.992188 225.503906 181.566406 226.136719 C 182.136719 226.769531 182.421875 227.625 182.421875 228.710938 Z M 181.222656 228.359375 C 181.214844 227.703125 181.03125 227.183594 180.671875 226.792969 C 180.316406 226.398438 179.839844 226.203125 179.25 226.203125 C 178.582031 226.203125 178.046875 226.394531 177.644531 226.769531 C 177.246094 227.148438 177.011719 227.679688 176.953125 228.367188 Z M 181.222656 228.359375 "/>
<path style=" stroke:none;fill-rule:nonzero;fill:rgb(0%,0%,0%);fill-opacity:1;" d="M 185.542969 231.5625 L 185.542969 235.429688 L 184.339844 235.429688 L 184.339844 225.363281 L 185.542969 225.363281 L 185.542969 226.46875 C 185.796875 226.039062 186.117188 225.714844 186.5 225.507812 C 186.882812 225.296875 187.34375 225.1875 187.875 225.1875 C 188.761719 225.1875 189.480469 225.539062 190.035156 226.242188 C 190.589844 226.945312 190.867188 227.871094 190.867188 229.015625 C 190.867188 230.164062 190.589844 231.085938 190.035156 231.792969 C 189.480469 232.496094 188.761719 232.84375 187.875 232.84375 C 187.34375 232.84375 186.882812 232.738281 186.5 232.527344 C 186.117188 232.316406 185.796875 231.996094 185.542969 231.5625 Z M 189.621094 229.015625 C 189.621094 228.136719 189.441406 227.445312 189.078125 226.945312 C 188.714844 226.441406 188.21875 226.191406 187.585938 226.191406 C 186.949219 226.191406 186.449219 226.441406 186.089844 226.945312 C 185.726562 227.445312 185.542969 228.136719 185.542969 229.015625 C 185.542969 229.898438 185.726562 230.589844 186.089844 231.089844 C 186.449219 231.589844 186.949219 231.839844 187.585938 231.839844 C 188.21875 231.839844 188.714844 231.589844 189.078125 231.089844 C 189.441406 230.589844 189.621094 229.898438 189.621094 229.015625 Z M 189.621094 229.015625 "/>
<path style=" stroke:none;fill-rule:nonzero;fill:rgb(0%,0%,0%);fill-opacity:1;" d="M 195.675781 226.203125 C 195.035156 226.203125 194.527344 226.453125 194.152344 226.957031 C 193.777344 227.457031 193.589844 228.144531 193.589844 229.015625 C 193.589844 229.890625 193.777344 230.574219 194.148438 231.078125 C 194.519531 231.578125 195.027344 231.828125 195.675781 231.828125 C 196.3125 231.828125 196.820312 231.578125 197.191406 231.074219 C 197.566406 230.570312 197.753906 229.882812 197.753906 229.015625 C 197.753906 228.152344 197.566406 227.46875 197.191406 226.960938 C 196.820312 226.457031 196.3125 226.203125 195.675781 226.203125 Z M 195.675781 225.1875 C 196.714844 225.1875 197.535156 225.527344 198.128906 226.207031 C 198.726562 226.882812 199.023438 227.820312 199.023438 229.015625 C 199.023438 230.210938 198.726562 231.144531 198.128906 231.828125 C 197.535156 232.507812 196.714844 232.84375 195.675781 232.84375 C 194.628906 232.84375 193.808594 232.507812 193.214844 231.828125 C 192.625 231.144531 192.328125 230.210938 192.328125 229.015625 C 192.328125 227.820312 192.625 226.882812 193.214844 226.207031 C 193.808594 225.527344 194.628906 225.1875 195.675781 225.1875 Z M 195.675781 225.1875 "/>
<path style=" stroke:none;fill-rule:nonzero;fill:rgb(0%,0%,0%);fill-opacity:1;" d="M 206.253906 225.644531 L 206.253906 226.765625 C 205.917969 226.578125 205.578125 226.4375 205.238281 226.34375 C 204.894531 226.25 204.550781 226.203125 204.207031 226.203125 C 203.425781 226.203125 202.824219 226.449219 202.394531 226.945312 C 201.964844 227.433594 201.75 228.125 201.75 229.015625 C 201.75 229.90625 201.964844 230.597656 202.394531 231.089844 C 202.824219 231.582031 203.425781 231.828125 204.207031 231.828125 C 204.550781 231.828125 204.894531 231.78125 205.238281 231.6875 C 205.578125 231.597656 205.917969 231.457031 206.253906 231.269531 L 206.253906 232.375 C 205.921875 232.53125 205.574219 232.648438 205.214844 232.726562 C 204.859375 232.804688 204.476562 232.84375 204.074219 232.84375 C 202.976562 232.84375 202.101562 232.5 201.457031 231.808594 C 200.808594 231.121094 200.488281 230.1875 200.488281 229.015625 C 200.488281 227.828125 200.8125 226.894531 201.464844 226.210938 C 202.121094 225.53125 203.015625 225.1875 204.152344 225.1875 C 204.519531 225.1875 204.882812 225.226562 205.234375 225.304688 C 205.582031 225.378906 205.925781 225.492188 206.253906 225.644531 Z M 206.253906 225.644531 "/>
<path style=" stroke:none;fill-rule:nonzero;fill:rgb(0%,0%,0%);fill-opacity:1;" d="M 214.402344 228.253906 L 214.402344 232.65625 L 213.203125 232.65625 L 213.203125 228.292969 C 213.203125 227.601562 213.066406 227.085938 212.796875 226.746094 C 212.527344 226.402344 212.125 226.230469 211.589844 226.230469 C 210.941406 226.230469 210.429688 226.4375 210.058594 226.851562 C 209.683594 227.261719 209.496094 227.824219 209.496094 228.535156 L 209.496094 232.65625 L 208.292969 232.65625 L 208.292969 222.523438 L 209.496094 222.523438 L 209.496094 226.496094 C 209.785156 226.058594 210.121094 225.730469 210.507812 225.515625 C 210.898438 225.296875 211.347656 225.1875 211.855469 225.1875 C 212.691406 225.1875 213.324219 225.449219 213.753906 225.964844 C 214.183594 226.484375 214.402344 227.246094 214.402344 228.253906 Z M 214.402344 228.253906 "/>
<path style=" stroke:none;fill-rule:nonzero;fill:rgb(0%,0%,0%);fill-opacity:1;" d="M 221.4375 225.578125 L 221.4375 226.710938 C 221.097656 226.539062 220.746094 226.410156 220.382812 226.324219 C 220.019531 226.234375 219.640625 226.191406 219.25 226.191406 C 218.65625 226.191406 218.207031 226.28125 217.910156 226.464844 C 217.613281 226.644531 217.464844 226.921875 217.464844 227.285156 C 217.464844 227.5625 217.570312 227.78125 217.785156 227.9375 C 217.996094 228.097656 218.425781 228.25 219.066406 228.390625 L 219.476562 228.484375 C 220.328125 228.664062 220.933594 228.921875 221.289062 229.253906 C 221.648438 229.585938 221.828125 230.050781 221.828125 230.644531 C 221.828125 231.320312 221.558594 231.859375 221.023438 232.253906 C 220.488281 232.648438 219.75 232.84375 218.8125 232.84375 C 218.421875 232.84375 218.015625 232.808594 217.59375 232.730469 C 217.167969 232.65625 216.722656 232.539062 216.253906 232.390625 L 216.253906 231.152344 C 216.699219 231.382812 217.132812 231.554688 217.5625 231.671875 C 217.992188 231.785156 218.417969 231.839844 218.839844 231.839844 C 219.40625 231.839844 219.839844 231.746094 220.140625 231.550781 C 220.445312 231.359375 220.597656 231.085938 220.597656 230.734375 C 220.597656 230.410156 220.488281 230.160156 220.269531 229.988281 C 220.050781 229.8125 219.570312 229.644531 218.828125 229.484375 L 218.410156 229.386719 C 217.667969 229.230469 217.132812 228.992188 216.800781 228.667969 C 216.472656 228.34375 216.308594 227.902344 216.308594 227.335938 C 216.308594 226.652344 216.550781 226.121094 217.035156 225.75 C 217.523438 225.375 218.214844 225.1875 219.109375 225.1875 C 219.550781 225.1875 219.964844 225.222656 220.355469 225.289062 C 220.746094 225.351562 221.109375 225.449219 221.4375 225.578125 Z M 221.4375 225.578125 "/>
<g clip-path="url(#clip6)" clip-rule="nonzero">
<path style="fill:none;stroke-width:0.8;stroke-linecap:square;stroke-linejoin:round;stroke:rgb(69.01961%,69.01961%,69.01961%);stroke-opacity:1;stroke-miterlimit:4;" d="M 51.37793 111.257812 L 246.676758 111.257812 " transform="matrix(1.333333,0,0,1.333333,0,-0.000000000000014211)"/>
</g>
<path style="fill:none;stroke-width:0.8;stroke-linecap:butt;stroke-linejoin:round;stroke:rgb(0%,0%,0%);stroke-opacity:1;stroke-miterlimit:4;" d="M -0.00019455 0.000518799 L -3.501171 0.000518799 " transform="matrix(1.333333,0,0,1.333333,68.504166,148.343058)"/>
<path style=" stroke:none;fill-rule:nonzero;fill:rgb(0%,0%,0%);fill-opacity:1;" d="M 29.492188 152.199219 L 31.640625 152.199219 L 31.640625 144.785156 L 29.300781 145.253906 L 29.300781 144.054688 L 31.628906 143.585938 L 32.941406 143.585938 L 32.941406 152.199219 L 35.089844 152.199219 L 35.089844 153.304688 L 29.492188 153.304688 Z M 29.492188 152.199219 "/>
<path style=" stroke:none;fill-rule:nonzero;fill:rgb(0%,0%,0%);fill-opacity:1;" d="M 40.558594 144.453125 C 39.882812 144.453125 39.371094 144.785156 39.03125 145.453125 C 38.691406 146.117188 38.519531 147.117188 38.519531 148.457031 C 38.519531 149.789062 38.691406 150.789062 39.03125 151.453125 C 39.371094 152.121094 39.882812 152.453125 40.558594 152.453125 C 41.238281 152.453125 41.75 152.121094 42.089844 151.453125 C 42.433594 150.789062 42.605469 149.789062 42.605469 148.457031 C 42.605469 147.117188 42.433594 146.117188 42.089844 145.453125 C 41.75 144.785156 41.238281 144.453125 40.558594 144.453125 Z M 40.558594 143.410156 C 41.648438 143.410156 42.480469 143.84375 43.054688 144.703125 C 43.632812 145.566406 43.917969 146.816406 43.917969 148.457031 C 43.917969 150.09375 43.632812 151.34375 43.054688 152.203125 C 42.480469 153.066406 41.648438 153.496094 40.558594 153.496094 C 39.46875 153.496094 38.636719 153.066406 38.0625 152.203125 C 37.488281 151.34375 37.199219 150.09375 37.199219 148.457031 C 37.199219 146.816406 37.488281 145.566406 38.0625 144.703125 C 38.636719 143.84375 39.46875 143.410156 40.558594 143.410156 Z M 40.558594 143.410156 "/>
<path style=" stroke:none;fill-rule:nonzero;fill:rgb(0%,0%,0%);fill-opacity:1;" d="M 45.921875 144.890625 L 51.761719 144.890625 L 51.761719 145.664062 L 45.921875 145.664062 Z M 45.921875 144.890625 "/>
<path style=" stroke:none;fill-rule:nonzero;fill:rgb(0%,0%,0%);fill-opacity:1;" d="M 54.542969 147.429688 L 57.753906 147.429688 L 57.753906 148.203125 L 53.433594 148.203125 L 53.433594 147.429688 C 53.785156 147.066406 54.261719 146.582031 54.863281 145.972656 C 55.46875 145.363281 55.847656 144.96875 56 144.792969 C 56.296875 144.460938 56.5 144.183594 56.617188 143.953125 C 56.734375 143.722656 56.792969 143.496094 56.792969 143.277344 C 56.792969 142.914062 56.667969 142.621094 56.414062 142.390625 C 56.160156 142.164062 55.828125 142.050781 55.421875 142.050781 C 55.132812 142.050781 54.828125 142.101562 54.507812 142.199219 C 54.1875 142.300781 53.84375 142.453125 53.480469 142.65625 L 53.480469 141.726562 C 53.851562 141.578125 54.195312 141.464844 54.519531 141.390625 C 54.84375 141.3125 55.136719 141.273438 55.402344 141.273438 C 56.109375 141.273438 56.671875 141.453125 57.089844 141.804688 C 57.507812 142.15625 57.71875 142.628906 57.71875 143.214844 C 57.71875 143.496094 57.667969 143.761719 57.5625 144.011719 C 57.457031 144.261719 57.265625 144.558594 56.988281 144.898438 C 56.914062 144.984375 56.671875 145.242188 56.265625 145.660156 C 55.859375 146.082031 55.285156 146.671875 54.542969 147.429688 Z M 54.542969 147.429688 "/>
<g clip-path="url(#clip7)" clip-rule="nonzero">
<path style="fill:none;stroke-width:0.8;stroke-linecap:square;stroke-linejoin:round;stroke:rgb(69.01961%,69.01961%,69.01961%);stroke-opacity:1;stroke-miterlimit:4;" d="M 51.37793 61.12793 L 246.676758 61.12793 " transform="matrix(1.333333,0,0,1.333333,0,-0.000000000000014211)"/>
</g>
<path style="fill:none;stroke-width:0.8;stroke-linecap:butt;stroke-linejoin:round;stroke:rgb(0%,0%,0%);stroke-opacity:1;stroke-miterlimit:4;" d="M -0.00019455 -0.000328064 L -3.501171 -0.000328064 " transform="matrix(1.333333,0,0,1.333333,68.504166,81.504344)"/>
<path style=" stroke:none;fill-rule:nonzero;fill:rgb(0%,0%,0%);fill-opacity:1;" d="M 37.359375 85.363281 L 39.507812 85.363281 L 39.507812 77.945312 L 37.167969 78.414062 L 37.167969 77.214844 L 39.492188 76.746094 L 40.808594 76.746094 L 40.808594 85.363281 L 42.957031 85.363281 L 42.957031 86.46875 L 37.359375 86.46875 Z M 37.359375 85.363281 "/>
<path style=" stroke:none;fill-rule:nonzero;fill:rgb(0%,0%,0%);fill-opacity:1;" d="M 48.425781 77.613281 C 47.75 77.613281 47.238281 77.945312 46.898438 78.613281 C 46.558594 79.277344 46.386719 80.28125 46.386719 81.617188 C 46.386719 82.949219 46.558594 83.949219 46.898438 84.617188 C 47.238281 85.28125 47.75 85.617188 48.425781 85.617188 C 49.105469 85.617188 49.617188 85.28125 49.957031 84.617188 C 50.300781 83.949219 50.46875 82.949219 50.46875 81.617188 C 50.46875 80.28125 50.300781 79.277344 49.957031 78.613281 C 49.617188 77.945312 49.105469 77.613281 48.425781 77.613281 Z M 48.425781 76.570312 C 49.515625 76.570312 50.347656 77.003906 50.921875 77.867188 C 51.496094 78.726562 51.785156 79.976562 51.785156 81.617188 C 51.785156 83.253906 51.496094 84.503906 50.921875 85.367188 C 50.347656 86.226562 49.515625 86.65625 48.425781 86.65625 C 47.335938 86.65625 46.503906 86.226562 45.929688 85.367188 C 45.355469 84.503906 45.066406 83.253906 45.066406 81.617188 C 45.066406 79.976562 45.355469 78.726562 45.929688 77.867188 C 46.503906 77.003906 47.335938 76.570312 48.425781 76.570312 Z M 48.425781 76.570312 "/>
<path style=" stroke:none;fill-rule:nonzero;fill:rgb(0%,0%,0%);fill-opacity:1;" d="M 55.765625 75.164062 C 55.289062 75.164062 54.933594 75.398438 54.695312 75.867188 C 54.457031 76.332031 54.339844 77.03125 54.339844 77.96875 C 54.339844 78.902344 54.457031 79.601562 54.695312 80.066406 C 54.933594 80.535156 55.289062 80.765625 55.765625 80.765625 C 56.242188 80.765625 56.597656 80.535156 56.835938 80.066406 C 57.078125 79.601562 57.195312 78.902344 57.195312 77.96875 C 57.195312 77.03125 57.078125 76.332031 56.835938 75.867188 C 56.597656 75.398438 56.242188 75.164062 55.765625 75.164062 Z M 55.765625 74.4375 C 56.527344 74.4375 57.109375 74.738281 57.511719 75.34375 C 57.914062 75.945312 58.117188 76.820312 58.117188 77.96875 C 58.117188 79.113281 57.914062 79.988281 57.511719 80.59375 C 57.109375 81.195312 56.527344 81.496094 55.765625 81.496094 C 55 81.496094 54.417969 81.195312 54.015625 80.59375 C 53.613281 79.988281 53.414062 79.113281 53.414062 77.96875 C 53.414062 76.820312 53.613281 75.945312 54.015625 75.34375 C 54.417969 74.738281 55 74.4375 55.765625 74.4375 Z M 55.765625 74.4375 "/>
<g clip-path="url(#clip8)" clip-rule="nonzero">
<path style="fill:none;stroke-width:0.8;stroke-linecap:square;stroke-linejoin:round;stroke:rgb(69.01961%,69.01961%,69.01961%);stroke-opacity:1;stroke-miterlimit:4;" d="M 51.37793 10.998047 L 246.676758 10.998047 " transform="matrix(1.333333,0,0,1.333333,0,-0.000000000000014211)"/>
</g>
<path style="fill:none;stroke-width:0.8;stroke-linecap:butt;stroke-linejoin:round;stroke:rgb(0%,0%,0%);stroke-opacity:1;stroke-miterlimit:4;" d="M -0.00019455 -0.00117207 L -3.501171 -0.00117207 " transform="matrix(1.333333,0,0,1.333333,68.504166,14.665625)"/>
<path style=" stroke:none;fill-rule:nonzero;fill:rgb(0%,0%,0%);fill-opacity:1;" d="M 37.359375 18.523438 L 39.507812 18.523438 L 39.507812 11.105469 L 37.167969 11.574219 L 37.167969 10.378906 L 39.492188 9.910156 L 40.808594 9.910156 L 40.808594 18.523438 L 42.957031 18.523438 L 42.957031 19.628906 L 37.359375 19.628906 Z M 37.359375 18.523438 "/>
<path style=" stroke:none;fill-rule:nonzero;fill:rgb(0%,0%,0%);fill-opacity:1;" d="M 48.425781 10.773438 C 47.75 10.773438 47.238281 11.109375 46.898438 11.773438 C 46.558594 12.441406 46.386719 13.441406 46.386719 14.777344 C 46.386719 16.109375 46.558594 17.109375 46.898438 17.777344 C 47.238281 18.445312 47.75 18.777344 48.425781 18.777344 C 49.105469 18.777344 49.617188 18.445312 49.957031 17.777344 C 50.300781 17.109375 50.46875 16.109375 50.46875 14.777344 C 50.46875 13.441406 50.300781 12.441406 49.957031 11.773438 C 49.617188 11.109375 49.105469 10.773438 48.425781 10.773438 Z M 48.425781 9.734375 C 49.515625 9.734375 50.347656 10.164062 50.921875 11.027344 C 51.496094 11.886719 51.785156 13.140625 51.785156 14.777344 C 51.785156 16.414062 51.496094 17.664062 50.921875 18.527344 C 50.347656 19.386719 49.515625 19.820312 48.425781 19.820312 C 47.335938 19.820312 46.503906 19.386719 45.929688 18.527344 C 45.355469 17.664062 45.066406 16.414062 45.066406 14.777344 C 45.066406 13.140625 45.355469 11.886719 45.929688 11.027344 C 46.503906 10.164062 47.335938 9.734375 48.425781 9.734375 Z M 48.425781 9.734375 "/>
<path style=" stroke:none;fill-rule:nonzero;fill:rgb(0%,0%,0%);fill-opacity:1;" d="M 54.589844 13.75 L 57.800781 13.75 L 57.800781 14.523438 L 53.480469 14.523438 L 53.480469 13.75 C 53.832031 13.390625 54.308594 12.902344 54.910156 12.296875 C 55.511719 11.6875 55.890625 11.292969 56.046875 11.117188 C 56.339844 10.785156 56.546875 10.503906 56.664062 10.277344 C 56.78125 10.046875 56.839844 9.820312 56.839844 9.597656 C 56.839844 9.238281 56.714844 8.941406 56.460938 8.714844 C 56.207031 8.488281 55.875 8.371094 55.46875 8.371094 C 55.179688 8.371094 54.875 8.421875 54.554688 8.523438 C 54.234375 8.621094 53.890625 8.773438 53.527344 8.980469 L 53.527344 8.046875 C 53.898438 7.898438 54.242188 7.789062 54.566406 7.710938 C 54.886719 7.636719 55.183594 7.597656 55.449219 7.597656 C 56.15625 7.597656 56.71875 7.773438 57.136719 8.128906 C 57.554688 8.480469 57.765625 8.949219 57.765625 9.539062 C 57.765625 9.820312 57.710938 10.085938 57.609375 10.335938 C 57.503906 10.585938 57.3125 10.878906 57.035156 11.21875 C 56.960938 11.308594 56.71875 11.5625 56.3125 11.984375 C 55.90625 12.40625 55.332031 12.996094 54.589844 13.75 Z M 54.589844 13.75 "/>
<path style=" stroke:none;fill-rule:nonzero;fill:rgb(0%,0%,0%);fill-opacity:1;" d="M 9.601562 115.976562 L 9.601562 114.777344 L 19.730469 114.777344 L 19.730469 115.976562 Z M 9.601562 115.976562 "/>
<path style=" stroke:none;fill-rule:nonzero;fill:rgb(0%,0%,0%);fill-opacity:1;" d="M 13.277344 109.445312 C 13.277344 110.085938 13.53125 110.59375 14.03125 110.96875 C 14.53125 111.34375 15.21875 111.527344 16.089844 111.527344 C 16.964844 111.527344 17.652344 111.34375 18.152344 110.972656 C 18.652344 110.601562 18.902344 110.089844 18.902344 109.445312 C 18.902344 108.804688 18.652344 108.300781 18.148438 107.929688 C 17.644531 107.554688 16.960938 107.367188 16.089844 107.367188 C 15.226562 107.367188 14.542969 107.554688 14.039062 107.929688 C 13.53125 108.300781 13.277344 108.804688 13.277344 109.445312 Z M 12.265625 109.445312 C 12.265625 108.402344 12.601562 107.585938 13.28125 106.992188 C 13.957031 106.394531 14.894531 106.097656 16.089844 106.097656 C 17.285156 106.097656 18.222656 106.394531 18.902344 106.992188 C 19.582031 107.585938 19.921875 108.402344 19.921875 109.445312 C 19.921875 110.492188 19.582031 111.3125 18.902344 111.902344 C 18.222656 112.496094 17.285156 112.792969 16.089844 112.792969 C 14.894531 112.792969 13.957031 112.496094 13.28125 111.902344 C 12.601562 111.3125 12.265625 110.492188 12.265625 109.445312 Z M 12.265625 109.445312 "/>
<path style=" stroke:none;fill-rule:nonzero;fill:rgb(0%,0%,0%);fill-opacity:1;" d="M 12.652344 99.464844 L 13.789062 99.464844 C 13.613281 99.800781 13.484375 100.152344 13.398438 100.519531 C 13.308594 100.882812 13.265625 101.261719 13.265625 101.652344 C 13.265625 102.246094 13.359375 102.691406 13.539062 102.988281 C 13.722656 103.289062 13.996094 103.4375 14.359375 103.4375 C 14.636719 103.4375 14.855469 103.328125 15.015625 103.117188 C 15.171875 102.90625 15.324219 102.476562 15.464844 101.832031 L 15.558594 101.421875 C 15.742188 100.574219 15.996094 99.96875 16.328125 99.609375 C 16.660156 99.253906 17.125 99.074219 17.71875 99.074219 C 18.398438 99.074219 18.933594 99.339844 19.328125 99.878906 C 19.722656 100.414062 19.921875 101.148438 19.921875 102.085938 C 19.921875 102.476562 19.882812 102.886719 19.804688 103.308594 C 19.730469 103.730469 19.617188 104.179688 19.464844 104.644531 L 18.226562 104.644531 C 18.457031 104.203125 18.628906 103.765625 18.746094 103.335938 C 18.859375 102.910156 18.917969 102.484375 18.917969 102.0625 C 18.917969 101.496094 18.820312 101.0625 18.628906 100.761719 C 18.433594 100.457031 18.160156 100.304688 17.808594 100.304688 C 17.484375 100.304688 17.234375 100.414062 17.0625 100.632812 C 16.890625 100.851562 16.722656 101.332031 16.558594 102.074219 L 16.460938 102.492188 C 16.308594 103.234375 16.066406 103.769531 15.742188 104.101562 C 15.421875 104.429688 14.976562 104.59375 14.414062 104.59375 C 13.726562 104.59375 13.195312 104.351562 12.824219 103.863281 C 12.453125 103.378906 12.265625 102.6875 12.265625 101.792969 C 12.265625 101.351562 12.296875 100.9375 12.363281 100.546875 C 12.425781 100.15625 12.523438 99.792969 12.652344 99.464844 Z M 12.652344 99.464844 "/>
<path style=" stroke:none;fill-rule:nonzero;fill:rgb(0%,0%,0%);fill-opacity:1;" d="M 12.652344 92.519531 L 13.789062 92.519531 C 13.613281 92.855469 13.484375 93.207031 13.398438 93.574219 C 13.308594 93.9375 13.265625 94.3125 13.265625 94.707031 C 13.265625 95.300781 13.359375 95.746094 13.539062 96.042969 C 13.722656 96.339844 13.996094 96.488281 14.359375 96.488281 C 14.636719 96.488281 14.855469 96.382812 15.015625 96.171875 C 15.171875 95.957031 15.324219 95.53125 15.464844 94.886719 L 15.558594 94.476562 C 15.742188 93.625 15.996094 93.023438 16.328125 92.664062 C 16.660156 92.304688 17.125 92.125 17.71875 92.125 C 18.398438 92.125 18.933594 92.394531 19.328125 92.929688 C 19.722656 93.46875 19.921875 94.203125 19.921875 95.140625 C 19.921875 95.53125 19.882812 95.9375 19.804688 96.363281 C 19.730469 96.785156 19.617188 97.230469 19.464844 97.699219 L 18.226562 97.699219 C 18.457031 97.257812 18.628906 96.820312 18.746094 96.390625 C 18.859375 95.960938 18.917969 95.535156 18.917969 95.113281 C 18.917969 94.550781 18.820312 94.117188 18.628906 93.8125 C 18.433594 93.511719 18.160156 93.359375 17.808594 93.359375 C 17.484375 93.359375 17.234375 93.46875 17.0625 93.6875 C 16.890625 93.90625 16.722656 94.386719 16.558594 95.128906 L 16.460938 95.546875 C 16.308594 96.285156 16.066406 96.824219 15.742188 97.152344 C 15.421875 97.484375 14.976562 97.648438 14.414062 97.648438 C 13.726562 97.648438 13.195312 97.40625 12.824219 96.917969 C 12.453125 96.433594 12.265625 95.742188 12.265625 94.847656 C 12.265625 94.40625 12.296875 93.988281 12.363281 93.597656 C 12.425781 93.207031 12.523438 92.847656 12.652344 92.519531 Z M 12.652344 92.519531 "/>
<g clip-path="url(#clip9)" clip-rule="nonzero">
<path style="fill:none;stroke-width:1.5;stroke-linecap:square;stroke-linejoin:round;stroke:rgb(12.156863%,46.666667%,70.588237%);stroke-opacity:1;stroke-miterlimit:4;" d="M 51.37793 34.227539 L 61.658203 49.907227 L 71.935547 64.505859 L 82.21582 78.216797 L 92.493164 91.157227 L 102.773437 103.248047 L 113.050781 114.222656 L 123.331055 123.509766 L 133.608398 130.447266 L 143.888672 134.915039 L 154.168945 137.402344 L 164.446289 138.665039 L 174.726562 139.467773 L 185.003906 139.708008 L 195.28418 139.87207 L 205.561523 139.962891 L 215.841797 140.030273 L 226.119141 140.021484 L 236.399414 140.024414 L 246.676758 140.039062 " transform="matrix(1.333333,0,0,1.333333,0,-0.000000000000014211)"/>
</g>
<g clip-path="url(#clip10)" clip-rule="nonzero">
<path style="fill:none;stroke-width:1.5;stroke-linecap:butt;stroke-linejoin:round;stroke:rgb(74.901962%,0%,74.901962%);stroke-opacity:1;stroke-dasharray:5.55,2.4;stroke-miterlimit:4;" d="M 51.37793 16.494141 L 61.658203 20.557617 L 71.935547 24.527344 L 82.21582 28.458984 L 92.493164 32.378906 L 102.773437 36.292969 L 113.050781 40.195312 L 123.331055 44.091797 L 133.608398 47.979492 L 143.888672 51.855469 L 154.168945 55.716797 L 164.446289 59.560547 L 174.726562 63.380859 L 185.003906 67.171875 L 195.28418 70.927734 L 205.561523 74.636719 L 215.841797 78.28418 L 226.119141 81.855469 L 236.399414 85.330078 L 246.676758 88.68457 " transform="matrix(1.333333,0,0,1.333333,0,-0.000000000000014211)"/>
</g>
<path style="fill:none;stroke-width:0.8;stroke-linecap:square;stroke-linejoin:miter;stroke:rgb(0%,0%,0%);stroke-opacity:1;stroke-miterlimit:4;" d="M 51.37793 146.214844 L 51.37793 10.31543 " transform="matrix(1.333333,0,0,1.333333,0,-0.000000000000014211)"/>
<path style="fill:none;stroke-width:0.8;stroke-linecap:square;stroke-linejoin:miter;stroke:rgb(0%,0%,0%);stroke-opacity:1;stroke-miterlimit:4;" d="M 246.676758 146.214844 L 246.676758 10.31543 " transform="matrix(1.333333,0,0,1.333333,0,-0.000000000000014211)"/>
<path style="fill:none;stroke-width:0.8;stroke-linecap:square;stroke-linejoin:miter;stroke:rgb(0%,0%,0%);stroke-opacity:1;stroke-miterlimit:4;" d="M 51.37793 146.214844 L 246.676758 146.214844 " transform="matrix(1.333333,0,0,1.333333,0,-0.000000000000014211)"/>
<path style="fill:none;stroke-width:0.8;stroke-linecap:square;stroke-linejoin:miter;stroke:rgb(0%,0%,0%);stroke-opacity:1;stroke-miterlimit:4;" d="M 51.37793 10.31543 L 246.676758 10.31543 " transform="matrix(1.333333,0,0,1.333333,0,-0.000000000000014211)"/>
<use xlink:href="#surface5" mask="url(#mask0)"/>
<path style="fill:none;stroke-width:1.5;stroke-linecap:square;stroke-linejoin:round;stroke:rgb(12.156863%,46.666667%,70.588237%);stroke-opacity:1;stroke-miterlimit:4;" d="M 186.404297 23.414063 L 206.402344 23.414063 " transform="matrix(1.333333,0,0,1.333333,0,-0.000000000000014211)"/>
<path style=" stroke:none;fill-rule:nonzero;fill:rgb(0%,0%,0%);fill-opacity:1;" d="M 288.3125 26.523438 L 288.3125 28.59375 L 290.777344 28.59375 L 290.777344 29.523438 L 288.3125 29.523438 L 288.3125 33.484375 C 288.3125 34.078125 288.394531 34.460938 288.554688 34.628906 C 288.71875 34.796875 289.050781 34.882812 289.550781 34.882812 L 290.777344 34.882812 L 290.777344 35.886719 L 289.550781 35.886719 C 288.625 35.886719 287.988281 35.714844 287.636719 35.367188 C 287.285156 35.023438 287.109375 34.394531 287.109375 33.484375 L 287.109375 29.523438 L 286.230469 29.523438 L 286.230469 28.59375 L 287.109375 28.59375 L 287.109375 26.523438 Z M 288.3125 26.523438 "/>
<path style=" stroke:none;fill-rule:nonzero;fill:rgb(0%,0%,0%);fill-opacity:1;" d="M 296.578125 29.710938 C 296.445312 29.632812 296.296875 29.578125 296.140625 29.542969 C 295.980469 29.503906 295.808594 29.484375 295.617188 29.484375 C 294.941406 29.484375 294.417969 29.707031 294.058594 30.144531 C 293.695312 30.585938 293.511719 31.21875 293.511719 32.042969 L 293.511719 35.886719 L 292.308594 35.886719 L 292.308594 28.59375 L 293.511719 28.59375 L 293.511719 29.726562 C 293.765625 29.285156 294.09375 28.957031 294.496094 28.742188 C 294.902344 28.527344 295.390625 28.417969 295.96875 28.417969 C 296.050781 28.417969 296.140625 28.425781 296.242188 28.433594 C 296.34375 28.445312 296.453125 28.460938 296.574219 28.484375 Z M 296.578125 29.710938 "/>
<path style=" stroke:none;fill-rule:nonzero;fill:rgb(0%,0%,0%);fill-opacity:1;" d="M 301.152344 32.21875 C 300.183594 32.21875 299.511719 32.332031 299.140625 32.550781 C 298.765625 32.773438 298.578125 33.152344 298.578125 33.683594 C 298.578125 34.109375 298.71875 34.449219 299 34.699219 C 299.28125 34.945312 299.660156 35.070312 300.140625 35.070312 C 300.804688 35.070312 301.339844 34.835938 301.742188 34.363281 C 302.140625 33.894531 302.34375 33.269531 302.34375 32.488281 L 302.34375 32.21875 Z M 303.539062 31.726562 L 303.539062 35.886719 L 302.34375 35.886719 L 302.34375 34.777344 C 302.070312 35.21875 301.726562 35.546875 301.320312 35.757812 C 300.910156 35.96875 300.414062 36.074219 299.820312 36.074219 C 299.078125 36.074219 298.484375 35.863281 298.039062 35.445312 C 297.601562 35.027344 297.378906 34.464844 297.378906 33.761719 C 297.378906 32.941406 297.65625 32.324219 298.203125 31.90625 C 298.753906 31.492188 299.574219 31.28125 300.660156 31.28125 L 302.34375 31.28125 L 302.34375 31.164062 C 302.34375 30.613281 302.160156 30.1875 301.800781 29.886719 C 301.4375 29.582031 300.925781 29.433594 300.273438 29.433594 C 299.855469 29.433594 299.449219 29.484375 299.054688 29.582031 C 298.660156 29.683594 298.28125 29.832031 297.914062 30.03125 L 297.914062 28.925781 C 298.351562 28.753906 298.777344 28.628906 299.191406 28.546875 C 299.601562 28.460938 300.003906 28.417969 300.394531 28.417969 C 301.449219 28.417969 302.238281 28.691406 302.757812 29.238281 C 303.28125 29.785156 303.539062 30.613281 303.539062 31.726562 Z M 303.539062 31.726562 "/>
<path style=" stroke:none;fill-rule:nonzero;fill:rgb(0%,0%,0%);fill-opacity:1;" d="M 306.007812 28.59375 L 307.207031 28.59375 L 307.207031 35.886719 L 306.007812 35.886719 Z M 306.007812 25.753906 L 307.207031 25.753906 L 307.207031 27.273438 L 306.007812 27.273438 Z M 306.007812 25.753906 "/>
<path style=" stroke:none;fill-rule:nonzero;fill:rgb(0%,0%,0%);fill-opacity:1;" d="M 315.773438 31.484375 L 315.773438 35.886719 L 314.578125 35.886719 L 314.578125 31.523438 C 314.578125 30.832031 314.441406 30.316406 314.171875 29.976562 C 313.902344 29.632812 313.5 29.460938 312.960938 29.460938 C 312.316406 29.460938 311.804688 29.667969 311.429688 30.078125 C 311.058594 30.488281 310.871094 31.050781 310.871094 31.765625 L 310.871094 35.886719 L 309.664062 35.886719 L 309.664062 28.59375 L 310.871094 28.59375 L 310.871094 29.726562 C 311.15625 29.289062 311.496094 28.960938 311.882812 28.742188 C 312.269531 28.527344 312.71875 28.417969 313.226562 28.417969 C 314.066406 28.417969 314.699219 28.675781 315.128906 29.195312 C 315.558594 29.714844 315.773438 30.476562 315.773438 31.484375 Z M 315.773438 31.484375 "/>
<path style="fill:none;stroke-width:1.5;stroke-linecap:butt;stroke-linejoin:round;stroke:rgb(74.901962%,0%,74.901962%);stroke-opacity:1;stroke-dasharray:5.55,2.4;stroke-miterlimit:4;" d="M 186.404297 38.091797 L 206.402344 38.091797 " transform="matrix(1.333333,0,0,1.333333,0,-0.000000000000014211)"/>
<path style=" stroke:none;fill-rule:nonzero;fill:rgb(0%,0%,0%);fill-opacity:1;" d="M 288.3125 46.09375 L 288.3125 48.164062 L 290.777344 48.164062 L 290.777344 49.09375 L 288.3125 49.09375 L 288.3125 53.054688 C 288.3125 53.648438 288.394531 54.03125 288.554688 54.199219 C 288.71875 54.371094 289.050781 54.453125 289.550781 54.453125 L 290.777344 54.453125 L 290.777344 55.457031 L 289.550781 55.457031 C 288.625 55.457031 287.988281 55.285156 287.636719 54.9375 C 287.285156 54.59375 287.109375 53.964844 287.109375 53.054688 L 287.109375 49.09375 L 286.230469 49.09375 L 286.230469 48.164062 L 287.109375 48.164062 L 287.109375 46.09375 Z M 288.3125 46.09375 "/>
<path style=" stroke:none;fill-rule:nonzero;fill:rgb(0%,0%,0%);fill-opacity:1;" d="M 298.59375 51.511719 L 298.59375 52.09375 L 293.085938 52.09375 C 293.136719 52.921875 293.386719 53.550781 293.828125 53.980469 C 294.273438 54.414062 294.894531 54.628906 295.6875 54.628906 C 296.148438 54.628906 296.59375 54.574219 297.027344 54.460938 C 297.457031 54.347656 297.886719 54.179688 298.3125 53.953125 L 298.3125 55.085938 C 297.882812 55.265625 297.441406 55.40625 296.992188 55.5 C 296.539062 55.597656 296.082031 55.644531 295.617188 55.644531 C 294.453125 55.644531 293.53125 55.308594 292.851562 54.632812 C 292.171875 53.953125 291.835938 53.035156 291.835938 51.882812 C 291.835938 50.6875 292.15625 49.742188 292.800781 49.042969 C 293.445312 48.339844 294.316406 47.988281 295.410156 47.988281 C 296.390625 47.988281 297.164062 48.304688 297.734375 48.9375 C 298.308594 49.566406 298.59375 50.425781 298.59375 51.511719 Z M 297.394531 51.15625 C 297.386719 50.503906 297.203125 49.980469 296.84375 49.589844 C 296.484375 49.199219 296.011719 49.003906 295.421875 49.003906 C 294.753906 49.003906 294.21875 49.191406 293.816406 49.570312 C 293.417969 49.949219 293.183594 50.480469 293.125 51.167969 Z M 297.394531 51.15625 "/>
<path style=" stroke:none;fill-rule:nonzero;fill:rgb(0%,0%,0%);fill-opacity:1;" d="M 305.207031 48.378906 L 305.207031 49.511719 C 304.867188 49.339844 304.515625 49.207031 304.152344 49.121094 C 303.789062 49.035156 303.410156 48.992188 303.019531 48.992188 C 302.425781 48.992188 301.976562 49.082031 301.679688 49.265625 C 301.382812 49.445312 301.234375 49.71875 301.234375 50.085938 C 301.234375 50.363281 301.339844 50.582031 301.554688 50.738281 C 301.765625 50.898438 302.195312 51.046875 302.835938 51.191406 L 303.246094 51.28125 C 304.097656 51.464844 304.703125 51.722656 305.058594 52.054688 C 305.417969 52.386719 305.597656 52.847656 305.597656 53.445312 C 305.597656 54.121094 305.328125 54.65625 304.792969 55.054688 C 304.257812 55.449219 303.519531 55.644531 302.582031 55.644531 C 302.191406 55.644531 301.785156 55.609375 301.363281 55.53125 C 300.9375 55.453125 300.492188 55.339844 300.023438 55.1875 L 300.023438 53.953125 C 300.46875 54.183594 300.902344 54.355469 301.332031 54.46875 C 301.761719 54.585938 302.1875 54.640625 302.609375 54.640625 C 303.175781 54.640625 303.605469 54.546875 303.910156 54.351562 C 304.214844 54.160156 304.367188 53.886719 304.367188 53.535156 C 304.367188 53.210938 304.257812 52.960938 304.039062 52.789062 C 303.820312 52.613281 303.339844 52.445312 302.59375 52.285156 L 302.179688 52.1875 C 301.4375 52.03125 300.902344 51.792969 300.570312 51.46875 C 300.242188 51.144531 300.078125 50.703125 300.078125 50.136719 C 300.078125 49.453125 300.320312 48.921875 300.804688 48.550781 C 301.292969 48.175781 301.980469 47.988281 302.875 47.988281 C 303.320312 47.988281 303.734375 48.023438 304.125 48.085938 C 304.515625 48.152344 304.875 48.25 305.207031 48.378906 Z M 305.207031 48.378906 "/>
<path style=" stroke:none;fill-rule:nonzero;fill:rgb(0%,0%,0%);fill-opacity:1;" d="M 308.691406 46.09375 L 308.691406 48.164062 L 311.15625 48.164062 L 311.15625 49.09375 L 308.691406 49.09375 L 308.691406 53.054688 C 308.691406 53.648438 308.769531 54.03125 308.933594 54.199219 C 309.097656 54.371094 309.425781 54.453125 309.925781 54.453125 L 311.15625 54.453125 L 311.15625 55.457031 L 309.925781 55.457031 C 309.003906 55.457031 308.363281 55.285156 308.011719 54.9375 C 307.660156 54.59375 307.484375 53.964844 307.484375 53.054688 L 307.484375 49.09375 L 306.605469 49.09375 L 306.605469 48.164062 L 307.484375 48.164062 L 307.484375 46.09375 Z M 308.691406 46.09375 "/>
</g>
</svg>
