<?xml version="1.0" encoding="UTF-8"?>
<svg xmlns="http://www.w3.org/2000/svg" xmlns:xlink="http://www.w3.org/1999/xlink" width="314.379171" height="245.940633" viewBox="0 0 314.379171 245.940633" version="1.1">
<defs>
<clipPath id="clip1">
  <path d="M 40.136719 14.664062 L 41 14.664062 L 41 195.867188 L 40.136719 195.867188 Z M 40.136719 14.664062 "/>
</clipPath>
<clipPath id="clip2">
  <path d="M 104 14.664062 L 106 14.664062 L 106 195.867188 L 104 195.867188 Z M 104 14.664062 "/>
</clipPath>
<clipPath id="clip3">
  <path d="M 169 14.664062 L 172 14.664062 L 172 195.867188 L 169 195.867188 Z M 169 14.664062 "/>
</clipPath>
<clipPath id="clip4">
  <path d="M 234 14.664062 L 237 14.664062 L 237 195.867188 L 234 195.867188 Z M 234 14.664062 "/>
</clipPath>
<clipPath id="clip5">
  <path d="M 299 14.664062 L 300.539062 14.664062 L 300.539062 195.867188 L 299 195.867188 Z M 299 14.664062 "/>
</clipPath>
<clipPath id="clip6">
  <path d="M 40.136719 195 L 300.539062 195 L 300.539062 195.867188 L 40.136719 195.867188 Z M 40.136719 195 "/>
</clipPath>
<clipPath id="clip7">
  <path d="M 40.136719 158 L 300.539062 158 L 300.539062 161 L 40.136719 161 Z M 40.136719 158 "/>
</clipPath>
<clipPath id="clip8">
  <path d="M 40.136719 122 L 300.539062 122 L 300.539062 125 L 40.136719 125 Z M 40.136719 122 "/>
</clipPath>
<clipPath id="clip9">
  <path d="M 40.136719 86 L 300.539062 86 L 300.539062 88 L 40.136719 88 Z M 40.136719 86 "/>
</clipPath>
<clipPath id="clip10">
  <path d="M 40.136719 50 L 300.539062 50 L 300.539062 52 L 40.136719 52 Z M 40.136719 50 "/>
</clipPath>
<clipPath id="clip11">
  <path d="M 40.136719 14.664062 L 300.539062 14.664062 L 300.539062 16 L 40.136719 16 Z M 40.136719 14.664062 "/>
</clipPath>
<clipPath id="clip12">
  <path d="M 40.136719 14.664062 L 300.539062 14.664062 L 300.539062 118 L 40.136719 118 Z M 40.136719 14.664062 "/>
</clipPath>
<clipPath id="clip13">
  <path d="M 40.136719 38 L 300.539062 38 L 300.539062 74 L 40.136719 74 Z M 40.136719 38 "/>
</clipPath>
<clipPath id="clip14">
  <path d="M 40.136719 40 L 300.539062 40 L 300.539062 49 L 40.136719 49 Z M 40.136719 40 "/>
</clipPath>
<filter id="alpha" filterUnits="objectBoundingBox" x="0%" y="0%" width="100%" height="100%">
  <feColorMatrix type="matrix" in="SourceGraphic" values="0 0 0 0 1 0 0 0 0 1 0 0 0 0 1 0 0 0 1 0"/>
</filter>
<mask id="mask0">
  <g filter="url(#alpha)">
<rect x="0" y="0" width="314.379171" height="245.940633" style="fill:rgb(0%,0%,0%);fill-opacity:0.8;stroke:none;"/>
  </g>
</mask>
<clipPath id="clip15">
  <rect x="0" y="0" width="315" height="246"/>
</clipPath>
<g id="surface5" clip-path="url(#clip15)">
<path style="fill-rule:nonzero;fill:rgb(100%,100%,100%);fill-opacity:1;stroke-width:1;stroke-linecap:butt;stroke-linejoin:miter;stroke:rgb(80.000001%,80.000001%,80.000001%);stroke-opacity:1;stroke-miterlimit:4;" d="M 37.104492 141.899414 L 114.873047 141.899414 C 116.206055 141.899414 116.871094 141.231445 116.871094 139.898438 L 116.871094 96.864258 C 116.871094 95.53125 116.206055 94.866211 114.873047 94.866211 L 37.104492 94.866211 C 35.768555 94.866211 35.103516 95.53125 35.103516 96.864258 L 35.103516 139.898438 C 35.103516 141.231445 35.768555 141.899414 37.104492 141.899414 Z M 37.104492 141.899414 " transform="matrix(1.333333,0,0,1.333333,0,0.000000000000014211)"/>
</g>
</defs>
<g id="surface1">
<path style=" stroke:none;fill-rule:nonzero;fill:rgb(100%,100%,100%);fill-opacity:1;" d="M 40.136719 195.867188 L 300.539062 195.867188 L 300.539062 14.664062 L 40.136719 14.664062 Z M 40.136719 195.867188 "/>
<g clip-path="url(#clip1)" clip-rule="nonzero">
<path style="fill:none;stroke-width:0.8;stroke-linecap:square;stroke-linejoin:round;stroke:rgb(69.01961%,69.01961%,69.01961%);stroke-opacity:1;stroke-miterlimit:4;" d="M 30.102539 146.900391 L 30.102539 10.998047 " transform="matrix(1.333333,0,0,1.333333,0,0.000000000000014211)"/>
</g>
<path style="fill:none;stroke-width:0.8;stroke-linecap:butt;stroke-linejoin:round;stroke:rgb(0%,0%,0%);stroke-opacity:1;stroke-miterlimit:4;" d="M -0.000585556 0.00117493 L -0.000585556 3.499222 " transform="matrix(1.333333,0,0,1.333333,40.137499,195.865621)"/>
<path style=" stroke:none;fill-rule:nonzero;fill:rgb(0%,0%,0%);fill-opacity:1;" d="M 37.550781 214.222656 L 39.699219 214.222656 L 39.699219 206.808594 L 37.359375 207.277344 L 37.359375 206.078125 L 39.683594 205.609375 L 41 205.609375 L 41 214.222656 L 43.148438 214.222656 L 43.148438 215.332031 L 37.550781 215.332031 Z M 37.550781 214.222656 "/>
<g clip-path="url(#clip2)" clip-rule="nonzero">
<path style="fill:none;stroke-width:0.8;stroke-linecap:square;stroke-linejoin:round;stroke:rgb(69.01961%,69.01961%,69.01961%);stroke-opacity:1;stroke-miterlimit:4;" d="M 78.928711 146.900391 L 78.928711 10.998047 " transform="matrix(1.333333,0,0,1.333333,0,0.000000000000014211)"/>
</g>
<path style="fill:none;stroke-width:0.8;stroke-linecap:butt;stroke-linejoin:round;stroke:rgb(0%,0%,0%);stroke-opacity:1;stroke-miterlimit:4;" d="M 0.000587463 0.00117493 L 0.000587463 3.499222 " transform="matrix(1.333333,0,0,1.333333,105.237498,195.865621)"/>
<path style=" stroke:none;fill-rule:nonzero;fill:rgb(0%,0%,0%);fill-opacity:1;" d="M 103.554688 214.222656 L 108.144531 214.222656 L 108.144531 215.332031 L 101.972656 215.332031 L 101.972656 214.222656 C 102.472656 213.707031 103.152344 213.015625 104.011719 212.144531 C 104.875 211.273438 105.417969 210.710938 105.636719 210.460938 C 106.058594 209.988281 106.351562 209.585938 106.519531 209.257812 C 106.6875 208.929688 106.769531 208.609375 106.769531 208.292969 C 106.769531 207.777344 106.589844 207.355469 106.226562 207.03125 C 105.863281 206.703125 105.390625 206.539062 104.808594 206.539062 C 104.398438 206.539062 103.960938 206.613281 103.503906 206.753906 C 103.046875 206.898438 102.558594 207.117188 102.039062 207.40625 L 102.039062 206.078125 C 102.566406 205.867188 103.0625 205.707031 103.519531 205.597656 C 103.980469 205.488281 104.402344 205.433594 104.785156 205.433594 C 105.792969 205.433594 106.59375 205.6875 107.195312 206.191406 C 107.792969 206.695312 108.089844 207.367188 108.089844 208.207031 C 108.089844 208.605469 108.015625 208.988281 107.867188 209.34375 C 107.71875 209.703125 107.445312 210.125 107.050781 210.609375 C 106.941406 210.734375 106.597656 211.101562 106.015625 211.699219 C 105.433594 212.300781 104.613281 213.144531 103.554688 214.222656 Z M 103.554688 214.222656 "/>
<g clip-path="url(#clip3)" clip-rule="nonzero">
<path style="fill:none;stroke-width:0.8;stroke-linecap:square;stroke-linejoin:round;stroke:rgb(69.01961%,69.01961%,69.01961%);stroke-opacity:1;stroke-miterlimit:4;" d="M 127.751953 146.900391 L 127.751953 10.998047 " transform="matrix(1.333333,0,0,1.333333,0,0.000000000000014211)"/>
</g>
<path style="fill:none;stroke-width:0.8;stroke-linecap:butt;stroke-linejoin:round;stroke:rgb(0%,0%,0%);stroke-opacity:1;stroke-miterlimit:4;" d="M -0.00117493 0.00117493 L -0.00117493 3.499222 " transform="matrix(1.333333,0,0,1.333333,170.337504,195.865621)"/>
<path style=" stroke:none;fill-rule:nonzero;fill:rgb(0%,0%,0%);fill-opacity:1;" d="M 171.507812 210.089844 C 172.136719 210.222656 172.625 210.503906 172.980469 210.929688 C 173.332031 211.355469 173.511719 211.878906 173.511719 212.503906 C 173.511719 213.464844 173.179688 214.207031 172.519531 214.730469 C 171.859375 215.257812 170.921875 215.519531 169.707031 215.519531 C 169.300781 215.519531 168.882812 215.480469 168.449219 215.398438 C 168.019531 215.320312 167.570312 215.199219 167.113281 215.035156 L 167.113281 213.769531 C 167.476562 213.980469 167.875 214.140625 168.308594 214.25 C 168.742188 214.355469 169.195312 214.410156 169.671875 214.410156 C 170.496094 214.410156 171.121094 214.25 171.554688 213.925781 C 171.984375 213.597656 172.203125 213.125 172.203125 212.503906 C 172.203125 211.929688 172 211.484375 171.601562 211.160156 C 171.199219 210.835938 170.640625 210.675781 169.925781 210.675781 L 168.792969 210.675781 L 168.792969 209.59375 L 169.976562 209.59375 C 170.621094 209.59375 171.117188 209.464844 171.460938 209.207031 C 171.804688 208.949219 171.976562 208.578125 171.976562 208.089844 C 171.976562 207.59375 171.796875 207.210938 171.445312 206.941406 C 171.089844 206.675781 170.585938 206.539062 169.925781 206.539062 C 169.5625 206.539062 169.175781 206.582031 168.765625 206.660156 C 168.351562 206.738281 167.898438 206.859375 167.402344 207.023438 L 167.402344 205.851562 C 167.902344 205.710938 168.371094 205.609375 168.808594 205.539062 C 169.246094 205.46875 169.65625 205.433594 170.042969 205.433594 C 171.039062 205.433594 171.828125 205.660156 172.410156 206.117188 C 172.992188 206.570312 173.285156 207.179688 173.285156 207.953125 C 173.285156 208.492188 173.128906 208.945312 172.820312 209.316406 C 172.511719 209.6875 172.074219 209.945312 171.507812 210.089844 Z M 171.507812 210.089844 "/>
<g clip-path="url(#clip4)" clip-rule="nonzero">
<path style="fill:none;stroke-width:0.8;stroke-linecap:square;stroke-linejoin:round;stroke:rgb(69.01961%,69.01961%,69.01961%);stroke-opacity:1;stroke-miterlimit:4;" d="M 176.578125 146.900391 L 176.578125 10.998047 " transform="matrix(1.333333,0,0,1.333333,0,0.000000000000014211)"/>
</g>
<path style="fill:none;stroke-width:0.8;stroke-linecap:butt;stroke-linejoin:round;stroke:rgb(0%,0%,0%);stroke-opacity:1;stroke-miterlimit:4;" d="M 0 0.00117493 L 0 3.499222 " transform="matrix(1.333333,0,0,1.333333,235.4375,195.865621)"/>
<path style=" stroke:none;fill-rule:nonzero;fill:rgb(0%,0%,0%);fill-opacity:1;" d="M 236.234375 206.753906 L 232.914062 211.945312 L 236.234375 211.945312 Z M 235.890625 205.609375 L 237.542969 205.609375 L 237.542969 211.945312 L 238.929688 211.945312 L 238.929688 213.039062 L 237.542969 213.039062 L 237.542969 215.332031 L 236.234375 215.332031 L 236.234375 213.039062 L 231.847656 213.039062 L 231.847656 211.769531 Z M 235.890625 205.609375 "/>
<g clip-path="url(#clip5)" clip-rule="nonzero">
<path style="fill:none;stroke-width:0.8;stroke-linecap:square;stroke-linejoin:round;stroke:rgb(69.01961%,69.01961%,69.01961%);stroke-opacity:1;stroke-miterlimit:4;" d="M 225.404297 146.900391 L 225.404297 10.998047 " transform="matrix(1.333333,0,0,1.333333,0,0.000000000000014211)"/>
</g>
<path style="fill:none;stroke-width:0.8;stroke-linecap:butt;stroke-linejoin:round;stroke:rgb(0%,0%,0%);stroke-opacity:1;stroke-miterlimit:4;" d="M 0.00117493 0.00117493 L 0.00117493 3.499222 " transform="matrix(1.333333,0,0,1.333333,300.537496,195.865621)"/>
<path style=" stroke:none;fill-rule:nonzero;fill:rgb(0%,0%,0%);fill-opacity:1;" d="M 297.734375 205.609375 L 302.898438 205.609375 L 302.898438 206.71875 L 298.941406 206.71875 L 298.941406 209.097656 C 299.128906 209.035156 299.320312 208.984375 299.511719 208.953125 C 299.703125 208.921875 299.894531 208.90625 300.085938 208.90625 C 301.171875 208.90625 302.027344 209.203125 302.664062 209.796875 C 303.296875 210.390625 303.613281 211.195312 303.613281 212.210938 C 303.613281 213.257812 303.289062 214.070312 302.636719 214.652344 C 301.984375 215.230469 301.066406 215.519531 299.882812 215.519531 C 299.476562 215.519531 299.058594 215.484375 298.636719 215.414062 C 298.214844 215.347656 297.777344 215.242188 297.324219 215.101562 L 297.324219 213.78125 C 297.714844 213.992188 298.117188 214.152344 298.535156 214.253906 C 298.953125 214.359375 299.390625 214.410156 299.855469 214.410156 C 300.609375 214.410156 301.203125 214.214844 301.640625 213.820312 C 302.078125 213.425781 302.296875 212.890625 302.296875 212.210938 C 302.296875 211.535156 302.078125 211 301.640625 210.605469 C 301.203125 210.210938 300.609375 210.011719 299.855469 210.011719 C 299.503906 210.011719 299.152344 210.050781 298.804688 210.128906 C 298.457031 210.207031 298.097656 210.328125 297.734375 210.492188 Z M 297.734375 205.609375 "/>
<path style=" stroke:none;fill-rule:nonzero;fill:rgb(0%,0%,0%);fill-opacity:1;" d="M 157.527344 229.621094 L 157.527344 230.207031 L 152.019531 230.207031 C 152.070312 231.03125 152.320312 231.660156 152.765625 232.09375 C 153.210938 232.523438 153.828125 232.742188 154.621094 232.742188 C 155.082031 232.742188 155.527344 232.683594 155.960938 232.570312 C 156.390625 232.460938 156.820312 232.289062 157.246094 232.0625 L 157.246094 233.195312 C 156.816406 233.378906 156.375 233.519531 155.925781 233.613281 C 155.472656 233.710938 155.015625 233.757812 154.550781 233.757812 C 153.386719 233.757812 152.464844 233.417969 151.789062 232.742188 C 151.109375 232.066406 150.769531 231.148438 150.769531 229.992188 C 150.769531 228.800781 151.089844 227.851562 151.734375 227.152344 C 152.378906 226.453125 153.25 226.101562 154.34375 226.101562 C 155.324219 226.101562 156.101562 226.417969 156.671875 227.050781 C 157.242188 227.679688 157.527344 228.539062 157.527344 229.621094 Z M 156.328125 229.269531 C 156.320312 228.617188 156.136719 228.09375 155.777344 227.703125 C 155.421875 227.3125 154.945312 227.117188 154.355469 227.117188 C 153.6875 227.117188 153.152344 227.304688 152.753906 227.683594 C 152.351562 228.058594 152.121094 228.59375 152.058594 229.277344 Z M 156.328125 229.269531 "/>
<path style=" stroke:none;fill-rule:nonzero;fill:rgb(0%,0%,0%);fill-opacity:1;" d="M 160.652344 232.472656 L 160.652344 236.339844 L 159.445312 236.339844 L 159.445312 226.277344 L 160.652344 226.277344 L 160.652344 227.382812 C 160.902344 226.949219 161.222656 226.628906 161.605469 226.417969 C 161.988281 226.207031 162.449219 226.101562 162.980469 226.101562 C 163.867188 226.101562 164.585938 226.453125 165.140625 227.15625 C 165.695312 227.859375 165.972656 228.78125 165.972656 229.929688 C 165.972656 231.074219 165.695312 232 165.140625 232.703125 C 164.585938 233.40625 163.867188 233.757812 162.980469 233.757812 C 162.449219 233.757812 161.988281 233.652344 161.605469 233.441406 C 161.222656 233.230469 160.902344 232.90625 160.652344 232.472656 Z M 164.726562 229.929688 C 164.726562 229.046875 164.546875 228.355469 164.183594 227.855469 C 163.820312 227.355469 163.324219 227.101562 162.691406 227.101562 C 162.054688 227.101562 161.558594 227.355469 161.195312 227.855469 C 160.832031 228.355469 160.652344 229.046875 160.652344 229.929688 C 160.652344 230.808594 160.832031 231.5 161.195312 232 C 161.558594 232.503906 162.054688 232.753906 162.691406 232.753906 C 163.324219 232.753906 163.820312 232.503906 164.183594 232 C 164.546875 231.5 164.726562 230.808594 164.726562 229.929688 Z M 164.726562 229.929688 "/>
<path style=" stroke:none;fill-rule:nonzero;fill:rgb(0%,0%,0%);fill-opacity:1;" d="M 170.78125 227.117188 C 170.140625 227.117188 169.632812 227.367188 169.257812 227.867188 C 168.882812 228.367188 168.699219 229.054688 168.699219 229.929688 C 168.699219 230.800781 168.882812 231.488281 169.253906 231.988281 C 169.625 232.488281 170.136719 232.742188 170.78125 232.742188 C 171.421875 232.742188 171.925781 232.488281 172.296875 231.988281 C 172.671875 231.480469 172.859375 230.796875 172.859375 229.929688 C 172.859375 229.0625 172.671875 228.378906 172.296875 227.875 C 171.925781 227.367188 171.421875 227.117188 170.78125 227.117188 Z M 170.78125 226.101562 C 171.824219 226.101562 172.640625 226.441406 173.234375 227.117188 C 173.832031 227.792969 174.128906 228.730469 174.128906 229.929688 C 174.128906 231.121094 173.832031 232.058594 173.234375 232.738281 C 172.640625 233.417969 171.824219 233.757812 170.78125 233.757812 C 169.734375 233.757812 168.914062 233.417969 168.324219 232.738281 C 167.730469 232.058594 167.433594 231.121094 167.433594 229.929688 C 167.433594 228.730469 167.730469 227.792969 168.324219 227.117188 C 168.914062 226.441406 169.734375 226.101562 170.78125 226.101562 Z M 170.78125 226.101562 "/>
<path style=" stroke:none;fill-rule:nonzero;fill:rgb(0%,0%,0%);fill-opacity:1;" d="M 181.363281 226.554688 L 181.363281 227.675781 C 181.023438 227.488281 180.683594 227.347656 180.34375 227.253906 C 180.003906 227.164062 179.660156 227.117188 179.3125 227.117188 C 178.535156 227.117188 177.929688 227.363281 177.5 227.855469 C 177.070312 228.347656 176.855469 229.039062 176.855469 229.929688 C 176.855469 230.820312 177.070312 231.511719 177.5 232.003906 C 177.929688 232.496094 178.535156 232.742188 179.3125 232.742188 C 179.660156 232.742188 180.003906 232.695312 180.34375 232.601562 C 180.683594 232.507812 181.023438 232.367188 181.363281 232.179688 L 181.363281 233.289062 C 181.027344 233.445312 180.679688 233.5625 180.320312 233.636719 C 179.964844 233.71875 179.585938 233.757812 179.179688 233.757812 C 178.082031 233.757812 177.207031 233.414062 176.5625 232.722656 C 175.914062 232.03125 175.59375 231.101562 175.59375 229.929688 C 175.59375 228.738281 175.917969 227.804688 176.570312 227.125 C 177.226562 226.441406 178.121094 226.101562 179.257812 226.101562 C 179.628906 226.101562 179.988281 226.140625 180.339844 226.214844 C 180.691406 226.289062 181.03125 226.402344 181.363281 226.554688 Z M 181.363281 226.554688 "/>
<path style=" stroke:none;fill-rule:nonzero;fill:rgb(0%,0%,0%);fill-opacity:1;" d="M 189.507812 229.164062 L 189.507812 233.566406 L 188.308594 233.566406 L 188.308594 229.207031 C 188.308594 228.515625 188.175781 228 187.90625 227.65625 C 187.636719 227.3125 187.230469 227.144531 186.695312 227.144531 C 186.046875 227.144531 185.535156 227.347656 185.164062 227.761719 C 184.789062 228.171875 184.601562 228.734375 184.601562 229.445312 L 184.601562 233.566406 L 183.398438 233.566406 L 183.398438 223.4375 L 184.601562 223.4375 L 184.601562 227.410156 C 184.890625 226.96875 185.226562 226.644531 185.617188 226.425781 C 186.003906 226.210938 186.453125 226.101562 186.960938 226.101562 C 187.796875 226.101562 188.433594 226.359375 188.859375 226.878906 C 189.292969 227.394531 189.507812 228.160156 189.507812 229.164062 Z M 189.507812 229.164062 "/>
<g clip-path="url(#clip6)" clip-rule="nonzero">
<path style="fill:none;stroke-width:0.8;stroke-linecap:square;stroke-linejoin:round;stroke:rgb(69.01961%,69.01961%,69.01961%);stroke-opacity:1;stroke-miterlimit:4;" d="M 30.102539 146.900391 L 225.404297 146.900391 " transform="matrix(1.333333,0,0,1.333333,0,0.000000000000014211)"/>
</g>
<path style="fill:none;stroke-width:0.8;stroke-linecap:butt;stroke-linejoin:round;stroke:rgb(0%,0%,0%);stroke-opacity:1;stroke-miterlimit:4;" d="M -0.000585556 0.00117493 L -3.498632 0.00117493 " transform="matrix(1.333333,0,0,1.333333,40.137499,195.865621)"/>
<path style=" stroke:none;fill-rule:nonzero;fill:rgb(0%,0%,0%);fill-opacity:1;" d="M 13.835938 192.078125 C 13.160156 192.078125 12.652344 192.410156 12.308594 193.078125 C 11.96875 193.742188 11.800781 194.742188 11.800781 196.082031 C 11.800781 197.414062 11.96875 198.414062 12.308594 199.078125 C 12.652344 199.746094 13.160156 200.078125 13.835938 200.078125 C 14.519531 200.078125 15.03125 199.746094 15.371094 199.078125 C 15.710938 198.414062 15.882812 197.414062 15.882812 196.082031 C 15.882812 194.742188 15.710938 193.742188 15.371094 193.078125 C 15.03125 192.410156 14.519531 192.078125 13.835938 192.078125 Z M 13.835938 191.035156 C 14.929688 191.035156 15.761719 191.464844 16.335938 192.328125 C 16.910156 193.191406 17.199219 194.441406 17.199219 196.082031 C 17.199219 197.71875 16.910156 198.964844 16.335938 199.828125 C 15.761719 200.691406 14.929688 201.121094 13.835938 201.121094 C 12.75 201.121094 11.917969 200.691406 11.339844 199.828125 C 10.765625 198.964844 10.480469 197.71875 10.480469 196.082031 C 10.480469 194.441406 10.765625 193.191406 11.339844 192.328125 C 11.917969 191.464844 12.75 191.035156 13.835938 191.035156 Z M 13.835938 191.035156 "/>
<path style=" stroke:none;fill-rule:nonzero;fill:rgb(0%,0%,0%);fill-opacity:1;" d="M 19.507812 199.277344 L 20.882812 199.277344 L 20.882812 200.929688 L 19.507812 200.929688 Z M 19.507812 199.277344 "/>
<path style=" stroke:none;fill-rule:nonzero;fill:rgb(0%,0%,0%);fill-opacity:1;" d="M 26.558594 192.078125 C 25.882812 192.078125 25.375 192.410156 25.03125 193.078125 C 24.691406 193.742188 24.519531 194.742188 24.519531 196.082031 C 24.519531 197.414062 24.691406 198.414062 25.03125 199.078125 C 25.375 199.746094 25.882812 200.078125 26.558594 200.078125 C 27.242188 200.078125 27.75 199.746094 28.09375 199.078125 C 28.433594 198.414062 28.605469 197.414062 28.605469 196.082031 C 28.605469 194.742188 28.433594 193.742188 28.09375 193.078125 C 27.75 192.410156 27.242188 192.078125 26.558594 192.078125 Z M 26.558594 191.035156 C 27.648438 191.035156 28.480469 191.464844 29.058594 192.328125 C 29.632812 193.191406 29.917969 194.441406 29.917969 196.082031 C 29.917969 197.71875 29.632812 198.964844 29.058594 199.828125 C 28.480469 200.691406 27.648438 201.121094 26.558594 201.121094 C 25.46875 201.121094 24.636719 200.691406 24.0625 199.828125 C 23.488281 198.964844 23.199219 197.71875 23.199219 196.082031 C 23.199219 194.441406 23.488281 193.191406 24.0625 192.328125 C 24.636719 191.464844 25.46875 191.035156 26.558594 191.035156 Z M 26.558594 191.035156 "/>
<g clip-path="url(#clip7)" clip-rule="nonzero">
<path style="fill:none;stroke-width:0.8;stroke-linecap:square;stroke-linejoin:round;stroke:rgb(69.01961%,69.01961%,69.01961%);stroke-opacity:1;stroke-miterlimit:4;" d="M 30.102539 119.71875 L 225.404297 119.71875 " transform="matrix(1.333333,0,0,1.333333,0,0.000000000000014211)"/>
</g>
<path style="fill:none;stroke-width:0.8;stroke-linecap:butt;stroke-linejoin:round;stroke:rgb(0%,0%,0%);stroke-opacity:1;stroke-miterlimit:4;" d="M -0.000585556 -0.000465393 L -3.498632 -0.000465393 " transform="matrix(1.333333,0,0,1.333333,40.137499,159.625621)"/>
<path style=" stroke:none;fill-rule:nonzero;fill:rgb(0%,0%,0%);fill-opacity:1;" d="M 13.835938 155.835938 C 13.160156 155.835938 12.652344 156.171875 12.308594 156.835938 C 11.96875 157.503906 11.800781 158.503906 11.800781 159.839844 C 11.800781 161.171875 11.96875 162.171875 12.308594 162.839844 C 12.652344 163.503906 13.160156 163.839844 13.835938 163.839844 C 14.519531 163.839844 15.03125 163.503906 15.371094 162.839844 C 15.710938 162.171875 15.882812 161.171875 15.882812 159.839844 C 15.882812 158.503906 15.710938 157.503906 15.371094 156.835938 C 15.03125 156.171875 14.519531 155.835938 13.835938 155.835938 Z M 13.835938 154.796875 C 14.929688 154.796875 15.761719 155.226562 16.335938 156.089844 C 16.910156 156.949219 17.199219 158.199219 17.199219 159.839844 C 17.199219 161.476562 16.910156 162.726562 16.335938 163.589844 C 15.761719 164.449219 14.929688 164.878906 13.835938 164.878906 C 12.75 164.878906 11.917969 164.449219 11.339844 163.589844 C 10.765625 162.726562 10.480469 161.476562 10.480469 159.839844 C 10.480469 158.199219 10.765625 156.949219 11.339844 156.089844 C 11.917969 155.226562 12.75 154.796875 13.835938 154.796875 Z M 13.835938 154.796875 "/>
<path style=" stroke:none;fill-rule:nonzero;fill:rgb(0%,0%,0%);fill-opacity:1;" d="M 19.507812 163.035156 L 20.882812 163.035156 L 20.882812 164.691406 L 19.507812 164.691406 Z M 19.507812 163.035156 "/>
<path style=" stroke:none;fill-rule:nonzero;fill:rgb(0%,0%,0%);fill-opacity:1;" d="M 24.878906 163.585938 L 29.46875 163.585938 L 29.46875 164.691406 L 23.296875 164.691406 L 23.296875 163.585938 C 23.796875 163.066406 24.476562 162.375 25.339844 161.503906 C 26.199219 160.636719 26.742188 160.074219 26.964844 159.820312 C 27.382812 159.347656 27.675781 158.949219 27.84375 158.621094 C 28.011719 158.292969 28.097656 157.96875 28.097656 157.652344 C 28.097656 157.136719 27.914062 156.714844 27.550781 156.390625 C 27.191406 156.066406 26.71875 155.902344 26.136719 155.902344 C 25.722656 155.902344 25.289062 155.972656 24.828125 156.117188 C 24.371094 156.257812 23.882812 156.476562 23.363281 156.769531 L 23.363281 155.4375 C 23.890625 155.226562 24.386719 155.066406 24.847656 154.957031 C 25.308594 154.847656 25.730469 154.796875 26.109375 154.796875 C 27.117188 154.796875 27.921875 155.046875 28.519531 155.550781 C 29.117188 156.054688 29.417969 156.726562 29.417969 157.566406 C 29.417969 157.96875 29.34375 158.347656 29.191406 158.707031 C 29.042969 159.0625 28.769531 159.484375 28.375 159.96875 C 28.265625 160.097656 27.921875 160.460938 27.339844 161.0625 C 26.757812 161.664062 25.9375 162.503906 24.878906 163.585938 Z M 24.878906 163.585938 "/>
<g clip-path="url(#clip8)" clip-rule="nonzero">
<path style="fill:none;stroke-width:0.8;stroke-linecap:square;stroke-linejoin:round;stroke:rgb(69.01961%,69.01961%,69.01961%);stroke-opacity:1;stroke-miterlimit:4;" d="M 30.102539 92.540039 L 225.404297 92.540039 " transform="matrix(1.333333,0,0,1.333333,0,0.000000000000014211)"/>
</g>
<path style="fill:none;stroke-width:0.8;stroke-linecap:butt;stroke-linejoin:round;stroke:rgb(0%,0%,0%);stroke-opacity:1;stroke-miterlimit:4;" d="M -0.000585556 0.000816345 L -3.498632 0.000816345 " transform="matrix(1.333333,0,0,1.333333,40.137499,123.38563)"/>
<path style=" stroke:none;fill-rule:nonzero;fill:rgb(0%,0%,0%);fill-opacity:1;" d="M 13.835938 119.597656 C 13.160156 119.597656 12.652344 119.929688 12.308594 120.597656 C 11.96875 121.261719 11.800781 122.265625 11.800781 123.601562 C 11.800781 124.933594 11.96875 125.933594 12.308594 126.597656 C 12.652344 127.265625 13.160156 127.597656 13.835938 127.597656 C 14.519531 127.597656 15.03125 127.265625 15.371094 126.597656 C 15.710938 125.933594 15.882812 124.933594 15.882812 123.601562 C 15.882812 122.265625 15.710938 121.261719 15.371094 120.597656 C 15.03125 119.929688 14.519531 119.597656 13.835938 119.597656 Z M 13.835938 118.554688 C 14.929688 118.554688 15.761719 118.988281 16.335938 119.847656 C 16.910156 120.710938 17.199219 121.960938 17.199219 123.601562 C 17.199219 125.238281 16.910156 126.488281 16.335938 127.347656 C 15.761719 128.210938 14.929688 128.640625 13.835938 128.640625 C 12.75 128.640625 11.917969 128.210938 11.339844 127.347656 C 10.765625 126.488281 10.480469 125.238281 10.480469 123.601562 C 10.480469 121.960938 10.765625 120.710938 11.339844 119.847656 C 11.917969 118.988281 12.75 118.554688 13.835938 118.554688 Z M 13.835938 118.554688 "/>
<path style=" stroke:none;fill-rule:nonzero;fill:rgb(0%,0%,0%);fill-opacity:1;" d="M 19.507812 126.796875 L 20.882812 126.796875 L 20.882812 128.453125 L 19.507812 128.453125 Z M 19.507812 126.796875 "/>
<path style=" stroke:none;fill-rule:nonzero;fill:rgb(0%,0%,0%);fill-opacity:1;" d="M 27.359375 119.875 L 24.039062 125.066406 L 27.359375 125.066406 Z M 27.015625 118.730469 L 28.667969 118.730469 L 28.667969 125.066406 L 30.058594 125.066406 L 30.058594 126.160156 L 28.667969 126.160156 L 28.667969 128.453125 L 27.359375 128.453125 L 27.359375 126.160156 L 22.972656 126.160156 L 22.972656 124.890625 Z M 27.015625 118.730469 "/>
<g clip-path="url(#clip9)" clip-rule="nonzero">
<path style="fill:none;stroke-width:0.8;stroke-linecap:square;stroke-linejoin:round;stroke:rgb(69.01961%,69.01961%,69.01961%);stroke-opacity:1;stroke-miterlimit:4;" d="M 30.102539 65.358398 L 225.404297 65.358398 " transform="matrix(1.333333,0,0,1.333333,0,0.000000000000014211)"/>
</g>
<path style="fill:none;stroke-width:0.8;stroke-linecap:butt;stroke-linejoin:round;stroke:rgb(0%,0%,0%);stroke-opacity:1;stroke-miterlimit:4;" d="M -0.000585556 -0.000823975 L -3.498632 -0.000823975 " transform="matrix(1.333333,0,0,1.333333,40.137499,87.14563)"/>
<path style=" stroke:none;fill-rule:nonzero;fill:rgb(0%,0%,0%);fill-opacity:1;" d="M 13.835938 83.355469 C 13.160156 83.355469 12.652344 83.691406 12.308594 84.355469 C 11.96875 85.023438 11.800781 86.023438 11.800781 87.359375 C 11.800781 88.691406 11.96875 89.691406 12.308594 90.359375 C 12.652344 91.027344 13.160156 91.359375 13.835938 91.359375 C 14.519531 91.359375 15.03125 91.027344 15.371094 90.359375 C 15.710938 89.691406 15.882812 88.691406 15.882812 87.359375 C 15.882812 86.023438 15.710938 85.023438 15.371094 84.355469 C 15.03125 83.691406 14.519531 83.355469 13.835938 83.355469 Z M 13.835938 82.316406 C 14.929688 82.316406 15.761719 82.746094 16.335938 83.609375 C 16.910156 84.46875 17.199219 85.722656 17.199219 87.359375 C 17.199219 88.996094 16.910156 90.246094 16.335938 91.109375 C 15.761719 91.96875 14.929688 92.402344 13.835938 92.402344 C 12.75 92.402344 11.917969 91.96875 11.339844 91.109375 C 10.765625 90.246094 10.480469 88.996094 10.480469 87.359375 C 10.480469 85.722656 10.765625 84.46875 11.339844 83.609375 C 11.917969 82.746094 12.75 82.316406 13.835938 82.316406 Z M 13.835938 82.316406 "/>
<path style=" stroke:none;fill-rule:nonzero;fill:rgb(0%,0%,0%);fill-opacity:1;" d="M 19.507812 90.558594 L 20.882812 90.558594 L 20.882812 92.210938 L 19.507812 92.210938 Z M 19.507812 90.558594 "/>
<path style=" stroke:none;fill-rule:nonzero;fill:rgb(0%,0%,0%);fill-opacity:1;" d="M 26.722656 86.828125 C 26.132812 86.828125 25.664062 87.03125 25.320312 87.433594 C 24.976562 87.835938 24.800781 88.390625 24.800781 89.09375 C 24.800781 89.792969 24.976562 90.34375 25.320312 90.75 C 25.664062 91.15625 26.132812 91.359375 26.722656 91.359375 C 27.3125 91.359375 27.78125 91.15625 28.125 90.75 C 28.46875 90.34375 28.640625 89.792969 28.640625 89.09375 C 28.640625 88.390625 28.46875 87.835938 28.125 87.433594 C 27.78125 87.03125 27.3125 86.828125 26.722656 86.828125 Z M 29.332031 82.703125 L 29.332031 83.902344 C 29.003906 83.746094 28.671875 83.628906 28.332031 83.546875 C 27.996094 83.464844 27.664062 83.421875 27.332031 83.421875 C 26.464844 83.421875 25.800781 83.714844 25.34375 84.300781 C 24.886719 84.886719 24.625 85.773438 24.5625 86.957031 C 24.816406 86.578125 25.136719 86.289062 25.523438 86.089844 C 25.910156 85.886719 26.335938 85.785156 26.800781 85.785156 C 27.777344 85.785156 28.546875 86.082031 29.113281 86.675781 C 29.683594 87.265625 29.964844 88.074219 29.964844 89.09375 C 29.964844 90.089844 29.671875 90.890625 29.078125 91.496094 C 28.488281 92.097656 27.703125 92.402344 26.722656 92.402344 C 25.597656 92.402344 24.738281 91.96875 24.144531 91.109375 C 23.550781 90.246094 23.253906 88.996094 23.253906 87.359375 C 23.253906 85.824219 23.617188 84.601562 24.347656 83.6875 C 25.074219 82.773438 26.054688 82.316406 27.28125 82.316406 C 27.613281 82.316406 27.945312 82.347656 28.28125 82.414062 C 28.617188 82.480469 28.96875 82.574219 29.332031 82.703125 Z M 29.332031 82.703125 "/>
<g clip-path="url(#clip10)" clip-rule="nonzero">
<path style="fill:none;stroke-width:0.8;stroke-linecap:square;stroke-linejoin:round;stroke:rgb(69.01961%,69.01961%,69.01961%);stroke-opacity:1;stroke-miterlimit:4;" d="M 30.102539 38.179687 L 225.404297 38.179687 " transform="matrix(1.333333,0,0,1.333333,0,0.000000000000014211)"/>
</g>
<path style="fill:none;stroke-width:0.8;stroke-linecap:butt;stroke-linejoin:round;stroke:rgb(0%,0%,0%);stroke-opacity:1;stroke-miterlimit:4;" d="M -0.000585556 0.000469208 L -3.498632 0.000469208 " transform="matrix(1.333333,0,0,1.333333,40.137499,50.905624)"/>
<path style=" stroke:none;fill-rule:nonzero;fill:rgb(0%,0%,0%);fill-opacity:1;" d="M 13.835938 47.117188 C 13.160156 47.117188 12.652344 47.449219 12.308594 48.117188 C 11.96875 48.78125 11.800781 49.785156 11.800781 51.121094 C 11.800781 52.453125 11.96875 53.453125 12.308594 54.121094 C 12.652344 54.785156 13.160156 55.121094 13.835938 55.121094 C 14.519531 55.121094 15.03125 54.785156 15.371094 54.121094 C 15.710938 53.453125 15.882812 52.453125 15.882812 51.121094 C 15.882812 49.785156 15.710938 48.78125 15.371094 48.117188 C 15.03125 47.449219 14.519531 47.117188 13.835938 47.117188 Z M 13.835938 46.074219 C 14.929688 46.074219 15.761719 46.507812 16.335938 47.371094 C 16.910156 48.230469 17.199219 49.480469 17.199219 51.121094 C 17.199219 52.757812 16.910156 54.007812 16.335938 54.871094 C 15.761719 55.730469 14.929688 56.160156 13.835938 56.160156 C 12.75 56.160156 11.917969 55.730469 11.339844 54.871094 C 10.765625 54.007812 10.480469 52.757812 10.480469 51.121094 C 10.480469 49.480469 10.765625 48.230469 11.339844 47.371094 C 11.917969 46.507812 12.75 46.074219 13.835938 46.074219 Z M 13.835938 46.074219 "/>
<path style=" stroke:none;fill-rule:nonzero;fill:rgb(0%,0%,0%);fill-opacity:1;" d="M 19.507812 54.316406 L 20.882812 54.316406 L 20.882812 55.972656 L 19.507812 55.972656 Z M 19.507812 54.316406 "/>
<path style=" stroke:none;fill-rule:nonzero;fill:rgb(0%,0%,0%);fill-opacity:1;" d="M 26.558594 51.355469 C 25.933594 51.355469 25.441406 51.523438 25.082031 51.855469 C 24.726562 52.191406 24.546875 52.652344 24.546875 53.234375 C 24.546875 53.820312 24.726562 54.28125 25.082031 54.617188 C 25.441406 54.953125 25.933594 55.121094 26.558594 55.121094 C 27.183594 55.121094 27.675781 54.949219 28.035156 54.613281 C 28.398438 54.277344 28.578125 53.816406 28.578125 53.234375 C 28.578125 52.652344 28.398438 52.191406 28.039062 51.855469 C 27.683594 51.523438 27.1875 51.355469 26.558594 51.355469 Z M 25.246094 50.796875 C 24.679688 50.65625 24.242188 50.394531 23.925781 50.007812 C 23.613281 49.621094 23.453125 49.148438 23.453125 48.59375 C 23.453125 47.816406 23.730469 47.203125 24.285156 46.753906 C 24.839844 46.300781 25.597656 46.074219 26.558594 46.074219 C 27.527344 46.074219 28.285156 46.300781 28.839844 46.753906 C 29.390625 47.203125 29.664062 47.816406 29.664062 48.59375 C 29.664062 49.148438 29.507812 49.621094 29.191406 50.007812 C 28.878906 50.394531 28.441406 50.65625 27.882812 50.796875 C 28.515625 50.945312 29.007812 51.230469 29.359375 51.664062 C 29.714844 52.09375 29.890625 52.617188 29.890625 53.234375 C 29.890625 54.179688 29.605469 54.902344 29.03125 55.40625 C 28.453125 55.910156 27.632812 56.160156 26.558594 56.160156 C 25.488281 56.160156 24.664062 55.910156 24.089844 55.40625 C 23.511719 54.902344 23.226562 54.179688 23.226562 53.234375 C 23.226562 52.617188 23.402344 52.09375 23.757812 51.664062 C 24.117188 51.230469 24.609375 50.945312 25.246094 50.796875 Z M 24.761719 48.71875 C 24.761719 49.222656 24.921875 49.613281 25.234375 49.894531 C 25.550781 50.179688 25.992188 50.320312 26.558594 50.320312 C 27.125 50.320312 27.566406 50.179688 27.882812 49.894531 C 28.203125 49.613281 28.363281 49.222656 28.363281 48.71875 C 28.363281 48.214844 28.203125 47.820312 27.882812 47.539062 C 27.566406 47.257812 27.125 47.117188 26.558594 47.117188 C 25.992188 47.117188 25.550781 47.257812 25.234375 47.539062 C 24.921875 47.820312 24.761719 48.214844 24.761719 48.71875 Z M 24.761719 48.71875 "/>
<g clip-path="url(#clip11)" clip-rule="nonzero">
<path style="fill:none;stroke-width:0.8;stroke-linecap:square;stroke-linejoin:round;stroke:rgb(69.01961%,69.01961%,69.01961%);stroke-opacity:1;stroke-miterlimit:4;" d="M 30.102539 10.998047 L 225.404297 10.998047 " transform="matrix(1.333333,0,0,1.333333,0,0.000000000000014211)"/>
</g>
<path style="fill:none;stroke-width:0.8;stroke-linecap:butt;stroke-linejoin:round;stroke:rgb(0%,0%,0%);stroke-opacity:1;stroke-miterlimit:4;" d="M -0.000585556 -0.00117207 L -3.498632 -0.00117207 " transform="matrix(1.333333,0,0,1.333333,40.137499,14.665625)"/>
<path style=" stroke:none;fill-rule:nonzero;fill:rgb(0%,0%,0%);fill-opacity:1;" d="M 11.253906 18.625 L 13.402344 18.625 L 13.402344 11.207031 L 11.066406 11.675781 L 11.066406 10.480469 L 13.390625 10.011719 L 14.703125 10.011719 L 14.703125 18.625 L 16.851562 18.625 L 16.851562 19.730469 L 11.253906 19.730469 Z M 11.253906 18.625 "/>
<path style=" stroke:none;fill-rule:nonzero;fill:rgb(0%,0%,0%);fill-opacity:1;" d="M 19.507812 18.078125 L 20.882812 18.078125 L 20.882812 19.730469 L 19.507812 19.730469 Z M 19.507812 18.078125 "/>
<path style=" stroke:none;fill-rule:nonzero;fill:rgb(0%,0%,0%);fill-opacity:1;" d="M 26.558594 10.878906 C 25.882812 10.878906 25.375 11.210938 25.03125 11.878906 C 24.691406 12.542969 24.519531 13.542969 24.519531 14.882812 C 24.519531 16.214844 24.691406 17.210938 25.03125 17.878906 C 25.375 18.546875 25.882812 18.878906 26.558594 18.878906 C 27.242188 18.878906 27.75 18.546875 28.09375 17.878906 C 28.433594 17.210938 28.605469 16.214844 28.605469 14.882812 C 28.605469 13.542969 28.433594 12.542969 28.09375 11.878906 C 27.75 11.210938 27.242188 10.878906 26.558594 10.878906 Z M 26.558594 9.835938 C 27.648438 9.835938 28.480469 10.265625 29.058594 11.128906 C 29.632812 11.992188 29.917969 13.242188 29.917969 14.882812 C 29.917969 16.515625 29.632812 17.765625 29.058594 18.628906 C 28.480469 19.492188 27.648438 19.921875 26.558594 19.921875 C 25.46875 19.921875 24.636719 19.492188 24.0625 18.628906 C 23.488281 17.765625 23.199219 16.515625 23.199219 14.882812 C 23.199219 13.242188 23.488281 11.992188 24.0625 11.128906 C 24.636719 10.265625 25.46875 9.835938 26.558594 9.835938 Z M 26.558594 9.835938 "/>
<g clip-path="url(#clip12)" clip-rule="nonzero">
<path style="fill:none;stroke-width:1.5;stroke-linecap:square;stroke-linejoin:round;stroke:rgb(12.156863%,46.666667%,70.588237%);stroke-opacity:1;stroke-miterlimit:4;" d="M 30.316406 -0.999023 L 38.71875 57.793945 L 47.334961 60.9375 L 55.951172 61.130859 L 64.567383 57.870117 L 73.183594 59.677734 L 78.928711 59.663086 L 87.544922 75.878906 L 96.161133 70.040039 L 104.777344 71.446289 L 113.393555 73.297852 L 122.009766 71.704102 L 127.751953 71.879883 L 136.368164 77.299805 L 144.984375 78.773437 L 153.600586 80.583984 L 162.216797 80.493164 L 170.833008 81.178711 L 176.578125 81.899414 L 185.194336 81.682617 L 193.810547 81.193359 L 202.426758 83.499023 L 211.042969 86.384766 L 219.65918 87.023437 L 225.404297 86.654297 " transform="matrix(1.333333,0,0,1.333333,0,0.000000000000014211)"/>
</g>
<g clip-path="url(#clip13)" clip-rule="nonzero">
<path style="fill:none;stroke-width:1.5;stroke-linecap:butt;stroke-linejoin:round;stroke:rgb(74.901962%,0%,74.901962%);stroke-opacity:1;stroke-dasharray:5.55,2.4;stroke-miterlimit:4;" d="M -0.999023 54.064453 L 7.12793 50.818359 L 15.744141 47.545898 L 24.360352 45.870117 L 30.102539 44.970703 L 38.71875 35.135742 L 47.334961 34.209961 L 55.951172 34.198242 L 64.567383 35.044922 L 73.183594 34.816406 L 78.928711 35.009766 L 87.544922 31.986328 L 96.161133 33.208008 L 104.777344 32.756836 L 113.393555 32.367187 L 122.009766 32.929687 L 127.751953 32.874023 L 136.368164 31.907227 L 144.984375 31.552734 L 153.600586 31.133789 L 162.216797 31.171875 L 170.833008 31.054687 L 176.578125 30.867187 L 185.194336 31.037109 L 193.810547 31.139648 L 202.426758 30.495117 L 211.042969 29.592773 L 219.65918 29.472656 L 225.404297 29.636719 " transform="matrix(1.333333,0,0,1.333333,0,0.000000000000014211)"/>
</g>
<g clip-path="url(#clip14)" clip-rule="nonzero">
<path style="fill:none;stroke-width:1.5;stroke-linecap:butt;stroke-linejoin:round;stroke:rgb(0%,50.196081%,0%);stroke-opacity:1;stroke-dasharray:9.6,2.4,1.5,2.4;stroke-miterlimit:4;" d="M 30.102539 35.994141 L 78.928711 33.583008 L 127.751953 32.144531 L 176.578125 31.458984 L 225.404297 31.59375 " transform="matrix(1.333333,0,0,1.333333,0,0.000000000000014211)"/>
</g>
<path style="fill:none;stroke-width:0.8;stroke-linecap:square;stroke-linejoin:miter;stroke:rgb(0%,0%,0%);stroke-opacity:1;stroke-miterlimit:4;" d="M 30.102539 146.900391 L 30.102539 10.998047 " transform="matrix(1.333333,0,0,1.333333,0,0.000000000000014211)"/>
<path style="fill:none;stroke-width:0.8;stroke-linecap:square;stroke-linejoin:miter;stroke:rgb(0%,0%,0%);stroke-opacity:1;stroke-miterlimit:4;" d="M 225.404297 146.900391 L 225.404297 10.998047 " transform="matrix(1.333333,0,0,1.333333,0,0.000000000000014211)"/>
<path style="fill:none;stroke-width:0.8;stroke-linecap:square;stroke-linejoin:miter;stroke:rgb(0%,0%,0%);stroke-opacity:1;stroke-miterlimit:4;" d="M 30.102539 146.900391 L 225.404297 146.900391 " transform="matrix(1.333333,0,0,1.333333,0,0.000000000000014211)"/>
<path style="fill:none;stroke-width:0.8;stroke-linecap:square;stroke-linejoin:miter;stroke:rgb(0%,0%,0%);stroke-opacity:1;stroke-miterlimit:4;" d="M 30.102539 10.998047 L 225.404297 10.998047 " transform="matrix(1.333333,0,0,1.333333,0,0.000000000000014211)"/>
<use xlink:href="#surface5" mask="url(#mask0)"/>
<path style="fill:none;stroke-width:1.5;stroke-linecap:square;stroke-linejoin:round;stroke:rgb(12.156863%,46.666667%,70.588237%);stroke-opacity:1;stroke-miterlimit:4;" d="M 39.102539 102.963867 L 59.103516 102.963867 " transform="matrix(1.333333,0,0,1.333333,0,0.000000000000014211)"/>
<path style=" stroke:none;fill-rule:nonzero;fill:rgb(0%,0%,0%);fill-opacity:1;" d="M 91.914062 132.589844 L 91.914062 134.660156 L 94.378906 134.660156 L 94.378906 135.589844 L 91.914062 135.589844 L 91.914062 139.550781 C 91.914062 140.144531 91.992188 140.523438 92.15625 140.695312 C 92.320312 140.863281 92.648438 140.949219 93.148438 140.949219 L 94.378906 140.949219 L 94.378906 141.949219 L 93.148438 141.949219 C 92.226562 141.949219 91.585938 141.777344 91.234375 141.433594 C 90.882812 141.089844 90.707031 140.460938 90.707031 139.550781 L 90.707031 135.589844 L 89.828125 135.589844 L 89.828125 134.660156 L 90.707031 134.660156 L 90.707031 132.589844 Z M 91.914062 132.589844 "/>
<path style=" stroke:none;fill-rule:nonzero;fill:rgb(0%,0%,0%);fill-opacity:1;" d="M 100.179688 135.777344 C 100.046875 135.699219 99.898438 135.644531 99.742188 135.605469 C 99.582031 135.570312 99.40625 135.550781 99.21875 135.550781 C 98.539062 135.550781 98.019531 135.769531 97.65625 136.210938 C 97.292969 136.652344 97.113281 137.285156 97.113281 138.109375 L 97.113281 141.949219 L 95.910156 141.949219 L 95.910156 134.660156 L 97.113281 134.660156 L 97.113281 135.792969 C 97.367188 135.351562 97.695312 135.019531 98.097656 134.808594 C 98.5 134.59375 98.992188 134.484375 99.570312 134.484375 C 99.652344 134.484375 99.742188 134.488281 99.84375 134.5 C 99.941406 134.511719 100.054688 134.527344 100.171875 134.550781 Z M 100.179688 135.777344 "/>
<path style=" stroke:none;fill-rule:nonzero;fill:rgb(0%,0%,0%);fill-opacity:1;" d="M 104.75 138.285156 C 103.785156 138.285156 103.113281 138.398438 102.738281 138.617188 C 102.363281 138.839844 102.179688 139.214844 102.179688 139.75 C 102.179688 140.175781 102.320312 140.511719 102.597656 140.761719 C 102.878906 141.011719 103.261719 141.136719 103.742188 141.136719 C 104.40625 141.136719 104.941406 140.902344 105.339844 140.429688 C 105.742188 139.960938 105.941406 139.332031 105.941406 138.554688 L 105.941406 138.285156 Z M 107.140625 137.789062 L 107.140625 141.949219 L 105.941406 141.949219 L 105.941406 140.84375 C 105.667969 141.285156 105.328125 141.613281 104.921875 141.824219 C 104.511719 142.035156 104.011719 142.140625 103.421875 142.140625 C 102.675781 142.140625 102.082031 141.929688 101.640625 141.511719 C 101.199219 141.09375 100.980469 140.53125 100.980469 139.828125 C 100.980469 139.007812 101.253906 138.390625 101.804688 137.972656 C 102.351562 137.558594 103.171875 137.347656 104.261719 137.347656 L 105.941406 137.347656 L 105.941406 137.230469 C 105.941406 136.679688 105.761719 136.253906 105.398438 135.949219 C 105.035156 135.648438 104.527344 135.5 103.871094 135.5 C 103.457031 135.5 103.050781 135.550781 102.652344 135.648438 C 102.257812 135.75 101.878906 135.898438 101.515625 136.097656 L 101.515625 134.992188 C 101.953125 134.820312 102.378906 134.695312 102.789062 134.613281 C 103.203125 134.527344 103.605469 134.484375 103.996094 134.484375 C 105.050781 134.484375 105.839844 134.757812 106.359375 135.304688 C 106.878906 135.851562 107.140625 136.679688 107.140625 137.789062 Z M 107.140625 137.789062 "/>
<path style=" stroke:none;fill-rule:nonzero;fill:rgb(0%,0%,0%);fill-opacity:1;" d="M 109.605469 134.660156 L 110.804688 134.660156 L 110.804688 141.949219 L 109.605469 141.949219 Z M 109.605469 131.820312 L 110.804688 131.820312 L 110.804688 133.339844 L 109.605469 133.339844 Z M 109.605469 131.820312 "/>
<path style=" stroke:none;fill-rule:nonzero;fill:rgb(0%,0%,0%);fill-opacity:1;" d="M 119.375 137.550781 L 119.375 141.949219 L 118.175781 141.949219 L 118.175781 137.589844 C 118.175781 136.898438 118.042969 136.382812 117.773438 136.039062 C 117.503906 135.699219 117.097656 135.527344 116.5625 135.527344 C 115.914062 135.527344 115.402344 135.730469 115.03125 136.144531 C 114.65625 136.554688 114.46875 137.117188 114.46875 137.832031 L 114.46875 141.949219 L 113.265625 141.949219 L 113.265625 134.660156 L 114.46875 134.660156 L 114.46875 135.792969 C 114.757812 135.355469 115.09375 135.027344 115.484375 134.808594 C 115.871094 134.59375 116.320312 134.484375 116.828125 134.484375 C 117.664062 134.484375 118.300781 134.742188 118.726562 135.261719 C 119.160156 135.78125 119.375 136.542969 119.375 137.550781 Z M 119.375 137.550781 "/>
<path style=" stroke:none;fill-rule:nonzero;fill:rgb(0%,0%,0%);fill-opacity:1;" d="M 126 131.820312 L 127.199219 131.820312 L 127.199219 141.949219 L 126 141.949219 Z M 126 131.820312 "/>
<path style=" stroke:none;fill-rule:nonzero;fill:rgb(0%,0%,0%);fill-opacity:1;" d="M 132.53125 135.5 C 131.886719 135.5 131.378906 135.75 131.007812 136.25 C 130.632812 136.753906 130.445312 137.4375 130.445312 138.3125 C 130.445312 139.183594 130.632812 139.871094 131.003906 140.371094 C 131.375 140.875 131.882812 141.125 132.53125 141.125 C 133.167969 141.125 133.675781 140.871094 134.046875 140.371094 C 134.421875 139.867188 134.605469 139.179688 134.605469 138.3125 C 134.605469 137.449219 134.421875 136.761719 134.046875 136.257812 C 133.675781 135.75 133.167969 135.5 132.53125 135.5 Z M 132.53125 134.484375 C 133.570312 134.484375 134.390625 134.824219 134.984375 135.5 C 135.578125 136.175781 135.878906 137.113281 135.878906 138.3125 C 135.878906 139.503906 135.578125 140.441406 134.984375 141.121094 C 134.390625 141.800781 133.570312 142.140625 132.53125 142.140625 C 131.484375 142.140625 130.664062 141.800781 130.070312 141.121094 C 129.480469 140.441406 129.183594 139.503906 129.183594 138.3125 C 129.183594 137.113281 129.480469 136.175781 130.070312 135.5 C 130.664062 134.824219 131.484375 134.484375 132.53125 134.484375 Z M 132.53125 134.484375 "/>
<path style=" stroke:none;fill-rule:nonzero;fill:rgb(0%,0%,0%);fill-opacity:1;" d="M 142.511719 134.875 L 142.511719 136.007812 C 142.171875 135.832031 141.820312 135.703125 141.457031 135.617188 C 141.09375 135.53125 140.714844 135.488281 140.324219 135.488281 C 139.726562 135.488281 139.28125 135.578125 138.984375 135.757812 C 138.6875 135.941406 138.539062 136.214844 138.539062 136.582031 C 138.539062 136.859375 138.644531 137.074219 138.859375 137.234375 C 139.070312 137.394531 139.5 137.542969 140.140625 137.6875 L 140.550781 137.777344 C 141.402344 137.960938 142.007812 138.21875 142.363281 138.550781 C 142.722656 138.882812 142.902344 139.34375 142.902344 139.9375 C 142.902344 140.617188 142.632812 141.152344 142.097656 141.550781 C 141.5625 141.945312 140.824219 142.140625 139.886719 142.140625 C 139.496094 142.140625 139.089844 142.101562 138.667969 142.027344 C 138.242188 141.949219 137.796875 141.835938 137.328125 141.683594 L 137.328125 140.445312 C 137.773438 140.675781 138.207031 140.851562 138.636719 140.964844 C 139.066406 141.078125 139.492188 141.136719 139.914062 141.136719 C 140.476562 141.136719 140.910156 141.039062 141.214844 140.847656 C 141.519531 140.652344 141.671875 140.382812 141.671875 140.03125 C 141.671875 139.707031 141.5625 139.457031 141.339844 139.28125 C 141.125 139.109375 140.644531 138.941406 139.898438 138.78125 L 139.484375 138.683594 C 138.742188 138.527344 138.207031 138.289062 137.875 137.964844 C 137.546875 137.640625 137.382812 137.195312 137.382812 136.632812 C 137.382812 135.945312 137.625 135.417969 138.109375 135.042969 C 138.597656 134.671875 139.285156 134.484375 140.179688 134.484375 C 140.621094 134.484375 141.039062 134.515625 141.429688 134.582031 C 141.820312 134.644531 142.179688 134.742188 142.511719 134.875 Z M 142.511719 134.875 "/>
<path style=" stroke:none;fill-rule:nonzero;fill:rgb(0%,0%,0%);fill-opacity:1;" d="M 149.457031 134.875 L 149.457031 136.007812 C 149.121094 135.832031 148.769531 135.703125 148.402344 135.617188 C 148.039062 135.53125 147.660156 135.488281 147.269531 135.488281 C 146.675781 135.488281 146.230469 135.578125 145.933594 135.757812 C 145.636719 135.941406 145.484375 136.214844 145.484375 136.582031 C 145.484375 136.859375 145.59375 137.074219 145.804688 137.234375 C 146.015625 137.394531 146.445312 137.542969 147.089844 137.6875 L 147.5 137.777344 C 148.347656 137.960938 148.953125 138.21875 149.3125 138.550781 C 149.667969 138.882812 149.847656 139.34375 149.847656 139.9375 C 149.847656 140.617188 149.582031 141.152344 149.042969 141.550781 C 148.507812 141.945312 147.773438 142.140625 146.835938 142.140625 C 146.445312 142.140625 146.035156 142.101562 145.613281 142.027344 C 145.191406 141.949219 144.742188 141.835938 144.277344 141.683594 L 144.277344 140.445312 C 144.71875 140.675781 145.15625 140.851562 145.585938 140.964844 C 146.011719 141.078125 146.4375 141.136719 146.859375 141.136719 C 147.425781 141.136719 147.859375 141.039062 148.160156 140.847656 C 148.464844 140.652344 148.617188 140.382812 148.617188 140.03125 C 148.617188 139.707031 148.507812 139.457031 148.289062 139.28125 C 148.070312 139.109375 147.589844 138.941406 146.847656 138.78125 L 146.429688 138.683594 C 145.6875 138.527344 145.152344 138.289062 144.820312 137.964844 C 144.492188 137.640625 144.328125 137.195312 144.328125 136.632812 C 144.328125 135.945312 144.570312 135.417969 145.058594 135.042969 C 145.542969 134.671875 146.234375 134.484375 147.128906 134.484375 C 147.570312 134.484375 147.984375 134.515625 148.375 134.582031 C 148.765625 134.644531 149.128906 134.742188 149.457031 134.875 Z M 149.457031 134.875 "/>
<path style="fill:none;stroke-width:1.5;stroke-linecap:butt;stroke-linejoin:round;stroke:rgb(74.901962%,0%,74.901962%);stroke-opacity:1;stroke-dasharray:5.55,2.4;stroke-miterlimit:4;" d="M 39.102539 117.641602 L 59.103516 117.641602 " transform="matrix(1.333333,0,0,1.333333,0,0.000000000000014211)"/>
<path style=" stroke:none;fill-rule:nonzero;fill:rgb(0%,0%,0%);fill-opacity:1;" d="M 91.914062 152.160156 L 91.914062 154.230469 L 94.378906 154.230469 L 94.378906 155.160156 L 91.914062 155.160156 L 91.914062 159.121094 C 91.914062 159.714844 91.992188 160.097656 92.15625 160.265625 C 92.320312 160.433594 92.648438 160.519531 93.148438 160.519531 L 94.378906 160.519531 L 94.378906 161.523438 L 93.148438 161.523438 C 92.226562 161.523438 91.585938 161.351562 91.234375 161.003906 C 90.882812 160.660156 90.707031 160.03125 90.707031 159.121094 L 90.707031 155.160156 L 89.828125 155.160156 L 89.828125 154.230469 L 90.707031 154.230469 L 90.707031 152.160156 Z M 91.914062 152.160156 "/>
<path style=" stroke:none;fill-rule:nonzero;fill:rgb(0%,0%,0%);fill-opacity:1;" d="M 100.179688 155.347656 C 100.046875 155.269531 99.898438 155.214844 99.742188 155.179688 C 99.582031 155.140625 99.40625 155.121094 99.21875 155.121094 C 98.539062 155.121094 98.019531 155.34375 97.65625 155.78125 C 97.292969 156.222656 97.113281 156.855469 97.113281 157.679688 L 97.113281 161.523438 L 95.910156 161.523438 L 95.910156 154.230469 L 97.113281 154.230469 L 97.113281 155.363281 C 97.367188 154.921875 97.695312 154.59375 98.097656 154.378906 C 98.5 154.164062 98.992188 154.054688 99.570312 154.054688 C 99.652344 154.054688 99.742188 154.0625 99.84375 154.070312 C 99.941406 154.082031 100.054688 154.097656 100.171875 154.121094 Z M 100.179688 155.347656 "/>
<path style=" stroke:none;fill-rule:nonzero;fill:rgb(0%,0%,0%);fill-opacity:1;" d="M 104.75 157.855469 C 103.785156 157.855469 103.113281 157.96875 102.738281 158.1875 C 102.363281 158.410156 102.179688 158.789062 102.179688 159.320312 C 102.179688 159.746094 102.320312 160.085938 102.597656 160.335938 C 102.878906 160.582031 103.261719 160.707031 103.742188 160.707031 C 104.40625 160.707031 104.941406 160.472656 105.339844 160 C 105.742188 159.53125 105.941406 158.90625 105.941406 158.125 L 105.941406 157.855469 Z M 107.140625 157.363281 L 107.140625 161.523438 L 105.941406 161.523438 L 105.941406 160.414062 C 105.667969 160.855469 105.328125 161.183594 104.921875 161.394531 C 104.511719 161.605469 104.011719 161.710938 103.421875 161.710938 C 102.675781 161.710938 102.082031 161.5 101.640625 161.082031 C 101.199219 160.664062 100.980469 160.101562 100.980469 159.398438 C 100.980469 158.578125 101.253906 157.960938 101.804688 157.542969 C 102.351562 157.128906 103.171875 156.917969 104.261719 156.917969 L 105.941406 156.917969 L 105.941406 156.800781 C 105.941406 156.25 105.761719 155.824219 105.398438 155.523438 C 105.035156 155.21875 104.527344 155.070312 103.871094 155.070312 C 103.457031 155.070312 103.050781 155.121094 102.652344 155.21875 C 102.257812 155.320312 101.878906 155.46875 101.515625 155.667969 L 101.515625 154.5625 C 101.953125 154.390625 102.378906 154.265625 102.789062 154.183594 C 103.203125 154.097656 103.605469 154.054688 103.996094 154.054688 C 105.050781 154.054688 105.839844 154.328125 106.359375 154.875 C 106.878906 155.421875 107.140625 156.25 107.140625 157.363281 Z M 107.140625 157.363281 "/>
<path style=" stroke:none;fill-rule:nonzero;fill:rgb(0%,0%,0%);fill-opacity:1;" d="M 109.605469 154.230469 L 110.804688 154.230469 L 110.804688 161.523438 L 109.605469 161.523438 Z M 109.605469 151.390625 L 110.804688 151.390625 L 110.804688 152.910156 L 109.605469 152.910156 Z M 109.605469 151.390625 "/>
<path style=" stroke:none;fill-rule:nonzero;fill:rgb(0%,0%,0%);fill-opacity:1;" d="M 119.375 157.121094 L 119.375 161.523438 L 118.175781 161.523438 L 118.175781 157.160156 C 118.175781 156.46875 118.042969 155.953125 117.773438 155.613281 C 117.503906 155.269531 117.097656 155.097656 116.5625 155.097656 C 115.914062 155.097656 115.402344 155.304688 115.03125 155.714844 C 114.65625 156.125 114.46875 156.6875 114.46875 157.402344 L 114.46875 161.523438 L 113.265625 161.523438 L 113.265625 154.230469 L 114.46875 154.230469 L 114.46875 155.363281 C 114.757812 154.925781 115.09375 154.597656 115.484375 154.378906 C 115.871094 154.164062 116.320312 154.054688 116.828125 154.054688 C 117.664062 154.054688 118.300781 154.3125 118.726562 154.832031 C 119.160156 155.351562 119.375 156.113281 119.375 157.121094 Z M 119.375 157.121094 "/>
<path style=" stroke:none;fill-rule:nonzero;fill:rgb(0%,0%,0%);fill-opacity:1;" d="M 129.316406 157.855469 C 128.347656 157.855469 127.675781 157.96875 127.300781 158.1875 C 126.929688 158.410156 126.742188 158.789062 126.742188 159.320312 C 126.742188 159.746094 126.882812 160.085938 127.164062 160.335938 C 127.445312 160.582031 127.824219 160.707031 128.304688 160.707031 C 128.96875 160.707031 129.503906 160.472656 129.90625 160 C 130.304688 159.53125 130.507812 158.90625 130.507812 158.125 L 130.507812 157.855469 Z M 131.703125 157.363281 L 131.703125 161.523438 L 130.507812 161.523438 L 130.507812 160.414062 C 130.234375 160.855469 129.890625 161.183594 129.484375 161.394531 C 129.074219 161.605469 128.578125 161.710938 127.984375 161.710938 C 127.238281 161.710938 126.644531 161.5 126.203125 161.082031 C 125.765625 160.664062 125.542969 160.101562 125.542969 159.398438 C 125.542969 158.578125 125.820312 157.960938 126.367188 157.542969 C 126.917969 157.128906 127.738281 156.917969 128.824219 156.917969 L 130.507812 156.917969 L 130.507812 156.800781 C 130.507812 156.25 130.324219 155.824219 129.964844 155.523438 C 129.601562 155.21875 129.089844 155.070312 128.4375 155.070312 C 128.019531 155.070312 127.613281 155.121094 127.21875 155.21875 C 126.824219 155.320312 126.445312 155.46875 126.078125 155.667969 L 126.078125 154.5625 C 126.515625 154.390625 126.941406 154.265625 127.355469 154.183594 C 127.765625 154.097656 128.167969 154.054688 128.558594 154.054688 C 129.613281 154.054688 130.402344 154.328125 130.921875 154.875 C 131.445312 155.421875 131.703125 156.25 131.703125 157.363281 Z M 131.703125 157.363281 "/>
<path style=" stroke:none;fill-rule:nonzero;fill:rgb(0%,0%,0%);fill-opacity:1;" d="M 139.417969 154.507812 L 139.417969 155.628906 C 139.082031 155.441406 138.742188 155.300781 138.398438 155.210938 C 138.058594 155.117188 137.714844 155.070312 137.367188 155.070312 C 136.589844 155.070312 135.988281 155.316406 135.554688 155.808594 C 135.128906 156.300781 134.914062 156.992188 134.914062 157.882812 C 134.914062 158.773438 135.128906 159.464844 135.554688 159.957031 C 135.988281 160.449219 136.589844 160.695312 137.367188 160.695312 C 137.714844 160.695312 138.058594 160.648438 138.398438 160.554688 C 138.742188 160.460938 139.082031 160.320312 139.417969 160.132812 L 139.417969 161.242188 C 139.085938 161.398438 138.738281 161.515625 138.378906 161.59375 C 138.023438 161.671875 137.640625 161.710938 137.238281 161.710938 C 136.140625 161.710938 135.265625 161.367188 134.617188 160.675781 C 133.972656 159.984375 133.648438 159.054688 133.648438 157.882812 C 133.648438 156.695312 133.976562 155.757812 134.628906 155.078125 C 135.285156 154.394531 136.179688 154.054688 137.316406 154.054688 C 137.683594 154.054688 138.042969 154.09375 138.394531 154.167969 C 138.746094 154.246094 139.089844 154.359375 139.417969 154.507812 Z M 139.417969 154.507812 "/>
<path style=" stroke:none;fill-rule:nonzero;fill:rgb(0%,0%,0%);fill-opacity:1;" d="M 146.75 154.507812 L 146.75 155.628906 C 146.410156 155.441406 146.070312 155.300781 145.730469 155.210938 C 145.390625 155.117188 145.046875 155.070312 144.699219 155.070312 C 143.921875 155.070312 143.316406 155.316406 142.886719 155.808594 C 142.457031 156.300781 142.242188 156.992188 142.242188 157.882812 C 142.242188 158.773438 142.457031 159.464844 142.886719 159.957031 C 143.316406 160.449219 143.921875 160.695312 144.699219 160.695312 C 145.046875 160.695312 145.390625 160.648438 145.730469 160.554688 C 146.070312 160.460938 146.410156 160.320312 146.75 160.132812 L 146.75 161.242188 C 146.414062 161.398438 146.070312 161.515625 145.710938 161.59375 C 145.351562 161.671875 144.972656 161.710938 144.570312 161.710938 C 143.46875 161.710938 142.597656 161.367188 141.949219 160.675781 C 141.304688 159.984375 140.980469 159.054688 140.980469 157.882812 C 140.980469 156.695312 141.308594 155.757812 141.960938 155.078125 C 142.613281 154.394531 143.511719 154.054688 144.648438 154.054688 C 145.015625 154.054688 145.375 154.09375 145.726562 154.167969 C 146.078125 154.246094 146.417969 154.359375 146.75 154.507812 Z M 146.75 154.507812 "/>
<path style="fill:none;stroke-width:1.5;stroke-linecap:butt;stroke-linejoin:round;stroke:rgb(0%,50.196081%,0%);stroke-opacity:1;stroke-dasharray:9.6,2.4,1.5,2.4;stroke-miterlimit:4;" d="M 39.102539 132.319336 L 59.103516 132.319336 " transform="matrix(1.333333,0,0,1.333333,0,0.000000000000014211)"/>
<path style=" stroke:none;fill-rule:nonzero;fill:rgb(0%,0%,0%);fill-opacity:1;" d="M 91.914062 171.730469 L 91.914062 173.800781 L 94.378906 173.800781 L 94.378906 174.730469 L 91.914062 174.730469 L 91.914062 178.691406 C 91.914062 179.285156 91.992188 179.667969 92.15625 179.835938 C 92.320312 180.007812 92.648438 180.089844 93.148438 180.089844 L 94.378906 180.089844 L 94.378906 181.09375 L 93.148438 181.09375 C 92.226562 181.09375 91.585938 180.921875 91.234375 180.574219 C 90.882812 180.230469 90.707031 179.601562 90.707031 178.691406 L 90.707031 174.730469 L 89.828125 174.730469 L 89.828125 173.800781 L 90.707031 173.800781 L 90.707031 171.730469 Z M 91.914062 171.730469 "/>
<path style=" stroke:none;fill-rule:nonzero;fill:rgb(0%,0%,0%);fill-opacity:1;" d="M 102.191406 177.148438 L 102.191406 177.730469 L 96.683594 177.730469 C 96.738281 178.558594 96.984375 179.1875 97.429688 179.617188 C 97.875 180.050781 98.492188 180.265625 99.289062 180.265625 C 99.746094 180.265625 100.195312 180.210938 100.625 180.097656 C 101.058594 179.984375 101.488281 179.816406 101.914062 179.589844 L 101.914062 180.722656 C 101.484375 180.902344 101.042969 181.042969 100.589844 181.136719 C 100.140625 181.234375 99.679688 181.28125 99.21875 181.28125 C 98.054688 181.28125 97.132812 180.945312 96.453125 180.269531 C 95.773438 179.589844 95.433594 178.671875 95.433594 177.519531 C 95.433594 176.324219 95.757812 175.378906 96.402344 174.679688 C 97.046875 173.976562 97.914062 173.625 99.007812 173.625 C 99.988281 173.625 100.765625 173.941406 101.335938 174.574219 C 101.90625 175.203125 102.191406 176.0625 102.191406 177.148438 Z M 100.996094 176.792969 C 100.984375 176.140625 100.804688 175.617188 100.445312 175.226562 C 100.085938 174.835938 99.613281 174.640625 99.023438 174.640625 C 98.355469 174.640625 97.820312 174.828125 97.417969 175.207031 C 97.015625 175.585938 96.785156 176.117188 96.722656 176.804688 Z M 100.996094 176.792969 "/>
<path style=" stroke:none;fill-rule:nonzero;fill:rgb(0%,0%,0%);fill-opacity:1;" d="M 108.804688 174.015625 L 108.804688 175.148438 C 108.46875 174.976562 108.117188 174.84375 107.75 174.757812 C 107.386719 174.671875 107.011719 174.628906 106.617188 174.628906 C 106.023438 174.628906 105.578125 174.71875 105.28125 174.902344 C 104.984375 175.082031 104.835938 175.355469 104.835938 175.722656 C 104.835938 176 104.941406 176.21875 105.152344 176.375 C 105.367188 176.535156 105.792969 176.683594 106.4375 176.828125 L 106.847656 176.917969 C 107.699219 177.101562 108.300781 177.359375 108.660156 177.691406 C 109.019531 178.023438 109.199219 178.484375 109.199219 179.082031 C 109.199219 179.757812 108.929688 180.292969 108.394531 180.691406 C 107.855469 181.085938 107.121094 181.28125 106.183594 181.28125 C 105.792969 181.28125 105.386719 181.242188 104.960938 181.167969 C 104.539062 181.089844 104.09375 180.976562 103.625 180.824219 L 103.625 179.589844 C 104.066406 179.820312 104.503906 179.992188 104.933594 180.105469 C 105.363281 180.222656 105.789062 180.277344 106.210938 180.277344 C 106.773438 180.277344 107.207031 180.179688 107.511719 179.988281 C 107.8125 179.796875 107.964844 179.523438 107.964844 179.171875 C 107.964844 178.847656 107.855469 178.597656 107.636719 178.425781 C 107.417969 178.25 106.9375 178.082031 106.195312 177.921875 L 105.777344 177.824219 C 105.039062 177.667969 104.5 177.429688 104.171875 177.105469 C 103.839844 176.78125 103.675781 176.335938 103.675781 175.773438 C 103.675781 175.085938 103.917969 174.558594 104.40625 174.1875 C 104.890625 173.8125 105.582031 173.625 106.476562 173.625 C 106.917969 173.625 107.335938 173.660156 107.726562 173.722656 C 108.117188 173.789062 108.476562 173.886719 108.804688 174.015625 Z M 108.804688 174.015625 "/>
<path style=" stroke:none;fill-rule:nonzero;fill:rgb(0%,0%,0%);fill-opacity:1;" d="M 112.289062 171.730469 L 112.289062 173.800781 L 114.757812 173.800781 L 114.757812 174.730469 L 112.289062 174.730469 L 112.289062 178.691406 C 112.289062 179.285156 112.371094 179.667969 112.535156 179.835938 C 112.695312 180.007812 113.027344 180.089844 113.527344 180.089844 L 114.757812 180.089844 L 114.757812 181.09375 L 113.527344 181.09375 C 112.601562 181.09375 111.964844 180.921875 111.613281 180.574219 C 111.261719 180.230469 111.085938 179.601562 111.085938 178.691406 L 111.085938 174.730469 L 110.207031 174.730469 L 110.207031 173.800781 L 111.085938 173.800781 L 111.085938 171.730469 Z M 112.289062 171.730469 "/>
<path style=" stroke:none;fill-rule:nonzero;fill:rgb(0%,0%,0%);fill-opacity:1;" d="M 123.886719 177.429688 C 122.917969 177.429688 122.246094 177.539062 121.871094 177.757812 C 121.5 177.980469 121.3125 178.359375 121.3125 178.894531 C 121.3125 179.316406 121.453125 179.65625 121.734375 179.90625 C 122.015625 180.152344 122.394531 180.277344 122.875 180.277344 C 123.539062 180.277344 124.074219 180.042969 124.476562 179.570312 C 124.875 179.101562 125.078125 178.476562 125.078125 177.695312 L 125.078125 177.429688 Z M 126.273438 176.933594 L 126.273438 181.09375 L 125.078125 181.09375 L 125.078125 179.988281 C 124.804688 180.429688 124.460938 180.753906 124.054688 180.964844 C 123.644531 181.175781 123.148438 181.28125 122.554688 181.28125 C 121.808594 181.28125 121.214844 181.074219 120.773438 180.652344 C 120.335938 180.234375 120.113281 179.671875 120.113281 178.96875 C 120.113281 178.148438 120.390625 177.53125 120.9375 177.117188 C 121.488281 176.699219 122.308594 176.492188 123.394531 176.492188 L 125.078125 176.492188 L 125.078125 176.371094 C 125.078125 175.820312 124.894531 175.394531 124.535156 175.09375 C 124.171875 174.792969 123.660156 174.640625 123.007812 174.640625 C 122.589844 174.640625 122.183594 174.691406 121.789062 174.789062 C 121.394531 174.890625 121.015625 175.039062 120.648438 175.242188 L 120.648438 174.132812 C 121.085938 173.960938 121.511719 173.835938 121.925781 173.753906 C 122.335938 173.667969 122.738281 173.625 123.128906 173.625 C 124.183594 173.625 124.972656 173.898438 125.492188 174.445312 C 126.015625 174.992188 126.273438 175.820312 126.273438 176.933594 Z M 126.273438 176.933594 "/>
<path style=" stroke:none;fill-rule:nonzero;fill:rgb(0%,0%,0%);fill-opacity:1;" d="M 133.988281 174.082031 L 133.988281 175.199219 C 133.652344 175.011719 133.3125 174.875 132.96875 174.78125 C 132.628906 174.6875 132.285156 174.640625 131.9375 174.640625 C 131.160156 174.640625 130.558594 174.886719 130.125 175.378906 C 129.699219 175.871094 129.484375 176.5625 129.484375 177.453125 C 129.484375 178.34375 129.699219 179.035156 130.125 179.527344 C 130.558594 180.019531 131.160156 180.265625 131.9375 180.265625 C 132.285156 180.265625 132.628906 180.21875 132.96875 180.125 C 133.3125 180.03125 133.652344 179.894531 133.988281 179.707031 L 133.988281 180.8125 C 133.65625 180.96875 133.308594 181.085938 132.949219 181.164062 C 132.59375 181.242188 132.210938 181.28125 131.808594 181.28125 C 130.710938 181.28125 129.835938 180.9375 129.1875 180.246094 C 128.542969 179.554688 128.21875 178.625 128.21875 177.453125 C 128.21875 176.265625 128.546875 175.328125 129.199219 174.648438 C 129.855469 173.96875 130.75 173.625 131.886719 173.625 C 132.253906 173.625 132.613281 173.664062 132.964844 173.742188 C 133.316406 173.816406 133.660156 173.929688 133.988281 174.082031 Z M 133.988281 174.082031 "/>
<path style=" stroke:none;fill-rule:nonzero;fill:rgb(0%,0%,0%);fill-opacity:1;" d="M 141.320312 174.082031 L 141.320312 175.199219 C 140.980469 175.011719 140.640625 174.875 140.300781 174.78125 C 139.960938 174.6875 139.617188 174.640625 139.269531 174.640625 C 138.492188 174.640625 137.886719 174.886719 137.457031 175.378906 C 137.027344 175.871094 136.8125 176.5625 136.8125 177.453125 C 136.8125 178.34375 137.027344 179.035156 137.457031 179.527344 C 137.886719 180.019531 138.492188 180.265625 139.269531 180.265625 C 139.617188 180.265625 139.960938 180.21875 140.300781 180.125 C 140.640625 180.03125 140.980469 179.894531 141.320312 179.707031 L 141.320312 180.8125 C 140.984375 180.96875 140.640625 181.085938 140.28125 181.164062 C 139.921875 181.242188 139.542969 181.28125 139.140625 181.28125 C 138.039062 181.28125 137.167969 180.9375 136.519531 180.246094 C 135.875 179.554688 135.550781 178.625 135.550781 177.453125 C 135.550781 176.265625 135.878906 175.328125 136.53125 174.648438 C 137.183594 173.96875 138.082031 173.625 139.21875 173.625 C 139.585938 173.625 139.945312 173.664062 140.296875 173.742188 C 140.648438 173.816406 140.988281 173.929688 141.320312 174.082031 Z M 141.320312 174.082031 "/>
</g>
</svg>
