<?xml version="1.0" encoding="UTF-8"?>
<svg xmlns="http://www.w3.org/2000/svg" xmlns:xlink="http://www.w3.org/1999/xlink" width="348.03125" height="240.875" viewBox="0 0 348.03125 240.875" version="1.1">
<defs>
<clipPath id="clip1">
  <path d="M 113 9.601562 L 115 9.601562 L 115 190.800781 L 113 190.800781 Z M 113 9.601562 "/>
</clipPath>
<clipPath id="clip2">
  <path d="M 160 9.601562 L 163 9.601562 L 163 190.800781 L 160 190.800781 Z M 160 9.601562 "/>
</clipPath>
<clipPath id="clip3">
  <path d="M 208 9.601562 L 211 9.601562 L 211 190.800781 L 208 190.800781 Z M 208 9.601562 "/>
</clipPath>
<clipPath id="clip4">
  <path d="M 256 9.601562 L 259 9.601562 L 259 190.800781 L 256 190.800781 Z M 256 9.601562 "/>
</clipPath>
<clipPath id="clip5">
  <path d="M 304 9.601562 L 306 9.601562 L 306 190.800781 L 304 190.800781 Z M 304 9.601562 "/>
</clipPath>
<clipPath id="clip6">
  <path d="M 78.03125 187 L 338.429688 187 L 338.429688 190 L 78.03125 190 Z M 78.03125 187 "/>
</clipPath>
<clipPath id="clip7">
  <path d="M 78.03125 153 L 338.429688 153 L 338.429688 155 L 78.03125 155 Z M 78.03125 153 "/>
</clipPath>
<clipPath id="clip8">
  <path d="M 78.03125 119 L 338.429688 119 L 338.429688 121 L 78.03125 121 Z M 78.03125 119 "/>
</clipPath>
<clipPath id="clip9">
  <path d="M 78.03125 85 L 338.429688 85 L 338.429688 87 L 78.03125 87 Z M 78.03125 85 "/>
</clipPath>
<clipPath id="clip10">
  <path d="M 78.03125 51 L 338.429688 51 L 338.429688 53 L 78.03125 53 Z M 78.03125 51 "/>
</clipPath>
<clipPath id="clip11">
  <path d="M 78.03125 17 L 338.429688 17 L 338.429688 19 L 78.03125 19 Z M 78.03125 17 "/>
</clipPath>
</defs>
<g id="surface1">
<path style=" stroke:none;fill-rule:nonzero;fill:rgb(100%,100%,100%);fill-opacity:1;" d="M 78.03125 190.800781 L 338.429688 190.800781 L 338.429688 9.601562 L 78.03125 9.601562 Z M 78.03125 190.800781 "/>
<g clip-path="url(#clip1)" clip-rule="nonzero">
<path style="fill:none;stroke-width:0.8;stroke-linecap:square;stroke-linejoin:round;stroke:rgb(69.01961%,69.01961%,69.01961%);stroke-opacity:1;stroke-miterlimit:4;" d="M 85.335938 143.100586 L 85.335938 7.201172 " transform="matrix(1.333333,0,0,1.333333,0,0)"/>
</g>
<path style="fill:none;stroke-width:0.8;stroke-linecap:butt;stroke-linejoin:round;stroke:rgb(0%,0%,0%);stroke-opacity:1;stroke-miterlimit:4;" d="M 0.00134277 0.000579834 L 0.00134277 3.498627 " transform="matrix(1.333333,0,0,1.333333,113.77946,190.800008)"/>
<path style=" stroke:none;fill-rule:nonzero;fill:rgb(0%,0%,0%);fill-opacity:1;" d="M 107.414062 201.410156 C 106.738281 201.410156 106.230469 201.742188 105.886719 202.410156 C 105.546875 203.074219 105.378906 204.078125 105.378906 205.414062 C 105.378906 206.746094 105.546875 207.746094 105.886719 208.414062 C 106.230469 209.078125 106.738281 209.414062 107.414062 209.414062 C 108.097656 209.414062 108.609375 209.078125 108.949219 208.414062 C 109.289062 207.746094 109.460938 206.746094 109.460938 205.414062 C 109.460938 204.078125 109.289062 203.074219 108.949219 202.410156 C 108.609375 201.742188 108.097656 201.410156 107.414062 201.410156 Z M 107.414062 200.367188 C 108.503906 200.367188 109.335938 200.800781 109.914062 201.664062 C 110.488281 202.523438 110.773438 203.773438 110.773438 205.414062 C 110.773438 207.050781 110.488281 208.300781 109.914062 209.164062 C 109.335938 210.023438 108.503906 210.453125 107.414062 210.453125 C 106.324219 210.453125 105.492188 210.023438 104.917969 209.164062 C 104.34375 208.300781 104.054688 207.050781 104.054688 205.414062 C 104.054688 203.773438 104.34375 202.523438 104.917969 201.664062 C 105.492188 200.800781 106.324219 200.367188 107.414062 200.367188 Z M 107.414062 200.367188 "/>
<path style=" stroke:none;fill-rule:nonzero;fill:rgb(0%,0%,0%);fill-opacity:1;" d="M 113.085938 208.609375 L 114.460938 208.609375 L 114.460938 210.265625 L 113.085938 210.265625 Z M 113.085938 208.609375 "/>
<path style=" stroke:none;fill-rule:nonzero;fill:rgb(0%,0%,0%);fill-opacity:1;" d="M 120.300781 204.882812 C 119.710938 204.882812 119.242188 205.082031 118.898438 205.488281 C 118.550781 205.890625 118.378906 206.441406 118.378906 207.144531 C 118.378906 207.84375 118.550781 208.398438 118.898438 208.804688 C 119.242188 209.210938 119.710938 209.414062 120.300781 209.414062 C 120.890625 209.414062 121.359375 209.210938 121.703125 208.804688 C 122.046875 208.398438 122.21875 207.84375 122.21875 207.144531 C 122.21875 206.441406 122.046875 205.890625 121.703125 205.488281 C 121.359375 205.082031 120.890625 204.882812 120.300781 204.882812 Z M 122.910156 200.757812 L 122.910156 201.957031 C 122.582031 201.800781 122.246094 201.683594 121.910156 201.601562 C 121.574219 201.515625 121.242188 201.476562 120.910156 201.476562 C 120.042969 201.476562 119.378906 201.769531 118.921875 202.355469 C 118.464844 202.941406 118.203125 203.824219 118.136719 205.011719 C 118.394531 204.632812 118.714844 204.34375 119.101562 204.140625 C 119.488281 203.941406 119.914062 203.839844 120.378906 203.839844 C 121.355469 203.839844 122.125 204.136719 122.691406 204.730469 C 123.257812 205.320312 123.542969 206.125 123.542969 207.144531 C 123.542969 208.144531 123.246094 208.945312 122.65625 209.550781 C 122.066406 210.152344 121.28125 210.453125 120.300781 210.453125 C 119.175781 210.453125 118.316406 210.023438 117.722656 209.164062 C 117.128906 208.300781 116.828125 207.050781 116.828125 205.414062 C 116.828125 203.878906 117.195312 202.652344 117.921875 201.738281 C 118.652344 200.824219 119.632812 200.367188 120.859375 200.367188 C 121.191406 200.367188 121.523438 200.402344 121.859375 200.464844 C 122.195312 200.53125 122.546875 200.628906 122.910156 200.757812 Z M 122.910156 200.757812 "/>
<g clip-path="url(#clip2)" clip-rule="nonzero">
<path style="fill:none;stroke-width:0.8;stroke-linecap:square;stroke-linejoin:round;stroke:rgb(69.01961%,69.01961%,69.01961%);stroke-opacity:1;stroke-miterlimit:4;" d="M 121.201172 143.100586 L 121.201172 7.201172 " transform="matrix(1.333333,0,0,1.333333,0,0)"/>
</g>
<path style="fill:none;stroke-width:0.8;stroke-linecap:butt;stroke-linejoin:round;stroke:rgb(0%,0%,0%);stroke-opacity:1;stroke-miterlimit:4;" d="M -0.00119019 0.000579834 L -0.00119019 3.498627 " transform="matrix(1.333333,0,0,1.333333,161.603149,190.800008)"/>
<path style=" stroke:none;fill-rule:nonzero;fill:rgb(0%,0%,0%);fill-opacity:1;" d="M 155.238281 201.410156 C 154.5625 201.410156 154.054688 201.742188 153.710938 202.410156 C 153.371094 203.074219 153.199219 204.078125 153.199219 205.414062 C 153.199219 206.746094 153.371094 207.746094 153.710938 208.414062 C 154.054688 209.078125 154.5625 209.414062 155.238281 209.414062 C 155.921875 209.414062 156.429688 209.078125 156.773438 208.414062 C 157.113281 207.746094 157.285156 206.746094 157.285156 205.414062 C 157.285156 204.078125 157.113281 203.074219 156.773438 202.410156 C 156.429688 201.742188 155.921875 201.410156 155.238281 201.410156 Z M 155.238281 200.367188 C 156.328125 200.367188 157.160156 200.800781 157.738281 201.664062 C 158.3125 202.523438 158.597656 203.773438 158.597656 205.414062 C 158.597656 207.050781 158.3125 208.300781 157.738281 209.164062 C 157.160156 210.023438 156.328125 210.453125 155.238281 210.453125 C 154.148438 210.453125 153.316406 210.023438 152.742188 209.164062 C 152.167969 208.300781 151.878906 207.050781 151.878906 205.414062 C 151.878906 203.773438 152.167969 202.523438 152.742188 201.664062 C 153.316406 200.800781 154.148438 200.367188 155.238281 200.367188 Z M 155.238281 200.367188 "/>
<path style=" stroke:none;fill-rule:nonzero;fill:rgb(0%,0%,0%);fill-opacity:1;" d="M 160.910156 208.609375 L 162.285156 208.609375 L 162.285156 210.265625 L 160.910156 210.265625 Z M 160.910156 208.609375 "/>
<path style=" stroke:none;fill-rule:nonzero;fill:rgb(0%,0%,0%);fill-opacity:1;" d="M 167.960938 205.648438 C 167.335938 205.648438 166.84375 205.816406 166.484375 206.148438 C 166.128906 206.484375 165.949219 206.945312 165.949219 207.527344 C 165.949219 208.117188 166.128906 208.574219 166.484375 208.910156 C 166.84375 209.246094 167.335938 209.414062 167.960938 209.414062 C 168.585938 209.414062 169.078125 209.246094 169.4375 208.910156 C 169.796875 208.570312 169.980469 208.109375 169.980469 207.527344 C 169.980469 206.945312 169.800781 206.484375 169.441406 206.148438 C 169.085938 205.816406 168.589844 205.648438 167.960938 205.648438 Z M 166.644531 205.089844 C 166.082031 204.949219 165.640625 204.6875 165.328125 204.300781 C 165.011719 203.914062 164.855469 203.441406 164.855469 202.886719 C 164.855469 202.109375 165.132812 201.496094 165.683594 201.046875 C 166.238281 200.59375 166.996094 200.367188 167.960938 200.367188 C 168.929688 200.367188 169.6875 200.59375 170.238281 201.046875 C 170.789062 201.496094 171.066406 202.109375 171.066406 202.886719 C 171.066406 203.441406 170.910156 203.914062 170.59375 204.300781 C 170.28125 204.6875 169.84375 204.949219 169.28125 205.089844 C 169.917969 205.238281 170.410156 205.527344 170.761719 205.957031 C 171.117188 206.386719 171.292969 206.910156 171.292969 207.527344 C 171.292969 208.472656 171.003906 209.195312 170.429688 209.699219 C 169.855469 210.203125 169.03125 210.453125 167.960938 210.453125 C 166.890625 210.453125 166.066406 210.203125 165.488281 209.699219 C 164.914062 209.195312 164.625 208.472656 164.625 207.527344 C 164.625 206.910156 164.804688 206.386719 165.160156 205.957031 C 165.515625 205.527344 166.011719 205.238281 166.644531 205.089844 Z M 166.164062 203.011719 C 166.164062 203.515625 166.320312 203.90625 166.636719 204.191406 C 166.949219 204.472656 167.390625 204.613281 167.960938 204.613281 C 168.523438 204.613281 168.96875 204.472656 169.285156 204.191406 C 169.605469 203.90625 169.765625 203.515625 169.765625 203.011719 C 169.765625 202.507812 169.605469 202.117188 169.285156 201.832031 C 168.96875 201.550781 168.523438 201.410156 167.960938 201.410156 C 167.390625 201.410156 166.949219 201.550781 166.636719 201.832031 C 166.320312 202.117188 166.164062 202.507812 166.164062 203.011719 Z M 166.164062 203.011719 "/>
<g clip-path="url(#clip3)" clip-rule="nonzero">
<path style="fill:none;stroke-width:0.8;stroke-linecap:square;stroke-linejoin:round;stroke:rgb(69.01961%,69.01961%,69.01961%);stroke-opacity:1;stroke-miterlimit:4;" d="M 157.069336 143.100586 L 157.069336 7.201172 " transform="matrix(1.333333,0,0,1.333333,0,0)"/>
</g>
<path style="fill:none;stroke-width:0.8;stroke-linecap:butt;stroke-linejoin:round;stroke:rgb(0%,0%,0%);stroke-opacity:1;stroke-miterlimit:4;" d="M -0.000793457 0.000579834 L -0.000793457 3.498627 " transform="matrix(1.333333,0,0,1.333333,209.426839,190.800008)"/>
<path style=" stroke:none;fill-rule:nonzero;fill:rgb(0%,0%,0%);fill-opacity:1;" d="M 200.480469 209.160156 L 202.625 209.160156 L 202.625 201.742188 L 200.289062 202.210938 L 200.289062 201.011719 L 202.613281 200.542969 L 203.929688 200.542969 L 203.929688 209.160156 L 206.078125 209.160156 L 206.078125 210.265625 L 200.480469 210.265625 Z M 200.480469 209.160156 "/>
<path style=" stroke:none;fill-rule:nonzero;fill:rgb(0%,0%,0%);fill-opacity:1;" d="M 208.734375 208.609375 L 210.109375 208.609375 L 210.109375 210.265625 L 208.734375 210.265625 Z M 208.734375 208.609375 "/>
<path style=" stroke:none;fill-rule:nonzero;fill:rgb(0%,0%,0%);fill-opacity:1;" d="M 215.785156 201.410156 C 215.105469 201.410156 214.597656 201.742188 214.257812 202.410156 C 213.917969 203.074219 213.746094 204.078125 213.746094 205.414062 C 213.746094 206.746094 213.917969 207.746094 214.257812 208.414062 C 214.597656 209.078125 215.105469 209.414062 215.785156 209.414062 C 216.464844 209.414062 216.976562 209.078125 217.316406 208.414062 C 217.660156 207.746094 217.828125 206.746094 217.828125 205.414062 C 217.828125 204.078125 217.660156 203.074219 217.316406 202.410156 C 216.976562 201.742188 216.464844 201.410156 215.785156 201.410156 Z M 215.785156 200.367188 C 216.875 200.367188 217.707031 200.800781 218.28125 201.664062 C 218.855469 202.523438 219.144531 203.773438 219.144531 205.414062 C 219.144531 207.050781 218.855469 208.300781 218.28125 209.164062 C 217.707031 210.023438 216.875 210.453125 215.785156 210.453125 C 214.695312 210.453125 213.863281 210.023438 213.289062 209.164062 C 212.710938 208.300781 212.425781 207.050781 212.425781 205.414062 C 212.425781 203.773438 212.710938 202.523438 213.289062 201.664062 C 213.863281 200.800781 214.695312 200.367188 215.785156 200.367188 Z M 215.785156 200.367188 "/>
<g clip-path="url(#clip4)" clip-rule="nonzero">
<path style="fill:none;stroke-width:0.8;stroke-linecap:square;stroke-linejoin:round;stroke:rgb(69.01961%,69.01961%,69.01961%);stroke-opacity:1;stroke-miterlimit:4;" d="M 192.9375 143.100586 L 192.9375 7.201172 " transform="matrix(1.333333,0,0,1.333333,0,0)"/>
</g>
<path style="fill:none;stroke-width:0.8;stroke-linecap:butt;stroke-linejoin:round;stroke:rgb(0%,0%,0%);stroke-opacity:1;stroke-miterlimit:4;" d="M -0.000396729 0.000579834 L -0.000396729 3.498627 " transform="matrix(1.333333,0,0,1.333333,257.250529,190.800008)"/>
<path style=" stroke:none;fill-rule:nonzero;fill:rgb(0%,0%,0%);fill-opacity:1;" d="M 248.300781 209.160156 L 250.449219 209.160156 L 250.449219 201.742188 L 248.113281 202.210938 L 248.113281 201.011719 L 250.4375 200.542969 L 251.753906 200.542969 L 251.753906 209.160156 L 253.902344 209.160156 L 253.902344 210.265625 L 248.300781 210.265625 Z M 248.300781 209.160156 "/>
<path style=" stroke:none;fill-rule:nonzero;fill:rgb(0%,0%,0%);fill-opacity:1;" d="M 256.554688 208.609375 L 257.929688 208.609375 L 257.929688 210.265625 L 256.554688 210.265625 Z M 256.554688 208.609375 "/>
<path style=" stroke:none;fill-rule:nonzero;fill:rgb(0%,0%,0%);fill-opacity:1;" d="M 261.929688 209.160156 L 266.519531 209.160156 L 266.519531 210.265625 L 260.347656 210.265625 L 260.347656 209.160156 C 260.84375 208.640625 261.523438 207.949219 262.386719 207.078125 C 263.25 206.207031 263.789062 205.648438 264.011719 205.394531 C 264.433594 204.921875 264.726562 204.523438 264.894531 204.195312 C 265.0625 203.867188 265.144531 203.542969 265.144531 203.226562 C 265.144531 202.710938 264.964844 202.289062 264.601562 201.964844 C 264.238281 201.636719 263.765625 201.476562 263.183594 201.476562 C 262.773438 201.476562 262.335938 201.546875 261.878906 201.691406 C 261.421875 201.832031 260.933594 202.050781 260.410156 202.339844 L 260.410156 201.011719 C 260.941406 200.800781 261.433594 200.640625 261.894531 200.53125 C 262.355469 200.421875 262.777344 200.367188 263.160156 200.367188 C 264.167969 200.367188 264.96875 200.621094 265.566406 201.125 C 266.167969 201.628906 266.464844 202.300781 266.464844 203.140625 C 266.464844 203.542969 266.390625 203.921875 266.242188 204.277344 C 266.09375 204.636719 265.820312 205.058594 265.425781 205.542969 C 265.316406 205.671875 264.96875 206.035156 264.386719 206.636719 C 263.808594 207.238281 262.988281 208.078125 261.929688 209.160156 Z M 261.929688 209.160156 "/>
<g clip-path="url(#clip5)" clip-rule="nonzero">
<path style="fill:none;stroke-width:0.8;stroke-linecap:square;stroke-linejoin:round;stroke:rgb(69.01961%,69.01961%,69.01961%);stroke-opacity:1;stroke-miterlimit:4;" d="M 228.805664 143.100586 L 228.805664 7.201172 " transform="matrix(1.333333,0,0,1.333333,0,0)"/>
</g>
<path style="fill:none;stroke-width:0.8;stroke-linecap:butt;stroke-linejoin:round;stroke:rgb(0%,0%,0%);stroke-opacity:1;stroke-miterlimit:4;" d="M 0 0.000579834 L 0 3.498627 " transform="matrix(1.333333,0,0,1.333333,305.074219,190.800008)"/>
<path style=" stroke:none;fill-rule:nonzero;fill:rgb(0%,0%,0%);fill-opacity:1;" d="M 296.125 209.160156 L 298.273438 209.160156 L 298.273438 201.742188 L 295.9375 202.210938 L 295.9375 201.011719 L 298.261719 200.542969 L 299.578125 200.542969 L 299.578125 209.160156 L 301.722656 209.160156 L 301.722656 210.265625 L 296.125 210.265625 Z M 296.125 209.160156 "/>
<path style=" stroke:none;fill-rule:nonzero;fill:rgb(0%,0%,0%);fill-opacity:1;" d="M 304.378906 208.609375 L 305.753906 208.609375 L 305.753906 210.265625 L 304.378906 210.265625 Z M 304.378906 208.609375 "/>
<path style=" stroke:none;fill-rule:nonzero;fill:rgb(0%,0%,0%);fill-opacity:1;" d="M 312.234375 201.691406 L 308.914062 206.878906 L 312.234375 206.878906 Z M 311.886719 200.542969 L 313.542969 200.542969 L 313.542969 206.878906 L 314.929688 206.878906 L 314.929688 207.972656 L 313.542969 207.972656 L 313.542969 210.265625 L 312.234375 210.265625 L 312.234375 207.972656 L 307.84375 207.972656 L 307.84375 206.703125 Z M 311.886719 200.542969 "/>
<path style=" stroke:none;fill-rule:nonzero;fill:rgb(0%,0%,0%);fill-opacity:1;" d="M 211.605469 221.210938 L 208.964844 224.757812 L 211.738281 228.503906 L 210.328125 228.503906 L 208.203125 225.636719 L 206.082031 228.503906 L 204.667969 228.503906 L 207.503906 224.6875 L 204.910156 221.210938 L 206.324219 221.210938 L 208.257812 223.808594 L 210.191406 221.210938 Z M 211.605469 221.210938 "/>
<g clip-path="url(#clip6)" clip-rule="nonzero">
<path style="fill:none;stroke-width:0.8;stroke-linecap:square;stroke-linejoin:round;stroke:rgb(69.01961%,69.01961%,69.01961%);stroke-opacity:1;stroke-miterlimit:4;" d="M 58.523438 141.196289 L 253.822266 141.196289 " transform="matrix(1.333333,0,0,1.333333,0,0)"/>
</g>
<path style="fill:none;stroke-width:0.8;stroke-linecap:butt;stroke-linejoin:round;stroke:rgb(0%,0%,0%);stroke-opacity:1;stroke-miterlimit:4;" d="M 0 -0.000869751 L -3.500977 -0.000869751 " transform="matrix(1.333333,0,0,1.333333,78.03125,188.262878)"/>
<path style=" stroke:none;fill-rule:nonzero;fill:rgb(0%,0%,0%);fill-opacity:1;" d="M 29.25 188.59375 L 37.597656 188.59375 L 37.597656 189.703125 L 29.25 189.703125 Z M 29.25 188.59375 "/>
<path style=" stroke:none;fill-rule:nonzero;fill:rgb(0%,0%,0%);fill-opacity:1;" d="M 40.664062 192.222656 L 42.8125 192.222656 L 42.8125 184.804688 L 40.472656 185.273438 L 40.472656 184.078125 L 42.800781 183.609375 L 44.113281 183.609375 L 44.113281 192.222656 L 46.261719 192.222656 L 46.261719 193.328125 L 40.664062 193.328125 Z M 40.664062 192.222656 "/>
<path style=" stroke:none;fill-rule:nonzero;fill:rgb(0%,0%,0%);fill-opacity:1;" d="M 48.917969 191.675781 L 50.292969 191.675781 L 50.292969 193.328125 L 48.917969 193.328125 Z M 48.917969 191.675781 "/>
<path style=" stroke:none;fill-rule:nonzero;fill:rgb(0%,0%,0%);fill-opacity:1;" d="M 54.289062 192.222656 L 58.878906 192.222656 L 58.878906 193.328125 L 52.707031 193.328125 L 52.707031 192.222656 C 53.207031 191.707031 53.886719 191.011719 54.746094 190.144531 C 55.609375 189.273438 56.152344 188.710938 56.371094 188.457031 C 56.792969 187.984375 57.085938 187.585938 57.253906 187.257812 C 57.421875 186.929688 57.503906 186.609375 57.503906 186.289062 C 57.503906 185.773438 57.324219 185.351562 56.960938 185.027344 C 56.597656 184.703125 56.128906 184.539062 55.546875 184.539062 C 55.132812 184.539062 54.699219 184.609375 54.238281 184.753906 C 53.78125 184.898438 53.292969 185.113281 52.773438 185.40625 L 52.773438 184.078125 C 53.300781 183.863281 53.796875 183.703125 54.253906 183.59375 C 54.71875 183.488281 55.136719 183.433594 55.519531 183.433594 C 56.527344 183.433594 57.328125 183.683594 57.929688 184.1875 C 58.527344 184.691406 58.828125 185.363281 58.828125 186.207031 C 58.828125 186.605469 58.75 186.984375 58.601562 187.34375 C 58.453125 187.699219 58.179688 188.121094 57.785156 188.609375 C 57.675781 188.734375 57.332031 189.097656 56.75 189.699219 C 56.167969 190.300781 55.347656 191.140625 54.289062 192.222656 Z M 54.289062 192.222656 "/>
<path style=" stroke:none;fill-rule:nonzero;fill:rgb(0%,0%,0%);fill-opacity:1;" d="M 61.652344 183.609375 L 66.816406 183.609375 L 66.816406 184.714844 L 62.859375 184.714844 L 62.859375 187.097656 C 63.046875 187.03125 63.238281 186.984375 63.429688 186.953125 C 63.621094 186.917969 63.8125 186.902344 64.003906 186.902344 C 65.089844 186.902344 65.945312 187.199219 66.582031 187.796875 C 67.214844 188.390625 67.53125 189.195312 67.53125 190.210938 C 67.53125 191.253906 67.207031 192.070312 66.554688 192.648438 C 65.902344 193.226562 64.984375 193.519531 63.800781 193.519531 C 63.394531 193.519531 62.976562 193.484375 62.554688 193.414062 C 62.132812 193.34375 61.695312 193.242188 61.242188 193.101562 L 61.242188 191.777344 C 61.632812 191.992188 62.035156 192.148438 62.453125 192.253906 C 62.871094 192.359375 63.308594 192.410156 63.773438 192.410156 C 64.527344 192.410156 65.121094 192.210938 65.558594 191.816406 C 65.996094 191.421875 66.214844 190.886719 66.214844 190.210938 C 66.214844 189.535156 65.996094 188.996094 65.558594 188.601562 C 65.121094 188.207031 64.527344 188.007812 63.773438 188.007812 C 63.421875 188.007812 63.070312 188.046875 62.722656 188.125 C 62.375 188.203125 62.015625 188.324219 61.652344 188.492188 Z M 61.652344 183.609375 "/>
<g clip-path="url(#clip7)" clip-rule="nonzero">
<path style="fill:none;stroke-width:0.8;stroke-linecap:square;stroke-linejoin:round;stroke:rgb(69.01961%,69.01961%,69.01961%);stroke-opacity:1;stroke-miterlimit:4;" d="M 58.523438 115.631836 L 253.822266 115.631836 " transform="matrix(1.333333,0,0,1.333333,0,0)"/>
</g>
<path style="fill:none;stroke-width:0.8;stroke-linecap:butt;stroke-linejoin:round;stroke:rgb(0%,0%,0%);stroke-opacity:1;stroke-miterlimit:4;" d="M 0 -0.0013504 L -3.500977 -0.0013504 " transform="matrix(1.333333,0,0,1.333333,78.03125,154.177582)"/>
<path style=" stroke:none;fill-rule:nonzero;fill:rgb(0%,0%,0%);fill-opacity:1;" d="M 29.25 154.511719 L 37.597656 154.511719 L 37.597656 155.617188 L 29.25 155.617188 Z M 29.25 154.511719 "/>
<path style=" stroke:none;fill-rule:nonzero;fill:rgb(0%,0%,0%);fill-opacity:1;" d="M 40.664062 158.136719 L 42.8125 158.136719 L 42.8125 150.71875 L 40.472656 151.1875 L 40.472656 149.992188 L 42.800781 149.523438 L 44.113281 149.523438 L 44.113281 158.136719 L 46.261719 158.136719 L 46.261719 159.242188 L 40.664062 159.242188 Z M 40.664062 158.136719 "/>
<path style=" stroke:none;fill-rule:nonzero;fill:rgb(0%,0%,0%);fill-opacity:1;" d="M 48.917969 157.589844 L 50.292969 157.589844 L 50.292969 159.242188 L 48.917969 159.242188 Z M 48.917969 157.589844 "/>
<path style=" stroke:none;fill-rule:nonzero;fill:rgb(0%,0%,0%);fill-opacity:1;" d="M 55.96875 150.390625 C 55.292969 150.390625 54.78125 150.722656 54.441406 151.390625 C 54.101562 152.054688 53.929688 153.054688 53.929688 154.394531 C 53.929688 155.726562 54.101562 156.722656 54.441406 157.390625 C 54.78125 158.058594 55.292969 158.390625 55.96875 158.390625 C 56.648438 158.390625 57.160156 158.058594 57.5 157.390625 C 57.84375 156.722656 58.015625 155.726562 58.015625 154.394531 C 58.015625 153.054688 57.84375 152.054688 57.5 151.390625 C 57.160156 150.722656 56.648438 150.390625 55.96875 150.390625 Z M 55.96875 149.347656 C 57.058594 149.347656 57.890625 149.777344 58.464844 150.640625 C 59.042969 151.503906 59.328125 152.753906 59.328125 154.394531 C 59.328125 156.03125 59.042969 157.277344 58.464844 158.140625 C 57.890625 159.003906 57.058594 159.433594 55.96875 159.433594 C 54.878906 159.433594 54.046875 159.003906 53.472656 158.140625 C 52.898438 157.277344 52.609375 156.03125 52.609375 154.394531 C 52.609375 152.753906 52.898438 151.503906 53.472656 150.640625 C 54.046875 149.777344 54.878906 149.347656 55.96875 149.347656 Z M 55.96875 149.347656 "/>
<path style=" stroke:none;fill-rule:nonzero;fill:rgb(0%,0%,0%);fill-opacity:1;" d="M 64.453125 150.390625 C 63.773438 150.390625 63.265625 150.722656 62.925781 151.390625 C 62.582031 152.054688 62.414062 153.054688 62.414062 154.394531 C 62.414062 155.726562 62.582031 156.722656 62.925781 157.390625 C 63.265625 158.058594 63.773438 158.390625 64.453125 158.390625 C 65.132812 158.390625 65.644531 158.058594 65.984375 157.390625 C 66.328125 156.722656 66.496094 155.726562 66.496094 154.394531 C 66.496094 153.054688 66.328125 152.054688 65.984375 151.390625 C 65.644531 150.722656 65.132812 150.390625 64.453125 150.390625 Z M 64.453125 149.347656 C 65.542969 149.347656 66.375 149.777344 66.949219 150.640625 C 67.523438 151.503906 67.8125 152.753906 67.8125 154.394531 C 67.8125 156.03125 67.523438 157.277344 66.949219 158.140625 C 66.375 159.003906 65.542969 159.433594 64.453125 159.433594 C 63.363281 159.433594 62.53125 159.003906 61.957031 158.140625 C 61.378906 157.277344 61.09375 156.03125 61.09375 154.394531 C 61.09375 152.753906 61.378906 151.503906 61.957031 150.640625 C 62.53125 149.777344 63.363281 149.347656 64.453125 149.347656 Z M 64.453125 149.347656 "/>
<g clip-path="url(#clip8)" clip-rule="nonzero">
<path style="fill:none;stroke-width:0.8;stroke-linecap:square;stroke-linejoin:round;stroke:rgb(69.01961%,69.01961%,69.01961%);stroke-opacity:1;stroke-miterlimit:4;" d="M 58.523438 90.070312 L 253.822266 90.070312 " transform="matrix(1.333333,0,0,1.333333,0,0)"/>
</g>
<path style="fill:none;stroke-width:0.8;stroke-linecap:butt;stroke-linejoin:round;stroke:rgb(0%,0%,0%);stroke-opacity:1;stroke-miterlimit:4;" d="M 0 0.00110626 L -3.500977 0.00110626 " transform="matrix(1.333333,0,0,1.333333,78.03125,120.092275)"/>
<path style=" stroke:none;fill-rule:nonzero;fill:rgb(0%,0%,0%);fill-opacity:1;" d="M 29.25 120.425781 L 37.597656 120.425781 L 37.597656 121.53125 L 29.25 121.53125 Z M 29.25 120.425781 "/>
<path style=" stroke:none;fill-rule:nonzero;fill:rgb(0%,0%,0%);fill-opacity:1;" d="M 43.246094 116.304688 C 42.570312 116.304688 42.0625 116.636719 41.71875 117.304688 C 41.378906 117.96875 41.210938 118.96875 41.210938 120.308594 C 41.210938 121.640625 41.378906 122.640625 41.71875 123.304688 C 42.0625 123.972656 42.570312 124.304688 43.246094 124.304688 C 43.929688 124.304688 44.441406 123.972656 44.78125 123.304688 C 45.121094 122.640625 45.292969 121.640625 45.292969 120.308594 C 45.292969 118.96875 45.121094 117.96875 44.78125 117.304688 C 44.441406 116.636719 43.929688 116.304688 43.246094 116.304688 Z M 43.246094 115.261719 C 44.335938 115.261719 45.167969 115.691406 45.746094 116.554688 C 46.320312 117.417969 46.605469 118.667969 46.605469 120.308594 C 46.605469 121.945312 46.320312 123.191406 45.746094 124.054688 C 45.167969 124.917969 44.335938 125.347656 43.246094 125.347656 C 42.15625 125.347656 41.324219 124.917969 40.75 124.054688 C 40.175781 123.191406 39.886719 121.945312 39.886719 120.308594 C 39.886719 118.667969 40.175781 117.417969 40.75 116.554688 C 41.324219 115.691406 42.15625 115.261719 43.246094 115.261719 Z M 43.246094 115.261719 "/>
<path style=" stroke:none;fill-rule:nonzero;fill:rgb(0%,0%,0%);fill-opacity:1;" d="M 48.917969 123.503906 L 50.292969 123.503906 L 50.292969 125.15625 L 48.917969 125.15625 Z M 48.917969 123.503906 "/>
<path style=" stroke:none;fill-rule:nonzero;fill:rgb(0%,0%,0%);fill-opacity:1;" d="M 52.824219 115.4375 L 59.074219 115.4375 L 59.074219 115.996094 L 55.546875 125.15625 L 54.171875 125.15625 L 57.492188 116.546875 L 52.824219 116.546875 Z M 52.824219 115.4375 "/>
<path style=" stroke:none;fill-rule:nonzero;fill:rgb(0%,0%,0%);fill-opacity:1;" d="M 61.652344 115.4375 L 66.816406 115.4375 L 66.816406 116.546875 L 62.859375 116.546875 L 62.859375 118.925781 C 63.046875 118.863281 63.238281 118.8125 63.429688 118.78125 C 63.621094 118.75 63.8125 118.734375 64.003906 118.734375 C 65.089844 118.734375 65.945312 119.03125 66.582031 119.625 C 67.214844 120.21875 67.53125 121.023438 67.53125 122.039062 C 67.53125 123.085938 67.207031 123.898438 66.554688 124.480469 C 65.902344 125.058594 64.984375 125.347656 63.800781 125.347656 C 63.394531 125.347656 62.976562 125.3125 62.554688 125.242188 C 62.132812 125.175781 61.695312 125.070312 61.242188 124.929688 L 61.242188 123.609375 C 61.632812 123.820312 62.035156 123.980469 62.453125 124.082031 C 62.871094 124.1875 63.308594 124.238281 63.773438 124.238281 C 64.527344 124.238281 65.121094 124.042969 65.558594 123.648438 C 65.996094 123.253906 66.214844 122.71875 66.214844 122.039062 C 66.214844 121.363281 65.996094 120.828125 65.558594 120.433594 C 65.121094 120.035156 64.527344 119.839844 63.773438 119.839844 C 63.421875 119.839844 63.070312 119.878906 62.722656 119.957031 C 62.375 120.035156 62.015625 120.15625 61.652344 120.320312 Z M 61.652344 115.4375 "/>
<g clip-path="url(#clip9)" clip-rule="nonzero">
<path style="fill:none;stroke-width:0.8;stroke-linecap:square;stroke-linejoin:round;stroke:rgb(69.01961%,69.01961%,69.01961%);stroke-opacity:1;stroke-miterlimit:4;" d="M 58.523438 64.505859 L 253.822266 64.505859 " transform="matrix(1.333333,0,0,1.333333,0,0)"/>
</g>
<path style="fill:none;stroke-width:0.8;stroke-linecap:butt;stroke-linejoin:round;stroke:rgb(0%,0%,0%);stroke-opacity:1;stroke-miterlimit:4;" d="M 0 0.00063324 L -3.500977 0.00063324 " transform="matrix(1.333333,0,0,1.333333,78.03125,86.006968)"/>
<path style=" stroke:none;fill-rule:nonzero;fill:rgb(0%,0%,0%);fill-opacity:1;" d="M 29.25 86.339844 L 37.597656 86.339844 L 37.597656 87.445312 L 29.25 87.445312 Z M 29.25 86.339844 "/>
<path style=" stroke:none;fill-rule:nonzero;fill:rgb(0%,0%,0%);fill-opacity:1;" d="M 43.246094 82.21875 C 42.570312 82.21875 42.0625 82.550781 41.71875 83.21875 C 41.378906 83.882812 41.210938 84.886719 41.210938 86.222656 C 41.210938 87.554688 41.378906 88.554688 41.71875 89.21875 C 42.0625 89.886719 42.570312 90.21875 43.246094 90.21875 C 43.929688 90.21875 44.441406 89.886719 44.78125 89.21875 C 45.121094 88.554688 45.292969 87.554688 45.292969 86.222656 C 45.292969 84.886719 45.121094 83.882812 44.78125 83.21875 C 44.441406 82.550781 43.929688 82.21875 43.246094 82.21875 Z M 43.246094 81.175781 C 44.335938 81.175781 45.167969 81.609375 45.746094 82.46875 C 46.320312 83.332031 46.605469 84.582031 46.605469 86.222656 C 46.605469 87.859375 46.320312 89.109375 45.746094 89.96875 C 45.167969 90.832031 44.335938 91.261719 43.246094 91.261719 C 42.15625 91.261719 41.324219 90.832031 40.75 89.96875 C 40.175781 89.109375 39.886719 87.859375 39.886719 86.222656 C 39.886719 84.582031 40.175781 83.332031 40.75 82.46875 C 41.324219 81.609375 42.15625 81.175781 43.246094 81.175781 Z M 43.246094 81.175781 "/>
<path style=" stroke:none;fill-rule:nonzero;fill:rgb(0%,0%,0%);fill-opacity:1;" d="M 48.917969 89.417969 L 50.292969 89.417969 L 50.292969 91.074219 L 48.917969 91.074219 Z M 48.917969 89.417969 "/>
<path style=" stroke:none;fill-rule:nonzero;fill:rgb(0%,0%,0%);fill-opacity:1;" d="M 53.171875 81.351562 L 58.332031 81.351562 L 58.332031 82.460938 L 54.375 82.460938 L 54.375 84.839844 C 54.566406 84.777344 54.753906 84.726562 54.945312 84.695312 C 55.136719 84.664062 55.328125 84.648438 55.519531 84.648438 C 56.605469 84.648438 57.464844 84.945312 58.097656 85.539062 C 58.730469 86.132812 59.050781 86.9375 59.050781 87.953125 C 59.050781 89 58.722656 89.8125 58.074219 90.394531 C 57.421875 90.972656 56.503906 91.261719 55.316406 91.261719 C 54.910156 91.261719 54.492188 91.226562 54.070312 91.15625 C 53.648438 91.089844 53.210938 90.984375 52.761719 90.84375 L 52.761719 89.523438 C 53.148438 89.734375 53.554688 89.894531 53.96875 89.996094 C 54.386719 90.101562 54.828125 90.152344 55.292969 90.152344 C 56.042969 90.152344 56.636719 89.957031 57.074219 89.5625 C 57.511719 89.167969 57.734375 88.632812 57.734375 87.953125 C 57.734375 87.277344 57.511719 86.742188 57.074219 86.347656 C 56.636719 85.953125 56.042969 85.753906 55.292969 85.753906 C 54.941406 85.753906 54.589844 85.792969 54.238281 85.871094 C 53.890625 85.949219 53.535156 86.070312 53.171875 86.234375 Z M 53.171875 81.351562 "/>
<path style=" stroke:none;fill-rule:nonzero;fill:rgb(0%,0%,0%);fill-opacity:1;" d="M 64.453125 82.21875 C 63.773438 82.21875 63.265625 82.550781 62.925781 83.21875 C 62.582031 83.882812 62.414062 84.886719 62.414062 86.222656 C 62.414062 87.554688 62.582031 88.554688 62.925781 89.21875 C 63.265625 89.886719 63.773438 90.21875 64.453125 90.21875 C 65.132812 90.21875 65.644531 89.886719 65.984375 89.21875 C 66.328125 88.554688 66.496094 87.554688 66.496094 86.222656 C 66.496094 84.886719 66.328125 83.882812 65.984375 83.21875 C 65.644531 82.550781 65.132812 82.21875 64.453125 82.21875 Z M 64.453125 81.175781 C 65.542969 81.175781 66.375 81.609375 66.949219 82.46875 C 67.523438 83.332031 67.8125 84.582031 67.8125 86.222656 C 67.8125 87.859375 67.523438 89.109375 66.949219 89.96875 C 66.375 90.832031 65.542969 91.261719 64.453125 91.261719 C 63.363281 91.261719 62.53125 90.832031 61.957031 89.96875 C 61.378906 89.109375 61.09375 87.859375 61.09375 86.222656 C 61.09375 84.582031 61.378906 83.332031 61.957031 82.46875 C 62.53125 81.609375 63.363281 81.175781 64.453125 81.175781 Z M 64.453125 81.175781 "/>
<g clip-path="url(#clip10)" clip-rule="nonzero">
<path style="fill:none;stroke-width:0.8;stroke-linecap:square;stroke-linejoin:round;stroke:rgb(69.01961%,69.01961%,69.01961%);stroke-opacity:1;stroke-miterlimit:4;" d="M 58.523438 38.941406 L 253.822266 38.941406 " transform="matrix(1.333333,0,0,1.333333,0,0)"/>
</g>
<path style="fill:none;stroke-width:0.8;stroke-linecap:butt;stroke-linejoin:round;stroke:rgb(0%,0%,0%);stroke-opacity:1;stroke-miterlimit:4;" d="M 0 0.000156403 L -3.500977 0.000156403 " transform="matrix(1.333333,0,0,1.333333,78.03125,51.921666)"/>
<path style=" stroke:none;fill-rule:nonzero;fill:rgb(0%,0%,0%);fill-opacity:1;" d="M 29.25 52.253906 L 37.597656 52.253906 L 37.597656 53.359375 L 29.25 53.359375 Z M 29.25 52.253906 "/>
<path style=" stroke:none;fill-rule:nonzero;fill:rgb(0%,0%,0%);fill-opacity:1;" d="M 43.246094 48.132812 C 42.570312 48.132812 42.0625 48.464844 41.71875 49.132812 C 41.378906 49.796875 41.210938 50.800781 41.210938 52.136719 C 41.210938 53.46875 41.378906 54.46875 41.71875 55.136719 C 42.0625 55.800781 42.570312 56.136719 43.246094 56.136719 C 43.929688 56.136719 44.441406 55.800781 44.78125 55.136719 C 45.121094 54.46875 45.292969 53.46875 45.292969 52.136719 C 45.292969 50.800781 45.121094 49.796875 44.78125 49.132812 C 44.441406 48.464844 43.929688 48.132812 43.246094 48.132812 Z M 43.246094 47.089844 C 44.335938 47.089844 45.167969 47.523438 45.746094 48.386719 C 46.320312 49.246094 46.605469 50.496094 46.605469 52.136719 C 46.605469 53.773438 46.320312 55.023438 45.746094 55.886719 C 45.167969 56.746094 44.335938 57.175781 43.246094 57.175781 C 42.15625 57.175781 41.324219 56.746094 40.75 55.886719 C 40.175781 55.023438 39.886719 53.773438 39.886719 52.136719 C 39.886719 50.496094 40.175781 49.246094 40.75 48.386719 C 41.324219 47.523438 42.15625 47.089844 43.246094 47.089844 Z M 43.246094 47.089844 "/>
<path style=" stroke:none;fill-rule:nonzero;fill:rgb(0%,0%,0%);fill-opacity:1;" d="M 48.917969 55.332031 L 50.292969 55.332031 L 50.292969 56.988281 L 48.917969 56.988281 Z M 48.917969 55.332031 "/>
<path style=" stroke:none;fill-rule:nonzero;fill:rgb(0%,0%,0%);fill-opacity:1;" d="M 54.289062 55.882812 L 58.878906 55.882812 L 58.878906 56.988281 L 52.707031 56.988281 L 52.707031 55.882812 C 53.207031 55.363281 53.886719 54.671875 54.746094 53.800781 C 55.609375 52.929688 56.152344 52.371094 56.371094 52.117188 C 56.792969 51.644531 57.085938 51.246094 57.253906 50.917969 C 57.421875 50.589844 57.503906 50.265625 57.503906 49.949219 C 57.503906 49.433594 57.324219 49.011719 56.960938 48.6875 C 56.597656 48.359375 56.128906 48.199219 55.546875 48.199219 C 55.132812 48.199219 54.699219 48.269531 54.238281 48.414062 C 53.78125 48.554688 53.292969 48.773438 52.773438 49.0625 L 52.773438 47.734375 C 53.300781 47.523438 53.796875 47.363281 54.253906 47.253906 C 54.71875 47.144531 55.136719 47.089844 55.519531 47.089844 C 56.527344 47.089844 57.328125 47.34375 57.929688 47.847656 C 58.527344 48.351562 58.828125 49.023438 58.828125 49.863281 C 58.828125 50.265625 58.75 50.644531 58.601562 51 C 58.453125 51.359375 58.179688 51.78125 57.785156 52.265625 C 57.675781 52.394531 57.332031 52.757812 56.75 53.359375 C 56.167969 53.960938 55.347656 54.800781 54.289062 55.882812 Z M 54.289062 55.882812 "/>
<path style=" stroke:none;fill-rule:nonzero;fill:rgb(0%,0%,0%);fill-opacity:1;" d="M 61.652344 47.265625 L 66.816406 47.265625 L 66.816406 48.375 L 62.859375 48.375 L 62.859375 50.757812 C 63.046875 50.691406 63.238281 50.640625 63.429688 50.609375 C 63.621094 50.578125 63.8125 50.5625 64.003906 50.5625 C 65.089844 50.5625 65.945312 50.859375 66.582031 51.453125 C 67.214844 52.046875 67.53125 52.851562 67.53125 53.867188 C 67.53125 54.914062 67.207031 55.726562 66.554688 56.308594 C 65.902344 56.886719 64.984375 57.175781 63.800781 57.175781 C 63.394531 57.175781 62.976562 57.140625 62.554688 57.074219 C 62.132812 57.003906 61.695312 56.898438 61.242188 56.761719 L 61.242188 55.4375 C 61.632812 55.648438 62.035156 55.808594 62.453125 55.914062 C 62.871094 56.015625 63.308594 56.070312 63.773438 56.070312 C 64.527344 56.070312 65.121094 55.871094 65.558594 55.476562 C 65.996094 55.082031 66.214844 54.546875 66.214844 53.867188 C 66.214844 53.191406 65.996094 52.65625 65.558594 52.261719 C 65.121094 51.867188 64.527344 51.667969 63.773438 51.667969 C 63.421875 51.667969 63.070312 51.707031 62.722656 51.785156 C 62.375 51.863281 62.015625 51.984375 61.652344 52.148438 Z M 61.652344 47.265625 "/>
<g clip-path="url(#clip11)" clip-rule="nonzero">
<path style="fill:none;stroke-width:0.8;stroke-linecap:square;stroke-linejoin:round;stroke:rgb(69.01961%,69.01961%,69.01961%);stroke-opacity:1;stroke-miterlimit:4;" d="M 58.523438 13.376953 L 253.822266 13.376953 " transform="matrix(1.333333,0,0,1.333333,0,0)"/>
</g>
<path style="fill:none;stroke-width:0.8;stroke-linecap:butt;stroke-linejoin:round;stroke:rgb(0%,0%,0%);stroke-opacity:1;stroke-miterlimit:4;" d="M 0 -0.000319481 L -3.500977 -0.000319481 " transform="matrix(1.333333,0,0,1.333333,78.03125,17.836363)"/>
<path style=" stroke:none;fill-rule:nonzero;fill:rgb(0%,0%,0%);fill-opacity:1;" d="M 43.246094 14.046875 C 42.570312 14.046875 42.0625 14.382812 41.722656 15.046875 C 41.378906 15.714844 41.210938 16.714844 41.210938 18.050781 C 41.210938 19.382812 41.378906 20.382812 41.722656 21.050781 C 42.0625 21.714844 42.570312 22.050781 43.246094 22.050781 C 43.929688 22.050781 44.441406 21.714844 44.78125 21.050781 C 45.121094 20.382812 45.292969 19.382812 45.292969 18.050781 C 45.292969 16.714844 45.121094 15.714844 44.78125 15.046875 C 44.441406 14.382812 43.929688 14.046875 43.246094 14.046875 Z M 43.246094 13.007812 C 44.339844 13.007812 45.171875 13.4375 45.746094 14.300781 C 46.320312 15.160156 46.609375 16.410156 46.609375 18.050781 C 46.609375 19.6875 46.320312 20.9375 45.746094 21.800781 C 45.171875 22.660156 44.339844 23.089844 43.246094 23.089844 C 42.160156 23.089844 41.328125 22.660156 40.753906 21.800781 C 40.175781 20.9375 39.890625 19.6875 39.890625 18.050781 C 39.890625 16.410156 40.175781 15.160156 40.753906 14.300781 C 41.328125 13.4375 42.160156 13.007812 43.246094 13.007812 Z M 43.246094 13.007812 "/>
<path style=" stroke:none;fill-rule:nonzero;fill:rgb(0%,0%,0%);fill-opacity:1;" d="M 48.917969 21.246094 L 50.292969 21.246094 L 50.292969 22.902344 L 48.917969 22.902344 Z M 48.917969 21.246094 "/>
<path style=" stroke:none;fill-rule:nonzero;fill:rgb(0%,0%,0%);fill-opacity:1;" d="M 55.96875 14.046875 C 55.292969 14.046875 54.785156 14.382812 54.441406 15.046875 C 54.101562 15.714844 53.933594 16.714844 53.933594 18.050781 C 53.933594 19.382812 54.101562 20.382812 54.441406 21.050781 C 54.785156 21.714844 55.292969 22.050781 55.96875 22.050781 C 56.652344 22.050781 57.164062 21.714844 57.503906 21.050781 C 57.84375 20.382812 58.015625 19.382812 58.015625 18.050781 C 58.015625 16.714844 57.84375 15.714844 57.503906 15.046875 C 57.164062 14.382812 56.652344 14.046875 55.96875 14.046875 Z M 55.96875 13.007812 C 57.058594 13.007812 57.890625 13.4375 58.46875 14.300781 C 59.042969 15.160156 59.328125 16.410156 59.328125 18.050781 C 59.328125 19.6875 59.042969 20.9375 58.46875 21.800781 C 57.890625 22.660156 57.058594 23.089844 55.96875 23.089844 C 54.878906 23.089844 54.046875 22.660156 53.472656 21.800781 C 52.898438 20.9375 52.609375 19.6875 52.609375 18.050781 C 52.609375 16.410156 52.898438 15.160156 53.472656 14.300781 C 54.046875 13.4375 54.878906 13.007812 55.96875 13.007812 Z M 55.96875 13.007812 "/>
<path style=" stroke:none;fill-rule:nonzero;fill:rgb(0%,0%,0%);fill-opacity:1;" d="M 64.453125 14.046875 C 63.777344 14.046875 63.265625 14.382812 62.925781 15.046875 C 62.585938 15.714844 62.414062 16.714844 62.414062 18.050781 C 62.414062 19.382812 62.585938 20.382812 62.925781 21.050781 C 63.265625 21.714844 63.777344 22.050781 64.453125 22.050781 C 65.132812 22.050781 65.644531 21.714844 65.984375 21.050781 C 66.328125 20.382812 66.5 19.382812 66.5 18.050781 C 66.5 16.714844 66.328125 15.714844 65.984375 15.046875 C 65.644531 14.382812 65.132812 14.046875 64.453125 14.046875 Z M 64.453125 13.007812 C 65.542969 13.007812 66.375 13.4375 66.949219 14.300781 C 67.523438 15.160156 67.8125 16.410156 67.8125 18.050781 C 67.8125 19.6875 67.523438 20.9375 66.949219 21.800781 C 66.375 22.660156 65.542969 23.089844 64.453125 23.089844 C 63.363281 23.089844 62.53125 22.660156 61.957031 21.800781 C 61.382812 20.9375 61.09375 19.6875 61.09375 18.050781 C 61.09375 16.410156 61.382812 15.160156 61.957031 14.300781 C 62.53125 13.4375 63.363281 13.007812 64.453125 13.007812 Z M 64.453125 13.007812 "/>
<path style=" stroke:none;fill-rule:nonzero;fill:rgb(0%,0%,0%);fill-opacity:1;" d="M 13.558594 106.644531 C 13.480469 106.78125 13.421875 106.925781 13.386719 107.085938 C 13.351562 107.242188 13.332031 107.417969 13.332031 107.605469 C 13.332031 108.285156 13.550781 108.804688 13.992188 109.167969 C 14.433594 109.53125 15.066406 109.710938 15.890625 109.710938 L 19.730469 109.710938 L 19.730469 110.914062 L 12.441406 110.914062 L 12.441406 109.710938 L 13.574219 109.710938 C 13.128906 109.457031 12.800781 109.132812 12.585938 108.726562 C 12.371094 108.324219 12.265625 107.832031 12.265625 107.253906 C 12.265625 107.171875 12.269531 107.082031 12.28125 106.980469 C 12.289062 106.882812 12.308594 106.773438 12.328125 106.652344 Z M 13.558594 106.644531 "/>
<path style=" stroke:none;fill-rule:nonzero;fill:rgb(0%,0%,0%);fill-opacity:1;" d="M 12.441406 105.386719 L 12.441406 104.191406 L 19.730469 104.191406 L 19.730469 105.386719 Z M 9.601562 105.386719 L 9.601562 104.191406 L 11.117188 104.191406 L 11.117188 105.386719 Z M 9.601562 105.386719 "/>
<path style=" stroke:none;fill-rule:nonzero;fill:rgb(0%,0%,0%);fill-opacity:1;" d="M 12.652344 97.035156 L 13.789062 97.035156 C 13.613281 97.375 13.484375 97.722656 13.398438 98.089844 C 13.308594 98.453125 13.265625 98.832031 13.265625 99.222656 C 13.265625 99.816406 13.359375 100.261719 13.539062 100.5625 C 13.722656 100.859375 13.996094 101.007812 14.359375 101.007812 C 14.636719 101.007812 14.855469 100.898438 15.015625 100.6875 C 15.171875 100.476562 15.324219 100.046875 15.464844 99.40625 L 15.558594 98.992188 C 15.742188 98.144531 15.996094 97.539062 16.328125 97.179688 C 16.660156 96.824219 17.125 96.644531 17.71875 96.644531 C 18.398438 96.644531 18.933594 96.910156 19.328125 97.449219 C 19.722656 97.984375 19.921875 98.722656 19.921875 99.660156 C 19.921875 100.050781 19.882812 100.457031 19.804688 100.878906 C 19.730469 101.304688 19.617188 101.75 19.464844 102.21875 L 18.226562 102.21875 C 18.457031 101.773438 18.628906 101.335938 18.746094 100.910156 C 18.859375 100.480469 18.917969 100.054688 18.917969 99.632812 C 18.917969 99.066406 18.820312 98.632812 18.628906 98.332031 C 18.433594 98.027344 18.160156 97.875 17.808594 97.875 C 17.484375 97.875 17.234375 97.984375 17.0625 98.203125 C 16.890625 98.421875 16.722656 98.902344 16.558594 99.644531 L 16.460938 100.0625 C 16.308594 100.804688 16.066406 101.339844 15.742188 101.671875 C 15.421875 102 14.976562 102.164062 14.414062 102.164062 C 13.726562 102.164062 13.195312 101.921875 12.824219 101.4375 C 12.453125 100.949219 12.265625 100.257812 12.265625 99.363281 C 12.265625 98.921875 12.296875 98.507812 12.363281 98.117188 C 12.425781 97.726562 12.523438 97.363281 12.652344 97.035156 Z M 12.652344 97.035156 "/>
<path style=" stroke:none;fill-rule:nonzero;fill:rgb(0%,0%,0%);fill-opacity:1;" d="M 9.601562 94.78125 L 9.601562 93.578125 L 15.582031 93.578125 L 12.441406 90.003906 L 12.441406 88.472656 L 15.851562 92.339844 L 19.730469 88.308594 L 19.730469 89.871094 L 16.171875 93.578125 L 19.730469 93.578125 L 19.730469 94.78125 Z M 9.601562 94.78125 "/>
<path style="fill:none;stroke-width:1.5;stroke-linecap:square;stroke-linejoin:round;stroke:rgb(12.156863%,46.666667%,70.588237%);stroke-opacity:1;stroke-miterlimit:4;" d="M 67.400391 13.376953 L 69.193359 15.014648 L 70.986328 16.716797 L 72.782227 18.477539 L 74.575195 20.296875 L 76.368164 22.174805 L 78.161133 24.108398 L 79.954102 26.091797 L 81.74707 28.12793 L 83.540039 30.208008 L 85.335938 32.337891 L 87.128906 34.505859 L 88.921875 36.714844 L 90.714844 38.961914 L 92.507812 41.241211 L 94.300781 43.552734 L 96.09375 45.890625 L 97.889648 48.251953 L 99.682617 50.636719 L 101.475586 53.036133 L 103.268555 55.450195 L 105.061523 57.875977 L 106.854492 60.307617 L 108.647461 62.742188 L 110.443359 65.176758 L 112.236328 67.605469 L 114.029297 70.02832 L 115.822266 72.439453 L 117.615234 74.833008 L 119.408203 77.208984 L 121.201172 79.558594 L 122.99707 81.881836 L 124.790039 84.172852 L 126.583008 86.431641 L 128.375977 88.646484 L 130.168945 90.820312 L 131.961914 92.947266 L 133.754883 95.024414 L 135.550781 97.042969 L 137.34375 99.005859 L 139.136719 100.904297 L 140.929688 102.735352 L 142.722656 104.496094 L 144.515625 106.183594 L 146.308594 107.794922 L 148.104492 109.324219 L 149.897461 110.768555 L 151.69043 112.125 L 153.483398 113.390625 L 155.276367 114.55957 L 157.069336 115.631836 L 158.862305 116.604492 L 160.658203 117.47168 L 162.451172 118.233398 L 164.244141 118.883789 L 166.037109 119.422852 L 167.830078 119.847656 L 169.623047 120.155273 L 171.416016 120.342773 L 173.211914 120.410156 L 175.004883 120.354492 L 176.797852 120.169922 L 178.59082 119.862305 L 180.383789 119.422852 L 182.176758 118.854492 L 183.969727 118.154297 L 185.765625 117.322266 L 187.558594 116.355469 L 189.351562 115.256836 L 191.144531 114.020508 L 192.9375 112.649414 L 194.730469 111.143555 L 196.523438 109.5 L 198.319336 107.72168 L 200.112305 105.808594 L 201.905273 103.760742 L 203.698242 101.575195 L 205.491211 99.257812 L 207.28418 96.808594 L 209.077148 94.224609 L 210.873047 91.511719 L 212.666016 88.669922 L 214.458984 85.702148 L 216.251953 82.608398 L 218.044922 79.388672 L 219.837891 76.048828 L 221.630859 72.588867 L 223.426758 69.014648 L 225.219727 65.323242 L 227.012695 61.523438 L 228.805664 57.615234 L 230.598633 53.601562 L 232.391602 49.488281 L 234.18457 45.275391 L 235.980469 40.96875 L 237.773438 36.571289 L 239.566406 32.088867 L 241.359375 27.524414 L 243.152344 22.880859 L 244.945312 18.164062 " transform="matrix(1.333333,0,0,1.333333,0,0)"/>
<path style="fill:none;stroke-width:1.5;stroke-linecap:butt;stroke-linejoin:round;stroke:rgb(74.901962%,0%,74.901962%);stroke-opacity:1;stroke-dasharray:5.55,2.4;stroke-miterlimit:4;" d="M 67.400391 13.376953 L 69.193359 18.213867 L 70.986328 23.036133 L 72.782227 27.761719 L 74.575195 32.320312 L 76.368164 36.635742 L 78.161133 40.652344 L 79.954102 44.314453 L 81.74707 47.578125 L 83.540039 50.408203 L 85.335938 52.787109 L 87.128906 54.706055 L 88.921875 56.165039 L 90.714844 57.18457 L 92.507812 57.788086 L 94.300781 58.013672 L 96.09375 57.911133 L 97.889648 57.536133 L 99.682617 56.956055 L 101.475586 56.235352 L 103.268555 55.450195 L 105.061523 54.676758 L 106.854492 53.988281 L 108.647461 53.458008 L 110.443359 53.15625 L 112.236328 53.144531 L 114.029297 53.484375 L 115.822266 54.216797 L 117.615234 55.382812 L 119.408203 57.008789 L 121.201172 59.106445 L 122.99707 61.681641 L 124.790039 64.722656 L 126.583008 68.208984 L 128.375977 72.102539 L 130.168945 76.359375 L 131.961914 80.926758 L 133.754883 85.737305 L 135.550781 90.723633 L 137.34375 95.806641 L 139.136719 100.904297 L 140.929688 105.93457 L 142.722656 110.818359 L 144.515625 115.470703 L 146.308594 119.81543 L 148.104492 123.785156 L 149.897461 127.31543 L 151.69043 130.347656 L 153.483398 132.84082 L 155.276367 134.759766 L 157.069336 136.083984 L 158.862305 136.804688 L 160.658203 136.921875 L 162.451172 136.456055 L 164.244141 135.430664 L 166.037109 133.883789 L 167.830078 131.868164 L 169.623047 129.439453 L 171.416016 126.665039 L 173.211914 123.609375 L 175.004883 120.354492 L 176.797852 116.970703 L 178.59082 113.542969 L 180.383789 110.138672 L 182.176758 106.833984 L 183.969727 103.693359 L 185.765625 100.775391 L 187.558594 98.132812 L 189.351562 95.806641 L 191.144531 93.820312 L 192.9375 92.197266 L 194.730469 90.943359 L 196.523438 90.049805 L 198.319336 89.499023 L 200.112305 89.261719 L 201.905273 89.299805 L 203.698242 89.554688 L 205.491211 89.973633 L 207.28418 90.489258 L 209.077148 91.025391 L 210.873047 91.511719 L 212.666016 91.869141 L 214.458984 92.021484 L 216.251953 91.892578 L 218.044922 91.40918 L 219.837891 90.509766 L 221.630859 89.135742 L 223.426758 87.237305 L 225.219727 84.773438 L 227.012695 81.723633 L 228.805664 78.067383 L 230.598633 73.801758 L 232.391602 68.938477 L 234.18457 63.498047 L 235.980469 57.515625 L 237.773438 51.032227 L 239.566406 44.109375 L 241.359375 36.808594 L 243.152344 29.200195 L 244.945312 21.363281 " transform="matrix(1.333333,0,0,1.333333,0,0)"/>
<path style="fill:none;stroke-width:0.8;stroke-linecap:square;stroke-linejoin:miter;stroke:rgb(0%,0%,0%);stroke-opacity:1;stroke-miterlimit:4;" d="M 58.523438 143.100586 L 58.523438 7.201172 " transform="matrix(1.333333,0,0,1.333333,0,0)"/>
<path style="fill:none;stroke-width:0.8;stroke-linecap:square;stroke-linejoin:miter;stroke:rgb(0%,0%,0%);stroke-opacity:1;stroke-miterlimit:4;" d="M 253.822266 143.100586 L 253.822266 7.201172 " transform="matrix(1.333333,0,0,1.333333,0,0)"/>
<path style="fill:none;stroke-width:0.8;stroke-linecap:square;stroke-linejoin:miter;stroke:rgb(0%,0%,0%);stroke-opacity:1;stroke-miterlimit:4;" d="M 58.523438 143.100586 L 253.822266 143.100586 " transform="matrix(1.333333,0,0,1.333333,0,0)"/>
<path style="fill:none;stroke-width:0.8;stroke-linecap:square;stroke-linejoin:miter;stroke:rgb(0%,0%,0%);stroke-opacity:1;stroke-miterlimit:4;" d="M 58.523438 7.201172 L 253.822266 7.201172 " transform="matrix(1.333333,0,0,1.333333,0,0)"/>
<path style="fill:none;stroke-width:1;stroke-linecap:round;stroke-linejoin:round;stroke:rgb(0%,0%,0%);stroke-opacity:1;stroke-miterlimit:4;" d="M 138.685547 129.981445 C 144.181641 131.803711 149.323242 133.511719 154.110352 135.102539 " transform="matrix(1.333333,0,0,1.333333,0,0)"/>
<path style="fill:none;stroke-width:1;stroke-linecap:round;stroke-linejoin:round;stroke:rgb(0%,0%,0%);stroke-opacity:1;stroke-miterlimit:4;" d="M 150.943359 131.944336 L 154.110352 135.102539 L 149.683594 135.738281 " transform="matrix(1.333333,0,0,1.333333,0,0)"/>
<path style=" stroke:none;fill-rule:nonzero;fill:rgb(0%,0%,0%);fill-opacity:1;" d="M 96.800781 146.988281 C 97.101562 146.449219 97.460938 146.054688 97.875 145.796875 C 98.292969 145.542969 98.78125 145.414062 99.347656 145.414062 C 100.105469 145.414062 100.691406 145.679688 101.105469 146.210938 C 101.519531 146.742188 101.722656 147.5 101.722656 148.480469 L 101.722656 152.882812 L 100.519531 152.882812 L 100.519531 148.519531 C 100.519531 147.820312 100.394531 147.300781 100.148438 146.964844 C 99.898438 146.625 99.523438 146.457031 99.015625 146.457031 C 98.394531 146.457031 97.902344 146.664062 97.542969 147.074219 C 97.183594 147.484375 97.003906 148.046875 97.003906 148.761719 L 97.003906 152.882812 L 95.800781 152.882812 L 95.800781 148.519531 C 95.800781 147.816406 95.675781 147.296875 95.429688 146.960938 C 95.179688 146.625 94.800781 146.457031 94.28125 146.457031 C 93.667969 146.457031 93.183594 146.664062 92.820312 147.078125 C 92.460938 147.492188 92.28125 148.050781 92.28125 148.761719 L 92.28125 152.882812 L 91.078125 152.882812 L 91.078125 145.589844 L 92.28125 145.589844 L 92.28125 146.722656 C 92.554688 146.277344 92.882812 145.945312 93.265625 145.734375 C 93.648438 145.519531 94.101562 145.414062 94.625 145.414062 C 95.15625 145.414062 95.605469 145.550781 95.976562 145.820312 C 96.347656 146.085938 96.625 146.476562 96.800781 146.988281 Z M 96.800781 146.988281 "/>
<path style=" stroke:none;fill-rule:nonzero;fill:rgb(0%,0%,0%);fill-opacity:1;" d="M 104.113281 145.589844 L 105.308594 145.589844 L 105.308594 152.882812 L 104.113281 152.882812 Z M 104.113281 142.75 L 105.308594 142.75 L 105.308594 144.269531 L 104.113281 144.269531 Z M 104.113281 142.75 "/>
<path style=" stroke:none;fill-rule:nonzero;fill:rgb(0%,0%,0%);fill-opacity:1;" d="M 113.878906 148.480469 L 113.878906 152.882812 L 112.679688 152.882812 L 112.679688 148.519531 C 112.679688 147.828125 112.546875 147.3125 112.277344 146.972656 C 112.007812 146.628906 111.605469 146.457031 111.066406 146.457031 C 110.417969 146.457031 109.910156 146.664062 109.535156 147.074219 C 109.160156 147.484375 108.976562 148.046875 108.976562 148.761719 L 108.976562 152.882812 L 107.769531 152.882812 L 107.769531 145.589844 L 108.976562 145.589844 L 108.976562 146.722656 C 109.261719 146.285156 109.601562 145.957031 109.988281 145.738281 C 110.375 145.523438 110.824219 145.414062 111.332031 145.414062 C 112.171875 145.414062 112.804688 145.671875 113.234375 146.191406 C 113.664062 146.710938 113.878906 147.472656 113.878906 148.480469 Z M 113.878906 148.480469 "/>
<path style=" stroke:none;fill-rule:nonzero;fill:rgb(0%,0%,0%);fill-opacity:1;" d="M 123.332031 146.429688 C 122.6875 146.429688 122.179688 146.679688 121.808594 147.179688 C 121.433594 147.683594 121.246094 148.371094 121.246094 149.242188 C 121.246094 150.113281 121.433594 150.800781 121.804688 151.300781 C 122.175781 151.804688 122.683594 152.054688 123.332031 152.054688 C 123.96875 152.054688 124.476562 151.804688 124.847656 151.300781 C 125.21875 150.796875 125.40625 150.109375 125.40625 149.242188 C 125.40625 148.378906 125.21875 147.691406 124.847656 147.1875 C 124.476562 146.683594 123.96875 146.429688 123.332031 146.429688 Z M 123.332031 145.414062 C 124.371094 145.414062 125.191406 145.753906 125.785156 146.429688 C 126.378906 147.109375 126.679688 148.042969 126.679688 149.242188 C 126.679688 150.433594 126.378906 151.371094 125.785156 152.050781 C 125.191406 152.730469 124.371094 153.070312 123.332031 153.070312 C 122.285156 153.070312 121.464844 152.730469 120.871094 152.050781 C 120.28125 151.371094 119.984375 150.433594 119.984375 149.242188 C 119.984375 148.042969 120.28125 147.109375 120.871094 146.429688 C 121.464844 145.753906 122.285156 145.414062 123.332031 145.414062 Z M 123.332031 145.414062 "/>
<path style=" stroke:none;fill-rule:nonzero;fill:rgb(0%,0%,0%);fill-opacity:1;" d="M 132.355469 142.75 L 132.355469 143.746094 L 131.207031 143.746094 C 130.78125 143.746094 130.480469 143.835938 130.3125 144.007812 C 130.144531 144.183594 130.0625 144.496094 130.0625 144.945312 L 130.0625 145.589844 L 132.035156 145.589844 L 132.035156 146.519531 L 130.0625 146.519531 L 130.0625 152.882812 L 128.859375 152.882812 L 128.859375 146.519531 L 127.714844 146.519531 L 127.714844 145.589844 L 128.859375 145.589844 L 128.859375 145.082031 C 128.859375 144.269531 129.046875 143.679688 129.425781 143.308594 C 129.804688 142.9375 130.402344 142.75 131.222656 142.75 Z M 132.355469 142.75 "/>
<path style=" stroke:none;fill-rule:nonzero;fill:rgb(0%,0%,0%);fill-opacity:1;" d="M 97.363281 163.867188 L 97.363281 164.453125 L 91.851562 164.453125 C 91.90625 165.277344 92.15625 165.90625 92.597656 166.335938 C 93.042969 166.769531 93.664062 166.984375 94.457031 166.984375 C 94.917969 166.984375 95.363281 166.929688 95.792969 166.816406 C 96.226562 166.703125 96.65625 166.535156 97.082031 166.308594 L 97.082031 167.441406 C 96.652344 167.621094 96.210938 167.761719 95.757812 167.859375 C 95.308594 167.953125 94.851562 168 94.386719 168 C 93.222656 168 92.300781 167.664062 91.621094 166.988281 C 90.941406 166.308594 90.601562 165.390625 90.601562 164.238281 C 90.601562 163.042969 90.925781 162.097656 91.570312 161.398438 C 92.214844 160.695312 93.082031 160.34375 94.179688 160.34375 C 95.160156 160.34375 95.933594 160.660156 96.503906 161.292969 C 97.074219 161.921875 97.363281 162.78125 97.363281 163.867188 Z M 96.164062 163.515625 C 96.15625 162.859375 95.972656 162.335938 95.613281 161.945312 C 95.253906 161.554688 94.78125 161.359375 94.191406 161.359375 C 93.523438 161.359375 92.988281 161.546875 92.585938 161.925781 C 92.183594 162.304688 91.953125 162.835938 91.894531 163.523438 Z M 96.164062 163.515625 "/>
<path style=" stroke:none;fill-rule:nonzero;fill:rgb(0%,0%,0%);fill-opacity:1;" d="M 105.003906 161.921875 C 105.304688 161.382812 105.664062 160.984375 106.078125 160.726562 C 106.496094 160.472656 106.984375 160.34375 107.550781 160.34375 C 108.308594 160.34375 108.894531 160.609375 109.308594 161.144531 C 109.722656 161.671875 109.925781 162.429688 109.925781 163.410156 L 109.925781 167.8125 L 108.722656 167.8125 L 108.722656 163.449219 C 108.722656 162.75 108.597656 162.234375 108.351562 161.894531 C 108.101562 161.554688 107.726562 161.386719 107.21875 161.386719 C 106.597656 161.386719 106.105469 161.59375 105.746094 162.003906 C 105.386719 162.417969 105.207031 162.976562 105.207031 163.691406 L 105.207031 167.8125 L 104.003906 167.8125 L 104.003906 163.449219 C 104.003906 162.746094 103.878906 162.226562 103.632812 161.890625 C 103.382812 161.554688 103.003906 161.386719 102.484375 161.386719 C 101.871094 161.386719 101.386719 161.59375 101.023438 162.007812 C 100.664062 162.421875 100.484375 162.984375 100.484375 163.691406 L 100.484375 167.8125 L 99.28125 167.8125 L 99.28125 160.519531 L 100.484375 160.519531 L 100.484375 161.652344 C 100.757812 161.207031 101.085938 160.875 101.46875 160.664062 C 101.851562 160.453125 102.304688 160.34375 102.828125 160.34375 C 103.359375 160.34375 103.808594 160.480469 104.179688 160.75 C 104.550781 161.015625 104.828125 161.40625 105.003906 161.921875 Z M 105.003906 161.921875 "/>
<path style=" stroke:none;fill-rule:nonzero;fill:rgb(0%,0%,0%);fill-opacity:1;" d="M 113.472656 166.71875 L 113.472656 170.585938 L 112.269531 170.585938 L 112.269531 160.519531 L 113.472656 160.519531 L 113.472656 161.625 C 113.726562 161.191406 114.042969 160.871094 114.429688 160.660156 C 114.8125 160.449219 115.273438 160.34375 115.804688 160.34375 C 116.691406 160.34375 117.410156 160.695312 117.964844 161.398438 C 118.515625 162.101562 118.792969 163.027344 118.792969 164.171875 C 118.792969 165.316406 118.515625 166.242188 117.964844 166.945312 C 117.410156 167.648438 116.691406 168 115.804688 168 C 115.273438 168 114.8125 167.894531 114.429688 167.683594 C 114.042969 167.472656 113.726562 167.152344 113.472656 166.71875 Z M 117.550781 164.171875 C 117.550781 163.292969 117.371094 162.601562 117.007812 162.097656 C 116.644531 161.597656 116.148438 161.347656 115.511719 161.347656 C 114.878906 161.347656 114.378906 161.597656 114.015625 162.097656 C 113.65625 162.601562 113.472656 163.292969 113.472656 164.171875 C 113.472656 165.050781 113.65625 165.742188 114.015625 166.246094 C 114.378906 166.746094 114.878906 166.996094 115.511719 166.996094 C 116.148438 166.996094 116.644531 166.746094 117.007812 166.246094 C 117.371094 165.742188 117.550781 165.050781 117.550781 164.171875 Z M 117.550781 164.171875 "/>
<path style=" stroke:none;fill-rule:nonzero;fill:rgb(0%,0%,0%);fill-opacity:1;" d="M 120.777344 160.519531 L 121.976562 160.519531 L 121.976562 167.8125 L 120.777344 167.8125 Z M 120.777344 157.679688 L 121.976562 157.679688 L 121.976562 159.199219 L 120.777344 159.199219 Z M 120.777344 157.679688 "/>
<path style=" stroke:none;fill-rule:nonzero;fill:rgb(0%,0%,0%);fill-opacity:1;" d="M 128.707031 161.640625 C 128.574219 161.5625 128.425781 161.503906 128.269531 161.46875 C 128.109375 161.429688 127.9375 161.410156 127.746094 161.410156 C 127.066406 161.410156 126.546875 161.632812 126.183594 162.070312 C 125.824219 162.511719 125.640625 163.144531 125.640625 163.96875 L 125.640625 167.8125 L 124.4375 167.8125 L 124.4375 160.519531 L 125.640625 160.519531 L 125.640625 161.652344 C 125.894531 161.210938 126.222656 160.882812 126.625 160.667969 C 127.027344 160.453125 127.519531 160.34375 128.097656 160.34375 C 128.179688 160.34375 128.269531 160.351562 128.371094 160.363281 C 128.472656 160.371094 128.582031 160.386719 128.703125 160.410156 Z M 128.707031 161.640625 "/>
<path style=" stroke:none;fill-rule:nonzero;fill:rgb(0%,0%,0%);fill-opacity:1;" d="M 129.964844 160.519531 L 131.164062 160.519531 L 131.164062 167.8125 L 129.964844 167.8125 Z M 129.964844 157.679688 L 131.164062 157.679688 L 131.164062 159.199219 L 129.964844 159.199219 Z M 129.964844 157.679688 "/>
<path style=" stroke:none;fill-rule:nonzero;fill:rgb(0%,0%,0%);fill-opacity:1;" d="M 138.917969 160.800781 L 138.917969 161.921875 C 138.578125 161.734375 138.238281 161.59375 137.898438 161.5 C 137.558594 161.40625 137.214844 161.359375 136.867188 161.359375 C 136.089844 161.359375 135.484375 161.605469 135.054688 162.097656 C 134.625 162.589844 134.410156 163.28125 134.410156 164.171875 C 134.410156 165.0625 134.625 165.753906 135.054688 166.246094 C 135.484375 166.738281 136.089844 166.984375 136.867188 166.984375 C 137.214844 166.984375 137.558594 166.9375 137.898438 166.84375 C 138.238281 166.753906 138.578125 166.613281 138.917969 166.425781 L 138.917969 167.53125 C 138.582031 167.6875 138.234375 167.804688 137.878906 167.882812 C 137.519531 167.960938 137.140625 168 136.734375 168 C 135.636719 168 134.765625 167.65625 134.117188 166.964844 C 133.472656 166.277344 133.148438 165.34375 133.148438 164.171875 C 133.148438 162.984375 133.476562 162.046875 134.128906 161.367188 C 134.78125 160.6875 135.679688 160.34375 136.816406 160.34375 C 137.183594 160.34375 137.542969 160.382812 137.894531 160.460938 C 138.246094 160.535156 138.585938 160.648438 138.917969 160.800781 Z M 138.917969 160.800781 "/>
<path style=" stroke:none;fill-rule:nonzero;fill:rgb(0%,0%,0%);fill-opacity:1;" d="M 144.316406 164.148438 C 143.347656 164.148438 142.675781 164.257812 142.300781 164.476562 C 141.929688 164.699219 141.742188 165.078125 141.742188 165.613281 C 141.742188 166.035156 141.882812 166.375 142.164062 166.625 C 142.441406 166.871094 142.824219 166.996094 143.304688 166.996094 C 143.96875 166.996094 144.503906 166.761719 144.90625 166.289062 C 145.304688 165.820312 145.507812 165.195312 145.507812 164.414062 L 145.507812 164.148438 Z M 146.703125 163.652344 L 146.703125 167.8125 L 145.507812 167.8125 L 145.507812 166.707031 C 145.234375 167.148438 144.890625 167.472656 144.484375 167.683594 C 144.074219 167.894531 143.574219 168 142.984375 168 C 142.238281 168 141.644531 167.792969 141.203125 167.371094 C 140.765625 166.953125 140.542969 166.390625 140.542969 165.6875 C 140.542969 164.871094 140.816406 164.25 141.367188 163.835938 C 141.917969 163.417969 142.734375 163.210938 143.824219 163.210938 L 145.507812 163.210938 L 145.507812 163.089844 C 145.507812 162.539062 145.324219 162.113281 144.960938 161.8125 C 144.601562 161.511719 144.089844 161.359375 143.4375 161.359375 C 143.019531 161.359375 142.613281 161.410156 142.21875 161.507812 C 141.824219 161.609375 141.441406 161.757812 141.078125 161.960938 L 141.078125 160.851562 C 141.515625 160.683594 141.941406 160.554688 142.355469 160.472656 C 142.765625 160.386719 143.167969 160.34375 143.558594 160.34375 C 144.613281 160.34375 145.402344 160.617188 145.921875 161.164062 C 146.445312 161.710938 146.703125 162.539062 146.703125 163.652344 Z M 146.703125 163.652344 "/>
<path style=" stroke:none;fill-rule:nonzero;fill:rgb(0%,0%,0%);fill-opacity:1;" d="M 149.171875 157.679688 L 150.367188 157.679688 L 150.367188 167.8125 L 149.171875 167.8125 Z M 149.171875 157.679688 "/>
<path style=" stroke:none;fill-rule:nonzero;fill:rgb(0%,0%,0%);fill-opacity:1;" d="M 161.339844 161.640625 C 161.203125 161.5625 161.058594 161.503906 160.898438 161.46875 C 160.742188 161.429688 160.566406 161.410156 160.375 161.410156 C 159.699219 161.410156 159.179688 161.632812 158.816406 162.070312 C 158.453125 162.511719 158.273438 163.144531 158.273438 163.96875 L 158.273438 167.8125 L 157.066406 167.8125 L 157.066406 160.519531 L 158.273438 160.519531 L 158.273438 161.652344 C 158.523438 161.210938 158.851562 160.882812 159.253906 160.667969 C 159.660156 160.453125 160.148438 160.34375 160.726562 160.34375 C 160.808594 160.34375 160.902344 160.351562 161 160.363281 C 161.101562 160.371094 161.210938 160.386719 161.332031 160.410156 Z M 161.339844 161.640625 "/>
<path style=" stroke:none;fill-rule:nonzero;fill:rgb(0%,0%,0%);fill-opacity:1;" d="M 162.59375 160.519531 L 163.792969 160.519531 L 163.792969 167.8125 L 162.59375 167.8125 Z M 162.59375 157.679688 L 163.792969 157.679688 L 163.792969 159.199219 L 162.59375 159.199219 Z M 162.59375 157.679688 "/>
<path style=" stroke:none;fill-rule:nonzero;fill:rgb(0%,0%,0%);fill-opacity:1;" d="M 170.949219 160.734375 L 170.949219 161.867188 C 170.609375 161.695312 170.257812 161.566406 169.894531 161.476562 C 169.53125 161.390625 169.152344 161.347656 168.761719 161.347656 C 168.164062 161.347656 167.71875 161.4375 167.421875 161.621094 C 167.125 161.800781 166.976562 162.074219 166.976562 162.441406 C 166.976562 162.71875 167.082031 162.9375 167.296875 163.09375 C 167.507812 163.253906 167.9375 163.402344 168.578125 163.546875 L 168.988281 163.640625 C 169.839844 163.820312 170.445312 164.078125 170.800781 164.410156 C 171.160156 164.742188 171.339844 165.203125 171.339844 165.800781 C 171.339844 166.476562 171.070312 167.015625 170.535156 167.410156 C 170 167.804688 169.261719 168 168.324219 168 C 167.933594 168 167.527344 167.964844 167.105469 167.886719 C 166.679688 167.808594 166.234375 167.695312 165.765625 167.546875 L 165.765625 166.308594 C 166.210938 166.539062 166.644531 166.710938 167.074219 166.828125 C 167.503906 166.941406 167.929688 166.996094 168.351562 166.996094 C 168.914062 166.996094 169.347656 166.902344 169.652344 166.707031 C 169.957031 166.515625 170.109375 166.242188 170.109375 165.890625 C 170.109375 165.566406 170 165.316406 169.777344 165.144531 C 169.5625 164.96875 169.082031 164.800781 168.335938 164.640625 L 167.921875 164.542969 C 167.179688 164.386719 166.644531 164.148438 166.3125 163.824219 C 165.984375 163.5 165.820312 163.058594 165.820312 162.492188 C 165.820312 161.808594 166.0625 161.277344 166.546875 160.90625 C 167.035156 160.53125 167.722656 160.34375 168.617188 160.34375 C 169.058594 160.34375 169.476562 160.378906 169.867188 160.441406 C 170.257812 160.507812 170.617188 160.605469 170.949219 160.734375 Z M 170.949219 160.734375 "/>
<path style=" stroke:none;fill-rule:nonzero;fill:rgb(0%,0%,0%);fill-opacity:1;" d="M 173.199219 157.679688 L 174.40625 157.679688 L 174.40625 163.664062 L 177.980469 160.519531 L 179.507812 160.519531 L 175.640625 163.929688 L 179.671875 167.8125 L 178.109375 167.8125 L 174.40625 164.25 L 174.40625 167.8125 L 173.199219 167.8125 Z M 173.199219 157.679688 "/>
<path style="fill:none;stroke-width:1;stroke-linecap:round;stroke-linejoin:round;stroke:rgb(0%,0%,0%);stroke-opacity:1;stroke-miterlimit:4;" d="M 174.553711 70.587891 C 174.697266 86.639648 174.837891 102.322266 174.975586 117.629883 " transform="matrix(1.333333,0,0,1.333333,0,0)"/>
<path style="fill:none;stroke-width:1;stroke-linecap:round;stroke-linejoin:round;stroke:rgb(0%,0%,0%);stroke-opacity:1;stroke-miterlimit:4;" d="M 176.938477 113.610352 L 174.975586 117.629883 L 172.939453 113.648438 " transform="matrix(1.333333,0,0,1.333333,0,0)"/>
<path style=" stroke:none;fill-rule:nonzero;fill:rgb(0%,0%,0%);fill-opacity:1;" d="M 204.402344 80.117188 C 204.703125 79.578125 205.0625 79.179688 205.480469 78.921875 C 205.894531 78.667969 206.386719 78.539062 206.949219 78.539062 C 207.710938 78.539062 208.296875 78.804688 208.707031 79.339844 C 209.121094 79.867188 209.328125 80.625 209.328125 81.605469 L 209.328125 86.007812 L 208.121094 86.007812 L 208.121094 81.644531 C 208.121094 80.945312 208 80.429688 207.75 80.089844 C 207.503906 79.75 207.125 79.582031 206.617188 79.582031 C 205.996094 79.582031 205.507812 79.789062 205.144531 80.199219 C 204.785156 80.613281 204.605469 81.171875 204.605469 81.886719 L 204.605469 86.007812 L 203.402344 86.007812 L 203.402344 81.644531 C 203.402344 80.941406 203.277344 80.421875 203.03125 80.085938 C 202.785156 79.75 202.402344 79.582031 201.886719 79.582031 C 201.273438 79.582031 200.785156 79.789062 200.425781 80.203125 C 200.066406 80.617188 199.886719 81.179688 199.886719 81.886719 L 199.886719 86.007812 L 198.679688 86.007812 L 198.679688 78.714844 L 199.886719 78.714844 L 199.886719 79.847656 C 200.160156 79.402344 200.488281 79.070312 200.867188 78.859375 C 201.25 78.648438 201.703125 78.539062 202.230469 78.539062 C 202.761719 78.539062 203.210938 78.675781 203.582031 78.945312 C 203.953125 79.210938 204.226562 79.601562 204.402344 80.117188 Z M 204.402344 80.117188 "/>
<path style=" stroke:none;fill-rule:nonzero;fill:rgb(0%,0%,0%);fill-opacity:1;" d="M 211.714844 78.714844 L 212.914062 78.714844 L 212.914062 86.007812 L 211.714844 86.007812 Z M 211.714844 75.875 L 212.914062 75.875 L 212.914062 77.394531 L 211.714844 77.394531 Z M 211.714844 75.875 "/>
<path style=" stroke:none;fill-rule:nonzero;fill:rgb(0%,0%,0%);fill-opacity:1;" d="M 221.480469 81.605469 L 221.480469 86.007812 L 220.285156 86.007812 L 220.285156 81.644531 C 220.285156 80.953125 220.148438 80.4375 219.878906 80.097656 C 219.609375 79.753906 219.207031 79.582031 218.667969 79.582031 C 218.023438 79.582031 217.511719 79.789062 217.136719 80.199219 C 216.765625 80.613281 216.578125 81.171875 216.578125 81.886719 L 216.578125 86.007812 L 215.375 86.007812 L 215.375 78.714844 L 216.578125 78.714844 L 216.578125 79.847656 C 216.867188 79.410156 217.203125 79.082031 217.589844 78.867188 C 217.980469 78.648438 218.429688 78.539062 218.9375 78.539062 C 219.773438 78.539062 220.40625 78.800781 220.835938 79.316406 C 221.265625 79.835938 221.480469 80.597656 221.480469 81.605469 Z M 221.480469 81.605469 "/>
<path style=" stroke:none;fill-rule:nonzero;fill:rgb(0%,0%,0%);fill-opacity:1;" d="M 230.933594 79.554688 C 230.292969 79.554688 229.785156 79.804688 229.410156 80.308594 C 229.039062 80.808594 228.851562 81.496094 228.851562 82.367188 C 228.851562 83.238281 229.035156 83.925781 229.40625 84.429688 C 229.777344 84.929688 230.289062 85.179688 230.933594 85.179688 C 231.574219 85.179688 232.078125 84.929688 232.449219 84.425781 C 232.824219 83.921875 233.011719 83.234375 233.011719 82.367188 C 233.011719 81.503906 232.824219 80.820312 232.449219 80.3125 C 232.078125 79.808594 231.574219 79.554688 230.933594 79.554688 Z M 230.933594 78.539062 C 231.976562 78.539062 232.792969 78.878906 233.386719 79.558594 C 233.984375 80.234375 234.28125 81.171875 234.28125 82.367188 C 234.28125 83.558594 233.984375 84.496094 233.386719 85.179688 C 232.792969 85.855469 231.976562 86.195312 230.933594 86.195312 C 229.886719 86.195312 229.070312 85.855469 228.476562 85.179688 C 227.882812 84.496094 227.585938 83.558594 227.585938 82.367188 C 227.585938 81.171875 227.882812 80.234375 228.476562 79.558594 C 229.070312 78.878906 229.886719 78.539062 230.933594 78.539062 Z M 230.933594 78.539062 "/>
<path style=" stroke:none;fill-rule:nonzero;fill:rgb(0%,0%,0%);fill-opacity:1;" d="M 239.957031 75.875 L 239.957031 76.875 L 238.8125 76.875 C 238.382812 76.875 238.085938 76.960938 237.917969 77.132812 C 237.75 77.308594 237.667969 77.621094 237.667969 78.070312 L 237.667969 78.714844 L 239.640625 78.714844 L 239.640625 79.648438 L 237.667969 79.648438 L 237.667969 86.007812 L 236.460938 86.007812 L 236.460938 79.648438 L 235.316406 79.648438 L 235.316406 78.714844 L 236.460938 78.714844 L 236.460938 78.207031 C 236.460938 77.394531 236.652344 76.804688 237.027344 76.433594 C 237.40625 76.0625 238.003906 75.875 238.824219 75.875 Z M 239.957031 75.875 "/>
<path style=" stroke:none;fill-rule:nonzero;fill:rgb(0%,0%,0%);fill-opacity:1;" d="M 249.421875 79.835938 C 249.289062 79.757812 249.140625 79.699219 248.984375 79.664062 C 248.824219 79.625 248.652344 79.605469 248.460938 79.605469 C 247.785156 79.605469 247.261719 79.828125 246.902344 80.265625 C 246.539062 80.707031 246.355469 81.339844 246.355469 82.164062 L 246.355469 86.007812 L 245.152344 86.007812 L 245.152344 78.714844 L 246.355469 78.714844 L 246.355469 79.847656 C 246.609375 79.40625 246.9375 79.078125 247.339844 78.863281 C 247.746094 78.648438 248.234375 78.539062 248.8125 78.539062 C 248.894531 78.539062 248.984375 78.546875 249.085938 78.558594 C 249.1875 78.566406 249.296875 78.582031 249.417969 78.605469 Z M 249.421875 79.835938 "/>
<path style=" stroke:none;fill-rule:nonzero;fill:rgb(0%,0%,0%);fill-opacity:1;" d="M 250.679688 78.714844 L 251.878906 78.714844 L 251.878906 86.007812 L 250.679688 86.007812 Z M 250.679688 75.875 L 251.878906 75.875 L 251.878906 77.394531 L 250.679688 77.394531 Z M 250.679688 75.875 "/>
<path style=" stroke:none;fill-rule:nonzero;fill:rgb(0%,0%,0%);fill-opacity:1;" d="M 259.03125 78.929688 L 259.03125 80.0625 C 258.695312 79.890625 258.34375 79.757812 257.976562 79.671875 C 257.613281 79.585938 257.238281 79.542969 256.84375 79.542969 C 256.25 79.542969 255.804688 79.632812 255.507812 79.816406 C 255.210938 79.996094 255.0625 80.269531 255.0625 80.636719 C 255.0625 80.914062 255.167969 81.132812 255.378906 81.289062 C 255.59375 81.449219 256.019531 81.597656 256.664062 81.742188 L 257.074219 81.835938 C 257.925781 82.015625 258.527344 82.273438 258.886719 82.605469 C 259.246094 82.9375 259.425781 83.398438 259.425781 83.996094 C 259.425781 84.671875 259.15625 85.210938 258.621094 85.605469 C 258.085938 86 257.347656 86.195312 256.410156 86.195312 C 256.019531 86.195312 255.613281 86.160156 255.1875 86.082031 C 254.765625 86.003906 254.320312 85.890625 253.851562 85.742188 L 253.851562 84.503906 C 254.292969 84.734375 254.730469 84.90625 255.160156 85.023438 C 255.589844 85.136719 256.015625 85.191406 256.4375 85.191406 C 257 85.191406 257.433594 85.097656 257.738281 84.902344 C 258.039062 84.710938 258.191406 84.4375 258.191406 84.085938 C 258.191406 83.761719 258.082031 83.511719 257.863281 83.339844 C 257.644531 83.164062 257.164062 82.996094 256.421875 82.835938 L 256.003906 82.738281 C 255.265625 82.582031 254.726562 82.34375 254.398438 82.019531 C 254.066406 81.695312 253.902344 81.253906 253.902344 80.6875 C 253.902344 80.003906 254.148438 79.472656 254.632812 79.101562 C 255.117188 78.726562 255.808594 78.539062 256.703125 78.539062 C 257.144531 78.539062 257.5625 78.574219 257.953125 78.636719 C 258.34375 78.703125 258.703125 78.800781 259.03125 78.929688 Z M 259.03125 78.929688 "/>
<path style=" stroke:none;fill-rule:nonzero;fill:rgb(0%,0%,0%);fill-opacity:1;" d="M 261.285156 75.875 L 262.488281 75.875 L 262.488281 81.859375 L 266.066406 78.714844 L 267.59375 78.714844 L 263.726562 82.125 L 267.757812 86.007812 L 266.195312 86.007812 L 262.488281 82.445312 L 262.488281 86.007812 L 261.285156 86.007812 Z M 261.285156 75.875 "/>
</g>
</svg>
