<?xml version="1.0" encoding="UTF-8"?>
<svg xmlns="http://www.w3.org/2000/svg" xmlns:xlink="http://www.w3.org/1999/xlink" width="335.310425" height="240.875" viewBox="0 0 335.310425 240.875" version="1.1">
<defs>
<clipPath id="clip1">
  <path d="M 109 9.601562 L 112 9.601562 L 112 190.800781 L 109 190.800781 Z M 109 9.601562 "/>
</clipPath>
<clipPath id="clip2">
  <path d="M 194 9.601562 L 197 9.601562 L 197 190.800781 L 194 190.800781 Z M 194 9.601562 "/>
</clipPath>
<clipPath id="clip3">
  <path d="M 279 9.601562 L 282 9.601562 L 282 190.800781 L 279 190.800781 Z M 279 9.601562 "/>
</clipPath>
<clipPath id="clip4">
  <path d="M 65.308594 161 L 325.710938 161 L 325.710938 163 L 65.308594 163 Z M 65.308594 161 "/>
</clipPath>
<clipPath id="clip5">
  <path d="M 65.308594 130 L 325.710938 130 L 325.710938 132 L 65.308594 132 Z M 65.308594 130 "/>
</clipPath>
<clipPath id="clip6">
  <path d="M 65.308594 99 L 325.710938 99 L 325.710938 101 L 65.308594 101 Z M 65.308594 99 "/>
</clipPath>
<clipPath id="clip7">
  <path d="M 65.308594 68 L 325.710938 68 L 325.710938 71 L 65.308594 71 Z M 65.308594 68 "/>
</clipPath>
<clipPath id="clip8">
  <path d="M 65.308594 37 L 325.710938 37 L 325.710938 40 L 65.308594 40 Z M 65.308594 37 "/>
</clipPath>
</defs>
<g id="surface1">
<path style=" stroke:none;fill-rule:nonzero;fill:rgb(100%,100%,100%);fill-opacity:1;" d="M 65.308594 190.800781 L 325.710938 190.800781 L 325.710938 9.601562 L 65.308594 9.601562 Z M 65.308594 190.800781 "/>
<g clip-path="url(#clip1)" clip-rule="nonzero">
<path style="fill:none;stroke-width:0.8;stroke-linecap:square;stroke-linejoin:round;stroke:rgb(69.01961%,69.01961%,69.01961%);stroke-opacity:1;stroke-miterlimit:4;" d="M 82.728516 143.100586 L 82.728516 7.201172 " transform="matrix(1.333333,0,0,1.333333,0,0)"/>
</g>
<path style="fill:none;stroke-width:0.8;stroke-linecap:butt;stroke-linejoin:round;stroke:rgb(0%,0%,0%);stroke-opacity:1;stroke-miterlimit:4;" d="M -0.000236511 0.000579834 L -0.000236511 3.498627 " transform="matrix(1.333333,0,0,1.333333,110.305003,190.800008)"/>
<path style=" stroke:none;fill-rule:nonzero;fill:rgb(0%,0%,0%);fill-opacity:1;" d="M 97.648438 205.53125 L 105.992188 205.53125 L 105.992188 206.636719 L 97.648438 206.636719 Z M 97.648438 205.53125 "/>
<path style=" stroke:none;fill-rule:nonzero;fill:rgb(0%,0%,0%);fill-opacity:1;" d="M 109.964844 209.160156 L 114.554688 209.160156 L 114.554688 210.265625 L 108.382812 210.265625 L 108.382812 209.160156 C 108.882812 208.640625 109.5625 207.949219 110.421875 207.078125 C 111.285156 206.207031 111.828125 205.648438 112.046875 205.394531 C 112.46875 204.921875 112.761719 204.523438 112.929688 204.195312 C 113.097656 203.867188 113.183594 203.542969 113.183594 203.226562 C 113.183594 202.710938 113 202.289062 112.636719 201.964844 C 112.277344 201.636719 111.804688 201.476562 111.222656 201.476562 C 110.808594 201.476562 110.375 201.546875 109.914062 201.691406 C 109.457031 201.832031 108.96875 202.050781 108.449219 202.339844 L 108.449219 201.011719 C 108.976562 200.800781 109.472656 200.640625 109.933594 200.53125 C 110.394531 200.421875 110.816406 200.367188 111.195312 200.367188 C 112.203125 200.367188 113.007812 200.621094 113.605469 201.125 C 114.203125 201.628906 114.503906 202.300781 114.503906 203.140625 C 114.503906 203.542969 114.429688 203.921875 114.277344 204.277344 C 114.128906 204.636719 113.855469 205.058594 113.460938 205.542969 C 113.351562 205.671875 113.007812 206.035156 112.425781 206.636719 C 111.84375 207.238281 111.023438 208.078125 109.964844 209.160156 Z M 109.964844 209.160156 "/>
<path style=" stroke:none;fill-rule:nonzero;fill:rgb(0%,0%,0%);fill-opacity:1;" d="M 120.128906 201.410156 C 119.453125 201.410156 118.941406 201.742188 118.601562 202.410156 C 118.261719 203.074219 118.089844 204.078125 118.089844 205.414062 C 118.089844 206.746094 118.261719 207.746094 118.601562 208.414062 C 118.941406 209.078125 119.453125 209.414062 120.128906 209.414062 C 120.808594 209.414062 121.320312 209.078125 121.660156 208.414062 C 122.003906 207.746094 122.171875 206.746094 122.171875 205.414062 C 122.171875 204.078125 122.003906 203.074219 121.660156 202.410156 C 121.320312 201.742188 120.808594 201.410156 120.128906 201.410156 Z M 120.128906 200.367188 C 121.21875 200.367188 122.050781 200.800781 122.625 201.664062 C 123.199219 202.523438 123.488281 203.773438 123.488281 205.414062 C 123.488281 207.050781 123.199219 208.300781 122.625 209.164062 C 122.050781 210.023438 121.21875 210.453125 120.128906 210.453125 C 119.039062 210.453125 118.207031 210.023438 117.632812 209.164062 C 117.058594 208.300781 116.769531 207.050781 116.769531 205.414062 C 116.769531 203.773438 117.058594 202.523438 117.632812 201.664062 C 118.207031 200.800781 119.039062 200.367188 120.128906 200.367188 Z M 120.128906 200.367188 "/>
<g clip-path="url(#clip2)" clip-rule="nonzero">
<path style="fill:none;stroke-width:0.8;stroke-linecap:square;stroke-linejoin:round;stroke:rgb(69.01961%,69.01961%,69.01961%);stroke-opacity:1;stroke-miterlimit:4;" d="M 146.633789 143.100586 L 146.633789 7.201172 " transform="matrix(1.333333,0,0,1.333333,0,0)"/>
</g>
<path style="fill:none;stroke-width:0.8;stroke-linecap:butt;stroke-linejoin:round;stroke:rgb(0%,0%,0%);stroke-opacity:1;stroke-miterlimit:4;" d="M 0.000976562 0.000579834 L 0.000976562 3.498627 " transform="matrix(1.333333,0,0,1.333333,195.510417,190.800008)"/>
<path style=" stroke:none;fill-rule:nonzero;fill:rgb(0%,0%,0%);fill-opacity:1;" d="M 195.507812 201.410156 C 194.828125 201.410156 194.320312 201.742188 193.980469 202.410156 C 193.640625 203.074219 193.46875 204.078125 193.46875 205.414062 C 193.46875 206.746094 193.640625 207.746094 193.980469 208.414062 C 194.320312 209.078125 194.828125 209.414062 195.507812 209.414062 C 196.1875 209.414062 196.699219 209.078125 197.039062 208.414062 C 197.382812 207.746094 197.550781 206.746094 197.550781 205.414062 C 197.550781 204.078125 197.382812 203.074219 197.039062 202.410156 C 196.699219 201.742188 196.1875 201.410156 195.507812 201.410156 Z M 195.507812 200.367188 C 196.597656 200.367188 197.429688 200.800781 198.003906 201.664062 C 198.578125 202.523438 198.867188 203.773438 198.867188 205.414062 C 198.867188 207.050781 198.578125 208.300781 198.003906 209.164062 C 197.429688 210.023438 196.597656 210.453125 195.507812 210.453125 C 194.417969 210.453125 193.585938 210.023438 193.011719 209.164062 C 192.433594 208.300781 192.148438 207.050781 192.148438 205.414062 C 192.148438 203.773438 192.433594 202.523438 193.011719 201.664062 C 193.585938 200.800781 194.417969 200.367188 195.507812 200.367188 Z M 195.507812 200.367188 "/>
<g clip-path="url(#clip3)" clip-rule="nonzero">
<path style="fill:none;stroke-width:0.8;stroke-linecap:square;stroke-linejoin:round;stroke:rgb(69.01961%,69.01961%,69.01961%);stroke-opacity:1;stroke-miterlimit:4;" d="M 210.536133 143.100586 L 210.536133 7.201172 " transform="matrix(1.333333,0,0,1.333333,0,0)"/>
</g>
<path style="fill:none;stroke-width:0.8;stroke-linecap:butt;stroke-linejoin:round;stroke:rgb(0%,0%,0%);stroke-opacity:1;stroke-miterlimit:4;" d="M -0.000747681 0.000579834 L -0.000747681 3.498627 " transform="matrix(1.333333,0,0,1.333333,280.715841,190.800008)"/>
<path style=" stroke:none;fill-rule:nonzero;fill:rgb(0%,0%,0%);fill-opacity:1;" d="M 274.789062 209.160156 L 279.378906 209.160156 L 279.378906 210.265625 L 273.210938 210.265625 L 273.210938 209.160156 C 273.707031 208.640625 274.386719 207.949219 275.25 207.078125 C 276.113281 206.207031 276.652344 205.648438 276.875 205.394531 C 277.296875 204.921875 277.589844 204.523438 277.753906 204.195312 C 277.921875 203.867188 278.007812 203.542969 278.007812 203.226562 C 278.007812 202.710938 277.828125 202.289062 277.464844 201.964844 C 277.101562 201.636719 276.628906 201.476562 276.046875 201.476562 C 275.632812 201.476562 275.199219 201.546875 274.742188 201.691406 C 274.285156 201.832031 273.796875 202.050781 273.273438 202.339844 L 273.273438 201.011719 C 273.804688 200.800781 274.296875 200.640625 274.757812 200.53125 C 275.21875 200.421875 275.640625 200.367188 276.023438 200.367188 C 277.027344 200.367188 277.832031 200.621094 278.429688 201.125 C 279.027344 201.628906 279.328125 202.300781 279.328125 203.140625 C 279.328125 203.542969 279.253906 203.921875 279.101562 204.277344 C 278.953125 204.636719 278.683594 205.058594 278.285156 205.542969 C 278.179688 205.671875 277.832031 206.035156 277.25 206.636719 C 276.671875 207.238281 275.851562 208.078125 274.789062 209.160156 Z M 274.789062 209.160156 "/>
<path style=" stroke:none;fill-rule:nonzero;fill:rgb(0%,0%,0%);fill-opacity:1;" d="M 284.953125 201.410156 C 284.277344 201.410156 283.769531 201.742188 283.425781 202.410156 C 283.085938 203.074219 282.914062 204.078125 282.914062 205.414062 C 282.914062 206.746094 283.085938 207.746094 283.425781 208.414062 C 283.769531 209.078125 284.277344 209.414062 284.953125 209.414062 C 285.636719 209.414062 286.144531 209.078125 286.488281 208.414062 C 286.828125 207.746094 287 206.746094 287 205.414062 C 287 204.078125 286.828125 203.074219 286.488281 202.410156 C 286.144531 201.742188 285.636719 201.410156 284.953125 201.410156 Z M 284.953125 200.367188 C 286.042969 200.367188 286.875 200.800781 287.449219 201.664062 C 288.027344 202.523438 288.3125 203.773438 288.3125 205.414062 C 288.3125 207.050781 288.027344 208.300781 287.449219 209.164062 C 286.875 210.023438 286.042969 210.453125 284.953125 210.453125 C 283.863281 210.453125 283.03125 210.023438 282.457031 209.164062 C 281.882812 208.300781 281.59375 207.050781 281.59375 205.414062 C 281.59375 203.773438 281.882812 202.523438 282.457031 201.664062 C 283.03125 200.800781 283.863281 200.367188 284.953125 200.367188 Z M 284.953125 200.367188 "/>
<path style=" stroke:none;fill-rule:nonzero;fill:rgb(0%,0%,0%);fill-opacity:1;" d="M 198.882812 221.210938 L 196.246094 224.757812 L 199.019531 228.503906 L 197.605469 228.503906 L 195.484375 225.636719 L 193.363281 228.503906 L 191.949219 228.503906 L 194.78125 224.6875 L 192.191406 221.210938 L 193.601562 221.210938 L 195.535156 223.808594 L 197.46875 221.210938 Z M 198.882812 221.210938 "/>
<g clip-path="url(#clip4)" clip-rule="nonzero">
<path style="fill:none;stroke-width:0.8;stroke-linecap:square;stroke-linejoin:round;stroke:rgb(69.01961%,69.01961%,69.01961%);stroke-opacity:1;stroke-miterlimit:4;" d="M 48.981445 121.333008 L 244.283203 121.333008 " transform="matrix(1.333333,0,0,1.333333,0,0)"/>
</g>
<path style="fill:none;stroke-width:0.8;stroke-linecap:butt;stroke-linejoin:round;stroke:rgb(0%,0%,0%);stroke-opacity:1;stroke-miterlimit:4;" d="M -0.00136948 -0.00115204 L -3.499416 -0.00115204 " transform="matrix(1.333333,0,0,1.333333,65.31042,161.77888)"/>
<path style=" stroke:none;fill-rule:nonzero;fill:rgb(0%,0%,0%);fill-opacity:1;" d="M 29.25 162.109375 L 37.597656 162.109375 L 37.597656 163.21875 L 29.25 163.21875 Z M 29.25 162.109375 "/>
<path style=" stroke:none;fill-rule:nonzero;fill:rgb(0%,0%,0%);fill-opacity:1;" d="M 41.566406 165.738281 L 46.15625 165.738281 L 46.15625 166.84375 L 39.988281 166.84375 L 39.988281 165.738281 C 40.484375 165.222656 41.164062 164.527344 42.027344 163.660156 C 42.886719 162.789062 43.429688 162.226562 43.652344 161.972656 C 44.070312 161.5 44.367188 161.101562 44.53125 160.773438 C 44.699219 160.445312 44.785156 160.125 44.785156 159.808594 C 44.785156 159.289062 44.601562 158.871094 44.242188 158.542969 C 43.878906 158.21875 43.40625 158.054688 42.824219 158.054688 C 42.410156 158.054688 41.976562 158.125 41.519531 158.269531 C 41.0625 158.414062 40.570312 158.628906 40.050781 158.921875 L 40.050781 157.59375 C 40.582031 157.378906 41.074219 157.21875 41.535156 157.109375 C 41.996094 157.003906 42.417969 156.949219 42.800781 156.949219 C 43.804688 156.949219 44.609375 157.199219 45.207031 157.703125 C 45.804688 158.207031 46.105469 158.878906 46.105469 159.722656 C 46.105469 160.121094 46.03125 160.5 45.878906 160.859375 C 45.730469 161.214844 45.460938 161.636719 45.0625 162.125 C 44.957031 162.25 44.609375 162.613281 44.027344 163.214844 C 43.449219 163.816406 42.628906 164.65625 41.566406 165.738281 Z M 41.566406 165.738281 "/>
<path style=" stroke:none;fill-rule:nonzero;fill:rgb(0%,0%,0%);fill-opacity:1;" d="M 51.730469 157.992188 C 51.054688 157.992188 50.542969 158.324219 50.203125 158.992188 C 49.863281 159.65625 49.691406 160.65625 49.691406 161.996094 C 49.691406 163.328125 49.863281 164.324219 50.203125 164.992188 C 50.542969 165.660156 51.054688 165.992188 51.730469 165.992188 C 52.410156 165.992188 52.921875 165.660156 53.261719 164.992188 C 53.605469 164.324219 53.777344 163.328125 53.777344 161.996094 C 53.777344 160.65625 53.605469 159.65625 53.261719 158.992188 C 52.921875 158.324219 52.410156 157.992188 51.730469 157.992188 Z M 51.730469 156.949219 C 52.820312 156.949219 53.652344 157.378906 54.226562 158.242188 C 54.804688 159.105469 55.089844 160.355469 55.089844 161.996094 C 55.089844 163.628906 54.804688 164.878906 54.226562 165.742188 C 53.652344 166.605469 52.820312 167.035156 51.730469 167.035156 C 50.640625 167.035156 49.808594 166.605469 49.234375 165.742188 C 48.660156 164.878906 48.371094 163.628906 48.371094 161.996094 C 48.371094 160.355469 48.660156 159.105469 49.234375 158.242188 C 49.808594 157.378906 50.640625 156.949219 51.730469 156.949219 Z M 51.730469 156.949219 "/>
<g clip-path="url(#clip5)" clip-rule="nonzero">
<path style="fill:none;stroke-width:0.8;stroke-linecap:square;stroke-linejoin:round;stroke:rgb(69.01961%,69.01961%,69.01961%);stroke-opacity:1;stroke-miterlimit:4;" d="M 48.981445 98.241211 L 244.283203 98.241211 " transform="matrix(1.333333,0,0,1.333333,0,0)"/>
</g>
<path style="fill:none;stroke-width:0.8;stroke-linecap:butt;stroke-linejoin:round;stroke:rgb(0%,0%,0%);stroke-opacity:1;stroke-miterlimit:4;" d="M -0.00136948 -0.000869751 L -3.499416 -0.000869751 " transform="matrix(1.333333,0,0,1.333333,65.31042,130.989441)"/>
<path style=" stroke:none;fill-rule:nonzero;fill:rgb(0%,0%,0%);fill-opacity:1;" d="M 29.25 131.320312 L 37.597656 131.320312 L 37.597656 132.429688 L 29.25 132.429688 Z M 29.25 131.320312 "/>
<path style=" stroke:none;fill-rule:nonzero;fill:rgb(0%,0%,0%);fill-opacity:1;" d="M 40.664062 134.949219 L 42.8125 134.949219 L 42.8125 127.53125 L 40.472656 128 L 40.472656 126.804688 L 42.800781 126.335938 L 44.113281 126.335938 L 44.113281 134.949219 L 46.261719 134.949219 L 46.261719 136.054688 L 40.664062 136.054688 Z M 40.664062 134.949219 "/>
<path style=" stroke:none;fill-rule:nonzero;fill:rgb(0%,0%,0%);fill-opacity:1;" d="M 51.730469 127.199219 C 51.054688 127.199219 50.542969 127.535156 50.203125 128.199219 C 49.863281 128.867188 49.691406 129.867188 49.691406 131.203125 C 49.691406 132.535156 49.863281 133.535156 50.203125 134.203125 C 50.542969 134.871094 51.054688 135.203125 51.730469 135.203125 C 52.410156 135.203125 52.921875 134.871094 53.261719 134.203125 C 53.605469 133.535156 53.777344 132.535156 53.777344 131.203125 C 53.777344 129.867188 53.605469 128.867188 53.261719 128.199219 C 52.921875 127.535156 52.410156 127.199219 51.730469 127.199219 Z M 51.730469 126.160156 C 52.820312 126.160156 53.652344 126.589844 54.226562 127.453125 C 54.804688 128.3125 55.089844 129.566406 55.089844 131.203125 C 55.089844 132.839844 54.804688 134.089844 54.226562 134.953125 C 53.652344 135.8125 52.820312 136.246094 51.730469 136.246094 C 50.640625 136.246094 49.808594 135.8125 49.234375 134.953125 C 48.660156 134.089844 48.371094 132.839844 48.371094 131.203125 C 48.371094 129.566406 48.660156 128.3125 49.234375 127.453125 C 49.808594 126.589844 50.640625 126.160156 51.730469 126.160156 Z M 51.730469 126.160156 "/>
<g clip-path="url(#clip6)" clip-rule="nonzero">
<path style="fill:none;stroke-width:0.8;stroke-linecap:square;stroke-linejoin:round;stroke:rgb(69.01961%,69.01961%,69.01961%);stroke-opacity:1;stroke-miterlimit:4;" d="M 48.981445 75.149414 L 244.283203 75.149414 " transform="matrix(1.333333,0,0,1.333333,0,0)"/>
</g>
<path style="fill:none;stroke-width:0.8;stroke-linecap:butt;stroke-linejoin:round;stroke:rgb(0%,0%,0%);stroke-opacity:1;stroke-miterlimit:4;" d="M -0.00136948 -0.000587463 L -3.499416 -0.000587463 " transform="matrix(1.333333,0,0,1.333333,65.31042,100.200002)"/>
<path style=" stroke:none;fill-rule:nonzero;fill:rgb(0%,0%,0%);fill-opacity:1;" d="M 51.730469 96.410156 C 51.054688 96.410156 50.546875 96.746094 50.203125 97.410156 C 49.863281 98.078125 49.695312 99.078125 49.695312 100.414062 C 49.695312 101.746094 49.863281 102.746094 50.203125 103.414062 C 50.546875 104.082031 51.054688 104.414062 51.730469 104.414062 C 52.414062 104.414062 52.925781 104.082031 53.265625 103.414062 C 53.605469 102.746094 53.777344 101.746094 53.777344 100.414062 C 53.777344 99.078125 53.605469 98.078125 53.265625 97.410156 C 52.925781 96.746094 52.414062 96.410156 51.730469 96.410156 Z M 51.730469 95.371094 C 52.820312 95.371094 53.652344 95.800781 54.230469 96.664062 C 54.804688 97.523438 55.089844 98.773438 55.089844 100.414062 C 55.089844 102.050781 54.804688 103.300781 54.230469 104.164062 C 53.652344 105.023438 52.820312 105.457031 51.730469 105.457031 C 50.640625 105.457031 49.808594 105.023438 49.234375 104.164062 C 48.660156 103.300781 48.371094 102.050781 48.371094 100.414062 C 48.371094 98.773438 48.660156 97.523438 49.234375 96.664062 C 49.808594 95.800781 50.640625 95.371094 51.730469 95.371094 Z M 51.730469 95.371094 "/>
<g clip-path="url(#clip7)" clip-rule="nonzero">
<path style="fill:none;stroke-width:0.8;stroke-linecap:square;stroke-linejoin:round;stroke:rgb(69.01961%,69.01961%,69.01961%);stroke-opacity:1;stroke-miterlimit:4;" d="M 48.981445 52.057617 L 244.283203 52.057617 " transform="matrix(1.333333,0,0,1.333333,0,0)"/>
</g>
<path style="fill:none;stroke-width:0.8;stroke-linecap:butt;stroke-linejoin:round;stroke:rgb(0%,0%,0%);stroke-opacity:1;stroke-miterlimit:4;" d="M -0.00136948 -0.00030899 L -3.499416 -0.00030899 " transform="matrix(1.333333,0,0,1.333333,65.31042,69.410568)"/>
<path style=" stroke:none;fill-rule:nonzero;fill:rgb(0%,0%,0%);fill-opacity:1;" d="M 40.664062 73.371094 L 42.8125 73.371094 L 42.8125 65.953125 L 40.476562 66.421875 L 40.476562 65.222656 L 42.800781 64.753906 L 44.113281 64.753906 L 44.113281 73.371094 L 46.261719 73.371094 L 46.261719 74.476562 L 40.664062 74.476562 Z M 40.664062 73.371094 "/>
<path style=" stroke:none;fill-rule:nonzero;fill:rgb(0%,0%,0%);fill-opacity:1;" d="M 51.730469 65.621094 C 51.054688 65.621094 50.546875 65.957031 50.203125 66.621094 C 49.863281 67.289062 49.695312 68.289062 49.695312 69.625 C 49.695312 70.957031 49.863281 71.957031 50.203125 72.625 C 50.546875 73.289062 51.054688 73.625 51.730469 73.625 C 52.414062 73.625 52.925781 73.289062 53.265625 72.625 C 53.605469 71.957031 53.777344 70.957031 53.777344 69.625 C 53.777344 68.289062 53.605469 67.289062 53.265625 66.621094 C 52.925781 65.957031 52.414062 65.621094 51.730469 65.621094 Z M 51.730469 64.582031 C 52.820312 64.582031 53.652344 65.011719 54.230469 65.875 C 54.804688 66.734375 55.089844 67.984375 55.089844 69.625 C 55.089844 71.261719 54.804688 72.511719 54.230469 73.375 C 53.652344 74.234375 52.820312 74.664062 51.730469 74.664062 C 50.640625 74.664062 49.808594 74.234375 49.234375 73.375 C 48.660156 72.511719 48.371094 71.261719 48.371094 69.625 C 48.371094 67.984375 48.660156 66.734375 49.234375 65.875 C 49.808594 65.011719 50.640625 64.582031 51.730469 64.582031 Z M 51.730469 64.582031 "/>
<g clip-path="url(#clip8)" clip-rule="nonzero">
<path style="fill:none;stroke-width:0.8;stroke-linecap:square;stroke-linejoin:round;stroke:rgb(69.01961%,69.01961%,69.01961%);stroke-opacity:1;stroke-miterlimit:4;" d="M 48.981445 28.96582 L 244.283203 28.96582 " transform="matrix(1.333333,0,0,1.333333,0,0)"/>
</g>
<path style="fill:none;stroke-width:0.8;stroke-linecap:butt;stroke-linejoin:round;stroke:rgb(0%,0%,0%);stroke-opacity:1;stroke-miterlimit:4;" d="M -0.00136948 -0.0000286102 L -3.499416 -0.0000286102 " transform="matrix(1.333333,0,0,1.333333,65.31042,38.621132)"/>
<path style=" stroke:none;fill-rule:nonzero;fill:rgb(0%,0%,0%);fill-opacity:1;" d="M 41.570312 42.582031 L 46.160156 42.582031 L 46.160156 43.6875 L 39.988281 43.6875 L 39.988281 42.582031 C 40.484375 42.0625 41.164062 41.371094 42.027344 40.5 C 42.890625 39.628906 43.429688 39.070312 43.652344 38.816406 C 44.074219 38.34375 44.367188 37.945312 44.535156 37.617188 C 44.703125 37.289062 44.785156 36.964844 44.785156 36.648438 C 44.785156 36.132812 44.605469 35.710938 44.242188 35.386719 C 43.878906 35.058594 43.40625 34.898438 42.824219 34.898438 C 42.414062 34.898438 41.976562 34.96875 41.519531 35.113281 C 41.0625 35.253906 40.574219 35.472656 40.050781 35.765625 L 40.050781 34.433594 C 40.582031 34.222656 41.074219 34.0625 41.535156 33.953125 C 41.996094 33.84375 42.417969 33.789062 42.800781 33.789062 C 43.808594 33.789062 44.609375 34.042969 45.207031 34.546875 C 45.808594 35.050781 46.105469 35.722656 46.105469 36.5625 C 46.105469 36.964844 46.03125 37.34375 45.882812 37.703125 C 45.734375 38.058594 45.460938 38.480469 45.066406 38.964844 C 44.957031 39.09375 44.609375 39.457031 44.027344 40.058594 C 43.449219 40.660156 42.628906 41.5 41.570312 42.582031 Z M 41.570312 42.582031 "/>
<path style=" stroke:none;fill-rule:nonzero;fill:rgb(0%,0%,0%);fill-opacity:1;" d="M 51.730469 34.832031 C 51.054688 34.832031 50.546875 35.164062 50.203125 35.832031 C 49.863281 36.496094 49.695312 37.5 49.695312 38.835938 C 49.695312 40.167969 49.863281 41.167969 50.203125 41.835938 C 50.546875 42.5 51.054688 42.835938 51.730469 42.835938 C 52.414062 42.835938 52.925781 42.5 53.265625 41.835938 C 53.605469 41.167969 53.777344 40.167969 53.777344 38.835938 C 53.777344 37.5 53.605469 36.496094 53.265625 35.832031 C 52.925781 35.164062 52.414062 34.832031 51.730469 34.832031 Z M 51.730469 33.789062 C 52.820312 33.789062 53.652344 34.222656 54.230469 35.085938 C 54.804688 35.945312 55.089844 37.195312 55.089844 38.835938 C 55.089844 40.472656 54.804688 41.722656 54.230469 42.585938 C 53.652344 43.445312 52.820312 43.875 51.730469 43.875 C 50.640625 43.875 49.808594 43.445312 49.234375 42.585938 C 48.660156 41.722656 48.371094 40.472656 48.371094 38.835938 C 48.371094 37.195312 48.660156 35.945312 49.234375 35.085938 C 49.808594 34.222656 50.640625 33.789062 51.730469 33.789062 Z M 51.730469 33.789062 "/>
<path style=" stroke:none;fill-rule:nonzero;fill:rgb(0%,0%,0%);fill-opacity:1;" d="M 9.601562 106.746094 L 10.597656 106.746094 L 10.597656 107.894531 C 10.597656 108.320312 10.683594 108.621094 10.859375 108.789062 C 11.03125 108.957031 11.34375 109.039062 11.796875 109.039062 L 12.441406 109.039062 L 12.441406 107.066406 L 13.371094 107.066406 L 13.371094 109.039062 L 19.730469 109.039062 L 19.730469 110.242188 L 13.371094 110.242188 L 13.371094 111.386719 L 12.441406 111.386719 L 12.441406 110.242188 L 11.929688 110.242188 C 11.121094 110.242188 10.527344 110.054688 10.160156 109.675781 C 9.785156 109.296875 9.601562 108.699219 9.601562 107.878906 Z M 9.601562 106.746094 "/>
<path style=" stroke:none;fill-rule:nonzero;fill:rgb(0%,0%,0%);fill-opacity:1;" d="M 9.613281 102.867188 C 10.613281 103.449219 11.597656 103.878906 12.578125 104.164062 C 13.554688 104.445312 14.542969 104.585938 15.546875 104.585938 C 16.546875 104.585938 17.539062 104.445312 18.523438 104.160156 C 19.507812 103.875 20.496094 103.445312 21.488281 102.867188 L 21.488281 103.910156 C 20.46875 104.558594 19.464844 105.046875 18.480469 105.371094 C 17.496094 105.691406 16.519531 105.855469 15.546875 105.855469 C 14.578125 105.855469 13.601562 105.695312 12.621094 105.375 C 11.640625 105.050781 10.636719 104.5625 9.613281 103.910156 Z M 9.613281 102.867188 "/>
<path style=" stroke:none;fill-rule:nonzero;fill:rgb(0%,0%,0%);fill-opacity:1;" d="M 12.441406 94.480469 L 15.988281 97.117188 L 19.730469 94.34375 L 19.730469 95.757812 L 16.867188 97.878906 L 19.730469 100 L 19.730469 101.414062 L 15.917969 98.582031 L 12.441406 101.175781 L 12.441406 99.761719 L 15.039062 97.828125 L 12.441406 95.894531 Z M 12.441406 94.480469 "/>
<path style=" stroke:none;fill-rule:nonzero;fill:rgb(0%,0%,0%);fill-opacity:1;" d="M 9.613281 92.839844 L 9.613281 91.796875 C 10.636719 91.148438 11.640625 90.660156 12.621094 90.335938 C 13.601562 90.015625 14.578125 89.851562 15.546875 89.851562 C 16.519531 89.851562 17.496094 90.015625 18.480469 90.335938 C 19.464844 90.660156 20.46875 91.148438 21.488281 91.796875 L 21.488281 92.839844 C 20.496094 92.261719 19.507812 91.832031 18.523438 91.546875 C 17.539062 91.261719 16.546875 91.121094 15.546875 91.121094 C 14.542969 91.121094 13.554688 91.261719 12.578125 91.546875 C 11.597656 91.832031 10.613281 92.261719 9.613281 92.839844 Z M 9.613281 92.839844 "/>
<path style="fill:none;stroke-width:1.5;stroke-linecap:square;stroke-linejoin:round;stroke:rgb(12.156863%,46.666667%,70.588237%);stroke-opacity:1;stroke-miterlimit:4;" d="M 57.861328 130.631836 L 58.69043 133.599609 L 59.393555 135.383789 L 60 136.379883 L 60.512695 136.825195 L 60.928711 136.921875 L 61.341797 136.78418 L 61.790039 136.379883 L 62.302734 135.591797 L 62.90918 134.220703 L 63.644531 131.953125 L 64.505859 128.490234 L 65.496094 123.541992 L 66.679688 116.452148 L 68.147461 106.212891 L 70.289062 89.537109 L 74.124023 59.578125 L 75.720703 48.919922 L 77.030273 41.586914 L 78.149414 36.521484 L 79.107422 33.143555 L 79.939453 30.972656 L 80.642578 29.698242 L 81.249023 29.018555 L 81.758789 28.743164 L 82.239258 28.734375 L 82.719727 28.959961 L 83.229492 29.452148 L 83.835938 30.37207 L 84.539062 31.866211 L 85.371094 34.195312 L 86.361328 37.693359 L 87.544922 42.767578 L 89.012695 50.150391 L 91.12207 62.039062 L 94.989258 83.923828 L 96.585938 91.623047 L 97.895508 96.914062 L 99.014648 100.570312 L 100.004883 103.083984 L 100.866211 104.692383 L 101.601562 105.629883 L 102.240234 106.12207 L 102.817383 106.30957 L 103.391602 106.262695 L 103.96582 105.984375 L 104.604492 105.413086 L 105.339844 104.4375 L 106.171875 102.946289 L 107.162109 100.6875 L 108.345703 97.40625 L 109.845703 92.540039 L 112.242188 83.897461 L 115.212891 73.365234 L 116.844727 68.399414 L 118.186523 64.989258 L 119.334961 62.645508 L 120.357422 61.042969 L 121.253906 60.026367 L 122.083008 59.405273 L 122.850586 59.100586 L 123.585938 59.041992 L 124.321289 59.203125 L 125.118164 59.610352 L 126.014648 60.325195 L 127.069336 61.470703 L 128.34668 63.219727 L 130.104492 66.043945 L 134.416992 73.130859 L 135.887695 75.041016 L 137.132812 76.30957 L 138.251953 77.138672 L 139.274414 77.630859 L 140.264648 77.868164 L 141.254883 77.876953 L 142.30957 77.660156 L 143.490234 77.179688 L 144.928711 76.341797 L 147.612305 74.449219 L 149.499023 73.259766 L 150.808594 72.685547 L 151.927734 72.430664 L 152.950195 72.427734 L 153.94043 72.650391 L 154.930664 73.110352 L 155.953125 73.836914 L 157.072266 74.915039 L 158.317383 76.432617 L 159.820312 78.629883 L 162.023438 82.30957 L 164.961914 87.146484 L 166.368164 89.036133 L 167.487305 90.19043 L 168.445312 90.870117 L 169.277344 91.195312 L 170.044922 91.256836 L 170.777344 91.086914 L 171.512695 90.682617 L 172.280273 90.005859 L 173.141602 88.927734 L 174.070312 87.401367 L 175.125 85.209961 L 176.305664 82.22168 L 177.711914 78.032227 L 179.501953 71.947266 L 185.091797 52.382812 L 186.37207 48.955078 L 187.426758 46.713867 L 188.320312 45.295898 L 189.087891 44.475586 L 189.726562 44.088867 L 190.300781 43.980469 L 190.845703 44.091797 L 191.419922 44.446289 L 192.058594 45.125977 L 192.761719 46.21875 L 193.561523 47.90332 L 194.455078 50.332031 L 195.477539 53.780273 L 196.661133 58.587891 L 198.064453 65.288086 L 199.886719 75.152344 L 205.573242 106.839844 L 206.915039 112.652344 L 208.001953 116.44043 L 208.930664 118.913086 L 209.695312 120.37793 L 210.333984 121.168945 L 210.878906 121.523438 L 211.356445 121.584961 L 211.836914 121.40918 L 212.349609 120.958008 L 212.923828 120.123047 L 213.594727 118.708008 L 214.362305 116.516602 L 215.223633 113.34375 L 216.213867 108.814453 L 217.365234 102.46875 L 218.739258 93.56543 L 220.49707 80.586914 L 226.790039 32.545898 L 228.067383 25.160156 L 229.12207 20.25 L 230.018555 17.044922 L 230.783203 15.064453 L 231.424805 13.986328 L 231.93457 13.508789 L 232.382812 13.376953 L 232.798828 13.5 L 233.244141 13.895508 L 233.756836 14.686523 L 234.363281 16.092773 L 235.066406 18.345703 L 235.385742 19.587891 " transform="matrix(1.333333,0,0,1.333333,0,0)"/>
<path style="fill:none;stroke-width:1.5;stroke-linecap:square;stroke-linejoin:round;stroke:rgb(100%,49.803922%,5.490196%);stroke-opacity:1;stroke-miterlimit:4;" d="M 178.584961 75.149414 L 162.609375 83.314453 L 226.49707 34.435547 L 235.40625 19.669922 L 232.265625 13.385742 L 232.374023 13.376953 " transform="matrix(1.333333,0,0,1.333333,0,0)"/>
<path style="fill-rule:nonzero;fill:rgb(100%,49.803922%,5.490196%);fill-opacity:1;stroke-width:1;stroke-linecap:butt;stroke-linejoin:round;stroke:rgb(100%,49.803922%,5.490196%);stroke-opacity:1;stroke-miterlimit:4;" d="M 0.00012207 2.999413 C 0.796997 2.999413 1.558716 2.683006 2.121216 2.120506 C 2.683716 1.558006 3.000122 0.796288 3.000122 -0.000587463 C 3.000122 -0.794533 2.683716 -1.559181 2.121216 -2.121681 C 1.558716 -2.684181 0.796997 -3.000587 0.00012207 -3.000587 C -0.796753 -3.000587 -1.558472 -2.684181 -2.120972 -2.121681 C -2.683472 -1.559181 -2.999878 -0.794533 -2.999878 -0.000587463 C -2.999878 0.796288 -2.683472 1.558006 -2.120972 2.120506 C -1.558472 2.683006 -0.796753 2.999413 0.00012207 2.999413 Z M 0.00012207 2.999413 " transform="matrix(1.333333,0,0,1.333333,238.113118,100.200002)"/>
<path style="fill-rule:nonzero;fill:rgb(100%,49.803922%,5.490196%);fill-opacity:1;stroke-width:1;stroke-linecap:butt;stroke-linejoin:round;stroke:rgb(100%,49.803922%,5.490196%);stroke-opacity:1;stroke-miterlimit:4;" d="M 0.000549316 3.000168 C 0.794495 3.000168 1.559143 2.683762 2.121643 2.121262 C 2.684143 1.558762 3.000549 0.797043 3.000549 0.000167847 C 3.000549 -0.796707 2.684143 -1.558426 2.121643 -2.120926 C 1.559143 -2.683426 0.794495 -2.999832 0.000549316 -2.999832 C -0.796326 -2.999832 -1.558044 -2.683426 -2.120544 -2.120926 C -2.683044 -1.558426 -2.999451 -0.796707 -2.999451 0.000167847 C -2.999451 0.797043 -2.683044 1.558762 -2.120544 2.121262 C -1.558044 2.683762 -0.796326 3.000168 0.000549316 3.000168 Z M 0.000549316 3.000168 " transform="matrix(1.333333,0,0,1.333333,216.811768,111.085714)"/>
<path style="fill-rule:nonzero;fill:rgb(100%,49.803922%,5.490196%);fill-opacity:1;stroke-width:1;stroke-linecap:butt;stroke-linejoin:round;stroke:rgb(100%,49.803922%,5.490196%);stroke-opacity:1;stroke-miterlimit:4;" d="M 0.000579834 2.999794 C 0.794525 2.999794 1.559174 2.683388 2.121674 2.120888 C 2.684174 1.558388 3.00058 0.796669 3.00058 -0.000205994 C 3.00058 -0.794151 2.684174 -1.5588 2.121674 -2.1213 C 1.559174 -2.6838 0.794525 -3.000206 0.000579834 -3.000206 C -0.796295 -3.000206 -1.558014 -2.6838 -2.120514 -2.1213 C -2.683014 -1.5588 -2.99942 -0.794151 -2.99942 -0.000205994 C -2.99942 0.796669 -2.683014 1.558388 -2.120514 2.120888 C -1.558014 2.683388 -0.796295 2.999794 0.000579834 2.999794 Z M 0.000579834 2.999794 " transform="matrix(1.333333,0,0,1.333333,301.995321,45.914337)"/>
<path style="fill-rule:nonzero;fill:rgb(100%,49.803922%,5.490196%);fill-opacity:1;stroke-width:1;stroke-linecap:butt;stroke-linejoin:round;stroke:rgb(100%,49.803922%,5.490196%);stroke-opacity:1;stroke-miterlimit:4;" d="M 0.000717163 3.000505 C 0.794662 3.000505 1.559311 2.684099 2.121811 2.121599 C 2.684311 1.559099 3.000717 0.794451 3.000717 0.000505447 C 3.000717 -0.79637 2.684311 -1.558088 2.121811 -2.120588 C 1.559311 -2.683088 0.794662 -2.999495 0.000717163 -2.999495 C -0.796158 -2.999495 -1.557877 -2.683088 -2.120377 -2.120588 C -2.682877 -1.558088 -2.999283 -0.79637 -2.999283 0.000505447 C -2.999283 0.794451 -2.682877 1.559099 -2.120377 2.121599 C -1.557877 2.684099 -0.796158 3.000505 0.000717163 3.000505 Z M 0.000717163 3.000505 " transform="matrix(1.333333,0,0,1.333333,313.874044,26.225889)"/>
<path style="fill-rule:nonzero;fill:rgb(100%,49.803922%,5.490196%);fill-opacity:1;stroke-width:1;stroke-linecap:butt;stroke-linejoin:round;stroke:rgb(100%,49.803922%,5.490196%);stroke-opacity:1;stroke-miterlimit:4;" d="M 0.00106812 3.000431 C 0.795013 3.000431 1.559662 2.684025 2.122162 2.121525 C 2.684662 1.559025 3.001068 0.794376 3.001068 0.000431061 C 3.001068 -0.796444 2.684662 -1.558163 2.122162 -2.120663 C 1.559662 -2.683163 0.795013 -2.999569 0.00106812 -2.999569 C -0.795807 -2.999569 -1.557526 -2.683163 -2.120026 -2.120663 C -2.682526 -1.558163 -2.998932 -0.796444 -2.998932 0.000431061 C -2.998932 0.794376 -2.682526 1.559025 -2.120026 2.121525 C -1.557526 2.684025 -0.795807 3.000431 0.00106812 3.000431 Z M 0.00106812 3.000431 " transform="matrix(1.333333,0,0,1.333333,309.686076,17.847082)"/>
<path style="fill-rule:nonzero;fill:rgb(100%,49.803922%,5.490196%);fill-opacity:1;stroke-width:1;stroke-linecap:butt;stroke-linejoin:round;stroke:rgb(100%,49.803922%,5.490196%);stroke-opacity:1;stroke-miterlimit:4;" d="M 0.000564575 2.999681 C 0.79451 2.999681 1.559158 2.683274 2.121658 2.120774 C 2.684158 1.558274 3.000565 0.796556 3.000565 -0.000319481 C 3.000565 -0.794265 2.684158 -1.558913 2.121658 -2.121413 C 1.559158 -2.683913 0.79451 -3.000319 0.000564575 -3.000319 C -0.79631 -3.000319 -1.558029 -2.683913 -2.120529 -2.121413 C -2.683029 -1.558913 -2.999435 -0.794265 -2.999435 -0.000319481 C -2.999435 0.796556 -2.683029 1.558274 -2.120529 2.120774 C -1.558029 2.683274 -0.79631 2.999681 0.000564575 2.999681 Z M 0.000564575 2.999681 " transform="matrix(1.333333,0,0,1.333333,309.831278,17.836363)"/>
<path style="fill-rule:nonzero;fill:rgb(100%,49.803922%,5.490196%);fill-opacity:1;stroke-width:1;stroke-linecap:butt;stroke-linejoin:round;stroke:rgb(100%,49.803922%,5.490196%);stroke-opacity:1;stroke-miterlimit:4;" d="M 0.000717163 2.999681 C 0.794662 2.999681 1.559311 2.683274 2.121811 2.120774 C 2.684311 1.558274 3.000717 0.796556 3.000717 -0.000319481 C 3.000717 -0.794265 2.684311 -1.558913 2.121811 -2.121413 C 1.559311 -2.683913 0.794662 -3.000319 0.000717163 -3.000319 C -0.796158 -3.000319 -1.557877 -2.683913 -2.120377 -2.121413 C -2.682877 -1.558913 -2.999283 -0.794265 -2.999283 -0.000319481 C -2.999283 0.796556 -2.682877 1.558274 -2.120377 2.120774 C -1.557877 2.683274 -0.796158 2.999681 0.000717163 2.999681 Z M 0.000717163 2.999681 " transform="matrix(1.333333,0,0,1.333333,309.831075,17.836363)"/>
<path style="fill-rule:nonzero;fill:rgb(100%,49.803922%,5.490196%);fill-opacity:1;stroke-width:1;stroke-linecap:butt;stroke-linejoin:round;stroke:rgb(100%,49.803922%,5.490196%);stroke-opacity:1;stroke-miterlimit:4;" d="M 0.000701904 2.999681 C 0.794647 2.999681 1.559296 2.683274 2.121796 2.120774 C 2.684296 1.558274 3.000702 0.796556 3.000702 -0.000319481 C 3.000702 -0.794265 2.684296 -1.558913 2.121796 -2.121413 C 1.559296 -2.683913 0.794647 -3.000319 0.000701904 -3.000319 C -0.796173 -3.000319 -1.557892 -2.683913 -2.120392 -2.121413 C -2.682892 -1.558913 -2.999298 -0.794265 -2.999298 -0.000319481 C -2.999298 0.796556 -2.682892 1.558274 -2.120392 2.120774 C -1.557892 2.683274 -0.796173 2.999681 0.000701904 2.999681 Z M 0.000701904 2.999681 " transform="matrix(1.333333,0,0,1.333333,309.831095,17.836363)"/>
<path style="fill-rule:nonzero;fill:rgb(100%,49.803922%,5.490196%);fill-opacity:1;stroke-width:1;stroke-linecap:butt;stroke-linejoin:round;stroke:rgb(100%,49.803922%,5.490196%);stroke-opacity:1;stroke-miterlimit:4;" d="M 0.000701904 2.999681 C 0.794647 2.999681 1.559296 2.683274 2.121796 2.120774 C 2.684296 1.558274 3.000702 0.796556 3.000702 -0.000319481 C 3.000702 -0.794265 2.684296 -1.558913 2.121796 -2.121413 C 1.559296 -2.683913 0.794647 -3.000319 0.000701904 -3.000319 C -0.796173 -3.000319 -1.557892 -2.683913 -2.120392 -2.121413 C -2.682892 -1.558913 -2.999298 -0.794265 -2.999298 -0.000319481 C -2.999298 0.796556 -2.682892 1.558274 -2.120392 2.120774 C -1.557892 2.683274 -0.796173 2.999681 0.000701904 2.999681 Z M 0.000701904 2.999681 " transform="matrix(1.333333,0,0,1.333333,309.831095,17.836363)"/>
<path style="fill-rule:nonzero;fill:rgb(100%,49.803922%,5.490196%);fill-opacity:1;stroke-width:1;stroke-linecap:butt;stroke-linejoin:round;stroke:rgb(100%,49.803922%,5.490196%);stroke-opacity:1;stroke-miterlimit:4;" d="M 0.000701904 2.999681 C 0.794647 2.999681 1.559296 2.683274 2.121796 2.120774 C 2.684296 1.558274 3.000702 0.796556 3.000702 -0.000319481 C 3.000702 -0.794265 2.684296 -1.558913 2.121796 -2.121413 C 1.559296 -2.683913 0.794647 -3.000319 0.000701904 -3.000319 C -0.796173 -3.000319 -1.557892 -2.683913 -2.120392 -2.121413 C -2.682892 -1.558913 -2.999298 -0.794265 -2.999298 -0.000319481 C -2.999298 0.796556 -2.682892 1.558274 -2.120392 2.120774 C -1.557892 2.683274 -0.796173 2.999681 0.000701904 2.999681 Z M 0.000701904 2.999681 " transform="matrix(1.333333,0,0,1.333333,309.831095,17.836363)"/>
<path style="fill-rule:nonzero;fill:rgb(100%,49.803922%,5.490196%);fill-opacity:1;stroke-width:1;stroke-linecap:butt;stroke-linejoin:round;stroke:rgb(100%,49.803922%,5.490196%);stroke-opacity:1;stroke-miterlimit:4;" d="M 0.000701904 2.999681 C 0.794647 2.999681 1.559296 2.683274 2.121796 2.120774 C 2.684296 1.558274 3.000702 0.796556 3.000702 -0.000319481 C 3.000702 -0.794265 2.684296 -1.558913 2.121796 -2.121413 C 1.559296 -2.683913 0.794647 -3.000319 0.000701904 -3.000319 C -0.796173 -3.000319 -1.557892 -2.683913 -2.120392 -2.121413 C -2.682892 -1.558913 -2.999298 -0.794265 -2.999298 -0.000319481 C -2.999298 0.796556 -2.682892 1.558274 -2.120392 2.120774 C -1.557892 2.683274 -0.796173 2.999681 0.000701904 2.999681 Z M 0.000701904 2.999681 " transform="matrix(1.333333,0,0,1.333333,309.831095,17.836363)"/>
<path style="fill:none;stroke-width:0.8;stroke-linecap:square;stroke-linejoin:miter;stroke:rgb(0%,0%,0%);stroke-opacity:1;stroke-miterlimit:4;" d="M 48.981445 143.100586 L 48.981445 7.201172 " transform="matrix(1.333333,0,0,1.333333,0,0)"/>
<path style="fill:none;stroke-width:0.8;stroke-linecap:square;stroke-linejoin:miter;stroke:rgb(0%,0%,0%);stroke-opacity:1;stroke-miterlimit:4;" d="M 244.283203 143.100586 L 244.283203 7.201172 " transform="matrix(1.333333,0,0,1.333333,0,0)"/>
<path style="fill:none;stroke-width:0.8;stroke-linecap:square;stroke-linejoin:miter;stroke:rgb(0%,0%,0%);stroke-opacity:1;stroke-miterlimit:4;" d="M 48.981445 143.100586 L 244.283203 143.100586 " transform="matrix(1.333333,0,0,1.333333,0,0)"/>
<path style="fill:none;stroke-width:0.8;stroke-linecap:square;stroke-linejoin:miter;stroke:rgb(0%,0%,0%);stroke-opacity:1;stroke-miterlimit:4;" d="M 48.981445 7.201172 L 244.283203 7.201172 " transform="matrix(1.333333,0,0,1.333333,0,0)"/>
</g>
</svg>
