<?xml version="1.0" encoding="UTF-8"?>
<svg xmlns="http://www.w3.org/2000/svg" xmlns:xlink="http://www.w3.org/1999/xlink" width="365.760457" height="240.875" viewBox="0 0 365.760457 240.875" version="1.1">
<defs>
<clipPath id="clip1">
  <path d="M 99 18 L 110 18 L 110 190.800781 L 99 190.800781 Z M 99 18 "/>
</clipPath>
<clipPath id="clip2">
  <path d="M 124 92 L 134 92 L 134 190.800781 L 124 190.800781 Z M 124 92 "/>
</clipPath>
<clipPath id="clip3">
  <path d="M 148 184 L 158 184 L 158 190.800781 L 148 190.800781 Z M 148 184 "/>
</clipPath>
<clipPath id="clip4">
  <path d="M 172 190 L 183 190 L 183 190.800781 L 172 190.800781 Z M 172 190 "/>
</clipPath>
<clipPath id="clip5">
  <path d="M 196 190 L 207 190 L 207 190.800781 L 196 190.800781 Z M 196 190 "/>
</clipPath>
<clipPath id="clip6">
  <path d="M 220 190 L 231 190 L 231 190.800781 L 220 190.800781 Z M 220 190 "/>
</clipPath>
<clipPath id="clip7">
  <path d="M 244 190 L 255 190 L 255 190.800781 L 244 190.800781 Z M 244 190 "/>
</clipPath>
<clipPath id="clip8">
  <path d="M 269 190 L 279 190 L 279 190.800781 L 269 190.800781 Z M 269 190 "/>
</clipPath>
<clipPath id="clip9">
  <path d="M 293 190 L 303 190 L 303 190.800781 L 293 190.800781 Z M 293 190 "/>
</clipPath>
<clipPath id="clip10">
  <path d="M 109 35 L 120 35 L 120 190.800781 L 109 190.800781 Z M 109 35 "/>
</clipPath>
<clipPath id="clip11">
  <rect x="0" y="0" width="96" height="96"/>
</clipPath>
<g id="surface5" clip-path="url(#clip11)">
<rect x="0" y="0" width="96" height="96" style="fill:rgb(100%,49.803922%,5.490196%);fill-opacity:1;stroke:none;"/>
<path style="fill-rule:nonzero;fill:rgb(0%,0%,0%);fill-opacity:1;stroke-width:1;stroke-linecap:butt;stroke-linejoin:miter;stroke:rgb(0%,0%,0%);stroke-opacity:1;stroke-miterlimit:4;" d="M -36 36 L 36 -36 M -24 48 L 48 -24 M -12 60 L 60 -12 M 0 72 L 72 0 M 12 84 L 84 12 M 24 96 L 96 24 M 36 108 L 108 36 " transform="matrix(1.333333,0,0,1.333333,0,0)"/>
</g>
<pattern id="pattern0" patternUnits="userSpaceOnUse" width="96" height="96">
<use xlink:href="#surface5"/>
</pattern>
<clipPath id="clip12">
  <path d="M 133 79 L 144 79 L 144 190.800781 L 133 190.800781 Z M 133 79 "/>
</clipPath>
<clipPath id="clip13">
  <rect x="0" y="0" width="96" height="96"/>
</clipPath>
<g id="surface8" clip-path="url(#clip13)">
<rect x="0" y="0" width="96" height="96" style="fill:rgb(100%,49.803922%,5.490196%);fill-opacity:1;stroke:none;"/>
<path style="fill-rule:nonzero;fill:rgb(0%,0%,0%);fill-opacity:1;stroke-width:1;stroke-linecap:butt;stroke-linejoin:miter;stroke:rgb(0%,0%,0%);stroke-opacity:1;stroke-miterlimit:4;" d="M -36 36 L 36 -36 M -24 48 L 48 -24 M -12 60 L 60 -12 M 0 72 L 72 0 M 12 84 L 84 12 M 24 96 L 96 24 M 36 108 L 108 36 " transform="matrix(1.333333,0,0,1.333333,0,0)"/>
</g>
<pattern id="pattern1" patternUnits="userSpaceOnUse" width="96" height="96">
<use xlink:href="#surface8"/>
</pattern>
<clipPath id="clip14">
  <path d="M 157 181 L 168 181 L 168 190.800781 L 157 190.800781 Z M 157 181 "/>
</clipPath>
<clipPath id="clip15">
  <rect x="0" y="0" width="96" height="96"/>
</clipPath>
<g id="surface11" clip-path="url(#clip15)">
<rect x="0" y="0" width="96" height="96" style="fill:rgb(100%,49.803922%,5.490196%);fill-opacity:1;stroke:none;"/>
<path style="fill-rule:nonzero;fill:rgb(0%,0%,0%);fill-opacity:1;stroke-width:1;stroke-linecap:butt;stroke-linejoin:miter;stroke:rgb(0%,0%,0%);stroke-opacity:1;stroke-miterlimit:4;" d="M -36 36 L 36 -36 M -24 48 L 48 -24 M -12 60 L 60 -12 M 0 72 L 72 0 M 12 84 L 84 12 M 24 96 L 96 24 M 36 108 L 108 36 " transform="matrix(1.333333,0,0,1.333333,0,0)"/>
</g>
<pattern id="pattern2" patternUnits="userSpaceOnUse" width="96" height="96">
<use xlink:href="#surface11"/>
</pattern>
<clipPath id="clip16">
  <path d="M 182 189 L 192 189 L 192 190.800781 L 182 190.800781 Z M 182 189 "/>
</clipPath>
<clipPath id="clip17">
  <rect x="0" y="0" width="96" height="96"/>
</clipPath>
<g id="surface14" clip-path="url(#clip17)">
<rect x="0" y="0" width="96" height="96" style="fill:rgb(100%,49.803922%,5.490196%);fill-opacity:1;stroke:none;"/>
<path style="fill-rule:nonzero;fill:rgb(0%,0%,0%);fill-opacity:1;stroke-width:1;stroke-linecap:butt;stroke-linejoin:miter;stroke:rgb(0%,0%,0%);stroke-opacity:1;stroke-miterlimit:4;" d="M -36 36 L 36 -36 M -24 48 L 48 -24 M -12 60 L 60 -12 M 0 72 L 72 0 M 12 84 L 84 12 M 24 96 L 96 24 M 36 108 L 108 36 " transform="matrix(1.333333,0,0,1.333333,0,0)"/>
</g>
<pattern id="pattern3" patternUnits="userSpaceOnUse" width="96" height="96">
<use xlink:href="#surface14"/>
</pattern>
<clipPath id="clip18">
  <path d="M 206 190 L 216 190 L 216 190.800781 L 206 190.800781 Z M 206 190 "/>
</clipPath>
<clipPath id="clip19">
  <rect x="0" y="0" width="96" height="96"/>
</clipPath>
<g id="surface17" clip-path="url(#clip19)">
<rect x="0" y="0" width="96" height="96" style="fill:rgb(100%,49.803922%,5.490196%);fill-opacity:1;stroke:none;"/>
<path style="fill-rule:nonzero;fill:rgb(0%,0%,0%);fill-opacity:1;stroke-width:1;stroke-linecap:butt;stroke-linejoin:miter;stroke:rgb(0%,0%,0%);stroke-opacity:1;stroke-miterlimit:4;" d="M -36 36 L 36 -36 M -24 48 L 48 -24 M -12 60 L 60 -12 M 0 72 L 72 0 M 12 84 L 84 12 M 24 96 L 96 24 M 36 108 L 108 36 " transform="matrix(1.333333,0,0,1.333333,0,0)"/>
</g>
<pattern id="pattern4" patternUnits="userSpaceOnUse" width="96" height="96">
<use xlink:href="#surface17"/>
</pattern>
<clipPath id="clip20">
  <path d="M 230 190 L 241 190 L 241 190.800781 L 230 190.800781 Z M 230 190 "/>
</clipPath>
<clipPath id="clip21">
  <rect x="0" y="0" width="96" height="96"/>
</clipPath>
<g id="surface20" clip-path="url(#clip21)">
<rect x="0" y="0" width="96" height="96" style="fill:rgb(100%,49.803922%,5.490196%);fill-opacity:1;stroke:none;"/>
<path style="fill-rule:nonzero;fill:rgb(0%,0%,0%);fill-opacity:1;stroke-width:1;stroke-linecap:butt;stroke-linejoin:miter;stroke:rgb(0%,0%,0%);stroke-opacity:1;stroke-miterlimit:4;" d="M -36 36 L 36 -36 M -24 48 L 48 -24 M -12 60 L 60 -12 M 0 72 L 72 0 M 12 84 L 84 12 M 24 96 L 96 24 M 36 108 L 108 36 " transform="matrix(1.333333,0,0,1.333333,0,0)"/>
</g>
<pattern id="pattern5" patternUnits="userSpaceOnUse" width="96" height="96">
<use xlink:href="#surface20"/>
</pattern>
<filter id="alpha" filterUnits="objectBoundingBox" x="0%" y="0%" width="100%" height="100%">
  <feColorMatrix type="matrix" in="SourceGraphic" values="0 0 0 0 1 0 0 0 0 1 0 0 0 0 1 0 0 0 1 0"/>
</filter>
<mask id="mask0">
  <g filter="url(#alpha)">
<rect x="0" y="0" width="365.760457" height="240.875" style="fill:rgb(0%,0%,0%);fill-opacity:0.8;stroke:none;"/>
  </g>
</mask>
<clipPath id="clip22">
  <rect x="0" y="0" width="366" height="241"/>
</clipPath>
<g id="surface23" clip-path="url(#clip22)">
<path style="fill-rule:nonzero;fill:rgb(100%,100%,100%);fill-opacity:1;stroke-width:1;stroke-linecap:butt;stroke-linejoin:miter;stroke:rgb(80.000001%,80.000001%,80.000001%);stroke-opacity:1;stroke-miterlimit:4;" d="M 189.149414 44.557617 L 254.352539 44.557617 C 255.685547 44.557617 256.353516 43.889648 256.353516 42.556641 L 256.353516 14.200195 C 256.353516 12.867188 255.685547 12.199219 254.352539 12.199219 L 189.149414 12.199219 C 187.816406 12.199219 187.151367 12.867188 187.151367 14.200195 L 187.151367 42.556641 C 187.151367 43.889648 187.816406 44.557617 189.149414 44.557617 Z M 189.149414 44.557617 " transform="matrix(1.333333,0,0,1.333333,0,0)"/>
</g>
<clipPath id="clip23">
  <rect x="0" y="0" width="96" height="96"/>
</clipPath>
<g id="surface26" clip-path="url(#clip23)">
<rect x="0" y="0" width="96" height="96" style="fill:rgb(100%,49.803922%,5.490196%);fill-opacity:1;stroke:none;"/>
<path style="fill-rule:nonzero;fill:rgb(0%,0%,0%);fill-opacity:1;stroke-width:1;stroke-linecap:butt;stroke-linejoin:miter;stroke:rgb(0%,0%,0%);stroke-opacity:1;stroke-miterlimit:4;" d="M -36 36 L 36 -36 M -24 48 L 48 -24 M -12 60 L 60 -12 M 0 72 L 72 0 M 12 84 L 84 12 M 24 96 L 96 24 M 36 108 L 108 36 " transform="matrix(1.333333,0,0,1.333333,0,0)"/>
</g>
<pattern id="pattern6" patternUnits="userSpaceOnUse" width="96" height="96">
<use xlink:href="#surface26"/>
</pattern>
</defs>
<g id="surface1">
<path style=" stroke:none;fill-rule:nonzero;fill:rgb(100%,100%,100%);fill-opacity:1;" d="M 88.070312 190.800781 L 348.472656 190.800781 L 348.472656 9.601562 L 88.070312 9.601562 Z M 88.070312 190.800781 "/>
<g clip-path="url(#clip1)" clip-rule="nonzero">
<path style=" stroke:none;fill-rule:nonzero;fill:rgb(12.156863%,46.666667%,70.588237%);fill-opacity:1;" d="M 99.90625 190.800781 L 109.570312 190.800781 L 109.570312 18.230469 L 99.90625 18.230469 Z M 99.90625 190.800781 "/>
</g>
<g clip-path="url(#clip2)" clip-rule="nonzero">
<path style=" stroke:none;fill-rule:nonzero;fill:rgb(12.156863%,46.666667%,70.588237%);fill-opacity:1;" d="M 124.0625 190.800781 L 133.726562 190.800781 L 133.726562 92.152344 L 124.0625 92.152344 Z M 124.0625 190.800781 "/>
</g>
<g clip-path="url(#clip3)" clip-rule="nonzero">
<path style=" stroke:none;fill-rule:nonzero;fill:rgb(12.156863%,46.666667%,70.588237%);fill-opacity:1;" d="M 148.21875 190.800781 L 157.882812 190.800781 L 157.882812 184.746094 L 148.21875 184.746094 Z M 148.21875 190.800781 "/>
</g>
<g clip-path="url(#clip4)" clip-rule="nonzero">
<path style=" stroke:none;fill-rule:nonzero;fill:rgb(12.156863%,46.666667%,70.588237%);fill-opacity:1;" d="M 172.375 190.800781 L 182.035156 190.800781 L 182.035156 190.203125 L 172.375 190.203125 Z M 172.375 190.800781 "/>
</g>
<g clip-path="url(#clip5)" clip-rule="nonzero">
<path style=" stroke:none;fill-rule:nonzero;fill:rgb(12.156863%,46.666667%,70.588237%);fill-opacity:1;" d="M 196.53125 190.800781 L 206.191406 190.800781 L 206.191406 190.726562 L 196.53125 190.726562 Z M 196.53125 190.800781 "/>
</g>
<g clip-path="url(#clip6)" clip-rule="nonzero">
<path style=" stroke:none;fill-rule:nonzero;fill:rgb(12.156863%,46.666667%,70.588237%);fill-opacity:1;" d="M 220.6875 190.800781 L 230.347656 190.800781 L 230.347656 190.777344 L 220.6875 190.777344 Z M 220.6875 190.800781 "/>
</g>
<g clip-path="url(#clip7)" clip-rule="nonzero">
<path style=" stroke:none;fill-rule:nonzero;fill:rgb(12.156863%,46.666667%,70.588237%);fill-opacity:1;" d="M 244.84375 190.800781 L 254.503906 190.800781 L 254.503906 190.789062 L 244.84375 190.789062 Z M 244.84375 190.800781 "/>
</g>
<g clip-path="url(#clip8)" clip-rule="nonzero">
<path style=" stroke:none;fill-rule:nonzero;fill:rgb(12.156863%,46.666667%,70.588237%);fill-opacity:1;" d="M 269 190.800781 L 278.660156 190.800781 L 278.660156 190.796875 L 269 190.796875 Z M 269 190.800781 "/>
</g>
<g clip-path="url(#clip9)" clip-rule="nonzero">
<path style=" stroke:none;fill-rule:nonzero;fill:rgb(12.156863%,46.666667%,70.588237%);fill-opacity:1;" d="M 293.152344 190.800781 L 302.816406 190.800781 L 302.816406 190.796875 L 293.152344 190.796875 Z M 293.152344 190.800781 "/>
</g>
<g clip-path="url(#clip10)" clip-rule="nonzero">
<path style=" stroke:none;fill-rule:nonzero;fill:url(#pattern0);" d="M 109.570312 190.800781 L 119.230469 190.800781 L 119.230469 35.195312 L 109.570312 35.195312 Z M 109.570312 190.800781 "/>
</g>
<g clip-path="url(#clip12)" clip-rule="nonzero">
<path style=" stroke:none;fill-rule:nonzero;fill:url(#pattern1);" d="M 133.726562 190.800781 L 143.386719 190.800781 L 143.386719 79.273438 L 133.726562 79.273438 Z M 133.726562 190.800781 "/>
</g>
<g clip-path="url(#clip14)" clip-rule="nonzero">
<path style=" stroke:none;fill-rule:nonzero;fill:url(#pattern2);" d="M 157.882812 190.800781 L 167.542969 190.800781 L 167.542969 181.394531 L 157.882812 181.394531 Z M 157.882812 190.800781 "/>
</g>
<g clip-path="url(#clip16)" clip-rule="nonzero">
<path style=" stroke:none;fill-rule:nonzero;fill:url(#pattern3);" d="M 182.035156 190.800781 L 191.699219 190.800781 L 191.699219 189.570312 L 182.035156 189.570312 Z M 182.035156 190.800781 "/>
</g>
<g clip-path="url(#clip18)" clip-rule="nonzero">
<path style=" stroke:none;fill-rule:nonzero;fill:url(#pattern4);" d="M 206.191406 190.800781 L 215.855469 190.800781 L 215.855469 190.660156 L 206.191406 190.660156 Z M 206.191406 190.800781 "/>
</g>
<g clip-path="url(#clip20)" clip-rule="nonzero">
<path style=" stroke:none;fill-rule:nonzero;fill:url(#pattern5);" d="M 230.347656 190.800781 L 240.011719 190.800781 L 240.011719 190.746094 L 230.347656 190.746094 Z M 230.347656 190.800781 "/>
</g>
<path style="fill:none;stroke-width:0.8;stroke-linecap:butt;stroke-linejoin:round;stroke:rgb(0%,0%,0%);stroke-opacity:1;stroke-miterlimit:4;" d="M -0.000930786 0.000579834 L -0.000930786 3.498627 " transform="matrix(1.333333,0,0,1.333333,88.864522,190.800008)"/>
<path style=" stroke:none;fill-rule:nonzero;fill:rgb(0%,0%,0%);fill-opacity:1;" d="M 88.859375 201.410156 C 88.183594 201.410156 87.675781 201.742188 87.332031 202.410156 C 86.992188 203.074219 86.824219 204.078125 86.824219 205.414062 C 86.824219 206.746094 86.992188 207.746094 87.332031 208.414062 C 87.675781 209.078125 88.183594 209.414062 88.859375 209.414062 C 89.542969 209.414062 90.054688 209.078125 90.394531 208.414062 C 90.734375 207.746094 90.90625 206.746094 90.90625 205.414062 C 90.90625 204.078125 90.734375 203.074219 90.394531 202.410156 C 90.054688 201.742188 89.542969 201.410156 88.859375 201.410156 Z M 88.859375 200.367188 C 89.949219 200.367188 90.785156 200.800781 91.359375 201.664062 C 91.933594 202.523438 92.222656 203.773438 92.222656 205.414062 C 92.222656 207.050781 91.933594 208.300781 91.359375 209.164062 C 90.785156 210.023438 89.949219 210.453125 88.859375 210.453125 C 87.769531 210.453125 86.941406 210.023438 86.363281 209.164062 C 85.789062 208.300781 85.503906 207.050781 85.503906 205.414062 C 85.503906 203.773438 85.789062 202.523438 86.363281 201.664062 C 86.941406 200.800781 87.769531 200.367188 88.859375 200.367188 Z M 88.859375 200.367188 "/>
<path style="fill:none;stroke-width:0.8;stroke-linecap:butt;stroke-linejoin:round;stroke:rgb(0%,0%,0%);stroke-opacity:1;stroke-miterlimit:4;" d="M 0.000991821 0.000579834 L 0.000991821 3.498627 " transform="matrix(1.333333,0,0,1.333333,175.135396,190.800008)"/>
<path style=" stroke:none;fill-rule:nonzero;fill:rgb(0%,0%,0%);fill-opacity:1;" d="M 169.210938 209.160156 L 173.800781 209.160156 L 173.800781 210.265625 L 167.628906 210.265625 L 167.628906 209.160156 C 168.128906 208.640625 168.808594 207.949219 169.667969 207.078125 C 170.53125 206.207031 171.074219 205.648438 171.292969 205.394531 C 171.714844 204.921875 172.007812 204.523438 172.175781 204.195312 C 172.34375 203.867188 172.425781 203.542969 172.425781 203.226562 C 172.425781 202.710938 172.246094 202.289062 171.882812 201.964844 C 171.519531 201.636719 171.046875 201.476562 170.464844 201.476562 C 170.054688 201.476562 169.617188 201.546875 169.160156 201.691406 C 168.703125 201.832031 168.214844 202.050781 167.695312 202.339844 L 167.695312 201.011719 C 168.222656 200.800781 168.71875 200.640625 169.175781 200.53125 C 169.636719 200.421875 170.058594 200.367188 170.441406 200.367188 C 171.449219 200.367188 172.25 200.621094 172.851562 201.125 C 173.449219 201.628906 173.746094 202.300781 173.746094 203.140625 C 173.746094 203.542969 173.671875 203.921875 173.523438 204.277344 C 173.375 204.636719 173.101562 205.058594 172.707031 205.542969 C 172.597656 205.671875 172.253906 206.035156 171.671875 206.636719 C 171.089844 207.238281 170.269531 208.078125 169.210938 209.160156 Z M 169.210938 209.160156 "/>
<path style=" stroke:none;fill-rule:nonzero;fill:rgb(0%,0%,0%);fill-opacity:1;" d="M 179.371094 201.410156 C 178.695312 201.410156 178.1875 201.742188 177.84375 202.410156 C 177.503906 203.074219 177.335938 204.078125 177.335938 205.414062 C 177.335938 206.746094 177.503906 207.746094 177.84375 208.414062 C 178.1875 209.078125 178.695312 209.414062 179.371094 209.414062 C 180.054688 209.414062 180.566406 209.078125 180.90625 208.414062 C 181.246094 207.746094 181.417969 206.746094 181.417969 205.414062 C 181.417969 204.078125 181.246094 203.074219 180.90625 202.410156 C 180.566406 201.742188 180.054688 201.410156 179.371094 201.410156 Z M 179.371094 200.367188 C 180.464844 200.367188 181.296875 200.800781 181.871094 201.664062 C 182.445312 202.523438 182.734375 203.773438 182.734375 205.414062 C 182.734375 207.050781 182.445312 208.300781 181.871094 209.164062 C 181.296875 210.023438 180.464844 210.453125 179.371094 210.453125 C 178.285156 210.453125 177.453125 210.023438 176.875 209.164062 C 176.300781 208.300781 176.015625 207.050781 176.015625 205.414062 C 176.015625 203.773438 176.300781 202.523438 176.875 201.664062 C 177.453125 200.800781 178.285156 200.367188 179.371094 200.367188 Z M 179.371094 200.367188 "/>
<path style="fill:none;stroke-width:0.8;stroke-linecap:butt;stroke-linejoin:round;stroke:rgb(0%,0%,0%);stroke-opacity:1;stroke-miterlimit:4;" d="M -0.0000152588 0.000579834 L -0.0000152588 3.498627 " transform="matrix(1.333333,0,0,1.333333,261.40627,190.800008)"/>
<path style=" stroke:none;fill-rule:nonzero;fill:rgb(0%,0%,0%);fill-opacity:1;" d="M 257.960938 201.691406 L 254.640625 206.878906 L 257.960938 206.878906 Z M 257.617188 200.542969 L 259.269531 200.542969 L 259.269531 206.878906 L 260.660156 206.878906 L 260.660156 207.972656 L 259.269531 207.972656 L 259.269531 210.265625 L 257.960938 210.265625 L 257.960938 207.972656 L 253.574219 207.972656 L 253.574219 206.703125 Z M 257.617188 200.542969 "/>
<path style=" stroke:none;fill-rule:nonzero;fill:rgb(0%,0%,0%);fill-opacity:1;" d="M 265.644531 201.410156 C 264.96875 201.410156 264.457031 201.742188 264.117188 202.410156 C 263.777344 203.074219 263.605469 204.078125 263.605469 205.414062 C 263.605469 206.746094 263.777344 207.746094 264.117188 208.414062 C 264.457031 209.078125 264.96875 209.414062 265.644531 209.414062 C 266.324219 209.414062 266.835938 209.078125 267.175781 208.414062 C 267.519531 207.746094 267.6875 206.746094 267.6875 205.414062 C 267.6875 204.078125 267.519531 203.074219 267.175781 202.410156 C 266.835938 201.742188 266.324219 201.410156 265.644531 201.410156 Z M 265.644531 200.367188 C 266.734375 200.367188 267.566406 200.800781 268.140625 201.664062 C 268.714844 202.523438 269.003906 203.773438 269.003906 205.414062 C 269.003906 207.050781 268.714844 208.300781 268.140625 209.164062 C 267.566406 210.023438 266.734375 210.453125 265.644531 210.453125 C 264.554688 210.453125 263.722656 210.023438 263.148438 209.164062 C 262.574219 208.300781 262.285156 207.050781 262.285156 205.414062 C 262.285156 203.773438 262.574219 202.523438 263.148438 201.664062 C 263.722656 200.800781 264.554688 200.367188 265.644531 200.367188 Z M 265.644531 200.367188 "/>
<path style="fill:none;stroke-width:0.8;stroke-linecap:butt;stroke-linejoin:round;stroke:rgb(0%,0%,0%);stroke-opacity:1;stroke-miterlimit:4;" d="M -0.00100708 0.000579834 L -0.00100708 3.498627 " transform="matrix(1.333333,0,0,1.333333,347.677124,190.800008)"/>
<path style=" stroke:none;fill-rule:nonzero;fill:rgb(0%,0%,0%);fill-opacity:1;" d="M 343.597656 204.882812 C 343.003906 204.882812 342.539062 205.082031 342.191406 205.488281 C 341.847656 205.890625 341.675781 206.441406 341.675781 207.144531 C 341.675781 207.84375 341.847656 208.398438 342.191406 208.804688 C 342.539062 209.210938 343.003906 209.414062 343.597656 209.414062 C 344.1875 209.414062 344.652344 209.210938 344.996094 208.804688 C 345.34375 208.398438 345.515625 207.84375 345.515625 207.144531 C 345.515625 206.441406 345.34375 205.890625 344.996094 205.488281 C 344.652344 205.082031 344.1875 204.882812 343.597656 204.882812 Z M 346.207031 200.757812 L 346.207031 201.957031 C 345.875 201.800781 345.542969 201.683594 345.207031 201.601562 C 344.871094 201.515625 344.535156 201.476562 344.207031 201.476562 C 343.339844 201.476562 342.675781 201.769531 342.214844 202.355469 C 341.761719 202.941406 341.5 203.824219 341.433594 205.011719 C 341.6875 204.632812 342.011719 204.34375 342.394531 204.140625 C 342.785156 203.941406 343.210938 203.839844 343.671875 203.839844 C 344.648438 203.839844 345.421875 204.136719 345.988281 204.730469 C 346.554688 205.320312 346.835938 206.125 346.835938 207.144531 C 346.835938 208.144531 346.542969 208.945312 345.953125 209.550781 C 345.363281 210.152344 344.578125 210.453125 343.597656 210.453125 C 342.472656 210.453125 341.609375 210.023438 341.015625 209.164062 C 340.421875 208.300781 340.125 207.050781 340.125 205.414062 C 340.125 203.878906 340.488281 202.652344 341.21875 201.738281 C 341.949219 200.824219 342.925781 200.367188 344.152344 200.367188 C 344.484375 200.367188 344.816406 200.402344 345.152344 200.464844 C 345.492188 200.53125 345.839844 200.628906 346.207031 200.757812 Z M 346.207031 200.757812 "/>
<path style=" stroke:none;fill-rule:nonzero;fill:rgb(0%,0%,0%);fill-opacity:1;" d="M 351.914062 201.410156 C 351.238281 201.410156 350.730469 201.742188 350.386719 202.410156 C 350.046875 203.074219 349.875 204.078125 349.875 205.414062 C 349.875 206.746094 350.046875 207.746094 350.386719 208.414062 C 350.730469 209.078125 351.238281 209.414062 351.914062 209.414062 C 352.597656 209.414062 353.109375 209.078125 353.449219 208.414062 C 353.789062 207.746094 353.960938 206.746094 353.960938 205.414062 C 353.960938 204.078125 353.789062 203.074219 353.449219 202.410156 C 353.109375 201.742188 352.597656 201.410156 351.914062 201.410156 Z M 351.914062 200.367188 C 353.003906 200.367188 353.835938 200.800781 354.414062 201.664062 C 354.988281 202.523438 355.273438 203.773438 355.273438 205.414062 C 355.273438 207.050781 354.988281 208.300781 354.414062 209.164062 C 353.835938 210.023438 353.003906 210.453125 351.914062 210.453125 C 350.824219 210.453125 349.992188 210.023438 349.417969 209.164062 C 348.84375 208.300781 348.554688 207.050781 348.554688 205.414062 C 348.554688 203.773438 348.84375 202.523438 349.417969 201.664062 C 349.992188 200.800781 350.824219 200.367188 351.914062 200.367188 Z M 351.914062 200.367188 "/>
<path style=" stroke:none;fill-rule:nonzero;fill:rgb(0%,0%,0%);fill-opacity:1;" d="M 147.832031 222.636719 L 145.9375 222.636719 L 145.390625 224.808594 L 147.296875 224.808594 Z M 146.855469 218.929688 L 146.175781 221.632812 L 148.078125 221.632812 L 148.761719 218.929688 L 149.804688 218.929688 L 149.132812 221.632812 L 151.164062 221.632812 L 151.164062 222.636719 L 148.878906 222.636719 L 148.347656 224.808594 L 150.417969 224.808594 L 150.417969 225.804688 L 148.089844 225.804688 L 147.414062 228.503906 L 146.371094 228.503906 L 147.042969 225.804688 L 145.136719 225.804688 L 144.464844 228.503906 L 143.417969 228.503906 L 144.09375 225.804688 L 142.042969 225.804688 L 142.042969 224.808594 L 144.335938 224.808594 L 144.882812 222.636719 L 142.785156 222.636719 L 142.785156 221.632812 L 145.136719 221.632812 L 145.800781 218.929688 Z M 146.855469 218.929688 "/>
<path style=" stroke:none;fill-rule:nonzero;fill:rgb(0%,0%,0%);fill-opacity:1;" d="M 158.867188 219.140625 L 158.867188 221.210938 L 161.332031 221.210938 L 161.332031 222.140625 L 158.867188 222.140625 L 158.867188 226.101562 C 158.867188 226.695312 158.949219 227.078125 159.109375 227.246094 C 159.273438 227.414062 159.605469 227.5 160.105469 227.5 L 161.332031 227.5 L 161.332031 228.503906 L 160.105469 228.503906 C 159.179688 228.503906 158.539062 228.328125 158.1875 227.984375 C 157.839844 227.640625 157.664062 227.011719 157.664062 226.101562 L 157.664062 222.140625 L 156.78125 222.140625 L 156.78125 221.210938 L 157.664062 221.210938 L 157.664062 219.140625 Z M 158.867188 219.140625 "/>
<path style=" stroke:none;fill-rule:nonzero;fill:rgb(0%,0%,0%);fill-opacity:1;" d="M 165.734375 222.050781 C 165.09375 222.050781 164.585938 222.300781 164.210938 222.800781 C 163.835938 223.304688 163.652344 223.992188 163.652344 224.863281 C 163.652344 225.734375 163.835938 226.421875 164.207031 226.921875 C 164.578125 227.425781 165.089844 227.675781 165.734375 227.675781 C 166.371094 227.675781 166.878906 227.421875 167.25 226.921875 C 167.625 226.417969 167.8125 225.730469 167.8125 224.863281 C 167.8125 224 167.625 223.3125 167.25 222.808594 C 166.878906 222.304688 166.371094 222.050781 165.734375 222.050781 Z M 165.734375 221.035156 C 166.777344 221.035156 167.59375 221.375 168.1875 222.050781 C 168.785156 222.726562 169.082031 223.664062 169.082031 224.863281 C 169.082031 226.054688 168.785156 226.992188 168.1875 227.671875 C 167.59375 228.351562 166.777344 228.691406 165.734375 228.691406 C 164.6875 228.691406 163.867188 228.351562 163.277344 227.671875 C 162.683594 226.992188 162.386719 226.054688 162.386719 224.863281 C 162.386719 223.664062 162.683594 222.726562 163.277344 222.050781 C 163.867188 221.375 164.6875 221.035156 165.734375 221.035156 Z M 165.734375 221.035156 "/>
<path style=" stroke:none;fill-rule:nonzero;fill:rgb(0%,0%,0%);fill-opacity:1;" d="M 171.019531 218.371094 L 172.226562 218.371094 L 172.226562 224.355469 L 175.800781 221.210938 L 177.328125 221.210938 L 173.460938 224.621094 L 177.492188 228.503906 L 175.929688 228.503906 L 172.226562 224.941406 L 172.226562 228.503906 L 171.019531 228.503906 Z M 171.019531 218.371094 "/>
<path style=" stroke:none;fill-rule:nonzero;fill:rgb(0%,0%,0%);fill-opacity:1;" d="M 184.542969 224.554688 L 184.542969 225.140625 L 179.035156 225.140625 C 179.085938 225.964844 179.335938 226.59375 179.78125 227.027344 C 180.222656 227.460938 180.84375 227.675781 181.636719 227.675781 C 182.097656 227.675781 182.542969 227.617188 182.976562 227.507812 C 183.40625 227.394531 183.835938 227.222656 184.261719 226.996094 L 184.261719 228.132812 C 183.832031 228.3125 183.390625 228.453125 182.941406 228.546875 C 182.488281 228.644531 182.03125 228.691406 181.566406 228.691406 C 180.402344 228.691406 179.480469 228.351562 178.800781 227.675781 C 178.125 227 177.785156 226.082031 177.785156 224.925781 C 177.785156 223.734375 178.105469 222.789062 178.75 222.085938 C 179.394531 221.386719 180.265625 221.035156 181.359375 221.035156 C 182.339844 221.035156 183.113281 221.351562 183.6875 221.984375 C 184.257812 222.613281 184.542969 223.472656 184.542969 224.554688 Z M 183.34375 224.203125 C 183.335938 223.550781 183.152344 223.027344 182.792969 222.636719 C 182.4375 222.246094 181.960938 222.050781 181.371094 222.050781 C 180.703125 222.050781 180.167969 222.238281 179.765625 222.617188 C 179.367188 222.996094 179.132812 223.527344 179.074219 224.210938 Z M 183.34375 224.203125 "/>
<path style=" stroke:none;fill-rule:nonzero;fill:rgb(0%,0%,0%);fill-opacity:1;" d="M 192.570312 224.101562 L 192.570312 228.503906 L 191.371094 228.503906 L 191.371094 224.140625 C 191.371094 223.449219 191.238281 222.933594 190.96875 222.589844 C 190.699219 222.25 190.296875 222.078125 189.757812 222.078125 C 189.109375 222.078125 188.601562 222.285156 188.226562 222.695312 C 187.851562 223.105469 187.664062 223.667969 187.664062 224.382812 L 187.664062 228.503906 L 186.460938 228.503906 L 186.460938 221.210938 L 187.664062 221.210938 L 187.664062 222.34375 C 187.953125 221.90625 188.289062 221.578125 188.679688 221.359375 C 189.066406 221.144531 189.515625 221.035156 190.023438 221.035156 C 190.863281 221.035156 191.496094 221.292969 191.925781 221.8125 C 192.355469 222.332031 192.570312 223.09375 192.570312 224.101562 Z M 192.570312 224.101562 "/>
<path style=" stroke:none;fill-rule:nonzero;fill:rgb(0%,0%,0%);fill-opacity:1;" d="M 199.605469 221.425781 L 199.605469 222.558594 C 199.269531 222.382812 198.917969 222.253906 198.550781 222.167969 C 198.1875 222.082031 197.808594 222.039062 197.417969 222.039062 C 196.824219 222.039062 196.378906 222.128906 196.082031 222.308594 C 195.785156 222.492188 195.636719 222.765625 195.636719 223.132812 C 195.636719 223.410156 195.742188 223.628906 195.953125 223.785156 C 196.167969 223.945312 196.59375 224.09375 197.238281 224.238281 L 197.648438 224.328125 C 198.496094 224.511719 199.101562 224.769531 199.460938 225.101562 C 199.820312 225.433594 199.996094 225.894531 199.996094 226.488281 C 199.996094 227.167969 199.730469 227.703125 199.195312 228.101562 C 198.65625 228.496094 197.921875 228.691406 196.984375 228.691406 C 196.59375 228.691406 196.1875 228.652344 195.761719 228.578125 C 195.339844 228.5 194.894531 228.386719 194.425781 228.234375 L 194.425781 226.996094 C 194.867188 227.226562 195.304688 227.402344 195.734375 227.515625 C 196.164062 227.628906 196.589844 227.6875 197.011719 227.6875 C 197.574219 227.6875 198.007812 227.589844 198.308594 227.398438 C 198.613281 227.203125 198.765625 226.933594 198.765625 226.582031 C 198.765625 226.257812 198.65625 226.007812 198.4375 225.832031 C 198.21875 225.660156 197.738281 225.492188 196.996094 225.332031 L 196.578125 225.234375 C 195.835938 225.078125 195.300781 224.839844 194.96875 224.515625 C 194.640625 224.191406 194.476562 223.746094 194.476562 223.183594 C 194.476562 222.496094 194.71875 221.96875 195.207031 221.597656 C 195.691406 221.222656 196.382812 221.035156 197.277344 221.035156 C 197.71875 221.035156 198.132812 221.066406 198.523438 221.132812 C 198.917969 221.195312 199.277344 221.292969 199.605469 221.425781 Z M 199.605469 221.425781 "/>
<path style=" stroke:none;fill-rule:nonzero;fill:rgb(0%,0%,0%);fill-opacity:1;" d="M 207.300781 227.410156 L 207.300781 231.273438 L 206.097656 231.273438 L 206.097656 221.210938 L 207.300781 221.210938 L 207.300781 222.316406 C 207.554688 221.882812 207.871094 221.5625 208.253906 221.351562 C 208.640625 221.140625 209.097656 221.035156 209.632812 221.035156 C 210.519531 221.035156 211.238281 221.386719 211.789062 222.089844 C 212.34375 222.792969 212.621094 223.714844 212.621094 224.863281 C 212.621094 226.007812 212.34375 226.933594 211.789062 227.636719 C 211.238281 228.339844 210.519531 228.691406 209.632812 228.691406 C 209.097656 228.691406 208.640625 228.585938 208.253906 228.375 C 207.871094 228.164062 207.554688 227.839844 207.300781 227.410156 Z M 211.378906 224.863281 C 211.378906 223.980469 211.195312 223.289062 210.835938 222.789062 C 210.472656 222.289062 209.972656 222.039062 209.339844 222.039062 C 208.707031 222.039062 208.207031 222.289062 207.84375 222.789062 C 207.484375 223.289062 207.300781 223.980469 207.300781 224.863281 C 207.300781 225.742188 207.484375 226.433594 207.84375 226.933594 C 208.207031 227.4375 208.707031 227.6875 209.339844 227.6875 C 209.972656 227.6875 210.472656 227.4375 210.835938 226.933594 C 211.195312 226.433594 211.378906 225.742188 211.378906 224.863281 Z M 211.378906 224.863281 "/>
<path style=" stroke:none;fill-rule:nonzero;fill:rgb(0%,0%,0%);fill-opacity:1;" d="M 220.84375 224.554688 L 220.84375 225.140625 L 215.335938 225.140625 C 215.386719 225.964844 215.636719 226.59375 216.082031 227.027344 C 216.527344 227.460938 217.144531 227.675781 217.941406 227.675781 C 218.398438 227.675781 218.84375 227.617188 219.277344 227.507812 C 219.710938 227.394531 220.136719 227.222656 220.566406 226.996094 L 220.566406 228.132812 C 220.132812 228.3125 219.691406 228.453125 219.242188 228.546875 C 218.789062 228.644531 218.332031 228.691406 217.867188 228.691406 C 216.707031 228.691406 215.785156 228.351562 215.105469 227.675781 C 214.425781 227 214.085938 226.082031 214.085938 224.925781 C 214.085938 223.734375 214.40625 222.789062 215.050781 222.085938 C 215.695312 221.386719 216.566406 221.035156 217.660156 221.035156 C 218.640625 221.035156 219.417969 221.351562 219.988281 221.984375 C 220.558594 222.613281 220.84375 223.472656 220.84375 224.554688 Z M 219.644531 224.203125 C 219.636719 223.550781 219.453125 223.027344 219.097656 222.636719 C 218.738281 222.246094 218.261719 222.050781 217.671875 222.050781 C 217.003906 222.050781 216.46875 222.238281 216.070312 222.617188 C 215.667969 222.996094 215.4375 223.527344 215.375 224.210938 Z M 219.644531 224.203125 "/>
<path style=" stroke:none;fill-rule:nonzero;fill:rgb(0%,0%,0%);fill-opacity:1;" d="M 227.035156 222.328125 C 226.898438 222.25 226.753906 222.195312 226.59375 222.160156 C 226.4375 222.121094 226.261719 222.101562 226.070312 222.101562 C 225.394531 222.101562 224.875 222.320312 224.511719 222.761719 C 224.148438 223.203125 223.96875 223.835938 223.96875 224.660156 L 223.96875 228.503906 L 222.765625 228.503906 L 222.765625 221.210938 L 223.96875 221.210938 L 223.96875 222.34375 C 224.222656 221.902344 224.546875 221.570312 224.953125 221.359375 C 225.355469 221.144531 225.847656 221.035156 226.425781 221.035156 C 226.507812 221.035156 226.597656 221.039062 226.695312 221.050781 C 226.796875 221.0625 226.90625 221.078125 227.027344 221.101562 Z M 227.035156 222.328125 "/>
<path style=" stroke:none;fill-rule:nonzero;fill:rgb(0%,0%,0%);fill-opacity:1;" d="M 237.175781 221.425781 L 237.175781 222.558594 C 236.839844 222.382812 236.488281 222.253906 236.125 222.167969 C 235.757812 222.082031 235.382812 222.039062 234.988281 222.039062 C 234.394531 222.039062 233.949219 222.128906 233.652344 222.308594 C 233.355469 222.492188 233.207031 222.765625 233.207031 223.132812 C 233.207031 223.410156 233.3125 223.628906 233.527344 223.785156 C 233.738281 223.945312 234.164062 224.09375 234.808594 224.238281 L 235.21875 224.328125 C 236.070312 224.511719 236.671875 224.769531 237.03125 225.101562 C 237.390625 225.433594 237.570312 225.894531 237.570312 226.488281 C 237.570312 227.167969 237.300781 227.703125 236.765625 228.101562 C 236.230469 228.496094 235.492188 228.691406 234.554688 228.691406 C 234.164062 228.691406 233.757812 228.652344 233.332031 228.578125 C 232.910156 228.5 232.464844 228.386719 231.996094 228.234375 L 231.996094 226.996094 C 232.4375 227.226562 232.875 227.402344 233.304688 227.515625 C 233.734375 227.628906 234.160156 227.6875 234.582031 227.6875 C 235.144531 227.6875 235.578125 227.589844 235.882812 227.398438 C 236.1875 227.203125 236.339844 226.933594 236.339844 226.582031 C 236.339844 226.257812 236.226562 226.007812 236.007812 225.832031 C 235.789062 225.660156 235.308594 225.492188 234.566406 225.332031 L 234.152344 225.234375 C 233.410156 225.078125 232.871094 224.839844 232.542969 224.515625 C 232.214844 224.191406 232.046875 223.746094 232.046875 223.183594 C 232.046875 222.496094 232.292969 221.96875 232.777344 221.597656 C 233.265625 221.222656 233.953125 221.035156 234.847656 221.035156 C 235.289062 221.035156 235.707031 221.066406 236.097656 221.132812 C 236.488281 221.195312 236.847656 221.292969 237.175781 221.425781 Z M 237.175781 221.425781 "/>
<path style=" stroke:none;fill-rule:nonzero;fill:rgb(0%,0%,0%);fill-opacity:1;" d="M 245.714844 224.554688 L 245.714844 225.140625 L 240.207031 225.140625 C 240.257812 225.964844 240.507812 226.59375 240.953125 227.027344 C 241.394531 227.460938 242.015625 227.675781 242.808594 227.675781 C 243.269531 227.675781 243.714844 227.617188 244.148438 227.507812 C 244.578125 227.394531 245.007812 227.222656 245.433594 226.996094 L 245.433594 228.132812 C 245.003906 228.3125 244.5625 228.453125 244.113281 228.546875 C 243.660156 228.644531 243.203125 228.691406 242.738281 228.691406 C 241.574219 228.691406 240.652344 228.351562 239.972656 227.675781 C 239.296875 227 238.957031 226.082031 238.957031 224.925781 C 238.957031 223.734375 239.277344 222.789062 239.921875 222.085938 C 240.566406 221.386719 241.4375 221.035156 242.53125 221.035156 C 243.511719 221.035156 244.285156 221.351562 244.859375 221.984375 C 245.429688 222.613281 245.714844 223.472656 245.714844 224.554688 Z M 244.515625 224.203125 C 244.507812 223.550781 244.324219 223.027344 243.964844 222.636719 C 243.609375 222.246094 243.132812 222.050781 242.542969 222.050781 C 241.875 222.050781 241.339844 222.238281 240.9375 222.617188 C 240.539062 222.996094 240.304688 223.527344 240.246094 224.210938 Z M 244.515625 224.203125 "/>
<path style=" stroke:none;fill-rule:nonzero;fill:rgb(0%,0%,0%);fill-opacity:1;" d="M 248.394531 224.863281 C 248.394531 225.742188 248.578125 226.433594 248.941406 226.933594 C 249.300781 227.4375 249.800781 227.6875 250.433594 227.6875 C 251.066406 227.6875 251.566406 227.4375 251.929688 226.933594 C 252.292969 226.433594 252.476562 225.742188 252.476562 224.863281 C 252.476562 223.980469 252.292969 223.289062 251.929688 222.789062 C 251.566406 222.289062 251.066406 222.039062 250.433594 222.039062 C 249.800781 222.039062 249.300781 222.289062 248.941406 222.789062 C 248.578125 223.289062 248.394531 223.980469 248.394531 224.863281 Z M 252.476562 227.410156 C 252.226562 227.839844 251.90625 228.164062 251.523438 228.375 C 251.140625 228.585938 250.679688 228.691406 250.140625 228.691406 C 249.257812 228.691406 248.542969 228.339844 247.988281 227.636719 C 247.433594 226.933594 247.160156 226.007812 247.160156 224.863281 C 247.160156 223.714844 247.433594 222.792969 247.988281 222.089844 C 248.542969 221.386719 249.257812 221.035156 250.140625 221.035156 C 250.679688 221.035156 251.140625 221.140625 251.523438 221.351562 C 251.90625 221.5625 252.226562 221.882812 252.476562 222.316406 L 252.476562 221.210938 L 253.675781 221.210938 L 253.675781 231.273438 L 252.476562 231.273438 Z M 252.476562 227.410156 "/>
<path style=" stroke:none;fill-rule:nonzero;fill:rgb(0%,0%,0%);fill-opacity:1;" d="M 256.019531 225.625 L 256.019531 221.210938 L 257.21875 221.210938 L 257.21875 225.578125 C 257.21875 226.269531 257.351562 226.789062 257.621094 227.132812 C 257.890625 227.476562 258.292969 227.648438 258.832031 227.648438 C 259.476562 227.648438 259.988281 227.445312 260.363281 227.03125 C 260.738281 226.617188 260.929688 226.054688 260.929688 225.34375 L 260.929688 221.210938 L 262.125 221.210938 L 262.125 228.503906 L 260.929688 228.503906 L 260.929688 227.382812 C 260.636719 227.824219 260.300781 228.152344 259.914062 228.367188 C 259.53125 228.585938 259.085938 228.691406 258.578125 228.691406 C 257.742188 228.691406 257.105469 228.429688 256.671875 227.910156 C 256.238281 227.390625 256.019531 226.628906 256.019531 225.625 Z M 259.035156 221.035156 Z M 259.035156 221.035156 "/>
<path style=" stroke:none;fill-rule:nonzero;fill:rgb(0%,0%,0%);fill-opacity:1;" d="M 270.832031 224.554688 L 270.832031 225.140625 L 265.324219 225.140625 C 265.375 225.964844 265.625 226.59375 266.070312 227.027344 C 266.511719 227.460938 267.132812 227.675781 267.925781 227.675781 C 268.386719 227.675781 268.832031 227.617188 269.265625 227.507812 C 269.695312 227.394531 270.125 227.222656 270.550781 226.996094 L 270.550781 228.132812 C 270.121094 228.3125 269.679688 228.453125 269.230469 228.546875 C 268.777344 228.644531 268.320312 228.691406 267.855469 228.691406 C 266.691406 228.691406 265.769531 228.351562 265.089844 227.675781 C 264.414062 227 264.074219 226.082031 264.074219 224.925781 C 264.074219 223.734375 264.394531 222.789062 265.039062 222.085938 C 265.683594 221.386719 266.554688 221.035156 267.648438 221.035156 C 268.628906 221.035156 269.402344 221.351562 269.976562 221.984375 C 270.546875 222.613281 270.832031 223.472656 270.832031 224.554688 Z M 269.632812 224.203125 C 269.625 223.550781 269.441406 223.027344 269.082031 222.636719 C 268.726562 222.246094 268.25 222.050781 267.660156 222.050781 C 266.992188 222.050781 266.457031 222.238281 266.054688 222.617188 C 265.65625 222.996094 265.421875 223.527344 265.363281 224.210938 Z M 269.632812 224.203125 "/>
<path style=" stroke:none;fill-rule:nonzero;fill:rgb(0%,0%,0%);fill-opacity:1;" d="M 278.859375 224.101562 L 278.859375 228.503906 L 277.660156 228.503906 L 277.660156 224.140625 C 277.660156 223.449219 277.527344 222.933594 277.257812 222.589844 C 276.988281 222.25 276.585938 222.078125 276.046875 222.078125 C 275.398438 222.078125 274.890625 222.285156 274.515625 222.695312 C 274.140625 223.105469 273.953125 223.667969 273.953125 224.382812 L 273.953125 228.503906 L 272.75 228.503906 L 272.75 221.210938 L 273.953125 221.210938 L 273.953125 222.34375 C 274.242188 221.90625 274.578125 221.578125 274.96875 221.359375 C 275.355469 221.144531 275.804688 221.035156 276.3125 221.035156 C 277.152344 221.035156 277.785156 221.292969 278.214844 221.8125 C 278.644531 222.332031 278.859375 223.09375 278.859375 224.101562 Z M 278.859375 224.101562 "/>
<path style=" stroke:none;fill-rule:nonzero;fill:rgb(0%,0%,0%);fill-opacity:1;" d="M 286.496094 221.488281 L 286.496094 222.609375 C 286.15625 222.421875 285.816406 222.28125 285.476562 222.191406 C 285.136719 222.097656 284.792969 222.050781 284.445312 222.050781 C 283.667969 222.050781 283.0625 222.296875 282.632812 222.789062 C 282.203125 223.28125 281.988281 223.972656 281.988281 224.863281 C 281.988281 225.753906 282.203125 226.445312 282.632812 226.9375 C 283.0625 227.429688 283.667969 227.675781 284.445312 227.675781 C 284.792969 227.675781 285.136719 227.628906 285.476562 227.535156 C 285.816406 227.441406 286.15625 227.300781 286.496094 227.113281 L 286.496094 228.222656 C 286.160156 228.378906 285.8125 228.496094 285.457031 228.574219 C 285.097656 228.652344 284.71875 228.691406 284.3125 228.691406 C 283.214844 228.691406 282.34375 228.347656 281.695312 227.65625 C 281.050781 226.964844 280.726562 226.035156 280.726562 224.863281 C 280.726562 223.671875 281.050781 222.738281 281.707031 222.058594 C 282.359375 221.375 283.253906 221.035156 284.394531 221.035156 C 284.761719 221.035156 285.121094 221.074219 285.472656 221.148438 C 285.824219 221.226562 286.164062 221.339844 286.496094 221.488281 Z M 286.496094 221.488281 "/>
<path style=" stroke:none;fill-rule:nonzero;fill:rgb(0%,0%,0%);fill-opacity:1;" d="M 294.816406 224.554688 L 294.816406 225.140625 L 289.308594 225.140625 C 289.359375 225.964844 289.609375 226.59375 290.054688 227.027344 C 290.496094 227.460938 291.117188 227.675781 291.910156 227.675781 C 292.371094 227.675781 292.816406 227.617188 293.25 227.507812 C 293.679688 227.394531 294.109375 227.222656 294.535156 226.996094 L 294.535156 228.132812 C 294.105469 228.3125 293.664062 228.453125 293.214844 228.546875 C 292.761719 228.644531 292.304688 228.691406 291.839844 228.691406 C 290.675781 228.691406 289.753906 228.351562 289.074219 227.675781 C 288.398438 227 288.058594 226.082031 288.058594 224.925781 C 288.058594 223.734375 288.378906 222.789062 289.023438 222.085938 C 289.667969 221.386719 290.539062 221.035156 291.632812 221.035156 C 292.613281 221.035156 293.386719 221.351562 293.960938 221.984375 C 294.53125 222.613281 294.816406 223.472656 294.816406 224.554688 Z M 293.617188 224.203125 C 293.609375 223.550781 293.425781 223.027344 293.066406 222.636719 C 292.710938 222.246094 292.234375 222.050781 291.644531 222.050781 C 290.976562 222.050781 290.441406 222.238281 290.039062 222.617188 C 289.640625 222.996094 289.40625 223.527344 289.347656 224.210938 Z M 293.617188 224.203125 "/>
<path style="fill:none;stroke-width:0.8;stroke-linecap:butt;stroke-linejoin:round;stroke:rgb(0%,0%,0%);stroke-opacity:1;stroke-miterlimit:4;" d="M -0.000389099 0.000579834 L -3.501366 0.000579834 " transform="matrix(1.333333,0,0,1.333333,88.070831,190.800008)"/>
<path style=" stroke:none;fill-rule:nonzero;fill:rgb(0%,0%,0%);fill-opacity:1;" d="M 74.492188 187.011719 C 73.816406 187.011719 73.304688 187.34375 72.964844 188.011719 C 72.625 188.675781 72.453125 189.679688 72.453125 191.015625 C 72.453125 192.347656 72.625 193.347656 72.964844 194.011719 C 73.304688 194.679688 73.816406 195.011719 74.492188 195.011719 C 75.171875 195.011719 75.683594 194.679688 76.023438 194.011719 C 76.367188 193.347656 76.539062 192.347656 76.539062 191.015625 C 76.539062 189.679688 76.367188 188.675781 76.023438 188.011719 C 75.683594 187.34375 75.171875 187.011719 74.492188 187.011719 Z M 74.492188 185.96875 C 75.582031 185.96875 76.414062 186.402344 76.988281 187.261719 C 77.566406 188.125 77.851562 189.375 77.851562 191.015625 C 77.851562 192.652344 77.566406 193.902344 76.988281 194.761719 C 76.414062 195.625 75.582031 196.054688 74.492188 196.054688 C 73.402344 196.054688 72.570312 195.625 71.996094 194.761719 C 71.421875 193.902344 71.132812 192.652344 71.132812 191.015625 C 71.132812 189.375 71.421875 188.125 71.996094 187.261719 C 72.570312 186.402344 73.402344 185.96875 74.492188 185.96875 Z M 74.492188 185.96875 "/>
<path style="fill:none;stroke-width:0.8;stroke-linecap:butt;stroke-linejoin:round;stroke:rgb(0%,0%,0%);stroke-opacity:1;stroke-miterlimit:4;" d="M -0.000389099 0.00025177 L -3.501366 0.00025177 " transform="matrix(1.333333,0,0,1.333333,88.070831,157.534821)"/>
<path style=" stroke:none;fill-rule:nonzero;fill:rgb(0%,0%,0%);fill-opacity:1;" d="M 38.878906 161.496094 L 43.46875 161.496094 L 43.46875 162.601562 L 37.296875 162.601562 L 37.296875 161.496094 C 37.796875 160.976562 38.476562 160.285156 39.335938 159.414062 C 40.199219 158.542969 40.742188 157.980469 40.960938 157.730469 C 41.382812 157.257812 41.675781 156.855469 41.84375 156.53125 C 42.011719 156.203125 42.097656 155.878906 42.097656 155.5625 C 42.097656 155.046875 41.914062 154.625 41.550781 154.300781 C 41.191406 153.972656 40.71875 153.8125 40.136719 153.8125 C 39.722656 153.8125 39.289062 153.882812 38.828125 154.027344 C 38.371094 154.167969 37.882812 154.386719 37.363281 154.675781 L 37.363281 153.347656 C 37.890625 153.136719 38.386719 152.976562 38.847656 152.867188 C 39.308594 152.757812 39.726562 152.703125 40.109375 152.703125 C 41.117188 152.703125 41.921875 152.957031 42.519531 153.460938 C 43.117188 153.964844 43.417969 154.636719 43.417969 155.476562 C 43.417969 155.878906 43.339844 156.257812 43.191406 156.613281 C 43.042969 156.972656 42.769531 157.394531 42.375 157.878906 C 42.265625 158.007812 41.921875 158.371094 41.339844 158.972656 C 40.757812 159.574219 39.9375 160.414062 38.878906 161.496094 Z M 38.878906 161.496094 "/>
<path style=" stroke:none;fill-rule:nonzero;fill:rgb(0%,0%,0%);fill-opacity:1;" d="M 49.042969 153.746094 C 48.363281 153.746094 47.855469 154.078125 47.515625 154.746094 C 47.175781 155.410156 47.003906 156.414062 47.003906 157.75 C 47.003906 159.082031 47.175781 160.082031 47.515625 160.75 C 47.855469 161.414062 48.363281 161.75 49.042969 161.75 C 49.722656 161.75 50.234375 161.414062 50.574219 160.75 C 50.917969 160.082031 51.085938 159.082031 51.085938 157.75 C 51.085938 156.414062 50.917969 155.410156 50.574219 154.746094 C 50.234375 154.078125 49.722656 153.746094 49.042969 153.746094 Z M 49.042969 152.703125 C 50.132812 152.703125 50.964844 153.136719 51.539062 154 C 52.113281 154.859375 52.402344 156.109375 52.402344 157.75 C 52.402344 159.386719 52.113281 160.636719 51.539062 161.5 C 50.964844 162.359375 50.132812 162.789062 49.042969 162.789062 C 47.953125 162.789062 47.121094 162.359375 46.546875 161.5 C 45.96875 160.636719 45.683594 159.386719 45.683594 157.75 C 45.683594 156.109375 45.96875 154.859375 46.546875 154 C 47.121094 153.136719 47.953125 152.703125 49.042969 152.703125 Z M 49.042969 152.703125 "/>
<path style=" stroke:none;fill-rule:nonzero;fill:rgb(0%,0%,0%);fill-opacity:1;" d="M 57.523438 153.746094 C 56.847656 153.746094 56.339844 154.078125 55.996094 154.746094 C 55.65625 155.410156 55.488281 156.414062 55.488281 157.75 C 55.488281 159.082031 55.65625 160.082031 55.996094 160.75 C 56.339844 161.414062 56.847656 161.75 57.523438 161.75 C 58.207031 161.75 58.71875 161.414062 59.058594 160.75 C 59.398438 160.082031 59.570312 159.082031 59.570312 157.75 C 59.570312 156.414062 59.398438 155.410156 59.058594 154.746094 C 58.71875 154.078125 58.207031 153.746094 57.523438 153.746094 Z M 57.523438 152.703125 C 58.613281 152.703125 59.449219 153.136719 60.023438 154 C 60.597656 154.859375 60.886719 156.109375 60.886719 157.75 C 60.886719 159.386719 60.597656 160.636719 60.023438 161.5 C 59.449219 162.359375 58.613281 162.789062 57.523438 162.789062 C 56.4375 162.789062 55.605469 162.359375 55.027344 161.5 C 54.453125 160.636719 54.167969 159.386719 54.167969 157.75 C 54.167969 156.109375 54.453125 154.859375 55.027344 154 C 55.605469 153.136719 56.4375 152.703125 57.523438 152.703125 Z M 57.523438 152.703125 "/>
<path style=" stroke:none;fill-rule:nonzero;fill:rgb(0%,0%,0%);fill-opacity:1;" d="M 66.007812 153.746094 C 65.332031 153.746094 64.820312 154.078125 64.480469 154.746094 C 64.140625 155.410156 63.96875 156.414062 63.96875 157.75 C 63.96875 159.082031 64.140625 160.082031 64.480469 160.75 C 64.820312 161.414062 65.332031 161.75 66.007812 161.75 C 66.691406 161.75 67.199219 161.414062 67.539062 160.75 C 67.882812 160.082031 68.054688 159.082031 68.054688 157.75 C 68.054688 156.414062 67.882812 155.410156 67.539062 154.746094 C 67.199219 154.078125 66.691406 153.746094 66.007812 153.746094 Z M 66.007812 152.703125 C 67.097656 152.703125 67.929688 153.136719 68.503906 154 C 69.082031 154.859375 69.367188 156.109375 69.367188 157.75 C 69.367188 159.386719 69.082031 160.636719 68.503906 161.5 C 67.929688 162.359375 67.097656 162.789062 66.007812 162.789062 C 64.917969 162.789062 64.085938 162.359375 63.511719 161.5 C 62.9375 160.636719 62.648438 159.386719 62.648438 157.75 C 62.648438 156.109375 62.9375 154.859375 63.511719 154 C 64.085938 153.136719 64.917969 152.703125 66.007812 152.703125 Z M 66.007812 152.703125 "/>
<path style=" stroke:none;fill-rule:nonzero;fill:rgb(0%,0%,0%);fill-opacity:1;" d="M 74.492188 153.746094 C 73.8125 153.746094 73.304688 154.078125 72.964844 154.746094 C 72.625 155.410156 72.453125 156.414062 72.453125 157.75 C 72.453125 159.082031 72.625 160.082031 72.964844 160.75 C 73.304688 161.414062 73.8125 161.75 74.492188 161.75 C 75.171875 161.75 75.683594 161.414062 76.023438 160.75 C 76.367188 160.082031 76.535156 159.082031 76.535156 157.75 C 76.535156 156.414062 76.367188 155.410156 76.023438 154.746094 C 75.683594 154.078125 75.171875 153.746094 74.492188 153.746094 Z M 74.492188 152.703125 C 75.582031 152.703125 76.414062 153.136719 76.988281 154 C 77.5625 154.859375 77.851562 156.109375 77.851562 157.75 C 77.851562 159.386719 77.5625 160.636719 76.988281 161.5 C 76.414062 162.359375 75.582031 162.789062 74.492188 162.789062 C 73.402344 162.789062 72.570312 162.359375 71.996094 161.5 C 71.417969 160.636719 71.132812 159.386719 71.132812 157.75 C 71.132812 156.109375 71.417969 154.859375 71.996094 154 C 72.570312 153.136719 73.402344 152.703125 74.492188 152.703125 Z M 74.492188 152.703125 "/>
<path style="fill:none;stroke-width:0.8;stroke-linecap:butt;stroke-linejoin:round;stroke:rgb(0%,0%,0%);stroke-opacity:1;stroke-miterlimit:4;" d="M -0.000389099 -0.0000839233 L -3.501366 -0.0000839233 " transform="matrix(1.333333,0,0,1.333333,88.070831,124.269643)"/>
<path style=" stroke:none;fill-rule:nonzero;fill:rgb(0%,0%,0%);fill-opacity:1;" d="M 41.359375 120.761719 L 38.039062 125.949219 L 41.359375 125.949219 Z M 41.015625 119.613281 L 42.667969 119.613281 L 42.667969 125.949219 L 44.054688 125.949219 L 44.054688 127.042969 L 42.667969 127.042969 L 42.667969 129.335938 L 41.359375 129.335938 L 41.359375 127.042969 L 36.972656 127.042969 L 36.972656 125.773438 Z M 41.015625 119.613281 "/>
<path style=" stroke:none;fill-rule:nonzero;fill:rgb(0%,0%,0%);fill-opacity:1;" d="M 49.042969 120.480469 C 48.363281 120.480469 47.855469 120.8125 47.515625 121.480469 C 47.175781 122.144531 47.003906 123.148438 47.003906 124.484375 C 47.003906 125.816406 47.175781 126.816406 47.515625 127.484375 C 47.855469 128.148438 48.363281 128.484375 49.042969 128.484375 C 49.722656 128.484375 50.234375 128.148438 50.574219 127.484375 C 50.917969 126.816406 51.085938 125.816406 51.085938 124.484375 C 51.085938 123.148438 50.917969 122.144531 50.574219 121.480469 C 50.234375 120.8125 49.722656 120.480469 49.042969 120.480469 Z M 49.042969 119.4375 C 50.132812 119.4375 50.964844 119.871094 51.539062 120.734375 C 52.113281 121.59375 52.402344 122.84375 52.402344 124.484375 C 52.402344 126.121094 52.113281 127.371094 51.539062 128.234375 C 50.964844 129.09375 50.132812 129.523438 49.042969 129.523438 C 47.953125 129.523438 47.121094 129.09375 46.546875 128.234375 C 45.96875 127.371094 45.683594 126.121094 45.683594 124.484375 C 45.683594 122.84375 45.96875 121.59375 46.546875 120.734375 C 47.121094 119.871094 47.953125 119.4375 49.042969 119.4375 Z M 49.042969 119.4375 "/>
<path style=" stroke:none;fill-rule:nonzero;fill:rgb(0%,0%,0%);fill-opacity:1;" d="M 57.523438 120.480469 C 56.847656 120.480469 56.339844 120.8125 55.996094 121.480469 C 55.65625 122.144531 55.488281 123.148438 55.488281 124.484375 C 55.488281 125.816406 55.65625 126.816406 55.996094 127.484375 C 56.339844 128.148438 56.847656 128.484375 57.523438 128.484375 C 58.207031 128.484375 58.71875 128.148438 59.058594 127.484375 C 59.398438 126.816406 59.570312 125.816406 59.570312 124.484375 C 59.570312 123.148438 59.398438 122.144531 59.058594 121.480469 C 58.71875 120.8125 58.207031 120.480469 57.523438 120.480469 Z M 57.523438 119.4375 C 58.613281 119.4375 59.449219 119.871094 60.023438 120.734375 C 60.597656 121.59375 60.886719 122.84375 60.886719 124.484375 C 60.886719 126.121094 60.597656 127.371094 60.023438 128.234375 C 59.449219 129.09375 58.613281 129.523438 57.523438 129.523438 C 56.4375 129.523438 55.605469 129.09375 55.027344 128.234375 C 54.453125 127.371094 54.167969 126.121094 54.167969 124.484375 C 54.167969 122.84375 54.453125 121.59375 55.027344 120.734375 C 55.605469 119.871094 56.4375 119.4375 57.523438 119.4375 Z M 57.523438 119.4375 "/>
<path style=" stroke:none;fill-rule:nonzero;fill:rgb(0%,0%,0%);fill-opacity:1;" d="M 66.007812 120.480469 C 65.332031 120.480469 64.820312 120.8125 64.480469 121.480469 C 64.140625 122.144531 63.96875 123.148438 63.96875 124.484375 C 63.96875 125.816406 64.140625 126.816406 64.480469 127.484375 C 64.820312 128.148438 65.332031 128.484375 66.007812 128.484375 C 66.691406 128.484375 67.199219 128.148438 67.539062 127.484375 C 67.882812 126.816406 68.054688 125.816406 68.054688 124.484375 C 68.054688 123.148438 67.882812 122.144531 67.539062 121.480469 C 67.199219 120.8125 66.691406 120.480469 66.007812 120.480469 Z M 66.007812 119.4375 C 67.097656 119.4375 67.929688 119.871094 68.503906 120.734375 C 69.082031 121.59375 69.367188 122.84375 69.367188 124.484375 C 69.367188 126.121094 69.082031 127.371094 68.503906 128.234375 C 67.929688 129.09375 67.097656 129.523438 66.007812 129.523438 C 64.917969 129.523438 64.085938 129.09375 63.511719 128.234375 C 62.9375 127.371094 62.648438 126.121094 62.648438 124.484375 C 62.648438 122.84375 62.9375 121.59375 63.511719 120.734375 C 64.085938 119.871094 64.917969 119.4375 66.007812 119.4375 Z M 66.007812 119.4375 "/>
<path style=" stroke:none;fill-rule:nonzero;fill:rgb(0%,0%,0%);fill-opacity:1;" d="M 74.492188 120.480469 C 73.8125 120.480469 73.304688 120.8125 72.964844 121.480469 C 72.625 122.144531 72.453125 123.148438 72.453125 124.484375 C 72.453125 125.816406 72.625 126.816406 72.964844 127.484375 C 73.304688 128.148438 73.8125 128.484375 74.492188 128.484375 C 75.171875 128.484375 75.683594 128.148438 76.023438 127.484375 C 76.367188 126.816406 76.535156 125.816406 76.535156 124.484375 C 76.535156 123.148438 76.367188 122.144531 76.023438 121.480469 C 75.683594 120.8125 75.171875 120.480469 74.492188 120.480469 Z M 74.492188 119.4375 C 75.582031 119.4375 76.414062 119.871094 76.988281 120.734375 C 77.5625 121.59375 77.851562 122.84375 77.851562 124.484375 C 77.851562 126.121094 77.5625 127.371094 76.988281 128.234375 C 76.414062 129.09375 75.582031 129.523438 74.492188 129.523438 C 73.402344 129.523438 72.570312 129.09375 71.996094 128.234375 C 71.417969 127.371094 71.132812 126.121094 71.132812 124.484375 C 71.132812 122.84375 71.417969 121.59375 71.996094 120.734375 C 72.570312 119.871094 73.402344 119.4375 74.492188 119.4375 Z M 74.492188 119.4375 "/>
<path style="fill:none;stroke-width:0.8;stroke-linecap:butt;stroke-linejoin:round;stroke:rgb(0%,0%,0%);stroke-opacity:1;stroke-miterlimit:4;" d="M -0.000389099 -0.000419617 L -3.501366 -0.000419617 " transform="matrix(1.333333,0,0,1.333333,88.070831,91.004466)"/>
<path style=" stroke:none;fill-rule:nonzero;fill:rgb(0%,0%,0%);fill-opacity:1;" d="M 40.722656 90.6875 C 40.132812 90.6875 39.664062 90.890625 39.320312 91.292969 C 38.972656 91.695312 38.800781 92.25 38.800781 92.953125 C 38.800781 93.648438 38.972656 94.203125 39.320312 94.609375 C 39.664062 95.015625 40.132812 95.21875 40.722656 95.21875 C 41.3125 95.21875 41.78125 95.015625 42.125 94.609375 C 42.46875 94.203125 42.640625 93.648438 42.640625 92.953125 C 42.640625 92.25 42.46875 91.695312 42.125 91.292969 C 41.78125 90.890625 41.3125 90.6875 40.722656 90.6875 Z M 43.332031 86.5625 L 43.332031 87.761719 C 43.003906 87.605469 42.667969 87.488281 42.332031 87.40625 C 41.996094 87.320312 41.664062 87.28125 41.332031 87.28125 C 40.464844 87.28125 39.800781 87.574219 39.34375 88.160156 C 38.886719 88.746094 38.625 89.632812 38.558594 90.816406 C 38.816406 90.4375 39.136719 90.148438 39.523438 89.945312 C 39.910156 89.746094 40.335938 89.644531 40.800781 89.644531 C 41.777344 89.644531 42.546875 89.941406 43.113281 90.535156 C 43.679688 91.125 43.964844 91.933594 43.964844 92.953125 C 43.964844 93.949219 43.667969 94.75 43.078125 95.355469 C 42.488281 95.957031 41.703125 96.257812 40.722656 96.257812 C 39.597656 96.257812 38.738281 95.828125 38.144531 94.96875 C 37.550781 94.105469 37.253906 92.855469 37.253906 91.21875 C 37.253906 89.683594 37.617188 88.457031 38.347656 87.546875 C 39.074219 86.632812 40.054688 86.175781 41.28125 86.175781 C 41.613281 86.175781 41.945312 86.207031 42.28125 86.273438 C 42.617188 86.335938 42.96875 86.433594 43.332031 86.5625 Z M 43.332031 86.5625 "/>
<path style=" stroke:none;fill-rule:nonzero;fill:rgb(0%,0%,0%);fill-opacity:1;" d="M 49.042969 87.214844 C 48.363281 87.214844 47.855469 87.550781 47.515625 88.214844 C 47.175781 88.882812 47.003906 89.882812 47.003906 91.21875 C 47.003906 92.550781 47.175781 93.550781 47.515625 94.21875 C 47.855469 94.882812 48.363281 95.21875 49.042969 95.21875 C 49.722656 95.21875 50.234375 94.882812 50.574219 94.21875 C 50.917969 93.550781 51.085938 92.550781 51.085938 91.21875 C 51.085938 89.882812 50.917969 88.882812 50.574219 88.214844 C 50.234375 87.550781 49.722656 87.214844 49.042969 87.214844 Z M 49.042969 86.175781 C 50.132812 86.175781 50.964844 86.605469 51.539062 87.46875 C 52.113281 88.328125 52.402344 89.578125 52.402344 91.21875 C 52.402344 92.855469 52.113281 94.105469 51.539062 94.96875 C 50.964844 95.828125 50.132812 96.257812 49.042969 96.257812 C 47.953125 96.257812 47.121094 95.828125 46.546875 94.96875 C 45.96875 94.105469 45.683594 92.855469 45.683594 91.21875 C 45.683594 89.578125 45.96875 88.328125 46.546875 87.46875 C 47.121094 86.605469 47.953125 86.175781 49.042969 86.175781 Z M 49.042969 86.175781 "/>
<path style=" stroke:none;fill-rule:nonzero;fill:rgb(0%,0%,0%);fill-opacity:1;" d="M 57.523438 87.214844 C 56.847656 87.214844 56.339844 87.550781 55.996094 88.214844 C 55.65625 88.882812 55.488281 89.882812 55.488281 91.21875 C 55.488281 92.550781 55.65625 93.550781 55.996094 94.21875 C 56.339844 94.882812 56.847656 95.21875 57.523438 95.21875 C 58.207031 95.21875 58.71875 94.882812 59.058594 94.21875 C 59.398438 93.550781 59.570312 92.550781 59.570312 91.21875 C 59.570312 89.882812 59.398438 88.882812 59.058594 88.214844 C 58.71875 87.550781 58.207031 87.214844 57.523438 87.214844 Z M 57.523438 86.175781 C 58.613281 86.175781 59.449219 86.605469 60.023438 87.46875 C 60.597656 88.328125 60.886719 89.578125 60.886719 91.21875 C 60.886719 92.855469 60.597656 94.105469 60.023438 94.96875 C 59.449219 95.828125 58.613281 96.257812 57.523438 96.257812 C 56.4375 96.257812 55.605469 95.828125 55.027344 94.96875 C 54.453125 94.105469 54.167969 92.855469 54.167969 91.21875 C 54.167969 89.578125 54.453125 88.328125 55.027344 87.46875 C 55.605469 86.605469 56.4375 86.175781 57.523438 86.175781 Z M 57.523438 86.175781 "/>
<path style=" stroke:none;fill-rule:nonzero;fill:rgb(0%,0%,0%);fill-opacity:1;" d="M 66.007812 87.214844 C 65.332031 87.214844 64.820312 87.550781 64.480469 88.214844 C 64.140625 88.882812 63.96875 89.882812 63.96875 91.21875 C 63.96875 92.550781 64.140625 93.550781 64.480469 94.21875 C 64.820312 94.882812 65.332031 95.21875 66.007812 95.21875 C 66.691406 95.21875 67.199219 94.882812 67.539062 94.21875 C 67.882812 93.550781 68.054688 92.550781 68.054688 91.21875 C 68.054688 89.882812 67.882812 88.882812 67.539062 88.214844 C 67.199219 87.550781 66.691406 87.214844 66.007812 87.214844 Z M 66.007812 86.175781 C 67.097656 86.175781 67.929688 86.605469 68.503906 87.46875 C 69.082031 88.328125 69.367188 89.578125 69.367188 91.21875 C 69.367188 92.855469 69.082031 94.105469 68.503906 94.96875 C 67.929688 95.828125 67.097656 96.257812 66.007812 96.257812 C 64.917969 96.257812 64.085938 95.828125 63.511719 94.96875 C 62.9375 94.105469 62.648438 92.855469 62.648438 91.21875 C 62.648438 89.578125 62.9375 88.328125 63.511719 87.46875 C 64.085938 86.605469 64.917969 86.175781 66.007812 86.175781 Z M 66.007812 86.175781 "/>
<path style=" stroke:none;fill-rule:nonzero;fill:rgb(0%,0%,0%);fill-opacity:1;" d="M 74.492188 87.214844 C 73.8125 87.214844 73.304688 87.550781 72.964844 88.214844 C 72.625 88.882812 72.453125 89.882812 72.453125 91.21875 C 72.453125 92.550781 72.625 93.550781 72.964844 94.21875 C 73.304688 94.882812 73.8125 95.21875 74.492188 95.21875 C 75.171875 95.21875 75.683594 94.882812 76.023438 94.21875 C 76.367188 93.550781 76.535156 92.550781 76.535156 91.21875 C 76.535156 89.882812 76.367188 88.882812 76.023438 88.214844 C 75.683594 87.550781 75.171875 87.214844 74.492188 87.214844 Z M 74.492188 86.175781 C 75.582031 86.175781 76.414062 86.605469 76.988281 87.46875 C 77.5625 88.328125 77.851562 89.578125 77.851562 91.21875 C 77.851562 92.855469 77.5625 94.105469 76.988281 94.96875 C 76.414062 95.828125 75.582031 96.257812 74.492188 96.257812 C 73.402344 96.257812 72.570312 95.828125 71.996094 94.96875 C 71.417969 94.105469 71.132812 92.855469 71.132812 91.21875 C 71.132812 89.578125 71.417969 88.328125 71.996094 87.46875 C 72.570312 86.605469 73.402344 86.175781 74.492188 86.175781 Z M 74.492188 86.175781 "/>
<path style="fill:none;stroke-width:0.8;stroke-linecap:butt;stroke-linejoin:round;stroke:rgb(0%,0%,0%);stroke-opacity:1;stroke-miterlimit:4;" d="M -0.000389099 -0.00075531 L -3.501366 -0.00075531 " transform="matrix(1.333333,0,0,1.333333,88.070831,57.739288)"/>
<path style=" stroke:none;fill-rule:nonzero;fill:rgb(0%,0%,0%);fill-opacity:1;" d="M 40.558594 58.1875 C 39.933594 58.1875 39.441406 58.355469 39.082031 58.691406 C 38.726562 59.023438 38.546875 59.484375 38.546875 60.070312 C 38.546875 60.65625 38.726562 61.117188 39.082031 61.449219 C 39.441406 61.785156 39.933594 61.953125 40.558594 61.953125 C 41.183594 61.953125 41.675781 61.785156 42.035156 61.449219 C 42.398438 61.109375 42.578125 60.652344 42.578125 60.070312 C 42.578125 59.484375 42.398438 59.023438 42.039062 58.691406 C 41.683594 58.355469 41.1875 58.1875 40.558594 58.1875 Z M 39.242188 57.628906 C 38.679688 57.492188 38.242188 57.230469 37.925781 56.84375 C 37.609375 56.453125 37.453125 55.984375 37.453125 55.429688 C 37.453125 54.652344 37.730469 54.039062 38.285156 53.585938 C 38.835938 53.136719 39.597656 52.910156 40.558594 52.910156 C 41.527344 52.910156 42.285156 53.136719 42.835938 53.585938 C 43.390625 54.039062 43.664062 54.652344 43.664062 55.429688 C 43.664062 55.984375 43.507812 56.453125 43.191406 56.84375 C 42.878906 57.230469 42.441406 57.492188 41.882812 57.628906 C 42.515625 57.777344 43.007812 58.066406 43.359375 58.496094 C 43.714844 58.925781 43.890625 59.449219 43.890625 60.070312 C 43.890625 61.011719 43.605469 61.734375 43.027344 62.242188 C 42.453125 62.742188 41.628906 62.996094 40.558594 62.996094 C 39.488281 62.996094 38.664062 62.742188 38.085938 62.242188 C 37.511719 61.734375 37.226562 61.011719 37.226562 60.070312 C 37.226562 59.449219 37.402344 58.925781 37.757812 58.496094 C 38.117188 58.066406 38.609375 57.777344 39.242188 57.628906 Z M 38.761719 55.554688 C 38.761719 56.054688 38.917969 56.449219 39.234375 56.730469 C 39.546875 57.011719 39.992188 57.152344 40.558594 57.152344 C 41.125 57.152344 41.566406 57.011719 41.882812 56.730469 C 42.203125 56.449219 42.363281 56.054688 42.363281 55.554688 C 42.363281 55.046875 42.203125 54.65625 41.882812 54.375 C 41.566406 54.089844 41.125 53.949219 40.558594 53.949219 C 39.992188 53.949219 39.546875 54.089844 39.234375 54.375 C 38.917969 54.65625 38.761719 55.046875 38.761719 55.554688 Z M 38.761719 55.554688 "/>
<path style=" stroke:none;fill-rule:nonzero;fill:rgb(0%,0%,0%);fill-opacity:1;" d="M 49.042969 53.949219 C 48.363281 53.949219 47.855469 54.285156 47.515625 54.949219 C 47.175781 55.617188 47.003906 56.617188 47.003906 57.953125 C 47.003906 59.285156 47.175781 60.285156 47.515625 60.953125 C 47.855469 61.621094 48.363281 61.953125 49.042969 61.953125 C 49.722656 61.953125 50.234375 61.621094 50.574219 60.953125 C 50.917969 60.285156 51.085938 59.285156 51.085938 57.953125 C 51.085938 56.617188 50.917969 55.617188 50.574219 54.949219 C 50.234375 54.285156 49.722656 53.949219 49.042969 53.949219 Z M 49.042969 52.910156 C 50.132812 52.910156 50.964844 53.339844 51.539062 54.203125 C 52.113281 55.0625 52.402344 56.316406 52.402344 57.953125 C 52.402344 59.589844 52.113281 60.839844 51.539062 61.703125 C 50.964844 62.5625 50.132812 62.996094 49.042969 62.996094 C 47.953125 62.996094 47.121094 62.5625 46.546875 61.703125 C 45.96875 60.839844 45.683594 59.589844 45.683594 57.953125 C 45.683594 56.316406 45.96875 55.0625 46.546875 54.203125 C 47.121094 53.339844 47.953125 52.910156 49.042969 52.910156 Z M 49.042969 52.910156 "/>
<path style=" stroke:none;fill-rule:nonzero;fill:rgb(0%,0%,0%);fill-opacity:1;" d="M 57.523438 53.949219 C 56.847656 53.949219 56.339844 54.285156 55.996094 54.949219 C 55.65625 55.617188 55.488281 56.617188 55.488281 57.953125 C 55.488281 59.285156 55.65625 60.285156 55.996094 60.953125 C 56.339844 61.621094 56.847656 61.953125 57.523438 61.953125 C 58.207031 61.953125 58.71875 61.621094 59.058594 60.953125 C 59.398438 60.285156 59.570312 59.285156 59.570312 57.953125 C 59.570312 56.617188 59.398438 55.617188 59.058594 54.949219 C 58.71875 54.285156 58.207031 53.949219 57.523438 53.949219 Z M 57.523438 52.910156 C 58.613281 52.910156 59.449219 53.339844 60.023438 54.203125 C 60.597656 55.0625 60.886719 56.316406 60.886719 57.953125 C 60.886719 59.589844 60.597656 60.839844 60.023438 61.703125 C 59.449219 62.5625 58.613281 62.996094 57.523438 62.996094 C 56.4375 62.996094 55.605469 62.5625 55.027344 61.703125 C 54.453125 60.839844 54.167969 59.589844 54.167969 57.953125 C 54.167969 56.316406 54.453125 55.0625 55.027344 54.203125 C 55.605469 53.339844 56.4375 52.910156 57.523438 52.910156 Z M 57.523438 52.910156 "/>
<path style=" stroke:none;fill-rule:nonzero;fill:rgb(0%,0%,0%);fill-opacity:1;" d="M 66.007812 53.949219 C 65.332031 53.949219 64.820312 54.285156 64.480469 54.949219 C 64.140625 55.617188 63.96875 56.617188 63.96875 57.953125 C 63.96875 59.285156 64.140625 60.285156 64.480469 60.953125 C 64.820312 61.621094 65.332031 61.953125 66.007812 61.953125 C 66.691406 61.953125 67.199219 61.621094 67.539062 60.953125 C 67.882812 60.285156 68.054688 59.285156 68.054688 57.953125 C 68.054688 56.617188 67.882812 55.617188 67.539062 54.949219 C 67.199219 54.285156 66.691406 53.949219 66.007812 53.949219 Z M 66.007812 52.910156 C 67.097656 52.910156 67.929688 53.339844 68.503906 54.203125 C 69.082031 55.0625 69.367188 56.316406 69.367188 57.953125 C 69.367188 59.589844 69.082031 60.839844 68.503906 61.703125 C 67.929688 62.5625 67.097656 62.996094 66.007812 62.996094 C 64.917969 62.996094 64.085938 62.5625 63.511719 61.703125 C 62.9375 60.839844 62.648438 59.589844 62.648438 57.953125 C 62.648438 56.316406 62.9375 55.0625 63.511719 54.203125 C 64.085938 53.339844 64.917969 52.910156 66.007812 52.910156 Z M 66.007812 52.910156 "/>
<path style=" stroke:none;fill-rule:nonzero;fill:rgb(0%,0%,0%);fill-opacity:1;" d="M 74.492188 53.949219 C 73.8125 53.949219 73.304688 54.285156 72.964844 54.949219 C 72.625 55.617188 72.453125 56.617188 72.453125 57.953125 C 72.453125 59.285156 72.625 60.285156 72.964844 60.953125 C 73.304688 61.621094 73.8125 61.953125 74.492188 61.953125 C 75.171875 61.953125 75.683594 61.621094 76.023438 60.953125 C 76.367188 60.285156 76.535156 59.285156 76.535156 57.953125 C 76.535156 56.617188 76.367188 55.617188 76.023438 54.949219 C 75.683594 54.285156 75.171875 53.949219 74.492188 53.949219 Z M 74.492188 52.910156 C 75.582031 52.910156 76.414062 53.339844 76.988281 54.203125 C 77.5625 55.0625 77.851562 56.316406 77.851562 57.953125 C 77.851562 59.589844 77.5625 60.839844 76.988281 61.703125 C 76.414062 62.5625 75.582031 62.996094 74.492188 62.996094 C 73.402344 62.996094 72.570312 62.5625 71.996094 61.703125 C 71.417969 60.839844 71.132812 59.589844 71.132812 57.953125 C 71.132812 56.316406 71.417969 55.0625 71.996094 54.203125 C 72.570312 53.339844 73.402344 52.910156 74.492188 52.910156 Z M 74.492188 52.910156 "/>
<path style="fill:none;stroke-width:0.8;stroke-linecap:butt;stroke-linejoin:round;stroke:rgb(0%,0%,0%);stroke-opacity:1;stroke-miterlimit:4;" d="M -0.000389099 -0.0010891 L -3.501366 -0.0010891 " transform="matrix(1.333333,0,0,1.333333,88.070831,24.474108)"/>
<path style=" stroke:none;fill-rule:nonzero;fill:rgb(0%,0%,0%);fill-opacity:1;" d="M 29.492188 28.433594 L 31.640625 28.433594 L 31.640625 21.015625 L 29.300781 21.484375 L 29.300781 20.289062 L 31.628906 19.820312 L 32.941406 19.820312 L 32.941406 28.433594 L 35.089844 28.433594 L 35.089844 29.539062 L 29.492188 29.539062 Z M 29.492188 28.433594 "/>
<path style=" stroke:none;fill-rule:nonzero;fill:rgb(0%,0%,0%);fill-opacity:1;" d="M 40.558594 20.6875 C 39.882812 20.6875 39.371094 21.019531 39.03125 21.6875 C 38.691406 22.351562 38.519531 23.351562 38.519531 24.691406 C 38.519531 26.023438 38.691406 27.019531 39.03125 27.6875 C 39.371094 28.355469 39.882812 28.6875 40.558594 28.6875 C 41.238281 28.6875 41.75 28.355469 42.089844 27.6875 C 42.433594 27.019531 42.605469 26.023438 42.605469 24.691406 C 42.605469 23.351562 42.433594 22.351562 42.089844 21.6875 C 41.75 21.019531 41.238281 20.6875 40.558594 20.6875 Z M 40.558594 19.644531 C 41.648438 19.644531 42.480469 20.074219 43.054688 20.9375 C 43.632812 21.796875 43.917969 23.050781 43.917969 24.691406 C 43.917969 26.324219 43.632812 27.574219 43.054688 28.4375 C 42.480469 29.296875 41.648438 29.730469 40.558594 29.730469 C 39.46875 29.730469 38.636719 29.296875 38.0625 28.4375 C 37.488281 27.574219 37.199219 26.324219 37.199219 24.691406 C 37.199219 23.050781 37.488281 21.796875 38.0625 20.9375 C 38.636719 20.074219 39.46875 19.644531 40.558594 19.644531 Z M 40.558594 19.644531 "/>
<path style=" stroke:none;fill-rule:nonzero;fill:rgb(0%,0%,0%);fill-opacity:1;" d="M 49.042969 20.6875 C 48.363281 20.6875 47.855469 21.019531 47.515625 21.6875 C 47.171875 22.351562 47.003906 23.351562 47.003906 24.691406 C 47.003906 26.023438 47.171875 27.019531 47.515625 27.6875 C 47.855469 28.355469 48.363281 28.6875 49.042969 28.6875 C 49.722656 28.6875 50.234375 28.355469 50.574219 27.6875 C 50.917969 27.019531 51.085938 26.023438 51.085938 24.691406 C 51.085938 23.351562 50.917969 22.351562 50.574219 21.6875 C 50.234375 21.019531 49.722656 20.6875 49.042969 20.6875 Z M 49.042969 19.644531 C 50.132812 19.644531 50.964844 20.074219 51.539062 20.9375 C 52.113281 21.796875 52.402344 23.050781 52.402344 24.691406 C 52.402344 26.324219 52.113281 27.574219 51.539062 28.4375 C 50.964844 29.296875 50.132812 29.730469 49.042969 29.730469 C 47.953125 29.730469 47.121094 29.296875 46.546875 28.4375 C 45.96875 27.574219 45.683594 26.324219 45.683594 24.691406 C 45.683594 23.050781 45.96875 21.796875 46.546875 20.9375 C 47.121094 20.074219 47.953125 19.644531 49.042969 19.644531 Z M 49.042969 19.644531 "/>
<path style=" stroke:none;fill-rule:nonzero;fill:rgb(0%,0%,0%);fill-opacity:1;" d="M 57.523438 20.6875 C 56.847656 20.6875 56.339844 21.019531 55.996094 21.6875 C 55.65625 22.351562 55.488281 23.351562 55.488281 24.691406 C 55.488281 26.023438 55.65625 27.019531 55.996094 27.6875 C 56.339844 28.355469 56.847656 28.6875 57.523438 28.6875 C 58.207031 28.6875 58.71875 28.355469 59.058594 27.6875 C 59.398438 27.019531 59.570312 26.023438 59.570312 24.691406 C 59.570312 23.351562 59.398438 22.351562 59.058594 21.6875 C 58.71875 21.019531 58.207031 20.6875 57.523438 20.6875 Z M 57.523438 19.644531 C 58.613281 19.644531 59.445312 20.074219 60.023438 20.9375 C 60.597656 21.796875 60.882812 23.050781 60.882812 24.691406 C 60.882812 26.324219 60.597656 27.574219 60.023438 28.4375 C 59.445312 29.296875 58.613281 29.730469 57.523438 29.730469 C 56.433594 29.730469 55.601562 29.296875 55.027344 28.4375 C 54.453125 27.574219 54.164062 26.324219 54.164062 24.691406 C 54.164062 23.050781 54.453125 21.796875 55.027344 20.9375 C 55.601562 20.074219 56.433594 19.644531 57.523438 19.644531 Z M 57.523438 19.644531 "/>
<path style=" stroke:none;fill-rule:nonzero;fill:rgb(0%,0%,0%);fill-opacity:1;" d="M 66.007812 20.6875 C 65.332031 20.6875 64.820312 21.019531 64.480469 21.6875 C 64.140625 22.351562 63.96875 23.351562 63.96875 24.691406 C 63.96875 26.023438 64.140625 27.019531 64.480469 27.6875 C 64.820312 28.355469 65.332031 28.6875 66.007812 28.6875 C 66.6875 28.6875 67.199219 28.355469 67.539062 27.6875 C 67.882812 27.019531 68.054688 26.023438 68.054688 24.691406 C 68.054688 23.351562 67.882812 22.351562 67.539062 21.6875 C 67.199219 21.019531 66.6875 20.6875 66.007812 20.6875 Z M 66.007812 19.644531 C 67.097656 19.644531 67.929688 20.074219 68.503906 20.9375 C 69.082031 21.796875 69.367188 23.050781 69.367188 24.691406 C 69.367188 26.324219 69.082031 27.574219 68.503906 28.4375 C 67.929688 29.296875 67.097656 29.730469 66.007812 29.730469 C 64.917969 29.730469 64.085938 29.296875 63.511719 28.4375 C 62.9375 27.574219 62.648438 26.324219 62.648438 24.691406 C 62.648438 23.050781 62.9375 21.796875 63.511719 20.9375 C 64.085938 20.074219 64.917969 19.644531 66.007812 19.644531 Z M 66.007812 19.644531 "/>
<path style=" stroke:none;fill-rule:nonzero;fill:rgb(0%,0%,0%);fill-opacity:1;" d="M 74.492188 20.6875 C 73.8125 20.6875 73.304688 21.019531 72.964844 21.6875 C 72.621094 22.351562 72.453125 23.351562 72.453125 24.691406 C 72.453125 26.023438 72.621094 27.019531 72.964844 27.6875 C 73.304688 28.355469 73.8125 28.6875 74.492188 28.6875 C 75.171875 28.6875 75.683594 28.355469 76.023438 27.6875 C 76.367188 27.019531 76.535156 26.023438 76.535156 24.691406 C 76.535156 23.351562 76.367188 22.351562 76.023438 21.6875 C 75.683594 21.019531 75.171875 20.6875 74.492188 20.6875 Z M 74.492188 19.644531 C 75.582031 19.644531 76.414062 20.074219 76.988281 20.9375 C 77.5625 21.796875 77.851562 23.050781 77.851562 24.691406 C 77.851562 26.324219 77.5625 27.574219 76.988281 28.4375 C 76.414062 29.296875 75.582031 29.730469 74.492188 29.730469 C 73.402344 29.730469 72.570312 29.296875 71.996094 28.4375 C 71.417969 27.574219 71.132812 26.324219 71.132812 24.691406 C 71.132812 23.050781 71.417969 21.796875 71.996094 20.9375 C 72.570312 20.074219 73.402344 19.644531 74.492188 19.644531 Z M 74.492188 19.644531 "/>
<path style=" stroke:none;fill-rule:nonzero;fill:rgb(0%,0%,0%);fill-opacity:1;" d="M 12.71875 112.503906 L 13.839844 112.503906 C 13.652344 112.84375 13.511719 113.183594 13.417969 113.523438 C 13.324219 113.863281 13.277344 114.207031 13.277344 114.554688 C 13.277344 115.332031 13.527344 115.9375 14.019531 116.367188 C 14.511719 116.796875 15.203125 117.011719 16.089844 117.011719 C 16.980469 117.011719 17.671875 116.796875 18.167969 116.367188 C 18.660156 115.9375 18.902344 115.332031 18.902344 114.554688 C 18.902344 114.207031 18.859375 113.863281 18.765625 113.523438 C 18.671875 113.183594 18.53125 112.84375 18.34375 112.503906 L 19.453125 112.503906 C 19.609375 112.839844 19.722656 113.183594 19.800781 113.542969 C 19.882812 113.902344 19.921875 114.28125 19.921875 114.683594 C 19.921875 115.785156 19.574219 116.65625 18.886719 117.304688 C 18.195312 117.949219 17.265625 118.273438 16.089844 118.273438 C 14.902344 118.273438 13.96875 117.945312 13.289062 117.292969 C 12.605469 116.640625 12.265625 115.742188 12.265625 114.605469 C 12.265625 114.238281 12.304688 113.878906 12.378906 113.527344 C 12.453125 113.175781 12.566406 112.835938 12.71875 112.503906 Z M 12.71875 112.503906 "/>
<path style=" stroke:none;fill-rule:nonzero;fill:rgb(0%,0%,0%);fill-opacity:1;" d="M 13.277344 107.597656 C 13.277344 108.238281 13.53125 108.746094 14.03125 109.121094 C 14.53125 109.492188 15.21875 109.679688 16.089844 109.679688 C 16.964844 109.679688 17.652344 109.496094 18.152344 109.125 C 18.652344 108.75 18.902344 108.242188 18.902344 107.597656 C 18.902344 106.957031 18.652344 106.453125 18.148438 106.078125 C 17.644531 105.707031 16.960938 105.519531 16.089844 105.519531 C 15.226562 105.519531 14.542969 105.707031 14.039062 106.078125 C 13.53125 106.453125 13.277344 106.957031 13.277344 107.597656 Z M 12.265625 107.597656 C 12.265625 106.554688 12.601562 105.738281 13.28125 105.140625 C 13.957031 104.546875 14.894531 104.25 16.089844 104.25 C 17.285156 104.25 18.222656 104.546875 18.902344 105.140625 C 19.582031 105.738281 19.921875 106.554688 19.921875 107.597656 C 19.921875 108.640625 19.582031 109.460938 18.902344 110.054688 C 18.222656 110.644531 17.285156 110.941406 16.089844 110.941406 C 14.894531 110.941406 13.957031 110.644531 13.28125 110.054688 C 12.601562 109.460938 12.265625 108.640625 12.265625 107.597656 Z M 12.265625 107.597656 "/>
<path style=" stroke:none;fill-rule:nonzero;fill:rgb(0%,0%,0%);fill-opacity:1;" d="M 16.855469 102.386719 L 12.441406 102.386719 L 12.441406 101.1875 L 16.808594 101.1875 C 17.5 101.1875 18.015625 101.054688 18.363281 100.785156 C 18.707031 100.515625 18.878906 100.113281 18.878906 99.574219 C 18.878906 98.929688 18.671875 98.417969 18.261719 98.042969 C 17.847656 97.667969 17.285156 97.476562 16.574219 97.476562 L 12.441406 97.476562 L 12.441406 96.28125 L 19.730469 96.28125 L 19.730469 97.476562 L 18.609375 97.476562 C 19.054688 97.769531 19.382812 98.105469 19.597656 98.492188 C 19.8125 98.875 19.921875 99.320312 19.921875 99.828125 C 19.921875 100.664062 19.660156 101.300781 19.140625 101.738281 C 18.617188 102.171875 17.855469 102.386719 16.855469 102.386719 Z M 12.265625 99.371094 Z M 12.265625 99.371094 "/>
<path style=" stroke:none;fill-rule:nonzero;fill:rgb(0%,0%,0%);fill-opacity:1;" d="M 15.328125 87.75 L 19.730469 87.75 L 19.730469 88.949219 L 15.367188 88.949219 C 14.679688 88.949219 14.164062 89.082031 13.820312 89.351562 C 13.476562 89.621094 13.304688 90.027344 13.304688 90.5625 C 13.304688 91.210938 13.511719 91.722656 13.925781 92.09375 C 14.335938 92.46875 14.898438 92.65625 15.609375 92.65625 L 19.730469 92.65625 L 19.730469 93.859375 L 12.441406 93.859375 L 12.441406 92.65625 L 13.574219 92.65625 C 13.132812 92.367188 12.804688 92.03125 12.589844 91.640625 C 12.371094 91.253906 12.265625 90.804688 12.265625 90.296875 C 12.265625 89.460938 12.523438 88.824219 13.042969 88.398438 C 13.558594 87.964844 14.320312 87.75 15.328125 87.75 Z M 15.328125 87.75 "/>
<path style=" stroke:none;fill-rule:nonzero;fill:rgb(0%,0%,0%);fill-opacity:1;" d="M 10.367188 84.175781 L 12.441406 84.175781 L 12.441406 81.710938 L 13.371094 81.710938 L 13.371094 84.175781 L 17.328125 84.175781 C 17.921875 84.175781 18.304688 84.097656 18.476562 83.933594 C 18.644531 83.769531 18.730469 83.441406 18.730469 82.941406 L 18.730469 81.710938 L 19.730469 81.710938 L 19.730469 82.941406 C 19.730469 83.863281 19.558594 84.503906 19.214844 84.855469 C 18.867188 85.207031 18.242188 85.382812 17.328125 85.382812 L 13.371094 85.382812 L 13.371094 86.261719 L 12.441406 86.261719 L 12.441406 85.382812 L 10.367188 85.382812 Z M 10.367188 84.175781 "/>
<path style="fill:none;stroke-width:0.8;stroke-linecap:square;stroke-linejoin:miter;stroke:rgb(0%,0%,0%);stroke-opacity:1;stroke-miterlimit:4;" d="M 66.052734 143.100586 L 66.052734 7.201172 " transform="matrix(1.333333,0,0,1.333333,0,0)"/>
<path style="fill:none;stroke-width:0.8;stroke-linecap:square;stroke-linejoin:miter;stroke:rgb(0%,0%,0%);stroke-opacity:1;stroke-miterlimit:4;" d="M 261.354492 143.100586 L 261.354492 7.201172 " transform="matrix(1.333333,0,0,1.333333,0,0)"/>
<path style="fill:none;stroke-width:0.8;stroke-linecap:square;stroke-linejoin:miter;stroke:rgb(0%,0%,0%);stroke-opacity:1;stroke-miterlimit:4;" d="M 66.052734 143.100586 L 261.354492 143.100586 " transform="matrix(1.333333,0,0,1.333333,0,0)"/>
<path style="fill:none;stroke-width:0.8;stroke-linecap:square;stroke-linejoin:miter;stroke:rgb(0%,0%,0%);stroke-opacity:1;stroke-miterlimit:4;" d="M 66.052734 7.201172 L 261.354492 7.201172 " transform="matrix(1.333333,0,0,1.333333,0,0)"/>
<use xlink:href="#surface23" mask="url(#mask0)"/>
<path style=" stroke:none;fill-rule:nonzero;fill:rgb(12.156863%,46.666667%,70.588237%);fill-opacity:1;" d="M 254.867188 31.730469 L 281.535156 31.730469 L 281.535156 22.398438 L 254.867188 22.398438 Z M 254.867188 31.730469 "/>
<path style=" stroke:none;fill-rule:nonzero;fill:rgb(0%,0%,0%);fill-opacity:1;" d="M 298.105469 24.652344 L 298.105469 25.789062 C 297.765625 25.613281 297.414062 25.484375 297.050781 25.398438 C 296.6875 25.308594 296.308594 25.265625 295.917969 25.265625 C 295.320312 25.265625 294.875 25.359375 294.578125 25.539062 C 294.28125 25.722656 294.132812 25.996094 294.132812 26.359375 C 294.132812 26.636719 294.238281 26.855469 294.453125 27.015625 C 294.664062 27.171875 295.09375 27.324219 295.734375 27.464844 L 296.144531 27.558594 C 296.996094 27.742188 297.601562 27.996094 297.957031 28.328125 C 298.316406 28.660156 298.496094 29.125 298.496094 29.71875 C 298.496094 30.398438 298.226562 30.933594 297.691406 31.328125 C 297.15625 31.722656 296.417969 31.921875 295.480469 31.921875 C 295.089844 31.921875 294.683594 31.882812 294.261719 31.804688 C 293.835938 31.730469 293.390625 31.617188 292.921875 31.464844 L 292.921875 30.226562 C 293.367188 30.457031 293.800781 30.628906 294.230469 30.746094 C 294.660156 30.859375 295.085938 30.917969 295.507812 30.917969 C 296.070312 30.917969 296.503906 30.820312 296.808594 30.628906 C 297.113281 30.433594 297.265625 30.160156 297.265625 29.808594 C 297.265625 29.484375 297.15625 29.234375 296.933594 29.0625 C 296.71875 28.890625 296.238281 28.722656 295.492188 28.558594 L 295.078125 28.460938 C 294.335938 28.308594 293.800781 28.066406 293.46875 27.742188 C 293.140625 27.421875 292.976562 26.976562 292.976562 26.414062 C 292.976562 25.726562 293.21875 25.195312 293.703125 24.824219 C 294.191406 24.453125 294.878906 24.265625 295.773438 24.265625 C 296.214844 24.265625 296.632812 24.296875 297.023438 24.363281 C 297.414062 24.425781 297.773438 24.523438 298.105469 24.652344 Z M 298.105469 24.652344 "/>
<path style=" stroke:none;fill-rule:nonzero;fill:rgb(0%,0%,0%);fill-opacity:1;" d="M 303.226562 25.277344 C 302.585938 25.277344 302.078125 25.53125 301.703125 26.03125 C 301.332031 26.53125 301.144531 27.21875 301.144531 28.089844 C 301.144531 28.964844 301.328125 29.652344 301.699219 30.152344 C 302.074219 30.652344 302.582031 30.902344 303.226562 30.902344 C 303.867188 30.902344 304.371094 30.652344 304.746094 30.148438 C 305.117188 29.644531 305.304688 28.960938 305.304688 28.089844 C 305.304688 27.226562 305.117188 26.542969 304.746094 26.039062 C 304.371094 25.53125 303.867188 25.277344 303.226562 25.277344 Z M 303.226562 24.265625 C 304.269531 24.265625 305.085938 24.601562 305.683594 25.28125 C 306.277344 25.957031 306.574219 26.894531 306.574219 28.089844 C 306.574219 29.285156 306.277344 30.222656 305.683594 30.902344 C 305.085938 31.582031 304.269531 31.921875 303.226562 31.921875 C 302.183594 31.921875 301.363281 31.582031 300.769531 30.902344 C 300.179688 30.222656 299.882812 29.285156 299.882812 28.089844 C 299.882812 26.894531 300.179688 25.957031 300.769531 25.28125 C 301.363281 24.601562 302.183594 24.265625 303.226562 24.265625 Z M 303.226562 24.265625 "/>
<path style=" stroke:none;fill-rule:nonzero;fill:rgb(0%,0%,0%);fill-opacity:1;" d="M 308.4375 28.855469 L 308.4375 24.441406 L 309.636719 24.441406 L 309.636719 28.808594 C 309.636719 29.5 309.769531 30.015625 310.039062 30.363281 C 310.308594 30.707031 310.710938 30.878906 311.25 30.878906 C 311.894531 30.878906 312.40625 30.671875 312.78125 30.261719 C 313.15625 29.847656 313.347656 29.285156 313.347656 28.574219 L 313.347656 24.441406 L 314.542969 24.441406 L 314.542969 31.730469 L 313.347656 31.730469 L 313.347656 30.609375 C 313.054688 31.054688 312.71875 31.382812 312.332031 31.597656 C 311.949219 31.8125 311.503906 31.921875 310.996094 31.921875 C 310.160156 31.921875 309.523438 31.660156 309.085938 31.140625 C 308.652344 30.617188 308.4375 29.855469 308.4375 28.855469 Z M 311.453125 24.265625 Z M 311.453125 24.265625 "/>
<path style=" stroke:none;fill-rule:nonzero;fill:rgb(0%,0%,0%);fill-opacity:1;" d="M 321.234375 25.558594 C 321.101562 25.480469 320.953125 25.421875 320.796875 25.386719 C 320.636719 25.351562 320.464844 25.332031 320.273438 25.332031 C 319.59375 25.332031 319.074219 25.550781 318.714844 25.992188 C 318.351562 26.433594 318.167969 27.066406 318.167969 27.890625 L 318.167969 31.730469 L 316.964844 31.730469 L 316.964844 24.441406 L 318.167969 24.441406 L 318.167969 25.574219 C 318.421875 25.128906 318.75 24.800781 319.152344 24.585938 C 319.558594 24.371094 320.046875 24.265625 320.625 24.265625 C 320.707031 24.265625 320.796875 24.269531 320.898438 24.28125 C 321 24.289062 321.109375 24.308594 321.230469 24.328125 Z M 321.234375 25.558594 "/>
<path style=" stroke:none;fill-rule:nonzero;fill:rgb(0%,0%,0%);fill-opacity:1;" d="M 327.441406 24.71875 L 327.441406 25.839844 C 327.101562 25.652344 326.761719 25.511719 326.421875 25.417969 C 326.082031 25.324219 325.738281 25.277344 325.390625 25.277344 C 324.613281 25.277344 324.007812 25.527344 323.578125 26.019531 C 323.148438 26.511719 322.933594 27.203125 322.933594 28.089844 C 322.933594 28.980469 323.148438 29.671875 323.578125 30.167969 C 324.007812 30.660156 324.613281 30.902344 325.390625 30.902344 C 325.738281 30.902344 326.082031 30.859375 326.421875 30.765625 C 326.761719 30.671875 327.101562 30.53125 327.441406 30.34375 L 327.441406 31.453125 C 327.105469 31.609375 326.757812 31.722656 326.402344 31.800781 C 326.042969 31.882812 325.664062 31.921875 325.257812 31.921875 C 324.160156 31.921875 323.289062 31.574219 322.640625 30.886719 C 321.996094 30.195312 321.671875 29.265625 321.671875 28.089844 C 321.671875 26.902344 322 25.96875 322.652344 25.289062 C 323.304688 24.605469 324.199219 24.265625 325.339844 24.265625 C 325.707031 24.265625 326.066406 24.304688 326.417969 24.378906 C 326.769531 24.453125 327.109375 24.566406 327.441406 24.71875 Z M 327.441406 24.71875 "/>
<path style=" stroke:none;fill-rule:nonzero;fill:rgb(0%,0%,0%);fill-opacity:1;" d="M 335.761719 27.785156 L 335.761719 28.371094 L 330.253906 28.371094 C 330.304688 29.195312 330.554688 29.824219 331 30.257812 C 331.441406 30.6875 332.0625 30.902344 332.855469 30.902344 C 333.316406 30.902344 333.761719 30.847656 334.195312 30.734375 C 334.625 30.621094 335.054688 30.453125 335.480469 30.226562 L 335.480469 31.359375 C 335.050781 31.542969 334.609375 31.679688 334.160156 31.777344 C 333.707031 31.871094 333.25 31.921875 332.785156 31.921875 C 331.621094 31.921875 330.699219 31.582031 330.019531 30.90625 C 329.34375 30.226562 329.003906 29.3125 329.003906 28.15625 C 329.003906 26.964844 329.324219 26.015625 329.96875 25.316406 C 330.613281 24.617188 331.484375 24.265625 332.578125 24.265625 C 333.558594 24.265625 334.332031 24.582031 334.90625 25.210938 C 335.476562 25.84375 335.761719 26.699219 335.761719 27.785156 Z M 334.5625 27.433594 C 334.554688 26.777344 334.371094 26.257812 334.011719 25.867188 C 333.65625 25.476562 333.179688 25.277344 332.589844 25.277344 C 331.921875 25.277344 331.386719 25.46875 330.984375 25.847656 C 330.585938 26.222656 330.351562 26.753906 330.292969 27.441406 Z M 334.5625 27.433594 "/>
<path style=" stroke:none;fill-rule:nonzero;fill:url(#pattern6);" d="M 254.867188 51.300781 L 281.535156 51.300781 L 281.535156 41.96875 L 254.867188 41.96875 Z M 254.867188 51.300781 "/>
<path style=" stroke:none;fill-rule:nonzero;fill:rgb(0%,0%,0%);fill-opacity:1;" d="M 294.640625 41.941406 L 294.640625 44.011719 L 297.109375 44.011719 L 297.109375 44.941406 L 294.640625 44.941406 L 294.640625 48.898438 C 294.640625 49.496094 294.722656 49.875 294.886719 50.046875 C 295.046875 50.214844 295.378906 50.300781 295.878906 50.300781 L 297.109375 50.300781 L 297.109375 51.300781 L 295.878906 51.300781 C 294.953125 51.300781 294.316406 51.128906 293.964844 50.785156 C 293.613281 50.441406 293.4375 49.8125 293.4375 48.898438 L 293.4375 44.941406 L 292.558594 44.941406 L 292.558594 44.011719 L 293.4375 44.011719 L 293.4375 41.941406 Z M 294.640625 41.941406 "/>
<path style=" stroke:none;fill-rule:nonzero;fill:rgb(0%,0%,0%);fill-opacity:1;" d="M 302 47.636719 C 301.03125 47.636719 300.359375 47.746094 299.984375 47.96875 C 299.613281 48.191406 299.425781 48.566406 299.425781 49.101562 C 299.425781 49.527344 299.566406 49.863281 299.847656 50.113281 C 300.128906 50.363281 300.507812 50.488281 300.988281 50.488281 C 301.652344 50.488281 302.1875 50.253906 302.589844 49.78125 C 302.988281 49.308594 303.191406 48.683594 303.191406 47.902344 L 303.191406 47.636719 Z M 304.386719 47.140625 L 304.386719 51.300781 L 303.191406 51.300781 L 303.191406 50.195312 C 302.917969 50.636719 302.574219 50.964844 302.167969 51.175781 C 301.757812 51.386719 301.261719 51.492188 300.667969 51.492188 C 299.921875 51.492188 299.328125 51.28125 298.886719 50.863281 C 298.449219 50.441406 298.226562 49.882812 298.226562 49.179688 C 298.226562 48.359375 298.503906 47.742188 299.050781 47.324219 C 299.601562 46.910156 300.421875 46.699219 301.507812 46.699219 L 303.191406 46.699219 L 303.191406 46.582031 C 303.191406 46.03125 303.007812 45.601562 302.648438 45.300781 C 302.285156 45 301.773438 44.851562 301.121094 44.851562 C 300.703125 44.851562 300.296875 44.898438 299.902344 45 C 299.507812 45.101562 299.128906 45.25 298.761719 45.449219 L 298.761719 44.339844 C 299.199219 44.171875 299.625 44.046875 300.039062 43.960938 C 300.449219 43.878906 300.851562 43.835938 301.242188 43.835938 C 302.296875 43.835938 303.085938 44.109375 303.605469 44.65625 C 304.128906 45.203125 304.386719 46.03125 304.386719 47.140625 Z M 304.386719 47.140625 "/>
<path style=" stroke:none;fill-rule:nonzero;fill:rgb(0%,0%,0%);fill-opacity:1;" d="M 311.078125 45.128906 C 310.945312 45.050781 310.796875 44.996094 310.640625 44.957031 C 310.480469 44.921875 310.308594 44.902344 310.117188 44.902344 C 309.4375 44.902344 308.917969 45.121094 308.558594 45.5625 C 308.195312 46.003906 308.011719 46.636719 308.011719 47.460938 L 308.011719 51.300781 L 306.808594 51.300781 L 306.808594 44.011719 L 308.011719 44.011719 L 308.011719 45.144531 C 308.265625 44.699219 308.59375 44.371094 308.996094 44.160156 C 309.402344 43.941406 309.890625 43.835938 310.46875 43.835938 C 310.550781 43.835938 310.640625 43.839844 310.742188 43.851562 C 310.84375 43.863281 310.953125 43.878906 311.074219 43.898438 Z M 311.078125 45.128906 "/>
<path style=" stroke:none;fill-rule:nonzero;fill:rgb(0%,0%,0%);fill-opacity:1;" d="M 316.902344 47.570312 C 316.902344 46.703125 316.722656 46.03125 316.363281 45.554688 C 316.007812 45.078125 315.503906 44.835938 314.855469 44.835938 C 314.214844 44.835938 313.714844 45.078125 313.355469 45.554688 C 313 46.03125 312.820312 46.703125 312.820312 47.570312 C 312.820312 48.433594 313 49.105469 313.355469 49.582031 C 313.714844 50.0625 314.214844 50.300781 314.855469 50.300781 C 315.503906 50.300781 316.007812 50.0625 316.363281 49.582031 C 316.722656 49.105469 316.902344 48.433594 316.902344 47.570312 Z M 318.097656 50.398438 C 318.097656 51.636719 317.824219 52.5625 317.273438 53.167969 C 316.722656 53.773438 315.878906 54.074219 314.742188 54.074219 C 314.320312 54.074219 313.921875 54.042969 313.550781 53.980469 C 313.175781 53.917969 312.8125 53.820312 312.460938 53.691406 L 312.460938 52.527344 C 312.8125 52.71875 313.160156 52.859375 313.503906 52.949219 C 313.847656 53.039062 314.195312 53.085938 314.550781 53.085938 C 315.335938 53.085938 315.925781 52.878906 316.316406 52.472656 C 316.707031 52.0625 316.902344 51.441406 316.902344 50.613281 L 316.902344 50.019531 C 316.652344 50.449219 316.335938 50.769531 315.949219 50.984375 C 315.566406 51.195312 315.101562 51.300781 314.5625 51.300781 C 313.671875 51.300781 312.949219 50.960938 312.402344 50.28125 C 311.855469 49.597656 311.582031 48.695312 311.582031 47.570312 C 311.582031 46.441406 311.855469 45.539062 312.402344 44.859375 C 312.949219 44.175781 313.671875 43.835938 314.5625 43.835938 C 315.101562 43.835938 315.566406 43.941406 315.949219 44.152344 C 316.335938 44.367188 316.652344 44.6875 316.902344 45.117188 L 316.902344 44.011719 L 318.097656 44.011719 Z M 318.097656 50.398438 "/>
<path style=" stroke:none;fill-rule:nonzero;fill:rgb(0%,0%,0%);fill-opacity:1;" d="M 326.804688 47.355469 L 326.804688 47.941406 L 321.296875 47.941406 C 321.347656 48.765625 321.597656 49.394531 322.042969 49.828125 C 322.484375 50.257812 323.105469 50.476562 323.898438 50.476562 C 324.359375 50.476562 324.804688 50.417969 325.238281 50.304688 C 325.667969 50.195312 326.097656 50.023438 326.523438 49.796875 L 326.523438 50.929688 C 326.09375 51.113281 325.652344 51.253906 325.203125 51.347656 C 324.75 51.445312 324.292969 51.492188 323.828125 51.492188 C 322.664062 51.492188 321.742188 51.152344 321.066406 50.476562 C 320.386719 49.800781 320.046875 48.882812 320.046875 47.726562 C 320.046875 46.535156 320.367188 45.585938 321.011719 44.886719 C 321.65625 44.1875 322.527344 43.835938 323.621094 43.835938 C 324.601562 43.835938 325.378906 44.152344 325.949219 44.785156 C 326.519531 45.414062 326.804688 46.273438 326.804688 47.355469 Z M 325.605469 47.003906 C 325.597656 46.351562 325.414062 45.828125 325.054688 45.4375 C 324.699219 45.046875 324.222656 44.851562 323.632812 44.851562 C 322.964844 44.851562 322.429688 45.039062 322.027344 45.417969 C 321.628906 45.792969 321.398438 46.328125 321.335938 47.011719 Z M 325.605469 47.003906 "/>
<path style=" stroke:none;fill-rule:nonzero;fill:rgb(0%,0%,0%);fill-opacity:1;" d="M 329.957031 41.941406 L 329.957031 44.011719 L 332.421875 44.011719 L 332.421875 44.941406 L 329.957031 44.941406 L 329.957031 48.898438 C 329.957031 49.496094 330.035156 49.875 330.199219 50.046875 C 330.363281 50.214844 330.691406 50.300781 331.191406 50.300781 L 332.421875 50.300781 L 332.421875 51.300781 L 331.191406 51.300781 C 330.269531 51.300781 329.628906 51.128906 329.277344 50.785156 C 328.925781 50.441406 328.75 49.8125 328.75 48.898438 L 328.75 44.941406 L 327.871094 44.941406 L 327.871094 44.011719 L 328.75 44.011719 L 328.75 41.941406 Z M 329.957031 41.941406 "/>
</g>
</svg>
