<?xml version="1.0" encoding="UTF-8"?>
<svg xmlns="http://www.w3.org/2000/svg" xmlns:xlink="http://www.w3.org/1999/xlink" width="351.229167" height="240.875" viewBox="0 0 351.229167 240.875" version="1.1">
<defs>
<clipPath id="clip1">
  <path d="M 108 9.601562 L 111 9.601562 L 111 190.800781 L 108 190.800781 Z M 108 9.601562 "/>
</clipPath>
<clipPath id="clip2">
  <path d="M 163 9.601562 L 166 9.601562 L 166 190.800781 L 163 190.800781 Z M 163 9.601562 "/>
</clipPath>
<clipPath id="clip3">
  <path d="M 218 9.601562 L 221 9.601562 L 221 190.800781 L 218 190.800781 Z M 218 9.601562 "/>
</clipPath>
<clipPath id="clip4">
  <path d="M 273 9.601562 L 275 9.601562 L 275 190.800781 L 273 190.800781 Z M 273 9.601562 "/>
</clipPath>
<clipPath id="clip5">
  <path d="M 328 9.601562 L 328.902344 9.601562 L 328.902344 190.800781 L 328 190.800781 Z M 328 9.601562 "/>
</clipPath>
<clipPath id="clip6">
  <path d="M 68.503906 143 L 328.902344 143 L 328.902344 146 L 68.503906 146 Z M 68.503906 143 "/>
</clipPath>
<clipPath id="clip7">
  <path d="M 68.503906 82 L 328.902344 82 L 328.902344 85 L 68.503906 85 Z M 68.503906 82 "/>
</clipPath>
<clipPath id="clip8">
  <path d="M 68.503906 21 L 328.902344 21 L 328.902344 24 L 68.503906 24 Z M 68.503906 21 "/>
</clipPath>
<clipPath id="clip9">
  <path d="M 68.503906 51 L 328.902344 51 L 328.902344 184 L 68.503906 184 Z M 68.503906 51 "/>
</clipPath>
<clipPath id="clip10">
  <path d="M 68.503906 16 L 328.902344 16 L 328.902344 107 L 68.503906 107 Z M 68.503906 16 "/>
</clipPath>
<filter id="alpha" filterUnits="objectBoundingBox" x="0%" y="0%" width="100%" height="100%">
  <feColorMatrix type="matrix" in="SourceGraphic" values="0 0 0 0 1 0 0 0 0 1 0 0 0 0 1 0 0 0 1 0"/>
</filter>
<mask id="mask0">
  <g filter="url(#alpha)">
<rect x="0" y="0" width="351.229167" height="240.875" style="fill:rgb(0%,0%,0%);fill-opacity:0.8;stroke:none;"/>
  </g>
</mask>
<clipPath id="clip11">
  <rect x="0" y="0" width="352" height="241"/>
</clipPath>
<g id="surface5" clip-path="url(#clip11)">
<path style="fill-rule:nonzero;fill:rgb(100%,100%,100%);fill-opacity:1;stroke-width:1;stroke-linecap:butt;stroke-linejoin:miter;stroke:rgb(80.000001%,80.000001%,80.000001%);stroke-opacity:1;stroke-miterlimit:4;" d="M 184.40332 44.557617 L 239.677734 44.557617 C 241.010742 44.557617 241.678711 43.889648 241.678711 42.556641 L 241.678711 14.200195 C 241.678711 12.867188 241.010742 12.199219 239.677734 12.199219 L 184.40332 12.199219 C 183.070312 12.199219 182.402344 12.867188 182.402344 14.200195 L 182.402344 42.556641 C 182.402344 43.889648 183.070312 44.557617 184.40332 44.557617 Z M 184.40332 44.557617 " transform="matrix(1.333333,0,0,1.333333,0.000000000000028422,0)"/>
</g>
</defs>
<g id="surface1">
<path style=" stroke:none;fill-rule:nonzero;fill:rgb(100%,100%,100%);fill-opacity:1;" d="M 68.503906 190.800781 L 328.902344 190.800781 L 328.902344 9.601562 L 68.503906 9.601562 Z M 68.503906 190.800781 "/>
<g clip-path="url(#clip1)" clip-rule="nonzero">
<path style="fill:none;stroke-width:0.8;stroke-linecap:square;stroke-linejoin:round;stroke:rgb(69.01961%,69.01961%,69.01961%);stroke-opacity:1;stroke-miterlimit:4;" d="M 82.21582 143.100586 L 82.21582 7.201172 " transform="matrix(1.333333,0,0,1.333333,0.000000000000028422,0)"/>
</g>
<path style="fill:none;stroke-width:0.8;stroke-linecap:butt;stroke-linejoin:round;stroke:rgb(0%,0%,0%);stroke-opacity:1;stroke-miterlimit:4;" d="M 0.000854492 0.000579834 L 0.000854492 3.498627 " transform="matrix(1.333333,0,0,1.333333,109.619954,190.800008)"/>
<path style=" stroke:none;fill-rule:nonzero;fill:rgb(0%,0%,0%);fill-opacity:1;" d="M 103.695312 209.160156 L 108.285156 209.160156 L 108.285156 210.265625 L 102.113281 210.265625 L 102.113281 209.160156 C 102.613281 208.640625 103.292969 207.949219 104.152344 207.078125 C 105.015625 206.207031 105.558594 205.648438 105.777344 205.394531 C 106.199219 204.921875 106.492188 204.523438 106.660156 204.195312 C 106.828125 203.867188 106.910156 203.542969 106.910156 203.226562 C 106.910156 202.710938 106.730469 202.289062 106.367188 201.964844 C 106.003906 201.636719 105.53125 201.476562 104.953125 201.476562 C 104.539062 201.476562 104.101562 201.546875 103.644531 201.691406 C 103.1875 201.832031 102.699219 202.050781 102.179688 202.339844 L 102.179688 201.011719 C 102.707031 200.800781 103.203125 200.640625 103.660156 200.53125 C 104.121094 200.421875 104.542969 200.367188 104.925781 200.367188 C 105.933594 200.367188 106.734375 200.621094 107.335938 201.125 C 107.933594 201.628906 108.234375 202.300781 108.234375 203.140625 C 108.234375 203.542969 108.15625 203.921875 108.007812 204.277344 C 107.859375 204.636719 107.585938 205.058594 107.191406 205.542969 C 107.082031 205.671875 106.738281 206.035156 106.15625 206.636719 C 105.574219 207.238281 104.753906 208.078125 103.695312 209.160156 Z M 103.695312 209.160156 "/>
<path style=" stroke:none;fill-rule:nonzero;fill:rgb(0%,0%,0%);fill-opacity:1;" d="M 113.855469 201.410156 C 113.179688 201.410156 112.671875 201.742188 112.332031 202.410156 C 111.988281 203.074219 111.820312 204.078125 111.820312 205.414062 C 111.820312 206.746094 111.988281 207.746094 112.332031 208.414062 C 112.671875 209.078125 113.179688 209.414062 113.855469 209.414062 C 114.539062 209.414062 115.050781 209.078125 115.390625 208.414062 C 115.730469 207.746094 115.902344 206.746094 115.902344 205.414062 C 115.902344 204.078125 115.730469 203.074219 115.390625 202.410156 C 115.050781 201.742188 114.539062 201.410156 113.855469 201.410156 Z M 113.855469 200.367188 C 114.949219 200.367188 115.78125 200.800781 116.355469 201.664062 C 116.929688 202.523438 117.21875 203.773438 117.21875 205.414062 C 117.21875 207.050781 116.929688 208.300781 116.355469 209.164062 C 115.78125 210.023438 114.949219 210.453125 113.855469 210.453125 C 112.769531 210.453125 111.9375 210.023438 111.363281 209.164062 C 110.785156 208.300781 110.5 207.050781 110.5 205.414062 C 110.5 203.773438 110.785156 202.523438 111.363281 201.664062 C 111.9375 200.800781 112.769531 200.367188 113.855469 200.367188 Z M 113.855469 200.367188 "/>
<g clip-path="url(#clip2)" clip-rule="nonzero">
<path style="fill:none;stroke-width:0.8;stroke-linecap:square;stroke-linejoin:round;stroke:rgb(69.01961%,69.01961%,69.01961%);stroke-opacity:1;stroke-miterlimit:4;" d="M 123.331055 143.100586 L 123.331055 7.201172 " transform="matrix(1.333333,0,0,1.333333,0.000000000000028422,0)"/>
</g>
<path style="fill:none;stroke-width:0.8;stroke-linecap:butt;stroke-linejoin:round;stroke:rgb(0%,0%,0%);stroke-opacity:1;stroke-miterlimit:4;" d="M 0.000297546 0.000579834 L 0.000297546 3.498627 " transform="matrix(1.333333,0,0,1.333333,164.44101,190.800008)"/>
<path style=" stroke:none;fill-rule:nonzero;fill:rgb(0%,0%,0%);fill-opacity:1;" d="M 160.996094 201.691406 L 157.675781 206.878906 L 160.996094 206.878906 Z M 160.652344 200.542969 L 162.304688 200.542969 L 162.304688 206.878906 L 163.691406 206.878906 L 163.691406 207.972656 L 162.304688 207.972656 L 162.304688 210.265625 L 160.996094 210.265625 L 160.996094 207.972656 L 156.609375 207.972656 L 156.609375 206.703125 Z M 160.652344 200.542969 "/>
<path style=" stroke:none;fill-rule:nonzero;fill:rgb(0%,0%,0%);fill-opacity:1;" d="M 168.679688 201.410156 C 168 201.410156 167.492188 201.742188 167.152344 202.410156 C 166.8125 203.074219 166.640625 204.078125 166.640625 205.414062 C 166.640625 206.746094 166.8125 207.746094 167.152344 208.414062 C 167.492188 209.078125 168 209.414062 168.679688 209.414062 C 169.359375 209.414062 169.871094 209.078125 170.210938 208.414062 C 170.554688 207.746094 170.722656 206.746094 170.722656 205.414062 C 170.722656 204.078125 170.554688 203.074219 170.210938 202.410156 C 169.871094 201.742188 169.359375 201.410156 168.679688 201.410156 Z M 168.679688 200.367188 C 169.769531 200.367188 170.601562 200.800781 171.175781 201.664062 C 171.75 202.523438 172.039062 203.773438 172.039062 205.414062 C 172.039062 207.050781 171.75 208.300781 171.175781 209.164062 C 170.601562 210.023438 169.769531 210.453125 168.679688 210.453125 C 167.589844 210.453125 166.757812 210.023438 166.183594 209.164062 C 165.605469 208.300781 165.320312 207.050781 165.320312 205.414062 C 165.320312 203.773438 165.605469 202.523438 166.183594 201.664062 C 166.757812 200.800781 167.589844 200.367188 168.679688 200.367188 Z M 168.679688 200.367188 "/>
<g clip-path="url(#clip3)" clip-rule="nonzero">
<path style="fill:none;stroke-width:0.8;stroke-linecap:square;stroke-linejoin:round;stroke:rgb(69.01961%,69.01961%,69.01961%);stroke-opacity:1;stroke-miterlimit:4;" d="M 164.446289 143.100586 L 164.446289 7.201172 " transform="matrix(1.333333,0,0,1.333333,0.000000000000028422,0)"/>
</g>
<path style="fill:none;stroke-width:0.8;stroke-linecap:butt;stroke-linejoin:round;stroke:rgb(0%,0%,0%);stroke-opacity:1;stroke-miterlimit:4;" d="M -0.000259399 0.000579834 L -0.000259399 3.498627 " transform="matrix(1.333333,0,0,1.333333,219.262065,190.800008)"/>
<path style=" stroke:none;fill-rule:nonzero;fill:rgb(0%,0%,0%);fill-opacity:1;" d="M 215.179688 204.882812 C 214.589844 204.882812 214.121094 205.082031 213.777344 205.488281 C 213.433594 205.890625 213.261719 206.441406 213.261719 207.144531 C 213.261719 207.84375 213.433594 208.398438 213.777344 208.804688 C 214.121094 209.210938 214.589844 209.414062 215.179688 209.414062 C 215.769531 209.414062 216.238281 209.210938 216.582031 208.804688 C 216.925781 208.398438 217.097656 207.84375 217.097656 207.144531 C 217.097656 206.441406 216.925781 205.890625 216.582031 205.488281 C 216.238281 205.082031 215.769531 204.882812 215.179688 204.882812 Z M 217.792969 200.757812 L 217.792969 201.957031 C 217.460938 201.800781 217.128906 201.683594 216.792969 201.601562 C 216.457031 201.515625 216.121094 201.476562 215.792969 201.476562 C 214.921875 201.476562 214.261719 201.769531 213.800781 202.355469 C 213.34375 202.941406 213.082031 203.824219 213.019531 205.011719 C 213.273438 204.632812 213.59375 204.34375 213.980469 204.140625 C 214.367188 203.941406 214.792969 203.839844 215.257812 203.839844 C 216.234375 203.839844 217.003906 204.136719 217.574219 204.730469 C 218.140625 205.320312 218.421875 206.125 218.421875 207.144531 C 218.421875 208.144531 218.128906 208.945312 217.535156 209.550781 C 216.945312 210.152344 216.160156 210.453125 215.179688 210.453125 C 214.054688 210.453125 213.195312 210.023438 212.601562 209.164062 C 212.007812 208.300781 211.710938 207.050781 211.710938 205.414062 C 211.710938 203.878906 212.074219 202.652344 212.804688 201.738281 C 213.53125 200.824219 214.511719 200.367188 215.738281 200.367188 C 216.070312 200.367188 216.402344 200.402344 216.738281 200.464844 C 217.074219 200.53125 217.425781 200.628906 217.792969 200.757812 Z M 217.792969 200.757812 "/>
<path style=" stroke:none;fill-rule:nonzero;fill:rgb(0%,0%,0%);fill-opacity:1;" d="M 223.5 201.410156 C 222.824219 201.410156 222.3125 201.742188 221.972656 202.410156 C 221.632812 203.074219 221.460938 204.078125 221.460938 205.414062 C 221.460938 206.746094 221.632812 207.746094 221.972656 208.414062 C 222.3125 209.078125 222.824219 209.414062 223.5 209.414062 C 224.179688 209.414062 224.691406 209.078125 225.03125 208.414062 C 225.375 207.746094 225.546875 206.746094 225.546875 205.414062 C 225.546875 204.078125 225.375 203.074219 225.03125 202.410156 C 224.691406 201.742188 224.179688 201.410156 223.5 201.410156 Z M 223.5 200.367188 C 224.589844 200.367188 225.421875 200.800781 225.996094 201.664062 C 226.570312 202.523438 226.859375 203.773438 226.859375 205.414062 C 226.859375 207.050781 226.570312 208.300781 225.996094 209.164062 C 225.421875 210.023438 224.589844 210.453125 223.5 210.453125 C 222.410156 210.453125 221.578125 210.023438 221.003906 209.164062 C 220.429688 208.300781 220.140625 207.050781 220.140625 205.414062 C 220.140625 203.773438 220.429688 202.523438 221.003906 201.664062 C 221.578125 200.800781 222.410156 200.367188 223.5 200.367188 Z M 223.5 200.367188 "/>
<g clip-path="url(#clip4)" clip-rule="nonzero">
<path style="fill:none;stroke-width:0.8;stroke-linecap:square;stroke-linejoin:round;stroke:rgb(69.01961%,69.01961%,69.01961%);stroke-opacity:1;stroke-miterlimit:4;" d="M 205.561523 143.100586 L 205.561523 7.201172 " transform="matrix(1.333333,0,0,1.333333,0.000000000000028422,0)"/>
</g>
<path style="fill:none;stroke-width:0.8;stroke-linecap:butt;stroke-linejoin:round;stroke:rgb(0%,0%,0%);stroke-opacity:1;stroke-miterlimit:4;" d="M -0.000808716 0.000579834 L -0.000808716 3.498627 " transform="matrix(1.333333,0,0,1.333333,274.08311,190.800008)"/>
<path style=" stroke:none;fill-rule:nonzero;fill:rgb(0%,0%,0%);fill-opacity:1;" d="M 269.835938 205.648438 C 269.210938 205.648438 268.71875 205.816406 268.363281 206.148438 C 268.003906 206.484375 267.828125 206.945312 267.828125 207.527344 C 267.828125 208.117188 268.003906 208.574219 268.363281 208.910156 C 268.71875 209.246094 269.210938 209.414062 269.835938 209.414062 C 270.460938 209.414062 270.953125 209.246094 271.3125 208.910156 C 271.675781 208.570312 271.855469 208.109375 271.855469 207.527344 C 271.855469 206.945312 271.675781 206.484375 271.320312 206.148438 C 270.960938 205.816406 270.46875 205.648438 269.835938 205.648438 Z M 268.523438 205.089844 C 267.957031 204.949219 267.519531 204.6875 267.203125 204.300781 C 266.890625 203.914062 266.734375 203.441406 266.734375 202.886719 C 266.734375 202.109375 267.007812 201.496094 267.5625 201.046875 C 268.117188 200.59375 268.875 200.367188 269.835938 200.367188 C 270.804688 200.367188 271.566406 200.59375 272.117188 201.046875 C 272.667969 201.496094 272.945312 202.109375 272.945312 202.886719 C 272.945312 203.441406 272.785156 203.914062 272.46875 204.300781 C 272.15625 204.6875 271.71875 204.949219 271.160156 205.089844 C 271.792969 205.238281 272.285156 205.527344 272.640625 205.957031 C 272.992188 206.386719 273.171875 206.910156 273.171875 207.527344 C 273.171875 208.472656 272.882812 209.195312 272.308594 209.699219 C 271.734375 210.203125 270.910156 210.453125 269.835938 210.453125 C 268.765625 210.453125 267.941406 210.203125 267.367188 209.699219 C 266.792969 209.195312 266.503906 208.472656 266.503906 207.527344 C 266.503906 206.910156 266.683594 206.386719 267.039062 205.957031 C 267.394531 205.527344 267.890625 205.238281 268.523438 205.089844 Z M 268.042969 203.011719 C 268.042969 203.515625 268.199219 203.90625 268.511719 204.191406 C 268.828125 204.472656 269.269531 204.613281 269.835938 204.613281 C 270.402344 204.613281 270.84375 204.472656 271.164062 204.191406 C 271.480469 203.90625 271.640625 203.515625 271.640625 203.011719 C 271.640625 202.507812 271.480469 202.117188 271.164062 201.832031 C 270.84375 201.550781 270.402344 201.410156 269.835938 201.410156 C 269.269531 201.410156 268.828125 201.550781 268.511719 201.832031 C 268.199219 202.117188 268.042969 202.507812 268.042969 203.011719 Z M 268.042969 203.011719 "/>
<path style=" stroke:none;fill-rule:nonzero;fill:rgb(0%,0%,0%);fill-opacity:1;" d="M 278.320312 201.410156 C 277.644531 201.410156 277.136719 201.742188 276.792969 202.410156 C 276.453125 203.074219 276.28125 204.078125 276.28125 205.414062 C 276.28125 206.746094 276.453125 207.746094 276.792969 208.414062 C 277.136719 209.078125 277.644531 209.414062 278.320312 209.414062 C 279.003906 209.414062 279.511719 209.078125 279.855469 208.414062 C 280.195312 207.746094 280.367188 206.746094 280.367188 205.414062 C 280.367188 204.078125 280.195312 203.074219 279.855469 202.410156 C 279.511719 201.742188 279.003906 201.410156 278.320312 201.410156 Z M 278.320312 200.367188 C 279.410156 200.367188 280.242188 200.800781 280.816406 201.664062 C 281.394531 202.523438 281.679688 203.773438 281.679688 205.414062 C 281.679688 207.050781 281.394531 208.300781 280.816406 209.164062 C 280.242188 210.023438 279.410156 210.453125 278.320312 210.453125 C 277.230469 210.453125 276.398438 210.023438 275.824219 209.164062 C 275.25 208.300781 274.960938 207.050781 274.960938 205.414062 C 274.960938 203.773438 275.25 202.523438 275.824219 201.664062 C 276.398438 200.800781 277.230469 200.367188 278.320312 200.367188 Z M 278.320312 200.367188 "/>
<g clip-path="url(#clip5)" clip-rule="nonzero">
<path style="fill:none;stroke-width:0.8;stroke-linecap:square;stroke-linejoin:round;stroke:rgb(69.01961%,69.01961%,69.01961%);stroke-opacity:1;stroke-miterlimit:4;" d="M 246.676758 143.100586 L 246.676758 7.201172 " transform="matrix(1.333333,0,0,1.333333,0.000000000000028422,0)"/>
</g>
<path style="fill:none;stroke-width:0.8;stroke-linecap:butt;stroke-linejoin:round;stroke:rgb(0%,0%,0%);stroke-opacity:1;stroke-miterlimit:4;" d="M -0.00137329 0.000579834 L -0.00137329 3.498627 " transform="matrix(1.333333,0,0,1.333333,328.904175,190.800008)"/>
<path style=" stroke:none;fill-rule:nonzero;fill:rgb(0%,0%,0%);fill-opacity:1;" d="M 317.832031 209.160156 L 319.980469 209.160156 L 319.980469 201.742188 L 317.644531 202.210938 L 317.644531 201.011719 L 319.96875 200.542969 L 321.285156 200.542969 L 321.285156 209.160156 L 323.429688 209.160156 L 323.429688 210.265625 L 317.832031 210.265625 Z M 317.832031 209.160156 "/>
<path style=" stroke:none;fill-rule:nonzero;fill:rgb(0%,0%,0%);fill-opacity:1;" d="M 328.898438 201.410156 C 328.222656 201.410156 327.714844 201.742188 327.371094 202.410156 C 327.03125 203.074219 326.863281 204.078125 326.863281 205.414062 C 326.863281 206.746094 327.03125 207.746094 327.371094 208.414062 C 327.714844 209.078125 328.222656 209.414062 328.898438 209.414062 C 329.582031 209.414062 330.09375 209.078125 330.433594 208.414062 C 330.773438 207.746094 330.945312 206.746094 330.945312 205.414062 C 330.945312 204.078125 330.773438 203.074219 330.433594 202.410156 C 330.09375 201.742188 329.582031 201.410156 328.898438 201.410156 Z M 328.898438 200.367188 C 329.988281 200.367188 330.824219 200.800781 331.398438 201.664062 C 331.972656 202.523438 332.261719 203.773438 332.261719 205.414062 C 332.261719 207.050781 331.972656 208.300781 331.398438 209.164062 C 330.824219 210.023438 329.988281 210.453125 328.898438 210.453125 C 327.8125 210.453125 326.980469 210.023438 326.402344 209.164062 C 325.828125 208.300781 325.542969 207.050781 325.542969 205.414062 C 325.542969 203.773438 325.828125 202.523438 326.402344 201.664062 C 326.980469 200.800781 327.8125 200.367188 328.898438 200.367188 Z M 328.898438 200.367188 "/>
<path style=" stroke:none;fill-rule:nonzero;fill:rgb(0%,0%,0%);fill-opacity:1;" d="M 337.382812 201.410156 C 336.707031 201.410156 336.199219 201.742188 335.855469 202.410156 C 335.515625 203.074219 335.34375 204.078125 335.34375 205.414062 C 335.34375 206.746094 335.515625 207.746094 335.855469 208.414062 C 336.199219 209.078125 336.707031 209.414062 337.382812 209.414062 C 338.066406 209.414062 338.574219 209.078125 338.917969 208.414062 C 339.257812 207.746094 339.429688 206.746094 339.429688 205.414062 C 339.429688 204.078125 339.257812 203.074219 338.917969 202.410156 C 338.574219 201.742188 338.066406 201.410156 337.382812 201.410156 Z M 337.382812 200.367188 C 338.472656 200.367188 339.304688 200.800781 339.878906 201.664062 C 340.457031 202.523438 340.742188 203.773438 340.742188 205.414062 C 340.742188 207.050781 340.457031 208.300781 339.878906 209.164062 C 339.304688 210.023438 338.472656 210.453125 337.382812 210.453125 C 336.292969 210.453125 335.460938 210.023438 334.886719 209.164062 C 334.3125 208.300781 334.023438 207.050781 334.023438 205.414062 C 334.023438 203.773438 334.3125 202.523438 334.886719 201.664062 C 335.460938 200.800781 336.292969 200.367188 337.382812 200.367188 Z M 337.382812 200.367188 "/>
<path style=" stroke:none;fill-rule:nonzero;fill:rgb(0%,0%,0%);fill-opacity:1;" d="M 182.421875 224.554688 L 182.421875 225.140625 L 176.914062 225.140625 C 176.964844 225.964844 177.214844 226.59375 177.660156 227.027344 C 178.101562 227.460938 178.722656 227.675781 179.515625 227.675781 C 179.976562 227.675781 180.421875 227.617188 180.855469 227.507812 C 181.285156 227.394531 181.714844 227.222656 182.140625 226.996094 L 182.140625 228.132812 C 181.710938 228.3125 181.269531 228.453125 180.820312 228.546875 C 180.367188 228.644531 179.910156 228.691406 179.445312 228.691406 C 178.28125 228.691406 177.359375 228.351562 176.679688 227.675781 C 176.003906 227 175.664062 226.082031 175.664062 224.925781 C 175.664062 223.734375 175.984375 222.789062 176.628906 222.085938 C 177.273438 221.386719 178.144531 221.035156 179.238281 221.035156 C 180.21875 221.035156 180.992188 221.351562 181.566406 221.984375 C 182.136719 222.613281 182.421875 223.472656 182.421875 224.554688 Z M 181.222656 224.203125 C 181.214844 223.550781 181.03125 223.027344 180.671875 222.636719 C 180.316406 222.246094 179.839844 222.050781 179.25 222.050781 C 178.582031 222.050781 178.046875 222.238281 177.644531 222.617188 C 177.246094 222.996094 177.011719 223.527344 176.953125 224.210938 Z M 181.222656 224.203125 "/>
<path style=" stroke:none;fill-rule:nonzero;fill:rgb(0%,0%,0%);fill-opacity:1;" d="M 185.542969 227.410156 L 185.542969 231.273438 L 184.339844 231.273438 L 184.339844 221.210938 L 185.542969 221.210938 L 185.542969 222.316406 C 185.796875 221.882812 186.117188 221.5625 186.5 221.351562 C 186.882812 221.140625 187.34375 221.035156 187.875 221.035156 C 188.761719 221.035156 189.480469 221.386719 190.035156 222.089844 C 190.589844 222.792969 190.867188 223.714844 190.867188 224.863281 C 190.867188 226.007812 190.589844 226.933594 190.035156 227.636719 C 189.480469 228.339844 188.761719 228.691406 187.875 228.691406 C 187.34375 228.691406 186.882812 228.585938 186.5 228.375 C 186.117188 228.164062 185.796875 227.839844 185.542969 227.410156 Z M 189.621094 224.863281 C 189.621094 223.980469 189.441406 223.289062 189.078125 222.789062 C 188.714844 222.289062 188.21875 222.039062 187.585938 222.039062 C 186.949219 222.039062 186.449219 222.289062 186.089844 222.789062 C 185.726562 223.289062 185.542969 223.980469 185.542969 224.863281 C 185.542969 225.742188 185.726562 226.433594 186.089844 226.933594 C 186.449219 227.4375 186.949219 227.6875 187.585938 227.6875 C 188.21875 227.6875 188.714844 227.4375 189.078125 226.933594 C 189.441406 226.433594 189.621094 225.742188 189.621094 224.863281 Z M 189.621094 224.863281 "/>
<path style=" stroke:none;fill-rule:nonzero;fill:rgb(0%,0%,0%);fill-opacity:1;" d="M 195.675781 222.050781 C 195.035156 222.050781 194.527344 222.300781 194.152344 222.800781 C 193.777344 223.304688 193.589844 223.992188 193.589844 224.863281 C 193.589844 225.734375 193.777344 226.421875 194.148438 226.921875 C 194.519531 227.425781 195.027344 227.675781 195.675781 227.675781 C 196.3125 227.675781 196.820312 227.421875 197.191406 226.921875 C 197.566406 226.417969 197.753906 225.730469 197.753906 224.863281 C 197.753906 224 197.566406 223.3125 197.191406 222.808594 C 196.820312 222.304688 196.3125 222.050781 195.675781 222.050781 Z M 195.675781 221.035156 C 196.714844 221.035156 197.535156 221.375 198.128906 222.050781 C 198.726562 222.726562 199.023438 223.664062 199.023438 224.863281 C 199.023438 226.054688 198.726562 226.992188 198.128906 227.671875 C 197.535156 228.351562 196.714844 228.691406 195.675781 228.691406 C 194.628906 228.691406 193.808594 228.351562 193.214844 227.671875 C 192.625 226.992188 192.328125 226.054688 192.328125 224.863281 C 192.328125 223.664062 192.625 222.726562 193.214844 222.050781 C 193.808594 221.375 194.628906 221.035156 195.675781 221.035156 Z M 195.675781 221.035156 "/>
<path style=" stroke:none;fill-rule:nonzero;fill:rgb(0%,0%,0%);fill-opacity:1;" d="M 206.253906 221.488281 L 206.253906 222.609375 C 205.917969 222.421875 205.578125 222.28125 205.238281 222.191406 C 204.894531 222.097656 204.550781 222.050781 204.207031 222.050781 C 203.425781 222.050781 202.824219 222.296875 202.394531 222.789062 C 201.964844 223.28125 201.75 223.972656 201.75 224.863281 C 201.75 225.753906 201.964844 226.445312 202.394531 226.9375 C 202.824219 227.429688 203.425781 227.675781 204.207031 227.675781 C 204.550781 227.675781 204.894531 227.628906 205.238281 227.535156 C 205.578125 227.441406 205.917969 227.300781 206.253906 227.113281 L 206.253906 228.222656 C 205.921875 228.378906 205.574219 228.496094 205.214844 228.574219 C 204.859375 228.652344 204.476562 228.691406 204.074219 228.691406 C 202.976562 228.691406 202.101562 228.347656 201.457031 227.65625 C 200.808594 226.964844 200.488281 226.035156 200.488281 224.863281 C 200.488281 223.671875 200.8125 222.738281 201.464844 222.058594 C 202.121094 221.375 203.015625 221.035156 204.152344 221.035156 C 204.519531 221.035156 204.882812 221.074219 205.234375 221.148438 C 205.582031 221.226562 205.925781 221.339844 206.253906 221.488281 Z M 206.253906 221.488281 "/>
<path style=" stroke:none;fill-rule:nonzero;fill:rgb(0%,0%,0%);fill-opacity:1;" d="M 214.402344 224.101562 L 214.402344 228.503906 L 213.203125 228.503906 L 213.203125 224.140625 C 213.203125 223.449219 213.066406 222.933594 212.796875 222.589844 C 212.527344 222.25 212.125 222.078125 211.589844 222.078125 C 210.941406 222.078125 210.429688 222.285156 210.058594 222.695312 C 209.683594 223.105469 209.496094 223.667969 209.496094 224.382812 L 209.496094 228.503906 L 208.292969 228.503906 L 208.292969 218.371094 L 209.496094 218.371094 L 209.496094 222.34375 C 209.785156 221.90625 210.121094 221.578125 210.507812 221.359375 C 210.898438 221.144531 211.347656 221.035156 211.855469 221.035156 C 212.691406 221.035156 213.324219 221.292969 213.753906 221.8125 C 214.183594 222.332031 214.402344 223.09375 214.402344 224.101562 Z M 214.402344 224.101562 "/>
<path style=" stroke:none;fill-rule:nonzero;fill:rgb(0%,0%,0%);fill-opacity:1;" d="M 221.4375 221.425781 L 221.4375 222.558594 C 221.097656 222.382812 220.746094 222.253906 220.382812 222.167969 C 220.019531 222.082031 219.640625 222.039062 219.25 222.039062 C 218.65625 222.039062 218.207031 222.128906 217.910156 222.308594 C 217.613281 222.492188 217.464844 222.765625 217.464844 223.132812 C 217.464844 223.410156 217.570312 223.628906 217.785156 223.785156 C 217.996094 223.945312 218.425781 224.09375 219.066406 224.238281 L 219.476562 224.328125 C 220.328125 224.511719 220.933594 224.769531 221.289062 225.101562 C 221.648438 225.433594 221.828125 225.894531 221.828125 226.488281 C 221.828125 227.167969 221.558594 227.703125 221.023438 228.101562 C 220.488281 228.496094 219.75 228.691406 218.8125 228.691406 C 218.421875 228.691406 218.015625 228.652344 217.59375 228.578125 C 217.167969 228.5 216.722656 228.386719 216.253906 228.234375 L 216.253906 226.996094 C 216.699219 227.226562 217.132812 227.402344 217.5625 227.515625 C 217.992188 227.628906 218.417969 227.6875 218.839844 227.6875 C 219.40625 227.6875 219.839844 227.589844 220.140625 227.398438 C 220.445312 227.203125 220.597656 226.933594 220.597656 226.582031 C 220.597656 226.257812 220.488281 226.007812 220.269531 225.832031 C 220.050781 225.660156 219.570312 225.492188 218.828125 225.332031 L 218.410156 225.234375 C 217.667969 225.078125 217.132812 224.839844 216.800781 224.515625 C 216.472656 224.191406 216.308594 223.746094 216.308594 223.183594 C 216.308594 222.496094 216.550781 221.96875 217.035156 221.597656 C 217.523438 221.222656 218.214844 221.035156 219.109375 221.035156 C 219.550781 221.035156 219.964844 221.066406 220.355469 221.132812 C 220.746094 221.195312 221.109375 221.292969 221.4375 221.425781 Z M 221.4375 221.425781 "/>
<g clip-path="url(#clip6)" clip-rule="nonzero">
<path style="fill:none;stroke-width:0.8;stroke-linecap:square;stroke-linejoin:round;stroke:rgb(69.01961%,69.01961%,69.01961%);stroke-opacity:1;stroke-miterlimit:4;" d="M 51.37793 108.322266 L 246.676758 108.322266 " transform="matrix(1.333333,0,0,1.333333,0.000000000000028422,0)"/>
</g>
<path style="fill:none;stroke-width:0.8;stroke-linecap:butt;stroke-linejoin:round;stroke:rgb(0%,0%,0%);stroke-opacity:1;stroke-miterlimit:4;" d="M -0.00019455 -0.000236511 L -3.501171 -0.000236511 " transform="matrix(1.333333,0,0,1.333333,68.504166,144.430003)"/>
<path style=" stroke:none;fill-rule:nonzero;fill:rgb(0%,0%,0%);fill-opacity:1;" d="M 29.492188 148.289062 L 31.640625 148.289062 L 31.640625 140.871094 L 29.300781 141.339844 L 29.300781 140.140625 L 31.628906 139.671875 L 32.941406 139.671875 L 32.941406 148.289062 L 35.089844 148.289062 L 35.089844 149.394531 L 29.492188 149.394531 Z M 29.492188 148.289062 "/>
<path style=" stroke:none;fill-rule:nonzero;fill:rgb(0%,0%,0%);fill-opacity:1;" d="M 40.558594 140.539062 C 39.882812 140.539062 39.371094 140.871094 39.03125 141.539062 C 38.691406 142.203125 38.519531 143.207031 38.519531 144.542969 C 38.519531 145.875 38.691406 146.875 39.03125 147.542969 C 39.371094 148.207031 39.882812 148.542969 40.558594 148.542969 C 41.238281 148.542969 41.75 148.207031 42.089844 147.542969 C 42.433594 146.875 42.605469 145.875 42.605469 144.542969 C 42.605469 143.207031 42.433594 142.203125 42.089844 141.539062 C 41.75 140.871094 41.238281 140.539062 40.558594 140.539062 Z M 40.558594 139.496094 C 41.648438 139.496094 42.480469 139.929688 43.054688 140.792969 C 43.632812 141.652344 43.917969 142.902344 43.917969 144.542969 C 43.917969 146.179688 43.632812 147.429688 43.054688 148.292969 C 42.480469 149.152344 41.648438 149.582031 40.558594 149.582031 C 39.46875 149.582031 38.636719 149.152344 38.0625 148.292969 C 37.488281 147.429688 37.199219 146.179688 37.199219 144.542969 C 37.199219 142.902344 37.488281 141.652344 38.0625 140.792969 C 38.636719 139.929688 39.46875 139.496094 40.558594 139.496094 Z M 40.558594 139.496094 "/>
<path style=" stroke:none;fill-rule:nonzero;fill:rgb(0%,0%,0%);fill-opacity:1;" d="M 45.921875 140.976562 L 51.761719 140.976562 L 51.761719 141.75 L 45.921875 141.75 Z M 45.921875 140.976562 "/>
<path style=" stroke:none;fill-rule:nonzero;fill:rgb(0%,0%,0%);fill-opacity:1;" d="M 54.542969 143.515625 L 57.753906 143.515625 L 57.753906 144.289062 L 53.433594 144.289062 L 53.433594 143.515625 C 53.785156 143.152344 54.261719 142.667969 54.863281 142.058594 C 55.46875 141.449219 55.847656 141.058594 56 140.878906 C 56.296875 140.550781 56.5 140.269531 56.617188 140.039062 C 56.734375 139.808594 56.792969 139.585938 56.792969 139.363281 C 56.792969 139 56.667969 138.707031 56.414062 138.480469 C 56.160156 138.25 55.828125 138.136719 55.421875 138.136719 C 55.132812 138.136719 54.828125 138.1875 54.507812 138.285156 C 54.1875 138.386719 53.84375 138.539062 53.480469 138.742188 L 53.480469 137.8125 C 53.851562 137.664062 54.195312 137.550781 54.519531 137.476562 C 54.84375 137.398438 55.136719 137.363281 55.402344 137.363281 C 56.109375 137.363281 56.671875 137.539062 57.089844 137.890625 C 57.507812 138.242188 57.71875 138.714844 57.71875 139.304688 C 57.71875 139.582031 57.667969 139.847656 57.5625 140.097656 C 57.457031 140.347656 57.265625 140.644531 56.988281 140.984375 C 56.914062 141.074219 56.671875 141.328125 56.265625 141.75 C 55.859375 142.171875 55.285156 142.757812 54.542969 143.515625 Z M 54.542969 143.515625 "/>
<g clip-path="url(#clip7)" clip-rule="nonzero">
<path style="fill:none;stroke-width:0.8;stroke-linecap:square;stroke-linejoin:round;stroke:rgb(69.01961%,69.01961%,69.01961%);stroke-opacity:1;stroke-miterlimit:4;" d="M 51.37793 62.581055 L 246.676758 62.581055 " transform="matrix(1.333333,0,0,1.333333,0.000000000000028422,0)"/>
</g>
<path style="fill:none;stroke-width:0.8;stroke-linecap:butt;stroke-linejoin:round;stroke:rgb(0%,0%,0%);stroke-opacity:1;stroke-miterlimit:4;" d="M -0.00019455 0.000900269 L -3.501171 0.000900269 " transform="matrix(1.333333,0,0,1.333333,68.504166,83.440206)"/>
<path style=" stroke:none;fill-rule:nonzero;fill:rgb(0%,0%,0%);fill-opacity:1;" d="M 37.359375 87.296875 L 39.507812 87.296875 L 39.507812 79.878906 L 37.167969 80.347656 L 37.167969 79.152344 L 39.492188 78.683594 L 40.808594 78.683594 L 40.808594 87.296875 L 42.957031 87.296875 L 42.957031 88.402344 L 37.359375 88.402344 Z M 37.359375 87.296875 "/>
<path style=" stroke:none;fill-rule:nonzero;fill:rgb(0%,0%,0%);fill-opacity:1;" d="M 48.425781 79.550781 C 47.75 79.550781 47.238281 79.882812 46.898438 80.550781 C 46.558594 81.214844 46.386719 82.214844 46.386719 83.554688 C 46.386719 84.886719 46.558594 85.886719 46.898438 86.550781 C 47.238281 87.21875 47.75 87.550781 48.425781 87.550781 C 49.105469 87.550781 49.617188 87.21875 49.957031 86.550781 C 50.300781 85.886719 50.46875 84.886719 50.46875 83.554688 C 50.46875 82.214844 50.300781 81.214844 49.957031 80.550781 C 49.617188 79.882812 49.105469 79.550781 48.425781 79.550781 Z M 48.425781 78.507812 C 49.515625 78.507812 50.347656 78.9375 50.921875 79.800781 C 51.496094 80.664062 51.785156 81.914062 51.785156 83.554688 C 51.785156 85.191406 51.496094 86.4375 50.921875 87.300781 C 50.347656 88.164062 49.515625 88.59375 48.425781 88.59375 C 47.335938 88.59375 46.503906 88.164062 45.929688 87.300781 C 45.355469 86.4375 45.066406 85.191406 45.066406 83.554688 C 45.066406 81.914062 45.355469 80.664062 45.929688 79.800781 C 46.503906 78.9375 47.335938 78.507812 48.425781 78.507812 Z M 48.425781 78.507812 "/>
<path style=" stroke:none;fill-rule:nonzero;fill:rgb(0%,0%,0%);fill-opacity:1;" d="M 55.765625 77.101562 C 55.289062 77.101562 54.933594 77.335938 54.695312 77.800781 C 54.457031 78.265625 54.339844 78.96875 54.339844 79.90625 C 54.339844 80.835938 54.457031 81.535156 54.695312 82.003906 C 54.933594 82.46875 55.289062 82.703125 55.765625 82.703125 C 56.242188 82.703125 56.597656 82.46875 56.835938 82.003906 C 57.078125 81.535156 57.195312 80.835938 57.195312 79.90625 C 57.195312 78.96875 57.078125 78.265625 56.835938 77.800781 C 56.597656 77.335938 56.242188 77.101562 55.765625 77.101562 Z M 55.765625 76.371094 C 56.527344 76.371094 57.109375 76.675781 57.511719 77.277344 C 57.914062 77.882812 58.117188 78.757812 58.117188 79.90625 C 58.117188 81.050781 57.914062 81.925781 57.511719 82.527344 C 57.109375 83.132812 56.527344 83.433594 55.765625 83.433594 C 55 83.433594 54.417969 83.132812 54.015625 82.527344 C 53.613281 81.925781 53.414062 81.050781 53.414062 79.90625 C 53.414062 78.757812 53.613281 77.882812 54.015625 77.277344 C 54.417969 76.675781 55 76.371094 55.765625 76.371094 Z M 55.765625 76.371094 "/>
<g clip-path="url(#clip8)" clip-rule="nonzero">
<path style="fill:none;stroke-width:0.8;stroke-linecap:square;stroke-linejoin:round;stroke:rgb(69.01961%,69.01961%,69.01961%);stroke-opacity:1;stroke-miterlimit:4;" d="M 51.37793 16.836914 L 246.676758 16.836914 " transform="matrix(1.333333,0,0,1.333333,0.000000000000028422,0)"/>
</g>
<path style="fill:none;stroke-width:0.8;stroke-linecap:butt;stroke-linejoin:round;stroke:rgb(0%,0%,0%);stroke-opacity:1;stroke-miterlimit:4;" d="M -0.00019455 -0.000890732 L -3.501171 -0.000890732 " transform="matrix(1.333333,0,0,1.333333,68.504166,22.450406)"/>
<path style=" stroke:none;fill-rule:nonzero;fill:rgb(0%,0%,0%);fill-opacity:1;" d="M 37.359375 26.308594 L 39.507812 26.308594 L 39.507812 18.890625 L 37.167969 19.359375 L 37.167969 18.160156 L 39.492188 17.691406 L 40.808594 17.691406 L 40.808594 26.308594 L 42.957031 26.308594 L 42.957031 27.414062 L 37.359375 27.414062 Z M 37.359375 26.308594 "/>
<path style=" stroke:none;fill-rule:nonzero;fill:rgb(0%,0%,0%);fill-opacity:1;" d="M 48.425781 18.558594 C 47.75 18.558594 47.238281 18.894531 46.898438 19.558594 C 46.558594 20.226562 46.386719 21.226562 46.386719 22.5625 C 46.386719 23.894531 46.558594 24.894531 46.898438 25.5625 C 47.238281 26.230469 47.75 26.5625 48.425781 26.5625 C 49.105469 26.5625 49.617188 26.230469 49.957031 25.5625 C 50.300781 24.894531 50.46875 23.894531 50.46875 22.5625 C 50.46875 21.226562 50.300781 20.226562 49.957031 19.558594 C 49.617188 18.894531 49.105469 18.558594 48.425781 18.558594 Z M 48.425781 17.519531 C 49.515625 17.519531 50.347656 17.949219 50.921875 18.8125 C 51.496094 19.671875 51.785156 20.921875 51.785156 22.5625 C 51.785156 24.199219 51.496094 25.449219 50.921875 26.3125 C 50.347656 27.171875 49.515625 27.605469 48.425781 27.605469 C 47.335938 27.605469 46.503906 27.171875 45.929688 26.3125 C 45.355469 25.449219 45.066406 24.199219 45.066406 22.5625 C 45.066406 20.921875 45.355469 19.671875 45.929688 18.8125 C 46.503906 17.949219 47.335938 17.519531 48.425781 17.519531 Z M 48.425781 17.519531 "/>
<path style=" stroke:none;fill-rule:nonzero;fill:rgb(0%,0%,0%);fill-opacity:1;" d="M 54.589844 21.535156 L 57.800781 21.535156 L 57.800781 22.308594 L 53.480469 22.308594 L 53.480469 21.535156 C 53.832031 21.171875 54.308594 20.6875 54.910156 20.078125 C 55.511719 19.46875 55.890625 19.078125 56.046875 18.898438 C 56.339844 18.570312 56.546875 18.289062 56.664062 18.058594 C 56.78125 17.832031 56.839844 17.605469 56.839844 17.382812 C 56.839844 17.023438 56.714844 16.726562 56.460938 16.5 C 56.207031 16.269531 55.875 16.15625 55.46875 16.15625 C 55.179688 16.15625 54.875 16.207031 54.554688 16.308594 C 54.234375 16.40625 53.890625 16.558594 53.527344 16.765625 L 53.527344 15.832031 C 53.898438 15.683594 54.242188 15.574219 54.566406 15.496094 C 54.886719 15.421875 55.183594 15.382812 55.449219 15.382812 C 56.15625 15.382812 56.71875 15.558594 57.136719 15.910156 C 57.554688 16.265625 57.765625 16.734375 57.765625 17.324219 C 57.765625 17.605469 57.710938 17.871094 57.609375 18.121094 C 57.503906 18.371094 57.3125 18.664062 57.035156 19.003906 C 56.960938 19.09375 56.71875 19.347656 56.3125 19.769531 C 55.90625 20.191406 55.332031 20.777344 54.589844 21.535156 Z M 54.589844 21.535156 "/>
<path style=" stroke:none;fill-rule:nonzero;fill:rgb(0%,0%,0%);fill-opacity:1;" d="M 9.601562 111.820312 L 9.601562 110.621094 L 19.730469 110.621094 L 19.730469 111.820312 Z M 9.601562 111.820312 "/>
<path style=" stroke:none;fill-rule:nonzero;fill:rgb(0%,0%,0%);fill-opacity:1;" d="M 13.277344 105.292969 C 13.277344 105.933594 13.53125 106.441406 14.03125 106.8125 C 14.53125 107.1875 15.21875 107.375 16.089844 107.375 C 16.964844 107.375 17.652344 107.1875 18.152344 106.820312 C 18.652344 106.445312 18.902344 105.9375 18.902344 105.292969 C 18.902344 104.652344 18.652344 104.148438 18.148438 103.773438 C 17.644531 103.402344 16.960938 103.214844 16.089844 103.214844 C 15.226562 103.214844 14.542969 103.402344 14.039062 103.773438 C 13.53125 104.148438 13.277344 104.652344 13.277344 105.292969 Z M 12.265625 105.292969 C 12.265625 104.25 12.601562 103.433594 13.28125 102.835938 C 13.957031 102.242188 14.894531 101.945312 16.089844 101.945312 C 17.285156 101.945312 18.222656 102.242188 18.902344 102.835938 C 19.582031 103.433594 19.921875 104.25 19.921875 105.292969 C 19.921875 106.335938 19.582031 107.15625 18.902344 107.75 C 18.222656 108.339844 17.285156 108.636719 16.089844 108.636719 C 14.894531 108.636719 13.957031 108.339844 13.28125 107.75 C 12.601562 107.15625 12.265625 106.335938 12.265625 105.292969 Z M 12.265625 105.292969 "/>
<path style=" stroke:none;fill-rule:nonzero;fill:rgb(0%,0%,0%);fill-opacity:1;" d="M 12.652344 95.3125 L 13.789062 95.3125 C 13.613281 95.648438 13.484375 96 13.398438 96.363281 C 13.308594 96.730469 13.265625 97.105469 13.265625 97.5 C 13.265625 98.09375 13.359375 98.539062 13.539062 98.835938 C 13.722656 99.132812 13.996094 99.28125 14.359375 99.28125 C 14.636719 99.28125 14.855469 99.175781 15.015625 98.964844 C 15.171875 98.75 15.324219 98.324219 15.464844 97.679688 L 15.558594 97.269531 C 15.742188 96.417969 15.996094 95.816406 16.328125 95.457031 C 16.660156 95.097656 17.125 94.917969 17.71875 94.917969 C 18.398438 94.917969 18.933594 95.1875 19.328125 95.722656 C 19.722656 96.257812 19.921875 96.996094 19.921875 97.933594 C 19.921875 98.324219 19.882812 98.730469 19.804688 99.15625 C 19.730469 99.578125 19.617188 100.023438 19.464844 100.492188 L 18.226562 100.492188 C 18.457031 100.050781 18.628906 99.613281 18.746094 99.183594 C 18.859375 98.753906 18.917969 98.328125 18.917969 97.90625 C 18.917969 97.34375 18.820312 96.910156 18.628906 96.605469 C 18.433594 96.300781 18.160156 96.152344 17.808594 96.152344 C 17.484375 96.152344 17.234375 96.261719 17.0625 96.480469 C 16.890625 96.699219 16.722656 97.179688 16.558594 97.921875 L 16.460938 98.339844 C 16.308594 99.078125 16.066406 99.617188 15.742188 99.945312 C 15.421875 100.277344 14.976562 100.441406 14.414062 100.441406 C 13.726562 100.441406 13.195312 100.195312 12.824219 99.710938 C 12.453125 99.226562 12.265625 98.535156 12.265625 97.640625 C 12.265625 97.199219 12.296875 96.78125 12.363281 96.390625 C 12.425781 96 12.523438 95.640625 12.652344 95.3125 Z M 12.652344 95.3125 "/>
<path style=" stroke:none;fill-rule:nonzero;fill:rgb(0%,0%,0%);fill-opacity:1;" d="M 12.652344 88.363281 L 13.789062 88.363281 C 13.613281 88.703125 13.484375 89.054688 13.398438 89.417969 C 13.308594 89.78125 13.265625 90.160156 13.265625 90.550781 C 13.265625 91.144531 13.359375 91.59375 13.539062 91.890625 C 13.722656 92.1875 13.996094 92.335938 14.359375 92.335938 C 14.636719 92.335938 14.855469 92.230469 15.015625 92.015625 C 15.171875 91.804688 15.324219 91.375 15.464844 90.734375 L 15.558594 90.324219 C 15.742188 89.472656 15.996094 88.867188 16.328125 88.511719 C 16.660156 88.152344 17.125 87.972656 17.71875 87.972656 C 18.398438 87.972656 18.933594 88.242188 19.328125 88.777344 C 19.722656 89.3125 19.921875 90.050781 19.921875 90.988281 C 19.921875 91.378906 19.882812 91.785156 19.804688 92.207031 C 19.730469 92.632812 19.617188 93.078125 19.464844 93.546875 L 18.226562 93.546875 C 18.457031 93.101562 18.628906 92.667969 18.746094 92.238281 C 18.859375 91.808594 18.917969 91.382812 18.917969 90.960938 C 18.917969 90.394531 18.820312 89.964844 18.628906 89.660156 C 18.433594 89.355469 18.160156 89.203125 17.808594 89.203125 C 17.484375 89.203125 17.234375 89.3125 17.0625 89.53125 C 16.890625 89.75 16.722656 90.230469 16.558594 90.976562 L 16.460938 91.390625 C 16.308594 92.132812 16.066406 92.667969 15.742188 93 C 15.421875 93.328125 14.976562 93.492188 14.414062 93.492188 C 13.726562 93.492188 13.195312 93.25 12.824219 92.765625 C 12.453125 92.277344 12.265625 91.589844 12.265625 90.695312 C 12.265625 90.25 12.296875 89.835938 12.363281 89.445312 C 12.425781 89.054688 12.523438 88.695312 12.652344 88.363281 Z M 12.652344 88.363281 "/>
<g clip-path="url(#clip9)" clip-rule="nonzero">
<path style="fill:none;stroke-width:1.5;stroke-linecap:square;stroke-linejoin:round;stroke:rgb(12.156863%,46.666667%,70.588237%);stroke-opacity:1;stroke-miterlimit:4;" d="M 51.37793 39.621094 L 61.658203 64.338867 L 71.935547 86.384766 L 82.21582 106.007812 L 92.493164 121.713867 L 102.773437 130.933594 L 113.050781 134.176758 L 123.331055 135.632812 L 133.608398 135.75293 L 143.888672 135.873047 L 154.168945 135.987305 L 164.446289 136.341797 L 174.726562 136.350586 L 185.003906 136.166016 L 195.28418 136.236328 L 205.561523 136.330078 L 215.841797 136.59668 L 226.119141 136.921875 L 236.399414 136.664062 L 246.676758 136.751953 " transform="matrix(1.333333,0,0,1.333333,0.000000000000028422,0)"/>
</g>
<g clip-path="url(#clip10)" clip-rule="nonzero">
<path style="fill:none;stroke-width:1.5;stroke-linecap:butt;stroke-linejoin:round;stroke:rgb(74.901962%,0%,74.901962%);stroke-opacity:1;stroke-dasharray:5.55,2.4;stroke-miterlimit:4;" d="M 51.37793 13.376953 L 61.658203 17.000977 L 71.935547 20.583984 L 82.21582 24.164062 L 92.493164 27.741211 L 102.773437 31.318359 L 113.050781 34.889648 L 123.331055 38.455078 L 133.608398 42.014648 L 143.888672 45.56543 L 154.168945 49.107422 L 164.446289 52.634766 L 174.726562 56.141602 L 185.003906 59.625 L 195.28418 63.079102 L 205.561523 66.486328 L 215.841797 69.837891 L 226.119141 73.116211 L 236.399414 76.294922 L 246.676758 79.350586 " transform="matrix(1.333333,0,0,1.333333,0.000000000000028422,0)"/>
</g>
<path style="fill:none;stroke-width:0.8;stroke-linecap:square;stroke-linejoin:miter;stroke:rgb(0%,0%,0%);stroke-opacity:1;stroke-miterlimit:4;" d="M 51.37793 143.100586 L 51.37793 7.201172 " transform="matrix(1.333333,0,0,1.333333,0.000000000000028422,0)"/>
<path style="fill:none;stroke-width:0.8;stroke-linecap:square;stroke-linejoin:miter;stroke:rgb(0%,0%,0%);stroke-opacity:1;stroke-miterlimit:4;" d="M 246.676758 143.100586 L 246.676758 7.201172 " transform="matrix(1.333333,0,0,1.333333,0.000000000000028422,0)"/>
<path style="fill:none;stroke-width:0.8;stroke-linecap:square;stroke-linejoin:miter;stroke:rgb(0%,0%,0%);stroke-opacity:1;stroke-miterlimit:4;" d="M 51.37793 143.100586 L 246.676758 143.100586 " transform="matrix(1.333333,0,0,1.333333,0.000000000000028422,0)"/>
<path style="fill:none;stroke-width:0.8;stroke-linecap:square;stroke-linejoin:miter;stroke:rgb(0%,0%,0%);stroke-opacity:1;stroke-miterlimit:4;" d="M 51.37793 7.201172 L 246.676758 7.201172 " transform="matrix(1.333333,0,0,1.333333,0.000000000000028422,0)"/>
<use xlink:href="#surface5" mask="url(#mask0)"/>
<path style="fill:none;stroke-width:1.5;stroke-linecap:square;stroke-linejoin:round;stroke:rgb(12.156863%,46.666667%,70.588237%);stroke-opacity:1;stroke-miterlimit:4;" d="M 186.404297 20.299805 L 206.402344 20.299805 " transform="matrix(1.333333,0,0,1.333333,0.000000000000028422,0)"/>
<path style=" stroke:none;fill-rule:nonzero;fill:rgb(0%,0%,0%);fill-opacity:1;" d="M 288.3125 22.367188 L 288.3125 24.441406 L 290.777344 24.441406 L 290.777344 25.371094 L 288.3125 25.371094 L 288.3125 29.328125 C 288.3125 29.921875 288.394531 30.304688 288.554688 30.476562 C 288.71875 30.644531 289.050781 30.730469 289.550781 30.730469 L 290.777344 30.730469 L 290.777344 31.730469 L 289.550781 31.730469 C 288.625 31.730469 287.988281 31.558594 287.636719 31.214844 C 287.285156 30.867188 287.109375 30.242188 287.109375 29.328125 L 287.109375 25.371094 L 286.230469 25.371094 L 286.230469 24.441406 L 287.109375 24.441406 L 287.109375 22.367188 Z M 288.3125 22.367188 "/>
<path style=" stroke:none;fill-rule:nonzero;fill:rgb(0%,0%,0%);fill-opacity:1;" d="M 296.578125 25.558594 C 296.445312 25.480469 296.296875 25.421875 296.140625 25.386719 C 295.980469 25.351562 295.808594 25.332031 295.617188 25.332031 C 294.941406 25.332031 294.417969 25.550781 294.058594 25.992188 C 293.695312 26.433594 293.511719 27.066406 293.511719 27.890625 L 293.511719 31.730469 L 292.308594 31.730469 L 292.308594 24.441406 L 293.511719 24.441406 L 293.511719 25.574219 C 293.765625 25.128906 294.09375 24.800781 294.496094 24.585938 C 294.902344 24.371094 295.390625 24.265625 295.96875 24.265625 C 296.050781 24.265625 296.140625 24.269531 296.242188 24.28125 C 296.34375 24.289062 296.453125 24.308594 296.574219 24.328125 Z M 296.578125 25.558594 "/>
<path style=" stroke:none;fill-rule:nonzero;fill:rgb(0%,0%,0%);fill-opacity:1;" d="M 301.152344 28.066406 C 300.183594 28.066406 299.511719 28.175781 299.140625 28.398438 C 298.765625 28.617188 298.578125 28.996094 298.578125 29.53125 C 298.578125 29.957031 298.71875 30.292969 299 30.542969 C 299.28125 30.792969 299.660156 30.917969 300.140625 30.917969 C 300.804688 30.917969 301.339844 30.679688 301.742188 30.210938 C 302.140625 29.738281 302.34375 29.113281 302.34375 28.332031 L 302.34375 28.066406 Z M 303.539062 27.570312 L 303.539062 31.730469 L 302.34375 31.730469 L 302.34375 30.625 C 302.070312 31.066406 301.726562 31.394531 301.320312 31.605469 C 300.910156 31.816406 300.414062 31.921875 299.820312 31.921875 C 299.078125 31.921875 298.484375 31.710938 298.039062 31.292969 C 297.601562 30.871094 297.378906 30.3125 297.378906 29.609375 C 297.378906 28.789062 297.65625 28.171875 298.203125 27.753906 C 298.753906 27.335938 299.574219 27.128906 300.660156 27.128906 L 302.34375 27.128906 L 302.34375 27.011719 C 302.34375 26.460938 302.160156 26.03125 301.800781 25.730469 C 301.4375 25.429688 300.925781 25.277344 300.273438 25.277344 C 299.855469 25.277344 299.449219 25.328125 299.054688 25.429688 C 298.660156 25.527344 298.28125 25.679688 297.914062 25.878906 L 297.914062 24.769531 C 298.351562 24.601562 298.777344 24.476562 299.191406 24.390625 C 299.601562 24.308594 300.003906 24.265625 300.394531 24.265625 C 301.449219 24.265625 302.238281 24.539062 302.757812 25.085938 C 303.28125 25.632812 303.539062 26.460938 303.539062 27.570312 Z M 303.539062 27.570312 "/>
<path style=" stroke:none;fill-rule:nonzero;fill:rgb(0%,0%,0%);fill-opacity:1;" d="M 306.007812 24.441406 L 307.207031 24.441406 L 307.207031 31.730469 L 306.007812 31.730469 Z M 306.007812 21.601562 L 307.207031 21.601562 L 307.207031 23.117188 L 306.007812 23.117188 Z M 306.007812 21.601562 "/>
<path style=" stroke:none;fill-rule:nonzero;fill:rgb(0%,0%,0%);fill-opacity:1;" d="M 315.773438 27.328125 L 315.773438 31.730469 L 314.578125 31.730469 L 314.578125 27.367188 C 314.578125 26.679688 314.441406 26.164062 314.171875 25.820312 C 313.902344 25.476562 313.5 25.304688 312.960938 25.304688 C 312.316406 25.304688 311.804688 25.511719 311.429688 25.925781 C 311.058594 26.335938 310.871094 26.898438 310.871094 27.609375 L 310.871094 31.730469 L 309.664062 31.730469 L 309.664062 24.441406 L 310.871094 24.441406 L 310.871094 25.574219 C 311.15625 25.132812 311.496094 24.804688 311.882812 24.589844 C 312.269531 24.371094 312.71875 24.265625 313.226562 24.265625 C 314.066406 24.265625 314.699219 24.523438 315.128906 25.042969 C 315.558594 25.558594 315.773438 26.320312 315.773438 27.328125 Z M 315.773438 27.328125 "/>
<path style="fill:none;stroke-width:1.5;stroke-linecap:butt;stroke-linejoin:round;stroke:rgb(74.901962%,0%,74.901962%);stroke-opacity:1;stroke-dasharray:5.55,2.4;stroke-miterlimit:4;" d="M 186.404297 34.977539 L 206.402344 34.977539 " transform="matrix(1.333333,0,0,1.333333,0.000000000000028422,0)"/>
<path style=" stroke:none;fill-rule:nonzero;fill:rgb(0%,0%,0%);fill-opacity:1;" d="M 288.3125 41.941406 L 288.3125 44.011719 L 290.777344 44.011719 L 290.777344 44.941406 L 288.3125 44.941406 L 288.3125 48.898438 C 288.3125 49.496094 288.394531 49.875 288.554688 50.046875 C 288.71875 50.214844 289.050781 50.300781 289.550781 50.300781 L 290.777344 50.300781 L 290.777344 51.300781 L 289.550781 51.300781 C 288.625 51.300781 287.988281 51.128906 287.636719 50.785156 C 287.285156 50.441406 287.109375 49.8125 287.109375 48.898438 L 287.109375 44.941406 L 286.230469 44.941406 L 286.230469 44.011719 L 287.109375 44.011719 L 287.109375 41.941406 Z M 288.3125 41.941406 "/>
<path style=" stroke:none;fill-rule:nonzero;fill:rgb(0%,0%,0%);fill-opacity:1;" d="M 298.59375 47.355469 L 298.59375 47.941406 L 293.085938 47.941406 C 293.136719 48.765625 293.386719 49.394531 293.828125 49.828125 C 294.273438 50.257812 294.894531 50.476562 295.6875 50.476562 C 296.148438 50.476562 296.59375 50.417969 297.027344 50.304688 C 297.457031 50.195312 297.886719 50.023438 298.3125 49.796875 L 298.3125 50.929688 C 297.882812 51.113281 297.441406 51.253906 296.992188 51.347656 C 296.539062 51.445312 296.082031 51.492188 295.617188 51.492188 C 294.453125 51.492188 293.53125 51.152344 292.851562 50.476562 C 292.171875 49.800781 291.835938 48.882812 291.835938 47.726562 C 291.835938 46.535156 292.15625 45.585938 292.800781 44.886719 C 293.445312 44.1875 294.316406 43.835938 295.410156 43.835938 C 296.390625 43.835938 297.164062 44.152344 297.734375 44.785156 C 298.308594 45.414062 298.59375 46.273438 298.59375 47.355469 Z M 297.394531 47.003906 C 297.386719 46.351562 297.203125 45.828125 296.84375 45.4375 C 296.484375 45.046875 296.011719 44.851562 295.421875 44.851562 C 294.753906 44.851562 294.21875 45.039062 293.816406 45.417969 C 293.417969 45.792969 293.183594 46.328125 293.125 47.011719 Z M 297.394531 47.003906 "/>
<path style=" stroke:none;fill-rule:nonzero;fill:rgb(0%,0%,0%);fill-opacity:1;" d="M 305.207031 44.226562 L 305.207031 45.359375 C 304.867188 45.183594 304.515625 45.054688 304.152344 44.96875 C 303.789062 44.882812 303.410156 44.835938 303.019531 44.835938 C 302.425781 44.835938 301.976562 44.929688 301.679688 45.109375 C 301.382812 45.292969 301.234375 45.566406 301.234375 45.929688 C 301.234375 46.210938 301.339844 46.425781 301.554688 46.585938 C 301.765625 46.742188 302.195312 46.894531 302.835938 47.039062 L 303.246094 47.128906 C 304.097656 47.3125 304.703125 47.566406 305.058594 47.898438 C 305.417969 48.230469 305.597656 48.695312 305.597656 49.289062 C 305.597656 49.96875 305.328125 50.503906 304.792969 50.898438 C 304.257812 51.292969 303.519531 51.492188 302.582031 51.492188 C 302.191406 51.492188 301.785156 51.453125 301.363281 51.378906 C 300.9375 51.300781 300.492188 51.1875 300.023438 51.035156 L 300.023438 49.796875 C 300.46875 50.027344 300.902344 50.203125 301.332031 50.316406 C 301.761719 50.429688 302.1875 50.488281 302.609375 50.488281 C 303.175781 50.488281 303.605469 50.390625 303.910156 50.199219 C 304.214844 50.003906 304.367188 49.734375 304.367188 49.382812 C 304.367188 49.054688 304.257812 48.808594 304.039062 48.632812 C 303.820312 48.460938 303.339844 48.292969 302.59375 48.132812 L 302.179688 48.035156 C 301.4375 47.878906 300.902344 47.636719 300.570312 47.316406 C 300.242188 46.992188 300.078125 46.546875 300.078125 45.984375 C 300.078125 45.296875 300.320312 44.769531 300.804688 44.394531 C 301.292969 44.023438 301.980469 43.835938 302.875 43.835938 C 303.320312 43.835938 303.734375 43.867188 304.125 43.933594 C 304.515625 43.996094 304.875 44.09375 305.207031 44.226562 Z M 305.207031 44.226562 "/>
<path style=" stroke:none;fill-rule:nonzero;fill:rgb(0%,0%,0%);fill-opacity:1;" d="M 308.691406 41.941406 L 308.691406 44.011719 L 311.15625 44.011719 L 311.15625 44.941406 L 308.691406 44.941406 L 308.691406 48.898438 C 308.691406 49.496094 308.769531 49.875 308.933594 50.046875 C 309.097656 50.214844 309.425781 50.300781 309.925781 50.300781 L 311.15625 50.300781 L 311.15625 51.300781 L 309.925781 51.300781 C 309.003906 51.300781 308.363281 51.128906 308.011719 50.785156 C 307.660156 50.441406 307.484375 49.8125 307.484375 48.898438 L 307.484375 44.941406 L 306.605469 44.941406 L 306.605469 44.011719 L 307.484375 44.011719 L 307.484375 41.941406 Z M 308.691406 41.941406 "/>
</g>
</svg>
