<?xml version="1.0" encoding="UTF-8"?>
<svg xmlns="http://www.w3.org/2000/svg" xmlns:xlink="http://www.w3.org/1999/xlink" width="314.379171" height="245.940633" viewBox="0 0 314.379171 245.940633" version="1.1">
<defs>
<clipPath id="clip1">
  <path d="M 40.136719 14.664062 L 41 14.664062 L 41 195.867188 L 40.136719 195.867188 Z M 40.136719 14.664062 "/>
</clipPath>
<clipPath id="clip2">
  <path d="M 104 14.664062 L 106 14.664062 L 106 195.867188 L 104 195.867188 Z M 104 14.664062 "/>
</clipPath>
<clipPath id="clip3">
  <path d="M 169 14.664062 L 172 14.664062 L 172 195.867188 L 169 195.867188 Z M 169 14.664062 "/>
</clipPath>
<clipPath id="clip4">
  <path d="M 234 14.664062 L 237 14.664062 L 237 195.867188 L 234 195.867188 Z M 234 14.664062 "/>
</clipPath>
<clipPath id="clip5">
  <path d="M 299 14.664062 L 300.539062 14.664062 L 300.539062 195.867188 L 299 195.867188 Z M 299 14.664062 "/>
</clipPath>
<clipPath id="clip6">
  <path d="M 40.136719 195 L 300.539062 195 L 300.539062 195.867188 L 40.136719 195.867188 Z M 40.136719 195 "/>
</clipPath>
<clipPath id="clip7">
  <path d="M 40.136719 158 L 300.539062 158 L 300.539062 161 L 40.136719 161 Z M 40.136719 158 "/>
</clipPath>
<clipPath id="clip8">
  <path d="M 40.136719 122 L 300.539062 122 L 300.539062 125 L 40.136719 125 Z M 40.136719 122 "/>
</clipPath>
<clipPath id="clip9">
  <path d="M 40.136719 86 L 300.539062 86 L 300.539062 88 L 40.136719 88 Z M 40.136719 86 "/>
</clipPath>
<clipPath id="clip10">
  <path d="M 40.136719 50 L 300.539062 50 L 300.539062 52 L 40.136719 52 Z M 40.136719 50 "/>
</clipPath>
<clipPath id="clip11">
  <path d="M 40.136719 14.664062 L 300.539062 14.664062 L 300.539062 16 L 40.136719 16 Z M 40.136719 14.664062 "/>
</clipPath>
<clipPath id="clip12">
  <path d="M 45 14.664062 L 300.539062 14.664062 L 300.539062 164 L 45 164 Z M 45 14.664062 "/>
</clipPath>
<clipPath id="clip13">
  <path d="M 40.136719 24 L 300.539062 24 L 300.539062 100 L 40.136719 100 Z M 40.136719 24 "/>
</clipPath>
<clipPath id="clip14">
  <path d="M 40.136719 24 L 300.539062 24 L 300.539062 48 L 40.136719 48 Z M 40.136719 24 "/>
</clipPath>
<filter id="alpha" filterUnits="objectBoundingBox" x="0%" y="0%" width="100%" height="100%">
  <feColorMatrix type="matrix" in="SourceGraphic" values="0 0 0 0 1 0 0 0 0 1 0 0 0 0 1 0 0 0 1 0"/>
</filter>
<mask id="mask0">
  <g filter="url(#alpha)">
<rect x="0" y="0" width="314.379171" height="245.940633" style="fill:rgb(0%,0%,0%);fill-opacity:0.8;stroke:none;"/>
  </g>
</mask>
<clipPath id="clip15">
  <rect x="0" y="0" width="315" height="246"/>
</clipPath>
<g id="surface5" clip-path="url(#clip15)">
<path style="fill-rule:nonzero;fill:rgb(100%,100%,100%);fill-opacity:1;stroke-width:1;stroke-linecap:butt;stroke-linejoin:miter;stroke:rgb(80.000001%,80.000001%,80.000001%);stroke-opacity:1;stroke-miterlimit:4;" d="M 140.633789 102.46582 L 218.402344 102.46582 C 219.735352 102.46582 220.40332 101.800781 220.40332 100.467773 L 220.40332 57.430664 C 220.40332 56.097656 219.735352 55.432617 218.402344 55.432617 L 140.633789 55.432617 C 139.300781 55.432617 138.635742 56.097656 138.635742 57.430664 L 138.635742 100.467773 C 138.635742 101.800781 139.300781 102.46582 140.633789 102.46582 Z M 140.633789 102.46582 " transform="matrix(1.333333,0,0,1.333333,0,0.000000000000014211)"/>
</g>
</defs>
<g id="surface1">
<path style=" stroke:none;fill-rule:nonzero;fill:rgb(100%,100%,100%);fill-opacity:1;" d="M 40.136719 195.867188 L 300.539062 195.867188 L 300.539062 14.664062 L 40.136719 14.664062 Z M 40.136719 195.867188 "/>
<g clip-path="url(#clip1)" clip-rule="nonzero">
<path style="fill:none;stroke-width:0.8;stroke-linecap:square;stroke-linejoin:round;stroke:rgb(69.01961%,69.01961%,69.01961%);stroke-opacity:1;stroke-miterlimit:4;" d="M 30.102539 146.900391 L 30.102539 10.998047 " transform="matrix(1.333333,0,0,1.333333,0,0.000000000000014211)"/>
</g>
<path style="fill:none;stroke-width:0.8;stroke-linecap:butt;stroke-linejoin:round;stroke:rgb(0%,0%,0%);stroke-opacity:1;stroke-miterlimit:4;" d="M -0.000585556 0.00117493 L -0.000585556 3.499222 " transform="matrix(1.333333,0,0,1.333333,40.137499,195.865621)"/>
<path style=" stroke:none;fill-rule:nonzero;fill:rgb(0%,0%,0%);fill-opacity:1;" d="M 37.550781 214.222656 L 39.699219 214.222656 L 39.699219 206.808594 L 37.359375 207.277344 L 37.359375 206.078125 L 39.683594 205.609375 L 41 205.609375 L 41 214.222656 L 43.148438 214.222656 L 43.148438 215.332031 L 37.550781 215.332031 Z M 37.550781 214.222656 "/>
<g clip-path="url(#clip2)" clip-rule="nonzero">
<path style="fill:none;stroke-width:0.8;stroke-linecap:square;stroke-linejoin:round;stroke:rgb(69.01961%,69.01961%,69.01961%);stroke-opacity:1;stroke-miterlimit:4;" d="M 78.928711 146.900391 L 78.928711 10.998047 " transform="matrix(1.333333,0,0,1.333333,0,0.000000000000014211)"/>
</g>
<path style="fill:none;stroke-width:0.8;stroke-linecap:butt;stroke-linejoin:round;stroke:rgb(0%,0%,0%);stroke-opacity:1;stroke-miterlimit:4;" d="M 0.000587463 0.00117493 L 0.000587463 3.499222 " transform="matrix(1.333333,0,0,1.333333,105.237498,195.865621)"/>
<path style=" stroke:none;fill-rule:nonzero;fill:rgb(0%,0%,0%);fill-opacity:1;" d="M 103.554688 214.222656 L 108.144531 214.222656 L 108.144531 215.332031 L 101.972656 215.332031 L 101.972656 214.222656 C 102.472656 213.707031 103.152344 213.015625 104.011719 212.144531 C 104.875 211.273438 105.417969 210.710938 105.636719 210.460938 C 106.058594 209.988281 106.351562 209.585938 106.519531 209.257812 C 106.6875 208.929688 106.769531 208.609375 106.769531 208.292969 C 106.769531 207.777344 106.589844 207.355469 106.226562 207.03125 C 105.863281 206.703125 105.390625 206.539062 104.808594 206.539062 C 104.398438 206.539062 103.960938 206.613281 103.503906 206.753906 C 103.046875 206.898438 102.558594 207.117188 102.039062 207.40625 L 102.039062 206.078125 C 102.566406 205.867188 103.0625 205.707031 103.519531 205.597656 C 103.980469 205.488281 104.402344 205.433594 104.785156 205.433594 C 105.792969 205.433594 106.59375 205.6875 107.195312 206.191406 C 107.792969 206.695312 108.089844 207.367188 108.089844 208.207031 C 108.089844 208.605469 108.015625 208.988281 107.867188 209.34375 C 107.71875 209.703125 107.445312 210.125 107.050781 210.609375 C 106.941406 210.734375 106.597656 211.101562 106.015625 211.699219 C 105.433594 212.300781 104.613281 213.144531 103.554688 214.222656 Z M 103.554688 214.222656 "/>
<g clip-path="url(#clip3)" clip-rule="nonzero">
<path style="fill:none;stroke-width:0.8;stroke-linecap:square;stroke-linejoin:round;stroke:rgb(69.01961%,69.01961%,69.01961%);stroke-opacity:1;stroke-miterlimit:4;" d="M 127.751953 146.900391 L 127.751953 10.998047 " transform="matrix(1.333333,0,0,1.333333,0,0.000000000000014211)"/>
</g>
<path style="fill:none;stroke-width:0.8;stroke-linecap:butt;stroke-linejoin:round;stroke:rgb(0%,0%,0%);stroke-opacity:1;stroke-miterlimit:4;" d="M -0.00117493 0.00117493 L -0.00117493 3.499222 " transform="matrix(1.333333,0,0,1.333333,170.337504,195.865621)"/>
<path style=" stroke:none;fill-rule:nonzero;fill:rgb(0%,0%,0%);fill-opacity:1;" d="M 171.507812 210.089844 C 172.136719 210.222656 172.625 210.503906 172.980469 210.929688 C 173.332031 211.355469 173.511719 211.878906 173.511719 212.503906 C 173.511719 213.464844 173.179688 214.207031 172.519531 214.730469 C 171.859375 215.257812 170.921875 215.519531 169.707031 215.519531 C 169.300781 215.519531 168.882812 215.480469 168.449219 215.398438 C 168.019531 215.320312 167.570312 215.199219 167.113281 215.035156 L 167.113281 213.769531 C 167.476562 213.980469 167.875 214.140625 168.308594 214.25 C 168.742188 214.355469 169.195312 214.410156 169.671875 214.410156 C 170.496094 214.410156 171.121094 214.25 171.554688 213.925781 C 171.984375 213.597656 172.203125 213.125 172.203125 212.503906 C 172.203125 211.929688 172 211.484375 171.601562 211.160156 C 171.199219 210.835938 170.640625 210.675781 169.925781 210.675781 L 168.792969 210.675781 L 168.792969 209.59375 L 169.976562 209.59375 C 170.621094 209.59375 171.117188 209.464844 171.460938 209.207031 C 171.804688 208.949219 171.976562 208.578125 171.976562 208.089844 C 171.976562 207.59375 171.796875 207.210938 171.445312 206.941406 C 171.089844 206.675781 170.585938 206.539062 169.925781 206.539062 C 169.5625 206.539062 169.175781 206.582031 168.765625 206.660156 C 168.351562 206.738281 167.898438 206.859375 167.402344 207.023438 L 167.402344 205.851562 C 167.902344 205.710938 168.371094 205.609375 168.808594 205.539062 C 169.246094 205.46875 169.65625 205.433594 170.042969 205.433594 C 171.039062 205.433594 171.828125 205.660156 172.410156 206.117188 C 172.992188 206.570312 173.285156 207.179688 173.285156 207.953125 C 173.285156 208.492188 173.128906 208.945312 172.820312 209.316406 C 172.511719 209.6875 172.074219 209.945312 171.507812 210.089844 Z M 171.507812 210.089844 "/>
<g clip-path="url(#clip4)" clip-rule="nonzero">
<path style="fill:none;stroke-width:0.8;stroke-linecap:square;stroke-linejoin:round;stroke:rgb(69.01961%,69.01961%,69.01961%);stroke-opacity:1;stroke-miterlimit:4;" d="M 176.578125 146.900391 L 176.578125 10.998047 " transform="matrix(1.333333,0,0,1.333333,0,0.000000000000014211)"/>
</g>
<path style="fill:none;stroke-width:0.8;stroke-linecap:butt;stroke-linejoin:round;stroke:rgb(0%,0%,0%);stroke-opacity:1;stroke-miterlimit:4;" d="M 0 0.00117493 L 0 3.499222 " transform="matrix(1.333333,0,0,1.333333,235.4375,195.865621)"/>
<path style=" stroke:none;fill-rule:nonzero;fill:rgb(0%,0%,0%);fill-opacity:1;" d="M 236.234375 206.753906 L 232.914062 211.945312 L 236.234375 211.945312 Z M 235.890625 205.609375 L 237.542969 205.609375 L 237.542969 211.945312 L 238.929688 211.945312 L 238.929688 213.039062 L 237.542969 213.039062 L 237.542969 215.332031 L 236.234375 215.332031 L 236.234375 213.039062 L 231.847656 213.039062 L 231.847656 211.769531 Z M 235.890625 205.609375 "/>
<g clip-path="url(#clip5)" clip-rule="nonzero">
<path style="fill:none;stroke-width:0.8;stroke-linecap:square;stroke-linejoin:round;stroke:rgb(69.01961%,69.01961%,69.01961%);stroke-opacity:1;stroke-miterlimit:4;" d="M 225.404297 146.900391 L 225.404297 10.998047 " transform="matrix(1.333333,0,0,1.333333,0,0.000000000000014211)"/>
</g>
<path style="fill:none;stroke-width:0.8;stroke-linecap:butt;stroke-linejoin:round;stroke:rgb(0%,0%,0%);stroke-opacity:1;stroke-miterlimit:4;" d="M 0.00117493 0.00117493 L 0.00117493 3.499222 " transform="matrix(1.333333,0,0,1.333333,300.537496,195.865621)"/>
<path style=" stroke:none;fill-rule:nonzero;fill:rgb(0%,0%,0%);fill-opacity:1;" d="M 297.734375 205.609375 L 302.898438 205.609375 L 302.898438 206.71875 L 298.941406 206.71875 L 298.941406 209.097656 C 299.128906 209.035156 299.320312 208.984375 299.511719 208.953125 C 299.703125 208.921875 299.894531 208.90625 300.085938 208.90625 C 301.171875 208.90625 302.027344 209.203125 302.664062 209.796875 C 303.296875 210.390625 303.613281 211.195312 303.613281 212.210938 C 303.613281 213.257812 303.289062 214.070312 302.636719 214.652344 C 301.984375 215.230469 301.066406 215.519531 299.882812 215.519531 C 299.476562 215.519531 299.058594 215.484375 298.636719 215.414062 C 298.214844 215.347656 297.777344 215.242188 297.324219 215.101562 L 297.324219 213.78125 C 297.714844 213.992188 298.117188 214.152344 298.535156 214.253906 C 298.953125 214.359375 299.390625 214.410156 299.855469 214.410156 C 300.609375 214.410156 301.203125 214.214844 301.640625 213.820312 C 302.078125 213.425781 302.296875 212.890625 302.296875 212.210938 C 302.296875 211.535156 302.078125 211 301.640625 210.605469 C 301.203125 210.210938 300.609375 210.011719 299.855469 210.011719 C 299.503906 210.011719 299.152344 210.050781 298.804688 210.128906 C 298.457031 210.207031 298.097656 210.328125 297.734375 210.492188 Z M 297.734375 205.609375 "/>
<path style=" stroke:none;fill-rule:nonzero;fill:rgb(0%,0%,0%);fill-opacity:1;" d="M 157.527344 229.621094 L 157.527344 230.207031 L 152.019531 230.207031 C 152.070312 231.03125 152.320312 231.660156 152.765625 232.09375 C 153.210938 232.523438 153.828125 232.742188 154.621094 232.742188 C 155.082031 232.742188 155.527344 232.683594 155.960938 232.570312 C 156.390625 232.460938 156.820312 232.289062 157.246094 232.0625 L 157.246094 233.195312 C 156.816406 233.378906 156.375 233.519531 155.925781 233.613281 C 155.472656 233.710938 155.015625 233.757812 154.550781 233.757812 C 153.386719 233.757812 152.464844 233.417969 151.789062 232.742188 C 151.109375 232.066406 150.769531 231.148438 150.769531 229.992188 C 150.769531 228.800781 151.089844 227.851562 151.734375 227.152344 C 152.378906 226.453125 153.25 226.101562 154.34375 226.101562 C 155.324219 226.101562 156.101562 226.417969 156.671875 227.050781 C 157.242188 227.679688 157.527344 228.539062 157.527344 229.621094 Z M 156.328125 229.269531 C 156.320312 228.617188 156.136719 228.09375 155.777344 227.703125 C 155.421875 227.3125 154.945312 227.117188 154.355469 227.117188 C 153.6875 227.117188 153.152344 227.304688 152.753906 227.683594 C 152.351562 228.058594 152.121094 228.59375 152.058594 229.277344 Z M 156.328125 229.269531 "/>
<path style=" stroke:none;fill-rule:nonzero;fill:rgb(0%,0%,0%);fill-opacity:1;" d="M 160.652344 232.472656 L 160.652344 236.339844 L 159.445312 236.339844 L 159.445312 226.277344 L 160.652344 226.277344 L 160.652344 227.382812 C 160.902344 226.949219 161.222656 226.628906 161.605469 226.417969 C 161.988281 226.207031 162.449219 226.101562 162.980469 226.101562 C 163.867188 226.101562 164.585938 226.453125 165.140625 227.15625 C 165.695312 227.859375 165.972656 228.78125 165.972656 229.929688 C 165.972656 231.074219 165.695312 232 165.140625 232.703125 C 164.585938 233.40625 163.867188 233.757812 162.980469 233.757812 C 162.449219 233.757812 161.988281 233.652344 161.605469 233.441406 C 161.222656 233.230469 160.902344 232.90625 160.652344 232.472656 Z M 164.726562 229.929688 C 164.726562 229.046875 164.546875 228.355469 164.183594 227.855469 C 163.820312 227.355469 163.324219 227.101562 162.691406 227.101562 C 162.054688 227.101562 161.558594 227.355469 161.195312 227.855469 C 160.832031 228.355469 160.652344 229.046875 160.652344 229.929688 C 160.652344 230.808594 160.832031 231.5 161.195312 232 C 161.558594 232.503906 162.054688 232.753906 162.691406 232.753906 C 163.324219 232.753906 163.820312 232.503906 164.183594 232 C 164.546875 231.5 164.726562 230.808594 164.726562 229.929688 Z M 164.726562 229.929688 "/>
<path style=" stroke:none;fill-rule:nonzero;fill:rgb(0%,0%,0%);fill-opacity:1;" d="M 170.78125 227.117188 C 170.140625 227.117188 169.632812 227.367188 169.257812 227.867188 C 168.882812 228.367188 168.699219 229.054688 168.699219 229.929688 C 168.699219 230.800781 168.882812 231.488281 169.253906 231.988281 C 169.625 232.488281 170.136719 232.742188 170.78125 232.742188 C 171.421875 232.742188 171.925781 232.488281 172.296875 231.988281 C 172.671875 231.480469 172.859375 230.796875 172.859375 229.929688 C 172.859375 229.0625 172.671875 228.378906 172.296875 227.875 C 171.925781 227.367188 171.421875 227.117188 170.78125 227.117188 Z M 170.78125 226.101562 C 171.824219 226.101562 172.640625 226.441406 173.234375 227.117188 C 173.832031 227.792969 174.128906 228.730469 174.128906 229.929688 C 174.128906 231.121094 173.832031 232.058594 173.234375 232.738281 C 172.640625 233.417969 171.824219 233.757812 170.78125 233.757812 C 169.734375 233.757812 168.914062 233.417969 168.324219 232.738281 C 167.730469 232.058594 167.433594 231.121094 167.433594 229.929688 C 167.433594 228.730469 167.730469 227.792969 168.324219 227.117188 C 168.914062 226.441406 169.734375 226.101562 170.78125 226.101562 Z M 170.78125 226.101562 "/>
<path style=" stroke:none;fill-rule:nonzero;fill:rgb(0%,0%,0%);fill-opacity:1;" d="M 181.363281 226.554688 L 181.363281 227.675781 C 181.023438 227.488281 180.683594 227.347656 180.34375 227.253906 C 180.003906 227.164062 179.660156 227.117188 179.3125 227.117188 C 178.535156 227.117188 177.929688 227.363281 177.5 227.855469 C 177.070312 228.347656 176.855469 229.039062 176.855469 229.929688 C 176.855469 230.820312 177.070312 231.511719 177.5 232.003906 C 177.929688 232.496094 178.535156 232.742188 179.3125 232.742188 C 179.660156 232.742188 180.003906 232.695312 180.34375 232.601562 C 180.683594 232.507812 181.023438 232.367188 181.363281 232.179688 L 181.363281 233.289062 C 181.027344 233.445312 180.679688 233.5625 180.320312 233.636719 C 179.964844 233.71875 179.585938 233.757812 179.179688 233.757812 C 178.082031 233.757812 177.207031 233.414062 176.5625 232.722656 C 175.914062 232.03125 175.59375 231.101562 175.59375 229.929688 C 175.59375 228.738281 175.917969 227.804688 176.570312 227.125 C 177.226562 226.441406 178.121094 226.101562 179.257812 226.101562 C 179.628906 226.101562 179.988281 226.140625 180.339844 226.214844 C 180.691406 226.289062 181.03125 226.402344 181.363281 226.554688 Z M 181.363281 226.554688 "/>
<path style=" stroke:none;fill-rule:nonzero;fill:rgb(0%,0%,0%);fill-opacity:1;" d="M 189.507812 229.164062 L 189.507812 233.566406 L 188.308594 233.566406 L 188.308594 229.207031 C 188.308594 228.515625 188.175781 228 187.90625 227.65625 C 187.636719 227.3125 187.230469 227.144531 186.695312 227.144531 C 186.046875 227.144531 185.535156 227.347656 185.164062 227.761719 C 184.789062 228.171875 184.601562 228.734375 184.601562 229.445312 L 184.601562 233.566406 L 183.398438 233.566406 L 183.398438 223.4375 L 184.601562 223.4375 L 184.601562 227.410156 C 184.890625 226.96875 185.226562 226.644531 185.617188 226.425781 C 186.003906 226.210938 186.453125 226.101562 186.960938 226.101562 C 187.796875 226.101562 188.433594 226.359375 188.859375 226.878906 C 189.292969 227.394531 189.507812 228.160156 189.507812 229.164062 Z M 189.507812 229.164062 "/>
<g clip-path="url(#clip6)" clip-rule="nonzero">
<path style="fill:none;stroke-width:0.8;stroke-linecap:square;stroke-linejoin:round;stroke:rgb(69.01961%,69.01961%,69.01961%);stroke-opacity:1;stroke-miterlimit:4;" d="M 30.102539 146.900391 L 225.404297 146.900391 " transform="matrix(1.333333,0,0,1.333333,0,0.000000000000014211)"/>
</g>
<path style="fill:none;stroke-width:0.8;stroke-linecap:butt;stroke-linejoin:round;stroke:rgb(0%,0%,0%);stroke-opacity:1;stroke-miterlimit:4;" d="M -0.000585556 0.00117493 L -3.498632 0.00117493 " transform="matrix(1.333333,0,0,1.333333,40.137499,195.865621)"/>
<path style=" stroke:none;fill-rule:nonzero;fill:rgb(0%,0%,0%);fill-opacity:1;" d="M 13.835938 192.078125 C 13.160156 192.078125 12.652344 192.410156 12.308594 193.078125 C 11.96875 193.742188 11.800781 194.742188 11.800781 196.082031 C 11.800781 197.414062 11.96875 198.414062 12.308594 199.078125 C 12.652344 199.746094 13.160156 200.078125 13.835938 200.078125 C 14.519531 200.078125 15.03125 199.746094 15.371094 199.078125 C 15.710938 198.414062 15.882812 197.414062 15.882812 196.082031 C 15.882812 194.742188 15.710938 193.742188 15.371094 193.078125 C 15.03125 192.410156 14.519531 192.078125 13.835938 192.078125 Z M 13.835938 191.035156 C 14.929688 191.035156 15.761719 191.464844 16.335938 192.328125 C 16.910156 193.191406 17.199219 194.441406 17.199219 196.082031 C 17.199219 197.71875 16.910156 198.964844 16.335938 199.828125 C 15.761719 200.691406 14.929688 201.121094 13.835938 201.121094 C 12.75 201.121094 11.917969 200.691406 11.339844 199.828125 C 10.765625 198.964844 10.480469 197.71875 10.480469 196.082031 C 10.480469 194.441406 10.765625 193.191406 11.339844 192.328125 C 11.917969 191.464844 12.75 191.035156 13.835938 191.035156 Z M 13.835938 191.035156 "/>
<path style=" stroke:none;fill-rule:nonzero;fill:rgb(0%,0%,0%);fill-opacity:1;" d="M 19.507812 199.277344 L 20.882812 199.277344 L 20.882812 200.929688 L 19.507812 200.929688 Z M 19.507812 199.277344 "/>
<path style=" stroke:none;fill-rule:nonzero;fill:rgb(0%,0%,0%);fill-opacity:1;" d="M 26.558594 192.078125 C 25.882812 192.078125 25.375 192.410156 25.03125 193.078125 C 24.691406 193.742188 24.519531 194.742188 24.519531 196.082031 C 24.519531 197.414062 24.691406 198.414062 25.03125 199.078125 C 25.375 199.746094 25.882812 200.078125 26.558594 200.078125 C 27.242188 200.078125 27.75 199.746094 28.09375 199.078125 C 28.433594 198.414062 28.605469 197.414062 28.605469 196.082031 C 28.605469 194.742188 28.433594 193.742188 28.09375 193.078125 C 27.75 192.410156 27.242188 192.078125 26.558594 192.078125 Z M 26.558594 191.035156 C 27.648438 191.035156 28.480469 191.464844 29.058594 192.328125 C 29.632812 193.191406 29.917969 194.441406 29.917969 196.082031 C 29.917969 197.71875 29.632812 198.964844 29.058594 199.828125 C 28.480469 200.691406 27.648438 201.121094 26.558594 201.121094 C 25.46875 201.121094 24.636719 200.691406 24.0625 199.828125 C 23.488281 198.964844 23.199219 197.71875 23.199219 196.082031 C 23.199219 194.441406 23.488281 193.191406 24.0625 192.328125 C 24.636719 191.464844 25.46875 191.035156 26.558594 191.035156 Z M 26.558594 191.035156 "/>
<g clip-path="url(#clip7)" clip-rule="nonzero">
<path style="fill:none;stroke-width:0.8;stroke-linecap:square;stroke-linejoin:round;stroke:rgb(69.01961%,69.01961%,69.01961%);stroke-opacity:1;stroke-miterlimit:4;" d="M 30.102539 119.71875 L 225.404297 119.71875 " transform="matrix(1.333333,0,0,1.333333,0,0.000000000000014211)"/>
</g>
<path style="fill:none;stroke-width:0.8;stroke-linecap:butt;stroke-linejoin:round;stroke:rgb(0%,0%,0%);stroke-opacity:1;stroke-miterlimit:4;" d="M -0.000585556 -0.000465393 L -3.498632 -0.000465393 " transform="matrix(1.333333,0,0,1.333333,40.137499,159.625621)"/>
<path style=" stroke:none;fill-rule:nonzero;fill:rgb(0%,0%,0%);fill-opacity:1;" d="M 13.835938 155.835938 C 13.160156 155.835938 12.652344 156.171875 12.308594 156.835938 C 11.96875 157.503906 11.800781 158.503906 11.800781 159.839844 C 11.800781 161.171875 11.96875 162.171875 12.308594 162.839844 C 12.652344 163.503906 13.160156 163.839844 13.835938 163.839844 C 14.519531 163.839844 15.03125 163.503906 15.371094 162.839844 C 15.710938 162.171875 15.882812 161.171875 15.882812 159.839844 C 15.882812 158.503906 15.710938 157.503906 15.371094 156.835938 C 15.03125 156.171875 14.519531 155.835938 13.835938 155.835938 Z M 13.835938 154.796875 C 14.929688 154.796875 15.761719 155.226562 16.335938 156.089844 C 16.910156 156.949219 17.199219 158.199219 17.199219 159.839844 C 17.199219 161.476562 16.910156 162.726562 16.335938 163.589844 C 15.761719 164.449219 14.929688 164.878906 13.835938 164.878906 C 12.75 164.878906 11.917969 164.449219 11.339844 163.589844 C 10.765625 162.726562 10.480469 161.476562 10.480469 159.839844 C 10.480469 158.199219 10.765625 156.949219 11.339844 156.089844 C 11.917969 155.226562 12.75 154.796875 13.835938 154.796875 Z M 13.835938 154.796875 "/>
<path style=" stroke:none;fill-rule:nonzero;fill:rgb(0%,0%,0%);fill-opacity:1;" d="M 19.507812 163.035156 L 20.882812 163.035156 L 20.882812 164.691406 L 19.507812 164.691406 Z M 19.507812 163.035156 "/>
<path style=" stroke:none;fill-rule:nonzero;fill:rgb(0%,0%,0%);fill-opacity:1;" d="M 24.878906 163.585938 L 29.46875 163.585938 L 29.46875 164.691406 L 23.296875 164.691406 L 23.296875 163.585938 C 23.796875 163.066406 24.476562 162.375 25.339844 161.503906 C 26.199219 160.636719 26.742188 160.074219 26.964844 159.820312 C 27.382812 159.347656 27.675781 158.949219 27.84375 158.621094 C 28.011719 158.292969 28.097656 157.96875 28.097656 157.652344 C 28.097656 157.136719 27.914062 156.714844 27.550781 156.390625 C 27.191406 156.066406 26.71875 155.902344 26.136719 155.902344 C 25.722656 155.902344 25.289062 155.972656 24.828125 156.117188 C 24.371094 156.257812 23.882812 156.476562 23.363281 156.769531 L 23.363281 155.4375 C 23.890625 155.226562 24.386719 155.066406 24.847656 154.957031 C 25.308594 154.847656 25.730469 154.796875 26.109375 154.796875 C 27.117188 154.796875 27.921875 155.046875 28.519531 155.550781 C 29.117188 156.054688 29.417969 156.726562 29.417969 157.566406 C 29.417969 157.96875 29.34375 158.347656 29.191406 158.707031 C 29.042969 159.0625 28.769531 159.484375 28.375 159.96875 C 28.265625 160.097656 27.921875 160.460938 27.339844 161.0625 C 26.757812 161.664062 25.9375 162.503906 24.878906 163.585938 Z M 24.878906 163.585938 "/>
<g clip-path="url(#clip8)" clip-rule="nonzero">
<path style="fill:none;stroke-width:0.8;stroke-linecap:square;stroke-linejoin:round;stroke:rgb(69.01961%,69.01961%,69.01961%);stroke-opacity:1;stroke-miterlimit:4;" d="M 30.102539 92.540039 L 225.404297 92.540039 " transform="matrix(1.333333,0,0,1.333333,0,0.000000000000014211)"/>
</g>
<path style="fill:none;stroke-width:0.8;stroke-linecap:butt;stroke-linejoin:round;stroke:rgb(0%,0%,0%);stroke-opacity:1;stroke-miterlimit:4;" d="M -0.000585556 0.000816345 L -3.498632 0.000816345 " transform="matrix(1.333333,0,0,1.333333,40.137499,123.38563)"/>
<path style=" stroke:none;fill-rule:nonzero;fill:rgb(0%,0%,0%);fill-opacity:1;" d="M 13.835938 119.597656 C 13.160156 119.597656 12.652344 119.929688 12.308594 120.597656 C 11.96875 121.261719 11.800781 122.265625 11.800781 123.601562 C 11.800781 124.933594 11.96875 125.933594 12.308594 126.597656 C 12.652344 127.265625 13.160156 127.597656 13.835938 127.597656 C 14.519531 127.597656 15.03125 127.265625 15.371094 126.597656 C 15.710938 125.933594 15.882812 124.933594 15.882812 123.601562 C 15.882812 122.265625 15.710938 121.261719 15.371094 120.597656 C 15.03125 119.929688 14.519531 119.597656 13.835938 119.597656 Z M 13.835938 118.554688 C 14.929688 118.554688 15.761719 118.988281 16.335938 119.847656 C 16.910156 120.710938 17.199219 121.960938 17.199219 123.601562 C 17.199219 125.238281 16.910156 126.488281 16.335938 127.347656 C 15.761719 128.210938 14.929688 128.640625 13.835938 128.640625 C 12.75 128.640625 11.917969 128.210938 11.339844 127.347656 C 10.765625 126.488281 10.480469 125.238281 10.480469 123.601562 C 10.480469 121.960938 10.765625 120.710938 11.339844 119.847656 C 11.917969 118.988281 12.75 118.554688 13.835938 118.554688 Z M 13.835938 118.554688 "/>
<path style=" stroke:none;fill-rule:nonzero;fill:rgb(0%,0%,0%);fill-opacity:1;" d="M 19.507812 126.796875 L 20.882812 126.796875 L 20.882812 128.453125 L 19.507812 128.453125 Z M 19.507812 126.796875 "/>
<path style=" stroke:none;fill-rule:nonzero;fill:rgb(0%,0%,0%);fill-opacity:1;" d="M 27.359375 119.875 L 24.039062 125.066406 L 27.359375 125.066406 Z M 27.015625 118.730469 L 28.667969 118.730469 L 28.667969 125.066406 L 30.058594 125.066406 L 30.058594 126.160156 L 28.667969 126.160156 L 28.667969 128.453125 L 27.359375 128.453125 L 27.359375 126.160156 L 22.972656 126.160156 L 22.972656 124.890625 Z M 27.015625 118.730469 "/>
<g clip-path="url(#clip9)" clip-rule="nonzero">
<path style="fill:none;stroke-width:0.8;stroke-linecap:square;stroke-linejoin:round;stroke:rgb(69.01961%,69.01961%,69.01961%);stroke-opacity:1;stroke-miterlimit:4;" d="M 30.102539 65.358398 L 225.404297 65.358398 " transform="matrix(1.333333,0,0,1.333333,0,0.000000000000014211)"/>
</g>
<path style="fill:none;stroke-width:0.8;stroke-linecap:butt;stroke-linejoin:round;stroke:rgb(0%,0%,0%);stroke-opacity:1;stroke-miterlimit:4;" d="M -0.000585556 -0.000823975 L -3.498632 -0.000823975 " transform="matrix(1.333333,0,0,1.333333,40.137499,87.14563)"/>
<path style=" stroke:none;fill-rule:nonzero;fill:rgb(0%,0%,0%);fill-opacity:1;" d="M 13.835938 83.355469 C 13.160156 83.355469 12.652344 83.691406 12.308594 84.355469 C 11.96875 85.023438 11.800781 86.023438 11.800781 87.359375 C 11.800781 88.691406 11.96875 89.691406 12.308594 90.359375 C 12.652344 91.027344 13.160156 91.359375 13.835938 91.359375 C 14.519531 91.359375 15.03125 91.027344 15.371094 90.359375 C 15.710938 89.691406 15.882812 88.691406 15.882812 87.359375 C 15.882812 86.023438 15.710938 85.023438 15.371094 84.355469 C 15.03125 83.691406 14.519531 83.355469 13.835938 83.355469 Z M 13.835938 82.316406 C 14.929688 82.316406 15.761719 82.746094 16.335938 83.609375 C 16.910156 84.46875 17.199219 85.722656 17.199219 87.359375 C 17.199219 88.996094 16.910156 90.246094 16.335938 91.109375 C 15.761719 91.96875 14.929688 92.402344 13.835938 92.402344 C 12.75 92.402344 11.917969 91.96875 11.339844 91.109375 C 10.765625 90.246094 10.480469 88.996094 10.480469 87.359375 C 10.480469 85.722656 10.765625 84.46875 11.339844 83.609375 C 11.917969 82.746094 12.75 82.316406 13.835938 82.316406 Z M 13.835938 82.316406 "/>
<path style=" stroke:none;fill-rule:nonzero;fill:rgb(0%,0%,0%);fill-opacity:1;" d="M 19.507812 90.558594 L 20.882812 90.558594 L 20.882812 92.210938 L 19.507812 92.210938 Z M 19.507812 90.558594 "/>
<path style=" stroke:none;fill-rule:nonzero;fill:rgb(0%,0%,0%);fill-opacity:1;" d="M 26.722656 86.828125 C 26.132812 86.828125 25.664062 87.03125 25.320312 87.433594 C 24.976562 87.835938 24.800781 88.390625 24.800781 89.09375 C 24.800781 89.792969 24.976562 90.34375 25.320312 90.75 C 25.664062 91.15625 26.132812 91.359375 26.722656 91.359375 C 27.3125 91.359375 27.78125 91.15625 28.125 90.75 C 28.46875 90.34375 28.640625 89.792969 28.640625 89.09375 C 28.640625 88.390625 28.46875 87.835938 28.125 87.433594 C 27.78125 87.03125 27.3125 86.828125 26.722656 86.828125 Z M 29.332031 82.703125 L 29.332031 83.902344 C 29.003906 83.746094 28.671875 83.628906 28.332031 83.546875 C 27.996094 83.464844 27.664062 83.421875 27.332031 83.421875 C 26.464844 83.421875 25.800781 83.714844 25.34375 84.300781 C 24.886719 84.886719 24.625 85.773438 24.5625 86.957031 C 24.816406 86.578125 25.136719 86.289062 25.523438 86.089844 C 25.910156 85.886719 26.335938 85.785156 26.800781 85.785156 C 27.777344 85.785156 28.546875 86.082031 29.113281 86.675781 C 29.683594 87.265625 29.964844 88.074219 29.964844 89.09375 C 29.964844 90.089844 29.671875 90.890625 29.078125 91.496094 C 28.488281 92.097656 27.703125 92.402344 26.722656 92.402344 C 25.597656 92.402344 24.738281 91.96875 24.144531 91.109375 C 23.550781 90.246094 23.253906 88.996094 23.253906 87.359375 C 23.253906 85.824219 23.617188 84.601562 24.347656 83.6875 C 25.074219 82.773438 26.054688 82.316406 27.28125 82.316406 C 27.613281 82.316406 27.945312 82.347656 28.28125 82.414062 C 28.617188 82.480469 28.96875 82.574219 29.332031 82.703125 Z M 29.332031 82.703125 "/>
<g clip-path="url(#clip10)" clip-rule="nonzero">
<path style="fill:none;stroke-width:0.8;stroke-linecap:square;stroke-linejoin:round;stroke:rgb(69.01961%,69.01961%,69.01961%);stroke-opacity:1;stroke-miterlimit:4;" d="M 30.102539 38.179687 L 225.404297 38.179687 " transform="matrix(1.333333,0,0,1.333333,0,0.000000000000014211)"/>
</g>
<path style="fill:none;stroke-width:0.8;stroke-linecap:butt;stroke-linejoin:round;stroke:rgb(0%,0%,0%);stroke-opacity:1;stroke-miterlimit:4;" d="M -0.000585556 0.000469208 L -3.498632 0.000469208 " transform="matrix(1.333333,0,0,1.333333,40.137499,50.905624)"/>
<path style=" stroke:none;fill-rule:nonzero;fill:rgb(0%,0%,0%);fill-opacity:1;" d="M 13.835938 47.117188 C 13.160156 47.117188 12.652344 47.449219 12.308594 48.117188 C 11.96875 48.78125 11.800781 49.785156 11.800781 51.121094 C 11.800781 52.453125 11.96875 53.453125 12.308594 54.121094 C 12.652344 54.785156 13.160156 55.121094 13.835938 55.121094 C 14.519531 55.121094 15.03125 54.785156 15.371094 54.121094 C 15.710938 53.453125 15.882812 52.453125 15.882812 51.121094 C 15.882812 49.785156 15.710938 48.78125 15.371094 48.117188 C 15.03125 47.449219 14.519531 47.117188 13.835938 47.117188 Z M 13.835938 46.074219 C 14.929688 46.074219 15.761719 46.507812 16.335938 47.371094 C 16.910156 48.230469 17.199219 49.480469 17.199219 51.121094 C 17.199219 52.757812 16.910156 54.007812 16.335938 54.871094 C 15.761719 55.730469 14.929688 56.160156 13.835938 56.160156 C 12.75 56.160156 11.917969 55.730469 11.339844 54.871094 C 10.765625 54.007812 10.480469 52.757812 10.480469 51.121094 C 10.480469 49.480469 10.765625 48.230469 11.339844 47.371094 C 11.917969 46.507812 12.75 46.074219 13.835938 46.074219 Z M 13.835938 46.074219 "/>
<path style=" stroke:none;fill-rule:nonzero;fill:rgb(0%,0%,0%);fill-opacity:1;" d="M 19.507812 54.316406 L 20.882812 54.316406 L 20.882812 55.972656 L 19.507812 55.972656 Z M 19.507812 54.316406 "/>
<path style=" stroke:none;fill-rule:nonzero;fill:rgb(0%,0%,0%);fill-opacity:1;" d="M 26.558594 51.355469 C 25.933594 51.355469 25.441406 51.523438 25.082031 51.855469 C 24.726562 52.191406 24.546875 52.652344 24.546875 53.234375 C 24.546875 53.820312 24.726562 54.28125 25.082031 54.617188 C 25.441406 54.953125 25.933594 55.121094 26.558594 55.121094 C 27.183594 55.121094 27.675781 54.949219 28.035156 54.613281 C 28.398438 54.277344 28.578125 53.816406 28.578125 53.234375 C 28.578125 52.652344 28.398438 52.191406 28.039062 51.855469 C 27.683594 51.523438 27.1875 51.355469 26.558594 51.355469 Z M 25.246094 50.796875 C 24.679688 50.65625 24.242188 50.394531 23.925781 50.007812 C 23.613281 49.621094 23.453125 49.148438 23.453125 48.59375 C 23.453125 47.816406 23.730469 47.203125 24.285156 46.753906 C 24.839844 46.300781 25.597656 46.074219 26.558594 46.074219 C 27.527344 46.074219 28.285156 46.300781 28.839844 46.753906 C 29.390625 47.203125 29.664062 47.816406 29.664062 48.59375 C 29.664062 49.148438 29.507812 49.621094 29.191406 50.007812 C 28.878906 50.394531 28.441406 50.65625 27.882812 50.796875 C 28.515625 50.945312 29.007812 51.230469 29.359375 51.664062 C 29.714844 52.09375 29.890625 52.617188 29.890625 53.234375 C 29.890625 54.179688 29.605469 54.902344 29.03125 55.40625 C 28.453125 55.910156 27.632812 56.160156 26.558594 56.160156 C 25.488281 56.160156 24.664062 55.910156 24.089844 55.40625 C 23.511719 54.902344 23.226562 54.179688 23.226562 53.234375 C 23.226562 52.617188 23.402344 52.09375 23.757812 51.664062 C 24.117188 51.230469 24.609375 50.945312 25.246094 50.796875 Z M 24.761719 48.71875 C 24.761719 49.222656 24.921875 49.613281 25.234375 49.894531 C 25.550781 50.179688 25.992188 50.320312 26.558594 50.320312 C 27.125 50.320312 27.566406 50.179688 27.882812 49.894531 C 28.203125 49.613281 28.363281 49.222656 28.363281 48.71875 C 28.363281 48.214844 28.203125 47.820312 27.882812 47.539062 C 27.566406 47.257812 27.125 47.117188 26.558594 47.117188 C 25.992188 47.117188 25.550781 47.257812 25.234375 47.539062 C 24.921875 47.820312 24.761719 48.214844 24.761719 48.71875 Z M 24.761719 48.71875 "/>
<g clip-path="url(#clip11)" clip-rule="nonzero">
<path style="fill:none;stroke-width:0.8;stroke-linecap:square;stroke-linejoin:round;stroke:rgb(69.01961%,69.01961%,69.01961%);stroke-opacity:1;stroke-miterlimit:4;" d="M 30.102539 10.998047 L 225.404297 10.998047 " transform="matrix(1.333333,0,0,1.333333,0,0.000000000000014211)"/>
</g>
<path style="fill:none;stroke-width:0.8;stroke-linecap:butt;stroke-linejoin:round;stroke:rgb(0%,0%,0%);stroke-opacity:1;stroke-miterlimit:4;" d="M -0.000585556 -0.00117207 L -3.498632 -0.00117207 " transform="matrix(1.333333,0,0,1.333333,40.137499,14.665625)"/>
<path style=" stroke:none;fill-rule:nonzero;fill:rgb(0%,0%,0%);fill-opacity:1;" d="M 11.253906 18.625 L 13.402344 18.625 L 13.402344 11.207031 L 11.066406 11.675781 L 11.066406 10.480469 L 13.390625 10.011719 L 14.703125 10.011719 L 14.703125 18.625 L 16.851562 18.625 L 16.851562 19.730469 L 11.253906 19.730469 Z M 11.253906 18.625 "/>
<path style=" stroke:none;fill-rule:nonzero;fill:rgb(0%,0%,0%);fill-opacity:1;" d="M 19.507812 18.078125 L 20.882812 18.078125 L 20.882812 19.730469 L 19.507812 19.730469 Z M 19.507812 18.078125 "/>
<path style=" stroke:none;fill-rule:nonzero;fill:rgb(0%,0%,0%);fill-opacity:1;" d="M 26.558594 10.878906 C 25.882812 10.878906 25.375 11.210938 25.03125 11.878906 C 24.691406 12.542969 24.519531 13.542969 24.519531 14.882812 C 24.519531 16.214844 24.691406 17.210938 25.03125 17.878906 C 25.375 18.546875 25.882812 18.878906 26.558594 18.878906 C 27.242188 18.878906 27.75 18.546875 28.09375 17.878906 C 28.433594 17.210938 28.605469 16.214844 28.605469 14.882812 C 28.605469 13.542969 28.433594 12.542969 28.09375 11.878906 C 27.75 11.210938 27.242188 10.878906 26.558594 10.878906 Z M 26.558594 9.835938 C 27.648438 9.835938 28.480469 10.265625 29.058594 11.128906 C 29.632812 11.992188 29.917969 13.242188 29.917969 14.882812 C 29.917969 16.515625 29.632812 17.765625 29.058594 18.628906 C 28.480469 19.492188 27.648438 19.921875 26.558594 19.921875 C 25.46875 19.921875 24.636719 19.492188 24.0625 18.628906 C 23.488281 17.765625 23.199219 16.515625 23.199219 14.882812 C 23.199219 13.242188 23.488281 11.992188 24.0625 11.128906 C 24.636719 10.265625 25.46875 9.835938 26.558594 9.835938 Z M 26.558594 9.835938 "/>
<g clip-path="url(#clip12)" clip-rule="nonzero">
<path style="fill:none;stroke-width:1.5;stroke-linecap:square;stroke-linejoin:round;stroke:rgb(12.156863%,46.666667%,70.588237%);stroke-opacity:1;stroke-miterlimit:4;" d="M 35.191406 -0.999023 L 39.257812 104.334961 L 48.413086 103.939453 L 57.568359 98.472656 L 66.720703 100.236328 L 75.875977 102.498047 L 78.928711 103.476562 L 88.083984 111.292969 L 97.236328 102.386719 L 106.391602 73.713867 L 115.546875 76.183594 L 124.702148 83.970703 L 127.751953 84.978516 L 136.907227 121.089844 L 146.0625 121.532227 L 155.217773 121.602539 L 164.373047 118.529297 L 173.525391 116.525391 L 176.578125 114.902344 L 185.733398 115.089844 L 194.888672 110.126953 L 204.041016 113.601562 L 213.196289 116.036133 L 222.351562 117.00293 L 225.404297 116.976562 " transform="matrix(1.333333,0,0,1.333333,0,0.000000000000014211)"/>
</g>
<g clip-path="url(#clip13)" clip-rule="nonzero">
<path style="fill:none;stroke-width:1.5;stroke-linecap:butt;stroke-linejoin:round;stroke:rgb(74.901962%,0%,74.901962%);stroke-opacity:1;stroke-dasharray:5.55,2.4;stroke-miterlimit:4;" d="M -0.999023 73.889648 L -0.413086 73.640625 L 8.742188 68.094727 L 17.897461 57.626953 L 27.052734 50.920898 L 30.102539 49.798828 L 39.257812 24.802734 L 48.413086 24.624023 L 57.568359 26.100586 L 66.720703 26.835937 L 75.875977 25.863281 L 78.928711 25.608398 L 88.083984 24.09375 L 97.236328 26.217773 L 106.391602 32.469727 L 115.546875 31.171875 L 124.702148 29.472656 L 127.751953 29.141602 L 136.907227 19.494141 L 146.0625 19.494141 L 155.217773 19.728516 L 164.373047 20.554687 L 173.525391 22.040039 L 176.578125 22.415039 L 185.733398 21.615234 L 194.888672 23.384766 L 204.041016 23.267578 L 213.196289 22.678711 L 222.351562 22.535156 L 225.404297 22.482422 " transform="matrix(1.333333,0,0,1.333333,0,0.000000000000014211)"/>
</g>
<g clip-path="url(#clip14)" clip-rule="nonzero">
<path style="fill:none;stroke-width:1.5;stroke-linecap:butt;stroke-linejoin:round;stroke:rgb(0%,50.196081%,0%);stroke-opacity:1;stroke-dasharray:9.6,2.4,1.5,2.4;stroke-miterlimit:4;" d="M 30.102539 27.477539 L 78.928711 23.399414 L 127.751953 34.611328 L 176.578125 23.569336 L 225.404297 19.324219 " transform="matrix(1.333333,0,0,1.333333,0,0.000000000000014211)"/>
</g>
<path style="fill:none;stroke-width:0.8;stroke-linecap:square;stroke-linejoin:miter;stroke:rgb(0%,0%,0%);stroke-opacity:1;stroke-miterlimit:4;" d="M 30.102539 146.900391 L 30.102539 10.998047 " transform="matrix(1.333333,0,0,1.333333,0,0.000000000000014211)"/>
<path style="fill:none;stroke-width:0.8;stroke-linecap:square;stroke-linejoin:miter;stroke:rgb(0%,0%,0%);stroke-opacity:1;stroke-miterlimit:4;" d="M 225.404297 146.900391 L 225.404297 10.998047 " transform="matrix(1.333333,0,0,1.333333,0,0.000000000000014211)"/>
<path style="fill:none;stroke-width:0.8;stroke-linecap:square;stroke-linejoin:miter;stroke:rgb(0%,0%,0%);stroke-opacity:1;stroke-miterlimit:4;" d="M 30.102539 146.900391 L 225.404297 146.900391 " transform="matrix(1.333333,0,0,1.333333,0,0.000000000000014211)"/>
<path style="fill:none;stroke-width:0.8;stroke-linecap:square;stroke-linejoin:miter;stroke:rgb(0%,0%,0%);stroke-opacity:1;stroke-miterlimit:4;" d="M 30.102539 10.998047 L 225.404297 10.998047 " transform="matrix(1.333333,0,0,1.333333,0,0.000000000000014211)"/>
<use xlink:href="#surface5" mask="url(#mask0)"/>
<path style="fill:none;stroke-width:1.5;stroke-linecap:square;stroke-linejoin:round;stroke:rgb(12.156863%,46.666667%,70.588237%);stroke-opacity:1;stroke-miterlimit:4;" d="M 142.634766 63.530273 L 162.635742 63.530273 " transform="matrix(1.333333,0,0,1.333333,0,0.000000000000014211)"/>
<path style=" stroke:none;fill-rule:nonzero;fill:rgb(0%,0%,0%);fill-opacity:1;" d="M 229.953125 80.011719 L 229.953125 82.082031 L 232.421875 82.082031 L 232.421875 83.011719 L 229.953125 83.011719 L 229.953125 86.972656 C 229.953125 87.566406 230.035156 87.949219 230.199219 88.117188 C 230.359375 88.289062 230.691406 88.371094 231.191406 88.371094 L 232.421875 88.371094 L 232.421875 89.375 L 231.191406 89.375 C 230.265625 89.375 229.628906 89.203125 229.277344 88.855469 C 228.925781 88.511719 228.75 87.882812 228.75 86.972656 L 228.75 83.011719 L 227.871094 83.011719 L 227.871094 82.082031 L 228.75 82.082031 L 228.75 80.011719 Z M 229.953125 80.011719 "/>
<path style=" stroke:none;fill-rule:nonzero;fill:rgb(0%,0%,0%);fill-opacity:1;" d="M 238.222656 83.199219 C 238.085938 83.125 237.941406 83.066406 237.78125 83.03125 C 237.625 82.992188 237.449219 82.972656 237.257812 82.972656 C 236.582031 82.972656 236.0625 83.195312 235.699219 83.632812 C 235.335938 84.074219 235.15625 84.707031 235.15625 85.53125 L 235.15625 89.375 L 233.949219 89.375 L 233.949219 82.082031 L 235.15625 82.082031 L 235.15625 83.214844 C 235.40625 82.773438 235.734375 82.445312 236.136719 82.230469 C 236.542969 82.015625 237.035156 81.90625 237.609375 81.90625 C 237.691406 81.90625 237.785156 81.914062 237.882812 81.925781 C 237.984375 81.933594 238.09375 81.949219 238.214844 81.972656 Z M 238.222656 83.199219 "/>
<path style=" stroke:none;fill-rule:nonzero;fill:rgb(0%,0%,0%);fill-opacity:1;" d="M 242.792969 85.710938 C 241.824219 85.710938 241.152344 85.820312 240.78125 86.039062 C 240.40625 86.261719 240.21875 86.640625 240.21875 87.175781 C 240.21875 87.597656 240.359375 87.9375 240.640625 88.1875 C 240.921875 88.433594 241.300781 88.558594 241.78125 88.558594 C 242.449219 88.558594 242.980469 88.324219 243.382812 87.851562 C 243.785156 87.382812 243.984375 86.757812 243.984375 85.976562 L 243.984375 85.710938 Z M 245.183594 85.214844 L 245.183594 89.375 L 243.984375 89.375 L 243.984375 88.269531 C 243.710938 88.710938 243.371094 89.035156 242.960938 89.246094 C 242.554688 89.457031 242.054688 89.5625 241.464844 89.5625 C 240.71875 89.5625 240.125 89.355469 239.683594 88.933594 C 239.242188 88.515625 239.023438 87.953125 239.023438 87.25 C 239.023438 86.429688 239.296875 85.8125 239.84375 85.398438 C 240.394531 84.980469 241.214844 84.773438 242.304688 84.773438 L 243.984375 84.773438 L 243.984375 84.652344 C 243.984375 84.101562 243.804688 83.675781 243.441406 83.375 C 243.078125 83.074219 242.570312 82.921875 241.914062 82.921875 C 241.496094 82.921875 241.089844 82.972656 240.695312 83.070312 C 240.300781 83.171875 239.921875 83.320312 239.558594 83.523438 L 239.558594 82.414062 C 239.996094 82.242188 240.421875 82.117188 240.832031 82.035156 C 241.246094 81.949219 241.644531 81.90625 242.035156 81.90625 C 243.09375 81.90625 243.878906 82.179688 244.402344 82.726562 C 244.921875 83.273438 245.183594 84.101562 245.183594 85.214844 Z M 245.183594 85.214844 "/>
<path style=" stroke:none;fill-rule:nonzero;fill:rgb(0%,0%,0%);fill-opacity:1;" d="M 247.648438 82.082031 L 248.847656 82.082031 L 248.847656 89.375 L 247.648438 89.375 Z M 247.648438 79.242188 L 248.847656 79.242188 L 248.847656 80.761719 L 247.648438 80.761719 Z M 247.648438 79.242188 "/>
<path style=" stroke:none;fill-rule:nonzero;fill:rgb(0%,0%,0%);fill-opacity:1;" d="M 257.414062 84.972656 L 257.414062 89.375 L 256.21875 89.375 L 256.21875 85.011719 C 256.21875 84.320312 256.082031 83.804688 255.8125 83.464844 C 255.542969 83.121094 255.140625 82.949219 254.601562 82.949219 C 253.957031 82.949219 253.445312 83.15625 253.070312 83.566406 C 252.699219 83.980469 252.511719 84.539062 252.511719 85.253906 L 252.511719 89.375 L 251.308594 89.375 L 251.308594 82.082031 L 252.511719 82.082031 L 252.511719 83.214844 C 252.800781 82.777344 253.136719 82.449219 253.523438 82.230469 C 253.914062 82.015625 254.363281 81.90625 254.871094 81.90625 C 255.707031 81.90625 256.339844 82.167969 256.769531 82.683594 C 257.199219 83.203125 257.414062 83.964844 257.414062 84.972656 Z M 257.414062 84.972656 "/>
<path style=" stroke:none;fill-rule:nonzero;fill:rgb(0%,0%,0%);fill-opacity:1;" d="M 264.042969 79.242188 L 265.238281 79.242188 L 265.238281 89.375 L 264.042969 89.375 Z M 264.042969 79.242188 "/>
<path style=" stroke:none;fill-rule:nonzero;fill:rgb(0%,0%,0%);fill-opacity:1;" d="M 270.570312 82.921875 C 269.929688 82.921875 269.421875 83.171875 269.046875 83.675781 C 268.675781 84.175781 268.488281 84.863281 268.488281 85.734375 C 268.488281 86.605469 268.671875 87.292969 269.042969 87.792969 C 269.417969 88.296875 269.925781 88.546875 270.570312 88.546875 C 271.210938 88.546875 271.714844 88.296875 272.089844 87.792969 C 272.460938 87.289062 272.648438 86.601562 272.648438 85.734375 C 272.648438 84.871094 272.460938 84.1875 272.089844 83.679688 C 271.714844 83.175781 271.210938 82.921875 270.570312 82.921875 Z M 270.570312 81.90625 C 271.613281 81.90625 272.429688 82.246094 273.027344 82.925781 C 273.621094 83.601562 273.917969 84.539062 273.917969 85.734375 C 273.917969 86.925781 273.621094 87.863281 273.027344 88.542969 C 272.429688 89.222656 271.613281 89.5625 270.570312 89.5625 C 269.527344 89.5625 268.707031 89.222656 268.113281 88.542969 C 267.523438 87.863281 267.226562 86.925781 267.226562 85.734375 C 267.226562 84.539062 267.523438 83.601562 268.113281 82.925781 C 268.707031 82.246094 269.527344 81.90625 270.570312 81.90625 Z M 270.570312 81.90625 "/>
<path style=" stroke:none;fill-rule:nonzero;fill:rgb(0%,0%,0%);fill-opacity:1;" d="M 280.550781 82.296875 L 280.550781 83.429688 C 280.214844 83.257812 279.863281 83.125 279.496094 83.039062 C 279.132812 82.953125 278.757812 82.910156 278.363281 82.910156 C 277.769531 82.910156 277.324219 83 277.027344 83.183594 C 276.730469 83.363281 276.582031 83.636719 276.582031 84.003906 C 276.582031 84.28125 276.6875 84.5 276.898438 84.65625 C 277.113281 84.816406 277.539062 84.964844 278.183594 85.109375 L 278.59375 85.199219 C 279.445312 85.382812 280.046875 85.640625 280.40625 85.972656 C 280.765625 86.304688 280.945312 86.765625 280.945312 87.363281 C 280.945312 88.039062 280.675781 88.574219 280.140625 88.972656 C 279.601562 89.367188 278.867188 89.5625 277.929688 89.5625 C 277.539062 89.5625 277.132812 89.523438 276.707031 89.449219 C 276.285156 89.371094 275.839844 89.257812 275.371094 89.105469 L 275.371094 87.871094 C 275.8125 88.101562 276.25 88.273438 276.679688 88.386719 C 277.109375 88.503906 277.535156 88.558594 277.957031 88.558594 C 278.519531 88.558594 278.953125 88.460938 279.257812 88.269531 C 279.558594 88.078125 279.710938 87.804688 279.710938 87.453125 C 279.710938 87.128906 279.601562 86.878906 279.382812 86.707031 C 279.164062 86.53125 278.683594 86.363281 277.941406 86.203125 L 277.523438 86.105469 C 276.785156 85.949219 276.246094 85.710938 275.917969 85.386719 C 275.585938 85.0625 275.421875 84.617188 275.421875 84.054688 C 275.421875 83.367188 275.664062 82.839844 276.152344 82.46875 C 276.636719 82.09375 277.328125 81.90625 278.222656 81.90625 C 278.664062 81.90625 279.082031 81.941406 279.472656 82.003906 C 279.863281 82.070312 280.222656 82.167969 280.550781 82.296875 Z M 280.550781 82.296875 "/>
<path style=" stroke:none;fill-rule:nonzero;fill:rgb(0%,0%,0%);fill-opacity:1;" d="M 287.5 82.296875 L 287.5 83.429688 C 287.160156 83.257812 286.808594 83.125 286.445312 83.039062 C 286.082031 82.953125 285.703125 82.910156 285.3125 82.910156 C 284.714844 82.910156 284.269531 83 283.972656 83.183594 C 283.675781 83.363281 283.527344 83.636719 283.527344 84.003906 C 283.527344 84.28125 283.632812 84.5 283.847656 84.65625 C 284.058594 84.816406 284.488281 84.964844 285.128906 85.109375 L 285.539062 85.199219 C 286.390625 85.382812 286.996094 85.640625 287.351562 85.972656 C 287.710938 86.304688 287.890625 86.765625 287.890625 87.363281 C 287.890625 88.039062 287.621094 88.574219 287.085938 88.972656 C 286.550781 89.367188 285.8125 89.5625 284.875 89.5625 C 284.484375 89.5625 284.078125 89.523438 283.65625 89.449219 C 283.230469 89.371094 282.785156 89.257812 282.316406 89.105469 L 282.316406 87.871094 C 282.761719 88.101562 283.195312 88.273438 283.625 88.386719 C 284.054688 88.503906 284.480469 88.558594 284.902344 88.558594 C 285.464844 88.558594 285.898438 88.460938 286.203125 88.269531 C 286.507812 88.078125 286.660156 87.804688 286.660156 87.453125 C 286.660156 87.128906 286.550781 86.878906 286.328125 86.707031 C 286.113281 86.53125 285.632812 86.363281 284.886719 86.203125 L 284.472656 86.105469 C 283.730469 85.949219 283.195312 85.710938 282.863281 85.386719 C 282.535156 85.0625 282.371094 84.617188 282.371094 84.054688 C 282.371094 83.367188 282.613281 82.839844 283.097656 82.46875 C 283.585938 82.09375 284.273438 81.90625 285.167969 81.90625 C 285.609375 81.90625 286.027344 81.941406 286.417969 82.003906 C 286.808594 82.070312 287.167969 82.167969 287.5 82.296875 Z M 287.5 82.296875 "/>
<path style="fill:none;stroke-width:1.5;stroke-linecap:butt;stroke-linejoin:round;stroke:rgb(74.901962%,0%,74.901962%);stroke-opacity:1;stroke-dasharray:5.55,2.4;stroke-miterlimit:4;" d="M 142.634766 78.208008 L 162.635742 78.208008 " transform="matrix(1.333333,0,0,1.333333,0,0.000000000000014211)"/>
<path style=" stroke:none;fill-rule:nonzero;fill:rgb(0%,0%,0%);fill-opacity:1;" d="M 229.953125 99.582031 L 229.953125 101.652344 L 232.421875 101.652344 L 232.421875 102.585938 L 229.953125 102.585938 L 229.953125 106.542969 C 229.953125 107.136719 230.035156 107.519531 230.199219 107.6875 C 230.359375 107.859375 230.691406 107.941406 231.191406 107.941406 L 232.421875 107.941406 L 232.421875 108.945312 L 231.191406 108.945312 C 230.265625 108.945312 229.628906 108.773438 229.277344 108.429688 C 228.925781 108.082031 228.75 107.453125 228.75 106.542969 L 228.75 102.585938 L 227.871094 102.585938 L 227.871094 101.652344 L 228.75 101.652344 L 228.75 99.582031 Z M 229.953125 99.582031 "/>
<path style=" stroke:none;fill-rule:nonzero;fill:rgb(0%,0%,0%);fill-opacity:1;" d="M 238.222656 102.773438 C 238.085938 102.695312 237.941406 102.636719 237.78125 102.601562 C 237.625 102.5625 237.449219 102.542969 237.257812 102.542969 C 236.582031 102.542969 236.0625 102.765625 235.699219 103.207031 C 235.335938 103.644531 235.15625 104.277344 235.15625 105.101562 L 235.15625 108.945312 L 233.949219 108.945312 L 233.949219 101.652344 L 235.15625 101.652344 L 235.15625 102.785156 C 235.40625 102.34375 235.734375 102.015625 236.136719 101.800781 C 236.542969 101.585938 237.035156 101.476562 237.609375 101.476562 C 237.691406 101.476562 237.785156 101.484375 237.882812 101.496094 C 237.984375 101.503906 238.09375 101.519531 238.214844 101.542969 Z M 238.222656 102.773438 "/>
<path style=" stroke:none;fill-rule:nonzero;fill:rgb(0%,0%,0%);fill-opacity:1;" d="M 242.792969 105.28125 C 241.824219 105.28125 241.152344 105.390625 240.78125 105.613281 C 240.40625 105.832031 240.21875 106.210938 240.21875 106.746094 C 240.21875 107.167969 240.359375 107.507812 240.640625 107.757812 C 240.921875 108.007812 241.300781 108.128906 241.78125 108.128906 C 242.449219 108.128906 242.980469 107.894531 243.382812 107.425781 C 243.785156 106.953125 243.984375 106.328125 243.984375 105.546875 L 243.984375 105.28125 Z M 245.183594 104.785156 L 245.183594 108.945312 L 243.984375 108.945312 L 243.984375 107.839844 C 243.710938 108.28125 243.371094 108.605469 242.960938 108.816406 C 242.554688 109.027344 242.054688 109.132812 241.464844 109.132812 C 240.71875 109.132812 240.125 108.925781 239.683594 108.503906 C 239.242188 108.085938 239.023438 107.523438 239.023438 106.820312 C 239.023438 106.003906 239.296875 105.382812 239.84375 104.96875 C 240.394531 104.550781 241.214844 104.34375 242.304688 104.34375 L 243.984375 104.34375 L 243.984375 104.222656 C 243.984375 103.671875 243.804688 103.246094 243.441406 102.945312 C 243.078125 102.644531 242.570312 102.492188 241.914062 102.492188 C 241.496094 102.492188 241.089844 102.542969 240.695312 102.644531 C 240.300781 102.742188 239.921875 102.894531 239.558594 103.09375 L 239.558594 101.984375 C 239.996094 101.816406 240.421875 101.6875 240.832031 101.605469 C 241.246094 101.519531 241.644531 101.476562 242.035156 101.476562 C 243.09375 101.476562 243.878906 101.75 244.402344 102.300781 C 244.921875 102.84375 245.183594 103.671875 245.183594 104.785156 Z M 245.183594 104.785156 "/>
<path style=" stroke:none;fill-rule:nonzero;fill:rgb(0%,0%,0%);fill-opacity:1;" d="M 247.648438 101.652344 L 248.847656 101.652344 L 248.847656 108.945312 L 247.648438 108.945312 Z M 247.648438 98.8125 L 248.847656 98.8125 L 248.847656 100.332031 L 247.648438 100.332031 Z M 247.648438 98.8125 "/>
<path style=" stroke:none;fill-rule:nonzero;fill:rgb(0%,0%,0%);fill-opacity:1;" d="M 257.414062 104.542969 L 257.414062 108.945312 L 256.21875 108.945312 L 256.21875 104.582031 C 256.21875 103.890625 256.082031 103.375 255.8125 103.035156 C 255.542969 102.691406 255.140625 102.519531 254.601562 102.519531 C 253.957031 102.519531 253.445312 102.726562 253.070312 103.136719 C 252.699219 103.550781 252.511719 104.113281 252.511719 104.824219 L 252.511719 108.945312 L 251.308594 108.945312 L 251.308594 101.652344 L 252.511719 101.652344 L 252.511719 102.785156 C 252.800781 102.347656 253.136719 102.019531 253.523438 101.804688 C 253.914062 101.585938 254.363281 101.476562 254.871094 101.476562 C 255.707031 101.476562 256.339844 101.738281 256.769531 102.253906 C 257.199219 102.773438 257.414062 103.535156 257.414062 104.542969 Z M 257.414062 104.542969 "/>
<path style=" stroke:none;fill-rule:nonzero;fill:rgb(0%,0%,0%);fill-opacity:1;" d="M 267.355469 105.28125 C 266.390625 105.28125 265.71875 105.390625 265.34375 105.613281 C 264.96875 105.832031 264.785156 106.210938 264.785156 106.746094 C 264.785156 107.167969 264.925781 107.507812 265.203125 107.757812 C 265.484375 108.007812 265.867188 108.128906 266.347656 108.128906 C 267.011719 108.128906 267.546875 107.894531 267.945312 107.425781 C 268.347656 106.953125 268.546875 106.328125 268.546875 105.546875 L 268.546875 105.28125 Z M 269.746094 104.785156 L 269.746094 108.945312 L 268.546875 108.945312 L 268.546875 107.839844 C 268.273438 108.28125 267.933594 108.605469 267.527344 108.816406 C 267.117188 109.027344 266.617188 109.132812 266.027344 109.132812 C 265.28125 109.132812 264.6875 108.925781 264.246094 108.503906 C 263.804688 108.085938 263.585938 107.523438 263.585938 106.820312 C 263.585938 106.003906 263.859375 105.382812 264.410156 104.96875 C 264.957031 104.550781 265.777344 104.34375 266.867188 104.34375 L 268.546875 104.34375 L 268.546875 104.222656 C 268.546875 103.671875 268.367188 103.246094 268.003906 102.945312 C 267.640625 102.644531 267.132812 102.492188 266.476562 102.492188 C 266.0625 102.492188 265.65625 102.542969 265.257812 102.644531 C 264.863281 102.742188 264.484375 102.894531 264.121094 103.09375 L 264.121094 101.984375 C 264.558594 101.816406 264.984375 101.6875 265.394531 101.605469 C 265.808594 101.519531 266.210938 101.476562 266.601562 101.476562 C 267.65625 101.476562 268.445312 101.75 268.964844 102.300781 C 269.484375 102.84375 269.746094 103.671875 269.746094 104.785156 Z M 269.746094 104.785156 "/>
<path style=" stroke:none;fill-rule:nonzero;fill:rgb(0%,0%,0%);fill-opacity:1;" d="M 277.460938 101.933594 L 277.460938 103.054688 C 277.121094 102.867188 276.78125 102.726562 276.441406 102.632812 C 276.101562 102.539062 275.757812 102.492188 275.410156 102.492188 C 274.632812 102.492188 274.027344 102.738281 273.597656 103.230469 C 273.167969 103.722656 272.953125 104.414062 272.953125 105.304688 C 272.953125 106.195312 273.167969 106.886719 273.597656 107.378906 C 274.027344 107.871094 274.632812 108.117188 275.410156 108.117188 C 275.757812 108.117188 276.101562 108.070312 276.441406 107.976562 C 276.78125 107.886719 277.121094 107.746094 277.460938 107.558594 L 277.460938 108.664062 C 277.125 108.820312 276.78125 108.9375 276.421875 109.015625 C 276.0625 109.09375 275.683594 109.132812 275.28125 109.132812 C 274.179688 109.132812 273.308594 108.789062 272.660156 108.097656 C 272.015625 107.410156 271.691406 106.476562 271.691406 105.304688 C 271.691406 104.117188 272.019531 103.179688 272.671875 102.5 C 273.324219 101.820312 274.222656 101.476562 275.359375 101.476562 C 275.726562 101.476562 276.085938 101.515625 276.4375 101.59375 C 276.789062 101.667969 277.128906 101.78125 277.460938 101.933594 Z M 277.460938 101.933594 "/>
<path style=" stroke:none;fill-rule:nonzero;fill:rgb(0%,0%,0%);fill-opacity:1;" d="M 284.792969 101.933594 L 284.792969 103.054688 C 284.453125 102.867188 284.113281 102.726562 283.773438 102.632812 C 283.433594 102.539062 283.089844 102.492188 282.742188 102.492188 C 281.964844 102.492188 281.359375 102.738281 280.929688 103.230469 C 280.5 103.722656 280.285156 104.414062 280.285156 105.304688 C 280.285156 106.195312 280.5 106.886719 280.929688 107.378906 C 281.359375 107.871094 281.964844 108.117188 282.742188 108.117188 C 283.089844 108.117188 283.433594 108.070312 283.773438 107.976562 C 284.113281 107.886719 284.453125 107.746094 284.792969 107.558594 L 284.792969 108.664062 C 284.457031 108.820312 284.109375 108.9375 283.75 109.015625 C 283.394531 109.09375 283.015625 109.132812 282.609375 109.132812 C 281.511719 109.132812 280.636719 108.789062 279.992188 108.097656 C 279.34375 107.410156 279.023438 106.476562 279.023438 105.304688 C 279.023438 104.117188 279.347656 103.179688 280 102.5 C 280.65625 101.820312 281.550781 101.476562 282.6875 101.476562 C 283.058594 101.476562 283.417969 101.515625 283.769531 101.59375 C 284.121094 101.667969 284.460938 101.78125 284.792969 101.933594 Z M 284.792969 101.933594 "/>
<path style="fill:none;stroke-width:1.5;stroke-linecap:butt;stroke-linejoin:round;stroke:rgb(0%,50.196081%,0%);stroke-opacity:1;stroke-dasharray:9.6,2.4,1.5,2.4;stroke-miterlimit:4;" d="M 142.634766 92.885742 L 162.635742 92.885742 " transform="matrix(1.333333,0,0,1.333333,0,0.000000000000014211)"/>
<path style=" stroke:none;fill-rule:nonzero;fill:rgb(0%,0%,0%);fill-opacity:1;" d="M 229.953125 119.152344 L 229.953125 121.222656 L 232.421875 121.222656 L 232.421875 122.15625 L 229.953125 122.15625 L 229.953125 126.113281 C 229.953125 126.707031 230.035156 127.089844 230.199219 127.257812 C 230.359375 127.429688 230.691406 127.511719 231.191406 127.511719 L 232.421875 127.511719 L 232.421875 128.515625 L 231.191406 128.515625 C 230.265625 128.515625 229.628906 128.34375 229.277344 128 C 228.925781 127.652344 228.75 127.023438 228.75 126.113281 L 228.75 122.15625 L 227.871094 122.15625 L 227.871094 121.222656 L 228.75 121.222656 L 228.75 119.152344 Z M 229.953125 119.152344 "/>
<path style=" stroke:none;fill-rule:nonzero;fill:rgb(0%,0%,0%);fill-opacity:1;" d="M 240.234375 124.570312 L 240.234375 125.15625 L 234.726562 125.15625 C 234.777344 125.980469 235.027344 126.609375 235.472656 127.039062 C 235.917969 127.472656 236.535156 127.6875 237.328125 127.6875 C 237.789062 127.6875 238.234375 127.632812 238.667969 127.519531 C 239.097656 127.40625 239.527344 127.238281 239.953125 127.011719 L 239.953125 128.144531 C 239.523438 128.328125 239.082031 128.464844 238.632812 128.5625 C 238.179688 128.65625 237.722656 128.707031 237.257812 128.707031 C 236.09375 128.707031 235.171875 128.367188 234.496094 127.691406 C 233.816406 127.011719 233.476562 126.097656 233.476562 124.941406 C 233.476562 123.746094 233.796875 122.800781 234.441406 122.101562 C 235.085938 121.398438 235.957031 121.050781 237.050781 121.050781 C 238.03125 121.050781 238.808594 121.363281 239.378906 121.996094 C 239.949219 122.628906 240.234375 123.484375 240.234375 124.570312 Z M 239.035156 124.21875 C 239.027344 123.5625 238.84375 123.042969 238.484375 122.652344 C 238.128906 122.257812 237.652344 122.0625 237.0625 122.0625 C 236.394531 122.0625 235.859375 122.253906 235.460938 122.628906 C 235.058594 123.007812 234.828125 123.539062 234.765625 124.226562 Z M 239.035156 124.21875 "/>
<path style=" stroke:none;fill-rule:nonzero;fill:rgb(0%,0%,0%);fill-opacity:1;" d="M 246.847656 121.4375 L 246.847656 122.570312 C 246.511719 122.398438 246.160156 122.269531 245.792969 122.183594 C 245.429688 122.09375 245.050781 122.050781 244.660156 122.050781 C 244.066406 122.050781 243.621094 122.140625 243.324219 122.324219 C 243.027344 122.507812 242.875 122.78125 242.875 123.144531 C 242.875 123.421875 242.984375 123.640625 243.195312 123.800781 C 243.40625 123.957031 243.835938 124.109375 244.480469 124.25 L 244.890625 124.34375 C 245.738281 124.523438 246.34375 124.78125 246.703125 125.113281 C 247.058594 125.445312 247.238281 125.910156 247.238281 126.503906 C 247.238281 127.179688 246.972656 127.71875 246.433594 128.113281 C 245.898438 128.507812 245.164062 128.707031 244.226562 128.707031 C 243.835938 128.707031 243.425781 128.667969 243.003906 128.589844 C 242.582031 128.515625 242.132812 128.398438 241.667969 128.25 L 241.667969 127.011719 C 242.109375 127.242188 242.546875 127.414062 242.976562 127.53125 C 243.402344 127.644531 243.828125 127.699219 244.25 127.699219 C 244.816406 127.699219 245.25 127.605469 245.550781 127.410156 C 245.855469 127.21875 246.007812 126.945312 246.007812 126.59375 C 246.007812 126.269531 245.898438 126.019531 245.679688 125.847656 C 245.460938 125.671875 244.980469 125.507812 244.238281 125.34375 L 243.820312 125.246094 C 243.078125 125.089844 242.542969 124.851562 242.210938 124.527344 C 241.882812 124.203125 241.71875 123.761719 241.71875 123.195312 C 241.71875 122.511719 241.960938 121.980469 242.449219 121.609375 C 242.933594 121.234375 243.625 121.050781 244.519531 121.050781 C 244.960938 121.050781 245.375 121.082031 245.765625 121.148438 C 246.15625 121.210938 246.519531 121.308594 246.847656 121.4375 Z M 246.847656 121.4375 "/>
<path style=" stroke:none;fill-rule:nonzero;fill:rgb(0%,0%,0%);fill-opacity:1;" d="M 250.332031 119.152344 L 250.332031 121.222656 L 252.796875 121.222656 L 252.796875 122.15625 L 250.332031 122.15625 L 250.332031 126.113281 C 250.332031 126.707031 250.414062 127.089844 250.574219 127.257812 C 250.738281 127.429688 251.070312 127.511719 251.570312 127.511719 L 252.796875 127.511719 L 252.796875 128.515625 L 251.570312 128.515625 C 250.644531 128.515625 250.007812 128.34375 249.65625 128 C 249.304688 127.652344 249.128906 127.023438 249.128906 126.113281 L 249.128906 122.15625 L 248.25 122.15625 L 248.25 121.222656 L 249.128906 121.222656 L 249.128906 119.152344 Z M 250.332031 119.152344 "/>
<path style=" stroke:none;fill-rule:nonzero;fill:rgb(0%,0%,0%);fill-opacity:1;" d="M 261.925781 124.851562 C 260.960938 124.851562 260.289062 124.960938 259.914062 125.183594 C 259.539062 125.402344 259.355469 125.78125 259.355469 126.316406 C 259.355469 126.742188 259.496094 127.078125 259.773438 127.328125 C 260.054688 127.578125 260.4375 127.699219 260.917969 127.699219 C 261.582031 127.699219 262.117188 127.464844 262.515625 126.996094 C 262.917969 126.523438 263.117188 125.898438 263.117188 125.117188 L 263.117188 124.851562 Z M 264.316406 124.355469 L 264.316406 128.515625 L 263.117188 128.515625 L 263.117188 127.410156 C 262.84375 127.851562 262.503906 128.175781 262.097656 128.386719 C 261.6875 128.601562 261.1875 128.707031 260.597656 128.707031 C 259.851562 128.707031 259.257812 128.496094 258.816406 128.074219 C 258.375 127.65625 258.15625 127.09375 258.15625 126.394531 C 258.15625 125.574219 258.429688 124.957031 258.980469 124.539062 C 259.527344 124.121094 260.347656 123.914062 261.4375 123.914062 L 263.117188 123.914062 L 263.117188 123.792969 C 263.117188 123.242188 262.9375 122.816406 262.574219 122.515625 C 262.210938 122.214844 261.703125 122.0625 261.046875 122.0625 C 260.632812 122.0625 260.226562 122.113281 259.828125 122.214844 C 259.433594 122.3125 259.054688 122.464844 258.691406 122.664062 L 258.691406 121.554688 C 259.128906 121.386719 259.554688 121.257812 259.964844 121.175781 C 260.378906 121.089844 260.78125 121.050781 261.171875 121.050781 C 262.226562 121.050781 263.015625 121.324219 263.535156 121.871094 C 264.054688 122.414062 264.316406 123.242188 264.316406 124.355469 Z M 264.316406 124.355469 "/>
<path style=" stroke:none;fill-rule:nonzero;fill:rgb(0%,0%,0%);fill-opacity:1;" d="M 272.03125 121.503906 L 272.03125 122.625 C 271.691406 122.4375 271.351562 122.296875 271.011719 122.203125 C 270.671875 122.109375 270.328125 122.0625 269.980469 122.0625 C 269.203125 122.0625 268.597656 122.308594 268.167969 122.804688 C 267.738281 123.292969 267.523438 123.984375 267.523438 124.875 C 267.523438 125.765625 267.738281 126.457031 268.167969 126.949219 C 268.597656 127.441406 269.203125 127.6875 269.980469 127.6875 C 270.328125 127.6875 270.671875 127.640625 271.011719 127.550781 C 271.351562 127.457031 271.691406 127.316406 272.03125 127.128906 L 272.03125 128.238281 C 271.695312 128.390625 271.351562 128.507812 270.992188 128.585938 C 270.632812 128.664062 270.253906 128.707031 269.851562 128.707031 C 268.75 128.707031 267.878906 128.359375 267.230469 127.667969 C 266.585938 126.980469 266.261719 126.046875 266.261719 124.875 C 266.261719 123.6875 266.589844 122.753906 267.242188 122.070312 C 267.894531 121.390625 268.792969 121.050781 269.929688 121.050781 C 270.296875 121.050781 270.65625 121.085938 271.007812 121.164062 C 271.359375 121.238281 271.699219 121.351562 272.03125 121.503906 Z M 272.03125 121.503906 "/>
<path style=" stroke:none;fill-rule:nonzero;fill:rgb(0%,0%,0%);fill-opacity:1;" d="M 279.363281 121.503906 L 279.363281 122.625 C 279.023438 122.4375 278.683594 122.296875 278.34375 122.203125 C 278.003906 122.109375 277.660156 122.0625 277.3125 122.0625 C 276.535156 122.0625 275.929688 122.308594 275.5 122.804688 C 275.070312 123.292969 274.855469 123.984375 274.855469 124.875 C 274.855469 125.765625 275.070312 126.457031 275.5 126.949219 C 275.929688 127.441406 276.535156 127.6875 277.3125 127.6875 C 277.660156 127.6875 278.003906 127.640625 278.34375 127.550781 C 278.683594 127.457031 279.023438 127.316406 279.363281 127.128906 L 279.363281 128.238281 C 279.027344 128.390625 278.679688 128.507812 278.320312 128.585938 C 277.964844 128.664062 277.585938 128.707031 277.179688 128.707031 C 276.082031 128.707031 275.207031 128.359375 274.5625 127.667969 C 273.914062 126.980469 273.59375 126.046875 273.59375 124.875 C 273.59375 123.6875 273.917969 122.753906 274.570312 122.070312 C 275.226562 121.390625 276.121094 121.050781 277.257812 121.050781 C 277.628906 121.050781 277.988281 121.085938 278.339844 121.164062 C 278.691406 121.238281 279.03125 121.351562 279.363281 121.503906 Z M 279.363281 121.503906 "/>
</g>
</svg>
