<?xml version="1.0" encoding="UTF-8"?>
<svg xmlns="http://www.w3.org/2000/svg" xmlns:xlink="http://www.w3.org/1999/xlink" width="318.620829" height="240.875" viewBox="0 0 318.620829 240.875" version="1.1">
<defs>
<clipPath id="clip1">
  <path d="M 94 9.601562 L 96 9.601562 L 96 190.800781 L 94 190.800781 Z M 94 9.601562 "/>
</clipPath>
<clipPath id="clip2">
  <path d="M 162 9.601562 L 165 9.601562 L 165 190.800781 L 162 190.800781 Z M 162 9.601562 "/>
</clipPath>
<clipPath id="clip3">
  <path d="M 231 9.601562 L 233 9.601562 L 233 190.800781 L 231 190.800781 Z M 231 9.601562 "/>
</clipPath>
<clipPath id="clip4">
  <path d="M 299 9.601562 L 300.539062 9.601562 L 300.539062 190.800781 L 299 190.800781 Z M 299 9.601562 "/>
</clipPath>
<clipPath id="clip5">
  <path d="M 40.136719 155 L 300.539062 155 L 300.539062 158 L 40.136719 158 Z M 40.136719 155 "/>
</clipPath>
<clipPath id="clip6">
  <path d="M 40.136719 118 L 300.539062 118 L 300.539062 121 L 40.136719 121 Z M 40.136719 118 "/>
</clipPath>
<clipPath id="clip7">
  <path d="M 40.136719 81 L 300.539062 81 L 300.539062 83 L 40.136719 83 Z M 40.136719 81 "/>
</clipPath>
<clipPath id="clip8">
  <path d="M 40.136719 44 L 300.539062 44 L 300.539062 46 L 40.136719 46 Z M 40.136719 44 "/>
</clipPath>
<clipPath id="clip9">
  <path d="M 40.136719 16 L 300.539062 16 L 300.539062 152 L 40.136719 152 Z M 40.136719 16 "/>
</clipPath>
<clipPath id="clip10">
  <path d="M 40.136719 131 L 300.539062 131 L 300.539062 184 L 40.136719 184 Z M 40.136719 131 "/>
</clipPath>
<clipPath id="clip11">
  <path d="M 40.136719 156 L 300.539062 156 L 300.539062 179 L 40.136719 179 Z M 40.136719 156 "/>
</clipPath>
<filter id="alpha" filterUnits="objectBoundingBox" x="0%" y="0%" width="100%" height="100%">
  <feColorMatrix type="matrix" in="SourceGraphic" values="0 0 0 0 1 0 0 0 0 1 0 0 0 0 1 0 0 0 1 0"/>
</filter>
<mask id="mask0">
  <g filter="url(#alpha)">
<rect x="0" y="0" width="318.620829" height="240.875" style="fill:rgb(0%,0%,0%);fill-opacity:0.8;stroke:none;"/>
  </g>
</mask>
<clipPath id="clip12">
  <rect x="0" y="0" width="319" height="241"/>
</clipPath>
<g id="surface5" clip-path="url(#clip12)">
<path style="fill-rule:nonzero;fill:rgb(100%,100%,100%);fill-opacity:1;stroke-width:1;stroke-linecap:butt;stroke-linejoin:miter;stroke:rgb(80.000001%,80.000001%,80.000001%);stroke-opacity:1;stroke-miterlimit:4;" d="M 140.633789 59.235352 L 218.402344 59.235352 C 219.735352 59.235352 220.40332 58.567383 220.40332 57.234375 L 220.40332 14.200195 C 220.40332 12.867188 219.735352 12.199219 218.402344 12.199219 L 140.633789 12.199219 C 139.300781 12.199219 138.635742 12.867188 138.635742 14.200195 L 138.635742 57.234375 C 138.635742 58.567383 139.300781 59.235352 140.633789 59.235352 Z M 140.633789 59.235352 " transform="matrix(1.333333,0,0,1.333333,0.000000000000028422,0)"/>
</g>
</defs>
<g id="surface1">
<path style=" stroke:none;fill-rule:nonzero;fill:rgb(100%,100%,100%);fill-opacity:1;" d="M 40.136719 190.800781 L 300.539062 190.800781 L 300.539062 9.601562 L 40.136719 9.601562 Z M 40.136719 190.800781 "/>
<g clip-path="url(#clip1)" clip-rule="nonzero">
<path style="fill:none;stroke-width:0.8;stroke-linecap:square;stroke-linejoin:round;stroke:rgb(69.01961%,69.01961%,69.01961%);stroke-opacity:1;stroke-miterlimit:4;" d="M 71.217773 143.100586 L 71.217773 7.201172 " transform="matrix(1.333333,0,0,1.333333,0.000000000000028422,0)"/>
</g>
<path style="fill:none;stroke-width:0.8;stroke-linecap:butt;stroke-linejoin:round;stroke:rgb(0%,0%,0%);stroke-opacity:1;stroke-miterlimit:4;" d="M -0.00113678 0.000579834 L -0.00113678 3.498627 " transform="matrix(1.333333,0,0,1.333333,94.958547,190.800008)"/>
<path style=" stroke:none;fill-rule:nonzero;fill:rgb(0%,0%,0%);fill-opacity:1;" d="M 92.15625 200.542969 L 97.320312 200.542969 L 97.320312 201.652344 L 93.359375 201.652344 L 93.359375 204.035156 C 93.550781 203.96875 93.742188 203.917969 93.929688 203.886719 C 94.125 203.855469 94.316406 203.839844 94.507812 203.839844 C 95.589844 203.839844 96.449219 204.136719 97.082031 204.730469 C 97.71875 205.324219 98.035156 206.128906 98.035156 207.144531 C 98.035156 208.191406 97.710938 209.003906 97.058594 209.585938 C 96.40625 210.164062 95.488281 210.453125 94.304688 210.453125 C 93.894531 210.453125 93.480469 210.417969 93.054688 210.351562 C 92.632812 210.28125 92.199219 210.175781 91.746094 210.039062 L 91.746094 208.714844 C 92.136719 208.925781 92.539062 209.085938 92.957031 209.191406 C 93.375 209.292969 93.8125 209.347656 94.277344 209.347656 C 95.027344 209.347656 95.625 209.148438 96.0625 208.753906 C 96.5 208.359375 96.71875 207.824219 96.71875 207.144531 C 96.71875 206.46875 96.5 205.933594 96.0625 205.539062 C 95.625 205.144531 95.027344 204.945312 94.277344 204.945312 C 93.925781 204.945312 93.574219 204.984375 93.226562 205.0625 C 92.875 205.140625 92.519531 205.261719 92.15625 205.425781 Z M 92.15625 200.542969 "/>
<g clip-path="url(#clip2)" clip-rule="nonzero">
<path style="fill:none;stroke-width:0.8;stroke-linecap:square;stroke-linejoin:round;stroke:rgb(69.01961%,69.01961%,69.01961%);stroke-opacity:1;stroke-miterlimit:4;" d="M 122.613281 143.100586 L 122.613281 7.201172 " transform="matrix(1.333333,0,0,1.333333,0.000000000000028422,0)"/>
</g>
<path style="fill:none;stroke-width:0.8;stroke-linecap:butt;stroke-linejoin:round;stroke:rgb(0%,0%,0%);stroke-opacity:1;stroke-miterlimit:4;" d="M -0.000366211 0.000579834 L -0.000366211 3.498627 " transform="matrix(1.333333,0,0,1.333333,163.484863,190.800008)"/>
<path style=" stroke:none;fill-rule:nonzero;fill:rgb(0%,0%,0%);fill-opacity:1;" d="M 156.65625 209.160156 L 158.804688 209.160156 L 158.804688 201.742188 L 156.464844 202.210938 L 156.464844 201.011719 L 158.792969 200.542969 L 160.105469 200.542969 L 160.105469 209.160156 L 162.253906 209.160156 L 162.253906 210.265625 L 156.65625 210.265625 Z M 156.65625 209.160156 "/>
<path style=" stroke:none;fill-rule:nonzero;fill:rgb(0%,0%,0%);fill-opacity:1;" d="M 167.722656 201.410156 C 167.046875 201.410156 166.535156 201.742188 166.195312 202.410156 C 165.855469 203.074219 165.683594 204.078125 165.683594 205.414062 C 165.683594 206.746094 165.855469 207.746094 166.195312 208.414062 C 166.535156 209.078125 167.046875 209.414062 167.722656 209.414062 C 168.402344 209.414062 168.914062 209.078125 169.253906 208.414062 C 169.597656 207.746094 169.769531 206.746094 169.769531 205.414062 C 169.769531 204.078125 169.597656 203.074219 169.253906 202.410156 C 168.914062 201.742188 168.402344 201.410156 167.722656 201.410156 Z M 167.722656 200.367188 C 168.8125 200.367188 169.644531 200.800781 170.21875 201.664062 C 170.796875 202.523438 171.082031 203.773438 171.082031 205.414062 C 171.082031 207.050781 170.796875 208.300781 170.21875 209.164062 C 169.644531 210.023438 168.8125 210.453125 167.722656 210.453125 C 166.632812 210.453125 165.800781 210.023438 165.226562 209.164062 C 164.652344 208.300781 164.363281 207.050781 164.363281 205.414062 C 164.363281 203.773438 164.652344 202.523438 165.226562 201.664062 C 165.800781 200.800781 166.632812 200.367188 167.722656 200.367188 Z M 167.722656 200.367188 "/>
<g clip-path="url(#clip3)" clip-rule="nonzero">
<path style="fill:none;stroke-width:0.8;stroke-linecap:square;stroke-linejoin:round;stroke:rgb(69.01961%,69.01961%,69.01961%);stroke-opacity:1;stroke-miterlimit:4;" d="M 174.008789 143.100586 L 174.008789 7.201172 " transform="matrix(1.333333,0,0,1.333333,0.000000000000028422,0)"/>
</g>
<path style="fill:none;stroke-width:0.8;stroke-linecap:butt;stroke-linejoin:round;stroke:rgb(0%,0%,0%);stroke-opacity:1;stroke-miterlimit:4;" d="M 0.000396729 0.000579834 L 0.000396729 3.498627 " transform="matrix(1.333333,0,0,1.333333,232.01119,190.800008)"/>
<path style=" stroke:none;fill-rule:nonzero;fill:rgb(0%,0%,0%);fill-opacity:1;" d="M 225.183594 209.160156 L 227.328125 209.160156 L 227.328125 201.742188 L 224.992188 202.210938 L 224.992188 201.011719 L 227.316406 200.542969 L 228.632812 200.542969 L 228.632812 209.160156 L 230.78125 209.160156 L 230.78125 210.265625 L 225.183594 210.265625 Z M 225.183594 209.160156 "/>
<path style=" stroke:none;fill-rule:nonzero;fill:rgb(0%,0%,0%);fill-opacity:1;" d="M 233.449219 200.542969 L 238.613281 200.542969 L 238.613281 201.652344 L 234.65625 201.652344 L 234.65625 204.035156 C 234.84375 203.96875 235.035156 203.917969 235.226562 203.886719 C 235.417969 203.855469 235.609375 203.839844 235.800781 203.839844 C 236.886719 203.839844 237.746094 204.136719 238.378906 204.730469 C 239.011719 205.324219 239.328125 206.128906 239.328125 207.144531 C 239.328125 208.191406 239.003906 209.003906 238.351562 209.585938 C 237.703125 210.164062 236.78125 210.453125 235.597656 210.453125 C 235.191406 210.453125 234.773438 210.417969 234.351562 210.351562 C 233.929688 210.28125 233.492188 210.175781 233.039062 210.039062 L 233.039062 208.714844 C 233.429688 208.925781 233.832031 209.085938 234.25 209.191406 C 234.667969 209.292969 235.109375 209.347656 235.570312 209.347656 C 236.324219 209.347656 236.917969 209.148438 237.355469 208.753906 C 237.792969 208.359375 238.011719 207.824219 238.011719 207.144531 C 238.011719 206.46875 237.792969 205.933594 237.355469 205.539062 C 236.917969 205.144531 236.324219 204.945312 235.570312 204.945312 C 235.21875 204.945312 234.871094 204.984375 234.519531 205.0625 C 234.171875 205.140625 233.8125 205.261719 233.449219 205.425781 Z M 233.449219 200.542969 "/>
<g clip-path="url(#clip4)" clip-rule="nonzero">
<path style="fill:none;stroke-width:0.8;stroke-linecap:square;stroke-linejoin:round;stroke:rgb(69.01961%,69.01961%,69.01961%);stroke-opacity:1;stroke-miterlimit:4;" d="M 225.404297 143.100586 L 225.404297 7.201172 " transform="matrix(1.333333,0,0,1.333333,0.000000000000028422,0)"/>
</g>
<path style="fill:none;stroke-width:0.8;stroke-linecap:butt;stroke-linejoin:round;stroke:rgb(0%,0%,0%);stroke-opacity:1;stroke-miterlimit:4;" d="M 0.00117493 0.000579834 L 0.00117493 3.498627 " transform="matrix(1.333333,0,0,1.333333,300.537496,190.800008)"/>
<path style=" stroke:none;fill-rule:nonzero;fill:rgb(0%,0%,0%);fill-opacity:1;" d="M 294.613281 209.160156 L 299.203125 209.160156 L 299.203125 210.265625 L 293.03125 210.265625 L 293.03125 209.160156 C 293.53125 208.640625 294.210938 207.949219 295.070312 207.078125 C 295.933594 206.207031 296.476562 205.648438 296.695312 205.394531 C 297.117188 204.921875 297.410156 204.523438 297.578125 204.195312 C 297.746094 203.867188 297.828125 203.542969 297.828125 203.226562 C 297.828125 202.710938 297.648438 202.289062 297.285156 201.964844 C 296.921875 201.636719 296.449219 201.476562 295.867188 201.476562 C 295.457031 201.476562 295.019531 201.546875 294.5625 201.691406 C 294.105469 201.832031 293.617188 202.050781 293.097656 202.339844 L 293.097656 201.011719 C 293.625 200.800781 294.121094 200.640625 294.578125 200.53125 C 295.039062 200.421875 295.460938 200.367188 295.84375 200.367188 C 296.851562 200.367188 297.652344 200.621094 298.253906 201.125 C 298.851562 201.628906 299.148438 202.300781 299.148438 203.140625 C 299.148438 203.542969 299.074219 203.921875 298.925781 204.277344 C 298.777344 204.636719 298.503906 205.058594 298.109375 205.542969 C 298 205.671875 297.65625 206.035156 297.074219 206.636719 C 296.492188 207.238281 295.671875 208.078125 294.613281 209.160156 Z M 294.613281 209.160156 "/>
<path style=" stroke:none;fill-rule:nonzero;fill:rgb(0%,0%,0%);fill-opacity:1;" d="M 304.773438 201.410156 C 304.097656 201.410156 303.589844 201.742188 303.246094 202.410156 C 302.90625 203.074219 302.738281 204.078125 302.738281 205.414062 C 302.738281 206.746094 302.90625 207.746094 303.246094 208.414062 C 303.589844 209.078125 304.097656 209.414062 304.773438 209.414062 C 305.457031 209.414062 305.96875 209.078125 306.308594 208.414062 C 306.648438 207.746094 306.820312 206.746094 306.820312 205.414062 C 306.820312 204.078125 306.648438 203.074219 306.308594 202.410156 C 305.96875 201.742188 305.457031 201.410156 304.773438 201.410156 Z M 304.773438 200.367188 C 305.863281 200.367188 306.699219 200.800781 307.273438 201.664062 C 307.847656 202.523438 308.136719 203.773438 308.136719 205.414062 C 308.136719 207.050781 307.847656 208.300781 307.273438 209.164062 C 306.699219 210.023438 305.863281 210.453125 304.773438 210.453125 C 303.6875 210.453125 302.855469 210.023438 302.277344 209.164062 C 301.703125 208.300781 301.417969 207.050781 301.417969 205.414062 C 301.417969 203.773438 301.703125 202.523438 302.277344 201.664062 C 302.855469 200.800781 303.6875 200.367188 304.773438 200.367188 Z M 304.773438 200.367188 "/>
<path style=" stroke:none;fill-rule:nonzero;fill:rgb(0%,0%,0%);fill-opacity:1;" d="M 157.527344 224.554688 L 157.527344 225.140625 L 152.019531 225.140625 C 152.070312 225.964844 152.320312 226.59375 152.765625 227.027344 C 153.210938 227.460938 153.828125 227.675781 154.621094 227.675781 C 155.082031 227.675781 155.527344 227.617188 155.960938 227.507812 C 156.390625 227.394531 156.820312 227.222656 157.246094 226.996094 L 157.246094 228.132812 C 156.816406 228.3125 156.375 228.453125 155.925781 228.546875 C 155.472656 228.644531 155.015625 228.691406 154.550781 228.691406 C 153.386719 228.691406 152.464844 228.351562 151.789062 227.675781 C 151.109375 227 150.769531 226.082031 150.769531 224.925781 C 150.769531 223.734375 151.089844 222.789062 151.734375 222.085938 C 152.378906 221.386719 153.25 221.035156 154.34375 221.035156 C 155.324219 221.035156 156.101562 221.351562 156.671875 221.984375 C 157.242188 222.613281 157.527344 223.472656 157.527344 224.554688 Z M 156.328125 224.203125 C 156.320312 223.550781 156.136719 223.027344 155.777344 222.636719 C 155.421875 222.246094 154.945312 222.050781 154.355469 222.050781 C 153.6875 222.050781 153.152344 222.238281 152.753906 222.617188 C 152.351562 222.996094 152.121094 223.527344 152.058594 224.210938 Z M 156.328125 224.203125 "/>
<path style=" stroke:none;fill-rule:nonzero;fill:rgb(0%,0%,0%);fill-opacity:1;" d="M 160.652344 227.410156 L 160.652344 231.273438 L 159.445312 231.273438 L 159.445312 221.210938 L 160.652344 221.210938 L 160.652344 222.316406 C 160.902344 221.882812 161.222656 221.5625 161.605469 221.351562 C 161.988281 221.140625 162.449219 221.035156 162.980469 221.035156 C 163.867188 221.035156 164.585938 221.386719 165.140625 222.089844 C 165.695312 222.792969 165.972656 223.714844 165.972656 224.863281 C 165.972656 226.007812 165.695312 226.933594 165.140625 227.636719 C 164.585938 228.339844 163.867188 228.691406 162.980469 228.691406 C 162.449219 228.691406 161.988281 228.585938 161.605469 228.375 C 161.222656 228.164062 160.902344 227.839844 160.652344 227.410156 Z M 164.726562 224.863281 C 164.726562 223.980469 164.546875 223.289062 164.183594 222.789062 C 163.820312 222.289062 163.324219 222.039062 162.691406 222.039062 C 162.054688 222.039062 161.558594 222.289062 161.195312 222.789062 C 160.832031 223.289062 160.652344 223.980469 160.652344 224.863281 C 160.652344 225.742188 160.832031 226.433594 161.195312 226.933594 C 161.558594 227.4375 162.054688 227.6875 162.691406 227.6875 C 163.324219 227.6875 163.820312 227.4375 164.183594 226.933594 C 164.546875 226.433594 164.726562 225.742188 164.726562 224.863281 Z M 164.726562 224.863281 "/>
<path style=" stroke:none;fill-rule:nonzero;fill:rgb(0%,0%,0%);fill-opacity:1;" d="M 170.78125 222.050781 C 170.140625 222.050781 169.632812 222.300781 169.257812 222.800781 C 168.882812 223.304688 168.699219 223.992188 168.699219 224.863281 C 168.699219 225.734375 168.882812 226.421875 169.253906 226.921875 C 169.625 227.425781 170.136719 227.675781 170.78125 227.675781 C 171.421875 227.675781 171.925781 227.421875 172.296875 226.921875 C 172.671875 226.417969 172.859375 225.730469 172.859375 224.863281 C 172.859375 224 172.671875 223.3125 172.296875 222.808594 C 171.925781 222.304688 171.421875 222.050781 170.78125 222.050781 Z M 170.78125 221.035156 C 171.824219 221.035156 172.640625 221.375 173.234375 222.050781 C 173.832031 222.726562 174.128906 223.664062 174.128906 224.863281 C 174.128906 226.054688 173.832031 226.992188 173.234375 227.671875 C 172.640625 228.351562 171.824219 228.691406 170.78125 228.691406 C 169.734375 228.691406 168.914062 228.351562 168.324219 227.671875 C 167.730469 226.992188 167.433594 226.054688 167.433594 224.863281 C 167.433594 223.664062 167.730469 222.726562 168.324219 222.050781 C 168.914062 221.375 169.734375 221.035156 170.78125 221.035156 Z M 170.78125 221.035156 "/>
<path style=" stroke:none;fill-rule:nonzero;fill:rgb(0%,0%,0%);fill-opacity:1;" d="M 181.363281 221.488281 L 181.363281 222.609375 C 181.023438 222.421875 180.683594 222.28125 180.34375 222.191406 C 180.003906 222.097656 179.660156 222.050781 179.3125 222.050781 C 178.535156 222.050781 177.929688 222.296875 177.5 222.789062 C 177.070312 223.28125 176.855469 223.972656 176.855469 224.863281 C 176.855469 225.753906 177.070312 226.445312 177.5 226.9375 C 177.929688 227.429688 178.535156 227.675781 179.3125 227.675781 C 179.660156 227.675781 180.003906 227.628906 180.34375 227.535156 C 180.683594 227.441406 181.023438 227.300781 181.363281 227.113281 L 181.363281 228.222656 C 181.027344 228.378906 180.679688 228.496094 180.320312 228.574219 C 179.964844 228.652344 179.585938 228.691406 179.179688 228.691406 C 178.082031 228.691406 177.207031 228.347656 176.5625 227.65625 C 175.914062 226.964844 175.59375 226.035156 175.59375 224.863281 C 175.59375 223.671875 175.917969 222.738281 176.570312 222.058594 C 177.226562 221.375 178.121094 221.035156 179.257812 221.035156 C 179.628906 221.035156 179.988281 221.074219 180.339844 221.148438 C 180.691406 221.226562 181.03125 221.339844 181.363281 221.488281 Z M 181.363281 221.488281 "/>
<path style=" stroke:none;fill-rule:nonzero;fill:rgb(0%,0%,0%);fill-opacity:1;" d="M 189.507812 224.101562 L 189.507812 228.503906 L 188.308594 228.503906 L 188.308594 224.140625 C 188.308594 223.449219 188.175781 222.933594 187.90625 222.589844 C 187.636719 222.25 187.230469 222.078125 186.695312 222.078125 C 186.046875 222.078125 185.535156 222.285156 185.164062 222.695312 C 184.789062 223.105469 184.601562 223.667969 184.601562 224.382812 L 184.601562 228.503906 L 183.398438 228.503906 L 183.398438 218.371094 L 184.601562 218.371094 L 184.601562 222.34375 C 184.890625 221.90625 185.226562 221.578125 185.617188 221.359375 C 186.003906 221.144531 186.453125 221.035156 186.960938 221.035156 C 187.796875 221.035156 188.433594 221.292969 188.859375 221.8125 C 189.292969 222.332031 189.507812 223.09375 189.507812 224.101562 Z M 189.507812 224.101562 "/>
<g clip-path="url(#clip5)" clip-rule="nonzero">
<path style="fill:none;stroke-width:0.8;stroke-linecap:square;stroke-linejoin:round;stroke:rgb(69.01961%,69.01961%,69.01961%);stroke-opacity:1;stroke-miterlimit:4;" d="M 30.102539 117.37793 L 225.404297 117.37793 " transform="matrix(1.333333,0,0,1.333333,0.000000000000028422,0)"/>
</g>
<path style="fill:none;stroke-width:0.8;stroke-linecap:butt;stroke-linejoin:round;stroke:rgb(0%,0%,0%);stroke-opacity:1;stroke-miterlimit:4;" d="M -0.000585556 -0.000961304 L -3.498632 -0.000961304 " transform="matrix(1.333333,0,0,1.333333,40.137499,156.505188)"/>
<path style=" stroke:none;fill-rule:nonzero;fill:rgb(0%,0%,0%);fill-opacity:1;" d="M 13.835938 152.714844 C 13.160156 152.714844 12.652344 153.050781 12.308594 153.714844 C 11.96875 154.382812 11.800781 155.382812 11.800781 156.722656 C 11.800781 158.054688 11.96875 159.050781 12.308594 159.71875 C 12.652344 160.386719 13.160156 160.71875 13.835938 160.71875 C 14.519531 160.71875 15.03125 160.386719 15.371094 159.71875 C 15.710938 159.050781 15.882812 158.054688 15.882812 156.722656 C 15.882812 155.382812 15.710938 154.382812 15.371094 153.714844 C 15.03125 153.050781 14.519531 152.714844 13.835938 152.714844 Z M 13.835938 151.675781 C 14.929688 151.675781 15.761719 152.105469 16.335938 152.96875 C 16.910156 153.828125 17.199219 155.082031 17.199219 156.722656 C 17.199219 158.355469 16.910156 159.605469 16.335938 160.46875 C 15.761719 161.328125 14.929688 161.761719 13.835938 161.761719 C 12.75 161.761719 11.917969 161.328125 11.339844 160.46875 C 10.765625 159.605469 10.480469 158.355469 10.480469 156.722656 C 10.480469 155.082031 10.765625 153.828125 11.339844 152.96875 C 11.917969 152.105469 12.75 151.675781 13.835938 151.675781 Z M 13.835938 151.675781 "/>
<path style=" stroke:none;fill-rule:nonzero;fill:rgb(0%,0%,0%);fill-opacity:1;" d="M 19.507812 159.917969 L 20.882812 159.917969 L 20.882812 161.570312 L 19.507812 161.570312 Z M 19.507812 159.917969 "/>
<path style=" stroke:none;fill-rule:nonzero;fill:rgb(0%,0%,0%);fill-opacity:1;" d="M 23.761719 151.851562 L 28.921875 151.851562 L 28.921875 152.957031 L 24.964844 152.957031 L 24.964844 155.339844 C 25.15625 155.273438 25.34375 155.226562 25.535156 155.195312 C 25.726562 155.160156 25.917969 155.144531 26.109375 155.144531 C 27.195312 155.144531 28.054688 155.441406 28.6875 156.039062 C 29.324219 156.632812 29.640625 157.4375 29.640625 158.453125 C 29.640625 159.496094 29.3125 160.3125 28.664062 160.890625 C 28.011719 161.472656 27.09375 161.761719 25.910156 161.761719 C 25.5 161.761719 25.085938 161.726562 24.660156 161.65625 C 24.238281 161.585938 23.800781 161.484375 23.351562 161.34375 L 23.351562 160.019531 C 23.742188 160.234375 24.144531 160.390625 24.5625 160.496094 C 24.976562 160.601562 25.417969 160.652344 25.882812 160.652344 C 26.632812 160.652344 27.226562 160.453125 27.664062 160.058594 C 28.105469 159.664062 28.324219 159.128906 28.324219 158.453125 C 28.324219 157.777344 28.105469 157.242188 27.664062 156.847656 C 27.226562 156.449219 26.632812 156.253906 25.882812 156.253906 C 25.53125 156.253906 25.179688 156.289062 24.828125 156.367188 C 24.480469 156.445312 24.125 156.566406 23.761719 156.734375 Z M 23.761719 151.851562 "/>
<g clip-path="url(#clip6)" clip-rule="nonzero">
<path style="fill:none;stroke-width:0.8;stroke-linecap:square;stroke-linejoin:round;stroke:rgb(69.01961%,69.01961%,69.01961%);stroke-opacity:1;stroke-miterlimit:4;" d="M 30.102539 89.458008 L 225.404297 89.458008 " transform="matrix(1.333333,0,0,1.333333,0.000000000000028422,0)"/>
</g>
<path style="fill:none;stroke-width:0.8;stroke-linecap:butt;stroke-linejoin:round;stroke:rgb(0%,0%,0%);stroke-opacity:1;stroke-miterlimit:4;" d="M -0.000585556 -0.00111389 L -3.498632 -0.00111389 " transform="matrix(1.333333,0,0,1.333333,40.137499,119.278829)"/>
<path style=" stroke:none;fill-rule:nonzero;fill:rgb(0%,0%,0%);fill-opacity:1;" d="M 11.253906 123.238281 L 13.402344 123.238281 L 13.402344 115.820312 L 11.066406 116.289062 L 11.066406 115.09375 L 13.390625 114.625 L 14.703125 114.625 L 14.703125 123.238281 L 16.851562 123.238281 L 16.851562 124.34375 L 11.253906 124.34375 Z M 11.253906 123.238281 "/>
<path style=" stroke:none;fill-rule:nonzero;fill:rgb(0%,0%,0%);fill-opacity:1;" d="M 19.507812 122.691406 L 20.882812 122.691406 L 20.882812 124.34375 L 19.507812 124.34375 Z M 19.507812 122.691406 "/>
<path style=" stroke:none;fill-rule:nonzero;fill:rgb(0%,0%,0%);fill-opacity:1;" d="M 26.558594 115.492188 C 25.882812 115.492188 25.375 115.824219 25.03125 116.492188 C 24.691406 117.15625 24.519531 118.15625 24.519531 119.496094 C 24.519531 120.828125 24.691406 121.824219 25.03125 122.492188 C 25.375 123.160156 25.882812 123.492188 26.558594 123.492188 C 27.242188 123.492188 27.75 123.160156 28.09375 122.492188 C 28.433594 121.824219 28.605469 120.828125 28.605469 119.496094 C 28.605469 118.15625 28.433594 117.15625 28.09375 116.492188 C 27.75 115.824219 27.242188 115.492188 26.558594 115.492188 Z M 26.558594 114.449219 C 27.648438 114.449219 28.480469 114.878906 29.058594 115.742188 C 29.632812 116.601562 29.917969 117.855469 29.917969 119.496094 C 29.917969 121.128906 29.632812 122.378906 29.058594 123.242188 C 28.480469 124.101562 27.648438 124.535156 26.558594 124.535156 C 25.46875 124.535156 24.636719 124.101562 24.0625 123.242188 C 23.488281 122.378906 23.199219 121.128906 23.199219 119.496094 C 23.199219 117.855469 23.488281 116.601562 24.0625 115.742188 C 24.636719 114.878906 25.46875 114.449219 26.558594 114.449219 Z M 26.558594 114.449219 "/>
<g clip-path="url(#clip7)" clip-rule="nonzero">
<path style="fill:none;stroke-width:0.8;stroke-linecap:square;stroke-linejoin:round;stroke:rgb(69.01961%,69.01961%,69.01961%);stroke-opacity:1;stroke-miterlimit:4;" d="M 30.102539 61.538086 L 225.404297 61.538086 " transform="matrix(1.333333,0,0,1.333333,0.000000000000028422,0)"/>
</g>
<path style="fill:none;stroke-width:0.8;stroke-linecap:butt;stroke-linejoin:round;stroke:rgb(0%,0%,0%);stroke-opacity:1;stroke-miterlimit:4;" d="M -0.000585556 -0.00126648 L -3.498632 -0.00126648 " transform="matrix(1.333333,0,0,1.333333,40.137499,82.05247)"/>
<path style=" stroke:none;fill-rule:nonzero;fill:rgb(0%,0%,0%);fill-opacity:1;" d="M 11.253906 86.011719 L 13.402344 86.011719 L 13.402344 78.59375 L 11.066406 79.0625 L 11.066406 77.867188 L 13.390625 77.398438 L 14.703125 77.398438 L 14.703125 86.011719 L 16.851562 86.011719 L 16.851562 87.117188 L 11.253906 87.117188 Z M 11.253906 86.011719 "/>
<path style=" stroke:none;fill-rule:nonzero;fill:rgb(0%,0%,0%);fill-opacity:1;" d="M 19.507812 85.464844 L 20.882812 85.464844 L 20.882812 87.117188 L 19.507812 87.117188 Z M 19.507812 85.464844 "/>
<path style=" stroke:none;fill-rule:nonzero;fill:rgb(0%,0%,0%);fill-opacity:1;" d="M 23.761719 77.398438 L 28.921875 77.398438 L 28.921875 78.503906 L 24.964844 78.503906 L 24.964844 80.886719 C 25.15625 80.820312 25.34375 80.773438 25.535156 80.742188 C 25.726562 80.710938 25.917969 80.691406 26.109375 80.691406 C 27.195312 80.691406 28.054688 80.992188 28.6875 81.585938 C 29.324219 82.179688 29.640625 82.984375 29.640625 84 C 29.640625 85.046875 29.3125 85.859375 28.664062 86.4375 C 28.011719 87.019531 27.09375 87.308594 25.910156 87.308594 C 25.5 87.308594 25.085938 87.273438 24.660156 87.203125 C 24.238281 87.132812 23.800781 87.03125 23.351562 86.890625 L 23.351562 85.566406 C 23.742188 85.78125 24.144531 85.9375 24.5625 86.042969 C 24.976562 86.148438 25.417969 86.199219 25.882812 86.199219 C 26.632812 86.199219 27.226562 86.003906 27.664062 85.609375 C 28.105469 85.214844 28.324219 84.675781 28.324219 84 C 28.324219 83.324219 28.105469 82.789062 27.664062 82.394531 C 27.226562 81.996094 26.632812 81.800781 25.882812 81.800781 C 25.53125 81.800781 25.179688 81.839844 24.828125 81.914062 C 24.480469 81.992188 24.125 82.117188 23.761719 82.28125 Z M 23.761719 77.398438 "/>
<g clip-path="url(#clip8)" clip-rule="nonzero">
<path style="fill:none;stroke-width:0.8;stroke-linecap:square;stroke-linejoin:round;stroke:rgb(69.01961%,69.01961%,69.01961%);stroke-opacity:1;stroke-miterlimit:4;" d="M 30.102539 33.618164 L 225.404297 33.618164 " transform="matrix(1.333333,0,0,1.333333,0.000000000000028422,0)"/>
</g>
<path style="fill:none;stroke-width:0.8;stroke-linecap:butt;stroke-linejoin:round;stroke:rgb(0%,0%,0%);stroke-opacity:1;stroke-miterlimit:4;" d="M -0.000585556 -0.00142288 L -3.498632 -0.00142288 " transform="matrix(1.333333,0,0,1.333333,40.137499,44.826116)"/>
<path style=" stroke:none;fill-rule:nonzero;fill:rgb(0%,0%,0%);fill-opacity:1;" d="M 12.160156 48.785156 L 16.746094 48.785156 L 16.746094 49.890625 L 10.578125 49.890625 L 10.578125 48.785156 C 11.074219 48.269531 11.753906 47.574219 12.617188 46.707031 C 13.480469 45.835938 14.019531 45.273438 14.242188 45.019531 C 14.664062 44.546875 14.957031 44.148438 15.121094 43.820312 C 15.289062 43.492188 15.375 43.171875 15.375 42.855469 C 15.375 42.335938 15.195312 41.917969 14.832031 41.589844 C 14.46875 41.265625 13.996094 41.101562 13.414062 41.101562 C 13.003906 41.101562 12.566406 41.171875 12.109375 41.316406 C 11.652344 41.460938 11.164062 41.675781 10.640625 41.96875 L 10.640625 40.640625 C 11.171875 40.425781 11.664062 40.265625 12.125 40.160156 C 12.585938 40.050781 13.007812 39.996094 13.390625 39.996094 C 14.398438 39.996094 15.199219 40.246094 15.796875 40.753906 C 16.398438 41.253906 16.695312 41.925781 16.695312 42.769531 C 16.695312 43.167969 16.621094 43.546875 16.472656 43.90625 C 16.320312 44.261719 16.050781 44.683594 15.652344 45.171875 C 15.546875 45.296875 15.199219 45.660156 14.617188 46.261719 C 14.039062 46.863281 13.21875 47.703125 12.160156 48.785156 Z M 12.160156 48.785156 "/>
<path style=" stroke:none;fill-rule:nonzero;fill:rgb(0%,0%,0%);fill-opacity:1;" d="M 19.507812 48.238281 L 20.882812 48.238281 L 20.882812 49.890625 L 19.507812 49.890625 Z M 19.507812 48.238281 "/>
<path style=" stroke:none;fill-rule:nonzero;fill:rgb(0%,0%,0%);fill-opacity:1;" d="M 26.558594 41.039062 C 25.882812 41.039062 25.375 41.371094 25.03125 42.039062 C 24.691406 42.703125 24.519531 43.703125 24.519531 45.042969 C 24.519531 46.375 24.691406 47.371094 25.03125 48.039062 C 25.375 48.707031 25.882812 49.039062 26.558594 49.039062 C 27.242188 49.039062 27.75 48.707031 28.09375 48.039062 C 28.433594 47.371094 28.605469 46.375 28.605469 45.042969 C 28.605469 43.703125 28.433594 42.703125 28.09375 42.039062 C 27.75 41.371094 27.242188 41.039062 26.558594 41.039062 Z M 26.558594 39.996094 C 27.648438 39.996094 28.480469 40.425781 29.058594 41.289062 C 29.632812 42.152344 29.917969 43.402344 29.917969 45.042969 C 29.917969 46.679688 29.632812 47.925781 29.058594 48.789062 C 28.480469 49.652344 27.648438 50.082031 26.558594 50.082031 C 25.46875 50.082031 24.636719 49.652344 24.0625 48.789062 C 23.488281 47.925781 23.199219 46.679688 23.199219 45.042969 C 23.199219 43.402344 23.488281 42.152344 24.0625 41.289062 C 24.636719 40.425781 25.46875 39.996094 26.558594 39.996094 Z M 26.558594 39.996094 "/>
<g clip-path="url(#clip9)" clip-rule="nonzero">
<path style="fill:none;stroke-width:1.5;stroke-linecap:square;stroke-linejoin:round;stroke:rgb(12.156863%,46.666667%,70.588237%);stroke-opacity:1;stroke-miterlimit:4;" d="M 21.65918 13.376953 L 23.496094 17.056641 L 25.330078 20.475586 L 27.166992 21.19043 L 29.000977 21.196289 L 30.102539 20.888672 L 31.939453 30.955078 L 33.773437 31.415039 L 35.610352 32.162109 L 37.444336 32.44043 L 39.28125 32.575195 L 40.382812 32.141602 L 42.216797 41.185547 L 44.053711 38.583984 L 45.887695 41.244141 L 47.724609 41.496094 L 49.558594 41.258789 L 50.660156 42.052734 L 52.49707 43.491211 L 54.331055 44.797852 L 56.167969 42.864258 L 58.001953 43.286133 L 59.838867 43.420898 L 60.94043 44.399414 L 62.774414 53.81543 L 64.611328 55.538086 L 66.445312 54.861328 L 68.282227 56.460938 L 70.116211 55.3125 L 71.217773 56.416992 L 73.054687 54.788086 L 74.888672 55.675781 L 76.725586 56.71582 L 78.55957 58.016602 L 80.396484 59.299805 L 81.498047 59.856445 L 83.332031 48.916992 L 85.168945 53.601562 L 87.005859 56.616211 L 88.839844 58.060547 L 90.676758 59.578125 L 91.775391 59.917969 L 93.612305 60.600586 L 95.449219 62.167969 L 97.283203 64.705078 L 99.120117 65.926758 L 100.954102 65.926758 L 102.055664 64.96582 L 103.892578 72.714844 L 105.726562 69.802734 L 107.563477 65.780273 L 109.397461 65.288086 L 111.234375 65.041992 L 112.335937 65.876953 L 114.169922 73.104492 L 116.006836 77.833008 L 117.84082 75.75293 L 119.677734 75.369141 L 121.511719 75.366211 L 122.613281 74.668945 L 124.450195 76.737305 L 126.28418 72.958008 L 128.121094 74.827148 L 129.955078 75.111328 L 131.791992 75.079102 L 132.893555 74.704102 L 134.727539 81.114258 L 136.564453 79.851562 L 138.398437 79.564453 L 140.235352 79.787109 L 142.069336 78.796875 L 143.170898 78.416016 L 145.007812 86.745117 L 146.841797 84.609375 L 148.678711 83.173828 L 150.512695 84.102539 L 152.349609 84.137695 L 153.451172 83.771484 L 155.285156 86.607422 L 157.12207 90.524414 L 158.956055 91.183594 L 160.792969 89.642578 L 162.626953 88.253906 L 163.728516 88.119141 L 165.56543 84.498047 L 167.399414 87.820312 L 169.236328 89.545898 L 171.070312 88.605469 L 172.907227 87.788086 L 174.008789 87.169922 L 175.842773 104.214844 L 177.679687 97.719727 L 179.513672 98.050781 L 181.350586 98.636719 L 183.18457 97.895508 L 184.286133 97.078125 L 186.123047 112.59668 L 187.957031 109.787109 L 189.793945 108.518555 L 191.630859 105.433594 L 193.464844 105.09375 L 194.566406 104.191406 L 196.400391 101.103516 L 198.237305 104.135742 L 200.074219 100.523438 L 201.908203 101.841797 L 203.745117 101.501953 L 204.84668 101.185547 L 206.680664 100.438477 L 208.517578 100.505859 L 210.351562 99.580078 L 212.188477 101.727539 L 214.022461 100.995117 L 215.124023 100.933594 L 216.960937 110.176758 L 218.794922 109.561523 L 220.631836 108.536133 L 222.46582 108.544922 L 224.302734 107.958984 L 225.404297 108 " transform="matrix(1.333333,0,0,1.333333,0.000000000000028422,0)"/>
</g>
<g clip-path="url(#clip10)" clip-rule="nonzero">
<path style="fill:none;stroke-width:1.5;stroke-linecap:butt;stroke-linejoin:round;stroke:rgb(74.901962%,0%,74.901962%);stroke-opacity:1;stroke-dasharray:5.55,2.4;stroke-miterlimit:4;" d="M 21.65918 136.921875 L 23.496094 136.048828 L 25.330078 135.178711 L 27.166992 134.915039 L 29.000977 134.129883 L 30.102539 134.018555 L 31.939453 130.989258 L 33.773437 129.594727 L 35.610352 128.663086 L 37.444336 128.285156 L 39.28125 128.545898 L 40.382812 128.844727 L 42.216797 128.545898 L 44.053711 129.070312 L 45.887695 128.314453 L 47.724609 128.109375 L 49.558594 127.989258 L 50.660156 128.411133 L 52.49707 125.056641 L 54.331055 125.581055 L 56.167969 126.685547 L 58.001953 126.454102 L 59.838867 126.102539 L 60.94043 125.730469 L 62.774414 125.753906 L 64.611328 123.662109 L 66.445312 123.662109 L 68.282227 122.701172 L 70.116211 122.683594 L 71.217773 122.115234 L 73.054687 125.405273 L 74.888672 124.183594 L 76.725586 123.662109 L 78.55957 122.613281 L 80.396484 122.056641 L 81.498047 121.740234 L 83.332031 123.662109 L 85.168945 122.264648 L 87.005859 121.333008 L 88.839844 120.782227 L 90.676758 120.799805 L 91.775391 121.119141 L 93.612305 120.518555 L 95.449219 120.518555 L 97.283203 119.472656 L 99.120117 118.250977 L 100.954102 117.726562 L 102.055664 118.250977 L 103.892578 116.332031 L 105.726562 116.856445 L 107.563477 118.078125 L 109.397461 117.902344 L 111.234375 118.078125 L 112.335937 118.189453 L 114.169922 117.37793 L 116.006836 113.71582 L 117.84082 114.123047 L 119.677734 114.93457 L 121.511719 115.004883 L 122.613281 115.447266 L 124.450195 114.237305 L 126.28418 115.634766 L 128.121094 114.820312 L 129.955078 114.761719 L 131.791992 115.423828 L 132.893555 115.508789 L 134.727539 112.142578 L 136.564453 114.585938 L 138.398437 113.771484 L 140.235352 113.452148 L 142.069336 113.680664 L 143.170898 113.765625 L 145.007812 110.050781 L 146.841797 111.272461 L 148.678711 112.142578 L 150.512695 111.445312 L 152.349609 111.585938 L 153.451172 111.958008 L 155.285156 110.748047 L 157.12207 109.001953 L 158.956055 108.539062 L 160.792969 109.177734 L 162.626953 109.420898 L 163.728516 109.775391 L 165.56543 111.793945 L 167.399414 111.445312 L 169.236328 110.282227 L 171.070312 110.135742 L 172.907227 110.399414 L 174.008789 110.460938 L 175.842773 105.512695 L 177.679687 106.910156 L 179.513672 106.209961 L 181.350586 106.125 L 183.18457 106.072266 L 184.286133 106.40918 L 186.123047 99.580078 L 187.957031 102.023438 L 189.793945 101.90625 L 191.630859 103.417969 L 193.464844 103.907227 L 194.566406 104.103516 L 196.400391 106.209961 L 198.237305 103.59375 L 200.074219 104.581055 L 201.908203 104.81543 L 203.745117 105.164062 L 204.84668 104.976562 L 206.680664 104.466797 L 208.517578 105.512695 L 210.351562 104.932617 L 212.188477 104.466797 L 214.022461 105.023438 L 215.124023 104.976562 L 216.960937 100.625977 L 218.794922 101.847656 L 220.631836 102.37207 L 222.46582 102.28418 L 224.302734 102.720703 L 225.404297 102.796875 " transform="matrix(1.333333,0,0,1.333333,0.000000000000028422,0)"/>
</g>
<g clip-path="url(#clip11)" clip-rule="nonzero">
<path style="fill:none;stroke-width:1.5;stroke-linecap:butt;stroke-linejoin:round;stroke:rgb(0%,50.196081%,0%);stroke-opacity:1;stroke-dasharray:9.6,2.4,1.5,2.4;stroke-miterlimit:4;" d="M 30.102539 132.210938 L 40.382812 133.083984 L 50.660156 124.359375 L 60.94043 126.975586 L 71.217773 126.975586 L 81.498047 126.102539 L 91.775391 119.99707 L 102.055664 128.72168 L 112.335937 121.740234 L 122.613281 119.124023 L 132.893555 119.99707 L 143.170898 120.870117 L 153.451172 119.99707 L 163.728516 121.740234 L 174.008789 118.250977 L 184.286133 119.99707 L 194.566406 121.740234 L 204.84668 121.740234 L 215.124023 119.99707 L 225.404297 122.613281 " transform="matrix(1.333333,0,0,1.333333,0.000000000000028422,0)"/>
</g>
<path style="fill:none;stroke-width:0.8;stroke-linecap:square;stroke-linejoin:miter;stroke:rgb(0%,0%,0%);stroke-opacity:1;stroke-miterlimit:4;" d="M 30.102539 143.100586 L 30.102539 7.201172 " transform="matrix(1.333333,0,0,1.333333,0.000000000000028422,0)"/>
<path style="fill:none;stroke-width:0.8;stroke-linecap:square;stroke-linejoin:miter;stroke:rgb(0%,0%,0%);stroke-opacity:1;stroke-miterlimit:4;" d="M 225.404297 143.100586 L 225.404297 7.201172 " transform="matrix(1.333333,0,0,1.333333,0.000000000000028422,0)"/>
<path style="fill:none;stroke-width:0.8;stroke-linecap:square;stroke-linejoin:miter;stroke:rgb(0%,0%,0%);stroke-opacity:1;stroke-miterlimit:4;" d="M 30.102539 143.100586 L 225.404297 143.100586 " transform="matrix(1.333333,0,0,1.333333,0.000000000000028422,0)"/>
<path style="fill:none;stroke-width:0.8;stroke-linecap:square;stroke-linejoin:miter;stroke:rgb(0%,0%,0%);stroke-opacity:1;stroke-miterlimit:4;" d="M 30.102539 7.201172 L 225.404297 7.201172 " transform="matrix(1.333333,0,0,1.333333,0.000000000000028422,0)"/>
<use xlink:href="#surface5" mask="url(#mask0)"/>
<path style="fill:none;stroke-width:1.5;stroke-linecap:square;stroke-linejoin:round;stroke:rgb(12.156863%,46.666667%,70.588237%);stroke-opacity:1;stroke-miterlimit:4;" d="M 142.634766 20.299805 L 162.635742 20.299805 " transform="matrix(1.333333,0,0,1.333333,0.000000000000028422,0)"/>
<path style=" stroke:none;fill-rule:nonzero;fill:rgb(0%,0%,0%);fill-opacity:1;" d="M 229.953125 22.367188 L 229.953125 24.441406 L 232.421875 24.441406 L 232.421875 25.371094 L 229.953125 25.371094 L 229.953125 29.328125 C 229.953125 29.921875 230.035156 30.304688 230.199219 30.476562 C 230.359375 30.644531 230.691406 30.730469 231.191406 30.730469 L 232.421875 30.730469 L 232.421875 31.730469 L 231.191406 31.730469 C 230.265625 31.730469 229.628906 31.558594 229.277344 31.214844 C 228.925781 30.867188 228.75 30.242188 228.75 29.328125 L 228.75 25.371094 L 227.871094 25.371094 L 227.871094 24.441406 L 228.75 24.441406 L 228.75 22.367188 Z M 229.953125 22.367188 "/>
<path style=" stroke:none;fill-rule:nonzero;fill:rgb(0%,0%,0%);fill-opacity:1;" d="M 238.222656 25.558594 C 238.085938 25.480469 237.941406 25.421875 237.78125 25.386719 C 237.625 25.351562 237.449219 25.332031 237.257812 25.332031 C 236.582031 25.332031 236.0625 25.550781 235.699219 25.992188 C 235.335938 26.433594 235.15625 27.066406 235.15625 27.890625 L 235.15625 31.730469 L 233.949219 31.730469 L 233.949219 24.441406 L 235.15625 24.441406 L 235.15625 25.574219 C 235.40625 25.128906 235.734375 24.800781 236.136719 24.585938 C 236.542969 24.371094 237.035156 24.265625 237.609375 24.265625 C 237.691406 24.265625 237.785156 24.269531 237.882812 24.28125 C 237.984375 24.289062 238.09375 24.308594 238.214844 24.328125 Z M 238.222656 25.558594 "/>
<path style=" stroke:none;fill-rule:nonzero;fill:rgb(0%,0%,0%);fill-opacity:1;" d="M 242.792969 28.066406 C 241.824219 28.066406 241.152344 28.175781 240.78125 28.398438 C 240.40625 28.617188 240.21875 28.996094 240.21875 29.53125 C 240.21875 29.957031 240.359375 30.292969 240.640625 30.542969 C 240.921875 30.792969 241.300781 30.917969 241.78125 30.917969 C 242.449219 30.917969 242.980469 30.679688 243.382812 30.210938 C 243.785156 29.738281 243.984375 29.113281 243.984375 28.332031 L 243.984375 28.066406 Z M 245.183594 27.570312 L 245.183594 31.730469 L 243.984375 31.730469 L 243.984375 30.625 C 243.710938 31.066406 243.371094 31.394531 242.960938 31.605469 C 242.554688 31.816406 242.054688 31.921875 241.464844 31.921875 C 240.71875 31.921875 240.125 31.710938 239.683594 31.292969 C 239.242188 30.871094 239.023438 30.3125 239.023438 29.609375 C 239.023438 28.789062 239.296875 28.171875 239.84375 27.753906 C 240.394531 27.335938 241.214844 27.128906 242.304688 27.128906 L 243.984375 27.128906 L 243.984375 27.011719 C 243.984375 26.460938 243.804688 26.03125 243.441406 25.730469 C 243.078125 25.429688 242.570312 25.277344 241.914062 25.277344 C 241.496094 25.277344 241.089844 25.328125 240.695312 25.429688 C 240.300781 25.527344 239.921875 25.679688 239.558594 25.878906 L 239.558594 24.769531 C 239.996094 24.601562 240.421875 24.476562 240.832031 24.390625 C 241.246094 24.308594 241.644531 24.265625 242.035156 24.265625 C 243.09375 24.265625 243.878906 24.539062 244.402344 25.085938 C 244.921875 25.632812 245.183594 26.460938 245.183594 27.570312 Z M 245.183594 27.570312 "/>
<path style=" stroke:none;fill-rule:nonzero;fill:rgb(0%,0%,0%);fill-opacity:1;" d="M 247.648438 24.441406 L 248.847656 24.441406 L 248.847656 31.730469 L 247.648438 31.730469 Z M 247.648438 21.601562 L 248.847656 21.601562 L 248.847656 23.117188 L 247.648438 23.117188 Z M 247.648438 21.601562 "/>
<path style=" stroke:none;fill-rule:nonzero;fill:rgb(0%,0%,0%);fill-opacity:1;" d="M 257.414062 27.328125 L 257.414062 31.730469 L 256.21875 31.730469 L 256.21875 27.367188 C 256.21875 26.679688 256.082031 26.164062 255.8125 25.820312 C 255.542969 25.476562 255.140625 25.304688 254.601562 25.304688 C 253.957031 25.304688 253.445312 25.511719 253.070312 25.925781 C 252.699219 26.335938 252.511719 26.898438 252.511719 27.609375 L 252.511719 31.730469 L 251.308594 31.730469 L 251.308594 24.441406 L 252.511719 24.441406 L 252.511719 25.574219 C 252.800781 25.132812 253.136719 24.804688 253.523438 24.589844 C 253.914062 24.371094 254.363281 24.265625 254.871094 24.265625 C 255.707031 24.265625 256.339844 24.523438 256.769531 25.042969 C 257.199219 25.558594 257.414062 26.320312 257.414062 27.328125 Z M 257.414062 27.328125 "/>
<path style=" stroke:none;fill-rule:nonzero;fill:rgb(0%,0%,0%);fill-opacity:1;" d="M 264.042969 21.601562 L 265.238281 21.601562 L 265.238281 31.730469 L 264.042969 31.730469 Z M 264.042969 21.601562 "/>
<path style=" stroke:none;fill-rule:nonzero;fill:rgb(0%,0%,0%);fill-opacity:1;" d="M 270.570312 25.277344 C 269.929688 25.277344 269.421875 25.53125 269.046875 26.03125 C 268.675781 26.53125 268.488281 27.21875 268.488281 28.089844 C 268.488281 28.964844 268.671875 29.652344 269.042969 30.152344 C 269.417969 30.652344 269.925781 30.902344 270.570312 30.902344 C 271.210938 30.902344 271.714844 30.652344 272.089844 30.148438 C 272.460938 29.644531 272.648438 28.960938 272.648438 28.089844 C 272.648438 27.226562 272.460938 26.542969 272.089844 26.039062 C 271.714844 25.53125 271.210938 25.277344 270.570312 25.277344 Z M 270.570312 24.265625 C 271.613281 24.265625 272.429688 24.601562 273.027344 25.28125 C 273.621094 25.957031 273.917969 26.894531 273.917969 28.089844 C 273.917969 29.285156 273.621094 30.222656 273.027344 30.902344 C 272.429688 31.582031 271.613281 31.921875 270.570312 31.921875 C 269.527344 31.921875 268.707031 31.582031 268.113281 30.902344 C 267.523438 30.222656 267.226562 29.285156 267.226562 28.089844 C 267.226562 26.894531 267.523438 25.957031 268.113281 25.28125 C 268.707031 24.601562 269.527344 24.265625 270.570312 24.265625 Z M 270.570312 24.265625 "/>
<path style=" stroke:none;fill-rule:nonzero;fill:rgb(0%,0%,0%);fill-opacity:1;" d="M 280.550781 24.652344 L 280.550781 25.789062 C 280.214844 25.613281 279.863281 25.484375 279.496094 25.398438 C 279.132812 25.308594 278.757812 25.265625 278.363281 25.265625 C 277.769531 25.265625 277.324219 25.359375 277.027344 25.539062 C 276.730469 25.722656 276.582031 25.996094 276.582031 26.359375 C 276.582031 26.636719 276.6875 26.855469 276.898438 27.015625 C 277.113281 27.171875 277.539062 27.324219 278.183594 27.464844 L 278.59375 27.558594 C 279.445312 27.742188 280.046875 27.996094 280.40625 28.328125 C 280.765625 28.660156 280.945312 29.125 280.945312 29.71875 C 280.945312 30.398438 280.675781 30.933594 280.140625 31.328125 C 279.601562 31.722656 278.867188 31.921875 277.929688 31.921875 C 277.539062 31.921875 277.132812 31.882812 276.707031 31.804688 C 276.285156 31.730469 275.839844 31.617188 275.371094 31.464844 L 275.371094 30.226562 C 275.8125 30.457031 276.25 30.628906 276.679688 30.746094 C 277.109375 30.859375 277.535156 30.917969 277.957031 30.917969 C 278.519531 30.917969 278.953125 30.820312 279.257812 30.628906 C 279.558594 30.433594 279.710938 30.160156 279.710938 29.808594 C 279.710938 29.484375 279.601562 29.234375 279.382812 29.0625 C 279.164062 28.890625 278.683594 28.722656 277.941406 28.558594 L 277.523438 28.460938 C 276.785156 28.308594 276.246094 28.066406 275.917969 27.742188 C 275.585938 27.421875 275.421875 26.976562 275.421875 26.414062 C 275.421875 25.726562 275.664062 25.195312 276.152344 24.824219 C 276.636719 24.453125 277.328125 24.265625 278.222656 24.265625 C 278.664062 24.265625 279.082031 24.296875 279.472656 24.363281 C 279.863281 24.425781 280.222656 24.523438 280.550781 24.652344 Z M 280.550781 24.652344 "/>
<path style=" stroke:none;fill-rule:nonzero;fill:rgb(0%,0%,0%);fill-opacity:1;" d="M 287.5 24.652344 L 287.5 25.789062 C 287.160156 25.613281 286.808594 25.484375 286.445312 25.398438 C 286.082031 25.308594 285.703125 25.265625 285.3125 25.265625 C 284.714844 25.265625 284.269531 25.359375 283.972656 25.539062 C 283.675781 25.722656 283.527344 25.996094 283.527344 26.359375 C 283.527344 26.636719 283.632812 26.855469 283.847656 27.015625 C 284.058594 27.171875 284.488281 27.324219 285.128906 27.464844 L 285.539062 27.558594 C 286.390625 27.742188 286.996094 27.996094 287.351562 28.328125 C 287.710938 28.660156 287.890625 29.125 287.890625 29.71875 C 287.890625 30.398438 287.621094 30.933594 287.085938 31.328125 C 286.550781 31.722656 285.8125 31.921875 284.875 31.921875 C 284.484375 31.921875 284.078125 31.882812 283.65625 31.804688 C 283.230469 31.730469 282.785156 31.617188 282.316406 31.464844 L 282.316406 30.226562 C 282.761719 30.457031 283.195312 30.628906 283.625 30.746094 C 284.054688 30.859375 284.480469 30.917969 284.902344 30.917969 C 285.464844 30.917969 285.898438 30.820312 286.203125 30.628906 C 286.507812 30.433594 286.660156 30.160156 286.660156 29.808594 C 286.660156 29.484375 286.550781 29.234375 286.328125 29.0625 C 286.113281 28.890625 285.632812 28.722656 284.886719 28.558594 L 284.472656 28.460938 C 283.730469 28.308594 283.195312 28.066406 282.863281 27.742188 C 282.535156 27.421875 282.371094 26.976562 282.371094 26.414062 C 282.371094 25.726562 282.613281 25.195312 283.097656 24.824219 C 283.585938 24.453125 284.273438 24.265625 285.167969 24.265625 C 285.609375 24.265625 286.027344 24.296875 286.417969 24.363281 C 286.808594 24.425781 287.167969 24.523438 287.5 24.652344 Z M 287.5 24.652344 "/>
<path style="fill:none;stroke-width:1.5;stroke-linecap:butt;stroke-linejoin:round;stroke:rgb(74.901962%,0%,74.901962%);stroke-opacity:1;stroke-dasharray:5.55,2.4;stroke-miterlimit:4;" d="M 142.634766 34.977539 L 162.635742 34.977539 " transform="matrix(1.333333,0,0,1.333333,0.000000000000028422,0)"/>
<path style=" stroke:none;fill-rule:nonzero;fill:rgb(0%,0%,0%);fill-opacity:1;" d="M 229.953125 41.941406 L 229.953125 44.011719 L 232.421875 44.011719 L 232.421875 44.941406 L 229.953125 44.941406 L 229.953125 48.898438 C 229.953125 49.496094 230.035156 49.875 230.199219 50.046875 C 230.359375 50.214844 230.691406 50.300781 231.191406 50.300781 L 232.421875 50.300781 L 232.421875 51.300781 L 231.191406 51.300781 C 230.265625 51.300781 229.628906 51.128906 229.277344 50.785156 C 228.925781 50.441406 228.75 49.8125 228.75 48.898438 L 228.75 44.941406 L 227.871094 44.941406 L 227.871094 44.011719 L 228.75 44.011719 L 228.75 41.941406 Z M 229.953125 41.941406 "/>
<path style=" stroke:none;fill-rule:nonzero;fill:rgb(0%,0%,0%);fill-opacity:1;" d="M 238.222656 45.128906 C 238.085938 45.050781 237.941406 44.996094 237.78125 44.957031 C 237.625 44.921875 237.449219 44.902344 237.257812 44.902344 C 236.582031 44.902344 236.0625 45.121094 235.699219 45.5625 C 235.335938 46.003906 235.15625 46.636719 235.15625 47.460938 L 235.15625 51.300781 L 233.949219 51.300781 L 233.949219 44.011719 L 235.15625 44.011719 L 235.15625 45.144531 C 235.40625 44.699219 235.734375 44.371094 236.136719 44.160156 C 236.542969 43.941406 237.035156 43.835938 237.609375 43.835938 C 237.691406 43.835938 237.785156 43.839844 237.882812 43.851562 C 237.984375 43.863281 238.09375 43.878906 238.214844 43.898438 Z M 238.222656 45.128906 "/>
<path style=" stroke:none;fill-rule:nonzero;fill:rgb(0%,0%,0%);fill-opacity:1;" d="M 242.792969 47.636719 C 241.824219 47.636719 241.152344 47.746094 240.78125 47.96875 C 240.40625 48.191406 240.21875 48.566406 240.21875 49.101562 C 240.21875 49.527344 240.359375 49.863281 240.640625 50.113281 C 240.921875 50.363281 241.300781 50.488281 241.78125 50.488281 C 242.449219 50.488281 242.980469 50.253906 243.382812 49.78125 C 243.785156 49.308594 243.984375 48.683594 243.984375 47.902344 L 243.984375 47.636719 Z M 245.183594 47.140625 L 245.183594 51.300781 L 243.984375 51.300781 L 243.984375 50.195312 C 243.710938 50.636719 243.371094 50.964844 242.960938 51.175781 C 242.554688 51.386719 242.054688 51.492188 241.464844 51.492188 C 240.71875 51.492188 240.125 51.28125 239.683594 50.863281 C 239.242188 50.441406 239.023438 49.882812 239.023438 49.179688 C 239.023438 48.359375 239.296875 47.742188 239.84375 47.324219 C 240.394531 46.910156 241.214844 46.699219 242.304688 46.699219 L 243.984375 46.699219 L 243.984375 46.582031 C 243.984375 46.03125 243.804688 45.601562 243.441406 45.300781 C 243.078125 45 242.570312 44.851562 241.914062 44.851562 C 241.496094 44.851562 241.089844 44.898438 240.695312 45 C 240.300781 45.101562 239.921875 45.25 239.558594 45.449219 L 239.558594 44.339844 C 239.996094 44.171875 240.421875 44.046875 240.832031 43.960938 C 241.246094 43.878906 241.644531 43.835938 242.035156 43.835938 C 243.09375 43.835938 243.878906 44.109375 244.402344 44.65625 C 244.921875 45.203125 245.183594 46.03125 245.183594 47.140625 Z M 245.183594 47.140625 "/>
<path style=" stroke:none;fill-rule:nonzero;fill:rgb(0%,0%,0%);fill-opacity:1;" d="M 247.648438 44.011719 L 248.847656 44.011719 L 248.847656 51.300781 L 247.648438 51.300781 Z M 247.648438 41.171875 L 248.847656 41.171875 L 248.847656 42.691406 L 247.648438 42.691406 Z M 247.648438 41.171875 "/>
<path style=" stroke:none;fill-rule:nonzero;fill:rgb(0%,0%,0%);fill-opacity:1;" d="M 257.414062 46.898438 L 257.414062 51.300781 L 256.21875 51.300781 L 256.21875 46.941406 C 256.21875 46.25 256.082031 45.734375 255.8125 45.390625 C 255.542969 45.046875 255.140625 44.878906 254.601562 44.878906 C 253.957031 44.878906 253.445312 45.082031 253.070312 45.496094 C 252.699219 45.90625 252.511719 46.46875 252.511719 47.179688 L 252.511719 51.300781 L 251.308594 51.300781 L 251.308594 44.011719 L 252.511719 44.011719 L 252.511719 45.144531 C 252.800781 44.703125 253.136719 44.378906 253.523438 44.160156 C 253.914062 43.945312 254.363281 43.835938 254.871094 43.835938 C 255.707031 43.835938 256.339844 44.09375 256.769531 44.613281 C 257.199219 45.128906 257.414062 45.894531 257.414062 46.898438 Z M 257.414062 46.898438 "/>
<path style=" stroke:none;fill-rule:nonzero;fill:rgb(0%,0%,0%);fill-opacity:1;" d="M 267.355469 47.636719 C 266.390625 47.636719 265.71875 47.746094 265.34375 47.96875 C 264.96875 48.191406 264.785156 48.566406 264.785156 49.101562 C 264.785156 49.527344 264.925781 49.863281 265.203125 50.113281 C 265.484375 50.363281 265.867188 50.488281 266.347656 50.488281 C 267.011719 50.488281 267.546875 50.253906 267.945312 49.78125 C 268.347656 49.308594 268.546875 48.683594 268.546875 47.902344 L 268.546875 47.636719 Z M 269.746094 47.140625 L 269.746094 51.300781 L 268.546875 51.300781 L 268.546875 50.195312 C 268.273438 50.636719 267.933594 50.964844 267.527344 51.175781 C 267.117188 51.386719 266.617188 51.492188 266.027344 51.492188 C 265.28125 51.492188 264.6875 51.28125 264.246094 50.863281 C 263.804688 50.441406 263.585938 49.882812 263.585938 49.179688 C 263.585938 48.359375 263.859375 47.742188 264.410156 47.324219 C 264.957031 46.910156 265.777344 46.699219 266.867188 46.699219 L 268.546875 46.699219 L 268.546875 46.582031 C 268.546875 46.03125 268.367188 45.601562 268.003906 45.300781 C 267.640625 45 267.132812 44.851562 266.476562 44.851562 C 266.0625 44.851562 265.65625 44.898438 265.257812 45 C 264.863281 45.101562 264.484375 45.25 264.121094 45.449219 L 264.121094 44.339844 C 264.558594 44.171875 264.984375 44.046875 265.394531 43.960938 C 265.808594 43.878906 266.210938 43.835938 266.601562 43.835938 C 267.65625 43.835938 268.445312 44.109375 268.964844 44.65625 C 269.484375 45.203125 269.746094 46.03125 269.746094 47.140625 Z M 269.746094 47.140625 "/>
<path style=" stroke:none;fill-rule:nonzero;fill:rgb(0%,0%,0%);fill-opacity:1;" d="M 277.460938 44.289062 L 277.460938 45.410156 C 277.121094 45.222656 276.78125 45.082031 276.441406 44.988281 C 276.101562 44.898438 275.757812 44.851562 275.410156 44.851562 C 274.632812 44.851562 274.027344 45.097656 273.597656 45.589844 C 273.167969 46.082031 272.953125 46.773438 272.953125 47.664062 C 272.953125 48.554688 273.167969 49.246094 273.597656 49.738281 C 274.027344 50.230469 274.632812 50.476562 275.410156 50.476562 C 275.757812 50.476562 276.101562 50.429688 276.441406 50.335938 C 276.78125 50.242188 277.121094 50.101562 277.460938 49.914062 L 277.460938 51.023438 C 277.125 51.179688 276.78125 51.296875 276.421875 51.371094 C 276.0625 51.453125 275.683594 51.492188 275.28125 51.492188 C 274.179688 51.492188 273.308594 51.148438 272.660156 50.457031 C 272.015625 49.765625 271.691406 48.835938 271.691406 47.664062 C 271.691406 46.472656 272.019531 45.539062 272.671875 44.859375 C 273.324219 44.175781 274.222656 43.835938 275.359375 43.835938 C 275.726562 43.835938 276.085938 43.875 276.4375 43.949219 C 276.789062 44.023438 277.128906 44.136719 277.460938 44.289062 Z M 277.460938 44.289062 "/>
<path style=" stroke:none;fill-rule:nonzero;fill:rgb(0%,0%,0%);fill-opacity:1;" d="M 284.792969 44.289062 L 284.792969 45.410156 C 284.453125 45.222656 284.113281 45.082031 283.773438 44.988281 C 283.433594 44.898438 283.089844 44.851562 282.742188 44.851562 C 281.964844 44.851562 281.359375 45.097656 280.929688 45.589844 C 280.5 46.082031 280.285156 46.773438 280.285156 47.664062 C 280.285156 48.554688 280.5 49.246094 280.929688 49.738281 C 281.359375 50.230469 281.964844 50.476562 282.742188 50.476562 C 283.089844 50.476562 283.433594 50.429688 283.773438 50.335938 C 284.113281 50.242188 284.453125 50.101562 284.792969 49.914062 L 284.792969 51.023438 C 284.457031 51.179688 284.109375 51.296875 283.75 51.371094 C 283.394531 51.453125 283.015625 51.492188 282.609375 51.492188 C 281.511719 51.492188 280.636719 51.148438 279.992188 50.457031 C 279.34375 49.765625 279.023438 48.835938 279.023438 47.664062 C 279.023438 46.472656 279.347656 45.539062 280 44.859375 C 280.65625 44.175781 281.550781 43.835938 282.6875 43.835938 C 283.058594 43.835938 283.417969 43.875 283.769531 43.949219 C 284.121094 44.023438 284.460938 44.136719 284.792969 44.289062 Z M 284.792969 44.289062 "/>
<path style="fill:none;stroke-width:1.5;stroke-linecap:butt;stroke-linejoin:round;stroke:rgb(0%,50.196081%,0%);stroke-opacity:1;stroke-dasharray:9.6,2.4,1.5,2.4;stroke-miterlimit:4;" d="M 142.634766 49.655273 L 162.635742 49.655273 " transform="matrix(1.333333,0,0,1.333333,0.000000000000028422,0)"/>
<path style=" stroke:none;fill-rule:nonzero;fill:rgb(0%,0%,0%);fill-opacity:1;" d="M 227.910156 63.582031 L 229.179688 63.582031 L 231.457031 69.699219 L 233.738281 63.582031 L 235.007812 63.582031 L 232.269531 70.871094 L 230.644531 70.871094 Z M 227.910156 63.582031 "/>
<path style=" stroke:none;fill-rule:nonzero;fill:rgb(0%,0%,0%);fill-opacity:1;" d="M 239.972656 67.207031 C 239.007812 67.207031 238.335938 67.320312 237.960938 67.539062 C 237.585938 67.761719 237.402344 68.136719 237.402344 68.671875 C 237.402344 69.097656 237.542969 69.433594 237.820312 69.683594 C 238.101562 69.933594 238.484375 70.058594 238.964844 70.058594 C 239.628906 70.058594 240.164062 69.824219 240.5625 69.351562 C 240.964844 68.882812 241.164062 68.253906 241.164062 67.476562 L 241.164062 67.207031 Z M 242.363281 66.710938 L 242.363281 70.871094 L 241.164062 70.871094 L 241.164062 69.765625 C 240.890625 70.207031 240.550781 70.535156 240.144531 70.746094 C 239.734375 70.957031 239.234375 71.0625 238.644531 71.0625 C 237.898438 71.0625 237.304688 70.851562 236.863281 70.433594 C 236.421875 70.015625 236.203125 69.453125 236.203125 68.75 C 236.203125 67.929688 236.476562 67.3125 237.027344 66.894531 C 237.574219 66.480469 238.394531 66.269531 239.484375 66.269531 L 241.164062 66.269531 L 241.164062 66.152344 C 241.164062 65.601562 240.984375 65.175781 240.621094 64.871094 C 240.257812 64.570312 239.75 64.421875 239.09375 64.421875 C 238.679688 64.421875 238.273438 64.472656 237.875 64.570312 C 237.480469 64.671875 237.101562 64.820312 236.738281 65.019531 L 236.738281 63.914062 C 237.175781 63.742188 237.601562 63.617188 238.011719 63.535156 C 238.425781 63.449219 238.828125 63.40625 239.21875 63.40625 C 240.273438 63.40625 241.0625 63.679688 241.582031 64.226562 C 242.101562 64.773438 242.363281 65.601562 242.363281 66.710938 Z M 242.363281 66.710938 "/>
<path style=" stroke:none;fill-rule:nonzero;fill:rgb(0%,0%,0%);fill-opacity:1;" d="M 244.828125 60.742188 L 246.027344 60.742188 L 246.027344 70.871094 L 244.828125 70.871094 Z M 244.828125 60.742188 "/>
<path style=" stroke:none;fill-rule:nonzero;fill:rgb(0%,0%,0%);fill-opacity:1;" d="M 248.535156 63.582031 L 249.730469 63.582031 L 249.730469 70.871094 L 248.535156 70.871094 Z M 248.535156 60.742188 L 249.730469 60.742188 L 249.730469 62.261719 L 248.535156 62.261719 Z M 248.535156 60.742188 "/>
<path style=" stroke:none;fill-rule:nonzero;fill:rgb(0%,0%,0%);fill-opacity:1;" d="M 257.035156 64.6875 L 257.035156 60.742188 L 258.234375 60.742188 L 258.234375 70.871094 L 257.035156 70.871094 L 257.035156 69.777344 C 256.785156 70.210938 256.46875 70.535156 256.082031 70.746094 C 255.699219 70.957031 255.238281 71.0625 254.699219 71.0625 C 253.820312 71.0625 253.101562 70.710938 252.546875 70.007812 C 251.996094 69.304688 251.71875 68.378906 251.71875 67.234375 C 251.71875 66.085938 251.996094 65.164062 252.546875 64.460938 C 253.101562 63.757812 253.820312 63.40625 254.699219 63.40625 C 255.238281 63.40625 255.699219 63.511719 256.082031 63.722656 C 256.46875 63.933594 256.785156 64.253906 257.035156 64.6875 Z M 252.957031 67.234375 C 252.957031 68.113281 253.136719 68.804688 253.5 69.304688 C 253.863281 69.808594 254.359375 70.058594 254.992188 70.058594 C 255.625 70.058594 256.125 69.808594 256.488281 69.304688 C 256.855469 68.804688 257.035156 68.113281 257.035156 67.234375 C 257.035156 66.351562 256.855469 65.660156 256.488281 65.160156 C 256.125 64.660156 255.625 64.410156 254.992188 64.410156 C 254.359375 64.410156 253.863281 64.660156 253.5 65.160156 C 253.136719 65.660156 252.957031 66.351562 252.957031 67.234375 Z M 252.957031 67.234375 "/>
<path style=" stroke:none;fill-rule:nonzero;fill:rgb(0%,0%,0%);fill-opacity:1;" d="M 268.253906 67.207031 C 267.289062 67.207031 266.617188 67.320312 266.242188 67.539062 C 265.867188 67.761719 265.683594 68.136719 265.683594 68.671875 C 265.683594 69.097656 265.824219 69.433594 266.101562 69.683594 C 266.382812 69.933594 266.765625 70.058594 267.246094 70.058594 C 267.910156 70.058594 268.445312 69.824219 268.84375 69.351562 C 269.246094 68.882812 269.445312 68.253906 269.445312 67.476562 L 269.445312 67.207031 Z M 270.644531 66.710938 L 270.644531 70.871094 L 269.445312 70.871094 L 269.445312 69.765625 C 269.171875 70.207031 268.832031 70.535156 268.425781 70.746094 C 268.015625 70.957031 267.515625 71.0625 266.925781 71.0625 C 266.179688 71.0625 265.585938 70.851562 265.144531 70.433594 C 264.703125 70.015625 264.484375 69.453125 264.484375 68.75 C 264.484375 67.929688 264.757812 67.3125 265.308594 66.894531 C 265.855469 66.480469 266.675781 66.269531 267.765625 66.269531 L 269.445312 66.269531 L 269.445312 66.152344 C 269.445312 65.601562 269.265625 65.175781 268.902344 64.871094 C 268.539062 64.570312 268.03125 64.421875 267.375 64.421875 C 266.960938 64.421875 266.554688 64.472656 266.15625 64.570312 C 265.761719 64.671875 265.382812 64.820312 265.019531 65.019531 L 265.019531 63.914062 C 265.457031 63.742188 265.882812 63.617188 266.292969 63.535156 C 266.707031 63.449219 267.109375 63.40625 267.5 63.40625 C 268.554688 63.40625 269.34375 63.679688 269.863281 64.226562 C 270.382812 64.773438 270.644531 65.601562 270.644531 66.710938 Z M 270.644531 66.710938 "/>
<path style=" stroke:none;fill-rule:nonzero;fill:rgb(0%,0%,0%);fill-opacity:1;" d="M 278.359375 63.859375 L 278.359375 64.980469 C 278.019531 64.792969 277.679688 64.652344 277.339844 64.558594 C 277 64.46875 276.65625 64.421875 276.308594 64.421875 C 275.53125 64.421875 274.925781 64.667969 274.496094 65.160156 C 274.066406 65.652344 273.851562 66.34375 273.851562 67.234375 C 273.851562 68.125 274.066406 68.816406 274.496094 69.308594 C 274.925781 69.800781 275.53125 70.046875 276.308594 70.046875 C 276.65625 70.046875 277 70 277.339844 69.90625 C 277.679688 69.8125 278.019531 69.671875 278.359375 69.484375 L 278.359375 70.59375 C 278.023438 70.75 277.679688 70.867188 277.320312 70.945312 C 276.960938 71.023438 276.582031 71.0625 276.179688 71.0625 C 275.078125 71.0625 274.207031 70.71875 273.558594 70.027344 C 272.914062 69.335938 272.589844 68.40625 272.589844 67.234375 C 272.589844 66.042969 272.917969 65.109375 273.570312 64.429688 C 274.222656 63.746094 275.121094 63.40625 276.257812 63.40625 C 276.625 63.40625 276.984375 63.445312 277.335938 63.519531 C 277.6875 63.597656 278.027344 63.710938 278.359375 63.859375 Z M 278.359375 63.859375 "/>
<path style=" stroke:none;fill-rule:nonzero;fill:rgb(0%,0%,0%);fill-opacity:1;" d="M 285.691406 63.859375 L 285.691406 64.980469 C 285.351562 64.792969 285.011719 64.652344 284.671875 64.558594 C 284.332031 64.46875 283.988281 64.421875 283.640625 64.421875 C 282.863281 64.421875 282.257812 64.667969 281.828125 65.160156 C 281.398438 65.652344 281.183594 66.34375 281.183594 67.234375 C 281.183594 68.125 281.398438 68.816406 281.828125 69.308594 C 282.257812 69.800781 282.863281 70.046875 283.640625 70.046875 C 283.988281 70.046875 284.332031 70 284.671875 69.90625 C 285.011719 69.8125 285.351562 69.671875 285.691406 69.484375 L 285.691406 70.59375 C 285.355469 70.75 285.007812 70.867188 284.648438 70.945312 C 284.292969 71.023438 283.914062 71.0625 283.507812 71.0625 C 282.410156 71.0625 281.535156 70.71875 280.890625 70.027344 C 280.242188 69.335938 279.921875 68.40625 279.921875 67.234375 C 279.921875 66.042969 280.246094 65.109375 280.898438 64.429688 C 281.554688 63.746094 282.449219 63.40625 283.585938 63.40625 C 283.957031 63.40625 284.316406 63.445312 284.667969 63.519531 C 285.019531 63.597656 285.359375 63.710938 285.691406 63.859375 Z M 285.691406 63.859375 "/>
</g>
</svg>
