<?xml version="1.0" encoding="UTF-8"?>
<svg xmlns="http://www.w3.org/2000/svg" xmlns:xlink="http://www.w3.org/1999/xlink" width="326.827087" height="240.875" viewBox="0 0 326.827087 240.875" version="1.1">
<defs>
<clipPath id="clip1">
  <path d="M 164 9.601562 L 317.226562 9.601562 L 317.226562 146 L 164 146 Z M 164 9.601562 "/>
</clipPath>
<clipPath id="clip2">
  <path d="M 116 9.601562 L 317.226562 9.601562 L 317.226562 184 L 116 184 Z M 116 9.601562 "/>
</clipPath>
<clipPath id="clip3">
  <path d="M 80 9.601562 L 182 9.601562 L 182 190.800781 L 80 190.800781 Z M 80 9.601562 "/>
</clipPath>
<clipPath id="clip4">
  <path d="M 56.828125 93 L 130 93 L 130 190.800781 L 56.828125 190.800781 Z M 56.828125 93 "/>
</clipPath>
<clipPath id="clip5">
  <path d="M 56.828125 152 L 91 152 L 91 190.800781 L 56.828125 190.800781 Z M 56.828125 152 "/>
</clipPath>
<clipPath id="clip6">
  <path d="M 56.828125 188 L 59 188 L 59 190.800781 L 56.828125 190.800781 Z M 56.828125 188 "/>
</clipPath>
</defs>
<g id="surface1">
<path style=" stroke:none;fill-rule:nonzero;fill:rgb(100%,100%,100%);fill-opacity:1;" d="M 56.828125 190.800781 L 317.226562 190.800781 L 317.226562 9.601562 L 56.828125 9.601562 Z M 56.828125 190.800781 "/>
<path style="fill:none;stroke-width:0.8;stroke-linecap:butt;stroke-linejoin:round;stroke:rgb(0%,0%,0%);stroke-opacity:1;stroke-miterlimit:4;" d="M 0.000778198 0.000579834 L 0.000778198 3.498627 " transform="matrix(1.333333,0,0,1.333333,117.858337,190.800008)"/>
<path style=" stroke:none;fill-rule:nonzero;fill:rgb(0%,0%,0%);fill-opacity:1;" d="M 109.441406 205.53125 L 117.789062 205.53125 L 117.789062 206.636719 L 109.441406 206.636719 Z M 109.441406 205.53125 "/>
<path style=" stroke:none;fill-rule:nonzero;fill:rgb(0%,0%,0%);fill-opacity:1;" d="M 124.242188 201.691406 L 120.921875 206.878906 L 124.242188 206.878906 Z M 123.894531 200.542969 L 125.550781 200.542969 L 125.550781 206.878906 L 126.9375 206.878906 L 126.9375 207.972656 L 125.550781 207.972656 L 125.550781 210.265625 L 124.242188 210.265625 L 124.242188 207.972656 L 119.855469 207.972656 L 119.855469 206.703125 Z M 123.894531 200.542969 "/>
<path style="fill:none;stroke-width:0.8;stroke-linecap:butt;stroke-linejoin:round;stroke:rgb(0%,0%,0%);stroke-opacity:1;stroke-miterlimit:4;" d="M 0.000778198 0.000579834 L 0.000778198 3.498627 " transform="matrix(1.333333,0,0,1.333333,199.233337,190.800008)"/>
<path style=" stroke:none;fill-rule:nonzero;fill:rgb(0%,0%,0%);fill-opacity:1;" d="M 190.816406 205.53125 L 199.164062 205.53125 L 199.164062 206.636719 L 190.816406 206.636719 Z M 190.816406 205.53125 "/>
<path style=" stroke:none;fill-rule:nonzero;fill:rgb(0%,0%,0%);fill-opacity:1;" d="M 203.136719 209.160156 L 207.726562 209.160156 L 207.726562 210.265625 L 201.554688 210.265625 L 201.554688 209.160156 C 202.054688 208.640625 202.734375 207.949219 203.59375 207.078125 C 204.457031 206.207031 204.996094 205.648438 205.21875 205.394531 C 205.640625 204.921875 205.933594 204.523438 206.101562 204.195312 C 206.269531 203.867188 206.351562 203.542969 206.351562 203.226562 C 206.351562 202.710938 206.171875 202.289062 205.808594 201.964844 C 205.445312 201.636719 204.972656 201.476562 204.390625 201.476562 C 203.980469 201.476562 203.542969 201.546875 203.085938 201.691406 C 202.628906 201.832031 202.140625 202.050781 201.617188 202.339844 L 201.617188 201.011719 C 202.148438 200.800781 202.640625 200.640625 203.101562 200.53125 C 203.5625 200.421875 203.984375 200.367188 204.367188 200.367188 C 205.375 200.367188 206.175781 200.621094 206.773438 201.125 C 207.375 201.628906 207.671875 202.300781 207.671875 203.140625 C 207.671875 203.542969 207.597656 203.921875 207.449219 204.277344 C 207.300781 204.636719 207.027344 205.058594 206.632812 205.542969 C 206.523438 205.671875 206.179688 206.035156 205.597656 206.636719 C 205.015625 207.238281 204.195312 208.078125 203.136719 209.160156 Z M 203.136719 209.160156 "/>
<path style="fill:none;stroke-width:0.8;stroke-linecap:butt;stroke-linejoin:round;stroke:rgb(0%,0%,0%);stroke-opacity:1;stroke-miterlimit:4;" d="M 0.000778198 0.000579834 L 0.000778198 3.498627 " transform="matrix(1.333333,0,0,1.333333,280.608337,190.800008)"/>
<path style=" stroke:none;fill-rule:nonzero;fill:rgb(0%,0%,0%);fill-opacity:1;" d="M 280.605469 201.410156 C 279.929688 201.410156 279.417969 201.742188 279.078125 202.410156 C 278.738281 203.074219 278.566406 204.078125 278.566406 205.414062 C 278.566406 206.746094 278.738281 207.746094 279.078125 208.414062 C 279.417969 209.078125 279.929688 209.414062 280.605469 209.414062 C 281.285156 209.414062 281.796875 209.078125 282.136719 208.414062 C 282.480469 207.746094 282.648438 206.746094 282.648438 205.414062 C 282.648438 204.078125 282.480469 203.074219 282.136719 202.410156 C 281.796875 201.742188 281.285156 201.410156 280.605469 201.410156 Z M 280.605469 200.367188 C 281.695312 200.367188 282.527344 200.800781 283.101562 201.664062 C 283.675781 202.523438 283.964844 203.773438 283.964844 205.414062 C 283.964844 207.050781 283.675781 208.300781 283.101562 209.164062 C 282.527344 210.023438 281.695312 210.453125 280.605469 210.453125 C 279.515625 210.453125 278.683594 210.023438 278.109375 209.164062 C 277.535156 208.300781 277.246094 207.050781 277.246094 205.414062 C 277.246094 203.773438 277.535156 202.523438 278.109375 201.664062 C 278.683594 200.800781 279.515625 200.367188 280.605469 200.367188 Z M 280.605469 200.367188 "/>
<path style=" stroke:none;fill-rule:nonzero;fill:rgb(0%,0%,0%);fill-opacity:1;" d="M 186.160156 221.210938 L 183.519531 224.757812 L 186.292969 228.503906 L 184.882812 228.503906 L 182.757812 225.636719 L 180.636719 228.503906 L 179.222656 228.503906 L 182.054688 224.6875 L 179.464844 221.210938 L 180.878906 221.210938 L 182.808594 223.808594 L 184.742188 221.210938 Z M 186.160156 221.210938 "/>
<path style=" stroke:none;fill-rule:nonzero;fill:rgb(0%,0%,0%);fill-opacity:1;" d="M 188.382812 227.394531 L 190.53125 227.394531 L 190.53125 219.980469 L 188.195312 220.449219 L 188.195312 219.25 L 190.519531 218.78125 L 191.835938 218.78125 L 191.835938 227.394531 L 193.980469 227.394531 L 193.980469 228.503906 L 188.382812 228.503906 Z M 188.382812 227.394531 "/>
<path style="fill:none;stroke-width:0.8;stroke-linecap:butt;stroke-linejoin:round;stroke:rgb(0%,0%,0%);stroke-opacity:1;stroke-miterlimit:4;" d="M 0.000782013 0.000579834 L -3.500195 0.000579834 " transform="matrix(1.333333,0,0,1.333333,56.827082,190.800008)"/>
<path style=" stroke:none;fill-rule:nonzero;fill:rgb(0%,0%,0%);fill-opacity:1;" d="M 29.25 191.132812 L 37.597656 191.132812 L 37.597656 192.238281 L 29.25 192.238281 Z M 29.25 191.132812 "/>
<path style=" stroke:none;fill-rule:nonzero;fill:rgb(0%,0%,0%);fill-opacity:1;" d="M 44.417969 190.625 C 45.050781 190.757812 45.539062 191.039062 45.894531 191.464844 C 46.246094 191.890625 46.425781 192.414062 46.425781 193.039062 C 46.425781 194 46.09375 194.742188 45.433594 195.269531 C 44.773438 195.792969 43.835938 196.054688 42.621094 196.054688 C 42.214844 196.054688 41.796875 196.015625 41.363281 195.933594 C 40.929688 195.855469 40.484375 195.734375 40.027344 195.570312 L 40.027344 194.304688 C 40.390625 194.515625 40.789062 194.675781 41.222656 194.785156 C 41.65625 194.894531 42.109375 194.945312 42.585938 194.945312 C 43.40625 194.945312 44.035156 194.785156 44.46875 194.460938 C 44.898438 194.132812 45.117188 193.660156 45.117188 193.039062 C 45.117188 192.46875 44.914062 192.019531 44.511719 191.695312 C 44.113281 191.375 43.554688 191.210938 42.839844 191.210938 L 41.707031 191.210938 L 41.707031 190.128906 L 42.890625 190.128906 C 43.535156 190.128906 44.03125 190 44.375 189.742188 C 44.71875 189.484375 44.886719 189.113281 44.886719 188.625 C 44.886719 188.128906 44.710938 187.746094 44.355469 187.476562 C 44.003906 187.210938 43.5 187.074219 42.839844 187.074219 C 42.476562 187.074219 42.089844 187.117188 41.679688 187.195312 C 41.265625 187.273438 40.8125 187.394531 40.316406 187.558594 L 40.316406 186.386719 C 40.816406 186.246094 41.285156 186.144531 41.722656 186.074219 C 42.15625 186.003906 42.570312 185.96875 42.957031 185.96875 C 43.953125 185.96875 44.742188 186.195312 45.324219 186.652344 C 45.90625 187.105469 46.195312 187.714844 46.195312 188.488281 C 46.195312 189.027344 46.042969 189.480469 45.734375 189.851562 C 45.425781 190.222656 44.988281 190.480469 44.417969 190.625 Z M 44.417969 190.625 "/>
<path style="fill:none;stroke-width:0.8;stroke-linecap:butt;stroke-linejoin:round;stroke:rgb(0%,0%,0%);stroke-opacity:1;stroke-miterlimit:4;" d="M 0.000782013 0.0010376 L -3.500195 0.0010376 " transform="matrix(1.333333,0,0,1.333333,56.827082,144.33846)"/>
<path style=" stroke:none;fill-rule:nonzero;fill:rgb(0%,0%,0%);fill-opacity:1;" d="M 29.25 144.671875 L 37.597656 144.671875 L 37.597656 145.777344 L 29.25 145.777344 Z M 29.25 144.671875 "/>
<path style=" stroke:none;fill-rule:nonzero;fill:rgb(0%,0%,0%);fill-opacity:1;" d="M 41.566406 148.296875 L 46.15625 148.296875 L 46.15625 149.402344 L 39.988281 149.402344 L 39.988281 148.296875 C 40.484375 147.78125 41.164062 147.089844 42.027344 146.21875 C 42.886719 145.347656 43.429688 144.785156 43.652344 144.535156 C 44.070312 144.0625 44.367188 143.660156 44.53125 143.332031 C 44.699219 143.003906 44.785156 142.683594 44.785156 142.367188 C 44.785156 141.851562 44.601562 141.429688 44.242188 141.105469 C 43.878906 140.777344 43.40625 140.613281 42.824219 140.613281 C 42.410156 140.613281 41.976562 140.6875 41.519531 140.828125 C 41.0625 140.972656 40.570312 141.191406 40.050781 141.480469 L 40.050781 140.152344 C 40.582031 139.941406 41.074219 139.777344 41.535156 139.671875 C 41.996094 139.5625 42.417969 139.507812 42.800781 139.507812 C 43.804688 139.507812 44.609375 139.761719 45.207031 140.265625 C 45.804688 140.765625 46.105469 141.441406 46.105469 142.28125 C 46.105469 142.679688 46.03125 143.058594 45.878906 143.417969 C 45.730469 143.777344 45.460938 144.195312 45.0625 144.683594 C 44.957031 144.808594 44.609375 145.171875 44.027344 145.773438 C 43.449219 146.375 42.628906 147.21875 41.566406 148.296875 Z M 41.566406 148.296875 "/>
<path style="fill:none;stroke-width:0.8;stroke-linecap:butt;stroke-linejoin:round;stroke:rgb(0%,0%,0%);stroke-opacity:1;stroke-miterlimit:4;" d="M 0.000782013 -0.00144196 L -3.500195 -0.00144196 " transform="matrix(1.333333,0,0,1.333333,56.827082,97.876923)"/>
<path style=" stroke:none;fill-rule:nonzero;fill:rgb(0%,0%,0%);fill-opacity:1;" d="M 29.25 98.210938 L 37.597656 98.210938 L 37.597656 99.316406 L 29.25 99.316406 Z M 29.25 98.210938 "/>
<path style=" stroke:none;fill-rule:nonzero;fill:rgb(0%,0%,0%);fill-opacity:1;" d="M 40.664062 101.835938 L 42.8125 101.835938 L 42.8125 94.417969 L 40.472656 94.886719 L 40.472656 93.691406 L 42.800781 93.222656 L 44.113281 93.222656 L 44.113281 101.835938 L 46.261719 101.835938 L 46.261719 102.941406 L 40.664062 102.941406 Z M 40.664062 101.835938 "/>
<path style="fill:none;stroke-width:0.8;stroke-linecap:butt;stroke-linejoin:round;stroke:rgb(0%,0%,0%);stroke-opacity:1;stroke-miterlimit:4;" d="M 0.000782013 -0.000991821 L -3.500195 -0.000991821 " transform="matrix(1.333333,0,0,1.333333,56.827082,51.415385)"/>
<path style=" stroke:none;fill-rule:nonzero;fill:rgb(0%,0%,0%);fill-opacity:1;" d="M 43.246094 47.625 C 42.570312 47.625 42.0625 47.960938 41.722656 48.625 C 41.378906 49.292969 41.210938 50.292969 41.210938 51.632812 C 41.210938 52.964844 41.378906 53.960938 41.722656 54.628906 C 42.0625 55.296875 42.570312 55.628906 43.246094 55.628906 C 43.929688 55.628906 44.441406 55.296875 44.78125 54.628906 C 45.121094 53.960938 45.292969 52.964844 45.292969 51.632812 C 45.292969 50.292969 45.121094 49.292969 44.78125 48.625 C 44.441406 47.960938 43.929688 47.625 43.246094 47.625 Z M 43.246094 46.585938 C 44.339844 46.585938 45.171875 47.015625 45.746094 47.878906 C 46.320312 48.738281 46.609375 49.992188 46.609375 51.632812 C 46.609375 53.265625 46.320312 54.515625 45.746094 55.378906 C 45.171875 56.238281 44.339844 56.671875 43.246094 56.671875 C 42.160156 56.671875 41.328125 56.238281 40.753906 55.378906 C 40.175781 54.515625 39.890625 53.265625 39.890625 51.632812 C 39.890625 49.992188 40.175781 48.738281 40.753906 47.878906 C 41.328125 47.015625 42.160156 46.585938 43.246094 46.585938 Z M 43.246094 46.585938 "/>
<path style=" stroke:none;fill-rule:nonzero;fill:rgb(0%,0%,0%);fill-opacity:1;" d="M 12.441406 101.070312 L 15.988281 103.707031 L 19.730469 100.933594 L 19.730469 102.347656 L 16.867188 104.46875 L 19.730469 106.589844 L 19.730469 108.003906 L 15.917969 105.171875 L 12.441406 107.761719 L 12.441406 106.351562 L 15.039062 104.417969 L 12.441406 102.484375 Z M 12.441406 101.070312 "/>
<path style=" stroke:none;fill-rule:nonzero;fill:rgb(0%,0%,0%);fill-opacity:1;" d="M 18.625 97.9375 L 18.625 93.347656 L 19.730469 93.347656 L 19.730469 99.519531 L 18.625 99.519531 C 18.109375 99.019531 17.414062 98.339844 16.546875 97.480469 C 15.675781 96.617188 15.113281 96.074219 14.859375 95.855469 C 14.386719 95.433594 13.988281 95.140625 13.660156 94.972656 C 13.332031 94.804688 13.011719 94.722656 12.695312 94.722656 C 12.175781 94.722656 11.757812 94.902344 11.429688 95.265625 C 11.105469 95.628906 10.941406 96.101562 10.941406 96.683594 C 10.941406 97.09375 11.011719 97.53125 11.15625 97.988281 C 11.300781 98.445312 11.515625 98.933594 11.808594 99.457031 L 10.480469 99.457031 C 10.265625 98.925781 10.105469 98.429688 9.996094 97.972656 C 9.890625 97.511719 9.835938 97.089844 9.835938 96.707031 C 9.835938 95.699219 10.085938 94.898438 10.589844 94.300781 C 11.09375 93.699219 11.765625 93.402344 12.609375 93.402344 C 13.007812 93.402344 13.386719 93.476562 13.746094 93.625 C 14.101562 93.773438 14.523438 94.046875 15.011719 94.441406 C 15.136719 94.550781 15.5 94.894531 16.101562 95.476562 C 16.703125 96.058594 17.542969 96.878906 18.625 97.9375 Z M 18.625 97.9375 "/>
<path style="fill:none;stroke-width:1.5;stroke-linecap:square;stroke-linejoin:round;stroke:rgb(100%,49.803922%,5.490196%);stroke-opacity:1;stroke-miterlimit:4;" d="M 57.878906 108.254883 L 88.394531 80.375977 L 112.807617 63.650391 L 132.336914 53.616211 L 147.960938 47.592773 L 160.458984 43.980469 L 170.458008 41.8125 L 178.458984 40.511719 L 184.857422 39.732422 L 189.978516 39.263672 L 194.074219 38.982422 L 197.349609 38.81543 L 199.97168 38.712891 L 202.069336 38.651367 L 203.745117 38.616211 L 205.086914 38.595703 L 206.162109 38.581055 L 207.020508 38.572266 L 207.708984 38.569336 L 208.256836 38.566406 L 208.696289 38.563477 " transform="matrix(1.333333,0,0,1.333333,0,0)"/>
<path style="fill-rule:nonzero;fill:rgb(100%,49.803922%,5.490196%);fill-opacity:1;stroke-width:1;stroke-linecap:butt;stroke-linejoin:round;stroke:rgb(100%,49.803922%,5.490196%);stroke-opacity:1;stroke-miterlimit:4;" d="M 0.000782013 3.001038 C 0.794727 3.001038 1.559376 2.684631 2.121876 2.122131 C 2.684376 1.559631 3.000782 0.794983 3.000782 0.0010376 C 3.000782 -0.795837 2.684376 -1.557556 2.121876 -2.120056 C 1.559376 -2.682556 0.794727 -2.998962 0.000782013 -2.998962 C -0.796093 -2.998962 -1.557812 -2.682556 -2.120312 -2.120056 C -2.682812 -1.557556 -2.999218 -0.795837 -2.999218 0.0010376 C -2.999218 0.794983 -2.682812 1.559631 -2.120312 2.122131 C -1.557812 2.684631 -0.796093 3.001038 0.000782013 3.001038 Z M 0.000782013 3.001038 " transform="matrix(1.333333,0,0,1.333333,77.170832,144.33846)"/>
<path style="fill-rule:nonzero;fill:rgb(100%,49.803922%,5.490196%);fill-opacity:1;stroke-width:1;stroke-linecap:butt;stroke-linejoin:round;stroke:rgb(100%,49.803922%,5.490196%);stroke-opacity:1;stroke-miterlimit:4;" d="M 0.000778198 2.999054 C 0.794724 2.999054 1.559372 2.682648 2.121872 2.120148 C 2.684372 1.557648 3.000778 0.795929 3.000778 -0.000946045 C 3.000778 -0.794891 2.684372 -1.55954 2.121872 -2.12204 C 1.559372 -2.68454 0.794724 -3.000946 0.000778198 -3.000946 C -0.796097 -3.000946 -1.557816 -2.68454 -2.120316 -2.12204 C -2.682816 -1.55954 -2.999222 -0.794891 -2.999222 -0.000946045 C -2.999222 0.795929 -2.682816 1.557648 -2.120316 2.120148 C -1.557816 2.682648 -0.796097 2.999054 0.000778198 2.999054 Z M 0.000778198 2.999054 " transform="matrix(1.333333,0,0,1.333333,117.858337,107.16923)"/>
<path style="fill-rule:nonzero;fill:rgb(100%,49.803922%,5.490196%);fill-opacity:1;stroke-width:1;stroke-linecap:butt;stroke-linejoin:round;stroke:rgb(100%,49.803922%,5.490196%);stroke-opacity:1;stroke-miterlimit:4;" d="M 0.00136566 2.999622 C 0.795311 2.999622 1.559959 2.683216 2.122459 2.120716 C 2.684959 1.558216 3.001366 0.796497 3.001366 -0.000377655 C 3.001366 -0.794323 2.684959 -1.558971 2.122459 -2.121471 C 1.559959 -2.683971 0.795311 -3.000378 0.00136566 -3.000378 C -0.795509 -3.000378 -1.560158 -2.683971 -2.122658 -2.121471 C -2.685158 -1.558971 -2.998634 -0.794323 -2.998634 -0.000377655 C -2.998634 0.796497 -2.685158 1.558216 -2.122658 2.120716 C -1.560158 2.683216 -0.795509 2.999622 0.00136566 2.999622 Z M 0.00136566 2.999622 " transform="matrix(1.333333,0,0,1.333333,150.408335,84.867691)"/>
<path style="fill-rule:nonzero;fill:rgb(100%,49.803922%,5.490196%);fill-opacity:1;stroke-width:1;stroke-linecap:butt;stroke-linejoin:round;stroke:rgb(100%,49.803922%,5.490196%);stroke-opacity:1;stroke-miterlimit:4;" d="M 0.000671387 3.001137 C 0.794617 3.001137 1.559265 2.684731 2.121765 2.122231 C 2.684265 1.559731 3.000671 0.795082 3.000671 0.00113678 C 3.000671 -0.795738 2.684265 -1.557457 2.121765 -2.119957 C 1.559265 -2.682457 0.794617 -2.998863 0.000671387 -2.998863 C -0.796204 -2.998863 -1.557922 -2.682457 -2.120422 -2.119957 C -2.682922 -1.557457 -2.999329 -0.795738 -2.999329 0.00113678 C -2.999329 0.795082 -2.682922 1.559731 -2.120422 2.122231 C -1.557922 2.684731 -0.796204 3.001137 0.000671387 3.001137 Z M 0.000671387 3.001137 " transform="matrix(1.333333,0,0,1.333333,176.448324,71.486766)"/>
<path style="fill-rule:nonzero;fill:rgb(100%,49.803922%,5.490196%);fill-opacity:1;stroke-width:1;stroke-linecap:butt;stroke-linejoin:round;stroke:rgb(100%,49.803922%,5.490196%);stroke-opacity:1;stroke-miterlimit:4;" d="M 0.000686646 2.999111 C 0.794632 2.999111 1.55928 2.682705 2.12178 2.120205 C 2.68428 1.557705 3.000687 0.795986 3.000687 -0.000888824 C 3.000687 -0.794834 2.68428 -1.559483 2.12178 -2.121983 C 1.55928 -2.684483 0.794632 -3.000889 0.000686646 -3.000889 C -0.796188 -3.000889 -1.557907 -2.684483 -2.120407 -2.121983 C -2.682907 -1.559483 -2.999313 -0.794834 -2.999313 -0.000888824 C -2.999313 0.795986 -2.682907 1.557705 -2.120407 2.120205 C -1.557907 2.682705 -0.796188 2.999111 0.000686646 2.999111 Z M 0.000686646 2.999111 " transform="matrix(1.333333,0,0,1.333333,197.280334,63.458216)"/>
<path style="fill-rule:nonzero;fill:rgb(100%,49.803922%,5.490196%);fill-opacity:1;stroke-width:1;stroke-linecap:butt;stroke-linejoin:round;stroke:rgb(100%,49.803922%,5.490196%);stroke-opacity:1;stroke-miterlimit:4;" d="M -0.000473022 2.999657 C 0.796402 2.999657 1.558121 2.68325 2.120621 2.12075 C 2.683121 1.55825 2.999527 0.796532 2.999527 -0.000343323 C 2.999527 -0.794289 2.683121 -1.558937 2.120621 -2.121437 C 1.558121 -2.683937 0.796402 -3.000343 -0.000473022 -3.000343 C -0.794418 -3.000343 -1.559067 -2.683937 -2.121567 -2.121437 C -2.684067 -1.558937 -3.000473 -0.794289 -3.000473 -0.000343323 C -3.000473 0.796532 -2.684067 1.55825 -2.121567 2.12075 C -1.559067 2.68325 -0.794418 2.999657 -0.000473022 2.999657 Z M -0.000473022 2.999657 " transform="matrix(1.333333,0,0,1.333333,213.945943,58.641083)"/>
<path style="fill-rule:nonzero;fill:rgb(100%,49.803922%,5.490196%);fill-opacity:1;stroke-width:1;stroke-linecap:butt;stroke-linejoin:round;stroke:rgb(100%,49.803922%,5.490196%);stroke-opacity:1;stroke-miterlimit:4;" d="M -0.000808716 2.999397 C 0.796066 2.999397 1.557785 2.682991 2.120285 2.120491 C 2.682785 1.557991 2.999191 0.796272 2.999191 -0.000602722 C 2.999191 -0.794548 2.682785 -1.559196 2.120285 -2.121696 C 1.557785 -2.684196 0.796066 -3.000603 -0.000808716 -3.000603 C -0.794754 -3.000603 -1.559402 -2.684196 -2.121902 -2.121696 C -2.684402 -1.559196 -3.000809 -0.794548 -3.000809 -0.000602722 C -3.000809 0.796272 -2.684402 1.557991 -2.121902 2.120491 C -1.559402 2.682991 -0.794754 2.999397 -0.000808716 2.999397 Z M -0.000808716 2.999397 " transform="matrix(1.333333,0,0,1.333333,227.278422,55.750804)"/>
<path style="fill-rule:nonzero;fill:rgb(100%,49.803922%,5.490196%);fill-opacity:1;stroke-width:1;stroke-linecap:butt;stroke-linejoin:round;stroke:rgb(100%,49.803922%,5.490196%);stroke-opacity:1;stroke-miterlimit:4;" d="M 0.000686646 2.999241 C 0.794632 2.999241 1.55928 2.682835 2.12178 2.120335 C 2.68428 1.557835 3.000687 0.796116 3.000687 -0.000759125 C 3.000687 -0.794704 2.68428 -1.559353 2.12178 -2.121853 C 1.55928 -2.684353 0.794632 -3.000759 0.000686646 -3.000759 C -0.796188 -3.000759 -1.557907 -2.684353 -2.120407 -2.121853 C -2.682907 -1.559353 -2.999313 -0.794704 -2.999313 -0.000759125 C -2.999313 0.796116 -2.682907 1.557835 -2.120407 2.120335 C -1.557907 2.682835 -0.796188 2.999241 0.000686646 2.999241 Z M 0.000686646 2.999241 " transform="matrix(1.333333,0,0,1.333333,237.944397,54.016637)"/>
<path style="fill-rule:nonzero;fill:rgb(100%,49.803922%,5.490196%);fill-opacity:1;stroke-width:1;stroke-linecap:butt;stroke-linejoin:round;stroke:rgb(100%,49.803922%,5.490196%);stroke-opacity:1;stroke-miterlimit:4;" d="M -0.000473022 3.00032 C 0.796402 3.00032 1.558121 2.683914 2.120621 2.121414 C 2.683121 1.558914 2.999527 0.794266 2.999527 0.000320435 C 2.999527 -0.796555 2.683121 -1.558273 2.120621 -2.120773 C 1.558121 -2.683273 0.796402 -2.99968 -0.000473022 -2.99968 C -0.794418 -2.99968 -1.559067 -2.683273 -2.121567 -2.120773 C -2.684067 -1.558273 -3.000473 -0.796555 -3.000473 0.000320435 C -3.000473 0.794266 -2.684067 1.558914 -2.121567 2.121414 C -1.559067 2.683914 -0.794418 3.00032 -0.000473022 3.00032 Z M -0.000473022 3.00032 " transform="matrix(1.333333,0,0,1.333333,246.477193,52.976135)"/>
<path style="fill-rule:nonzero;fill:rgb(100%,49.803922%,5.490196%);fill-opacity:1;stroke-width:1;stroke-linecap:butt;stroke-linejoin:round;stroke:rgb(100%,49.803922%,5.490196%);stroke-opacity:1;stroke-miterlimit:4;" d="M 0.000961304 2.999794 C 0.794907 2.999794 1.559555 2.683388 2.122055 2.120888 C 2.684555 1.558388 3.000961 0.796669 3.000961 -0.000205994 C 3.000961 -0.794151 2.684555 -1.5588 2.122055 -2.1213 C 1.559555 -2.6838 0.794907 -3.000206 0.000961304 -3.000206 C -0.795914 -3.000206 -1.557632 -2.6838 -2.120132 -2.1213 C -2.682632 -1.5588 -2.999039 -0.794151 -2.999039 -0.000205994 C -2.999039 0.796669 -2.682632 1.558388 -2.120132 2.120888 C -1.557632 2.683388 -0.795914 2.999794 0.000961304 2.999794 Z M 0.000961304 2.999794 " transform="matrix(1.333333,0,0,1.333333,253.303406,52.351837)"/>
<path style="fill-rule:nonzero;fill:rgb(100%,49.803922%,5.490196%);fill-opacity:1;stroke-width:1;stroke-linecap:butt;stroke-linejoin:round;stroke:rgb(100%,49.803922%,5.490196%);stroke-opacity:1;stroke-miterlimit:4;" d="M 0.000915527 2.999481 C 0.794861 2.999481 1.559509 2.683075 2.122009 2.120575 C 2.684509 1.558075 3.000916 0.796356 3.000916 -0.000518799 C 3.000916 -0.794464 2.684509 -1.559113 2.122009 -2.121613 C 1.559509 -2.684113 0.794861 -3.000519 0.000915527 -3.000519 C -0.795959 -3.000519 -1.557678 -2.684113 -2.120178 -2.121613 C -2.682678 -1.559113 -2.999084 -0.794464 -2.999084 -0.000518799 C -2.999084 0.796356 -2.682678 1.558075 -2.120178 2.120575 C -1.557678 2.683075 -0.795959 2.999481 0.000915527 2.999481 Z M 0.000915527 2.999481 " transform="matrix(1.333333,0,0,1.333333,258.764404,51.977254)"/>
<path style="fill-rule:nonzero;fill:rgb(100%,49.803922%,5.490196%);fill-opacity:1;stroke-width:1;stroke-linecap:butt;stroke-linejoin:round;stroke:rgb(100%,49.803922%,5.490196%);stroke-opacity:1;stroke-miterlimit:4;" d="M -0.000274658 3.001049 C 0.7966 3.001049 1.558319 2.684643 2.120819 2.122143 C 2.683319 1.559643 2.999725 0.794994 2.999725 0.00104904 C 2.999725 -0.795826 2.683319 -1.557545 2.120819 -2.120045 C 1.558319 -2.682545 0.7966 -2.998951 -0.000274658 -2.998951 C -0.79422 -2.998951 -1.558868 -2.682545 -2.121368 -2.120045 C -2.683868 -1.557545 -3.000275 -0.795826 -3.000275 0.00104904 C -3.000275 0.794994 -2.683868 1.559643 -2.121368 2.122143 C -1.558868 2.684643 -0.79422 3.001049 -0.000274658 3.001049 Z M -0.000274658 3.001049 " transform="matrix(1.333333,0,0,1.333333,263.133179,51.752508)"/>
<path style="fill-rule:nonzero;fill:rgb(100%,49.803922%,5.490196%);fill-opacity:1;stroke-width:1;stroke-linecap:butt;stroke-linejoin:round;stroke:rgb(100%,49.803922%,5.490196%);stroke-opacity:1;stroke-miterlimit:4;" d="M 0.000518799 2.999649 C 0.794464 2.999649 1.559113 2.683243 2.121613 2.120743 C 2.684113 1.558243 3.000519 0.796524 3.000519 -0.000350952 C 3.000519 -0.794296 2.684113 -1.558945 2.121613 -2.121445 C 1.559113 -2.683945 0.794464 -3.000351 0.000518799 -3.000351 C -0.796356 -3.000351 -1.558075 -2.683945 -2.120575 -2.121445 C -2.683075 -1.558945 -2.999481 -0.794296 -2.999481 -0.000350952 C -2.999481 0.796524 -2.683075 1.558243 -2.120575 2.120743 C -1.558075 2.683243 -0.796356 2.999649 0.000518799 2.999649 Z M 0.000518799 2.999649 " transform="matrix(1.333333,0,0,1.333333,266.628215,51.617655)"/>
<path style="fill-rule:nonzero;fill:rgb(100%,49.803922%,5.490196%);fill-opacity:1;stroke-width:1;stroke-linecap:butt;stroke-linejoin:round;stroke:rgb(100%,49.803922%,5.490196%);stroke-opacity:1;stroke-miterlimit:4;" d="M 0.00115967 2.998806 C 0.795105 2.998806 1.559753 2.685329 2.122253 2.1199 C 2.684753 1.5574 3.00116 0.795681 3.00116 -0.001194 C 3.00116 -0.795139 2.684753 -1.559788 2.122253 -2.122288 C 1.559753 -2.684788 0.795105 -3.001194 0.00115967 -3.001194 C -0.795715 -3.001194 -1.557434 -2.684788 -2.119934 -2.122288 C -2.685364 -1.559788 -2.99884 -0.795139 -2.99884 -0.001194 C -2.99884 0.795681 -2.685364 1.5574 -2.119934 2.1199 C -1.557434 2.685329 -0.795715 2.998806 0.00115967 2.998806 Z M 0.00115967 2.998806 " transform="matrix(1.333333,0,0,1.333333,269.424235,51.536748)"/>
<path style="fill-rule:nonzero;fill:rgb(100%,49.803922%,5.490196%);fill-opacity:1;stroke-width:1;stroke-linecap:butt;stroke-linejoin:round;stroke:rgb(100%,49.803922%,5.490196%);stroke-opacity:1;stroke-miterlimit:4;" d="M -0.000671387 3.000057 C 0.796204 3.000057 1.557922 2.683651 2.120422 2.121151 C 2.682922 1.558651 2.999329 0.796932 2.999329 0.0000572205 C 2.999329 -0.796818 2.682922 -1.558537 2.120422 -2.121037 C 1.557922 -2.683537 0.796204 -2.999943 -0.000671387 -2.999943 C -0.794617 -2.999943 -1.559265 -2.683537 -2.121765 -2.121037 C -2.684265 -1.558537 -3.000671 -0.796818 -3.000671 0.0000572205 C -3.000671 0.796932 -2.684265 1.558651 -2.121765 2.121151 C -1.559265 2.683651 -0.794617 3.000057 -0.000671387 3.000057 Z M -0.000671387 3.000057 " transform="matrix(1.333333,0,0,1.333333,271.661051,51.488205)"/>
<path style="fill-rule:nonzero;fill:rgb(100%,49.803922%,5.490196%);fill-opacity:1;stroke-width:1;stroke-linecap:butt;stroke-linejoin:round;stroke:rgb(100%,49.803922%,5.490196%);stroke-opacity:1;stroke-miterlimit:4;" d="M -0.000976562 3.001396 C 0.795898 3.001396 1.557617 2.68499 2.120117 2.12249 C 2.682617 1.55999 2.999023 0.795341 2.999023 0.00139618 C 2.999023 -0.795479 2.682617 -1.560127 2.120117 -2.122627 C 1.557617 -2.685127 0.795898 -2.998604 -0.000976562 -2.998604 C -0.794922 -2.998604 -1.55957 -2.685127 -2.12207 -2.122627 C -2.68457 -1.560127 -3.000977 -0.795479 -3.000977 0.00139618 C -3.000977 0.795341 -2.68457 1.55999 -2.12207 2.12249 C -1.55957 2.68499 -0.794922 3.001396 -0.000976562 3.001396 Z M -0.000976562 3.001396 " transform="matrix(1.333333,0,0,1.333333,273.450521,51.459076)"/>
<path style="fill-rule:nonzero;fill:rgb(100%,49.803922%,5.490196%);fill-opacity:1;stroke-width:1;stroke-linecap:butt;stroke-linejoin:round;stroke:rgb(100%,49.803922%,5.490196%);stroke-opacity:1;stroke-miterlimit:4;" d="M 0.000549316 2.999855 C 0.794495 2.999855 1.559143 2.683449 2.121643 2.120949 C 2.684143 1.558449 3.000549 0.79673 3.000549 -0.000144958 C 3.000549 -0.79702 2.684143 -1.558739 2.121643 -2.121239 C 1.559143 -2.683739 0.794495 -3.000145 0.000549316 -3.000145 C -0.796326 -3.000145 -1.558044 -2.683739 -2.120544 -2.121239 C -2.683044 -1.558739 -2.999451 -0.79702 -2.999451 -0.000144958 C -2.999451 0.79673 -2.683044 1.558449 -2.120544 2.120949 C -1.558044 2.683449 -0.796326 2.999855 0.000549316 2.999855 Z M 0.000549316 2.999855 " transform="matrix(1.333333,0,0,1.333333,274.88208,51.4416)"/>
<path style="fill-rule:nonzero;fill:rgb(100%,49.803922%,5.490196%);fill-opacity:1;stroke-width:1;stroke-linecap:butt;stroke-linejoin:round;stroke:rgb(100%,49.803922%,5.490196%);stroke-opacity:1;stroke-miterlimit:4;" d="M 0.0000152588 2.998932 C 0.79689 2.998932 1.558609 2.682526 2.121109 2.120026 C 2.683609 1.557526 3.000015 0.795807 3.000015 -0.00106812 C 3.000015 -0.795013 2.683609 -1.559662 2.121109 -2.122162 C 1.558609 -2.684662 0.79689 -3.001068 0.0000152588 -3.001068 C -0.79686 -3.001068 -1.558578 -2.684662 -2.121078 -2.122162 C -2.683578 -1.559662 -2.999985 -0.795013 -2.999985 -0.00106812 C -2.999985 0.795807 -2.683578 1.557526 -2.121078 2.120026 C -1.558578 2.682526 -0.79686 2.998932 0.0000152588 2.998932 Z M 0.0000152588 2.998932 " transform="matrix(1.333333,0,0,1.333333,276.027323,51.431112)"/>
<path style="fill-rule:nonzero;fill:rgb(100%,49.803922%,5.490196%);fill-opacity:1;stroke-width:1;stroke-linecap:butt;stroke-linejoin:round;stroke:rgb(100%,49.803922%,5.490196%);stroke-opacity:1;stroke-miterlimit:4;" d="M 0.00134277 3.000721 C 0.795288 3.000721 1.559937 2.684315 2.122437 2.121815 C 2.684937 1.559315 3.001343 0.794666 3.001343 0.000720978 C 3.001343 -0.796154 2.684937 -1.557873 2.122437 -2.120373 C 1.559937 -2.682873 0.795288 -2.999279 0.00134277 -2.999279 C -0.795532 -2.999279 -1.560181 -2.682873 -2.122681 -2.120373 C -2.685181 -1.557873 -2.998657 -0.796154 -2.998657 0.000720978 C -2.998657 0.794666 -2.685181 1.559315 -2.122681 2.121815 C -1.560181 2.684315 -0.795532 3.000721 0.00134277 3.000721 Z M 0.00134277 3.000721 " transform="matrix(1.333333,0,0,1.333333,276.943522,51.42482)"/>
<path style="fill-rule:nonzero;fill:rgb(100%,49.803922%,5.490196%);fill-opacity:1;stroke-width:1;stroke-linecap:butt;stroke-linejoin:round;stroke:rgb(100%,49.803922%,5.490196%);stroke-opacity:1;stroke-miterlimit:4;" d="M -0.000534058 3.000622 C 0.796341 3.000622 1.55806 2.684216 2.12056 2.121716 C 2.68306 1.559216 2.999466 0.794567 2.999466 0.000621796 C 2.999466 -0.796253 2.68306 -1.557972 2.12056 -2.120472 C 1.55806 -2.682972 0.796341 -2.999378 -0.000534058 -2.999378 C -0.794479 -2.999378 -1.559128 -2.682972 -2.121628 -2.120472 C -2.684128 -1.557972 -3.000534 -0.796253 -3.000534 0.000621796 C -3.000534 0.794567 -2.684128 1.559216 -2.121628 2.121716 C -1.559128 2.684216 -0.794479 3.000622 -0.000534058 3.000622 Z M -0.000534058 3.000622 " transform="matrix(1.333333,0,0,1.333333,277.676493,51.421046)"/>
<path style="fill-rule:nonzero;fill:rgb(100%,49.803922%,5.490196%);fill-opacity:1;stroke-width:1;stroke-linecap:butt;stroke-linejoin:round;stroke:rgb(100%,49.803922%,5.490196%);stroke-opacity:1;stroke-miterlimit:4;" d="M -0.000854492 2.99939 C 0.796021 2.99939 1.557739 2.682983 2.120239 2.120483 C 2.682739 1.557983 2.999146 0.796265 2.999146 -0.000610352 C 2.999146 -0.794556 2.682739 -1.559204 2.120239 -2.121704 C 1.557739 -2.684204 0.796021 -3.00061 -0.000854492 -3.00061 C -0.7948 -3.00061 -1.559448 -2.684204 -2.121948 -2.121704 C -2.684448 -1.559204 -3.000854 -0.794556 -3.000854 -0.000610352 C -3.000854 0.796265 -2.684448 1.557983 -2.121948 2.120483 C -1.559448 2.682983 -0.7948 2.99939 -0.000854492 2.99939 Z M -0.000854492 2.99939 " transform="matrix(1.333333,0,0,1.333333,278.262858,51.418783)"/>
<g clip-path="url(#clip1)" clip-rule="nonzero">
<path style="fill:none;stroke-width:1.5;stroke-linecap:butt;stroke-linejoin:round;stroke:rgb(12.156863%,46.666667%,70.588237%);stroke-opacity:1;stroke-miterlimit:4;" d="M 133.388672 7.201172 L 131.355469 10.68457 L 131.115234 11.150391 L 129.618164 14.167969 L 128.121094 17.654297 L 128.06543 17.8125 L 126.899414 21.137695 L 125.900391 24.624023 L 125.124023 28.107422 L 125.012695 28.804688 L 124.584961 31.59375 L 124.262695 35.077148 L 124.157227 38.560547 L 124.262695 42.046875 L 124.584961 45.530273 L 125.012695 48.319336 L 125.124023 49.016602 L 125.900391 52.5 L 126.899414 55.983398 L 128.06543 59.311523 L 128.121094 59.469727 L 129.618164 62.953125 L 131.115234 65.973633 L 131.355469 66.439453 L 133.388672 69.922852 L 134.167969 71.115234 L 135.723633 73.40625 L 137.217773 75.398438 L 138.386719 76.892578 L 140.270508 79.089844 L 141.421875 80.375977 L 143.323242 82.327148 L 144.881836 83.862305 L 146.373047 85.21582 L 148.828125 87.345703 L 149.425781 87.826172 L 152.475586 90.169922 L 153.383789 90.832031 L 155.52832 92.291016 L 158.581055 94.259766 L 158.671875 94.31543 L 161.630859 96.005859 L 164.683594 97.640625 L 164.99707 97.798828 L 167.733398 99.09375 L 170.786133 100.438477 L 172.860352 101.285156 L 173.838867 101.660156 L 176.888672 102.744141 L 179.941406 103.734375 L 182.991211 104.62793 L 183.530273 104.768555 L 186.043945 105.395508 L 189.09668 106.063477 L 192.146484 106.646484 L 195.199219 107.135742 L 198.249023 107.540039 L 201.301758 107.850586 L 204.354492 108.076172 L 207.404297 108.208008 L 210.457031 108.254883 L 213.506836 108.208008 L 216.55957 108.076172 L 219.612305 107.850586 L 222.662109 107.540039 L 225.714844 107.135742 L 228.764648 106.646484 L 231.817383 106.063477 L 234.870117 105.395508 L 237.380859 104.768555 L 237.919922 104.62793 " transform="matrix(1.333333,0,0,1.333333,0,0)"/>
</g>
<g clip-path="url(#clip2)" clip-rule="nonzero">
<path style="fill:none;stroke-width:1.5;stroke-linecap:butt;stroke-linejoin:round;stroke:rgb(12.156863%,46.666667%,70.588237%);stroke-opacity:1;stroke-miterlimit:4;" d="M 94.740234 7.201172 L 94.49707 7.816406 L 93.386719 10.68457 L 92.197266 14.167969 L 91.444336 16.716797 L 91.174805 17.654297 L 90.325195 21.137695 L 89.630859 24.624023 L 89.088867 28.107422 L 88.702148 31.59375 L 88.470703 35.077148 L 88.394531 38.560547 L 88.470703 42.046875 L 88.702148 45.530273 L 89.088867 49.016602 L 89.630859 52.5 L 90.325195 55.983398 L 91.174805 59.469727 L 91.444336 60.407227 L 92.197266 62.953125 L 93.386719 66.439453 L 94.49707 69.307617 L 94.740234 69.922852 L 96.287109 73.40625 L 97.549805 75.978516 L 98.006836 76.892578 L 99.931641 80.375977 L 100.599609 81.492188 L 102.061523 83.862305 L 103.652344 86.25 L 104.402344 87.345703 L 106.702148 90.47168 L 106.977539 90.832031 L 109.754883 94.259766 L 109.801758 94.31543 L 112.807617 97.693359 L 112.904297 97.798828 L 115.857422 100.836914 L 116.308594 101.285156 L 118.910156 103.734375 L 120.046875 104.768555 L 121.959961 106.420898 L 124.157227 108.254883 L 125.012695 108.93457 L 128.06543 111.272461 L 128.698242 111.738281 L 131.115234 113.44043 L 133.749023 115.22168 L 134.167969 115.494141 L 137.217773 117.392578 L 139.426758 118.708008 L 140.270508 119.188477 L 143.323242 120.858398 L 145.87793 122.191406 L 146.373047 122.44043 L 149.425781 123.899414 L 152.475586 125.285156 L 153.383789 125.677734 L 155.52832 126.56543 L 158.581055 127.760742 L 161.630859 128.888672 L 162.418945 129.161133 L 164.683594 129.916992 L 167.733398 130.87207 L 170.786133 131.759766 L 173.838867 132.580078 L 174.102539 132.647461 L 176.888672 133.3125 L 179.941406 133.977539 L 182.991211 134.578125 L 186.043945 135.117188 L 189.09668 135.591797 L 192.146484 136.004883 L 193.256836 136.130859 L 195.199219 136.344727 L 198.249023 136.620117 L 201.301758 136.833984 L 204.354492 136.986328 L 207.404297 137.077148 L 210.457031 137.109375 L 213.506836 137.077148 L 216.55957 136.986328 L 219.612305 136.833984 L 222.662109 136.620117 L 225.714844 136.344727 L 227.657227 136.130859 L 228.764648 136.004883 L 231.817383 135.591797 L 234.870117 135.117188 L 237.919922 134.578125 " transform="matrix(1.333333,0,0,1.333333,0,0)"/>
</g>
<g clip-path="url(#clip3)" clip-rule="nonzero">
<path style="fill:none;stroke-width:1.5;stroke-linecap:butt;stroke-linejoin:round;stroke:rgb(12.156863%,46.666667%,70.588237%);stroke-opacity:1;stroke-miterlimit:4;" d="M 66.102539 7.201172 L 65.009766 10.68457 L 64.045898 14.167969 L 63.981445 14.4375 L 63.225586 17.654297 L 62.53418 21.137695 L 61.96875 24.624023 L 61.526367 28.107422 L 61.212891 31.59375 L 61.025391 35.077148 L 60.960938 38.560547 L 61.025391 42.046875 L 61.212891 45.530273 L 61.526367 49.016602 L 61.96875 52.5 L 62.53418 55.983398 L 63.225586 59.469727 L 63.981445 62.686523 L 64.045898 62.953125 L 65.009766 66.439453 L 66.102539 69.922852 L 67.03418 72.583008 L 67.327148 73.40625 L 68.707031 76.892578 L 70.083984 80.074219 L 70.21875 80.375977 L 71.894531 83.862305 L 73.136719 86.25 L 73.719727 87.345703 L 75.706055 90.832031 L 76.186523 91.617188 L 77.871094 94.31543 L 79.239258 96.375 L 80.208984 97.798828 L 82.291992 100.6875 L 82.731445 101.285156 L 85.341797 104.62793 L 85.456055 104.768555 L 88.394531 108.254883 L 91.444336 111.612305 L 91.564453 111.738281 L 94.49707 114.738281 L 94.986328 115.22168 L 97.549805 117.662109 L 98.677734 118.708008 L 100.599609 120.413086 L 102.662109 122.191406 L 103.652344 123.008789 L 106.702148 125.463867 L 106.977539 125.677734 L 109.754883 127.760742 L 111.679688 129.161133 L 112.807617 129.949219 L 115.857422 132.020508 L 116.80957 132.647461 L 118.910156 133.977539 L 121.959961 135.84668 L 122.443359 136.130859 L 125.012695 137.598633 L 128.06543 139.280273 L 128.698242 139.614258 L 131.115234 140.856445 L 134.167969 142.362305 L 135.723633 143.100586 " transform="matrix(1.333333,0,0,1.333333,0,0)"/>
</g>
<g clip-path="url(#clip4)" clip-rule="nonzero">
<path style="fill:none;stroke-width:1.5;stroke-linecap:butt;stroke-linejoin:round;stroke:rgb(12.156863%,46.666667%,70.588237%);stroke-opacity:1;stroke-miterlimit:4;" d="M 42.621094 71.115234 L 43.321289 73.40625 L 44.496094 76.892578 L 45.670898 80.074219 L 45.785156 80.375977 L 47.211914 83.862305 L 48.723633 87.28125 L 48.75293 87.345703 L 50.4375 90.832031 L 51.776367 93.416016 L 52.248047 94.31543 L 54.205078 97.798828 L 54.826172 98.844727 L 56.305664 101.285156 L 57.878906 103.734375 L 58.555664 104.768555 L 60.928711 108.208008 L 60.960938 108.254883 L 63.541992 111.738281 L 63.981445 112.306641 L 66.292969 115.22168 L 67.03418 116.112305 L 69.231445 118.708008 L 70.083984 119.671875 L 72.363281 122.191406 L 73.136719 123.008789 L 75.706055 125.677734 L 76.186523 126.155273 L 79.239258 129.125977 L 79.274414 129.161133 L 82.291992 131.923828 L 83.100586 132.647461 L 85.341797 134.578125 L 87.1875 136.130859 L 88.394531 137.109375 L 91.444336 139.523438 L 91.564453 139.614258 L 94.49707 141.799805 L 96.287109 143.100586 " transform="matrix(1.333333,0,0,1.333333,0,0)"/>
</g>
<g clip-path="url(#clip5)" clip-rule="nonzero">
<path style="fill:none;stroke-width:1.5;stroke-linecap:butt;stroke-linejoin:round;stroke:rgb(12.156863%,46.666667%,70.588237%);stroke-opacity:1;stroke-miterlimit:4;" d="M 42.621094 115.494141 L 44.944336 118.708008 L 45.670898 119.671875 L 47.610352 122.191406 L 48.723633 123.580078 L 50.4375 125.677734 L 51.776367 127.248047 L 53.43457 129.161133 L 54.826172 130.708008 L 56.610352 132.647461 L 57.878906 133.977539 L 59.973633 136.130859 L 60.928711 137.077148 L 63.541992 139.614258 L 63.981445 140.030273 L 67.03418 142.833984 L 67.327148 143.100586 " transform="matrix(1.333333,0,0,1.333333,0,0)"/>
</g>
<g clip-path="url(#clip6)" clip-rule="nonzero">
<path style="fill:none;stroke-width:1.5;stroke-linecap:butt;stroke-linejoin:round;stroke:rgb(12.156863%,46.666667%,70.588237%);stroke-opacity:1;stroke-miterlimit:4;" d="M 42.621094 142.362305 L 43.321289 143.100586 " transform="matrix(1.333333,0,0,1.333333,0,0)"/>
</g>
<path style="fill:none;stroke-width:0.8;stroke-linecap:square;stroke-linejoin:miter;stroke:rgb(0%,0%,0%);stroke-opacity:1;stroke-miterlimit:4;" d="M 42.621094 143.100586 L 42.621094 7.201172 " transform="matrix(1.333333,0,0,1.333333,0,0)"/>
<path style="fill:none;stroke-width:0.8;stroke-linecap:square;stroke-linejoin:miter;stroke:rgb(0%,0%,0%);stroke-opacity:1;stroke-miterlimit:4;" d="M 237.919922 143.100586 L 237.919922 7.201172 " transform="matrix(1.333333,0,0,1.333333,0,0)"/>
<path style="fill:none;stroke-width:0.8;stroke-linecap:square;stroke-linejoin:miter;stroke:rgb(0%,0%,0%);stroke-opacity:1;stroke-miterlimit:4;" d="M 42.621094 143.100586 L 237.919922 143.100586 " transform="matrix(1.333333,0,0,1.333333,0,0)"/>
<path style="fill:none;stroke-width:0.8;stroke-linecap:square;stroke-linejoin:miter;stroke:rgb(0%,0%,0%);stroke-opacity:1;stroke-miterlimit:4;" d="M 42.621094 7.201172 L 237.919922 7.201172 " transform="matrix(1.333333,0,0,1.333333,0,0)"/>
</g>
</svg>
