<?xml version="1.0" encoding="UTF-8"?>
<svg xmlns="http://www.w3.org/2000/svg" xmlns:xlink="http://www.w3.org/1999/xlink" width="349.583333" height="240.875" viewBox="0 0 349.583333 240.875" version="1.1">
<defs>
<clipPath id="clip1">
  <path d="M 113 9.601562 L 116 9.601562 L 116 190.800781 L 113 190.800781 Z M 113 9.601562 "/>
</clipPath>
<clipPath id="clip2">
  <path d="M 167 9.601562 L 169 9.601562 L 169 190.800781 L 167 190.800781 Z M 167 9.601562 "/>
</clipPath>
<clipPath id="clip3">
  <path d="M 220 9.601562 L 222 9.601562 L 222 190.800781 L 220 190.800781 Z M 220 9.601562 "/>
</clipPath>
<clipPath id="clip4">
  <path d="M 273 9.601562 L 275 9.601562 L 275 190.800781 L 273 190.800781 Z M 273 9.601562 "/>
</clipPath>
<clipPath id="clip5">
  <path d="M 326 9.601562 L 327.257812 9.601562 L 327.257812 190.800781 L 326 190.800781 Z M 326 9.601562 "/>
</clipPath>
<clipPath id="clip6">
  <path d="M 66.859375 165 L 327.257812 165 L 327.257812 168 L 66.859375 168 Z M 66.859375 165 "/>
</clipPath>
<clipPath id="clip7">
  <path d="M 66.859375 132 L 327.257812 132 L 327.257812 134 L 66.859375 134 Z M 66.859375 132 "/>
</clipPath>
<clipPath id="clip8">
  <path d="M 66.859375 98 L 327.257812 98 L 327.257812 101 L 66.859375 101 Z M 66.859375 98 "/>
</clipPath>
<clipPath id="clip9">
  <path d="M 66.859375 65 L 327.257812 65 L 327.257812 67 L 66.859375 67 Z M 66.859375 65 "/>
</clipPath>
<clipPath id="clip10">
  <path d="M 66.859375 31 L 327.257812 31 L 327.257812 34 L 66.859375 34 Z M 66.859375 31 "/>
</clipPath>
<clipPath id="clip11">
  <path d="M 66.859375 16 L 327.257812 16 L 327.257812 184 L 66.859375 184 Z M 66.859375 16 "/>
</clipPath>
<filter id="alpha" filterUnits="objectBoundingBox" x="0%" y="0%" width="100%" height="100%">
  <feColorMatrix type="matrix" in="SourceGraphic" values="0 0 0 0 1 0 0 0 0 1 0 0 0 0 1 0 0 0 1 0"/>
</filter>
<mask id="mask0">
  <g filter="url(#alpha)">
<rect x="0" y="0" width="349.583333" height="240.875" style="fill:rgb(0%,0%,0%);fill-opacity:0.8;stroke:none;"/>
  </g>
</mask>
<clipPath id="clip12">
  <rect x="0" y="0" width="350" height="241"/>
</clipPath>
<g id="surface5" clip-path="url(#clip12)">
<path style="fill-rule:nonzero;fill:rgb(100%,100%,100%);fill-opacity:1;stroke-width:1;stroke-linecap:butt;stroke-linejoin:miter;stroke:rgb(80.000001%,80.000001%,80.000001%);stroke-opacity:1;stroke-miterlimit:4;" d="M 183.169922 29.876953 L 238.444336 29.876953 C 239.777344 29.876953 240.442383 29.211914 240.442383 27.878906 L 240.442383 14.200195 C 240.442383 12.867188 239.777344 12.199219 238.444336 12.199219 L 183.169922 12.199219 C 181.833984 12.199219 181.168945 12.867188 181.168945 14.200195 L 181.168945 27.878906 C 181.168945 29.211914 181.833984 29.876953 183.169922 29.876953 Z M 183.169922 29.876953 " transform="matrix(1.333333,0,0,1.333333,0,0)"/>
</g>
</defs>
<g id="surface1">
<path style=" stroke:none;fill-rule:nonzero;fill:rgb(100%,100%,100%);fill-opacity:1;" d="M 66.859375 190.800781 L 327.257812 190.800781 L 327.257812 9.601562 L 66.859375 9.601562 Z M 66.859375 190.800781 "/>
<g clip-path="url(#clip1)" clip-rule="nonzero">
<path style="fill:none;stroke-width:0.8;stroke-linecap:square;stroke-linejoin:round;stroke:rgb(69.01961%,69.01961%,69.01961%);stroke-opacity:1;stroke-miterlimit:4;" d="M 86.015625 143.100586 L 86.015625 7.201172 " transform="matrix(1.333333,0,0,1.333333,0,0)"/>
</g>
<path style="fill:none;stroke-width:0.8;stroke-linecap:butt;stroke-linejoin:round;stroke:rgb(0%,0%,0%);stroke-opacity:1;stroke-miterlimit:4;" d="M 0.000442505 0.000579834 L 0.000442505 3.498627 " transform="matrix(1.333333,0,0,1.333333,114.68691,190.800008)"/>
<path style=" stroke:none;fill-rule:nonzero;fill:rgb(0%,0%,0%);fill-opacity:1;" d="M 103.617188 209.160156 L 105.765625 209.160156 L 105.765625 201.742188 L 103.425781 202.210938 L 103.425781 201.011719 L 105.75 200.542969 L 107.066406 200.542969 L 107.066406 209.160156 L 109.214844 209.160156 L 109.214844 210.265625 L 103.617188 210.265625 Z M 103.617188 209.160156 "/>
<path style=" stroke:none;fill-rule:nonzero;fill:rgb(0%,0%,0%);fill-opacity:1;" d="M 114.683594 201.410156 C 114.007812 201.410156 113.496094 201.742188 113.15625 202.410156 C 112.816406 203.074219 112.644531 204.078125 112.644531 205.414062 C 112.644531 206.746094 112.816406 207.746094 113.15625 208.414062 C 113.496094 209.078125 114.007812 209.414062 114.683594 209.414062 C 115.363281 209.414062 115.875 209.078125 116.214844 208.414062 C 116.558594 207.746094 116.726562 206.746094 116.726562 205.414062 C 116.726562 204.078125 116.558594 203.074219 116.214844 202.410156 C 115.875 201.742188 115.363281 201.410156 114.683594 201.410156 Z M 114.683594 200.367188 C 115.773438 200.367188 116.605469 200.800781 117.179688 201.664062 C 117.753906 202.523438 118.042969 203.773438 118.042969 205.414062 C 118.042969 207.050781 117.753906 208.300781 117.179688 209.164062 C 116.605469 210.023438 115.773438 210.453125 114.683594 210.453125 C 113.59375 210.453125 112.761719 210.023438 112.1875 209.164062 C 111.613281 208.300781 111.324219 207.050781 111.324219 205.414062 C 111.324219 203.773438 111.613281 202.523438 112.1875 201.664062 C 112.761719 200.800781 113.59375 200.367188 114.683594 200.367188 Z M 114.683594 200.367188 "/>
<path style=" stroke:none;fill-rule:nonzero;fill:rgb(0%,0%,0%);fill-opacity:1;" d="M 123.164062 201.410156 C 122.488281 201.410156 121.980469 201.742188 121.636719 202.410156 C 121.296875 203.074219 121.128906 204.078125 121.128906 205.414062 C 121.128906 206.746094 121.296875 207.746094 121.636719 208.414062 C 121.980469 209.078125 122.488281 209.414062 123.164062 209.414062 C 123.847656 209.414062 124.359375 209.078125 124.699219 208.414062 C 125.039062 207.746094 125.210938 206.746094 125.210938 205.414062 C 125.210938 204.078125 125.039062 203.074219 124.699219 202.410156 C 124.359375 201.742188 123.847656 201.410156 123.164062 201.410156 Z M 123.164062 200.367188 C 124.253906 200.367188 125.089844 200.800781 125.664062 201.664062 C 126.238281 202.523438 126.527344 203.773438 126.527344 205.414062 C 126.527344 207.050781 126.238281 208.300781 125.664062 209.164062 C 125.089844 210.023438 124.253906 210.453125 123.164062 210.453125 C 122.078125 210.453125 121.246094 210.023438 120.667969 209.164062 C 120.09375 208.300781 119.808594 207.050781 119.808594 205.414062 C 119.808594 203.773438 120.09375 202.523438 120.667969 201.664062 C 121.246094 200.800781 122.078125 200.367188 123.164062 200.367188 Z M 123.164062 200.367188 "/>
<g clip-path="url(#clip2)" clip-rule="nonzero">
<path style="fill:none;stroke-width:0.8;stroke-linecap:square;stroke-linejoin:round;stroke:rgb(69.01961%,69.01961%,69.01961%);stroke-opacity:1;stroke-miterlimit:4;" d="M 125.871094 143.100586 L 125.871094 7.201172 " transform="matrix(1.333333,0,0,1.333333,0,0)"/>
</g>
<path style="fill:none;stroke-width:0.8;stroke-linecap:butt;stroke-linejoin:round;stroke:rgb(0%,0%,0%);stroke-opacity:1;stroke-miterlimit:4;" d="M -0.00122833 0.000579834 L -0.00122833 3.498627 " transform="matrix(1.333333,0,0,1.333333,167.829763,190.800008)"/>
<path style=" stroke:none;fill-rule:nonzero;fill:rgb(0%,0%,0%);fill-opacity:1;" d="M 157.664062 209.160156 L 162.253906 209.160156 L 162.253906 210.265625 L 156.082031 210.265625 L 156.082031 209.160156 C 156.582031 208.640625 157.261719 207.949219 158.121094 207.078125 C 158.984375 206.207031 159.527344 205.648438 159.746094 205.394531 C 160.167969 204.921875 160.460938 204.523438 160.628906 204.195312 C 160.796875 203.867188 160.878906 203.542969 160.878906 203.226562 C 160.878906 202.710938 160.699219 202.289062 160.335938 201.964844 C 159.972656 201.636719 159.5 201.476562 158.917969 201.476562 C 158.507812 201.476562 158.070312 201.546875 157.613281 201.691406 C 157.15625 201.832031 156.667969 202.050781 156.144531 202.339844 L 156.144531 201.011719 C 156.675781 200.800781 157.171875 200.640625 157.628906 200.53125 C 158.089844 200.421875 158.511719 200.367188 158.894531 200.367188 C 159.902344 200.367188 160.703125 200.621094 161.300781 201.125 C 161.902344 201.628906 162.199219 202.300781 162.199219 203.140625 C 162.199219 203.542969 162.125 203.921875 161.976562 204.277344 C 161.828125 204.636719 161.554688 205.058594 161.160156 205.542969 C 161.050781 205.671875 160.707031 206.035156 160.125 206.636719 C 159.542969 207.238281 158.722656 208.078125 157.664062 209.160156 Z M 157.664062 209.160156 "/>
<path style=" stroke:none;fill-rule:nonzero;fill:rgb(0%,0%,0%);fill-opacity:1;" d="M 167.824219 201.410156 C 167.148438 201.410156 166.640625 201.742188 166.296875 202.410156 C 165.957031 203.074219 165.789062 204.078125 165.789062 205.414062 C 165.789062 206.746094 165.957031 207.746094 166.296875 208.414062 C 166.640625 209.078125 167.148438 209.414062 167.824219 209.414062 C 168.507812 209.414062 169.019531 209.078125 169.359375 208.414062 C 169.699219 207.746094 169.871094 206.746094 169.871094 205.414062 C 169.871094 204.078125 169.699219 203.074219 169.359375 202.410156 C 169.019531 201.742188 168.507812 201.410156 167.824219 201.410156 Z M 167.824219 200.367188 C 168.914062 200.367188 169.75 200.800781 170.324219 201.664062 C 170.898438 202.523438 171.1875 203.773438 171.1875 205.414062 C 171.1875 207.050781 170.898438 208.300781 170.324219 209.164062 C 169.75 210.023438 168.914062 210.453125 167.824219 210.453125 C 166.738281 210.453125 165.90625 210.023438 165.328125 209.164062 C 164.753906 208.300781 164.46875 207.050781 164.46875 205.414062 C 164.46875 203.773438 164.753906 202.523438 165.328125 201.664062 C 165.90625 200.800781 166.738281 200.367188 167.824219 200.367188 Z M 167.824219 200.367188 "/>
<path style=" stroke:none;fill-rule:nonzero;fill:rgb(0%,0%,0%);fill-opacity:1;" d="M 176.308594 201.410156 C 175.632812 201.410156 175.121094 201.742188 174.78125 202.410156 C 174.441406 203.074219 174.269531 204.078125 174.269531 205.414062 C 174.269531 206.746094 174.441406 207.746094 174.78125 208.414062 C 175.121094 209.078125 175.632812 209.414062 176.308594 209.414062 C 176.992188 209.414062 177.5 209.078125 177.839844 208.414062 C 178.183594 207.746094 178.355469 206.746094 178.355469 205.414062 C 178.355469 204.078125 178.183594 203.074219 177.839844 202.410156 C 177.5 201.742188 176.992188 201.410156 176.308594 201.410156 Z M 176.308594 200.367188 C 177.398438 200.367188 178.230469 200.800781 178.804688 201.664062 C 179.382812 202.523438 179.667969 203.773438 179.667969 205.414062 C 179.667969 207.050781 179.382812 208.300781 178.804688 209.164062 C 178.230469 210.023438 177.398438 210.453125 176.308594 210.453125 C 175.21875 210.453125 174.386719 210.023438 173.8125 209.164062 C 173.238281 208.300781 172.949219 207.050781 172.949219 205.414062 C 172.949219 203.773438 173.238281 202.523438 173.8125 201.664062 C 174.386719 200.800781 175.21875 200.367188 176.308594 200.367188 Z M 176.308594 200.367188 "/>
<g clip-path="url(#clip3)" clip-rule="nonzero">
<path style="fill:none;stroke-width:0.8;stroke-linecap:square;stroke-linejoin:round;stroke:rgb(69.01961%,69.01961%,69.01961%);stroke-opacity:1;stroke-miterlimit:4;" d="M 165.729492 143.100586 L 165.729492 7.201172 " transform="matrix(1.333333,0,0,1.333333,0,0)"/>
</g>
<path style="fill:none;stroke-width:0.8;stroke-linecap:butt;stroke-linejoin:round;stroke:rgb(0%,0%,0%);stroke-opacity:1;stroke-miterlimit:4;" d="M 0.0000305176 0.000579834 L 0.0000305176 3.498627 " transform="matrix(1.333333,0,0,1.333333,220.972616,190.800008)"/>
<path style=" stroke:none;fill-rule:nonzero;fill:rgb(0%,0%,0%);fill-opacity:1;" d="M 213.65625 205.023438 C 214.289062 205.15625 214.777344 205.4375 215.132812 205.863281 C 215.484375 206.289062 215.664062 206.816406 215.664062 207.441406 C 215.664062 208.398438 215.332031 209.140625 214.671875 209.667969 C 214.011719 210.191406 213.074219 210.453125 211.859375 210.453125 C 211.453125 210.453125 211.035156 210.414062 210.601562 210.332031 C 210.167969 210.253906 209.722656 210.132812 209.265625 209.972656 L 209.265625 208.703125 C 209.628906 208.914062 210.027344 209.074219 210.460938 209.183594 C 210.894531 209.292969 211.347656 209.347656 211.824219 209.347656 C 212.644531 209.347656 213.273438 209.183594 213.707031 208.859375 C 214.136719 208.535156 214.355469 208.058594 214.355469 207.441406 C 214.355469 206.867188 214.152344 206.417969 213.75 206.097656 C 213.351562 205.773438 212.792969 205.609375 212.078125 205.609375 L 210.945312 205.609375 L 210.945312 204.527344 L 212.128906 204.527344 C 212.773438 204.527344 213.269531 204.398438 213.613281 204.140625 C 213.957031 203.882812 214.125 203.511719 214.125 203.023438 C 214.125 202.527344 213.949219 202.144531 213.59375 201.878906 C 213.242188 201.609375 212.738281 201.476562 212.078125 201.476562 C 211.714844 201.476562 211.328125 201.515625 210.917969 201.59375 C 210.503906 201.671875 210.050781 201.792969 209.554688 201.957031 L 209.554688 200.785156 C 210.054688 200.648438 210.523438 200.542969 210.960938 200.472656 C 211.394531 200.402344 211.808594 200.367188 212.195312 200.367188 C 213.191406 200.367188 213.980469 200.597656 214.5625 201.050781 C 215.144531 201.503906 215.433594 202.117188 215.433594 202.886719 C 215.433594 203.425781 215.28125 203.882812 214.972656 204.253906 C 214.664062 204.621094 214.226562 204.878906 213.65625 205.023438 Z M 213.65625 205.023438 "/>
<path style=" stroke:none;fill-rule:nonzero;fill:rgb(0%,0%,0%);fill-opacity:1;" d="M 220.96875 201.410156 C 220.292969 201.410156 219.78125 201.742188 219.441406 202.410156 C 219.101562 203.074219 218.929688 204.078125 218.929688 205.414062 C 218.929688 206.746094 219.101562 207.746094 219.441406 208.414062 C 219.78125 209.078125 220.292969 209.414062 220.96875 209.414062 C 221.648438 209.414062 222.160156 209.078125 222.5 208.414062 C 222.84375 207.746094 223.015625 206.746094 223.015625 205.414062 C 223.015625 204.078125 222.84375 203.074219 222.5 202.410156 C 222.160156 201.742188 221.648438 201.410156 220.96875 201.410156 Z M 220.96875 200.367188 C 222.058594 200.367188 222.890625 200.800781 223.464844 201.664062 C 224.042969 202.523438 224.328125 203.773438 224.328125 205.414062 C 224.328125 207.050781 224.042969 208.300781 223.464844 209.164062 C 222.890625 210.023438 222.058594 210.453125 220.96875 210.453125 C 219.878906 210.453125 219.046875 210.023438 218.472656 209.164062 C 217.898438 208.300781 217.609375 207.050781 217.609375 205.414062 C 217.609375 203.773438 217.898438 202.523438 218.472656 201.664062 C 219.046875 200.800781 219.878906 200.367188 220.96875 200.367188 Z M 220.96875 200.367188 "/>
<path style=" stroke:none;fill-rule:nonzero;fill:rgb(0%,0%,0%);fill-opacity:1;" d="M 229.453125 201.410156 C 228.773438 201.410156 228.265625 201.742188 227.925781 202.410156 C 227.582031 203.074219 227.414062 204.078125 227.414062 205.414062 C 227.414062 206.746094 227.582031 207.746094 227.925781 208.414062 C 228.265625 209.078125 228.773438 209.414062 229.453125 209.414062 C 230.132812 209.414062 230.644531 209.078125 230.984375 208.414062 C 231.328125 207.746094 231.496094 206.746094 231.496094 205.414062 C 231.496094 204.078125 231.328125 203.074219 230.984375 202.410156 C 230.644531 201.742188 230.132812 201.410156 229.453125 201.410156 Z M 229.453125 200.367188 C 230.542969 200.367188 231.375 200.800781 231.949219 201.664062 C 232.523438 202.523438 232.8125 203.773438 232.8125 205.414062 C 232.8125 207.050781 232.523438 208.300781 231.949219 209.164062 C 231.375 210.023438 230.542969 210.453125 229.453125 210.453125 C 228.363281 210.453125 227.53125 210.023438 226.957031 209.164062 C 226.378906 208.300781 226.09375 207.050781 226.09375 205.414062 C 226.09375 203.773438 226.378906 202.523438 226.957031 201.664062 C 227.53125 200.800781 228.363281 200.367188 229.453125 200.367188 Z M 229.453125 200.367188 "/>
<g clip-path="url(#clip4)" clip-rule="nonzero">
<path style="fill:none;stroke-width:0.8;stroke-linecap:square;stroke-linejoin:round;stroke:rgb(69.01961%,69.01961%,69.01961%);stroke-opacity:1;stroke-miterlimit:4;" d="M 205.587891 143.100586 L 205.587891 7.201172 " transform="matrix(1.333333,0,0,1.333333,0,0)"/>
</g>
<path style="fill:none;stroke-width:0.8;stroke-linecap:butt;stroke-linejoin:round;stroke:rgb(0%,0%,0%);stroke-opacity:1;stroke-miterlimit:4;" d="M 0.00128174 0.000579834 L 0.00128174 3.498627 " transform="matrix(1.333333,0,0,1.333333,274.115479,190.800008)"/>
<path style=" stroke:none;fill-rule:nonzero;fill:rgb(0%,0%,0%);fill-opacity:1;" d="M 266.429688 201.691406 L 263.109375 206.878906 L 266.429688 206.878906 Z M 266.085938 200.542969 L 267.738281 200.542969 L 267.738281 206.878906 L 269.125 206.878906 L 269.125 207.972656 L 267.738281 207.972656 L 267.738281 210.265625 L 266.429688 210.265625 L 266.429688 207.972656 L 262.042969 207.972656 L 262.042969 206.703125 Z M 266.085938 200.542969 "/>
<path style=" stroke:none;fill-rule:nonzero;fill:rgb(0%,0%,0%);fill-opacity:1;" d="M 274.109375 201.410156 C 273.433594 201.410156 272.925781 201.742188 272.582031 202.410156 C 272.242188 203.074219 272.074219 204.078125 272.074219 205.414062 C 272.074219 206.746094 272.242188 207.746094 272.582031 208.414062 C 272.925781 209.078125 273.433594 209.414062 274.109375 209.414062 C 274.792969 209.414062 275.304688 209.078125 275.644531 208.414062 C 275.984375 207.746094 276.15625 206.746094 276.15625 205.414062 C 276.15625 204.078125 275.984375 203.074219 275.644531 202.410156 C 275.304688 201.742188 274.792969 201.410156 274.109375 201.410156 Z M 274.109375 200.367188 C 275.203125 200.367188 276.035156 200.800781 276.609375 201.664062 C 277.183594 202.523438 277.472656 203.773438 277.472656 205.414062 C 277.472656 207.050781 277.183594 208.300781 276.609375 209.164062 C 276.035156 210.023438 275.203125 210.453125 274.109375 210.453125 C 273.023438 210.453125 272.191406 210.023438 271.613281 209.164062 C 271.039062 208.300781 270.753906 207.050781 270.753906 205.414062 C 270.753906 203.773438 271.039062 202.523438 271.613281 201.664062 C 272.191406 200.800781 273.023438 200.367188 274.109375 200.367188 Z M 274.109375 200.367188 "/>
<path style=" stroke:none;fill-rule:nonzero;fill:rgb(0%,0%,0%);fill-opacity:1;" d="M 282.59375 201.410156 C 281.917969 201.410156 281.410156 201.742188 281.066406 202.410156 C 280.726562 203.074219 280.554688 204.078125 280.554688 205.414062 C 280.554688 206.746094 280.726562 207.746094 281.066406 208.414062 C 281.410156 209.078125 281.917969 209.414062 282.59375 209.414062 C 283.277344 209.414062 283.789062 209.078125 284.128906 208.414062 C 284.46875 207.746094 284.640625 206.746094 284.640625 205.414062 C 284.640625 204.078125 284.46875 203.074219 284.128906 202.410156 C 283.789062 201.742188 283.277344 201.410156 282.59375 201.410156 Z M 282.59375 200.367188 C 283.683594 200.367188 284.515625 200.800781 285.09375 201.664062 C 285.667969 202.523438 285.953125 203.773438 285.953125 205.414062 C 285.953125 207.050781 285.667969 208.300781 285.09375 209.164062 C 284.515625 210.023438 283.683594 210.453125 282.59375 210.453125 C 281.503906 210.453125 280.671875 210.023438 280.097656 209.164062 C 279.523438 208.300781 279.234375 207.050781 279.234375 205.414062 C 279.234375 203.773438 279.523438 202.523438 280.097656 201.664062 C 280.671875 200.800781 281.503906 200.367188 282.59375 200.367188 Z M 282.59375 200.367188 "/>
<g clip-path="url(#clip5)" clip-rule="nonzero">
<path style="fill:none;stroke-width:0.8;stroke-linecap:square;stroke-linejoin:round;stroke:rgb(69.01961%,69.01961%,69.01961%);stroke-opacity:1;stroke-miterlimit:4;" d="M 245.443359 143.100586 L 245.443359 7.201172 " transform="matrix(1.333333,0,0,1.333333,0,0)"/>
</g>
<path style="fill:none;stroke-width:0.8;stroke-linecap:butt;stroke-linejoin:round;stroke:rgb(0%,0%,0%);stroke-opacity:1;stroke-miterlimit:4;" d="M -0.000396729 0.000579834 L -0.000396729 3.498627 " transform="matrix(1.333333,0,0,1.333333,327.258341,190.800008)"/>
<path style=" stroke:none;fill-rule:nonzero;fill:rgb(0%,0%,0%);fill-opacity:1;" d="M 315.972656 200.542969 L 321.136719 200.542969 L 321.136719 201.652344 L 317.175781 201.652344 L 317.175781 204.035156 C 317.367188 203.96875 317.558594 203.917969 317.746094 203.886719 C 317.941406 203.855469 318.132812 203.839844 318.324219 203.839844 C 319.40625 203.839844 320.265625 204.136719 320.898438 204.730469 C 321.535156 205.324219 321.851562 206.128906 321.851562 207.144531 C 321.851562 208.191406 321.527344 209.003906 320.875 209.585938 C 320.222656 210.164062 319.304688 210.453125 318.121094 210.453125 C 317.710938 210.453125 317.296875 210.417969 316.871094 210.351562 C 316.449219 210.28125 316.015625 210.175781 315.5625 210.039062 L 315.5625 208.714844 C 315.953125 208.925781 316.355469 209.085938 316.773438 209.191406 C 317.191406 209.292969 317.628906 209.347656 318.09375 209.347656 C 318.84375 209.347656 319.441406 209.148438 319.878906 208.753906 C 320.316406 208.359375 320.535156 207.824219 320.535156 207.144531 C 320.535156 206.46875 320.316406 205.933594 319.878906 205.539062 C 319.441406 205.144531 318.84375 204.945312 318.09375 204.945312 C 317.742188 204.945312 317.390625 204.984375 317.042969 205.0625 C 316.691406 205.140625 316.335938 205.261719 315.972656 205.425781 Z M 315.972656 200.542969 "/>
<path style=" stroke:none;fill-rule:nonzero;fill:rgb(0%,0%,0%);fill-opacity:1;" d="M 327.253906 201.410156 C 326.578125 201.410156 326.070312 201.742188 325.726562 202.410156 C 325.386719 203.074219 325.214844 204.078125 325.214844 205.414062 C 325.214844 206.746094 325.386719 207.746094 325.726562 208.414062 C 326.070312 209.078125 326.578125 209.414062 327.253906 209.414062 C 327.9375 209.414062 328.445312 209.078125 328.789062 208.414062 C 329.128906 207.746094 329.300781 206.746094 329.300781 205.414062 C 329.300781 204.078125 329.128906 203.074219 328.789062 202.410156 C 328.445312 201.742188 327.9375 201.410156 327.253906 201.410156 Z M 327.253906 200.367188 C 328.34375 200.367188 329.175781 200.800781 329.75 201.664062 C 330.328125 202.523438 330.613281 203.773438 330.613281 205.414062 C 330.613281 207.050781 330.328125 208.300781 329.75 209.164062 C 329.175781 210.023438 328.34375 210.453125 327.253906 210.453125 C 326.164062 210.453125 325.332031 210.023438 324.757812 209.164062 C 324.183594 208.300781 323.894531 207.050781 323.894531 205.414062 C 323.894531 203.773438 324.183594 202.523438 324.757812 201.664062 C 325.332031 200.800781 326.164062 200.367188 327.253906 200.367188 Z M 327.253906 200.367188 "/>
<path style=" stroke:none;fill-rule:nonzero;fill:rgb(0%,0%,0%);fill-opacity:1;" d="M 335.738281 201.410156 C 335.0625 201.410156 334.550781 201.742188 334.210938 202.410156 C 333.871094 203.074219 333.699219 204.078125 333.699219 205.414062 C 333.699219 206.746094 333.871094 207.746094 334.210938 208.414062 C 334.550781 209.078125 335.0625 209.414062 335.738281 209.414062 C 336.417969 209.414062 336.929688 209.078125 337.269531 208.414062 C 337.613281 207.746094 337.78125 206.746094 337.78125 205.414062 C 337.78125 204.078125 337.613281 203.074219 337.269531 202.410156 C 336.929688 201.742188 336.417969 201.410156 335.738281 201.410156 Z M 335.738281 200.367188 C 336.828125 200.367188 337.660156 200.800781 338.234375 201.664062 C 338.808594 202.523438 339.097656 203.773438 339.097656 205.414062 C 339.097656 207.050781 338.808594 208.300781 338.234375 209.164062 C 337.660156 210.023438 336.828125 210.453125 335.738281 210.453125 C 334.648438 210.453125 333.816406 210.023438 333.242188 209.164062 C 332.667969 208.300781 332.378906 207.050781 332.378906 205.414062 C 332.378906 203.773438 332.667969 202.523438 333.242188 201.664062 C 333.816406 200.800781 334.648438 200.367188 335.738281 200.367188 Z M 335.738281 200.367188 "/>
<path style=" stroke:none;fill-rule:nonzero;fill:rgb(0%,0%,0%);fill-opacity:1;" d="M 184.246094 224.554688 L 184.246094 225.140625 L 178.738281 225.140625 C 178.792969 225.964844 179.039062 226.59375 179.484375 227.027344 C 179.929688 227.460938 180.550781 227.675781 181.34375 227.675781 C 181.804688 227.675781 182.25 227.617188 182.679688 227.507812 C 183.113281 227.394531 183.542969 227.222656 183.96875 226.996094 L 183.96875 228.132812 C 183.539062 228.3125 183.097656 228.453125 182.644531 228.546875 C 182.195312 228.644531 181.738281 228.691406 181.273438 228.691406 C 180.109375 228.691406 179.1875 228.351562 178.507812 227.675781 C 177.828125 227 177.488281 226.082031 177.488281 224.925781 C 177.488281 223.734375 177.8125 222.789062 178.457031 222.085938 C 179.101562 221.386719 179.96875 221.035156 181.066406 221.035156 C 182.046875 221.035156 182.820312 221.351562 183.390625 221.984375 C 183.960938 222.613281 184.246094 223.472656 184.246094 224.554688 Z M 183.050781 224.203125 C 183.042969 223.550781 182.859375 223.027344 182.5 222.636719 C 182.140625 222.246094 181.667969 222.050781 181.078125 222.050781 C 180.410156 222.050781 179.875 222.238281 179.472656 222.617188 C 179.070312 222.996094 178.839844 223.527344 178.777344 224.210938 Z M 183.050781 224.203125 "/>
<path style=" stroke:none;fill-rule:nonzero;fill:rgb(0%,0%,0%);fill-opacity:1;" d="M 187.371094 227.410156 L 187.371094 231.273438 L 186.167969 231.273438 L 186.167969 221.210938 L 187.371094 221.210938 L 187.371094 222.316406 C 187.625 221.882812 187.941406 221.5625 188.324219 221.351562 C 188.710938 221.140625 189.167969 221.035156 189.703125 221.035156 C 190.589844 221.035156 191.308594 221.386719 191.863281 222.089844 C 192.414062 222.792969 192.691406 223.714844 192.691406 224.863281 C 192.691406 226.007812 192.414062 226.933594 191.863281 227.636719 C 191.308594 228.339844 190.589844 228.691406 189.703125 228.691406 C 189.167969 228.691406 188.710938 228.585938 188.324219 228.375 C 187.941406 228.164062 187.625 227.839844 187.371094 227.410156 Z M 191.449219 224.863281 C 191.449219 223.980469 191.269531 223.289062 190.90625 222.789062 C 190.542969 222.289062 190.042969 222.039062 189.410156 222.039062 C 188.777344 222.039062 188.277344 222.289062 187.914062 222.789062 C 187.554688 223.289062 187.371094 223.980469 187.371094 224.863281 C 187.371094 225.742188 187.554688 226.433594 187.914062 226.933594 C 188.277344 227.4375 188.777344 227.6875 189.410156 227.6875 C 190.042969 227.6875 190.542969 227.4375 190.90625 226.933594 C 191.269531 226.433594 191.449219 225.742188 191.449219 224.863281 Z M 191.449219 224.863281 "/>
<path style=" stroke:none;fill-rule:nonzero;fill:rgb(0%,0%,0%);fill-opacity:1;" d="M 197.503906 222.050781 C 196.859375 222.050781 196.351562 222.300781 195.980469 222.800781 C 195.605469 223.304688 195.417969 223.992188 195.417969 224.863281 C 195.417969 225.734375 195.605469 226.421875 195.976562 226.921875 C 196.347656 227.425781 196.855469 227.675781 197.503906 227.675781 C 198.140625 227.675781 198.648438 227.421875 199.019531 226.921875 C 199.390625 226.417969 199.578125 225.730469 199.578125 224.863281 C 199.578125 224 199.390625 223.3125 199.019531 222.808594 C 198.648438 222.304688 198.140625 222.050781 197.503906 222.050781 Z M 197.503906 221.035156 C 198.542969 221.035156 199.363281 221.375 199.957031 222.050781 C 200.550781 222.726562 200.851562 223.664062 200.851562 224.863281 C 200.851562 226.054688 200.550781 226.992188 199.957031 227.671875 C 199.363281 228.351562 198.542969 228.691406 197.503906 228.691406 C 196.457031 228.691406 195.636719 228.351562 195.042969 227.671875 C 194.453125 226.992188 194.15625 226.054688 194.15625 224.863281 C 194.15625 223.664062 194.453125 222.726562 195.042969 222.050781 C 195.636719 221.375 196.457031 221.035156 197.503906 221.035156 Z M 197.503906 221.035156 "/>
<path style=" stroke:none;fill-rule:nonzero;fill:rgb(0%,0%,0%);fill-opacity:1;" d="M 208.082031 221.488281 L 208.082031 222.609375 C 207.742188 222.421875 207.402344 222.28125 207.0625 222.191406 C 206.722656 222.097656 206.378906 222.050781 206.03125 222.050781 C 205.253906 222.050781 204.652344 222.296875 204.21875 222.789062 C 203.789062 223.28125 203.578125 223.972656 203.578125 224.863281 C 203.578125 225.753906 203.789062 226.445312 204.21875 226.9375 C 204.652344 227.429688 205.253906 227.675781 206.03125 227.675781 C 206.378906 227.675781 206.722656 227.628906 207.0625 227.535156 C 207.402344 227.441406 207.742188 227.300781 208.082031 227.113281 L 208.082031 228.222656 C 207.746094 228.378906 207.402344 228.496094 207.042969 228.574219 C 206.6875 228.652344 206.304688 228.691406 205.902344 228.691406 C 204.800781 228.691406 203.929688 228.347656 203.28125 227.65625 C 202.636719 226.964844 202.3125 226.035156 202.3125 224.863281 C 202.3125 223.671875 202.640625 222.738281 203.292969 222.058594 C 203.945312 221.375 204.84375 221.035156 205.980469 221.035156 C 206.347656 221.035156 206.707031 221.074219 207.058594 221.148438 C 207.410156 221.226562 207.753906 221.339844 208.082031 221.488281 Z M 208.082031 221.488281 "/>
<path style=" stroke:none;fill-rule:nonzero;fill:rgb(0%,0%,0%);fill-opacity:1;" d="M 216.226562 224.101562 L 216.226562 228.503906 L 215.03125 228.503906 L 215.03125 224.140625 C 215.03125 223.449219 214.894531 222.933594 214.625 222.589844 C 214.355469 222.25 213.953125 222.078125 213.414062 222.078125 C 212.769531 222.078125 212.257812 222.285156 211.882812 222.695312 C 211.511719 223.105469 211.324219 223.667969 211.324219 224.382812 L 211.324219 228.503906 L 210.121094 228.503906 L 210.121094 218.371094 L 211.324219 218.371094 L 211.324219 222.34375 C 211.609375 221.90625 211.949219 221.578125 212.335938 221.359375 C 212.726562 221.144531 213.171875 221.035156 213.683594 221.035156 C 214.519531 221.035156 215.152344 221.292969 215.582031 221.8125 C 216.011719 222.332031 216.226562 223.09375 216.226562 224.101562 Z M 216.226562 224.101562 "/>
<g clip-path="url(#clip6)" clip-rule="nonzero">
<path style="fill:none;stroke-width:0.8;stroke-linecap:square;stroke-linejoin:round;stroke:rgb(69.01961%,69.01961%,69.01961%);stroke-opacity:1;stroke-miterlimit:4;" d="M 50.144531 124.831055 L 245.443359 124.831055 " transform="matrix(1.333333,0,0,1.333333,0,0)"/>
</g>
<path style="fill:none;stroke-width:0.8;stroke-linecap:butt;stroke-linejoin:round;stroke:rgb(0%,0%,0%);stroke-opacity:1;stroke-miterlimit:4;" d="M 0.000782013 -0.00112152 L -3.500195 -0.00112152 " transform="matrix(1.333333,0,0,1.333333,66.858332,166.442902)"/>
<path style=" stroke:none;fill-rule:nonzero;fill:rgb(0%,0%,0%);fill-opacity:1;" d="M 38.878906 170.402344 L 43.46875 170.402344 L 43.46875 171.507812 L 37.296875 171.507812 L 37.296875 170.402344 C 37.796875 169.886719 38.476562 169.191406 39.335938 168.324219 C 40.199219 167.453125 40.742188 166.890625 40.960938 166.636719 C 41.382812 166.164062 41.675781 165.765625 41.84375 165.4375 C 42.011719 165.109375 42.097656 164.789062 42.097656 164.472656 C 42.097656 163.953125 41.914062 163.535156 41.550781 163.207031 C 41.191406 162.882812 40.71875 162.71875 40.136719 162.71875 C 39.722656 162.71875 39.289062 162.789062 38.828125 162.933594 C 38.371094 163.078125 37.882812 163.292969 37.363281 163.585938 L 37.363281 162.257812 C 37.890625 162.042969 38.386719 161.882812 38.847656 161.773438 C 39.308594 161.667969 39.726562 161.613281 40.109375 161.613281 C 41.117188 161.613281 41.921875 161.863281 42.519531 162.367188 C 43.117188 162.871094 43.417969 163.542969 43.417969 164.386719 C 43.417969 164.785156 43.339844 165.164062 43.191406 165.523438 C 43.042969 165.878906 42.769531 166.300781 42.375 166.789062 C 42.265625 166.914062 41.921875 167.277344 41.339844 167.878906 C 40.757812 168.480469 39.9375 169.320312 38.878906 170.402344 Z M 38.878906 170.402344 "/>
<path style=" stroke:none;fill-rule:nonzero;fill:rgb(0%,0%,0%);fill-opacity:1;" d="M 46.230469 169.855469 L 47.605469 169.855469 L 47.605469 171.507812 L 46.230469 171.507812 Z M 46.230469 169.855469 "/>
<path style=" stroke:none;fill-rule:nonzero;fill:rgb(0%,0%,0%);fill-opacity:1;" d="M 50.480469 161.789062 L 55.644531 161.789062 L 55.644531 162.894531 L 51.6875 162.894531 L 51.6875 165.277344 C 51.875 165.210938 52.066406 165.164062 52.257812 165.132812 C 52.449219 165.097656 52.640625 165.082031 52.832031 165.082031 C 53.917969 165.082031 54.777344 165.378906 55.410156 165.976562 C 56.042969 166.570312 56.359375 167.375 56.359375 168.390625 C 56.359375 169.4375 56.035156 170.25 55.382812 170.828125 C 54.734375 171.410156 53.8125 171.699219 52.628906 171.699219 C 52.222656 171.699219 51.804688 171.664062 51.382812 171.59375 C 50.960938 171.523438 50.523438 171.421875 50.070312 171.28125 L 50.070312 169.957031 C 50.460938 170.171875 50.863281 170.328125 51.28125 170.433594 C 51.699219 170.539062 52.140625 170.589844 52.601562 170.589844 C 53.355469 170.589844 53.949219 170.390625 54.386719 170 C 54.824219 169.605469 55.042969 169.066406 55.042969 168.390625 C 55.042969 167.714844 54.824219 167.179688 54.386719 166.785156 C 53.949219 166.386719 53.355469 166.191406 52.601562 166.191406 C 52.25 166.191406 51.902344 166.230469 51.550781 166.304688 C 51.203125 166.382812 50.84375 166.503906 50.480469 166.671875 Z M 50.480469 161.789062 "/>
<g clip-path="url(#clip7)" clip-rule="nonzero">
<path style="fill:none;stroke-width:0.8;stroke-linecap:square;stroke-linejoin:round;stroke:rgb(69.01961%,69.01961%,69.01961%);stroke-opacity:1;stroke-miterlimit:4;" d="M 50.144531 99.75293 L 245.443359 99.75293 " transform="matrix(1.333333,0,0,1.333333,0,0)"/>
</g>
<path style="fill:none;stroke-width:0.8;stroke-linecap:butt;stroke-linejoin:round;stroke:rgb(0%,0%,0%);stroke-opacity:1;stroke-miterlimit:4;" d="M 0.000782013 0.000968933 L -3.500195 0.000968933 " transform="matrix(1.333333,0,0,1.333333,66.858332,133.002614)"/>
<path style=" stroke:none;fill-rule:nonzero;fill:rgb(0%,0%,0%);fill-opacity:1;" d="M 37.761719 128.347656 L 42.921875 128.347656 L 42.921875 129.457031 L 38.964844 129.457031 L 38.964844 131.835938 C 39.15625 131.773438 39.34375 131.722656 39.535156 131.691406 C 39.726562 131.660156 39.917969 131.644531 40.109375 131.644531 C 41.195312 131.644531 42.054688 131.941406 42.6875 132.535156 C 43.320312 133.128906 43.640625 133.933594 43.640625 134.949219 C 43.640625 135.996094 43.3125 136.808594 42.664062 137.390625 C 42.011719 137.96875 41.09375 138.257812 39.910156 138.257812 C 39.5 138.257812 39.085938 138.222656 38.660156 138.152344 C 38.238281 138.085938 37.800781 137.980469 37.351562 137.839844 L 37.351562 136.519531 C 37.742188 136.730469 38.144531 136.890625 38.558594 136.992188 C 38.976562 137.097656 39.417969 137.148438 39.882812 137.148438 C 40.632812 137.148438 41.226562 136.953125 41.664062 136.558594 C 42.101562 136.164062 42.324219 135.628906 42.324219 134.949219 C 42.324219 134.273438 42.101562 133.738281 41.664062 133.34375 C 41.226562 132.949219 40.632812 132.75 39.882812 132.75 C 39.53125 132.75 39.179688 132.789062 38.828125 132.867188 C 38.480469 132.945312 38.125 133.066406 37.761719 133.230469 Z M 37.761719 128.347656 "/>
<path style=" stroke:none;fill-rule:nonzero;fill:rgb(0%,0%,0%);fill-opacity:1;" d="M 46.230469 136.414062 L 47.605469 136.414062 L 47.605469 138.066406 L 46.230469 138.066406 Z M 46.230469 136.414062 "/>
<path style=" stroke:none;fill-rule:nonzero;fill:rgb(0%,0%,0%);fill-opacity:1;" d="M 53.28125 129.214844 C 52.601562 129.214844 52.09375 129.546875 51.753906 130.214844 C 51.414062 130.878906 51.242188 131.878906 51.242188 133.21875 C 51.242188 134.550781 51.414062 135.550781 51.753906 136.214844 C 52.09375 136.882812 52.601562 137.214844 53.28125 137.214844 C 53.960938 137.214844 54.472656 136.882812 54.8125 136.214844 C 55.15625 135.550781 55.324219 134.550781 55.324219 133.21875 C 55.324219 131.878906 55.15625 130.878906 54.8125 130.214844 C 54.472656 129.546875 53.960938 129.214844 53.28125 129.214844 Z M 53.28125 128.171875 C 54.371094 128.171875 55.203125 128.605469 55.777344 129.464844 C 56.351562 130.328125 56.640625 131.578125 56.640625 133.21875 C 56.640625 134.855469 56.351562 136.105469 55.777344 136.964844 C 55.203125 137.828125 54.371094 138.257812 53.28125 138.257812 C 52.191406 138.257812 51.359375 137.828125 50.785156 136.964844 C 50.207031 136.105469 49.921875 134.855469 49.921875 133.21875 C 49.921875 131.578125 50.207031 130.328125 50.785156 129.464844 C 51.359375 128.605469 52.191406 128.171875 53.28125 128.171875 Z M 53.28125 128.171875 "/>
<g clip-path="url(#clip8)" clip-rule="nonzero">
<path style="fill:none;stroke-width:0.8;stroke-linecap:square;stroke-linejoin:round;stroke:rgb(69.01961%,69.01961%,69.01961%);stroke-opacity:1;stroke-miterlimit:4;" d="M 50.144531 74.671875 L 245.443359 74.671875 " transform="matrix(1.333333,0,0,1.333333,0,0)"/>
</g>
<path style="fill:none;stroke-width:0.8;stroke-linecap:butt;stroke-linejoin:round;stroke:rgb(0%,0%,0%);stroke-opacity:1;stroke-miterlimit:4;" d="M 0.000782013 0.0001297 L -3.500195 0.0001297 " transform="matrix(1.333333,0,0,1.333333,66.858332,99.562327)"/>
<path style=" stroke:none;fill-rule:nonzero;fill:rgb(0%,0%,0%);fill-opacity:1;" d="M 37.414062 94.90625 L 43.664062 94.90625 L 43.664062 95.46875 L 40.136719 104.628906 L 38.761719 104.628906 L 42.082031 96.015625 L 37.414062 96.015625 Z M 37.414062 94.90625 "/>
<path style=" stroke:none;fill-rule:nonzero;fill:rgb(0%,0%,0%);fill-opacity:1;" d="M 46.230469 102.972656 L 47.605469 102.972656 L 47.605469 104.628906 L 46.230469 104.628906 Z M 46.230469 102.972656 "/>
<path style=" stroke:none;fill-rule:nonzero;fill:rgb(0%,0%,0%);fill-opacity:1;" d="M 50.480469 94.90625 L 55.644531 94.90625 L 55.644531 96.015625 L 51.6875 96.015625 L 51.6875 98.398438 C 51.875 98.332031 52.066406 98.28125 52.257812 98.25 C 52.449219 98.21875 52.640625 98.203125 52.832031 98.203125 C 53.917969 98.203125 54.777344 98.5 55.410156 99.09375 C 56.042969 99.6875 56.359375 100.492188 56.359375 101.507812 C 56.359375 102.554688 56.035156 103.367188 55.382812 103.949219 C 54.734375 104.527344 53.8125 104.816406 52.628906 104.816406 C 52.222656 104.816406 51.804688 104.78125 51.382812 104.714844 C 50.960938 104.644531 50.523438 104.539062 50.070312 104.402344 L 50.070312 103.078125 C 50.460938 103.289062 50.863281 103.449219 51.28125 103.554688 C 51.699219 103.65625 52.140625 103.710938 52.601562 103.710938 C 53.355469 103.710938 53.949219 103.511719 54.386719 103.117188 C 54.824219 102.722656 55.042969 102.1875 55.042969 101.507812 C 55.042969 100.832031 54.824219 100.296875 54.386719 99.902344 C 53.949219 99.507812 53.355469 99.308594 52.601562 99.308594 C 52.25 99.308594 51.902344 99.347656 51.550781 99.425781 C 51.203125 99.503906 50.84375 99.625 50.480469 99.789062 Z M 50.480469 94.90625 "/>
<g clip-path="url(#clip9)" clip-rule="nonzero">
<path style="fill:none;stroke-width:0.8;stroke-linecap:square;stroke-linejoin:round;stroke:rgb(69.01961%,69.01961%,69.01961%);stroke-opacity:1;stroke-miterlimit:4;" d="M 50.144531 49.59082 L 245.443359 49.59082 " transform="matrix(1.333333,0,0,1.333333,0,0)"/>
</g>
<path style="fill:none;stroke-width:0.8;stroke-linecap:butt;stroke-linejoin:round;stroke:rgb(0%,0%,0%);stroke-opacity:1;stroke-miterlimit:4;" d="M 0.000782013 -0.000705719 L -3.500195 -0.000705719 " transform="matrix(1.333333,0,0,1.333333,66.858332,66.122035)"/>
<path style=" stroke:none;fill-rule:nonzero;fill:rgb(0%,0%,0%);fill-opacity:1;" d="M 29.492188 70.082031 L 31.640625 70.082031 L 31.640625 62.664062 L 29.300781 63.132812 L 29.300781 61.9375 L 31.628906 61.46875 L 32.941406 61.46875 L 32.941406 70.082031 L 35.089844 70.082031 L 35.089844 71.1875 L 29.492188 71.1875 Z M 29.492188 70.082031 "/>
<path style=" stroke:none;fill-rule:nonzero;fill:rgb(0%,0%,0%);fill-opacity:1;" d="M 40.558594 62.332031 C 39.882812 62.332031 39.371094 62.667969 39.03125 63.332031 C 38.691406 64 38.519531 65 38.519531 66.335938 C 38.519531 67.667969 38.691406 68.667969 39.03125 69.335938 C 39.371094 70.003906 39.882812 70.335938 40.558594 70.335938 C 41.238281 70.335938 41.75 70.003906 42.089844 69.335938 C 42.433594 68.667969 42.605469 67.667969 42.605469 66.335938 C 42.605469 65 42.433594 64 42.089844 63.332031 C 41.75 62.667969 41.238281 62.332031 40.558594 62.332031 Z M 40.558594 61.292969 C 41.648438 61.292969 42.480469 61.722656 43.054688 62.585938 C 43.632812 63.445312 43.917969 64.699219 43.917969 66.335938 C 43.917969 67.972656 43.632812 69.222656 43.054688 70.085938 C 42.480469 70.945312 41.648438 71.378906 40.558594 71.378906 C 39.46875 71.378906 38.636719 70.945312 38.0625 70.085938 C 37.488281 69.222656 37.199219 67.972656 37.199219 66.335938 C 37.199219 64.699219 37.488281 63.445312 38.0625 62.585938 C 38.636719 61.722656 39.46875 61.292969 40.558594 61.292969 Z M 40.558594 61.292969 "/>
<path style=" stroke:none;fill-rule:nonzero;fill:rgb(0%,0%,0%);fill-opacity:1;" d="M 46.230469 69.535156 L 47.605469 69.535156 L 47.605469 71.1875 L 46.230469 71.1875 Z M 46.230469 69.535156 "/>
<path style=" stroke:none;fill-rule:nonzero;fill:rgb(0%,0%,0%);fill-opacity:1;" d="M 53.28125 62.332031 C 52.601562 62.332031 52.09375 62.667969 51.753906 63.332031 C 51.410156 64 51.242188 65 51.242188 66.335938 C 51.242188 67.667969 51.410156 68.667969 51.753906 69.335938 C 52.09375 70.003906 52.601562 70.335938 53.28125 70.335938 C 53.960938 70.335938 54.472656 70.003906 54.8125 69.335938 C 55.15625 68.667969 55.324219 67.667969 55.324219 66.335938 C 55.324219 65 55.15625 64 54.8125 63.332031 C 54.472656 62.667969 53.960938 62.332031 53.28125 62.332031 Z M 53.28125 61.292969 C 54.371094 61.292969 55.203125 61.722656 55.777344 62.585938 C 56.351562 63.445312 56.640625 64.699219 56.640625 66.335938 C 56.640625 67.972656 56.351562 69.222656 55.777344 70.085938 C 55.203125 70.945312 54.371094 71.378906 53.28125 71.378906 C 52.191406 71.378906 51.359375 70.945312 50.785156 70.085938 C 50.207031 69.222656 49.921875 67.972656 49.921875 66.335938 C 49.921875 64.699219 50.207031 63.445312 50.785156 62.585938 C 51.359375 61.722656 52.191406 61.292969 53.28125 61.292969 Z M 53.28125 61.292969 "/>
<g clip-path="url(#clip10)" clip-rule="nonzero">
<path style="fill:none;stroke-width:0.8;stroke-linecap:square;stroke-linejoin:round;stroke:rgb(69.01961%,69.01961%,69.01961%);stroke-opacity:1;stroke-miterlimit:4;" d="M 50.144531 24.512695 L 245.443359 24.512695 " transform="matrix(1.333333,0,0,1.333333,0,0)"/>
</g>
<path style="fill:none;stroke-width:0.8;stroke-linecap:butt;stroke-linejoin:round;stroke:rgb(0%,0%,0%);stroke-opacity:1;stroke-miterlimit:4;" d="M 0.000782013 0.00138474 L -3.500195 0.00138474 " transform="matrix(1.333333,0,0,1.333333,66.858332,32.681747)"/>
<path style=" stroke:none;fill-rule:nonzero;fill:rgb(0%,0%,0%);fill-opacity:1;" d="M 29.492188 36.640625 L 31.640625 36.640625 L 31.640625 29.222656 L 29.300781 29.691406 L 29.300781 28.496094 L 31.628906 28.027344 L 32.941406 28.027344 L 32.941406 36.640625 L 35.089844 36.640625 L 35.089844 37.746094 L 29.492188 37.746094 Z M 29.492188 36.640625 "/>
<path style=" stroke:none;fill-rule:nonzero;fill:rgb(0%,0%,0%);fill-opacity:1;" d="M 38.878906 36.640625 L 43.46875 36.640625 L 43.46875 37.746094 L 37.296875 37.746094 L 37.296875 36.640625 C 37.796875 36.125 38.476562 35.429688 39.335938 34.5625 C 40.199219 33.691406 40.742188 33.128906 40.960938 32.875 C 41.382812 32.40625 41.675781 32.003906 41.84375 31.675781 C 42.011719 31.347656 42.09375 31.027344 42.09375 30.710938 C 42.09375 30.191406 41.914062 29.773438 41.550781 29.449219 C 41.1875 29.121094 40.71875 28.957031 40.136719 28.957031 C 39.722656 28.957031 39.289062 29.03125 38.828125 29.171875 C 38.371094 29.316406 37.882812 29.53125 37.363281 29.824219 L 37.363281 28.496094 C 37.890625 28.28125 38.386719 28.121094 38.84375 28.015625 C 39.308594 27.90625 39.726562 27.851562 40.109375 27.851562 C 41.117188 27.851562 41.917969 28.105469 42.519531 28.609375 C 43.117188 29.109375 43.417969 29.78125 43.417969 30.625 C 43.417969 31.023438 43.339844 31.402344 43.191406 31.761719 C 43.042969 32.117188 42.769531 32.539062 42.375 33.027344 C 42.265625 33.152344 41.921875 33.515625 41.339844 34.117188 C 40.757812 34.71875 39.9375 35.5625 38.878906 36.640625 Z M 38.878906 36.640625 "/>
<path style=" stroke:none;fill-rule:nonzero;fill:rgb(0%,0%,0%);fill-opacity:1;" d="M 46.230469 36.09375 L 47.605469 36.09375 L 47.605469 37.746094 L 46.230469 37.746094 Z M 46.230469 36.09375 "/>
<path style=" stroke:none;fill-rule:nonzero;fill:rgb(0%,0%,0%);fill-opacity:1;" d="M 50.480469 28.027344 L 55.644531 28.027344 L 55.644531 29.136719 L 51.6875 29.136719 L 51.6875 31.515625 C 51.875 31.449219 52.066406 31.402344 52.257812 31.371094 C 52.449219 31.339844 52.640625 31.324219 52.832031 31.324219 C 53.917969 31.324219 54.773438 31.621094 55.410156 32.214844 C 56.042969 32.808594 56.359375 33.613281 56.359375 34.628906 C 56.359375 35.675781 56.035156 36.488281 55.382812 37.066406 C 54.730469 37.648438 53.8125 37.9375 52.628906 37.9375 C 52.222656 37.9375 51.804688 37.902344 51.382812 37.832031 C 50.960938 37.761719 50.523438 37.660156 50.070312 37.519531 L 50.070312 36.199219 C 50.460938 36.410156 50.863281 36.566406 51.28125 36.671875 C 51.699219 36.777344 52.136719 36.828125 52.601562 36.828125 C 53.355469 36.828125 53.949219 36.632812 54.386719 36.238281 C 54.824219 35.84375 55.042969 35.304688 55.042969 34.628906 C 55.042969 33.953125 54.824219 33.417969 54.386719 33.023438 C 53.949219 32.625 53.355469 32.429688 52.601562 32.429688 C 52.25 32.429688 51.898438 32.46875 51.550781 32.546875 C 51.203125 32.625 50.84375 32.746094 50.480469 32.910156 Z M 50.480469 28.027344 "/>
<path style=" stroke:none;fill-rule:nonzero;fill:rgb(0%,0%,0%);fill-opacity:1;" d="M 18.636719 131.289062 L 22.503906 131.289062 L 22.503906 132.492188 L 12.441406 132.492188 L 12.441406 131.289062 L 13.546875 131.289062 C 13.113281 131.035156 12.789062 130.714844 12.582031 130.332031 C 12.371094 129.949219 12.265625 129.488281 12.265625 128.957031 C 12.265625 128.070312 12.617188 127.351562 13.320312 126.796875 C 14.023438 126.242188 14.945312 125.964844 16.089844 125.964844 C 17.238281 125.964844 18.164062 126.242188 18.867188 126.796875 C 19.570312 127.351562 19.921875 128.070312 19.921875 128.957031 C 19.921875 129.488281 19.816406 129.949219 19.605469 130.332031 C 19.394531 130.714844 19.070312 131.035156 18.636719 131.289062 Z M 16.089844 127.210938 C 15.210938 127.210938 14.519531 127.390625 14.019531 127.753906 C 13.515625 128.117188 13.265625 128.613281 13.265625 129.246094 C 13.265625 129.882812 13.515625 130.382812 14.019531 130.742188 C 14.519531 131.105469 15.210938 131.289062 16.089844 131.289062 C 16.972656 131.289062 17.664062 131.105469 18.164062 130.742188 C 18.664062 130.382812 18.917969 129.882812 18.917969 129.246094 C 18.917969 128.613281 18.664062 128.117188 18.164062 127.753906 C 17.664062 127.390625 16.972656 127.210938 16.089844 127.210938 Z M 16.089844 127.210938 "/>
<path style=" stroke:none;fill-rule:nonzero;fill:rgb(0%,0%,0%);fill-opacity:1;" d="M 15.785156 117.746094 L 16.371094 117.746094 L 16.371094 123.253906 C 17.195312 123.199219 17.824219 122.953125 18.257812 122.507812 C 18.6875 122.0625 18.902344 121.445312 18.902344 120.648438 C 18.902344 120.1875 18.847656 119.742188 18.734375 119.3125 C 18.621094 118.878906 18.453125 118.449219 18.226562 118.023438 L 19.359375 118.023438 C 19.542969 118.453125 19.679688 118.894531 19.777344 119.347656 C 19.871094 119.796875 19.921875 120.257812 19.921875 120.71875 C 19.921875 121.882812 19.582031 122.804688 18.90625 123.484375 C 18.226562 124.164062 17.3125 124.503906 16.15625 124.503906 C 14.964844 124.503906 14.015625 124.179688 13.316406 123.535156 C 12.617188 122.890625 12.265625 122.023438 12.265625 120.929688 C 12.265625 119.949219 12.582031 119.171875 13.210938 118.601562 C 13.84375 118.03125 14.699219 117.746094 15.785156 117.746094 Z M 15.433594 118.941406 C 14.777344 118.949219 14.257812 119.132812 13.867188 119.492188 C 13.476562 119.851562 13.277344 120.324219 13.277344 120.914062 C 13.277344 121.582031 13.46875 122.117188 13.847656 122.519531 C 14.222656 122.921875 14.753906 123.152344 15.441406 123.214844 Z M 15.433594 118.941406 "/>
<path style=" stroke:none;fill-rule:nonzero;fill:rgb(0%,0%,0%);fill-opacity:1;" d="M 13.558594 111.554688 C 13.480469 111.6875 13.421875 111.835938 13.386719 111.992188 C 13.351562 112.152344 13.332031 112.328125 13.332031 112.515625 C 13.332031 113.195312 13.550781 113.714844 13.992188 114.078125 C 14.433594 114.441406 15.066406 114.621094 15.890625 114.621094 L 19.730469 114.621094 L 19.730469 115.824219 L 12.441406 115.824219 L 12.441406 114.621094 L 13.574219 114.621094 C 13.128906 114.367188 12.800781 114.039062 12.585938 113.636719 C 12.371094 113.234375 12.265625 112.742188 12.265625 112.164062 C 12.265625 112.082031 12.269531 111.992188 12.28125 111.890625 C 12.289062 111.792969 12.308594 111.679688 12.328125 111.558594 Z M 13.558594 111.554688 "/>
<path style=" stroke:none;fill-rule:nonzero;fill:rgb(0%,0%,0%);fill-opacity:1;" d="M 18.636719 109.140625 L 22.503906 109.140625 L 22.503906 110.34375 L 12.441406 110.34375 L 12.441406 109.140625 L 13.546875 109.140625 C 13.113281 108.886719 12.789062 108.566406 12.582031 108.183594 C 12.371094 107.800781 12.265625 107.339844 12.265625 106.808594 C 12.265625 105.921875 12.617188 105.203125 13.320312 104.648438 C 14.023438 104.09375 14.945312 103.816406 16.089844 103.816406 C 17.238281 103.816406 18.164062 104.09375 18.867188 104.648438 C 19.570312 105.203125 19.921875 105.921875 19.921875 106.808594 C 19.921875 107.339844 19.816406 107.800781 19.605469 108.183594 C 19.394531 108.566406 19.070312 108.886719 18.636719 109.140625 Z M 16.089844 105.0625 C 15.210938 105.0625 14.519531 105.242188 14.019531 105.605469 C 13.515625 105.96875 13.265625 106.464844 13.265625 107.097656 C 13.265625 107.734375 13.515625 108.234375 14.019531 108.59375 C 14.519531 108.957031 15.210938 109.140625 16.089844 109.140625 C 16.972656 109.140625 17.664062 108.957031 18.164062 108.59375 C 18.664062 108.234375 18.917969 107.734375 18.917969 107.097656 C 18.917969 106.464844 18.664062 105.96875 18.164062 105.605469 C 17.664062 105.242188 16.972656 105.0625 16.089844 105.0625 Z M 16.089844 105.0625 "/>
<path style=" stroke:none;fill-rule:nonzero;fill:rgb(0%,0%,0%);fill-opacity:1;" d="M 9.601562 101.832031 L 9.601562 100.636719 L 19.730469 100.636719 L 19.730469 101.832031 Z M 9.601562 101.832031 "/>
<path style=" stroke:none;fill-rule:nonzero;fill:rgb(0%,0%,0%);fill-opacity:1;" d="M 15.785156 91.890625 L 16.371094 91.890625 L 16.371094 97.398438 C 17.195312 97.347656 17.824219 97.097656 18.257812 96.65625 C 18.6875 96.210938 18.902344 95.589844 18.902344 94.796875 C 18.902344 94.335938 18.847656 93.890625 18.734375 93.457031 C 18.621094 93.027344 18.453125 92.597656 18.226562 92.171875 L 19.359375 92.171875 C 19.542969 92.601562 19.679688 93.042969 19.777344 93.492188 C 19.871094 93.945312 19.921875 94.402344 19.921875 94.867188 C 19.921875 96.03125 19.582031 96.953125 18.90625 97.632812 C 18.226562 98.3125 17.3125 98.648438 16.15625 98.648438 C 14.964844 98.648438 14.015625 98.328125 13.316406 97.683594 C 12.617188 97.039062 12.265625 96.167969 12.265625 95.074219 C 12.265625 94.09375 12.582031 93.320312 13.210938 92.75 C 13.84375 92.175781 14.699219 91.890625 15.785156 91.890625 Z M 15.433594 93.089844 C 14.777344 93.097656 14.257812 93.28125 13.867188 93.640625 C 13.476562 94 13.277344 94.472656 13.277344 95.0625 C 13.277344 95.730469 13.46875 96.265625 13.847656 96.667969 C 14.222656 97.066406 14.753906 97.300781 15.441406 97.359375 Z M 15.433594 93.089844 "/>
<path style=" stroke:none;fill-rule:nonzero;fill:rgb(0%,0%,0%);fill-opacity:1;" d="M 12.441406 84.097656 L 15.988281 86.734375 L 19.730469 83.960938 L 19.730469 85.375 L 16.867188 87.496094 L 19.730469 89.617188 L 19.730469 91.03125 L 15.917969 88.199219 L 12.441406 90.789062 L 12.441406 89.378906 L 15.039062 87.445312 L 12.441406 85.511719 Z M 12.441406 84.097656 "/>
<path style=" stroke:none;fill-rule:nonzero;fill:rgb(0%,0%,0%);fill-opacity:1;" d="M 12.441406 82.269531 L 12.441406 81.070312 L 19.730469 81.070312 L 19.730469 82.269531 Z M 9.601562 82.269531 L 9.601562 81.070312 L 11.117188 81.070312 L 11.117188 82.269531 Z M 9.601562 82.269531 "/>
<path style=" stroke:none;fill-rule:nonzero;fill:rgb(0%,0%,0%);fill-opacity:1;" d="M 10.367188 77.378906 L 12.441406 77.378906 L 12.441406 74.914062 L 13.371094 74.914062 L 13.371094 77.378906 L 17.328125 77.378906 C 17.921875 77.378906 18.304688 77.296875 18.476562 77.136719 C 18.644531 76.972656 18.730469 76.640625 18.730469 76.140625 L 18.730469 74.914062 L 19.730469 74.914062 L 19.730469 76.140625 C 19.730469 77.066406 19.558594 77.703125 19.214844 78.054688 C 18.867188 78.40625 18.242188 78.582031 17.328125 78.582031 L 13.371094 78.582031 L 13.371094 79.460938 L 12.441406 79.460938 L 12.441406 78.582031 L 10.367188 78.582031 Z M 10.367188 77.378906 "/>
<path style=" stroke:none;fill-rule:nonzero;fill:rgb(0%,0%,0%);fill-opacity:1;" d="M 20.410156 70.304688 C 21.277344 70.640625 21.84375 70.972656 22.105469 71.292969 C 22.371094 71.613281 22.503906 72.042969 22.503906 72.582031 L 22.503906 73.539062 L 21.503906 73.539062 L 21.503906 72.835938 C 21.503906 72.503906 21.421875 72.25 21.265625 72.066406 C 21.109375 71.882812 20.742188 71.683594 20.160156 71.460938 L 19.613281 71.246094 L 12.441406 74.195312 L 12.441406 72.925781 L 18.140625 70.648438 L 12.441406 68.367188 L 12.441406 67.097656 Z M 20.410156 70.304688 "/>
<g clip-path="url(#clip11)" clip-rule="nonzero">
<path style="fill:none;stroke-width:1.5;stroke-linecap:square;stroke-linejoin:round;stroke:rgb(12.156863%,46.666667%,70.588237%);stroke-opacity:1;stroke-miterlimit:4;" d="M 50.144531 13.376953 L 54.128906 43.746094 L 58.116211 53.077148 L 62.100586 58.810547 L 66.087891 62.232422 L 70.072266 66.380859 L 74.056641 68.973633 L 78.043945 69.638672 L 82.02832 71.888672 L 86.015625 73.957031 L 90 75.076172 L 93.987305 77.748047 L 97.97168 80.291016 L 101.958984 82.886719 L 105.943359 84.448242 L 109.930664 91.224609 L 113.915039 94.833984 L 117.902344 95.589844 L 121.886719 103.03418 L 125.871094 108.208008 L 129.858398 112.50293 L 133.842773 116.604492 L 137.830078 121.523438 L 141.814453 120.770508 L 145.801758 125.317383 L 149.786133 127.40918 L 153.773438 128.847656 L 157.757812 128.024414 L 161.745117 130.816406 L 165.729492 131.027344 L 169.713867 130.746094 L 173.701172 132.597656 L 177.685547 132.673828 L 181.672852 132.550781 L 185.657227 133.523438 L 189.644531 133.555664 L 193.628906 134.704102 L 197.616211 133.719727 L 201.600586 134.733398 L 205.587891 134.384766 L 209.572266 133.986328 L 213.556641 133.916016 L 217.543945 134.358398 L 221.52832 134.003906 L 225.515625 136.248047 L 229.5 134.302734 L 233.487305 136.921875 L 237.47168 134.762695 L 241.458984 135.076172 L 245.443359 134.378906 " transform="matrix(1.333333,0,0,1.333333,0,0)"/>
</g>
<path style="fill:none;stroke-width:0.8;stroke-linecap:square;stroke-linejoin:miter;stroke:rgb(0%,0%,0%);stroke-opacity:1;stroke-miterlimit:4;" d="M 50.144531 143.100586 L 50.144531 7.201172 " transform="matrix(1.333333,0,0,1.333333,0,0)"/>
<path style="fill:none;stroke-width:0.8;stroke-linecap:square;stroke-linejoin:miter;stroke:rgb(0%,0%,0%);stroke-opacity:1;stroke-miterlimit:4;" d="M 245.443359 143.100586 L 245.443359 7.201172 " transform="matrix(1.333333,0,0,1.333333,0,0)"/>
<path style="fill:none;stroke-width:0.8;stroke-linecap:square;stroke-linejoin:miter;stroke:rgb(0%,0%,0%);stroke-opacity:1;stroke-miterlimit:4;" d="M 50.144531 143.100586 L 245.443359 143.100586 " transform="matrix(1.333333,0,0,1.333333,0,0)"/>
<path style="fill:none;stroke-width:0.8;stroke-linecap:square;stroke-linejoin:miter;stroke:rgb(0%,0%,0%);stroke-opacity:1;stroke-miterlimit:4;" d="M 50.144531 7.201172 L 245.443359 7.201172 " transform="matrix(1.333333,0,0,1.333333,0,0)"/>
<use xlink:href="#surface5" mask="url(#mask0)"/>
<path style="fill:none;stroke-width:1.5;stroke-linecap:square;stroke-linejoin:round;stroke:rgb(12.156863%,46.666667%,70.588237%);stroke-opacity:1;stroke-miterlimit:4;" d="M 185.167969 20.299805 L 205.168945 20.299805 " transform="matrix(1.333333,0,0,1.333333,0,0)"/>
<path style=" stroke:none;fill-rule:nonzero;fill:rgb(0%,0%,0%);fill-opacity:1;" d="M 286.667969 22.367188 L 286.667969 24.441406 L 289.132812 24.441406 L 289.132812 25.371094 L 286.667969 25.371094 L 286.667969 29.328125 C 286.667969 29.921875 286.746094 30.304688 286.910156 30.476562 C 287.074219 30.644531 287.402344 30.730469 287.902344 30.730469 L 289.132812 30.730469 L 289.132812 31.730469 L 287.902344 31.730469 C 286.980469 31.730469 286.339844 31.558594 285.988281 31.214844 C 285.636719 30.867188 285.460938 30.242188 285.460938 29.328125 L 285.460938 25.371094 L 284.582031 25.371094 L 284.582031 24.441406 L 285.460938 24.441406 L 285.460938 22.367188 Z M 286.667969 22.367188 "/>
<path style=" stroke:none;fill-rule:nonzero;fill:rgb(0%,0%,0%);fill-opacity:1;" d="M 294.933594 25.558594 C 294.800781 25.480469 294.652344 25.421875 294.496094 25.386719 C 294.335938 25.351562 294.160156 25.332031 293.972656 25.332031 C 293.292969 25.332031 292.773438 25.550781 292.410156 25.992188 C 292.046875 26.433594 291.867188 27.066406 291.867188 27.890625 L 291.867188 31.730469 L 290.664062 31.730469 L 290.664062 24.441406 L 291.867188 24.441406 L 291.867188 25.574219 C 292.121094 25.128906 292.449219 24.800781 292.851562 24.585938 C 293.253906 24.371094 293.746094 24.265625 294.324219 24.265625 C 294.40625 24.265625 294.496094 24.269531 294.597656 24.28125 C 294.695312 24.289062 294.808594 24.308594 294.929688 24.328125 Z M 294.933594 25.558594 "/>
<path style=" stroke:none;fill-rule:nonzero;fill:rgb(0%,0%,0%);fill-opacity:1;" d="M 299.503906 28.066406 C 298.539062 28.066406 297.867188 28.175781 297.492188 28.398438 C 297.121094 28.617188 296.933594 28.996094 296.933594 29.53125 C 296.933594 29.957031 297.074219 30.292969 297.351562 30.542969 C 297.632812 30.792969 298.015625 30.917969 298.496094 30.917969 C 299.160156 30.917969 299.695312 30.679688 300.09375 30.210938 C 300.496094 29.738281 300.695312 29.113281 300.695312 28.332031 L 300.695312 28.066406 Z M 301.894531 27.570312 L 301.894531 31.730469 L 300.695312 31.730469 L 300.695312 30.625 C 300.421875 31.066406 300.082031 31.394531 299.675781 31.605469 C 299.265625 31.816406 298.765625 31.921875 298.175781 31.921875 C 297.429688 31.921875 296.835938 31.710938 296.394531 31.292969 C 295.953125 30.871094 295.734375 30.3125 295.734375 29.609375 C 295.734375 28.789062 296.007812 28.171875 296.558594 27.753906 C 297.109375 27.335938 297.925781 27.128906 299.015625 27.128906 L 300.695312 27.128906 L 300.695312 27.011719 C 300.695312 26.460938 300.515625 26.03125 300.152344 25.730469 C 299.789062 25.429688 299.28125 25.277344 298.625 25.277344 C 298.210938 25.277344 297.804688 25.328125 297.40625 25.429688 C 297.011719 25.527344 296.632812 25.679688 296.269531 25.878906 L 296.269531 24.769531 C 296.707031 24.601562 297.132812 24.476562 297.546875 24.390625 C 297.957031 24.308594 298.359375 24.265625 298.75 24.265625 C 299.804688 24.265625 300.59375 24.539062 301.113281 25.085938 C 301.632812 25.632812 301.894531 26.460938 301.894531 27.570312 Z M 301.894531 27.570312 "/>
<path style=" stroke:none;fill-rule:nonzero;fill:rgb(0%,0%,0%);fill-opacity:1;" d="M 304.363281 24.441406 L 305.558594 24.441406 L 305.558594 31.730469 L 304.363281 31.730469 Z M 304.363281 21.601562 L 305.558594 21.601562 L 305.558594 23.117188 L 304.363281 23.117188 Z M 304.363281 21.601562 "/>
<path style=" stroke:none;fill-rule:nonzero;fill:rgb(0%,0%,0%);fill-opacity:1;" d="M 314.128906 27.328125 L 314.128906 31.730469 L 312.929688 31.730469 L 312.929688 27.367188 C 312.929688 26.679688 312.796875 26.164062 312.527344 25.820312 C 312.257812 25.476562 311.851562 25.304688 311.316406 25.304688 C 310.667969 25.304688 310.160156 25.511719 309.785156 25.925781 C 309.410156 26.335938 309.222656 26.898438 309.222656 27.609375 L 309.222656 31.730469 L 308.019531 31.730469 L 308.019531 24.441406 L 309.222656 24.441406 L 309.222656 25.574219 C 309.511719 25.132812 309.847656 24.804688 310.238281 24.589844 C 310.625 24.371094 311.074219 24.265625 311.582031 24.265625 C 312.421875 24.265625 313.054688 24.523438 313.484375 25.042969 C 313.914062 25.558594 314.128906 26.320312 314.128906 27.328125 Z M 314.128906 27.328125 "/>
</g>
</svg>
