<?xml version="1.0" encoding="UTF-8"?>
<svg xmlns="http://www.w3.org/2000/svg" xmlns:xlink="http://www.w3.org/1999/xlink" width="348.591675" height="240.875" viewBox="0 0 348.591675 240.875" version="1.1">
<defs>
<clipPath id="clip1">
  <path d="M 66.859375 9.601562 L 68 9.601562 L 68 190.800781 L 66.859375 190.800781 Z M 66.859375 9.601562 "/>
</clipPath>
<clipPath id="clip2">
  <path d="M 152 9.601562 L 155 9.601562 L 155 190.800781 L 152 190.800781 Z M 152 9.601562 "/>
</clipPath>
<clipPath id="clip3">
  <path d="M 239 9.601562 L 242 9.601562 L 242 190.800781 L 239 190.800781 Z M 239 9.601562 "/>
</clipPath>
<clipPath id="clip4">
  <path d="M 326 9.601562 L 327.257812 9.601562 L 327.257812 190.800781 L 326 190.800781 Z M 326 9.601562 "/>
</clipPath>
<clipPath id="clip5">
  <path d="M 66.859375 186 L 327.257812 186 L 327.257812 188 L 66.859375 188 Z M 66.859375 186 "/>
</clipPath>
<clipPath id="clip6">
  <path d="M 66.859375 149 L 327.257812 149 L 327.257812 151 L 66.859375 151 Z M 66.859375 149 "/>
</clipPath>
<clipPath id="clip7">
  <path d="M 66.859375 111 L 327.257812 111 L 327.257812 114 L 66.859375 114 Z M 66.859375 111 "/>
</clipPath>
<clipPath id="clip8">
  <path d="M 66.859375 74 L 327.257812 74 L 327.257812 77 L 66.859375 77 Z M 66.859375 74 "/>
</clipPath>
<clipPath id="clip9">
  <path d="M 66.859375 37 L 327.257812 37 L 327.257812 40 L 66.859375 40 Z M 66.859375 37 "/>
</clipPath>
<clipPath id="clip10">
  <path d="M 66.859375 65 L 127 65 L 127 183 L 66.859375 183 Z M 66.859375 65 "/>
</clipPath>
<clipPath id="clip11">
  <path d="M 66.859375 49 L 182 49 L 182 184 L 66.859375 184 Z M 66.859375 49 "/>
</clipPath>
<filter id="alpha" filterUnits="objectBoundingBox" x="0%" y="0%" width="100%" height="100%">
  <feColorMatrix type="matrix" in="SourceGraphic" values="0 0 0 0 1 0 0 0 0 1 0 0 0 0 1 0 0 0 1 0"/>
</filter>
<mask id="mask0">
  <g filter="url(#alpha)">
<rect x="0" y="0" width="348.591675" height="240.875" style="fill:rgb(0%,0%,0%);fill-opacity:0.8;stroke:none;"/>
  </g>
</mask>
<clipPath id="clip12">
  <rect x="0" y="0" width="349" height="241"/>
</clipPath>
<g id="surface5" clip-path="url(#clip12)">
<path style="fill-rule:nonzero;fill:rgb(100%,100%,100%);fill-opacity:1;stroke-width:1;stroke-linecap:butt;stroke-linejoin:miter;stroke:rgb(80.000001%,80.000001%,80.000001%);stroke-opacity:1;stroke-miterlimit:4;" d="M 128.176758 73.913086 L 238.444336 73.913086 C 239.777344 73.913086 240.442383 73.245117 240.442383 71.912109 L 240.442383 14.200195 C 240.442383 12.867188 239.777344 12.199219 238.444336 12.199219 L 128.176758 12.199219 C 126.84375 12.199219 126.175781 12.867188 126.175781 14.200195 L 126.175781 71.912109 C 126.175781 73.245117 126.84375 73.913086 128.176758 73.913086 Z M 128.176758 73.913086 " transform="matrix(1.333333,0,0,1.333333,0,0)"/>
</g>
</defs>
<g id="surface1">
<path style=" stroke:none;fill-rule:nonzero;fill:rgb(100%,100%,100%);fill-opacity:1;" d="M 66.859375 190.800781 L 327.257812 190.800781 L 327.257812 9.601562 L 66.859375 9.601562 Z M 66.859375 190.800781 "/>
<g clip-path="url(#clip1)" clip-rule="nonzero">
<path style="fill:none;stroke-width:0.8;stroke-linecap:square;stroke-linejoin:round;stroke:rgb(69.01961%,69.01961%,69.01961%);stroke-opacity:1;stroke-miterlimit:4;" d="M 50.144531 143.100586 L 50.144531 7.201172 " transform="matrix(1.333333,0,0,1.333333,0,0)"/>
</g>
<path style="fill:none;stroke-width:0.8;stroke-linecap:butt;stroke-linejoin:round;stroke:rgb(0%,0%,0%);stroke-opacity:1;stroke-miterlimit:4;" d="M 0.000782013 0.000579834 L 0.000782013 3.498627 " transform="matrix(1.333333,0,0,1.333333,66.858332,190.800008)"/>
<path style=" stroke:none;fill-rule:nonzero;fill:rgb(0%,0%,0%);fill-opacity:1;" d="M 52.847656 209.054688 L 54.992188 209.054688 L 54.992188 201.640625 L 52.65625 202.109375 L 52.65625 200.910156 L 54.980469 200.441406 L 56.296875 200.441406 L 56.296875 209.054688 L 58.445312 209.054688 L 58.445312 210.164062 L 52.847656 210.164062 Z M 52.847656 209.054688 "/>
<path style=" stroke:none;fill-rule:nonzero;fill:rgb(0%,0%,0%);fill-opacity:1;" d="M 63.914062 201.308594 C 63.234375 201.308594 62.726562 201.640625 62.386719 202.308594 C 62.042969 202.972656 61.875 203.976562 61.875 205.3125 C 61.875 206.644531 62.042969 207.644531 62.386719 208.308594 C 62.726562 208.976562 63.234375 209.308594 63.914062 209.308594 C 64.59375 209.308594 65.105469 208.976562 65.445312 208.308594 C 65.789062 207.644531 65.957031 206.644531 65.957031 205.3125 C 65.957031 203.976562 65.789062 202.972656 65.445312 202.308594 C 65.105469 201.640625 64.59375 201.308594 63.914062 201.308594 Z M 63.914062 200.265625 C 65.003906 200.265625 65.835938 200.699219 66.410156 201.558594 C 66.984375 202.421875 67.273438 203.671875 67.273438 205.3125 C 67.273438 206.949219 66.984375 208.199219 66.410156 209.058594 C 65.835938 209.921875 65.003906 210.351562 63.914062 210.351562 C 62.824219 210.351562 61.992188 209.921875 61.417969 209.058594 C 60.839844 208.199219 60.554688 206.949219 60.554688 205.3125 C 60.554688 203.671875 60.839844 202.421875 61.417969 201.558594 C 61.992188 200.699219 62.824219 200.265625 63.914062 200.265625 Z M 63.914062 200.265625 "/>
<path style=" stroke:none;fill-rule:nonzero;fill:rgb(0%,0%,0%);fill-opacity:1;" d="M 69.273438 201.746094 L 75.117188 201.746094 L 75.117188 202.519531 L 69.273438 202.519531 Z M 69.273438 201.746094 "/>
<path style=" stroke:none;fill-rule:nonzero;fill:rgb(0%,0%,0%);fill-opacity:1;" d="M 77.898438 204.285156 L 81.109375 204.285156 L 81.109375 205.058594 L 76.789062 205.058594 L 76.789062 204.285156 C 77.140625 203.921875 77.613281 203.4375 78.21875 202.828125 C 78.820312 202.21875 79.199219 201.824219 79.355469 201.648438 C 79.648438 201.316406 79.855469 201.039062 79.972656 200.808594 C 80.089844 200.578125 80.148438 200.355469 80.148438 200.132812 C 80.148438 199.769531 80.019531 199.476562 79.769531 199.25 C 79.515625 199.019531 79.183594 198.90625 78.777344 198.90625 C 78.488281 198.90625 78.183594 198.957031 77.863281 199.054688 C 77.542969 199.15625 77.199219 199.308594 76.835938 199.511719 L 76.835938 198.582031 C 77.207031 198.433594 77.550781 198.320312 77.875 198.246094 C 78.195312 198.167969 78.492188 198.132812 78.757812 198.132812 C 79.464844 198.132812 80.023438 198.308594 80.445312 198.660156 C 80.863281 199.011719 81.074219 199.484375 81.074219 200.074219 C 81.074219 200.351562 81.019531 200.617188 80.914062 200.867188 C 80.8125 201.117188 80.621094 201.414062 80.34375 201.753906 C 80.269531 201.84375 80.027344 202.097656 79.617188 202.519531 C 79.210938 202.9375 78.636719 203.527344 77.898438 204.285156 Z M 77.898438 204.285156 "/>
<g clip-path="url(#clip2)" clip-rule="nonzero">
<path style="fill:none;stroke-width:0.8;stroke-linecap:square;stroke-linejoin:round;stroke:rgb(69.01961%,69.01961%,69.01961%);stroke-opacity:1;stroke-miterlimit:4;" d="M 115.245117 143.100586 L 115.245117 7.201172 " transform="matrix(1.333333,0,0,1.333333,0,0)"/>
</g>
<path style="fill:none;stroke-width:0.8;stroke-linecap:butt;stroke-linejoin:round;stroke:rgb(0%,0%,0%);stroke-opacity:1;stroke-miterlimit:4;" d="M 0.00136566 0.000579834 L 0.00136566 3.498627 " transform="matrix(1.333333,0,0,1.333333,153.658335,190.800008)"/>
<path style=" stroke:none;fill-rule:nonzero;fill:rgb(0%,0%,0%);fill-opacity:1;" d="M 139.644531 209.066406 L 141.792969 209.066406 L 141.792969 201.652344 L 139.457031 202.121094 L 139.457031 200.921875 L 141.78125 200.453125 L 143.097656 200.453125 L 143.097656 209.066406 L 145.242188 209.066406 L 145.242188 210.171875 L 139.644531 210.171875 Z M 139.644531 209.066406 "/>
<path style=" stroke:none;fill-rule:nonzero;fill:rgb(0%,0%,0%);fill-opacity:1;" d="M 150.710938 201.320312 C 150.035156 201.320312 149.527344 201.652344 149.183594 202.320312 C 148.84375 202.984375 148.675781 203.984375 148.675781 205.324219 C 148.675781 206.65625 148.84375 207.65625 149.183594 208.320312 C 149.527344 208.988281 150.035156 209.320312 150.710938 209.320312 C 151.394531 209.320312 151.90625 208.988281 152.246094 208.320312 C 152.585938 207.65625 152.757812 206.65625 152.757812 205.324219 C 152.757812 203.984375 152.585938 202.984375 152.246094 202.320312 C 151.90625 201.652344 151.394531 201.320312 150.710938 201.320312 Z M 150.710938 200.277344 C 151.800781 200.277344 152.636719 200.707031 153.210938 201.570312 C 153.785156 202.433594 154.074219 203.683594 154.074219 205.324219 C 154.074219 206.960938 153.785156 208.207031 153.210938 209.070312 C 152.636719 209.933594 151.800781 210.363281 150.710938 210.363281 C 149.625 210.363281 148.792969 209.933594 148.214844 209.070312 C 147.640625 208.207031 147.355469 206.960938 147.355469 205.324219 C 147.355469 203.683594 147.640625 202.433594 148.214844 201.570312 C 148.792969 200.707031 149.625 200.277344 150.710938 200.277344 Z M 150.710938 200.277344 "/>
<path style=" stroke:none;fill-rule:nonzero;fill:rgb(0%,0%,0%);fill-opacity:1;" d="M 156.074219 201.753906 L 161.917969 201.753906 L 161.917969 202.53125 L 156.074219 202.53125 Z M 156.074219 201.753906 "/>
<path style=" stroke:none;fill-rule:nonzero;fill:rgb(0%,0%,0%);fill-opacity:1;" d="M 164.0625 204.292969 L 165.566406 204.292969 L 165.566406 199.101562 L 163.929688 199.429688 L 163.929688 198.59375 L 165.558594 198.265625 L 166.480469 198.265625 L 166.480469 204.292969 L 167.980469 204.292969 L 167.980469 205.070312 L 164.0625 205.070312 Z M 164.0625 204.292969 "/>
<g clip-path="url(#clip3)" clip-rule="nonzero">
<path style="fill:none;stroke-width:0.8;stroke-linecap:square;stroke-linejoin:round;stroke:rgb(69.01961%,69.01961%,69.01961%);stroke-opacity:1;stroke-miterlimit:4;" d="M 180.342773 143.100586 L 180.342773 7.201172 " transform="matrix(1.333333,0,0,1.333333,0,0)"/>
</g>
<path style="fill:none;stroke-width:0.8;stroke-linecap:butt;stroke-linejoin:round;stroke:rgb(0%,0%,0%);stroke-opacity:1;stroke-miterlimit:4;" d="M -0.000976562 0.000579834 L -0.000976562 3.498627 " transform="matrix(1.333333,0,0,1.333333,240.458333,190.800008)"/>
<path style=" stroke:none;fill-rule:nonzero;fill:rgb(0%,0%,0%);fill-opacity:1;" d="M 230.378906 209.054688 L 232.527344 209.054688 L 232.527344 201.640625 L 230.191406 202.109375 L 230.191406 200.910156 L 232.515625 200.441406 L 233.828125 200.441406 L 233.828125 209.054688 L 235.976562 209.054688 L 235.976562 210.164062 L 230.378906 210.164062 Z M 230.378906 209.054688 "/>
<path style=" stroke:none;fill-rule:nonzero;fill:rgb(0%,0%,0%);fill-opacity:1;" d="M 241.445312 201.308594 C 240.769531 201.308594 240.261719 201.640625 239.917969 202.308594 C 239.578125 202.972656 239.40625 203.976562 239.40625 205.3125 C 239.40625 206.644531 239.578125 207.644531 239.917969 208.308594 C 240.261719 208.976562 240.769531 209.308594 241.445312 209.308594 C 242.128906 209.308594 242.636719 208.976562 242.980469 208.308594 C 243.320312 207.644531 243.492188 206.644531 243.492188 205.3125 C 243.492188 203.976562 243.320312 202.972656 242.980469 202.308594 C 242.636719 201.640625 242.128906 201.308594 241.445312 201.308594 Z M 241.445312 200.265625 C 242.535156 200.265625 243.367188 200.699219 243.945312 201.558594 C 244.519531 202.421875 244.804688 203.671875 244.804688 205.3125 C 244.804688 206.949219 244.519531 208.199219 243.945312 209.058594 C 243.367188 209.921875 242.535156 210.351562 241.445312 210.351562 C 240.355469 210.351562 239.523438 209.921875 238.949219 209.058594 C 238.375 208.199219 238.085938 206.949219 238.085938 205.3125 C 238.085938 203.671875 238.375 202.421875 238.949219 201.558594 C 239.523438 200.699219 240.355469 200.265625 241.445312 200.265625 Z M 241.445312 200.265625 "/>
<path style=" stroke:none;fill-rule:nonzero;fill:rgb(0%,0%,0%);fill-opacity:1;" d="M 248.785156 198.859375 C 248.3125 198.859375 247.957031 199.09375 247.714844 199.558594 C 247.476562 200.027344 247.359375 200.726562 247.359375 201.664062 C 247.359375 202.59375 247.476562 203.296875 247.714844 203.761719 C 247.957031 204.230469 248.3125 204.460938 248.785156 204.460938 C 249.261719 204.460938 249.621094 204.230469 249.859375 203.761719 C 250.097656 203.296875 250.21875 202.59375 250.21875 201.664062 C 250.21875 200.726562 250.097656 200.027344 249.859375 199.558594 C 249.621094 199.09375 249.261719 198.859375 248.785156 198.859375 Z M 248.785156 198.132812 C 249.546875 198.132812 250.132812 198.433594 250.535156 199.035156 C 250.9375 199.640625 251.136719 200.515625 251.136719 201.664062 C 251.136719 202.808594 250.9375 203.683594 250.535156 204.285156 C 250.132812 204.890625 249.546875 205.191406 248.785156 205.191406 C 248.023438 205.191406 247.441406 204.890625 247.039062 204.285156 C 246.636719 203.683594 246.433594 202.808594 246.433594 201.664062 C 246.433594 200.515625 246.636719 199.640625 247.039062 199.035156 C 247.441406 198.433594 248.023438 198.132812 248.785156 198.132812 Z M 248.785156 198.132812 "/>
<g clip-path="url(#clip4)" clip-rule="nonzero">
<path style="fill:none;stroke-width:0.8;stroke-linecap:square;stroke-linejoin:round;stroke:rgb(69.01961%,69.01961%,69.01961%);stroke-opacity:1;stroke-miterlimit:4;" d="M 245.443359 143.100586 L 245.443359 7.201172 " transform="matrix(1.333333,0,0,1.333333,0,0)"/>
</g>
<path style="fill:none;stroke-width:0.8;stroke-linecap:butt;stroke-linejoin:round;stroke:rgb(0%,0%,0%);stroke-opacity:1;stroke-miterlimit:4;" d="M -0.000396729 0.000579834 L -0.000396729 3.498627 " transform="matrix(1.333333,0,0,1.333333,327.258341,190.800008)"/>
<path style=" stroke:none;fill-rule:nonzero;fill:rgb(0%,0%,0%);fill-opacity:1;" d="M 317.179688 209.066406 L 319.328125 209.066406 L 319.328125 201.652344 L 316.988281 202.121094 L 316.988281 200.921875 L 319.316406 200.453125 L 320.628906 200.453125 L 320.628906 209.066406 L 322.777344 209.066406 L 322.777344 210.171875 L 317.179688 210.171875 Z M 317.179688 209.066406 "/>
<path style=" stroke:none;fill-rule:nonzero;fill:rgb(0%,0%,0%);fill-opacity:1;" d="M 328.246094 201.320312 C 327.570312 201.320312 327.058594 201.652344 326.71875 202.320312 C 326.378906 202.984375 326.207031 203.984375 326.207031 205.324219 C 326.207031 206.65625 326.378906 207.65625 326.71875 208.320312 C 327.058594 208.988281 327.570312 209.320312 328.246094 209.320312 C 328.925781 209.320312 329.4375 208.988281 329.777344 208.320312 C 330.121094 207.65625 330.292969 206.65625 330.292969 205.324219 C 330.292969 203.984375 330.121094 202.984375 329.777344 202.320312 C 329.4375 201.652344 328.925781 201.320312 328.246094 201.320312 Z M 328.246094 200.277344 C 329.335938 200.277344 330.167969 200.707031 330.742188 201.570312 C 331.320312 202.433594 331.605469 203.683594 331.605469 205.324219 C 331.605469 206.960938 331.320312 208.207031 330.742188 209.070312 C 330.167969 209.933594 329.335938 210.363281 328.246094 210.363281 C 327.15625 210.363281 326.324219 209.933594 325.75 209.070312 C 325.175781 208.207031 324.886719 206.960938 324.886719 205.324219 C 324.886719 203.683594 325.175781 202.433594 325.75 201.570312 C 326.324219 200.707031 327.15625 200.277344 328.246094 200.277344 Z M 328.246094 200.277344 "/>
<path style=" stroke:none;fill-rule:nonzero;fill:rgb(0%,0%,0%);fill-opacity:1;" d="M 333.777344 204.292969 L 335.28125 204.292969 L 335.28125 199.101562 L 333.644531 199.429688 L 333.644531 198.59375 L 335.269531 198.265625 L 336.191406 198.265625 L 336.191406 204.292969 L 337.695312 204.292969 L 337.695312 205.070312 L 333.777344 205.070312 Z M 333.777344 204.292969 "/>
<path style="fill:none;stroke-width:0.6;stroke-linecap:butt;stroke-linejoin:round;stroke:rgb(0%,0%,0%);stroke-opacity:1;stroke-miterlimit:4;" d="M 0.000404358 0.000579834 L 0.000404358 1.998627 " transform="matrix(1.333333,0,0,1.333333,92.987742,190.800008)"/>
<path style="fill:none;stroke-width:0.6;stroke-linecap:butt;stroke-linejoin:round;stroke:rgb(0%,0%,0%);stroke-opacity:1;stroke-miterlimit:4;" d="M 0.000732422 0.000579834 L 0.000732422 1.998627 " transform="matrix(1.333333,0,0,1.333333,108.272461,190.800008)"/>
<path style="fill:none;stroke-width:0.6;stroke-linecap:butt;stroke-linejoin:round;stroke:rgb(0%,0%,0%);stroke-opacity:1;stroke-miterlimit:4;" d="M 0.000038147 0.000579834 L 0.000038147 1.998627 " transform="matrix(1.333333,0,0,1.333333,119.117137,190.800008)"/>
<path style="fill:none;stroke-width:0.6;stroke-linecap:butt;stroke-linejoin:round;stroke:rgb(0%,0%,0%);stroke-opacity:1;stroke-miterlimit:4;" d="M -0.00119019 0.000579834 L -0.00119019 1.998627 " transform="matrix(1.333333,0,0,1.333333,127.528931,190.800008)"/>
<path style="fill:none;stroke-width:0.6;stroke-linecap:butt;stroke-linejoin:round;stroke:rgb(0%,0%,0%);stroke-opacity:1;stroke-miterlimit:4;" d="M 0.000358582 0.000579834 L 0.000358582 1.998627 " transform="matrix(1.333333,0,0,1.333333,134.401866,190.800008)"/>
<path style="fill:none;stroke-width:0.6;stroke-linecap:butt;stroke-linejoin:round;stroke:rgb(0%,0%,0%);stroke-opacity:1;stroke-miterlimit:4;" d="M -0.0014267 0.000579834 L -0.0014267 1.998627 " transform="matrix(1.333333,0,0,1.333333,140.21284,190.800008)"/>
<path style="fill:none;stroke-width:0.6;stroke-linecap:butt;stroke-linejoin:round;stroke:rgb(0%,0%,0%);stroke-opacity:1;stroke-miterlimit:4;" d="M -0.000335693 0.000579834 L -0.000335693 1.998627 " transform="matrix(1.333333,0,0,1.333333,145.246541,190.800008)"/>
<path style="fill:none;stroke-width:0.6;stroke-linecap:butt;stroke-linejoin:round;stroke:rgb(0%,0%,0%);stroke-opacity:1;stroke-miterlimit:4;" d="M 0.000686646 0.000579834 L 0.000686646 1.998627 " transform="matrix(1.333333,0,0,1.333333,149.686584,190.800008)"/>
<path style="fill:none;stroke-width:0.6;stroke-linecap:butt;stroke-linejoin:round;stroke:rgb(0%,0%,0%);stroke-opacity:1;stroke-miterlimit:4;" d="M 0.000991821 0.000579834 L 0.000991821 1.998627 " transform="matrix(1.333333,0,0,1.333333,179.78774,190.800008)"/>
<path style="fill:none;stroke-width:0.6;stroke-linecap:butt;stroke-linejoin:round;stroke:rgb(0%,0%,0%);stroke-opacity:1;stroke-miterlimit:4;" d="M 0.00132751 0.000579834 L 0.00132751 1.998627 " transform="matrix(1.333333,0,0,1.333333,195.072449,190.800008)"/>
<path style="fill:none;stroke-width:0.6;stroke-linecap:butt;stroke-linejoin:round;stroke:rgb(0%,0%,0%);stroke-opacity:1;stroke-miterlimit:4;" d="M 0.00062561 0.000579834 L 0.00062561 1.998627 " transform="matrix(1.333333,0,0,1.333333,205.917135,190.800008)"/>
<path style="fill:none;stroke-width:0.6;stroke-linecap:butt;stroke-linejoin:round;stroke:rgb(0%,0%,0%);stroke-opacity:1;stroke-miterlimit:4;" d="M -0.000610352 0.000579834 L -0.000610352 1.998627 " transform="matrix(1.333333,0,0,1.333333,214.328939,190.800008)"/>
<path style="fill:none;stroke-width:0.6;stroke-linecap:butt;stroke-linejoin:round;stroke:rgb(0%,0%,0%);stroke-opacity:1;stroke-miterlimit:4;" d="M 0.000946045 0.000579834 L 0.000946045 1.998627 " transform="matrix(1.333333,0,0,1.333333,221.201864,190.800008)"/>
<path style="fill:none;stroke-width:0.6;stroke-linecap:butt;stroke-linejoin:round;stroke:rgb(0%,0%,0%);stroke-opacity:1;stroke-miterlimit:4;" d="M -0.000839233 0.000579834 L -0.000839233 1.998627 " transform="matrix(1.333333,0,0,1.333333,227.012838,190.800008)"/>
<path style="fill:none;stroke-width:0.6;stroke-linecap:butt;stroke-linejoin:round;stroke:rgb(0%,0%,0%);stroke-opacity:1;stroke-miterlimit:4;" d="M 0.000244141 0.000579834 L 0.000244141 1.998627 " transform="matrix(1.333333,0,0,1.333333,232.046549,190.800008)"/>
<path style="fill:none;stroke-width:0.6;stroke-linecap:butt;stroke-linejoin:round;stroke:rgb(0%,0%,0%);stroke-opacity:1;stroke-miterlimit:4;" d="M 0.00126648 0.000579834 L 0.00126648 1.998627 " transform="matrix(1.333333,0,0,1.333333,236.486593,190.800008)"/>
<path style="fill:none;stroke-width:0.6;stroke-linecap:butt;stroke-linejoin:round;stroke:rgb(0%,0%,0%);stroke-opacity:1;stroke-miterlimit:4;" d="M -0.00134277 0.000579834 L -0.00134277 1.998627 " transform="matrix(1.333333,0,0,1.333333,266.587728,190.800008)"/>
<path style="fill:none;stroke-width:0.6;stroke-linecap:butt;stroke-linejoin:round;stroke:rgb(0%,0%,0%);stroke-opacity:1;stroke-miterlimit:4;" d="M -0.00102234 0.000579834 L -0.00102234 1.998627 " transform="matrix(1.333333,0,0,1.333333,281.872457,190.800008)"/>
<path style="fill:none;stroke-width:0.6;stroke-linecap:butt;stroke-linejoin:round;stroke:rgb(0%,0%,0%);stroke-opacity:1;stroke-miterlimit:4;" d="M 0.00120544 0.000579834 L 0.00120544 1.998627 " transform="matrix(1.333333,0,0,1.333333,292.717143,190.800008)"/>
<path style="fill:none;stroke-width:0.6;stroke-linecap:butt;stroke-linejoin:round;stroke:rgb(0%,0%,0%);stroke-opacity:1;stroke-miterlimit:4;" d="M -0.0000152588 0.000579834 L -0.0000152588 1.998627 " transform="matrix(1.333333,0,0,1.333333,301.128927,190.800008)"/>
<path style="fill:none;stroke-width:0.6;stroke-linecap:butt;stroke-linejoin:round;stroke:rgb(0%,0%,0%);stroke-opacity:1;stroke-miterlimit:4;" d="M -0.00138855 0.000579834 L -0.00138855 1.998627 " transform="matrix(1.333333,0,0,1.333333,308.001851,190.800008)"/>
<path style="fill:none;stroke-width:0.6;stroke-linecap:butt;stroke-linejoin:round;stroke:rgb(0%,0%,0%);stroke-opacity:1;stroke-miterlimit:4;" d="M -0.000259399 0.000579834 L -0.000259399 1.998627 " transform="matrix(1.333333,0,0,1.333333,313.812846,190.800008)"/>
<path style="fill:none;stroke-width:0.6;stroke-linecap:butt;stroke-linejoin:round;stroke:rgb(0%,0%,0%);stroke-opacity:1;stroke-miterlimit:4;" d="M 0.000839233 0.000579834 L 0.000839233 1.998627 " transform="matrix(1.333333,0,0,1.333333,318.846537,190.800008)"/>
<path style="fill:none;stroke-width:0.6;stroke-linecap:butt;stroke-linejoin:round;stroke:rgb(0%,0%,0%);stroke-opacity:1;stroke-miterlimit:4;" d="M -0.00106812 0.000579834 L -0.00106812 1.998627 " transform="matrix(1.333333,0,0,1.333333,323.28658,190.800008)"/>
<path style=" stroke:none;fill-rule:nonzero;fill:rgb(0%,0%,0%);fill-opacity:1;" d="M 165.878906 219.140625 L 165.878906 221.210938 L 168.34375 221.210938 L 168.34375 222.140625 L 165.878906 222.140625 L 165.878906 226.101562 C 165.878906 226.695312 165.957031 227.078125 166.121094 227.246094 C 166.285156 227.414062 166.613281 227.5 167.113281 227.5 L 168.34375 227.5 L 168.34375 228.503906 L 167.113281 228.503906 C 166.191406 228.503906 165.550781 228.328125 165.199219 227.984375 C 164.847656 227.640625 164.671875 227.011719 164.671875 226.101562 L 164.671875 222.140625 L 163.792969 222.140625 L 163.792969 221.210938 L 164.671875 221.210938 L 164.671875 219.140625 Z M 165.878906 219.140625 "/>
<path style=" stroke:none;fill-rule:nonzero;fill:rgb(0%,0%,0%);fill-opacity:1;" d="M 169.917969 221.210938 L 171.117188 221.210938 L 171.117188 228.503906 L 169.917969 228.503906 Z M 169.917969 218.371094 L 171.117188 218.371094 L 171.117188 219.890625 L 169.917969 219.890625 Z M 169.917969 218.371094 "/>
<path style=" stroke:none;fill-rule:nonzero;fill:rgb(0%,0%,0%);fill-opacity:1;" d="M 179.300781 222.609375 C 179.601562 222.070312 179.960938 221.675781 180.375 221.417969 C 180.792969 221.164062 181.28125 221.035156 181.847656 221.035156 C 182.605469 221.035156 183.191406 221.300781 183.605469 221.832031 C 184.019531 222.363281 184.222656 223.121094 184.222656 224.101562 L 184.222656 228.503906 L 183.019531 228.503906 L 183.019531 224.140625 C 183.019531 223.441406 182.894531 222.921875 182.648438 222.585938 C 182.398438 222.246094 182.023438 222.078125 181.515625 222.078125 C 180.894531 222.078125 180.402344 222.285156 180.042969 222.695312 C 179.683594 223.105469 179.503906 223.667969 179.503906 224.382812 L 179.503906 228.503906 L 178.300781 228.503906 L 178.300781 224.140625 C 178.300781 223.4375 178.175781 222.917969 177.929688 222.582031 C 177.679688 222.246094 177.300781 222.078125 176.78125 222.078125 C 176.167969 222.078125 175.683594 222.285156 175.320312 222.699219 C 174.960938 223.113281 174.78125 223.671875 174.78125 224.382812 L 174.78125 228.503906 L 173.578125 228.503906 L 173.578125 221.210938 L 174.78125 221.210938 L 174.78125 222.34375 C 175.054688 221.898438 175.382812 221.566406 175.765625 221.355469 C 176.148438 221.140625 176.601562 221.035156 177.125 221.035156 C 177.65625 221.035156 178.105469 221.171875 178.476562 221.441406 C 178.847656 221.707031 179.125 222.097656 179.300781 222.609375 Z M 179.300781 222.609375 "/>
<path style=" stroke:none;fill-rule:nonzero;fill:rgb(0%,0%,0%);fill-opacity:1;" d="M 192.851562 224.554688 L 192.851562 225.140625 L 187.339844 225.140625 C 187.394531 225.964844 187.644531 226.59375 188.085938 227.027344 C 188.53125 227.460938 189.152344 227.675781 189.945312 227.675781 C 190.40625 227.675781 190.851562 227.617188 191.28125 227.507812 C 191.714844 227.394531 192.144531 227.222656 192.570312 226.996094 L 192.570312 228.132812 C 192.140625 228.3125 191.699219 228.453125 191.246094 228.546875 C 190.796875 228.644531 190.339844 228.691406 189.875 228.691406 C 188.710938 228.691406 187.789062 228.351562 187.109375 227.675781 C 186.429688 227 186.089844 226.082031 186.089844 224.925781 C 186.089844 223.734375 186.414062 222.789062 187.058594 222.085938 C 187.703125 221.386719 188.570312 221.035156 189.667969 221.035156 C 190.648438 221.035156 191.421875 221.351562 191.992188 221.984375 C 192.5625 222.613281 192.851562 223.472656 192.851562 224.554688 Z M 191.652344 224.203125 C 191.644531 223.550781 191.460938 223.027344 191.101562 222.636719 C 190.742188 222.246094 190.269531 222.050781 189.679688 222.050781 C 189.011719 222.050781 188.476562 222.238281 188.074219 222.617188 C 187.671875 222.996094 187.441406 223.527344 187.382812 224.210938 Z M 191.652344 224.203125 "/>
<path style=" stroke:none;fill-rule:nonzero;fill:rgb(0%,0%,0%);fill-opacity:1;" d="M 201.929688 218.386719 C 201.351562 219.382812 200.917969 220.371094 200.636719 221.347656 C 200.351562 222.324219 200.210938 223.3125 200.210938 224.316406 C 200.210938 225.316406 200.355469 226.308594 200.640625 227.292969 C 200.921875 228.277344 201.355469 229.265625 201.929688 230.261719 L 200.890625 230.261719 C 200.238281 229.238281 199.753906 228.238281 199.429688 227.253906 C 199.105469 226.265625 198.941406 225.289062 198.941406 224.316406 C 198.941406 223.347656 199.105469 222.375 199.425781 221.394531 C 199.746094 220.410156 200.234375 219.410156 200.890625 218.386719 Z M 201.929688 218.386719 "/>
<path style=" stroke:none;fill-rule:nonzero;fill:rgb(0%,0%,0%);fill-opacity:1;" d="M 208.902344 221.425781 L 208.902344 222.558594 C 208.566406 222.382812 208.214844 222.253906 207.847656 222.167969 C 207.484375 222.082031 207.109375 222.039062 206.714844 222.039062 C 206.121094 222.039062 205.675781 222.128906 205.378906 222.308594 C 205.082031 222.492188 204.933594 222.765625 204.933594 223.132812 C 204.933594 223.410156 205.039062 223.628906 205.25 223.785156 C 205.464844 223.945312 205.890625 224.09375 206.535156 224.238281 L 206.945312 224.328125 C 207.796875 224.511719 208.398438 224.769531 208.757812 225.101562 C 209.117188 225.433594 209.296875 225.894531 209.296875 226.488281 C 209.296875 227.167969 209.027344 227.703125 208.492188 228.101562 C 207.953125 228.496094 207.21875 228.691406 206.28125 228.691406 C 205.890625 228.691406 205.484375 228.652344 205.058594 228.578125 C 204.636719 228.5 204.191406 228.386719 203.722656 228.234375 L 203.722656 226.996094 C 204.164062 227.226562 204.601562 227.402344 205.03125 227.515625 C 205.460938 227.628906 205.886719 227.6875 206.308594 227.6875 C 206.871094 227.6875 207.304688 227.589844 207.609375 227.398438 C 207.910156 227.203125 208.0625 226.933594 208.0625 226.582031 C 208.0625 226.257812 207.953125 226.007812 207.734375 225.832031 C 207.515625 225.660156 207.035156 225.492188 206.292969 225.332031 L 205.875 225.234375 C 205.132812 225.078125 204.597656 224.839844 204.269531 224.515625 C 203.9375 224.191406 203.773438 223.746094 203.773438 223.183594 C 203.773438 222.496094 204.015625 221.96875 204.503906 221.597656 C 204.988281 221.222656 205.679688 221.035156 206.574219 221.035156 C 207.015625 221.035156 207.433594 221.066406 207.820312 221.132812 C 208.214844 221.195312 208.574219 221.292969 208.902344 221.425781 Z M 208.902344 221.425781 "/>
<path style=" stroke:none;fill-rule:nonzero;fill:rgb(0%,0%,0%);fill-opacity:1;" d="M 217.441406 224.554688 L 217.441406 225.140625 L 211.929688 225.140625 C 211.984375 225.964844 212.234375 226.59375 212.675781 227.027344 C 213.121094 227.460938 213.742188 227.675781 214.535156 227.675781 C 214.996094 227.675781 215.441406 227.617188 215.871094 227.507812 C 216.304688 227.394531 216.734375 227.222656 217.160156 226.996094 L 217.160156 228.132812 C 216.730469 228.3125 216.289062 228.453125 215.835938 228.546875 C 215.386719 228.644531 214.929688 228.691406 214.464844 228.691406 C 213.300781 228.691406 212.378906 228.351562 211.699219 227.675781 C 211.019531 227 210.679688 226.082031 210.679688 224.925781 C 210.679688 223.734375 211.003906 222.789062 211.648438 222.085938 C 212.292969 221.386719 213.160156 221.035156 214.257812 221.035156 C 215.238281 221.035156 216.011719 221.351562 216.582031 221.984375 C 217.152344 222.613281 217.441406 223.472656 217.441406 224.554688 Z M 216.242188 224.203125 C 216.234375 223.550781 216.050781 223.027344 215.691406 222.636719 C 215.332031 222.246094 214.859375 222.050781 214.269531 222.050781 C 213.601562 222.050781 213.066406 222.238281 212.664062 222.617188 C 212.261719 222.996094 212.03125 223.527344 211.972656 224.210938 Z M 216.242188 224.203125 "/>
<path style=" stroke:none;fill-rule:nonzero;fill:rgb(0%,0%,0%);fill-opacity:1;" d="M 224.652344 221.488281 L 224.652344 222.609375 C 224.3125 222.421875 223.976562 222.28125 223.632812 222.191406 C 223.292969 222.097656 222.949219 222.050781 222.601562 222.050781 C 221.824219 222.050781 221.222656 222.296875 220.789062 222.789062 C 220.363281 223.28125 220.148438 223.972656 220.148438 224.863281 C 220.148438 225.753906 220.363281 226.445312 220.789062 226.9375 C 221.222656 227.429688 221.824219 227.675781 222.601562 227.675781 C 222.949219 227.675781 223.292969 227.628906 223.632812 227.535156 C 223.976562 227.441406 224.3125 227.300781 224.652344 227.113281 L 224.652344 228.222656 C 224.320312 228.378906 223.972656 228.496094 223.613281 228.574219 C 223.257812 228.652344 222.875 228.691406 222.472656 228.691406 C 221.375 228.691406 220.5 228.347656 219.851562 227.65625 C 219.207031 226.964844 218.882812 226.035156 218.882812 224.863281 C 218.882812 223.671875 219.210938 222.738281 219.863281 222.058594 C 220.519531 221.375 221.414062 221.035156 222.550781 221.035156 C 222.917969 221.035156 223.277344 221.074219 223.628906 221.148438 C 223.980469 221.226562 224.324219 221.339844 224.652344 221.488281 Z M 224.652344 221.488281 "/>
<path style=" stroke:none;fill-rule:nonzero;fill:rgb(0%,0%,0%);fill-opacity:1;" d="M 226.546875 218.386719 L 227.589844 218.386719 C 228.238281 219.410156 228.726562 220.410156 229.050781 221.394531 C 229.375 222.375 229.535156 223.347656 229.535156 224.316406 C 229.535156 225.289062 229.375 226.265625 229.050781 227.253906 C 228.726562 228.238281 228.238281 229.238281 227.589844 230.261719 L 226.546875 230.261719 C 227.125 229.265625 227.554688 228.277344 227.839844 227.292969 C 228.125 226.308594 228.265625 225.316406 228.265625 224.316406 C 228.265625 223.3125 228.125 222.324219 227.839844 221.347656 C 227.554688 220.371094 227.125 219.382812 226.546875 218.386719 Z M 226.546875 218.386719 "/>
<g clip-path="url(#clip5)" clip-rule="nonzero">
<path style="fill:none;stroke-width:0.8;stroke-linecap:square;stroke-linejoin:round;stroke:rgb(69.01961%,69.01961%,69.01961%);stroke-opacity:1;stroke-miterlimit:4;" d="M 50.144531 140.129883 L 245.443359 140.129883 " transform="matrix(1.333333,0,0,1.333333,0,0)"/>
</g>
<path style="fill:none;stroke-width:0.8;stroke-linecap:butt;stroke-linejoin:round;stroke:rgb(0%,0%,0%);stroke-opacity:1;stroke-miterlimit:4;" d="M 0.000782013 -0.000976562 L -3.500195 -0.000976562 " transform="matrix(1.333333,0,0,1.333333,66.858332,186.841146)"/>
<path style=" stroke:none;fill-rule:nonzero;fill:rgb(0%,0%,0%);fill-opacity:1;" d="M 32.074219 183.050781 C 31.398438 183.050781 30.890625 183.386719 30.546875 184.050781 C 30.207031 184.71875 30.039062 185.71875 30.039062 187.058594 C 30.039062 188.390625 30.207031 189.386719 30.546875 190.054688 C 30.890625 190.722656 31.398438 191.054688 32.074219 191.054688 C 32.757812 191.054688 33.269531 190.722656 33.609375 190.054688 C 33.949219 189.386719 34.121094 188.390625 34.121094 187.058594 C 34.121094 185.71875 33.949219 184.71875 33.609375 184.050781 C 33.269531 183.386719 32.757812 183.050781 32.074219 183.050781 Z M 32.074219 182.011719 C 33.164062 182.011719 33.996094 182.441406 34.574219 183.304688 C 35.148438 184.164062 35.433594 185.417969 35.433594 187.058594 C 35.433594 188.691406 35.148438 189.941406 34.574219 190.804688 C 33.996094 191.664062 33.164062 192.097656 32.074219 192.097656 C 30.984375 192.097656 30.152344 191.664062 29.578125 190.804688 C 29.003906 189.941406 28.714844 188.691406 28.714844 187.058594 C 28.714844 185.417969 29.003906 184.164062 29.578125 183.304688 C 30.152344 182.441406 30.984375 182.011719 32.074219 182.011719 Z M 32.074219 182.011719 "/>
<path style=" stroke:none;fill-rule:nonzero;fill:rgb(0%,0%,0%);fill-opacity:1;" d="M 37.746094 190.253906 L 39.121094 190.253906 L 39.121094 191.90625 L 37.746094 191.90625 Z M 37.746094 190.253906 "/>
<path style=" stroke:none;fill-rule:nonzero;fill:rgb(0%,0%,0%);fill-opacity:1;" d="M 43.117188 190.800781 L 47.707031 190.800781 L 47.707031 191.90625 L 41.535156 191.90625 L 41.535156 190.800781 C 42.035156 190.285156 42.714844 189.589844 43.574219 188.722656 C 44.4375 187.851562 44.980469 187.289062 45.199219 187.035156 C 45.621094 186.5625 45.914062 186.164062 46.082031 185.835938 C 46.25 185.507812 46.332031 185.1875 46.332031 184.871094 C 46.332031 184.351562 46.152344 183.933594 45.789062 183.605469 C 45.425781 183.28125 44.957031 183.117188 44.375 183.117188 C 43.960938 183.117188 43.527344 183.1875 43.066406 183.332031 C 42.609375 183.476562 42.121094 183.691406 41.601562 183.984375 L 41.601562 182.65625 C 42.128906 182.441406 42.625 182.28125 43.082031 182.171875 C 43.546875 182.066406 43.964844 182.011719 44.347656 182.011719 C 45.355469 182.011719 46.15625 182.261719 46.757812 182.765625 C 47.355469 183.269531 47.65625 183.941406 47.65625 184.785156 C 47.65625 185.183594 47.578125 185.5625 47.429688 185.921875 C 47.28125 186.277344 47.007812 186.699219 46.613281 187.1875 C 46.503906 187.3125 46.160156 187.675781 45.578125 188.277344 C 44.996094 188.878906 44.175781 189.71875 43.117188 190.800781 Z M 43.117188 190.800781 "/>
<path style=" stroke:none;fill-rule:nonzero;fill:rgb(0%,0%,0%);fill-opacity:1;" d="M 54.082031 183.332031 L 50.761719 188.519531 L 54.082031 188.519531 Z M 53.734375 182.1875 L 55.390625 182.1875 L 55.390625 188.519531 L 56.777344 188.519531 L 56.777344 189.613281 L 55.390625 189.613281 L 55.390625 191.90625 L 54.082031 191.90625 L 54.082031 189.613281 L 49.695312 189.613281 L 49.695312 188.347656 Z M 53.734375 182.1875 "/>
<g clip-path="url(#clip6)" clip-rule="nonzero">
<path style="fill:none;stroke-width:0.8;stroke-linecap:square;stroke-linejoin:round;stroke:rgb(69.01961%,69.01961%,69.01961%);stroke-opacity:1;stroke-miterlimit:4;" d="M 50.144531 112.327148 L 245.443359 112.327148 " transform="matrix(1.333333,0,0,1.333333,0,0)"/>
</g>
<path style="fill:none;stroke-width:0.8;stroke-linecap:butt;stroke-linejoin:round;stroke:rgb(0%,0%,0%);stroke-opacity:1;stroke-miterlimit:4;" d="M 0.000782013 -0.00122833 L -3.500195 -0.00122833 " transform="matrix(1.333333,0,0,1.333333,66.858332,149.771169)"/>
<path style=" stroke:none;fill-rule:nonzero;fill:rgb(0%,0%,0%);fill-opacity:1;" d="M 32.074219 145.984375 C 31.398438 145.984375 30.890625 146.316406 30.546875 146.984375 C 30.207031 147.648438 30.039062 148.648438 30.039062 149.988281 C 30.039062 151.320312 30.207031 152.316406 30.546875 152.984375 C 30.890625 153.652344 31.398438 153.984375 32.074219 153.984375 C 32.757812 153.984375 33.269531 153.652344 33.609375 152.984375 C 33.949219 152.316406 34.121094 151.320312 34.121094 149.988281 C 34.121094 148.648438 33.949219 147.648438 33.609375 146.984375 C 33.269531 146.316406 32.757812 145.984375 32.074219 145.984375 Z M 32.074219 144.941406 C 33.164062 144.941406 33.996094 145.371094 34.574219 146.234375 C 35.148438 147.097656 35.433594 148.347656 35.433594 149.988281 C 35.433594 151.621094 35.148438 152.871094 34.574219 153.734375 C 33.996094 154.597656 33.164062 155.027344 32.074219 155.027344 C 30.984375 155.027344 30.152344 154.597656 29.578125 153.734375 C 29.003906 152.871094 28.714844 151.621094 28.714844 149.988281 C 28.714844 148.347656 29.003906 147.097656 29.578125 146.234375 C 30.152344 145.371094 30.984375 144.941406 32.074219 144.941406 Z M 32.074219 144.941406 "/>
<path style=" stroke:none;fill-rule:nonzero;fill:rgb(0%,0%,0%);fill-opacity:1;" d="M 37.746094 153.183594 L 39.121094 153.183594 L 39.121094 154.835938 L 37.746094 154.835938 Z M 37.746094 153.183594 "/>
<path style=" stroke:none;fill-rule:nonzero;fill:rgb(0%,0%,0%);fill-opacity:1;" d="M 43.117188 153.730469 L 47.707031 153.730469 L 47.707031 154.835938 L 41.535156 154.835938 L 41.535156 153.730469 C 42.035156 153.214844 42.714844 152.519531 43.574219 151.652344 C 44.4375 150.78125 44.980469 150.21875 45.199219 149.964844 C 45.621094 149.492188 45.914062 149.09375 46.082031 148.765625 C 46.25 148.4375 46.332031 148.117188 46.332031 147.800781 C 46.332031 147.28125 46.152344 146.863281 45.789062 146.535156 C 45.425781 146.210938 44.957031 146.046875 44.375 146.046875 C 43.960938 146.046875 43.527344 146.117188 43.066406 146.261719 C 42.609375 146.40625 42.121094 146.621094 41.601562 146.914062 L 41.601562 145.585938 C 42.128906 145.371094 42.625 145.210938 43.082031 145.101562 C 43.546875 144.996094 43.964844 144.941406 44.347656 144.941406 C 45.355469 144.941406 46.15625 145.191406 46.757812 145.695312 C 47.355469 146.199219 47.65625 146.871094 47.65625 147.714844 C 47.65625 148.113281 47.578125 148.492188 47.429688 148.851562 C 47.28125 149.207031 47.007812 149.628906 46.613281 150.117188 C 46.503906 150.242188 46.160156 150.605469 45.578125 151.207031 C 44.996094 151.808594 44.175781 152.648438 43.117188 153.730469 Z M 43.117188 153.730469 "/>
<path style=" stroke:none;fill-rule:nonzero;fill:rgb(0%,0%,0%);fill-opacity:1;" d="M 53.445312 149.453125 C 52.855469 149.453125 52.386719 149.65625 52.039062 150.058594 C 51.695312 150.460938 51.523438 151.015625 51.523438 151.71875 C 51.523438 152.417969 51.695312 152.96875 52.039062 153.375 C 52.386719 153.78125 52.855469 153.984375 53.445312 153.984375 C 54.035156 153.984375 54.5 153.78125 54.847656 153.375 C 55.191406 152.96875 55.363281 152.417969 55.363281 151.71875 C 55.363281 151.015625 55.191406 150.460938 54.847656 150.058594 C 54.5 149.65625 54.035156 149.453125 53.445312 149.453125 Z M 56.054688 145.332031 L 56.054688 146.527344 C 55.722656 146.371094 55.390625 146.253906 55.054688 146.171875 C 54.71875 146.089844 54.386719 146.046875 54.054688 146.046875 C 53.1875 146.046875 52.523438 146.339844 52.066406 146.925781 C 51.609375 147.511719 51.347656 148.398438 51.28125 149.582031 C 51.535156 149.203125 51.859375 148.914062 52.242188 148.714844 C 52.632812 148.511719 53.058594 148.410156 53.519531 148.410156 C 54.496094 148.410156 55.269531 148.707031 55.835938 149.300781 C 56.402344 149.894531 56.6875 150.699219 56.6875 151.71875 C 56.6875 152.714844 56.390625 153.519531 55.800781 154.121094 C 55.210938 154.726562 54.425781 155.027344 53.445312 155.027344 C 52.320312 155.027344 51.460938 154.597656 50.863281 153.734375 C 50.269531 152.871094 49.972656 151.621094 49.972656 149.988281 C 49.972656 148.449219 50.335938 147.226562 51.066406 146.3125 C 51.796875 145.398438 52.773438 144.941406 54.003906 144.941406 C 54.332031 144.941406 54.667969 144.972656 55.003906 145.039062 C 55.339844 145.105469 55.6875 145.203125 56.054688 145.332031 Z M 56.054688 145.332031 "/>
<g clip-path="url(#clip7)" clip-rule="nonzero">
<path style="fill:none;stroke-width:0.8;stroke-linecap:square;stroke-linejoin:round;stroke:rgb(69.01961%,69.01961%,69.01961%);stroke-opacity:1;stroke-miterlimit:4;" d="M 50.144531 84.527344 L 245.443359 84.527344 " transform="matrix(1.333333,0,0,1.333333,0,0)"/>
</g>
<path style="fill:none;stroke-width:0.8;stroke-linecap:butt;stroke-linejoin:round;stroke:rgb(0%,0%,0%);stroke-opacity:1;stroke-miterlimit:4;" d="M 0.000782013 0.00146484 L -3.500195 0.00146484 " transform="matrix(1.333333,0,0,1.333333,66.858332,112.701172)"/>
<path style=" stroke:none;fill-rule:nonzero;fill:rgb(0%,0%,0%);fill-opacity:1;" d="M 32.074219 108.914062 C 31.398438 108.914062 30.890625 109.246094 30.546875 109.914062 C 30.207031 110.578125 30.039062 111.578125 30.039062 112.917969 C 30.039062 114.25 30.207031 115.25 30.546875 115.914062 C 30.890625 116.582031 31.398438 116.914062 32.074219 116.914062 C 32.757812 116.914062 33.269531 116.582031 33.609375 115.914062 C 33.949219 115.25 34.121094 114.25 34.121094 112.917969 C 34.121094 111.578125 33.949219 110.578125 33.609375 109.914062 C 33.269531 109.246094 32.757812 108.914062 32.074219 108.914062 Z M 32.074219 107.871094 C 33.164062 107.871094 33.996094 108.300781 34.574219 109.164062 C 35.148438 110.027344 35.433594 111.277344 35.433594 112.917969 C 35.433594 114.554688 35.148438 115.800781 34.574219 116.664062 C 33.996094 117.527344 33.164062 117.957031 32.074219 117.957031 C 30.984375 117.957031 30.152344 117.527344 29.578125 116.664062 C 29.003906 115.800781 28.714844 114.554688 28.714844 112.917969 C 28.714844 111.277344 29.003906 110.027344 29.578125 109.164062 C 30.152344 108.300781 30.984375 107.871094 32.074219 107.871094 Z M 32.074219 107.871094 "/>
<path style=" stroke:none;fill-rule:nonzero;fill:rgb(0%,0%,0%);fill-opacity:1;" d="M 37.746094 116.113281 L 39.121094 116.113281 L 39.121094 117.765625 L 37.746094 117.765625 Z M 37.746094 116.113281 "/>
<path style=" stroke:none;fill-rule:nonzero;fill:rgb(0%,0%,0%);fill-opacity:1;" d="M 43.117188 116.660156 L 47.707031 116.660156 L 47.707031 117.765625 L 41.535156 117.765625 L 41.535156 116.660156 C 42.035156 116.144531 42.714844 115.449219 43.574219 114.582031 C 44.4375 113.710938 44.980469 113.148438 45.199219 112.894531 C 45.621094 112.421875 45.914062 112.023438 46.082031 111.695312 C 46.25 111.367188 46.332031 111.046875 46.332031 110.730469 C 46.332031 110.210938 46.152344 109.792969 45.789062 109.46875 C 45.425781 109.140625 44.957031 108.976562 44.375 108.976562 C 43.960938 108.976562 43.527344 109.046875 43.066406 109.191406 C 42.609375 109.335938 42.121094 109.550781 41.601562 109.84375 L 41.601562 108.515625 C 42.128906 108.300781 42.625 108.140625 43.082031 108.035156 C 43.546875 107.925781 43.964844 107.871094 44.347656 107.871094 C 45.355469 107.871094 46.15625 108.125 46.757812 108.628906 C 47.355469 109.128906 47.65625 109.800781 47.65625 110.644531 C 47.65625 111.042969 47.578125 111.421875 47.429688 111.78125 C 47.28125 112.136719 47.007812 112.558594 46.613281 113.046875 C 46.503906 113.171875 46.160156 113.535156 45.578125 114.136719 C 44.996094 114.738281 44.175781 115.578125 43.117188 116.660156 Z M 43.117188 116.660156 "/>
<path style=" stroke:none;fill-rule:nonzero;fill:rgb(0%,0%,0%);fill-opacity:1;" d="M 53.28125 113.148438 C 52.65625 113.148438 52.164062 113.316406 51.804688 113.652344 C 51.449219 113.988281 51.269531 114.445312 51.269531 115.03125 C 51.269531 115.617188 51.449219 116.078125 51.804688 116.414062 C 52.164062 116.746094 52.65625 116.914062 53.28125 116.914062 C 53.90625 116.914062 54.398438 116.746094 54.757812 116.410156 C 55.117188 116.074219 55.296875 115.613281 55.296875 115.03125 C 55.296875 114.445312 55.117188 113.988281 54.761719 113.652344 C 54.402344 113.316406 53.910156 113.148438 53.28125 113.148438 Z M 51.964844 112.59375 C 51.402344 112.453125 50.960938 112.191406 50.644531 111.804688 C 50.332031 111.417969 50.175781 110.945312 50.175781 110.390625 C 50.175781 109.613281 50.453125 109 51.003906 108.546875 C 51.558594 108.097656 52.316406 107.871094 53.28125 107.871094 C 54.246094 107.871094 55.007812 108.097656 55.558594 108.546875 C 56.109375 109 56.386719 109.613281 56.386719 110.390625 C 56.386719 110.945312 56.226562 111.417969 55.914062 111.804688 C 55.597656 112.191406 55.160156 112.453125 54.601562 112.59375 C 55.234375 112.738281 55.730469 113.027344 56.082031 113.457031 C 56.4375 113.886719 56.613281 114.410156 56.613281 115.03125 C 56.613281 115.972656 56.324219 116.699219 55.75 117.203125 C 55.175781 117.703125 54.351562 117.957031 53.28125 117.957031 C 52.207031 117.957031 51.386719 117.703125 50.808594 117.203125 C 50.234375 116.699219 49.945312 115.972656 49.945312 115.03125 C 49.945312 114.410156 50.125 113.886719 50.480469 113.457031 C 50.835938 113.027344 51.332031 112.738281 51.964844 112.59375 Z M 51.484375 110.515625 C 51.484375 111.015625 51.640625 111.410156 51.953125 111.691406 C 52.269531 111.972656 52.710938 112.113281 53.28125 112.113281 C 53.84375 112.113281 54.285156 111.972656 54.605469 111.691406 C 54.925781 111.410156 55.082031 111.015625 55.082031 110.515625 C 55.082031 110.011719 54.925781 109.617188 54.605469 109.335938 C 54.285156 109.054688 53.84375 108.914062 53.28125 108.914062 C 52.710938 108.914062 52.269531 109.054688 51.953125 109.335938 C 51.640625 109.617188 51.484375 110.011719 51.484375 110.515625 Z M 51.484375 110.515625 "/>
<g clip-path="url(#clip8)" clip-rule="nonzero">
<path style="fill:none;stroke-width:0.8;stroke-linecap:square;stroke-linejoin:round;stroke:rgb(69.01961%,69.01961%,69.01961%);stroke-opacity:1;stroke-miterlimit:4;" d="M 50.144531 56.724609 L 245.443359 56.724609 " transform="matrix(1.333333,0,0,1.333333,0,0)"/>
</g>
<path style="fill:none;stroke-width:0.8;stroke-linecap:butt;stroke-linejoin:round;stroke:rgb(0%,0%,0%);stroke-opacity:1;stroke-miterlimit:4;" d="M 0.000782013 0.00121689 L -3.500195 0.00121689 " transform="matrix(1.333333,0,0,1.333333,66.858332,75.63119)"/>
<path style=" stroke:none;fill-rule:nonzero;fill:rgb(0%,0%,0%);fill-opacity:1;" d="M 32.074219 71.84375 C 31.398438 71.84375 30.890625 72.175781 30.546875 72.84375 C 30.207031 73.507812 30.039062 74.507812 30.039062 75.847656 C 30.039062 77.179688 30.207031 78.179688 30.546875 78.84375 C 30.890625 79.511719 31.398438 79.84375 32.074219 79.84375 C 32.757812 79.84375 33.269531 79.511719 33.609375 78.84375 C 33.949219 78.179688 34.121094 77.179688 34.121094 75.847656 C 34.121094 74.507812 33.949219 73.507812 33.609375 72.84375 C 33.269531 72.175781 32.757812 71.84375 32.074219 71.84375 Z M 32.074219 70.800781 C 33.164062 70.800781 33.996094 71.230469 34.574219 72.09375 C 35.148438 72.957031 35.433594 74.207031 35.433594 75.847656 C 35.433594 77.484375 35.148438 78.730469 34.574219 79.59375 C 33.996094 80.457031 33.164062 80.886719 32.074219 80.886719 C 30.984375 80.886719 30.152344 80.457031 29.578125 79.59375 C 29.003906 78.730469 28.714844 77.484375 28.714844 75.847656 C 28.714844 74.207031 29.003906 72.957031 29.578125 72.09375 C 30.152344 71.230469 30.984375 70.800781 32.074219 70.800781 Z M 32.074219 70.800781 "/>
<path style=" stroke:none;fill-rule:nonzero;fill:rgb(0%,0%,0%);fill-opacity:1;" d="M 37.746094 79.042969 L 39.121094 79.042969 L 39.121094 80.695312 L 37.746094 80.695312 Z M 37.746094 79.042969 "/>
<path style=" stroke:none;fill-rule:nonzero;fill:rgb(0%,0%,0%);fill-opacity:1;" d="M 45.96875 75.457031 C 46.597656 75.589844 47.089844 75.871094 47.441406 76.296875 C 47.796875 76.722656 47.972656 77.246094 47.972656 77.871094 C 47.972656 78.832031 47.644531 79.574219 46.984375 80.097656 C 46.324219 80.625 45.386719 80.886719 44.171875 80.886719 C 43.765625 80.886719 43.34375 80.847656 42.914062 80.765625 C 42.480469 80.683594 42.035156 80.5625 41.574219 80.402344 L 41.574219 79.132812 C 41.9375 79.347656 42.339844 79.507812 42.769531 79.617188 C 43.207031 79.722656 43.660156 79.777344 44.132812 79.777344 C 44.957031 79.777344 45.585938 79.617188 46.015625 79.289062 C 46.449219 78.964844 46.664062 78.492188 46.664062 77.871094 C 46.664062 77.296875 46.464844 76.851562 46.0625 76.527344 C 45.660156 76.203125 45.101562 76.042969 44.386719 76.042969 L 43.253906 76.042969 L 43.253906 74.960938 L 44.441406 74.960938 C 45.085938 74.960938 45.582031 74.832031 45.921875 74.574219 C 46.265625 74.316406 46.4375 73.941406 46.4375 73.457031 C 46.4375 72.957031 46.261719 72.574219 45.90625 72.308594 C 45.554688 72.042969 45.046875 71.90625 44.386719 71.90625 C 44.027344 71.90625 43.640625 71.945312 43.226562 72.027344 C 42.816406 72.105469 42.363281 72.222656 41.867188 72.386719 L 41.867188 71.21875 C 42.367188 71.078125 42.835938 70.972656 43.269531 70.90625 C 43.707031 70.835938 44.117188 70.800781 44.503906 70.800781 C 45.503906 70.800781 46.292969 71.027344 46.875 71.480469 C 47.457031 71.933594 47.746094 72.546875 47.746094 73.320312 C 47.746094 73.859375 47.59375 74.3125 47.285156 74.683594 C 46.976562 75.054688 46.539062 75.3125 45.96875 75.457031 Z M 45.96875 75.457031 "/>
<path style=" stroke:none;fill-rule:nonzero;fill:rgb(0%,0%,0%);fill-opacity:1;" d="M 53.28125 71.84375 C 52.601562 71.84375 52.09375 72.175781 51.753906 72.84375 C 51.410156 73.507812 51.242188 74.507812 51.242188 75.847656 C 51.242188 77.179688 51.410156 78.179688 51.753906 78.84375 C 52.09375 79.511719 52.601562 79.84375 53.28125 79.84375 C 53.960938 79.84375 54.472656 79.511719 54.8125 78.84375 C 55.15625 78.179688 55.324219 77.179688 55.324219 75.847656 C 55.324219 74.507812 55.15625 73.507812 54.8125 72.84375 C 54.472656 72.175781 53.960938 71.84375 53.28125 71.84375 Z M 53.28125 70.800781 C 54.371094 70.800781 55.203125 71.230469 55.777344 72.09375 C 56.351562 72.957031 56.640625 74.207031 56.640625 75.847656 C 56.640625 77.484375 56.351562 78.730469 55.777344 79.59375 C 55.203125 80.457031 54.371094 80.886719 53.28125 80.886719 C 52.191406 80.886719 51.359375 80.457031 50.785156 79.59375 C 50.207031 78.730469 49.921875 77.484375 49.921875 75.847656 C 49.921875 74.207031 50.207031 72.957031 50.785156 72.09375 C 51.359375 71.230469 52.191406 70.800781 53.28125 70.800781 Z M 53.28125 70.800781 "/>
<g clip-path="url(#clip9)" clip-rule="nonzero">
<path style="fill:none;stroke-width:0.8;stroke-linecap:square;stroke-linejoin:round;stroke:rgb(69.01961%,69.01961%,69.01961%);stroke-opacity:1;stroke-miterlimit:4;" d="M 50.144531 28.921875 L 245.443359 28.921875 " transform="matrix(1.333333,0,0,1.333333,0,0)"/>
</g>
<path style="fill:none;stroke-width:0.8;stroke-linecap:butt;stroke-linejoin:round;stroke:rgb(0%,0%,0%);stroke-opacity:1;stroke-miterlimit:4;" d="M 0.000782013 0.000974655 L -3.500195 0.000974655 " transform="matrix(1.333333,0,0,1.333333,66.858332,38.5612)"/>
<path style=" stroke:none;fill-rule:nonzero;fill:rgb(0%,0%,0%);fill-opacity:1;" d="M 32.074219 34.773438 C 31.398438 34.773438 30.890625 35.105469 30.546875 35.773438 C 30.207031 36.4375 30.039062 37.4375 30.039062 38.777344 C 30.039062 40.109375 30.207031 41.109375 30.546875 41.773438 C 30.890625 42.441406 31.398438 42.773438 32.074219 42.773438 C 32.757812 42.773438 33.269531 42.441406 33.609375 41.773438 C 33.949219 41.109375 34.121094 40.109375 34.121094 38.777344 C 34.121094 37.4375 33.949219 36.4375 33.609375 35.773438 C 33.269531 35.105469 32.757812 34.773438 32.074219 34.773438 Z M 32.074219 33.730469 C 33.164062 33.730469 33.996094 34.164062 34.574219 35.023438 C 35.148438 35.886719 35.433594 37.136719 35.433594 38.777344 C 35.433594 40.414062 35.148438 41.664062 34.574219 42.523438 C 33.996094 43.386719 33.164062 43.816406 32.074219 43.816406 C 30.984375 43.816406 30.152344 43.386719 29.578125 42.523438 C 29.003906 41.664062 28.714844 40.414062 28.714844 38.777344 C 28.714844 37.136719 29.003906 35.886719 29.578125 35.023438 C 30.152344 34.164062 30.984375 33.730469 32.074219 33.730469 Z M 32.074219 33.730469 "/>
<path style=" stroke:none;fill-rule:nonzero;fill:rgb(0%,0%,0%);fill-opacity:1;" d="M 37.746094 41.972656 L 39.121094 41.972656 L 39.121094 43.625 L 37.746094 43.625 Z M 37.746094 41.972656 "/>
<path style=" stroke:none;fill-rule:nonzero;fill:rgb(0%,0%,0%);fill-opacity:1;" d="M 45.96875 38.386719 C 46.597656 38.519531 47.089844 38.800781 47.441406 39.226562 C 47.796875 39.652344 47.972656 40.175781 47.972656 40.800781 C 47.972656 41.761719 47.644531 42.503906 46.984375 43.027344 C 46.324219 43.554688 45.386719 43.816406 44.171875 43.816406 C 43.765625 43.816406 43.34375 43.777344 42.914062 43.695312 C 42.480469 43.613281 42.035156 43.496094 41.574219 43.332031 L 41.574219 42.0625 C 41.9375 42.277344 42.339844 42.4375 42.769531 42.546875 C 43.207031 42.652344 43.660156 42.707031 44.132812 42.707031 C 44.957031 42.707031 45.585938 42.546875 46.015625 42.21875 C 46.449219 41.894531 46.664062 41.421875 46.664062 40.800781 C 46.664062 40.226562 46.464844 39.78125 46.0625 39.457031 C 45.660156 39.132812 45.101562 38.972656 44.386719 38.972656 L 43.253906 38.972656 L 43.253906 37.890625 L 44.441406 37.890625 C 45.085938 37.890625 45.582031 37.761719 45.921875 37.503906 C 46.265625 37.246094 46.4375 36.875 46.4375 36.386719 C 46.4375 35.886719 46.261719 35.507812 45.90625 35.238281 C 45.554688 34.972656 45.046875 34.835938 44.386719 34.835938 C 44.027344 34.835938 43.640625 34.875 43.226562 34.957031 C 42.816406 35.035156 42.363281 35.15625 41.867188 35.320312 L 41.867188 34.148438 C 42.367188 34.007812 42.835938 33.90625 43.269531 33.835938 C 43.707031 33.765625 44.117188 33.730469 44.503906 33.730469 C 45.503906 33.730469 46.292969 33.957031 46.875 34.414062 C 47.457031 34.863281 47.746094 35.476562 47.746094 36.25 C 47.746094 36.789062 47.59375 37.242188 47.285156 37.613281 C 46.976562 37.984375 46.539062 38.242188 45.96875 38.386719 Z M 45.96875 38.386719 "/>
<path style=" stroke:none;fill-rule:nonzero;fill:rgb(0%,0%,0%);fill-opacity:1;" d="M 51.601562 42.519531 L 56.191406 42.519531 L 56.191406 43.625 L 50.019531 43.625 L 50.019531 42.519531 C 50.519531 42.003906 51.199219 41.3125 52.058594 40.441406 C 52.921875 39.570312 53.460938 39.007812 53.683594 38.757812 C 54.105469 38.285156 54.398438 37.882812 54.566406 37.554688 C 54.734375 37.226562 54.816406 36.90625 54.816406 36.589844 C 54.816406 36.074219 54.636719 35.652344 54.273438 35.328125 C 53.910156 35 53.4375 34.835938 52.855469 34.835938 C 52.445312 34.835938 52.007812 34.910156 51.550781 35.050781 C 51.09375 35.195312 50.605469 35.414062 50.082031 35.703125 L 50.082031 34.375 C 50.613281 34.164062 51.105469 34 51.566406 33.894531 C 52.027344 33.785156 52.449219 33.730469 52.832031 33.730469 C 53.839844 33.730469 54.640625 33.984375 55.238281 34.488281 C 55.839844 34.988281 56.136719 35.664062 56.136719 36.503906 C 56.136719 36.902344 56.0625 37.28125 55.914062 37.640625 C 55.765625 38 55.492188 38.417969 55.097656 38.90625 C 54.988281 39.03125 54.644531 39.394531 54.0625 39.996094 C 53.480469 40.597656 52.660156 41.441406 51.601562 42.519531 Z M 51.601562 42.519531 "/>
<path style=" stroke:none;fill-rule:nonzero;fill:rgb(0%,0%,0%);fill-opacity:1;" d="M 9.601562 111.820312 L 9.601562 110.621094 L 19.730469 110.621094 L 19.730469 111.820312 Z M 9.601562 111.820312 "/>
<path style=" stroke:none;fill-rule:nonzero;fill:rgb(0%,0%,0%);fill-opacity:1;" d="M 13.277344 105.292969 C 13.277344 105.933594 13.53125 106.441406 14.03125 106.8125 C 14.53125 107.1875 15.21875 107.375 16.089844 107.375 C 16.964844 107.375 17.652344 107.1875 18.152344 106.820312 C 18.652344 106.445312 18.902344 105.9375 18.902344 105.292969 C 18.902344 104.652344 18.652344 104.148438 18.148438 103.773438 C 17.644531 103.402344 16.960938 103.214844 16.089844 103.214844 C 15.226562 103.214844 14.542969 103.402344 14.039062 103.773438 C 13.53125 104.148438 13.277344 104.652344 13.277344 105.292969 Z M 12.265625 105.292969 C 12.265625 104.25 12.601562 103.433594 13.28125 102.835938 C 13.957031 102.242188 14.894531 101.945312 16.089844 101.945312 C 17.285156 101.945312 18.222656 102.242188 18.902344 102.835938 C 19.582031 103.433594 19.921875 104.25 19.921875 105.292969 C 19.921875 106.335938 19.582031 107.15625 18.902344 107.75 C 18.222656 108.339844 17.285156 108.636719 16.089844 108.636719 C 14.894531 108.636719 13.957031 108.339844 13.28125 107.75 C 12.601562 107.15625 12.265625 106.335938 12.265625 105.292969 Z M 12.265625 105.292969 "/>
<path style=" stroke:none;fill-rule:nonzero;fill:rgb(0%,0%,0%);fill-opacity:1;" d="M 12.652344 95.3125 L 13.789062 95.3125 C 13.613281 95.648438 13.484375 96 13.398438 96.363281 C 13.308594 96.730469 13.265625 97.105469 13.265625 97.5 C 13.265625 98.09375 13.359375 98.539062 13.539062 98.835938 C 13.722656 99.132812 13.996094 99.28125 14.359375 99.28125 C 14.636719 99.28125 14.855469 99.175781 15.015625 98.964844 C 15.171875 98.75 15.324219 98.324219 15.464844 97.679688 L 15.558594 97.269531 C 15.742188 96.417969 15.996094 95.816406 16.328125 95.457031 C 16.660156 95.097656 17.125 94.917969 17.71875 94.917969 C 18.398438 94.917969 18.933594 95.1875 19.328125 95.722656 C 19.722656 96.257812 19.921875 96.996094 19.921875 97.933594 C 19.921875 98.324219 19.882812 98.730469 19.804688 99.15625 C 19.730469 99.578125 19.617188 100.023438 19.464844 100.492188 L 18.226562 100.492188 C 18.457031 100.050781 18.628906 99.613281 18.746094 99.183594 C 18.859375 98.753906 18.917969 98.328125 18.917969 97.90625 C 18.917969 97.34375 18.820312 96.910156 18.628906 96.605469 C 18.433594 96.300781 18.160156 96.152344 17.808594 96.152344 C 17.484375 96.152344 17.234375 96.261719 17.0625 96.480469 C 16.890625 96.699219 16.722656 97.179688 16.558594 97.921875 L 16.460938 98.339844 C 16.308594 99.078125 16.066406 99.617188 15.742188 99.945312 C 15.421875 100.277344 14.976562 100.441406 14.414062 100.441406 C 13.726562 100.441406 13.195312 100.195312 12.824219 99.710938 C 12.453125 99.226562 12.265625 98.535156 12.265625 97.640625 C 12.265625 97.199219 12.296875 96.78125 12.363281 96.390625 C 12.425781 96 12.523438 95.640625 12.652344 95.3125 Z M 12.652344 95.3125 "/>
<path style=" stroke:none;fill-rule:nonzero;fill:rgb(0%,0%,0%);fill-opacity:1;" d="M 12.652344 88.363281 L 13.789062 88.363281 C 13.613281 88.703125 13.484375 89.054688 13.398438 89.417969 C 13.308594 89.78125 13.265625 90.160156 13.265625 90.550781 C 13.265625 91.144531 13.359375 91.59375 13.539062 91.890625 C 13.722656 92.1875 13.996094 92.335938 14.359375 92.335938 C 14.636719 92.335938 14.855469 92.230469 15.015625 92.015625 C 15.171875 91.804688 15.324219 91.375 15.464844 90.734375 L 15.558594 90.324219 C 15.742188 89.472656 15.996094 88.867188 16.328125 88.511719 C 16.660156 88.152344 17.125 87.972656 17.71875 87.972656 C 18.398438 87.972656 18.933594 88.242188 19.328125 88.777344 C 19.722656 89.3125 19.921875 90.050781 19.921875 90.988281 C 19.921875 91.378906 19.882812 91.785156 19.804688 92.207031 C 19.730469 92.632812 19.617188 93.078125 19.464844 93.546875 L 18.226562 93.546875 C 18.457031 93.101562 18.628906 92.667969 18.746094 92.238281 C 18.859375 91.808594 18.917969 91.382812 18.917969 90.960938 C 18.917969 90.394531 18.820312 89.964844 18.628906 89.660156 C 18.433594 89.355469 18.160156 89.203125 17.808594 89.203125 C 17.484375 89.203125 17.234375 89.3125 17.0625 89.53125 C 16.890625 89.75 16.722656 90.230469 16.558594 90.976562 L 16.460938 91.390625 C 16.308594 92.132812 16.066406 92.667969 15.742188 93 C 15.421875 93.328125 14.976562 93.492188 14.414062 93.492188 C 13.726562 93.492188 13.195312 93.25 12.824219 92.765625 C 12.453125 92.277344 12.265625 91.589844 12.265625 90.695312 C 12.265625 90.25 12.296875 89.835938 12.363281 89.445312 C 12.425781 89.054688 12.523438 88.695312 12.652344 88.363281 Z M 12.652344 88.363281 "/>
<path style="fill:none;stroke-width:1.5;stroke-linecap:square;stroke-linejoin:round;stroke:rgb(12.156863%,46.666667%,70.588237%);stroke-opacity:1;stroke-miterlimit:4;" d="M 91.611328 127.259766 L 109.444336 134.504883 L 119.797852 135.949219 L 139.570312 136.447266 L 143.707031 136.461914 " transform="matrix(1.333333,0,0,1.333333,0,0)"/>
<path style="fill:none;stroke-width:1.5;stroke-linecap:butt;stroke-linejoin:round;stroke:rgb(74.901962%,0%,74.901962%);stroke-opacity:1;stroke-dasharray:5.55,2.4;stroke-miterlimit:4;" d="M 119.396484 13.376953 L 138.887695 91.335938 L 150.357422 126.556641 L 156.222656 129.603516 L 162.213867 134.396484 L 167.654297 123.304688 L 172.198242 129.357422 L 176.144531 136.725586 L 179.619141 135.600586 L 182.701172 129.140625 L 185.466797 131.698242 L 187.327148 136.535156 L 189.19043 131.15625 L 190.916016 132.518555 L 192.489258 131.885742 " transform="matrix(1.333333,0,0,1.333333,0,0)"/>
<g clip-path="url(#clip10)" clip-rule="nonzero">
<path style="fill:none;stroke-width:1.5;stroke-linecap:butt;stroke-linejoin:round;stroke:rgb(0%,50.196081%,0%);stroke-opacity:1;stroke-dasharray:9.6,2.4,1.5,2.4;stroke-miterlimit:4;" d="M 12.495117 49.505859 L 32.71875 97.145508 L 48.5625 114.178711 L 56.636719 127.543945 L 62.443359 127.166016 L 68.047852 127.037109 L 71.976562 126.770508 L 75.855469 132.518555 L 80.833008 134.774414 L 83.525391 133.069336 L 85.819336 135.052734 L 88.344727 134.027344 L 90.380859 123 L 92.106445 135.208008 L 94.201172 136.441406 " transform="matrix(1.333333,0,0,1.333333,0,0)"/>
</g>
<g clip-path="url(#clip11)" clip-rule="nonzero">
<path style="fill:none;stroke-width:1.5;stroke-linecap:butt;stroke-linejoin:round;stroke:rgb(100%,0%,0%);stroke-opacity:1;stroke-dasharray:1.5,2.475;stroke-miterlimit:4;" d="M 49.678711 37.892578 L 77.663086 100.286133 L 91.584961 127.359375 L 99.459961 126.767578 L 105.676758 127.535156 L 110.753906 132.257812 L 115.037109 132.46582 L 118.883789 128.425781 L 121.253906 136.921875 L 123.665039 133.883789 L 126.533203 125.036133 L 128.704102 136.605469 L 130.394531 136.722656 L 133.072266 135.322266 L 135.102539 135.325195 " transform="matrix(1.333333,0,0,1.333333,0,0)"/>
</g>
<path style="fill:none;stroke-width:0.8;stroke-linecap:square;stroke-linejoin:miter;stroke:rgb(0%,0%,0%);stroke-opacity:1;stroke-miterlimit:4;" d="M 50.144531 143.100586 L 50.144531 7.201172 " transform="matrix(1.333333,0,0,1.333333,0,0)"/>
<path style="fill:none;stroke-width:0.8;stroke-linecap:square;stroke-linejoin:miter;stroke:rgb(0%,0%,0%);stroke-opacity:1;stroke-miterlimit:4;" d="M 245.443359 143.100586 L 245.443359 7.201172 " transform="matrix(1.333333,0,0,1.333333,0,0)"/>
<path style="fill:none;stroke-width:0.8;stroke-linecap:square;stroke-linejoin:miter;stroke:rgb(0%,0%,0%);stroke-opacity:1;stroke-miterlimit:4;" d="M 50.144531 143.100586 L 245.443359 143.100586 " transform="matrix(1.333333,0,0,1.333333,0,0)"/>
<path style="fill:none;stroke-width:0.8;stroke-linecap:square;stroke-linejoin:miter;stroke:rgb(0%,0%,0%);stroke-opacity:1;stroke-miterlimit:4;" d="M 50.144531 7.201172 L 245.443359 7.201172 " transform="matrix(1.333333,0,0,1.333333,0,0)"/>
<use xlink:href="#surface5" mask="url(#mask0)"/>
<path style="fill:none;stroke-width:1.5;stroke-linecap:square;stroke-linejoin:round;stroke:rgb(12.156863%,46.666667%,70.588237%);stroke-opacity:1;stroke-miterlimit:4;" d="M 130.177734 20.299805 L 150.175781 20.299805 " transform="matrix(1.333333,0,0,1.333333,0,0)"/>
<path style=" stroke:none;fill-rule:nonzero;fill:rgb(0%,0%,0%);fill-opacity:1;" d="M 216.957031 28 C 216.957031 27.132812 216.777344 26.460938 216.417969 25.984375 C 216.0625 25.503906 215.558594 25.265625 214.914062 25.265625 C 214.269531 25.265625 213.769531 25.503906 213.414062 25.984375 C 213.054688 26.460938 212.875 27.132812 212.875 28 C 212.875 28.863281 213.054688 29.535156 213.414062 30.011719 C 213.769531 30.492188 214.269531 30.730469 214.914062 30.730469 C 215.558594 30.730469 216.0625 30.492188 216.417969 30.011719 C 216.777344 29.535156 216.957031 28.863281 216.957031 28 Z M 218.152344 30.828125 C 218.152344 32.066406 217.878906 32.992188 217.328125 33.597656 C 216.777344 34.203125 215.933594 34.503906 214.796875 34.503906 C 214.375 34.503906 213.976562 34.472656 213.605469 34.410156 C 213.230469 34.347656 212.867188 34.25 212.515625 34.121094 L 212.515625 32.957031 C 212.867188 33.148438 213.214844 33.285156 213.558594 33.378906 C 213.902344 33.46875 214.25 33.515625 214.605469 33.515625 C 215.390625 33.515625 215.980469 33.308594 216.371094 32.898438 C 216.761719 32.492188 216.957031 31.871094 216.957031 31.042969 L 216.957031 30.449219 C 216.710938 30.878906 216.390625 31.199219 216.007812 31.414062 C 215.621094 31.625 215.15625 31.730469 214.617188 31.730469 C 213.726562 31.730469 213.003906 31.390625 212.457031 30.710938 C 211.910156 30.027344 211.636719 29.125 211.636719 28 C 211.636719 26.871094 211.910156 25.96875 212.457031 25.289062 C 213.003906 24.605469 213.726562 24.265625 214.617188 24.265625 C 215.15625 24.265625 215.621094 24.371094 216.007812 24.582031 C 216.390625 24.796875 216.710938 25.117188 216.957031 25.546875 L 216.957031 24.441406 L 218.152344 24.441406 Z M 218.152344 30.828125 "/>
<path style=" stroke:none;fill-rule:nonzero;fill:rgb(0%,0%,0%);fill-opacity:1;" d="M 225.417969 25.546875 L 225.417969 21.601562 L 226.617188 21.601562 L 226.617188 31.730469 L 225.417969 31.730469 L 225.417969 30.636719 C 225.167969 31.070312 224.851562 31.394531 224.464844 31.605469 C 224.082031 31.816406 223.621094 31.921875 223.082031 31.921875 C 222.203125 31.921875 221.484375 31.570312 220.929688 30.867188 C 220.378906 30.164062 220.101562 29.238281 220.101562 28.089844 C 220.101562 26.945312 220.378906 26.023438 220.929688 25.320312 C 221.484375 24.617188 222.203125 24.265625 223.082031 24.265625 C 223.621094 24.265625 224.082031 24.371094 224.464844 24.582031 C 224.851562 24.789062 225.167969 25.113281 225.417969 25.546875 Z M 221.339844 28.089844 C 221.339844 28.972656 221.519531 29.664062 221.882812 30.164062 C 222.246094 30.664062 222.742188 30.917969 223.375 30.917969 C 224.007812 30.917969 224.507812 30.664062 224.871094 30.164062 C 225.238281 29.664062 225.417969 28.972656 225.417969 28.089844 C 225.417969 27.210938 225.238281 26.519531 224.871094 26.019531 C 224.507812 25.515625 224.007812 25.265625 223.375 25.265625 C 222.742188 25.265625 222.246094 25.515625 221.882812 26.019531 C 221.519531 26.519531 221.339844 27.210938 221.339844 28.089844 Z M 221.339844 28.089844 "/>
<path style="fill:none;stroke-width:1.5;stroke-linecap:butt;stroke-linejoin:round;stroke:rgb(74.901962%,0%,74.901962%);stroke-opacity:1;stroke-dasharray:5.55,2.4;stroke-miterlimit:4;" d="M 130.177734 34.977539 L 150.175781 34.977539 " transform="matrix(1.333333,0,0,1.333333,0,0)"/>
<path style=" stroke:none;fill-rule:nonzero;fill:rgb(0%,0%,0%);fill-opacity:1;" d="M 216.804688 44.226562 L 216.804688 45.359375 C 216.46875 45.183594 216.117188 45.054688 215.753906 44.96875 C 215.386719 44.882812 215.011719 44.835938 214.617188 44.835938 C 214.023438 44.835938 213.578125 44.929688 213.28125 45.109375 C 212.984375 45.292969 212.835938 45.566406 212.835938 45.929688 C 212.835938 46.210938 212.941406 46.425781 213.152344 46.585938 C 213.367188 46.742188 213.792969 46.894531 214.4375 47.039062 L 214.847656 47.128906 C 215.699219 47.3125 216.300781 47.566406 216.660156 47.898438 C 217.019531 48.230469 217.199219 48.695312 217.199219 49.289062 C 217.199219 49.96875 216.929688 50.503906 216.394531 50.898438 C 215.859375 51.292969 215.121094 51.492188 214.183594 51.492188 C 213.792969 51.492188 213.386719 51.453125 212.960938 51.378906 C 212.539062 51.300781 212.09375 51.1875 211.625 51.035156 L 211.625 49.796875 C 212.066406 50.027344 212.503906 50.203125 212.933594 50.316406 C 213.363281 50.429688 213.789062 50.488281 214.210938 50.488281 C 214.773438 50.488281 215.207031 50.390625 215.511719 50.199219 C 215.816406 50.003906 215.964844 49.734375 215.964844 49.382812 C 215.964844 49.054688 215.855469 48.808594 215.636719 48.632812 C 215.417969 48.460938 214.9375 48.292969 214.195312 48.132812 L 213.777344 48.035156 C 213.039062 47.878906 212.5 47.636719 212.171875 47.316406 C 211.839844 46.992188 211.675781 46.546875 211.675781 45.984375 C 211.675781 45.296875 211.921875 44.769531 212.40625 44.394531 C 212.890625 44.023438 213.582031 43.835938 214.476562 43.835938 C 214.917969 43.835938 215.335938 43.867188 215.726562 43.933594 C 216.117188 43.996094 216.476562 44.09375 216.804688 44.226562 Z M 216.804688 44.226562 "/>
<path style=" stroke:none;fill-rule:nonzero;fill:rgb(0%,0%,0%);fill-opacity:1;" d="M 223.902344 47.570312 C 223.902344 46.703125 223.722656 46.03125 223.367188 45.554688 C 223.007812 45.078125 222.507812 44.835938 221.859375 44.835938 C 221.21875 44.835938 220.71875 45.078125 220.359375 45.554688 C 220 46.03125 219.820312 46.703125 219.820312 47.570312 C 219.820312 48.433594 220 49.105469 220.359375 49.582031 C 220.71875 50.0625 221.21875 50.300781 221.859375 50.300781 C 222.507812 50.300781 223.007812 50.0625 223.367188 49.582031 C 223.722656 49.105469 223.902344 48.433594 223.902344 47.570312 Z M 225.101562 50.398438 C 225.101562 51.636719 224.824219 52.5625 224.273438 53.167969 C 223.722656 53.773438 222.878906 54.074219 221.742188 54.074219 C 221.320312 54.074219 220.925781 54.042969 220.550781 53.980469 C 220.175781 53.917969 219.816406 53.820312 219.464844 53.691406 L 219.464844 52.527344 C 219.816406 52.71875 220.160156 52.859375 220.503906 52.949219 C 220.847656 53.039062 221.199219 53.085938 221.554688 53.085938 C 222.339844 53.085938 222.925781 52.878906 223.316406 52.472656 C 223.707031 52.0625 223.902344 51.441406 223.902344 50.613281 L 223.902344 50.019531 C 223.65625 50.449219 223.339844 50.769531 222.953125 50.984375 C 222.566406 51.195312 222.105469 51.300781 221.566406 51.300781 C 220.671875 51.300781 219.953125 50.960938 219.40625 50.28125 C 218.859375 49.597656 218.585938 48.695312 218.585938 47.570312 C 218.585938 46.441406 218.859375 45.539062 219.40625 44.859375 C 219.953125 44.175781 220.671875 43.835938 221.566406 43.835938 C 222.105469 43.835938 222.566406 43.941406 222.953125 44.152344 C 223.339844 44.367188 223.65625 44.6875 223.902344 45.117188 L 223.902344 44.011719 L 225.101562 44.011719 Z M 225.101562 50.398438 "/>
<path style=" stroke:none;fill-rule:nonzero;fill:rgb(0%,0%,0%);fill-opacity:1;" d="M 232.367188 45.117188 L 232.367188 41.171875 L 233.5625 41.171875 L 233.5625 51.300781 L 232.367188 51.300781 L 232.367188 50.207031 C 232.113281 50.640625 231.796875 50.964844 231.414062 51.175781 C 231.027344 51.386719 230.566406 51.492188 230.027344 51.492188 C 229.148438 51.492188 228.429688 51.140625 227.875 50.4375 C 227.324219 49.734375 227.046875 48.808594 227.046875 47.664062 C 227.046875 46.515625 227.324219 45.59375 227.875 44.890625 C 228.429688 44.1875 229.148438 43.835938 230.027344 43.835938 C 230.566406 43.835938 231.027344 43.941406 231.414062 44.152344 C 231.796875 44.363281 232.113281 44.683594 232.367188 45.117188 Z M 228.285156 47.664062 C 228.285156 48.542969 228.464844 49.234375 228.828125 49.734375 C 229.191406 50.238281 229.6875 50.488281 230.324219 50.488281 C 230.957031 50.488281 231.453125 50.238281 231.820312 49.734375 C 232.183594 49.234375 232.367188 48.542969 232.367188 47.664062 C 232.367188 46.78125 232.183594 46.089844 231.820312 45.589844 C 231.453125 45.089844 230.957031 44.835938 230.324219 44.835938 C 229.6875 44.835938 229.191406 45.089844 228.828125 45.589844 C 228.464844 46.089844 228.285156 46.78125 228.285156 47.664062 Z M 228.285156 47.664062 "/>
<path style="fill:none;stroke-width:1.5;stroke-linecap:butt;stroke-linejoin:round;stroke:rgb(0%,50.196081%,0%);stroke-opacity:1;stroke-dasharray:9.6,2.4,1.5,2.4;stroke-miterlimit:4;" d="M 130.177734 49.655273 L 150.175781 49.655273 " transform="matrix(1.333333,0,0,1.333333,0,0)"/>
<path style=" stroke:none;fill-rule:nonzero;fill:rgb(0%,0%,0%);fill-opacity:1;" d="M 217.394531 67.234375 C 217.394531 66.351562 217.210938 65.660156 216.851562 65.160156 C 216.488281 64.660156 215.988281 64.410156 215.355469 64.410156 C 214.722656 64.410156 214.222656 64.660156 213.859375 65.160156 C 213.496094 65.660156 213.316406 66.351562 213.316406 67.234375 C 213.316406 68.113281 213.496094 68.804688 213.859375 69.304688 C 214.222656 69.808594 214.722656 70.058594 215.355469 70.058594 C 215.988281 70.058594 216.488281 69.808594 216.851562 69.304688 C 217.210938 68.804688 217.394531 68.113281 217.394531 67.234375 Z M 213.316406 64.6875 C 213.570312 64.253906 213.886719 63.933594 214.269531 63.722656 C 214.65625 63.511719 215.113281 63.40625 215.648438 63.40625 C 216.535156 63.40625 217.253906 63.757812 217.804688 64.460938 C 218.359375 65.164062 218.636719 66.085938 218.636719 67.234375 C 218.636719 68.378906 218.359375 69.304688 217.804688 70.007812 C 217.253906 70.710938 216.535156 71.0625 215.648438 71.0625 C 215.113281 71.0625 214.65625 70.957031 214.269531 70.746094 C 213.886719 70.535156 213.570312 70.210938 213.316406 69.777344 L 213.316406 70.871094 L 212.113281 70.871094 L 212.113281 60.742188 L 213.316406 60.742188 Z M 213.316406 64.6875 "/>
<path style=" stroke:none;fill-rule:nonzero;fill:rgb(0%,0%,0%);fill-opacity:1;" d="M 223.9375 67.207031 C 222.96875 67.207031 222.296875 67.320312 221.925781 67.539062 C 221.550781 67.761719 221.363281 68.136719 221.363281 68.671875 C 221.363281 69.097656 221.503906 69.433594 221.785156 69.683594 C 222.066406 69.933594 222.445312 70.058594 222.925781 70.058594 C 223.589844 70.058594 224.125 69.824219 224.527344 69.351562 C 224.925781 68.882812 225.128906 68.253906 225.128906 67.476562 L 225.128906 67.207031 Z M 226.324219 66.710938 L 226.324219 70.871094 L 225.128906 70.871094 L 225.128906 69.765625 C 224.855469 70.207031 224.511719 70.535156 224.105469 70.746094 C 223.695312 70.957031 223.199219 71.0625 222.605469 71.0625 C 221.863281 71.0625 221.269531 70.851562 220.824219 70.433594 C 220.386719 70.015625 220.164062 69.453125 220.164062 68.75 C 220.164062 67.929688 220.441406 67.3125 220.988281 66.894531 C 221.539062 66.480469 222.359375 66.269531 223.445312 66.269531 L 225.128906 66.269531 L 225.128906 66.152344 C 225.128906 65.601562 224.945312 65.175781 224.585938 64.871094 C 224.222656 64.570312 223.710938 64.421875 223.058594 64.421875 C 222.640625 64.421875 222.234375 64.472656 221.839844 64.570312 C 221.445312 64.671875 221.066406 64.820312 220.699219 65.019531 L 220.699219 63.914062 C 221.136719 63.742188 221.5625 63.617188 221.976562 63.535156 C 222.386719 63.449219 222.789062 63.40625 223.179688 63.40625 C 224.234375 63.40625 225.023438 63.679688 225.542969 64.226562 C 226.066406 64.773438 226.324219 65.601562 226.324219 66.710938 Z M 226.324219 66.710938 "/>
<path style=" stroke:none;fill-rule:nonzero;fill:rgb(0%,0%,0%);fill-opacity:1;" d="M 229.976562 61.511719 L 229.976562 63.582031 L 232.445312 63.582031 L 232.445312 64.511719 L 229.976562 64.511719 L 229.976562 68.472656 C 229.976562 69.066406 230.058594 69.445312 230.222656 69.617188 C 230.382812 69.785156 230.714844 69.871094 231.214844 69.871094 L 232.445312 69.871094 L 232.445312 70.871094 L 231.214844 70.871094 C 230.289062 70.871094 229.652344 70.699219 229.300781 70.355469 C 228.949219 70.011719 228.773438 69.382812 228.773438 68.472656 L 228.773438 64.511719 L 227.894531 64.511719 L 227.894531 63.582031 L 228.773438 63.582031 L 228.773438 61.511719 Z M 229.976562 61.511719 "/>
<path style=" stroke:none;fill-rule:nonzero;fill:rgb(0%,0%,0%);fill-opacity:1;" d="M 239.269531 63.859375 L 239.269531 64.980469 C 238.929688 64.792969 238.589844 64.652344 238.25 64.558594 C 237.910156 64.46875 237.566406 64.421875 237.21875 64.421875 C 236.441406 64.421875 235.835938 64.667969 235.40625 65.160156 C 234.976562 65.652344 234.761719 66.34375 234.761719 67.234375 C 234.761719 68.125 234.976562 68.816406 235.40625 69.308594 C 235.835938 69.800781 236.441406 70.046875 237.21875 70.046875 C 237.566406 70.046875 237.910156 70 238.25 69.90625 C 238.589844 69.8125 238.929688 69.671875 239.269531 69.484375 L 239.269531 70.59375 C 238.933594 70.75 238.585938 70.867188 238.230469 70.945312 C 237.871094 71.023438 237.492188 71.0625 237.085938 71.0625 C 235.988281 71.0625 235.117188 70.71875 234.46875 70.027344 C 233.824219 69.335938 233.5 68.40625 233.5 67.234375 C 233.5 66.042969 233.824219 65.109375 234.480469 64.429688 C 235.132812 63.746094 236.027344 63.40625 237.167969 63.40625 C 237.535156 63.40625 237.894531 63.445312 238.246094 63.519531 C 238.597656 63.597656 238.9375 63.710938 239.269531 63.859375 Z M 239.269531 63.859375 "/>
<path style=" stroke:none;fill-rule:nonzero;fill:rgb(0%,0%,0%);fill-opacity:1;" d="M 247.414062 66.472656 L 247.414062 70.871094 L 246.214844 70.871094 L 246.214844 66.511719 C 246.214844 65.820312 246.082031 65.304688 245.8125 64.960938 C 245.542969 64.621094 245.136719 64.449219 244.601562 64.449219 C 243.953125 64.449219 243.445312 64.652344 243.070312 65.066406 C 242.695312 65.476562 242.507812 66.039062 242.507812 66.753906 L 242.507812 70.871094 L 241.304688 70.871094 L 241.304688 60.742188 L 242.507812 60.742188 L 242.507812 64.714844 C 242.796875 64.277344 243.132812 63.949219 243.523438 63.730469 C 243.910156 63.515625 244.359375 63.40625 244.867188 63.40625 C 245.707031 63.40625 246.339844 63.664062 246.769531 64.183594 C 247.199219 64.703125 247.414062 65.464844 247.414062 66.472656 Z M 247.414062 66.472656 "/>
<path style=" stroke:none;fill-rule:nonzero;fill:rgb(0%,0%,0%);fill-opacity:1;" d="M 258.6875 63.796875 L 258.6875 64.929688 C 258.351562 64.753906 258 64.625 257.632812 64.539062 C 257.269531 64.453125 256.890625 64.410156 256.5 64.410156 C 255.90625 64.410156 255.460938 64.5 255.164062 64.679688 C 254.867188 64.863281 254.71875 65.136719 254.71875 65.503906 C 254.71875 65.78125 254.824219 65.996094 255.035156 66.15625 C 255.25 66.316406 255.675781 66.464844 256.320312 66.609375 L 256.730469 66.699219 C 257.578125 66.882812 258.183594 67.140625 258.542969 67.472656 C 258.898438 67.804688 259.078125 68.265625 259.078125 68.859375 C 259.078125 69.539062 258.8125 70.074219 258.273438 70.472656 C 257.738281 70.867188 257.003906 71.0625 256.066406 71.0625 C 255.675781 71.0625 255.269531 71.023438 254.84375 70.949219 C 254.421875 70.871094 253.972656 70.757812 253.507812 70.605469 L 253.507812 69.367188 C 253.949219 69.597656 254.386719 69.773438 254.816406 69.886719 C 255.242188 70 255.667969 70.058594 256.09375 70.058594 C 256.65625 70.058594 257.089844 69.960938 257.390625 69.769531 C 257.695312 69.574219 257.847656 69.304688 257.847656 68.953125 C 257.847656 68.628906 257.738281 68.378906 257.519531 68.203125 C 257.300781 68.03125 256.820312 67.863281 256.078125 67.703125 L 255.660156 67.605469 C 254.917969 67.449219 254.382812 67.210938 254.050781 66.886719 C 253.722656 66.5625 253.558594 66.117188 253.558594 65.554688 C 253.558594 64.867188 253.800781 64.339844 254.289062 63.964844 C 254.773438 63.59375 255.464844 63.40625 256.359375 63.40625 C 256.800781 63.40625 257.214844 63.4375 257.605469 63.503906 C 258 63.566406 258.359375 63.664062 258.6875 63.796875 Z M 258.6875 63.796875 "/>
<path style=" stroke:none;fill-rule:nonzero;fill:rgb(0%,0%,0%);fill-opacity:1;" d="M 260.988281 63.582031 L 262.183594 63.582031 L 262.183594 70.871094 L 260.988281 70.871094 Z M 260.988281 60.742188 L 262.183594 60.742188 L 262.183594 62.261719 L 260.988281 62.261719 Z M 260.988281 60.742188 "/>
<path style=" stroke:none;fill-rule:nonzero;fill:rgb(0%,0%,0%);fill-opacity:1;" d="M 264.171875 63.582031 L 269.859375 63.582031 L 269.859375 64.675781 L 265.355469 69.917969 L 269.859375 69.917969 L 269.859375 70.871094 L 264.007812 70.871094 L 264.007812 69.777344 L 268.515625 64.539062 L 264.171875 64.539062 Z M 264.171875 63.582031 "/>
<path style=" stroke:none;fill-rule:nonzero;fill:rgb(0%,0%,0%);fill-opacity:1;" d="M 277.925781 66.925781 L 277.925781 67.511719 L 272.417969 67.511719 C 272.472656 68.335938 272.71875 68.964844 273.164062 69.398438 C 273.609375 69.828125 274.226562 70.046875 275.023438 70.046875 C 275.484375 70.046875 275.929688 69.988281 276.359375 69.878906 C 276.792969 69.765625 277.222656 69.59375 277.648438 69.367188 L 277.648438 70.503906 C 277.21875 70.683594 276.777344 70.824219 276.324219 70.917969 C 275.875 71.015625 275.414062 71.0625 274.953125 71.0625 C 273.789062 71.0625 272.867188 70.722656 272.1875 70.046875 C 271.507812 69.371094 271.167969 68.453125 271.167969 67.296875 C 271.167969 66.105469 271.492188 65.160156 272.136719 64.457031 C 272.78125 63.757812 273.648438 63.40625 274.742188 63.40625 C 275.722656 63.40625 276.5 63.722656 277.070312 64.355469 C 277.640625 64.984375 277.925781 65.84375 277.925781 66.925781 Z M 276.730469 66.574219 C 276.722656 65.921875 276.539062 65.398438 276.179688 65.007812 C 275.820312 64.617188 275.347656 64.421875 274.757812 64.421875 C 274.089844 64.421875 273.554688 64.609375 273.152344 64.988281 C 272.75 65.367188 272.519531 65.898438 272.457031 66.582031 Z M 276.730469 66.574219 "/>
<path style=" stroke:none;fill-rule:nonzero;fill:rgb(0%,0%,0%);fill-opacity:1;" d="M 280.050781 64.820312 L 288.394531 64.820312 L 288.394531 65.914062 L 280.050781 65.914062 Z M 280.050781 67.476562 L 288.394531 67.476562 L 288.394531 68.582031 L 280.050781 68.582031 Z M 280.050781 67.476562 "/>
<path style=" stroke:none;fill-rule:nonzero;fill:rgb(0%,0%,0%);fill-opacity:1;" d="M 291.460938 69.765625 L 293.609375 69.765625 L 293.609375 62.351562 L 291.273438 62.820312 L 291.273438 61.621094 L 293.597656 61.152344 L 294.914062 61.152344 L 294.914062 69.765625 L 297.058594 69.765625 L 297.058594 70.871094 L 291.460938 70.871094 Z M 291.460938 69.765625 "/>
<path style=" stroke:none;fill-rule:nonzero;fill:rgb(0%,0%,0%);fill-opacity:1;" d="M 302.527344 62.019531 C 301.851562 62.019531 301.34375 62.351562 301 63.019531 C 300.660156 63.683594 300.492188 64.683594 300.492188 66.023438 C 300.492188 67.355469 300.660156 68.355469 301 69.019531 C 301.34375 69.6875 301.851562 70.019531 302.527344 70.019531 C 303.210938 70.019531 303.722656 69.6875 304.0625 69.019531 C 304.402344 68.355469 304.574219 67.355469 304.574219 66.023438 C 304.574219 64.683594 304.402344 63.683594 304.0625 63.019531 C 303.722656 62.351562 303.210938 62.019531 302.527344 62.019531 Z M 302.527344 60.976562 C 303.621094 60.976562 304.453125 61.410156 305.027344 62.269531 C 305.601562 63.132812 305.890625 64.382812 305.890625 66.023438 C 305.890625 67.660156 305.601562 68.910156 305.027344 69.769531 C 304.453125 70.632812 303.621094 71.0625 302.527344 71.0625 C 301.441406 71.0625 300.609375 70.632812 300.03125 69.769531 C 299.457031 68.910156 299.171875 67.660156 299.171875 66.023438 C 299.171875 64.382812 299.457031 63.132812 300.03125 62.269531 C 300.609375 61.410156 301.441406 60.976562 302.527344 60.976562 Z M 302.527344 60.976562 "/>
<path style=" stroke:none;fill-rule:nonzero;fill:rgb(0%,0%,0%);fill-opacity:1;" d="M 311.011719 62.019531 C 310.335938 62.019531 309.828125 62.351562 309.484375 63.019531 C 309.144531 63.683594 308.972656 64.683594 308.972656 66.023438 C 308.972656 67.355469 309.144531 68.355469 309.484375 69.019531 C 309.828125 69.6875 310.335938 70.019531 311.011719 70.019531 C 311.695312 70.019531 312.203125 69.6875 312.546875 69.019531 C 312.886719 68.355469 313.058594 67.355469 313.058594 66.023438 C 313.058594 64.683594 312.886719 63.683594 312.546875 63.019531 C 312.203125 62.351562 311.695312 62.019531 311.011719 62.019531 Z M 311.011719 60.976562 C 312.101562 60.976562 312.933594 61.410156 313.511719 62.269531 C 314.085938 63.132812 314.371094 64.382812 314.371094 66.023438 C 314.371094 67.660156 314.085938 68.910156 313.511719 69.769531 C 312.933594 70.632812 312.101562 71.0625 311.011719 71.0625 C 309.921875 71.0625 309.089844 70.632812 308.515625 69.769531 C 307.941406 68.910156 307.652344 67.660156 307.652344 66.023438 C 307.652344 64.382812 307.941406 63.132812 308.515625 62.269531 C 309.089844 61.410156 309.921875 60.976562 311.011719 60.976562 Z M 311.011719 60.976562 "/>
<path style="fill:none;stroke-width:1.5;stroke-linecap:butt;stroke-linejoin:round;stroke:rgb(100%,0%,0%);stroke-opacity:1;stroke-dasharray:1.5,2.475;stroke-miterlimit:4;" d="M 130.177734 64.333008 L 150.175781 64.333008 " transform="matrix(1.333333,0,0,1.333333,0,0)"/>
<path style=" stroke:none;fill-rule:nonzero;fill:rgb(0%,0%,0%);fill-opacity:1;" d="M 217.394531 86.804688 C 217.394531 85.921875 217.210938 85.234375 216.851562 84.730469 C 216.488281 84.230469 215.988281 83.980469 215.355469 83.980469 C 214.722656 83.980469 214.222656 84.230469 213.859375 84.730469 C 213.496094 85.234375 213.316406 85.921875 213.316406 86.804688 C 213.316406 87.683594 213.496094 88.375 213.859375 88.878906 C 214.222656 89.378906 214.722656 89.628906 215.355469 89.628906 C 215.988281 89.628906 216.488281 89.378906 216.851562 88.878906 C 217.210938 88.375 217.394531 87.683594 217.394531 86.804688 Z M 213.316406 84.257812 C 213.570312 83.824219 213.886719 83.503906 214.269531 83.292969 C 214.65625 83.082031 215.113281 82.976562 215.648438 82.976562 C 216.535156 82.976562 217.253906 83.328125 217.804688 84.03125 C 218.359375 84.734375 218.636719 85.660156 218.636719 86.804688 C 218.636719 87.949219 218.359375 88.875 217.804688 89.578125 C 217.253906 90.28125 216.535156 90.632812 215.648438 90.632812 C 215.113281 90.632812 214.65625 90.527344 214.269531 90.316406 C 213.886719 90.105469 213.570312 89.785156 213.316406 89.351562 L 213.316406 90.445312 L 212.113281 90.445312 L 212.113281 80.3125 L 213.316406 80.3125 Z M 213.316406 84.257812 "/>
<path style=" stroke:none;fill-rule:nonzero;fill:rgb(0%,0%,0%);fill-opacity:1;" d="M 223.9375 86.777344 C 222.96875 86.777344 222.296875 86.890625 221.925781 87.109375 C 221.550781 87.332031 221.363281 87.710938 221.363281 88.242188 C 221.363281 88.667969 221.503906 89.007812 221.785156 89.257812 C 222.066406 89.503906 222.445312 89.628906 222.925781 89.628906 C 223.589844 89.628906 224.125 89.394531 224.527344 88.921875 C 224.925781 88.453125 225.128906 87.828125 225.128906 87.046875 L 225.128906 86.777344 Z M 226.324219 86.285156 L 226.324219 90.445312 L 225.128906 90.445312 L 225.128906 89.335938 C 224.855469 89.777344 224.511719 90.105469 224.105469 90.316406 C 223.695312 90.527344 223.199219 90.632812 222.605469 90.632812 C 221.863281 90.632812 221.269531 90.421875 220.824219 90.003906 C 220.386719 89.585938 220.164062 89.023438 220.164062 88.320312 C 220.164062 87.5 220.441406 86.882812 220.988281 86.464844 C 221.539062 86.050781 222.359375 85.839844 223.445312 85.839844 L 225.128906 85.839844 L 225.128906 85.722656 C 225.128906 85.171875 224.945312 84.746094 224.585938 84.445312 C 224.222656 84.140625 223.710938 83.992188 223.058594 83.992188 C 222.640625 83.992188 222.234375 84.042969 221.839844 84.140625 C 221.445312 84.242188 221.066406 84.390625 220.699219 84.589844 L 220.699219 83.484375 C 221.136719 83.3125 221.5625 83.1875 221.976562 83.105469 C 222.386719 83.019531 222.789062 82.976562 223.179688 82.976562 C 224.234375 82.976562 225.023438 83.25 225.542969 83.796875 C 226.066406 84.34375 226.324219 85.171875 226.324219 86.285156 Z M 226.324219 86.285156 "/>
<path style=" stroke:none;fill-rule:nonzero;fill:rgb(0%,0%,0%);fill-opacity:1;" d="M 229.976562 81.082031 L 229.976562 83.152344 L 232.445312 83.152344 L 232.445312 84.082031 L 229.976562 84.082031 L 229.976562 88.042969 C 229.976562 88.636719 230.058594 89.019531 230.222656 89.1875 C 230.382812 89.355469 230.714844 89.441406 231.214844 89.441406 L 232.445312 89.441406 L 232.445312 90.445312 L 231.214844 90.445312 C 230.289062 90.445312 229.652344 90.273438 229.300781 89.925781 C 228.949219 89.582031 228.773438 88.953125 228.773438 88.042969 L 228.773438 84.082031 L 227.894531 84.082031 L 227.894531 83.152344 L 228.773438 83.152344 L 228.773438 81.082031 Z M 229.976562 81.082031 "/>
<path style=" stroke:none;fill-rule:nonzero;fill:rgb(0%,0%,0%);fill-opacity:1;" d="M 239.269531 83.429688 L 239.269531 84.550781 C 238.929688 84.363281 238.589844 84.222656 238.25 84.132812 C 237.910156 84.039062 237.566406 83.992188 237.21875 83.992188 C 236.441406 83.992188 235.835938 84.238281 235.40625 84.730469 C 234.976562 85.222656 234.761719 85.914062 234.761719 86.804688 C 234.761719 87.695312 234.976562 88.386719 235.40625 88.878906 C 235.835938 89.371094 236.441406 89.617188 237.21875 89.617188 C 237.566406 89.617188 237.910156 89.570312 238.25 89.476562 C 238.589844 89.382812 238.929688 89.242188 239.269531 89.054688 L 239.269531 90.164062 C 238.933594 90.320312 238.585938 90.4375 238.230469 90.515625 C 237.871094 90.59375 237.492188 90.632812 237.085938 90.632812 C 235.988281 90.632812 235.117188 90.289062 234.46875 89.597656 C 233.824219 88.90625 233.5 87.976562 233.5 86.804688 C 233.5 85.617188 233.824219 84.679688 234.480469 84 C 235.132812 83.316406 236.027344 82.976562 237.167969 82.976562 C 237.535156 82.976562 237.894531 83.015625 238.246094 83.089844 C 238.597656 83.167969 238.9375 83.28125 239.269531 83.429688 Z M 239.269531 83.429688 "/>
<path style=" stroke:none;fill-rule:nonzero;fill:rgb(0%,0%,0%);fill-opacity:1;" d="M 247.414062 86.042969 L 247.414062 90.445312 L 246.214844 90.445312 L 246.214844 86.082031 C 246.214844 85.390625 246.082031 84.875 245.8125 84.535156 C 245.542969 84.191406 245.136719 84.019531 244.601562 84.019531 C 243.953125 84.019531 243.445312 84.226562 243.070312 84.636719 C 242.695312 85.046875 242.507812 85.609375 242.507812 86.324219 L 242.507812 90.445312 L 241.304688 90.445312 L 241.304688 80.3125 L 242.507812 80.3125 L 242.507812 84.285156 C 242.796875 83.847656 243.132812 83.519531 243.523438 83.300781 C 243.910156 83.085938 244.359375 82.976562 244.867188 82.976562 C 245.707031 82.976562 246.339844 83.234375 246.769531 83.753906 C 247.199219 84.273438 247.414062 85.035156 247.414062 86.042969 Z M 247.414062 86.042969 "/>
<path style=" stroke:none;fill-rule:nonzero;fill:rgb(0%,0%,0%);fill-opacity:1;" d="M 258.6875 83.367188 L 258.6875 84.5 C 258.351562 84.328125 258 84.195312 257.632812 84.109375 C 257.269531 84.023438 256.890625 83.980469 256.5 83.980469 C 255.90625 83.980469 255.460938 84.070312 255.164062 84.253906 C 254.867188 84.433594 254.71875 84.707031 254.71875 85.074219 C 254.71875 85.351562 254.824219 85.570312 255.035156 85.726562 C 255.25 85.886719 255.675781 86.035156 256.320312 86.179688 L 256.730469 86.269531 C 257.578125 86.453125 258.183594 86.710938 258.542969 87.042969 C 258.898438 87.375 259.078125 87.835938 259.078125 88.429688 C 259.078125 89.109375 258.8125 89.644531 258.273438 90.042969 C 257.738281 90.4375 257.003906 90.632812 256.066406 90.632812 C 255.675781 90.632812 255.269531 90.59375 254.84375 90.519531 C 254.421875 90.441406 253.972656 90.328125 253.507812 90.175781 L 253.507812 88.941406 C 253.949219 89.171875 254.386719 89.34375 254.816406 89.457031 C 255.242188 89.570312 255.667969 89.628906 256.09375 89.628906 C 256.65625 89.628906 257.089844 89.53125 257.390625 89.339844 C 257.695312 89.148438 257.847656 88.875 257.847656 88.523438 C 257.847656 88.199219 257.738281 87.949219 257.519531 87.773438 C 257.300781 87.601562 256.820312 87.433594 256.078125 87.273438 L 255.660156 87.175781 C 254.917969 87.019531 254.382812 86.78125 254.050781 86.457031 C 253.722656 86.132812 253.558594 85.6875 253.558594 85.125 C 253.558594 84.4375 253.800781 83.910156 254.289062 83.539062 C 254.773438 83.164062 255.464844 82.976562 256.359375 82.976562 C 256.800781 82.976562 257.214844 83.007812 257.605469 83.074219 C 258 83.140625 258.359375 83.234375 258.6875 83.367188 Z M 258.6875 83.367188 "/>
<path style=" stroke:none;fill-rule:nonzero;fill:rgb(0%,0%,0%);fill-opacity:1;" d="M 260.988281 83.152344 L 262.183594 83.152344 L 262.183594 90.445312 L 260.988281 90.445312 Z M 260.988281 80.3125 L 262.183594 80.3125 L 262.183594 81.832031 L 260.988281 81.832031 Z M 260.988281 80.3125 "/>
<path style=" stroke:none;fill-rule:nonzero;fill:rgb(0%,0%,0%);fill-opacity:1;" d="M 264.171875 83.152344 L 269.859375 83.152344 L 269.859375 84.246094 L 265.355469 89.488281 L 269.859375 89.488281 L 269.859375 90.445312 L 264.007812 90.445312 L 264.007812 89.351562 L 268.515625 84.109375 L 264.171875 84.109375 Z M 264.171875 83.152344 "/>
<path style=" stroke:none;fill-rule:nonzero;fill:rgb(0%,0%,0%);fill-opacity:1;" d="M 277.925781 86.496094 L 277.925781 87.082031 L 272.417969 87.082031 C 272.472656 87.910156 272.71875 88.535156 273.164062 88.96875 C 273.609375 89.402344 274.226562 89.617188 275.023438 89.617188 C 275.484375 89.617188 275.929688 89.558594 276.359375 89.449219 C 276.792969 89.335938 277.222656 89.164062 277.648438 88.941406 L 277.648438 90.074219 C 277.21875 90.253906 276.777344 90.394531 276.324219 90.488281 C 275.875 90.585938 275.414062 90.632812 274.953125 90.632812 C 273.789062 90.632812 272.867188 90.296875 272.1875 89.617188 C 271.507812 88.941406 271.167969 88.023438 271.167969 86.867188 C 271.167969 85.675781 271.492188 84.730469 272.136719 84.027344 C 272.78125 83.328125 273.648438 82.976562 274.742188 82.976562 C 275.722656 82.976562 276.5 83.292969 277.070312 83.925781 C 277.640625 84.554688 277.925781 85.414062 277.925781 86.496094 Z M 276.730469 86.144531 C 276.722656 85.492188 276.539062 84.96875 276.179688 84.578125 C 275.820312 84.1875 275.347656 83.992188 274.757812 83.992188 C 274.089844 83.992188 273.554688 84.179688 273.152344 84.558594 C 272.75 84.9375 272.519531 85.46875 272.457031 86.152344 Z M 276.730469 86.144531 "/>
<path style=" stroke:none;fill-rule:nonzero;fill:rgb(0%,0%,0%);fill-opacity:1;" d="M 280.050781 84.390625 L 288.394531 84.390625 L 288.394531 85.484375 L 280.050781 85.484375 Z M 280.050781 87.046875 L 288.394531 87.046875 L 288.394531 88.152344 L 280.050781 88.152344 Z M 280.050781 87.046875 "/>
<path style=" stroke:none;fill-rule:nonzero;fill:rgb(0%,0%,0%);fill-opacity:1;" d="M 291.460938 89.335938 L 293.609375 89.335938 L 293.609375 81.921875 L 291.273438 82.390625 L 291.273438 81.191406 L 293.597656 80.722656 L 294.914062 80.722656 L 294.914062 89.335938 L 297.058594 89.335938 L 297.058594 90.445312 L 291.460938 90.445312 Z M 291.460938 89.335938 "/>
<path style=" stroke:none;fill-rule:nonzero;fill:rgb(0%,0%,0%);fill-opacity:1;" d="M 302.527344 81.589844 C 301.851562 81.589844 301.34375 81.921875 301 82.589844 C 300.660156 83.253906 300.492188 84.257812 300.492188 85.59375 C 300.492188 86.925781 300.660156 87.925781 301 88.589844 C 301.34375 89.257812 301.851562 89.589844 302.527344 89.589844 C 303.210938 89.589844 303.722656 89.257812 304.0625 88.589844 C 304.402344 87.925781 304.574219 86.925781 304.574219 85.59375 C 304.574219 84.257812 304.402344 83.253906 304.0625 82.589844 C 303.722656 81.921875 303.210938 81.589844 302.527344 81.589844 Z M 302.527344 80.546875 C 303.621094 80.546875 304.453125 80.980469 305.027344 81.839844 C 305.601562 82.703125 305.890625 83.953125 305.890625 85.59375 C 305.890625 87.230469 305.601562 88.480469 305.027344 89.339844 C 304.453125 90.203125 303.621094 90.632812 302.527344 90.632812 C 301.441406 90.632812 300.609375 90.203125 300.03125 89.339844 C 299.457031 88.480469 299.171875 87.230469 299.171875 85.59375 C 299.171875 83.953125 299.457031 82.703125 300.03125 81.839844 C 300.609375 80.980469 301.441406 80.546875 302.527344 80.546875 Z M 302.527344 80.546875 "/>
</g>
</svg>
