<?xml version="1.0" encoding="UTF-8"?>
<svg xmlns="http://www.w3.org/2000/svg" xmlns:xlink="http://www.w3.org/1999/xlink" width="402.774984" height="240.875" viewBox="0 0 402.774984 240.875" version="1.1">
<defs>
<clipPath id="clip1">
  <path d="M 94 9.601562 L 97 9.601562 L 97 190.800781 L 94 190.800781 Z M 94 9.601562 "/>
</clipPath>
<clipPath id="clip2">
  <path d="M 138 9.601562 L 140 9.601562 L 140 190.800781 L 138 190.800781 Z M 138 9.601562 "/>
</clipPath>
<clipPath id="clip3">
  <path d="M 181 9.601562 L 184 9.601562 L 184 190.800781 L 181 190.800781 Z M 181 9.601562 "/>
</clipPath>
<clipPath id="clip4">
  <path d="M 225 9.601562 L 227 9.601562 L 227 190.800781 L 225 190.800781 Z M 225 9.601562 "/>
</clipPath>
<clipPath id="clip5">
  <path d="M 268 9.601562 L 271 9.601562 L 271 190.800781 L 268 190.800781 Z M 268 9.601562 "/>
</clipPath>
<clipPath id="clip6">
  <path d="M 312 9.601562 L 314 9.601562 L 314 190.800781 L 312 190.800781 Z M 312 9.601562 "/>
</clipPath>
<clipPath id="clip7">
  <path d="M 355 9.601562 L 358 9.601562 L 358 190.800781 L 355 190.800781 Z M 355 9.601562 "/>
</clipPath>
<clipPath id="clip8">
  <path d="M 58.375 181 L 393.175781 181 L 393.175781 184 L 58.375 184 Z M 58.375 181 "/>
</clipPath>
<clipPath id="clip9">
  <path d="M 58.375 140 L 393.175781 140 L 393.175781 143 L 58.375 143 Z M 58.375 140 "/>
</clipPath>
<clipPath id="clip10">
  <path d="M 58.375 99 L 393.175781 99 L 393.175781 101 L 58.375 101 Z M 58.375 99 "/>
</clipPath>
<clipPath id="clip11">
  <path d="M 58.375 57 L 393.175781 57 L 393.175781 60 L 58.375 60 Z M 58.375 57 "/>
</clipPath>
<clipPath id="clip12">
  <path d="M 58.375 16 L 393.175781 16 L 393.175781 19 L 58.375 19 Z M 58.375 16 "/>
</clipPath>
<filter id="alpha" filterUnits="objectBoundingBox" x="0%" y="0%" width="100%" height="100%">
  <feColorMatrix type="matrix" in="SourceGraphic" values="0 0 0 0 1 0 0 0 0 1 0 0 0 0 1 0 0 0 1 0"/>
</filter>
<mask id="mask0">
  <g filter="url(#alpha)">
<rect x="0" y="0" width="402.774984" height="240.875" style="fill:rgb(0%,0%,0%);fill-opacity:0.8;stroke:none;"/>
  </g>
</mask>
<clipPath id="clip13">
  <rect x="0" y="0" width="403" height="241"/>
</clipPath>
<g id="surface5" clip-path="url(#clip13)">
<path style="fill-rule:nonzero;fill:rgb(100%,100%,100%);fill-opacity:1;stroke-width:1;stroke-linecap:butt;stroke-linejoin:miter;stroke:rgb(80.000001%,80.000001%,80.000001%);stroke-opacity:1;stroke-miterlimit:4;" d="M 50.780273 59.235352 L 152.056641 59.235352 C 153.389648 59.235352 154.057617 58.567383 154.057617 57.234375 L 154.057617 14.200195 C 154.057617 12.867188 153.389648 12.199219 152.056641 12.199219 L 50.780273 12.199219 C 49.447266 12.199219 48.782227 12.867188 48.782227 14.200195 L 48.782227 57.234375 C 48.782227 58.567383 49.447266 59.235352 50.780273 59.235352 Z M 50.780273 59.235352 " transform="matrix(1.333333,0,0,1.333333,0,0)"/>
</g>
</defs>
<g id="surface1">
<path style=" stroke:none;fill-rule:nonzero;fill:rgb(100%,100%,100%);fill-opacity:1;" d="M 58.375 190.800781 L 393.175781 190.800781 L 393.175781 9.601562 L 58.375 9.601562 Z M 58.375 190.800781 "/>
<g clip-path="url(#clip1)" clip-rule="nonzero">
<path style="fill:none;stroke-width:0.8;stroke-linecap:square;stroke-linejoin:round;stroke:rgb(69.01961%,69.01961%,69.01961%);stroke-opacity:1;stroke-miterlimit:4;" d="M 71.510742 143.100586 L 71.510742 7.201172 " transform="matrix(1.333333,0,0,1.333333,0,0)"/>
</g>
<path style="fill:none;stroke-width:0.8;stroke-linecap:butt;stroke-linejoin:round;stroke:rgb(0%,0%,0%);stroke-opacity:1;stroke-miterlimit:4;" d="M -0.000991821 0.000579834 L -0.000991821 3.498627 " transform="matrix(1.333333,0,0,1.333333,95.348979,190.800008)"/>
<path style=" stroke:none;fill-rule:nonzero;fill:rgb(0%,0%,0%);fill-opacity:1;" d="M 86.933594 205.53125 L 95.277344 205.53125 L 95.277344 206.636719 L 86.933594 206.636719 Z M 86.933594 205.53125 "/>
<path style=" stroke:none;fill-rule:nonzero;fill:rgb(0%,0%,0%);fill-opacity:1;" d="M 101.09375 204.882812 C 100.503906 204.882812 100.035156 205.082031 99.691406 205.488281 C 99.347656 205.890625 99.175781 206.441406 99.175781 207.144531 C 99.175781 207.84375 99.347656 208.398438 99.691406 208.804688 C 100.035156 209.210938 100.503906 209.414062 101.09375 209.414062 C 101.683594 209.414062 102.152344 209.210938 102.496094 208.804688 C 102.839844 208.398438 103.011719 207.84375 103.011719 207.144531 C 103.011719 206.441406 102.839844 205.890625 102.496094 205.488281 C 102.152344 205.082031 101.683594 204.882812 101.09375 204.882812 Z M 103.707031 200.757812 L 103.707031 201.957031 C 103.375 201.800781 103.042969 201.683594 102.707031 201.601562 C 102.367188 201.515625 102.035156 201.476562 101.707031 201.476562 C 100.835938 201.476562 100.175781 201.769531 99.714844 202.355469 C 99.257812 202.941406 98.996094 203.824219 98.933594 205.011719 C 99.1875 204.632812 99.507812 204.34375 99.894531 204.140625 C 100.28125 203.941406 100.707031 203.839844 101.171875 203.839844 C 102.148438 203.839844 102.917969 204.136719 103.488281 204.730469 C 104.054688 205.320312 104.335938 206.125 104.335938 207.144531 C 104.335938 208.144531 104.042969 208.945312 103.449219 209.550781 C 102.859375 210.152344 102.074219 210.453125 101.09375 210.453125 C 99.96875 210.453125 99.109375 210.023438 98.515625 209.164062 C 97.921875 208.300781 97.625 207.050781 97.625 205.414062 C 97.625 203.878906 97.988281 202.652344 98.71875 201.738281 C 99.445312 200.824219 100.425781 200.367188 101.652344 200.367188 C 101.984375 200.367188 102.316406 200.402344 102.652344 200.464844 C 102.988281 200.53125 103.339844 200.628906 103.707031 200.757812 Z M 103.707031 200.757812 "/>
<g clip-path="url(#clip2)" clip-rule="nonzero">
<path style="fill:none;stroke-width:0.8;stroke-linecap:square;stroke-linejoin:round;stroke:rgb(69.01961%,69.01961%,69.01961%);stroke-opacity:1;stroke-miterlimit:4;" d="M 104.144531 143.100586 L 104.144531 7.201172 " transform="matrix(1.333333,0,0,1.333333,0,0)"/>
</g>
<path style="fill:none;stroke-width:0.8;stroke-linecap:butt;stroke-linejoin:round;stroke:rgb(0%,0%,0%);stroke-opacity:1;stroke-miterlimit:4;" d="M -0.000900269 0.000579834 L -0.000900269 3.498627 " transform="matrix(1.333333,0,0,1.333333,138.860575,190.800008)"/>
<path style=" stroke:none;fill-rule:nonzero;fill:rgb(0%,0%,0%);fill-opacity:1;" d="M 130.445312 205.53125 L 138.789062 205.53125 L 138.789062 206.636719 L 130.445312 206.636719 Z M 130.445312 205.53125 "/>
<path style=" stroke:none;fill-rule:nonzero;fill:rgb(0%,0%,0%);fill-opacity:1;" d="M 145.242188 201.691406 L 141.921875 206.878906 L 145.242188 206.878906 Z M 144.898438 200.542969 L 146.550781 200.542969 L 146.550781 206.878906 L 147.941406 206.878906 L 147.941406 207.972656 L 146.550781 207.972656 L 146.550781 210.265625 L 145.242188 210.265625 L 145.242188 207.972656 L 140.855469 207.972656 L 140.855469 206.703125 Z M 144.898438 200.542969 "/>
<g clip-path="url(#clip3)" clip-rule="nonzero">
<path style="fill:none;stroke-width:0.8;stroke-linecap:square;stroke-linejoin:round;stroke:rgb(69.01961%,69.01961%,69.01961%);stroke-opacity:1;stroke-miterlimit:4;" d="M 136.77832 143.100586 L 136.77832 7.201172 " transform="matrix(1.333333,0,0,1.333333,0,0)"/>
</g>
<path style="fill:none;stroke-width:0.8;stroke-linecap:butt;stroke-linejoin:round;stroke:rgb(0%,0%,0%);stroke-opacity:1;stroke-miterlimit:4;" d="M -0.000808716 0.000579834 L -0.000808716 3.498627 " transform="matrix(1.333333,0,0,1.333333,182.372172,190.800008)"/>
<path style=" stroke:none;fill-rule:nonzero;fill:rgb(0%,0%,0%);fill-opacity:1;" d="M 173.957031 205.53125 L 182.300781 205.53125 L 182.300781 206.636719 L 173.957031 206.636719 Z M 173.957031 205.53125 "/>
<path style=" stroke:none;fill-rule:nonzero;fill:rgb(0%,0%,0%);fill-opacity:1;" d="M 186.273438 209.160156 L 190.863281 209.160156 L 190.863281 210.265625 L 184.691406 210.265625 L 184.691406 209.160156 C 185.191406 208.640625 185.871094 207.949219 186.734375 207.078125 C 187.59375 206.207031 188.136719 205.648438 188.359375 205.394531 C 188.777344 204.921875 189.070312 204.523438 189.238281 204.195312 C 189.40625 203.867188 189.492188 203.542969 189.492188 203.226562 C 189.492188 202.710938 189.308594 202.289062 188.945312 201.964844 C 188.585938 201.636719 188.113281 201.476562 187.53125 201.476562 C 187.117188 201.476562 186.683594 201.546875 186.222656 201.691406 C 185.765625 201.832031 185.277344 202.050781 184.757812 202.339844 L 184.757812 201.011719 C 185.285156 200.800781 185.78125 200.640625 186.242188 200.53125 C 186.703125 200.421875 187.125 200.367188 187.503906 200.367188 C 188.511719 200.367188 189.316406 200.621094 189.914062 201.125 C 190.511719 201.628906 190.8125 202.300781 190.8125 203.140625 C 190.8125 203.542969 190.738281 203.921875 190.585938 204.277344 C 190.4375 204.636719 190.164062 205.058594 189.769531 205.542969 C 189.660156 205.671875 189.316406 206.035156 188.734375 206.636719 C 188.152344 207.238281 187.332031 208.078125 186.273438 209.160156 Z M 186.273438 209.160156 "/>
<g clip-path="url(#clip4)" clip-rule="nonzero">
<path style="fill:none;stroke-width:0.8;stroke-linecap:square;stroke-linejoin:round;stroke:rgb(69.01961%,69.01961%,69.01961%);stroke-opacity:1;stroke-miterlimit:4;" d="M 169.412109 143.100586 L 169.412109 7.201172 " transform="matrix(1.333333,0,0,1.333333,0,0)"/>
</g>
<path style="fill:none;stroke-width:0.8;stroke-linecap:butt;stroke-linejoin:round;stroke:rgb(0%,0%,0%);stroke-opacity:1;stroke-miterlimit:4;" d="M -0.000717163 0.000579834 L -0.000717163 3.498627 " transform="matrix(1.333333,0,0,1.333333,225.883769,190.800008)"/>
<path style=" stroke:none;fill-rule:nonzero;fill:rgb(0%,0%,0%);fill-opacity:1;" d="M 225.878906 201.410156 C 225.203125 201.410156 224.695312 201.742188 224.351562 202.410156 C 224.011719 203.074219 223.84375 204.078125 223.84375 205.414062 C 223.84375 206.746094 224.011719 207.746094 224.351562 208.414062 C 224.695312 209.078125 225.203125 209.414062 225.878906 209.414062 C 226.5625 209.414062 227.074219 209.078125 227.414062 208.414062 C 227.753906 207.746094 227.925781 206.746094 227.925781 205.414062 C 227.925781 204.078125 227.753906 203.074219 227.414062 202.410156 C 227.074219 201.742188 226.5625 201.410156 225.878906 201.410156 Z M 225.878906 200.367188 C 226.96875 200.367188 227.800781 200.800781 228.378906 201.664062 C 228.953125 202.523438 229.238281 203.773438 229.238281 205.414062 C 229.238281 207.050781 228.953125 208.300781 228.378906 209.164062 C 227.800781 210.023438 226.96875 210.453125 225.878906 210.453125 C 224.789062 210.453125 223.957031 210.023438 223.382812 209.164062 C 222.808594 208.300781 222.519531 207.050781 222.519531 205.414062 C 222.519531 203.773438 222.808594 202.523438 223.382812 201.664062 C 223.957031 200.800781 224.789062 200.367188 225.878906 200.367188 Z M 225.878906 200.367188 "/>
<g clip-path="url(#clip5)" clip-rule="nonzero">
<path style="fill:none;stroke-width:0.8;stroke-linecap:square;stroke-linejoin:round;stroke:rgb(69.01961%,69.01961%,69.01961%);stroke-opacity:1;stroke-miterlimit:4;" d="M 202.045898 143.100586 L 202.045898 7.201172 " transform="matrix(1.333333,0,0,1.333333,0,0)"/>
</g>
<path style="fill:none;stroke-width:0.8;stroke-linecap:butt;stroke-linejoin:round;stroke:rgb(0%,0%,0%);stroke-opacity:1;stroke-miterlimit:4;" d="M -0.000640869 0.000579834 L -0.000640869 3.498627 " transform="matrix(1.333333,0,0,1.333333,269.395386,190.800008)"/>
<path style=" stroke:none;fill-rule:nonzero;fill:rgb(0%,0%,0%);fill-opacity:1;" d="M 267.710938 209.160156 L 272.300781 209.160156 L 272.300781 210.265625 L 266.128906 210.265625 L 266.128906 209.160156 C 266.628906 208.640625 267.308594 207.949219 268.171875 207.078125 C 269.03125 206.207031 269.574219 205.648438 269.796875 205.394531 C 270.214844 204.921875 270.511719 204.523438 270.675781 204.195312 C 270.84375 203.867188 270.929688 203.542969 270.929688 203.226562 C 270.929688 202.710938 270.746094 202.289062 270.386719 201.964844 C 270.023438 201.636719 269.550781 201.476562 268.96875 201.476562 C 268.554688 201.476562 268.121094 201.546875 267.660156 201.691406 C 267.207031 201.832031 266.714844 202.050781 266.195312 202.339844 L 266.195312 201.011719 C 266.722656 200.800781 267.21875 200.640625 267.679688 200.53125 C 268.140625 200.421875 268.5625 200.367188 268.941406 200.367188 C 269.949219 200.367188 270.753906 200.621094 271.351562 201.125 C 271.949219 201.628906 272.25 202.300781 272.25 203.140625 C 272.25 203.542969 272.175781 203.921875 272.023438 204.277344 C 271.875 204.636719 271.605469 205.058594 271.207031 205.542969 C 271.097656 205.671875 270.753906 206.035156 270.171875 206.636719 C 269.59375 207.238281 268.773438 208.078125 267.710938 209.160156 Z M 267.710938 209.160156 "/>
<g clip-path="url(#clip6)" clip-rule="nonzero">
<path style="fill:none;stroke-width:0.8;stroke-linecap:square;stroke-linejoin:round;stroke:rgb(69.01961%,69.01961%,69.01961%);stroke-opacity:1;stroke-miterlimit:4;" d="M 234.679688 143.100586 L 234.679688 7.201172 " transform="matrix(1.333333,0,0,1.333333,0,0)"/>
</g>
<path style="fill:none;stroke-width:0.8;stroke-linecap:butt;stroke-linejoin:round;stroke:rgb(0%,0%,0%);stroke-opacity:1;stroke-miterlimit:4;" d="M -0.000549316 0.000579834 L -0.000549316 3.498627 " transform="matrix(1.333333,0,0,1.333333,312.906982,190.800008)"/>
<path style=" stroke:none;fill-rule:nonzero;fill:rgb(0%,0%,0%);fill-opacity:1;" d="M 313.703125 201.691406 L 310.382812 206.878906 L 313.703125 206.878906 Z M 313.359375 200.542969 L 315.011719 200.542969 L 315.011719 206.878906 L 316.402344 206.878906 L 316.402344 207.972656 L 315.011719 207.972656 L 315.011719 210.265625 L 313.703125 210.265625 L 313.703125 207.972656 L 309.316406 207.972656 L 309.316406 206.703125 Z M 313.359375 200.542969 "/>
<g clip-path="url(#clip7)" clip-rule="nonzero">
<path style="fill:none;stroke-width:0.8;stroke-linecap:square;stroke-linejoin:round;stroke:rgb(69.01961%,69.01961%,69.01961%);stroke-opacity:1;stroke-miterlimit:4;" d="M 267.313477 143.100586 L 267.313477 7.201172 " transform="matrix(1.333333,0,0,1.333333,0,0)"/>
</g>
<path style="fill:none;stroke-width:0.8;stroke-linecap:butt;stroke-linejoin:round;stroke:rgb(0%,0%,0%);stroke-opacity:1;stroke-miterlimit:4;" d="M -0.000457764 0.000579834 L -0.000457764 3.498627 " transform="matrix(1.333333,0,0,1.333333,356.418579,190.800008)"/>
<path style=" stroke:none;fill-rule:nonzero;fill:rgb(0%,0%,0%);fill-opacity:1;" d="M 356.578125 204.882812 C 355.988281 204.882812 355.519531 205.082031 355.175781 205.488281 C 354.832031 205.890625 354.65625 206.441406 354.65625 207.144531 C 354.65625 207.84375 354.832031 208.398438 355.175781 208.804688 C 355.519531 209.210938 355.988281 209.414062 356.578125 209.414062 C 357.167969 209.414062 357.636719 209.210938 357.980469 208.804688 C 358.324219 208.398438 358.496094 207.84375 358.496094 207.144531 C 358.496094 206.441406 358.324219 205.890625 357.980469 205.488281 C 357.636719 205.082031 357.167969 204.882812 356.578125 204.882812 Z M 359.1875 200.757812 L 359.1875 201.957031 C 358.859375 201.800781 358.527344 201.683594 358.1875 201.601562 C 357.851562 201.515625 357.519531 201.476562 357.1875 201.476562 C 356.320312 201.476562 355.65625 201.769531 355.199219 202.355469 C 354.742188 202.941406 354.480469 203.824219 354.417969 205.011719 C 354.671875 204.632812 354.992188 204.34375 355.378906 204.140625 C 355.765625 203.941406 356.191406 203.839844 356.65625 203.839844 C 357.632812 203.839844 358.402344 204.136719 358.96875 204.730469 C 359.539062 205.320312 359.820312 206.125 359.820312 207.144531 C 359.820312 208.144531 359.527344 208.945312 358.933594 209.550781 C 358.34375 210.152344 357.558594 210.453125 356.578125 210.453125 C 355.453125 210.453125 354.59375 210.023438 354 209.164062 C 353.40625 208.300781 353.109375 207.050781 353.109375 205.414062 C 353.109375 203.878906 353.472656 202.652344 354.203125 201.738281 C 354.929688 200.824219 355.910156 200.367188 357.136719 200.367188 C 357.46875 200.367188 357.800781 200.402344 358.136719 200.464844 C 358.472656 200.53125 358.824219 200.628906 359.1875 200.757812 Z M 359.1875 200.757812 "/>
<path style=" stroke:none;fill-rule:nonzero;fill:rgb(0%,0%,0%);fill-opacity:1;" d="M 229.148438 221.210938 L 226.511719 224.757812 L 229.285156 228.503906 L 227.871094 228.503906 L 225.746094 225.636719 L 223.628906 228.503906 L 222.210938 228.503906 L 225.046875 224.6875 L 222.453125 221.210938 L 223.867188 221.210938 L 225.800781 223.808594 L 227.734375 221.210938 Z M 229.148438 221.210938 "/>
<g clip-path="url(#clip8)" clip-rule="nonzero">
<path style="fill:none;stroke-width:0.8;stroke-linecap:square;stroke-linejoin:round;stroke:rgb(69.01961%,69.01961%,69.01961%);stroke-opacity:1;stroke-miterlimit:4;" d="M 43.78125 136.921875 L 294.881836 136.921875 " transform="matrix(1.333333,0,0,1.333333,0,0)"/>
</g>
<path style="fill:none;stroke-width:0.8;stroke-linecap:butt;stroke-linejoin:round;stroke:rgb(0%,0%,0%);stroke-opacity:1;stroke-miterlimit:4;" d="M 0 -0.000854492 L -3.500977 -0.000854492 " transform="matrix(1.333333,0,0,1.333333,58.375,182.563639)"/>
<path style=" stroke:none;fill-rule:nonzero;fill:rgb(0%,0%,0%);fill-opacity:1;" d="M 32.074219 178.773438 C 31.398438 178.773438 30.890625 179.109375 30.546875 179.773438 C 30.207031 180.441406 30.039062 181.441406 30.039062 182.777344 C 30.039062 184.109375 30.207031 185.109375 30.546875 185.777344 C 30.890625 186.445312 31.398438 186.777344 32.074219 186.777344 C 32.757812 186.777344 33.269531 186.445312 33.609375 185.777344 C 33.949219 185.109375 34.121094 184.109375 34.121094 182.777344 C 34.121094 181.441406 33.949219 180.441406 33.609375 179.773438 C 33.269531 179.109375 32.757812 178.773438 32.074219 178.773438 Z M 32.074219 177.734375 C 33.164062 177.734375 33.996094 178.164062 34.574219 179.027344 C 35.148438 179.886719 35.433594 181.140625 35.433594 182.777344 C 35.433594 184.414062 35.148438 185.664062 34.574219 186.527344 C 33.996094 187.386719 33.164062 187.820312 32.074219 187.820312 C 30.984375 187.820312 30.152344 187.386719 29.578125 186.527344 C 29.003906 185.664062 28.714844 184.414062 28.714844 182.777344 C 28.714844 181.140625 29.003906 179.886719 29.578125 179.027344 C 30.152344 178.164062 30.984375 177.734375 32.074219 177.734375 Z M 32.074219 177.734375 "/>
<path style=" stroke:none;fill-rule:nonzero;fill:rgb(0%,0%,0%);fill-opacity:1;" d="M 37.746094 185.976562 L 39.121094 185.976562 L 39.121094 187.628906 L 37.746094 187.628906 Z M 37.746094 185.976562 "/>
<path style=" stroke:none;fill-rule:nonzero;fill:rgb(0%,0%,0%);fill-opacity:1;" d="M 44.796875 178.773438 C 44.121094 178.773438 43.609375 179.109375 43.269531 179.773438 C 42.929688 180.441406 42.757812 181.441406 42.757812 182.777344 C 42.757812 184.109375 42.929688 185.109375 43.269531 185.777344 C 43.609375 186.445312 44.121094 186.777344 44.796875 186.777344 C 45.476562 186.777344 45.988281 186.445312 46.328125 185.777344 C 46.671875 185.109375 46.84375 184.109375 46.84375 182.777344 C 46.84375 181.441406 46.671875 180.441406 46.328125 179.773438 C 45.988281 179.109375 45.476562 178.773438 44.796875 178.773438 Z M 44.796875 177.734375 C 45.886719 177.734375 46.71875 178.164062 47.292969 179.027344 C 47.871094 179.886719 48.15625 181.140625 48.15625 182.777344 C 48.15625 184.414062 47.871094 185.664062 47.292969 186.527344 C 46.71875 187.386719 45.886719 187.820312 44.796875 187.820312 C 43.707031 187.820312 42.875 187.386719 42.300781 186.527344 C 41.726562 185.664062 41.4375 184.414062 41.4375 182.777344 C 41.4375 181.140625 41.726562 179.886719 42.300781 179.027344 C 42.875 178.164062 43.707031 177.734375 44.796875 177.734375 Z M 44.796875 177.734375 "/>
<g clip-path="url(#clip9)" clip-rule="nonzero">
<path style="fill:none;stroke-width:0.8;stroke-linecap:square;stroke-linejoin:round;stroke:rgb(69.01961%,69.01961%,69.01961%);stroke-opacity:1;stroke-miterlimit:4;" d="M 43.78125 105.955078 L 294.881836 105.955078 " transform="matrix(1.333333,0,0,1.333333,0,0)"/>
</g>
<path style="fill:none;stroke-width:0.8;stroke-linecap:butt;stroke-linejoin:round;stroke:rgb(0%,0%,0%);stroke-opacity:1;stroke-miterlimit:4;" d="M 0 0.000602722 L -3.500977 0.000602722 " transform="matrix(1.333333,0,0,1.333333,58.375,141.272634)"/>
<path style=" stroke:none;fill-rule:nonzero;fill:rgb(0%,0%,0%);fill-opacity:1;" d="M 32.074219 137.484375 C 31.398438 137.484375 30.890625 137.816406 30.546875 138.484375 C 30.207031 139.148438 30.039062 140.152344 30.039062 141.488281 C 30.039062 142.820312 30.207031 143.820312 30.546875 144.484375 C 30.890625 145.152344 31.398438 145.484375 32.074219 145.484375 C 32.757812 145.484375 33.269531 145.152344 33.609375 144.484375 C 33.949219 143.820312 34.121094 142.820312 34.121094 141.488281 C 34.121094 140.152344 33.949219 139.148438 33.609375 138.484375 C 33.269531 137.816406 32.757812 137.484375 32.074219 137.484375 Z M 32.074219 136.441406 C 33.164062 136.441406 33.996094 136.875 34.574219 137.734375 C 35.148438 138.597656 35.433594 139.847656 35.433594 141.488281 C 35.433594 143.125 35.148438 144.375 34.574219 145.234375 C 33.996094 146.097656 33.164062 146.527344 32.074219 146.527344 C 30.984375 146.527344 30.152344 146.097656 29.578125 145.234375 C 29.003906 144.375 28.714844 143.125 28.714844 141.488281 C 28.714844 139.847656 29.003906 138.597656 29.578125 137.734375 C 30.152344 136.875 30.984375 136.441406 32.074219 136.441406 Z M 32.074219 136.441406 "/>
<path style=" stroke:none;fill-rule:nonzero;fill:rgb(0%,0%,0%);fill-opacity:1;" d="M 37.746094 144.683594 L 39.121094 144.683594 L 39.121094 146.339844 L 37.746094 146.339844 Z M 37.746094 144.683594 "/>
<path style=" stroke:none;fill-rule:nonzero;fill:rgb(0%,0%,0%);fill-opacity:1;" d="M 42.214844 145.230469 L 44.359375 145.230469 L 44.359375 137.816406 L 42.023438 138.285156 L 42.023438 137.085938 L 44.347656 136.617188 L 45.664062 136.617188 L 45.664062 145.230469 L 47.8125 145.230469 L 47.8125 146.339844 L 42.214844 146.339844 Z M 42.214844 145.230469 "/>
<g clip-path="url(#clip10)" clip-rule="nonzero">
<path style="fill:none;stroke-width:0.8;stroke-linecap:square;stroke-linejoin:round;stroke:rgb(69.01961%,69.01961%,69.01961%);stroke-opacity:1;stroke-miterlimit:4;" d="M 43.78125 74.985352 L 294.881836 74.985352 " transform="matrix(1.333333,0,0,1.333333,0,0)"/>
</g>
<path style="fill:none;stroke-width:0.8;stroke-linecap:butt;stroke-linejoin:round;stroke:rgb(0%,0%,0%);stroke-opacity:1;stroke-miterlimit:4;" d="M 0 -0.000869751 L -3.500977 -0.000869751 " transform="matrix(1.333333,0,0,1.333333,58.375,99.981628)"/>
<path style=" stroke:none;fill-rule:nonzero;fill:rgb(0%,0%,0%);fill-opacity:1;" d="M 32.074219 96.191406 C 31.398438 96.191406 30.890625 96.527344 30.546875 97.191406 C 30.207031 97.859375 30.039062 98.859375 30.039062 100.195312 C 30.039062 101.527344 30.207031 102.527344 30.546875 103.195312 C 30.890625 103.863281 31.398438 104.195312 32.074219 104.195312 C 32.757812 104.195312 33.269531 103.863281 33.609375 103.195312 C 33.949219 102.527344 34.121094 101.527344 34.121094 100.195312 C 34.121094 98.859375 33.949219 97.859375 33.609375 97.191406 C 33.269531 96.527344 32.757812 96.191406 32.074219 96.191406 Z M 32.074219 95.152344 C 33.164062 95.152344 33.996094 95.582031 34.574219 96.445312 C 35.148438 97.304688 35.433594 98.558594 35.433594 100.195312 C 35.433594 101.832031 35.148438 103.082031 34.574219 103.945312 C 33.996094 104.804688 33.164062 105.238281 32.074219 105.238281 C 30.984375 105.238281 30.152344 104.804688 29.578125 103.945312 C 29.003906 103.082031 28.714844 101.832031 28.714844 100.195312 C 28.714844 98.558594 29.003906 97.304688 29.578125 96.445312 C 30.152344 95.582031 30.984375 95.152344 32.074219 95.152344 Z M 32.074219 95.152344 "/>
<path style=" stroke:none;fill-rule:nonzero;fill:rgb(0%,0%,0%);fill-opacity:1;" d="M 37.746094 103.394531 L 39.121094 103.394531 L 39.121094 105.046875 L 37.746094 105.046875 Z M 37.746094 103.394531 "/>
<path style=" stroke:none;fill-rule:nonzero;fill:rgb(0%,0%,0%);fill-opacity:1;" d="M 43.117188 103.941406 L 47.707031 103.941406 L 47.707031 105.046875 L 41.535156 105.046875 L 41.535156 103.941406 C 42.035156 103.425781 42.714844 102.730469 43.574219 101.863281 C 44.4375 100.992188 44.980469 100.429688 45.199219 100.175781 C 45.621094 99.703125 45.914062 99.304688 46.082031 98.976562 C 46.25 98.648438 46.332031 98.328125 46.332031 98.007812 C 46.332031 97.492188 46.152344 97.070312 45.789062 96.746094 C 45.425781 96.421875 44.957031 96.257812 44.375 96.257812 C 43.960938 96.257812 43.527344 96.328125 43.066406 96.472656 C 42.609375 96.617188 42.121094 96.832031 41.601562 97.125 L 41.601562 95.796875 C 42.128906 95.582031 42.625 95.421875 43.082031 95.3125 C 43.546875 95.207031 43.964844 95.152344 44.347656 95.152344 C 45.355469 95.152344 46.15625 95.402344 46.757812 95.90625 C 47.355469 96.410156 47.65625 97.082031 47.65625 97.925781 C 47.65625 98.324219 47.578125 98.703125 47.429688 99.0625 C 47.28125 99.417969 47.007812 99.839844 46.613281 100.328125 C 46.503906 100.453125 46.160156 100.816406 45.578125 101.417969 C 44.996094 102.019531 44.175781 102.859375 43.117188 103.941406 Z M 43.117188 103.941406 "/>
<g clip-path="url(#clip11)" clip-rule="nonzero">
<path style="fill:none;stroke-width:0.8;stroke-linecap:square;stroke-linejoin:round;stroke:rgb(69.01961%,69.01961%,69.01961%);stroke-opacity:1;stroke-miterlimit:4;" d="M 43.78125 44.018555 L 294.881836 44.018555 " transform="matrix(1.333333,0,0,1.333333,0,0)"/>
</g>
<path style="fill:none;stroke-width:0.8;stroke-linecap:butt;stroke-linejoin:round;stroke:rgb(0%,0%,0%);stroke-opacity:1;stroke-miterlimit:4;" d="M 0 0.000587463 L -3.500977 0.000587463 " transform="matrix(1.333333,0,0,1.333333,58.375,58.690623)"/>
<path style=" stroke:none;fill-rule:nonzero;fill:rgb(0%,0%,0%);fill-opacity:1;" d="M 32.074219 54.902344 C 31.398438 54.902344 30.890625 55.234375 30.546875 55.902344 C 30.207031 56.566406 30.039062 57.570312 30.039062 58.90625 C 30.039062 60.238281 30.207031 61.238281 30.546875 61.902344 C 30.890625 62.570312 31.398438 62.902344 32.074219 62.902344 C 32.757812 62.902344 33.269531 62.570312 33.609375 61.902344 C 33.949219 61.238281 34.121094 60.238281 34.121094 58.90625 C 34.121094 57.570312 33.949219 56.566406 33.609375 55.902344 C 33.269531 55.234375 32.757812 54.902344 32.074219 54.902344 Z M 32.074219 53.859375 C 33.164062 53.859375 33.996094 54.292969 34.574219 55.152344 C 35.148438 56.015625 35.433594 57.265625 35.433594 58.90625 C 35.433594 60.542969 35.148438 61.792969 34.574219 62.652344 C 33.996094 63.515625 33.164062 63.945312 32.074219 63.945312 C 30.984375 63.945312 30.152344 63.515625 29.578125 62.652344 C 29.003906 61.792969 28.714844 60.542969 28.714844 58.90625 C 28.714844 57.265625 29.003906 56.015625 29.578125 55.152344 C 30.152344 54.292969 30.984375 53.859375 32.074219 53.859375 Z M 32.074219 53.859375 "/>
<path style=" stroke:none;fill-rule:nonzero;fill:rgb(0%,0%,0%);fill-opacity:1;" d="M 37.746094 62.101562 L 39.121094 62.101562 L 39.121094 63.757812 L 37.746094 63.757812 Z M 37.746094 62.101562 "/>
<path style=" stroke:none;fill-rule:nonzero;fill:rgb(0%,0%,0%);fill-opacity:1;" d="M 45.96875 58.515625 C 46.597656 58.648438 47.089844 58.929688 47.441406 59.355469 C 47.796875 59.78125 47.972656 60.304688 47.972656 60.929688 C 47.972656 61.890625 47.644531 62.632812 46.984375 63.160156 C 46.324219 63.683594 45.386719 63.945312 44.171875 63.945312 C 43.765625 63.945312 43.34375 63.90625 42.914062 63.824219 C 42.480469 63.746094 42.035156 63.625 41.574219 63.460938 L 41.574219 62.195312 C 41.9375 62.40625 42.339844 62.566406 42.769531 62.675781 C 43.207031 62.785156 43.660156 62.835938 44.132812 62.835938 C 44.957031 62.835938 45.585938 62.675781 46.015625 62.351562 C 46.449219 62.023438 46.664062 61.550781 46.664062 60.929688 C 46.664062 60.359375 46.464844 59.910156 46.0625 59.585938 C 45.660156 59.265625 45.101562 59.101562 44.386719 59.101562 L 43.253906 59.101562 L 43.253906 58.019531 L 44.441406 58.019531 C 45.085938 58.019531 45.582031 57.890625 45.921875 57.632812 C 46.265625 57.375 46.4375 57.003906 46.4375 56.515625 C 46.4375 56.019531 46.261719 55.636719 45.90625 55.367188 C 45.554688 55.101562 45.046875 54.964844 44.386719 54.964844 C 44.027344 54.964844 43.640625 55.007812 43.226562 55.085938 C 42.816406 55.164062 42.363281 55.285156 41.867188 55.449219 L 41.867188 54.277344 C 42.367188 54.136719 42.835938 54.035156 43.269531 53.964844 C 43.707031 53.894531 44.117188 53.859375 44.503906 53.859375 C 45.503906 53.859375 46.292969 54.085938 46.875 54.542969 C 47.457031 54.996094 47.746094 55.605469 47.746094 56.378906 C 47.746094 56.917969 47.59375 57.371094 47.285156 57.742188 C 46.976562 58.113281 46.539062 58.371094 45.96875 58.515625 Z M 45.96875 58.515625 "/>
<g clip-path="url(#clip12)" clip-rule="nonzero">
<path style="fill:none;stroke-width:0.8;stroke-linecap:square;stroke-linejoin:round;stroke:rgb(69.01961%,69.01961%,69.01961%);stroke-opacity:1;stroke-miterlimit:4;" d="M 43.78125 13.048828 L 294.881836 13.048828 " transform="matrix(1.333333,0,0,1.333333,0,0)"/>
</g>
<path style="fill:none;stroke-width:0.8;stroke-linecap:butt;stroke-linejoin:round;stroke:rgb(0%,0%,0%);stroke-opacity:1;stroke-miterlimit:4;" d="M 0 -0.000886917 L -3.500977 -0.000886917 " transform="matrix(1.333333,0,0,1.333333,58.375,17.39962)"/>
<path style=" stroke:none;fill-rule:nonzero;fill:rgb(0%,0%,0%);fill-opacity:1;" d="M 32.074219 13.609375 C 31.398438 13.609375 30.890625 13.945312 30.546875 14.609375 C 30.207031 15.277344 30.039062 16.277344 30.039062 17.617188 C 30.039062 18.945312 30.207031 19.945312 30.546875 20.613281 C 30.890625 21.28125 31.398438 21.613281 32.074219 21.613281 C 32.757812 21.613281 33.269531 21.28125 33.609375 20.613281 C 33.949219 19.945312 34.121094 18.945312 34.121094 17.617188 C 34.121094 16.277344 33.949219 15.277344 33.609375 14.609375 C 33.269531 13.945312 32.757812 13.609375 32.074219 13.609375 Z M 32.074219 12.570312 C 33.164062 12.570312 33.996094 13 34.574219 13.863281 C 35.148438 14.722656 35.433594 15.976562 35.433594 17.617188 C 35.433594 19.25 35.148438 20.5 34.574219 21.363281 C 33.996094 22.222656 33.164062 22.65625 32.074219 22.65625 C 30.984375 22.65625 30.152344 22.222656 29.578125 21.363281 C 29.003906 20.5 28.714844 19.25 28.714844 17.617188 C 28.714844 15.976562 29.003906 14.722656 29.578125 13.863281 C 30.152344 13 30.984375 12.570312 32.074219 12.570312 Z M 32.074219 12.570312 "/>
<path style=" stroke:none;fill-rule:nonzero;fill:rgb(0%,0%,0%);fill-opacity:1;" d="M 37.746094 20.8125 L 39.121094 20.8125 L 39.121094 22.464844 L 37.746094 22.464844 Z M 37.746094 20.8125 "/>
<path style=" stroke:none;fill-rule:nonzero;fill:rgb(0%,0%,0%);fill-opacity:1;" d="M 45.597656 13.890625 L 42.277344 19.078125 L 45.597656 19.078125 Z M 45.253906 12.746094 L 46.90625 12.746094 L 46.90625 19.078125 L 48.292969 19.078125 L 48.292969 20.171875 L 46.90625 20.171875 L 46.90625 22.464844 L 45.597656 22.464844 L 45.597656 20.171875 L 41.210938 20.171875 L 41.210938 18.90625 Z M 45.253906 12.746094 "/>
<path style=" stroke:none;fill-rule:nonzero;fill:rgb(0%,0%,0%);fill-opacity:1;" d="M 18.636719 111.164062 L 22.503906 111.164062 L 22.503906 112.371094 L 12.441406 112.371094 L 12.441406 111.164062 L 13.546875 111.164062 C 13.113281 110.914062 12.789062 110.59375 12.582031 110.210938 C 12.371094 109.828125 12.265625 109.367188 12.265625 108.835938 C 12.265625 107.949219 12.617188 107.230469 13.320312 106.675781 C 14.023438 106.121094 14.945312 105.84375 16.089844 105.84375 C 17.238281 105.84375 18.164062 106.121094 18.867188 106.675781 C 19.570312 107.230469 19.921875 107.949219 19.921875 108.835938 C 19.921875 109.367188 19.816406 109.828125 19.605469 110.210938 C 19.394531 110.59375 19.070312 110.914062 18.636719 111.164062 Z M 16.089844 107.089844 C 15.210938 107.089844 14.519531 107.269531 14.019531 107.632812 C 13.515625 107.996094 13.265625 108.492188 13.265625 109.125 C 13.265625 109.761719 13.515625 110.257812 14.019531 110.621094 C 14.519531 110.984375 15.210938 111.164062 16.089844 111.164062 C 16.972656 111.164062 17.664062 110.984375 18.164062 110.621094 C 18.664062 110.257812 18.917969 109.761719 18.917969 109.125 C 18.917969 108.492188 18.664062 107.996094 18.164062 107.632812 C 17.664062 107.269531 16.972656 107.089844 16.089844 107.089844 Z M 16.089844 107.089844 "/>
<path style=" stroke:none;fill-rule:nonzero;fill:rgb(0%,0%,0%);fill-opacity:1;" d="M 9.613281 100.984375 C 10.613281 101.5625 11.597656 101.996094 12.578125 102.277344 C 13.554688 102.5625 14.542969 102.703125 15.546875 102.703125 C 16.546875 102.703125 17.539062 102.558594 18.523438 102.273438 C 19.507812 101.992188 20.496094 101.558594 21.488281 100.984375 L 21.488281 102.023438 C 20.46875 102.675781 19.464844 103.160156 18.480469 103.484375 C 17.496094 103.808594 16.519531 103.972656 15.546875 103.972656 C 14.578125 103.972656 13.601562 103.808594 12.621094 103.488281 C 11.640625 103.167969 10.636719 102.679688 9.613281 102.023438 Z M 9.613281 100.984375 "/>
<path style=" stroke:none;fill-rule:nonzero;fill:rgb(0%,0%,0%);fill-opacity:1;" d="M 12.441406 92.597656 L 15.988281 95.234375 L 19.730469 92.460938 L 19.730469 93.875 L 16.867188 95.996094 L 19.730469 98.117188 L 19.730469 99.53125 L 15.917969 96.699219 L 12.441406 99.289062 L 12.441406 97.878906 L 15.039062 95.945312 L 12.441406 94.011719 Z M 12.441406 92.597656 "/>
<path style=" stroke:none;fill-rule:nonzero;fill:rgb(0%,0%,0%);fill-opacity:1;" d="M 9.613281 90.957031 L 9.613281 89.914062 C 10.636719 89.265625 11.640625 88.777344 12.621094 88.453125 C 13.601562 88.128906 14.578125 87.96875 15.546875 87.96875 C 16.519531 87.96875 17.496094 88.128906 18.480469 88.453125 C 19.464844 88.777344 20.46875 89.265625 21.488281 89.914062 L 21.488281 90.957031 C 20.496094 90.378906 19.507812 89.949219 18.523438 89.664062 C 17.539062 89.378906 16.546875 89.238281 15.546875 89.238281 C 14.542969 89.238281 13.554688 89.378906 12.578125 89.664062 C 11.597656 89.949219 10.613281 90.378906 9.613281 90.957031 Z M 9.613281 90.957031 "/>
<path style="fill:none;stroke-width:1.5;stroke-linecap:square;stroke-linejoin:round;stroke:rgb(12.156863%,46.666667%,70.588237%);stroke-opacity:1;stroke-miterlimit:4;" d="M 55.195312 136.921875 L 108.225586 136.813477 L 113.610352 136.567383 L 117.199219 136.183594 L 119.973633 135.667969 L 122.255859 135.026367 L 124.21582 134.258789 L 126.008789 133.330078 L 127.804688 132.137695 L 129.436523 130.77832 L 131.068359 129.114258 L 132.700195 127.092773 L 134.332031 124.675781 L 135.963867 121.813477 L 137.595703 118.467773 L 139.227539 114.606445 L 141.020508 109.734375 L 142.816406 104.197266 L 144.773438 97.412109 L 146.894531 89.24707 L 149.504883 78.225586 L 153.257812 61.239258 L 157.50293 42.275391 L 159.785156 33.114258 L 161.581055 26.821289 L 163.048828 22.423828 L 164.355469 19.171875 L 165.498047 16.883789 L 166.476562 15.363281 L 167.455078 14.264648 L 168.269531 13.678711 L 169.086914 13.40332 L 169.740234 13.40332 L 170.390625 13.599609 L 171.208008 14.121094 L 172.022461 14.947266 L 173.003906 16.330078 L 173.982422 18.125977 L 175.125 20.71875 L 176.428711 24.287109 L 177.896484 29.000977 L 179.692383 35.616211 L 181.813477 44.367188 L 184.913086 58.245117 L 190.461914 83.162109 L 192.908203 93.114258 L 195.029297 100.898438 L 196.989258 107.299805 L 198.782227 112.473633 L 200.578125 116.985352 L 202.209961 120.533203 L 203.841797 123.585938 L 205.473633 126.175781 L 207.105469 128.349609 L 208.737305 130.151367 L 210.369141 131.62793 L 212.000977 132.823242 L 213.793945 133.866211 L 215.753906 134.733398 L 217.875 135.421875 L 220.321289 135.972656 L 223.259766 136.388672 L 227.012695 136.678711 L 232.394531 136.851562 L 243.00293 136.918945 L 283.467773 136.921875 " transform="matrix(1.333333,0,0,1.333333,0,0)"/>
<path style="fill:none;stroke-width:1.5;stroke-linecap:butt;stroke-linejoin:round;stroke:rgb(74.901962%,0%,74.901962%);stroke-opacity:1;stroke-dasharray:5.55,2.4;stroke-miterlimit:4;" d="M 55.195312 136.787109 L 65.800781 136.523438 L 73.142578 136.125 L 79.016602 135.588867 L 83.912109 134.926758 L 88.318359 134.106445 L 92.235352 133.154297 L 95.824219 132.064453 L 99.249023 130.798828 L 102.512695 129.369141 L 105.776367 127.696289 L 109.040039 125.762695 L 112.303711 123.5625 L 115.567383 121.086914 L 118.995117 118.195312 L 122.583984 114.861328 L 126.500977 110.90332 L 131.068359 105.949219 L 138.249023 97.769531 L 144.612305 90.644531 L 148.526367 86.589844 L 151.790039 83.53125 L 154.564453 81.225586 L 157.174805 79.344727 L 159.459961 77.956055 L 161.745117 76.831055 L 163.866211 76.037109 L 165.823242 75.521484 L 167.780273 75.228516 L 169.740234 75.152344 L 171.697266 75.301758 L 173.654297 75.670898 L 175.614258 76.253906 L 177.735352 77.126953 L 179.856445 78.234375 L 182.138672 79.672852 L 184.587891 81.480469 L 187.362305 83.821289 L 190.461914 86.750977 L 194.050781 90.46875 L 198.782227 95.72168 L 211.672852 110.214844 L 215.753906 114.383789 L 219.506836 117.905273 L 222.931641 120.826172 L 226.195312 123.328125 L 229.458984 125.557617 L 232.722656 127.514648 L 235.986328 129.210938 L 239.25 130.666992 L 242.674805 131.953125 L 246.266602 133.063477 L 250.180664 134.033203 L 254.422852 134.847656 L 259.154297 135.515625 L 264.539062 136.040039 L 270.902344 136.432617 L 279.225586 136.708008 L 283.467773 136.78418 " transform="matrix(1.333333,0,0,1.333333,0,0)"/>
<path style="fill:none;stroke-width:1.5;stroke-linecap:butt;stroke-linejoin:round;stroke:rgb(0%,50.196081%,0%);stroke-opacity:1;stroke-dasharray:9.6,2.4,1.5,2.4;stroke-miterlimit:4;" d="M 55.195312 136.921875 L 157.174805 136.813477 L 162.55957 136.567383 L 166.148438 136.183594 L 168.922852 135.667969 L 171.208008 135.026367 L 173.165039 134.258789 L 174.960938 133.330078 L 176.756836 132.137695 L 178.385742 130.77832 L 180.017578 129.114258 L 181.649414 127.092773 L 183.28125 124.675781 L 184.913086 121.813477 L 186.544922 118.467773 L 188.176758 114.606445 L 189.972656 109.734375 L 191.765625 104.197266 L 193.725586 97.412109 L 195.84668 89.24707 L 198.457031 78.225586 L 202.209961 61.239258 L 206.452148 42.275391 L 208.737305 33.114258 L 210.530273 26.821289 L 212.000977 22.423828 L 213.304688 19.171875 L 214.447266 16.883789 L 215.425781 15.363281 L 216.404297 14.264648 L 217.22168 13.678711 L 218.036133 13.40332 L 218.689453 13.40332 L 219.342773 13.599609 L 220.157227 14.121094 L 220.974609 14.947266 L 221.953125 16.330078 L 222.931641 18.125977 L 224.074219 20.71875 L 225.380859 24.287109 L 226.848633 29.000977 L 228.641602 35.616211 L 230.765625 44.367188 L 233.865234 58.245117 L 239.411133 83.162109 L 241.860352 93.114258 L 243.981445 100.898438 L 245.938477 107.299805 L 247.734375 112.473633 L 249.527344 116.985352 L 251.15918 120.533203 L 252.791016 123.585938 L 254.422852 126.175781 L 256.054688 128.349609 L 257.686523 130.151367 L 259.318359 131.62793 L 260.950195 132.823242 L 262.746094 133.866211 L 264.703125 134.733398 L 266.824219 135.421875 L 269.270508 135.972656 L 272.208984 136.388672 L 275.961914 136.678711 L 281.34668 136.851562 L 283.467773 136.880859 " transform="matrix(1.333333,0,0,1.333333,0,0)"/>
<path style="fill:none;stroke-width:0.8;stroke-linecap:square;stroke-linejoin:miter;stroke:rgb(0%,0%,0%);stroke-opacity:1;stroke-miterlimit:4;" d="M 43.78125 143.100586 L 43.78125 7.201172 " transform="matrix(1.333333,0,0,1.333333,0,0)"/>
<path style="fill:none;stroke-width:0.8;stroke-linecap:square;stroke-linejoin:miter;stroke:rgb(0%,0%,0%);stroke-opacity:1;stroke-miterlimit:4;" d="M 294.881836 143.100586 L 294.881836 7.201172 " transform="matrix(1.333333,0,0,1.333333,0,0)"/>
<path style="fill:none;stroke-width:0.8;stroke-linecap:square;stroke-linejoin:miter;stroke:rgb(0%,0%,0%);stroke-opacity:1;stroke-miterlimit:4;" d="M 43.78125 143.100586 L 294.881836 143.100586 " transform="matrix(1.333333,0,0,1.333333,0,0)"/>
<path style="fill:none;stroke-width:0.8;stroke-linecap:square;stroke-linejoin:miter;stroke:rgb(0%,0%,0%);stroke-opacity:1;stroke-miterlimit:4;" d="M 43.78125 7.201172 L 294.881836 7.201172 " transform="matrix(1.333333,0,0,1.333333,0,0)"/>
<use xlink:href="#surface5" mask="url(#mask0)"/>
<path style="fill:none;stroke-width:1.5;stroke-linecap:square;stroke-linejoin:round;stroke:rgb(12.156863%,46.666667%,70.588237%);stroke-opacity:1;stroke-miterlimit:4;" d="M 52.78125 20.299805 L 72.782227 20.299805 " transform="matrix(1.333333,0,0,1.333333,0,0)"/>
<path style=" stroke:none;fill-rule:nonzero;fill:rgb(0%,0%,0%);fill-opacity:1;" d="M 114.640625 25.839844 C 114.941406 25.300781 115.300781 24.902344 115.714844 24.648438 C 116.132812 24.390625 116.625 24.265625 117.1875 24.265625 C 117.945312 24.265625 118.535156 24.53125 118.945312 25.0625 C 119.359375 25.59375 119.566406 26.347656 119.566406 27.328125 L 119.566406 31.730469 L 118.359375 31.730469 L 118.359375 27.367188 C 118.359375 26.671875 118.234375 26.152344 117.988281 25.816406 C 117.742188 25.476562 117.363281 25.304688 116.855469 25.304688 C 116.234375 25.304688 115.746094 25.511719 115.382812 25.925781 C 115.023438 26.335938 114.84375 26.898438 114.84375 27.609375 L 114.84375 31.730469 L 113.640625 31.730469 L 113.640625 27.367188 C 113.640625 26.664062 113.515625 26.148438 113.269531 25.808594 C 113.023438 25.472656 112.640625 25.304688 112.121094 25.304688 C 111.511719 25.304688 111.023438 25.511719 110.664062 25.925781 C 110.304688 26.339844 110.121094 26.902344 110.121094 27.609375 L 110.121094 31.730469 L 108.917969 31.730469 L 108.917969 24.441406 L 110.121094 24.441406 L 110.121094 25.574219 C 110.398438 25.125 110.722656 24.796875 111.105469 24.582031 C 111.488281 24.371094 111.941406 24.265625 112.464844 24.265625 C 112.996094 24.265625 113.449219 24.398438 113.820312 24.667969 C 114.191406 24.9375 114.464844 25.328125 114.640625 25.839844 Z M 114.640625 25.839844 "/>
<path style=" stroke:none;fill-rule:nonzero;fill:rgb(0%,0%,0%);fill-opacity:1;" d="M 128.191406 27.785156 L 128.191406 28.371094 L 122.683594 28.371094 C 122.734375 29.195312 122.984375 29.824219 123.429688 30.257812 C 123.871094 30.6875 124.492188 30.902344 125.285156 30.902344 C 125.746094 30.902344 126.191406 30.847656 126.625 30.734375 C 127.054688 30.621094 127.484375 30.453125 127.910156 30.226562 L 127.910156 31.359375 C 127.480469 31.542969 127.039062 31.679688 126.589844 31.777344 C 126.136719 31.871094 125.679688 31.921875 125.214844 31.921875 C 124.050781 31.921875 123.128906 31.582031 122.449219 30.90625 C 121.773438 30.226562 121.433594 29.3125 121.433594 28.15625 C 121.433594 26.964844 121.753906 26.015625 122.398438 25.316406 C 123.042969 24.617188 123.914062 24.265625 125.007812 24.265625 C 125.988281 24.265625 126.761719 24.582031 127.335938 25.210938 C 127.90625 25.84375 128.191406 26.699219 128.191406 27.785156 Z M 126.992188 27.433594 C 126.984375 26.777344 126.800781 26.257812 126.441406 25.867188 C 126.085938 25.476562 125.609375 25.277344 125.019531 25.277344 C 124.351562 25.277344 123.816406 25.46875 123.414062 25.847656 C 123.015625 26.222656 122.78125 26.753906 122.722656 27.441406 Z M 126.992188 27.433594 "/>
<path style=" stroke:none;fill-rule:nonzero;fill:rgb(0%,0%,0%);fill-opacity:1;" d="M 133.46875 28.066406 C 132.503906 28.066406 131.832031 28.175781 131.457031 28.398438 C 131.085938 28.617188 130.898438 28.996094 130.898438 29.53125 C 130.898438 29.957031 131.039062 30.292969 131.320312 30.542969 C 131.597656 30.792969 131.980469 30.917969 132.460938 30.917969 C 133.125 30.917969 133.660156 30.679688 134.058594 30.210938 C 134.460938 29.738281 134.664062 29.113281 134.664062 28.332031 L 134.664062 28.066406 Z M 135.859375 27.570312 L 135.859375 31.730469 L 134.664062 31.730469 L 134.664062 30.625 C 134.386719 31.066406 134.046875 31.394531 133.640625 31.605469 C 133.230469 31.816406 132.730469 31.921875 132.140625 31.921875 C 131.394531 31.921875 130.800781 31.710938 130.359375 31.292969 C 129.917969 30.871094 129.699219 30.3125 129.699219 29.609375 C 129.699219 28.789062 129.972656 28.171875 130.523438 27.753906 C 131.074219 27.335938 131.890625 27.128906 132.980469 27.128906 L 134.664062 27.128906 L 134.664062 27.011719 C 134.664062 26.460938 134.480469 26.03125 134.117188 25.730469 C 133.757812 25.429688 133.246094 25.277344 132.589844 25.277344 C 132.175781 25.277344 131.769531 25.328125 131.371094 25.429688 C 130.976562 25.527344 130.597656 25.679688 130.234375 25.878906 L 130.234375 24.769531 C 130.671875 24.601562 131.097656 24.476562 131.511719 24.390625 C 131.921875 24.308594 132.324219 24.265625 132.714844 24.265625 C 133.769531 24.265625 134.558594 24.539062 135.078125 25.085938 C 135.601562 25.632812 135.859375 26.460938 135.859375 27.570312 Z M 135.859375 27.570312 "/>
<path style=" stroke:none;fill-rule:nonzero;fill:rgb(0%,0%,0%);fill-opacity:1;" d="M 144.390625 27.328125 L 144.390625 31.730469 L 143.191406 31.730469 L 143.191406 27.367188 C 143.191406 26.679688 143.054688 26.164062 142.785156 25.820312 C 142.515625 25.476562 142.113281 25.304688 141.578125 25.304688 C 140.929688 25.304688 140.417969 25.511719 140.046875 25.925781 C 139.671875 26.335938 139.484375 26.898438 139.484375 27.609375 L 139.484375 31.730469 L 138.28125 31.730469 L 138.28125 24.441406 L 139.484375 24.441406 L 139.484375 25.574219 C 139.773438 25.132812 140.109375 24.804688 140.496094 24.589844 C 140.886719 24.371094 141.335938 24.265625 141.84375 24.265625 C 142.679688 24.265625 143.3125 24.523438 143.742188 25.042969 C 144.171875 25.558594 144.390625 26.320312 144.390625 27.328125 Z M 144.390625 27.328125 "/>
<path style=" stroke:none;fill-rule:nonzero;fill:rgb(0%,0%,0%);fill-opacity:1;" d="M 153.996094 22.878906 C 153.320312 22.878906 152.8125 23.210938 152.46875 23.878906 C 152.128906 24.542969 151.960938 25.542969 151.960938 26.882812 C 151.960938 28.214844 152.128906 29.210938 152.46875 29.878906 C 152.8125 30.546875 153.320312 30.878906 153.996094 30.878906 C 154.679688 30.878906 155.191406 30.546875 155.53125 29.878906 C 155.871094 29.210938 156.042969 28.214844 156.042969 26.882812 C 156.042969 25.542969 155.871094 24.542969 155.53125 23.878906 C 155.191406 23.210938 154.679688 22.878906 153.996094 22.878906 Z M 153.996094 21.835938 C 155.085938 21.835938 155.917969 22.265625 156.496094 23.128906 C 157.070312 23.992188 157.355469 25.242188 157.355469 26.882812 C 157.355469 28.515625 157.070312 29.765625 156.496094 30.628906 C 155.917969 31.492188 155.085938 31.921875 153.996094 31.921875 C 152.90625 31.921875 152.074219 31.492188 151.5 30.628906 C 150.925781 29.765625 150.636719 28.515625 150.636719 26.882812 C 150.636719 25.242188 150.925781 23.992188 151.5 23.128906 C 152.074219 22.265625 152.90625 21.835938 153.996094 21.835938 Z M 153.996094 21.835938 "/>
<path style=" stroke:none;fill-rule:nonzero;fill:rgb(0%,0%,0%);fill-opacity:1;" d="M 159.804688 30.078125 L 161.175781 30.078125 L 161.175781 31.199219 L 160.109375 33.28125 L 159.269531 33.28125 L 159.804688 31.199219 Z M 159.804688 30.078125 "/>
<path style=" stroke:none;fill-rule:nonzero;fill:rgb(0%,0%,0%);fill-opacity:1;" d="M 172.621094 24.652344 L 172.621094 25.789062 C 172.285156 25.613281 171.933594 25.484375 171.570312 25.398438 C 171.203125 25.308594 170.828125 25.265625 170.433594 25.265625 C 169.839844 25.265625 169.394531 25.359375 169.097656 25.539062 C 168.800781 25.722656 168.652344 25.996094 168.652344 26.359375 C 168.652344 26.636719 168.757812 26.855469 168.972656 27.015625 C 169.183594 27.171875 169.609375 27.324219 170.253906 27.464844 L 170.664062 27.558594 C 171.515625 27.742188 172.117188 27.996094 172.476562 28.328125 C 172.835938 28.660156 173.015625 29.125 173.015625 29.71875 C 173.015625 30.398438 172.746094 30.933594 172.210938 31.328125 C 171.675781 31.722656 170.9375 31.921875 170 31.921875 C 169.609375 31.921875 169.203125 31.882812 168.777344 31.804688 C 168.355469 31.730469 167.910156 31.617188 167.441406 31.464844 L 167.441406 30.226562 C 167.882812 30.457031 168.320312 30.628906 168.75 30.746094 C 169.179688 30.859375 169.605469 30.917969 170.027344 30.917969 C 170.589844 30.917969 171.023438 30.820312 171.328125 30.628906 C 171.632812 30.433594 171.785156 30.160156 171.785156 29.808594 C 171.785156 29.484375 171.671875 29.234375 171.453125 29.0625 C 171.234375 28.890625 170.753906 28.722656 170.011719 28.558594 L 169.597656 28.460938 C 168.855469 28.308594 168.316406 28.066406 167.988281 27.742188 C 167.660156 27.421875 167.492188 26.976562 167.492188 26.414062 C 167.492188 25.726562 167.738281 25.195312 168.222656 24.824219 C 168.710938 24.453125 169.398438 24.265625 170.292969 24.265625 C 170.734375 24.265625 171.152344 24.296875 171.542969 24.363281 C 171.933594 24.425781 172.292969 24.523438 172.621094 24.652344 Z M 172.621094 24.652344 "/>
<path style=" stroke:none;fill-rule:nonzero;fill:rgb(0%,0%,0%);fill-opacity:1;" d="M 176.105469 22.367188 L 176.105469 24.441406 L 178.574219 24.441406 L 178.574219 25.371094 L 176.105469 25.371094 L 176.105469 29.328125 C 176.105469 29.921875 176.1875 30.304688 176.351562 30.476562 C 176.511719 30.644531 176.84375 30.730469 177.34375 30.730469 L 178.574219 30.730469 L 178.574219 31.730469 L 177.34375 31.730469 C 176.417969 31.730469 175.78125 31.558594 175.429688 31.214844 C 175.078125 30.867188 174.902344 30.242188 174.902344 29.328125 L 174.902344 25.371094 L 174.023438 25.371094 L 174.023438 24.441406 L 174.902344 24.441406 L 174.902344 22.367188 Z M 176.105469 22.367188 "/>
<path style=" stroke:none;fill-rule:nonzero;fill:rgb(0%,0%,0%);fill-opacity:1;" d="M 184.949219 25.546875 L 184.949219 21.601562 L 186.144531 21.601562 L 186.144531 31.730469 L 184.949219 31.730469 L 184.949219 30.636719 C 184.695312 31.070312 184.378906 31.394531 183.992188 31.605469 C 183.609375 31.816406 183.148438 31.921875 182.609375 31.921875 C 181.730469 31.921875 181.011719 31.570312 180.457031 30.867188 C 179.90625 30.164062 179.628906 29.238281 179.628906 28.089844 C 179.628906 26.945312 179.90625 26.023438 180.457031 25.320312 C 181.011719 24.617188 181.730469 24.265625 182.609375 24.265625 C 183.148438 24.265625 183.609375 24.371094 183.992188 24.582031 C 184.378906 24.789062 184.695312 25.113281 184.949219 25.546875 Z M 180.867188 28.089844 C 180.867188 28.972656 181.046875 29.664062 181.410156 30.164062 C 181.773438 30.664062 182.269531 30.917969 182.902344 30.917969 C 183.535156 30.917969 184.035156 30.664062 184.398438 30.164062 C 184.765625 29.664062 184.949219 28.972656 184.949219 28.089844 C 184.949219 27.210938 184.765625 26.519531 184.398438 26.019531 C 184.035156 25.515625 183.535156 25.265625 182.902344 25.265625 C 182.269531 25.265625 181.773438 25.515625 181.410156 26.019531 C 181.046875 26.519531 180.867188 27.210938 180.867188 28.089844 Z M 180.867188 28.089844 "/>
<path style=" stroke:none;fill-rule:nonzero;fill:rgb(0%,0%,0%);fill-opacity:1;" d="M 193.25 30.625 L 195.398438 30.625 L 195.398438 23.207031 L 193.058594 23.675781 L 193.058594 22.480469 L 195.382812 22.011719 L 196.699219 22.011719 L 196.699219 30.625 L 198.847656 30.625 L 198.847656 31.730469 L 193.25 31.730469 Z M 193.25 30.625 "/>
<path style="fill:none;stroke-width:1.5;stroke-linecap:butt;stroke-linejoin:round;stroke:rgb(74.901962%,0%,74.901962%);stroke-opacity:1;stroke-dasharray:5.55,2.4;stroke-miterlimit:4;" d="M 52.78125 34.977539 L 72.782227 34.977539 " transform="matrix(1.333333,0,0,1.333333,0,0)"/>
<path style=" stroke:none;fill-rule:nonzero;fill:rgb(0%,0%,0%);fill-opacity:1;" d="M 114.640625 45.410156 C 114.941406 44.871094 115.300781 44.472656 115.714844 44.21875 C 116.132812 43.964844 116.625 43.835938 117.1875 43.835938 C 117.945312 43.835938 118.535156 44.101562 118.945312 44.632812 C 119.359375 45.164062 119.566406 45.917969 119.566406 46.898438 L 119.566406 51.300781 L 118.359375 51.300781 L 118.359375 46.941406 C 118.359375 46.242188 118.234375 45.722656 117.988281 45.386719 C 117.742188 45.046875 117.363281 44.878906 116.855469 44.878906 C 116.234375 44.878906 115.746094 45.082031 115.382812 45.496094 C 115.023438 45.90625 114.84375 46.46875 114.84375 47.179688 L 114.84375 51.300781 L 113.640625 51.300781 L 113.640625 46.941406 C 113.640625 46.238281 113.515625 45.71875 113.269531 45.382812 C 113.023438 45.046875 112.640625 44.878906 112.121094 44.878906 C 111.511719 44.878906 111.023438 45.085938 110.664062 45.496094 C 110.304688 45.910156 110.121094 46.472656 110.121094 47.179688 L 110.121094 51.300781 L 108.917969 51.300781 L 108.917969 44.011719 L 110.121094 44.011719 L 110.121094 45.144531 C 110.398438 44.695312 110.722656 44.367188 111.105469 44.152344 C 111.488281 43.941406 111.941406 43.835938 112.464844 43.835938 C 112.996094 43.835938 113.449219 43.96875 113.820312 44.238281 C 114.191406 44.507812 114.464844 44.898438 114.640625 45.410156 Z M 114.640625 45.410156 "/>
<path style=" stroke:none;fill-rule:nonzero;fill:rgb(0%,0%,0%);fill-opacity:1;" d="M 128.191406 47.355469 L 128.191406 47.941406 L 122.683594 47.941406 C 122.734375 48.765625 122.984375 49.394531 123.429688 49.828125 C 123.871094 50.257812 124.492188 50.476562 125.285156 50.476562 C 125.746094 50.476562 126.191406 50.417969 126.625 50.304688 C 127.054688 50.195312 127.484375 50.023438 127.910156 49.796875 L 127.910156 50.929688 C 127.480469 51.113281 127.039062 51.253906 126.589844 51.347656 C 126.136719 51.445312 125.679688 51.492188 125.214844 51.492188 C 124.050781 51.492188 123.128906 51.152344 122.449219 50.476562 C 121.773438 49.800781 121.433594 48.882812 121.433594 47.726562 C 121.433594 46.535156 121.753906 45.585938 122.398438 44.886719 C 123.042969 44.1875 123.914062 43.835938 125.007812 43.835938 C 125.988281 43.835938 126.761719 44.152344 127.335938 44.785156 C 127.90625 45.414062 128.191406 46.273438 128.191406 47.355469 Z M 126.992188 47.003906 C 126.984375 46.351562 126.800781 45.828125 126.441406 45.4375 C 126.085938 45.046875 125.609375 44.851562 125.019531 44.851562 C 124.351562 44.851562 123.816406 45.039062 123.414062 45.417969 C 123.015625 45.792969 122.78125 46.328125 122.722656 47.011719 Z M 126.992188 47.003906 "/>
<path style=" stroke:none;fill-rule:nonzero;fill:rgb(0%,0%,0%);fill-opacity:1;" d="M 133.46875 47.636719 C 132.503906 47.636719 131.832031 47.746094 131.457031 47.96875 C 131.085938 48.191406 130.898438 48.566406 130.898438 49.101562 C 130.898438 49.527344 131.039062 49.863281 131.320312 50.113281 C 131.597656 50.363281 131.980469 50.488281 132.460938 50.488281 C 133.125 50.488281 133.660156 50.253906 134.058594 49.78125 C 134.460938 49.308594 134.664062 48.683594 134.664062 47.902344 L 134.664062 47.636719 Z M 135.859375 47.140625 L 135.859375 51.300781 L 134.664062 51.300781 L 134.664062 50.195312 C 134.386719 50.636719 134.046875 50.964844 133.640625 51.175781 C 133.230469 51.386719 132.730469 51.492188 132.140625 51.492188 C 131.394531 51.492188 130.800781 51.28125 130.359375 50.863281 C 129.917969 50.441406 129.699219 49.882812 129.699219 49.179688 C 129.699219 48.359375 129.972656 47.742188 130.523438 47.324219 C 131.074219 46.910156 131.890625 46.699219 132.980469 46.699219 L 134.664062 46.699219 L 134.664062 46.582031 C 134.664062 46.03125 134.480469 45.601562 134.117188 45.300781 C 133.757812 45 133.246094 44.851562 132.589844 44.851562 C 132.175781 44.851562 131.769531 44.898438 131.371094 45 C 130.976562 45.101562 130.597656 45.25 130.234375 45.449219 L 130.234375 44.339844 C 130.671875 44.171875 131.097656 44.046875 131.511719 43.960938 C 131.921875 43.878906 132.324219 43.835938 132.714844 43.835938 C 133.769531 43.835938 134.558594 44.109375 135.078125 44.65625 C 135.601562 45.203125 135.859375 46.03125 135.859375 47.140625 Z M 135.859375 47.140625 "/>
<path style=" stroke:none;fill-rule:nonzero;fill:rgb(0%,0%,0%);fill-opacity:1;" d="M 144.390625 46.898438 L 144.390625 51.300781 L 143.191406 51.300781 L 143.191406 46.941406 C 143.191406 46.25 143.054688 45.734375 142.785156 45.390625 C 142.515625 45.046875 142.113281 44.878906 141.578125 44.878906 C 140.929688 44.878906 140.417969 45.082031 140.046875 45.496094 C 139.671875 45.90625 139.484375 46.46875 139.484375 47.179688 L 139.484375 51.300781 L 138.28125 51.300781 L 138.28125 44.011719 L 139.484375 44.011719 L 139.484375 45.144531 C 139.773438 44.703125 140.109375 44.378906 140.496094 44.160156 C 140.886719 43.945312 141.335938 43.835938 141.84375 43.835938 C 142.679688 43.835938 143.3125 44.09375 143.742188 44.613281 C 144.171875 45.128906 144.390625 45.894531 144.390625 46.898438 Z M 144.390625 46.898438 "/>
<path style=" stroke:none;fill-rule:nonzero;fill:rgb(0%,0%,0%);fill-opacity:1;" d="M 153.996094 42.449219 C 153.320312 42.449219 152.8125 42.78125 152.46875 43.449219 C 152.128906 44.113281 151.960938 45.113281 151.960938 46.453125 C 151.960938 47.785156 152.128906 48.785156 152.46875 49.449219 C 152.8125 50.117188 153.320312 50.449219 153.996094 50.449219 C 154.679688 50.449219 155.191406 50.117188 155.53125 49.449219 C 155.871094 48.785156 156.042969 47.785156 156.042969 46.453125 C 156.042969 45.113281 155.871094 44.113281 155.53125 43.449219 C 155.191406 42.78125 154.679688 42.449219 153.996094 42.449219 Z M 153.996094 41.40625 C 155.085938 41.40625 155.917969 41.835938 156.496094 42.699219 C 157.070312 43.5625 157.355469 44.8125 157.355469 46.453125 C 157.355469 48.089844 157.070312 49.335938 156.496094 50.199219 C 155.917969 51.0625 155.085938 51.492188 153.996094 51.492188 C 152.90625 51.492188 152.074219 51.0625 151.5 50.199219 C 150.925781 49.335938 150.636719 48.089844 150.636719 46.453125 C 150.636719 44.8125 150.925781 43.5625 151.5 42.699219 C 152.074219 41.835938 152.90625 41.40625 153.996094 41.40625 Z M 153.996094 41.40625 "/>
<path style=" stroke:none;fill-rule:nonzero;fill:rgb(0%,0%,0%);fill-opacity:1;" d="M 159.804688 49.648438 L 161.175781 49.648438 L 161.175781 50.769531 L 160.109375 52.851562 L 159.269531 52.851562 L 159.804688 50.769531 Z M 159.804688 49.648438 "/>
<path style=" stroke:none;fill-rule:nonzero;fill:rgb(0%,0%,0%);fill-opacity:1;" d="M 172.621094 44.226562 L 172.621094 45.359375 C 172.285156 45.183594 171.933594 45.054688 171.570312 44.96875 C 171.203125 44.882812 170.828125 44.835938 170.433594 44.835938 C 169.839844 44.835938 169.394531 44.929688 169.097656 45.109375 C 168.800781 45.292969 168.652344 45.566406 168.652344 45.929688 C 168.652344 46.210938 168.757812 46.425781 168.972656 46.585938 C 169.183594 46.742188 169.609375 46.894531 170.253906 47.039062 L 170.664062 47.128906 C 171.515625 47.3125 172.117188 47.566406 172.476562 47.898438 C 172.835938 48.230469 173.015625 48.695312 173.015625 49.289062 C 173.015625 49.96875 172.746094 50.503906 172.210938 50.898438 C 171.675781 51.292969 170.9375 51.492188 170 51.492188 C 169.609375 51.492188 169.203125 51.453125 168.777344 51.378906 C 168.355469 51.300781 167.910156 51.1875 167.441406 51.035156 L 167.441406 49.796875 C 167.882812 50.027344 168.320312 50.203125 168.75 50.316406 C 169.179688 50.429688 169.605469 50.488281 170.027344 50.488281 C 170.589844 50.488281 171.023438 50.390625 171.328125 50.199219 C 171.632812 50.003906 171.785156 49.734375 171.785156 49.382812 C 171.785156 49.054688 171.671875 48.808594 171.453125 48.632812 C 171.234375 48.460938 170.753906 48.292969 170.011719 48.132812 L 169.597656 48.035156 C 168.855469 47.878906 168.316406 47.636719 167.988281 47.316406 C 167.660156 46.992188 167.492188 46.546875 167.492188 45.984375 C 167.492188 45.296875 167.738281 44.769531 168.222656 44.394531 C 168.710938 44.023438 169.398438 43.835938 170.292969 43.835938 C 170.734375 43.835938 171.152344 43.867188 171.542969 43.933594 C 171.933594 43.996094 172.292969 44.09375 172.621094 44.226562 Z M 172.621094 44.226562 "/>
<path style=" stroke:none;fill-rule:nonzero;fill:rgb(0%,0%,0%);fill-opacity:1;" d="M 176.105469 41.941406 L 176.105469 44.011719 L 178.574219 44.011719 L 178.574219 44.941406 L 176.105469 44.941406 L 176.105469 48.898438 C 176.105469 49.496094 176.1875 49.875 176.351562 50.046875 C 176.511719 50.214844 176.84375 50.300781 177.34375 50.300781 L 178.574219 50.300781 L 178.574219 51.300781 L 177.34375 51.300781 C 176.417969 51.300781 175.78125 51.128906 175.429688 50.785156 C 175.078125 50.441406 174.902344 49.8125 174.902344 48.898438 L 174.902344 44.941406 L 174.023438 44.941406 L 174.023438 44.011719 L 174.902344 44.011719 L 174.902344 41.941406 Z M 176.105469 41.941406 "/>
<path style=" stroke:none;fill-rule:nonzero;fill:rgb(0%,0%,0%);fill-opacity:1;" d="M 184.949219 45.117188 L 184.949219 41.171875 L 186.144531 41.171875 L 186.144531 51.300781 L 184.949219 51.300781 L 184.949219 50.207031 C 184.695312 50.640625 184.378906 50.964844 183.992188 51.175781 C 183.609375 51.386719 183.148438 51.492188 182.609375 51.492188 C 181.730469 51.492188 181.011719 51.140625 180.457031 50.4375 C 179.90625 49.734375 179.628906 48.808594 179.628906 47.664062 C 179.628906 46.515625 179.90625 45.59375 180.457031 44.890625 C 181.011719 44.1875 181.730469 43.835938 182.609375 43.835938 C 183.148438 43.835938 183.609375 43.941406 183.992188 44.152344 C 184.378906 44.363281 184.695312 44.683594 184.949219 45.117188 Z M 180.867188 47.664062 C 180.867188 48.542969 181.046875 49.234375 181.410156 49.734375 C 181.773438 50.238281 182.269531 50.488281 182.902344 50.488281 C 183.535156 50.488281 184.035156 50.238281 184.398438 49.734375 C 184.765625 49.234375 184.949219 48.542969 184.949219 47.664062 C 184.949219 46.78125 184.765625 46.089844 184.398438 45.589844 C 184.035156 45.089844 183.535156 44.835938 182.902344 44.835938 C 182.269531 44.835938 181.773438 45.089844 181.410156 45.589844 C 181.046875 46.089844 180.867188 46.78125 180.867188 47.664062 Z M 180.867188 47.664062 "/>
<path style=" stroke:none;fill-rule:nonzero;fill:rgb(0%,0%,0%);fill-opacity:1;" d="M 194.152344 50.195312 L 198.742188 50.195312 L 198.742188 51.300781 L 192.570312 51.300781 L 192.570312 50.195312 C 193.070312 49.679688 193.75 48.984375 194.613281 48.117188 C 195.472656 47.246094 196.015625 46.683594 196.238281 46.429688 C 196.65625 45.960938 196.953125 45.558594 197.117188 45.230469 C 197.285156 44.902344 197.371094 44.582031 197.371094 44.265625 C 197.371094 43.746094 197.1875 43.328125 196.828125 43.003906 C 196.464844 42.675781 195.992188 42.511719 195.410156 42.511719 C 194.996094 42.511719 194.5625 42.585938 194.101562 42.726562 C 193.644531 42.871094 193.15625 43.085938 192.636719 43.378906 L 192.636719 42.050781 C 193.164062 41.835938 193.660156 41.675781 194.121094 41.570312 C 194.582031 41.460938 195.003906 41.40625 195.382812 41.40625 C 196.390625 41.40625 197.195312 41.660156 197.792969 42.164062 C 198.390625 42.664062 198.691406 43.335938 198.691406 44.179688 C 198.691406 44.578125 198.617188 44.957031 198.464844 45.316406 C 198.316406 45.671875 198.046875 46.09375 197.648438 46.582031 C 197.539062 46.707031 197.195312 47.070312 196.613281 47.671875 C 196.035156 48.273438 195.214844 49.117188 194.152344 50.195312 Z M 194.152344 50.195312 "/>
<path style="fill:none;stroke-width:1.5;stroke-linecap:butt;stroke-linejoin:round;stroke:rgb(0%,50.196081%,0%);stroke-opacity:1;stroke-dasharray:9.6,2.4,1.5,2.4;stroke-miterlimit:4;" d="M 52.78125 49.655273 L 72.782227 49.655273 " transform="matrix(1.333333,0,0,1.333333,0,0)"/>
<path style=" stroke:none;fill-rule:nonzero;fill:rgb(0%,0%,0%);fill-opacity:1;" d="M 114.640625 64.980469 C 114.941406 64.441406 115.300781 64.046875 115.714844 63.789062 C 116.132812 63.535156 116.625 63.40625 117.1875 63.40625 C 117.945312 63.40625 118.535156 63.671875 118.945312 64.203125 C 119.359375 64.734375 119.566406 65.492188 119.566406 66.472656 L 119.566406 70.871094 L 118.359375 70.871094 L 118.359375 66.511719 C 118.359375 65.8125 118.234375 65.292969 117.988281 64.957031 C 117.742188 64.617188 117.363281 64.449219 116.855469 64.449219 C 116.234375 64.449219 115.746094 64.652344 115.382812 65.066406 C 115.023438 65.476562 114.84375 66.039062 114.84375 66.753906 L 114.84375 70.871094 L 113.640625 70.871094 L 113.640625 66.511719 C 113.640625 65.808594 113.515625 65.289062 113.269531 64.953125 C 113.023438 64.617188 112.640625 64.449219 112.121094 64.449219 C 111.511719 64.449219 111.023438 64.65625 110.664062 65.070312 C 110.304688 65.484375 110.121094 66.042969 110.121094 66.753906 L 110.121094 70.871094 L 108.917969 70.871094 L 108.917969 63.582031 L 110.121094 63.582031 L 110.121094 64.714844 C 110.398438 64.265625 110.722656 63.9375 111.105469 63.726562 C 111.488281 63.511719 111.941406 63.40625 112.464844 63.40625 C 112.996094 63.40625 113.449219 63.539062 113.820312 63.808594 C 114.191406 64.078125 114.464844 64.46875 114.640625 64.980469 Z M 114.640625 64.980469 "/>
<path style=" stroke:none;fill-rule:nonzero;fill:rgb(0%,0%,0%);fill-opacity:1;" d="M 128.191406 66.925781 L 128.191406 67.511719 L 122.683594 67.511719 C 122.734375 68.335938 122.984375 68.964844 123.429688 69.398438 C 123.871094 69.828125 124.492188 70.046875 125.285156 70.046875 C 125.746094 70.046875 126.191406 69.988281 126.625 69.878906 C 127.054688 69.765625 127.484375 69.59375 127.910156 69.367188 L 127.910156 70.503906 C 127.480469 70.683594 127.039062 70.824219 126.589844 70.917969 C 126.136719 71.015625 125.679688 71.0625 125.214844 71.0625 C 124.050781 71.0625 123.128906 70.722656 122.449219 70.046875 C 121.773438 69.371094 121.433594 68.453125 121.433594 67.296875 C 121.433594 66.105469 121.753906 65.160156 122.398438 64.457031 C 123.042969 63.757812 123.914062 63.40625 125.007812 63.40625 C 125.988281 63.40625 126.761719 63.722656 127.335938 64.355469 C 127.90625 64.984375 128.191406 65.84375 128.191406 66.925781 Z M 126.992188 66.574219 C 126.984375 65.921875 126.800781 65.398438 126.441406 65.007812 C 126.085938 64.617188 125.609375 64.421875 125.019531 64.421875 C 124.351562 64.421875 123.816406 64.609375 123.414062 64.988281 C 123.015625 65.367188 122.78125 65.898438 122.722656 66.582031 Z M 126.992188 66.574219 "/>
<path style=" stroke:none;fill-rule:nonzero;fill:rgb(0%,0%,0%);fill-opacity:1;" d="M 133.46875 67.207031 C 132.503906 67.207031 131.832031 67.320312 131.457031 67.539062 C 131.085938 67.761719 130.898438 68.136719 130.898438 68.671875 C 130.898438 69.097656 131.039062 69.433594 131.320312 69.683594 C 131.597656 69.933594 131.980469 70.058594 132.460938 70.058594 C 133.125 70.058594 133.660156 69.824219 134.058594 69.351562 C 134.460938 68.882812 134.664062 68.253906 134.664062 67.476562 L 134.664062 67.207031 Z M 135.859375 66.710938 L 135.859375 70.871094 L 134.664062 70.871094 L 134.664062 69.765625 C 134.386719 70.207031 134.046875 70.535156 133.640625 70.746094 C 133.230469 70.957031 132.730469 71.0625 132.140625 71.0625 C 131.394531 71.0625 130.800781 70.851562 130.359375 70.433594 C 129.917969 70.015625 129.699219 69.453125 129.699219 68.75 C 129.699219 67.929688 129.972656 67.3125 130.523438 66.894531 C 131.074219 66.480469 131.890625 66.269531 132.980469 66.269531 L 134.664062 66.269531 L 134.664062 66.152344 C 134.664062 65.601562 134.480469 65.175781 134.117188 64.871094 C 133.757812 64.570312 133.246094 64.421875 132.589844 64.421875 C 132.175781 64.421875 131.769531 64.472656 131.371094 64.570312 C 130.976562 64.671875 130.597656 64.820312 130.234375 65.019531 L 130.234375 63.914062 C 130.671875 63.742188 131.097656 63.617188 131.511719 63.535156 C 131.921875 63.449219 132.324219 63.40625 132.714844 63.40625 C 133.769531 63.40625 134.558594 63.679688 135.078125 64.226562 C 135.601562 64.773438 135.859375 65.601562 135.859375 66.710938 Z M 135.859375 66.710938 "/>
<path style=" stroke:none;fill-rule:nonzero;fill:rgb(0%,0%,0%);fill-opacity:1;" d="M 144.390625 66.472656 L 144.390625 70.871094 L 143.191406 70.871094 L 143.191406 66.511719 C 143.191406 65.820312 143.054688 65.304688 142.785156 64.960938 C 142.515625 64.621094 142.113281 64.449219 141.578125 64.449219 C 140.929688 64.449219 140.417969 64.652344 140.046875 65.066406 C 139.671875 65.476562 139.484375 66.039062 139.484375 66.753906 L 139.484375 70.871094 L 138.28125 70.871094 L 138.28125 63.582031 L 139.484375 63.582031 L 139.484375 64.714844 C 139.773438 64.277344 140.109375 63.949219 140.496094 63.730469 C 140.886719 63.515625 141.335938 63.40625 141.84375 63.40625 C 142.679688 63.40625 143.3125 63.664062 143.742188 64.183594 C 144.171875 64.703125 144.390625 65.464844 144.390625 66.472656 Z M 144.390625 66.472656 "/>
<path style=" stroke:none;fill-rule:nonzero;fill:rgb(0%,0%,0%);fill-opacity:1;" d="M 155.167969 65.632812 C 155.796875 65.765625 156.289062 66.046875 156.640625 66.472656 C 156.996094 66.898438 157.171875 67.421875 157.171875 68.046875 C 157.171875 69.007812 156.84375 69.75 156.183594 70.273438 C 155.523438 70.800781 154.585938 71.0625 153.371094 71.0625 C 152.964844 71.0625 152.546875 71.023438 152.113281 70.941406 C 151.679688 70.859375 151.234375 70.742188 150.777344 70.578125 L 150.777344 69.308594 C 151.140625 69.523438 151.539062 69.683594 151.972656 69.792969 C 152.40625 69.898438 152.859375 69.953125 153.335938 69.953125 C 154.15625 69.953125 154.785156 69.792969 155.21875 69.464844 C 155.648438 69.140625 155.867188 68.667969 155.867188 68.046875 C 155.867188 67.472656 155.664062 67.027344 155.261719 66.703125 C 154.863281 66.378906 154.304688 66.21875 153.589844 66.21875 L 152.453125 66.21875 L 152.453125 65.136719 L 153.640625 65.136719 C 154.285156 65.136719 154.78125 65.007812 155.125 64.75 C 155.464844 64.492188 155.636719 64.121094 155.636719 63.632812 C 155.636719 63.132812 155.460938 62.753906 155.105469 62.484375 C 154.753906 62.21875 154.246094 62.082031 153.589844 62.082031 C 153.226562 62.082031 152.839844 62.121094 152.429688 62.203125 C 152.015625 62.28125 151.5625 62.402344 151.066406 62.566406 L 151.066406 61.394531 C 151.566406 61.253906 152.035156 61.152344 152.472656 61.082031 C 152.90625 61.011719 153.320312 60.976562 153.703125 60.976562 C 154.703125 60.976562 155.492188 61.203125 156.074219 61.660156 C 156.65625 62.109375 156.945312 62.722656 156.945312 63.496094 C 156.945312 64.035156 156.792969 64.488281 156.484375 64.859375 C 156.175781 65.230469 155.738281 65.488281 155.167969 65.632812 Z M 155.167969 65.632812 "/>
<path style=" stroke:none;fill-rule:nonzero;fill:rgb(0%,0%,0%);fill-opacity:1;" d="M 159.804688 69.21875 L 161.175781 69.21875 L 161.175781 70.339844 L 160.109375 72.421875 L 159.269531 72.421875 L 159.804688 70.339844 Z M 159.804688 69.21875 "/>
<path style=" stroke:none;fill-rule:nonzero;fill:rgb(0%,0%,0%);fill-opacity:1;" d="M 172.621094 63.796875 L 172.621094 64.929688 C 172.285156 64.753906 171.933594 64.625 171.570312 64.539062 C 171.203125 64.453125 170.828125 64.410156 170.433594 64.410156 C 169.839844 64.410156 169.394531 64.5 169.097656 64.679688 C 168.800781 64.863281 168.652344 65.136719 168.652344 65.503906 C 168.652344 65.78125 168.757812 65.996094 168.972656 66.15625 C 169.183594 66.316406 169.609375 66.464844 170.253906 66.609375 L 170.664062 66.699219 C 171.515625 66.882812 172.117188 67.140625 172.476562 67.472656 C 172.835938 67.804688 173.015625 68.265625 173.015625 68.859375 C 173.015625 69.539062 172.746094 70.074219 172.210938 70.472656 C 171.675781 70.867188 170.9375 71.0625 170 71.0625 C 169.609375 71.0625 169.203125 71.023438 168.777344 70.949219 C 168.355469 70.871094 167.910156 70.757812 167.441406 70.605469 L 167.441406 69.367188 C 167.882812 69.597656 168.320312 69.773438 168.75 69.886719 C 169.179688 70 169.605469 70.058594 170.027344 70.058594 C 170.589844 70.058594 171.023438 69.960938 171.328125 69.769531 C 171.632812 69.574219 171.785156 69.304688 171.785156 68.953125 C 171.785156 68.628906 171.671875 68.378906 171.453125 68.203125 C 171.234375 68.03125 170.753906 67.863281 170.011719 67.703125 L 169.597656 67.605469 C 168.855469 67.449219 168.316406 67.210938 167.988281 66.886719 C 167.660156 66.5625 167.492188 66.117188 167.492188 65.554688 C 167.492188 64.867188 167.738281 64.339844 168.222656 63.964844 C 168.710938 63.59375 169.398438 63.40625 170.292969 63.40625 C 170.734375 63.40625 171.152344 63.4375 171.542969 63.503906 C 171.933594 63.566406 172.292969 63.664062 172.621094 63.796875 Z M 172.621094 63.796875 "/>
<path style=" stroke:none;fill-rule:nonzero;fill:rgb(0%,0%,0%);fill-opacity:1;" d="M 176.105469 61.511719 L 176.105469 63.582031 L 178.574219 63.582031 L 178.574219 64.511719 L 176.105469 64.511719 L 176.105469 68.472656 C 176.105469 69.066406 176.1875 69.445312 176.351562 69.617188 C 176.511719 69.785156 176.84375 69.871094 177.34375 69.871094 L 178.574219 69.871094 L 178.574219 70.871094 L 177.34375 70.871094 C 176.417969 70.871094 175.78125 70.699219 175.429688 70.355469 C 175.078125 70.011719 174.902344 69.382812 174.902344 68.472656 L 174.902344 64.511719 L 174.023438 64.511719 L 174.023438 63.582031 L 174.902344 63.582031 L 174.902344 61.511719 Z M 176.105469 61.511719 "/>
<path style=" stroke:none;fill-rule:nonzero;fill:rgb(0%,0%,0%);fill-opacity:1;" d="M 184.949219 64.6875 L 184.949219 60.742188 L 186.144531 60.742188 L 186.144531 70.871094 L 184.949219 70.871094 L 184.949219 69.777344 C 184.695312 70.210938 184.378906 70.535156 183.992188 70.746094 C 183.609375 70.957031 183.148438 71.0625 182.609375 71.0625 C 181.730469 71.0625 181.011719 70.710938 180.457031 70.007812 C 179.90625 69.304688 179.628906 68.378906 179.628906 67.234375 C 179.628906 66.085938 179.90625 65.164062 180.457031 64.460938 C 181.011719 63.757812 181.730469 63.40625 182.609375 63.40625 C 183.148438 63.40625 183.609375 63.511719 183.992188 63.722656 C 184.378906 63.933594 184.695312 64.253906 184.949219 64.6875 Z M 180.867188 67.234375 C 180.867188 68.113281 181.046875 68.804688 181.410156 69.304688 C 181.773438 69.808594 182.269531 70.058594 182.902344 70.058594 C 183.535156 70.058594 184.035156 69.808594 184.398438 69.304688 C 184.765625 68.804688 184.949219 68.113281 184.949219 67.234375 C 184.949219 66.351562 184.765625 65.660156 184.398438 65.160156 C 184.035156 64.660156 183.535156 64.410156 182.902344 64.410156 C 182.269531 64.410156 181.773438 64.660156 181.410156 65.160156 C 181.046875 65.660156 180.867188 66.351562 180.867188 67.234375 Z M 180.867188 67.234375 "/>
<path style=" stroke:none;fill-rule:nonzero;fill:rgb(0%,0%,0%);fill-opacity:1;" d="M 193.25 69.765625 L 195.398438 69.765625 L 195.398438 62.351562 L 193.058594 62.820312 L 193.058594 61.621094 L 195.382812 61.152344 L 196.699219 61.152344 L 196.699219 69.765625 L 198.847656 69.765625 L 198.847656 70.871094 L 193.25 70.871094 Z M 193.25 69.765625 "/>
</g>
</svg>
