<?xml version="1.0" encoding="UTF-8"?>
<svg xmlns="http://www.w3.org/2000/svg" xmlns:xlink="http://www.w3.org/1999/xlink" width="323.430806" height="222.637492" viewBox="0 0 323.430806 222.637492" version="1.1">
<defs>
<clipPath id="clip1">
  <path d="M 59 9.601562 L 62 9.601562 L 62 190.800781 L 59 190.800781 Z M 59 9.601562 "/>
</clipPath>
<clipPath id="clip2">
  <path d="M 141 9.601562 L 143 9.601562 L 143 190.800781 L 141 190.800781 Z M 141 9.601562 "/>
</clipPath>
<clipPath id="clip3">
  <path d="M 222 9.601562 L 225 9.601562 L 225 190.800781 L 222 190.800781 Z M 222 9.601562 "/>
</clipPath>
<clipPath id="clip4">
  <path d="M 304 9.601562 L 307 9.601562 L 307 190.800781 L 304 190.800781 Z M 304 9.601562 "/>
</clipPath>
<clipPath id="clip5">
  <path d="M 48.621094 181 L 309.019531 181 L 309.019531 184 L 48.621094 184 Z M 48.621094 181 "/>
</clipPath>
<clipPath id="clip6">
  <path d="M 48.621094 148 L 309.019531 148 L 309.019531 151 L 48.621094 151 Z M 48.621094 148 "/>
</clipPath>
<clipPath id="clip7">
  <path d="M 48.621094 115 L 309.019531 115 L 309.019531 118 L 48.621094 118 Z M 48.621094 115 "/>
</clipPath>
<clipPath id="clip8">
  <path d="M 48.621094 82 L 309.019531 82 L 309.019531 85 L 48.621094 85 Z M 48.621094 82 "/>
</clipPath>
<clipPath id="clip9">
  <path d="M 48.621094 50 L 309.019531 50 L 309.019531 52 L 48.621094 52 Z M 48.621094 50 "/>
</clipPath>
<clipPath id="clip10">
  <path d="M 48.621094 17 L 309.019531 17 L 309.019531 19 L 48.621094 19 Z M 48.621094 17 "/>
</clipPath>
</defs>
<g id="surface1">
<path style=" stroke:none;fill-rule:nonzero;fill:rgb(100%,100%,100%);fill-opacity:1;" d="M 48.621094 190.800781 L 309.019531 190.800781 L 309.019531 9.601562 L 48.621094 9.601562 Z M 48.621094 190.800781 "/>
<g clip-path="url(#clip1)" clip-rule="nonzero">
<path style="fill:none;stroke-width:0.8;stroke-linecap:square;stroke-linejoin:round;stroke:rgb(69.01961%,69.01961%,69.01961%);stroke-opacity:1;stroke-miterlimit:4;" d="M 45.342773 143.100586 L 45.342773 7.201172 " transform="matrix(1.333333,0,0,1.333333,0,0)"/>
</g>
<path style="fill:none;stroke-width:0.8;stroke-linecap:butt;stroke-linejoin:round;stroke:rgb(0%,0%,0%);stroke-opacity:1;stroke-miterlimit:4;" d="M -0.000125885 0.000579834 L -0.000125885 3.498627 " transform="matrix(1.333333,0,0,1.333333,60.457199,190.800008)"/>
<path style=" stroke:none;fill-rule:nonzero;fill:rgb(0%,0%,0%);fill-opacity:1;" d="M 60.453125 201.410156 C 59.777344 201.410156 59.269531 201.742188 58.925781 202.410156 C 58.585938 203.074219 58.414062 204.078125 58.414062 205.414062 C 58.414062 206.746094 58.585938 207.746094 58.925781 208.414062 C 59.269531 209.078125 59.777344 209.414062 60.453125 209.414062 C 61.136719 209.414062 61.644531 209.078125 61.988281 208.414062 C 62.328125 207.746094 62.5 206.746094 62.5 205.414062 C 62.5 204.078125 62.328125 203.074219 61.988281 202.410156 C 61.644531 201.742188 61.136719 201.410156 60.453125 201.410156 Z M 60.453125 200.367188 C 61.542969 200.367188 62.375 200.800781 62.949219 201.664062 C 63.527344 202.523438 63.8125 203.773438 63.8125 205.414062 C 63.8125 207.050781 63.527344 208.300781 62.949219 209.164062 C 62.375 210.023438 61.542969 210.453125 60.453125 210.453125 C 59.363281 210.453125 58.53125 210.023438 57.957031 209.164062 C 57.382812 208.300781 57.09375 207.050781 57.09375 205.414062 C 57.09375 203.773438 57.382812 202.523438 57.957031 201.664062 C 58.53125 200.800781 59.363281 200.367188 60.453125 200.367188 Z M 60.453125 200.367188 "/>
<g clip-path="url(#clip2)" clip-rule="nonzero">
<path style="fill:none;stroke-width:0.8;stroke-linecap:square;stroke-linejoin:round;stroke:rgb(69.01961%,69.01961%,69.01961%);stroke-opacity:1;stroke-miterlimit:4;" d="M 106.564453 143.100586 L 106.564453 7.201172 " transform="matrix(1.333333,0,0,1.333333,0,0)"/>
</g>
<path style="fill:none;stroke-width:0.8;stroke-linecap:butt;stroke-linejoin:round;stroke:rgb(0%,0%,0%);stroke-opacity:1;stroke-miterlimit:4;" d="M -0.00101471 0.000579834 L -0.00101471 3.498627 " transform="matrix(1.333333,0,0,1.333333,142.08729,190.800008)"/>
<path style=" stroke:none;fill-rule:nonzero;fill:rgb(0%,0%,0%);fill-opacity:1;" d="M 135.257812 209.160156 L 137.40625 209.160156 L 137.40625 201.742188 L 135.070312 202.210938 L 135.070312 201.011719 L 137.394531 200.542969 L 138.707031 200.542969 L 138.707031 209.160156 L 140.855469 209.160156 L 140.855469 210.265625 L 135.257812 210.265625 Z M 135.257812 209.160156 "/>
<path style=" stroke:none;fill-rule:nonzero;fill:rgb(0%,0%,0%);fill-opacity:1;" d="M 146.324219 201.410156 C 145.648438 201.410156 145.140625 201.742188 144.796875 202.410156 C 144.457031 203.074219 144.285156 204.078125 144.285156 205.414062 C 144.285156 206.746094 144.457031 207.746094 144.796875 208.414062 C 145.140625 209.078125 145.648438 209.414062 146.324219 209.414062 C 147.007812 209.414062 147.519531 209.078125 147.859375 208.414062 C 148.199219 207.746094 148.371094 206.746094 148.371094 205.414062 C 148.371094 204.078125 148.199219 203.074219 147.859375 202.410156 C 147.519531 201.742188 147.007812 201.410156 146.324219 201.410156 Z M 146.324219 200.367188 C 147.414062 200.367188 148.246094 200.800781 148.824219 201.664062 C 149.398438 202.523438 149.683594 203.773438 149.683594 205.414062 C 149.683594 207.050781 149.398438 208.300781 148.824219 209.164062 C 148.246094 210.023438 147.414062 210.453125 146.324219 210.453125 C 145.234375 210.453125 144.402344 210.023438 143.828125 209.164062 C 143.253906 208.300781 142.964844 207.050781 142.964844 205.414062 C 142.964844 203.773438 143.253906 202.523438 143.828125 201.664062 C 144.402344 200.800781 145.234375 200.367188 146.324219 200.367188 Z M 146.324219 200.367188 "/>
<g clip-path="url(#clip3)" clip-rule="nonzero">
<path style="fill:none;stroke-width:0.8;stroke-linecap:square;stroke-linejoin:round;stroke:rgb(69.01961%,69.01961%,69.01961%);stroke-opacity:1;stroke-miterlimit:4;" d="M 167.789062 143.100586 L 167.789062 7.201172 " transform="matrix(1.333333,0,0,1.333333,0,0)"/>
</g>
<path style="fill:none;stroke-width:0.8;stroke-linecap:butt;stroke-linejoin:round;stroke:rgb(0%,0%,0%);stroke-opacity:1;stroke-miterlimit:4;" d="M 0.00102234 0.000579834 L 0.00102234 3.498627 " transform="matrix(1.333333,0,0,1.333333,223.717387,190.800008)"/>
<path style=" stroke:none;fill-rule:nonzero;fill:rgb(0%,0%,0%);fill-opacity:1;" d="M 217.792969 209.160156 L 222.382812 209.160156 L 222.382812 210.265625 L 216.210938 210.265625 L 216.210938 209.160156 C 216.710938 208.640625 217.390625 207.949219 218.25 207.078125 C 219.113281 206.207031 219.65625 205.648438 219.875 205.394531 C 220.296875 204.921875 220.589844 204.523438 220.757812 204.195312 C 220.925781 203.867188 221.007812 203.542969 221.007812 203.226562 C 221.007812 202.710938 220.828125 202.289062 220.464844 201.964844 C 220.101562 201.636719 219.628906 201.476562 219.046875 201.476562 C 218.636719 201.476562 218.199219 201.546875 217.742188 201.691406 C 217.285156 201.832031 216.796875 202.050781 216.277344 202.339844 L 216.277344 201.011719 C 216.804688 200.800781 217.300781 200.640625 217.757812 200.53125 C 218.21875 200.421875 218.640625 200.367188 219.023438 200.367188 C 220.03125 200.367188 220.832031 200.621094 221.433594 201.125 C 222.03125 201.628906 222.328125 202.300781 222.328125 203.140625 C 222.328125 203.542969 222.253906 203.921875 222.105469 204.277344 C 221.957031 204.636719 221.683594 205.058594 221.289062 205.542969 C 221.179688 205.671875 220.835938 206.035156 220.253906 206.636719 C 219.671875 207.238281 218.851562 208.078125 217.792969 209.160156 Z M 217.792969 209.160156 "/>
<path style=" stroke:none;fill-rule:nonzero;fill:rgb(0%,0%,0%);fill-opacity:1;" d="M 227.953125 201.410156 C 227.277344 201.410156 226.769531 201.742188 226.425781 202.410156 C 226.085938 203.074219 225.917969 204.078125 225.917969 205.414062 C 225.917969 206.746094 226.085938 207.746094 226.425781 208.414062 C 226.769531 209.078125 227.277344 209.414062 227.953125 209.414062 C 228.636719 209.414062 229.148438 209.078125 229.488281 208.414062 C 229.828125 207.746094 230 206.746094 230 205.414062 C 230 204.078125 229.828125 203.074219 229.488281 202.410156 C 229.148438 201.742188 228.636719 201.410156 227.953125 201.410156 Z M 227.953125 200.367188 C 229.042969 200.367188 229.878906 200.800781 230.453125 201.664062 C 231.027344 202.523438 231.316406 203.773438 231.316406 205.414062 C 231.316406 207.050781 231.027344 208.300781 230.453125 209.164062 C 229.878906 210.023438 229.042969 210.453125 227.953125 210.453125 C 226.867188 210.453125 226.035156 210.023438 225.457031 209.164062 C 224.882812 208.300781 224.597656 207.050781 224.597656 205.414062 C 224.597656 203.773438 224.882812 202.523438 225.457031 201.664062 C 226.035156 200.800781 226.867188 200.367188 227.953125 200.367188 Z M 227.953125 200.367188 "/>
<g clip-path="url(#clip4)" clip-rule="nonzero">
<path style="fill:none;stroke-width:0.8;stroke-linecap:square;stroke-linejoin:round;stroke:rgb(69.01961%,69.01961%,69.01961%);stroke-opacity:1;stroke-miterlimit:4;" d="M 229.010742 143.100586 L 229.010742 7.201172 " transform="matrix(1.333333,0,0,1.333333,0,0)"/>
</g>
<path style="fill:none;stroke-width:0.8;stroke-linecap:butt;stroke-linejoin:round;stroke:rgb(0%,0%,0%);stroke-opacity:1;stroke-miterlimit:4;" d="M 0.000137329 0.000579834 L 0.000137329 3.498627 " transform="matrix(1.333333,0,0,1.333333,305.347473,190.800008)"/>
<path style=" stroke:none;fill-rule:nonzero;fill:rgb(0%,0%,0%);fill-opacity:1;" d="M 302.273438 205.023438 C 302.902344 205.15625 303.394531 205.4375 303.746094 205.863281 C 304.101562 206.289062 304.277344 206.816406 304.277344 207.441406 C 304.277344 208.398438 303.949219 209.140625 303.289062 209.667969 C 302.628906 210.191406 301.691406 210.453125 300.476562 210.453125 C 300.070312 210.453125 299.648438 210.414062 299.21875 210.332031 C 298.785156 210.253906 298.339844 210.132812 297.878906 209.972656 L 297.878906 208.703125 C 298.246094 208.914062 298.644531 209.074219 299.078125 209.183594 C 299.511719 209.292969 299.964844 209.347656 300.4375 209.347656 C 301.261719 209.347656 301.890625 209.183594 302.324219 208.859375 C 302.753906 208.535156 302.96875 208.058594 302.96875 207.441406 C 302.96875 206.867188 302.769531 206.417969 302.367188 206.097656 C 301.96875 205.773438 301.410156 205.609375 300.691406 205.609375 L 299.558594 205.609375 L 299.558594 204.527344 L 300.746094 204.527344 C 301.390625 204.527344 301.886719 204.398438 302.230469 204.140625 C 302.570312 203.882812 302.742188 203.511719 302.742188 203.023438 C 302.742188 202.527344 302.566406 202.144531 302.210938 201.878906 C 301.859375 201.609375 301.351562 201.476562 300.691406 201.476562 C 300.332031 201.476562 299.945312 201.515625 299.53125 201.59375 C 299.121094 201.671875 298.667969 201.792969 298.171875 201.957031 L 298.171875 200.785156 C 298.671875 200.648438 299.140625 200.542969 299.578125 200.472656 C 300.011719 200.402344 300.425781 200.367188 300.808594 200.367188 C 301.808594 200.367188 302.597656 200.597656 303.179688 201.050781 C 303.761719 201.503906 304.050781 202.117188 304.050781 202.886719 C 304.050781 203.425781 303.898438 203.882812 303.589844 204.253906 C 303.28125 204.621094 302.84375 204.878906 302.273438 205.023438 Z M 302.273438 205.023438 "/>
<path style=" stroke:none;fill-rule:nonzero;fill:rgb(0%,0%,0%);fill-opacity:1;" d="M 309.585938 201.410156 C 308.910156 201.410156 308.398438 201.742188 308.058594 202.410156 C 307.71875 203.074219 307.546875 204.078125 307.546875 205.414062 C 307.546875 206.746094 307.71875 207.746094 308.058594 208.414062 C 308.398438 209.078125 308.910156 209.414062 309.585938 209.414062 C 310.265625 209.414062 310.777344 209.078125 311.117188 208.414062 C 311.460938 207.746094 311.628906 206.746094 311.628906 205.414062 C 311.628906 204.078125 311.460938 203.074219 311.117188 202.410156 C 310.777344 201.742188 310.265625 201.410156 309.585938 201.410156 Z M 309.585938 200.367188 C 310.675781 200.367188 311.507812 200.800781 312.082031 201.664062 C 312.65625 202.523438 312.945312 203.773438 312.945312 205.414062 C 312.945312 207.050781 312.65625 208.300781 312.082031 209.164062 C 311.507812 210.023438 310.675781 210.453125 309.585938 210.453125 C 308.496094 210.453125 307.664062 210.023438 307.089844 209.164062 C 306.515625 208.300781 306.226562 207.050781 306.226562 205.414062 C 306.226562 203.773438 306.515625 202.523438 307.089844 201.664062 C 307.664062 200.800781 308.496094 200.367188 309.585938 200.367188 Z M 309.585938 200.367188 "/>
<g clip-path="url(#clip5)" clip-rule="nonzero">
<path style="fill:none;stroke-width:0.8;stroke-linecap:square;stroke-linejoin:round;stroke:rgb(69.01961%,69.01961%,69.01961%);stroke-opacity:1;stroke-miterlimit:4;" d="M 36.46582 136.921875 L 231.764648 136.921875 " transform="matrix(1.333333,0,0,1.333333,0,0)"/>
</g>
<path style="fill:none;stroke-width:0.8;stroke-linecap:butt;stroke-linejoin:round;stroke:rgb(0%,0%,0%);stroke-opacity:1;stroke-miterlimit:4;" d="M 0.00019455 -0.000854492 L -3.500782 -0.000854492 " transform="matrix(1.333333,0,0,1.333333,48.620834,182.563639)"/>
<path style=" stroke:none;fill-rule:nonzero;fill:rgb(0%,0%,0%);fill-opacity:1;" d="M 13.835938 178.773438 C 13.160156 178.773438 12.652344 179.109375 12.308594 179.773438 C 11.96875 180.441406 11.800781 181.441406 11.800781 182.777344 C 11.800781 184.109375 11.96875 185.109375 12.308594 185.777344 C 12.652344 186.445312 13.160156 186.777344 13.835938 186.777344 C 14.519531 186.777344 15.03125 186.445312 15.371094 185.777344 C 15.710938 185.109375 15.882812 184.109375 15.882812 182.777344 C 15.882812 181.441406 15.710938 180.441406 15.371094 179.773438 C 15.03125 179.109375 14.519531 178.773438 13.835938 178.773438 Z M 13.835938 177.734375 C 14.929688 177.734375 15.761719 178.164062 16.335938 179.027344 C 16.910156 179.886719 17.199219 181.140625 17.199219 182.777344 C 17.199219 184.414062 16.910156 185.664062 16.335938 186.527344 C 15.761719 187.386719 14.929688 187.820312 13.835938 187.820312 C 12.75 187.820312 11.917969 187.386719 11.339844 186.527344 C 10.765625 185.664062 10.480469 184.414062 10.480469 182.777344 C 10.480469 181.140625 10.765625 179.886719 11.339844 179.027344 C 11.917969 178.164062 12.75 177.734375 13.835938 177.734375 Z M 13.835938 177.734375 "/>
<path style=" stroke:none;fill-rule:nonzero;fill:rgb(0%,0%,0%);fill-opacity:1;" d="M 19.507812 185.976562 L 20.882812 185.976562 L 20.882812 187.628906 L 19.507812 187.628906 Z M 19.507812 185.976562 "/>
<path style=" stroke:none;fill-rule:nonzero;fill:rgb(0%,0%,0%);fill-opacity:1;" d="M 24.878906 186.523438 L 29.46875 186.523438 L 29.46875 187.628906 L 23.296875 187.628906 L 23.296875 186.523438 C 23.796875 186.007812 24.476562 185.3125 25.339844 184.445312 C 26.199219 183.574219 26.742188 183.011719 26.964844 182.757812 C 27.382812 182.285156 27.675781 181.886719 27.84375 181.558594 C 28.011719 181.230469 28.097656 180.910156 28.097656 180.589844 C 28.097656 180.074219 27.914062 179.652344 27.550781 179.328125 C 27.191406 179.003906 26.71875 178.839844 26.136719 178.839844 C 25.722656 178.839844 25.289062 178.910156 24.828125 179.054688 C 24.371094 179.199219 23.882812 179.414062 23.363281 179.707031 L 23.363281 178.378906 C 23.890625 178.164062 24.386719 178.003906 24.847656 177.894531 C 25.308594 177.789062 25.730469 177.734375 26.109375 177.734375 C 27.117188 177.734375 27.921875 177.984375 28.519531 178.488281 C 29.117188 178.992188 29.417969 179.664062 29.417969 180.507812 C 29.417969 180.90625 29.34375 181.285156 29.191406 181.644531 C 29.042969 182 28.769531 182.421875 28.375 182.910156 C 28.265625 183.035156 27.921875 183.398438 27.339844 184 C 26.757812 184.601562 25.9375 185.441406 24.878906 186.523438 Z M 24.878906 186.523438 "/>
<path style=" stroke:none;fill-rule:nonzero;fill:rgb(0%,0%,0%);fill-opacity:1;" d="M 32.242188 177.910156 L 37.40625 177.910156 L 37.40625 179.015625 L 33.449219 179.015625 L 33.449219 181.398438 C 33.636719 181.332031 33.828125 181.285156 34.019531 181.253906 C 34.210938 181.21875 34.402344 181.203125 34.59375 181.203125 C 35.679688 181.203125 36.539062 181.5 37.171875 182.097656 C 37.804688 182.691406 38.125 183.496094 38.125 184.511719 C 38.125 185.554688 37.796875 186.371094 37.144531 186.949219 C 36.496094 187.527344 35.578125 187.820312 34.390625 187.820312 C 33.984375 187.820312 33.566406 187.785156 33.144531 187.714844 C 32.722656 187.644531 32.285156 187.542969 31.832031 187.402344 L 31.832031 186.078125 C 32.222656 186.292969 32.628906 186.449219 33.042969 186.554688 C 33.460938 186.660156 33.902344 186.710938 34.363281 186.710938 C 35.117188 186.710938 35.710938 186.511719 36.148438 186.117188 C 36.585938 185.722656 36.804688 185.1875 36.804688 184.511719 C 36.804688 183.835938 36.585938 183.296875 36.148438 182.902344 C 35.710938 182.507812 35.117188 182.308594 34.363281 182.308594 C 34.011719 182.308594 33.664062 182.347656 33.3125 182.425781 C 32.964844 182.503906 32.609375 182.625 32.242188 182.792969 Z M 32.242188 177.910156 "/>
<g clip-path="url(#clip6)" clip-rule="nonzero">
<path style="fill:none;stroke-width:0.8;stroke-linecap:square;stroke-linejoin:round;stroke:rgb(69.01961%,69.01961%,69.01961%);stroke-opacity:1;stroke-miterlimit:4;" d="M 36.46582 112.212891 L 231.764648 112.212891 " transform="matrix(1.333333,0,0,1.333333,0,0)"/>
</g>
<path style="fill:none;stroke-width:0.8;stroke-linecap:butt;stroke-linejoin:round;stroke:rgb(0%,0%,0%);stroke-opacity:1;stroke-miterlimit:4;" d="M 0.00019455 -0.000747681 L -3.500782 -0.000747681 " transform="matrix(1.333333,0,0,1.333333,48.620834,149.618184)"/>
<path style=" stroke:none;fill-rule:nonzero;fill:rgb(0%,0%,0%);fill-opacity:1;" d="M 13.835938 145.828125 C 13.160156 145.828125 12.652344 146.164062 12.308594 146.828125 C 11.96875 147.496094 11.800781 148.496094 11.800781 149.832031 C 11.800781 151.164062 11.96875 152.164062 12.308594 152.832031 C 12.652344 153.5 13.160156 153.832031 13.835938 153.832031 C 14.519531 153.832031 15.03125 153.5 15.371094 152.832031 C 15.710938 152.164062 15.882812 151.164062 15.882812 149.832031 C 15.882812 148.496094 15.710938 147.496094 15.371094 146.828125 C 15.03125 146.164062 14.519531 145.828125 13.835938 145.828125 Z M 13.835938 144.789062 C 14.929688 144.789062 15.761719 145.21875 16.335938 146.082031 C 16.910156 146.941406 17.199219 148.195312 17.199219 149.832031 C 17.199219 151.46875 16.910156 152.71875 16.335938 153.582031 C 15.761719 154.441406 14.929688 154.875 13.835938 154.875 C 12.75 154.875 11.917969 154.441406 11.339844 153.582031 C 10.765625 152.71875 10.480469 151.46875 10.480469 149.832031 C 10.480469 148.195312 10.765625 146.941406 11.339844 146.082031 C 11.917969 145.21875 12.75 144.789062 13.835938 144.789062 Z M 13.835938 144.789062 "/>
<path style=" stroke:none;fill-rule:nonzero;fill:rgb(0%,0%,0%);fill-opacity:1;" d="M 19.507812 153.03125 L 20.882812 153.03125 L 20.882812 154.683594 L 19.507812 154.683594 Z M 19.507812 153.03125 "/>
<path style=" stroke:none;fill-rule:nonzero;fill:rgb(0%,0%,0%);fill-opacity:1;" d="M 27.730469 149.441406 C 28.359375 149.578125 28.851562 149.855469 29.203125 150.285156 C 29.558594 150.707031 29.734375 151.234375 29.734375 151.859375 C 29.734375 152.816406 29.40625 153.558594 28.746094 154.085938 C 28.085938 154.609375 27.148438 154.875 25.933594 154.875 C 25.527344 154.875 25.109375 154.832031 24.675781 154.753906 C 24.242188 154.671875 23.796875 154.550781 23.339844 154.390625 L 23.339844 153.121094 C 23.703125 153.332031 24.101562 153.496094 24.535156 153.601562 C 24.96875 153.710938 25.421875 153.765625 25.894531 153.765625 C 26.71875 153.765625 27.347656 153.601562 27.78125 153.277344 C 28.210938 152.953125 28.425781 152.480469 28.425781 151.859375 C 28.425781 151.285156 28.226562 150.835938 27.824219 150.515625 C 27.425781 150.191406 26.867188 150.03125 26.152344 150.03125 L 25.015625 150.03125 L 25.015625 148.949219 L 26.203125 148.949219 C 26.847656 148.949219 27.34375 148.820312 27.6875 148.5625 C 28.027344 148.300781 28.199219 147.929688 28.199219 147.445312 C 28.199219 146.945312 28.023438 146.5625 27.667969 146.296875 C 27.316406 146.027344 26.808594 145.894531 26.152344 145.894531 C 25.789062 145.894531 25.402344 145.933594 24.988281 146.011719 C 24.578125 146.089844 24.125 146.210938 23.628906 146.375 L 23.628906 145.203125 C 24.128906 145.066406 24.597656 144.960938 25.035156 144.890625 C 25.46875 144.824219 25.882812 144.789062 26.265625 144.789062 C 27.265625 144.789062 28.054688 145.015625 28.636719 145.46875 C 29.21875 145.921875 29.507812 146.535156 29.507812 147.308594 C 29.507812 147.84375 29.355469 148.300781 29.046875 148.671875 C 28.738281 149.042969 28.300781 149.300781 27.730469 149.441406 Z M 27.730469 149.441406 "/>
<path style=" stroke:none;fill-rule:nonzero;fill:rgb(0%,0%,0%);fill-opacity:1;" d="M 35.042969 145.828125 C 34.367188 145.828125 33.855469 146.164062 33.515625 146.828125 C 33.175781 147.496094 33.003906 148.496094 33.003906 149.832031 C 33.003906 151.164062 33.175781 152.164062 33.515625 152.832031 C 33.855469 153.5 34.367188 153.832031 35.042969 153.832031 C 35.722656 153.832031 36.234375 153.5 36.574219 152.832031 C 36.917969 152.164062 37.085938 151.164062 37.085938 149.832031 C 37.085938 148.496094 36.917969 147.496094 36.574219 146.828125 C 36.234375 146.164062 35.722656 145.828125 35.042969 145.828125 Z M 35.042969 144.789062 C 36.132812 144.789062 36.964844 145.21875 37.539062 146.082031 C 38.113281 146.941406 38.402344 148.195312 38.402344 149.832031 C 38.402344 151.46875 38.113281 152.71875 37.539062 153.582031 C 36.964844 154.441406 36.132812 154.875 35.042969 154.875 C 33.953125 154.875 33.121094 154.441406 32.546875 153.582031 C 31.972656 152.71875 31.683594 151.46875 31.683594 149.832031 C 31.683594 148.195312 31.972656 146.941406 32.546875 146.082031 C 33.121094 145.21875 33.953125 144.789062 35.042969 144.789062 Z M 35.042969 144.789062 "/>
<g clip-path="url(#clip7)" clip-rule="nonzero">
<path style="fill:none;stroke-width:0.8;stroke-linecap:square;stroke-linejoin:round;stroke:rgb(69.01961%,69.01961%,69.01961%);stroke-opacity:1;stroke-miterlimit:4;" d="M 36.46582 87.503906 L 231.764648 87.503906 " transform="matrix(1.333333,0,0,1.333333,0,0)"/>
</g>
<path style="fill:none;stroke-width:0.8;stroke-linecap:butt;stroke-linejoin:round;stroke:rgb(0%,0%,0%);stroke-opacity:1;stroke-miterlimit:4;" d="M 0.00019455 -0.000640869 L -3.500782 -0.000640869 " transform="matrix(1.333333,0,0,1.333333,48.620834,116.672729)"/>
<path style=" stroke:none;fill-rule:nonzero;fill:rgb(0%,0%,0%);fill-opacity:1;" d="M 13.835938 112.882812 C 13.160156 112.882812 12.652344 113.21875 12.308594 113.882812 C 11.96875 114.550781 11.800781 115.550781 11.800781 116.886719 C 11.800781 118.21875 11.96875 119.21875 12.308594 119.886719 C 12.652344 120.554688 13.160156 120.886719 13.835938 120.886719 C 14.519531 120.886719 15.03125 120.554688 15.371094 119.886719 C 15.710938 119.21875 15.882812 118.21875 15.882812 116.886719 C 15.882812 115.550781 15.710938 114.550781 15.371094 113.882812 C 15.03125 113.21875 14.519531 112.882812 13.835938 112.882812 Z M 13.835938 111.84375 C 14.929688 111.84375 15.761719 112.273438 16.335938 113.136719 C 16.910156 113.996094 17.199219 115.25 17.199219 116.886719 C 17.199219 118.523438 16.910156 119.773438 16.335938 120.636719 C 15.761719 121.496094 14.929688 121.929688 13.835938 121.929688 C 12.75 121.929688 11.917969 121.496094 11.339844 120.636719 C 10.765625 119.773438 10.480469 118.523438 10.480469 116.886719 C 10.480469 115.25 10.765625 113.996094 11.339844 113.136719 C 11.917969 112.273438 12.75 111.84375 13.835938 111.84375 Z M 13.835938 111.84375 "/>
<path style=" stroke:none;fill-rule:nonzero;fill:rgb(0%,0%,0%);fill-opacity:1;" d="M 19.507812 120.085938 L 20.882812 120.085938 L 20.882812 121.738281 L 19.507812 121.738281 Z M 19.507812 120.085938 "/>
<path style=" stroke:none;fill-rule:nonzero;fill:rgb(0%,0%,0%);fill-opacity:1;" d="M 27.730469 116.496094 C 28.359375 116.632812 28.851562 116.910156 29.203125 117.339844 C 29.558594 117.761719 29.734375 118.289062 29.734375 118.914062 C 29.734375 119.871094 29.40625 120.613281 28.746094 121.140625 C 28.085938 121.664062 27.148438 121.929688 25.933594 121.929688 C 25.527344 121.929688 25.109375 121.886719 24.675781 121.808594 C 24.242188 121.726562 23.796875 121.605469 23.339844 121.445312 L 23.339844 120.175781 C 23.703125 120.386719 24.101562 120.546875 24.535156 120.65625 C 24.96875 120.765625 25.421875 120.820312 25.894531 120.820312 C 26.71875 120.820312 27.347656 120.65625 27.78125 120.332031 C 28.210938 120.007812 28.425781 119.535156 28.425781 118.914062 C 28.425781 118.339844 28.226562 117.890625 27.824219 117.570312 C 27.425781 117.246094 26.867188 117.085938 26.152344 117.085938 L 25.015625 117.085938 L 25.015625 116.003906 L 26.203125 116.003906 C 26.847656 116.003906 27.34375 115.875 27.6875 115.617188 C 28.027344 115.355469 28.199219 114.984375 28.199219 114.5 C 28.199219 114 28.023438 113.617188 27.667969 113.351562 C 27.316406 113.082031 26.808594 112.949219 26.152344 112.949219 C 25.789062 112.949219 25.402344 112.988281 24.988281 113.066406 C 24.578125 113.144531 24.125 113.265625 23.628906 113.429688 L 23.628906 112.257812 C 24.128906 112.121094 24.597656 112.015625 25.035156 111.945312 C 25.46875 111.878906 25.882812 111.84375 26.265625 111.84375 C 27.265625 111.84375 28.054688 112.070312 28.636719 112.523438 C 29.21875 112.976562 29.507812 113.589844 29.507812 114.359375 C 29.507812 114.898438 29.355469 115.355469 29.046875 115.726562 C 28.738281 116.097656 28.300781 116.355469 27.730469 116.496094 Z M 27.730469 116.496094 "/>
<path style=" stroke:none;fill-rule:nonzero;fill:rgb(0%,0%,0%);fill-opacity:1;" d="M 32.242188 112.015625 L 37.40625 112.015625 L 37.40625 113.125 L 33.449219 113.125 L 33.449219 115.507812 C 33.636719 115.441406 33.828125 115.394531 34.019531 115.359375 C 34.210938 115.328125 34.402344 115.3125 34.59375 115.3125 C 35.679688 115.3125 36.539062 115.609375 37.171875 116.203125 C 37.804688 116.800781 38.125 117.605469 38.125 118.621094 C 38.125 119.664062 37.796875 120.480469 37.144531 121.058594 C 36.496094 121.636719 35.578125 121.929688 34.390625 121.929688 C 33.984375 121.929688 33.566406 121.894531 33.144531 121.824219 C 32.722656 121.753906 32.285156 121.648438 31.832031 121.511719 L 31.832031 120.1875 C 32.222656 120.402344 32.628906 120.558594 33.042969 120.664062 C 33.460938 120.765625 33.902344 120.820312 34.363281 120.820312 C 35.117188 120.820312 35.710938 120.621094 36.148438 120.226562 C 36.585938 119.832031 36.804688 119.296875 36.804688 118.621094 C 36.804688 117.941406 36.585938 117.40625 36.148438 117.011719 C 35.710938 116.617188 35.117188 116.417969 34.363281 116.417969 C 34.011719 116.417969 33.664062 116.457031 33.3125 116.535156 C 32.964844 116.613281 32.609375 116.734375 32.242188 116.902344 Z M 32.242188 112.015625 "/>
<g clip-path="url(#clip8)" clip-rule="nonzero">
<path style="fill:none;stroke-width:0.8;stroke-linecap:square;stroke-linejoin:round;stroke:rgb(69.01961%,69.01961%,69.01961%);stroke-opacity:1;stroke-miterlimit:4;" d="M 36.46582 62.794922 L 231.764648 62.794922 " transform="matrix(1.333333,0,0,1.333333,0,0)"/>
</g>
<path style="fill:none;stroke-width:0.8;stroke-linecap:butt;stroke-linejoin:round;stroke:rgb(0%,0%,0%);stroke-opacity:1;stroke-miterlimit:4;" d="M 0.00019455 -0.000534058 L -3.500782 -0.000534058 " transform="matrix(1.333333,0,0,1.333333,48.620834,83.727275)"/>
<path style=" stroke:none;fill-rule:nonzero;fill:rgb(0%,0%,0%);fill-opacity:1;" d="M 13.835938 79.9375 C 13.160156 79.9375 12.652344 80.273438 12.308594 80.9375 C 11.96875 81.605469 11.800781 82.605469 11.800781 83.941406 C 11.800781 85.273438 11.96875 86.273438 12.308594 86.941406 C 12.652344 87.609375 13.160156 87.941406 13.835938 87.941406 C 14.519531 87.941406 15.03125 87.609375 15.371094 86.941406 C 15.710938 86.273438 15.882812 85.273438 15.882812 83.941406 C 15.882812 82.605469 15.710938 81.605469 15.371094 80.9375 C 15.03125 80.273438 14.519531 79.9375 13.835938 79.9375 Z M 13.835938 78.898438 C 14.929688 78.898438 15.761719 79.328125 16.335938 80.191406 C 16.910156 81.050781 17.199219 82.300781 17.199219 83.941406 C 17.199219 85.578125 16.910156 86.828125 16.335938 87.691406 C 15.761719 88.550781 14.929688 88.984375 13.835938 88.984375 C 12.75 88.984375 11.917969 88.550781 11.339844 87.691406 C 10.765625 86.828125 10.480469 85.578125 10.480469 83.941406 C 10.480469 82.300781 10.765625 81.050781 11.339844 80.191406 C 11.917969 79.328125 12.75 78.898438 13.835938 78.898438 Z M 13.835938 78.898438 "/>
<path style=" stroke:none;fill-rule:nonzero;fill:rgb(0%,0%,0%);fill-opacity:1;" d="M 19.507812 87.140625 L 20.882812 87.140625 L 20.882812 88.792969 L 19.507812 88.792969 Z M 19.507812 87.140625 "/>
<path style=" stroke:none;fill-rule:nonzero;fill:rgb(0%,0%,0%);fill-opacity:1;" d="M 27.359375 80.21875 L 24.039062 85.40625 L 27.359375 85.40625 Z M 27.015625 79.070312 L 28.667969 79.070312 L 28.667969 85.40625 L 30.058594 85.40625 L 30.058594 86.5 L 28.667969 86.5 L 28.667969 88.792969 L 27.359375 88.792969 L 27.359375 86.5 L 22.972656 86.5 L 22.972656 85.234375 Z M 27.015625 79.070312 "/>
<path style=" stroke:none;fill-rule:nonzero;fill:rgb(0%,0%,0%);fill-opacity:1;" d="M 35.042969 79.9375 C 34.367188 79.9375 33.855469 80.273438 33.515625 80.9375 C 33.175781 81.605469 33.003906 82.605469 33.003906 83.941406 C 33.003906 85.273438 33.175781 86.273438 33.515625 86.941406 C 33.855469 87.609375 34.367188 87.941406 35.042969 87.941406 C 35.722656 87.941406 36.234375 87.609375 36.574219 86.941406 C 36.917969 86.273438 37.085938 85.273438 37.085938 83.941406 C 37.085938 82.605469 36.917969 81.605469 36.574219 80.9375 C 36.234375 80.273438 35.722656 79.9375 35.042969 79.9375 Z M 35.042969 78.898438 C 36.132812 78.898438 36.964844 79.328125 37.539062 80.191406 C 38.113281 81.050781 38.402344 82.300781 38.402344 83.941406 C 38.402344 85.578125 38.113281 86.828125 37.539062 87.691406 C 36.964844 88.550781 36.132812 88.984375 35.042969 88.984375 C 33.953125 88.984375 33.121094 88.550781 32.546875 87.691406 C 31.972656 86.828125 31.683594 85.578125 31.683594 83.941406 C 31.683594 82.300781 31.972656 81.050781 32.546875 80.191406 C 33.121094 79.328125 33.953125 78.898438 35.042969 78.898438 Z M 35.042969 78.898438 "/>
<g clip-path="url(#clip9)" clip-rule="nonzero">
<path style="fill:none;stroke-width:0.8;stroke-linecap:square;stroke-linejoin:round;stroke:rgb(69.01961%,69.01961%,69.01961%);stroke-opacity:1;stroke-miterlimit:4;" d="M 36.46582 38.085938 L 231.764648 38.085938 " transform="matrix(1.333333,0,0,1.333333,0,0)"/>
</g>
<path style="fill:none;stroke-width:0.8;stroke-linecap:butt;stroke-linejoin:round;stroke:rgb(0%,0%,0%);stroke-opacity:1;stroke-miterlimit:4;" d="M 0.00019455 -0.000427246 L -3.500782 -0.000427246 " transform="matrix(1.333333,0,0,1.333333,48.620834,50.78182)"/>
<path style=" stroke:none;fill-rule:nonzero;fill:rgb(0%,0%,0%);fill-opacity:1;" d="M 13.835938 46.992188 C 13.160156 46.992188 12.652344 47.328125 12.308594 47.992188 C 11.96875 48.660156 11.800781 49.660156 11.800781 50.996094 C 11.800781 52.328125 11.96875 53.328125 12.308594 53.996094 C 12.652344 54.660156 13.160156 54.996094 13.835938 54.996094 C 14.519531 54.996094 15.03125 54.660156 15.371094 53.996094 C 15.710938 53.328125 15.882812 52.328125 15.882812 50.996094 C 15.882812 49.660156 15.710938 48.660156 15.371094 47.992188 C 15.03125 47.328125 14.519531 46.992188 13.835938 46.992188 Z M 13.835938 45.953125 C 14.929688 45.953125 15.761719 46.382812 16.335938 47.246094 C 16.910156 48.105469 17.199219 49.355469 17.199219 50.996094 C 17.199219 52.632812 16.910156 53.882812 16.335938 54.746094 C 15.761719 55.605469 14.929688 56.035156 13.835938 56.035156 C 12.75 56.035156 11.917969 55.605469 11.339844 54.746094 C 10.765625 53.882812 10.480469 52.632812 10.480469 50.996094 C 10.480469 49.355469 10.765625 48.105469 11.339844 47.246094 C 11.917969 46.382812 12.75 45.953125 13.835938 45.953125 Z M 13.835938 45.953125 "/>
<path style=" stroke:none;fill-rule:nonzero;fill:rgb(0%,0%,0%);fill-opacity:1;" d="M 19.507812 54.191406 L 20.882812 54.191406 L 20.882812 55.847656 L 19.507812 55.847656 Z M 19.507812 54.191406 "/>
<path style=" stroke:none;fill-rule:nonzero;fill:rgb(0%,0%,0%);fill-opacity:1;" d="M 27.359375 47.273438 L 24.039062 52.460938 L 27.359375 52.460938 Z M 27.015625 46.125 L 28.667969 46.125 L 28.667969 52.460938 L 30.058594 52.460938 L 30.058594 53.554688 L 28.667969 53.554688 L 28.667969 55.847656 L 27.359375 55.847656 L 27.359375 53.554688 L 22.972656 53.554688 L 22.972656 52.285156 Z M 27.015625 46.125 "/>
<path style=" stroke:none;fill-rule:nonzero;fill:rgb(0%,0%,0%);fill-opacity:1;" d="M 32.242188 46.125 L 37.40625 46.125 L 37.40625 47.234375 L 33.449219 47.234375 L 33.449219 49.617188 C 33.636719 49.550781 33.828125 49.503906 34.019531 49.46875 C 34.210938 49.4375 34.402344 49.421875 34.59375 49.421875 C 35.679688 49.421875 36.539062 49.71875 37.171875 50.3125 C 37.804688 50.910156 38.125 51.714844 38.125 52.730469 C 38.125 53.773438 37.796875 54.585938 37.144531 55.167969 C 36.496094 55.746094 35.578125 56.035156 34.390625 56.035156 C 33.984375 56.035156 33.566406 56.003906 33.144531 55.933594 C 32.722656 55.863281 32.285156 55.757812 31.832031 55.621094 L 31.832031 54.296875 C 32.222656 54.511719 32.628906 54.667969 33.042969 54.773438 C 33.460938 54.875 33.902344 54.929688 34.363281 54.929688 C 35.117188 54.929688 35.710938 54.730469 36.148438 54.335938 C 36.585938 53.941406 36.804688 53.40625 36.804688 52.730469 C 36.804688 52.050781 36.585938 51.515625 36.148438 51.121094 C 35.710938 50.726562 35.117188 50.527344 34.363281 50.527344 C 34.011719 50.527344 33.664062 50.566406 33.3125 50.644531 C 32.964844 50.722656 32.609375 50.84375 32.242188 51.011719 Z M 32.242188 46.125 "/>
<g clip-path="url(#clip10)" clip-rule="nonzero">
<path style="fill:none;stroke-width:0.8;stroke-linecap:square;stroke-linejoin:round;stroke:rgb(69.01961%,69.01961%,69.01961%);stroke-opacity:1;stroke-miterlimit:4;" d="M 36.46582 13.376953 L 231.764648 13.376953 " transform="matrix(1.333333,0,0,1.333333,0,0)"/>
</g>
<path style="fill:none;stroke-width:0.8;stroke-linecap:butt;stroke-linejoin:round;stroke:rgb(0%,0%,0%);stroke-opacity:1;stroke-miterlimit:4;" d="M 0.00019455 -0.000319481 L -3.500782 -0.000319481 " transform="matrix(1.333333,0,0,1.333333,48.620834,17.836363)"/>
<path style=" stroke:none;fill-rule:nonzero;fill:rgb(0%,0%,0%);fill-opacity:1;" d="M 13.835938 14.046875 C 13.160156 14.046875 12.652344 14.382812 12.308594 15.046875 C 11.96875 15.714844 11.800781 16.714844 11.800781 18.050781 C 11.800781 19.382812 11.96875 20.382812 12.308594 21.050781 C 12.652344 21.714844 13.160156 22.050781 13.835938 22.050781 C 14.519531 22.050781 15.03125 21.714844 15.371094 21.050781 C 15.710938 20.382812 15.882812 19.382812 15.882812 18.050781 C 15.882812 16.714844 15.710938 15.714844 15.371094 15.046875 C 15.03125 14.382812 14.519531 14.046875 13.835938 14.046875 Z M 13.835938 13.007812 C 14.929688 13.007812 15.761719 13.4375 16.335938 14.300781 C 16.910156 15.160156 17.199219 16.410156 17.199219 18.050781 C 17.199219 19.6875 16.910156 20.9375 16.335938 21.800781 C 15.761719 22.660156 14.929688 23.089844 13.835938 23.089844 C 12.75 23.089844 11.917969 22.660156 11.339844 21.800781 C 10.765625 20.9375 10.480469 19.6875 10.480469 18.050781 C 10.480469 16.410156 10.765625 15.160156 11.339844 14.300781 C 11.917969 13.4375 12.75 13.007812 13.835938 13.007812 Z M 13.835938 13.007812 "/>
<path style=" stroke:none;fill-rule:nonzero;fill:rgb(0%,0%,0%);fill-opacity:1;" d="M 19.507812 21.246094 L 20.882812 21.246094 L 20.882812 22.902344 L 19.507812 22.902344 Z M 19.507812 21.246094 "/>
<path style=" stroke:none;fill-rule:nonzero;fill:rgb(0%,0%,0%);fill-opacity:1;" d="M 23.761719 13.179688 L 28.921875 13.179688 L 28.921875 14.289062 L 24.964844 14.289062 L 24.964844 16.671875 C 25.15625 16.605469 25.34375 16.558594 25.535156 16.523438 C 25.726562 16.492188 25.917969 16.476562 26.109375 16.476562 C 27.195312 16.476562 28.054688 16.773438 28.6875 17.367188 C 29.324219 17.964844 29.640625 18.769531 29.640625 19.785156 C 29.640625 20.828125 29.3125 21.640625 28.664062 22.222656 C 28.011719 22.800781 27.09375 23.089844 25.910156 23.089844 C 25.5 23.089844 25.085938 23.058594 24.660156 22.988281 C 24.238281 22.917969 23.800781 22.8125 23.351562 22.675781 L 23.351562 21.351562 C 23.742188 21.566406 24.144531 21.722656 24.5625 21.828125 C 24.976562 21.929688 25.417969 21.984375 25.882812 21.984375 C 26.632812 21.984375 27.226562 21.785156 27.664062 21.390625 C 28.105469 20.996094 28.324219 20.460938 28.324219 19.785156 C 28.324219 19.105469 28.105469 18.570312 27.664062 18.175781 C 27.226562 17.78125 26.632812 17.582031 25.882812 17.582031 C 25.53125 17.582031 25.179688 17.621094 24.828125 17.699219 C 24.480469 17.777344 24.125 17.898438 23.761719 18.066406 Z M 23.761719 13.179688 "/>
<path style=" stroke:none;fill-rule:nonzero;fill:rgb(0%,0%,0%);fill-opacity:1;" d="M 35.042969 14.046875 C 34.367188 14.046875 33.855469 14.382812 33.515625 15.046875 C 33.175781 15.714844 33.003906 16.714844 33.003906 18.050781 C 33.003906 19.382812 33.175781 20.382812 33.515625 21.050781 C 33.855469 21.714844 34.367188 22.050781 35.042969 22.050781 C 35.722656 22.050781 36.234375 21.714844 36.574219 21.050781 C 36.917969 20.382812 37.085938 19.382812 37.085938 18.050781 C 37.085938 16.714844 36.917969 15.714844 36.574219 15.046875 C 36.234375 14.382812 35.722656 14.046875 35.042969 14.046875 Z M 35.042969 13.007812 C 36.132812 13.007812 36.964844 13.4375 37.539062 14.300781 C 38.113281 15.160156 38.402344 16.410156 38.402344 18.050781 C 38.402344 19.6875 38.113281 20.9375 37.539062 21.800781 C 36.964844 22.660156 36.132812 23.089844 35.042969 23.089844 C 33.953125 23.089844 33.121094 22.660156 32.546875 21.800781 C 31.972656 20.9375 31.683594 19.6875 31.683594 18.050781 C 31.683594 16.410156 31.972656 15.160156 32.546875 14.300781 C 33.121094 13.4375 33.953125 13.007812 35.042969 13.007812 Z M 35.042969 13.007812 "/>
<path style="fill:none;stroke-width:1.5;stroke-linecap:square;stroke-linejoin:round;stroke:rgb(12.156863%,46.666667%,70.588237%);stroke-opacity:1;stroke-miterlimit:4;" d="M 45.342773 13.376953 L 131.053711 13.376953 L 137.176758 136.921875 L 222.887695 136.921875 " transform="matrix(1.333333,0,0,1.333333,0,0)"/>
<path style="fill:none;stroke-width:0.8;stroke-linecap:square;stroke-linejoin:miter;stroke:rgb(0%,0%,0%);stroke-opacity:1;stroke-miterlimit:4;" d="M 36.46582 143.100586 L 36.46582 7.201172 " transform="matrix(1.333333,0,0,1.333333,0,0)"/>
<path style="fill:none;stroke-width:0.8;stroke-linecap:square;stroke-linejoin:miter;stroke:rgb(0%,0%,0%);stroke-opacity:1;stroke-miterlimit:4;" d="M 231.764648 143.100586 L 231.764648 7.201172 " transform="matrix(1.333333,0,0,1.333333,0,0)"/>
<path style="fill:none;stroke-width:0.8;stroke-linecap:square;stroke-linejoin:miter;stroke:rgb(0%,0%,0%);stroke-opacity:1;stroke-miterlimit:4;" d="M 36.46582 143.100586 L 231.764648 143.100586 " transform="matrix(1.333333,0,0,1.333333,0,0)"/>
<path style="fill:none;stroke-width:0.8;stroke-linecap:square;stroke-linejoin:miter;stroke:rgb(0%,0%,0%);stroke-opacity:1;stroke-miterlimit:4;" d="M 36.46582 7.201172 L 231.764648 7.201172 " transform="matrix(1.333333,0,0,1.333333,0,0)"/>
</g>
</svg>
