<?xml version="1.0" encoding="UTF-8"?>
<svg xmlns="http://www.w3.org/2000/svg" xmlns:xlink="http://www.w3.org/1999/xlink" width="331.068746" height="245.940633" viewBox="0 0 331.068746 245.940633" version="1.1">
<defs>
<clipPath id="clip1">
  <path d="M 56.828125 14.664062 L 58 14.664062 L 58 195.867188 L 56.828125 195.867188 Z M 56.828125 14.664062 "/>
</clipPath>
<clipPath id="clip2">
  <path d="M 108 14.664062 L 110 14.664062 L 110 195.867188 L 108 195.867188 Z M 108 14.664062 "/>
</clipPath>
<clipPath id="clip3">
  <path d="M 160 14.664062 L 162 14.664062 L 162 195.867188 L 160 195.867188 Z M 160 14.664062 "/>
</clipPath>
<clipPath id="clip4">
  <path d="M 212 14.664062 L 214 14.664062 L 214 195.867188 L 212 195.867188 Z M 212 14.664062 "/>
</clipPath>
<clipPath id="clip5">
  <path d="M 264 14.664062 L 266 14.664062 L 266 195.867188 L 264 195.867188 Z M 264 14.664062 "/>
</clipPath>
<clipPath id="clip6">
  <path d="M 316 14.664062 L 317.226562 14.664062 L 317.226562 195.867188 L 316 195.867188 Z M 316 14.664062 "/>
</clipPath>
<clipPath id="clip7">
  <path d="M 56.828125 195 L 317.226562 195 L 317.226562 195.867188 L 56.828125 195.867188 Z M 56.828125 195 "/>
</clipPath>
<clipPath id="clip8">
  <path d="M 56.828125 164 L 317.226562 164 L 317.226562 167 L 56.828125 167 Z M 56.828125 164 "/>
</clipPath>
<clipPath id="clip9">
  <path d="M 56.828125 134 L 317.226562 134 L 317.226562 137 L 56.828125 137 Z M 56.828125 134 "/>
</clipPath>
<clipPath id="clip10">
  <path d="M 56.828125 104 L 317.226562 104 L 317.226562 107 L 56.828125 107 Z M 56.828125 104 "/>
</clipPath>
<clipPath id="clip11">
  <path d="M 56.828125 74 L 317.226562 74 L 317.226562 76 L 56.828125 76 Z M 56.828125 74 "/>
</clipPath>
<clipPath id="clip12">
  <path d="M 56.828125 44 L 317.226562 44 L 317.226562 46 L 56.828125 46 Z M 56.828125 44 "/>
</clipPath>
<clipPath id="clip13">
  <path d="M 56.828125 14.664062 L 317.226562 14.664062 L 317.226562 16 L 56.828125 16 Z M 56.828125 14.664062 "/>
</clipPath>
<clipPath id="clip14">
  <path d="M 56.828125 56 L 314 56 L 314 168 L 56.828125 168 Z M 56.828125 56 "/>
</clipPath>
<clipPath id="clip15">
  <path d="M 56.828125 78 L 314 78 L 314 114 L 56.828125 114 Z M 56.828125 78 "/>
</clipPath>
<clipPath id="clip16">
  <path d="M 56.828125 150 L 64 150 L 64 159 L 56.828125 159 Z M 56.828125 150 "/>
</clipPath>
<clipPath id="clip17">
  <path d="M 56.828125 149 L 65 149 L 65 159 L 56.828125 159 Z M 56.828125 149 "/>
</clipPath>
<clipPath id="clip18">
  <path d="M 308 121 L 317.226562 121 L 317.226562 132 L 308 132 Z M 308 121 "/>
</clipPath>
<filter id="alpha" filterUnits="objectBoundingBox" x="0%" y="0%" width="100%" height="100%">
  <feColorMatrix type="matrix" in="SourceGraphic" values="0 0 0 0 1 0 0 0 0 1 0 0 0 0 1 0 0 0 1 0"/>
</filter>
<mask id="mask0">
  <g filter="url(#alpha)">
<rect x="0" y="0" width="331.068746" height="245.940633" style="fill:rgb(0%,0%,0%);fill-opacity:0.8;stroke:none;"/>
  </g>
</mask>
<clipPath id="clip19">
  <rect x="0" y="0" width="332" height="246"/>
</clipPath>
<g id="surface5" clip-path="url(#clip19)">
<path style="fill-rule:nonzero;fill:rgb(100%,100%,100%);fill-opacity:1;stroke-width:1;stroke-linecap:butt;stroke-linejoin:miter;stroke:rgb(80.000001%,80.000001%,80.000001%);stroke-opacity:1;stroke-miterlimit:4;" d="M 173.581055 48.354492 L 230.920898 48.354492 C 232.253906 48.354492 232.918945 47.689453 232.918945 46.356445 L 232.918945 18 C 232.918945 16.666992 232.253906 15.999023 230.920898 15.999023 L 173.581055 15.999023 C 172.248047 15.999023 171.580078 16.666992 171.580078 18 L 171.580078 46.356445 C 171.580078 47.689453 172.248047 48.354492 173.581055 48.354492 Z M 173.581055 48.354492 " transform="matrix(1.333333,0,0,1.333333,0,0.000000000000014211)"/>
</g>
</defs>
<g id="surface1">
<path style=" stroke:none;fill-rule:nonzero;fill:rgb(100%,100%,100%);fill-opacity:1;" d="M 56.828125 195.867188 L 317.226562 195.867188 L 317.226562 14.664062 L 56.828125 14.664062 Z M 56.828125 195.867188 "/>
<g clip-path="url(#clip1)" clip-rule="nonzero">
<path style="fill:none;stroke-width:0.8;stroke-linecap:square;stroke-linejoin:round;stroke:rgb(69.01961%,69.01961%,69.01961%);stroke-opacity:1;stroke-miterlimit:4;" d="M 42.621094 146.900391 L 42.621094 10.998047 " transform="matrix(1.333333,0,0,1.333333,0,0.000000000000014211)"/>
</g>
<path style="fill:none;stroke-width:0.8;stroke-linecap:butt;stroke-linejoin:round;stroke:rgb(0%,0%,0%);stroke-opacity:1;stroke-miterlimit:4;" d="M 0.000782013 0.00117493 L 0.000782013 3.499222 " transform="matrix(1.333333,0,0,1.333333,56.827082,195.865621)"/>
<path style=" stroke:none;fill-rule:nonzero;fill:rgb(0%,0%,0%);fill-opacity:1;" d="M 56.824219 206.476562 C 56.148438 206.476562 55.636719 206.808594 55.296875 207.476562 C 54.957031 208.140625 54.785156 209.144531 54.785156 210.480469 C 54.785156 211.8125 54.957031 212.8125 55.296875 213.476562 C 55.636719 214.144531 56.148438 214.476562 56.824219 214.476562 C 57.503906 214.476562 58.015625 214.144531 58.355469 213.476562 C 58.699219 212.8125 58.867188 211.8125 58.867188 210.480469 C 58.867188 209.144531 58.699219 208.140625 58.355469 207.476562 C 58.015625 206.808594 57.503906 206.476562 56.824219 206.476562 Z M 56.824219 205.433594 C 57.914062 205.433594 58.746094 205.867188 59.320312 206.726562 C 59.894531 207.589844 60.183594 208.839844 60.183594 210.480469 C 60.183594 212.117188 59.894531 213.367188 59.320312 214.226562 C 58.746094 215.089844 57.914062 215.519531 56.824219 215.519531 C 55.734375 215.519531 54.902344 215.089844 54.328125 214.226562 C 53.753906 213.367188 53.464844 212.117188 53.464844 210.480469 C 53.464844 208.839844 53.753906 207.589844 54.328125 206.726562 C 54.902344 205.867188 55.734375 205.433594 56.824219 205.433594 Z M 56.824219 205.433594 "/>
<g clip-path="url(#clip2)" clip-rule="nonzero">
<path style="fill:none;stroke-width:0.8;stroke-linecap:square;stroke-linejoin:round;stroke:rgb(69.01961%,69.01961%,69.01961%);stroke-opacity:1;stroke-miterlimit:4;" d="M 81.679688 146.900391 L 81.679688 10.998047 " transform="matrix(1.333333,0,0,1.333333,0,0.000000000000014211)"/>
</g>
<path style="fill:none;stroke-width:0.8;stroke-linecap:butt;stroke-linejoin:round;stroke:rgb(0%,0%,0%);stroke-opacity:1;stroke-miterlimit:4;" d="M -0.00062561 0.00117493 L -0.00062561 3.499222 " transform="matrix(1.333333,0,0,1.333333,108.907084,195.865621)"/>
<path style=" stroke:none;fill-rule:nonzero;fill:rgb(0%,0%,0%);fill-opacity:1;" d="M 106.320312 214.222656 L 108.46875 214.222656 L 108.46875 206.808594 L 106.128906 207.277344 L 106.128906 206.078125 L 108.453125 205.609375 L 109.769531 205.609375 L 109.769531 214.222656 L 111.917969 214.222656 L 111.917969 215.332031 L 106.320312 215.332031 Z M 106.320312 214.222656 "/>
<g clip-path="url(#clip3)" clip-rule="nonzero">
<path style="fill:none;stroke-width:0.8;stroke-linecap:square;stroke-linejoin:round;stroke:rgb(69.01961%,69.01961%,69.01961%);stroke-opacity:1;stroke-miterlimit:4;" d="M 120.741211 146.900391 L 120.741211 10.998047 " transform="matrix(1.333333,0,0,1.333333,0,0.000000000000014211)"/>
</g>
<path style="fill:none;stroke-width:0.8;stroke-linecap:butt;stroke-linejoin:round;stroke:rgb(0%,0%,0%);stroke-opacity:1;stroke-miterlimit:4;" d="M 0.000900269 0.00117493 L 0.000900269 3.499222 " transform="matrix(1.333333,0,0,1.333333,160.987081,195.865621)"/>
<path style=" stroke:none;fill-rule:nonzero;fill:rgb(0%,0%,0%);fill-opacity:1;" d="M 159.304688 214.222656 L 163.894531 214.222656 L 163.894531 215.332031 L 157.722656 215.332031 L 157.722656 214.222656 C 158.222656 213.707031 158.902344 213.015625 159.761719 212.144531 C 160.625 211.273438 161.167969 210.710938 161.386719 210.460938 C 161.808594 209.988281 162.101562 209.585938 162.269531 209.257812 C 162.4375 208.929688 162.519531 208.609375 162.519531 208.292969 C 162.519531 207.777344 162.339844 207.355469 161.976562 207.03125 C 161.613281 206.703125 161.140625 206.539062 160.558594 206.539062 C 160.148438 206.539062 159.710938 206.613281 159.253906 206.753906 C 158.796875 206.898438 158.308594 207.117188 157.785156 207.40625 L 157.785156 206.078125 C 158.316406 205.867188 158.8125 205.707031 159.269531 205.597656 C 159.730469 205.488281 160.152344 205.433594 160.535156 205.433594 C 161.542969 205.433594 162.34375 205.6875 162.941406 206.191406 C 163.542969 206.695312 163.839844 207.367188 163.839844 208.207031 C 163.839844 208.605469 163.765625 208.988281 163.617188 209.34375 C 163.46875 209.703125 163.195312 210.125 162.800781 210.609375 C 162.691406 210.734375 162.347656 211.101562 161.765625 211.699219 C 161.183594 212.300781 160.363281 213.144531 159.304688 214.222656 Z M 159.304688 214.222656 "/>
<g clip-path="url(#clip4)" clip-rule="nonzero">
<path style="fill:none;stroke-width:0.8;stroke-linecap:square;stroke-linejoin:round;stroke:rgb(69.01961%,69.01961%,69.01961%);stroke-opacity:1;stroke-miterlimit:4;" d="M 159.799805 146.900391 L 159.799805 10.998047 " transform="matrix(1.333333,0,0,1.333333,0,0.000000000000014211)"/>
</g>
<path style="fill:none;stroke-width:0.8;stroke-linecap:butt;stroke-linejoin:round;stroke:rgb(0%,0%,0%);stroke-opacity:1;stroke-miterlimit:4;" d="M -0.00050354 0.00117493 L -0.00050354 3.499222 " transform="matrix(1.333333,0,0,1.333333,213.067078,195.865621)"/>
<path style=" stroke:none;fill-rule:nonzero;fill:rgb(0%,0%,0%);fill-opacity:1;" d="M 214.234375 210.089844 C 214.863281 210.222656 215.355469 210.503906 215.707031 210.929688 C 216.0625 211.355469 216.238281 211.878906 216.238281 212.503906 C 216.238281 213.464844 215.910156 214.207031 215.25 214.730469 C 214.589844 215.257812 213.652344 215.519531 212.4375 215.519531 C 212.03125 215.519531 211.613281 215.480469 211.179688 215.398438 C 210.746094 215.320312 210.300781 215.199219 209.84375 215.035156 L 209.84375 213.769531 C 210.207031 213.980469 210.605469 214.140625 211.039062 214.25 C 211.472656 214.355469 211.925781 214.410156 212.402344 214.410156 C 213.222656 214.410156 213.851562 214.25 214.285156 213.925781 C 214.714844 213.597656 214.933594 213.125 214.933594 212.503906 C 214.933594 211.929688 214.730469 211.484375 214.328125 211.160156 C 213.929688 210.835938 213.371094 210.675781 212.65625 210.675781 L 211.519531 210.675781 L 211.519531 209.59375 L 212.707031 209.59375 C 213.351562 209.59375 213.847656 209.464844 214.191406 209.207031 C 214.53125 208.949219 214.703125 208.578125 214.703125 208.089844 C 214.703125 207.59375 214.527344 207.210938 214.171875 206.941406 C 213.820312 206.675781 213.3125 206.539062 212.65625 206.539062 C 212.292969 206.539062 211.90625 206.582031 211.496094 206.660156 C 211.082031 206.738281 210.628906 206.859375 210.132812 207.023438 L 210.132812 205.851562 C 210.632812 205.710938 211.101562 205.609375 211.539062 205.539062 C 211.972656 205.46875 212.386719 205.433594 212.769531 205.433594 C 213.769531 205.433594 214.558594 205.660156 215.140625 206.117188 C 215.722656 206.570312 216.011719 207.179688 216.011719 207.953125 C 216.011719 208.492188 215.859375 208.945312 215.550781 209.316406 C 215.242188 209.6875 214.804688 209.945312 214.234375 210.089844 Z M 214.234375 210.089844 "/>
<g clip-path="url(#clip5)" clip-rule="nonzero">
<path style="fill:none;stroke-width:0.8;stroke-linecap:square;stroke-linejoin:round;stroke:rgb(69.01961%,69.01961%,69.01961%);stroke-opacity:1;stroke-miterlimit:4;" d="M 198.861328 146.900391 L 198.861328 10.998047 " transform="matrix(1.333333,0,0,1.333333,0,0.000000000000014211)"/>
</g>
<path style="fill:none;stroke-width:0.8;stroke-linecap:butt;stroke-linejoin:round;stroke:rgb(0%,0%,0%);stroke-opacity:1;stroke-miterlimit:4;" d="M 0.00102234 0.00117493 L 0.00102234 3.499222 " transform="matrix(1.333333,0,0,1.333333,265.147074,195.865621)"/>
<path style=" stroke:none;fill-rule:nonzero;fill:rgb(0%,0%,0%);fill-opacity:1;" d="M 265.945312 206.753906 L 262.625 211.945312 L 265.945312 211.945312 Z M 265.597656 205.609375 L 267.253906 205.609375 L 267.253906 211.945312 L 268.640625 211.945312 L 268.640625 213.039062 L 267.253906 213.039062 L 267.253906 215.332031 L 265.945312 215.332031 L 265.945312 213.039062 L 261.558594 213.039062 L 261.558594 211.769531 Z M 265.597656 205.609375 "/>
<g clip-path="url(#clip6)" clip-rule="nonzero">
<path style="fill:none;stroke-width:0.8;stroke-linecap:square;stroke-linejoin:round;stroke:rgb(69.01961%,69.01961%,69.01961%);stroke-opacity:1;stroke-miterlimit:4;" d="M 237.919922 146.900391 L 237.919922 10.998047 " transform="matrix(1.333333,0,0,1.333333,0,0.000000000000014211)"/>
</g>
<path style="fill:none;stroke-width:0.8;stroke-linecap:butt;stroke-linejoin:round;stroke:rgb(0%,0%,0%);stroke-opacity:1;stroke-miterlimit:4;" d="M -0.000396729 0.00117493 L -0.000396729 3.499222 " transform="matrix(1.333333,0,0,1.333333,317.227091,195.865621)"/>
<path style=" stroke:none;fill-rule:nonzero;fill:rgb(0%,0%,0%);fill-opacity:1;" d="M 314.425781 205.609375 L 319.585938 205.609375 L 319.585938 206.71875 L 315.628906 206.71875 L 315.628906 209.097656 C 315.820312 209.035156 316.007812 208.984375 316.199219 208.953125 C 316.390625 208.921875 316.582031 208.90625 316.773438 208.90625 C 317.859375 208.90625 318.71875 209.203125 319.351562 209.796875 C 319.988281 210.390625 320.304688 211.195312 320.304688 212.210938 C 320.304688 213.257812 319.976562 214.070312 319.328125 214.652344 C 318.675781 215.230469 317.757812 215.519531 316.574219 215.519531 C 316.164062 215.519531 315.75 215.484375 315.324219 215.414062 C 314.902344 215.347656 314.464844 215.242188 314.015625 215.101562 L 314.015625 213.78125 C 314.40625 213.992188 314.808594 214.152344 315.226562 214.253906 C 315.640625 214.359375 316.082031 214.410156 316.546875 214.410156 C 317.296875 214.410156 317.890625 214.214844 318.328125 213.820312 C 318.769531 213.425781 318.988281 212.890625 318.988281 212.210938 C 318.988281 211.535156 318.769531 211 318.328125 210.605469 C 317.890625 210.210938 317.296875 210.011719 316.546875 210.011719 C 316.195312 210.011719 315.84375 210.050781 315.492188 210.128906 C 315.144531 210.207031 314.789062 210.328125 314.425781 210.492188 Z M 314.425781 205.609375 "/>
<path style=" stroke:none;fill-rule:nonzero;fill:rgb(0%,0%,0%);fill-opacity:1;" d="M 190.398438 226.277344 L 187.761719 229.824219 L 190.535156 233.566406 L 189.121094 233.566406 L 187 230.703125 L 184.878906 233.566406 L 183.464844 233.566406 L 186.296875 229.753906 L 183.707031 226.277344 L 185.117188 226.277344 L 187.050781 228.875 L 188.984375 226.277344 Z M 190.398438 226.277344 "/>
<g clip-path="url(#clip7)" clip-rule="nonzero">
<path style="fill:none;stroke-width:0.8;stroke-linecap:square;stroke-linejoin:round;stroke:rgb(69.01961%,69.01961%,69.01961%);stroke-opacity:1;stroke-miterlimit:4;" d="M 42.621094 146.900391 L 237.919922 146.900391 " transform="matrix(1.333333,0,0,1.333333,0,0.000000000000014211)"/>
</g>
<path style="fill:none;stroke-width:0.8;stroke-linecap:butt;stroke-linejoin:round;stroke:rgb(0%,0%,0%);stroke-opacity:1;stroke-miterlimit:4;" d="M 0.000782013 0.00117493 L -3.500195 0.00117493 " transform="matrix(1.333333,0,0,1.333333,56.827082,195.865621)"/>
<path style=" stroke:none;fill-rule:nonzero;fill:rgb(0%,0%,0%);fill-opacity:1;" d="M 29.25 196.199219 L 37.597656 196.199219 L 37.597656 197.304688 L 29.25 197.304688 Z M 29.25 196.199219 "/>
<path style=" stroke:none;fill-rule:nonzero;fill:rgb(0%,0%,0%);fill-opacity:1;" d="M 40.664062 199.824219 L 42.8125 199.824219 L 42.8125 192.410156 L 40.472656 192.878906 L 40.472656 191.679688 L 42.800781 191.210938 L 44.113281 191.210938 L 44.113281 199.824219 L 46.261719 199.824219 L 46.261719 200.929688 L 40.664062 200.929688 Z M 40.664062 199.824219 "/>
<g clip-path="url(#clip8)" clip-rule="nonzero">
<path style="fill:none;stroke-width:0.8;stroke-linecap:square;stroke-linejoin:round;stroke:rgb(69.01961%,69.01961%,69.01961%);stroke-opacity:1;stroke-miterlimit:4;" d="M 42.621094 124.248047 L 237.919922 124.248047 " transform="matrix(1.333333,0,0,1.333333,0,0.000000000000014211)"/>
</g>
<path style="fill:none;stroke-width:0.8;stroke-linecap:butt;stroke-linejoin:round;stroke:rgb(0%,0%,0%);stroke-opacity:1;stroke-miterlimit:4;" d="M 0.000782013 -0.00117493 L -3.500195 -0.00117493 " transform="matrix(1.333333,0,0,1.333333,56.827082,165.665629)"/>
<path style=" stroke:none;fill-rule:nonzero;fill:rgb(0%,0%,0%);fill-opacity:1;" d="M 43.246094 161.878906 C 42.570312 161.878906 42.0625 162.210938 41.722656 162.878906 C 41.378906 163.542969 41.210938 164.542969 41.210938 165.882812 C 41.210938 167.214844 41.378906 168.210938 41.722656 168.878906 C 42.0625 169.546875 42.570312 169.878906 43.246094 169.878906 C 43.929688 169.878906 44.441406 169.546875 44.78125 168.878906 C 45.121094 168.210938 45.292969 167.214844 45.292969 165.882812 C 45.292969 164.542969 45.121094 163.542969 44.78125 162.878906 C 44.441406 162.210938 43.929688 161.878906 43.246094 161.878906 Z M 43.246094 160.835938 C 44.339844 160.835938 45.171875 161.265625 45.746094 162.128906 C 46.320312 162.992188 46.609375 164.242188 46.609375 165.882812 C 46.609375 167.515625 46.320312 168.765625 45.746094 169.628906 C 45.171875 170.492188 44.339844 170.921875 43.246094 170.921875 C 42.160156 170.921875 41.328125 170.492188 40.753906 169.628906 C 40.175781 168.765625 39.890625 167.515625 39.890625 165.882812 C 39.890625 164.242188 40.175781 162.992188 40.753906 162.128906 C 41.328125 161.265625 42.160156 160.835938 43.246094 160.835938 Z M 43.246094 160.835938 "/>
<g clip-path="url(#clip9)" clip-rule="nonzero">
<path style="fill:none;stroke-width:0.8;stroke-linecap:square;stroke-linejoin:round;stroke:rgb(69.01961%,69.01961%,69.01961%);stroke-opacity:1;stroke-miterlimit:4;" d="M 42.621094 101.598633 L 237.919922 101.598633 " transform="matrix(1.333333,0,0,1.333333,0,0.000000000000014211)"/>
</g>
<path style="fill:none;stroke-width:0.8;stroke-linecap:butt;stroke-linejoin:round;stroke:rgb(0%,0%,0%);stroke-opacity:1;stroke-miterlimit:4;" d="M 0.000782013 -0.000587463 L -3.500195 -0.000587463 " transform="matrix(1.333333,0,0,1.333333,56.827082,135.465627)"/>
<path style=" stroke:none;fill-rule:nonzero;fill:rgb(0%,0%,0%);fill-opacity:1;" d="M 40.664062 139.425781 L 42.8125 139.425781 L 42.8125 132.007812 L 40.476562 132.476562 L 40.476562 131.277344 L 42.800781 130.808594 L 44.113281 130.808594 L 44.113281 139.425781 L 46.261719 139.425781 L 46.261719 140.53125 L 40.664062 140.53125 Z M 40.664062 139.425781 "/>
<g clip-path="url(#clip10)" clip-rule="nonzero">
<path style="fill:none;stroke-width:0.8;stroke-linecap:square;stroke-linejoin:round;stroke:rgb(69.01961%,69.01961%,69.01961%);stroke-opacity:1;stroke-miterlimit:4;" d="M 42.621094 78.949219 L 237.919922 78.949219 " transform="matrix(1.333333,0,0,1.333333,0,0.000000000000014211)"/>
</g>
<path style="fill:none;stroke-width:0.8;stroke-linecap:butt;stroke-linejoin:round;stroke:rgb(0%,0%,0%);stroke-opacity:1;stroke-miterlimit:4;" d="M 0.000782013 -0.000000000000014211 L -3.500195 -0.000000000000014211 " transform="matrix(1.333333,0,0,1.333333,56.827082,105.265625)"/>
<path style=" stroke:none;fill-rule:nonzero;fill:rgb(0%,0%,0%);fill-opacity:1;" d="M 41.570312 109.226562 L 46.160156 109.226562 L 46.160156 110.332031 L 39.988281 110.332031 L 39.988281 109.226562 C 40.484375 108.707031 41.164062 108.015625 42.027344 107.144531 C 42.890625 106.273438 43.429688 105.714844 43.652344 105.460938 C 44.074219 104.988281 44.367188 104.589844 44.535156 104.261719 C 44.703125 103.933594 44.785156 103.609375 44.785156 103.292969 C 44.785156 102.777344 44.605469 102.355469 44.242188 102.03125 C 43.878906 101.703125 43.40625 101.542969 42.824219 101.542969 C 42.414062 101.542969 41.976562 101.613281 41.519531 101.757812 C 41.0625 101.898438 40.574219 102.117188 40.050781 102.410156 L 40.050781 101.078125 C 40.582031 100.867188 41.074219 100.707031 41.535156 100.597656 C 41.996094 100.488281 42.417969 100.433594 42.800781 100.433594 C 43.808594 100.433594 44.609375 100.6875 45.207031 101.191406 C 45.808594 101.695312 46.105469 102.367188 46.105469 103.207031 C 46.105469 103.609375 46.03125 103.988281 45.882812 104.347656 C 45.734375 104.703125 45.460938 105.125 45.066406 105.609375 C 44.957031 105.738281 44.609375 106.101562 44.027344 106.703125 C 43.449219 107.304688 42.628906 108.144531 41.570312 109.226562 Z M 41.570312 109.226562 "/>
<g clip-path="url(#clip11)" clip-rule="nonzero">
<path style="fill:none;stroke-width:0.8;stroke-linecap:square;stroke-linejoin:round;stroke:rgb(69.01961%,69.01961%,69.01961%);stroke-opacity:1;stroke-miterlimit:4;" d="M 42.621094 56.299805 L 237.919922 56.299805 " transform="matrix(1.333333,0,0,1.333333,0,0.000000000000014211)"/>
</g>
<path style="fill:none;stroke-width:0.8;stroke-linecap:butt;stroke-linejoin:round;stroke:rgb(0%,0%,0%);stroke-opacity:1;stroke-miterlimit:4;" d="M 0.000782013 0.000587463 L -3.500195 0.000587463 " transform="matrix(1.333333,0,0,1.333333,56.827082,75.065623)"/>
<path style=" stroke:none;fill-rule:nonzero;fill:rgb(0%,0%,0%);fill-opacity:1;" d="M 44.421875 74.890625 C 45.050781 75.023438 45.539062 75.304688 45.894531 75.730469 C 46.246094 76.15625 46.425781 76.679688 46.425781 77.304688 C 46.425781 78.265625 46.09375 79.007812 45.433594 79.535156 C 44.777344 80.058594 43.839844 80.320312 42.621094 80.320312 C 42.214844 80.320312 41.796875 80.28125 41.363281 80.199219 C 40.933594 80.121094 40.488281 80 40.027344 79.835938 L 40.027344 78.570312 C 40.390625 78.78125 40.789062 78.941406 41.222656 79.050781 C 41.65625 79.160156 42.113281 79.210938 42.585938 79.210938 C 43.410156 79.210938 44.035156 79.050781 44.46875 78.726562 C 44.902344 78.398438 45.117188 77.925781 45.117188 77.304688 C 45.117188 76.734375 44.914062 76.285156 44.515625 75.960938 C 44.113281 75.640625 43.554688 75.476562 42.839844 75.476562 L 41.707031 75.476562 L 41.707031 74.394531 L 42.890625 74.394531 C 43.539062 74.394531 44.03125 74.265625 44.375 74.007812 C 44.71875 73.75 44.890625 73.378906 44.890625 72.890625 C 44.890625 72.394531 44.710938 72.011719 44.359375 71.742188 C 44.003906 71.476562 43.5 71.339844 42.839844 71.339844 C 42.476562 71.339844 42.089844 71.382812 41.679688 71.460938 C 41.265625 71.539062 40.8125 71.660156 40.320312 71.824219 L 40.320312 70.652344 C 40.820312 70.511719 41.285156 70.410156 41.722656 70.339844 C 42.160156 70.269531 42.570312 70.234375 42.957031 70.234375 C 43.953125 70.234375 44.746094 70.460938 45.324219 70.917969 C 45.90625 71.371094 46.199219 71.980469 46.199219 72.753906 C 46.199219 73.292969 46.042969 73.746094 45.734375 74.117188 C 45.425781 74.488281 44.988281 74.746094 44.421875 74.890625 Z M 44.421875 74.890625 "/>
<g clip-path="url(#clip12)" clip-rule="nonzero">
<path style="fill:none;stroke-width:0.8;stroke-linecap:square;stroke-linejoin:round;stroke:rgb(69.01961%,69.01961%,69.01961%);stroke-opacity:1;stroke-miterlimit:4;" d="M 42.621094 33.650391 L 237.919922 33.650391 " transform="matrix(1.333333,0,0,1.333333,0,0.000000000000014211)"/>
</g>
<path style="fill:none;stroke-width:0.8;stroke-linecap:butt;stroke-linejoin:round;stroke:rgb(0%,0%,0%);stroke-opacity:1;stroke-miterlimit:4;" d="M 0.000782013 0.00117111 L -3.500195 0.00117111 " transform="matrix(1.333333,0,0,1.333333,56.827082,44.865626)"/>
<path style=" stroke:none;fill-rule:nonzero;fill:rgb(0%,0%,0%);fill-opacity:1;" d="M 44.050781 41.355469 L 40.730469 46.546875 L 44.050781 46.546875 Z M 43.703125 40.210938 L 45.359375 40.210938 L 45.359375 46.546875 L 46.746094 46.546875 L 46.746094 47.640625 L 45.359375 47.640625 L 45.359375 49.929688 L 44.050781 49.929688 L 44.050781 47.640625 L 39.664062 47.640625 L 39.664062 46.371094 Z M 43.703125 40.210938 "/>
<g clip-path="url(#clip13)" clip-rule="nonzero">
<path style="fill:none;stroke-width:0.8;stroke-linecap:square;stroke-linejoin:round;stroke:rgb(69.01961%,69.01961%,69.01961%);stroke-opacity:1;stroke-miterlimit:4;" d="M 42.621094 10.998047 L 237.919922 10.998047 " transform="matrix(1.333333,0,0,1.333333,0,0.000000000000014211)"/>
</g>
<path style="fill:none;stroke-width:0.8;stroke-linecap:butt;stroke-linejoin:round;stroke:rgb(0%,0%,0%);stroke-opacity:1;stroke-miterlimit:4;" d="M 0.000782013 -0.00117207 L -3.500195 -0.00117207 " transform="matrix(1.333333,0,0,1.333333,56.827082,14.665625)"/>
<path style=" stroke:none;fill-rule:nonzero;fill:rgb(0%,0%,0%);fill-opacity:1;" d="M 40.449219 10.011719 L 45.613281 10.011719 L 45.613281 11.117188 L 41.652344 11.117188 L 41.652344 13.5 C 41.84375 13.433594 42.035156 13.386719 42.226562 13.355469 C 42.417969 13.320312 42.609375 13.304688 42.800781 13.304688 C 43.882812 13.304688 44.742188 13.601562 45.378906 14.199219 C 46.011719 14.792969 46.328125 15.597656 46.328125 16.613281 C 46.328125 17.660156 46.003906 18.472656 45.351562 19.050781 C 44.699219 19.632812 43.78125 19.921875 42.597656 19.921875 C 42.191406 19.921875 41.773438 19.886719 41.351562 19.816406 C 40.929688 19.746094 40.492188 19.644531 40.039062 19.503906 L 40.039062 18.179688 C 40.429688 18.394531 40.832031 18.550781 41.25 18.65625 C 41.667969 18.761719 42.105469 18.8125 42.570312 18.8125 C 43.320312 18.8125 43.917969 18.617188 44.355469 18.222656 C 44.792969 17.828125 45.011719 17.289062 45.011719 16.613281 C 45.011719 15.9375 44.792969 15.402344 44.355469 15.007812 C 43.917969 14.609375 43.320312 14.414062 42.570312 14.414062 C 42.21875 14.414062 41.867188 14.453125 41.519531 14.527344 C 41.171875 14.605469 40.8125 14.726562 40.449219 14.894531 Z M 40.449219 10.011719 "/>
<path style=" stroke:none;fill-rule:nonzero;fill:rgb(0%,0%,0%);fill-opacity:1;" d="M 20.410156 104.921875 C 21.277344 105.257812 21.84375 105.589844 22.105469 105.910156 C 22.371094 106.230469 22.503906 106.660156 22.503906 107.199219 L 22.503906 108.15625 L 21.503906 108.15625 L 21.503906 107.453125 C 21.503906 107.125 21.421875 106.867188 21.265625 106.6875 C 21.109375 106.503906 20.742188 106.300781 20.160156 106.082031 L 19.613281 105.867188 L 12.441406 108.8125 L 12.441406 107.542969 L 18.140625 105.265625 L 12.441406 102.988281 L 12.441406 101.71875 Z M 20.410156 104.921875 "/>
<g clip-path="url(#clip14)" clip-rule="nonzero">
<path style="fill:none;stroke-width:1.5;stroke-linecap:square;stroke-linejoin:round;stroke:rgb(12.156863%,46.666667%,70.588237%);stroke-opacity:1;stroke-miterlimit:4;" d="M 42.621094 124.248047 L 46.526367 116.135742 L 50.431641 108.999023 L 54.336914 102.216797 L 58.245117 95.727539 L 62.150391 89.522461 L 66.055664 83.619141 L 69.960938 78.038086 L 73.869141 72.805664 L 77.774414 67.945312 L 81.679688 63.480469 L 85.584961 59.431641 L 89.493164 55.822266 L 93.398438 52.661133 L 97.303711 49.962891 L 101.208984 47.733398 L 105.117188 45.978516 L 109.022461 44.698242 L 112.927734 43.886719 L 116.833008 43.532227 L 120.741211 43.623047 L 124.646484 44.141602 L 128.551758 45.064453 L 132.457031 46.368164 L 136.365234 48.023437 L 140.270508 49.995117 L 144.175781 52.250977 L 148.081055 54.75293 L 151.989258 57.457031 L 155.894531 60.325195 L 159.799805 63.310547 L 163.705078 66.369141 L 167.613281 69.457031 L 171.518555 72.527344 L 175.423828 75.533203 L 179.329102 78.433594 L 183.237305 81.18457 L 187.142578 83.739258 L 191.047852 86.06543 L 194.953125 88.119141 L 198.861328 89.871094 L 202.766602 91.286133 L 206.671875 92.337891 L 210.577148 93 L 214.485352 93.254883 L 218.390625 93.084961 L 222.295898 92.478516 L 226.201172 91.429687 L 230.109375 89.932617 L 234.014648 87.990234 " transform="matrix(1.333333,0,0,1.333333,0,0.000000000000014211)"/>
</g>
<g clip-path="url(#clip15)" clip-rule="nonzero">
<path style="fill:none;stroke-width:1.5;stroke-linecap:butt;stroke-linejoin:round;stroke:rgb(74.901962%,0%,74.901962%);stroke-opacity:1;stroke-dasharray:5.55,2.4;stroke-miterlimit:4;" d="M 42.621094 76.564453 L 46.526367 75.547852 L 50.431641 74.510742 L 54.336914 73.453125 L 58.245117 72.37793 L 62.150391 71.285156 L 66.055664 70.183594 L 69.960938 69.076172 L 73.869141 67.96875 L 77.774414 66.870117 L 81.679688 65.789062 L 85.584961 64.737305 L 89.493164 63.729492 L 93.398438 62.783203 L 97.303711 61.913086 L 101.208984 61.139648 L 105.117188 60.483398 L 109.022461 59.961914 L 112.927734 59.595703 L 116.833008 59.396484 L 120.741211 59.378906 L 124.646484 59.551758 L 128.551758 59.915039 L 132.457031 60.462891 L 136.365234 61.186523 L 140.270508 62.068359 L 144.175781 63.09082 L 148.081055 64.227539 L 151.989258 65.452148 L 155.894531 66.744141 L 159.799805 68.071289 L 163.705078 69.413086 L 167.613281 70.751953 L 171.518555 72.064453 L 175.423828 73.335937 L 179.329102 74.560547 L 183.237305 75.720703 L 187.142578 76.816406 L 191.047852 77.841797 L 194.953125 78.793945 L 198.861328 79.669922 L 202.766602 80.472656 L 206.671875 81.202148 L 210.577148 81.864258 L 214.485352 82.456055 L 218.390625 82.983398 L 222.295898 83.452148 L 226.201172 83.862305 L 230.109375 84.216797 L 234.014648 84.521484 " transform="matrix(1.333333,0,0,1.333333,0,0.000000000000014211)"/>
</g>
<g clip-path="url(#clip16)" clip-rule="nonzero">
<path style=" stroke:none;fill-rule:nonzero;fill:rgb(100%,49.803922%,5.490196%);fill-opacity:0.501961;" d="M 59.382812 158.253906 C 60.445312 158.253906 61.460938 157.835938 62.210938 157.082031 C 62.960938 156.332031 63.382812 155.316406 63.382812 154.253906 C 63.382812 153.195312 62.960938 152.175781 62.210938 151.425781 C 61.460938 150.675781 60.445312 150.253906 59.382812 150.253906 C 58.324219 150.253906 57.304688 150.675781 56.554688 151.425781 C 55.804688 152.175781 55.382812 153.195312 55.382812 154.253906 C 55.382812 155.316406 55.804688 156.332031 56.554688 157.082031 C 57.304688 157.835938 58.324219 158.253906 59.382812 158.253906 Z M 59.382812 158.253906 "/>
</g>
<g clip-path="url(#clip17)" clip-rule="nonzero">
<path style="fill:none;stroke-width:1;stroke-linecap:butt;stroke-linejoin:round;stroke:rgb(100%,49.803922%,5.490196%);stroke-opacity:0.501961;stroke-miterlimit:4;" d="M -0.000370026 2.998817 C 0.796505 2.998817 1.558224 2.685341 2.120724 2.119911 C 2.683224 1.557411 2.99963 0.795692 2.99963 -0.00118256 C 2.99963 -0.795128 2.683224 -1.559776 2.120724 -2.122276 C 1.558224 -2.684776 0.796505 -3.001183 -0.000370026 -3.001183 C -0.794315 -3.001183 -1.558964 -2.684776 -2.121464 -2.122276 C -2.683964 -1.559776 -3.00037 -0.795128 -3.00037 -0.00118256 C -3.00037 0.795692 -2.683964 1.557411 -2.121464 2.119911 C -1.558964 2.685341 -0.794315 2.998817 -0.000370026 2.998817 Z M -0.000370026 2.998817 " transform="matrix(1.333333,0,0,1.333333,59.383306,154.255483)"/>
</g>
<path style="fill-rule:nonzero;fill:rgb(100%,49.803922%,5.490196%);fill-opacity:0.501961;stroke-width:1;stroke-linecap:butt;stroke-linejoin:round;stroke:rgb(100%,49.803922%,5.490196%);stroke-opacity:0.501961;stroke-miterlimit:4;" d="M 0.000423431 2.999504 C 0.794369 2.999504 1.559017 2.683098 2.121517 2.120598 C 2.684017 1.558098 3.000423 0.796379 3.000423 -0.000495911 C 3.000423 -0.794441 2.684017 -1.55909 2.121517 -2.12159 C 1.559017 -2.68409 0.794369 -3.000496 0.000423431 -3.000496 C -0.796452 -3.000496 -1.55817 -2.68409 -2.12067 -2.12159 C -2.68317 -1.55909 -2.999577 -0.794441 -2.999577 -0.000495911 C -2.999577 0.796379 -2.68317 1.558098 -2.12067 2.120598 C -1.55817 2.683098 -0.796452 2.999504 0.000423431 2.999504 Z M 0.000423431 2.999504 " transform="matrix(1.333333,0,0,1.333333,71.26506,126.992849)"/>
<path style="fill-rule:nonzero;fill:rgb(100%,49.803922%,5.490196%);fill-opacity:0.501961;stroke-width:1;stroke-linecap:butt;stroke-linejoin:round;stroke:rgb(100%,49.803922%,5.490196%);stroke-opacity:0.501961;stroke-miterlimit:4;" d="M -0.00110626 2.999725 C 0.795769 2.999725 1.557487 2.683319 2.119987 2.120819 C 2.682487 1.558319 2.998894 0.7966 2.998894 -0.000274658 C 2.998894 -0.79422 2.682487 -1.558868 2.119987 -2.121368 C 1.557487 -2.683868 0.795769 -3.000275 -0.00110626 -3.000275 C -0.795052 -3.000275 -1.5597 -2.683868 -2.1222 -2.121368 C -2.6847 -1.558868 -3.001106 -0.79422 -3.001106 -0.000274658 C -3.001106 0.7966 -2.6847 1.558319 -2.1222 2.120819 C -1.5597 2.683319 -0.795052 2.999725 -0.00110626 2.999725 Z M -0.00110626 2.999725 " transform="matrix(1.333333,0,0,1.333333,71.274913,136.008179)"/>
<path style="fill-rule:nonzero;fill:rgb(100%,49.803922%,5.490196%);fill-opacity:0.501961;stroke-width:1;stroke-linecap:butt;stroke-linejoin:round;stroke:rgb(100%,49.803922%,5.490196%);stroke-opacity:0.501961;stroke-miterlimit:4;" d="M 0.000282288 3.000702 C 0.794228 3.000702 1.558876 2.684296 2.121376 2.121796 C 2.683876 1.559296 3.000282 0.794647 3.000282 0.000701904 C 3.000282 -0.796173 2.683876 -1.557892 2.121376 -2.120392 C 1.558876 -2.682892 0.794228 -2.999298 0.000282288 -2.999298 C -0.796593 -2.999298 -1.558311 -2.682892 -2.120811 -2.120392 C -2.683311 -1.557892 -2.999718 -0.796173 -2.999718 0.000701904 C -2.999718 0.794647 -2.683311 1.559296 -2.120811 2.121796 C -1.558311 2.684296 -0.796593 3.000702 0.000282288 3.000702 Z M 0.000282288 3.000702 " transform="matrix(1.333333,0,0,1.333333,81.765249,108.50297)"/>
<path style="fill-rule:nonzero;fill:rgb(100%,49.803922%,5.490196%);fill-opacity:0.501961;stroke-width:1;stroke-linecap:butt;stroke-linejoin:round;stroke:rgb(100%,49.803922%,5.490196%);stroke-opacity:0.501961;stroke-miterlimit:4;" d="M 0.0013237 2.999916 C 0.795269 2.999916 1.559917 2.68351 2.122417 2.12101 C 2.684917 1.55851 3.001324 0.796791 3.001324 -0.0000839233 C 3.001324 -0.796959 2.684917 -1.558678 2.122417 -2.121178 C 1.559917 -2.683678 0.795269 -3.000084 0.0013237 -3.000084 C -0.795551 -3.000084 -1.5602 -2.683678 -2.1227 -2.121178 C -2.6852 -1.558678 -2.998676 -0.796959 -2.998676 -0.0000839233 C -2.998676 0.796791 -2.6852 1.55851 -2.1227 2.12101 C -1.5602 2.68351 -0.795551 2.999916 0.0013237 2.999916 Z M 0.0013237 2.999916 " transform="matrix(1.333333,0,0,1.333333,82.631048,139.980581)"/>
<path style="fill-rule:nonzero;fill:rgb(100%,49.803922%,5.490196%);fill-opacity:0.501961;stroke-width:1;stroke-linecap:butt;stroke-linejoin:round;stroke:rgb(100%,49.803922%,5.490196%);stroke-opacity:0.501961;stroke-miterlimit:4;" d="M 0.00136566 2.999802 C 0.795311 2.999802 1.559959 2.683395 2.122459 2.120895 C 2.684959 1.558395 3.001366 0.796677 3.001366 -0.000198364 C 3.001366 -0.797073 2.684959 -1.558792 2.122459 -2.121292 C 1.559959 -2.683792 0.795311 -3.000198 0.00136566 -3.000198 C -0.795509 -3.000198 -1.560158 -2.683792 -2.122658 -2.121292 C -2.685158 -1.558792 -2.998634 -0.797073 -2.998634 -0.000198364 C -2.998634 0.796677 -2.685158 1.558395 -2.122658 2.120895 C -1.560158 2.683395 -0.795509 2.999802 0.00136566 2.999802 Z M 0.00136566 2.999802 " transform="matrix(1.333333,0,0,1.333333,89.646617,131.375264)"/>
<path style="fill-rule:nonzero;fill:rgb(100%,49.803922%,5.490196%);fill-opacity:0.501961;stroke-width:1;stroke-linecap:butt;stroke-linejoin:round;stroke:rgb(100%,49.803922%,5.490196%);stroke-opacity:0.501961;stroke-miterlimit:4;" d="M 0.000793457 2.99865 C 0.794739 2.99865 1.559387 2.685173 2.121887 2.122673 C 2.684387 1.560173 3.000793 0.795525 3.000793 -0.0013504 C 3.000793 -0.795296 2.684387 -1.559944 2.121887 -2.122444 C 1.559387 -2.684944 0.794739 -3.00135 0.000793457 -3.00135 C -0.796082 -3.00135 -1.5578 -2.684944 -2.1203 -2.122444 C -2.6828 -1.559944 -2.999207 -0.795296 -2.999207 -0.0013504 C -2.999207 0.795525 -2.6828 1.560173 -2.1203 2.122673 C -1.5578 2.685173 -0.796082 2.99865 0.000793457 2.99865 Z M 0.000793457 2.99865 " transform="matrix(1.333333,0,0,1.333333,96.983317,89.380707)"/>
<path style="fill-rule:nonzero;fill:rgb(100%,49.803922%,5.490196%);fill-opacity:0.501961;stroke-width:1;stroke-linecap:butt;stroke-linejoin:round;stroke:rgb(100%,49.803922%,5.490196%);stroke-opacity:0.501961;stroke-miterlimit:4;" d="M -0.00063324 3.001087 C 0.796242 3.001087 1.557961 2.684681 2.120461 2.122181 C 2.682961 1.559681 2.999367 0.795033 2.999367 0.00108719 C 2.999367 -0.795788 2.682961 -1.557507 2.120461 -2.120007 C 1.557961 -2.682507 0.796242 -2.998913 -0.00063324 -2.998913 C -0.794579 -2.998913 -1.559227 -2.682507 -2.121727 -2.120007 C -2.684227 -1.557507 -3.000633 -0.795788 -3.000633 0.00108719 C -3.000633 0.795033 -2.684227 1.559681 -2.121727 2.122181 C -1.559227 2.684681 -0.794579 3.001087 -0.00063324 3.001087 Z M -0.00063324 3.001087 " transform="matrix(1.333333,0,0,1.333333,98.700063,78.006363)"/>
<path style="fill-rule:nonzero;fill:rgb(100%,49.803922%,5.490196%);fill-opacity:0.501961;stroke-width:1;stroke-linecap:butt;stroke-linejoin:round;stroke:rgb(100%,49.803922%,5.490196%);stroke-opacity:0.501961;stroke-miterlimit:4;" d="M 0.000991821 2.999443 C 0.794937 2.999443 1.559586 2.683037 2.122086 2.120537 C 2.684586 1.558037 3.000992 0.796318 3.000992 -0.000556946 C 3.000992 -0.794502 2.684586 -1.559151 2.122086 -2.121651 C 1.559586 -2.684151 0.794937 -3.000557 0.000991821 -3.000557 C -0.795883 -3.000557 -1.557602 -2.684151 -2.120102 -2.121651 C -2.682602 -1.559151 -2.999008 -0.794502 -2.999008 -0.000556946 C -2.999008 0.796318 -2.682602 1.558037 -2.120102 2.120537 C -1.557602 2.683037 -0.795883 2.999443 0.000991821 2.999443 Z M 0.000991821 2.999443 " transform="matrix(1.333333,0,0,1.333333,99.236959,98.039805)"/>
<path style="fill-rule:nonzero;fill:rgb(100%,49.803922%,5.490196%);fill-opacity:0.501961;stroke-width:1;stroke-linecap:butt;stroke-linejoin:round;stroke:rgb(100%,49.803922%,5.490196%);stroke-opacity:0.501961;stroke-miterlimit:4;" d="M 0.000350952 2.999466 C 0.794296 2.999466 1.558945 2.68306 2.121445 2.12056 C 2.683945 1.55806 3.000351 0.796341 3.000351 -0.000534058 C 3.000351 -0.794479 2.683945 -1.559128 2.121445 -2.121628 C 1.558945 -2.684128 0.794296 -3.000534 0.000350952 -3.000534 C -0.796524 -3.000534 -1.558243 -2.684128 -2.120743 -2.121628 C -2.683243 -1.559128 -2.999649 -0.794479 -2.999649 -0.000534058 C -2.999649 0.796341 -2.683243 1.55806 -2.120743 2.12056 C -1.558243 2.68306 -0.796524 2.999466 0.000350952 2.999466 Z M 0.000350952 2.999466 " transform="matrix(1.333333,0,0,1.333333,99.605001,70.684306)"/>
<path style="fill-rule:nonzero;fill:rgb(100%,49.803922%,5.490196%);fill-opacity:0.501961;stroke-width:1;stroke-linecap:butt;stroke-linejoin:round;stroke:rgb(100%,49.803922%,5.490196%);stroke-opacity:0.501961;stroke-miterlimit:4;" d="M 0.000938416 2.998898 C 0.794884 2.998898 1.559532 2.682491 2.122032 2.119991 C 2.684532 1.557491 3.000938 0.795773 3.000938 -0.00110245 C 3.000938 -0.795048 2.684532 -1.559696 2.122032 -2.122196 C 1.559532 -2.684696 0.794884 -3.001102 0.000938416 -3.001102 C -0.795937 -3.001102 -1.557655 -2.684696 -2.120155 -2.122196 C -2.682655 -1.559696 -2.999062 -0.795048 -2.999062 -0.00110245 C -2.999062 0.795773 -2.682655 1.557491 -2.120155 2.119991 C -1.557655 2.682491 -0.795937 2.998898 0.000938416 2.998898 Z M 0.000938416 2.998898 " transform="matrix(1.333333,0,0,1.333333,105.307343,74.06397)"/>
<path style="fill-rule:nonzero;fill:rgb(100%,49.803922%,5.490196%);fill-opacity:0.501961;stroke-width:1;stroke-linecap:butt;stroke-linejoin:round;stroke:rgb(100%,49.803922%,5.490196%);stroke-opacity:0.501961;stroke-miterlimit:4;" d="M -0.000335693 3.000465 C 0.796539 3.000465 1.558258 2.684059 2.120758 2.121559 C 2.683258 1.559059 2.999664 0.794411 2.999664 0.000465393 C 2.999664 -0.79641 2.683258 -1.558128 2.120758 -2.120628 C 1.558258 -2.683128 0.796539 -2.999535 -0.000335693 -2.999535 C -0.794281 -2.999535 -1.558929 -2.683128 -2.121429 -2.120628 C -2.683929 -1.558128 -3.000336 -0.79641 -3.000336 0.000465393 C -3.000336 0.794411 -2.683929 1.559059 -2.121429 2.121559 C -1.558929 2.684059 -0.794281 3.000465 -0.000335693 3.000465 Z M -0.000335693 3.000465 " transform="matrix(1.333333,0,0,1.333333,105.613729,108.936879)"/>
<path style="fill-rule:nonzero;fill:rgb(100%,49.803922%,5.490196%);fill-opacity:0.501961;stroke-width:1;stroke-linecap:butt;stroke-linejoin:round;stroke:rgb(100%,49.803922%,5.490196%);stroke-opacity:0.501961;stroke-miterlimit:4;" d="M -0.000801086 3.000206 C 0.796074 3.000206 1.557793 2.6838 2.120293 2.1213 C 2.682793 1.5588 2.999199 0.794151 2.999199 0.000205994 C 2.999199 -0.796669 2.682793 -1.558388 2.120293 -2.120888 C 1.557793 -2.683388 0.796074 -2.999794 -0.000801086 -2.999794 C -0.794746 -2.999794 -1.559395 -2.683388 -2.121895 -2.120888 C -2.684395 -1.558388 -3.000801 -0.796669 -3.000801 0.000205994 C -3.000801 0.794151 -2.684395 1.5588 -2.121895 2.1213 C -1.559395 2.6838 -0.794746 3.000206 -0.000801086 3.000206 Z M -0.000801086 3.000206 " transform="matrix(1.333333,0,0,1.333333,107.098724,77.210663)"/>
<path style="fill-rule:nonzero;fill:rgb(100%,49.803922%,5.490196%);fill-opacity:0.501961;stroke-width:1;stroke-linecap:butt;stroke-linejoin:round;stroke:rgb(100%,49.803922%,5.490196%);stroke-opacity:0.501961;stroke-miterlimit:4;" d="M 0.000854492 3.001144 C 0.7948 3.001144 1.559448 2.684738 2.121948 2.122238 C 2.684448 1.559738 3.000854 0.79509 3.000854 0.00114441 C 3.000854 -0.795731 2.684448 -1.557449 2.121948 -2.119949 C 1.559448 -2.682449 0.7948 -2.998856 0.000854492 -2.998856 C -0.796021 -2.998856 -1.557739 -2.682449 -2.120239 -2.119949 C -2.682739 -1.557449 -2.999146 -0.795731 -2.999146 0.00114441 C -2.999146 0.79509 -2.682739 1.559738 -2.120239 2.122238 C -1.557739 2.684738 -0.796021 3.001144 0.000854492 3.001144 Z M 0.000854492 3.001144 " transform="matrix(1.333333,0,0,1.333333,126.205892,67.435974)"/>
<path style="fill-rule:nonzero;fill:rgb(100%,49.803922%,5.490196%);fill-opacity:0.501961;stroke-width:1;stroke-linecap:butt;stroke-linejoin:round;stroke:rgb(100%,49.803922%,5.490196%);stroke-opacity:0.501961;stroke-miterlimit:4;" d="M 0.000495911 3.001358 C 0.794441 3.001358 1.55909 2.684952 2.12159 2.122452 C 2.68409 1.559952 3.000496 0.795303 3.000496 0.00135803 C 3.000496 -0.795517 2.68409 -1.560165 2.12159 -2.122665 C 1.55909 -2.685165 0.794441 -2.998642 0.000495911 -2.998642 C -0.796379 -2.998642 -1.558098 -2.685165 -2.120598 -2.122665 C -2.683098 -1.560165 -2.999504 -0.795517 -2.999504 0.00135803 C -2.999504 0.795303 -2.683098 1.559952 -2.120598 2.122452 C -1.558098 2.684952 -0.796379 3.001358 0.000495911 3.001358 Z M 0.000495911 3.001358 " transform="matrix(1.333333,0,0,1.333333,131.292308,85.377096)"/>
<path style="fill-rule:nonzero;fill:rgb(100%,49.803922%,5.490196%);fill-opacity:0.501961;stroke-width:1;stroke-linecap:butt;stroke-linejoin:round;stroke:rgb(100%,49.803922%,5.490196%);stroke-opacity:0.501961;stroke-miterlimit:4;" d="M -0.0014267 3.000957 C 0.795448 3.000957 1.560097 2.684551 2.122597 2.122051 C 2.685097 1.559551 2.998573 0.794903 2.998573 0.000957489 C 2.998573 -0.795918 2.685097 -1.557636 2.122597 -2.120136 C 1.560097 -2.682636 0.795448 -2.999043 -0.0014267 -2.999043 C -0.795372 -2.999043 -1.56002 -2.682636 -2.12252 -2.120136 C -2.68502 -1.557636 -3.001427 -0.795918 -3.001427 0.000957489 C -3.001427 0.794903 -2.68502 1.559551 -2.12252 2.122051 C -1.56002 2.684551 -0.795372 3.000957 -0.0014267 3.000957 Z M -0.0014267 3.000957 " transform="matrix(1.333333,0,0,1.333333,134.099559,69.264348)"/>
<path style="fill-rule:nonzero;fill:rgb(100%,49.803922%,5.490196%);fill-opacity:0.501961;stroke-width:1;stroke-linecap:butt;stroke-linejoin:round;stroke:rgb(100%,49.803922%,5.490196%);stroke-opacity:0.501961;stroke-miterlimit:4;" d="M 0.000198364 2.99968 C 0.797073 2.99968 1.558792 2.683273 2.121292 2.120773 C 2.683792 1.558273 3.000198 0.796555 3.000198 -0.000320435 C 3.000198 -0.794266 2.683792 -1.558914 2.121292 -2.121414 C 1.558792 -2.683914 0.797073 -3.00032 0.000198364 -3.00032 C -0.796677 -3.00032 -1.558395 -2.683914 -2.120895 -2.121414 C -2.683395 -1.558914 -2.999802 -0.794266 -2.999802 -0.000320435 C -2.999802 0.796555 -2.683395 1.558273 -2.120895 2.120773 C -1.558395 2.683273 -0.796677 2.99968 0.000198364 2.99968 Z M 0.000198364 2.99968 " transform="matrix(1.333333,0,0,1.333333,137.519267,67.000427)"/>
<path style="fill-rule:nonzero;fill:rgb(100%,49.803922%,5.490196%);fill-opacity:0.501961;stroke-width:1;stroke-linecap:butt;stroke-linejoin:round;stroke:rgb(100%,49.803922%,5.490196%);stroke-opacity:0.501961;stroke-miterlimit:4;" d="M -0.00132751 3.001091 C 0.795547 3.001091 1.560196 2.684685 2.122696 2.122185 C 2.685196 1.559685 2.998672 0.795036 2.998672 0.001091 C 2.998672 -0.795784 2.685196 -1.557503 2.122696 -2.120003 C 1.560196 -2.682503 0.795547 -2.998909 -0.00132751 -2.998909 C -0.795273 -2.998909 -1.559921 -2.682503 -2.122421 -2.120003 C -2.684921 -1.557503 -3.001328 -0.795784 -3.001328 0.001091 C -3.001328 0.795036 -2.684921 1.559685 -2.122421 2.122185 C -1.559921 2.684685 -0.795273 3.001091 -0.00132751 3.001091 Z M -0.00132751 3.001091 " transform="matrix(1.333333,0,0,1.333333,138.47052,54.041514)"/>
<path style="fill-rule:nonzero;fill:rgb(100%,49.803922%,5.490196%);fill-opacity:0.501961;stroke-width:1;stroke-linecap:butt;stroke-linejoin:round;stroke:rgb(100%,49.803922%,5.490196%);stroke-opacity:0.501961;stroke-miterlimit:4;" d="M -0.00109863 2.998959 C 0.795776 2.998959 1.557495 2.682552 2.119995 2.120052 C 2.682495 1.557552 2.998901 0.795834 2.998901 -0.00104141 C 2.998901 -0.794987 2.682495 -1.559635 2.119995 -2.122135 C 1.557495 -2.684635 0.795776 -3.001041 -0.00109863 -3.001041 C -0.795044 -3.001041 -1.559692 -2.684635 -2.122192 -2.122135 C -2.684692 -1.559635 -3.001099 -0.794987 -3.001099 -0.00104141 C -3.001099 0.795834 -2.684692 1.557552 -2.122192 2.120052 C -1.559692 2.682552 -0.795044 2.998959 -0.00109863 2.998959 Z M -0.00109863 2.998959 " transform="matrix(1.333333,0,0,1.333333,153.294434,34.841232)"/>
<path style="fill-rule:nonzero;fill:rgb(100%,49.803922%,5.490196%);fill-opacity:0.501961;stroke-width:1;stroke-linecap:butt;stroke-linejoin:round;stroke:rgb(100%,49.803922%,5.490196%);stroke-opacity:0.501961;stroke-miterlimit:4;" d="M -0.000976562 3.000443 C 0.795898 3.000443 1.557617 2.684036 2.120117 2.121536 C 2.682617 1.559036 2.999023 0.794388 2.999023 0.000442505 C 2.999023 -0.796432 2.682617 -1.558151 2.120117 -2.120651 C 1.557617 -2.683151 0.795898 -2.999557 -0.000976562 -2.999557 C -0.794922 -2.999557 -1.55957 -2.683151 -2.12207 -2.120651 C -2.68457 -1.558151 -3.000977 -0.796432 -3.000977 0.000442505 C -3.000977 0.794388 -2.68457 1.559036 -2.12207 2.121536 C -1.55957 2.684036 -0.794922 3.000443 -0.000976562 3.000443 Z M -0.000976562 3.000443 " transform="matrix(1.333333,0,0,1.333333,154.657552,35.800191)"/>
<path style="fill-rule:nonzero;fill:rgb(100%,49.803922%,5.490196%);fill-opacity:0.501961;stroke-width:1;stroke-linecap:butt;stroke-linejoin:round;stroke:rgb(100%,49.803922%,5.490196%);stroke-opacity:0.501961;stroke-miterlimit:4;" d="M 0.000930786 3.000549 C 0.794876 3.000549 1.559525 2.684143 2.122025 2.121643 C 2.684525 1.559143 3.000931 0.794495 3.000931 0.000549316 C 3.000931 -0.796326 2.684525 -1.558044 2.122025 -2.120544 C 1.559525 -2.683044 0.794876 -2.999451 0.000930786 -2.999451 C -0.795944 -2.999451 -1.557663 -2.683044 -2.120163 -2.120544 C -2.682663 -1.558044 -2.999069 -0.796326 -2.999069 0.000549316 C -2.999069 0.794495 -2.682663 1.559143 -2.120163 2.121643 C -1.557663 2.684143 -0.795944 3.000549 0.000930786 3.000549 Z M 0.000930786 3.000549 " transform="matrix(1.333333,0,0,1.333333,170.920634,66.561768)"/>
<path style="fill-rule:nonzero;fill:rgb(100%,49.803922%,5.490196%);fill-opacity:0.501961;stroke-width:1;stroke-linecap:butt;stroke-linejoin:round;stroke:rgb(100%,49.803922%,5.490196%);stroke-opacity:0.501961;stroke-miterlimit:4;" d="M -0.000717163 3.001278 C 0.796158 3.001278 1.557877 2.684872 2.120377 2.122372 C 2.682877 1.559872 2.999283 0.795223 2.999283 0.00127792 C 2.999283 -0.795597 2.682877 -1.557316 2.120377 -2.122746 C 1.557877 -2.685246 0.796158 -2.998722 -0.000717163 -2.998722 C -0.794662 -2.998722 -1.559311 -2.685246 -2.121811 -2.122746 C -2.684311 -1.557316 -3.000717 -0.795597 -3.000717 0.00127792 C -3.000717 0.795223 -2.684311 1.559872 -2.121811 2.122372 C -1.559311 2.684872 -0.794662 3.001278 -0.000717163 3.001278 Z M -0.000717163 3.001278 " transform="matrix(1.333333,0,0,1.333333,178.168925,65.595952)"/>
<path style="fill-rule:nonzero;fill:rgb(100%,49.803922%,5.490196%);fill-opacity:0.501961;stroke-width:1;stroke-linecap:butt;stroke-linejoin:round;stroke:rgb(100%,49.803922%,5.490196%);stroke-opacity:0.501961;stroke-miterlimit:4;" d="M 0.00088501 2.99984 C 0.79483 2.99984 1.559479 2.683434 2.121979 2.120934 C 2.684479 1.558434 3.000885 0.796715 3.000885 -0.000160217 C 3.000885 -0.797035 2.684479 -1.558754 2.121979 -2.121254 C 1.559479 -2.683754 0.79483 -3.00016 0.00088501 -3.00016 C -0.79599 -3.00016 -1.557709 -2.683754 -2.120209 -2.121254 C -2.682709 -1.558754 -2.999115 -0.797035 -2.999115 -0.000160217 C -2.999115 0.796715 -2.682709 1.558434 -2.120209 2.120934 C -1.557709 2.683434 -0.79599 2.99984 0.00088501 2.99984 Z M 0.00088501 2.99984 " transform="matrix(1.333333,0,0,1.333333,193.131632,51.304901)"/>
<path style="fill-rule:nonzero;fill:rgb(100%,49.803922%,5.490196%);fill-opacity:0.501961;stroke-width:1;stroke-linecap:butt;stroke-linejoin:round;stroke:rgb(100%,49.803922%,5.490196%);stroke-opacity:0.501961;stroke-miterlimit:4;" d="M 0.00120544 2.999817 C 0.795151 2.999817 1.559799 2.683411 2.122299 2.120911 C 2.684799 1.558411 3.001205 0.796692 3.001205 -0.000183105 C 3.001205 -0.797058 2.684799 -1.558777 2.122299 -2.121277 C 1.559799 -2.683777 0.795151 -3.000183 0.00120544 -3.000183 C -0.79567 -3.000183 -1.557388 -2.683777 -2.119888 -2.121277 C -2.685318 -1.558777 -2.998795 -0.797058 -2.998795 -0.000183105 C -2.998795 0.796692 -2.685318 1.558411 -2.119888 2.120911 C -1.557388 2.683411 -0.79567 2.999817 0.00120544 2.999817 Z M 0.00120544 2.999817 " transform="matrix(1.333333,0,0,1.333333,193.510111,59.402588)"/>
<path style="fill-rule:nonzero;fill:rgb(100%,49.803922%,5.490196%);fill-opacity:0.501961;stroke-width:1;stroke-linecap:butt;stroke-linejoin:round;stroke:rgb(100%,49.803922%,5.490196%);stroke-opacity:0.501961;stroke-miterlimit:4;" d="M -0.000534058 2.998775 C 0.796341 2.998775 1.55806 2.685299 2.12056 2.119869 C 2.68306 1.557369 2.999466 0.79565 2.999466 -0.00122452 C 2.999466 -0.79517 2.68306 -1.559818 2.12056 -2.122318 C 1.55806 -2.684818 0.796341 -3.001225 -0.000534058 -3.001225 C -0.794479 -3.001225 -1.559128 -2.684818 -2.121628 -2.122318 C -2.684128 -1.559818 -3.000534 -0.79517 -3.000534 -0.00122452 C -3.000534 0.79565 -2.684128 1.557369 -2.121628 2.119869 C -1.559128 2.685299 -0.794479 2.998775 -0.000534058 2.998775 Z M -0.000534058 2.998775 " transform="matrix(1.333333,0,0,1.333333,198.71165,62.009445)"/>
<path style="fill-rule:nonzero;fill:rgb(100%,49.803922%,5.490196%);fill-opacity:0.501961;stroke-width:1;stroke-linecap:butt;stroke-linejoin:round;stroke:rgb(100%,49.803922%,5.490196%);stroke-opacity:0.501961;stroke-miterlimit:4;" d="M -0.00062561 2.999458 C 0.796249 2.999458 1.557968 2.683052 2.120468 2.120552 C 2.682968 1.558052 2.999374 0.796333 2.999374 -0.000541687 C 2.999374 -0.794487 2.682968 -1.559135 2.120468 -2.121635 C 1.557968 -2.684135 0.796249 -3.000542 -0.00062561 -3.000542 C -0.794571 -3.000542 -1.559219 -2.684135 -2.121719 -2.121635 C -2.684219 -1.559135 -3.000626 -0.794487 -3.000626 -0.000541687 C -3.000626 0.796333 -2.684219 1.558052 -2.121719 2.120552 C -1.559219 2.683052 -0.794571 2.999458 -0.00062561 2.999458 Z M -0.00062561 2.999458 " transform="matrix(1.333333,0,0,1.333333,199.844584,86.840566)"/>
<path style="fill-rule:nonzero;fill:rgb(100%,49.803922%,5.490196%);fill-opacity:0.501961;stroke-width:1;stroke-linecap:butt;stroke-linejoin:round;stroke:rgb(100%,49.803922%,5.490196%);stroke-opacity:0.501961;stroke-miterlimit:4;" d="M -0.000167847 2.999172 C 0.796707 2.999172 1.558426 2.682766 2.120926 2.120266 C 2.683426 1.557766 2.999832 0.796047 2.999832 -0.000827789 C 2.999832 -0.794773 2.683426 -1.559422 2.120926 -2.121922 C 1.558426 -2.684422 0.796707 -3.000828 -0.000167847 -3.000828 C -0.797043 -3.000828 -1.558762 -2.684422 -2.121262 -2.121922 C -2.683762 -1.559422 -3.000168 -0.794773 -3.000168 -0.000827789 C -3.000168 0.796047 -2.683762 1.557766 -2.121262 2.120266 C -1.558762 2.682766 -0.797043 2.999172 -0.000167847 2.999172 Z M -0.000167847 2.999172 " transform="matrix(1.333333,0,0,1.333333,201.445536,77.282354)"/>
<path style="fill-rule:nonzero;fill:rgb(100%,49.803922%,5.490196%);fill-opacity:0.501961;stroke-width:1;stroke-linecap:butt;stroke-linejoin:round;stroke:rgb(100%,49.803922%,5.490196%);stroke-opacity:0.501961;stroke-miterlimit:4;" d="M -0.0010376 2.99942 C 0.795837 2.99942 1.557556 2.683014 2.120056 2.120514 C 2.682556 1.558014 2.998962 0.796295 2.998962 -0.000579834 C 2.998962 -0.794525 2.682556 -1.559174 2.120056 -2.121674 C 1.557556 -2.684174 0.795837 -3.00058 -0.0010376 -3.00058 C -0.794983 -3.00058 -1.559631 -2.684174 -2.122131 -2.121674 C -2.684631 -1.559174 -3.001038 -0.794525 -3.001038 -0.000579834 C -3.001038 0.796295 -2.684631 1.558014 -2.122131 2.120514 C -1.559631 2.683014 -0.794983 2.99942 -0.0010376 2.99942 Z M -0.0010376 2.99942 " transform="matrix(1.333333,0,0,1.333333,205.001383,86.930461)"/>
<path style="fill-rule:nonzero;fill:rgb(100%,49.803922%,5.490196%);fill-opacity:0.501961;stroke-width:1;stroke-linecap:butt;stroke-linejoin:round;stroke:rgb(100%,49.803922%,5.490196%);stroke-opacity:0.501961;stroke-miterlimit:4;" d="M 0.000564575 3.000061 C 0.79451 3.000061 1.559158 2.683655 2.121658 2.121155 C 2.684158 1.558655 3.000565 0.796936 3.000565 0.0000610352 C 3.000565 -0.796814 2.684158 -1.558533 2.121658 -2.121033 C 1.559158 -2.683533 0.79451 -2.999939 0.000564575 -2.999939 C -0.79631 -2.999939 -1.558029 -2.683533 -2.120529 -2.121033 C -2.683029 -1.558533 -2.999435 -0.796814 -2.999435 0.0000610352 C -2.999435 0.796936 -2.683029 1.558655 -2.120529 2.121155 C -1.558029 2.683655 -0.79631 3.000061 0.000564575 3.000061 Z M 0.000564575 3.000061 " transform="matrix(1.333333,0,0,1.333333,215.510966,80.367106)"/>
<path style="fill-rule:nonzero;fill:rgb(100%,49.803922%,5.490196%);fill-opacity:0.501961;stroke-width:1;stroke-linecap:butt;stroke-linejoin:round;stroke:rgb(100%,49.803922%,5.490196%);stroke-opacity:0.501961;stroke-miterlimit:4;" d="M 0.00135803 2.998753 C 0.795303 2.998753 1.559952 2.685276 2.122452 2.122776 C 2.684952 1.557346 3.001358 0.795628 3.001358 -0.00124741 C 3.001358 -0.795193 2.684952 -1.559841 2.122452 -2.122341 C 1.559952 -2.684841 0.795303 -3.001247 0.00135803 -3.001247 C -0.795517 -3.001247 -1.560165 -2.684841 -2.122665 -2.122341 C -2.685165 -1.559841 -2.998642 -0.795193 -2.998642 -0.00124741 C -2.998642 0.795628 -2.685165 1.557346 -2.122665 2.122776 C -1.560165 2.685276 -0.795517 2.998753 0.00135803 2.998753 Z M 0.00135803 2.998753 " transform="matrix(1.333333,0,0,1.333333,218.158346,72.841507)"/>
<path style="fill-rule:nonzero;fill:rgb(100%,49.803922%,5.490196%);fill-opacity:0.501961;stroke-width:1;stroke-linecap:butt;stroke-linejoin:round;stroke:rgb(100%,49.803922%,5.490196%);stroke-opacity:0.501961;stroke-miterlimit:4;" d="M 0.000106812 3.000633 C 0.796982 3.000633 1.558701 2.684227 2.121201 2.121727 C 2.683701 1.559227 3.000107 0.794579 3.000107 0.00063324 C 3.000107 -0.796242 2.683701 -1.557961 2.121201 -2.120461 C 1.558701 -2.682961 0.796982 -2.999367 0.000106812 -2.999367 C -0.796768 -2.999367 -1.558487 -2.682961 -2.120987 -2.120461 C -2.683487 -1.557961 -2.999893 -0.796242 -2.999893 0.00063324 C -2.999893 0.794579 -2.683487 1.559227 -2.120987 2.121727 C -1.558487 2.684227 -0.796768 3.000633 0.000106812 3.000633 Z M 0.000106812 3.000633 " transform="matrix(1.333333,0,0,1.333333,234.214701,110.553843)"/>
<path style="fill-rule:nonzero;fill:rgb(100%,49.803922%,5.490196%);fill-opacity:0.501961;stroke-width:1;stroke-linecap:butt;stroke-linejoin:round;stroke:rgb(100%,49.803922%,5.490196%);stroke-opacity:0.501961;stroke-miterlimit:4;" d="M -0.00112915 2.999619 C 0.795746 2.999619 1.557465 2.683212 2.119965 2.120712 C 2.682465 1.558212 2.998871 0.796494 2.998871 -0.00038147 C 2.998871 -0.794327 2.682465 -1.558975 2.119965 -2.121475 C 1.557465 -2.683975 0.795746 -3.000381 -0.00112915 -3.000381 C -0.795074 -3.000381 -1.559723 -2.683975 -2.122223 -2.121475 C -2.684723 -1.558975 -3.001129 -0.794327 -3.001129 -0.00038147 C -3.001129 0.796494 -2.684723 1.558212 -2.122223 2.120712 C -1.559723 2.683212 -0.795074 2.999619 -0.00112915 2.999619 Z M -0.00112915 2.999619 " transform="matrix(1.333333,0,0,1.333333,244.923381,87.14504)"/>
<path style="fill-rule:nonzero;fill:rgb(100%,49.803922%,5.490196%);fill-opacity:0.501961;stroke-width:1;stroke-linecap:butt;stroke-linejoin:round;stroke:rgb(100%,49.803922%,5.490196%);stroke-opacity:0.501961;stroke-miterlimit:4;" d="M 0.000717163 2.999199 C 0.794662 2.999199 1.559311 2.682793 2.121811 2.120293 C 2.684311 1.557793 3.000717 0.796074 3.000717 -0.000801086 C 3.000717 -0.794746 2.684311 -1.559395 2.121811 -2.121895 C 1.559311 -2.684395 0.794662 -3.000801 0.000717163 -3.000801 C -0.796158 -3.000801 -1.557877 -2.684395 -2.120377 -2.121895 C -2.682877 -1.559395 -2.999283 -0.794746 -2.999283 -0.000801086 C -2.999283 0.796074 -2.682877 1.557793 -2.120377 2.120293 C -1.557877 2.682793 -0.796158 2.999199 0.000717163 2.999199 Z M 0.000717163 2.999199 " transform="matrix(1.333333,0,0,1.333333,248.006856,98.794037)"/>
<path style="fill-rule:nonzero;fill:rgb(100%,49.803922%,5.490196%);fill-opacity:0.501961;stroke-width:1;stroke-linecap:butt;stroke-linejoin:round;stroke:rgb(100%,49.803922%,5.490196%);stroke-opacity:0.501961;stroke-miterlimit:4;" d="M 0.000152588 3.000244 C 0.797028 3.000244 1.558746 2.683838 2.121246 2.121338 C 2.683746 1.558838 3.000153 0.794189 3.000153 0.000244141 C 3.000153 -0.796631 2.683746 -1.55835 2.121246 -2.12085 C 1.558746 -2.68335 0.797028 -2.999756 0.000152588 -2.999756 C -0.796722 -2.999756 -1.558441 -2.68335 -2.120941 -2.12085 C -2.683441 -1.55835 -2.999847 -0.796631 -2.999847 0.000244141 C -2.999847 0.794189 -2.683441 1.558838 -2.120941 2.121338 C -1.558441 2.683838 -0.796722 3.000244 0.000152588 3.000244 Z M 0.000152588 3.000244 " transform="matrix(1.333333,0,0,1.333333,248.628703,103.855143)"/>
<path style="fill-rule:nonzero;fill:rgb(100%,49.803922%,5.490196%);fill-opacity:0.501961;stroke-width:1;stroke-linecap:butt;stroke-linejoin:round;stroke:rgb(100%,49.803922%,5.490196%);stroke-opacity:0.501961;stroke-miterlimit:4;" d="M 0.000717163 2.998665 C 0.794662 2.998665 1.559311 2.685188 2.121811 2.122688 C 2.684311 1.560188 3.000717 0.79554 3.000717 -0.00133514 C 3.000717 -0.79528 2.684311 -1.559929 2.121811 -2.122429 C 1.559311 -2.684929 0.794662 -3.001335 0.000717163 -3.001335 C -0.796158 -3.001335 -1.557877 -2.684929 -2.120377 -2.122429 C -2.682877 -1.559929 -2.999283 -0.79528 -2.999283 -0.00133514 C -2.999283 0.79554 -2.682877 1.560188 -2.120377 2.122688 C -1.557877 2.685188 -0.796158 2.998665 0.000717163 2.998665 Z M 0.000717163 2.998665 " transform="matrix(1.333333,0,0,1.333333,250.362325,97.825999)"/>
<path style="fill-rule:nonzero;fill:rgb(100%,49.803922%,5.490196%);fill-opacity:0.501961;stroke-width:1;stroke-linecap:butt;stroke-linejoin:round;stroke:rgb(100%,49.803922%,5.490196%);stroke-opacity:0.501961;stroke-miterlimit:4;" d="M 0.00144958 3.000771 C 0.795395 3.000771 1.560043 2.684364 2.122543 2.121864 C 2.685043 1.559364 3.00145 0.794716 3.00145 0.000770569 C 3.00145 -0.796104 2.685043 -1.557823 2.122543 -2.120323 C 1.560043 -2.682823 0.795395 -2.999229 0.00144958 -2.999229 C -0.795425 -2.999229 -1.560074 -2.682823 -2.122574 -2.120323 C -2.685074 -1.557823 -2.99855 -0.796104 -2.99855 0.000770569 C -2.99855 0.794716 -2.685074 1.559364 -2.122574 2.121864 C -1.560074 2.684364 -0.795425 3.000771 0.00144958 3.000771 Z M 0.00144958 3.000771 " transform="matrix(1.333333,0,0,1.333333,254.677755,128.682566)"/>
<path style="fill-rule:nonzero;fill:rgb(100%,49.803922%,5.490196%);fill-opacity:0.501961;stroke-width:1;stroke-linecap:butt;stroke-linejoin:round;stroke:rgb(100%,49.803922%,5.490196%);stroke-opacity:0.501961;stroke-miterlimit:4;" d="M -0.00105286 2.999596 C 0.795822 2.999596 1.557541 2.683189 2.120041 2.120689 C 2.682541 1.558189 2.998947 0.796471 2.998947 -0.000404358 C 2.998947 -0.79435 2.682541 -1.558998 2.120041 -2.121498 C 1.557541 -2.683998 0.795822 -3.000404 -0.00105286 -3.000404 C -0.794998 -3.000404 -1.559647 -2.683998 -2.122147 -2.121498 C -2.684647 -1.558998 -3.001053 -0.79435 -3.001053 -0.000404358 C -3.001053 0.796471 -2.684647 1.558189 -2.122147 2.120689 C -1.559647 2.683189 -0.794998 2.999596 -0.00105286 2.999596 Z M -0.00105286 2.999596 " transform="matrix(1.333333,0,0,1.333333,255.059998,111.711477)"/>
<path style="fill-rule:nonzero;fill:rgb(100%,49.803922%,5.490196%);fill-opacity:0.501961;stroke-width:1;stroke-linecap:butt;stroke-linejoin:round;stroke:rgb(100%,49.803922%,5.490196%);stroke-opacity:0.501961;stroke-miterlimit:4;" d="M 0.000656128 2.999344 C 0.794601 2.999344 1.55925 2.682938 2.12175 2.120438 C 2.68425 1.557938 3.000656 0.796219 3.000656 -0.000656128 C 3.000656 -0.794601 2.68425 -1.55925 2.12175 -2.12175 C 1.55925 -2.68425 0.794601 -3.000656 0.000656128 -3.000656 C -0.796219 -3.000656 -1.557938 -2.68425 -2.120438 -2.12175 C -2.682938 -1.55925 -2.999344 -0.794601 -2.999344 -0.000656128 C -2.999344 0.796219 -2.682938 1.557938 -2.120438 2.120438 C -1.557938 2.682938 -0.796219 2.999344 0.000656128 2.999344 Z M 0.000656128 2.999344 " transform="matrix(1.333333,0,0,1.333333,256.7335,112.223531)"/>
<path style="fill-rule:nonzero;fill:rgb(100%,49.803922%,5.490196%);fill-opacity:0.501961;stroke-width:1;stroke-linecap:butt;stroke-linejoin:round;stroke:rgb(100%,49.803922%,5.490196%);stroke-opacity:0.501961;stroke-miterlimit:4;" d="M -0.000396729 3.000862 C 0.796478 3.000862 1.558197 2.684456 2.120697 2.121956 C 2.683197 1.559456 2.999603 0.794807 2.999603 0.000862122 C 2.999603 -0.796013 2.683197 -1.557732 2.120697 -2.120232 C 1.558197 -2.682732 0.796478 -2.999138 -0.000396729 -2.999138 C -0.794342 -2.999138 -1.55899 -2.682732 -2.12149 -2.120232 C -2.68399 -1.557732 -3.000397 -0.796013 -3.000397 0.000862122 C -3.000397 0.794807 -2.68399 1.559456 -2.12149 2.121956 C -1.55899 2.684456 -0.794342 3.000862 -0.000396729 3.000862 Z M -0.000396729 3.000862 " transform="matrix(1.333333,0,0,1.333333,257.563029,124.272288)"/>
<path style="fill-rule:nonzero;fill:rgb(100%,49.803922%,5.490196%);fill-opacity:0.501961;stroke-width:1;stroke-linecap:butt;stroke-linejoin:round;stroke:rgb(100%,49.803922%,5.490196%);stroke-opacity:0.501961;stroke-miterlimit:4;" d="M -0.00111389 2.999901 C 0.795761 2.999901 1.55748 2.683495 2.11998 2.120995 C 2.68248 1.558495 2.998886 0.796776 2.998886 -0.0000991821 C 2.998886 -0.796974 2.68248 -1.558693 2.11998 -2.121193 C 1.55748 -2.683693 0.795761 -3.000099 -0.00111389 -3.000099 C -0.795059 -3.000099 -1.559708 -2.683693 -2.122208 -2.121193 C -2.684708 -1.558693 -3.001114 -0.796974 -3.001114 -0.0000991821 C -3.001114 0.796776 -2.684708 1.558495 -2.122208 2.120995 C -1.559708 2.683495 -0.795059 2.999901 -0.00111389 2.999901 Z M -0.00111389 2.999901 " transform="matrix(1.333333,0,0,1.333333,260.716329,113.964976)"/>
<path style="fill-rule:nonzero;fill:rgb(100%,49.803922%,5.490196%);fill-opacity:0.501961;stroke-width:1;stroke-linecap:butt;stroke-linejoin:round;stroke:rgb(100%,49.803922%,5.490196%);stroke-opacity:0.501961;stroke-miterlimit:4;" d="M 0.000183105 3.000793 C 0.797058 3.000793 1.558777 2.684387 2.121277 2.121887 C 2.683777 1.559387 3.000183 0.794739 3.000183 0.000793457 C 3.000183 -0.796082 2.683777 -1.5578 2.121277 -2.1203 C 1.558777 -2.6828 0.797058 -2.999207 0.000183105 -2.999207 C -0.796692 -2.999207 -1.558411 -2.6828 -2.120911 -2.1203 C -2.683411 -1.5578 -2.999817 -0.796082 -2.999817 0.000793457 C -2.999817 0.794739 -2.683411 1.559387 -2.120911 2.121887 C -1.558411 2.684387 -0.796692 3.000793 0.000183105 3.000793 Z M 0.000183105 3.000793 " transform="matrix(1.333333,0,0,1.333333,267.390381,139.940348)"/>
<path style="fill-rule:nonzero;fill:rgb(100%,49.803922%,5.490196%);fill-opacity:0.501961;stroke-width:1;stroke-linecap:butt;stroke-linejoin:round;stroke:rgb(100%,49.803922%,5.490196%);stroke-opacity:0.501961;stroke-miterlimit:4;" d="M -0.0010376 3.000053 C 0.795837 3.000053 1.557556 2.683647 2.120056 2.121147 C 2.682556 1.558647 2.998962 0.796928 2.998962 0.0000534058 C 2.998962 -0.796822 2.682556 -1.55854 2.120056 -2.12104 C 1.557556 -2.68354 0.795837 -2.999947 -0.0010376 -2.999947 C -0.794983 -2.999947 -1.559631 -2.68354 -2.122131 -2.12104 C -2.684631 -1.55854 -3.001038 -0.796822 -3.001038 0.0000534058 C -3.001038 0.796928 -2.684631 1.558647 -2.122131 2.121147 C -1.559631 2.683647 -0.794983 3.000053 -0.0010376 3.000053 Z M -0.0010376 3.000053 " transform="matrix(1.333333,0,0,1.333333,270.364665,129.265554)"/>
<path style="fill-rule:nonzero;fill:rgb(100%,49.803922%,5.490196%);fill-opacity:0.501961;stroke-width:1;stroke-linecap:butt;stroke-linejoin:round;stroke:rgb(100%,49.803922%,5.490196%);stroke-opacity:0.501961;stroke-miterlimit:4;" d="M -0.000778198 3.000626 C 0.796097 3.000626 1.557816 2.684219 2.120316 2.121719 C 2.682816 1.559219 2.999222 0.794571 2.999222 0.00062561 C 2.999222 -0.796249 2.682816 -1.557968 2.120316 -2.120468 C 1.557816 -2.682968 0.796097 -2.999374 -0.000778198 -2.999374 C -0.794724 -2.999374 -1.559372 -2.682968 -2.121872 -2.120468 C -2.684372 -1.557968 -3.000778 -0.796249 -3.000778 0.00062561 C -3.000778 0.794571 -2.684372 1.559219 -2.121872 2.121719 C -1.559372 2.684219 -0.794724 3.000626 -0.000778198 3.000626 Z M -0.000778198 3.000626 " transform="matrix(1.333333,0,0,1.333333,272.141663,127.854635)"/>
<path style="fill-rule:nonzero;fill:rgb(100%,49.803922%,5.490196%);fill-opacity:0.501961;stroke-width:1;stroke-linecap:butt;stroke-linejoin:round;stroke:rgb(100%,49.803922%,5.490196%);stroke-opacity:0.501961;stroke-miterlimit:4;" d="M -0.00106812 2.999786 C 0.795807 2.999786 1.557526 2.68338 2.120026 2.12088 C 2.682526 1.55838 2.998932 0.796661 2.998932 -0.000213623 C 2.998932 -0.794159 2.682526 -1.558807 2.120026 -2.121307 C 1.557526 -2.683807 0.795807 -3.000214 -0.00106812 -3.000214 C -0.795013 -3.000214 -1.559662 -2.683807 -2.122162 -2.121307 C -2.684662 -1.558807 -3.001068 -0.794159 -3.001068 -0.000213623 C -3.001068 0.796661 -2.684662 1.55838 -2.122162 2.12088 C -1.559662 2.68338 -0.795013 2.999786 -0.00106812 2.999786 Z M -0.00106812 2.999786 " transform="matrix(1.333333,0,0,1.333333,275.341268,115.148722)"/>
<path style="fill-rule:nonzero;fill:rgb(100%,49.803922%,5.490196%);fill-opacity:0.501961;stroke-width:1;stroke-linecap:butt;stroke-linejoin:round;stroke:rgb(100%,49.803922%,5.490196%);stroke-opacity:0.501961;stroke-miterlimit:4;" d="M 0.000289917 2.998787 C 0.794235 2.998787 1.558884 2.68531 2.121384 2.119881 C 2.683884 1.557381 3.00029 0.795662 3.00029 -0.00121307 C 3.00029 -0.795158 2.683884 -1.559807 2.121384 -2.122307 C 1.558884 -2.684807 0.794235 -3.001213 0.000289917 -3.001213 C -0.796585 -3.001213 -1.558304 -2.684807 -2.120804 -2.122307 C -2.683304 -1.559807 -2.99971 -0.795158 -2.99971 -0.00121307 C -2.99971 0.795662 -2.683304 1.557381 -2.120804 2.119881 C -1.558304 2.68531 -0.796585 2.998787 0.000289917 2.998787 Z M 0.000289917 2.998787 " transform="matrix(1.333333,0,0,1.333333,277.827738,135.958649)"/>
<path style="fill-rule:nonzero;fill:rgb(100%,49.803922%,5.490196%);fill-opacity:0.501961;stroke-width:1;stroke-linecap:butt;stroke-linejoin:round;stroke:rgb(100%,49.803922%,5.490196%);stroke-opacity:0.501961;stroke-miterlimit:4;" d="M 0.00144958 3.001022 C 0.795395 3.001022 1.560043 2.684616 2.122543 2.122116 C 2.685043 1.559616 3.00145 0.794968 3.00145 0.00102234 C 3.00145 -0.795853 2.685043 -1.557571 2.122543 -2.120071 C 1.560043 -2.682571 0.795395 -2.998978 0.00144958 -2.998978 C -0.795425 -2.998978 -1.560074 -2.682571 -2.122574 -2.120071 C -2.685074 -1.557571 -2.99855 -0.795853 -2.99855 0.00102234 C -2.99855 0.794968 -2.685074 1.559616 -2.122574 2.122116 C -1.560074 2.684616 -0.795425 3.001022 0.00144958 3.001022 Z M 0.00144958 3.001022 " transform="matrix(1.333333,0,0,1.333333,278.78713,140.299418)"/>
<path style="fill-rule:nonzero;fill:rgb(100%,49.803922%,5.490196%);fill-opacity:0.501961;stroke-width:1;stroke-linecap:butt;stroke-linejoin:round;stroke:rgb(100%,49.803922%,5.490196%);stroke-opacity:0.501961;stroke-miterlimit:4;" d="M -0.0000152588 3.000298 C 0.79686 3.000298 1.558578 2.683891 2.121078 2.121391 C 2.683578 1.558891 2.999985 0.794243 2.999985 0.000297546 C 2.999985 -0.796577 2.683578 -1.558296 2.121078 -2.120796 C 1.558578 -2.683296 0.79686 -2.999702 -0.0000152588 -2.999702 C -0.79689 -2.999702 -1.558609 -2.683296 -2.121109 -2.120796 C -2.683609 -1.558296 -3.000015 -0.796577 -3.000015 0.000297546 C -3.000015 0.794243 -2.683609 1.558891 -2.121109 2.121391 C -1.558609 2.683891 -0.79689 3.000298 -0.0000152588 3.000298 Z M -0.0000152588 3.000298 " transform="matrix(1.333333,0,0,1.333333,293.296895,106.468353)"/>
<path style="fill-rule:nonzero;fill:rgb(100%,49.803922%,5.490196%);fill-opacity:0.501961;stroke-width:1;stroke-linecap:butt;stroke-linejoin:round;stroke:rgb(100%,49.803922%,5.490196%);stroke-opacity:0.501961;stroke-miterlimit:4;" d="M 0.00114441 3.000954 C 0.79509 3.000954 1.559738 2.684547 2.122238 2.122047 C 2.684738 1.559547 3.001144 0.794899 3.001144 0.000953674 C 3.001144 -0.795921 2.684738 -1.55764 2.122238 -2.12014 C 1.559738 -2.68264 0.79509 -2.999046 0.00114441 -2.999046 C -0.795731 -2.999046 -1.557449 -2.68264 -2.119949 -2.12014 C -2.682449 -1.55764 -2.998856 -0.795921 -2.998856 0.000953674 C -2.998856 0.794899 -2.682449 1.559547 -2.119949 2.122047 C -1.557449 2.684547 -0.795731 3.000954 0.00114441 3.000954 Z M 0.00114441 3.000954 " transform="matrix(1.333333,0,0,1.333333,303.021912,93.190135)"/>
<path style="fill-rule:nonzero;fill:rgb(100%,49.803922%,5.490196%);fill-opacity:0.501961;stroke-width:1;stroke-linecap:butt;stroke-linejoin:round;stroke:rgb(100%,49.803922%,5.490196%);stroke-opacity:0.501961;stroke-miterlimit:4;" d="M 0.000854492 2.999527 C 0.7948 2.999527 1.559448 2.683121 2.121948 2.120621 C 2.684448 1.558121 3.000854 0.796402 3.000854 -0.000473022 C 3.000854 -0.794418 2.684448 -1.559067 2.121948 -2.121567 C 1.559448 -2.684067 0.7948 -3.000473 0.000854492 -3.000473 C -0.796021 -3.000473 -1.557739 -2.684067 -2.120239 -2.121567 C -2.682739 -1.559067 -2.999146 -0.794418 -2.999146 -0.000473022 C -2.999146 0.796402 -2.682739 1.558121 -2.120239 2.120621 C -1.557739 2.683121 -0.796021 2.999527 0.000854492 2.999527 Z M 0.000854492 2.999527 " transform="matrix(1.333333,0,0,1.333333,307.733236,94.430318)"/>
<path style=" stroke:none;fill-rule:nonzero;fill:rgb(100%,49.803922%,5.490196%);fill-opacity:0.501961;" d="M 312.789062 130.660156 C 313.851562 130.660156 314.867188 130.238281 315.617188 129.488281 C 316.367188 128.738281 316.789062 127.71875 316.789062 126.660156 C 316.789062 125.597656 316.367188 124.578125 315.617188 123.828125 C 314.867188 123.078125 313.851562 122.660156 312.789062 122.660156 C 311.730469 122.660156 310.710938 123.078125 309.960938 123.828125 C 309.210938 124.578125 308.789062 125.597656 308.789062 126.660156 C 308.789062 127.71875 309.210938 128.738281 309.960938 129.488281 C 310.710938 130.238281 311.730469 130.660156 312.789062 130.660156 Z M 312.789062 130.660156 "/>
<g clip-path="url(#clip18)" clip-rule="nonzero">
<path style="fill:none;stroke-width:1;stroke-linecap:butt;stroke-linejoin:round;stroke:rgb(100%,49.803922%,5.490196%);stroke-opacity:0.501961;stroke-miterlimit:4;" d="M -0.000335693 3.001358 C 0.796539 3.001358 1.558258 2.684952 2.120758 2.122452 C 2.683258 1.559952 2.999664 0.795303 2.999664 0.00135803 C 2.999664 -0.795517 2.683258 -1.560165 2.120758 -2.122665 C 1.558258 -2.685165 0.796539 -2.998642 -0.000335693 -2.998642 C -0.794281 -2.998642 -1.558929 -2.685165 -2.121429 -2.122665 C -2.683929 -1.560165 -3.000336 -0.795517 -3.000336 0.00135803 C -3.000336 0.795303 -2.683929 1.559952 -2.121429 2.122452 C -1.558929 2.684952 -0.794281 3.001358 -0.000335693 3.001358 Z M -0.000335693 3.001358 " transform="matrix(1.333333,0,0,1.333333,312.78951,126.658346)"/>
</g>
<path style="fill:none;stroke-width:0.8;stroke-linecap:square;stroke-linejoin:miter;stroke:rgb(0%,0%,0%);stroke-opacity:1;stroke-miterlimit:4;" d="M 42.621094 146.900391 L 42.621094 10.998047 " transform="matrix(1.333333,0,0,1.333333,0,0.000000000000014211)"/>
<path style="fill:none;stroke-width:0.8;stroke-linecap:square;stroke-linejoin:miter;stroke:rgb(0%,0%,0%);stroke-opacity:1;stroke-miterlimit:4;" d="M 237.919922 146.900391 L 237.919922 10.998047 " transform="matrix(1.333333,0,0,1.333333,0,0.000000000000014211)"/>
<path style="fill:none;stroke-width:0.8;stroke-linecap:square;stroke-linejoin:miter;stroke:rgb(0%,0%,0%);stroke-opacity:1;stroke-miterlimit:4;" d="M 42.621094 146.900391 L 237.919922 146.900391 " transform="matrix(1.333333,0,0,1.333333,0,0.000000000000014211)"/>
<path style="fill:none;stroke-width:0.8;stroke-linecap:square;stroke-linejoin:miter;stroke:rgb(0%,0%,0%);stroke-opacity:1;stroke-miterlimit:4;" d="M 42.621094 10.998047 L 237.919922 10.998047 " transform="matrix(1.333333,0,0,1.333333,0,0.000000000000014211)"/>
<use xlink:href="#surface5" mask="url(#mask0)"/>
<path style="fill:none;stroke-width:1.5;stroke-linecap:square;stroke-linejoin:round;stroke:rgb(12.156863%,46.666667%,70.588237%);stroke-opacity:1;stroke-miterlimit:4;" d="M 175.582031 24.09668 L 195.580078 24.09668 " transform="matrix(1.333333,0,0,1.333333,0,0.000000000000014211)"/>
<path style=" stroke:none;fill-rule:nonzero;fill:rgb(0%,0%,0%);fill-opacity:1;" d="M 271.402344 27.074219 L 279.625 27.074219 L 279.625 28.183594 L 276.175781 28.183594 L 276.175781 36.796875 L 274.855469 36.796875 L 274.855469 28.183594 L 271.402344 28.183594 Z M 271.402344 27.074219 "/>
<path style=" stroke:none;fill-rule:nonzero;fill:rgb(0%,0%,0%);fill-opacity:1;" d="M 283.101562 30.625 C 282.964844 30.546875 282.820312 30.488281 282.660156 30.453125 C 282.503906 30.414062 282.328125 30.398438 282.136719 30.398438 C 281.460938 30.398438 280.941406 30.617188 280.578125 31.058594 C 280.214844 31.496094 280.035156 32.128906 280.035156 32.957031 L 280.035156 36.796875 L 278.828125 36.796875 L 278.828125 29.503906 L 280.035156 29.503906 L 280.035156 30.636719 C 280.285156 30.195312 280.613281 29.867188 281.015625 29.652344 C 281.421875 29.4375 281.914062 29.332031 282.492188 29.332031 C 282.574219 29.332031 282.664062 29.335938 282.761719 29.347656 C 282.863281 29.355469 282.972656 29.371094 283.09375 29.394531 Z M 283.101562 30.625 "/>
<path style=" stroke:none;fill-rule:nonzero;fill:rgb(0%,0%,0%);fill-opacity:1;" d="M 284.234375 33.917969 L 284.234375 29.503906 L 285.433594 29.503906 L 285.433594 33.875 C 285.433594 34.5625 285.566406 35.082031 285.835938 35.429688 C 286.105469 35.773438 286.507812 35.945312 287.046875 35.945312 C 287.691406 35.945312 288.203125 35.738281 288.578125 35.324219 C 288.953125 34.914062 289.144531 34.351562 289.144531 33.636719 L 289.144531 29.503906 L 290.339844 29.503906 L 290.339844 36.796875 L 289.144531 36.796875 L 289.144531 35.675781 C 288.851562 36.117188 288.515625 36.449219 288.128906 36.664062 C 287.746094 36.878906 287.300781 36.988281 286.792969 36.988281 C 285.957031 36.988281 285.320312 36.726562 284.882812 36.207031 C 284.453125 35.683594 284.234375 34.921875 284.234375 33.917969 Z M 287.25 29.332031 Z M 287.25 29.332031 "/>
<path style=" stroke:none;fill-rule:nonzero;fill:rgb(0%,0%,0%);fill-opacity:1;" d="M 293.992188 27.433594 L 293.992188 29.503906 L 296.460938 29.503906 L 296.460938 30.4375 L 293.992188 30.4375 L 293.992188 34.394531 C 293.992188 34.988281 294.074219 35.371094 294.238281 35.539062 C 294.398438 35.710938 294.730469 35.792969 295.230469 35.792969 L 296.460938 35.792969 L 296.460938 36.796875 L 295.230469 36.796875 C 294.304688 36.796875 293.667969 36.625 293.316406 36.28125 C 292.964844 35.933594 292.789062 35.304688 292.789062 34.394531 L 292.789062 30.4375 L 291.910156 30.4375 L 291.910156 29.503906 L 292.789062 29.503906 L 292.789062 27.433594 Z M 293.992188 27.433594 "/>
<path style=" stroke:none;fill-rule:nonzero;fill:rgb(0%,0%,0%);fill-opacity:1;" d="M 304.097656 32.394531 L 304.097656 36.796875 L 302.902344 36.796875 L 302.902344 32.433594 C 302.902344 31.742188 302.765625 31.226562 302.496094 30.886719 C 302.226562 30.542969 301.824219 30.371094 301.285156 30.371094 C 300.640625 30.371094 300.128906 30.578125 299.753906 30.992188 C 299.382812 31.402344 299.195312 31.964844 299.195312 32.675781 L 299.195312 36.796875 L 297.988281 36.796875 L 297.988281 26.664062 L 299.195312 26.664062 L 299.195312 30.636719 C 299.480469 30.199219 299.820312 29.871094 300.207031 29.65625 C 300.59375 29.4375 301.042969 29.332031 301.550781 29.332031 C 302.390625 29.332031 303.023438 29.589844 303.453125 30.105469 C 303.882812 30.625 304.097656 31.386719 304.097656 32.394531 Z M 304.097656 32.394531 "/>
<path style="fill:none;stroke-width:1.5;stroke-linecap:butt;stroke-linejoin:round;stroke:rgb(74.901962%,0%,74.901962%);stroke-opacity:1;stroke-dasharray:5.55,2.4;stroke-miterlimit:4;" d="M 175.582031 38.774414 L 195.580078 38.774414 " transform="matrix(1.333333,0,0,1.333333,0,0.000000000000014211)"/>
<path style=" stroke:none;fill-rule:nonzero;fill:rgb(0%,0%,0%);fill-opacity:1;" d="M 274.066406 47.726562 L 274.066406 51.378906 L 275.71875 51.378906 C 276.332031 51.378906 276.804688 51.222656 277.136719 50.90625 C 277.472656 50.589844 277.640625 50.136719 277.640625 49.550781 C 277.640625 48.96875 277.472656 48.519531 277.136719 48.203125 C 276.804688 47.886719 276.332031 47.726562 275.71875 47.726562 Z M 272.75 46.648438 L 275.71875 46.648438 C 276.808594 46.648438 277.632812 46.894531 278.191406 47.386719 C 278.746094 47.878906 279.027344 48.601562 279.027344 49.550781 C 279.027344 50.511719 278.746094 51.234375 278.191406 51.726562 C 277.632812 52.214844 276.808594 52.460938 275.71875 52.460938 L 274.066406 52.460938 L 274.066406 56.367188 L 272.75 56.367188 Z M 272.75 46.648438 "/>
<path style=" stroke:none;fill-rule:nonzero;fill:rgb(0%,0%,0%);fill-opacity:1;" d="M 284.730469 50.195312 C 284.59375 50.117188 284.449219 50.058594 284.289062 50.023438 C 284.132812 49.988281 283.957031 49.96875 283.765625 49.96875 C 283.089844 49.96875 282.570312 50.1875 282.207031 50.628906 C 281.84375 51.070312 281.664062 51.699219 281.664062 52.527344 L 281.664062 56.367188 L 280.460938 56.367188 L 280.460938 49.074219 L 281.664062 49.074219 L 281.664062 50.210938 C 281.917969 49.765625 282.242188 49.4375 282.648438 49.222656 C 283.050781 49.007812 283.542969 48.902344 284.121094 48.902344 C 284.203125 48.902344 284.292969 48.90625 284.390625 48.917969 C 284.492188 48.925781 284.601562 48.945312 284.722656 48.964844 Z M 284.730469 50.195312 "/>
<path style=" stroke:none;fill-rule:nonzero;fill:rgb(0%,0%,0%);fill-opacity:1;" d="M 291.925781 52.421875 L 291.925781 53.007812 L 286.414062 53.007812 C 286.46875 53.832031 286.71875 54.460938 287.160156 54.894531 C 287.605469 55.324219 288.226562 55.539062 289.019531 55.539062 C 289.480469 55.539062 289.925781 55.484375 290.359375 55.371094 C 290.789062 55.257812 291.21875 55.089844 291.644531 54.863281 L 291.644531 55.996094 C 291.214844 56.179688 290.773438 56.316406 290.320312 56.414062 C 289.871094 56.507812 289.414062 56.558594 288.949219 56.558594 C 287.785156 56.558594 286.863281 56.21875 286.183594 55.542969 C 285.503906 54.863281 285.164062 53.949219 285.164062 52.792969 C 285.164062 51.601562 285.488281 50.652344 286.132812 49.953125 C 286.777344 49.25 287.644531 48.902344 288.742188 48.902344 C 289.722656 48.902344 290.496094 49.21875 291.066406 49.847656 C 291.640625 50.480469 291.925781 51.335938 291.925781 52.421875 Z M 290.726562 52.070312 C 290.71875 51.414062 290.535156 50.894531 290.175781 50.503906 C 289.816406 50.113281 289.34375 49.914062 288.753906 49.914062 C 288.085938 49.914062 287.550781 50.105469 287.148438 50.480469 C 286.746094 50.859375 286.515625 51.390625 286.457031 52.078125 Z M 290.726562 52.070312 "/>
<path style=" stroke:none;fill-rule:nonzero;fill:rgb(0%,0%,0%);fill-opacity:1;" d="M 298.6875 50.183594 L 298.6875 46.238281 L 299.886719 46.238281 L 299.886719 56.367188 L 298.6875 56.367188 L 298.6875 55.273438 C 298.4375 55.707031 298.117188 56.03125 297.734375 56.242188 C 297.351562 56.453125 296.890625 56.558594 296.351562 56.558594 C 295.46875 56.558594 294.753906 56.207031 294.199219 55.503906 C 293.644531 54.800781 293.367188 53.875 293.367188 52.726562 C 293.367188 51.582031 293.644531 50.65625 294.199219 49.957031 C 294.753906 49.253906 295.46875 48.902344 296.351562 48.902344 C 296.890625 48.902344 297.351562 49.007812 297.734375 49.21875 C 298.117188 49.425781 298.4375 49.75 298.6875 50.183594 Z M 294.605469 52.726562 C 294.605469 53.609375 294.789062 54.300781 295.148438 54.800781 C 295.511719 55.300781 296.011719 55.554688 296.644531 55.554688 C 297.277344 55.554688 297.777344 55.300781 298.140625 54.800781 C 298.503906 54.300781 298.6875 53.609375 298.6875 52.726562 C 298.6875 51.847656 298.503906 51.15625 298.140625 50.65625 C 297.777344 50.152344 297.277344 49.902344 296.644531 49.902344 C 296.011719 49.902344 295.511719 50.152344 295.148438 50.65625 C 294.789062 51.15625 294.605469 51.847656 294.605469 52.726562 Z M 294.605469 52.726562 "/>
</g>
</svg>
