<?xml version="1.0" encoding="UTF-8"?>
<svg xmlns="http://www.w3.org/2000/svg" xmlns:xlink="http://www.w3.org/1999/xlink" width="326.827087" height="240.875" viewBox="0 0 326.827087 240.875" version="1.1">
<defs>
<clipPath id="clip1">
  <path d="M 56.828125 73 L 317.226562 73 L 317.226562 139 L 56.828125 139 Z M 56.828125 73 "/>
</clipPath>
<clipPath id="clip2">
  <path d="M 56.828125 136 L 317.226562 136 L 317.226562 155 L 56.828125 155 Z M 56.828125 136 "/>
</clipPath>
<clipPath id="clip3">
  <path d="M 56.828125 151 L 317.226562 151 L 317.226562 166 L 56.828125 166 Z M 56.828125 151 "/>
</clipPath>
<clipPath id="clip4">
  <path d="M 56.828125 163 L 317.226562 163 L 317.226562 176 L 56.828125 176 Z M 56.828125 163 "/>
</clipPath>
<clipPath id="clip5">
  <path d="M 56.828125 173 L 317.226562 173 L 317.226562 185 L 56.828125 185 Z M 56.828125 173 "/>
</clipPath>
<clipPath id="clip6">
  <path d="M 56.828125 181 L 282 181 L 282 190.800781 L 56.828125 190.800781 Z M 56.828125 181 "/>
</clipPath>
<clipPath id="clip7">
  <path d="M 279 189 L 317.226562 189 L 317.226562 190.800781 L 279 190.800781 Z M 279 189 "/>
</clipPath>
<clipPath id="clip8">
  <path d="M 56.828125 189 L 59 189 L 59 190.800781 L 56.828125 190.800781 Z M 56.828125 189 "/>
</clipPath>
</defs>
<g id="surface1">
<path style=" stroke:none;fill-rule:nonzero;fill:rgb(100%,100%,100%);fill-opacity:1;" d="M 56.828125 190.800781 L 317.226562 190.800781 L 317.226562 9.601562 L 56.828125 9.601562 Z M 56.828125 190.800781 "/>
<path style="fill:none;stroke-width:0.8;stroke-linecap:butt;stroke-linejoin:round;stroke:rgb(0%,0%,0%);stroke-opacity:1;stroke-miterlimit:4;" d="M 0.000778198 0.000579834 L 0.000778198 3.498627 " transform="matrix(1.333333,0,0,1.333333,117.858337,190.800008)"/>
<path style=" stroke:none;fill-rule:nonzero;fill:rgb(0%,0%,0%);fill-opacity:1;" d="M 109.441406 205.53125 L 117.789062 205.53125 L 117.789062 206.636719 L 109.441406 206.636719 Z M 109.441406 205.53125 "/>
<path style=" stroke:none;fill-rule:nonzero;fill:rgb(0%,0%,0%);fill-opacity:1;" d="M 124.242188 201.691406 L 120.921875 206.878906 L 124.242188 206.878906 Z M 123.894531 200.542969 L 125.550781 200.542969 L 125.550781 206.878906 L 126.9375 206.878906 L 126.9375 207.972656 L 125.550781 207.972656 L 125.550781 210.265625 L 124.242188 210.265625 L 124.242188 207.972656 L 119.855469 207.972656 L 119.855469 206.703125 Z M 123.894531 200.542969 "/>
<path style="fill:none;stroke-width:0.8;stroke-linecap:butt;stroke-linejoin:round;stroke:rgb(0%,0%,0%);stroke-opacity:1;stroke-miterlimit:4;" d="M 0.000778198 0.000579834 L 0.000778198 3.498627 " transform="matrix(1.333333,0,0,1.333333,199.233337,190.800008)"/>
<path style=" stroke:none;fill-rule:nonzero;fill:rgb(0%,0%,0%);fill-opacity:1;" d="M 190.816406 205.53125 L 199.164062 205.53125 L 199.164062 206.636719 L 190.816406 206.636719 Z M 190.816406 205.53125 "/>
<path style=" stroke:none;fill-rule:nonzero;fill:rgb(0%,0%,0%);fill-opacity:1;" d="M 203.136719 209.160156 L 207.726562 209.160156 L 207.726562 210.265625 L 201.554688 210.265625 L 201.554688 209.160156 C 202.054688 208.640625 202.734375 207.949219 203.59375 207.078125 C 204.457031 206.207031 204.996094 205.648438 205.21875 205.394531 C 205.640625 204.921875 205.933594 204.523438 206.101562 204.195312 C 206.269531 203.867188 206.351562 203.542969 206.351562 203.226562 C 206.351562 202.710938 206.171875 202.289062 205.808594 201.964844 C 205.445312 201.636719 204.972656 201.476562 204.390625 201.476562 C 203.980469 201.476562 203.542969 201.546875 203.085938 201.691406 C 202.628906 201.832031 202.140625 202.050781 201.617188 202.339844 L 201.617188 201.011719 C 202.148438 200.800781 202.640625 200.640625 203.101562 200.53125 C 203.5625 200.421875 203.984375 200.367188 204.367188 200.367188 C 205.375 200.367188 206.175781 200.621094 206.773438 201.125 C 207.375 201.628906 207.671875 202.300781 207.671875 203.140625 C 207.671875 203.542969 207.597656 203.921875 207.449219 204.277344 C 207.300781 204.636719 207.027344 205.058594 206.632812 205.542969 C 206.523438 205.671875 206.179688 206.035156 205.597656 206.636719 C 205.015625 207.238281 204.195312 208.078125 203.136719 209.160156 Z M 203.136719 209.160156 "/>
<path style="fill:none;stroke-width:0.8;stroke-linecap:butt;stroke-linejoin:round;stroke:rgb(0%,0%,0%);stroke-opacity:1;stroke-miterlimit:4;" d="M 0.000778198 0.000579834 L 0.000778198 3.498627 " transform="matrix(1.333333,0,0,1.333333,280.608337,190.800008)"/>
<path style=" stroke:none;fill-rule:nonzero;fill:rgb(0%,0%,0%);fill-opacity:1;" d="M 280.605469 201.410156 C 279.929688 201.410156 279.417969 201.742188 279.078125 202.410156 C 278.738281 203.074219 278.566406 204.078125 278.566406 205.414062 C 278.566406 206.746094 278.738281 207.746094 279.078125 208.414062 C 279.417969 209.078125 279.929688 209.414062 280.605469 209.414062 C 281.285156 209.414062 281.796875 209.078125 282.136719 208.414062 C 282.480469 207.746094 282.648438 206.746094 282.648438 205.414062 C 282.648438 204.078125 282.480469 203.074219 282.136719 202.410156 C 281.796875 201.742188 281.285156 201.410156 280.605469 201.410156 Z M 280.605469 200.367188 C 281.695312 200.367188 282.527344 200.800781 283.101562 201.664062 C 283.675781 202.523438 283.964844 203.773438 283.964844 205.414062 C 283.964844 207.050781 283.675781 208.300781 283.101562 209.164062 C 282.527344 210.023438 281.695312 210.453125 280.605469 210.453125 C 279.515625 210.453125 278.683594 210.023438 278.109375 209.164062 C 277.535156 208.300781 277.246094 207.050781 277.246094 205.414062 C 277.246094 203.773438 277.535156 202.523438 278.109375 201.664062 C 278.683594 200.800781 279.515625 200.367188 280.605469 200.367188 Z M 280.605469 200.367188 "/>
<path style=" stroke:none;fill-rule:nonzero;fill:rgb(0%,0%,0%);fill-opacity:1;" d="M 186.160156 221.210938 L 183.519531 224.757812 L 186.292969 228.503906 L 184.882812 228.503906 L 182.757812 225.636719 L 180.636719 228.503906 L 179.222656 228.503906 L 182.054688 224.6875 L 179.464844 221.210938 L 180.878906 221.210938 L 182.808594 223.808594 L 184.742188 221.210938 Z M 186.160156 221.210938 "/>
<path style=" stroke:none;fill-rule:nonzero;fill:rgb(0%,0%,0%);fill-opacity:1;" d="M 188.382812 227.394531 L 190.53125 227.394531 L 190.53125 219.980469 L 188.195312 220.449219 L 188.195312 219.25 L 190.519531 218.78125 L 191.835938 218.78125 L 191.835938 227.394531 L 193.980469 227.394531 L 193.980469 228.503906 L 188.382812 228.503906 Z M 188.382812 227.394531 "/>
<path style="fill:none;stroke-width:0.8;stroke-linecap:butt;stroke-linejoin:round;stroke:rgb(0%,0%,0%);stroke-opacity:1;stroke-miterlimit:4;" d="M 0.000782013 0.000427246 L -3.500195 0.000427246 " transform="matrix(1.333333,0,0,1.333333,56.827082,161.046305)"/>
<path style=" stroke:none;fill-rule:nonzero;fill:rgb(0%,0%,0%);fill-opacity:1;" d="M 29.25 161.378906 L 37.597656 161.378906 L 37.597656 162.484375 L 29.25 162.484375 Z M 29.25 161.378906 "/>
<path style=" stroke:none;fill-rule:nonzero;fill:rgb(0%,0%,0%);fill-opacity:1;" d="M 41.566406 165.003906 L 46.15625 165.003906 L 46.15625 166.113281 L 39.988281 166.113281 L 39.988281 165.003906 C 40.484375 164.488281 41.164062 163.796875 42.027344 162.925781 C 42.886719 162.054688 43.429688 161.492188 43.652344 161.242188 C 44.070312 160.769531 44.367188 160.367188 44.53125 160.042969 C 44.699219 159.714844 44.785156 159.390625 44.785156 159.074219 C 44.785156 158.558594 44.601562 158.136719 44.242188 157.8125 C 43.878906 157.484375 43.40625 157.324219 42.824219 157.324219 C 42.410156 157.324219 41.976562 157.394531 41.519531 157.535156 C 41.0625 157.679688 40.570312 157.898438 40.050781 158.1875 L 40.050781 156.859375 C 40.582031 156.648438 41.074219 156.488281 41.535156 156.378906 C 41.996094 156.269531 42.417969 156.214844 42.800781 156.214844 C 43.804688 156.214844 44.609375 156.46875 45.207031 156.972656 C 45.804688 157.476562 46.105469 158.148438 46.105469 158.988281 C 46.105469 159.390625 46.03125 159.769531 45.878906 160.125 C 45.730469 160.484375 45.460938 160.90625 45.0625 161.390625 C 44.957031 161.515625 44.609375 161.882812 44.027344 162.484375 C 43.449219 163.085938 42.628906 163.925781 41.566406 165.003906 Z M 41.566406 165.003906 "/>
<path style="fill:none;stroke-width:0.8;stroke-linecap:butt;stroke-linejoin:round;stroke:rgb(0%,0%,0%);stroke-opacity:1;stroke-miterlimit:4;" d="M 0.000782013 0.000106812 L -3.500195 0.000106812 " transform="matrix(1.333333,0,0,1.333333,56.827082,101.53892)"/>
<path style=" stroke:none;fill-rule:nonzero;fill:rgb(0%,0%,0%);fill-opacity:1;" d="M 43.246094 97.75 C 42.570312 97.75 42.0625 98.082031 41.722656 98.75 C 41.378906 99.414062 41.210938 100.417969 41.210938 101.753906 C 41.210938 103.085938 41.378906 104.085938 41.722656 104.753906 C 42.0625 105.417969 42.570312 105.753906 43.246094 105.753906 C 43.929688 105.753906 44.441406 105.417969 44.78125 104.753906 C 45.121094 104.085938 45.292969 103.085938 45.292969 101.753906 C 45.292969 100.417969 45.121094 99.414062 44.78125 98.75 C 44.441406 98.082031 43.929688 97.75 43.246094 97.75 Z M 43.246094 96.707031 C 44.339844 96.707031 45.171875 97.140625 45.746094 98.003906 C 46.320312 98.863281 46.609375 100.113281 46.609375 101.753906 C 46.609375 103.390625 46.320312 104.640625 45.746094 105.503906 C 45.171875 106.363281 44.339844 106.792969 43.246094 106.792969 C 42.160156 106.792969 41.328125 106.363281 40.753906 105.503906 C 40.175781 104.640625 39.890625 103.390625 39.890625 101.753906 C 39.890625 100.113281 40.175781 98.863281 40.753906 98.003906 C 41.328125 97.140625 42.160156 96.707031 43.246094 96.707031 Z M 43.246094 96.707031 "/>
<path style="fill:none;stroke-width:0.8;stroke-linecap:butt;stroke-linejoin:round;stroke:rgb(0%,0%,0%);stroke-opacity:1;stroke-miterlimit:4;" d="M 0.000782013 -0.000207901 L -3.500195 -0.000207901 " transform="matrix(1.333333,0,0,1.333333,56.827082,42.031527)"/>
<path style=" stroke:none;fill-rule:nonzero;fill:rgb(0%,0%,0%);fill-opacity:1;" d="M 41.570312 45.992188 L 46.160156 45.992188 L 46.160156 47.097656 L 39.988281 47.097656 L 39.988281 45.992188 C 40.484375 45.472656 41.164062 44.78125 42.027344 43.910156 C 42.890625 43.039062 43.429688 42.480469 43.652344 42.226562 C 44.074219 41.753906 44.367188 41.355469 44.535156 41.027344 C 44.703125 40.699219 44.785156 40.375 44.785156 40.058594 C 44.785156 39.542969 44.605469 39.121094 44.242188 38.796875 C 43.878906 38.472656 43.40625 38.308594 42.824219 38.308594 C 42.414062 38.308594 41.976562 38.378906 41.519531 38.523438 C 41.0625 38.664062 40.574219 38.882812 40.050781 39.175781 L 40.050781 37.84375 C 40.582031 37.632812 41.074219 37.472656 41.535156 37.363281 C 41.996094 37.253906 42.417969 37.203125 42.800781 37.203125 C 43.808594 37.203125 44.609375 37.453125 45.207031 37.957031 C 45.808594 38.460938 46.105469 39.132812 46.105469 39.972656 C 46.105469 40.375 46.03125 40.753906 45.882812 41.113281 C 45.734375 41.46875 45.460938 41.890625 45.066406 42.375 C 44.957031 42.503906 44.609375 42.867188 44.027344 43.46875 C 43.449219 44.070312 42.628906 44.910156 41.570312 45.992188 Z M 41.570312 45.992188 "/>
<path style=" stroke:none;fill-rule:nonzero;fill:rgb(0%,0%,0%);fill-opacity:1;" d="M 12.441406 101.070312 L 15.988281 103.707031 L 19.730469 100.933594 L 19.730469 102.347656 L 16.867188 104.46875 L 19.730469 106.589844 L 19.730469 108.003906 L 15.917969 105.171875 L 12.441406 107.761719 L 12.441406 106.351562 L 15.039062 104.417969 L 12.441406 102.484375 Z M 12.441406 101.070312 "/>
<path style=" stroke:none;fill-rule:nonzero;fill:rgb(0%,0%,0%);fill-opacity:1;" d="M 18.625 97.9375 L 18.625 93.347656 L 19.730469 93.347656 L 19.730469 99.519531 L 18.625 99.519531 C 18.109375 99.019531 17.414062 98.339844 16.546875 97.480469 C 15.675781 96.617188 15.113281 96.074219 14.859375 95.855469 C 14.386719 95.433594 13.988281 95.140625 13.660156 94.972656 C 13.332031 94.804688 13.011719 94.722656 12.695312 94.722656 C 12.175781 94.722656 11.757812 94.902344 11.429688 95.265625 C 11.105469 95.628906 10.941406 96.101562 10.941406 96.683594 C 10.941406 97.09375 11.011719 97.53125 11.15625 97.988281 C 11.300781 98.445312 11.515625 98.933594 11.808594 99.457031 L 10.480469 99.457031 C 10.265625 98.925781 10.105469 98.429688 9.996094 97.972656 C 9.890625 97.511719 9.835938 97.089844 9.835938 96.707031 C 9.835938 95.699219 10.085938 94.898438 10.589844 94.300781 C 11.09375 93.699219 11.765625 93.402344 12.609375 93.402344 C 13.007812 93.402344 13.386719 93.476562 13.746094 93.625 C 14.101562 93.773438 14.523438 94.046875 15.011719 94.441406 C 15.136719 94.550781 15.5 94.894531 16.101562 95.476562 C 16.703125 96.058594 17.542969 96.878906 18.625 97.9375 Z M 18.625 97.9375 "/>
<path style="fill:none;stroke-width:1.5;stroke-linecap:square;stroke-linejoin:round;stroke:rgb(100%,49.803922%,5.490196%);stroke-opacity:1;stroke-miterlimit:4;" d="M 57.878906 120.785156 L 76.186523 13.672852 L 96.875977 136.851562 L 115.678711 21.972656 L 131.753906 123.287109 L 145.21582 35.496094 L 156.410156 111.128906 L 165.694336 46.098633 L 173.387695 101.973633 L 179.756836 53.973633 L 185.036133 95.206055 L 189.404297 59.789062 L 193.022461 90.210938 L 196.019531 64.081055 L 198.500977 86.525391 L 200.557617 67.245117 L 202.256836 83.806641 L 203.666016 69.583008 L 204.834961 81.799805 L 205.801758 71.305664 L 206.601562 80.320312 " transform="matrix(1.333333,0,0,1.333333,0,0)"/>
<path style="fill-rule:nonzero;fill:rgb(100%,49.803922%,5.490196%);fill-opacity:1;stroke-width:1;stroke-linecap:butt;stroke-linejoin:round;stroke:rgb(100%,49.803922%,5.490196%);stroke-opacity:1;stroke-miterlimit:4;" d="M 0.000782013 3.000427 C 0.794727 3.000427 1.559376 2.684021 2.121876 2.121521 C 2.684376 1.559021 3.000782 0.794373 3.000782 0.000427246 C 3.000782 -0.796448 2.684376 -1.558167 2.121876 -2.120667 C 1.559376 -2.683167 0.794727 -2.999573 0.000782013 -2.999573 C -0.796093 -2.999573 -1.557812 -2.683167 -2.120312 -2.120667 C -2.682812 -1.558167 -2.999218 -0.796448 -2.999218 0.000427246 C -2.999218 0.794373 -2.682812 1.559021 -2.120312 2.121521 C -1.557812 2.684021 -0.796093 3.000427 0.000782013 3.000427 Z M 0.000782013 3.000427 " transform="matrix(1.333333,0,0,1.333333,77.170832,161.046305)"/>
<path style="fill-rule:nonzero;fill:rgb(100%,49.803922%,5.490196%);fill-opacity:1;stroke-width:1;stroke-linecap:butt;stroke-linejoin:round;stroke:rgb(100%,49.803922%,5.490196%);stroke-opacity:1;stroke-miterlimit:4;" d="M -0.000976562 3.001423 C 0.795898 3.001423 1.557617 2.685017 2.120117 2.122517 C 2.682617 1.560017 2.999023 0.795368 2.999023 0.00142288 C 2.999023 -0.795452 2.682617 -1.560101 2.120117 -2.122601 C 1.557617 -2.685101 0.795898 -2.998577 -0.000976562 -2.998577 C -0.794922 -2.998577 -1.55957 -2.685101 -2.12207 -2.122601 C -2.68457 -1.560101 -3.000977 -0.795452 -3.000977 0.00142288 C -3.000977 0.795368 -2.68457 1.560017 -2.12207 2.122517 C -1.55957 2.685017 -0.794922 3.001423 -0.000976562 3.001423 Z M -0.000976562 3.001423 " transform="matrix(1.333333,0,0,1.333333,101.583333,18.228572)"/>
<path style="fill-rule:nonzero;fill:rgb(100%,49.803922%,5.490196%);fill-opacity:1;stroke-width:1;stroke-linecap:butt;stroke-linejoin:round;stroke:rgb(100%,49.803922%,5.490196%);stroke-opacity:1;stroke-miterlimit:4;" d="M -0.00111389 2.999832 C 0.795761 2.999832 1.55748 2.683426 2.11998 2.120926 C 2.68248 1.558426 2.998886 0.796707 2.998886 -0.000167847 C 2.998886 -0.797043 2.68248 -1.558762 2.11998 -2.121262 C 1.55748 -2.683762 0.795761 -3.000168 -0.00111389 -3.000168 C -0.795059 -3.000168 -1.559708 -2.683762 -2.122208 -2.121262 C -2.684708 -1.558762 -3.001114 -0.797043 -3.001114 -0.000167847 C -3.001114 0.796707 -2.684708 1.558426 -2.122208 2.120926 C -1.559708 2.683426 -0.795059 2.999832 -0.00111389 2.999832 Z M -0.00111389 2.999832 " transform="matrix(1.333333,0,0,1.333333,129.169454,182.468974)"/>
<path style="fill-rule:nonzero;fill:rgb(100%,49.803922%,5.490196%);fill-opacity:1;stroke-width:1;stroke-linecap:butt;stroke-linejoin:round;stroke:rgb(100%,49.803922%,5.490196%);stroke-opacity:1;stroke-miterlimit:4;" d="M -0.000282288 2.999947 C 0.796593 2.999947 1.558311 2.68354 2.120811 2.12104 C 2.683311 1.55854 2.999718 0.796822 2.999718 -0.0000534058 C 2.999718 -0.796928 2.683311 -1.558647 2.120811 -2.121147 C 1.558311 -2.683647 0.796593 -3.000053 -0.000282288 -3.000053 C -0.794228 -3.000053 -1.558876 -2.683647 -2.121376 -2.121147 C -2.683876 -1.558647 -3.000282 -0.796928 -3.000282 -0.0000534058 C -3.000282 0.796822 -2.683876 1.55854 -2.121376 2.12104 C -1.558876 2.68354 -0.794228 2.999947 -0.000282288 2.999947 Z M -0.000282288 2.999947 " transform="matrix(1.333333,0,0,1.333333,154.238658,29.296946)"/>
<path style="fill-rule:nonzero;fill:rgb(100%,49.803922%,5.490196%);fill-opacity:1;stroke-width:1;stroke-linecap:butt;stroke-linejoin:round;stroke:rgb(100%,49.803922%,5.490196%);stroke-opacity:1;stroke-miterlimit:4;" d="M 0.00117493 2.998604 C 0.79512 2.998604 1.559769 2.685127 2.122269 2.122627 C 2.684769 1.560127 3.001175 0.795479 3.001175 -0.00139618 C 3.001175 -0.795341 2.684769 -1.55999 2.122269 -2.12249 C 1.559769 -2.68499 0.79512 -3.001396 0.00117493 -3.001396 C -0.7957 -3.001396 -1.557419 -2.68499 -2.119919 -2.12249 C -2.685349 -1.55999 -2.998825 -0.795341 -2.998825 -0.00139618 C -2.998825 0.795479 -2.685349 1.560127 -2.119919 2.122627 C -1.557419 2.685127 -0.7957 2.998604 0.00117493 2.998604 Z M 0.00117493 2.998604 " transform="matrix(1.333333,0,0,1.333333,175.670308,164.384674)"/>
<path style="fill-rule:nonzero;fill:rgb(100%,49.803922%,5.490196%);fill-opacity:1;stroke-width:1;stroke-linecap:butt;stroke-linejoin:round;stroke:rgb(100%,49.803922%,5.490196%);stroke-opacity:1;stroke-miterlimit:4;" d="M 0.000228882 3.000999 C 0.794174 3.000999 1.558823 2.684593 2.121323 2.122093 C 2.683823 1.559593 3.000229 0.794945 3.000229 0.000999451 C 3.000229 -0.795876 2.683823 -1.557594 2.121323 -2.120094 C 1.558823 -2.682594 0.794174 -2.999001 0.000228882 -2.999001 C -0.796646 -2.999001 -1.558365 -2.682594 -2.120865 -2.120094 C -2.683365 -1.557594 -2.999771 -0.795876 -2.999771 0.000999451 C -2.999771 0.794945 -2.683365 1.559593 -2.120865 2.122093 C -1.558365 2.684593 -0.796646 3.000999 0.000228882 3.000999 Z M 0.000228882 3.000999 " transform="matrix(1.333333,0,0,1.333333,193.620789,47.326792)"/>
<path style="fill-rule:nonzero;fill:rgb(100%,49.803922%,5.490196%);fill-opacity:1;stroke-width:1;stroke-linecap:butt;stroke-linejoin:round;stroke:rgb(100%,49.803922%,5.490196%);stroke-opacity:1;stroke-miterlimit:4;" d="M -0.0000305176 3.000343 C 0.796844 3.000343 1.558563 2.683937 2.121063 2.121437 C 2.683563 1.558937 2.999969 0.794289 2.999969 0.000343323 C 2.999969 -0.796532 2.683563 -1.55825 2.121063 -2.12075 C 1.558563 -2.68325 0.796844 -2.999657 -0.0000305176 -2.999657 C -0.796906 -2.999657 -1.558624 -2.68325 -2.121124 -2.12075 C -2.683624 -1.55825 -3.000031 -0.796532 -3.000031 0.000343323 C -3.000031 0.794289 -2.683624 1.558937 -2.121124 2.121437 C -1.558624 2.683937 -0.796906 3.000343 -0.0000305176 3.000343 Z M -0.0000305176 3.000343 " transform="matrix(1.333333,0,0,1.333333,208.546916,148.171417)"/>
<path style="fill-rule:nonzero;fill:rgb(100%,49.803922%,5.490196%);fill-opacity:1;stroke-width:1;stroke-linecap:butt;stroke-linejoin:round;stroke:rgb(100%,49.803922%,5.490196%);stroke-opacity:1;stroke-miterlimit:4;" d="M -0.0000305176 3.000206 C 0.796844 3.000206 1.558563 2.6838 2.121063 2.1213 C 2.683563 1.5588 2.999969 0.794151 2.999969 0.000205994 C 2.999969 -0.796669 2.683563 -1.558388 2.121063 -2.120888 C 1.558563 -2.683388 0.796844 -2.999794 -0.0000305176 -2.999794 C -0.796906 -2.999794 -1.558624 -2.683388 -2.121124 -2.120888 C -2.683624 -1.558388 -3.000031 -0.796669 -3.000031 0.000205994 C -3.000031 0.794151 -2.683624 1.5588 -2.121124 2.1213 C -1.558624 2.6838 -0.796906 3.000206 -0.0000305176 3.000206 Z M -0.0000305176 3.000206 " transform="matrix(1.333333,0,0,1.333333,220.925822,61.464569)"/>
<path style="fill-rule:nonzero;fill:rgb(100%,49.803922%,5.490196%);fill-opacity:1;stroke-width:1;stroke-linecap:butt;stroke-linejoin:round;stroke:rgb(100%,49.803922%,5.490196%);stroke-opacity:1;stroke-miterlimit:4;" d="M 0.000854492 2.998917 C 0.7948 2.998917 1.559448 2.68251 2.121948 2.12001 C 2.684448 1.55751 3.000854 0.795792 3.000854 -0.00108337 C 3.000854 -0.795029 2.684448 -1.559677 2.121948 -2.122177 C 1.559448 -2.684677 0.7948 -3.001083 0.000854492 -3.001083 C -0.796021 -3.001083 -1.557739 -2.684677 -2.120239 -2.122177 C -2.682739 -1.559677 -2.999146 -0.795029 -2.999146 -0.00108337 C -2.999146 0.795792 -2.682739 1.55751 -2.120239 2.12001 C -1.557739 2.68251 -0.796021 2.998917 0.000854492 2.998917 Z M 0.000854492 2.998917 " transform="matrix(1.333333,0,0,1.333333,231.182454,135.966288)"/>
<path style="fill-rule:nonzero;fill:rgb(100%,49.803922%,5.490196%);fill-opacity:1;stroke-width:1;stroke-linecap:butt;stroke-linejoin:round;stroke:rgb(100%,49.803922%,5.490196%);stroke-opacity:1;stroke-miterlimit:4;" d="M -0.00144958 2.999115 C 0.795425 2.999115 1.560074 2.682709 2.122574 2.120209 C 2.685074 1.557709 2.99855 0.79599 2.99855 -0.00088501 C 2.99855 -0.79483 2.685074 -1.559479 2.122574 -2.121979 C 1.560074 -2.684479 0.795425 -3.000885 -0.00144958 -3.000885 C -0.795395 -3.000885 -1.560043 -2.684479 -2.122543 -2.121979 C -2.685043 -1.559479 -3.00145 -0.79483 -3.00145 -0.00088501 C -3.00145 0.79599 -2.685043 1.557709 -2.122543 2.120209 C -1.560043 2.682709 -0.795395 2.999115 -0.00144958 2.999115 Z M -0.00144958 2.999115 " transform="matrix(1.333333,0,0,1.333333,239.677714,71.966024)"/>
<path style="fill-rule:nonzero;fill:rgb(100%,49.803922%,5.490196%);fill-opacity:1;stroke-width:1;stroke-linecap:butt;stroke-linejoin:round;stroke:rgb(100%,49.803922%,5.490196%);stroke-opacity:1;stroke-miterlimit:4;" d="M 0.00123596 3.000381 C 0.795181 3.000381 1.55983 2.683975 2.12233 2.121475 C 2.68483 1.558975 3.001236 0.794327 3.001236 0.00038147 C 3.001236 -0.796494 2.68483 -1.558212 2.12233 -2.120712 C 1.55983 -2.683212 0.795181 -2.999619 0.00123596 -2.999619 C -0.795639 -2.999619 -1.557358 -2.683212 -2.119858 -2.120712 C -2.685287 -1.558212 -2.998764 -0.796494 -2.998764 0.00038147 C -2.998764 0.794327 -2.685287 1.558975 -2.119858 2.121475 C -1.557358 2.683975 -0.795639 3.000381 0.00123596 3.000381 Z M 0.00123596 3.000381 " transform="matrix(1.333333,0,0,1.333333,246.713196,126.940898)"/>
<path style="fill-rule:nonzero;fill:rgb(100%,49.803922%,5.490196%);fill-opacity:1;stroke-width:1;stroke-linecap:butt;stroke-linejoin:round;stroke:rgb(100%,49.803922%,5.490196%);stroke-opacity:1;stroke-miterlimit:4;" d="M -0.000320435 2.999168 C 0.796555 2.999168 1.558273 2.682762 2.120773 2.120262 C 2.683273 1.557762 2.99968 0.796043 2.99968 -0.000831604 C 2.99968 -0.794777 2.683273 -1.559425 2.120773 -2.121925 C 1.558273 -2.684425 0.796555 -3.000832 -0.000320435 -3.000832 C -0.794266 -3.000832 -1.558914 -2.684425 -2.121414 -2.121925 C -2.683914 -1.559425 -3.00032 -0.794777 -3.00032 -0.000831604 C -3.00032 0.796043 -2.683914 1.557762 -2.121414 2.120262 C -1.558914 2.682762 -0.794266 2.999168 -0.000320435 2.999168 Z M -0.000320435 2.999168 " transform="matrix(1.333333,0,0,1.333333,252.53949,79.719859)"/>
<path style="fill-rule:nonzero;fill:rgb(100%,49.803922%,5.490196%);fill-opacity:1;stroke-width:1;stroke-linecap:butt;stroke-linejoin:round;stroke:rgb(100%,49.803922%,5.490196%);stroke-opacity:1;stroke-miterlimit:4;" d="M -0.000778198 3.000687 C 0.796097 3.000687 1.557816 2.68428 2.120316 2.12178 C 2.682816 1.55928 2.999222 0.794632 2.999222 0.000686646 C 2.999222 -0.796188 2.682816 -1.557907 2.120316 -2.120407 C 1.557816 -2.682907 0.796097 -2.999313 -0.000778198 -2.999313 C -0.794724 -2.999313 -1.559372 -2.682907 -2.121872 -2.120407 C -2.684372 -1.557907 -3.000778 -0.796188 -3.000778 0.000686646 C -3.000778 0.794632 -2.684372 1.55928 -2.121872 2.12178 C -1.559372 2.68428 -0.794724 3.000687 -0.000778198 3.000687 Z M -0.000778198 3.000687 " transform="matrix(1.333333,0,0,1.333333,257.364319,120.280334)"/>
<path style="fill-rule:nonzero;fill:rgb(100%,49.803922%,5.490196%);fill-opacity:1;stroke-width:1;stroke-linecap:butt;stroke-linejoin:round;stroke:rgb(100%,49.803922%,5.490196%);stroke-opacity:1;stroke-miterlimit:4;" d="M -0.000320435 3.000267 C 0.796555 3.000267 1.558273 2.683861 2.120773 2.121361 C 2.683273 1.558861 2.99968 0.794212 2.99968 0.000267029 C 2.99968 -0.796608 2.683273 -1.558327 2.120773 -2.120827 C 1.558273 -2.683327 0.796555 -2.999733 -0.000320435 -2.999733 C -0.794266 -2.999733 -1.558914 -2.683327 -2.121414 -2.120827 C -2.683914 -1.558327 -3.00032 -0.796608 -3.00032 0.000267029 C -3.00032 0.794212 -2.683914 1.558861 -2.121414 2.121361 C -1.558914 2.683861 -0.794266 3.000267 -0.000320435 3.000267 Z M -0.000320435 3.000267 " transform="matrix(1.333333,0,0,1.333333,261.359802,85.44105)"/>
<path style="fill-rule:nonzero;fill:rgb(100%,49.803922%,5.490196%);fill-opacity:1;stroke-width:1;stroke-linecap:butt;stroke-linejoin:round;stroke:rgb(100%,49.803922%,5.490196%);stroke-opacity:1;stroke-miterlimit:4;" d="M -0.000396729 3.000809 C 0.796478 3.000809 1.558197 2.684402 2.120697 2.121902 C 2.683197 1.559402 2.999603 0.794754 2.999603 0.000808716 C 2.999603 -0.796066 2.683197 -1.557785 2.120697 -2.120285 C 1.558197 -2.682785 0.796478 -2.999191 -0.000396729 -2.999191 C -0.794342 -2.999191 -1.55899 -2.682785 -2.12149 -2.120285 C -2.68399 -1.557785 -3.000397 -0.796066 -3.000397 0.000808716 C -3.000397 0.794754 -2.68399 1.559402 -2.12149 2.121902 C -1.55899 2.684402 -0.794342 3.000809 -0.000396729 3.000809 Z M -0.000396729 3.000809 " transform="matrix(1.333333,0,0,1.333333,264.668498,115.366109)"/>
<path style="fill-rule:nonzero;fill:rgb(100%,49.803922%,5.490196%);fill-opacity:1;stroke-width:1;stroke-linecap:butt;stroke-linejoin:round;stroke:rgb(100%,49.803922%,5.490196%);stroke-opacity:1;stroke-miterlimit:4;" d="M 0.00126648 3.001465 C 0.795212 3.001465 1.55986 2.685059 2.12236 2.122559 C 2.68486 1.560059 3.001266 0.79541 3.001266 0.00146484 C 3.001266 -0.79541 2.68486 -1.560059 2.12236 -2.122559 C 1.55986 -2.685059 0.795212 -2.998535 0.00126648 -2.998535 C -0.795609 -2.998535 -1.557327 -2.685059 -2.122757 -2.122559 C -2.685257 -1.560059 -2.998734 -0.79541 -2.998734 0.00146484 C -2.998734 0.79541 -2.685257 1.560059 -2.122757 2.122559 C -1.557327 2.685059 -0.795609 3.001465 0.00126648 3.001465 Z M 0.00126648 3.001465 " transform="matrix(1.333333,0,0,1.333333,267.408468,89.662109)"/>
<path style="fill-rule:nonzero;fill:rgb(100%,49.803922%,5.490196%);fill-opacity:1;stroke-width:1;stroke-linecap:butt;stroke-linejoin:round;stroke:rgb(100%,49.803922%,5.490196%);stroke-opacity:1;stroke-miterlimit:4;" d="M -0.00123596 3.001305 C 0.795639 3.001305 1.557358 2.684898 2.119858 2.122398 C 2.685287 1.559898 2.998764 0.79525 2.998764 0.00130463 C 2.998764 -0.79557 2.685287 -1.557289 2.119858 -2.122719 C 1.557358 -2.685219 0.795639 -2.998695 -0.00123596 -2.998695 C -0.795181 -2.998695 -1.55983 -2.685219 -2.12233 -2.122719 C -2.68483 -1.557289 -3.001236 -0.79557 -3.001236 0.00130463 C -3.001236 0.79525 -2.68483 1.559898 -2.12233 2.122398 C -1.55983 2.684898 -0.795181 3.001305 -0.00123596 3.001305 Z M -0.00123596 3.001305 " transform="matrix(1.333333,0,0,1.333333,269.677429,111.740448)"/>
<path style="fill-rule:nonzero;fill:rgb(100%,49.803922%,5.490196%);fill-opacity:1;stroke-width:1;stroke-linecap:butt;stroke-linejoin:round;stroke:rgb(100%,49.803922%,5.490196%);stroke-opacity:1;stroke-miterlimit:4;" d="M -0.00126648 3.00074 C 0.795609 3.00074 1.557327 2.684334 2.122757 2.121834 C 2.685257 1.559334 2.998734 0.794685 2.998734 0.000740051 C 2.998734 -0.796135 2.685257 -1.557854 2.122757 -2.120354 C 1.557327 -2.682854 0.795609 -2.99926 -0.00126648 -2.99926 C -0.795212 -2.99926 -1.55986 -2.682854 -2.12236 -2.120354 C -2.68486 -1.557854 -3.001266 -0.796135 -3.001266 0.000740051 C -3.001266 0.794685 -2.68486 1.559334 -2.12236 2.121834 C -1.55986 2.684334 -0.795212 3.00074 -0.00126648 3.00074 Z M -0.00126648 3.00074 " transform="matrix(1.333333,0,0,1.333333,271.556376,92.776357)"/>
<path style="fill-rule:nonzero;fill:rgb(100%,49.803922%,5.490196%);fill-opacity:1;stroke-width:1;stroke-linecap:butt;stroke-linejoin:round;stroke:rgb(100%,49.803922%,5.490196%);stroke-opacity:1;stroke-miterlimit:4;" d="M 0.000686646 3.000702 C 0.794632 3.000702 1.55928 2.684296 2.12178 2.121796 C 2.68428 1.559296 3.000687 0.794647 3.000687 0.000701904 C 3.000687 -0.796173 2.68428 -1.557892 2.12178 -2.120392 C 1.55928 -2.682892 0.794632 -2.999298 0.000686646 -2.999298 C -0.796188 -2.999298 -1.557907 -2.682892 -2.120407 -2.120392 C -2.682907 -1.557892 -2.999313 -0.796173 -2.999313 0.000701904 C -2.999313 0.794647 -2.682907 1.559296 -2.120407 2.121796 C -1.557907 2.684296 -0.796188 3.000702 0.000686646 3.000702 Z M 0.000686646 3.000702 " transform="matrix(1.333333,0,0,1.333333,273.112366,109.06547)"/>
<path style="fill-rule:nonzero;fill:rgb(100%,49.803922%,5.490196%);fill-opacity:1;stroke-width:1;stroke-linecap:butt;stroke-linejoin:round;stroke:rgb(100%,49.803922%,5.490196%);stroke-opacity:1;stroke-miterlimit:4;" d="M 0.00111389 3.000153 C 0.795059 3.000153 1.559708 2.683746 2.122208 2.121246 C 2.684708 1.558746 3.001114 0.797028 3.001114 0.000152588 C 3.001114 -0.796722 2.684708 -1.558441 2.122208 -2.120941 C 1.559708 -2.683441 0.795059 -2.999847 0.00111389 -2.999847 C -0.795761 -2.999847 -1.55748 -2.683441 -2.11998 -2.120941 C -2.68248 -1.558441 -2.998886 -0.796722 -2.998886 0.000152588 C -2.998886 0.797028 -2.68248 1.558746 -2.11998 2.121246 C -1.55748 2.683746 -0.795761 3.000153 0.00111389 3.000153 Z M 0.00111389 3.000153 " transform="matrix(1.333333,0,0,1.333333,274.400859,95.074015)"/>
<path style="fill-rule:nonzero;fill:rgb(100%,49.803922%,5.490196%);fill-opacity:1;stroke-width:1;stroke-linecap:butt;stroke-linejoin:round;stroke:rgb(100%,49.803922%,5.490196%);stroke-opacity:1;stroke-miterlimit:4;" d="M 0.000640869 3.001373 C 0.794586 3.001373 1.559235 2.684967 2.121735 2.122467 C 2.684235 1.559967 3.000641 0.795319 3.000641 0.00137329 C 3.000641 -0.795502 2.684235 -1.56015 2.121735 -2.12265 C 1.559235 -2.68515 0.794586 -2.998627 0.000640869 -2.998627 C -0.796234 -2.998627 -1.557953 -2.68515 -2.120453 -2.12265 C -2.682953 -1.56015 -2.999359 -0.795502 -2.999359 0.00137329 C -2.999359 0.795319 -2.682953 1.559967 -2.120453 2.122467 C -1.557953 2.684967 -0.796234 3.001373 0.000640869 3.001373 Z M 0.000640869 3.001373 " transform="matrix(1.333333,0,0,1.333333,275.467896,107.091919)"/>
<g clip-path="url(#clip1)" clip-rule="nonzero">
<path style="fill:none;stroke-width:1.5;stroke-linecap:butt;stroke-linejoin:round;stroke:rgb(12.156863%,46.666667%,70.588237%);stroke-opacity:1;stroke-miterlimit:4;" d="M 97.101562 56.071289 L 94.49707 56.490234 L 91.444336 56.99707 L 88.394531 57.515625 L 85.341797 58.045898 L 83.90918 58.300781 L 82.291992 58.628906 L 79.239258 59.261719 L 76.186523 59.90918 L 73.306641 60.533203 L 73.136719 60.577148 L 70.083984 61.356445 L 67.03418 62.15625 L 64.751953 62.765625 L 63.981445 63.008789 L 60.928711 63.993164 L 57.878906 64.995117 L 54.826172 66.249023 L 52.485352 67.227539 L 51.776367 67.611328 L 48.723633 69.28418 L 48.410156 69.459961 L 45.670898 71.601562 L 45.55957 71.692383 L 43.880859 73.921875 L 43.321289 76.154297 L 43.880859 78.386719 L 45.55957 80.616211 L 45.670898 80.707031 L 48.410156 82.848633 L 48.723633 83.024414 L 51.776367 84.697266 L 52.485352 85.081055 L 54.826172 86.05957 L 57.878906 87.310547 L 60.928711 88.31543 L 63.981445 89.299805 L 64.751953 89.542969 L 67.03418 90.152344 L 70.083984 90.952148 L 73.136719 91.731445 L 73.306641 91.775391 L 76.186523 92.399414 L 79.239258 93.046875 L 82.291992 93.679688 L 83.90918 94.007812 L 85.341797 94.262695 L 88.394531 94.792969 L 91.444336 95.311523 L 94.49707 95.818359 L 97.101562 96.237305 L 97.549805 96.301758 L 100.599609 96.732422 L 103.652344 97.148438 L 106.702148 97.552734 L 109.754883 97.948242 L 112.807617 98.329102 L 113.967773 98.469727 L 115.857422 98.677734 L 118.910156 99 L 121.959961 99.313477 L 125.012695 99.618164 L 128.06543 99.908203 L 131.115234 100.192383 L 134.167969 100.461914 L 136.96875 100.702148 L 137.217773 100.719727 L 140.270508 100.948242 L 143.323242 101.167969 L 146.373047 101.375977 L 149.425781 101.575195 L 152.475586 101.762695 L 155.52832 101.944336 L 158.581055 102.111328 L 161.630859 102.272461 L 164.683594 102.421875 L 167.733398 102.5625 L 170.786133 102.694336 L 173.838867 102.817383 L 176.888672 102.928711 L 177.035156 102.931641 L 179.941406 103.022461 L 182.991211 103.107422 L 186.043945 103.183594 L 189.09668 103.248047 L 192.146484 103.306641 L 195.199219 103.356445 L 198.249023 103.397461 L 201.301758 103.426758 L 204.354492 103.450195 L 207.404297 103.464844 L 210.457031 103.467773 L 213.506836 103.464844 L 216.55957 103.450195 L 219.612305 103.426758 L 222.662109 103.397461 L 225.714844 103.356445 L 228.764648 103.306641 L 231.817383 103.248047 L 234.870117 103.183594 L 237.919922 103.107422 " transform="matrix(1.333333,0,0,1.333333,0,0)"/>
</g>
<g clip-path="url(#clip2)" clip-rule="nonzero">
<path style="fill:none;stroke-width:1.5;stroke-linecap:butt;stroke-linejoin:round;stroke:rgb(12.156863%,46.666667%,70.588237%);stroke-opacity:1;stroke-miterlimit:4;" d="M 42.621094 103.356445 L 45.670898 103.842773 L 48.723633 104.320312 L 51.776367 104.789062 L 54.263672 105.164062 L 54.826172 105.243164 L 57.878906 105.65918 L 60.928711 106.069336 L 63.981445 106.470703 L 67.03418 106.863281 L 70.083984 107.24707 L 71.291016 107.396484 L 73.136719 107.607422 L 76.186523 107.950195 L 79.239258 108.28418 L 82.291992 108.612305 L 85.341797 108.931641 L 88.394531 109.242188 L 91.444336 109.546875 L 92.276367 109.625977 L 94.49707 109.828125 L 97.549805 110.097656 L 100.599609 110.361328 L 103.652344 110.616211 L 106.702148 110.865234 L 109.754883 111.105469 L 112.807617 111.339844 L 115.857422 111.568359 L 118.910156 111.788086 L 119.944336 111.858398 L 121.959961 111.990234 L 125.012695 112.183594 L 128.06543 112.368164 L 131.115234 112.549805 L 134.167969 112.719727 L 137.217773 112.886719 L 140.270508 113.044922 L 143.323242 113.197266 L 146.373047 113.34375 L 149.425781 113.481445 L 152.475586 113.613281 L 155.52832 113.739258 L 158.581055 113.856445 L 161.630859 113.967773 L 164.683594 114.073242 L 165.208008 114.09082 L 167.733398 114.166992 L 170.786133 114.251953 L 173.838867 114.331055 L 176.888672 114.404297 L 179.941406 114.47168 L 182.991211 114.533203 L 186.043945 114.588867 L 189.09668 114.635742 L 192.146484 114.676758 L 195.199219 114.711914 L 198.249023 114.741211 L 201.301758 114.761719 L 204.354492 114.779297 L 207.404297 114.788086 L 210.457031 114.791016 L 213.506836 114.788086 L 216.55957 114.779297 L 219.612305 114.761719 L 222.662109 114.741211 L 225.714844 114.711914 L 228.764648 114.676758 L 231.817383 114.635742 L 234.870117 114.588867 L 237.919922 114.533203 " transform="matrix(1.333333,0,0,1.333333,0,0)"/>
</g>
<g clip-path="url(#clip3)" clip-rule="nonzero">
<path style="fill:none;stroke-width:1.5;stroke-linecap:butt;stroke-linejoin:round;stroke:rgb(12.156863%,46.666667%,70.588237%);stroke-opacity:1;stroke-miterlimit:4;" d="M 42.621094 114.711914 L 45.670898 115.060547 L 48.723633 115.400391 L 51.776367 115.734375 L 54.826172 116.0625 L 57.272461 116.320312 L 57.878906 116.381836 L 60.928711 116.680664 L 63.981445 116.973633 L 67.03418 117.260742 L 70.083984 117.539062 L 73.136719 117.814453 L 76.186523 118.083984 L 79.239258 118.344727 L 81.714844 118.552734 L 82.291992 118.599609 L 85.341797 118.836914 L 88.394531 119.068359 L 91.444336 119.293945 L 94.49707 119.513672 L 97.549805 119.730469 L 100.599609 119.938477 L 103.652344 120.140625 L 106.702148 120.339844 L 109.754883 120.530273 L 112.807617 120.714844 L 113.967773 120.785156 L 115.857422 120.890625 L 118.910156 121.057617 L 121.959961 121.21875 L 128.06543 121.523438 L 131.115234 121.666992 L 134.167969 121.804688 L 137.217773 121.939453 L 140.270508 122.06543 L 143.323242 122.188477 L 146.373047 122.305664 L 149.425781 122.416992 L 152.475586 122.522461 L 155.52832 122.625 L 158.581055 122.71875 L 161.630859 122.80957 L 164.683594 122.894531 L 167.733398 122.973633 L 169.543945 123.017578 L 170.786133 123.043945 L 173.838867 123.108398 L 176.888672 123.169922 L 179.941406 123.222656 L 182.991211 123.272461 L 186.043945 123.316406 L 189.09668 123.357422 L 192.146484 123.389648 L 195.199219 123.418945 L 198.249023 123.442383 L 201.301758 123.459961 L 204.354492 123.47168 L 207.404297 123.480469 L 210.457031 123.483398 L 213.506836 123.480469 L 216.55957 123.47168 L 219.612305 123.459961 L 222.662109 123.442383 L 225.714844 123.418945 L 228.764648 123.389648 L 231.817383 123.357422 L 234.870117 123.316406 L 237.919922 123.272461 " transform="matrix(1.333333,0,0,1.333333,0,0)"/>
</g>
<g clip-path="url(#clip4)" clip-rule="nonzero">
<path style="fill:none;stroke-width:1.5;stroke-linecap:butt;stroke-linejoin:round;stroke:rgb(12.156863%,46.666667%,70.588237%);stroke-opacity:1;stroke-miterlimit:4;" d="M 42.621094 123.418945 L 45.670898 123.700195 L 48.723633 123.978516 L 51.776367 124.250977 L 54.826172 124.517578 L 57.878906 124.78125 L 60.928711 125.039062 L 63.477539 125.24707 L 63.981445 125.288086 L 67.03418 125.522461 L 70.083984 125.753906 L 73.136719 125.979492 L 76.186523 126.199219 L 79.239258 126.416016 L 82.291992 126.626953 L 85.341797 126.832031 L 88.394531 127.03418 L 91.444336 127.227539 L 94.49707 127.420898 L 95.472656 127.479492 L 97.549805 127.599609 L 100.599609 127.772461 L 103.652344 127.942383 L 106.702148 128.106445 L 109.754883 128.264648 L 112.807617 128.419922 L 115.857422 128.569336 L 118.910156 128.712891 L 121.959961 128.853516 L 125.012695 128.988281 L 128.06543 129.120117 L 131.115234 129.246094 L 134.167969 129.366211 L 137.217773 129.483398 L 140.270508 129.594727 L 143.323242 129.700195 L 143.604492 129.711914 L 146.373047 129.799805 L 149.425781 129.893555 L 152.475586 129.981445 L 155.52832 130.066406 L 158.581055 130.145508 L 161.630859 130.22168 L 164.683594 130.291992 L 167.733398 130.356445 L 170.786133 130.417969 L 173.838867 130.476562 L 176.888672 130.529297 L 179.941406 130.576172 L 182.991211 130.620117 L 186.043945 130.658203 L 189.09668 130.693359 L 192.146484 130.722656 L 195.199219 130.746094 L 198.249023 130.766602 L 201.301758 130.78418 L 204.354492 130.795898 L 207.404297 130.801758 L 210.457031 130.804688 L 213.506836 130.801758 L 216.55957 130.795898 L 219.612305 130.78418 L 222.662109 130.766602 L 225.714844 130.746094 L 228.764648 130.722656 L 231.817383 130.693359 L 234.870117 130.658203 L 237.919922 130.620117 " transform="matrix(1.333333,0,0,1.333333,0,0)"/>
</g>
<g clip-path="url(#clip5)" clip-rule="nonzero">
<path style="fill:none;stroke-width:1.5;stroke-linecap:butt;stroke-linejoin:round;stroke:rgb(12.156863%,46.666667%,70.588237%);stroke-opacity:1;stroke-miterlimit:4;" d="M 42.621094 130.746094 L 45.670898 130.995117 L 48.723633 131.238281 L 51.776367 131.478516 L 54.826172 131.712891 L 57.878906 131.941406 L 60.928711 132.158203 L 63.981445 132.37207 L 67.03418 132.580078 L 70.083984 132.782227 L 73.136719 132.981445 L 76.186523 133.174805 L 79.239258 133.365234 L 82.291992 133.552734 L 85.341797 133.734375 L 88.394531 133.910156 L 91.444336 134.083008 L 93.070312 134.173828 L 94.49707 134.25 L 97.549805 134.408203 L 100.599609 134.560547 L 103.652344 134.709961 L 106.702148 134.856445 L 109.754883 134.99707 L 112.807617 135.134766 L 115.857422 135.266602 L 118.910156 135.395508 L 121.959961 135.518555 L 125.012695 135.638672 L 128.06543 135.755859 L 131.115234 135.867188 L 134.167969 135.972656 L 137.217773 136.078125 L 143.323242 136.271484 L 146.373047 136.362305 L 147.9375 136.40625 L 149.425781 136.447266 L 152.475586 136.526367 L 155.52832 136.599609 L 158.581055 136.669922 L 161.630859 136.737305 L 164.683594 136.801758 L 167.733398 136.860352 L 170.786133 136.916016 L 173.838867 136.96582 L 176.888672 137.012695 L 179.941406 137.053711 L 182.991211 137.091797 L 186.043945 137.126953 L 189.09668 137.15918 L 192.146484 137.185547 L 195.199219 137.206055 L 198.249023 137.223633 L 201.301758 137.238281 L 204.354492 137.25 L 207.404297 137.255859 L 210.457031 137.258789 L 213.506836 137.255859 L 216.55957 137.25 L 219.612305 137.238281 L 222.662109 137.223633 L 225.714844 137.206055 L 228.764648 137.185547 L 231.817383 137.15918 L 234.870117 137.126953 L 237.919922 137.091797 " transform="matrix(1.333333,0,0,1.333333,0,0)"/>
</g>
<g clip-path="url(#clip6)" clip-rule="nonzero">
<path style="fill:none;stroke-width:1.5;stroke-linecap:butt;stroke-linejoin:round;stroke:rgb(12.156863%,46.666667%,70.588237%);stroke-opacity:1;stroke-miterlimit:4;" d="M 42.621094 137.206055 L 45.670898 137.428711 L 48.723633 137.645508 L 51.776367 137.859375 L 54.826172 138.067383 L 57.878906 138.272461 L 60.928711 138.47168 L 63.477539 138.635742 L 63.981445 138.667969 L 67.03418 138.855469 L 70.083984 139.037109 L 73.136719 139.21582 L 76.186523 139.388672 L 79.239258 139.558594 L 82.291992 139.725586 L 85.341797 139.886719 L 88.394531 140.044922 L 91.444336 140.200195 L 94.49707 140.352539 L 97.549805 140.499023 L 100.599609 140.642578 L 103.652344 140.780273 L 105.641602 140.868164 L 106.702148 140.915039 L 109.754883 141.041016 L 112.807617 141.164062 L 115.857422 141.28125 L 118.910156 141.398438 L 121.959961 141.509766 L 125.012695 141.618164 L 128.06543 141.720703 L 131.115234 141.820312 L 134.167969 141.916992 L 137.217773 142.010742 L 140.270508 142.098633 L 143.323242 142.183594 L 146.373047 142.265625 L 149.425781 142.344727 L 152.475586 142.417969 L 155.52832 142.488281 L 158.581055 142.552734 L 161.630859 142.617188 L 164.683594 142.675781 L 167.733398 142.728516 L 170.786133 142.78125 L 173.838867 142.828125 L 176.888672 142.87207 L 179.941406 142.910156 L 182.991211 142.948242 L 189.09668 143.006836 L 192.146484 143.033203 L 195.199219 143.053711 L 198.249023 143.068359 L 201.301758 143.083008 L 204.354492 143.091797 L 207.404297 143.097656 L 210.457031 143.100586 " transform="matrix(1.333333,0,0,1.333333,0,0)"/>
</g>
<g clip-path="url(#clip7)" clip-rule="nonzero">
<path style="fill:none;stroke-width:1.5;stroke-linecap:butt;stroke-linejoin:round;stroke:rgb(12.156863%,46.666667%,70.588237%);stroke-opacity:1;stroke-miterlimit:4;" d="M 210.457031 143.100586 L 213.506836 143.097656 L 216.55957 143.091797 L 219.612305 143.083008 L 222.662109 143.068359 L 225.714844 143.053711 L 228.764648 143.033203 L 231.817383 143.006836 L 234.870117 142.977539 L 237.919922 142.948242 " transform="matrix(1.333333,0,0,1.333333,0,0)"/>
</g>
<g clip-path="url(#clip8)" clip-rule="nonzero">
<path style="fill:none;stroke-width:1.5;stroke-linecap:butt;stroke-linejoin:round;stroke:rgb(12.156863%,46.666667%,70.588237%);stroke-opacity:1;stroke-miterlimit:4;" d="M 42.621094 143.053711 L 43.321289 143.100586 " transform="matrix(1.333333,0,0,1.333333,0,0)"/>
</g>
<path style="fill:none;stroke-width:0.8;stroke-linecap:square;stroke-linejoin:miter;stroke:rgb(0%,0%,0%);stroke-opacity:1;stroke-miterlimit:4;" d="M 42.621094 143.100586 L 42.621094 7.201172 " transform="matrix(1.333333,0,0,1.333333,0,0)"/>
<path style="fill:none;stroke-width:0.8;stroke-linecap:square;stroke-linejoin:miter;stroke:rgb(0%,0%,0%);stroke-opacity:1;stroke-miterlimit:4;" d="M 237.919922 143.100586 L 237.919922 7.201172 " transform="matrix(1.333333,0,0,1.333333,0,0)"/>
<path style="fill:none;stroke-width:0.8;stroke-linecap:square;stroke-linejoin:miter;stroke:rgb(0%,0%,0%);stroke-opacity:1;stroke-miterlimit:4;" d="M 42.621094 143.100586 L 237.919922 143.100586 " transform="matrix(1.333333,0,0,1.333333,0,0)"/>
<path style="fill:none;stroke-width:0.8;stroke-linecap:square;stroke-linejoin:miter;stroke:rgb(0%,0%,0%);stroke-opacity:1;stroke-miterlimit:4;" d="M 42.621094 7.201172 L 237.919922 7.201172 " transform="matrix(1.333333,0,0,1.333333,0,0)"/>
</g>
</svg>
