<?xml version="1.0" encoding="UTF-8"?>
<svg xmlns="http://www.w3.org/2000/svg" xmlns:xlink="http://www.w3.org/1999/xlink" width="318.620829" height="240.875" viewBox="0 0 318.620829 240.875" version="1.1">
<defs>
<clipPath id="clip1">
  <path d="M 94 9.601562 L 96 9.601562 L 96 190.800781 L 94 190.800781 Z M 94 9.601562 "/>
</clipPath>
<clipPath id="clip2">
  <path d="M 162 9.601562 L 165 9.601562 L 165 190.800781 L 162 190.800781 Z M 162 9.601562 "/>
</clipPath>
<clipPath id="clip3">
  <path d="M 231 9.601562 L 233 9.601562 L 233 190.800781 L 231 190.800781 Z M 231 9.601562 "/>
</clipPath>
<clipPath id="clip4">
  <path d="M 299 9.601562 L 300.539062 9.601562 L 300.539062 190.800781 L 299 190.800781 Z M 299 9.601562 "/>
</clipPath>
<clipPath id="clip5">
  <path d="M 40.136719 154 L 300.539062 154 L 300.539062 156 L 40.136719 156 Z M 40.136719 154 "/>
</clipPath>
<clipPath id="clip6">
  <path d="M 40.136719 117 L 300.539062 117 L 300.539062 120 L 40.136719 120 Z M 40.136719 117 "/>
</clipPath>
<clipPath id="clip7">
  <path d="M 40.136719 81 L 300.539062 81 L 300.539062 83 L 40.136719 83 Z M 40.136719 81 "/>
</clipPath>
<clipPath id="clip8">
  <path d="M 40.136719 44 L 300.539062 44 L 300.539062 47 L 40.136719 47 Z M 40.136719 44 "/>
</clipPath>
<clipPath id="clip9">
  <path d="M 40.136719 16 L 300.539062 16 L 300.539062 144 L 40.136719 144 Z M 40.136719 16 "/>
</clipPath>
<clipPath id="clip10">
  <path d="M 40.136719 134 L 300.539062 134 L 300.539062 184 L 40.136719 184 Z M 40.136719 134 "/>
</clipPath>
<filter id="alpha" filterUnits="objectBoundingBox" x="0%" y="0%" width="100%" height="100%">
  <feColorMatrix type="matrix" in="SourceGraphic" values="0 0 0 0 1 0 0 0 0 1 0 0 0 0 1 0 0 0 1 0"/>
</filter>
<mask id="mask0">
  <g filter="url(#alpha)">
<rect x="0" y="0" width="318.620829" height="240.875" style="fill:rgb(0%,0%,0%);fill-opacity:0.8;stroke:none;"/>
  </g>
</mask>
<clipPath id="clip11">
  <rect x="0" y="0" width="319" height="241"/>
</clipPath>
<g id="surface5" clip-path="url(#clip11)">
<path style="fill-rule:nonzero;fill:rgb(100%,100%,100%);fill-opacity:1;stroke-width:1;stroke-linecap:butt;stroke-linejoin:miter;stroke:rgb(80.000001%,80.000001%,80.000001%);stroke-opacity:1;stroke-miterlimit:4;" d="M 140.633789 44.557617 L 218.402344 44.557617 C 219.735352 44.557617 220.40332 43.889648 220.40332 42.556641 L 220.40332 14.200195 C 220.40332 12.867188 219.735352 12.199219 218.402344 12.199219 L 140.633789 12.199219 C 139.300781 12.199219 138.635742 12.867188 138.635742 14.200195 L 138.635742 42.556641 C 138.635742 43.889648 139.300781 44.557617 140.633789 44.557617 Z M 140.633789 44.557617 " transform="matrix(1.333333,0,0,1.333333,0.000000000000028422,0)"/>
</g>
</defs>
<g id="surface1">
<path style=" stroke:none;fill-rule:nonzero;fill:rgb(100%,100%,100%);fill-opacity:1;" d="M 40.136719 190.800781 L 300.539062 190.800781 L 300.539062 9.601562 L 40.136719 9.601562 Z M 40.136719 190.800781 "/>
<g clip-path="url(#clip1)" clip-rule="nonzero">
<path style="fill:none;stroke-width:0.8;stroke-linecap:square;stroke-linejoin:round;stroke:rgb(69.01961%,69.01961%,69.01961%);stroke-opacity:1;stroke-miterlimit:4;" d="M 71.217773 143.100586 L 71.217773 7.201172 " transform="matrix(1.333333,0,0,1.333333,0.000000000000028422,0)"/>
</g>
<path style="fill:none;stroke-width:0.8;stroke-linecap:butt;stroke-linejoin:round;stroke:rgb(0%,0%,0%);stroke-opacity:1;stroke-miterlimit:4;" d="M -0.00113678 0.000579834 L -0.00113678 3.498627 " transform="matrix(1.333333,0,0,1.333333,94.958547,190.800008)"/>
<path style=" stroke:none;fill-rule:nonzero;fill:rgb(0%,0%,0%);fill-opacity:1;" d="M 92.15625 200.542969 L 97.320312 200.542969 L 97.320312 201.652344 L 93.359375 201.652344 L 93.359375 204.035156 C 93.550781 203.96875 93.742188 203.917969 93.929688 203.886719 C 94.125 203.855469 94.316406 203.839844 94.507812 203.839844 C 95.589844 203.839844 96.449219 204.136719 97.082031 204.730469 C 97.71875 205.324219 98.035156 206.128906 98.035156 207.144531 C 98.035156 208.191406 97.710938 209.003906 97.058594 209.585938 C 96.40625 210.164062 95.488281 210.453125 94.304688 210.453125 C 93.894531 210.453125 93.480469 210.417969 93.054688 210.351562 C 92.632812 210.28125 92.199219 210.175781 91.746094 210.039062 L 91.746094 208.714844 C 92.136719 208.925781 92.539062 209.085938 92.957031 209.191406 C 93.375 209.292969 93.8125 209.347656 94.277344 209.347656 C 95.027344 209.347656 95.625 209.148438 96.0625 208.753906 C 96.5 208.359375 96.71875 207.824219 96.71875 207.144531 C 96.71875 206.46875 96.5 205.933594 96.0625 205.539062 C 95.625 205.144531 95.027344 204.945312 94.277344 204.945312 C 93.925781 204.945312 93.574219 204.984375 93.226562 205.0625 C 92.875 205.140625 92.519531 205.261719 92.15625 205.425781 Z M 92.15625 200.542969 "/>
<g clip-path="url(#clip2)" clip-rule="nonzero">
<path style="fill:none;stroke-width:0.8;stroke-linecap:square;stroke-linejoin:round;stroke:rgb(69.01961%,69.01961%,69.01961%);stroke-opacity:1;stroke-miterlimit:4;" d="M 122.613281 143.100586 L 122.613281 7.201172 " transform="matrix(1.333333,0,0,1.333333,0.000000000000028422,0)"/>
</g>
<path style="fill:none;stroke-width:0.8;stroke-linecap:butt;stroke-linejoin:round;stroke:rgb(0%,0%,0%);stroke-opacity:1;stroke-miterlimit:4;" d="M -0.000366211 0.000579834 L -0.000366211 3.498627 " transform="matrix(1.333333,0,0,1.333333,163.484863,190.800008)"/>
<path style=" stroke:none;fill-rule:nonzero;fill:rgb(0%,0%,0%);fill-opacity:1;" d="M 156.65625 209.160156 L 158.804688 209.160156 L 158.804688 201.742188 L 156.464844 202.210938 L 156.464844 201.011719 L 158.792969 200.542969 L 160.105469 200.542969 L 160.105469 209.160156 L 162.253906 209.160156 L 162.253906 210.265625 L 156.65625 210.265625 Z M 156.65625 209.160156 "/>
<path style=" stroke:none;fill-rule:nonzero;fill:rgb(0%,0%,0%);fill-opacity:1;" d="M 167.722656 201.410156 C 167.046875 201.410156 166.535156 201.742188 166.195312 202.410156 C 165.855469 203.074219 165.683594 204.078125 165.683594 205.414062 C 165.683594 206.746094 165.855469 207.746094 166.195312 208.414062 C 166.535156 209.078125 167.046875 209.414062 167.722656 209.414062 C 168.402344 209.414062 168.914062 209.078125 169.253906 208.414062 C 169.597656 207.746094 169.769531 206.746094 169.769531 205.414062 C 169.769531 204.078125 169.597656 203.074219 169.253906 202.410156 C 168.914062 201.742188 168.402344 201.410156 167.722656 201.410156 Z M 167.722656 200.367188 C 168.8125 200.367188 169.644531 200.800781 170.21875 201.664062 C 170.796875 202.523438 171.082031 203.773438 171.082031 205.414062 C 171.082031 207.050781 170.796875 208.300781 170.21875 209.164062 C 169.644531 210.023438 168.8125 210.453125 167.722656 210.453125 C 166.632812 210.453125 165.800781 210.023438 165.226562 209.164062 C 164.652344 208.300781 164.363281 207.050781 164.363281 205.414062 C 164.363281 203.773438 164.652344 202.523438 165.226562 201.664062 C 165.800781 200.800781 166.632812 200.367188 167.722656 200.367188 Z M 167.722656 200.367188 "/>
<g clip-path="url(#clip3)" clip-rule="nonzero">
<path style="fill:none;stroke-width:0.8;stroke-linecap:square;stroke-linejoin:round;stroke:rgb(69.01961%,69.01961%,69.01961%);stroke-opacity:1;stroke-miterlimit:4;" d="M 174.008789 143.100586 L 174.008789 7.201172 " transform="matrix(1.333333,0,0,1.333333,0.000000000000028422,0)"/>
</g>
<path style="fill:none;stroke-width:0.8;stroke-linecap:butt;stroke-linejoin:round;stroke:rgb(0%,0%,0%);stroke-opacity:1;stroke-miterlimit:4;" d="M 0.000396729 0.000579834 L 0.000396729 3.498627 " transform="matrix(1.333333,0,0,1.333333,232.01119,190.800008)"/>
<path style=" stroke:none;fill-rule:nonzero;fill:rgb(0%,0%,0%);fill-opacity:1;" d="M 225.183594 209.160156 L 227.328125 209.160156 L 227.328125 201.742188 L 224.992188 202.210938 L 224.992188 201.011719 L 227.316406 200.542969 L 228.632812 200.542969 L 228.632812 209.160156 L 230.78125 209.160156 L 230.78125 210.265625 L 225.183594 210.265625 Z M 225.183594 209.160156 "/>
<path style=" stroke:none;fill-rule:nonzero;fill:rgb(0%,0%,0%);fill-opacity:1;" d="M 233.449219 200.542969 L 238.613281 200.542969 L 238.613281 201.652344 L 234.65625 201.652344 L 234.65625 204.035156 C 234.84375 203.96875 235.035156 203.917969 235.226562 203.886719 C 235.417969 203.855469 235.609375 203.839844 235.800781 203.839844 C 236.886719 203.839844 237.746094 204.136719 238.378906 204.730469 C 239.011719 205.324219 239.328125 206.128906 239.328125 207.144531 C 239.328125 208.191406 239.003906 209.003906 238.351562 209.585938 C 237.703125 210.164062 236.78125 210.453125 235.597656 210.453125 C 235.191406 210.453125 234.773438 210.417969 234.351562 210.351562 C 233.929688 210.28125 233.492188 210.175781 233.039062 210.039062 L 233.039062 208.714844 C 233.429688 208.925781 233.832031 209.085938 234.25 209.191406 C 234.667969 209.292969 235.109375 209.347656 235.570312 209.347656 C 236.324219 209.347656 236.917969 209.148438 237.355469 208.753906 C 237.792969 208.359375 238.011719 207.824219 238.011719 207.144531 C 238.011719 206.46875 237.792969 205.933594 237.355469 205.539062 C 236.917969 205.144531 236.324219 204.945312 235.570312 204.945312 C 235.21875 204.945312 234.871094 204.984375 234.519531 205.0625 C 234.171875 205.140625 233.8125 205.261719 233.449219 205.425781 Z M 233.449219 200.542969 "/>
<g clip-path="url(#clip4)" clip-rule="nonzero">
<path style="fill:none;stroke-width:0.8;stroke-linecap:square;stroke-linejoin:round;stroke:rgb(69.01961%,69.01961%,69.01961%);stroke-opacity:1;stroke-miterlimit:4;" d="M 225.404297 143.100586 L 225.404297 7.201172 " transform="matrix(1.333333,0,0,1.333333,0.000000000000028422,0)"/>
</g>
<path style="fill:none;stroke-width:0.8;stroke-linecap:butt;stroke-linejoin:round;stroke:rgb(0%,0%,0%);stroke-opacity:1;stroke-miterlimit:4;" d="M 0.00117493 0.000579834 L 0.00117493 3.498627 " transform="matrix(1.333333,0,0,1.333333,300.537496,190.800008)"/>
<path style=" stroke:none;fill-rule:nonzero;fill:rgb(0%,0%,0%);fill-opacity:1;" d="M 294.613281 209.160156 L 299.203125 209.160156 L 299.203125 210.265625 L 293.03125 210.265625 L 293.03125 209.160156 C 293.53125 208.640625 294.210938 207.949219 295.070312 207.078125 C 295.933594 206.207031 296.476562 205.648438 296.695312 205.394531 C 297.117188 204.921875 297.410156 204.523438 297.578125 204.195312 C 297.746094 203.867188 297.828125 203.542969 297.828125 203.226562 C 297.828125 202.710938 297.648438 202.289062 297.285156 201.964844 C 296.921875 201.636719 296.449219 201.476562 295.867188 201.476562 C 295.457031 201.476562 295.019531 201.546875 294.5625 201.691406 C 294.105469 201.832031 293.617188 202.050781 293.097656 202.339844 L 293.097656 201.011719 C 293.625 200.800781 294.121094 200.640625 294.578125 200.53125 C 295.039062 200.421875 295.460938 200.367188 295.84375 200.367188 C 296.851562 200.367188 297.652344 200.621094 298.253906 201.125 C 298.851562 201.628906 299.148438 202.300781 299.148438 203.140625 C 299.148438 203.542969 299.074219 203.921875 298.925781 204.277344 C 298.777344 204.636719 298.503906 205.058594 298.109375 205.542969 C 298 205.671875 297.65625 206.035156 297.074219 206.636719 C 296.492188 207.238281 295.671875 208.078125 294.613281 209.160156 Z M 294.613281 209.160156 "/>
<path style=" stroke:none;fill-rule:nonzero;fill:rgb(0%,0%,0%);fill-opacity:1;" d="M 304.773438 201.410156 C 304.097656 201.410156 303.589844 201.742188 303.246094 202.410156 C 302.90625 203.074219 302.738281 204.078125 302.738281 205.414062 C 302.738281 206.746094 302.90625 207.746094 303.246094 208.414062 C 303.589844 209.078125 304.097656 209.414062 304.773438 209.414062 C 305.457031 209.414062 305.96875 209.078125 306.308594 208.414062 C 306.648438 207.746094 306.820312 206.746094 306.820312 205.414062 C 306.820312 204.078125 306.648438 203.074219 306.308594 202.410156 C 305.96875 201.742188 305.457031 201.410156 304.773438 201.410156 Z M 304.773438 200.367188 C 305.863281 200.367188 306.699219 200.800781 307.273438 201.664062 C 307.847656 202.523438 308.136719 203.773438 308.136719 205.414062 C 308.136719 207.050781 307.847656 208.300781 307.273438 209.164062 C 306.699219 210.023438 305.863281 210.453125 304.773438 210.453125 C 303.6875 210.453125 302.855469 210.023438 302.277344 209.164062 C 301.703125 208.300781 301.417969 207.050781 301.417969 205.414062 C 301.417969 203.773438 301.703125 202.523438 302.277344 201.664062 C 302.855469 200.800781 303.6875 200.367188 304.773438 200.367188 Z M 304.773438 200.367188 "/>
<path style=" stroke:none;fill-rule:nonzero;fill:rgb(0%,0%,0%);fill-opacity:1;" d="M 157.527344 224.554688 L 157.527344 225.140625 L 152.019531 225.140625 C 152.070312 225.964844 152.320312 226.59375 152.765625 227.027344 C 153.210938 227.460938 153.828125 227.675781 154.621094 227.675781 C 155.082031 227.675781 155.527344 227.617188 155.960938 227.507812 C 156.390625 227.394531 156.820312 227.222656 157.246094 226.996094 L 157.246094 228.132812 C 156.816406 228.3125 156.375 228.453125 155.925781 228.546875 C 155.472656 228.644531 155.015625 228.691406 154.550781 228.691406 C 153.386719 228.691406 152.464844 228.351562 151.789062 227.675781 C 151.109375 227 150.769531 226.082031 150.769531 224.925781 C 150.769531 223.734375 151.089844 222.789062 151.734375 222.085938 C 152.378906 221.386719 153.25 221.035156 154.34375 221.035156 C 155.324219 221.035156 156.101562 221.351562 156.671875 221.984375 C 157.242188 222.613281 157.527344 223.472656 157.527344 224.554688 Z M 156.328125 224.203125 C 156.320312 223.550781 156.136719 223.027344 155.777344 222.636719 C 155.421875 222.246094 154.945312 222.050781 154.355469 222.050781 C 153.6875 222.050781 153.152344 222.238281 152.753906 222.617188 C 152.351562 222.996094 152.121094 223.527344 152.058594 224.210938 Z M 156.328125 224.203125 "/>
<path style=" stroke:none;fill-rule:nonzero;fill:rgb(0%,0%,0%);fill-opacity:1;" d="M 160.652344 227.410156 L 160.652344 231.273438 L 159.445312 231.273438 L 159.445312 221.210938 L 160.652344 221.210938 L 160.652344 222.316406 C 160.902344 221.882812 161.222656 221.5625 161.605469 221.351562 C 161.988281 221.140625 162.449219 221.035156 162.980469 221.035156 C 163.867188 221.035156 164.585938 221.386719 165.140625 222.089844 C 165.695312 222.792969 165.972656 223.714844 165.972656 224.863281 C 165.972656 226.007812 165.695312 226.933594 165.140625 227.636719 C 164.585938 228.339844 163.867188 228.691406 162.980469 228.691406 C 162.449219 228.691406 161.988281 228.585938 161.605469 228.375 C 161.222656 228.164062 160.902344 227.839844 160.652344 227.410156 Z M 164.726562 224.863281 C 164.726562 223.980469 164.546875 223.289062 164.183594 222.789062 C 163.820312 222.289062 163.324219 222.039062 162.691406 222.039062 C 162.054688 222.039062 161.558594 222.289062 161.195312 222.789062 C 160.832031 223.289062 160.652344 223.980469 160.652344 224.863281 C 160.652344 225.742188 160.832031 226.433594 161.195312 226.933594 C 161.558594 227.4375 162.054688 227.6875 162.691406 227.6875 C 163.324219 227.6875 163.820312 227.4375 164.183594 226.933594 C 164.546875 226.433594 164.726562 225.742188 164.726562 224.863281 Z M 164.726562 224.863281 "/>
<path style=" stroke:none;fill-rule:nonzero;fill:rgb(0%,0%,0%);fill-opacity:1;" d="M 170.78125 222.050781 C 170.140625 222.050781 169.632812 222.300781 169.257812 222.800781 C 168.882812 223.304688 168.699219 223.992188 168.699219 224.863281 C 168.699219 225.734375 168.882812 226.421875 169.253906 226.921875 C 169.625 227.425781 170.136719 227.675781 170.78125 227.675781 C 171.421875 227.675781 171.925781 227.421875 172.296875 226.921875 C 172.671875 226.417969 172.859375 225.730469 172.859375 224.863281 C 172.859375 224 172.671875 223.3125 172.296875 222.808594 C 171.925781 222.304688 171.421875 222.050781 170.78125 222.050781 Z M 170.78125 221.035156 C 171.824219 221.035156 172.640625 221.375 173.234375 222.050781 C 173.832031 222.726562 174.128906 223.664062 174.128906 224.863281 C 174.128906 226.054688 173.832031 226.992188 173.234375 227.671875 C 172.640625 228.351562 171.824219 228.691406 170.78125 228.691406 C 169.734375 228.691406 168.914062 228.351562 168.324219 227.671875 C 167.730469 226.992188 167.433594 226.054688 167.433594 224.863281 C 167.433594 223.664062 167.730469 222.726562 168.324219 222.050781 C 168.914062 221.375 169.734375 221.035156 170.78125 221.035156 Z M 170.78125 221.035156 "/>
<path style=" stroke:none;fill-rule:nonzero;fill:rgb(0%,0%,0%);fill-opacity:1;" d="M 181.363281 221.488281 L 181.363281 222.609375 C 181.023438 222.421875 180.683594 222.28125 180.34375 222.191406 C 180.003906 222.097656 179.660156 222.050781 179.3125 222.050781 C 178.535156 222.050781 177.929688 222.296875 177.5 222.789062 C 177.070312 223.28125 176.855469 223.972656 176.855469 224.863281 C 176.855469 225.753906 177.070312 226.445312 177.5 226.9375 C 177.929688 227.429688 178.535156 227.675781 179.3125 227.675781 C 179.660156 227.675781 180.003906 227.628906 180.34375 227.535156 C 180.683594 227.441406 181.023438 227.300781 181.363281 227.113281 L 181.363281 228.222656 C 181.027344 228.378906 180.679688 228.496094 180.320312 228.574219 C 179.964844 228.652344 179.585938 228.691406 179.179688 228.691406 C 178.082031 228.691406 177.207031 228.347656 176.5625 227.65625 C 175.914062 226.964844 175.59375 226.035156 175.59375 224.863281 C 175.59375 223.671875 175.917969 222.738281 176.570312 222.058594 C 177.226562 221.375 178.121094 221.035156 179.257812 221.035156 C 179.628906 221.035156 179.988281 221.074219 180.339844 221.148438 C 180.691406 221.226562 181.03125 221.339844 181.363281 221.488281 Z M 181.363281 221.488281 "/>
<path style=" stroke:none;fill-rule:nonzero;fill:rgb(0%,0%,0%);fill-opacity:1;" d="M 189.507812 224.101562 L 189.507812 228.503906 L 188.308594 228.503906 L 188.308594 224.140625 C 188.308594 223.449219 188.175781 222.933594 187.90625 222.589844 C 187.636719 222.25 187.230469 222.078125 186.695312 222.078125 C 186.046875 222.078125 185.535156 222.285156 185.164062 222.695312 C 184.789062 223.105469 184.601562 223.667969 184.601562 224.382812 L 184.601562 228.503906 L 183.398438 228.503906 L 183.398438 218.371094 L 184.601562 218.371094 L 184.601562 222.34375 C 184.890625 221.90625 185.226562 221.578125 185.617188 221.359375 C 186.003906 221.144531 186.453125 221.035156 186.960938 221.035156 C 187.796875 221.035156 188.433594 221.292969 188.859375 221.8125 C 189.292969 222.332031 189.507812 223.09375 189.507812 224.101562 Z M 189.507812 224.101562 "/>
<g clip-path="url(#clip5)" clip-rule="nonzero">
<path style="fill:none;stroke-width:0.8;stroke-linecap:square;stroke-linejoin:round;stroke:rgb(69.01961%,69.01961%,69.01961%);stroke-opacity:1;stroke-miterlimit:4;" d="M 30.102539 116.135742 L 225.404297 116.135742 " transform="matrix(1.333333,0,0,1.333333,0.000000000000028422,0)"/>
</g>
<path style="fill:none;stroke-width:0.8;stroke-linecap:butt;stroke-linejoin:round;stroke:rgb(0%,0%,0%);stroke-opacity:1;stroke-miterlimit:4;" d="M -0.000585556 0.000968933 L -3.498632 0.000968933 " transform="matrix(1.333333,0,0,1.333333,40.137499,154.846364)"/>
<path style=" stroke:none;fill-rule:nonzero;fill:rgb(0%,0%,0%);fill-opacity:1;" d="M 13.835938 151.058594 C 13.160156 151.058594 12.652344 151.390625 12.308594 152.058594 C 11.96875 152.722656 11.800781 153.722656 11.800781 155.0625 C 11.800781 156.394531 11.96875 157.394531 12.308594 158.058594 C 12.652344 158.726562 13.160156 159.058594 13.835938 159.058594 C 14.519531 159.058594 15.03125 158.726562 15.371094 158.058594 C 15.710938 157.394531 15.882812 156.394531 15.882812 155.0625 C 15.882812 153.722656 15.710938 152.722656 15.371094 152.058594 C 15.03125 151.390625 14.519531 151.058594 13.835938 151.058594 Z M 13.835938 150.015625 C 14.929688 150.015625 15.761719 150.449219 16.335938 151.308594 C 16.910156 152.171875 17.199219 153.421875 17.199219 155.0625 C 17.199219 156.699219 16.910156 157.949219 16.335938 158.808594 C 15.761719 159.671875 14.929688 160.101562 13.835938 160.101562 C 12.75 160.101562 11.917969 159.671875 11.339844 158.808594 C 10.765625 157.949219 10.480469 156.699219 10.480469 155.0625 C 10.480469 153.421875 10.765625 152.171875 11.339844 151.308594 C 11.917969 150.449219 12.75 150.015625 13.835938 150.015625 Z M 13.835938 150.015625 "/>
<path style=" stroke:none;fill-rule:nonzero;fill:rgb(0%,0%,0%);fill-opacity:1;" d="M 19.507812 158.257812 L 20.882812 158.257812 L 20.882812 159.910156 L 19.507812 159.910156 Z M 19.507812 158.257812 "/>
<path style=" stroke:none;fill-rule:nonzero;fill:rgb(0%,0%,0%);fill-opacity:1;" d="M 23.761719 150.191406 L 28.921875 150.191406 L 28.921875 151.300781 L 24.964844 151.300781 L 24.964844 153.679688 C 25.15625 153.617188 25.34375 153.566406 25.535156 153.535156 C 25.726562 153.503906 25.917969 153.488281 26.109375 153.488281 C 27.195312 153.488281 28.054688 153.785156 28.6875 154.378906 C 29.324219 154.972656 29.640625 155.777344 29.640625 156.792969 C 29.640625 157.839844 29.3125 158.652344 28.664062 159.234375 C 28.011719 159.8125 27.09375 160.101562 25.910156 160.101562 C 25.5 160.101562 25.085938 160.066406 24.660156 159.996094 C 24.238281 159.929688 23.800781 159.824219 23.351562 159.683594 L 23.351562 158.363281 C 23.742188 158.574219 24.144531 158.734375 24.5625 158.835938 C 24.976562 158.941406 25.417969 158.992188 25.882812 158.992188 C 26.632812 158.992188 27.226562 158.796875 27.664062 158.402344 C 28.105469 158.007812 28.324219 157.472656 28.324219 156.792969 C 28.324219 156.117188 28.105469 155.582031 27.664062 155.1875 C 27.226562 154.792969 26.632812 154.59375 25.882812 154.59375 C 25.53125 154.59375 25.179688 154.632812 24.828125 154.710938 C 24.480469 154.789062 24.125 154.910156 23.761719 155.074219 Z M 23.761719 150.191406 "/>
<g clip-path="url(#clip6)" clip-rule="nonzero">
<path style="fill:none;stroke-width:0.8;stroke-linecap:square;stroke-linejoin:round;stroke:rgb(69.01961%,69.01961%,69.01961%);stroke-opacity:1;stroke-miterlimit:4;" d="M 30.102539 88.795898 L 225.404297 88.795898 " transform="matrix(1.333333,0,0,1.333333,0.000000000000028422,0)"/>
</g>
<path style="fill:none;stroke-width:0.8;stroke-linecap:butt;stroke-linejoin:round;stroke:rgb(0%,0%,0%);stroke-opacity:1;stroke-miterlimit:4;" d="M -0.000585556 -0.001297 L -3.498632 -0.001297 " transform="matrix(1.333333,0,0,1.333333,40.137499,118.396261)"/>
<path style=" stroke:none;fill-rule:nonzero;fill:rgb(0%,0%,0%);fill-opacity:1;" d="M 11.253906 122.355469 L 13.402344 122.355469 L 13.402344 114.9375 L 11.066406 115.40625 L 11.066406 114.210938 L 13.390625 113.742188 L 14.703125 113.742188 L 14.703125 122.355469 L 16.851562 122.355469 L 16.851562 123.460938 L 11.253906 123.460938 Z M 11.253906 122.355469 "/>
<path style=" stroke:none;fill-rule:nonzero;fill:rgb(0%,0%,0%);fill-opacity:1;" d="M 19.507812 121.808594 L 20.882812 121.808594 L 20.882812 123.460938 L 19.507812 123.460938 Z M 19.507812 121.808594 "/>
<path style=" stroke:none;fill-rule:nonzero;fill:rgb(0%,0%,0%);fill-opacity:1;" d="M 26.558594 114.609375 C 25.882812 114.609375 25.375 114.941406 25.03125 115.609375 C 24.691406 116.273438 24.519531 117.273438 24.519531 118.613281 C 24.519531 119.945312 24.691406 120.941406 25.03125 121.609375 C 25.375 122.277344 25.882812 122.609375 26.558594 122.609375 C 27.242188 122.609375 27.75 122.277344 28.09375 121.609375 C 28.433594 120.941406 28.605469 119.945312 28.605469 118.613281 C 28.605469 117.273438 28.433594 116.273438 28.09375 115.609375 C 27.75 114.941406 27.242188 114.609375 26.558594 114.609375 Z M 26.558594 113.566406 C 27.648438 113.566406 28.480469 113.996094 29.058594 114.859375 C 29.632812 115.722656 29.917969 116.972656 29.917969 118.613281 C 29.917969 120.246094 29.632812 121.496094 29.058594 122.359375 C 28.480469 123.222656 27.648438 123.652344 26.558594 123.652344 C 25.46875 123.652344 24.636719 123.222656 24.0625 122.359375 C 23.488281 121.496094 23.199219 120.246094 23.199219 118.613281 C 23.199219 116.972656 23.488281 115.722656 24.0625 114.859375 C 24.636719 113.996094 25.46875 113.566406 26.558594 113.566406 Z M 26.558594 113.566406 "/>
<g clip-path="url(#clip7)" clip-rule="nonzero">
<path style="fill:none;stroke-width:0.8;stroke-linecap:square;stroke-linejoin:round;stroke:rgb(69.01961%,69.01961%,69.01961%);stroke-opacity:1;stroke-miterlimit:4;" d="M 30.102539 61.458984 L 225.404297 61.458984 " transform="matrix(1.333333,0,0,1.333333,0.000000000000028422,0)"/>
</g>
<path style="fill:none;stroke-width:0.8;stroke-linecap:butt;stroke-linejoin:round;stroke:rgb(0%,0%,0%);stroke-opacity:1;stroke-miterlimit:4;" d="M -0.000585556 -0.00063324 L -3.498632 -0.00063324 " transform="matrix(1.333333,0,0,1.333333,40.137499,81.946157)"/>
<path style=" stroke:none;fill-rule:nonzero;fill:rgb(0%,0%,0%);fill-opacity:1;" d="M 11.253906 85.90625 L 13.402344 85.90625 L 13.402344 78.488281 L 11.066406 78.957031 L 11.066406 77.757812 L 13.390625 77.289062 L 14.703125 77.289062 L 14.703125 85.90625 L 16.851562 85.90625 L 16.851562 87.011719 L 11.253906 87.011719 Z M 11.253906 85.90625 "/>
<path style=" stroke:none;fill-rule:nonzero;fill:rgb(0%,0%,0%);fill-opacity:1;" d="M 19.507812 85.359375 L 20.882812 85.359375 L 20.882812 87.011719 L 19.507812 87.011719 Z M 19.507812 85.359375 "/>
<path style=" stroke:none;fill-rule:nonzero;fill:rgb(0%,0%,0%);fill-opacity:1;" d="M 23.761719 77.289062 L 28.921875 77.289062 L 28.921875 78.398438 L 24.964844 78.398438 L 24.964844 80.78125 C 25.15625 80.714844 25.34375 80.667969 25.535156 80.632812 C 25.726562 80.601562 25.917969 80.585938 26.109375 80.585938 C 27.195312 80.585938 28.054688 80.882812 28.6875 81.476562 C 29.324219 82.074219 29.640625 82.878906 29.640625 83.894531 C 29.640625 84.9375 29.3125 85.753906 28.664062 86.332031 C 28.011719 86.910156 27.09375 87.203125 25.910156 87.203125 C 25.5 87.203125 25.085938 87.167969 24.660156 87.097656 C 24.238281 87.027344 23.800781 86.921875 23.351562 86.785156 L 23.351562 85.460938 C 23.742188 85.675781 24.144531 85.832031 24.5625 85.9375 C 24.976562 86.039062 25.417969 86.09375 25.882812 86.09375 C 26.632812 86.09375 27.226562 85.894531 27.664062 85.5 C 28.105469 85.105469 28.324219 84.570312 28.324219 83.894531 C 28.324219 83.214844 28.105469 82.679688 27.664062 82.285156 C 27.226562 81.890625 26.632812 81.691406 25.882812 81.691406 C 25.53125 81.691406 25.179688 81.730469 24.828125 81.808594 C 24.480469 81.886719 24.125 82.007812 23.761719 82.175781 Z M 23.761719 77.289062 "/>
<g clip-path="url(#clip8)" clip-rule="nonzero">
<path style="fill:none;stroke-width:0.8;stroke-linecap:square;stroke-linejoin:round;stroke:rgb(69.01961%,69.01961%,69.01961%);stroke-opacity:1;stroke-miterlimit:4;" d="M 30.102539 34.12207 L 225.404297 34.12207 " transform="matrix(1.333333,0,0,1.333333,0.000000000000028422,0)"/>
</g>
<path style="fill:none;stroke-width:0.8;stroke-linecap:butt;stroke-linejoin:round;stroke:rgb(0%,0%,0%);stroke-opacity:1;stroke-miterlimit:4;" d="M -0.000585556 0.0000343323 L -3.498632 0.0000343323 " transform="matrix(1.333333,0,0,1.333333,40.137499,45.496048)"/>
<path style=" stroke:none;fill-rule:nonzero;fill:rgb(0%,0%,0%);fill-opacity:1;" d="M 12.160156 49.457031 L 16.746094 49.457031 L 16.746094 50.5625 L 10.578125 50.5625 L 10.578125 49.457031 C 11.074219 48.9375 11.753906 48.246094 12.617188 47.375 C 13.480469 46.503906 14.019531 45.945312 14.242188 45.691406 C 14.664062 45.21875 14.957031 44.820312 15.121094 44.492188 C 15.289062 44.164062 15.375 43.839844 15.375 43.523438 C 15.375 43.007812 15.195312 42.585938 14.832031 42.261719 C 14.46875 41.933594 13.996094 41.773438 13.414062 41.773438 C 13.003906 41.773438 12.566406 41.84375 12.109375 41.988281 C 11.652344 42.128906 11.164062 42.347656 10.640625 42.640625 L 10.640625 41.308594 C 11.171875 41.097656 11.664062 40.9375 12.125 40.828125 C 12.585938 40.71875 13.007812 40.664062 13.390625 40.664062 C 14.398438 40.664062 15.199219 40.917969 15.796875 41.421875 C 16.398438 41.925781 16.695312 42.597656 16.695312 43.4375 C 16.695312 43.839844 16.621094 44.21875 16.472656 44.578125 C 16.320312 44.933594 16.050781 45.355469 15.652344 45.839844 C 15.546875 45.96875 15.199219 46.332031 14.617188 46.933594 C 14.039062 47.535156 13.21875 48.375 12.160156 49.457031 Z M 12.160156 49.457031 "/>
<path style=" stroke:none;fill-rule:nonzero;fill:rgb(0%,0%,0%);fill-opacity:1;" d="M 19.507812 48.90625 L 20.882812 48.90625 L 20.882812 50.5625 L 19.507812 50.5625 Z M 19.507812 48.90625 "/>
<path style=" stroke:none;fill-rule:nonzero;fill:rgb(0%,0%,0%);fill-opacity:1;" d="M 26.558594 41.707031 C 25.882812 41.707031 25.375 42.039062 25.03125 42.707031 C 24.691406 43.371094 24.519531 44.375 24.519531 45.710938 C 24.519531 47.042969 24.691406 48.042969 25.03125 48.710938 C 25.375 49.375 25.882812 49.710938 26.558594 49.710938 C 27.242188 49.710938 27.75 49.375 28.09375 48.710938 C 28.433594 48.042969 28.605469 47.042969 28.605469 45.710938 C 28.605469 44.375 28.433594 43.371094 28.09375 42.707031 C 27.75 42.039062 27.242188 41.707031 26.558594 41.707031 Z M 26.558594 40.664062 C 27.648438 40.664062 28.480469 41.097656 29.058594 41.960938 C 29.632812 42.820312 29.917969 44.070312 29.917969 45.710938 C 29.917969 47.347656 29.632812 48.597656 29.058594 49.460938 C 28.480469 50.320312 27.648438 50.75 26.558594 50.75 C 25.46875 50.75 24.636719 50.320312 24.0625 49.460938 C 23.488281 48.597656 23.199219 47.347656 23.199219 45.710938 C 23.199219 44.070312 23.488281 42.820312 24.0625 41.960938 C 24.636719 41.097656 25.46875 40.664062 26.558594 40.664062 Z M 26.558594 40.664062 "/>
<g clip-path="url(#clip9)" clip-rule="nonzero">
<path style="fill:none;stroke-width:1.5;stroke-linecap:square;stroke-linejoin:round;stroke:rgb(12.156863%,46.666667%,70.588237%);stroke-opacity:1;stroke-miterlimit:4;" d="M 21.814453 13.376953 L 23.803711 14.085938 L 25.792969 17.264648 L 27.782227 19.96582 L 29.771484 20.091797 L 30.102539 20.724609 L 32.091797 31.236328 L 34.081055 34.936523 L 36.070312 35.431641 L 38.05957 34.895508 L 40.051758 34.549805 L 40.382812 34.77832 L 42.37207 39.272461 L 44.361328 38.006836 L 46.350586 38.671875 L 48.339844 38.232422 L 50.329102 39.75 L 50.660156 39.972656 L 52.649414 41.619141 L 54.638672 41.794922 L 56.630859 45.37793 L 58.620117 45.597656 L 60.609375 45.503906 L 60.94043 45.389648 L 62.929687 53.214844 L 64.918945 53.838867 L 66.908203 53.317383 L 68.897461 53.326172 L 70.886719 51.120117 L 71.217773 51.19043 L 73.207031 54.00293 L 75.199219 55.321289 L 77.188477 54.410156 L 79.177734 53.542969 L 81.166992 54.257812 L 81.498047 54.234375 L 83.487305 64.78125 L 85.476562 64.845703 L 87.46582 62.361328 L 89.455078 62.739258 L 91.444336 61.523438 L 91.775391 61.461914 L 93.767578 74.610352 L 95.756836 74.15332 L 97.746094 70.669922 L 99.735352 66.955078 L 101.724609 65.821289 L 102.055664 65.34082 L 104.044922 74.490234 L 106.03418 72.908203 L 108.023437 72.023438 L 110.012695 72.032227 L 112.001953 70.740234 L 112.335937 71.244141 L 114.325195 79.693359 L 116.314453 77.786133 L 118.303711 75.304688 L 120.292969 72.761719 L 122.282227 71.882812 L 122.613281 71.211914 L 124.602539 71.361328 L 126.591797 67.538086 L 128.581055 66.357422 L 130.570312 69.500977 L 132.55957 69.128906 L 132.893555 69.366211 L 134.882812 85.570312 L 136.87207 84.290039 L 138.861328 81.492188 L 140.850586 80.569336 L 142.839844 79.719727 L 143.170898 78.955078 L 145.160156 84.254883 L 147.149414 80.52832 L 149.138672 79.259766 L 151.130859 79.910156 L 153.120117 78.717773 L 153.451172 78.916992 L 155.44043 87.131836 L 157.429687 82.678711 L 159.418945 85.151367 L 161.408203 86.759766 L 163.397461 86.179688 L 163.728516 85.664062 L 165.717773 95.220703 L 167.707031 90.492188 L 169.699219 90.395508 L 171.688477 90.896484 L 173.677734 89.833008 L 174.008789 90.155273 L 175.998047 101.724609 L 177.987305 98.988281 L 179.976562 96.963867 L 181.96582 92.874023 L 183.955078 91.517578 L 184.286133 91.933594 L 186.275391 98.352539 L 188.267578 98.838867 L 190.256836 96.46875 L 192.246094 94.561523 L 194.235352 94.552734 L 194.566406 94.277344 L 196.555664 105.301758 L 198.544922 104.036133 L 200.53418 103.68457 L 202.523437 103.212891 L 204.512695 100.845703 L 204.84668 101.077148 L 206.835937 105.603516 L 208.825195 101.668945 L 210.814453 101.671875 L 212.803711 102.09082 L 214.792969 98.293945 L 215.124023 98.349609 L 217.113281 106.40332 L 219.102539 106.757812 L 221.091797 104.422852 L 223.081055 103.101562 L 225.070312 102.363281 L 225.404297 102.723633 " transform="matrix(1.333333,0,0,1.333333,0.000000000000028422,0)"/>
</g>
<g clip-path="url(#clip10)" clip-rule="nonzero">
<path style="fill:none;stroke-width:1.5;stroke-linecap:butt;stroke-linejoin:round;stroke:rgb(74.901962%,0%,74.901962%);stroke-opacity:1;stroke-dasharray:5.55,2.4;stroke-miterlimit:4;" d="M 21.814453 136.921875 L 23.803711 136.494141 L 25.792969 134.264648 L 27.782227 133.790039 L 29.771484 133.848633 L 30.102539 133.661133 L 32.091797 130.658203 L 34.081055 128.663086 L 36.070312 127.810547 L 38.05957 127.666992 L 40.051758 127.526367 L 40.382812 127.543945 L 42.37207 127.810547 L 44.361328 128.806641 L 46.350586 128.188477 L 48.339844 127.810547 L 50.329102 127.183594 L 50.660156 127.048828 L 52.649414 124.962891 L 54.638672 124.107422 L 56.630859 123.348633 L 58.620117 123.325195 L 60.609375 124.335938 L 60.94043 124.456055 L 62.929687 122.683594 L 64.918945 121.831055 L 66.908203 121.166016 L 68.897461 121.617188 L 70.886719 122.285156 L 71.217773 122.416992 L 73.207031 123.254883 L 75.199219 121.6875 L 77.188477 121.734375 L 79.177734 122.044922 L 81.166992 122.115234 L 81.498047 122.25293 L 83.487305 117.55957 L 85.476562 117.700195 L 87.46582 117.462891 L 89.455078 117.629883 L 91.444336 118.013672 L 91.775391 117.952148 L 93.767578 114.996094 L 95.756836 113.712891 L 97.746094 114.521484 L 99.735352 115.423828 L 101.724609 116.361328 L 102.055664 116.630859 L 104.044922 115.280273 L 106.03418 115.708008 L 108.023437 115.945312 L 110.012695 115.921875 L 112.001953 116.135742 L 112.335937 116.080078 L 114.325195 113.000977 L 116.314453 113.000977 L 118.303711 113.950195 L 120.292969 114.498047 L 122.282227 114.539062 L 122.613281 114.867188 L 124.602539 114.424805 L 126.591797 114.711914 L 128.581055 115.470703 L 130.570312 114.711914 L 132.55957 115.394531 L 132.893555 115.253906 L 134.882812 109.016602 L 136.87207 109.869141 L 138.861328 110.62793 L 140.850586 111.008789 L 142.839844 111.292969 L 143.170898 111.834961 L 145.160156 113.288086 L 147.149414 113.428711 L 149.138672 113.762695 L 151.130859 113.000977 L 153.120117 112.889648 L 153.451172 112.828125 L 155.44043 109.869141 L 157.429687 111.577148 L 159.418945 110.915039 L 161.408203 109.942383 L 163.397461 110.15332 L 163.728516 110.402344 L 165.717773 106.453125 L 167.707031 108.161133 L 169.699219 108.161133 L 171.688477 108.017578 L 173.677734 108.673828 L 174.008789 108.474609 L 175.998047 103.321289 L 177.987305 105.457031 L 179.976562 105.694336 L 181.96582 107.449219 L 183.955078 107.419922 L 184.286133 107.425781 L 186.275391 103.605469 L 188.267578 103.321289 L 190.256836 104.364258 L 192.246094 105.243164 L 194.235352 105.369141 L 194.566406 105.606445 L 196.555664 102.46582 L 198.544922 103.321289 L 200.53418 103.699219 L 202.523437 103.746094 L 204.512695 104.745117 L 204.84668 104.449219 L 206.835937 102.181641 L 208.825195 103.746094 L 210.814453 103.605469 L 212.803711 104.103516 L 214.792969 105.597656 L 215.124023 105.606445 L 217.113281 101.610352 L 219.102539 101.753906 L 221.091797 102.275391 L 223.081055 102.963867 L 225.070312 103.491211 L 225.404297 103.347656 " transform="matrix(1.333333,0,0,1.333333,0.000000000000028422,0)"/>
</g>
<path style="fill:none;stroke-width:0.8;stroke-linecap:square;stroke-linejoin:miter;stroke:rgb(0%,0%,0%);stroke-opacity:1;stroke-miterlimit:4;" d="M 30.102539 143.100586 L 30.102539 7.201172 " transform="matrix(1.333333,0,0,1.333333,0.000000000000028422,0)"/>
<path style="fill:none;stroke-width:0.8;stroke-linecap:square;stroke-linejoin:miter;stroke:rgb(0%,0%,0%);stroke-opacity:1;stroke-miterlimit:4;" d="M 225.404297 143.100586 L 225.404297 7.201172 " transform="matrix(1.333333,0,0,1.333333,0.000000000000028422,0)"/>
<path style="fill:none;stroke-width:0.8;stroke-linecap:square;stroke-linejoin:miter;stroke:rgb(0%,0%,0%);stroke-opacity:1;stroke-miterlimit:4;" d="M 30.102539 143.100586 L 225.404297 143.100586 " transform="matrix(1.333333,0,0,1.333333,0.000000000000028422,0)"/>
<path style="fill:none;stroke-width:0.8;stroke-linecap:square;stroke-linejoin:miter;stroke:rgb(0%,0%,0%);stroke-opacity:1;stroke-miterlimit:4;" d="M 30.102539 7.201172 L 225.404297 7.201172 " transform="matrix(1.333333,0,0,1.333333,0.000000000000028422,0)"/>
<use xlink:href="#surface5" mask="url(#mask0)"/>
<path style="fill:none;stroke-width:1.5;stroke-linecap:square;stroke-linejoin:round;stroke:rgb(12.156863%,46.666667%,70.588237%);stroke-opacity:1;stroke-miterlimit:4;" d="M 142.634766 20.299805 L 162.635742 20.299805 " transform="matrix(1.333333,0,0,1.333333,0.000000000000028422,0)"/>
<path style=" stroke:none;fill-rule:nonzero;fill:rgb(0%,0%,0%);fill-opacity:1;" d="M 229.953125 22.367188 L 229.953125 24.441406 L 232.421875 24.441406 L 232.421875 25.371094 L 229.953125 25.371094 L 229.953125 29.328125 C 229.953125 29.921875 230.035156 30.304688 230.199219 30.476562 C 230.359375 30.644531 230.691406 30.730469 231.191406 30.730469 L 232.421875 30.730469 L 232.421875 31.730469 L 231.191406 31.730469 C 230.265625 31.730469 229.628906 31.558594 229.277344 31.214844 C 228.925781 30.867188 228.75 30.242188 228.75 29.328125 L 228.75 25.371094 L 227.871094 25.371094 L 227.871094 24.441406 L 228.75 24.441406 L 228.75 22.367188 Z M 229.953125 22.367188 "/>
<path style=" stroke:none;fill-rule:nonzero;fill:rgb(0%,0%,0%);fill-opacity:1;" d="M 238.222656 25.558594 C 238.085938 25.480469 237.941406 25.421875 237.78125 25.386719 C 237.625 25.351562 237.449219 25.332031 237.257812 25.332031 C 236.582031 25.332031 236.0625 25.550781 235.699219 25.992188 C 235.335938 26.433594 235.15625 27.066406 235.15625 27.890625 L 235.15625 31.730469 L 233.949219 31.730469 L 233.949219 24.441406 L 235.15625 24.441406 L 235.15625 25.574219 C 235.40625 25.128906 235.734375 24.800781 236.136719 24.585938 C 236.542969 24.371094 237.035156 24.265625 237.609375 24.265625 C 237.691406 24.265625 237.785156 24.269531 237.882812 24.28125 C 237.984375 24.289062 238.09375 24.308594 238.214844 24.328125 Z M 238.222656 25.558594 "/>
<path style=" stroke:none;fill-rule:nonzero;fill:rgb(0%,0%,0%);fill-opacity:1;" d="M 242.792969 28.066406 C 241.824219 28.066406 241.152344 28.175781 240.78125 28.398438 C 240.40625 28.617188 240.21875 28.996094 240.21875 29.53125 C 240.21875 29.957031 240.359375 30.292969 240.640625 30.542969 C 240.921875 30.792969 241.300781 30.917969 241.78125 30.917969 C 242.449219 30.917969 242.980469 30.679688 243.382812 30.210938 C 243.785156 29.738281 243.984375 29.113281 243.984375 28.332031 L 243.984375 28.066406 Z M 245.183594 27.570312 L 245.183594 31.730469 L 243.984375 31.730469 L 243.984375 30.625 C 243.710938 31.066406 243.371094 31.394531 242.960938 31.605469 C 242.554688 31.816406 242.054688 31.921875 241.464844 31.921875 C 240.71875 31.921875 240.125 31.710938 239.683594 31.292969 C 239.242188 30.871094 239.023438 30.3125 239.023438 29.609375 C 239.023438 28.789062 239.296875 28.171875 239.84375 27.753906 C 240.394531 27.335938 241.214844 27.128906 242.304688 27.128906 L 243.984375 27.128906 L 243.984375 27.011719 C 243.984375 26.460938 243.804688 26.03125 243.441406 25.730469 C 243.078125 25.429688 242.570312 25.277344 241.914062 25.277344 C 241.496094 25.277344 241.089844 25.328125 240.695312 25.429688 C 240.300781 25.527344 239.921875 25.679688 239.558594 25.878906 L 239.558594 24.769531 C 239.996094 24.601562 240.421875 24.476562 240.832031 24.390625 C 241.246094 24.308594 241.644531 24.265625 242.035156 24.265625 C 243.09375 24.265625 243.878906 24.539062 244.402344 25.085938 C 244.921875 25.632812 245.183594 26.460938 245.183594 27.570312 Z M 245.183594 27.570312 "/>
<path style=" stroke:none;fill-rule:nonzero;fill:rgb(0%,0%,0%);fill-opacity:1;" d="M 247.648438 24.441406 L 248.847656 24.441406 L 248.847656 31.730469 L 247.648438 31.730469 Z M 247.648438 21.601562 L 248.847656 21.601562 L 248.847656 23.117188 L 247.648438 23.117188 Z M 247.648438 21.601562 "/>
<path style=" stroke:none;fill-rule:nonzero;fill:rgb(0%,0%,0%);fill-opacity:1;" d="M 257.414062 27.328125 L 257.414062 31.730469 L 256.21875 31.730469 L 256.21875 27.367188 C 256.21875 26.679688 256.082031 26.164062 255.8125 25.820312 C 255.542969 25.476562 255.140625 25.304688 254.601562 25.304688 C 253.957031 25.304688 253.445312 25.511719 253.070312 25.925781 C 252.699219 26.335938 252.511719 26.898438 252.511719 27.609375 L 252.511719 31.730469 L 251.308594 31.730469 L 251.308594 24.441406 L 252.511719 24.441406 L 252.511719 25.574219 C 252.800781 25.132812 253.136719 24.804688 253.523438 24.589844 C 253.914062 24.371094 254.363281 24.265625 254.871094 24.265625 C 255.707031 24.265625 256.339844 24.523438 256.769531 25.042969 C 257.199219 25.558594 257.414062 26.320312 257.414062 27.328125 Z M 257.414062 27.328125 "/>
<path style=" stroke:none;fill-rule:nonzero;fill:rgb(0%,0%,0%);fill-opacity:1;" d="M 264.042969 21.601562 L 265.238281 21.601562 L 265.238281 31.730469 L 264.042969 31.730469 Z M 264.042969 21.601562 "/>
<path style=" stroke:none;fill-rule:nonzero;fill:rgb(0%,0%,0%);fill-opacity:1;" d="M 270.570312 25.277344 C 269.929688 25.277344 269.421875 25.53125 269.046875 26.03125 C 268.675781 26.53125 268.488281 27.21875 268.488281 28.089844 C 268.488281 28.964844 268.671875 29.652344 269.042969 30.152344 C 269.417969 30.652344 269.925781 30.902344 270.570312 30.902344 C 271.210938 30.902344 271.714844 30.652344 272.089844 30.148438 C 272.460938 29.644531 272.648438 28.960938 272.648438 28.089844 C 272.648438 27.226562 272.460938 26.542969 272.089844 26.039062 C 271.714844 25.53125 271.210938 25.277344 270.570312 25.277344 Z M 270.570312 24.265625 C 271.613281 24.265625 272.429688 24.601562 273.027344 25.28125 C 273.621094 25.957031 273.917969 26.894531 273.917969 28.089844 C 273.917969 29.285156 273.621094 30.222656 273.027344 30.902344 C 272.429688 31.582031 271.613281 31.921875 270.570312 31.921875 C 269.527344 31.921875 268.707031 31.582031 268.113281 30.902344 C 267.523438 30.222656 267.226562 29.285156 267.226562 28.089844 C 267.226562 26.894531 267.523438 25.957031 268.113281 25.28125 C 268.707031 24.601562 269.527344 24.265625 270.570312 24.265625 Z M 270.570312 24.265625 "/>
<path style=" stroke:none;fill-rule:nonzero;fill:rgb(0%,0%,0%);fill-opacity:1;" d="M 280.550781 24.652344 L 280.550781 25.789062 C 280.214844 25.613281 279.863281 25.484375 279.496094 25.398438 C 279.132812 25.308594 278.757812 25.265625 278.363281 25.265625 C 277.769531 25.265625 277.324219 25.359375 277.027344 25.539062 C 276.730469 25.722656 276.582031 25.996094 276.582031 26.359375 C 276.582031 26.636719 276.6875 26.855469 276.898438 27.015625 C 277.113281 27.171875 277.539062 27.324219 278.183594 27.464844 L 278.59375 27.558594 C 279.445312 27.742188 280.046875 27.996094 280.40625 28.328125 C 280.765625 28.660156 280.945312 29.125 280.945312 29.71875 C 280.945312 30.398438 280.675781 30.933594 280.140625 31.328125 C 279.601562 31.722656 278.867188 31.921875 277.929688 31.921875 C 277.539062 31.921875 277.132812 31.882812 276.707031 31.804688 C 276.285156 31.730469 275.839844 31.617188 275.371094 31.464844 L 275.371094 30.226562 C 275.8125 30.457031 276.25 30.628906 276.679688 30.746094 C 277.109375 30.859375 277.535156 30.917969 277.957031 30.917969 C 278.519531 30.917969 278.953125 30.820312 279.257812 30.628906 C 279.558594 30.433594 279.710938 30.160156 279.710938 29.808594 C 279.710938 29.484375 279.601562 29.234375 279.382812 29.0625 C 279.164062 28.890625 278.683594 28.722656 277.941406 28.558594 L 277.523438 28.460938 C 276.785156 28.308594 276.246094 28.066406 275.917969 27.742188 C 275.585938 27.421875 275.421875 26.976562 275.421875 26.414062 C 275.421875 25.726562 275.664062 25.195312 276.152344 24.824219 C 276.636719 24.453125 277.328125 24.265625 278.222656 24.265625 C 278.664062 24.265625 279.082031 24.296875 279.472656 24.363281 C 279.863281 24.425781 280.222656 24.523438 280.550781 24.652344 Z M 280.550781 24.652344 "/>
<path style=" stroke:none;fill-rule:nonzero;fill:rgb(0%,0%,0%);fill-opacity:1;" d="M 287.5 24.652344 L 287.5 25.789062 C 287.160156 25.613281 286.808594 25.484375 286.445312 25.398438 C 286.082031 25.308594 285.703125 25.265625 285.3125 25.265625 C 284.714844 25.265625 284.269531 25.359375 283.972656 25.539062 C 283.675781 25.722656 283.527344 25.996094 283.527344 26.359375 C 283.527344 26.636719 283.632812 26.855469 283.847656 27.015625 C 284.058594 27.171875 284.488281 27.324219 285.128906 27.464844 L 285.539062 27.558594 C 286.390625 27.742188 286.996094 27.996094 287.351562 28.328125 C 287.710938 28.660156 287.890625 29.125 287.890625 29.71875 C 287.890625 30.398438 287.621094 30.933594 287.085938 31.328125 C 286.550781 31.722656 285.8125 31.921875 284.875 31.921875 C 284.484375 31.921875 284.078125 31.882812 283.65625 31.804688 C 283.230469 31.730469 282.785156 31.617188 282.316406 31.464844 L 282.316406 30.226562 C 282.761719 30.457031 283.195312 30.628906 283.625 30.746094 C 284.054688 30.859375 284.480469 30.917969 284.902344 30.917969 C 285.464844 30.917969 285.898438 30.820312 286.203125 30.628906 C 286.507812 30.433594 286.660156 30.160156 286.660156 29.808594 C 286.660156 29.484375 286.550781 29.234375 286.328125 29.0625 C 286.113281 28.890625 285.632812 28.722656 284.886719 28.558594 L 284.472656 28.460938 C 283.730469 28.308594 283.195312 28.066406 282.863281 27.742188 C 282.535156 27.421875 282.371094 26.976562 282.371094 26.414062 C 282.371094 25.726562 282.613281 25.195312 283.097656 24.824219 C 283.585938 24.453125 284.273438 24.265625 285.167969 24.265625 C 285.609375 24.265625 286.027344 24.296875 286.417969 24.363281 C 286.808594 24.425781 287.167969 24.523438 287.5 24.652344 Z M 287.5 24.652344 "/>
<path style="fill:none;stroke-width:1.5;stroke-linecap:butt;stroke-linejoin:round;stroke:rgb(74.901962%,0%,74.901962%);stroke-opacity:1;stroke-dasharray:5.55,2.4;stroke-miterlimit:4;" d="M 142.634766 34.977539 L 162.635742 34.977539 " transform="matrix(1.333333,0,0,1.333333,0.000000000000028422,0)"/>
<path style=" stroke:none;fill-rule:nonzero;fill:rgb(0%,0%,0%);fill-opacity:1;" d="M 229.953125 41.941406 L 229.953125 44.011719 L 232.421875 44.011719 L 232.421875 44.941406 L 229.953125 44.941406 L 229.953125 48.898438 C 229.953125 49.496094 230.035156 49.875 230.199219 50.046875 C 230.359375 50.214844 230.691406 50.300781 231.191406 50.300781 L 232.421875 50.300781 L 232.421875 51.300781 L 231.191406 51.300781 C 230.265625 51.300781 229.628906 51.128906 229.277344 50.785156 C 228.925781 50.441406 228.75 49.8125 228.75 48.898438 L 228.75 44.941406 L 227.871094 44.941406 L 227.871094 44.011719 L 228.75 44.011719 L 228.75 41.941406 Z M 229.953125 41.941406 "/>
<path style=" stroke:none;fill-rule:nonzero;fill:rgb(0%,0%,0%);fill-opacity:1;" d="M 238.222656 45.128906 C 238.085938 45.050781 237.941406 44.996094 237.78125 44.957031 C 237.625 44.921875 237.449219 44.902344 237.257812 44.902344 C 236.582031 44.902344 236.0625 45.121094 235.699219 45.5625 C 235.335938 46.003906 235.15625 46.636719 235.15625 47.460938 L 235.15625 51.300781 L 233.949219 51.300781 L 233.949219 44.011719 L 235.15625 44.011719 L 235.15625 45.144531 C 235.40625 44.699219 235.734375 44.371094 236.136719 44.160156 C 236.542969 43.941406 237.035156 43.835938 237.609375 43.835938 C 237.691406 43.835938 237.785156 43.839844 237.882812 43.851562 C 237.984375 43.863281 238.09375 43.878906 238.214844 43.898438 Z M 238.222656 45.128906 "/>
<path style=" stroke:none;fill-rule:nonzero;fill:rgb(0%,0%,0%);fill-opacity:1;" d="M 242.792969 47.636719 C 241.824219 47.636719 241.152344 47.746094 240.78125 47.96875 C 240.40625 48.191406 240.21875 48.566406 240.21875 49.101562 C 240.21875 49.527344 240.359375 49.863281 240.640625 50.113281 C 240.921875 50.363281 241.300781 50.488281 241.78125 50.488281 C 242.449219 50.488281 242.980469 50.253906 243.382812 49.78125 C 243.785156 49.308594 243.984375 48.683594 243.984375 47.902344 L 243.984375 47.636719 Z M 245.183594 47.140625 L 245.183594 51.300781 L 243.984375 51.300781 L 243.984375 50.195312 C 243.710938 50.636719 243.371094 50.964844 242.960938 51.175781 C 242.554688 51.386719 242.054688 51.492188 241.464844 51.492188 C 240.71875 51.492188 240.125 51.28125 239.683594 50.863281 C 239.242188 50.441406 239.023438 49.882812 239.023438 49.179688 C 239.023438 48.359375 239.296875 47.742188 239.84375 47.324219 C 240.394531 46.910156 241.214844 46.699219 242.304688 46.699219 L 243.984375 46.699219 L 243.984375 46.582031 C 243.984375 46.03125 243.804688 45.601562 243.441406 45.300781 C 243.078125 45 242.570312 44.851562 241.914062 44.851562 C 241.496094 44.851562 241.089844 44.898438 240.695312 45 C 240.300781 45.101562 239.921875 45.25 239.558594 45.449219 L 239.558594 44.339844 C 239.996094 44.171875 240.421875 44.046875 240.832031 43.960938 C 241.246094 43.878906 241.644531 43.835938 242.035156 43.835938 C 243.09375 43.835938 243.878906 44.109375 244.402344 44.65625 C 244.921875 45.203125 245.183594 46.03125 245.183594 47.140625 Z M 245.183594 47.140625 "/>
<path style=" stroke:none;fill-rule:nonzero;fill:rgb(0%,0%,0%);fill-opacity:1;" d="M 247.648438 44.011719 L 248.847656 44.011719 L 248.847656 51.300781 L 247.648438 51.300781 Z M 247.648438 41.171875 L 248.847656 41.171875 L 248.847656 42.691406 L 247.648438 42.691406 Z M 247.648438 41.171875 "/>
<path style=" stroke:none;fill-rule:nonzero;fill:rgb(0%,0%,0%);fill-opacity:1;" d="M 257.414062 46.898438 L 257.414062 51.300781 L 256.21875 51.300781 L 256.21875 46.941406 C 256.21875 46.25 256.082031 45.734375 255.8125 45.390625 C 255.542969 45.046875 255.140625 44.878906 254.601562 44.878906 C 253.957031 44.878906 253.445312 45.082031 253.070312 45.496094 C 252.699219 45.90625 252.511719 46.46875 252.511719 47.179688 L 252.511719 51.300781 L 251.308594 51.300781 L 251.308594 44.011719 L 252.511719 44.011719 L 252.511719 45.144531 C 252.800781 44.703125 253.136719 44.378906 253.523438 44.160156 C 253.914062 43.945312 254.363281 43.835938 254.871094 43.835938 C 255.707031 43.835938 256.339844 44.09375 256.769531 44.613281 C 257.199219 45.128906 257.414062 45.894531 257.414062 46.898438 Z M 257.414062 46.898438 "/>
<path style=" stroke:none;fill-rule:nonzero;fill:rgb(0%,0%,0%);fill-opacity:1;" d="M 267.355469 47.636719 C 266.390625 47.636719 265.71875 47.746094 265.34375 47.96875 C 264.96875 48.191406 264.785156 48.566406 264.785156 49.101562 C 264.785156 49.527344 264.925781 49.863281 265.203125 50.113281 C 265.484375 50.363281 265.867188 50.488281 266.347656 50.488281 C 267.011719 50.488281 267.546875 50.253906 267.945312 49.78125 C 268.347656 49.308594 268.546875 48.683594 268.546875 47.902344 L 268.546875 47.636719 Z M 269.746094 47.140625 L 269.746094 51.300781 L 268.546875 51.300781 L 268.546875 50.195312 C 268.273438 50.636719 267.933594 50.964844 267.527344 51.175781 C 267.117188 51.386719 266.617188 51.492188 266.027344 51.492188 C 265.28125 51.492188 264.6875 51.28125 264.246094 50.863281 C 263.804688 50.441406 263.585938 49.882812 263.585938 49.179688 C 263.585938 48.359375 263.859375 47.742188 264.410156 47.324219 C 264.957031 46.910156 265.777344 46.699219 266.867188 46.699219 L 268.546875 46.699219 L 268.546875 46.582031 C 268.546875 46.03125 268.367188 45.601562 268.003906 45.300781 C 267.640625 45 267.132812 44.851562 266.476562 44.851562 C 266.0625 44.851562 265.65625 44.898438 265.257812 45 C 264.863281 45.101562 264.484375 45.25 264.121094 45.449219 L 264.121094 44.339844 C 264.558594 44.171875 264.984375 44.046875 265.394531 43.960938 C 265.808594 43.878906 266.210938 43.835938 266.601562 43.835938 C 267.65625 43.835938 268.445312 44.109375 268.964844 44.65625 C 269.484375 45.203125 269.746094 46.03125 269.746094 47.140625 Z M 269.746094 47.140625 "/>
<path style=" stroke:none;fill-rule:nonzero;fill:rgb(0%,0%,0%);fill-opacity:1;" d="M 277.460938 44.289062 L 277.460938 45.410156 C 277.121094 45.222656 276.78125 45.082031 276.441406 44.988281 C 276.101562 44.898438 275.757812 44.851562 275.410156 44.851562 C 274.632812 44.851562 274.027344 45.097656 273.597656 45.589844 C 273.167969 46.082031 272.953125 46.773438 272.953125 47.664062 C 272.953125 48.554688 273.167969 49.246094 273.597656 49.738281 C 274.027344 50.230469 274.632812 50.476562 275.410156 50.476562 C 275.757812 50.476562 276.101562 50.429688 276.441406 50.335938 C 276.78125 50.242188 277.121094 50.101562 277.460938 49.914062 L 277.460938 51.023438 C 277.125 51.179688 276.78125 51.296875 276.421875 51.371094 C 276.0625 51.453125 275.683594 51.492188 275.28125 51.492188 C 274.179688 51.492188 273.308594 51.148438 272.660156 50.457031 C 272.015625 49.765625 271.691406 48.835938 271.691406 47.664062 C 271.691406 46.472656 272.019531 45.539062 272.671875 44.859375 C 273.324219 44.175781 274.222656 43.835938 275.359375 43.835938 C 275.726562 43.835938 276.085938 43.875 276.4375 43.949219 C 276.789062 44.023438 277.128906 44.136719 277.460938 44.289062 Z M 277.460938 44.289062 "/>
<path style=" stroke:none;fill-rule:nonzero;fill:rgb(0%,0%,0%);fill-opacity:1;" d="M 284.792969 44.289062 L 284.792969 45.410156 C 284.453125 45.222656 284.113281 45.082031 283.773438 44.988281 C 283.433594 44.898438 283.089844 44.851562 282.742188 44.851562 C 281.964844 44.851562 281.359375 45.097656 280.929688 45.589844 C 280.5 46.082031 280.285156 46.773438 280.285156 47.664062 C 280.285156 48.554688 280.5 49.246094 280.929688 49.738281 C 281.359375 50.230469 281.964844 50.476562 282.742188 50.476562 C 283.089844 50.476562 283.433594 50.429688 283.773438 50.335938 C 284.113281 50.242188 284.453125 50.101562 284.792969 49.914062 L 284.792969 51.023438 C 284.457031 51.179688 284.109375 51.296875 283.75 51.371094 C 283.394531 51.453125 283.015625 51.492188 282.609375 51.492188 C 281.511719 51.492188 280.636719 51.148438 279.992188 50.457031 C 279.34375 49.765625 279.023438 48.835938 279.023438 47.664062 C 279.023438 46.472656 279.347656 45.539062 280 44.859375 C 280.65625 44.175781 281.550781 43.835938 282.6875 43.835938 C 283.058594 43.835938 283.417969 43.875 283.769531 43.949219 C 284.121094 44.023438 284.460938 44.136719 284.792969 44.289062 Z M 284.792969 44.289062 "/>
</g>
</svg>
