<?xml version="1.0" encoding="UTF-8"?>
<svg xmlns="http://www.w3.org/2000/svg" xmlns:xlink="http://www.w3.org/1999/xlink" width="332.620829" height="240.875" viewBox="0 0 332.620829 240.875" version="1.1">
<defs>
<clipPath id="clip1">
  <path d="M 101 9.601562 L 103 9.601562 L 103 190.800781 L 101 190.800781 Z M 101 9.601562 "/>
</clipPath>
<clipPath id="clip2">
  <path d="M 154 9.601562 L 156 9.601562 L 156 190.800781 L 154 190.800781 Z M 154 9.601562 "/>
</clipPath>
<clipPath id="clip3">
  <path d="M 207 9.601562 L 210 9.601562 L 210 190.800781 L 207 190.800781 Z M 207 9.601562 "/>
</clipPath>
<clipPath id="clip4">
  <path d="M 260 9.601562 L 263 9.601562 L 263 190.800781 L 260 190.800781 Z M 260 9.601562 "/>
</clipPath>
<clipPath id="clip5">
  <path d="M 313 9.601562 L 314.539062 9.601562 L 314.539062 190.800781 L 313 190.800781 Z M 313 9.601562 "/>
</clipPath>
<clipPath id="clip6">
  <path d="M 54.136719 159 L 314.539062 159 L 314.539062 162 L 54.136719 162 Z M 54.136719 159 "/>
</clipPath>
<clipPath id="clip7">
  <path d="M 54.136719 124 L 314.539062 124 L 314.539062 127 L 54.136719 127 Z M 54.136719 124 "/>
</clipPath>
<clipPath id="clip8">
  <path d="M 54.136719 89 L 314.539062 89 L 314.539062 91 L 54.136719 91 Z M 54.136719 89 "/>
</clipPath>
<clipPath id="clip9">
  <path d="M 54.136719 54 L 314.539062 54 L 314.539062 56 L 54.136719 56 Z M 54.136719 54 "/>
</clipPath>
<clipPath id="clip10">
  <path d="M 54.136719 19 L 314.539062 19 L 314.539062 21 L 54.136719 21 Z M 54.136719 19 "/>
</clipPath>
<clipPath id="clip11">
  <path d="M 54.136719 16 L 314.539062 16 L 314.539062 102 L 54.136719 102 Z M 54.136719 16 "/>
</clipPath>
<clipPath id="clip12">
  <path d="M 54.136719 167 L 314.539062 167 L 314.539062 184 L 54.136719 184 Z M 54.136719 167 "/>
</clipPath>
<filter id="alpha" filterUnits="objectBoundingBox" x="0%" y="0%" width="100%" height="100%">
  <feColorMatrix type="matrix" in="SourceGraphic" values="0 0 0 0 1 0 0 0 0 1 0 0 0 0 1 0 0 0 1 0"/>
</filter>
<mask id="mask0">
  <g filter="url(#alpha)">
<rect x="0" y="0" width="332.620829" height="240.875" style="fill:rgb(0%,0%,0%);fill-opacity:0.8;stroke:none;"/>
  </g>
</mask>
<clipPath id="clip13">
  <rect x="0" y="0" width="333" height="241"/>
</clipPath>
<g id="surface5" clip-path="url(#clip13)">
<path style="fill-rule:nonzero;fill:rgb(100%,100%,100%);fill-opacity:1;stroke-width:1;stroke-linecap:butt;stroke-linejoin:miter;stroke:rgb(80.000001%,80.000001%,80.000001%);stroke-opacity:1;stroke-miterlimit:4;" d="M 174.644531 44.557617 L 228.902344 44.557617 C 230.235352 44.557617 230.90332 43.889648 230.90332 42.556641 L 230.90332 14.200195 C 230.90332 12.867188 230.235352 12.199219 228.902344 12.199219 L 174.644531 12.199219 C 173.311523 12.199219 172.643555 12.867188 172.643555 14.200195 L 172.643555 42.556641 C 172.643555 43.889648 173.311523 44.557617 174.644531 44.557617 Z M 174.644531 44.557617 " transform="matrix(1.333333,0,0,1.333333,0.000000000000028422,0)"/>
</g>
</defs>
<g id="surface1">
<path style=" stroke:none;fill-rule:nonzero;fill:rgb(100%,100%,100%);fill-opacity:1;" d="M 54.136719 190.800781 L 314.539062 190.800781 L 314.539062 9.601562 L 54.136719 9.601562 Z M 54.136719 190.800781 "/>
<g clip-path="url(#clip1)" clip-rule="nonzero">
<path style="fill:none;stroke-width:0.8;stroke-linecap:square;stroke-linejoin:round;stroke:rgb(69.01961%,69.01961%,69.01961%);stroke-opacity:1;stroke-miterlimit:4;" d="M 76.473633 143.100586 L 76.473633 7.201172 " transform="matrix(1.333333,0,0,1.333333,0.000000000000028422,0)"/>
</g>
<path style="fill:none;stroke-width:0.8;stroke-linecap:butt;stroke-linejoin:round;stroke:rgb(0%,0%,0%);stroke-opacity:1;stroke-miterlimit:4;" d="M -0.000923157 0.000579834 L -0.000923157 3.498627 " transform="matrix(1.333333,0,0,1.333333,101.966075,190.800008)"/>
<path style=" stroke:none;fill-rule:nonzero;fill:rgb(0%,0%,0%);fill-opacity:1;" d="M 95.136719 209.160156 L 97.285156 209.160156 L 97.285156 201.742188 L 94.949219 202.210938 L 94.949219 201.011719 L 97.273438 200.542969 L 98.585938 200.542969 L 98.585938 209.160156 L 100.734375 209.160156 L 100.734375 210.265625 L 95.136719 210.265625 Z M 95.136719 209.160156 "/>
<path style=" stroke:none;fill-rule:nonzero;fill:rgb(0%,0%,0%);fill-opacity:1;" d="M 106.203125 201.410156 C 105.527344 201.410156 105.019531 201.742188 104.675781 202.410156 C 104.335938 203.074219 104.164062 204.078125 104.164062 205.414062 C 104.164062 206.746094 104.335938 207.746094 104.675781 208.414062 C 105.019531 209.078125 105.527344 209.414062 106.203125 209.414062 C 106.886719 209.414062 107.394531 209.078125 107.738281 208.414062 C 108.078125 207.746094 108.25 206.746094 108.25 205.414062 C 108.25 204.078125 108.078125 203.074219 107.738281 202.410156 C 107.394531 201.742188 106.886719 201.410156 106.203125 201.410156 Z M 106.203125 200.367188 C 107.292969 200.367188 108.125 200.800781 108.703125 201.664062 C 109.277344 202.523438 109.5625 203.773438 109.5625 205.414062 C 109.5625 207.050781 109.277344 208.300781 108.703125 209.164062 C 108.125 210.023438 107.292969 210.453125 106.203125 210.453125 C 105.113281 210.453125 104.28125 210.023438 103.707031 209.164062 C 103.132812 208.300781 102.84375 207.050781 102.84375 205.414062 C 102.84375 203.773438 103.132812 202.523438 103.707031 201.664062 C 104.28125 200.800781 105.113281 200.367188 106.203125 200.367188 Z M 106.203125 200.367188 "/>
<g clip-path="url(#clip2)" clip-rule="nonzero">
<path style="fill:none;stroke-width:0.8;stroke-linecap:square;stroke-linejoin:round;stroke:rgb(69.01961%,69.01961%,69.01961%);stroke-opacity:1;stroke-miterlimit:4;" d="M 116.332031 143.100586 L 116.332031 7.201172 " transform="matrix(1.333333,0,0,1.333333,0.000000000000028422,0)"/>
</g>
<path style="fill:none;stroke-width:0.8;stroke-linecap:butt;stroke-linejoin:round;stroke:rgb(0%,0%,0%);stroke-opacity:1;stroke-miterlimit:4;" d="M 0.000335693 0.000579834 L 0.000335693 3.498627 " transform="matrix(1.333333,0,0,1.333333,155.108927,190.800008)"/>
<path style=" stroke:none;fill-rule:nonzero;fill:rgb(0%,0%,0%);fill-opacity:1;" d="M 149.183594 209.160156 L 153.773438 209.160156 L 153.773438 210.265625 L 147.601562 210.265625 L 147.601562 209.160156 C 148.101562 208.640625 148.78125 207.949219 149.640625 207.078125 C 150.503906 206.207031 151.046875 205.648438 151.265625 205.394531 C 151.6875 204.921875 151.980469 204.523438 152.148438 204.195312 C 152.316406 203.867188 152.402344 203.542969 152.402344 203.226562 C 152.402344 202.710938 152.21875 202.289062 151.855469 201.964844 C 151.496094 201.636719 151.023438 201.476562 150.441406 201.476562 C 150.027344 201.476562 149.59375 201.546875 149.132812 201.691406 C 148.675781 201.832031 148.1875 202.050781 147.667969 202.339844 L 147.667969 201.011719 C 148.195312 200.800781 148.691406 200.640625 149.152344 200.53125 C 149.613281 200.421875 150.035156 200.367188 150.414062 200.367188 C 151.421875 200.367188 152.226562 200.621094 152.824219 201.125 C 153.421875 201.628906 153.722656 202.300781 153.722656 203.140625 C 153.722656 203.542969 153.644531 203.921875 153.496094 204.277344 C 153.347656 204.636719 153.074219 205.058594 152.679688 205.542969 C 152.570312 205.671875 152.226562 206.035156 151.644531 206.636719 C 151.0625 207.238281 150.242188 208.078125 149.183594 209.160156 Z M 149.183594 209.160156 "/>
<path style=" stroke:none;fill-rule:nonzero;fill:rgb(0%,0%,0%);fill-opacity:1;" d="M 159.347656 201.410156 C 158.667969 201.410156 158.160156 201.742188 157.820312 202.410156 C 157.480469 203.074219 157.308594 204.078125 157.308594 205.414062 C 157.308594 206.746094 157.480469 207.746094 157.820312 208.414062 C 158.160156 209.078125 158.667969 209.414062 159.347656 209.414062 C 160.027344 209.414062 160.539062 209.078125 160.878906 208.414062 C 161.222656 207.746094 161.390625 206.746094 161.390625 205.414062 C 161.390625 204.078125 161.222656 203.074219 160.878906 202.410156 C 160.539062 201.742188 160.027344 201.410156 159.347656 201.410156 Z M 159.347656 200.367188 C 160.4375 200.367188 161.269531 200.800781 161.84375 201.664062 C 162.417969 202.523438 162.707031 203.773438 162.707031 205.414062 C 162.707031 207.050781 162.417969 208.300781 161.84375 209.164062 C 161.269531 210.023438 160.4375 210.453125 159.347656 210.453125 C 158.257812 210.453125 157.425781 210.023438 156.851562 209.164062 C 156.273438 208.300781 155.988281 207.050781 155.988281 205.414062 C 155.988281 203.773438 156.273438 202.523438 156.851562 201.664062 C 157.425781 200.800781 158.257812 200.367188 159.347656 200.367188 Z M 159.347656 200.367188 "/>
<g clip-path="url(#clip3)" clip-rule="nonzero">
<path style="fill:none;stroke-width:0.8;stroke-linecap:square;stroke-linejoin:round;stroke:rgb(69.01961%,69.01961%,69.01961%);stroke-opacity:1;stroke-miterlimit:4;" d="M 156.1875 143.100586 L 156.1875 7.201172 " transform="matrix(1.333333,0,0,1.333333,0.000000000000028422,0)"/>
</g>
<path style="fill:none;stroke-width:0.8;stroke-linecap:butt;stroke-linejoin:round;stroke:rgb(0%,0%,0%);stroke-opacity:1;stroke-miterlimit:4;" d="M -0.00134277 0.000579834 L -0.00134277 3.498627 " transform="matrix(1.333333,0,0,1.333333,208.25179,190.800008)"/>
<path style=" stroke:none;fill-rule:nonzero;fill:rgb(0%,0%,0%);fill-opacity:1;" d="M 205.179688 205.023438 C 205.808594 205.15625 206.300781 205.4375 206.652344 205.863281 C 207.007812 206.289062 207.183594 206.816406 207.183594 207.441406 C 207.183594 208.398438 206.851562 209.140625 206.195312 209.667969 C 205.535156 210.191406 204.597656 210.453125 203.382812 210.453125 C 202.972656 210.453125 202.554688 210.414062 202.121094 210.332031 C 201.691406 210.253906 201.246094 210.132812 200.785156 209.972656 L 200.785156 208.703125 C 201.148438 208.914062 201.546875 209.074219 201.980469 209.183594 C 202.414062 209.292969 202.871094 209.347656 203.34375 209.347656 C 204.167969 209.347656 204.792969 209.183594 205.226562 208.859375 C 205.660156 208.535156 205.875 208.058594 205.875 207.441406 C 205.875 206.867188 205.675781 206.417969 205.273438 206.097656 C 204.871094 205.773438 204.3125 205.609375 203.597656 205.609375 L 202.464844 205.609375 L 202.464844 204.527344 L 203.648438 204.527344 C 204.296875 204.527344 204.789062 204.398438 205.132812 204.140625 C 205.476562 203.882812 205.648438 203.511719 205.648438 203.023438 C 205.648438 202.527344 205.46875 202.144531 205.117188 201.878906 C 204.761719 201.609375 204.257812 201.476562 203.597656 201.476562 C 203.238281 201.476562 202.851562 201.515625 202.4375 201.59375 C 202.023438 201.671875 201.570312 201.792969 201.078125 201.957031 L 201.078125 200.785156 C 201.578125 200.648438 202.042969 200.542969 202.480469 200.472656 C 202.917969 200.402344 203.328125 200.367188 203.714844 200.367188 C 204.714844 200.367188 205.503906 200.597656 206.082031 201.050781 C 206.664062 201.503906 206.957031 202.117188 206.957031 202.886719 C 206.957031 203.425781 206.800781 203.882812 206.492188 204.253906 C 206.183594 204.621094 205.746094 204.878906 205.179688 205.023438 Z M 205.179688 205.023438 "/>
<path style=" stroke:none;fill-rule:nonzero;fill:rgb(0%,0%,0%);fill-opacity:1;" d="M 212.488281 201.410156 C 211.8125 201.410156 211.304688 201.742188 210.960938 202.410156 C 210.621094 203.074219 210.453125 204.078125 210.453125 205.414062 C 210.453125 206.746094 210.621094 207.746094 210.960938 208.414062 C 211.304688 209.078125 211.8125 209.414062 212.488281 209.414062 C 213.171875 209.414062 213.683594 209.078125 214.023438 208.414062 C 214.363281 207.746094 214.535156 206.746094 214.535156 205.414062 C 214.535156 204.078125 214.363281 203.074219 214.023438 202.410156 C 213.683594 201.742188 213.171875 201.410156 212.488281 201.410156 Z M 212.488281 200.367188 C 213.578125 200.367188 214.410156 200.800781 214.988281 201.664062 C 215.5625 202.523438 215.847656 203.773438 215.847656 205.414062 C 215.847656 207.050781 215.5625 208.300781 214.988281 209.164062 C 214.410156 210.023438 213.578125 210.453125 212.488281 210.453125 C 211.398438 210.453125 210.566406 210.023438 209.992188 209.164062 C 209.417969 208.300781 209.128906 207.050781 209.128906 205.414062 C 209.128906 203.773438 209.417969 202.523438 209.992188 201.664062 C 210.566406 200.800781 211.398438 200.367188 212.488281 200.367188 Z M 212.488281 200.367188 "/>
<g clip-path="url(#clip4)" clip-rule="nonzero">
<path style="fill:none;stroke-width:0.8;stroke-linecap:square;stroke-linejoin:round;stroke:rgb(69.01961%,69.01961%,69.01961%);stroke-opacity:1;stroke-miterlimit:4;" d="M 196.045898 143.100586 L 196.045898 7.201172 " transform="matrix(1.333333,0,0,1.333333,0.000000000000028422,0)"/>
</g>
<path style="fill:none;stroke-width:0.8;stroke-linecap:butt;stroke-linejoin:round;stroke:rgb(0%,0%,0%);stroke-opacity:1;stroke-miterlimit:4;" d="M -0.0000762939 0.000579834 L -0.0000762939 3.498627 " transform="matrix(1.333333,0,0,1.333333,261.394633,190.800008)"/>
<path style=" stroke:none;fill-rule:nonzero;fill:rgb(0%,0%,0%);fill-opacity:1;" d="M 257.949219 201.691406 L 254.628906 206.878906 L 257.949219 206.878906 Z M 257.605469 200.542969 L 259.257812 200.542969 L 259.257812 206.878906 L 260.648438 206.878906 L 260.648438 207.972656 L 259.257812 207.972656 L 259.257812 210.265625 L 257.949219 210.265625 L 257.949219 207.972656 L 253.5625 207.972656 L 253.5625 206.703125 Z M 257.605469 200.542969 "/>
<path style=" stroke:none;fill-rule:nonzero;fill:rgb(0%,0%,0%);fill-opacity:1;" d="M 265.632812 201.410156 C 264.957031 201.410156 264.445312 201.742188 264.105469 202.410156 C 263.765625 203.074219 263.59375 204.078125 263.59375 205.414062 C 263.59375 206.746094 263.765625 207.746094 264.105469 208.414062 C 264.445312 209.078125 264.957031 209.414062 265.632812 209.414062 C 266.3125 209.414062 266.824219 209.078125 267.164062 208.414062 C 267.507812 207.746094 267.675781 206.746094 267.675781 205.414062 C 267.675781 204.078125 267.507812 203.074219 267.164062 202.410156 C 266.824219 201.742188 266.3125 201.410156 265.632812 201.410156 Z M 265.632812 200.367188 C 266.722656 200.367188 267.554688 200.800781 268.128906 201.664062 C 268.703125 202.523438 268.992188 203.773438 268.992188 205.414062 C 268.992188 207.050781 268.703125 208.300781 268.128906 209.164062 C 267.554688 210.023438 266.722656 210.453125 265.632812 210.453125 C 264.542969 210.453125 263.710938 210.023438 263.136719 209.164062 C 262.5625 208.300781 262.273438 207.050781 262.273438 205.414062 C 262.273438 203.773438 262.5625 202.523438 263.136719 201.664062 C 263.710938 200.800781 264.542969 200.367188 265.632812 200.367188 Z M 265.632812 200.367188 "/>
<g clip-path="url(#clip5)" clip-rule="nonzero">
<path style="fill:none;stroke-width:0.8;stroke-linecap:square;stroke-linejoin:round;stroke:rgb(69.01961%,69.01961%,69.01961%);stroke-opacity:1;stroke-miterlimit:4;" d="M 235.904297 143.100586 L 235.904297 7.201172 " transform="matrix(1.333333,0,0,1.333333,0.000000000000028422,0)"/>
</g>
<path style="fill:none;stroke-width:0.8;stroke-linecap:butt;stroke-linejoin:round;stroke:rgb(0%,0%,0%);stroke-opacity:1;stroke-miterlimit:4;" d="M 0.00117493 0.000579834 L 0.00117493 3.498627 " transform="matrix(1.333333,0,0,1.333333,314.537496,190.800008)"/>
<path style=" stroke:none;fill-rule:nonzero;fill:rgb(0%,0%,0%);fill-opacity:1;" d="M 307.492188 200.542969 L 312.65625 200.542969 L 312.65625 201.652344 L 308.699219 201.652344 L 308.699219 204.035156 C 308.886719 203.96875 309.078125 203.917969 309.269531 203.886719 C 309.460938 203.855469 309.652344 203.839844 309.84375 203.839844 C 310.929688 203.839844 311.789062 204.136719 312.421875 204.730469 C 313.054688 205.324219 313.371094 206.128906 313.371094 207.144531 C 313.371094 208.191406 313.046875 209.003906 312.394531 209.585938 C 311.746094 210.164062 310.828125 210.453125 309.640625 210.453125 C 309.234375 210.453125 308.816406 210.417969 308.394531 210.351562 C 307.972656 210.28125 307.535156 210.175781 307.082031 210.039062 L 307.082031 208.714844 C 307.472656 208.925781 307.878906 209.085938 308.292969 209.191406 C 308.710938 209.292969 309.152344 209.347656 309.613281 209.347656 C 310.367188 209.347656 310.960938 209.148438 311.398438 208.753906 C 311.835938 208.359375 312.054688 207.824219 312.054688 207.144531 C 312.054688 206.46875 311.835938 205.933594 311.398438 205.539062 C 310.960938 205.144531 310.367188 204.945312 309.613281 204.945312 C 309.261719 204.945312 308.914062 204.984375 308.5625 205.0625 C 308.214844 205.140625 307.859375 205.261719 307.492188 205.425781 Z M 307.492188 200.542969 "/>
<path style=" stroke:none;fill-rule:nonzero;fill:rgb(0%,0%,0%);fill-opacity:1;" d="M 318.773438 201.410156 C 318.097656 201.410156 317.589844 201.742188 317.246094 202.410156 C 316.90625 203.074219 316.738281 204.078125 316.738281 205.414062 C 316.738281 206.746094 316.90625 207.746094 317.246094 208.414062 C 317.589844 209.078125 318.097656 209.414062 318.773438 209.414062 C 319.457031 209.414062 319.96875 209.078125 320.308594 208.414062 C 320.648438 207.746094 320.820312 206.746094 320.820312 205.414062 C 320.820312 204.078125 320.648438 203.074219 320.308594 202.410156 C 319.96875 201.742188 319.457031 201.410156 318.773438 201.410156 Z M 318.773438 200.367188 C 319.863281 200.367188 320.699219 200.800781 321.273438 201.664062 C 321.847656 202.523438 322.136719 203.773438 322.136719 205.414062 C 322.136719 207.050781 321.847656 208.300781 321.273438 209.164062 C 320.699219 210.023438 319.863281 210.453125 318.773438 210.453125 C 317.6875 210.453125 316.855469 210.023438 316.277344 209.164062 C 315.703125 208.300781 315.417969 207.050781 315.417969 205.414062 C 315.417969 203.773438 315.703125 202.523438 316.277344 201.664062 C 316.855469 200.800781 317.6875 200.367188 318.773438 200.367188 Z M 318.773438 200.367188 "/>
<path style=" stroke:none;fill-rule:nonzero;fill:rgb(0%,0%,0%);fill-opacity:1;" d="M 175.820312 221.425781 L 175.820312 222.558594 C 175.484375 222.382812 175.132812 222.253906 174.765625 222.167969 C 174.402344 222.082031 174.023438 222.039062 173.632812 222.039062 C 173.039062 222.039062 172.59375 222.128906 172.296875 222.308594 C 172 222.492188 171.851562 222.765625 171.851562 223.132812 C 171.851562 223.410156 171.957031 223.628906 172.167969 223.785156 C 172.382812 223.945312 172.808594 224.09375 173.453125 224.238281 L 173.863281 224.328125 C 174.710938 224.511719 175.316406 224.769531 175.675781 225.101562 C 176.035156 225.433594 176.210938 225.894531 176.210938 226.488281 C 176.210938 227.167969 175.945312 227.703125 175.410156 228.101562 C 174.871094 228.496094 174.136719 228.691406 173.199219 228.691406 C 172.808594 228.691406 172.402344 228.652344 171.976562 228.578125 C 171.554688 228.5 171.109375 228.386719 170.640625 228.234375 L 170.640625 226.996094 C 171.082031 227.226562 171.519531 227.402344 171.949219 227.515625 C 172.378906 227.628906 172.804688 227.6875 173.226562 227.6875 C 173.789062 227.6875 174.222656 227.589844 174.523438 227.398438 C 174.828125 227.203125 174.980469 226.933594 174.980469 226.582031 C 174.980469 226.257812 174.871094 226.007812 174.652344 225.832031 C 174.433594 225.660156 173.953125 225.492188 173.210938 225.332031 L 172.792969 225.234375 C 172.050781 225.078125 171.515625 224.839844 171.183594 224.515625 C 170.855469 224.191406 170.691406 223.746094 170.691406 223.183594 C 170.691406 222.496094 170.933594 221.96875 171.421875 221.597656 C 171.90625 221.222656 172.597656 221.035156 173.492188 221.035156 C 173.933594 221.035156 174.347656 221.066406 174.738281 221.132812 C 175.132812 221.195312 175.492188 221.292969 175.820312 221.425781 Z M 175.820312 221.425781 "/>
<path style=" stroke:none;fill-rule:nonzero;fill:rgb(0%,0%,0%);fill-opacity:1;" d="M 179.304688 219.140625 L 179.304688 221.210938 L 181.773438 221.210938 L 181.773438 222.140625 L 179.304688 222.140625 L 179.304688 226.101562 C 179.304688 226.695312 179.386719 227.078125 179.546875 227.246094 C 179.710938 227.414062 180.042969 227.5 180.542969 227.5 L 181.773438 227.5 L 181.773438 228.503906 L 180.542969 228.503906 C 179.617188 228.503906 178.980469 228.328125 178.628906 227.984375 C 178.277344 227.640625 178.101562 227.011719 178.101562 226.101562 L 178.101562 222.140625 L 177.222656 222.140625 L 177.222656 221.210938 L 178.101562 221.210938 L 178.101562 219.140625 Z M 179.304688 219.140625 "/>
<path style=" stroke:none;fill-rule:nonzero;fill:rgb(0%,0%,0%);fill-opacity:1;" d="M 189.585938 224.554688 L 189.585938 225.140625 L 184.078125 225.140625 C 184.128906 225.964844 184.378906 226.59375 184.824219 227.027344 C 185.265625 227.460938 185.886719 227.675781 186.679688 227.675781 C 187.140625 227.675781 187.585938 227.617188 188.019531 227.507812 C 188.449219 227.394531 188.878906 227.222656 189.304688 226.996094 L 189.304688 228.132812 C 188.875 228.3125 188.433594 228.453125 187.984375 228.546875 C 187.53125 228.644531 187.074219 228.691406 186.609375 228.691406 C 185.445312 228.691406 184.523438 228.351562 183.84375 227.675781 C 183.167969 227 182.828125 226.082031 182.828125 224.925781 C 182.828125 223.734375 183.148438 222.789062 183.792969 222.085938 C 184.4375 221.386719 185.308594 221.035156 186.402344 221.035156 C 187.382812 221.035156 188.15625 221.351562 188.730469 221.984375 C 189.300781 222.613281 189.585938 223.472656 189.585938 224.554688 Z M 188.386719 224.203125 C 188.378906 223.550781 188.195312 223.027344 187.835938 222.636719 C 187.480469 222.246094 187.003906 222.050781 186.414062 222.050781 C 185.746094 222.050781 185.210938 222.238281 184.808594 222.617188 C 184.410156 222.996094 184.175781 223.527344 184.117188 224.210938 Z M 188.386719 224.203125 "/>
<path style=" stroke:none;fill-rule:nonzero;fill:rgb(0%,0%,0%);fill-opacity:1;" d="M 192.707031 227.410156 L 192.707031 231.273438 L 191.503906 231.273438 L 191.503906 221.210938 L 192.707031 221.210938 L 192.707031 222.316406 C 192.960938 221.882812 193.28125 221.5625 193.664062 221.351562 C 194.046875 221.140625 194.507812 221.035156 195.039062 221.035156 C 195.925781 221.035156 196.644531 221.386719 197.199219 222.089844 C 197.753906 222.792969 198.03125 223.714844 198.03125 224.863281 C 198.03125 226.007812 197.753906 226.933594 197.199219 227.636719 C 196.644531 228.339844 195.925781 228.691406 195.039062 228.691406 C 194.507812 228.691406 194.046875 228.585938 193.664062 228.375 C 193.28125 228.164062 192.960938 227.839844 192.707031 227.410156 Z M 196.785156 224.863281 C 196.785156 223.980469 196.605469 223.289062 196.242188 222.789062 C 195.878906 222.289062 195.382812 222.039062 194.75 222.039062 C 194.113281 222.039062 193.613281 222.289062 193.253906 222.789062 C 192.890625 223.289062 192.707031 223.980469 192.707031 224.863281 C 192.707031 225.742188 192.890625 226.433594 193.253906 226.933594 C 193.613281 227.4375 194.113281 227.6875 194.75 227.6875 C 195.382812 227.6875 195.878906 227.4375 196.242188 226.933594 C 196.605469 226.433594 196.785156 225.742188 196.785156 224.863281 Z M 196.785156 224.863281 "/>
<g clip-path="url(#clip6)" clip-rule="nonzero">
<path style="fill:none;stroke-width:0.8;stroke-linecap:square;stroke-linejoin:round;stroke:rgb(69.01961%,69.01961%,69.01961%);stroke-opacity:1;stroke-miterlimit:4;" d="M 40.602539 120.237305 L 235.904297 120.237305 " transform="matrix(1.333333,0,0,1.333333,0.000000000000028422,0)"/>
</g>
<path style="fill:none;stroke-width:0.8;stroke-linecap:butt;stroke-linejoin:round;stroke:rgb(0%,0%,0%);stroke-opacity:1;stroke-miterlimit:4;" d="M -0.000587463 0.00137329 L -3.498634 0.00137329 " transform="matrix(1.333333,0,0,1.333333,54.137502,160.314575)"/>
<path style=" stroke:none;fill-rule:nonzero;fill:rgb(0%,0%,0%);fill-opacity:1;" d="M 38.878906 164.273438 L 43.46875 164.273438 L 43.46875 165.378906 L 37.296875 165.378906 L 37.296875 164.273438 C 37.796875 163.757812 38.476562 163.0625 39.335938 162.195312 C 40.199219 161.324219 40.742188 160.761719 40.960938 160.507812 C 41.382812 160.039062 41.675781 159.636719 41.84375 159.308594 C 42.011719 158.980469 42.097656 158.660156 42.097656 158.34375 C 42.097656 157.824219 41.914062 157.40625 41.550781 157.082031 C 41.191406 156.753906 40.71875 156.589844 40.136719 156.589844 C 39.722656 156.589844 39.289062 156.664062 38.828125 156.804688 C 38.371094 156.949219 37.882812 157.164062 37.363281 157.457031 L 37.363281 156.128906 C 37.890625 155.914062 38.386719 155.753906 38.847656 155.648438 C 39.308594 155.539062 39.726562 155.484375 40.109375 155.484375 C 41.117188 155.484375 41.921875 155.738281 42.519531 156.242188 C 43.117188 156.742188 43.417969 157.414062 43.417969 158.257812 C 43.417969 158.65625 43.339844 159.035156 43.191406 159.394531 C 43.042969 159.75 42.769531 160.171875 42.375 160.660156 C 42.265625 160.785156 41.921875 161.148438 41.339844 161.75 C 40.757812 162.351562 39.9375 163.195312 38.878906 164.273438 Z M 38.878906 164.273438 "/>
<g clip-path="url(#clip7)" clip-rule="nonzero">
<path style="fill:none;stroke-width:0.8;stroke-linecap:square;stroke-linejoin:round;stroke:rgb(69.01961%,69.01961%,69.01961%);stroke-opacity:1;stroke-miterlimit:4;" d="M 40.602539 93.952148 L 235.904297 93.952148 " transform="matrix(1.333333,0,0,1.333333,0.000000000000028422,0)"/>
</g>
<path style="fill:none;stroke-width:0.8;stroke-linecap:butt;stroke-linejoin:round;stroke:rgb(0%,0%,0%);stroke-opacity:1;stroke-miterlimit:4;" d="M -0.000587463 0.000152588 L -3.498634 0.000152588 " transform="matrix(1.333333,0,0,1.333333,54.137502,125.269328)"/>
<path style=" stroke:none;fill-rule:nonzero;fill:rgb(0%,0%,0%);fill-opacity:1;" d="M 41.359375 121.761719 L 38.039062 126.949219 L 41.359375 126.949219 Z M 41.015625 120.613281 L 42.667969 120.613281 L 42.667969 126.949219 L 44.054688 126.949219 L 44.054688 128.042969 L 42.667969 128.042969 L 42.667969 130.335938 L 41.359375 130.335938 L 41.359375 128.042969 L 36.972656 128.042969 L 36.972656 126.773438 Z M 41.015625 120.613281 "/>
<g clip-path="url(#clip8)" clip-rule="nonzero">
<path style="fill:none;stroke-width:0.8;stroke-linecap:square;stroke-linejoin:round;stroke:rgb(69.01961%,69.01961%,69.01961%);stroke-opacity:1;stroke-miterlimit:4;" d="M 40.602539 67.666992 L 235.904297 67.666992 " transform="matrix(1.333333,0,0,1.333333,0.000000000000028422,0)"/>
</g>
<path style="fill:none;stroke-width:0.8;stroke-linecap:butt;stroke-linejoin:round;stroke:rgb(0%,0%,0%);stroke-opacity:1;stroke-miterlimit:4;" d="M -0.000587463 -0.00106049 L -3.498634 -0.00106049 " transform="matrix(1.333333,0,0,1.333333,54.137502,90.22407)"/>
<path style=" stroke:none;fill-rule:nonzero;fill:rgb(0%,0%,0%);fill-opacity:1;" d="M 40.722656 89.90625 C 40.132812 89.90625 39.664062 90.109375 39.320312 90.511719 C 38.972656 90.914062 38.800781 91.46875 38.800781 92.171875 C 38.800781 92.871094 38.972656 93.421875 39.320312 93.828125 C 39.664062 94.234375 40.132812 94.4375 40.722656 94.4375 C 41.3125 94.4375 41.78125 94.234375 42.125 93.828125 C 42.46875 93.421875 42.640625 92.871094 42.640625 92.171875 C 42.640625 91.46875 42.46875 90.914062 42.125 90.511719 C 41.78125 90.109375 41.3125 89.90625 40.722656 89.90625 Z M 43.332031 85.785156 L 43.332031 86.980469 C 43.003906 86.824219 42.667969 86.707031 42.332031 86.625 C 41.996094 86.542969 41.664062 86.5 41.332031 86.5 C 40.464844 86.5 39.800781 86.792969 39.34375 87.378906 C 38.886719 87.964844 38.625 88.851562 38.558594 90.035156 C 38.816406 89.65625 39.136719 89.367188 39.523438 89.167969 C 39.910156 88.964844 40.335938 88.863281 40.800781 88.863281 C 41.777344 88.863281 42.546875 89.160156 43.113281 89.753906 C 43.679688 90.347656 43.964844 91.152344 43.964844 92.171875 C 43.964844 93.167969 43.667969 93.972656 43.078125 94.574219 C 42.488281 95.179688 41.703125 95.480469 40.722656 95.480469 C 39.597656 95.480469 38.738281 95.046875 38.144531 94.1875 C 37.550781 93.324219 37.253906 92.074219 37.253906 90.441406 C 37.253906 88.902344 37.617188 87.679688 38.347656 86.765625 C 39.074219 85.851562 40.054688 85.394531 41.28125 85.394531 C 41.613281 85.394531 41.945312 85.425781 42.28125 85.492188 C 42.617188 85.558594 42.96875 85.652344 43.332031 85.785156 Z M 43.332031 85.785156 "/>
<g clip-path="url(#clip9)" clip-rule="nonzero">
<path style="fill:none;stroke-width:0.8;stroke-linecap:square;stroke-linejoin:round;stroke:rgb(69.01961%,69.01961%,69.01961%);stroke-opacity:1;stroke-miterlimit:4;" d="M 40.602539 41.384766 L 235.904297 41.384766 " transform="matrix(1.333333,0,0,1.333333,0.000000000000028422,0)"/>
</g>
<path style="fill:none;stroke-width:0.8;stroke-linecap:butt;stroke-linejoin:round;stroke:rgb(0%,0%,0%);stroke-opacity:1;stroke-miterlimit:4;" d="M -0.000587463 0.000648499 L -3.498634 0.000648499 " transform="matrix(1.333333,0,0,1.333333,54.137502,55.178823)"/>
<path style=" stroke:none;fill-rule:nonzero;fill:rgb(0%,0%,0%);fill-opacity:1;" d="M 40.558594 55.628906 C 39.933594 55.628906 39.441406 55.796875 39.082031 56.128906 C 38.726562 56.464844 38.546875 56.925781 38.546875 57.507812 C 38.546875 58.09375 38.726562 58.554688 39.082031 58.890625 C 39.441406 59.226562 39.933594 59.390625 40.558594 59.390625 C 41.183594 59.390625 41.675781 59.222656 42.035156 58.886719 C 42.398438 58.550781 42.578125 58.089844 42.578125 57.507812 C 42.578125 56.925781 42.398438 56.464844 42.039062 56.128906 C 41.683594 55.796875 41.1875 55.628906 40.558594 55.628906 Z M 39.242188 55.070312 C 38.679688 54.929688 38.242188 54.667969 37.925781 54.28125 C 37.609375 53.894531 37.453125 53.421875 37.453125 52.867188 C 37.453125 52.089844 37.730469 51.476562 38.285156 51.027344 C 38.835938 50.574219 39.597656 50.347656 40.558594 50.347656 C 41.527344 50.347656 42.285156 50.574219 42.835938 51.027344 C 43.390625 51.476562 43.664062 52.089844 43.664062 52.867188 C 43.664062 53.421875 43.507812 53.894531 43.191406 54.28125 C 42.878906 54.667969 42.441406 54.929688 41.882812 55.070312 C 42.515625 55.214844 43.007812 55.503906 43.359375 55.9375 C 43.714844 56.367188 43.890625 56.890625 43.890625 57.507812 C 43.890625 58.453125 43.605469 59.175781 43.027344 59.679688 C 42.453125 60.183594 41.628906 60.433594 40.558594 60.433594 C 39.488281 60.433594 38.664062 60.183594 38.085938 59.679688 C 37.511719 59.175781 37.226562 58.453125 37.226562 57.507812 C 37.226562 56.890625 37.402344 56.367188 37.757812 55.9375 C 38.117188 55.503906 38.609375 55.214844 39.242188 55.070312 Z M 38.761719 52.992188 C 38.761719 53.496094 38.917969 53.886719 39.234375 54.167969 C 39.546875 54.453125 39.992188 54.59375 40.558594 54.59375 C 41.125 54.59375 41.566406 54.453125 41.882812 54.167969 C 42.203125 53.886719 42.363281 53.496094 42.363281 52.992188 C 42.363281 52.488281 42.203125 52.09375 41.882812 51.8125 C 41.566406 51.53125 41.125 51.390625 40.558594 51.390625 C 39.992188 51.390625 39.546875 51.53125 39.234375 51.8125 C 38.917969 52.09375 38.761719 52.488281 38.761719 52.992188 Z M 38.761719 52.992188 "/>
<g clip-path="url(#clip10)" clip-rule="nonzero">
<path style="fill:none;stroke-width:0.8;stroke-linecap:square;stroke-linejoin:round;stroke:rgb(69.01961%,69.01961%,69.01961%);stroke-opacity:1;stroke-miterlimit:4;" d="M 40.602539 15.099609 L 235.904297 15.099609 " transform="matrix(1.333333,0,0,1.333333,0.000000000000028422,0)"/>
</g>
<path style="fill:none;stroke-width:0.8;stroke-linecap:butt;stroke-linejoin:round;stroke:rgb(0%,0%,0%);stroke-opacity:1;stroke-miterlimit:4;" d="M -0.000587463 -0.000571251 L -3.498634 -0.000571251 " transform="matrix(1.333333,0,0,1.333333,54.137502,20.133574)"/>
<path style=" stroke:none;fill-rule:nonzero;fill:rgb(0%,0%,0%);fill-opacity:1;" d="M 29.492188 24.09375 L 31.640625 24.09375 L 31.640625 16.675781 L 29.300781 17.144531 L 29.300781 15.945312 L 31.628906 15.476562 L 32.941406 15.476562 L 32.941406 24.09375 L 35.089844 24.09375 L 35.089844 25.199219 L 29.492188 25.199219 Z M 29.492188 24.09375 "/>
<path style=" stroke:none;fill-rule:nonzero;fill:rgb(0%,0%,0%);fill-opacity:1;" d="M 40.558594 16.34375 C 39.882812 16.34375 39.371094 16.679688 39.03125 17.34375 C 38.691406 18.011719 38.519531 19.011719 38.519531 20.347656 C 38.519531 21.679688 38.691406 22.679688 39.03125 23.347656 C 39.371094 24.015625 39.882812 24.347656 40.558594 24.347656 C 41.238281 24.347656 41.75 24.015625 42.089844 23.347656 C 42.433594 22.679688 42.605469 21.679688 42.605469 20.347656 C 42.605469 19.011719 42.433594 18.011719 42.089844 17.34375 C 41.75 16.679688 41.238281 16.34375 40.558594 16.34375 Z M 40.558594 15.304688 C 41.648438 15.304688 42.480469 15.734375 43.054688 16.597656 C 43.632812 17.457031 43.917969 18.707031 43.917969 20.347656 C 43.917969 21.984375 43.632812 23.234375 43.054688 24.097656 C 42.480469 24.957031 41.648438 25.390625 40.558594 25.390625 C 39.46875 25.390625 38.636719 24.957031 38.0625 24.097656 C 37.488281 23.234375 37.199219 21.984375 37.199219 20.347656 C 37.199219 18.707031 37.488281 17.457031 38.0625 16.597656 C 38.636719 15.734375 39.46875 15.304688 40.558594 15.304688 Z M 40.558594 15.304688 "/>
<path style=" stroke:none;fill-rule:nonzero;fill:rgb(0%,0%,0%);fill-opacity:1;" d="M 9.601562 111.820312 L 9.601562 110.621094 L 19.730469 110.621094 L 19.730469 111.820312 Z M 9.601562 111.820312 "/>
<path style=" stroke:none;fill-rule:nonzero;fill:rgb(0%,0%,0%);fill-opacity:1;" d="M 13.277344 105.292969 C 13.277344 105.933594 13.53125 106.441406 14.03125 106.8125 C 14.53125 107.1875 15.21875 107.375 16.089844 107.375 C 16.964844 107.375 17.652344 107.1875 18.152344 106.820312 C 18.652344 106.445312 18.902344 105.9375 18.902344 105.292969 C 18.902344 104.652344 18.652344 104.148438 18.148438 103.773438 C 17.644531 103.402344 16.960938 103.214844 16.089844 103.214844 C 15.226562 103.214844 14.542969 103.402344 14.039062 103.773438 C 13.53125 104.148438 13.277344 104.652344 13.277344 105.292969 Z M 12.265625 105.292969 C 12.265625 104.25 12.601562 103.433594 13.28125 102.835938 C 13.957031 102.242188 14.894531 101.945312 16.089844 101.945312 C 17.285156 101.945312 18.222656 102.242188 18.902344 102.835938 C 19.582031 103.433594 19.921875 104.25 19.921875 105.292969 C 19.921875 106.335938 19.582031 107.15625 18.902344 107.75 C 18.222656 108.339844 17.285156 108.636719 16.089844 108.636719 C 14.894531 108.636719 13.957031 108.339844 13.28125 107.75 C 12.601562 107.15625 12.265625 106.335938 12.265625 105.292969 Z M 12.265625 105.292969 "/>
<path style=" stroke:none;fill-rule:nonzero;fill:rgb(0%,0%,0%);fill-opacity:1;" d="M 12.652344 95.3125 L 13.789062 95.3125 C 13.613281 95.648438 13.484375 96 13.398438 96.363281 C 13.308594 96.730469 13.265625 97.105469 13.265625 97.5 C 13.265625 98.09375 13.359375 98.539062 13.539062 98.835938 C 13.722656 99.132812 13.996094 99.28125 14.359375 99.28125 C 14.636719 99.28125 14.855469 99.175781 15.015625 98.964844 C 15.171875 98.75 15.324219 98.324219 15.464844 97.679688 L 15.558594 97.269531 C 15.742188 96.417969 15.996094 95.816406 16.328125 95.457031 C 16.660156 95.097656 17.125 94.917969 17.71875 94.917969 C 18.398438 94.917969 18.933594 95.1875 19.328125 95.722656 C 19.722656 96.257812 19.921875 96.996094 19.921875 97.933594 C 19.921875 98.324219 19.882812 98.730469 19.804688 99.15625 C 19.730469 99.578125 19.617188 100.023438 19.464844 100.492188 L 18.226562 100.492188 C 18.457031 100.050781 18.628906 99.613281 18.746094 99.183594 C 18.859375 98.753906 18.917969 98.328125 18.917969 97.90625 C 18.917969 97.34375 18.820312 96.910156 18.628906 96.605469 C 18.433594 96.300781 18.160156 96.152344 17.808594 96.152344 C 17.484375 96.152344 17.234375 96.261719 17.0625 96.480469 C 16.890625 96.699219 16.722656 97.179688 16.558594 97.921875 L 16.460938 98.339844 C 16.308594 99.078125 16.066406 99.617188 15.742188 99.945312 C 15.421875 100.277344 14.976562 100.441406 14.414062 100.441406 C 13.726562 100.441406 13.195312 100.195312 12.824219 99.710938 C 12.453125 99.226562 12.265625 98.535156 12.265625 97.640625 C 12.265625 97.199219 12.296875 96.78125 12.363281 96.390625 C 12.425781 96 12.523438 95.640625 12.652344 95.3125 Z M 12.652344 95.3125 "/>
<path style=" stroke:none;fill-rule:nonzero;fill:rgb(0%,0%,0%);fill-opacity:1;" d="M 12.652344 88.363281 L 13.789062 88.363281 C 13.613281 88.703125 13.484375 89.054688 13.398438 89.417969 C 13.308594 89.78125 13.265625 90.160156 13.265625 90.550781 C 13.265625 91.144531 13.359375 91.59375 13.539062 91.890625 C 13.722656 92.1875 13.996094 92.335938 14.359375 92.335938 C 14.636719 92.335938 14.855469 92.230469 15.015625 92.015625 C 15.171875 91.804688 15.324219 91.375 15.464844 90.734375 L 15.558594 90.324219 C 15.742188 89.472656 15.996094 88.867188 16.328125 88.511719 C 16.660156 88.152344 17.125 87.972656 17.71875 87.972656 C 18.398438 87.972656 18.933594 88.242188 19.328125 88.777344 C 19.722656 89.3125 19.921875 90.050781 19.921875 90.988281 C 19.921875 91.378906 19.882812 91.785156 19.804688 92.207031 C 19.730469 92.632812 19.617188 93.078125 19.464844 93.546875 L 18.226562 93.546875 C 18.457031 93.101562 18.628906 92.667969 18.746094 92.238281 C 18.859375 91.808594 18.917969 91.382812 18.917969 90.960938 C 18.917969 90.394531 18.820312 89.964844 18.628906 89.660156 C 18.433594 89.355469 18.160156 89.203125 17.808594 89.203125 C 17.484375 89.203125 17.234375 89.3125 17.0625 89.53125 C 16.890625 89.75 16.722656 90.230469 16.558594 90.976562 L 16.460938 91.390625 C 16.308594 92.132812 16.066406 92.667969 15.742188 93 C 15.421875 93.328125 14.976562 93.492188 14.414062 93.492188 C 13.726562 93.492188 13.195312 93.25 12.824219 92.765625 C 12.453125 92.277344 12.265625 91.589844 12.265625 90.695312 C 12.265625 90.25 12.296875 89.835938 12.363281 89.445312 C 12.425781 89.054688 12.523438 88.695312 12.652344 88.363281 Z M 12.652344 88.363281 "/>
<g clip-path="url(#clip11)" clip-rule="nonzero">
<path style="fill:none;stroke-width:1.5;stroke-linecap:square;stroke-linejoin:round;stroke:rgb(12.156863%,46.666667%,70.588237%);stroke-opacity:1;stroke-miterlimit:4;" d="M 40.602539 13.376953 L 44.589844 24.225586 L 48.574219 30.805664 L 52.561523 38.317383 L 56.545898 44.516602 L 60.530273 48.9375 L 64.517578 52.485352 L 68.501953 54.779297 L 72.489258 56.364258 L 76.473633 58.040039 L 80.460937 59.355469 L 84.445312 60.442383 L 88.432617 61.379883 L 92.416992 62.229492 L 96.404297 63.064453 L 100.388672 63.814453 L 104.375977 64.564453 L 108.360352 65.264648 L 112.344727 65.953125 L 116.332031 66.527344 L 120.316406 67.195312 L 124.303711 67.801758 L 128.288086 68.373047 L 132.275391 68.874023 L 136.259766 69.328125 L 140.24707 69.706055 L 144.231445 70.092773 L 148.21875 70.458984 L 152.203125 70.842773 L 156.1875 71.179688 L 160.174805 71.452148 L 164.15918 71.712891 L 168.146484 71.964844 L 172.130859 72.213867 L 176.118164 72.457031 L 180.102539 72.65332 L 184.089844 72.884766 L 188.074219 73.104492 L 192.061523 73.271484 L 196.045898 73.535156 L 200.030273 73.746094 L 204.017578 73.939453 L 208.001953 74.091797 L 211.989258 74.285156 L 215.973633 74.458008 L 219.960937 74.639648 L 223.945312 74.783203 L 227.932617 74.935547 L 231.916992 75.082031 L 235.904297 75.225586 " transform="matrix(1.333333,0,0,1.333333,0.000000000000028422,0)"/>
</g>
<g clip-path="url(#clip12)" clip-rule="nonzero">
<path style="fill:none;stroke-width:1.5;stroke-linecap:butt;stroke-linejoin:round;stroke:rgb(74.901962%,0%,74.901962%);stroke-opacity:1;stroke-dasharray:5.55,2.4;stroke-miterlimit:4;" d="M 40.602539 136.921875 L 44.589844 133.148438 L 48.574219 126.506836 L 52.561523 127.775391 L 56.545898 129.416016 L 60.530273 130.675781 L 64.517578 131.613281 L 68.501953 132.178711 L 72.489258 132.74707 L 76.473633 132.899414 L 80.460937 133.163086 L 84.445312 133.473633 L 88.432617 133.725586 L 92.416992 133.954102 L 96.404297 134.167969 L 100.388672 134.367188 L 104.375977 134.519531 L 112.344727 134.794922 L 116.332031 134.926758 L 120.316406 135.038086 L 124.303711 135.137695 L 128.288086 135.228516 L 132.275391 135.316406 L 136.259766 135.398438 L 140.24707 135.477539 L 144.231445 135.539062 L 148.21875 135.597656 L 152.203125 135.65625 L 156.1875 135.711914 L 160.174805 135.764648 L 164.15918 135.811523 L 168.146484 135.858398 L 172.130859 135.902344 L 176.118164 135.949219 L 180.102539 135.990234 L 184.089844 136.022461 L 188.074219 136.057617 L 192.061523 136.092773 L 196.045898 136.12207 L 200.030273 136.148438 L 204.017578 136.177734 L 208.001953 136.204102 L 211.989258 136.230469 L 215.973633 136.250977 L 219.960937 136.268555 L 223.945312 136.291992 L 227.932617 136.3125 L 231.916992 136.321289 L 235.904297 136.335938 " transform="matrix(1.333333,0,0,1.333333,0.000000000000028422,0)"/>
</g>
<path style="fill:none;stroke-width:0.8;stroke-linecap:square;stroke-linejoin:miter;stroke:rgb(0%,0%,0%);stroke-opacity:1;stroke-miterlimit:4;" d="M 40.602539 143.100586 L 40.602539 7.201172 " transform="matrix(1.333333,0,0,1.333333,0.000000000000028422,0)"/>
<path style="fill:none;stroke-width:0.8;stroke-linecap:square;stroke-linejoin:miter;stroke:rgb(0%,0%,0%);stroke-opacity:1;stroke-miterlimit:4;" d="M 235.904297 143.100586 L 235.904297 7.201172 " transform="matrix(1.333333,0,0,1.333333,0.000000000000028422,0)"/>
<path style="fill:none;stroke-width:0.8;stroke-linecap:square;stroke-linejoin:miter;stroke:rgb(0%,0%,0%);stroke-opacity:1;stroke-miterlimit:4;" d="M 40.602539 143.100586 L 235.904297 143.100586 " transform="matrix(1.333333,0,0,1.333333,0.000000000000028422,0)"/>
<path style="fill:none;stroke-width:0.8;stroke-linecap:square;stroke-linejoin:miter;stroke:rgb(0%,0%,0%);stroke-opacity:1;stroke-miterlimit:4;" d="M 40.602539 7.201172 L 235.904297 7.201172 " transform="matrix(1.333333,0,0,1.333333,0.000000000000028422,0)"/>
<use xlink:href="#surface5" mask="url(#mask0)"/>
<path style="fill:none;stroke-width:1.5;stroke-linecap:square;stroke-linejoin:round;stroke:rgb(12.156863%,46.666667%,70.588237%);stroke-opacity:1;stroke-miterlimit:4;" d="M 176.642578 20.299805 L 196.643555 20.299805 " transform="matrix(1.333333,0,0,1.333333,0.000000000000028422,0)"/>
<path style=" stroke:none;fill-rule:nonzero;fill:rgb(0%,0%,0%);fill-opacity:1;" d="M 279.792969 25.839844 C 280.089844 25.300781 280.449219 24.902344 280.867188 24.648438 C 281.285156 24.390625 281.773438 24.265625 282.335938 24.265625 C 283.097656 24.265625 283.683594 24.53125 284.097656 25.0625 C 284.507812 25.59375 284.714844 26.347656 284.714844 27.328125 L 284.714844 31.730469 L 283.511719 31.730469 L 283.511719 27.367188 C 283.511719 26.671875 283.386719 26.152344 283.136719 25.816406 C 282.890625 25.476562 282.511719 25.304688 282.007812 25.304688 C 281.386719 25.304688 280.894531 25.511719 280.535156 25.925781 C 280.171875 26.335938 279.992188 26.898438 279.992188 27.609375 L 279.992188 31.730469 L 278.789062 31.730469 L 278.789062 27.367188 C 278.789062 26.664062 278.664062 26.148438 278.417969 25.808594 C 278.171875 25.472656 277.789062 25.304688 277.273438 25.304688 C 276.660156 25.304688 276.171875 25.511719 275.8125 25.925781 C 275.453125 26.339844 275.273438 26.902344 275.273438 27.609375 L 275.273438 31.730469 L 274.070312 31.730469 L 274.070312 24.441406 L 275.273438 24.441406 L 275.273438 25.574219 C 275.546875 25.125 275.875 24.796875 276.257812 24.582031 C 276.636719 24.371094 277.089844 24.265625 277.617188 24.265625 C 278.148438 24.265625 278.597656 24.398438 278.96875 24.667969 C 279.339844 24.9375 279.613281 25.328125 279.792969 25.839844 Z M 279.792969 25.839844 "/>
<path style=" stroke:none;fill-rule:nonzero;fill:rgb(0%,0%,0%);fill-opacity:1;" d="M 287.101562 21.601562 L 288.300781 21.601562 L 288.300781 31.730469 L 287.101562 31.730469 Z M 287.101562 21.601562 "/>
<path style=" stroke:none;fill-rule:nonzero;fill:rgb(0%,0%,0%);fill-opacity:1;" d="M 296.484375 25.839844 C 296.785156 25.300781 297.144531 24.902344 297.558594 24.648438 C 297.976562 24.390625 298.464844 24.265625 299.03125 24.265625 C 299.789062 24.265625 300.375 24.53125 300.789062 25.0625 C 301.199219 25.59375 301.40625 26.347656 301.40625 27.328125 L 301.40625 31.730469 L 300.203125 31.730469 L 300.203125 27.367188 C 300.203125 26.671875 300.078125 26.152344 299.832031 25.816406 C 299.582031 25.476562 299.207031 25.304688 298.699219 25.304688 C 298.078125 25.304688 297.585938 25.511719 297.226562 25.925781 C 296.867188 26.335938 296.6875 26.898438 296.6875 27.609375 L 296.6875 31.730469 L 295.480469 31.730469 L 295.480469 27.367188 C 295.480469 26.664062 295.359375 26.148438 295.113281 25.808594 C 294.863281 25.472656 294.480469 25.304688 293.964844 25.304688 C 293.351562 25.304688 292.867188 25.511719 292.503906 25.925781 C 292.144531 26.339844 291.964844 26.902344 291.964844 27.609375 L 291.964844 31.730469 L 290.761719 31.730469 L 290.761719 24.441406 L 291.964844 24.441406 L 291.964844 25.574219 C 292.238281 25.125 292.566406 24.796875 292.949219 24.582031 C 293.332031 24.371094 293.785156 24.265625 294.308594 24.265625 C 294.839844 24.265625 295.289062 24.398438 295.660156 24.667969 C 296.03125 24.9375 296.304688 25.328125 296.484375 25.839844 Z M 296.484375 25.839844 "/>
<path style="fill:none;stroke-width:1.5;stroke-linecap:butt;stroke-linejoin:round;stroke:rgb(74.901962%,0%,74.901962%);stroke-opacity:1;stroke-dasharray:5.55,2.4;stroke-miterlimit:4;" d="M 176.642578 34.977539 L 196.643555 34.977539 " transform="matrix(1.333333,0,0,1.333333,0.000000000000028422,0)"/>
<path style=" stroke:none;fill-rule:nonzero;fill:rgb(0%,0%,0%);fill-opacity:1;" d="M 280.175781 46.898438 L 280.175781 51.300781 L 278.980469 51.300781 L 278.980469 46.941406 C 278.980469 46.25 278.84375 45.734375 278.574219 45.390625 C 278.304688 45.046875 277.902344 44.878906 277.363281 44.878906 C 276.71875 44.878906 276.207031 45.082031 275.832031 45.496094 C 275.460938 45.90625 275.273438 46.46875 275.273438 47.179688 L 275.273438 51.300781 L 274.070312 51.300781 L 274.070312 44.011719 L 275.273438 44.011719 L 275.273438 45.144531 C 275.558594 44.703125 275.898438 44.378906 276.285156 44.160156 C 276.675781 43.945312 277.121094 43.835938 277.632812 43.835938 C 278.46875 43.835938 279.101562 44.09375 279.53125 44.613281 C 279.960938 45.128906 280.175781 45.894531 280.175781 46.898438 Z M 280.175781 46.898438 "/>
<path style=" stroke:none;fill-rule:nonzero;fill:rgb(0%,0%,0%);fill-opacity:1;" d="M 287.214844 44.226562 L 287.214844 45.359375 C 286.875 45.183594 286.523438 45.054688 286.160156 44.96875 C 285.796875 44.882812 285.417969 44.835938 285.027344 44.835938 C 284.429688 44.835938 283.984375 44.929688 283.6875 45.109375 C 283.390625 45.292969 283.242188 45.566406 283.242188 45.929688 C 283.242188 46.210938 283.347656 46.425781 283.5625 46.585938 C 283.773438 46.742188 284.203125 46.894531 284.84375 47.039062 L 285.253906 47.128906 C 286.105469 47.3125 286.707031 47.566406 287.066406 47.898438 C 287.425781 48.230469 287.605469 48.695312 287.605469 49.289062 C 287.605469 49.96875 287.335938 50.503906 286.800781 50.898438 C 286.265625 51.292969 285.527344 51.492188 284.589844 51.492188 C 284.199219 51.492188 283.792969 51.453125 283.371094 51.378906 C 282.945312 51.300781 282.5 51.1875 282.03125 51.035156 L 282.03125 49.796875 C 282.476562 50.027344 282.910156 50.203125 283.339844 50.316406 C 283.769531 50.429688 284.195312 50.488281 284.617188 50.488281 C 285.179688 50.488281 285.613281 50.390625 285.917969 50.199219 C 286.222656 50.003906 286.375 49.734375 286.375 49.382812 C 286.375 49.054688 286.265625 48.808594 286.042969 48.632812 C 285.828125 48.460938 285.34375 48.292969 284.601562 48.132812 L 284.1875 48.035156 C 283.445312 47.878906 282.90625 47.636719 282.578125 47.316406 C 282.25 46.992188 282.082031 46.546875 282.082031 45.984375 C 282.082031 45.296875 282.328125 44.769531 282.8125 44.394531 C 283.300781 44.023438 283.988281 43.835938 284.882812 43.835938 C 285.324219 43.835938 285.742188 43.867188 286.132812 43.933594 C 286.523438 43.996094 286.882812 44.09375 287.214844 44.226562 Z M 287.214844 44.226562 "/>
<path style=" stroke:none;fill-rule:nonzero;fill:rgb(0%,0%,0%);fill-opacity:1;" d="M 290.671875 50.207031 L 290.671875 54.074219 L 289.464844 54.074219 L 289.464844 44.011719 L 290.671875 44.011719 L 290.671875 45.117188 C 290.921875 44.683594 291.242188 44.363281 291.625 44.152344 C 292.007812 43.941406 292.46875 43.835938 293 43.835938 C 293.886719 43.835938 294.605469 44.1875 295.160156 44.890625 C 295.714844 45.59375 295.992188 46.515625 295.992188 47.664062 C 295.992188 48.808594 295.714844 49.734375 295.160156 50.4375 C 294.605469 51.140625 293.886719 51.492188 293 51.492188 C 292.46875 51.492188 292.007812 51.386719 291.625 51.175781 C 291.242188 50.964844 290.921875 50.640625 290.671875 50.207031 Z M 294.746094 47.664062 C 294.746094 46.78125 294.566406 46.089844 294.203125 45.589844 C 293.839844 45.089844 293.34375 44.835938 292.710938 44.835938 C 292.074219 44.835938 291.578125 45.089844 291.214844 45.589844 C 290.851562 46.089844 290.671875 46.78125 290.671875 47.664062 C 290.671875 48.542969 290.851562 49.234375 291.214844 49.734375 C 291.578125 50.238281 292.074219 50.488281 292.710938 50.488281 C 293.34375 50.488281 293.839844 50.238281 294.203125 49.734375 C 294.566406 49.234375 294.746094 48.542969 294.746094 47.664062 Z M 294.746094 47.664062 "/>
</g>
</svg>
