<?xml version="1.0" encoding="UTF-8"?>
<svg xmlns="http://www.w3.org/2000/svg" xmlns:xlink="http://www.w3.org/1999/xlink" width="336.862508" height="240.875" viewBox="0 0 336.862508 240.875" version="1.1">
<defs>
<clipPath id="clip1">
  <path d="M 101 9.601562 L 103 9.601562 L 103 190.800781 L 101 190.800781 Z M 101 9.601562 "/>
</clipPath>
<clipPath id="clip2">
  <path d="M 154 9.601562 L 156 9.601562 L 156 190.800781 L 154 190.800781 Z M 154 9.601562 "/>
</clipPath>
<clipPath id="clip3">
  <path d="M 207 9.601562 L 210 9.601562 L 210 190.800781 L 207 190.800781 Z M 207 9.601562 "/>
</clipPath>
<clipPath id="clip4">
  <path d="M 260 9.601562 L 263 9.601562 L 263 190.800781 L 260 190.800781 Z M 260 9.601562 "/>
</clipPath>
<clipPath id="clip5">
  <path d="M 313 9.601562 L 314.539062 9.601562 L 314.539062 190.800781 L 313 190.800781 Z M 313 9.601562 "/>
</clipPath>
<clipPath id="clip6">
  <path d="M 54.136719 142 L 314.539062 142 L 314.539062 144 L 54.136719 144 Z M 54.136719 142 "/>
</clipPath>
<clipPath id="clip7">
  <path d="M 54.136719 92 L 314.539062 92 L 314.539062 94 L 54.136719 94 Z M 54.136719 92 "/>
</clipPath>
<clipPath id="clip8">
  <path d="M 54.136719 42 L 314.539062 42 L 314.539062 44 L 54.136719 44 Z M 54.136719 42 "/>
</clipPath>
<clipPath id="clip9">
  <path d="M 54.136719 16 L 314.539062 16 L 314.539062 184 L 54.136719 184 Z M 54.136719 16 "/>
</clipPath>
<filter id="alpha" filterUnits="objectBoundingBox" x="0%" y="0%" width="100%" height="100%">
  <feColorMatrix type="matrix" in="SourceGraphic" values="0 0 0 0 1 0 0 0 0 1 0 0 0 0 1 0 0 0 1 0"/>
</filter>
<mask id="mask0">
  <g filter="url(#alpha)">
<rect x="0" y="0" width="336.862508" height="240.875" style="fill:rgb(0%,0%,0%);fill-opacity:0.8;stroke:none;"/>
  </g>
</mask>
<clipPath id="clip10">
  <rect x="0" y="0" width="337" height="241"/>
</clipPath>
<g id="surface5" clip-path="url(#clip10)">
<path style="fill-rule:nonzero;fill:rgb(100%,100%,100%);fill-opacity:1;stroke-width:1;stroke-linecap:butt;stroke-linejoin:miter;stroke:rgb(80.000001%,80.000001%,80.000001%);stroke-opacity:1;stroke-miterlimit:4;" d="M 173.62793 29.876953 L 228.902344 29.876953 C 230.235352 29.876953 230.90332 29.211914 230.90332 27.878906 L 230.90332 14.200195 C 230.90332 12.867188 230.235352 12.199219 228.902344 12.199219 L 173.62793 12.199219 C 172.294922 12.199219 171.626953 12.867188 171.626953 14.200195 L 171.626953 27.878906 C 171.626953 29.211914 172.294922 29.876953 173.62793 29.876953 Z M 173.62793 29.876953 " transform="matrix(1.333333,0,0,1.333333,0,0)"/>
</g>
</defs>
<g id="surface1">
<path style=" stroke:none;fill-rule:nonzero;fill:rgb(100%,100%,100%);fill-opacity:1;" d="M 54.136719 190.800781 L 314.539062 190.800781 L 314.539062 9.601562 L 54.136719 9.601562 Z M 54.136719 190.800781 "/>
<g clip-path="url(#clip1)" clip-rule="nonzero">
<path style="fill:none;stroke-width:0.8;stroke-linecap:square;stroke-linejoin:round;stroke:rgb(69.01961%,69.01961%,69.01961%);stroke-opacity:1;stroke-miterlimit:4;" d="M 76.473633 143.100586 L 76.473633 7.201172 " transform="matrix(1.333333,0,0,1.333333,0,0)"/>
</g>
<path style="fill:none;stroke-width:0.8;stroke-linecap:butt;stroke-linejoin:round;stroke:rgb(0%,0%,0%);stroke-opacity:1;stroke-miterlimit:4;" d="M -0.000923157 0.000579834 L -0.000923157 3.498627 " transform="matrix(1.333333,0,0,1.333333,101.966075,190.800008)"/>
<path style=" stroke:none;fill-rule:nonzero;fill:rgb(0%,0%,0%);fill-opacity:1;" d="M 90.894531 209.160156 L 93.042969 209.160156 L 93.042969 201.742188 L 90.707031 202.210938 L 90.707031 201.011719 L 93.03125 200.542969 L 94.34375 200.542969 L 94.34375 209.160156 L 96.492188 209.160156 L 96.492188 210.265625 L 90.894531 210.265625 Z M 90.894531 209.160156 "/>
<path style=" stroke:none;fill-rule:nonzero;fill:rgb(0%,0%,0%);fill-opacity:1;" d="M 101.960938 201.410156 C 101.285156 201.410156 100.777344 201.742188 100.433594 202.410156 C 100.09375 203.074219 99.925781 204.078125 99.925781 205.414062 C 99.925781 206.746094 100.09375 207.746094 100.433594 208.414062 C 100.777344 209.078125 101.285156 209.414062 101.960938 209.414062 C 102.644531 209.414062 103.15625 209.078125 103.496094 208.414062 C 103.835938 207.746094 104.007812 206.746094 104.007812 205.414062 C 104.007812 204.078125 103.835938 203.074219 103.496094 202.410156 C 103.15625 201.742188 102.644531 201.410156 101.960938 201.410156 Z M 101.960938 200.367188 C 103.050781 200.367188 103.882812 200.800781 104.460938 201.664062 C 105.035156 202.523438 105.320312 203.773438 105.320312 205.414062 C 105.320312 207.050781 105.035156 208.300781 104.460938 209.164062 C 103.882812 210.023438 103.050781 210.453125 101.960938 210.453125 C 100.871094 210.453125 100.039062 210.023438 99.464844 209.164062 C 98.890625 208.300781 98.601562 207.050781 98.601562 205.414062 C 98.601562 203.773438 98.890625 202.523438 99.464844 201.664062 C 100.039062 200.800781 100.871094 200.367188 101.960938 200.367188 Z M 101.960938 200.367188 "/>
<path style=" stroke:none;fill-rule:nonzero;fill:rgb(0%,0%,0%);fill-opacity:1;" d="M 110.445312 201.410156 C 109.769531 201.410156 109.257812 201.742188 108.917969 202.410156 C 108.578125 203.074219 108.40625 204.078125 108.40625 205.414062 C 108.40625 206.746094 108.578125 207.746094 108.917969 208.414062 C 109.257812 209.078125 109.769531 209.414062 110.445312 209.414062 C 111.125 209.414062 111.636719 209.078125 111.976562 208.414062 C 112.320312 207.746094 112.492188 206.746094 112.492188 205.414062 C 112.492188 204.078125 112.320312 203.074219 111.976562 202.410156 C 111.636719 201.742188 111.125 201.410156 110.445312 201.410156 Z M 110.445312 200.367188 C 111.535156 200.367188 112.367188 200.800781 112.941406 201.664062 C 113.519531 202.523438 113.804688 203.773438 113.804688 205.414062 C 113.804688 207.050781 113.519531 208.300781 112.941406 209.164062 C 112.367188 210.023438 111.535156 210.453125 110.445312 210.453125 C 109.355469 210.453125 108.523438 210.023438 107.949219 209.164062 C 107.375 208.300781 107.085938 207.050781 107.085938 205.414062 C 107.085938 203.773438 107.375 202.523438 107.949219 201.664062 C 108.523438 200.800781 109.355469 200.367188 110.445312 200.367188 Z M 110.445312 200.367188 "/>
<g clip-path="url(#clip2)" clip-rule="nonzero">
<path style="fill:none;stroke-width:0.8;stroke-linecap:square;stroke-linejoin:round;stroke:rgb(69.01961%,69.01961%,69.01961%);stroke-opacity:1;stroke-miterlimit:4;" d="M 116.332031 143.100586 L 116.332031 7.201172 " transform="matrix(1.333333,0,0,1.333333,0,0)"/>
</g>
<path style="fill:none;stroke-width:0.8;stroke-linecap:butt;stroke-linejoin:round;stroke:rgb(0%,0%,0%);stroke-opacity:1;stroke-miterlimit:4;" d="M 0.000335693 0.000579834 L 0.000335693 3.498627 " transform="matrix(1.333333,0,0,1.333333,155.108927,190.800008)"/>
<path style=" stroke:none;fill-rule:nonzero;fill:rgb(0%,0%,0%);fill-opacity:1;" d="M 144.941406 209.160156 L 149.53125 209.160156 L 149.53125 210.265625 L 143.359375 210.265625 L 143.359375 209.160156 C 143.859375 208.640625 144.539062 207.949219 145.402344 207.078125 C 146.261719 206.207031 146.804688 205.648438 147.027344 205.394531 C 147.445312 204.921875 147.738281 204.523438 147.90625 204.195312 C 148.074219 203.867188 148.160156 203.542969 148.160156 203.226562 C 148.160156 202.710938 147.976562 202.289062 147.613281 201.964844 C 147.253906 201.636719 146.78125 201.476562 146.199219 201.476562 C 145.785156 201.476562 145.351562 201.546875 144.890625 201.691406 C 144.433594 201.832031 143.945312 202.050781 143.425781 202.339844 L 143.425781 201.011719 C 143.953125 200.800781 144.449219 200.640625 144.910156 200.53125 C 145.371094 200.421875 145.792969 200.367188 146.171875 200.367188 C 147.179688 200.367188 147.984375 200.621094 148.582031 201.125 C 149.179688 201.628906 149.480469 202.300781 149.480469 203.140625 C 149.480469 203.542969 149.40625 203.921875 149.253906 204.277344 C 149.105469 204.636719 148.832031 205.058594 148.4375 205.542969 C 148.328125 205.671875 147.984375 206.035156 147.402344 206.636719 C 146.820312 207.238281 146.003906 208.078125 144.941406 209.160156 Z M 144.941406 209.160156 "/>
<path style=" stroke:none;fill-rule:nonzero;fill:rgb(0%,0%,0%);fill-opacity:1;" d="M 155.105469 201.410156 C 154.429688 201.410156 153.917969 201.742188 153.578125 202.410156 C 153.238281 203.074219 153.066406 204.078125 153.066406 205.414062 C 153.066406 206.746094 153.238281 207.746094 153.578125 208.414062 C 153.917969 209.078125 154.429688 209.414062 155.105469 209.414062 C 155.785156 209.414062 156.296875 209.078125 156.636719 208.414062 C 156.980469 207.746094 157.148438 206.746094 157.148438 205.414062 C 157.148438 204.078125 156.980469 203.074219 156.636719 202.410156 C 156.296875 201.742188 155.785156 201.410156 155.105469 201.410156 Z M 155.105469 200.367188 C 156.195312 200.367188 157.027344 200.800781 157.601562 201.664062 C 158.175781 202.523438 158.464844 203.773438 158.464844 205.414062 C 158.464844 207.050781 158.175781 208.300781 157.601562 209.164062 C 157.027344 210.023438 156.195312 210.453125 155.105469 210.453125 C 154.015625 210.453125 153.183594 210.023438 152.609375 209.164062 C 152.035156 208.300781 151.746094 207.050781 151.746094 205.414062 C 151.746094 203.773438 152.035156 202.523438 152.609375 201.664062 C 153.183594 200.800781 154.015625 200.367188 155.105469 200.367188 Z M 155.105469 200.367188 "/>
<path style=" stroke:none;fill-rule:nonzero;fill:rgb(0%,0%,0%);fill-opacity:1;" d="M 163.585938 201.410156 C 162.910156 201.410156 162.402344 201.742188 162.058594 202.410156 C 161.71875 203.074219 161.550781 204.078125 161.550781 205.414062 C 161.550781 206.746094 161.71875 207.746094 162.058594 208.414062 C 162.402344 209.078125 162.910156 209.414062 163.585938 209.414062 C 164.269531 209.414062 164.78125 209.078125 165.121094 208.414062 C 165.460938 207.746094 165.632812 206.746094 165.632812 205.414062 C 165.632812 204.078125 165.460938 203.074219 165.121094 202.410156 C 164.78125 201.742188 164.269531 201.410156 163.585938 201.410156 Z M 163.585938 200.367188 C 164.679688 200.367188 165.511719 200.800781 166.085938 201.664062 C 166.660156 202.523438 166.949219 203.773438 166.949219 205.414062 C 166.949219 207.050781 166.660156 208.300781 166.085938 209.164062 C 165.511719 210.023438 164.679688 210.453125 163.585938 210.453125 C 162.5 210.453125 161.667969 210.023438 161.089844 209.164062 C 160.515625 208.300781 160.230469 207.050781 160.230469 205.414062 C 160.230469 203.773438 160.515625 202.523438 161.089844 201.664062 C 161.667969 200.800781 162.5 200.367188 163.585938 200.367188 Z M 163.585938 200.367188 "/>
<g clip-path="url(#clip3)" clip-rule="nonzero">
<path style="fill:none;stroke-width:0.8;stroke-linecap:square;stroke-linejoin:round;stroke:rgb(69.01961%,69.01961%,69.01961%);stroke-opacity:1;stroke-miterlimit:4;" d="M 156.1875 143.100586 L 156.1875 7.201172 " transform="matrix(1.333333,0,0,1.333333,0,0)"/>
</g>
<path style="fill:none;stroke-width:0.8;stroke-linecap:butt;stroke-linejoin:round;stroke:rgb(0%,0%,0%);stroke-opacity:1;stroke-miterlimit:4;" d="M -0.00134277 0.000579834 L -0.00134277 3.498627 " transform="matrix(1.333333,0,0,1.333333,208.25179,190.800008)"/>
<path style=" stroke:none;fill-rule:nonzero;fill:rgb(0%,0%,0%);fill-opacity:1;" d="M 200.9375 205.023438 C 201.566406 205.15625 202.058594 205.4375 202.410156 205.863281 C 202.765625 206.289062 202.941406 206.816406 202.941406 207.441406 C 202.941406 208.398438 202.613281 209.140625 201.953125 209.667969 C 201.292969 210.191406 200.355469 210.453125 199.140625 210.453125 C 198.730469 210.453125 198.3125 210.414062 197.882812 210.332031 C 197.449219 210.253906 197.003906 210.132812 196.542969 209.972656 L 196.542969 208.703125 C 196.90625 208.914062 197.304688 209.074219 197.738281 209.183594 C 198.175781 209.292969 198.628906 209.347656 199.101562 209.347656 C 199.925781 209.347656 200.554688 209.183594 200.984375 208.859375 C 201.417969 208.535156 201.632812 208.058594 201.632812 207.441406 C 201.632812 206.867188 201.433594 206.417969 201.03125 206.097656 C 200.628906 205.773438 200.070312 205.609375 199.355469 205.609375 L 198.222656 205.609375 L 198.222656 204.527344 L 199.40625 204.527344 C 200.054688 204.527344 200.546875 204.398438 200.890625 204.140625 C 201.234375 203.882812 201.40625 203.511719 201.40625 203.023438 C 201.40625 202.527344 201.230469 202.144531 200.875 201.878906 C 200.523438 201.609375 200.015625 201.476562 199.355469 201.476562 C 198.996094 201.476562 198.609375 201.515625 198.195312 201.59375 C 197.78125 201.671875 197.328125 201.792969 196.835938 201.957031 L 196.835938 200.785156 C 197.335938 200.648438 197.804688 200.542969 198.238281 200.472656 C 198.675781 200.402344 199.085938 200.367188 199.472656 200.367188 C 200.472656 200.367188 201.261719 200.597656 201.839844 201.050781 C 202.421875 201.503906 202.714844 202.117188 202.714844 202.886719 C 202.714844 203.425781 202.558594 203.882812 202.25 204.253906 C 201.945312 204.621094 201.503906 204.878906 200.9375 205.023438 Z M 200.9375 205.023438 "/>
<path style=" stroke:none;fill-rule:nonzero;fill:rgb(0%,0%,0%);fill-opacity:1;" d="M 208.246094 201.410156 C 207.570312 201.410156 207.0625 201.742188 206.71875 202.410156 C 206.378906 203.074219 206.210938 204.078125 206.210938 205.414062 C 206.210938 206.746094 206.378906 207.746094 206.71875 208.414062 C 207.0625 209.078125 207.570312 209.414062 208.246094 209.414062 C 208.929688 209.414062 209.441406 209.078125 209.78125 208.414062 C 210.121094 207.746094 210.292969 206.746094 210.292969 205.414062 C 210.292969 204.078125 210.121094 203.074219 209.78125 202.410156 C 209.441406 201.742188 208.929688 201.410156 208.246094 201.410156 Z M 208.246094 200.367188 C 209.335938 200.367188 210.171875 200.800781 210.746094 201.664062 C 211.320312 202.523438 211.609375 203.773438 211.609375 205.414062 C 211.609375 207.050781 211.320312 208.300781 210.746094 209.164062 C 210.171875 210.023438 209.335938 210.453125 208.246094 210.453125 C 207.160156 210.453125 206.328125 210.023438 205.75 209.164062 C 205.175781 208.300781 204.890625 207.050781 204.890625 205.414062 C 204.890625 203.773438 205.175781 202.523438 205.75 201.664062 C 206.328125 200.800781 207.160156 200.367188 208.246094 200.367188 Z M 208.246094 200.367188 "/>
<path style=" stroke:none;fill-rule:nonzero;fill:rgb(0%,0%,0%);fill-opacity:1;" d="M 216.730469 201.410156 C 216.054688 201.410156 215.546875 201.742188 215.203125 202.410156 C 214.863281 203.074219 214.691406 204.078125 214.691406 205.414062 C 214.691406 206.746094 214.863281 207.746094 215.203125 208.414062 C 215.546875 209.078125 216.054688 209.414062 216.730469 209.414062 C 217.414062 209.414062 217.921875 209.078125 218.265625 208.414062 C 218.605469 207.746094 218.777344 206.746094 218.777344 205.414062 C 218.777344 204.078125 218.605469 203.074219 218.265625 202.410156 C 217.921875 201.742188 217.414062 201.410156 216.730469 201.410156 Z M 216.730469 200.367188 C 217.820312 200.367188 218.652344 200.800781 219.226562 201.664062 C 219.804688 202.523438 220.089844 203.773438 220.089844 205.414062 C 220.089844 207.050781 219.804688 208.300781 219.226562 209.164062 C 218.652344 210.023438 217.820312 210.453125 216.730469 210.453125 C 215.640625 210.453125 214.808594 210.023438 214.234375 209.164062 C 213.660156 208.300781 213.371094 207.050781 213.371094 205.414062 C 213.371094 203.773438 213.660156 202.523438 214.234375 201.664062 C 214.808594 200.800781 215.640625 200.367188 216.730469 200.367188 Z M 216.730469 200.367188 "/>
<g clip-path="url(#clip4)" clip-rule="nonzero">
<path style="fill:none;stroke-width:0.8;stroke-linecap:square;stroke-linejoin:round;stroke:rgb(69.01961%,69.01961%,69.01961%);stroke-opacity:1;stroke-miterlimit:4;" d="M 196.045898 143.100586 L 196.045898 7.201172 " transform="matrix(1.333333,0,0,1.333333,0,0)"/>
</g>
<path style="fill:none;stroke-width:0.8;stroke-linecap:butt;stroke-linejoin:round;stroke:rgb(0%,0%,0%);stroke-opacity:1;stroke-miterlimit:4;" d="M -0.0000762939 0.000579834 L -0.0000762939 3.498627 " transform="matrix(1.333333,0,0,1.333333,261.394633,190.800008)"/>
<path style=" stroke:none;fill-rule:nonzero;fill:rgb(0%,0%,0%);fill-opacity:1;" d="M 253.710938 201.691406 L 250.386719 206.878906 L 253.710938 206.878906 Z M 253.363281 200.542969 L 255.015625 200.542969 L 255.015625 206.878906 L 256.40625 206.878906 L 256.40625 207.972656 L 255.015625 207.972656 L 255.015625 210.265625 L 253.710938 210.265625 L 253.710938 207.972656 L 249.320312 207.972656 L 249.320312 206.703125 Z M 253.363281 200.542969 "/>
<path style=" stroke:none;fill-rule:nonzero;fill:rgb(0%,0%,0%);fill-opacity:1;" d="M 261.390625 201.410156 C 260.714844 201.410156 260.203125 201.742188 259.863281 202.410156 C 259.523438 203.074219 259.351562 204.078125 259.351562 205.414062 C 259.351562 206.746094 259.523438 207.746094 259.863281 208.414062 C 260.203125 209.078125 260.714844 209.414062 261.390625 209.414062 C 262.070312 209.414062 262.582031 209.078125 262.921875 208.414062 C 263.265625 207.746094 263.4375 206.746094 263.4375 205.414062 C 263.4375 204.078125 263.265625 203.074219 262.921875 202.410156 C 262.582031 201.742188 262.070312 201.410156 261.390625 201.410156 Z M 261.390625 200.367188 C 262.480469 200.367188 263.3125 200.800781 263.886719 201.664062 C 264.464844 202.523438 264.75 203.773438 264.75 205.414062 C 264.75 207.050781 264.464844 208.300781 263.886719 209.164062 C 263.3125 210.023438 262.480469 210.453125 261.390625 210.453125 C 260.300781 210.453125 259.46875 210.023438 258.894531 209.164062 C 258.320312 208.300781 258.03125 207.050781 258.03125 205.414062 C 258.03125 203.773438 258.320312 202.523438 258.894531 201.664062 C 259.46875 200.800781 260.300781 200.367188 261.390625 200.367188 Z M 261.390625 200.367188 "/>
<path style=" stroke:none;fill-rule:nonzero;fill:rgb(0%,0%,0%);fill-opacity:1;" d="M 269.875 201.410156 C 269.195312 201.410156 268.6875 201.742188 268.347656 202.410156 C 268.007812 203.074219 267.835938 204.078125 267.835938 205.414062 C 267.835938 206.746094 268.007812 207.746094 268.347656 208.414062 C 268.6875 209.078125 269.195312 209.414062 269.875 209.414062 C 270.554688 209.414062 271.066406 209.078125 271.40625 208.414062 C 271.75 207.746094 271.917969 206.746094 271.917969 205.414062 C 271.917969 204.078125 271.75 203.074219 271.40625 202.410156 C 271.066406 201.742188 270.554688 201.410156 269.875 201.410156 Z M 269.875 200.367188 C 270.964844 200.367188 271.796875 200.800781 272.371094 201.664062 C 272.945312 202.523438 273.234375 203.773438 273.234375 205.414062 C 273.234375 207.050781 272.945312 208.300781 272.371094 209.164062 C 271.796875 210.023438 270.964844 210.453125 269.875 210.453125 C 268.785156 210.453125 267.953125 210.023438 267.378906 209.164062 C 266.800781 208.300781 266.515625 207.050781 266.515625 205.414062 C 266.515625 203.773438 266.800781 202.523438 267.378906 201.664062 C 267.953125 200.800781 268.785156 200.367188 269.875 200.367188 Z M 269.875 200.367188 "/>
<g clip-path="url(#clip5)" clip-rule="nonzero">
<path style="fill:none;stroke-width:0.8;stroke-linecap:square;stroke-linejoin:round;stroke:rgb(69.01961%,69.01961%,69.01961%);stroke-opacity:1;stroke-miterlimit:4;" d="M 235.904297 143.100586 L 235.904297 7.201172 " transform="matrix(1.333333,0,0,1.333333,0,0)"/>
</g>
<path style="fill:none;stroke-width:0.8;stroke-linecap:butt;stroke-linejoin:round;stroke:rgb(0%,0%,0%);stroke-opacity:1;stroke-miterlimit:4;" d="M 0.00117493 0.000579834 L 0.00117493 3.498627 " transform="matrix(1.333333,0,0,1.333333,314.537496,190.800008)"/>
<path style=" stroke:none;fill-rule:nonzero;fill:rgb(0%,0%,0%);fill-opacity:1;" d="M 303.253906 200.542969 L 308.414062 200.542969 L 308.414062 201.652344 L 304.457031 201.652344 L 304.457031 204.035156 C 304.648438 203.96875 304.835938 203.917969 305.027344 203.886719 C 305.21875 203.855469 305.410156 203.839844 305.601562 203.839844 C 306.6875 203.839844 307.546875 204.136719 308.179688 204.730469 C 308.8125 205.324219 309.132812 206.128906 309.132812 207.144531 C 309.132812 208.191406 308.804688 209.003906 308.152344 209.585938 C 307.503906 210.164062 306.585938 210.453125 305.398438 210.453125 C 304.992188 210.453125 304.574219 210.417969 304.152344 210.351562 C 303.730469 210.28125 303.292969 210.175781 302.839844 210.039062 L 302.839844 208.714844 C 303.230469 208.925781 303.636719 209.085938 304.050781 209.191406 C 304.46875 209.292969 304.910156 209.347656 305.371094 209.347656 C 306.125 209.347656 306.71875 209.148438 307.15625 208.753906 C 307.59375 208.359375 307.816406 207.824219 307.816406 207.144531 C 307.816406 206.46875 307.59375 205.933594 307.15625 205.539062 C 306.71875 205.144531 306.125 204.945312 305.371094 204.945312 C 305.023438 204.945312 304.671875 204.984375 304.320312 205.0625 C 303.972656 205.140625 303.617188 205.261719 303.253906 205.425781 Z M 303.253906 200.542969 "/>
<path style=" stroke:none;fill-rule:nonzero;fill:rgb(0%,0%,0%);fill-opacity:1;" d="M 314.53125 201.410156 C 313.855469 201.410156 313.347656 201.742188 313.007812 202.410156 C 312.664062 203.074219 312.496094 204.078125 312.496094 205.414062 C 312.496094 206.746094 312.664062 207.746094 313.007812 208.414062 C 313.347656 209.078125 313.855469 209.414062 314.53125 209.414062 C 315.214844 209.414062 315.726562 209.078125 316.066406 208.414062 C 316.40625 207.746094 316.578125 206.746094 316.578125 205.414062 C 316.578125 204.078125 316.40625 203.074219 316.066406 202.410156 C 315.726562 201.742188 315.214844 201.410156 314.53125 201.410156 Z M 314.53125 200.367188 C 315.625 200.367188 316.457031 200.800781 317.03125 201.664062 C 317.605469 202.523438 317.894531 203.773438 317.894531 205.414062 C 317.894531 207.050781 317.605469 208.300781 317.03125 209.164062 C 316.457031 210.023438 315.625 210.453125 314.53125 210.453125 C 313.445312 210.453125 312.613281 210.023438 312.039062 209.164062 C 311.460938 208.300781 311.175781 207.050781 311.175781 205.414062 C 311.175781 203.773438 311.460938 202.523438 312.039062 201.664062 C 312.613281 200.800781 313.445312 200.367188 314.53125 200.367188 Z M 314.53125 200.367188 "/>
<path style=" stroke:none;fill-rule:nonzero;fill:rgb(0%,0%,0%);fill-opacity:1;" d="M 323.015625 201.410156 C 322.339844 201.410156 321.832031 201.742188 321.488281 202.410156 C 321.148438 203.074219 320.980469 204.078125 320.980469 205.414062 C 320.980469 206.746094 321.148438 207.746094 321.488281 208.414062 C 321.832031 209.078125 322.339844 209.414062 323.015625 209.414062 C 323.699219 209.414062 324.210938 209.078125 324.550781 208.414062 C 324.890625 207.746094 325.0625 206.746094 325.0625 205.414062 C 325.0625 204.078125 324.890625 203.074219 324.550781 202.410156 C 324.210938 201.742188 323.699219 201.410156 323.015625 201.410156 Z M 323.015625 200.367188 C 324.105469 200.367188 324.9375 200.800781 325.515625 201.664062 C 326.089844 202.523438 326.375 203.773438 326.375 205.414062 C 326.375 207.050781 326.089844 208.300781 325.515625 209.164062 C 324.9375 210.023438 324.105469 210.453125 323.015625 210.453125 C 321.925781 210.453125 321.09375 210.023438 320.519531 209.164062 C 319.945312 208.300781 319.65625 207.050781 319.65625 205.414062 C 319.65625 203.773438 319.945312 202.523438 320.519531 201.664062 C 321.09375 200.800781 321.925781 200.367188 323.015625 200.367188 Z M 323.015625 200.367188 "/>
<path style=" stroke:none;fill-rule:nonzero;fill:rgb(0%,0%,0%);fill-opacity:1;" d="M 171.527344 224.554688 L 171.527344 225.140625 L 166.019531 225.140625 C 166.070312 225.964844 166.320312 226.59375 166.765625 227.027344 C 167.210938 227.460938 167.828125 227.675781 168.621094 227.675781 C 169.082031 227.675781 169.527344 227.617188 169.960938 227.507812 C 170.390625 227.394531 170.820312 227.222656 171.246094 226.996094 L 171.246094 228.132812 C 170.816406 228.3125 170.375 228.453125 169.925781 228.546875 C 169.472656 228.644531 169.015625 228.691406 168.550781 228.691406 C 167.386719 228.691406 166.464844 228.351562 165.789062 227.675781 C 165.109375 227 164.769531 226.082031 164.769531 224.925781 C 164.769531 223.734375 165.089844 222.789062 165.734375 222.085938 C 166.378906 221.386719 167.25 221.035156 168.34375 221.035156 C 169.324219 221.035156 170.101562 221.351562 170.671875 221.984375 C 171.242188 222.613281 171.527344 223.472656 171.527344 224.554688 Z M 170.328125 224.203125 C 170.320312 223.550781 170.136719 223.027344 169.777344 222.636719 C 169.421875 222.246094 168.945312 222.050781 168.355469 222.050781 C 167.6875 222.050781 167.152344 222.238281 166.753906 222.617188 C 166.351562 222.996094 166.121094 223.527344 166.058594 224.210938 Z M 170.328125 224.203125 "/>
<path style=" stroke:none;fill-rule:nonzero;fill:rgb(0%,0%,0%);fill-opacity:1;" d="M 174.652344 227.410156 L 174.652344 231.273438 L 173.445312 231.273438 L 173.445312 221.210938 L 174.652344 221.210938 L 174.652344 222.316406 C 174.902344 221.882812 175.222656 221.5625 175.605469 221.351562 C 175.988281 221.140625 176.449219 221.035156 176.980469 221.035156 C 177.867188 221.035156 178.585938 221.386719 179.140625 222.089844 C 179.695312 222.792969 179.972656 223.714844 179.972656 224.863281 C 179.972656 226.007812 179.695312 226.933594 179.140625 227.636719 C 178.585938 228.339844 177.867188 228.691406 176.980469 228.691406 C 176.449219 228.691406 175.988281 228.585938 175.605469 228.375 C 175.222656 228.164062 174.902344 227.839844 174.652344 227.410156 Z M 178.726562 224.863281 C 178.726562 223.980469 178.546875 223.289062 178.183594 222.789062 C 177.820312 222.289062 177.324219 222.039062 176.691406 222.039062 C 176.054688 222.039062 175.558594 222.289062 175.195312 222.789062 C 174.832031 223.289062 174.652344 223.980469 174.652344 224.863281 C 174.652344 225.742188 174.832031 226.433594 175.195312 226.933594 C 175.558594 227.4375 176.054688 227.6875 176.691406 227.6875 C 177.324219 227.6875 177.820312 227.4375 178.183594 226.933594 C 178.546875 226.433594 178.726562 225.742188 178.726562 224.863281 Z M 178.726562 224.863281 "/>
<path style=" stroke:none;fill-rule:nonzero;fill:rgb(0%,0%,0%);fill-opacity:1;" d="M 184.78125 222.050781 C 184.140625 222.050781 183.632812 222.300781 183.257812 222.800781 C 182.882812 223.304688 182.699219 223.992188 182.699219 224.863281 C 182.699219 225.734375 182.882812 226.421875 183.253906 226.921875 C 183.625 227.425781 184.136719 227.675781 184.78125 227.675781 C 185.421875 227.675781 185.925781 227.421875 186.296875 226.921875 C 186.671875 226.417969 186.859375 225.730469 186.859375 224.863281 C 186.859375 224 186.671875 223.3125 186.296875 222.808594 C 185.925781 222.304688 185.421875 222.050781 184.78125 222.050781 Z M 184.78125 221.035156 C 185.824219 221.035156 186.640625 221.375 187.234375 222.050781 C 187.832031 222.726562 188.128906 223.664062 188.128906 224.863281 C 188.128906 226.054688 187.832031 226.992188 187.234375 227.671875 C 186.640625 228.351562 185.824219 228.691406 184.78125 228.691406 C 183.734375 228.691406 182.914062 228.351562 182.324219 227.671875 C 181.730469 226.992188 181.433594 226.054688 181.433594 224.863281 C 181.433594 223.664062 181.730469 222.726562 182.324219 222.050781 C 182.914062 221.375 183.734375 221.035156 184.78125 221.035156 Z M 184.78125 221.035156 "/>
<path style=" stroke:none;fill-rule:nonzero;fill:rgb(0%,0%,0%);fill-opacity:1;" d="M 195.363281 221.488281 L 195.363281 222.609375 C 195.023438 222.421875 194.683594 222.28125 194.34375 222.191406 C 194.003906 222.097656 193.660156 222.050781 193.3125 222.050781 C 192.535156 222.050781 191.929688 222.296875 191.5 222.789062 C 191.070312 223.28125 190.855469 223.972656 190.855469 224.863281 C 190.855469 225.753906 191.070312 226.445312 191.5 226.9375 C 191.929688 227.429688 192.535156 227.675781 193.3125 227.675781 C 193.660156 227.675781 194.003906 227.628906 194.34375 227.535156 C 194.683594 227.441406 195.023438 227.300781 195.363281 227.113281 L 195.363281 228.222656 C 195.027344 228.378906 194.679688 228.496094 194.320312 228.574219 C 193.964844 228.652344 193.585938 228.691406 193.179688 228.691406 C 192.082031 228.691406 191.207031 228.347656 190.5625 227.65625 C 189.914062 226.964844 189.59375 226.035156 189.59375 224.863281 C 189.59375 223.671875 189.917969 222.738281 190.570312 222.058594 C 191.226562 221.375 192.121094 221.035156 193.257812 221.035156 C 193.628906 221.035156 193.988281 221.074219 194.339844 221.148438 C 194.691406 221.226562 195.03125 221.339844 195.363281 221.488281 Z M 195.363281 221.488281 "/>
<path style=" stroke:none;fill-rule:nonzero;fill:rgb(0%,0%,0%);fill-opacity:1;" d="M 203.507812 224.101562 L 203.507812 228.503906 L 202.308594 228.503906 L 202.308594 224.140625 C 202.308594 223.449219 202.175781 222.933594 201.90625 222.589844 C 201.636719 222.25 201.230469 222.078125 200.695312 222.078125 C 200.046875 222.078125 199.535156 222.285156 199.164062 222.695312 C 198.789062 223.105469 198.601562 223.667969 198.601562 224.382812 L 198.601562 228.503906 L 197.398438 228.503906 L 197.398438 218.371094 L 198.601562 218.371094 L 198.601562 222.34375 C 198.890625 221.90625 199.226562 221.578125 199.617188 221.359375 C 200.003906 221.144531 200.453125 221.035156 200.960938 221.035156 C 201.796875 221.035156 202.433594 221.292969 202.859375 221.8125 C 203.292969 222.332031 203.507812 223.09375 203.507812 224.101562 Z M 203.507812 224.101562 "/>
<g clip-path="url(#clip6)" clip-rule="nonzero">
<path style="fill:none;stroke-width:0.8;stroke-linecap:square;stroke-linejoin:round;stroke:rgb(69.01961%,69.01961%,69.01961%);stroke-opacity:1;stroke-miterlimit:4;" d="M 40.602539 107.165039 L 235.904297 107.165039 " transform="matrix(1.333333,0,0,1.333333,0,0)"/>
</g>
<path style="fill:none;stroke-width:0.8;stroke-linecap:butt;stroke-linejoin:round;stroke:rgb(0%,0%,0%);stroke-opacity:1;stroke-miterlimit:4;" d="M -0.000587463 0.00125885 L -3.498634 0.00125885 " transform="matrix(1.333333,0,0,1.333333,54.137502,142.88504)"/>
<path style=" stroke:none;fill-rule:nonzero;fill:rgb(0%,0%,0%);fill-opacity:1;" d="M 37.761719 138.230469 L 42.921875 138.230469 L 42.921875 139.339844 L 38.964844 139.339844 L 38.964844 141.71875 C 39.15625 141.652344 39.34375 141.605469 39.535156 141.574219 C 39.726562 141.542969 39.917969 141.527344 40.109375 141.527344 C 41.195312 141.527344 42.054688 141.824219 42.6875 142.417969 C 43.320312 143.011719 43.640625 143.816406 43.640625 144.832031 C 43.640625 145.878906 43.3125 146.691406 42.664062 147.273438 C 42.011719 147.851562 41.09375 148.140625 39.910156 148.140625 C 39.5 148.140625 39.085938 148.105469 38.660156 148.035156 C 38.238281 147.964844 37.800781 147.863281 37.351562 147.722656 L 37.351562 146.402344 C 37.742188 146.613281 38.144531 146.773438 38.558594 146.875 C 38.976562 146.980469 39.417969 147.03125 39.882812 147.03125 C 40.632812 147.03125 41.226562 146.835938 41.664062 146.441406 C 42.101562 146.046875 42.324219 145.507812 42.324219 144.832031 C 42.324219 144.15625 42.101562 143.621094 41.664062 143.226562 C 41.226562 142.828125 40.632812 142.632812 39.882812 142.632812 C 39.53125 142.632812 39.179688 142.671875 38.828125 142.75 C 38.480469 142.828125 38.125 142.949219 37.761719 143.113281 Z M 37.761719 138.230469 "/>
<g clip-path="url(#clip7)" clip-rule="nonzero">
<path style="fill:none;stroke-width:0.8;stroke-linecap:square;stroke-linejoin:round;stroke:rgb(69.01961%,69.01961%,69.01961%);stroke-opacity:1;stroke-miterlimit:4;" d="M 40.602539 69.761719 L 235.904297 69.761719 " transform="matrix(1.333333,0,0,1.333333,0,0)"/>
</g>
<path style="fill:none;stroke-width:0.8;stroke-linecap:butt;stroke-linejoin:round;stroke:rgb(0%,0%,0%);stroke-opacity:1;stroke-miterlimit:4;" d="M -0.000587463 0.000610352 L -3.498634 0.000610352 " transform="matrix(1.333333,0,0,1.333333,54.137502,93.014811)"/>
<path style=" stroke:none;fill-rule:nonzero;fill:rgb(0%,0%,0%);fill-opacity:1;" d="M 29.492188 96.972656 L 31.640625 96.972656 L 31.640625 89.558594 L 29.300781 90.027344 L 29.300781 88.828125 L 31.628906 88.359375 L 32.941406 88.359375 L 32.941406 96.972656 L 35.089844 96.972656 L 35.089844 98.082031 L 29.492188 98.082031 Z M 29.492188 96.972656 "/>
<path style=" stroke:none;fill-rule:nonzero;fill:rgb(0%,0%,0%);fill-opacity:1;" d="M 40.558594 89.226562 C 39.882812 89.226562 39.371094 89.558594 39.03125 90.226562 C 38.691406 90.890625 38.519531 91.894531 38.519531 93.230469 C 38.519531 94.5625 38.691406 95.5625 39.03125 96.226562 C 39.371094 96.894531 39.882812 97.226562 40.558594 97.226562 C 41.238281 97.226562 41.75 96.894531 42.089844 96.226562 C 42.433594 95.5625 42.605469 94.5625 42.605469 93.230469 C 42.605469 91.894531 42.433594 90.890625 42.089844 90.226562 C 41.75 89.558594 41.238281 89.226562 40.558594 89.226562 Z M 40.558594 88.183594 C 41.648438 88.183594 42.480469 88.617188 43.054688 89.476562 C 43.632812 90.339844 43.917969 91.589844 43.917969 93.230469 C 43.917969 94.867188 43.632812 96.117188 43.054688 96.976562 C 42.480469 97.839844 41.648438 98.269531 40.558594 98.269531 C 39.46875 98.269531 38.636719 97.839844 38.0625 96.976562 C 37.488281 96.117188 37.199219 94.867188 37.199219 93.230469 C 37.199219 91.589844 37.488281 90.339844 38.0625 89.476562 C 38.636719 88.617188 39.46875 88.183594 40.558594 88.183594 Z M 40.558594 88.183594 "/>
<g clip-path="url(#clip8)" clip-rule="nonzero">
<path style="fill:none;stroke-width:0.8;stroke-linecap:square;stroke-linejoin:round;stroke:rgb(69.01961%,69.01961%,69.01961%);stroke-opacity:1;stroke-miterlimit:4;" d="M 40.602539 32.358398 L 235.904297 32.358398 " transform="matrix(1.333333,0,0,1.333333,0,0)"/>
</g>
<path style="fill:none;stroke-width:0.8;stroke-linecap:butt;stroke-linejoin:round;stroke:rgb(0%,0%,0%);stroke-opacity:1;stroke-miterlimit:4;" d="M -0.000587463 -0.000038147 L -3.498634 -0.000038147 " transform="matrix(1.333333,0,0,1.333333,54.137502,43.144582)"/>
<path style=" stroke:none;fill-rule:nonzero;fill:rgb(0%,0%,0%);fill-opacity:1;" d="M 29.492188 47.105469 L 31.640625 47.105469 L 31.640625 39.6875 L 29.300781 40.15625 L 29.300781 38.957031 L 31.628906 38.488281 L 32.941406 38.488281 L 32.941406 47.105469 L 35.089844 47.105469 L 35.089844 48.210938 L 29.492188 48.210938 Z M 29.492188 47.105469 "/>
<path style=" stroke:none;fill-rule:nonzero;fill:rgb(0%,0%,0%);fill-opacity:1;" d="M 37.761719 38.488281 L 42.921875 38.488281 L 42.921875 39.597656 L 38.964844 39.597656 L 38.964844 41.980469 C 39.15625 41.914062 39.34375 41.863281 39.535156 41.832031 C 39.726562 41.800781 39.917969 41.785156 40.109375 41.785156 C 41.195312 41.785156 42.054688 42.082031 42.6875 42.675781 C 43.320312 43.269531 43.640625 44.078125 43.640625 45.089844 C 43.640625 46.136719 43.3125 46.949219 42.664062 47.53125 C 42.011719 48.109375 41.09375 48.398438 39.90625 48.398438 C 39.5 48.398438 39.082031 48.363281 38.660156 48.296875 C 38.238281 48.226562 37.800781 48.121094 37.351562 47.984375 L 37.351562 46.660156 C 37.738281 46.871094 38.144531 47.03125 38.558594 47.136719 C 38.976562 47.238281 39.417969 47.292969 39.882812 47.292969 C 40.632812 47.292969 41.226562 47.09375 41.664062 46.699219 C 42.101562 46.304688 42.324219 45.769531 42.324219 45.089844 C 42.324219 44.414062 42.101562 43.878906 41.664062 43.484375 C 41.226562 43.089844 40.632812 42.890625 39.882812 42.890625 C 39.53125 42.890625 39.179688 42.929688 38.828125 43.007812 C 38.480469 43.085938 38.125 43.207031 37.761719 43.371094 Z M 37.761719 38.488281 "/>
<path style=" stroke:none;fill-rule:nonzero;fill:rgb(0%,0%,0%);fill-opacity:1;" d="M 18.636719 131.289062 L 22.503906 131.289062 L 22.503906 132.492188 L 12.441406 132.492188 L 12.441406 131.289062 L 13.546875 131.289062 C 13.113281 131.035156 12.789062 130.714844 12.582031 130.332031 C 12.371094 129.949219 12.265625 129.488281 12.265625 128.957031 C 12.265625 128.070312 12.617188 127.351562 13.320312 126.796875 C 14.023438 126.242188 14.945312 125.964844 16.089844 125.964844 C 17.238281 125.964844 18.164062 126.242188 18.867188 126.796875 C 19.570312 127.351562 19.921875 128.070312 19.921875 128.957031 C 19.921875 129.488281 19.816406 129.949219 19.605469 130.332031 C 19.394531 130.714844 19.070312 131.035156 18.636719 131.289062 Z M 16.089844 127.210938 C 15.210938 127.210938 14.519531 127.390625 14.019531 127.753906 C 13.515625 128.117188 13.265625 128.613281 13.265625 129.246094 C 13.265625 129.882812 13.515625 130.382812 14.019531 130.742188 C 14.519531 131.105469 15.210938 131.289062 16.089844 131.289062 C 16.972656 131.289062 17.664062 131.105469 18.164062 130.742188 C 18.664062 130.382812 18.917969 129.882812 18.917969 129.246094 C 18.917969 128.613281 18.664062 128.117188 18.164062 127.753906 C 17.664062 127.390625 16.972656 127.210938 16.089844 127.210938 Z M 16.089844 127.210938 "/>
<path style=" stroke:none;fill-rule:nonzero;fill:rgb(0%,0%,0%);fill-opacity:1;" d="M 15.785156 117.746094 L 16.371094 117.746094 L 16.371094 123.253906 C 17.195312 123.199219 17.824219 122.953125 18.257812 122.507812 C 18.6875 122.0625 18.902344 121.445312 18.902344 120.648438 C 18.902344 120.1875 18.847656 119.742188 18.734375 119.3125 C 18.621094 118.878906 18.453125 118.449219 18.226562 118.023438 L 19.359375 118.023438 C 19.542969 118.453125 19.679688 118.894531 19.777344 119.347656 C 19.871094 119.796875 19.921875 120.257812 19.921875 120.71875 C 19.921875 121.882812 19.582031 122.804688 18.90625 123.484375 C 18.226562 124.164062 17.3125 124.503906 16.15625 124.503906 C 14.964844 124.503906 14.015625 124.179688 13.316406 123.535156 C 12.617188 122.890625 12.265625 122.023438 12.265625 120.929688 C 12.265625 119.949219 12.582031 119.171875 13.210938 118.601562 C 13.84375 118.03125 14.699219 117.746094 15.785156 117.746094 Z M 15.433594 118.941406 C 14.777344 118.949219 14.257812 119.132812 13.867188 119.492188 C 13.476562 119.851562 13.277344 120.324219 13.277344 120.914062 C 13.277344 121.582031 13.46875 122.117188 13.847656 122.519531 C 14.222656 122.921875 14.753906 123.152344 15.441406 123.214844 Z M 15.433594 118.941406 "/>
<path style=" stroke:none;fill-rule:nonzero;fill:rgb(0%,0%,0%);fill-opacity:1;" d="M 13.558594 111.554688 C 13.480469 111.6875 13.421875 111.835938 13.386719 111.992188 C 13.351562 112.152344 13.332031 112.328125 13.332031 112.515625 C 13.332031 113.195312 13.550781 113.714844 13.992188 114.078125 C 14.433594 114.441406 15.066406 114.621094 15.890625 114.621094 L 19.730469 114.621094 L 19.730469 115.824219 L 12.441406 115.824219 L 12.441406 114.621094 L 13.574219 114.621094 C 13.128906 114.367188 12.800781 114.039062 12.585938 113.636719 C 12.371094 113.234375 12.265625 112.742188 12.265625 112.164062 C 12.265625 112.082031 12.269531 111.992188 12.28125 111.890625 C 12.289062 111.792969 12.308594 111.679688 12.328125 111.558594 Z M 13.558594 111.554688 "/>
<path style=" stroke:none;fill-rule:nonzero;fill:rgb(0%,0%,0%);fill-opacity:1;" d="M 18.636719 109.140625 L 22.503906 109.140625 L 22.503906 110.34375 L 12.441406 110.34375 L 12.441406 109.140625 L 13.546875 109.140625 C 13.113281 108.886719 12.789062 108.566406 12.582031 108.183594 C 12.371094 107.800781 12.265625 107.339844 12.265625 106.808594 C 12.265625 105.921875 12.617188 105.203125 13.320312 104.648438 C 14.023438 104.09375 14.945312 103.816406 16.089844 103.816406 C 17.238281 103.816406 18.164062 104.09375 18.867188 104.648438 C 19.570312 105.203125 19.921875 105.921875 19.921875 106.808594 C 19.921875 107.339844 19.816406 107.800781 19.605469 108.183594 C 19.394531 108.566406 19.070312 108.886719 18.636719 109.140625 Z M 16.089844 105.0625 C 15.210938 105.0625 14.519531 105.242188 14.019531 105.605469 C 13.515625 105.96875 13.265625 106.464844 13.265625 107.097656 C 13.265625 107.734375 13.515625 108.234375 14.019531 108.59375 C 14.519531 108.957031 15.210938 109.140625 16.089844 109.140625 C 16.972656 109.140625 17.664062 108.957031 18.164062 108.59375 C 18.664062 108.234375 18.917969 107.734375 18.917969 107.097656 C 18.917969 106.464844 18.664062 105.96875 18.164062 105.605469 C 17.664062 105.242188 16.972656 105.0625 16.089844 105.0625 Z M 16.089844 105.0625 "/>
<path style=" stroke:none;fill-rule:nonzero;fill:rgb(0%,0%,0%);fill-opacity:1;" d="M 9.601562 101.832031 L 9.601562 100.636719 L 19.730469 100.636719 L 19.730469 101.832031 Z M 9.601562 101.832031 "/>
<path style=" stroke:none;fill-rule:nonzero;fill:rgb(0%,0%,0%);fill-opacity:1;" d="M 15.785156 91.890625 L 16.371094 91.890625 L 16.371094 97.398438 C 17.195312 97.347656 17.824219 97.097656 18.257812 96.65625 C 18.6875 96.210938 18.902344 95.589844 18.902344 94.796875 C 18.902344 94.335938 18.847656 93.890625 18.734375 93.457031 C 18.621094 93.027344 18.453125 92.597656 18.226562 92.171875 L 19.359375 92.171875 C 19.542969 92.601562 19.679688 93.042969 19.777344 93.492188 C 19.871094 93.945312 19.921875 94.402344 19.921875 94.867188 C 19.921875 96.03125 19.582031 96.953125 18.90625 97.632812 C 18.226562 98.3125 17.3125 98.648438 16.15625 98.648438 C 14.964844 98.648438 14.015625 98.328125 13.316406 97.683594 C 12.617188 97.039062 12.265625 96.167969 12.265625 95.074219 C 12.265625 94.09375 12.582031 93.320312 13.210938 92.75 C 13.84375 92.175781 14.699219 91.890625 15.785156 91.890625 Z M 15.433594 93.089844 C 14.777344 93.097656 14.257812 93.28125 13.867188 93.640625 C 13.476562 94 13.277344 94.472656 13.277344 95.0625 C 13.277344 95.730469 13.46875 96.265625 13.847656 96.667969 C 14.222656 97.066406 14.753906 97.300781 15.441406 97.359375 Z M 15.433594 93.089844 "/>
<path style=" stroke:none;fill-rule:nonzero;fill:rgb(0%,0%,0%);fill-opacity:1;" d="M 12.441406 84.097656 L 15.988281 86.734375 L 19.730469 83.960938 L 19.730469 85.375 L 16.867188 87.496094 L 19.730469 89.617188 L 19.730469 91.03125 L 15.917969 88.199219 L 12.441406 90.789062 L 12.441406 89.378906 L 15.039062 87.445312 L 12.441406 85.511719 Z M 12.441406 84.097656 "/>
<path style=" stroke:none;fill-rule:nonzero;fill:rgb(0%,0%,0%);fill-opacity:1;" d="M 12.441406 82.269531 L 12.441406 81.070312 L 19.730469 81.070312 L 19.730469 82.269531 Z M 9.601562 82.269531 L 9.601562 81.070312 L 11.117188 81.070312 L 11.117188 82.269531 Z M 9.601562 82.269531 "/>
<path style=" stroke:none;fill-rule:nonzero;fill:rgb(0%,0%,0%);fill-opacity:1;" d="M 10.367188 77.378906 L 12.441406 77.378906 L 12.441406 74.914062 L 13.371094 74.914062 L 13.371094 77.378906 L 17.328125 77.378906 C 17.921875 77.378906 18.304688 77.296875 18.476562 77.136719 C 18.644531 76.972656 18.730469 76.640625 18.730469 76.140625 L 18.730469 74.914062 L 19.730469 74.914062 L 19.730469 76.140625 C 19.730469 77.066406 19.558594 77.703125 19.214844 78.054688 C 18.867188 78.40625 18.242188 78.582031 17.328125 78.582031 L 13.371094 78.582031 L 13.371094 79.460938 L 12.441406 79.460938 L 12.441406 78.582031 L 10.367188 78.582031 Z M 10.367188 77.378906 "/>
<path style=" stroke:none;fill-rule:nonzero;fill:rgb(0%,0%,0%);fill-opacity:1;" d="M 20.410156 70.304688 C 21.277344 70.640625 21.84375 70.972656 22.105469 71.292969 C 22.371094 71.613281 22.503906 72.042969 22.503906 72.582031 L 22.503906 73.539062 L 21.503906 73.539062 L 21.503906 72.835938 C 21.503906 72.503906 21.421875 72.25 21.265625 72.066406 C 21.109375 71.882812 20.742188 71.683594 20.160156 71.460938 L 19.613281 71.246094 L 12.441406 74.195312 L 12.441406 72.925781 L 18.140625 70.648438 L 12.441406 68.367188 L 12.441406 67.097656 Z M 20.410156 70.304688 "/>
<g clip-path="url(#clip9)" clip-rule="nonzero">
<path style="fill:none;stroke-width:1.5;stroke-linecap:square;stroke-linejoin:round;stroke:rgb(12.156863%,46.666667%,70.588237%);stroke-opacity:1;stroke-miterlimit:4;" d="M 40.602539 13.376953 L 44.589844 14.173828 L 48.574219 16.22168 L 52.561523 24.688477 L 56.545898 37.338867 L 60.530273 55.092773 L 64.517578 61.21582 L 68.501953 67.142578 L 72.489258 70.30957 L 76.473633 76.543945 L 80.460938 81.893555 L 84.445312 86.367188 L 88.432617 91.555664 L 92.416992 96.635742 L 96.404297 101.381836 L 100.388672 108.902344 L 104.375977 113.783203 L 108.360352 120.360352 L 112.344727 125.99707 L 116.332031 129.834961 L 120.316406 133.822266 L 124.303711 135.624023 L 128.288086 135.890625 L 132.275391 136.3125 L 136.259766 136.453125 L 140.24707 133.268555 L 144.231445 136.415039 L 148.21875 136.634766 L 152.203125 136.623047 L 156.1875 136.734375 L 160.174805 136.795898 L 164.15918 136.731445 L 168.146484 136.813477 L 172.130859 136.78125 L 176.118164 136.822266 L 180.102539 136.819336 L 184.089844 136.851562 L 188.074219 136.813477 L 192.061523 136.822266 L 196.045898 136.842773 L 200.030273 136.854492 L 204.017578 136.880859 L 208.001953 136.842773 L 211.989258 136.883789 L 215.973633 136.921875 L 219.960938 136.857422 L 223.945312 136.910156 L 227.932617 136.839844 L 231.916992 136.880859 L 235.904297 136.87793 " transform="matrix(1.333333,0,0,1.333333,0,0)"/>
</g>
<path style="fill:none;stroke-width:0.8;stroke-linecap:square;stroke-linejoin:miter;stroke:rgb(0%,0%,0%);stroke-opacity:1;stroke-miterlimit:4;" d="M 40.602539 143.100586 L 40.602539 7.201172 " transform="matrix(1.333333,0,0,1.333333,0,0)"/>
<path style="fill:none;stroke-width:0.8;stroke-linecap:square;stroke-linejoin:miter;stroke:rgb(0%,0%,0%);stroke-opacity:1;stroke-miterlimit:4;" d="M 235.904297 143.100586 L 235.904297 7.201172 " transform="matrix(1.333333,0,0,1.333333,0,0)"/>
<path style="fill:none;stroke-width:0.8;stroke-linecap:square;stroke-linejoin:miter;stroke:rgb(0%,0%,0%);stroke-opacity:1;stroke-miterlimit:4;" d="M 40.602539 143.100586 L 235.904297 143.100586 " transform="matrix(1.333333,0,0,1.333333,0,0)"/>
<path style="fill:none;stroke-width:0.8;stroke-linecap:square;stroke-linejoin:miter;stroke:rgb(0%,0%,0%);stroke-opacity:1;stroke-miterlimit:4;" d="M 40.602539 7.201172 L 235.904297 7.201172 " transform="matrix(1.333333,0,0,1.333333,0,0)"/>
<use xlink:href="#surface5" mask="url(#mask0)"/>
<path style="fill:none;stroke-width:1.5;stroke-linecap:square;stroke-linejoin:round;stroke:rgb(12.156863%,46.666667%,70.588237%);stroke-opacity:1;stroke-miterlimit:4;" d="M 175.628906 20.299805 L 195.626953 20.299805 " transform="matrix(1.333333,0,0,1.333333,0,0)"/>
<path style=" stroke:none;fill-rule:nonzero;fill:rgb(0%,0%,0%);fill-opacity:1;" d="M 273.945312 22.367188 L 273.945312 24.441406 L 276.414062 24.441406 L 276.414062 25.371094 L 273.945312 25.371094 L 273.945312 29.328125 C 273.945312 29.921875 274.027344 30.304688 274.191406 30.476562 C 274.351562 30.644531 274.683594 30.730469 275.183594 30.730469 L 276.414062 30.730469 L 276.414062 31.730469 L 275.183594 31.730469 C 274.257812 31.730469 273.621094 31.558594 273.269531 31.214844 C 272.917969 30.867188 272.742188 30.242188 272.742188 29.328125 L 272.742188 25.371094 L 271.863281 25.371094 L 271.863281 24.441406 L 272.742188 24.441406 L 272.742188 22.367188 Z M 273.945312 22.367188 "/>
<path style=" stroke:none;fill-rule:nonzero;fill:rgb(0%,0%,0%);fill-opacity:1;" d="M 282.214844 25.558594 C 282.078125 25.480469 281.933594 25.421875 281.773438 25.386719 C 281.617188 25.351562 281.441406 25.332031 281.25 25.332031 C 280.574219 25.332031 280.054688 25.550781 279.691406 25.992188 C 279.328125 26.433594 279.148438 27.066406 279.148438 27.890625 L 279.148438 31.730469 L 277.941406 31.730469 L 277.941406 24.441406 L 279.148438 24.441406 L 279.148438 25.574219 C 279.398438 25.128906 279.726562 24.800781 280.128906 24.585938 C 280.535156 24.371094 281.023438 24.265625 281.601562 24.265625 C 281.683594 24.265625 281.777344 24.269531 281.875 24.28125 C 281.976562 24.289062 282.085938 24.308594 282.207031 24.328125 Z M 282.214844 25.558594 "/>
<path style=" stroke:none;fill-rule:nonzero;fill:rgb(0%,0%,0%);fill-opacity:1;" d="M 286.785156 28.066406 C 285.816406 28.066406 285.144531 28.175781 284.773438 28.398438 C 284.398438 28.617188 284.210938 28.996094 284.210938 29.53125 C 284.210938 29.957031 284.351562 30.292969 284.632812 30.542969 C 284.914062 30.792969 285.292969 30.917969 285.773438 30.917969 C 286.441406 30.917969 286.972656 30.679688 287.375 30.210938 C 287.777344 29.738281 287.976562 29.113281 287.976562 28.332031 L 287.976562 28.066406 Z M 289.175781 27.570312 L 289.175781 31.730469 L 287.976562 31.730469 L 287.976562 30.625 C 287.703125 31.066406 287.363281 31.394531 286.953125 31.605469 C 286.546875 31.816406 286.046875 31.921875 285.457031 31.921875 C 284.710938 31.921875 284.117188 31.710938 283.675781 31.292969 C 283.234375 30.871094 283.015625 30.3125 283.015625 29.609375 C 283.015625 28.789062 283.289062 28.171875 283.835938 27.753906 C 284.386719 27.335938 285.207031 27.128906 286.296875 27.128906 L 287.976562 27.128906 L 287.976562 27.011719 C 287.976562 26.460938 287.796875 26.03125 287.433594 25.730469 C 287.070312 25.429688 286.5625 25.277344 285.90625 25.277344 C 285.488281 25.277344 285.082031 25.328125 284.6875 25.429688 C 284.292969 25.527344 283.914062 25.679688 283.550781 25.878906 L 283.550781 24.769531 C 283.988281 24.601562 284.410156 24.476562 284.824219 24.390625 C 285.238281 24.308594 285.636719 24.265625 286.027344 24.265625 C 287.082031 24.265625 287.871094 24.539062 288.394531 25.085938 C 288.914062 25.632812 289.175781 26.460938 289.175781 27.570312 Z M 289.175781 27.570312 "/>
<path style=" stroke:none;fill-rule:nonzero;fill:rgb(0%,0%,0%);fill-opacity:1;" d="M 291.640625 24.441406 L 292.839844 24.441406 L 292.839844 31.730469 L 291.640625 31.730469 Z M 291.640625 21.601562 L 292.839844 21.601562 L 292.839844 23.117188 L 291.640625 23.117188 Z M 291.640625 21.601562 "/>
<path style=" stroke:none;fill-rule:nonzero;fill:rgb(0%,0%,0%);fill-opacity:1;" d="M 301.40625 27.328125 L 301.40625 31.730469 L 300.210938 31.730469 L 300.210938 27.367188 C 300.210938 26.679688 300.074219 26.164062 299.804688 25.820312 C 299.535156 25.476562 299.132812 25.304688 298.59375 25.304688 C 297.949219 25.304688 297.4375 25.511719 297.0625 25.925781 C 296.691406 26.335938 296.503906 26.898438 296.503906 27.609375 L 296.503906 31.730469 L 295.300781 31.730469 L 295.300781 24.441406 L 296.503906 24.441406 L 296.503906 25.574219 C 296.789062 25.132812 297.128906 24.804688 297.515625 24.589844 C 297.90625 24.371094 298.351562 24.265625 298.863281 24.265625 C 299.699219 24.265625 300.332031 24.523438 300.761719 25.042969 C 301.191406 25.558594 301.40625 26.320312 301.40625 27.328125 Z M 301.40625 27.328125 "/>
</g>
</svg>
