<?xml version="1.0" encoding="UTF-8"?>
<svg xmlns="http://www.w3.org/2000/svg" xmlns:xlink="http://www.w3.org/1999/xlink" width="326.827087" height="240.875" viewBox="0 0 326.827087 240.875" version="1.1">
<defs>
<clipPath id="clip1">
  <path d="M 67 9.601562 L 70 9.601562 L 70 190.800781 L 67 190.800781 Z M 67 9.601562 "/>
</clipPath>
<clipPath id="clip2">
  <path d="M 127 9.601562 L 129 9.601562 L 129 190.800781 L 127 190.800781 Z M 127 9.601562 "/>
</clipPath>
<clipPath id="clip3">
  <path d="M 186 9.601562 L 188 9.601562 L 188 190.800781 L 186 190.800781 Z M 186 9.601562 "/>
</clipPath>
<clipPath id="clip4">
  <path d="M 245 9.601562 L 247 9.601562 L 247 190.800781 L 245 190.800781 Z M 245 9.601562 "/>
</clipPath>
<clipPath id="clip5">
  <path d="M 304 9.601562 L 307 9.601562 L 307 190.800781 L 304 190.800781 Z M 304 9.601562 "/>
</clipPath>
<clipPath id="clip6">
  <path d="M 56.828125 158 L 317.226562 158 L 317.226562 160 L 56.828125 160 Z M 56.828125 158 "/>
</clipPath>
<clipPath id="clip7">
  <path d="M 56.828125 99 L 317.226562 99 L 317.226562 101 L 56.828125 101 Z M 56.828125 99 "/>
</clipPath>
<clipPath id="clip8">
  <path d="M 56.828125 40 L 317.226562 40 L 317.226562 42 L 56.828125 42 Z M 56.828125 40 "/>
</clipPath>
</defs>
<g id="surface1">
<path style=" stroke:none;fill-rule:nonzero;fill:rgb(100%,100%,100%);fill-opacity:1;" d="M 56.828125 190.800781 L 317.226562 190.800781 L 317.226562 9.601562 L 56.828125 9.601562 Z M 56.828125 190.800781 "/>
<g clip-path="url(#clip1)" clip-rule="nonzero">
<path style="fill:none;stroke-width:0.8;stroke-linecap:square;stroke-linejoin:round;stroke:rgb(69.01961%,69.01961%,69.01961%);stroke-opacity:1;stroke-miterlimit:4;" d="M 51.498047 143.100586 L 51.498047 7.201172 " transform="matrix(1.333333,0,0,1.333333,0,0)"/>
</g>
<path style="fill:none;stroke-width:0.8;stroke-linecap:butt;stroke-linejoin:round;stroke:rgb(0%,0%,0%);stroke-opacity:1;stroke-miterlimit:4;" d="M 0.000461578 0.000579834 L 0.000461578 3.498627 " transform="matrix(1.333333,0,0,1.333333,68.663447,190.800008)"/>
<path style=" stroke:none;fill-rule:nonzero;fill:rgb(0%,0%,0%);fill-opacity:1;" d="M 56.007812 205.53125 L 64.351562 205.53125 L 64.351562 206.636719 L 56.007812 206.636719 Z M 56.007812 205.53125 "/>
<path style=" stroke:none;fill-rule:nonzero;fill:rgb(0%,0%,0%);fill-opacity:1;" d="M 67.417969 209.160156 L 69.566406 209.160156 L 69.566406 201.742188 L 67.230469 202.210938 L 67.230469 201.011719 L 69.554688 200.542969 L 70.871094 200.542969 L 70.871094 209.160156 L 73.019531 209.160156 L 73.019531 210.265625 L 67.417969 210.265625 Z M 67.417969 209.160156 "/>
<path style=" stroke:none;fill-rule:nonzero;fill:rgb(0%,0%,0%);fill-opacity:1;" d="M 78.484375 201.410156 C 77.808594 201.410156 77.300781 201.742188 76.960938 202.410156 C 76.617188 203.074219 76.449219 204.078125 76.449219 205.414062 C 76.449219 206.746094 76.617188 207.746094 76.960938 208.414062 C 77.300781 209.078125 77.808594 209.414062 78.484375 209.414062 C 79.167969 209.414062 79.679688 209.078125 80.019531 208.414062 C 80.359375 207.746094 80.53125 206.746094 80.53125 205.414062 C 80.53125 204.078125 80.359375 203.074219 80.019531 202.410156 C 79.679688 201.742188 79.167969 201.410156 78.484375 201.410156 Z M 78.484375 200.367188 C 79.578125 200.367188 80.410156 200.800781 80.984375 201.664062 C 81.558594 202.523438 81.847656 203.773438 81.847656 205.414062 C 81.847656 207.050781 81.558594 208.300781 80.984375 209.164062 C 80.410156 210.023438 79.578125 210.453125 78.484375 210.453125 C 77.398438 210.453125 76.566406 210.023438 75.992188 209.164062 C 75.414062 208.300781 75.128906 207.050781 75.128906 205.414062 C 75.128906 203.773438 75.414062 202.523438 75.992188 201.664062 C 76.566406 200.800781 77.398438 200.367188 78.484375 200.367188 Z M 78.484375 200.367188 "/>
<g clip-path="url(#clip2)" clip-rule="nonzero">
<path style="fill:none;stroke-width:0.8;stroke-linecap:square;stroke-linejoin:round;stroke:rgb(69.01961%,69.01961%,69.01961%);stroke-opacity:1;stroke-miterlimit:4;" d="M 95.882812 143.100586 L 95.882812 7.201172 " transform="matrix(1.333333,0,0,1.333333,0,0)"/>
</g>
<path style="fill:none;stroke-width:0.8;stroke-linecap:butt;stroke-linejoin:round;stroke:rgb(0%,0%,0%);stroke-opacity:1;stroke-miterlimit:4;" d="M -0.00113678 0.000579834 L -0.00113678 3.498627 " transform="matrix(1.333333,0,0,1.333333,127.845266,190.800008)"/>
<path style=" stroke:none;fill-rule:nonzero;fill:rgb(0%,0%,0%);fill-opacity:1;" d="M 119.429688 205.53125 L 127.777344 205.53125 L 127.777344 206.636719 L 119.429688 206.636719 Z M 119.429688 205.53125 "/>
<path style=" stroke:none;fill-rule:nonzero;fill:rgb(0%,0%,0%);fill-opacity:1;" d="M 130.628906 200.542969 L 135.792969 200.542969 L 135.792969 201.652344 L 131.832031 201.652344 L 131.832031 204.035156 C 132.023438 203.96875 132.214844 203.917969 132.402344 203.886719 C 132.59375 203.855469 132.785156 203.839844 132.980469 203.839844 C 134.0625 203.839844 134.921875 204.136719 135.554688 204.730469 C 136.191406 205.324219 136.507812 206.128906 136.507812 207.144531 C 136.507812 208.191406 136.183594 209.003906 135.53125 209.585938 C 134.878906 210.164062 133.960938 210.453125 132.777344 210.453125 C 132.367188 210.453125 131.953125 210.417969 131.527344 210.351562 C 131.105469 210.28125 130.667969 210.175781 130.21875 210.039062 L 130.21875 208.714844 C 130.609375 208.925781 131.011719 209.085938 131.429688 209.191406 C 131.84375 209.292969 132.285156 209.347656 132.75 209.347656 C 133.5 209.347656 134.09375 209.148438 134.53125 208.753906 C 134.972656 208.359375 135.191406 207.824219 135.191406 207.144531 C 135.191406 206.46875 134.972656 205.933594 134.53125 205.539062 C 134.09375 205.144531 133.5 204.945312 132.75 204.945312 C 132.398438 204.945312 132.046875 204.984375 131.699219 205.0625 C 131.347656 205.140625 130.992188 205.261719 130.628906 205.425781 Z M 130.628906 200.542969 "/>
<g clip-path="url(#clip3)" clip-rule="nonzero">
<path style="fill:none;stroke-width:0.8;stroke-linecap:square;stroke-linejoin:round;stroke:rgb(69.01961%,69.01961%,69.01961%);stroke-opacity:1;stroke-miterlimit:4;" d="M 140.270508 143.100586 L 140.270508 7.201172 " transform="matrix(1.333333,0,0,1.333333,0,0)"/>
</g>
<path style="fill:none;stroke-width:0.8;stroke-linecap:butt;stroke-linejoin:round;stroke:rgb(0%,0%,0%);stroke-opacity:1;stroke-miterlimit:4;" d="M 0.000198364 0.000579834 L 0.000198364 3.498627 " transform="matrix(1.333333,0,0,1.333333,187.027079,190.800008)"/>
<path style=" stroke:none;fill-rule:nonzero;fill:rgb(0%,0%,0%);fill-opacity:1;" d="M 187.023438 201.410156 C 186.347656 201.410156 185.835938 201.742188 185.496094 202.410156 C 185.15625 203.074219 184.984375 204.078125 184.984375 205.414062 C 184.984375 206.746094 185.15625 207.746094 185.496094 208.414062 C 185.835938 209.078125 186.347656 209.414062 187.023438 209.414062 C 187.703125 209.414062 188.214844 209.078125 188.554688 208.414062 C 188.898438 207.746094 189.070312 206.746094 189.070312 205.414062 C 189.070312 204.078125 188.898438 203.074219 188.554688 202.410156 C 188.214844 201.742188 187.703125 201.410156 187.023438 201.410156 Z M 187.023438 200.367188 C 188.113281 200.367188 188.945312 200.800781 189.519531 201.664062 C 190.097656 202.523438 190.382812 203.773438 190.382812 205.414062 C 190.382812 207.050781 190.097656 208.300781 189.519531 209.164062 C 188.945312 210.023438 188.113281 210.453125 187.023438 210.453125 C 185.933594 210.453125 185.101562 210.023438 184.527344 209.164062 C 183.953125 208.300781 183.664062 207.050781 183.664062 205.414062 C 183.664062 203.773438 183.953125 202.523438 184.527344 201.664062 C 185.101562 200.800781 185.933594 200.367188 187.023438 200.367188 Z M 187.023438 200.367188 "/>
<g clip-path="url(#clip4)" clip-rule="nonzero">
<path style="fill:none;stroke-width:0.8;stroke-linecap:square;stroke-linejoin:round;stroke:rgb(69.01961%,69.01961%,69.01961%);stroke-opacity:1;stroke-miterlimit:4;" d="M 184.655273 143.100586 L 184.655273 7.201172 " transform="matrix(1.333333,0,0,1.333333,0,0)"/>
</g>
<path style="fill:none;stroke-width:0.8;stroke-linecap:butt;stroke-linejoin:round;stroke:rgb(0%,0%,0%);stroke-opacity:1;stroke-miterlimit:4;" d="M -0.00140381 0.000579834 L -0.00140381 3.498627 " transform="matrix(1.333333,0,0,1.333333,246.208903,190.800008)"/>
<path style=" stroke:none;fill-rule:nonzero;fill:rgb(0%,0%,0%);fill-opacity:1;" d="M 243.40625 200.542969 L 248.570312 200.542969 L 248.570312 201.652344 L 244.609375 201.652344 L 244.609375 204.035156 C 244.800781 203.96875 244.992188 203.917969 245.183594 203.886719 C 245.375 203.855469 245.566406 203.839844 245.757812 203.839844 C 246.839844 203.839844 247.699219 204.136719 248.332031 204.730469 C 248.96875 205.324219 249.285156 206.128906 249.285156 207.144531 C 249.285156 208.191406 248.960938 209.003906 248.308594 209.585938 C 247.65625 210.164062 246.738281 210.453125 245.554688 210.453125 C 245.144531 210.453125 244.730469 210.417969 244.308594 210.351562 C 243.882812 210.28125 243.449219 210.175781 242.996094 210.039062 L 242.996094 208.714844 C 243.386719 208.925781 243.789062 209.085938 244.207031 209.191406 C 244.625 209.292969 245.0625 209.347656 245.527344 209.347656 C 246.277344 209.347656 246.875 209.148438 247.3125 208.753906 C 247.75 208.359375 247.96875 207.824219 247.96875 207.144531 C 247.96875 206.46875 247.75 205.933594 247.3125 205.539062 C 246.875 205.144531 246.277344 204.945312 245.527344 204.945312 C 245.175781 204.945312 244.824219 204.984375 244.476562 205.0625 C 244.128906 205.140625 243.769531 205.261719 243.40625 205.425781 Z M 243.40625 200.542969 "/>
<g clip-path="url(#clip5)" clip-rule="nonzero">
<path style="fill:none;stroke-width:0.8;stroke-linecap:square;stroke-linejoin:round;stroke:rgb(69.01961%,69.01961%,69.01961%);stroke-opacity:1;stroke-miterlimit:4;" d="M 229.042969 143.100586 L 229.042969 7.201172 " transform="matrix(1.333333,0,0,1.333333,0,0)"/>
</g>
<path style="fill:none;stroke-width:0.8;stroke-linecap:butt;stroke-linejoin:round;stroke:rgb(0%,0%,0%);stroke-opacity:1;stroke-miterlimit:4;" d="M -0.0000762939 0.000579834 L -0.0000762939 3.498627 " transform="matrix(1.333333,0,0,1.333333,305.390727,190.800008)"/>
<path style=" stroke:none;fill-rule:nonzero;fill:rgb(0%,0%,0%);fill-opacity:1;" d="M 298.5625 209.160156 L 300.710938 209.160156 L 300.710938 201.742188 L 298.371094 202.210938 L 298.371094 201.011719 L 300.695312 200.542969 L 302.011719 200.542969 L 302.011719 209.160156 L 304.160156 209.160156 L 304.160156 210.265625 L 298.5625 210.265625 Z M 298.5625 209.160156 "/>
<path style=" stroke:none;fill-rule:nonzero;fill:rgb(0%,0%,0%);fill-opacity:1;" d="M 309.628906 201.410156 C 308.953125 201.410156 308.441406 201.742188 308.101562 202.410156 C 307.761719 203.074219 307.589844 204.078125 307.589844 205.414062 C 307.589844 206.746094 307.761719 207.746094 308.101562 208.414062 C 308.441406 209.078125 308.953125 209.414062 309.628906 209.414062 C 310.308594 209.414062 310.820312 209.078125 311.160156 208.414062 C 311.503906 207.746094 311.671875 206.746094 311.671875 205.414062 C 311.671875 204.078125 311.503906 203.074219 311.160156 202.410156 C 310.820312 201.742188 310.308594 201.410156 309.628906 201.410156 Z M 309.628906 200.367188 C 310.71875 200.367188 311.550781 200.800781 312.125 201.664062 C 312.699219 202.523438 312.988281 203.773438 312.988281 205.414062 C 312.988281 207.050781 312.699219 208.300781 312.125 209.164062 C 311.550781 210.023438 310.71875 210.453125 309.628906 210.453125 C 308.539062 210.453125 307.707031 210.023438 307.132812 209.164062 C 306.558594 208.300781 306.269531 207.050781 306.269531 205.414062 C 306.269531 203.773438 306.558594 202.523438 307.132812 201.664062 C 307.707031 200.800781 308.539062 200.367188 309.628906 200.367188 Z M 309.628906 200.367188 "/>
<path style=" stroke:none;fill-rule:nonzero;fill:rgb(0%,0%,0%);fill-opacity:1;" d="M 190.398438 221.210938 L 187.761719 224.757812 L 190.535156 228.503906 L 189.121094 228.503906 L 187 225.636719 L 184.878906 228.503906 L 183.464844 228.503906 L 186.296875 224.6875 L 183.707031 221.210938 L 185.117188 221.210938 L 187.050781 223.808594 L 188.984375 221.210938 Z M 190.398438 221.210938 "/>
<g clip-path="url(#clip6)" clip-rule="nonzero">
<path style="fill:none;stroke-width:0.8;stroke-linecap:square;stroke-linejoin:round;stroke:rgb(69.01961%,69.01961%,69.01961%);stroke-opacity:1;stroke-miterlimit:4;" d="M 42.621094 119.411133 L 237.919922 119.411133 " transform="matrix(1.333333,0,0,1.333333,0,0)"/>
</g>
<path style="fill:none;stroke-width:0.8;stroke-linecap:butt;stroke-linejoin:round;stroke:rgb(0%,0%,0%);stroke-opacity:1;stroke-miterlimit:4;" d="M 0.000782013 -0.000465393 L -3.500195 -0.000465393 " transform="matrix(1.333333,0,0,1.333333,56.827082,159.215464)"/>
<path style=" stroke:none;fill-rule:nonzero;fill:rgb(0%,0%,0%);fill-opacity:1;" d="M 29.25 159.546875 L 37.597656 159.546875 L 37.597656 160.652344 L 29.25 160.652344 Z M 29.25 159.546875 "/>
<path style=" stroke:none;fill-rule:nonzero;fill:rgb(0%,0%,0%);fill-opacity:1;" d="M 40.449219 154.558594 L 45.613281 154.558594 L 45.613281 155.667969 L 41.652344 155.667969 L 41.652344 158.050781 C 41.84375 157.984375 42.035156 157.9375 42.222656 157.902344 C 42.414062 157.871094 42.605469 157.855469 42.800781 157.855469 C 43.882812 157.855469 44.742188 158.152344 45.375 158.746094 C 46.011719 159.34375 46.328125 160.148438 46.328125 161.164062 C 46.328125 162.207031 46.003906 163.019531 45.351562 163.601562 C 44.699219 164.179688 43.78125 164.46875 42.597656 164.46875 C 42.1875 164.46875 41.773438 164.4375 41.347656 164.367188 C 40.925781 164.296875 40.488281 164.191406 40.039062 164.054688 L 40.039062 162.730469 C 40.429688 162.945312 40.832031 163.101562 41.25 163.207031 C 41.664062 163.308594 42.105469 163.363281 42.570312 163.363281 C 43.320312 163.363281 43.914062 163.164062 44.351562 162.769531 C 44.792969 162.375 45.011719 161.839844 45.011719 161.164062 C 45.011719 160.484375 44.792969 159.949219 44.351562 159.554688 C 43.914062 159.160156 43.320312 158.960938 42.570312 158.960938 C 42.21875 158.960938 41.867188 159 41.519531 159.078125 C 41.167969 159.15625 40.8125 159.277344 40.449219 159.445312 Z M 40.449219 154.558594 "/>
<g clip-path="url(#clip7)" clip-rule="nonzero">
<path style="fill:none;stroke-width:0.8;stroke-linecap:square;stroke-linejoin:round;stroke:rgb(69.01961%,69.01961%,69.01961%);stroke-opacity:1;stroke-miterlimit:4;" d="M 42.621094 75.149414 L 237.919922 75.149414 " transform="matrix(1.333333,0,0,1.333333,0,0)"/>
</g>
<path style="fill:none;stroke-width:0.8;stroke-linecap:butt;stroke-linejoin:round;stroke:rgb(0%,0%,0%);stroke-opacity:1;stroke-miterlimit:4;" d="M 0.000782013 -0.000587463 L -3.500195 -0.000587463 " transform="matrix(1.333333,0,0,1.333333,56.827082,100.200002)"/>
<path style=" stroke:none;fill-rule:nonzero;fill:rgb(0%,0%,0%);fill-opacity:1;" d="M 43.246094 96.410156 C 42.570312 96.410156 42.0625 96.746094 41.722656 97.410156 C 41.378906 98.078125 41.210938 99.078125 41.210938 100.414062 C 41.210938 101.746094 41.378906 102.746094 41.722656 103.414062 C 42.0625 104.082031 42.570312 104.414062 43.246094 104.414062 C 43.929688 104.414062 44.441406 104.082031 44.78125 103.414062 C 45.121094 102.746094 45.292969 101.746094 45.292969 100.414062 C 45.292969 99.078125 45.121094 98.078125 44.78125 97.410156 C 44.441406 96.746094 43.929688 96.410156 43.246094 96.410156 Z M 43.246094 95.371094 C 44.339844 95.371094 45.171875 95.800781 45.746094 96.664062 C 46.320312 97.523438 46.609375 98.773438 46.609375 100.414062 C 46.609375 102.050781 46.320312 103.300781 45.746094 104.164062 C 45.171875 105.023438 44.339844 105.457031 43.246094 105.457031 C 42.160156 105.457031 41.328125 105.023438 40.753906 104.164062 C 40.175781 103.300781 39.890625 102.050781 39.890625 100.414062 C 39.890625 98.773438 40.175781 97.523438 40.753906 96.664062 C 41.328125 95.800781 42.160156 95.371094 43.246094 95.371094 Z M 43.246094 95.371094 "/>
<g clip-path="url(#clip8)" clip-rule="nonzero">
<path style="fill:none;stroke-width:0.8;stroke-linecap:square;stroke-linejoin:round;stroke:rgb(69.01961%,69.01961%,69.01961%);stroke-opacity:1;stroke-miterlimit:4;" d="M 42.621094 30.887695 L 237.919922 30.887695 " transform="matrix(1.333333,0,0,1.333333,0,0)"/>
</g>
<path style="fill:none;stroke-width:0.8;stroke-linecap:butt;stroke-linejoin:round;stroke:rgb(0%,0%,0%);stroke-opacity:1;stroke-miterlimit:4;" d="M 0.000782013 -0.000707626 L -3.500195 -0.000707626 " transform="matrix(1.333333,0,0,1.333333,56.827082,41.184537)"/>
<path style=" stroke:none;fill-rule:nonzero;fill:rgb(0%,0%,0%);fill-opacity:1;" d="M 40.449219 36.53125 L 45.613281 36.53125 L 45.613281 37.636719 L 41.652344 37.636719 L 41.652344 40.019531 C 41.84375 39.953125 42.035156 39.90625 42.226562 39.875 C 42.417969 39.839844 42.609375 39.824219 42.800781 39.824219 C 43.882812 39.824219 44.742188 40.121094 45.378906 40.71875 C 46.011719 41.3125 46.328125 42.117188 46.328125 43.132812 C 46.328125 44.175781 46.003906 44.992188 45.351562 45.570312 C 44.699219 46.148438 43.78125 46.441406 42.597656 46.441406 C 42.191406 46.441406 41.773438 46.40625 41.351562 46.335938 C 40.929688 46.265625 40.492188 46.160156 40.039062 46.023438 L 40.039062 44.699219 C 40.429688 44.914062 40.832031 45.070312 41.25 45.175781 C 41.667969 45.28125 42.105469 45.332031 42.570312 45.332031 C 43.320312 45.332031 43.917969 45.132812 44.355469 44.738281 C 44.792969 44.34375 45.011719 43.808594 45.011719 43.132812 C 45.011719 42.453125 44.792969 41.917969 44.355469 41.523438 C 43.917969 41.128906 43.320312 40.929688 42.570312 40.929688 C 42.21875 40.929688 41.867188 40.96875 41.519531 41.046875 C 41.171875 41.125 40.8125 41.246094 40.449219 41.414062 Z M 40.449219 36.53125 "/>
<path style=" stroke:none;fill-rule:nonzero;fill:rgb(0%,0%,0%);fill-opacity:1;" d="M 9.601562 106.746094 L 10.597656 106.746094 L 10.597656 107.894531 C 10.597656 108.320312 10.683594 108.621094 10.859375 108.789062 C 11.03125 108.957031 11.34375 109.039062 11.796875 109.039062 L 12.441406 109.039062 L 12.441406 107.066406 L 13.371094 107.066406 L 13.371094 109.039062 L 19.730469 109.039062 L 19.730469 110.242188 L 13.371094 110.242188 L 13.371094 111.386719 L 12.441406 111.386719 L 12.441406 110.242188 L 11.929688 110.242188 C 11.121094 110.242188 10.527344 110.054688 10.160156 109.675781 C 9.785156 109.296875 9.601562 108.699219 9.601562 107.878906 Z M 9.601562 106.746094 "/>
<path style=" stroke:none;fill-rule:nonzero;fill:rgb(0%,0%,0%);fill-opacity:1;" d="M 9.613281 102.867188 C 10.613281 103.449219 11.597656 103.878906 12.578125 104.164062 C 13.554688 104.445312 14.542969 104.585938 15.546875 104.585938 C 16.546875 104.585938 17.539062 104.445312 18.523438 104.160156 C 19.507812 103.875 20.496094 103.445312 21.488281 102.867188 L 21.488281 103.910156 C 20.46875 104.558594 19.464844 105.046875 18.480469 105.371094 C 17.496094 105.691406 16.519531 105.855469 15.546875 105.855469 C 14.578125 105.855469 13.601562 105.695312 12.621094 105.375 C 11.640625 105.050781 10.636719 104.5625 9.613281 103.910156 Z M 9.613281 102.867188 "/>
<path style=" stroke:none;fill-rule:nonzero;fill:rgb(0%,0%,0%);fill-opacity:1;" d="M 12.441406 94.480469 L 15.988281 97.117188 L 19.730469 94.34375 L 19.730469 95.757812 L 16.867188 97.878906 L 19.730469 100 L 19.730469 101.414062 L 15.917969 98.582031 L 12.441406 101.175781 L 12.441406 99.761719 L 15.039062 97.828125 L 12.441406 95.894531 Z M 12.441406 94.480469 "/>
<path style=" stroke:none;fill-rule:nonzero;fill:rgb(0%,0%,0%);fill-opacity:1;" d="M 9.613281 92.839844 L 9.613281 91.796875 C 10.636719 91.148438 11.640625 90.660156 12.621094 90.335938 C 13.601562 90.015625 14.578125 89.851562 15.546875 89.851562 C 16.519531 89.851562 17.496094 90.015625 18.480469 90.335938 C 19.464844 90.660156 20.46875 91.148438 21.488281 91.796875 L 21.488281 92.839844 C 20.496094 92.261719 19.507812 91.832031 18.523438 91.546875 C 17.539062 91.261719 16.546875 91.121094 15.546875 91.121094 C 14.542969 91.121094 13.554688 91.261719 12.578125 91.546875 C 11.597656 91.832031 10.613281 92.261719 9.613281 92.839844 Z M 9.613281 92.839844 "/>
<path style="fill:none;stroke-width:1.5;stroke-linecap:square;stroke-linejoin:round;stroke:rgb(12.156863%,46.666667%,70.588237%);stroke-opacity:1;stroke-miterlimit:4;" d="M 51.498047 75.149414 L 54.515625 61.508789 L 57.09082 50.885742 L 59.308594 42.621094 L 61.350586 35.835938 L 63.216797 30.37793 L 64.992188 25.860352 L 66.588867 22.385742 L 68.097656 19.625977 L 69.518555 17.490234 L 70.848633 15.899414 L 72.09375 14.768555 L 73.248047 14.021484 L 74.311523 13.587891 L 75.37793 13.391602 L 76.441406 13.426758 L 77.507812 13.69043 L 78.662109 14.223633 L 79.816406 15.00293 L 81.058594 16.104492 L 82.479492 17.677734 L 83.988281 19.69043 L 85.675781 22.3125 L 87.626953 25.787109 L 89.847656 30.208008 L 92.598633 36.213867 L 96.594727 45.536133 L 102.720703 59.794922 L 105.650391 66.041016 L 108.134766 70.833984 L 110.352539 74.633789 L 112.306641 77.554688 L 114.169922 79.945312 L 115.857422 81.758789 L 117.457031 83.15918 L 118.96582 84.196289 L 120.383789 84.919922 L 121.804688 85.40332 L 123.225586 85.652344 L 124.646484 85.672852 L 126.067383 85.473633 L 127.576172 85.042969 L 129.172852 84.351562 L 130.948242 83.329102 L 132.902344 81.943359 L 135.210938 80.015625 L 138.228516 77.173828 L 146.041992 69.665039 L 148.347656 67.825195 L 150.301758 66.533203 L 152.077148 65.613281 L 153.673828 65.027344 L 155.185547 64.699219 L 156.603516 64.611328 L 158.024414 64.743164 L 159.445312 65.109375 L 160.866211 65.712891 L 162.287109 66.556641 L 163.795898 67.725586 L 165.392578 69.263672 L 167.080078 71.217773 L 168.855469 73.628906 L 170.80957 76.678711 L 172.939453 80.449219 L 175.335938 85.168945 L 178.086914 91.098633 L 181.816406 99.711914 L 189.272461 117.052734 L 191.935547 122.625 L 194.15625 126.773438 L 196.019531 129.823242 L 197.707031 132.178711 L 199.21582 133.924805 L 200.636719 135.225586 L 201.878906 136.075195 L 203.033203 136.608398 L 204.09668 136.87207 L 205.163086 136.910156 L 206.229492 136.713867 L 207.292969 136.277344 L 208.359375 135.597656 L 209.513672 134.583984 L 210.667969 133.271484 L 211.910156 131.52832 L 213.240234 129.275391 L 214.661133 126.439453 L 216.260742 122.712891 L 217.945312 118.183594 L 219.720703 112.772461 L 221.674805 106.095703 L 223.804688 98.012695 L 226.201172 88.022461 L 228.955078 75.56543 " transform="matrix(1.333333,0,0,1.333333,0,0)"/>
<path style="fill:none;stroke-width:1.5;stroke-linecap:square;stroke-linejoin:round;stroke:rgb(100%,49.803922%,5.490196%);stroke-opacity:1;stroke-miterlimit:4;" d="M 229.042969 75.149414 L 206.850586 136.488281 L 205.848633 136.810547 L 205.333008 136.895508 L 205.069336 136.916016 L 204.9375 136.921875 L 204.805664 136.921875 " transform="matrix(1.333333,0,0,1.333333,0,0)"/>
<path style="fill-rule:nonzero;fill:rgb(100%,49.803922%,5.490196%);fill-opacity:1;stroke-width:1;stroke-linecap:butt;stroke-linejoin:round;stroke:rgb(100%,49.803922%,5.490196%);stroke-opacity:1;stroke-miterlimit:4;" d="M -0.0000762939 2.999413 C 0.796799 2.999413 1.558517 2.683006 2.121017 2.120506 C 2.683517 1.558006 2.999924 0.796288 2.999924 -0.000587463 C 2.999924 -0.794533 2.683517 -1.559181 2.121017 -2.121681 C 1.558517 -2.684181 0.796799 -3.000587 -0.0000762939 -3.000587 C -0.796951 -3.000587 -1.55867 -2.684181 -2.12117 -2.121681 C -2.68367 -1.559181 -3.000076 -0.794533 -3.000076 -0.000587463 C -3.000076 0.796288 -2.68367 1.558006 -2.12117 2.120506 C -1.55867 2.683006 -0.796951 2.999413 -0.0000762939 2.999413 Z M -0.0000762939 2.999413 " transform="matrix(1.333333,0,0,1.333333,305.390727,100.200002)"/>
<path style="fill-rule:nonzero;fill:rgb(100%,49.803922%,5.490196%);fill-opacity:1;stroke-width:1;stroke-linecap:butt;stroke-linejoin:round;stroke:rgb(100%,49.803922%,5.490196%);stroke-opacity:1;stroke-miterlimit:4;" d="M 0.000732422 2.99971 C 0.794678 2.99971 1.559326 2.683304 2.121826 2.120804 C 2.684326 1.558304 3.000732 0.796585 3.000732 -0.000289917 C 3.000732 -0.794235 2.684326 -1.558884 2.121826 -2.121384 C 1.559326 -2.683884 0.794678 -3.00029 0.000732422 -3.00029 C -0.796143 -3.00029 -1.557861 -2.683884 -2.120361 -2.121384 C -2.682861 -1.558884 -2.999268 -0.794235 -2.999268 -0.000289917 C -2.999268 0.796585 -2.682861 1.558304 -2.120361 2.120804 C -1.557861 2.683304 -0.796143 2.99971 0.000732422 2.99971 Z M 0.000732422 2.99971 " transform="matrix(1.333333,0,0,1.333333,275.799805,181.984762)"/>
<path style="fill-rule:nonzero;fill:rgb(100%,49.803922%,5.490196%);fill-opacity:1;stroke-width:1;stroke-linecap:butt;stroke-linejoin:round;stroke:rgb(100%,49.803922%,5.490196%);stroke-opacity:1;stroke-miterlimit:4;" d="M 0.000442505 3.000168 C 0.794388 3.000168 1.559036 2.683762 2.121536 2.121262 C 2.684036 1.558762 3.000443 0.797043 3.000443 0.000167847 C 3.000443 -0.796707 2.684036 -1.558426 2.121536 -2.120926 C 1.559036 -2.683426 0.794388 -2.999832 0.000442505 -2.999832 C -0.796432 -2.999832 -1.558151 -2.683426 -2.120651 -2.120926 C -2.683151 -1.558426 -2.999557 -0.796707 -2.999557 0.000167847 C -2.999557 0.797043 -2.683151 1.558762 -2.120651 2.121262 C -1.558151 2.683762 -0.796432 3.000168 0.000442505 3.000168 Z M 0.000442505 3.000168 " transform="matrix(1.333333,0,0,1.333333,274.464254,182.413839)"/>
<path style="fill-rule:nonzero;fill:rgb(100%,49.803922%,5.490196%);fill-opacity:1;stroke-width:1;stroke-linecap:butt;stroke-linejoin:round;stroke:rgb(100%,49.803922%,5.490196%);stroke-opacity:1;stroke-miterlimit:4;" d="M 0.00114441 3.001434 C 0.79509 3.001434 1.559738 2.685028 2.122238 2.122528 C 2.684738 1.560028 3.001144 0.79538 3.001144 0.00143433 C 3.001144 -0.795441 2.684738 -1.560089 2.122238 -2.122589 C 1.559738 -2.685089 0.79509 -2.998566 0.00114441 -2.998566 C -0.795731 -2.998566 -1.557449 -2.685089 -2.119949 -2.122589 C -2.682449 -1.560089 -2.998856 -0.795441 -2.998856 0.00143433 C -2.998856 0.79538 -2.682449 1.560028 -2.119949 2.122528 C -1.557449 2.685028 -0.795731 3.001434 0.00114441 3.001434 Z M 0.00114441 3.001434 " transform="matrix(1.333333,0,0,1.333333,273.775818,182.525431)"/>
<path style="fill-rule:nonzero;fill:rgb(100%,49.803922%,5.490196%);fill-opacity:1;stroke-width:1;stroke-linecap:butt;stroke-linejoin:round;stroke:rgb(100%,49.803922%,5.490196%);stroke-opacity:1;stroke-miterlimit:4;" d="M 0.000320435 3.000534 C 0.794266 3.000534 1.558914 2.684128 2.121414 2.121628 C 2.683914 1.559128 3.00032 0.794479 3.00032 0.000534058 C 3.00032 -0.796341 2.683914 -1.55806 2.121414 -2.12056 C 1.558914 -2.68306 0.794266 -2.999466 0.000320435 -2.999466 C -0.796555 -2.999466 -1.558273 -2.68306 -2.120773 -2.12056 C -2.683273 -1.55806 -2.99968 -0.796341 -2.99968 0.000534058 C -2.99968 0.794479 -2.683273 1.559128 -2.120773 2.121628 C -1.558273 2.684128 -0.796555 3.000534 0.000320435 3.000534 Z M 0.000320435 3.000534 " transform="matrix(1.333333,0,0,1.333333,273.425354,182.553975)"/>
<path style="fill-rule:nonzero;fill:rgb(100%,49.803922%,5.490196%);fill-opacity:1;stroke-width:1;stroke-linecap:butt;stroke-linejoin:round;stroke:rgb(100%,49.803922%,5.490196%);stroke-opacity:1;stroke-miterlimit:4;" d="M 0.0012207 3.000961 C 0.795166 3.000961 1.559814 2.684555 2.122314 2.122055 C 2.684814 1.559555 3.001221 0.794907 3.001221 0.000961304 C 3.001221 -0.795914 2.684814 -1.557632 2.122314 -2.120132 C 1.559814 -2.682632 0.795166 -2.999039 0.0012207 -2.999039 C -0.795654 -2.999039 -1.557373 -2.682632 -2.119873 -2.120132 C -2.685303 -1.557632 -2.998779 -0.795914 -2.998779 0.000961304 C -2.998779 0.794907 -2.685303 1.559555 -2.119873 2.122055 C -1.557373 2.684555 -0.795654 3.000961 0.0012207 3.000961 Z M 0.0012207 3.000961 " transform="matrix(1.333333,0,0,1.333333,273.248372,182.561218)"/>
<path style="fill-rule:nonzero;fill:rgb(100%,49.803922%,5.490196%);fill-opacity:1;stroke-width:1;stroke-linecap:butt;stroke-linejoin:round;stroke:rgb(100%,49.803922%,5.490196%);stroke-opacity:1;stroke-miterlimit:4;" d="M 0.000534058 2.999603 C 0.794479 2.999603 1.559128 2.683197 2.121628 2.120697 C 2.684128 1.558197 3.000534 0.796478 3.000534 -0.000396729 C 3.000534 -0.794342 2.684128 -1.55899 2.121628 -2.12149 C 1.559128 -2.68399 0.794479 -3.000397 0.000534058 -3.000397 C -0.796341 -3.000397 -1.55806 -2.68399 -2.12056 -2.12149 C -2.68306 -1.55899 -2.999466 -0.794342 -2.999466 -0.000396729 C -2.999466 0.796478 -2.68306 1.558197 -2.12056 2.120697 C -1.55806 2.683197 -0.796341 2.999603 0.000534058 2.999603 Z M 0.000534058 2.999603 " transform="matrix(1.333333,0,0,1.333333,273.159444,182.563029)"/>
<path style="fill-rule:nonzero;fill:rgb(100%,49.803922%,5.490196%);fill-opacity:1;stroke-width:1;stroke-linecap:butt;stroke-linejoin:round;stroke:rgb(100%,49.803922%,5.490196%);stroke-opacity:1;stroke-miterlimit:4;" d="M -0.00119019 2.999268 C 0.795685 2.999268 1.557404 2.682861 2.119904 2.120361 C 2.685333 1.557861 2.99881 0.796143 2.99881 -0.000732422 C 2.99881 -0.794678 2.685333 -1.559326 2.119904 -2.121826 C 1.557404 -2.684326 0.795685 -3.000732 -0.00119019 -3.000732 C -0.795135 -3.000732 -1.559784 -2.684326 -2.122284 -2.121826 C -2.684784 -1.559326 -3.00119 -0.794678 -3.00119 -0.000732422 C -3.00119 0.796143 -2.684784 1.557861 -2.122284 2.120361 C -1.559784 2.682861 -0.795135 2.999268 -0.00119019 2.999268 Z M -0.00119019 2.999268 " transform="matrix(1.333333,0,0,1.333333,273.114868,182.563477)"/>
<path style="fill-rule:nonzero;fill:rgb(100%,49.803922%,5.490196%);fill-opacity:1;stroke-width:1;stroke-linecap:butt;stroke-linejoin:round;stroke:rgb(100%,49.803922%,5.490196%);stroke-opacity:1;stroke-miterlimit:4;" d="M 0.000900269 2.999176 C 0.794846 2.999176 1.559494 2.68277 2.121994 2.12027 C 2.684494 1.55777 3.0009 0.796051 3.0009 -0.000823975 C 3.0009 -0.794769 2.684494 -1.559418 2.121994 -2.121918 C 1.559494 -2.684418 0.794846 -3.000824 0.000900269 -3.000824 C -0.795975 -3.000824 -1.557693 -2.684418 -2.120193 -2.121918 C -2.682693 -1.559418 -2.9991 -0.794769 -2.9991 -0.000823975 C -2.9991 0.796051 -2.682693 1.55777 -2.120193 2.12027 C -1.557693 2.68277 -0.795975 2.999176 0.000900269 2.999176 Z M 0.000900269 2.999176 " transform="matrix(1.333333,0,0,1.333333,273.09255,182.563599)"/>
<path style="fill-rule:nonzero;fill:rgb(100%,49.803922%,5.490196%);fill-opacity:1;stroke-width:1;stroke-linecap:butt;stroke-linejoin:round;stroke:rgb(100%,49.803922%,5.490196%);stroke-opacity:1;stroke-miterlimit:4;" d="M 0.000488281 2.999146 C 0.794434 2.999146 1.559082 2.682739 2.121582 2.120239 C 2.684082 1.557739 3.000488 0.796021 3.000488 -0.000854492 C 3.000488 -0.7948 2.684082 -1.559448 2.121582 -2.121948 C 1.559082 -2.684448 0.794434 -3.000854 0.000488281 -3.000854 C -0.796387 -3.000854 -1.558105 -2.684448 -2.120605 -2.121948 C -2.683105 -1.559448 -2.999512 -0.7948 -2.999512 -0.000854492 C -2.999512 0.796021 -2.683105 1.557739 -2.120605 2.120239 C -1.558105 2.682739 -0.796387 2.999146 0.000488281 2.999146 Z M 0.000488281 2.999146 " transform="matrix(1.333333,0,0,1.333333,273.08138,182.563639)"/>
<path style="fill-rule:nonzero;fill:rgb(100%,49.803922%,5.490196%);fill-opacity:1;stroke-width:1;stroke-linecap:butt;stroke-linejoin:round;stroke:rgb(100%,49.803922%,5.490196%);stroke-opacity:1;stroke-miterlimit:4;" d="M -0.00117493 2.999146 C 0.7957 2.999146 1.557419 2.682739 2.119919 2.120239 C 2.685349 1.557739 2.998825 0.796021 2.998825 -0.000854492 C 2.998825 -0.7948 2.685349 -1.559448 2.119919 -2.121948 C 1.557419 -2.684448 0.7957 -3.000854 -0.00117493 -3.000854 C -0.79512 -3.000854 -1.559769 -2.684448 -2.122269 -2.121948 C -2.684769 -1.559448 -3.001175 -0.7948 -3.001175 -0.000854492 C -3.001175 0.796021 -2.684769 1.557739 -2.122269 2.120239 C -1.559769 2.682739 -0.79512 2.999146 -0.00117493 2.999146 Z M -0.00117493 2.999146 " transform="matrix(1.333333,0,0,1.333333,273.075785,182.563639)"/>
<path style="fill:none;stroke-width:0.8;stroke-linecap:square;stroke-linejoin:miter;stroke:rgb(0%,0%,0%);stroke-opacity:1;stroke-miterlimit:4;" d="M 42.621094 143.100586 L 42.621094 7.201172 " transform="matrix(1.333333,0,0,1.333333,0,0)"/>
<path style="fill:none;stroke-width:0.8;stroke-linecap:square;stroke-linejoin:miter;stroke:rgb(0%,0%,0%);stroke-opacity:1;stroke-miterlimit:4;" d="M 237.919922 143.100586 L 237.919922 7.201172 " transform="matrix(1.333333,0,0,1.333333,0,0)"/>
<path style="fill:none;stroke-width:0.8;stroke-linecap:square;stroke-linejoin:miter;stroke:rgb(0%,0%,0%);stroke-opacity:1;stroke-miterlimit:4;" d="M 42.621094 143.100586 L 237.919922 143.100586 " transform="matrix(1.333333,0,0,1.333333,0,0)"/>
<path style="fill:none;stroke-width:0.8;stroke-linecap:square;stroke-linejoin:miter;stroke:rgb(0%,0%,0%);stroke-opacity:1;stroke-miterlimit:4;" d="M 42.621094 7.201172 L 237.919922 7.201172 " transform="matrix(1.333333,0,0,1.333333,0,0)"/>
</g>
</svg>
