<?xml version="1.0" encoding="UTF-8"?>
<svg xmlns="http://www.w3.org/2000/svg" xmlns:xlink="http://www.w3.org/1999/xlink" width="349.583333" height="240.875" viewBox="0 0 349.583333 240.875" version="1.1">
<defs>
<clipPath id="clip1">
  <path d="M 102 9.601562 L 104 9.601562 L 104 190.800781 L 102 190.800781 Z M 102 9.601562 "/>
</clipPath>
<clipPath id="clip2">
  <path d="M 146 9.601562 L 149 9.601562 L 149 190.800781 L 146 190.800781 Z M 146 9.601562 "/>
</clipPath>
<clipPath id="clip3">
  <path d="M 191 9.601562 L 194 9.601562 L 194 190.800781 L 191 190.800781 Z M 191 9.601562 "/>
</clipPath>
<clipPath id="clip4">
  <path d="M 236 9.601562 L 239 9.601562 L 239 190.800781 L 236 190.800781 Z M 236 9.601562 "/>
</clipPath>
<clipPath id="clip5">
  <path d="M 281 9.601562 L 284 9.601562 L 284 190.800781 L 281 190.800781 Z M 281 9.601562 "/>
</clipPath>
<clipPath id="clip6">
  <path d="M 326 9.601562 L 327.257812 9.601562 L 327.257812 190.800781 L 326 190.800781 Z M 326 9.601562 "/>
</clipPath>
<clipPath id="clip7">
  <path d="M 66.859375 154 L 327.257812 154 L 327.257812 156 L 66.859375 156 Z M 66.859375 154 "/>
</clipPath>
<clipPath id="clip8">
  <path d="M 66.859375 110 L 327.257812 110 L 327.257812 112 L 66.859375 112 Z M 66.859375 110 "/>
</clipPath>
<clipPath id="clip9">
  <path d="M 66.859375 65 L 327.257812 65 L 327.257812 68 L 66.859375 68 Z M 66.859375 65 "/>
</clipPath>
<clipPath id="clip10">
  <path d="M 66.859375 21 L 327.257812 21 L 327.257812 23 L 66.859375 23 Z M 66.859375 21 "/>
</clipPath>
<clipPath id="clip11">
  <path d="M 66.859375 16 L 327.257812 16 L 327.257812 184 L 66.859375 184 Z M 66.859375 16 "/>
</clipPath>
</defs>
<g id="surface1">
<path style=" stroke:none;fill-rule:nonzero;fill:rgb(100%,100%,100%);fill-opacity:1;" d="M 66.859375 190.800781 L 327.257812 190.800781 L 327.257812 9.601562 L 66.859375 9.601562 Z M 66.859375 190.800781 "/>
<g clip-path="url(#clip1)" clip-rule="nonzero">
<path style="fill:none;stroke-width:0.8;stroke-linecap:square;stroke-linejoin:round;stroke:rgb(69.01961%,69.01961%,69.01961%);stroke-opacity:1;stroke-miterlimit:4;" d="M 77.083008 143.100586 L 77.083008 7.201172 " transform="matrix(1.333333,0,0,1.333333,0,0)"/>
</g>
<path style="fill:none;stroke-width:0.8;stroke-linecap:butt;stroke-linejoin:round;stroke:rgb(0%,0%,0%);stroke-opacity:1;stroke-miterlimit:4;" d="M 0.00132751 0.000579834 L 0.00132751 3.498627 " transform="matrix(1.333333,0,0,1.333333,102.775574,190.800008)"/>
<path style=" stroke:none;fill-rule:nonzero;fill:rgb(0%,0%,0%);fill-opacity:1;" d="M 95.730469 200.542969 L 100.894531 200.542969 L 100.894531 201.652344 L 96.9375 201.652344 L 96.9375 204.035156 C 97.125 203.96875 97.316406 203.917969 97.507812 203.886719 C 97.699219 203.855469 97.890625 203.839844 98.082031 203.839844 C 99.167969 203.839844 100.027344 204.136719 100.660156 204.730469 C 101.292969 205.324219 101.609375 206.128906 101.609375 207.144531 C 101.609375 208.191406 101.285156 209.003906 100.632812 209.585938 C 99.984375 210.164062 99.066406 210.453125 97.878906 210.453125 C 97.472656 210.453125 97.054688 210.417969 96.632812 210.351562 C 96.210938 210.28125 95.773438 210.175781 95.320312 210.039062 L 95.320312 208.714844 C 95.710938 208.925781 96.113281 209.085938 96.53125 209.191406 C 96.949219 209.292969 97.390625 209.347656 97.851562 209.347656 C 98.605469 209.347656 99.199219 209.148438 99.636719 208.753906 C 100.074219 208.359375 100.292969 207.824219 100.292969 207.144531 C 100.292969 206.46875 100.074219 205.933594 99.636719 205.539062 C 99.199219 205.144531 98.605469 204.945312 97.851562 204.945312 C 97.5 204.945312 97.152344 204.984375 96.800781 205.0625 C 96.453125 205.140625 96.097656 205.261719 95.730469 205.425781 Z M 95.730469 200.542969 "/>
<path style=" stroke:none;fill-rule:nonzero;fill:rgb(0%,0%,0%);fill-opacity:1;" d="M 107.011719 201.410156 C 106.335938 201.410156 105.828125 201.742188 105.484375 202.410156 C 105.144531 203.074219 104.976562 204.078125 104.976562 205.414062 C 104.976562 206.746094 105.144531 207.746094 105.484375 208.414062 C 105.828125 209.078125 106.335938 209.414062 107.011719 209.414062 C 107.695312 209.414062 108.207031 209.078125 108.546875 208.414062 C 108.886719 207.746094 109.058594 206.746094 109.058594 205.414062 C 109.058594 204.078125 108.886719 203.074219 108.546875 202.410156 C 108.207031 201.742188 107.695312 201.410156 107.011719 201.410156 Z M 107.011719 200.367188 C 108.101562 200.367188 108.9375 200.800781 109.511719 201.664062 C 110.085938 202.523438 110.375 203.773438 110.375 205.414062 C 110.375 207.050781 110.085938 208.300781 109.511719 209.164062 C 108.9375 210.023438 108.101562 210.453125 107.011719 210.453125 C 105.925781 210.453125 105.09375 210.023438 104.515625 209.164062 C 103.941406 208.300781 103.65625 207.050781 103.65625 205.414062 C 103.65625 203.773438 103.941406 202.523438 104.515625 201.664062 C 105.09375 200.800781 105.925781 200.367188 107.011719 200.367188 Z M 107.011719 200.367188 "/>
<g clip-path="url(#clip2)" clip-rule="nonzero">
<path style="fill:none;stroke-width:0.8;stroke-linecap:square;stroke-linejoin:round;stroke:rgb(69.01961%,69.01961%,69.01961%);stroke-opacity:1;stroke-miterlimit:4;" d="M 110.753906 143.100586 L 110.753906 7.201172 " transform="matrix(1.333333,0,0,1.333333,0,0)"/>
</g>
<path style="fill:none;stroke-width:0.8;stroke-linecap:butt;stroke-linejoin:round;stroke:rgb(0%,0%,0%);stroke-opacity:1;stroke-miterlimit:4;" d="M -0.000190735 0.000579834 L -0.000190735 3.498627 " transform="matrix(1.333333,0,0,1.333333,147.672129,190.800008)"/>
<path style=" stroke:none;fill-rule:nonzero;fill:rgb(0%,0%,0%);fill-opacity:1;" d="M 136.601562 209.160156 L 138.75 209.160156 L 138.75 201.742188 L 136.410156 202.210938 L 136.410156 201.011719 L 138.738281 200.542969 L 140.050781 200.542969 L 140.050781 209.160156 L 142.199219 209.160156 L 142.199219 210.265625 L 136.601562 210.265625 Z M 136.601562 209.160156 "/>
<path style=" stroke:none;fill-rule:nonzero;fill:rgb(0%,0%,0%);fill-opacity:1;" d="M 147.667969 201.410156 C 146.992188 201.410156 146.480469 201.742188 146.140625 202.410156 C 145.800781 203.074219 145.628906 204.078125 145.628906 205.414062 C 145.628906 206.746094 145.800781 207.746094 146.140625 208.414062 C 146.480469 209.078125 146.992188 209.414062 147.667969 209.414062 C 148.351562 209.414062 148.859375 209.078125 149.199219 208.414062 C 149.542969 207.746094 149.714844 206.746094 149.714844 205.414062 C 149.714844 204.078125 149.542969 203.074219 149.199219 202.410156 C 148.859375 201.742188 148.351562 201.410156 147.667969 201.410156 Z M 147.667969 200.367188 C 148.757812 200.367188 149.589844 200.800781 150.164062 201.664062 C 150.742188 202.523438 151.027344 203.773438 151.027344 205.414062 C 151.027344 207.050781 150.742188 208.300781 150.164062 209.164062 C 149.589844 210.023438 148.757812 210.453125 147.667969 210.453125 C 146.578125 210.453125 145.746094 210.023438 145.171875 209.164062 C 144.597656 208.300781 144.308594 207.050781 144.308594 205.414062 C 144.308594 203.773438 144.597656 202.523438 145.171875 201.664062 C 145.746094 200.800781 146.578125 200.367188 147.667969 200.367188 Z M 147.667969 200.367188 "/>
<path style=" stroke:none;fill-rule:nonzero;fill:rgb(0%,0%,0%);fill-opacity:1;" d="M 156.152344 201.410156 C 155.472656 201.410156 154.964844 201.742188 154.625 202.410156 C 154.285156 203.074219 154.113281 204.078125 154.113281 205.414062 C 154.113281 206.746094 154.285156 207.746094 154.625 208.414062 C 154.964844 209.078125 155.472656 209.414062 156.152344 209.414062 C 156.832031 209.414062 157.34375 209.078125 157.683594 208.414062 C 158.027344 207.746094 158.195312 206.746094 158.195312 205.414062 C 158.195312 204.078125 158.027344 203.074219 157.683594 202.410156 C 157.34375 201.742188 156.832031 201.410156 156.152344 201.410156 Z M 156.152344 200.367188 C 157.242188 200.367188 158.074219 200.800781 158.648438 201.664062 C 159.222656 202.523438 159.511719 203.773438 159.511719 205.414062 C 159.511719 207.050781 159.222656 208.300781 158.648438 209.164062 C 158.074219 210.023438 157.242188 210.453125 156.152344 210.453125 C 155.0625 210.453125 154.230469 210.023438 153.65625 209.164062 C 153.078125 208.300781 152.792969 207.050781 152.792969 205.414062 C 152.792969 203.773438 153.078125 202.523438 153.65625 201.664062 C 154.230469 200.800781 155.0625 200.367188 156.152344 200.367188 Z M 156.152344 200.367188 "/>
<g clip-path="url(#clip3)" clip-rule="nonzero">
<path style="fill:none;stroke-width:0.8;stroke-linecap:square;stroke-linejoin:round;stroke:rgb(69.01961%,69.01961%,69.01961%);stroke-opacity:1;stroke-miterlimit:4;" d="M 144.427734 143.100586 L 144.427734 7.201172 " transform="matrix(1.333333,0,0,1.333333,0,0)"/>
</g>
<path style="fill:none;stroke-width:0.8;stroke-linecap:butt;stroke-linejoin:round;stroke:rgb(0%,0%,0%);stroke-opacity:1;stroke-miterlimit:4;" d="M 0.0012207 0.000579834 L 0.0012207 3.498627 " transform="matrix(1.333333,0,0,1.333333,192.568685,190.800008)"/>
<path style=" stroke:none;fill-rule:nonzero;fill:rgb(0%,0%,0%);fill-opacity:1;" d="M 181.496094 209.160156 L 183.644531 209.160156 L 183.644531 201.742188 L 181.308594 202.210938 L 181.308594 201.011719 L 183.632812 200.542969 L 184.949219 200.542969 L 184.949219 209.160156 L 187.097656 209.160156 L 187.097656 210.265625 L 181.496094 210.265625 Z M 181.496094 209.160156 "/>
<path style=" stroke:none;fill-rule:nonzero;fill:rgb(0%,0%,0%);fill-opacity:1;" d="M 189.765625 200.542969 L 194.929688 200.542969 L 194.929688 201.652344 L 190.96875 201.652344 L 190.96875 204.035156 C 191.160156 203.96875 191.351562 203.917969 191.542969 203.886719 C 191.734375 203.855469 191.925781 203.839844 192.117188 203.839844 C 193.199219 203.839844 194.058594 204.136719 194.695312 204.730469 C 195.328125 205.324219 195.644531 206.128906 195.644531 207.144531 C 195.644531 208.191406 195.320312 209.003906 194.667969 209.585938 C 194.015625 210.164062 193.097656 210.453125 191.914062 210.453125 C 191.507812 210.453125 191.089844 210.417969 190.667969 210.351562 C 190.242188 210.28125 189.808594 210.175781 189.355469 210.039062 L 189.355469 208.714844 C 189.746094 208.925781 190.148438 209.085938 190.566406 209.191406 C 190.984375 209.292969 191.421875 209.347656 191.886719 209.347656 C 192.636719 209.347656 193.234375 209.148438 193.671875 208.753906 C 194.109375 208.359375 194.328125 207.824219 194.328125 207.144531 C 194.328125 206.46875 194.109375 205.933594 193.671875 205.539062 C 193.234375 205.144531 192.636719 204.945312 191.886719 204.945312 C 191.535156 204.945312 191.183594 204.984375 190.835938 205.0625 C 190.488281 205.140625 190.128906 205.261719 189.765625 205.425781 Z M 189.765625 200.542969 "/>
<path style=" stroke:none;fill-rule:nonzero;fill:rgb(0%,0%,0%);fill-opacity:1;" d="M 201.046875 201.410156 C 200.371094 201.410156 199.863281 201.742188 199.519531 202.410156 C 199.179688 203.074219 199.011719 204.078125 199.011719 205.414062 C 199.011719 206.746094 199.179688 207.746094 199.519531 208.414062 C 199.863281 209.078125 200.371094 209.414062 201.046875 209.414062 C 201.730469 209.414062 202.242188 209.078125 202.582031 208.414062 C 202.921875 207.746094 203.09375 206.746094 203.09375 205.414062 C 203.09375 204.078125 202.921875 203.074219 202.582031 202.410156 C 202.242188 201.742188 201.730469 201.410156 201.046875 201.410156 Z M 201.046875 200.367188 C 202.136719 200.367188 202.96875 200.800781 203.546875 201.664062 C 204.121094 202.523438 204.40625 203.773438 204.40625 205.414062 C 204.40625 207.050781 204.121094 208.300781 203.546875 209.164062 C 202.96875 210.023438 202.136719 210.453125 201.046875 210.453125 C 199.957031 210.453125 199.125 210.023438 198.550781 209.164062 C 197.976562 208.300781 197.6875 207.050781 197.6875 205.414062 C 197.6875 203.773438 197.976562 202.523438 198.550781 201.664062 C 199.125 200.800781 199.957031 200.367188 201.046875 200.367188 Z M 201.046875 200.367188 "/>
<g clip-path="url(#clip4)" clip-rule="nonzero">
<path style="fill:none;stroke-width:0.8;stroke-linecap:square;stroke-linejoin:round;stroke:rgb(69.01961%,69.01961%,69.01961%);stroke-opacity:1;stroke-miterlimit:4;" d="M 178.098633 143.100586 L 178.098633 7.201172 " transform="matrix(1.333333,0,0,1.333333,0,0)"/>
</g>
<path style="fill:none;stroke-width:0.8;stroke-linecap:butt;stroke-linejoin:round;stroke:rgb(0%,0%,0%);stroke-opacity:1;stroke-miterlimit:4;" d="M -0.000289917 0.000579834 L -0.000289917 3.498627 " transform="matrix(1.333333,0,0,1.333333,237.46523,190.800008)"/>
<path style=" stroke:none;fill-rule:nonzero;fill:rgb(0%,0%,0%);fill-opacity:1;" d="M 227.296875 209.160156 L 231.886719 209.160156 L 231.886719 210.265625 L 225.71875 210.265625 L 225.71875 209.160156 C 226.214844 208.640625 226.894531 207.949219 227.757812 207.078125 C 228.621094 206.207031 229.160156 205.648438 229.382812 205.394531 C 229.804688 204.921875 230.097656 204.523438 230.261719 204.195312 C 230.429688 203.867188 230.515625 203.542969 230.515625 203.226562 C 230.515625 202.710938 230.335938 202.289062 229.972656 201.964844 C 229.609375 201.636719 229.136719 201.476562 228.554688 201.476562 C 228.140625 201.476562 227.707031 201.546875 227.25 201.691406 C 226.792969 201.832031 226.304688 202.050781 225.78125 202.339844 L 225.78125 201.011719 C 226.3125 200.800781 226.804688 200.640625 227.265625 200.53125 C 227.726562 200.421875 228.148438 200.367188 228.53125 200.367188 C 229.535156 200.367188 230.339844 200.621094 230.9375 201.125 C 231.535156 201.628906 231.835938 202.300781 231.835938 203.140625 C 231.835938 203.542969 231.761719 203.921875 231.609375 204.277344 C 231.460938 204.636719 231.191406 205.058594 230.792969 205.542969 C 230.6875 205.671875 230.339844 206.035156 229.757812 206.636719 C 229.179688 207.238281 228.359375 208.078125 227.296875 209.160156 Z M 227.296875 209.160156 "/>
<path style=" stroke:none;fill-rule:nonzero;fill:rgb(0%,0%,0%);fill-opacity:1;" d="M 237.460938 201.410156 C 236.785156 201.410156 236.277344 201.742188 235.933594 202.410156 C 235.59375 203.074219 235.421875 204.078125 235.421875 205.414062 C 235.421875 206.746094 235.59375 207.746094 235.933594 208.414062 C 236.277344 209.078125 236.785156 209.414062 237.460938 209.414062 C 238.144531 209.414062 238.652344 209.078125 238.996094 208.414062 C 239.335938 207.746094 239.507812 206.746094 239.507812 205.414062 C 239.507812 204.078125 239.335938 203.074219 238.996094 202.410156 C 238.652344 201.742188 238.144531 201.410156 237.460938 201.410156 Z M 237.460938 200.367188 C 238.550781 200.367188 239.382812 200.800781 239.957031 201.664062 C 240.535156 202.523438 240.820312 203.773438 240.820312 205.414062 C 240.820312 207.050781 240.535156 208.300781 239.957031 209.164062 C 239.382812 210.023438 238.550781 210.453125 237.460938 210.453125 C 236.371094 210.453125 235.539062 210.023438 234.964844 209.164062 C 234.390625 208.300781 234.101562 207.050781 234.101562 205.414062 C 234.101562 203.773438 234.390625 202.523438 234.964844 201.664062 C 235.539062 200.800781 236.371094 200.367188 237.460938 200.367188 Z M 237.460938 200.367188 "/>
<path style=" stroke:none;fill-rule:nonzero;fill:rgb(0%,0%,0%);fill-opacity:1;" d="M 245.945312 201.410156 C 245.265625 201.410156 244.757812 201.742188 244.417969 202.410156 C 244.078125 203.074219 243.90625 204.078125 243.90625 205.414062 C 243.90625 206.746094 244.078125 207.746094 244.417969 208.414062 C 244.757812 209.078125 245.265625 209.414062 245.945312 209.414062 C 246.625 209.414062 247.136719 209.078125 247.476562 208.414062 C 247.820312 207.746094 247.988281 206.746094 247.988281 205.414062 C 247.988281 204.078125 247.820312 203.074219 247.476562 202.410156 C 247.136719 201.742188 246.625 201.410156 245.945312 201.410156 Z M 245.945312 200.367188 C 247.035156 200.367188 247.867188 200.800781 248.441406 201.664062 C 249.015625 202.523438 249.304688 203.773438 249.304688 205.414062 C 249.304688 207.050781 249.015625 208.300781 248.441406 209.164062 C 247.867188 210.023438 247.035156 210.453125 245.945312 210.453125 C 244.855469 210.453125 244.023438 210.023438 243.449219 209.164062 C 242.875 208.300781 242.585938 207.050781 242.585938 205.414062 C 242.585938 203.773438 242.875 202.523438 243.449219 201.664062 C 244.023438 200.800781 244.855469 200.367188 245.945312 200.367188 Z M 245.945312 200.367188 "/>
<g clip-path="url(#clip5)" clip-rule="nonzero">
<path style="fill:none;stroke-width:0.8;stroke-linecap:square;stroke-linejoin:round;stroke:rgb(69.01961%,69.01961%,69.01961%);stroke-opacity:1;stroke-miterlimit:4;" d="M 211.772461 143.100586 L 211.772461 7.201172 " transform="matrix(1.333333,0,0,1.333333,0,0)"/>
</g>
<path style="fill:none;stroke-width:0.8;stroke-linecap:butt;stroke-linejoin:round;stroke:rgb(0%,0%,0%);stroke-opacity:1;stroke-miterlimit:4;" d="M 0.00112915 0.000579834 L 0.00112915 3.498627 " transform="matrix(1.333333,0,0,1.333333,282.361776,190.800008)"/>
<path style=" stroke:none;fill-rule:nonzero;fill:rgb(0%,0%,0%);fill-opacity:1;" d="M 272.195312 209.160156 L 276.785156 209.160156 L 276.785156 210.265625 L 270.613281 210.265625 L 270.613281 209.160156 C 271.113281 208.640625 271.792969 207.949219 272.652344 207.078125 C 273.515625 206.207031 274.058594 205.648438 274.277344 205.394531 C 274.699219 204.921875 274.992188 204.523438 275.160156 204.195312 C 275.328125 203.867188 275.410156 203.542969 275.410156 203.226562 C 275.410156 202.710938 275.230469 202.289062 274.867188 201.964844 C 274.503906 201.636719 274.035156 201.476562 273.453125 201.476562 C 273.039062 201.476562 272.601562 201.546875 272.144531 201.691406 C 271.6875 201.832031 271.199219 202.050781 270.679688 202.339844 L 270.679688 201.011719 C 271.207031 200.800781 271.703125 200.640625 272.160156 200.53125 C 272.621094 200.421875 273.042969 200.367188 273.425781 200.367188 C 274.433594 200.367188 275.234375 200.621094 275.835938 201.125 C 276.433594 201.628906 276.734375 202.300781 276.734375 203.140625 C 276.734375 203.542969 276.65625 203.921875 276.507812 204.277344 C 276.359375 204.636719 276.085938 205.058594 275.691406 205.542969 C 275.582031 205.671875 275.238281 206.035156 274.65625 206.636719 C 274.074219 207.238281 273.253906 208.078125 272.195312 209.160156 Z M 272.195312 209.160156 "/>
<path style=" stroke:none;fill-rule:nonzero;fill:rgb(0%,0%,0%);fill-opacity:1;" d="M 279.558594 200.542969 L 284.722656 200.542969 L 284.722656 201.652344 L 280.761719 201.652344 L 280.761719 204.035156 C 280.953125 203.96875 281.144531 203.917969 281.335938 203.886719 C 281.527344 203.855469 281.71875 203.839844 281.910156 203.839844 C 282.996094 203.839844 283.851562 204.136719 284.488281 204.730469 C 285.121094 205.324219 285.4375 206.128906 285.4375 207.144531 C 285.4375 208.191406 285.113281 209.003906 284.460938 209.585938 C 283.808594 210.164062 282.890625 210.453125 281.707031 210.453125 C 281.300781 210.453125 280.882812 210.417969 280.460938 210.351562 C 280.039062 210.28125 279.601562 210.175781 279.148438 210.039062 L 279.148438 208.714844 C 279.539062 208.925781 279.941406 209.085938 280.359375 209.191406 C 280.777344 209.292969 281.214844 209.347656 281.679688 209.347656 C 282.433594 209.347656 283.027344 209.148438 283.464844 208.753906 C 283.902344 208.359375 284.121094 207.824219 284.121094 207.144531 C 284.121094 206.46875 283.902344 205.933594 283.464844 205.539062 C 283.027344 205.144531 282.433594 204.945312 281.679688 204.945312 C 281.328125 204.945312 280.976562 204.984375 280.628906 205.0625 C 280.28125 205.140625 279.921875 205.261719 279.558594 205.425781 Z M 279.558594 200.542969 "/>
<path style=" stroke:none;fill-rule:nonzero;fill:rgb(0%,0%,0%);fill-opacity:1;" d="M 290.839844 201.410156 C 290.164062 201.410156 289.65625 201.742188 289.3125 202.410156 C 288.972656 203.074219 288.804688 204.078125 288.804688 205.414062 C 288.804688 206.746094 288.972656 207.746094 289.3125 208.414062 C 289.65625 209.078125 290.164062 209.414062 290.839844 209.414062 C 291.523438 209.414062 292.035156 209.078125 292.375 208.414062 C 292.714844 207.746094 292.886719 206.746094 292.886719 205.414062 C 292.886719 204.078125 292.714844 203.074219 292.375 202.410156 C 292.035156 201.742188 291.523438 201.410156 290.839844 201.410156 Z M 290.839844 200.367188 C 291.929688 200.367188 292.761719 200.800781 293.339844 201.664062 C 293.914062 202.523438 294.199219 203.773438 294.199219 205.414062 C 294.199219 207.050781 293.914062 208.300781 293.339844 209.164062 C 292.761719 210.023438 291.929688 210.453125 290.839844 210.453125 C 289.75 210.453125 288.917969 210.023438 288.34375 209.164062 C 287.769531 208.300781 287.480469 207.050781 287.480469 205.414062 C 287.480469 203.773438 287.769531 202.523438 288.34375 201.664062 C 288.917969 200.800781 289.75 200.367188 290.839844 200.367188 Z M 290.839844 200.367188 "/>
<g clip-path="url(#clip6)" clip-rule="nonzero">
<path style="fill:none;stroke-width:0.8;stroke-linecap:square;stroke-linejoin:round;stroke:rgb(69.01961%,69.01961%,69.01961%);stroke-opacity:1;stroke-miterlimit:4;" d="M 245.443359 143.100586 L 245.443359 7.201172 " transform="matrix(1.333333,0,0,1.333333,0,0)"/>
</g>
<path style="fill:none;stroke-width:0.8;stroke-linecap:butt;stroke-linejoin:round;stroke:rgb(0%,0%,0%);stroke-opacity:1;stroke-miterlimit:4;" d="M -0.000396729 0.000579834 L -0.000396729 3.498627 " transform="matrix(1.333333,0,0,1.333333,327.258341,190.800008)"/>
<path style=" stroke:none;fill-rule:nonzero;fill:rgb(0%,0%,0%);fill-opacity:1;" d="M 319.945312 205.023438 C 320.574219 205.15625 321.0625 205.4375 321.417969 205.863281 C 321.769531 206.289062 321.949219 206.816406 321.949219 207.441406 C 321.949219 208.398438 321.617188 209.140625 320.957031 209.667969 C 320.296875 210.191406 319.359375 210.453125 318.144531 210.453125 C 317.738281 210.453125 317.320312 210.414062 316.886719 210.332031 C 316.457031 210.253906 316.007812 210.132812 315.550781 209.972656 L 315.550781 208.703125 C 315.914062 208.914062 316.3125 209.074219 316.746094 209.183594 C 317.179688 209.292969 317.632812 209.347656 318.109375 209.347656 C 318.933594 209.347656 319.558594 209.183594 319.992188 208.859375 C 320.421875 208.535156 320.640625 208.058594 320.640625 207.441406 C 320.640625 206.867188 320.4375 206.417969 320.039062 206.097656 C 319.636719 205.773438 319.078125 205.609375 318.363281 205.609375 L 317.230469 205.609375 L 317.230469 204.527344 L 318.414062 204.527344 C 319.058594 204.527344 319.554688 204.398438 319.898438 204.140625 C 320.242188 203.882812 320.414062 203.511719 320.414062 203.023438 C 320.414062 202.527344 320.234375 202.144531 319.882812 201.878906 C 319.527344 201.609375 319.023438 201.476562 318.363281 201.476562 C 318 201.476562 317.613281 201.515625 317.203125 201.59375 C 316.789062 201.671875 316.335938 201.792969 315.839844 201.957031 L 315.839844 200.785156 C 316.339844 200.648438 316.808594 200.542969 317.246094 200.472656 C 317.683594 200.402344 318.09375 200.367188 318.480469 200.367188 C 319.476562 200.367188 320.265625 200.597656 320.847656 201.050781 C 321.429688 201.503906 321.722656 202.117188 321.722656 202.886719 C 321.722656 203.425781 321.566406 203.882812 321.257812 204.253906 C 320.949219 204.621094 320.511719 204.878906 319.945312 205.023438 Z M 319.945312 205.023438 "/>
<path style=" stroke:none;fill-rule:nonzero;fill:rgb(0%,0%,0%);fill-opacity:1;" d="M 327.253906 201.410156 C 326.578125 201.410156 326.070312 201.742188 325.726562 202.410156 C 325.386719 203.074219 325.214844 204.078125 325.214844 205.414062 C 325.214844 206.746094 325.386719 207.746094 325.726562 208.414062 C 326.070312 209.078125 326.578125 209.414062 327.253906 209.414062 C 327.9375 209.414062 328.445312 209.078125 328.789062 208.414062 C 329.128906 207.746094 329.300781 206.746094 329.300781 205.414062 C 329.300781 204.078125 329.128906 203.074219 328.789062 202.410156 C 328.445312 201.742188 327.9375 201.410156 327.253906 201.410156 Z M 327.253906 200.367188 C 328.34375 200.367188 329.175781 200.800781 329.75 201.664062 C 330.328125 202.523438 330.613281 203.773438 330.613281 205.414062 C 330.613281 207.050781 330.328125 208.300781 329.75 209.164062 C 329.175781 210.023438 328.34375 210.453125 327.253906 210.453125 C 326.164062 210.453125 325.332031 210.023438 324.757812 209.164062 C 324.183594 208.300781 323.894531 207.050781 323.894531 205.414062 C 323.894531 203.773438 324.183594 202.523438 324.757812 201.664062 C 325.332031 200.800781 326.164062 200.367188 327.253906 200.367188 Z M 327.253906 200.367188 "/>
<path style=" stroke:none;fill-rule:nonzero;fill:rgb(0%,0%,0%);fill-opacity:1;" d="M 335.738281 201.410156 C 335.0625 201.410156 334.550781 201.742188 334.210938 202.410156 C 333.871094 203.074219 333.699219 204.078125 333.699219 205.414062 C 333.699219 206.746094 333.871094 207.746094 334.210938 208.414062 C 334.550781 209.078125 335.0625 209.414062 335.738281 209.414062 C 336.417969 209.414062 336.929688 209.078125 337.269531 208.414062 C 337.613281 207.746094 337.78125 206.746094 337.78125 205.414062 C 337.78125 204.078125 337.613281 203.074219 337.269531 202.410156 C 336.929688 201.742188 336.417969 201.410156 335.738281 201.410156 Z M 335.738281 200.367188 C 336.828125 200.367188 337.660156 200.800781 338.234375 201.664062 C 338.808594 202.523438 339.097656 203.773438 339.097656 205.414062 C 339.097656 207.050781 338.808594 208.300781 338.234375 209.164062 C 337.660156 210.023438 336.828125 210.453125 335.738281 210.453125 C 334.648438 210.453125 333.816406 210.023438 333.242188 209.164062 C 332.667969 208.300781 332.378906 207.050781 332.378906 205.414062 C 332.378906 203.773438 332.667969 202.523438 333.242188 201.664062 C 333.816406 200.800781 334.648438 200.367188 335.738281 200.367188 Z M 335.738281 200.367188 "/>
<path style=" stroke:none;fill-rule:nonzero;fill:rgb(0%,0%,0%);fill-opacity:1;" d="M 184.246094 224.554688 L 184.246094 225.140625 L 178.738281 225.140625 C 178.792969 225.964844 179.039062 226.59375 179.484375 227.027344 C 179.929688 227.460938 180.550781 227.675781 181.34375 227.675781 C 181.804688 227.675781 182.25 227.617188 182.679688 227.507812 C 183.113281 227.394531 183.542969 227.222656 183.96875 226.996094 L 183.96875 228.132812 C 183.539062 228.3125 183.097656 228.453125 182.644531 228.546875 C 182.195312 228.644531 181.738281 228.691406 181.273438 228.691406 C 180.109375 228.691406 179.1875 228.351562 178.507812 227.675781 C 177.828125 227 177.488281 226.082031 177.488281 224.925781 C 177.488281 223.734375 177.8125 222.789062 178.457031 222.085938 C 179.101562 221.386719 179.96875 221.035156 181.066406 221.035156 C 182.046875 221.035156 182.820312 221.351562 183.390625 221.984375 C 183.960938 222.613281 184.246094 223.472656 184.246094 224.554688 Z M 183.050781 224.203125 C 183.042969 223.550781 182.859375 223.027344 182.5 222.636719 C 182.140625 222.246094 181.667969 222.050781 181.078125 222.050781 C 180.410156 222.050781 179.875 222.238281 179.472656 222.617188 C 179.070312 222.996094 178.839844 223.527344 178.777344 224.210938 Z M 183.050781 224.203125 "/>
<path style=" stroke:none;fill-rule:nonzero;fill:rgb(0%,0%,0%);fill-opacity:1;" d="M 187.371094 227.410156 L 187.371094 231.273438 L 186.167969 231.273438 L 186.167969 221.210938 L 187.371094 221.210938 L 187.371094 222.316406 C 187.625 221.882812 187.941406 221.5625 188.324219 221.351562 C 188.710938 221.140625 189.167969 221.035156 189.703125 221.035156 C 190.589844 221.035156 191.308594 221.386719 191.863281 222.089844 C 192.414062 222.792969 192.691406 223.714844 192.691406 224.863281 C 192.691406 226.007812 192.414062 226.933594 191.863281 227.636719 C 191.308594 228.339844 190.589844 228.691406 189.703125 228.691406 C 189.167969 228.691406 188.710938 228.585938 188.324219 228.375 C 187.941406 228.164062 187.625 227.839844 187.371094 227.410156 Z M 191.449219 224.863281 C 191.449219 223.980469 191.269531 223.289062 190.90625 222.789062 C 190.542969 222.289062 190.042969 222.039062 189.410156 222.039062 C 188.777344 222.039062 188.277344 222.289062 187.914062 222.789062 C 187.554688 223.289062 187.371094 223.980469 187.371094 224.863281 C 187.371094 225.742188 187.554688 226.433594 187.914062 226.933594 C 188.277344 227.4375 188.777344 227.6875 189.410156 227.6875 C 190.042969 227.6875 190.542969 227.4375 190.90625 226.933594 C 191.269531 226.433594 191.449219 225.742188 191.449219 224.863281 Z M 191.449219 224.863281 "/>
<path style=" stroke:none;fill-rule:nonzero;fill:rgb(0%,0%,0%);fill-opacity:1;" d="M 197.503906 222.050781 C 196.859375 222.050781 196.351562 222.300781 195.980469 222.800781 C 195.605469 223.304688 195.417969 223.992188 195.417969 224.863281 C 195.417969 225.734375 195.605469 226.421875 195.976562 226.921875 C 196.347656 227.425781 196.855469 227.675781 197.503906 227.675781 C 198.140625 227.675781 198.648438 227.421875 199.019531 226.921875 C 199.390625 226.417969 199.578125 225.730469 199.578125 224.863281 C 199.578125 224 199.390625 223.3125 199.019531 222.808594 C 198.648438 222.304688 198.140625 222.050781 197.503906 222.050781 Z M 197.503906 221.035156 C 198.542969 221.035156 199.363281 221.375 199.957031 222.050781 C 200.550781 222.726562 200.851562 223.664062 200.851562 224.863281 C 200.851562 226.054688 200.550781 226.992188 199.957031 227.671875 C 199.363281 228.351562 198.542969 228.691406 197.503906 228.691406 C 196.457031 228.691406 195.636719 228.351562 195.042969 227.671875 C 194.453125 226.992188 194.15625 226.054688 194.15625 224.863281 C 194.15625 223.664062 194.453125 222.726562 195.042969 222.050781 C 195.636719 221.375 196.457031 221.035156 197.503906 221.035156 Z M 197.503906 221.035156 "/>
<path style=" stroke:none;fill-rule:nonzero;fill:rgb(0%,0%,0%);fill-opacity:1;" d="M 208.082031 221.488281 L 208.082031 222.609375 C 207.742188 222.421875 207.402344 222.28125 207.0625 222.191406 C 206.722656 222.097656 206.378906 222.050781 206.03125 222.050781 C 205.253906 222.050781 204.652344 222.296875 204.21875 222.789062 C 203.789062 223.28125 203.578125 223.972656 203.578125 224.863281 C 203.578125 225.753906 203.789062 226.445312 204.21875 226.9375 C 204.652344 227.429688 205.253906 227.675781 206.03125 227.675781 C 206.378906 227.675781 206.722656 227.628906 207.0625 227.535156 C 207.402344 227.441406 207.742188 227.300781 208.082031 227.113281 L 208.082031 228.222656 C 207.746094 228.378906 207.402344 228.496094 207.042969 228.574219 C 206.6875 228.652344 206.304688 228.691406 205.902344 228.691406 C 204.800781 228.691406 203.929688 228.347656 203.28125 227.65625 C 202.636719 226.964844 202.3125 226.035156 202.3125 224.863281 C 202.3125 223.671875 202.640625 222.738281 203.292969 222.058594 C 203.945312 221.375 204.84375 221.035156 205.980469 221.035156 C 206.347656 221.035156 206.707031 221.074219 207.058594 221.148438 C 207.410156 221.226562 207.753906 221.339844 208.082031 221.488281 Z M 208.082031 221.488281 "/>
<path style=" stroke:none;fill-rule:nonzero;fill:rgb(0%,0%,0%);fill-opacity:1;" d="M 216.226562 224.101562 L 216.226562 228.503906 L 215.03125 228.503906 L 215.03125 224.140625 C 215.03125 223.449219 214.894531 222.933594 214.625 222.589844 C 214.355469 222.25 213.953125 222.078125 213.414062 222.078125 C 212.769531 222.078125 212.257812 222.285156 211.882812 222.695312 C 211.511719 223.105469 211.324219 223.667969 211.324219 224.382812 L 211.324219 228.503906 L 210.121094 228.503906 L 210.121094 218.371094 L 211.324219 218.371094 L 211.324219 222.34375 C 211.609375 221.90625 211.949219 221.578125 212.335938 221.359375 C 212.726562 221.144531 213.171875 221.035156 213.683594 221.035156 C 214.519531 221.035156 215.152344 221.292969 215.582031 221.8125 C 216.011719 222.332031 216.226562 223.09375 216.226562 224.101562 Z M 216.226562 224.101562 "/>
<g clip-path="url(#clip7)" clip-rule="nonzero">
<path style="fill:none;stroke-width:0.8;stroke-linecap:square;stroke-linejoin:round;stroke:rgb(69.01961%,69.01961%,69.01961%);stroke-opacity:1;stroke-miterlimit:4;" d="M 50.144531 116.334961 L 245.443359 116.334961 " transform="matrix(1.333333,0,0,1.333333,0,0)"/>
</g>
<path style="fill:none;stroke-width:0.8;stroke-linecap:butt;stroke-linejoin:round;stroke:rgb(0%,0%,0%);stroke-opacity:1;stroke-miterlimit:4;" d="M 0.000782013 0.000816345 L -3.500195 0.000816345 " transform="matrix(1.333333,0,0,1.333333,66.858332,155.112193)"/>
<path style=" stroke:none;fill-rule:nonzero;fill:rgb(0%,0%,0%);fill-opacity:1;" d="M 32.074219 151.324219 C 31.398438 151.324219 30.890625 151.65625 30.546875 152.324219 C 30.207031 152.988281 30.039062 153.992188 30.039062 155.328125 C 30.039062 156.660156 30.207031 157.660156 30.546875 158.324219 C 30.890625 158.992188 31.398438 159.324219 32.074219 159.324219 C 32.757812 159.324219 33.269531 158.992188 33.609375 158.324219 C 33.949219 157.660156 34.121094 156.660156 34.121094 155.328125 C 34.121094 153.992188 33.949219 152.988281 33.609375 152.324219 C 33.269531 151.65625 32.757812 151.324219 32.074219 151.324219 Z M 32.074219 150.28125 C 33.164062 150.28125 33.996094 150.714844 34.574219 151.574219 C 35.148438 152.4375 35.433594 153.6875 35.433594 155.328125 C 35.433594 156.964844 35.148438 158.214844 34.574219 159.074219 C 33.996094 159.9375 33.164062 160.367188 32.074219 160.367188 C 30.984375 160.367188 30.152344 159.9375 29.578125 159.074219 C 29.003906 158.214844 28.714844 156.964844 28.714844 155.328125 C 28.714844 153.6875 29.003906 152.4375 29.578125 151.574219 C 30.152344 150.714844 30.984375 150.28125 32.074219 150.28125 Z M 32.074219 150.28125 "/>
<path style=" stroke:none;fill-rule:nonzero;fill:rgb(0%,0%,0%);fill-opacity:1;" d="M 37.746094 158.523438 L 39.121094 158.523438 L 39.121094 160.179688 L 37.746094 160.179688 Z M 37.746094 158.523438 "/>
<path style=" stroke:none;fill-rule:nonzero;fill:rgb(0%,0%,0%);fill-opacity:1;" d="M 44.796875 151.324219 C 44.121094 151.324219 43.609375 151.65625 43.269531 152.324219 C 42.929688 152.988281 42.757812 153.992188 42.757812 155.328125 C 42.757812 156.660156 42.929688 157.660156 43.269531 158.324219 C 43.609375 158.992188 44.121094 159.324219 44.796875 159.324219 C 45.476562 159.324219 45.988281 158.992188 46.328125 158.324219 C 46.671875 157.660156 46.84375 156.660156 46.84375 155.328125 C 46.84375 153.992188 46.671875 152.988281 46.328125 152.324219 C 45.988281 151.65625 45.476562 151.324219 44.796875 151.324219 Z M 44.796875 150.28125 C 45.886719 150.28125 46.71875 150.714844 47.292969 151.574219 C 47.871094 152.4375 48.15625 153.6875 48.15625 155.328125 C 48.15625 156.964844 47.871094 158.214844 47.292969 159.074219 C 46.71875 159.9375 45.886719 160.367188 44.796875 160.367188 C 43.707031 160.367188 42.875 159.9375 42.300781 159.074219 C 41.726562 158.214844 41.4375 156.964844 41.4375 155.328125 C 41.4375 153.6875 41.726562 152.4375 42.300781 151.574219 C 42.875 150.714844 43.707031 150.28125 44.796875 150.28125 Z M 44.796875 150.28125 "/>
<path style=" stroke:none;fill-rule:nonzero;fill:rgb(0%,0%,0%);fill-opacity:1;" d="M 50.480469 150.457031 L 55.644531 150.457031 L 55.644531 151.566406 L 51.6875 151.566406 L 51.6875 153.945312 C 51.875 153.882812 52.066406 153.832031 52.257812 153.800781 C 52.449219 153.769531 52.640625 153.753906 52.832031 153.753906 C 53.917969 153.753906 54.773438 154.050781 55.410156 154.644531 C 56.042969 155.238281 56.359375 156.042969 56.359375 157.058594 C 56.359375 158.105469 56.035156 158.917969 55.382812 159.5 C 54.730469 160.078125 53.8125 160.367188 52.628906 160.367188 C 52.222656 160.367188 51.804688 160.332031 51.382812 160.261719 C 50.960938 160.195312 50.523438 160.089844 50.070312 159.949219 L 50.070312 158.628906 C 50.460938 158.839844 50.863281 159 51.28125 159.101562 C 51.699219 159.207031 52.136719 159.257812 52.601562 159.257812 C 53.355469 159.257812 53.949219 159.0625 54.386719 158.667969 C 54.824219 158.273438 55.042969 157.738281 55.042969 157.058594 C 55.042969 156.382812 54.824219 155.847656 54.386719 155.453125 C 53.949219 155.058594 53.355469 154.859375 52.601562 154.859375 C 52.25 154.859375 51.898438 154.898438 51.550781 154.976562 C 51.203125 155.054688 50.84375 155.175781 50.480469 155.339844 Z M 50.480469 150.457031 "/>
<g clip-path="url(#clip8)" clip-rule="nonzero">
<path style="fill:none;stroke-width:0.8;stroke-linecap:square;stroke-linejoin:round;stroke:rgb(69.01961%,69.01961%,69.01961%);stroke-opacity:1;stroke-miterlimit:4;" d="M 50.144531 83.068359 L 245.443359 83.068359 " transform="matrix(1.333333,0,0,1.333333,0,0)"/>
</g>
<path style="fill:none;stroke-width:0.8;stroke-linecap:butt;stroke-linejoin:round;stroke:rgb(0%,0%,0%);stroke-opacity:1;stroke-miterlimit:4;" d="M 0.000782013 -0.000709534 L -3.500195 -0.000709534 " transform="matrix(1.333333,0,0,1.333333,66.858332,110.758759)"/>
<path style=" stroke:none;fill-rule:nonzero;fill:rgb(0%,0%,0%);fill-opacity:1;" d="M 32.074219 106.96875 C 31.398438 106.96875 30.890625 107.304688 30.546875 107.96875 C 30.207031 108.636719 30.039062 109.636719 30.039062 110.972656 C 30.039062 112.304688 30.207031 113.304688 30.546875 113.972656 C 30.890625 114.640625 31.398438 114.972656 32.074219 114.972656 C 32.757812 114.972656 33.269531 114.640625 33.609375 113.972656 C 33.949219 113.304688 34.121094 112.304688 34.121094 110.972656 C 34.121094 109.636719 33.949219 108.636719 33.609375 107.96875 C 33.269531 107.304688 32.757812 106.96875 32.074219 106.96875 Z M 32.074219 105.929688 C 33.164062 105.929688 33.996094 106.359375 34.574219 107.222656 C 35.148438 108.082031 35.433594 109.335938 35.433594 110.972656 C 35.433594 112.609375 35.148438 113.859375 34.574219 114.722656 C 33.996094 115.582031 33.164062 116.015625 32.074219 116.015625 C 30.984375 116.015625 30.152344 115.582031 29.578125 114.722656 C 29.003906 113.859375 28.714844 112.609375 28.714844 110.972656 C 28.714844 109.335938 29.003906 108.082031 29.578125 107.222656 C 30.152344 106.359375 30.984375 105.929688 32.074219 105.929688 Z M 32.074219 105.929688 "/>
<path style=" stroke:none;fill-rule:nonzero;fill:rgb(0%,0%,0%);fill-opacity:1;" d="M 37.746094 114.171875 L 39.121094 114.171875 L 39.121094 115.824219 L 37.746094 115.824219 Z M 37.746094 114.171875 "/>
<path style=" stroke:none;fill-rule:nonzero;fill:rgb(0%,0%,0%);fill-opacity:1;" d="M 42.214844 114.71875 L 44.359375 114.71875 L 44.359375 107.300781 L 42.023438 107.769531 L 42.023438 106.574219 L 44.347656 106.105469 L 45.664062 106.105469 L 45.664062 114.71875 L 47.8125 114.71875 L 47.8125 115.824219 L 42.214844 115.824219 Z M 42.214844 114.71875 "/>
<path style=" stroke:none;fill-rule:nonzero;fill:rgb(0%,0%,0%);fill-opacity:1;" d="M 53.28125 106.96875 C 52.601562 106.96875 52.09375 107.304688 51.753906 107.96875 C 51.410156 108.636719 51.242188 109.636719 51.242188 110.972656 C 51.242188 112.304688 51.410156 113.304688 51.753906 113.972656 C 52.09375 114.640625 52.601562 114.972656 53.28125 114.972656 C 53.960938 114.972656 54.472656 114.640625 54.8125 113.972656 C 55.15625 113.304688 55.324219 112.304688 55.324219 110.972656 C 55.324219 109.636719 55.15625 108.636719 54.8125 107.96875 C 54.472656 107.304688 53.960938 106.96875 53.28125 106.96875 Z M 53.28125 105.929688 C 54.371094 105.929688 55.203125 106.359375 55.777344 107.222656 C 56.351562 108.082031 56.640625 109.335938 56.640625 110.972656 C 56.640625 112.609375 56.351562 113.859375 55.777344 114.722656 C 55.203125 115.582031 54.371094 116.015625 53.28125 116.015625 C 52.191406 116.015625 51.359375 115.582031 50.785156 114.722656 C 50.207031 113.859375 49.921875 112.609375 49.921875 110.972656 C 49.921875 109.335938 50.207031 108.082031 50.785156 107.222656 C 51.359375 106.359375 52.191406 105.929688 53.28125 105.929688 Z M 53.28125 105.929688 "/>
<g clip-path="url(#clip9)" clip-rule="nonzero">
<path style="fill:none;stroke-width:0.8;stroke-linecap:square;stroke-linejoin:round;stroke:rgb(69.01961%,69.01961%,69.01961%);stroke-opacity:1;stroke-miterlimit:4;" d="M 50.144531 49.804688 L 245.443359 49.804688 " transform="matrix(1.333333,0,0,1.333333,0,0)"/>
</g>
<path style="fill:none;stroke-width:0.8;stroke-linecap:butt;stroke-linejoin:round;stroke:rgb(0%,0%,0%);stroke-opacity:1;stroke-miterlimit:4;" d="M 0.000782013 0.00069809 L -3.500195 0.00069809 " transform="matrix(1.333333,0,0,1.333333,66.858332,66.405319)"/>
<path style=" stroke:none;fill-rule:nonzero;fill:rgb(0%,0%,0%);fill-opacity:1;" d="M 32.074219 62.617188 C 31.398438 62.617188 30.890625 62.949219 30.546875 63.617188 C 30.207031 64.28125 30.039062 65.285156 30.039062 66.621094 C 30.039062 67.953125 30.207031 68.953125 30.546875 69.617188 C 30.890625 70.285156 31.398438 70.617188 32.074219 70.617188 C 32.757812 70.617188 33.269531 70.285156 33.609375 69.617188 C 33.949219 68.953125 34.121094 67.953125 34.121094 66.621094 C 34.121094 65.285156 33.949219 64.28125 33.609375 63.617188 C 33.269531 62.949219 32.757812 62.617188 32.074219 62.617188 Z M 32.074219 61.574219 C 33.164062 61.574219 33.996094 62.007812 34.574219 62.867188 C 35.148438 63.730469 35.433594 64.980469 35.433594 66.621094 C 35.433594 68.257812 35.148438 69.507812 34.574219 70.367188 C 33.996094 71.230469 33.164062 71.660156 32.074219 71.660156 C 30.984375 71.660156 30.152344 71.230469 29.578125 70.367188 C 29.003906 69.507812 28.714844 68.257812 28.714844 66.621094 C 28.714844 64.980469 29.003906 63.730469 29.578125 62.867188 C 30.152344 62.007812 30.984375 61.574219 32.074219 61.574219 Z M 32.074219 61.574219 "/>
<path style=" stroke:none;fill-rule:nonzero;fill:rgb(0%,0%,0%);fill-opacity:1;" d="M 37.746094 69.816406 L 39.121094 69.816406 L 39.121094 71.472656 L 37.746094 71.472656 Z M 37.746094 69.816406 "/>
<path style=" stroke:none;fill-rule:nonzero;fill:rgb(0%,0%,0%);fill-opacity:1;" d="M 42.214844 70.363281 L 44.359375 70.363281 L 44.359375 62.949219 L 42.023438 63.417969 L 42.023438 62.21875 L 44.347656 61.75 L 45.664062 61.75 L 45.664062 70.363281 L 47.8125 70.363281 L 47.8125 71.472656 L 42.214844 71.472656 Z M 42.214844 70.363281 "/>
<path style=" stroke:none;fill-rule:nonzero;fill:rgb(0%,0%,0%);fill-opacity:1;" d="M 50.480469 61.75 L 55.644531 61.75 L 55.644531 62.859375 L 51.6875 62.859375 L 51.6875 65.238281 C 51.875 65.175781 52.066406 65.125 52.257812 65.09375 C 52.449219 65.0625 52.640625 65.046875 52.832031 65.046875 C 53.917969 65.046875 54.773438 65.34375 55.410156 65.9375 C 56.042969 66.53125 56.359375 67.335938 56.359375 68.351562 C 56.359375 69.398438 56.035156 70.210938 55.382812 70.792969 C 54.730469 71.371094 53.8125 71.660156 52.628906 71.660156 C 52.222656 71.660156 51.804688 71.625 51.382812 71.554688 C 50.960938 71.488281 50.523438 71.382812 50.070312 71.242188 L 50.070312 69.921875 C 50.460938 70.132812 50.863281 70.292969 51.28125 70.394531 C 51.699219 70.5 52.136719 70.550781 52.601562 70.550781 C 53.355469 70.550781 53.949219 70.355469 54.386719 69.960938 C 54.824219 69.566406 55.042969 69.03125 55.042969 68.351562 C 55.042969 67.675781 54.824219 67.140625 54.386719 66.746094 C 53.949219 66.351562 53.355469 66.152344 52.601562 66.152344 C 52.25 66.152344 51.898438 66.191406 51.550781 66.269531 C 51.203125 66.347656 50.84375 66.46875 50.480469 66.632812 Z M 50.480469 61.75 "/>
<g clip-path="url(#clip10)" clip-rule="nonzero">
<path style="fill:none;stroke-width:0.8;stroke-linecap:square;stroke-linejoin:round;stroke:rgb(69.01961%,69.01961%,69.01961%);stroke-opacity:1;stroke-miterlimit:4;" d="M 50.144531 16.538086 L 245.443359 16.538086 " transform="matrix(1.333333,0,0,1.333333,0,0)"/>
</g>
<path style="fill:none;stroke-width:0.8;stroke-linecap:butt;stroke-linejoin:round;stroke:rgb(0%,0%,0%);stroke-opacity:1;stroke-miterlimit:4;" d="M 0.000782013 -0.000823975 L -3.500195 -0.000823975 " transform="matrix(1.333333,0,0,1.333333,66.858332,22.05188)"/>
<path style=" stroke:none;fill-rule:nonzero;fill:rgb(0%,0%,0%);fill-opacity:1;" d="M 32.074219 18.261719 C 31.398438 18.261719 30.890625 18.597656 30.546875 19.261719 C 30.207031 19.929688 30.039062 20.929688 30.039062 22.265625 C 30.039062 23.597656 30.207031 24.597656 30.546875 25.265625 C 30.890625 25.933594 31.398438 26.265625 32.074219 26.265625 C 32.757812 26.265625 33.269531 25.933594 33.609375 25.265625 C 33.949219 24.597656 34.121094 23.597656 34.121094 22.265625 C 34.121094 20.929688 33.949219 19.929688 33.609375 19.261719 C 33.269531 18.597656 32.757812 18.261719 32.074219 18.261719 Z M 32.074219 17.222656 C 33.164062 17.222656 33.996094 17.652344 34.574219 18.515625 C 35.148438 19.375 35.433594 20.628906 35.433594 22.265625 C 35.433594 23.902344 35.148438 25.152344 34.574219 26.015625 C 33.996094 26.875 33.164062 27.308594 32.074219 27.308594 C 30.984375 27.308594 30.152344 26.875 29.578125 26.015625 C 29.003906 25.152344 28.714844 23.902344 28.714844 22.265625 C 28.714844 20.628906 29.003906 19.375 29.578125 18.515625 C 30.152344 17.652344 30.984375 17.222656 32.074219 17.222656 Z M 32.074219 17.222656 "/>
<path style=" stroke:none;fill-rule:nonzero;fill:rgb(0%,0%,0%);fill-opacity:1;" d="M 37.746094 25.464844 L 39.121094 25.464844 L 39.121094 27.117188 L 37.746094 27.117188 Z M 37.746094 25.464844 "/>
<path style=" stroke:none;fill-rule:nonzero;fill:rgb(0%,0%,0%);fill-opacity:1;" d="M 43.117188 26.011719 L 47.707031 26.011719 L 47.707031 27.117188 L 41.535156 27.117188 L 41.535156 26.011719 C 42.035156 25.496094 42.714844 24.800781 43.574219 23.933594 C 44.4375 23.0625 44.980469 22.5 45.199219 22.246094 C 45.621094 21.773438 45.914062 21.375 46.082031 21.046875 C 46.25 20.71875 46.332031 20.398438 46.332031 20.078125 C 46.332031 19.5625 46.152344 19.140625 45.789062 18.816406 C 45.425781 18.492188 44.957031 18.328125 44.375 18.328125 C 43.960938 18.328125 43.527344 18.398438 43.066406 18.542969 C 42.609375 18.6875 42.121094 18.902344 41.601562 19.195312 L 41.601562 17.867188 C 42.128906 17.652344 42.625 17.492188 43.082031 17.382812 C 43.546875 17.277344 43.964844 17.222656 44.347656 17.222656 C 45.355469 17.222656 46.15625 17.472656 46.757812 17.976562 C 47.355469 18.480469 47.65625 19.152344 47.65625 19.996094 C 47.65625 20.394531 47.578125 20.773438 47.429688 21.132812 C 47.28125 21.488281 47.007812 21.910156 46.613281 22.398438 C 46.503906 22.523438 46.160156 22.886719 45.578125 23.488281 C 44.996094 24.089844 44.175781 24.929688 43.117188 26.011719 Z M 43.117188 26.011719 "/>
<path style=" stroke:none;fill-rule:nonzero;fill:rgb(0%,0%,0%);fill-opacity:1;" d="M 53.28125 18.261719 C 52.601562 18.261719 52.09375 18.597656 51.753906 19.261719 C 51.410156 19.929688 51.242188 20.929688 51.242188 22.265625 C 51.242188 23.597656 51.410156 24.597656 51.753906 25.265625 C 52.09375 25.933594 52.601562 26.265625 53.28125 26.265625 C 53.960938 26.265625 54.472656 25.933594 54.8125 25.265625 C 55.15625 24.597656 55.324219 23.597656 55.324219 22.265625 C 55.324219 20.929688 55.15625 19.929688 54.8125 19.261719 C 54.472656 18.597656 53.960938 18.261719 53.28125 18.261719 Z M 53.28125 17.222656 C 54.371094 17.222656 55.203125 17.652344 55.777344 18.515625 C 56.351562 19.375 56.640625 20.628906 56.640625 22.265625 C 56.640625 23.902344 56.351562 25.152344 55.777344 26.015625 C 55.203125 26.875 54.371094 27.308594 53.28125 27.308594 C 52.191406 27.308594 51.359375 26.875 50.785156 26.015625 C 50.207031 25.152344 49.921875 23.902344 49.921875 22.265625 C 49.921875 20.628906 50.207031 19.375 50.785156 18.515625 C 51.359375 17.652344 52.191406 17.222656 53.28125 17.222656 Z M 53.28125 17.222656 "/>
<path style=" stroke:none;fill-rule:nonzero;fill:rgb(0%,0%,0%);fill-opacity:1;" d="M 9.601562 111.820312 L 9.601562 110.621094 L 19.730469 110.621094 L 19.730469 111.820312 Z M 9.601562 111.820312 "/>
<path style=" stroke:none;fill-rule:nonzero;fill:rgb(0%,0%,0%);fill-opacity:1;" d="M 13.277344 105.292969 C 13.277344 105.933594 13.53125 106.441406 14.03125 106.8125 C 14.53125 107.1875 15.21875 107.375 16.089844 107.375 C 16.964844 107.375 17.652344 107.1875 18.152344 106.820312 C 18.652344 106.445312 18.902344 105.9375 18.902344 105.292969 C 18.902344 104.652344 18.652344 104.148438 18.148438 103.773438 C 17.644531 103.402344 16.960938 103.214844 16.089844 103.214844 C 15.226562 103.214844 14.542969 103.402344 14.039062 103.773438 C 13.53125 104.148438 13.277344 104.652344 13.277344 105.292969 Z M 12.265625 105.292969 C 12.265625 104.25 12.601562 103.433594 13.28125 102.835938 C 13.957031 102.242188 14.894531 101.945312 16.089844 101.945312 C 17.285156 101.945312 18.222656 102.242188 18.902344 102.835938 C 19.582031 103.433594 19.921875 104.25 19.921875 105.292969 C 19.921875 106.335938 19.582031 107.15625 18.902344 107.75 C 18.222656 108.339844 17.285156 108.636719 16.089844 108.636719 C 14.894531 108.636719 13.957031 108.339844 13.28125 107.75 C 12.601562 107.15625 12.265625 106.335938 12.265625 105.292969 Z M 12.265625 105.292969 "/>
<path style=" stroke:none;fill-rule:nonzero;fill:rgb(0%,0%,0%);fill-opacity:1;" d="M 12.652344 95.3125 L 13.789062 95.3125 C 13.613281 95.648438 13.484375 96 13.398438 96.363281 C 13.308594 96.730469 13.265625 97.105469 13.265625 97.5 C 13.265625 98.09375 13.359375 98.539062 13.539062 98.835938 C 13.722656 99.132812 13.996094 99.28125 14.359375 99.28125 C 14.636719 99.28125 14.855469 99.175781 15.015625 98.964844 C 15.171875 98.75 15.324219 98.324219 15.464844 97.679688 L 15.558594 97.269531 C 15.742188 96.417969 15.996094 95.816406 16.328125 95.457031 C 16.660156 95.097656 17.125 94.917969 17.71875 94.917969 C 18.398438 94.917969 18.933594 95.1875 19.328125 95.722656 C 19.722656 96.257812 19.921875 96.996094 19.921875 97.933594 C 19.921875 98.324219 19.882812 98.730469 19.804688 99.15625 C 19.730469 99.578125 19.617188 100.023438 19.464844 100.492188 L 18.226562 100.492188 C 18.457031 100.050781 18.628906 99.613281 18.746094 99.183594 C 18.859375 98.753906 18.917969 98.328125 18.917969 97.90625 C 18.917969 97.34375 18.820312 96.910156 18.628906 96.605469 C 18.433594 96.300781 18.160156 96.152344 17.808594 96.152344 C 17.484375 96.152344 17.234375 96.261719 17.0625 96.480469 C 16.890625 96.699219 16.722656 97.179688 16.558594 97.921875 L 16.460938 98.339844 C 16.308594 99.078125 16.066406 99.617188 15.742188 99.945312 C 15.421875 100.277344 14.976562 100.441406 14.414062 100.441406 C 13.726562 100.441406 13.195312 100.195312 12.824219 99.710938 C 12.453125 99.226562 12.265625 98.535156 12.265625 97.640625 C 12.265625 97.199219 12.296875 96.78125 12.363281 96.390625 C 12.425781 96 12.523438 95.640625 12.652344 95.3125 Z M 12.652344 95.3125 "/>
<path style=" stroke:none;fill-rule:nonzero;fill:rgb(0%,0%,0%);fill-opacity:1;" d="M 12.652344 88.363281 L 13.789062 88.363281 C 13.613281 88.703125 13.484375 89.054688 13.398438 89.417969 C 13.308594 89.78125 13.265625 90.160156 13.265625 90.550781 C 13.265625 91.144531 13.359375 91.59375 13.539062 91.890625 C 13.722656 92.1875 13.996094 92.335938 14.359375 92.335938 C 14.636719 92.335938 14.855469 92.230469 15.015625 92.015625 C 15.171875 91.804688 15.324219 91.375 15.464844 90.734375 L 15.558594 90.324219 C 15.742188 89.472656 15.996094 88.867188 16.328125 88.511719 C 16.660156 88.152344 17.125 87.972656 17.71875 87.972656 C 18.398438 87.972656 18.933594 88.242188 19.328125 88.777344 C 19.722656 89.3125 19.921875 90.050781 19.921875 90.988281 C 19.921875 91.378906 19.882812 91.785156 19.804688 92.207031 C 19.730469 92.632812 19.617188 93.078125 19.464844 93.546875 L 18.226562 93.546875 C 18.457031 93.101562 18.628906 92.667969 18.746094 92.238281 C 18.859375 91.808594 18.917969 91.382812 18.917969 90.960938 C 18.917969 90.394531 18.820312 89.964844 18.628906 89.660156 C 18.433594 89.355469 18.160156 89.203125 17.808594 89.203125 C 17.484375 89.203125 17.234375 89.3125 17.0625 89.53125 C 16.890625 89.75 16.722656 90.230469 16.558594 90.976562 L 16.460938 91.390625 C 16.308594 92.132812 16.066406 92.667969 15.742188 93 C 15.421875 93.328125 14.976562 93.492188 14.414062 93.492188 C 13.726562 93.492188 13.195312 93.25 12.824219 92.765625 C 12.453125 92.277344 12.265625 91.589844 12.265625 90.695312 C 12.265625 90.25 12.296875 89.835938 12.363281 89.445312 C 12.425781 89.054688 12.523438 88.695312 12.652344 88.363281 Z M 12.652344 88.363281 "/>
<g clip-path="url(#clip11)" clip-rule="nonzero">
<path style="fill:none;stroke-width:1.5;stroke-linecap:square;stroke-linejoin:round;stroke:rgb(12.156863%,46.666667%,70.588237%);stroke-opacity:1;stroke-miterlimit:4;" d="M 50.144531 13.376953 L 56.876953 53.800781 L 63.612305 76.948242 L 70.347656 93.477539 L 77.083008 105.328125 L 83.81543 113.311523 L 90.550781 118.804688 L 97.286133 122.329102 L 104.018555 125.712891 L 110.753906 127.561523 L 117.489258 129.462891 L 124.22168 130.930664 L 130.957031 131.821289 L 137.692383 132.84375 L 144.427734 133.236328 L 151.160156 133.933594 L 157.895508 134.563477 L 164.630859 134.964844 L 171.363281 135.064453 L 178.098633 135.717773 L 184.833984 136.192383 L 191.569336 136.098633 L 198.301758 136.271484 L 205.037109 136.148438 L 211.772461 135.969727 L 218.504883 136.567383 L 225.240234 136.514648 L 231.975586 136.69043 L 238.708008 136.845703 L 245.443359 136.921875 " transform="matrix(1.333333,0,0,1.333333,0,0)"/>
</g>
<path style="fill:none;stroke-width:0.8;stroke-linecap:square;stroke-linejoin:miter;stroke:rgb(0%,0%,0%);stroke-opacity:1;stroke-miterlimit:4;" d="M 50.144531 143.100586 L 50.144531 7.201172 " transform="matrix(1.333333,0,0,1.333333,0,0)"/>
<path style="fill:none;stroke-width:0.8;stroke-linecap:square;stroke-linejoin:miter;stroke:rgb(0%,0%,0%);stroke-opacity:1;stroke-miterlimit:4;" d="M 245.443359 143.100586 L 245.443359 7.201172 " transform="matrix(1.333333,0,0,1.333333,0,0)"/>
<path style="fill:none;stroke-width:0.8;stroke-linecap:square;stroke-linejoin:miter;stroke:rgb(0%,0%,0%);stroke-opacity:1;stroke-miterlimit:4;" d="M 50.144531 143.100586 L 245.443359 143.100586 " transform="matrix(1.333333,0,0,1.333333,0,0)"/>
<path style="fill:none;stroke-width:0.8;stroke-linecap:square;stroke-linejoin:miter;stroke:rgb(0%,0%,0%);stroke-opacity:1;stroke-miterlimit:4;" d="M 50.144531 7.201172 L 245.443359 7.201172 " transform="matrix(1.333333,0,0,1.333333,0,0)"/>
</g>
</svg>
