<?xml version="1.0" encoding="UTF-8"?>
<svg xmlns="http://www.w3.org/2000/svg" xmlns:xlink="http://www.w3.org/1999/xlink" width="507.310425" height="240.875" viewBox="0 0 507.310425 240.875" version="1.1">
<defs>
<clipPath id="clip1">
  <path d="M 70 9.601562 L 73 9.601562 L 73 190.800781 L 70 190.800781 Z M 70 9.601562 "/>
</clipPath>
<clipPath id="clip2">
  <path d="M 139 9.601562 L 142 9.601562 L 142 190.800781 L 139 190.800781 Z M 139 9.601562 "/>
</clipPath>
<clipPath id="clip3">
  <path d="M 208 9.601562 L 210 9.601562 L 210 190.800781 L 208 190.800781 Z M 208 9.601562 "/>
</clipPath>
<clipPath id="clip4">
  <path d="M 277 9.601562 L 279 9.601562 L 279 190.800781 L 277 190.800781 Z M 277 9.601562 "/>
</clipPath>
<clipPath id="clip5">
  <path d="M 345 9.601562 L 348 9.601562 L 348 190.800781 L 345 190.800781 Z M 345 9.601562 "/>
</clipPath>
<clipPath id="clip6">
  <path d="M 414 9.601562 L 417 9.601562 L 417 190.800781 L 414 190.800781 Z M 414 9.601562 "/>
</clipPath>
<clipPath id="clip7">
  <path d="M 483 9.601562 L 486 9.601562 L 486 190.800781 L 483 190.800781 Z M 483 9.601562 "/>
</clipPath>
<clipPath id="clip8">
  <path d="M 51.308594 181 L 497.710938 181 L 497.710938 184 L 51.308594 184 Z M 51.308594 181 "/>
</clipPath>
<clipPath id="clip9">
  <path d="M 51.308594 140 L 497.710938 140 L 497.710938 143 L 51.308594 143 Z M 51.308594 140 "/>
</clipPath>
<clipPath id="clip10">
  <path d="M 51.308594 99 L 497.710938 99 L 497.710938 101 L 51.308594 101 Z M 51.308594 99 "/>
</clipPath>
<clipPath id="clip11">
  <path d="M 51.308594 58 L 497.710938 58 L 497.710938 60 L 51.308594 60 Z M 51.308594 58 "/>
</clipPath>
<clipPath id="clip12">
  <path d="M 51.308594 17 L 497.710938 17 L 497.710938 19 L 51.308594 19 Z M 51.308594 17 "/>
</clipPath>
<filter id="alpha" filterUnits="objectBoundingBox" x="0%" y="0%" width="100%" height="100%">
  <feColorMatrix type="matrix" in="SourceGraphic" values="0 0 0 0 1 0 0 0 0 1 0 0 0 0 1 0 0 0 1 0"/>
</filter>
<mask id="mask0">
  <g filter="url(#alpha)">
<rect x="0" y="0" width="507.310425" height="240.875" style="fill:rgb(0%,0%,0%);fill-opacity:0.8;stroke:none;"/>
  </g>
</mask>
<clipPath id="clip13">
  <rect x="0" y="0" width="508" height="241"/>
</clipPath>
<g id="surface5" clip-path="url(#clip13)">
<path style="fill-rule:nonzero;fill:rgb(100%,100%,100%);fill-opacity:1;stroke-width:1;stroke-linecap:butt;stroke-linejoin:miter;stroke:rgb(80.000001%,80.000001%,80.000001%);stroke-opacity:1;stroke-miterlimit:4;" d="M 45.483398 138.099609 L 102.902344 138.099609 C 104.235352 138.099609 104.90332 137.43457 104.90332 136.098633 L 104.90332 78.386719 C 104.90332 77.053711 104.235352 76.388672 102.902344 76.388672 L 45.483398 76.388672 C 44.150391 76.388672 43.482422 77.053711 43.482422 78.386719 L 43.482422 136.098633 C 43.482422 137.43457 44.150391 138.099609 45.483398 138.099609 Z M 45.483398 138.099609 " transform="matrix(1.333333,0,0,1.333333,0,0)"/>
</g>
</defs>
<g id="surface1">
<path style=" stroke:none;fill-rule:nonzero;fill:rgb(100%,100%,100%);fill-opacity:1;" d="M 51.308594 190.800781 L 497.710938 190.800781 L 497.710938 9.601562 L 51.308594 9.601562 Z M 51.308594 190.800781 "/>
<g clip-path="url(#clip1)" clip-rule="nonzero">
<path style="fill:none;stroke-width:0.8;stroke-linecap:square;stroke-linejoin:round;stroke:rgb(69.01961%,69.01961%,69.01961%);stroke-opacity:1;stroke-miterlimit:4;" d="M 53.701172 143.100586 L 53.701172 7.201172 " transform="matrix(1.333333,0,0,1.333333,0,0)"/>
</g>
<path style="fill:none;stroke-width:0.8;stroke-linecap:butt;stroke-linejoin:round;stroke:rgb(0%,0%,0%);stroke-opacity:1;stroke-miterlimit:4;" d="M 0.000179291 0.000579834 L 0.000179291 3.498627 " transform="matrix(1.333333,0,0,1.333333,71.601323,190.800008)"/>
<path style=" stroke:none;fill-rule:nonzero;fill:rgb(0%,0%,0%);fill-opacity:1;" d="M 71.597656 201.410156 C 70.921875 201.410156 70.410156 201.742188 70.070312 202.410156 C 69.730469 203.074219 69.558594 204.078125 69.558594 205.414062 C 69.558594 206.746094 69.730469 207.746094 70.070312 208.414062 C 70.410156 209.078125 70.921875 209.414062 71.597656 209.414062 C 72.277344 209.414062 72.789062 209.078125 73.128906 208.414062 C 73.472656 207.746094 73.644531 206.746094 73.644531 205.414062 C 73.644531 204.078125 73.472656 203.074219 73.128906 202.410156 C 72.789062 201.742188 72.277344 201.410156 71.597656 201.410156 Z M 71.597656 200.367188 C 72.6875 200.367188 73.519531 200.800781 74.09375 201.664062 C 74.671875 202.523438 74.957031 203.773438 74.957031 205.414062 C 74.957031 207.050781 74.671875 208.300781 74.09375 209.164062 C 73.519531 210.023438 72.6875 210.453125 71.597656 210.453125 C 70.507812 210.453125 69.675781 210.023438 69.101562 209.164062 C 68.527344 208.300781 68.238281 207.050781 68.238281 205.414062 C 68.238281 203.773438 68.527344 202.523438 69.101562 201.664062 C 69.675781 200.800781 70.507812 200.367188 71.597656 200.367188 Z M 71.597656 200.367188 "/>
<g clip-path="url(#clip2)" clip-rule="nonzero">
<path style="fill:none;stroke-width:0.8;stroke-linecap:square;stroke-linejoin:round;stroke:rgb(69.01961%,69.01961%,69.01961%);stroke-opacity:1;stroke-miterlimit:4;" d="M 105.287109 143.100586 L 105.287109 7.201172 " transform="matrix(1.333333,0,0,1.333333,0,0)"/>
</g>
<path style="fill:none;stroke-width:0.8;stroke-linecap:butt;stroke-linejoin:round;stroke:rgb(0%,0%,0%);stroke-opacity:1;stroke-miterlimit:4;" d="M -0.000938416 0.000579834 L -0.000938416 3.498627 " transform="matrix(1.333333,0,0,1.333333,140.384064,190.800008)"/>
<path style=" stroke:none;fill-rule:nonzero;fill:rgb(0%,0%,0%);fill-opacity:1;" d="M 133.554688 209.160156 L 135.703125 209.160156 L 135.703125 201.742188 L 133.367188 202.210938 L 133.367188 201.011719 L 135.691406 200.542969 L 137.003906 200.542969 L 137.003906 209.160156 L 139.152344 209.160156 L 139.152344 210.265625 L 133.554688 210.265625 Z M 133.554688 209.160156 "/>
<path style=" stroke:none;fill-rule:nonzero;fill:rgb(0%,0%,0%);fill-opacity:1;" d="M 144.621094 201.410156 C 143.945312 201.410156 143.4375 201.742188 143.09375 202.410156 C 142.753906 203.074219 142.582031 204.078125 142.582031 205.414062 C 142.582031 206.746094 142.753906 207.746094 143.09375 208.414062 C 143.4375 209.078125 143.945312 209.414062 144.621094 209.414062 C 145.304688 209.414062 145.8125 209.078125 146.15625 208.414062 C 146.496094 207.746094 146.667969 206.746094 146.667969 205.414062 C 146.667969 204.078125 146.496094 203.074219 146.15625 202.410156 C 145.8125 201.742188 145.304688 201.410156 144.621094 201.410156 Z M 144.621094 200.367188 C 145.710938 200.367188 146.542969 200.800781 147.121094 201.664062 C 147.695312 202.523438 147.980469 203.773438 147.980469 205.414062 C 147.980469 207.050781 147.695312 208.300781 147.121094 209.164062 C 146.542969 210.023438 145.710938 210.453125 144.621094 210.453125 C 143.53125 210.453125 142.699219 210.023438 142.125 209.164062 C 141.550781 208.300781 141.261719 207.050781 141.261719 205.414062 C 141.261719 203.773438 141.550781 202.523438 142.125 201.664062 C 142.699219 200.800781 143.53125 200.367188 144.621094 200.367188 Z M 144.621094 200.367188 "/>
<g clip-path="url(#clip3)" clip-rule="nonzero">
<path style="fill:none;stroke-width:0.8;stroke-linecap:square;stroke-linejoin:round;stroke:rgb(69.01961%,69.01961%,69.01961%);stroke-opacity:1;stroke-miterlimit:4;" d="M 156.875977 143.100586 L 156.875977 7.201172 " transform="matrix(1.333333,0,0,1.333333,0,0)"/>
</g>
<path style="fill:none;stroke-width:0.8;stroke-linecap:butt;stroke-linejoin:round;stroke:rgb(0%,0%,0%);stroke-opacity:1;stroke-miterlimit:4;" d="M 0.000869751 0.000579834 L 0.000869751 3.498627 " transform="matrix(1.333333,0,0,1.333333,209.166809,190.800008)"/>
<path style=" stroke:none;fill-rule:nonzero;fill:rgb(0%,0%,0%);fill-opacity:1;" d="M 203.242188 209.160156 L 207.832031 209.160156 L 207.832031 210.265625 L 201.660156 210.265625 L 201.660156 209.160156 C 202.160156 208.640625 202.839844 207.949219 203.699219 207.078125 C 204.5625 206.207031 205.105469 205.648438 205.324219 205.394531 C 205.746094 204.921875 206.039062 204.523438 206.207031 204.195312 C 206.375 203.867188 206.457031 203.542969 206.457031 203.226562 C 206.457031 202.710938 206.277344 202.289062 205.914062 201.964844 C 205.550781 201.636719 205.078125 201.476562 204.5 201.476562 C 204.085938 201.476562 203.648438 201.546875 203.191406 201.691406 C 202.734375 201.832031 202.246094 202.050781 201.726562 202.339844 L 201.726562 201.011719 C 202.253906 200.800781 202.75 200.640625 203.207031 200.53125 C 203.667969 200.421875 204.089844 200.367188 204.472656 200.367188 C 205.480469 200.367188 206.28125 200.621094 206.882812 201.125 C 207.480469 201.628906 207.78125 202.300781 207.78125 203.140625 C 207.78125 203.542969 207.703125 203.921875 207.554688 204.277344 C 207.40625 204.636719 207.132812 205.058594 206.738281 205.542969 C 206.628906 205.671875 206.285156 206.035156 205.703125 206.636719 C 205.121094 207.238281 204.300781 208.078125 203.242188 209.160156 Z M 203.242188 209.160156 "/>
<path style=" stroke:none;fill-rule:nonzero;fill:rgb(0%,0%,0%);fill-opacity:1;" d="M 213.402344 201.410156 C 212.726562 201.410156 212.21875 201.742188 211.878906 202.410156 C 211.535156 203.074219 211.367188 204.078125 211.367188 205.414062 C 211.367188 206.746094 211.535156 207.746094 211.878906 208.414062 C 212.21875 209.078125 212.726562 209.414062 213.402344 209.414062 C 214.085938 209.414062 214.597656 209.078125 214.9375 208.414062 C 215.277344 207.746094 215.449219 206.746094 215.449219 205.414062 C 215.449219 204.078125 215.277344 203.074219 214.9375 202.410156 C 214.597656 201.742188 214.085938 201.410156 213.402344 201.410156 Z M 213.402344 200.367188 C 214.496094 200.367188 215.328125 200.800781 215.902344 201.664062 C 216.476562 202.523438 216.765625 203.773438 216.765625 205.414062 C 216.765625 207.050781 216.476562 208.300781 215.902344 209.164062 C 215.328125 210.023438 214.496094 210.453125 213.402344 210.453125 C 212.316406 210.453125 211.484375 210.023438 210.910156 209.164062 C 210.332031 208.300781 210.046875 207.050781 210.046875 205.414062 C 210.046875 203.773438 210.332031 202.523438 210.910156 201.664062 C 211.484375 200.800781 212.316406 200.367188 213.402344 200.367188 Z M 213.402344 200.367188 "/>
<g clip-path="url(#clip4)" clip-rule="nonzero">
<path style="fill:none;stroke-width:0.8;stroke-linecap:square;stroke-linejoin:round;stroke:rgb(69.01961%,69.01961%,69.01961%);stroke-opacity:1;stroke-miterlimit:4;" d="M 208.461914 143.100586 L 208.461914 7.201172 " transform="matrix(1.333333,0,0,1.333333,0,0)"/>
</g>
<path style="fill:none;stroke-width:0.8;stroke-linecap:butt;stroke-linejoin:round;stroke:rgb(0%,0%,0%);stroke-opacity:1;stroke-miterlimit:4;" d="M -0.000244141 0.000579834 L -0.000244141 3.498627 " transform="matrix(1.333333,0,0,1.333333,277.949544,190.800008)"/>
<path style=" stroke:none;fill-rule:nonzero;fill:rgb(0%,0%,0%);fill-opacity:1;" d="M 274.875 205.023438 C 275.503906 205.15625 275.996094 205.4375 276.347656 205.863281 C 276.703125 206.289062 276.878906 206.816406 276.878906 207.441406 C 276.878906 208.398438 276.550781 209.140625 275.890625 209.667969 C 275.230469 210.191406 274.292969 210.453125 273.078125 210.453125 C 272.671875 210.453125 272.253906 210.414062 271.820312 210.332031 C 271.386719 210.253906 270.941406 210.132812 270.484375 209.972656 L 270.484375 208.703125 C 270.847656 208.914062 271.246094 209.074219 271.679688 209.183594 C 272.113281 209.292969 272.566406 209.347656 273.042969 209.347656 C 273.863281 209.347656 274.492188 209.183594 274.925781 208.859375 C 275.355469 208.535156 275.574219 208.058594 275.574219 207.441406 C 275.574219 206.867188 275.371094 206.417969 274.96875 206.097656 C 274.570312 205.773438 274.011719 205.609375 273.296875 205.609375 L 272.160156 205.609375 L 272.160156 204.527344 L 273.347656 204.527344 C 273.992188 204.527344 274.488281 204.398438 274.832031 204.140625 C 275.175781 203.882812 275.34375 203.511719 275.34375 203.023438 C 275.34375 202.527344 275.167969 202.144531 274.8125 201.878906 C 274.460938 201.609375 273.957031 201.476562 273.296875 201.476562 C 272.933594 201.476562 272.546875 201.515625 272.136719 201.59375 C 271.722656 201.671875 271.269531 201.792969 270.773438 201.957031 L 270.773438 200.785156 C 271.273438 200.648438 271.742188 200.542969 272.179688 200.472656 C 272.613281 200.402344 273.027344 200.367188 273.410156 200.367188 C 274.410156 200.367188 275.199219 200.597656 275.78125 201.050781 C 276.363281 201.503906 276.652344 202.117188 276.652344 202.886719 C 276.652344 203.425781 276.5 203.882812 276.191406 204.253906 C 275.882812 204.621094 275.445312 204.878906 274.875 205.023438 Z M 274.875 205.023438 "/>
<path style=" stroke:none;fill-rule:nonzero;fill:rgb(0%,0%,0%);fill-opacity:1;" d="M 282.1875 201.410156 C 281.511719 201.410156 281 201.742188 280.660156 202.410156 C 280.320312 203.074219 280.148438 204.078125 280.148438 205.414062 C 280.148438 206.746094 280.320312 207.746094 280.660156 208.414062 C 281 209.078125 281.511719 209.414062 282.1875 209.414062 C 282.867188 209.414062 283.378906 209.078125 283.71875 208.414062 C 284.0625 207.746094 284.234375 206.746094 284.234375 205.414062 C 284.234375 204.078125 284.0625 203.074219 283.71875 202.410156 C 283.378906 201.742188 282.867188 201.410156 282.1875 201.410156 Z M 282.1875 200.367188 C 283.277344 200.367188 284.109375 200.800781 284.683594 201.664062 C 285.257812 202.523438 285.546875 203.773438 285.546875 205.414062 C 285.546875 207.050781 285.257812 208.300781 284.683594 209.164062 C 284.109375 210.023438 283.277344 210.453125 282.1875 210.453125 C 281.097656 210.453125 280.265625 210.023438 279.691406 209.164062 C 279.117188 208.300781 278.828125 207.050781 278.828125 205.414062 C 278.828125 203.773438 279.117188 202.523438 279.691406 201.664062 C 280.265625 200.800781 281.097656 200.367188 282.1875 200.367188 Z M 282.1875 200.367188 "/>
<g clip-path="url(#clip5)" clip-rule="nonzero">
<path style="fill:none;stroke-width:0.8;stroke-linecap:square;stroke-linejoin:round;stroke:rgb(69.01961%,69.01961%,69.01961%);stroke-opacity:1;stroke-miterlimit:4;" d="M 260.047852 143.100586 L 260.047852 7.201172 " transform="matrix(1.333333,0,0,1.333333,0,0)"/>
</g>
<path style="fill:none;stroke-width:0.8;stroke-linecap:butt;stroke-linejoin:round;stroke:rgb(0%,0%,0%);stroke-opacity:1;stroke-miterlimit:4;" d="M -0.00137329 0.000579834 L -0.00137329 3.498627 " transform="matrix(1.333333,0,0,1.333333,346.7323,190.800008)"/>
<path style=" stroke:none;fill-rule:nonzero;fill:rgb(0%,0%,0%);fill-opacity:1;" d="M 343.289062 201.691406 L 339.96875 206.878906 L 343.289062 206.878906 Z M 342.941406 200.542969 L 344.597656 200.542969 L 344.597656 206.878906 L 345.984375 206.878906 L 345.984375 207.972656 L 344.597656 207.972656 L 344.597656 210.265625 L 343.289062 210.265625 L 343.289062 207.972656 L 338.902344 207.972656 L 338.902344 206.703125 Z M 342.941406 200.542969 "/>
<path style=" stroke:none;fill-rule:nonzero;fill:rgb(0%,0%,0%);fill-opacity:1;" d="M 350.96875 201.410156 C 350.292969 201.410156 349.785156 201.742188 349.441406 202.410156 C 349.101562 203.074219 348.933594 204.078125 348.933594 205.414062 C 348.933594 206.746094 349.101562 207.746094 349.441406 208.414062 C 349.785156 209.078125 350.292969 209.414062 350.96875 209.414062 C 351.652344 209.414062 352.164062 209.078125 352.503906 208.414062 C 352.84375 207.746094 353.015625 206.746094 353.015625 205.414062 C 353.015625 204.078125 352.84375 203.074219 352.503906 202.410156 C 352.164062 201.742188 351.652344 201.410156 350.96875 201.410156 Z M 350.96875 200.367188 C 352.058594 200.367188 352.890625 200.800781 353.46875 201.664062 C 354.042969 202.523438 354.328125 203.773438 354.328125 205.414062 C 354.328125 207.050781 354.042969 208.300781 353.46875 209.164062 C 352.890625 210.023438 352.058594 210.453125 350.96875 210.453125 C 349.878906 210.453125 349.046875 210.023438 348.472656 209.164062 C 347.898438 208.300781 347.609375 207.050781 347.609375 205.414062 C 347.609375 203.773438 347.898438 202.523438 348.472656 201.664062 C 349.046875 200.800781 349.878906 200.367188 350.96875 200.367188 Z M 350.96875 200.367188 "/>
<g clip-path="url(#clip6)" clip-rule="nonzero">
<path style="fill:none;stroke-width:0.8;stroke-linecap:square;stroke-linejoin:round;stroke:rgb(69.01961%,69.01961%,69.01961%);stroke-opacity:1;stroke-miterlimit:4;" d="M 311.636719 143.100586 L 311.636719 7.201172 " transform="matrix(1.333333,0,0,1.333333,0,0)"/>
</g>
<path style="fill:none;stroke-width:0.8;stroke-linecap:butt;stroke-linejoin:round;stroke:rgb(0%,0%,0%);stroke-opacity:1;stroke-miterlimit:4;" d="M 0.000427246 0.000579834 L 0.000427246 3.498627 " transform="matrix(1.333333,0,0,1.333333,415.515055,190.800008)"/>
<path style=" stroke:none;fill-rule:nonzero;fill:rgb(0%,0%,0%);fill-opacity:1;" d="M 408.472656 200.542969 L 413.632812 200.542969 L 413.632812 201.652344 L 409.675781 201.652344 L 409.675781 204.035156 C 409.867188 203.96875 410.054688 203.917969 410.246094 203.886719 C 410.4375 203.855469 410.628906 203.839844 410.820312 203.839844 C 411.90625 203.839844 412.765625 204.136719 413.398438 204.730469 C 414.03125 205.324219 414.351562 206.128906 414.351562 207.144531 C 414.351562 208.191406 414.023438 209.003906 413.375 209.585938 C 412.722656 210.164062 411.804688 210.453125 410.621094 210.453125 C 410.210938 210.453125 409.792969 210.417969 409.371094 210.351562 C 408.949219 210.28125 408.511719 210.175781 408.0625 210.039062 L 408.0625 208.714844 C 408.449219 208.925781 408.855469 209.085938 409.269531 209.191406 C 409.6875 209.292969 410.128906 209.347656 410.59375 209.347656 C 411.34375 209.347656 411.9375 209.148438 412.375 208.753906 C 412.8125 208.359375 413.035156 207.824219 413.035156 207.144531 C 413.035156 206.46875 412.8125 205.933594 412.375 205.539062 C 411.9375 205.144531 411.34375 204.945312 410.59375 204.945312 C 410.242188 204.945312 409.890625 204.984375 409.539062 205.0625 C 409.191406 205.140625 408.835938 205.261719 408.472656 205.425781 Z M 408.472656 200.542969 "/>
<path style=" stroke:none;fill-rule:nonzero;fill:rgb(0%,0%,0%);fill-opacity:1;" d="M 419.753906 201.410156 C 419.074219 201.410156 418.566406 201.742188 418.226562 202.410156 C 417.886719 203.074219 417.714844 204.078125 417.714844 205.414062 C 417.714844 206.746094 417.886719 207.746094 418.226562 208.414062 C 418.566406 209.078125 419.074219 209.414062 419.753906 209.414062 C 420.433594 209.414062 420.945312 209.078125 421.285156 208.414062 C 421.628906 207.746094 421.796875 206.746094 421.796875 205.414062 C 421.796875 204.078125 421.628906 203.074219 421.285156 202.410156 C 420.945312 201.742188 420.433594 201.410156 419.753906 201.410156 Z M 419.753906 200.367188 C 420.84375 200.367188 421.675781 200.800781 422.25 201.664062 C 422.824219 202.523438 423.113281 203.773438 423.113281 205.414062 C 423.113281 207.050781 422.824219 208.300781 422.25 209.164062 C 421.675781 210.023438 420.84375 210.453125 419.753906 210.453125 C 418.664062 210.453125 417.832031 210.023438 417.257812 209.164062 C 416.679688 208.300781 416.394531 207.050781 416.394531 205.414062 C 416.394531 203.773438 416.679688 202.523438 417.257812 201.664062 C 417.832031 200.800781 418.664062 200.367188 419.753906 200.367188 Z M 419.753906 200.367188 "/>
<g clip-path="url(#clip7)" clip-rule="nonzero">
<path style="fill:none;stroke-width:0.8;stroke-linecap:square;stroke-linejoin:round;stroke:rgb(69.01961%,69.01961%,69.01961%);stroke-opacity:1;stroke-miterlimit:4;" d="M 363.222656 143.100586 L 363.222656 7.201172 " transform="matrix(1.333333,0,0,1.333333,0,0)"/>
</g>
<path style="fill:none;stroke-width:0.8;stroke-linecap:butt;stroke-linejoin:round;stroke:rgb(0%,0%,0%);stroke-opacity:1;stroke-miterlimit:4;" d="M -0.000671387 0.000579834 L -0.000671387 3.498627 " transform="matrix(1.333333,0,0,1.333333,484.29777,190.800008)"/>
<path style=" stroke:none;fill-rule:nonzero;fill:rgb(0%,0%,0%);fill-opacity:1;" d="M 480.214844 204.882812 C 479.625 204.882812 479.160156 205.082031 478.8125 205.488281 C 478.46875 205.890625 478.296875 206.441406 478.296875 207.144531 C 478.296875 207.84375 478.46875 208.398438 478.8125 208.804688 C 479.160156 209.210938 479.625 209.414062 480.214844 209.414062 C 480.808594 209.414062 481.273438 209.210938 481.617188 208.804688 C 481.964844 208.398438 482.136719 207.84375 482.136719 207.144531 C 482.136719 206.441406 481.964844 205.890625 481.617188 205.488281 C 481.273438 205.082031 480.808594 204.882812 480.214844 204.882812 Z M 482.828125 200.757812 L 482.828125 201.957031 C 482.496094 201.800781 482.164062 201.683594 481.828125 201.601562 C 481.492188 201.515625 481.15625 201.476562 480.828125 201.476562 C 479.957031 201.476562 479.296875 201.769531 478.835938 202.355469 C 478.378906 202.941406 478.121094 203.824219 478.054688 205.011719 C 478.308594 204.632812 478.628906 204.34375 479.015625 204.140625 C 479.402344 203.941406 479.828125 203.839844 480.292969 203.839844 C 481.269531 203.839844 482.042969 204.136719 482.609375 204.730469 C 483.175781 205.320312 483.457031 206.125 483.457031 207.144531 C 483.457031 208.144531 483.164062 208.945312 482.574219 209.550781 C 481.984375 210.152344 481.195312 210.453125 480.214844 210.453125 C 479.089844 210.453125 478.230469 210.023438 477.636719 209.164062 C 477.042969 208.300781 476.746094 207.050781 476.746094 205.414062 C 476.746094 203.878906 477.109375 202.652344 477.839844 201.738281 C 478.570312 200.824219 479.546875 200.367188 480.773438 200.367188 C 481.105469 200.367188 481.4375 200.402344 481.773438 200.464844 C 482.109375 200.53125 482.460938 200.628906 482.828125 200.757812 Z M 482.828125 200.757812 "/>
<path style=" stroke:none;fill-rule:nonzero;fill:rgb(0%,0%,0%);fill-opacity:1;" d="M 488.535156 201.410156 C 487.859375 201.410156 487.351562 201.742188 487.007812 202.410156 C 486.667969 203.074219 486.496094 204.078125 486.496094 205.414062 C 486.496094 206.746094 486.667969 207.746094 487.007812 208.414062 C 487.351562 209.078125 487.859375 209.414062 488.535156 209.414062 C 489.21875 209.414062 489.726562 209.078125 490.070312 208.414062 C 490.410156 207.746094 490.582031 206.746094 490.582031 205.414062 C 490.582031 204.078125 490.410156 203.074219 490.070312 202.410156 C 489.726562 201.742188 489.21875 201.410156 488.535156 201.410156 Z M 488.535156 200.367188 C 489.625 200.367188 490.457031 200.800781 491.03125 201.664062 C 491.609375 202.523438 491.894531 203.773438 491.894531 205.414062 C 491.894531 207.050781 491.609375 208.300781 491.03125 209.164062 C 490.457031 210.023438 489.625 210.453125 488.535156 210.453125 C 487.445312 210.453125 486.613281 210.023438 486.039062 209.164062 C 485.464844 208.300781 485.175781 207.050781 485.175781 205.414062 C 485.175781 203.773438 485.464844 202.523438 486.039062 201.664062 C 486.613281 200.800781 487.445312 200.367188 488.535156 200.367188 Z M 488.535156 200.367188 "/>
<path style=" stroke:none;fill-rule:nonzero;fill:rgb(0%,0%,0%);fill-opacity:1;" d="M 232.839844 223.945312 C 233.121094 224.039062 233.394531 224.242188 233.660156 224.554688 C 233.929688 224.867188 234.195312 225.296875 234.464844 225.847656 L 235.800781 228.503906 L 234.386719 228.503906 L 233.144531 226.007812 C 232.824219 225.355469 232.511719 224.925781 232.210938 224.710938 C 231.90625 224.5 231.496094 224.394531 230.976562 224.394531 L 229.542969 224.394531 L 229.542969 228.503906 L 228.226562 228.503906 L 228.226562 218.78125 L 231.195312 218.78125 C 232.308594 218.78125 233.136719 219.015625 233.683594 219.480469 C 234.230469 219.941406 234.503906 220.644531 234.503906 221.582031 C 234.503906 222.195312 234.363281 222.703125 234.078125 223.105469 C 233.792969 223.507812 233.378906 223.789062 232.839844 223.945312 Z M 229.542969 219.863281 L 229.542969 223.3125 L 231.195312 223.3125 C 231.832031 223.3125 232.308594 223.164062 232.632812 222.871094 C 232.957031 222.578125 233.117188 222.148438 233.117188 221.582031 C 233.117188 221.011719 232.957031 220.585938 232.632812 220.296875 C 232.308594 220.007812 231.832031 219.863281 231.195312 219.863281 Z M 229.542969 219.863281 "/>
<path style=" stroke:none;fill-rule:nonzero;fill:rgb(0%,0%,0%);fill-opacity:1;" d="M 239.664062 222.050781 C 239.023438 222.050781 238.515625 222.300781 238.140625 222.800781 C 237.769531 223.304688 237.582031 223.992188 237.582031 224.863281 C 237.582031 225.734375 237.765625 226.421875 238.136719 226.921875 C 238.511719 227.425781 239.019531 227.675781 239.664062 227.675781 C 240.304688 227.675781 240.808594 227.421875 241.183594 226.921875 C 241.554688 226.417969 241.742188 225.730469 241.742188 224.863281 C 241.742188 224 241.554688 223.3125 241.183594 222.808594 C 240.808594 222.304688 240.304688 222.050781 239.664062 222.050781 Z M 239.664062 221.035156 C 240.707031 221.035156 241.523438 221.375 242.121094 222.050781 C 242.714844 222.726562 243.011719 223.664062 243.011719 224.863281 C 243.011719 226.054688 242.714844 226.992188 242.121094 227.671875 C 241.523438 228.351562 240.707031 228.691406 239.664062 228.691406 C 238.621094 228.691406 237.800781 228.351562 237.207031 227.671875 C 236.617188 226.992188 236.320312 226.054688 236.320312 224.863281 C 236.320312 223.664062 236.617188 222.726562 237.207031 222.050781 C 237.800781 221.375 238.621094 221.035156 239.664062 221.035156 Z M 239.664062 221.035156 "/>
<path style=" stroke:none;fill-rule:nonzero;fill:rgb(0%,0%,0%);fill-opacity:1;" d="M 244.300781 221.210938 L 245.5 221.210938 L 246.996094 226.898438 L 248.488281 221.210938 L 249.898438 221.210938 L 251.398438 226.898438 L 252.890625 221.210938 L 254.085938 221.210938 L 252.179688 228.503906 L 250.765625 228.503906 L 249.199219 222.523438 L 247.621094 228.503906 L 246.207031 228.503906 Z M 244.300781 221.210938 "/>
<path style=" stroke:none;fill-rule:nonzero;fill:rgb(0%,0%,0%);fill-opacity:1;" d="M 263.019531 218.386719 C 262.4375 219.382812 262.003906 220.371094 261.722656 221.347656 C 261.441406 222.324219 261.300781 223.3125 261.300781 224.316406 C 261.300781 225.316406 261.441406 226.308594 261.726562 227.292969 C 262.011719 228.277344 262.441406 229.265625 263.019531 230.261719 L 261.976562 230.261719 C 261.328125 229.238281 260.839844 228.238281 260.515625 227.253906 C 260.191406 226.265625 260.03125 225.289062 260.03125 224.316406 C 260.03125 223.347656 260.191406 222.375 260.511719 221.394531 C 260.835938 220.410156 261.324219 219.410156 261.976562 218.386719 Z M 263.019531 218.386719 "/>
<path style=" stroke:none;fill-rule:nonzero;fill:rgb(0%,0%,0%);fill-opacity:1;" d="M 266.5 227.410156 L 266.5 231.273438 L 265.296875 231.273438 L 265.296875 221.210938 L 266.5 221.210938 L 266.5 222.316406 C 266.753906 221.882812 267.070312 221.5625 267.457031 221.351562 C 267.839844 221.140625 268.300781 221.035156 268.832031 221.035156 C 269.71875 221.035156 270.4375 221.386719 270.992188 222.089844 C 271.546875 222.792969 271.820312 223.714844 271.820312 224.863281 C 271.820312 226.007812 271.546875 226.933594 270.992188 227.636719 C 270.4375 228.339844 269.71875 228.691406 268.832031 228.691406 C 268.300781 228.691406 267.839844 228.585938 267.457031 228.375 C 267.070312 228.164062 266.753906 227.839844 266.5 227.410156 Z M 270.578125 224.863281 C 270.578125 223.980469 270.398438 223.289062 270.035156 222.789062 C 269.671875 222.289062 269.175781 222.039062 268.539062 222.039062 C 267.90625 222.039062 267.40625 222.289062 267.046875 222.789062 C 266.683594 223.289062 266.5 223.980469 266.5 224.863281 C 266.5 225.742188 266.683594 226.433594 267.046875 226.933594 C 267.40625 227.4375 267.90625 227.6875 268.539062 227.6875 C 269.175781 227.6875 269.671875 227.4375 270.035156 226.933594 C 270.398438 226.433594 270.578125 225.742188 270.578125 224.863281 Z M 270.578125 224.863281 "/>
<path style=" stroke:none;fill-rule:nonzero;fill:rgb(0%,0%,0%);fill-opacity:1;" d="M 276.632812 222.050781 C 275.988281 222.050781 275.480469 222.300781 275.109375 222.800781 C 274.734375 223.304688 274.546875 223.992188 274.546875 224.863281 C 274.546875 225.734375 274.734375 226.421875 275.105469 226.921875 C 275.476562 227.425781 275.984375 227.675781 276.632812 227.675781 C 277.269531 227.675781 277.777344 227.421875 278.148438 226.921875 C 278.523438 226.417969 278.707031 225.730469 278.707031 224.863281 C 278.707031 224 278.523438 223.3125 278.148438 222.808594 C 277.777344 222.304688 277.269531 222.050781 276.632812 222.050781 Z M 276.632812 221.035156 C 277.671875 221.035156 278.492188 221.375 279.085938 222.050781 C 279.679688 222.726562 279.980469 223.664062 279.980469 224.863281 C 279.980469 226.054688 279.679688 226.992188 279.085938 227.671875 C 278.492188 228.351562 277.671875 228.691406 276.632812 228.691406 C 275.585938 228.691406 274.765625 228.351562 274.171875 227.671875 C 273.582031 226.992188 273.285156 226.054688 273.285156 224.863281 C 273.285156 223.664062 273.582031 222.726562 274.171875 222.050781 C 274.765625 221.375 275.585938 221.035156 276.632812 221.035156 Z M 276.632812 221.035156 "/>
<path style=" stroke:none;fill-rule:nonzero;fill:rgb(0%,0%,0%);fill-opacity:1;" d="M 286.613281 221.425781 L 286.613281 222.558594 C 286.273438 222.382812 285.921875 222.253906 285.558594 222.167969 C 285.195312 222.082031 284.816406 222.039062 284.425781 222.039062 C 283.828125 222.039062 283.382812 222.128906 283.085938 222.308594 C 282.789062 222.492188 282.640625 222.765625 282.640625 223.132812 C 282.640625 223.410156 282.746094 223.628906 282.960938 223.785156 C 283.171875 223.945312 283.601562 224.09375 284.242188 224.238281 L 284.652344 224.328125 C 285.503906 224.511719 286.109375 224.769531 286.464844 225.101562 C 286.824219 225.433594 287.003906 225.894531 287.003906 226.488281 C 287.003906 227.167969 286.734375 227.703125 286.199219 228.101562 C 285.664062 228.496094 284.925781 228.691406 283.988281 228.691406 C 283.597656 228.691406 283.191406 228.652344 282.769531 228.578125 C 282.34375 228.5 281.898438 228.386719 281.429688 228.234375 L 281.429688 226.996094 C 281.875 227.226562 282.308594 227.402344 282.738281 227.515625 C 283.167969 227.628906 283.59375 227.6875 284.015625 227.6875 C 284.578125 227.6875 285.011719 227.589844 285.316406 227.398438 C 285.621094 227.203125 285.773438 226.933594 285.773438 226.582031 C 285.773438 226.257812 285.664062 226.007812 285.441406 225.832031 C 285.226562 225.660156 284.746094 225.492188 284 225.332031 L 283.585938 225.234375 C 282.84375 225.078125 282.308594 224.839844 281.976562 224.515625 C 281.648438 224.191406 281.484375 223.746094 281.484375 223.183594 C 281.484375 222.496094 281.726562 221.96875 282.210938 221.597656 C 282.699219 221.222656 283.386719 221.035156 284.28125 221.035156 C 284.722656 221.035156 285.140625 221.066406 285.53125 221.132812 C 285.921875 221.195312 286.28125 221.292969 286.613281 221.425781 Z M 286.613281 221.425781 "/>
<path style=" stroke:none;fill-rule:nonzero;fill:rgb(0%,0%,0%);fill-opacity:1;" d="M 288.910156 221.210938 L 290.109375 221.210938 L 290.109375 228.503906 L 288.910156 228.503906 Z M 288.910156 218.371094 L 290.109375 218.371094 L 290.109375 219.890625 L 288.910156 219.890625 Z M 288.910156 218.371094 "/>
<path style=" stroke:none;fill-rule:nonzero;fill:rgb(0%,0%,0%);fill-opacity:1;" d="M 293.800781 219.140625 L 293.800781 221.210938 L 296.265625 221.210938 L 296.265625 222.140625 L 293.800781 222.140625 L 293.800781 226.101562 C 293.800781 226.695312 293.882812 227.078125 294.042969 227.246094 C 294.207031 227.414062 294.539062 227.5 295.039062 227.5 L 296.265625 227.5 L 296.265625 228.503906 L 295.039062 228.503906 C 294.113281 228.503906 293.476562 228.328125 293.125 227.984375 C 292.773438 227.640625 292.597656 227.011719 292.597656 226.101562 L 292.597656 222.140625 L 291.71875 222.140625 L 291.71875 221.210938 L 292.597656 221.210938 L 292.597656 219.140625 Z M 293.800781 219.140625 "/>
<path style=" stroke:none;fill-rule:nonzero;fill:rgb(0%,0%,0%);fill-opacity:1;" d="M 297.84375 221.210938 L 299.039062 221.210938 L 299.039062 228.503906 L 297.84375 228.503906 Z M 297.84375 218.371094 L 299.039062 218.371094 L 299.039062 219.890625 L 297.84375 219.890625 Z M 297.84375 218.371094 "/>
<path style=" stroke:none;fill-rule:nonzero;fill:rgb(0%,0%,0%);fill-opacity:1;" d="M 304.371094 222.050781 C 303.730469 222.050781 303.222656 222.300781 302.847656 222.800781 C 302.476562 223.304688 302.289062 223.992188 302.289062 224.863281 C 302.289062 225.734375 302.472656 226.421875 302.84375 226.921875 C 303.21875 227.425781 303.726562 227.675781 304.371094 227.675781 C 305.011719 227.675781 305.515625 227.421875 305.890625 226.921875 C 306.261719 226.417969 306.449219 225.730469 306.449219 224.863281 C 306.449219 224 306.261719 223.3125 305.890625 222.808594 C 305.515625 222.304688 305.011719 222.050781 304.371094 222.050781 Z M 304.371094 221.035156 C 305.414062 221.035156 306.230469 221.375 306.828125 222.050781 C 307.421875 222.726562 307.71875 223.664062 307.71875 224.863281 C 307.71875 226.054688 307.421875 226.992188 306.828125 227.671875 C 306.230469 228.351562 305.414062 228.691406 304.371094 228.691406 C 303.328125 228.691406 302.507812 228.351562 301.914062 227.671875 C 301.324219 226.992188 301.027344 226.054688 301.027344 224.863281 C 301.027344 223.664062 301.324219 222.726562 301.914062 222.050781 C 302.507812 221.375 303.328125 221.035156 304.371094 221.035156 Z M 304.371094 221.035156 "/>
<path style=" stroke:none;fill-rule:nonzero;fill:rgb(0%,0%,0%);fill-opacity:1;" d="M 315.765625 224.101562 L 315.765625 228.503906 L 314.570312 228.503906 L 314.570312 224.140625 C 314.570312 223.449219 314.433594 222.933594 314.164062 222.589844 C 313.894531 222.25 313.492188 222.078125 312.953125 222.078125 C 312.308594 222.078125 311.796875 222.285156 311.421875 222.695312 C 311.050781 223.105469 310.863281 223.667969 310.863281 224.382812 L 310.863281 228.503906 L 309.660156 228.503906 L 309.660156 221.210938 L 310.863281 221.210938 L 310.863281 222.34375 C 311.152344 221.90625 311.488281 221.578125 311.875 221.359375 C 312.265625 221.144531 312.714844 221.035156 313.222656 221.035156 C 314.058594 221.035156 314.691406 221.292969 315.121094 221.8125 C 315.550781 222.332031 315.765625 223.09375 315.765625 224.101562 Z M 315.765625 224.101562 "/>
<path style=" stroke:none;fill-rule:nonzero;fill:rgb(0%,0%,0%);fill-opacity:1;" d="M 317.96875 218.386719 L 319.007812 218.386719 C 319.660156 219.410156 320.144531 220.410156 320.46875 221.394531 C 320.792969 222.375 320.957031 223.347656 320.957031 224.316406 C 320.957031 225.289062 320.792969 226.265625 320.46875 227.253906 C 320.144531 228.238281 319.660156 229.238281 319.007812 230.261719 L 317.96875 230.261719 C 318.542969 229.265625 318.976562 228.277344 319.257812 227.292969 C 319.542969 226.308594 319.6875 225.316406 319.6875 224.316406 C 319.6875 223.3125 319.542969 222.324219 319.257812 221.347656 C 318.976562 220.371094 318.542969 219.382812 317.96875 218.386719 Z M 317.96875 218.386719 "/>
<g clip-path="url(#clip8)" clip-rule="nonzero">
<path style="fill:none;stroke-width:0.8;stroke-linecap:square;stroke-linejoin:round;stroke:rgb(69.01961%,69.01961%,69.01961%);stroke-opacity:1;stroke-miterlimit:4;" d="M 38.481445 136.921875 L 373.283203 136.921875 " transform="matrix(1.333333,0,0,1.333333,0,0)"/>
</g>
<path style="fill:none;stroke-width:0.8;stroke-linecap:butt;stroke-linejoin:round;stroke:rgb(0%,0%,0%);stroke-opacity:1;stroke-miterlimit:4;" d="M -0.00136948 -0.000854492 L -3.499416 -0.000854492 " transform="matrix(1.333333,0,0,1.333333,51.31042,182.563639)"/>
<path style=" stroke:none;fill-rule:nonzero;fill:rgb(0%,0%,0%);fill-opacity:1;" d="M 11.011719 182.894531 L 19.359375 182.894531 L 19.359375 184.003906 L 11.011719 184.003906 Z M 11.011719 182.894531 "/>
<path style=" stroke:none;fill-rule:nonzero;fill:rgb(0%,0%,0%);fill-opacity:1;" d="M 22.425781 186.523438 L 24.574219 186.523438 L 24.574219 179.105469 L 22.238281 179.574219 L 22.238281 178.378906 L 24.5625 177.910156 L 25.875 177.910156 L 25.875 186.523438 L 28.023438 186.523438 L 28.023438 187.628906 L 22.425781 187.628906 Z M 22.425781 186.523438 "/>
<path style=" stroke:none;fill-rule:nonzero;fill:rgb(0%,0%,0%);fill-opacity:1;" d="M 30.679688 185.976562 L 32.054688 185.976562 L 32.054688 187.628906 L 30.679688 187.628906 Z M 30.679688 185.976562 "/>
<path style=" stroke:none;fill-rule:nonzero;fill:rgb(0%,0%,0%);fill-opacity:1;" d="M 37.730469 178.773438 C 37.054688 178.773438 36.546875 179.109375 36.203125 179.773438 C 35.863281 180.441406 35.691406 181.441406 35.691406 182.777344 C 35.691406 184.109375 35.863281 185.109375 36.203125 185.777344 C 36.546875 186.445312 37.054688 186.777344 37.730469 186.777344 C 38.414062 186.777344 38.921875 186.445312 39.265625 185.777344 C 39.605469 185.109375 39.777344 184.109375 39.777344 182.777344 C 39.777344 181.441406 39.605469 180.441406 39.265625 179.773438 C 38.921875 179.109375 38.414062 178.773438 37.730469 178.773438 Z M 37.730469 177.734375 C 38.820312 177.734375 39.652344 178.164062 40.230469 179.027344 C 40.804688 179.886719 41.089844 181.140625 41.089844 182.777344 C 41.089844 184.414062 40.804688 185.664062 40.230469 186.527344 C 39.652344 187.386719 38.820312 187.820312 37.730469 187.820312 C 36.640625 187.820312 35.808594 187.386719 35.234375 186.527344 C 34.660156 185.664062 34.371094 184.414062 34.371094 182.777344 C 34.371094 181.140625 34.660156 179.886719 35.234375 179.027344 C 35.808594 178.164062 36.640625 177.734375 37.730469 177.734375 Z M 37.730469 177.734375 "/>
<g clip-path="url(#clip9)" clip-rule="nonzero">
<path style="fill:none;stroke-width:0.8;stroke-linecap:square;stroke-linejoin:round;stroke:rgb(69.01961%,69.01961%,69.01961%);stroke-opacity:1;stroke-miterlimit:4;" d="M 38.481445 106.037109 L 373.283203 106.037109 " transform="matrix(1.333333,0,0,1.333333,0,0)"/>
</g>
<path style="fill:none;stroke-width:0.8;stroke-linecap:butt;stroke-linejoin:round;stroke:rgb(0%,0%,0%);stroke-opacity:1;stroke-miterlimit:4;" d="M -0.00136948 0.000747681 L -3.499416 0.000747681 " transform="matrix(1.333333,0,0,1.333333,51.31042,141.381816)"/>
<path style=" stroke:none;fill-rule:nonzero;fill:rgb(0%,0%,0%);fill-opacity:1;" d="M 11.011719 141.714844 L 19.359375 141.714844 L 19.359375 142.820312 L 11.011719 142.820312 Z M 11.011719 141.714844 "/>
<path style=" stroke:none;fill-rule:nonzero;fill:rgb(0%,0%,0%);fill-opacity:1;" d="M 25.007812 137.59375 C 24.332031 137.59375 23.824219 137.925781 23.480469 138.59375 C 23.140625 139.257812 22.972656 140.261719 22.972656 141.597656 C 22.972656 142.929688 23.140625 143.929688 23.480469 144.59375 C 23.824219 145.261719 24.332031 145.59375 25.007812 145.59375 C 25.691406 145.59375 26.203125 145.261719 26.542969 144.59375 C 26.882812 143.929688 27.054688 142.929688 27.054688 141.597656 C 27.054688 140.261719 26.882812 139.257812 26.542969 138.59375 C 26.203125 137.925781 25.691406 137.59375 25.007812 137.59375 Z M 25.007812 136.550781 C 26.101562 136.550781 26.933594 136.984375 27.507812 137.84375 C 28.082031 138.707031 28.371094 139.957031 28.371094 141.597656 C 28.371094 143.234375 28.082031 144.484375 27.507812 145.34375 C 26.933594 146.207031 26.101562 146.636719 25.007812 146.636719 C 23.921875 146.636719 23.089844 146.207031 22.511719 145.34375 C 21.9375 144.484375 21.652344 143.234375 21.652344 141.597656 C 21.652344 139.957031 21.9375 138.707031 22.511719 137.84375 C 23.089844 136.984375 23.921875 136.550781 25.007812 136.550781 Z M 25.007812 136.550781 "/>
<path style=" stroke:none;fill-rule:nonzero;fill:rgb(0%,0%,0%);fill-opacity:1;" d="M 30.679688 144.792969 L 32.054688 144.792969 L 32.054688 146.449219 L 30.679688 146.449219 Z M 30.679688 144.792969 "/>
<path style=" stroke:none;fill-rule:nonzero;fill:rgb(0%,0%,0%);fill-opacity:1;" d="M 34.933594 136.726562 L 40.09375 136.726562 L 40.09375 137.835938 L 36.136719 137.835938 L 36.136719 140.214844 C 36.328125 140.152344 36.515625 140.101562 36.707031 140.070312 C 36.898438 140.039062 37.089844 140.023438 37.28125 140.023438 C 38.367188 140.023438 39.226562 140.320312 39.859375 140.914062 C 40.496094 141.507812 40.8125 142.3125 40.8125 143.328125 C 40.8125 144.375 40.484375 145.1875 39.835938 145.769531 C 39.183594 146.347656 38.265625 146.636719 37.082031 146.636719 C 36.671875 146.636719 36.257812 146.601562 35.832031 146.53125 C 35.410156 146.464844 34.972656 146.359375 34.523438 146.21875 L 34.523438 144.898438 C 34.914062 145.109375 35.316406 145.269531 35.734375 145.371094 C 36.148438 145.476562 36.589844 145.527344 37.054688 145.527344 C 37.804688 145.527344 38.398438 145.332031 38.835938 144.9375 C 39.277344 144.542969 39.496094 144.007812 39.496094 143.328125 C 39.496094 142.652344 39.277344 142.117188 38.835938 141.722656 C 38.398438 141.328125 37.804688 141.128906 37.054688 141.128906 C 36.703125 141.128906 36.351562 141.167969 36 141.246094 C 35.652344 141.324219 35.296875 141.445312 34.933594 141.609375 Z M 34.933594 136.726562 "/>
<g clip-path="url(#clip10)" clip-rule="nonzero">
<path style="fill:none;stroke-width:0.8;stroke-linecap:square;stroke-linejoin:round;stroke:rgb(69.01961%,69.01961%,69.01961%);stroke-opacity:1;stroke-miterlimit:4;" d="M 38.481445 75.149414 L 373.283203 75.149414 " transform="matrix(1.333333,0,0,1.333333,0,0)"/>
</g>
<path style="fill:none;stroke-width:0.8;stroke-linecap:butt;stroke-linejoin:round;stroke:rgb(0%,0%,0%);stroke-opacity:1;stroke-miterlimit:4;" d="M -0.00136948 -0.000587463 L -3.499416 -0.000587463 " transform="matrix(1.333333,0,0,1.333333,51.31042,100.200002)"/>
<path style=" stroke:none;fill-rule:nonzero;fill:rgb(0%,0%,0%);fill-opacity:1;" d="M 25.011719 96.410156 C 24.335938 96.410156 23.824219 96.746094 23.484375 97.410156 C 23.144531 98.078125 22.972656 99.078125 22.972656 100.414062 C 22.972656 101.746094 23.144531 102.746094 23.484375 103.414062 C 23.824219 104.082031 24.335938 104.414062 25.011719 104.414062 C 25.691406 104.414062 26.203125 104.082031 26.542969 103.414062 C 26.886719 102.746094 27.054688 101.746094 27.054688 100.414062 C 27.054688 99.078125 26.886719 98.078125 26.542969 97.410156 C 26.203125 96.746094 25.691406 96.410156 25.011719 96.410156 Z M 25.011719 95.371094 C 26.101562 95.371094 26.933594 95.800781 27.507812 96.664062 C 28.082031 97.523438 28.371094 98.773438 28.371094 100.414062 C 28.371094 102.050781 28.082031 103.300781 27.507812 104.164062 C 26.933594 105.023438 26.101562 105.457031 25.011719 105.457031 C 23.921875 105.457031 23.089844 105.023438 22.515625 104.164062 C 21.941406 103.300781 21.652344 102.050781 21.652344 100.414062 C 21.652344 98.773438 21.941406 97.523438 22.515625 96.664062 C 23.089844 95.800781 23.921875 95.371094 25.011719 95.371094 Z M 25.011719 95.371094 "/>
<path style=" stroke:none;fill-rule:nonzero;fill:rgb(0%,0%,0%);fill-opacity:1;" d="M 30.679688 103.613281 L 32.054688 103.613281 L 32.054688 105.265625 L 30.679688 105.265625 Z M 30.679688 103.613281 "/>
<path style=" stroke:none;fill-rule:nonzero;fill:rgb(0%,0%,0%);fill-opacity:1;" d="M 37.730469 96.410156 C 37.054688 96.410156 36.546875 96.746094 36.203125 97.410156 C 35.863281 98.078125 35.695312 99.078125 35.695312 100.414062 C 35.695312 101.746094 35.863281 102.746094 36.203125 103.414062 C 36.546875 104.082031 37.054688 104.414062 37.730469 104.414062 C 38.414062 104.414062 38.925781 104.082031 39.265625 103.414062 C 39.605469 102.746094 39.777344 101.746094 39.777344 100.414062 C 39.777344 99.078125 39.605469 98.078125 39.265625 97.410156 C 38.925781 96.746094 38.414062 96.410156 37.730469 96.410156 Z M 37.730469 95.371094 C 38.820312 95.371094 39.65625 95.800781 40.230469 96.664062 C 40.804688 97.523438 41.09375 98.773438 41.09375 100.414062 C 41.09375 102.050781 40.804688 103.300781 40.230469 104.164062 C 39.65625 105.023438 38.820312 105.457031 37.730469 105.457031 C 36.644531 105.457031 35.8125 105.023438 35.234375 104.164062 C 34.660156 103.300781 34.375 102.050781 34.375 100.414062 C 34.375 98.773438 34.660156 97.523438 35.234375 96.664062 C 35.8125 95.800781 36.644531 95.371094 37.730469 95.371094 Z M 37.730469 95.371094 "/>
<g clip-path="url(#clip11)" clip-rule="nonzero">
<path style="fill:none;stroke-width:0.8;stroke-linecap:square;stroke-linejoin:round;stroke:rgb(69.01961%,69.01961%,69.01961%);stroke-opacity:1;stroke-miterlimit:4;" d="M 38.481445 44.264648 L 373.283203 44.264648 " transform="matrix(1.333333,0,0,1.333333,0,0)"/>
</g>
<path style="fill:none;stroke-width:0.8;stroke-linecap:butt;stroke-linejoin:round;stroke:rgb(0%,0%,0%);stroke-opacity:1;stroke-miterlimit:4;" d="M -0.00136948 0.00101089 L -3.499416 0.00101089 " transform="matrix(1.333333,0,0,1.333333,51.31042,59.018183)"/>
<path style=" stroke:none;fill-rule:nonzero;fill:rgb(0%,0%,0%);fill-opacity:1;" d="M 25.011719 55.230469 C 24.335938 55.230469 23.824219 55.5625 23.484375 56.230469 C 23.144531 56.894531 22.972656 57.894531 22.972656 59.234375 C 22.972656 60.566406 23.144531 61.566406 23.484375 62.230469 C 23.824219 62.898438 24.335938 63.230469 25.011719 63.230469 C 25.691406 63.230469 26.203125 62.898438 26.542969 62.230469 C 26.886719 61.566406 27.054688 60.566406 27.054688 59.234375 C 27.054688 57.894531 26.886719 56.894531 26.542969 56.230469 C 26.203125 55.5625 25.691406 55.230469 25.011719 55.230469 Z M 25.011719 54.1875 C 26.101562 54.1875 26.933594 54.621094 27.507812 55.480469 C 28.082031 56.34375 28.371094 57.59375 28.371094 59.234375 C 28.371094 60.871094 28.082031 62.121094 27.507812 62.980469 C 26.933594 63.84375 26.101562 64.273438 25.011719 64.273438 C 23.921875 64.273438 23.089844 63.84375 22.515625 62.980469 C 21.941406 62.121094 21.652344 60.871094 21.652344 59.234375 C 21.652344 57.59375 21.941406 56.34375 22.515625 55.480469 C 23.089844 54.621094 23.921875 54.1875 25.011719 54.1875 Z M 25.011719 54.1875 "/>
<path style=" stroke:none;fill-rule:nonzero;fill:rgb(0%,0%,0%);fill-opacity:1;" d="M 30.679688 62.429688 L 32.054688 62.429688 L 32.054688 64.082031 L 30.679688 64.082031 Z M 30.679688 62.429688 "/>
<path style=" stroke:none;fill-rule:nonzero;fill:rgb(0%,0%,0%);fill-opacity:1;" d="M 34.933594 54.363281 L 40.097656 54.363281 L 40.097656 55.472656 L 36.136719 55.472656 L 36.136719 57.851562 C 36.328125 57.789062 36.519531 57.738281 36.707031 57.707031 C 36.902344 57.675781 37.09375 57.660156 37.285156 57.660156 C 38.367188 57.660156 39.226562 57.957031 39.859375 58.550781 C 40.496094 59.144531 40.8125 59.949219 40.8125 60.964844 C 40.8125 62.011719 40.488281 62.824219 39.835938 63.40625 C 39.183594 63.984375 38.265625 64.273438 37.082031 64.273438 C 36.671875 64.273438 36.257812 64.238281 35.832031 64.167969 C 35.410156 64.101562 34.976562 63.996094 34.523438 63.855469 L 34.523438 62.535156 C 34.914062 62.746094 35.316406 62.90625 35.734375 63.007812 C 36.152344 63.113281 36.589844 63.164062 37.054688 63.164062 C 37.804688 63.164062 38.402344 62.96875 38.839844 62.574219 C 39.277344 62.179688 39.496094 61.644531 39.496094 60.964844 C 39.496094 60.289062 39.277344 59.753906 38.839844 59.359375 C 38.402344 58.964844 37.804688 58.765625 37.054688 58.765625 C 36.703125 58.765625 36.351562 58.804688 36.003906 58.882812 C 35.652344 58.960938 35.296875 59.082031 34.933594 59.246094 Z M 34.933594 54.363281 "/>
<g clip-path="url(#clip12)" clip-rule="nonzero">
<path style="fill:none;stroke-width:0.8;stroke-linecap:square;stroke-linejoin:round;stroke:rgb(69.01961%,69.01961%,69.01961%);stroke-opacity:1;stroke-miterlimit:4;" d="M 38.481445 13.376953 L 373.283203 13.376953 " transform="matrix(1.333333,0,0,1.333333,0,0)"/>
</g>
<path style="fill:none;stroke-width:0.8;stroke-linecap:butt;stroke-linejoin:round;stroke:rgb(0%,0%,0%);stroke-opacity:1;stroke-miterlimit:4;" d="M -0.00136948 -0.000319481 L -3.499416 -0.000319481 " transform="matrix(1.333333,0,0,1.333333,51.31042,17.836363)"/>
<path style=" stroke:none;fill-rule:nonzero;fill:rgb(0%,0%,0%);fill-opacity:1;" d="M 22.425781 21.796875 L 24.574219 21.796875 L 24.574219 14.378906 L 22.238281 14.847656 L 22.238281 13.648438 L 24.5625 13.179688 L 25.878906 13.179688 L 25.878906 21.796875 L 28.023438 21.796875 L 28.023438 22.902344 L 22.425781 22.902344 Z M 22.425781 21.796875 "/>
<path style=" stroke:none;fill-rule:nonzero;fill:rgb(0%,0%,0%);fill-opacity:1;" d="M 30.679688 21.246094 L 32.054688 21.246094 L 32.054688 22.902344 L 30.679688 22.902344 Z M 30.679688 21.246094 "/>
<path style=" stroke:none;fill-rule:nonzero;fill:rgb(0%,0%,0%);fill-opacity:1;" d="M 37.730469 14.046875 C 37.054688 14.046875 36.546875 14.382812 36.203125 15.046875 C 35.863281 15.714844 35.695312 16.714844 35.695312 18.050781 C 35.695312 19.382812 35.863281 20.382812 36.203125 21.050781 C 36.546875 21.714844 37.054688 22.050781 37.730469 22.050781 C 38.414062 22.050781 38.925781 21.714844 39.265625 21.050781 C 39.605469 20.382812 39.777344 19.382812 39.777344 18.050781 C 39.777344 16.714844 39.605469 15.714844 39.265625 15.046875 C 38.925781 14.382812 38.414062 14.046875 37.730469 14.046875 Z M 37.730469 13.007812 C 38.820312 13.007812 39.65625 13.4375 40.230469 14.300781 C 40.804688 15.160156 41.09375 16.410156 41.09375 18.050781 C 41.09375 19.6875 40.804688 20.9375 40.230469 21.800781 C 39.65625 22.660156 38.820312 23.089844 37.730469 23.089844 C 36.644531 23.089844 35.8125 22.660156 35.234375 21.800781 C 34.660156 20.9375 34.375 19.6875 34.375 18.050781 C 34.375 16.410156 34.660156 15.160156 35.234375 14.300781 C 35.8125 13.4375 36.644531 13.007812 37.730469 13.007812 Z M 37.730469 13.007812 "/>
<path style="fill:none;stroke-width:1.5;stroke-linecap:square;stroke-linejoin:round;stroke:rgb(12.156863%,46.666667%,70.588237%);stroke-opacity:1;stroke-miterlimit:4;" d="M 53.701172 75.149414 L 58.860352 64.22168 L 64.019531 53.639648 L 69.175781 43.737305 L 74.334961 34.822266 L 79.494141 27.181641 L 84.65332 21.052734 L 89.8125 16.631836 L 94.97168 14.053711 L 100.12793 13.40332 L 105.287109 14.701172 L 110.446289 17.90625 L 115.605469 22.916016 L 120.764648 29.572266 L 125.923828 37.666992 L 131.083008 46.945312 L 136.239258 57.111328 L 141.398438 67.845703 L 146.557617 78.811523 L 151.716797 89.663086 L 156.875977 100.054688 L 162.035156 109.661133 L 167.191406 118.180664 L 172.350586 125.34082 L 177.509766 130.918945 L 182.668945 134.739258 L 187.828125 136.678711 L 192.987305 136.678711 L 198.143555 134.736328 L 203.302734 130.916016 L 208.461914 125.337891 L 213.621094 118.174805 L 218.780273 109.655273 L 223.939453 100.048828 L 229.095703 89.654297 L 234.254883 78.805664 L 239.414062 67.839844 L 244.573242 57.105469 L 249.732422 46.939453 L 254.891602 37.661133 L 260.047852 29.569336 L 265.207031 22.913086 L 270.366211 17.90332 L 275.525391 14.701172 L 280.68457 13.40332 L 285.84375 14.053711 L 291 16.631836 L 296.15918 21.055664 L 301.318359 27.18457 L 306.477539 34.828125 L 311.636719 43.743164 L 316.795898 53.645508 L 321.955078 64.230469 L 327.111328 75.155273 L 332.270508 86.083008 L 337.429688 96.665039 L 342.588867 106.570312 L 347.748047 115.482422 L 352.907227 123.123047 L 358.063477 129.249023 " transform="matrix(1.333333,0,0,1.333333,0,0)"/>
<path style="fill:none;stroke-width:1.5;stroke-linecap:butt;stroke-linejoin:round;stroke:rgb(74.901962%,0%,74.901962%);stroke-opacity:1;stroke-dasharray:5.55,2.4;stroke-miterlimit:4;" d="M 53.701172 13.376953 L 58.860352 14.352539 L 64.019531 17.244141 L 69.175781 21.960938 L 74.334961 28.356445 L 79.494141 36.228516 L 84.65332 45.328125 L 89.8125 55.368164 L 94.97168 66.029297 L 100.12793 76.980469 L 105.287109 87.875977 L 110.446289 98.367188 L 115.605469 108.125977 L 120.764648 116.847656 L 125.923828 124.250977 L 131.083008 130.107422 L 136.239258 134.229492 L 141.398438 136.488281 L 146.557617 136.813477 L 151.716797 135.193359 L 156.875977 131.680664 L 162.035156 126.383789 L 167.191406 119.469727 L 172.350586 111.161133 L 177.509766 101.712891 L 182.668945 91.429688 L 187.828125 80.630859 L 192.987305 69.662109 L 198.143555 58.863281 L 203.302734 48.580078 L 208.461914 39.134766 L 213.621094 30.826172 L 218.780273 23.912109 L 223.939453 18.618164 L 229.095703 15.105469 L 234.254883 13.485352 L 239.414062 13.810547 L 244.573242 16.072266 L 249.732422 20.194336 L 254.891602 26.053711 L 260.047852 33.457031 L 265.207031 42.178711 L 270.366211 51.9375 L 275.525391 62.431641 L 280.68457 73.324219 L 285.84375 84.275391 L 291 94.939453 L 296.15918 104.979492 L 301.318359 114.076172 L 306.477539 121.948242 L 311.636719 128.34082 L 316.795898 133.060547 L 321.955078 135.949219 L 327.111328 136.921875 L 332.270508 135.946289 L 337.429688 133.054688 L 342.588867 128.334961 L 347.748047 121.939453 L 352.907227 114.067383 L 358.063477 104.967773 " transform="matrix(1.333333,0,0,1.333333,0,0)"/>
<path style="fill:none;stroke-width:1.5;stroke-linecap:butt;stroke-linejoin:round;stroke:rgb(0%,50.196081%,0%);stroke-opacity:1;stroke-dasharray:9.6,2.4,1.5,2.4;stroke-miterlimit:4;" d="M 53.701172 75.149414 L 58.860352 68.982422 L 64.019531 62.876953 L 69.175781 56.894531 L 74.334961 51.09375 L 79.494141 45.533203 L 84.65332 40.271484 L 89.8125 35.355469 L 94.97168 30.837891 L 100.12793 26.762695 L 105.287109 23.170898 L 110.446289 20.097656 L 115.605469 17.575195 L 120.764648 15.626953 L 125.923828 14.276367 L 131.083008 13.532227 L 136.239258 13.40332 L 141.398438 13.892578 L 146.557617 14.994141 L 151.716797 16.693359 L 156.875977 18.981445 L 162.035156 21.826172 L 167.191406 25.207031 L 172.350586 29.085938 L 177.509766 33.424805 L 182.668945 38.179688 L 187.828125 43.306641 L 192.987305 48.75 L 198.143555 54.457031 L 203.302734 60.37207 L 208.461914 66.433594 L 213.621094 72.580078 L 218.780273 78.755859 L 223.939453 84.893555 L 229.095703 90.93457 L 234.254883 96.817383 L 239.414062 102.486328 L 244.573242 107.879883 L 249.732422 112.945312 L 254.891602 117.635742 L 260.047852 121.898438 L 265.207031 125.698242 L 270.366211 128.988281 L 275.525391 131.745117 L 280.68457 133.933594 L 285.84375 135.536133 L 291 136.532227 L 296.15918 136.918945 L 301.318359 136.68457 L 306.477539 135.837891 L 311.636719 134.384766 L 316.795898 132.339844 L 321.955078 129.723633 L 327.111328 126.5625 L 332.270508 122.885742 L 337.429688 118.734375 L 342.588867 114.146484 L 347.748047 109.166016 L 352.907227 103.848633 L 358.063477 98.244141 " transform="matrix(1.333333,0,0,1.333333,0,0)"/>
<path style="fill:none;stroke-width:1.5;stroke-linecap:butt;stroke-linejoin:round;stroke:rgb(100%,0%,0%);stroke-opacity:1;stroke-dasharray:1.5,2.475;stroke-miterlimit:4;" d="M 53.701172 13.376953 L 58.860352 13.68457 L 64.019531 14.607422 L 69.175781 16.136719 L 74.334961 18.254883 L 79.494141 20.938477 L 84.65332 24.166992 L 89.8125 27.902344 L 94.97168 32.112305 L 100.12793 36.75 L 105.287109 41.774414 L 110.446289 47.129883 L 115.605469 52.766602 L 120.764648 58.625977 L 125.923828 64.649414 L 131.083008 70.78125 L 136.239258 76.954102 L 141.398438 83.109375 L 146.557617 89.185547 L 151.716797 95.121094 L 156.875977 100.857422 L 162.035156 106.335938 L 167.191406 111.503906 L 172.350586 116.308594 L 177.509766 120.700195 L 182.668945 124.637695 L 187.828125 128.083008 L 192.987305 130.998047 L 198.143555 133.353516 L 203.302734 135.128906 L 208.461914 136.303711 L 213.621094 136.869141 L 218.780273 136.816406 L 223.939453 136.148438 L 229.095703 134.871094 L 234.254883 132.996094 L 239.414062 130.543945 L 244.573242 127.538086 L 249.732422 124.010742 L 254.891602 119.994141 L 260.047852 115.526367 L 265.207031 110.657227 L 270.366211 105.433594 L 275.525391 99.908203 L 280.68457 94.133789 L 285.84375 88.171875 L 291 82.078125 L 296.15918 75.914062 L 301.318359 69.744141 L 306.477539 63.629883 L 311.636719 57.626953 L 316.795898 51.802734 L 321.955078 46.207031 L 327.111328 40.904297 L 332.270508 35.944336 L 337.429688 31.374023 L 342.588867 27.240234 L 347.748047 23.586914 L 352.907227 20.449219 L 358.063477 17.856445 " transform="matrix(1.333333,0,0,1.333333,0,0)"/>
<path style="fill:none;stroke-width:0.8;stroke-linecap:square;stroke-linejoin:miter;stroke:rgb(0%,0%,0%);stroke-opacity:1;stroke-miterlimit:4;" d="M 38.481445 143.100586 L 38.481445 7.201172 " transform="matrix(1.333333,0,0,1.333333,0,0)"/>
<path style="fill:none;stroke-width:0.8;stroke-linecap:square;stroke-linejoin:miter;stroke:rgb(0%,0%,0%);stroke-opacity:1;stroke-miterlimit:4;" d="M 373.283203 143.100586 L 373.283203 7.201172 " transform="matrix(1.333333,0,0,1.333333,0,0)"/>
<path style="fill:none;stroke-width:0.8;stroke-linecap:square;stroke-linejoin:miter;stroke:rgb(0%,0%,0%);stroke-opacity:1;stroke-miterlimit:4;" d="M 38.481445 143.100586 L 373.283203 143.100586 " transform="matrix(1.333333,0,0,1.333333,0,0)"/>
<path style="fill:none;stroke-width:0.8;stroke-linecap:square;stroke-linejoin:miter;stroke:rgb(0%,0%,0%);stroke-opacity:1;stroke-miterlimit:4;" d="M 38.481445 7.201172 L 373.283203 7.201172 " transform="matrix(1.333333,0,0,1.333333,0,0)"/>
<use xlink:href="#surface5" mask="url(#mask0)"/>
<path style="fill:none;stroke-width:1.5;stroke-linecap:square;stroke-linejoin:round;stroke:rgb(12.156863%,46.666667%,70.588237%);stroke-opacity:1;stroke-miterlimit:4;" d="M 47.481445 84.486328 L 67.482422 84.486328 " transform="matrix(1.333333,0,0,1.333333,0,0)"/>
<path style=" stroke:none;fill-rule:nonzero;fill:rgb(0%,0%,0%);fill-opacity:1;" d="M 109.230469 108.34375 L 109.230469 109.730469 C 108.789062 109.316406 108.316406 109.007812 107.816406 108.804688 C 107.3125 108.601562 106.78125 108.5 106.214844 108.5 C 105.105469 108.5 104.253906 108.839844 103.664062 109.519531 C 103.074219 110.199219 102.777344 111.179688 102.777344 112.464844 C 102.777344 113.746094 103.074219 114.726562 103.664062 115.402344 C 104.253906 116.082031 105.105469 116.421875 106.214844 116.421875 C 106.78125 116.421875 107.3125 116.320312 107.816406 116.117188 C 108.316406 115.914062 108.789062 115.605469 109.230469 115.191406 L 109.230469 116.566406 C 108.773438 116.878906 108.285156 117.113281 107.769531 117.269531 C 107.253906 117.425781 106.710938 117.503906 106.140625 117.503906 C 104.667969 117.503906 103.507812 117.054688 102.660156 116.152344 C 101.816406 115.253906 101.390625 114.023438 101.390625 112.464844 C 101.390625 110.902344 101.816406 109.671875 102.660156 108.769531 C 103.507812 107.871094 104.667969 107.417969 106.140625 107.417969 C 106.71875 107.417969 107.265625 107.496094 107.78125 107.648438 C 108.296875 107.804688 108.78125 108.035156 109.230469 108.34375 Z M 109.230469 108.34375 "/>
<path style=" stroke:none;fill-rule:nonzero;fill:rgb(0%,0%,0%);fill-opacity:1;" d="M 114.035156 110.863281 C 113.394531 110.863281 112.886719 111.113281 112.511719 111.613281 C 112.136719 112.117188 111.953125 112.804688 111.953125 113.675781 C 111.953125 114.546875 112.136719 115.234375 112.507812 115.734375 C 112.878906 116.238281 113.390625 116.488281 114.035156 116.488281 C 114.671875 116.488281 115.179688 116.234375 115.550781 115.734375 C 115.925781 115.230469 116.113281 114.542969 116.113281 113.675781 C 116.113281 112.8125 115.925781 112.125 115.550781 111.621094 C 115.179688 111.117188 114.671875 110.863281 114.035156 110.863281 Z M 114.035156 109.847656 C 115.078125 109.847656 115.894531 110.1875 116.488281 110.863281 C 117.085938 111.539062 117.382812 112.476562 117.382812 113.675781 C 117.382812 114.867188 117.085938 115.804688 116.488281 116.484375 C 115.894531 117.164062 115.078125 117.503906 114.035156 117.503906 C 112.988281 117.503906 112.167969 117.164062 111.578125 116.484375 C 110.984375 115.804688 110.6875 114.867188 110.6875 113.675781 C 110.6875 112.476562 110.984375 111.539062 111.578125 110.863281 C 112.167969 110.1875 112.988281 109.847656 114.035156 109.847656 Z M 114.035156 109.847656 "/>
<path style=" stroke:none;fill-rule:nonzero;fill:rgb(0%,0%,0%);fill-opacity:1;" d="M 119.367188 107.183594 L 120.566406 107.183594 L 120.566406 117.316406 L 119.367188 117.316406 Z M 119.367188 107.183594 "/>
<path style=" stroke:none;fill-rule:nonzero;fill:rgb(0%,0%,0%);fill-opacity:1;" d="M 130.457031 111.929688 C 129.867188 111.929688 129.398438 112.132812 129.050781 112.539062 C 128.707031 112.941406 128.535156 113.492188 128.535156 114.195312 C 128.535156 114.894531 128.707031 115.445312 129.050781 115.855469 C 129.398438 116.257812 129.867188 116.460938 130.457031 116.460938 C 131.046875 116.460938 131.511719 116.257812 131.859375 115.855469 C 132.203125 115.445312 132.375 114.894531 132.375 114.195312 C 132.375 113.492188 132.203125 112.941406 131.859375 112.539062 C 131.511719 112.132812 131.046875 111.929688 130.457031 111.929688 Z M 133.066406 107.808594 L 133.066406 109.007812 C 132.734375 108.851562 132.402344 108.730469 132.066406 108.648438 C 131.730469 108.566406 131.398438 108.523438 131.066406 108.523438 C 130.199219 108.523438 129.535156 108.816406 129.078125 109.402344 C 128.621094 109.992188 128.359375 110.875 128.292969 112.058594 C 128.550781 111.683594 128.871094 111.394531 129.257812 111.191406 C 129.644531 110.992188 130.070312 110.890625 130.53125 110.890625 C 131.507812 110.890625 132.28125 111.1875 132.847656 111.777344 C 133.414062 112.371094 133.699219 113.175781 133.699219 114.195312 C 133.699219 115.195312 133.402344 115.996094 132.8125 116.601562 C 132.222656 117.203125 131.4375 117.503906 130.457031 117.503906 C 129.332031 117.503906 128.472656 117.074219 127.875 116.210938 C 127.28125 115.351562 126.984375 114.101562 126.984375 112.464844 C 126.984375 110.929688 127.351562 109.703125 128.078125 108.789062 C 128.808594 107.875 129.785156 107.417969 131.015625 107.417969 C 131.34375 107.417969 131.679688 107.453125 132.015625 107.515625 C 132.351562 107.582031 132.699219 107.679688 133.066406 107.808594 Z M 133.066406 107.808594 "/>
<path style="fill:none;stroke-width:1.5;stroke-linecap:butt;stroke-linejoin:round;stroke:rgb(74.901962%,0%,74.901962%);stroke-opacity:1;stroke-dasharray:5.55,2.4;stroke-miterlimit:4;" d="M 47.481445 99.164062 L 67.482422 99.164062 " transform="matrix(1.333333,0,0,1.333333,0,0)"/>
<path style=" stroke:none;fill-rule:nonzero;fill:rgb(0%,0%,0%);fill-opacity:1;" d="M 109.230469 127.914062 L 109.230469 129.300781 C 108.789062 128.886719 108.316406 128.578125 107.816406 128.378906 C 107.3125 128.171875 106.78125 128.070312 106.214844 128.070312 C 105.105469 128.070312 104.253906 128.410156 103.664062 129.089844 C 103.074219 129.769531 102.777344 130.75 102.777344 132.035156 C 102.777344 133.316406 103.074219 134.296875 103.664062 134.976562 C 104.253906 135.652344 105.105469 135.992188 106.214844 135.992188 C 106.78125 135.992188 107.3125 135.890625 107.816406 135.6875 C 108.316406 135.484375 108.789062 135.175781 109.230469 134.761719 L 109.230469 136.136719 C 108.773438 136.449219 108.285156 136.683594 107.769531 136.839844 C 107.253906 136.996094 106.710938 137.074219 106.140625 137.074219 C 104.667969 137.074219 103.507812 136.625 102.660156 135.726562 C 101.816406 134.824219 101.390625 133.59375 101.390625 132.035156 C 101.390625 130.472656 101.816406 129.242188 102.660156 128.339844 C 103.507812 127.441406 104.667969 126.988281 106.140625 126.988281 C 106.71875 126.988281 107.265625 127.066406 107.78125 127.222656 C 108.296875 127.375 108.78125 127.605469 109.230469 127.914062 Z M 109.230469 127.914062 "/>
<path style=" stroke:none;fill-rule:nonzero;fill:rgb(0%,0%,0%);fill-opacity:1;" d="M 114.035156 130.433594 C 113.394531 130.433594 112.886719 130.683594 112.511719 131.183594 C 112.136719 131.6875 111.953125 132.375 111.953125 133.246094 C 111.953125 134.117188 112.136719 134.804688 112.507812 135.304688 C 112.878906 135.808594 113.390625 136.058594 114.035156 136.058594 C 114.671875 136.058594 115.179688 135.808594 115.550781 135.304688 C 115.925781 134.800781 116.113281 134.113281 116.113281 133.246094 C 116.113281 132.382812 115.925781 131.695312 115.550781 131.191406 C 115.179688 130.6875 114.671875 130.433594 114.035156 130.433594 Z M 114.035156 129.417969 C 115.078125 129.417969 115.894531 129.757812 116.488281 130.433594 C 117.085938 131.113281 117.382812 132.046875 117.382812 133.246094 C 117.382812 134.4375 117.085938 135.375 116.488281 136.054688 C 115.894531 136.734375 115.078125 137.074219 114.035156 137.074219 C 112.988281 137.074219 112.167969 136.734375 111.578125 136.054688 C 110.984375 135.375 110.6875 134.4375 110.6875 133.246094 C 110.6875 132.046875 110.984375 131.113281 111.578125 130.433594 C 112.167969 129.757812 112.988281 129.417969 114.035156 129.417969 Z M 114.035156 129.417969 "/>
<path style=" stroke:none;fill-rule:nonzero;fill:rgb(0%,0%,0%);fill-opacity:1;" d="M 119.367188 126.753906 L 120.566406 126.753906 L 120.566406 136.886719 L 119.367188 136.886719 Z M 119.367188 126.753906 "/>
<path style=" stroke:none;fill-rule:nonzero;fill:rgb(0%,0%,0%);fill-opacity:1;" d="M 127.148438 127.164062 L 133.398438 127.164062 L 133.398438 127.726562 L 129.867188 136.886719 L 128.496094 136.886719 L 131.816406 128.273438 L 127.148438 128.273438 Z M 127.148438 127.164062 "/>
<path style="fill:none;stroke-width:1.5;stroke-linecap:butt;stroke-linejoin:round;stroke:rgb(0%,50.196081%,0%);stroke-opacity:1;stroke-dasharray:9.6,2.4,1.5,2.4;stroke-miterlimit:4;" d="M 47.481445 113.841797 L 67.482422 113.841797 " transform="matrix(1.333333,0,0,1.333333,0,0)"/>
<path style=" stroke:none;fill-rule:nonzero;fill:rgb(0%,0%,0%);fill-opacity:1;" d="M 109.230469 147.484375 L 109.230469 148.871094 C 108.789062 148.457031 108.316406 148.152344 107.816406 147.949219 C 107.3125 147.742188 106.78125 147.640625 106.214844 147.640625 C 105.105469 147.640625 104.253906 147.980469 103.664062 148.660156 C 103.074219 149.339844 102.777344 150.320312 102.777344 151.605469 C 102.777344 152.886719 103.074219 153.867188 103.664062 154.546875 C 104.253906 155.226562 105.105469 155.566406 106.214844 155.566406 C 106.78125 155.566406 107.3125 155.460938 107.816406 155.257812 C 108.316406 155.054688 108.789062 154.746094 109.230469 154.332031 L 109.230469 155.707031 C 108.773438 156.019531 108.285156 156.253906 107.769531 156.414062 C 107.253906 156.566406 106.710938 156.644531 106.140625 156.644531 C 104.667969 156.644531 103.507812 156.195312 102.660156 155.296875 C 101.816406 154.394531 101.390625 153.164062 101.390625 151.605469 C 101.390625 150.042969 101.816406 148.8125 102.660156 147.914062 C 103.507812 147.011719 104.667969 146.558594 106.140625 146.558594 C 106.71875 146.558594 107.265625 146.636719 107.78125 146.792969 C 108.296875 146.945312 108.78125 147.175781 109.230469 147.484375 Z M 109.230469 147.484375 "/>
<path style=" stroke:none;fill-rule:nonzero;fill:rgb(0%,0%,0%);fill-opacity:1;" d="M 114.035156 150.003906 C 113.394531 150.003906 112.886719 150.253906 112.511719 150.757812 C 112.136719 151.257812 111.953125 151.945312 111.953125 152.816406 C 111.953125 153.6875 112.136719 154.375 112.507812 154.878906 C 112.878906 155.378906 113.390625 155.628906 114.035156 155.628906 C 114.671875 155.628906 115.179688 155.378906 115.550781 154.875 C 115.925781 154.371094 116.113281 153.683594 116.113281 152.816406 C 116.113281 151.953125 115.925781 151.269531 115.550781 150.761719 C 115.179688 150.257812 114.671875 150.003906 114.035156 150.003906 Z M 114.035156 148.988281 C 115.078125 148.988281 115.894531 149.328125 116.488281 150.007812 C 117.085938 150.683594 117.382812 151.621094 117.382812 152.816406 C 117.382812 154.007812 117.085938 154.945312 116.488281 155.628906 C 115.894531 156.304688 115.078125 156.644531 114.035156 156.644531 C 112.988281 156.644531 112.167969 156.304688 111.578125 155.628906 C 110.984375 154.945312 110.6875 154.007812 110.6875 152.816406 C 110.6875 151.621094 110.984375 150.683594 111.578125 150.007812 C 112.167969 149.328125 112.988281 148.988281 114.035156 148.988281 Z M 114.035156 148.988281 "/>
<path style=" stroke:none;fill-rule:nonzero;fill:rgb(0%,0%,0%);fill-opacity:1;" d="M 119.367188 146.324219 L 120.566406 146.324219 L 120.566406 156.457031 L 119.367188 156.457031 Z M 119.367188 146.324219 "/>
<path style=" stroke:none;fill-rule:nonzero;fill:rgb(0%,0%,0%);fill-opacity:1;" d="M 130.292969 151.839844 C 129.667969 151.839844 129.175781 152.007812 128.816406 152.339844 C 128.460938 152.675781 128.28125 153.136719 128.28125 153.722656 C 128.28125 154.308594 128.460938 154.765625 128.816406 155.101562 C 129.175781 155.4375 129.667969 155.605469 130.292969 155.605469 C 130.917969 155.605469 131.410156 155.4375 131.769531 155.101562 C 132.128906 154.761719 132.308594 154.304688 132.308594 153.722656 C 132.308594 153.136719 132.132812 152.675781 131.773438 152.339844 C 131.414062 152.007812 130.921875 151.839844 130.292969 151.839844 Z M 128.976562 151.28125 C 128.414062 151.140625 127.972656 150.878906 127.65625 150.492188 C 127.34375 150.105469 127.1875 149.632812 127.1875 149.078125 C 127.1875 148.304688 127.464844 147.6875 128.015625 147.238281 C 128.570312 146.785156 129.328125 146.558594 130.292969 146.558594 C 131.257812 146.558594 132.019531 146.785156 132.570312 147.238281 C 133.121094 147.6875 133.398438 148.304688 133.398438 149.078125 C 133.398438 149.632812 133.238281 150.105469 132.925781 150.492188 C 132.609375 150.878906 132.175781 151.140625 131.613281 151.28125 C 132.246094 151.429688 132.742188 151.71875 133.09375 152.148438 C 133.449219 152.578125 133.625 153.101562 133.625 153.722656 C 133.625 154.664062 133.335938 155.386719 132.761719 155.890625 C 132.1875 156.394531 131.363281 156.644531 130.292969 156.644531 C 129.21875 156.644531 128.398438 156.394531 127.820312 155.890625 C 127.246094 155.386719 126.957031 154.664062 126.957031 153.722656 C 126.957031 153.101562 127.136719 152.578125 127.492188 152.148438 C 127.847656 151.71875 128.34375 151.429688 128.976562 151.28125 Z M 128.496094 149.203125 C 128.496094 149.707031 128.652344 150.097656 128.964844 150.382812 C 129.28125 150.664062 129.722656 150.804688 130.292969 150.804688 C 130.855469 150.804688 131.296875 150.664062 131.617188 150.382812 C 131.9375 150.097656 132.09375 149.707031 132.09375 149.203125 C 132.09375 148.699219 131.9375 148.308594 131.617188 148.023438 C 131.296875 147.742188 130.855469 147.601562 130.292969 147.601562 C 129.722656 147.601562 129.28125 147.742188 128.964844 148.023438 C 128.652344 148.308594 128.496094 148.699219 128.496094 149.203125 Z M 128.496094 149.203125 "/>
<path style="fill:none;stroke-width:1.5;stroke-linecap:butt;stroke-linejoin:round;stroke:rgb(100%,0%,0%);stroke-opacity:1;stroke-dasharray:1.5,2.475;stroke-miterlimit:4;" d="M 47.481445 128.519531 L 67.482422 128.519531 " transform="matrix(1.333333,0,0,1.333333,0,0)"/>
<path style=" stroke:none;fill-rule:nonzero;fill:rgb(0%,0%,0%);fill-opacity:1;" d="M 109.230469 167.054688 L 109.230469 168.441406 C 108.789062 168.027344 108.316406 167.722656 107.816406 167.519531 C 107.3125 167.316406 106.78125 167.210938 106.214844 167.210938 C 105.105469 167.210938 104.253906 167.550781 103.664062 168.230469 C 103.074219 168.910156 102.777344 169.890625 102.777344 171.175781 C 102.777344 172.457031 103.074219 173.4375 103.664062 174.117188 C 104.253906 174.796875 105.105469 175.136719 106.214844 175.136719 C 106.78125 175.136719 107.3125 175.035156 107.816406 174.828125 C 108.316406 174.625 108.789062 174.316406 109.230469 173.902344 L 109.230469 175.277344 C 108.773438 175.589844 108.285156 175.828125 107.769531 175.984375 C 107.253906 176.140625 106.710938 176.214844 106.140625 176.214844 C 104.667969 176.214844 103.507812 175.765625 102.660156 174.867188 C 101.816406 173.964844 101.390625 172.734375 101.390625 171.175781 C 101.390625 169.613281 101.816406 168.382812 102.660156 167.484375 C 103.507812 166.582031 104.667969 166.132812 106.140625 166.132812 C 106.71875 166.132812 107.265625 166.207031 107.78125 166.363281 C 108.296875 166.515625 108.78125 166.746094 109.230469 167.054688 Z M 109.230469 167.054688 "/>
<path style=" stroke:none;fill-rule:nonzero;fill:rgb(0%,0%,0%);fill-opacity:1;" d="M 114.035156 169.574219 C 113.394531 169.574219 112.886719 169.824219 112.511719 170.328125 C 112.136719 170.828125 111.953125 171.515625 111.953125 172.386719 C 111.953125 173.257812 112.136719 173.945312 112.507812 174.449219 C 112.878906 174.949219 113.390625 175.199219 114.035156 175.199219 C 114.671875 175.199219 115.179688 174.949219 115.550781 174.445312 C 115.925781 173.941406 116.113281 173.253906 116.113281 172.386719 C 116.113281 171.523438 115.925781 170.839844 115.550781 170.332031 C 115.179688 169.828125 114.671875 169.574219 114.035156 169.574219 Z M 114.035156 168.558594 C 115.078125 168.558594 115.894531 168.898438 116.488281 169.578125 C 117.085938 170.253906 117.382812 171.191406 117.382812 172.386719 C 117.382812 173.582031 117.085938 174.515625 116.488281 175.199219 C 115.894531 175.878906 115.078125 176.214844 114.035156 176.214844 C 112.988281 176.214844 112.167969 175.878906 111.578125 175.199219 C 110.984375 174.515625 110.6875 173.582031 110.6875 172.386719 C 110.6875 171.191406 110.984375 170.253906 111.578125 169.578125 C 112.167969 168.898438 112.988281 168.558594 114.035156 168.558594 Z M 114.035156 168.558594 "/>
<path style=" stroke:none;fill-rule:nonzero;fill:rgb(0%,0%,0%);fill-opacity:1;" d="M 119.367188 165.894531 L 120.566406 165.894531 L 120.566406 176.027344 L 119.367188 176.027344 Z M 119.367188 165.894531 "/>
<path style=" stroke:none;fill-rule:nonzero;fill:rgb(0%,0%,0%);fill-opacity:1;" d="M 127.519531 175.824219 L 127.519531 174.628906 C 127.847656 174.785156 128.183594 174.902344 128.519531 174.984375 C 128.859375 175.066406 129.191406 175.109375 129.519531 175.109375 C 130.386719 175.109375 131.050781 174.816406 131.507812 174.234375 C 131.964844 173.648438 132.226562 172.761719 132.292969 171.574219 C 132.039062 171.945312 131.71875 172.234375 131.332031 172.433594 C 130.945312 172.632812 130.519531 172.734375 130.050781 172.734375 C 129.078125 172.734375 128.308594 172.441406 127.742188 171.851562 C 127.175781 171.261719 126.894531 170.457031 126.894531 169.4375 C 126.894531 168.441406 127.1875 167.640625 127.777344 167.039062 C 128.371094 166.433594 129.15625 166.132812 130.136719 166.132812 C 131.261719 166.132812 132.117188 166.5625 132.710938 167.425781 C 133.304688 168.285156 133.601562 169.535156 133.601562 171.175781 C 133.601562 172.710938 133.234375 173.933594 132.507812 174.847656 C 131.78125 175.757812 130.804688 176.214844 129.578125 176.214844 C 129.246094 176.214844 128.910156 176.183594 128.574219 176.117188 C 128.234375 176.054688 127.882812 175.957031 127.519531 175.824219 Z M 130.136719 171.703125 C 130.726562 171.703125 131.191406 171.503906 131.539062 171.101562 C 131.882812 170.695312 132.054688 170.140625 132.054688 169.4375 C 132.054688 168.738281 131.882812 168.1875 131.539062 167.78125 C 131.191406 167.375 130.726562 167.171875 130.136719 167.171875 C 129.542969 167.171875 129.078125 167.375 128.734375 167.78125 C 128.386719 168.1875 128.214844 168.738281 128.214844 169.4375 C 128.214844 170.140625 128.386719 170.695312 128.734375 171.101562 C 129.078125 171.503906 129.542969 171.703125 130.136719 171.703125 Z M 130.136719 171.703125 "/>
</g>
</svg>
