<?xml version="1.0" encoding="UTF-8"?>
<svg xmlns="http://www.w3.org/2000/svg" xmlns:xlink="http://www.w3.org/1999/xlink" width="345.341675" height="240.875" viewBox="0 0 345.341675 240.875" version="1.1">
<defs>
<clipPath id="clip1">
  <path d="M 95 9.601562 L 97 9.601562 L 97 190.800781 L 95 190.800781 Z M 95 9.601562 "/>
</clipPath>
<clipPath id="clip2">
  <path d="M 152 9.601562 L 155 9.601562 L 155 190.800781 L 152 190.800781 Z M 152 9.601562 "/>
</clipPath>
<clipPath id="clip3">
  <path d="M 210 9.601562 L 213 9.601562 L 213 190.800781 L 210 190.800781 Z M 210 9.601562 "/>
</clipPath>
<clipPath id="clip4">
  <path d="M 268 9.601562 L 271 9.601562 L 271 190.800781 L 268 190.800781 Z M 268 9.601562 "/>
</clipPath>
<clipPath id="clip5">
  <path d="M 326 9.601562 L 327.257812 9.601562 L 327.257812 190.800781 L 326 190.800781 Z M 326 9.601562 "/>
</clipPath>
<clipPath id="clip6">
  <path d="M 66.859375 164 L 327.257812 164 L 327.257812 167 L 66.859375 167 Z M 66.859375 164 "/>
</clipPath>
<clipPath id="clip7">
  <path d="M 66.859375 106 L 327.257812 106 L 327.257812 108 L 66.859375 108 Z M 66.859375 106 "/>
</clipPath>
<clipPath id="clip8">
  <path d="M 66.859375 48 L 327.257812 48 L 327.257812 50 L 66.859375 50 Z M 66.859375 48 "/>
</clipPath>
<clipPath id="clip9">
  <path d="M 66.859375 16 L 327.257812 16 L 327.257812 184 L 66.859375 184 Z M 66.859375 16 "/>
</clipPath>
</defs>
<g id="surface1">
<path style=" stroke:none;fill-rule:nonzero;fill:rgb(100%,100%,100%);fill-opacity:1;" d="M 66.859375 190.800781 L 327.257812 190.800781 L 327.257812 9.601562 L 66.859375 9.601562 Z M 66.859375 190.800781 "/>
<g clip-path="url(#clip1)" clip-rule="nonzero">
<path style="fill:none;stroke-width:0.8;stroke-linecap:square;stroke-linejoin:round;stroke:rgb(69.01961%,69.01961%,69.01961%);stroke-opacity:1;stroke-miterlimit:4;" d="M 71.844727 143.100586 L 71.844727 7.201172 " transform="matrix(1.333333,0,0,1.333333,0,0)"/>
</g>
<path style="fill:none;stroke-width:0.8;stroke-linecap:butt;stroke-linejoin:round;stroke:rgb(0%,0%,0%);stroke-opacity:1;stroke-miterlimit:4;" d="M 0.000976562 0.000579834 L 0.000976562 3.498627 " transform="matrix(1.333333,0,0,1.333333,95.791667,190.800008)"/>
<path style=" stroke:none;fill-rule:nonzero;fill:rgb(0%,0%,0%);fill-opacity:1;" d="M 94.109375 209.160156 L 98.699219 209.160156 L 98.699219 210.265625 L 92.527344 210.265625 L 92.527344 209.160156 C 93.027344 208.640625 93.707031 207.949219 94.566406 207.078125 C 95.429688 206.207031 95.972656 205.648438 96.191406 205.394531 C 96.613281 204.921875 96.90625 204.523438 97.074219 204.195312 C 97.242188 203.867188 97.324219 203.542969 97.324219 203.226562 C 97.324219 202.710938 97.144531 202.289062 96.78125 201.964844 C 96.417969 201.636719 95.945312 201.476562 95.363281 201.476562 C 94.953125 201.476562 94.515625 201.546875 94.058594 201.691406 C 93.601562 201.832031 93.113281 202.050781 92.589844 202.339844 L 92.589844 201.011719 C 93.121094 200.800781 93.617188 200.640625 94.074219 200.53125 C 94.535156 200.421875 94.957031 200.367188 95.339844 200.367188 C 96.347656 200.367188 97.148438 200.621094 97.746094 201.125 C 98.347656 201.628906 98.644531 202.300781 98.644531 203.140625 C 98.644531 203.542969 98.570312 203.921875 98.421875 204.277344 C 98.273438 204.636719 98 205.058594 97.605469 205.542969 C 97.496094 205.671875 97.152344 206.035156 96.570312 206.636719 C 95.988281 207.238281 95.167969 208.078125 94.109375 209.160156 Z M 94.109375 209.160156 "/>
<g clip-path="url(#clip2)" clip-rule="nonzero">
<path style="fill:none;stroke-width:0.8;stroke-linecap:square;stroke-linejoin:round;stroke:rgb(69.01961%,69.01961%,69.01961%);stroke-opacity:1;stroke-miterlimit:4;" d="M 115.245117 143.100586 L 115.245117 7.201172 " transform="matrix(1.333333,0,0,1.333333,0,0)"/>
</g>
<path style="fill:none;stroke-width:0.8;stroke-linecap:butt;stroke-linejoin:round;stroke:rgb(0%,0%,0%);stroke-opacity:1;stroke-miterlimit:4;" d="M 0.00136566 0.000579834 L 0.00136566 3.498627 " transform="matrix(1.333333,0,0,1.333333,153.658335,190.800008)"/>
<path style=" stroke:none;fill-rule:nonzero;fill:rgb(0%,0%,0%);fill-opacity:1;" d="M 154.457031 201.691406 L 151.136719 206.878906 L 154.457031 206.878906 Z M 154.109375 200.542969 L 155.765625 200.542969 L 155.765625 206.878906 L 157.152344 206.878906 L 157.152344 207.972656 L 155.765625 207.972656 L 155.765625 210.265625 L 154.457031 210.265625 L 154.457031 207.972656 L 150.070312 207.972656 L 150.070312 206.703125 Z M 154.109375 200.542969 "/>
<g clip-path="url(#clip3)" clip-rule="nonzero">
<path style="fill:none;stroke-width:0.8;stroke-linecap:square;stroke-linejoin:round;stroke:rgb(69.01961%,69.01961%,69.01961%);stroke-opacity:1;stroke-miterlimit:4;" d="M 158.642578 143.100586 L 158.642578 7.201172 " transform="matrix(1.333333,0,0,1.333333,0,0)"/>
</g>
<path style="fill:none;stroke-width:0.8;stroke-linecap:butt;stroke-linejoin:round;stroke:rgb(0%,0%,0%);stroke-opacity:1;stroke-miterlimit:4;" d="M -0.00117493 0.000579834 L -0.00117493 3.498627 " transform="matrix(1.333333,0,0,1.333333,211.525004,190.800008)"/>
<path style=" stroke:none;fill-rule:nonzero;fill:rgb(0%,0%,0%);fill-opacity:1;" d="M 211.683594 204.882812 C 211.09375 204.882812 210.628906 205.082031 210.28125 205.488281 C 209.9375 205.890625 209.765625 206.441406 209.765625 207.144531 C 209.765625 207.84375 209.9375 208.398438 210.28125 208.804688 C 210.628906 209.210938 211.09375 209.414062 211.683594 209.414062 C 212.277344 209.414062 212.742188 209.210938 213.085938 208.804688 C 213.433594 208.398438 213.605469 207.84375 213.605469 207.144531 C 213.605469 206.441406 213.433594 205.890625 213.085938 205.488281 C 212.742188 205.082031 212.277344 204.882812 211.683594 204.882812 Z M 214.296875 200.757812 L 214.296875 201.957031 C 213.964844 201.800781 213.632812 201.683594 213.296875 201.601562 C 212.960938 201.515625 212.625 201.476562 212.296875 201.476562 C 211.429688 201.476562 210.765625 201.769531 210.304688 202.355469 C 209.847656 202.941406 209.589844 203.824219 209.523438 205.011719 C 209.777344 204.632812 210.097656 204.34375 210.484375 204.140625 C 210.871094 203.941406 211.296875 203.839844 211.761719 203.839844 C 212.738281 203.839844 213.511719 204.136719 214.078125 204.730469 C 214.644531 205.320312 214.925781 206.125 214.925781 207.144531 C 214.925781 208.144531 214.632812 208.945312 214.042969 209.550781 C 213.453125 210.152344 212.664062 210.453125 211.683594 210.453125 C 210.558594 210.453125 209.699219 210.023438 209.105469 209.164062 C 208.511719 208.300781 208.214844 207.050781 208.214844 205.414062 C 208.214844 203.878906 208.578125 202.652344 209.308594 201.738281 C 210.039062 200.824219 211.015625 200.367188 212.242188 200.367188 C 212.574219 200.367188 212.90625 200.402344 213.242188 200.464844 C 213.578125 200.53125 213.929688 200.628906 214.296875 200.757812 Z M 214.296875 200.757812 "/>
<g clip-path="url(#clip4)" clip-rule="nonzero">
<path style="fill:none;stroke-width:0.8;stroke-linecap:square;stroke-linejoin:round;stroke:rgb(69.01961%,69.01961%,69.01961%);stroke-opacity:1;stroke-miterlimit:4;" d="M 202.042969 143.100586 L 202.042969 7.201172 " transform="matrix(1.333333,0,0,1.333333,0,0)"/>
</g>
<path style="fill:none;stroke-width:0.8;stroke-linecap:butt;stroke-linejoin:round;stroke:rgb(0%,0%,0%);stroke-opacity:1;stroke-miterlimit:4;" d="M -0.000778198 0.000579834 L -0.000778198 3.498627 " transform="matrix(1.333333,0,0,1.333333,269.391663,190.800008)"/>
<path style=" stroke:none;fill-rule:nonzero;fill:rgb(0%,0%,0%);fill-opacity:1;" d="M 269.386719 205.648438 C 268.761719 205.648438 268.269531 205.816406 267.914062 206.148438 C 267.554688 206.484375 267.378906 206.945312 267.378906 207.527344 C 267.378906 208.117188 267.554688 208.574219 267.914062 208.910156 C 268.269531 209.246094 268.761719 209.414062 269.386719 209.414062 C 270.011719 209.414062 270.503906 209.246094 270.863281 208.910156 C 271.226562 208.570312 271.40625 208.109375 271.40625 207.527344 C 271.40625 206.945312 271.226562 206.484375 270.867188 206.148438 C 270.511719 205.816406 270.019531 205.648438 269.386719 205.648438 Z M 268.074219 205.089844 C 267.507812 204.949219 267.070312 204.6875 266.753906 204.300781 C 266.441406 203.914062 266.285156 203.441406 266.285156 202.886719 C 266.285156 202.109375 266.558594 201.496094 267.113281 201.046875 C 267.667969 200.59375 268.425781 200.367188 269.386719 200.367188 C 270.355469 200.367188 271.117188 200.59375 271.667969 201.046875 C 272.21875 201.496094 272.492188 202.109375 272.492188 202.886719 C 272.492188 203.441406 272.335938 203.914062 272.019531 204.300781 C 271.707031 204.6875 271.269531 204.949219 270.710938 205.089844 C 271.34375 205.238281 271.835938 205.527344 272.191406 205.957031 C 272.542969 206.386719 272.722656 206.910156 272.722656 207.527344 C 272.722656 208.472656 272.433594 209.195312 271.859375 209.699219 C 271.285156 210.203125 270.460938 210.453125 269.386719 210.453125 C 268.316406 210.453125 267.492188 210.203125 266.917969 209.699219 C 266.339844 209.195312 266.054688 208.472656 266.054688 207.527344 C 266.054688 206.910156 266.230469 206.386719 266.585938 205.957031 C 266.945312 205.527344 267.441406 205.238281 268.074219 205.089844 Z M 267.589844 203.011719 C 267.589844 203.515625 267.75 203.90625 268.0625 204.191406 C 268.378906 204.472656 268.820312 204.613281 269.386719 204.613281 C 269.953125 204.613281 270.394531 204.472656 270.710938 204.191406 C 271.03125 203.90625 271.191406 203.515625 271.191406 203.011719 C 271.191406 202.507812 271.03125 202.117188 270.710938 201.832031 C 270.394531 201.550781 269.953125 201.410156 269.386719 201.410156 C 268.820312 201.410156 268.378906 201.550781 268.0625 201.832031 C 267.75 202.117188 267.589844 202.507812 267.589844 203.011719 Z M 267.589844 203.011719 "/>
<g clip-path="url(#clip5)" clip-rule="nonzero">
<path style="fill:none;stroke-width:0.8;stroke-linecap:square;stroke-linejoin:round;stroke:rgb(69.01961%,69.01961%,69.01961%);stroke-opacity:1;stroke-miterlimit:4;" d="M 245.443359 143.100586 L 245.443359 7.201172 " transform="matrix(1.333333,0,0,1.333333,0,0)"/>
</g>
<path style="fill:none;stroke-width:0.8;stroke-linecap:butt;stroke-linejoin:round;stroke:rgb(0%,0%,0%);stroke-opacity:1;stroke-miterlimit:4;" d="M -0.000396729 0.000579834 L -0.000396729 3.498627 " transform="matrix(1.333333,0,0,1.333333,327.258341,190.800008)"/>
<path style=" stroke:none;fill-rule:nonzero;fill:rgb(0%,0%,0%);fill-opacity:1;" d="M 320.429688 209.160156 L 322.578125 209.160156 L 322.578125 201.742188 L 320.238281 202.210938 L 320.238281 201.011719 L 322.566406 200.542969 L 323.878906 200.542969 L 323.878906 209.160156 L 326.027344 209.160156 L 326.027344 210.265625 L 320.429688 210.265625 Z M 320.429688 209.160156 "/>
<path style=" stroke:none;fill-rule:nonzero;fill:rgb(0%,0%,0%);fill-opacity:1;" d="M 331.496094 201.410156 C 330.820312 201.410156 330.308594 201.742188 329.96875 202.410156 C 329.628906 203.074219 329.457031 204.078125 329.457031 205.414062 C 329.457031 206.746094 329.628906 207.746094 329.96875 208.414062 C 330.308594 209.078125 330.820312 209.414062 331.496094 209.414062 C 332.175781 209.414062 332.6875 209.078125 333.027344 208.414062 C 333.371094 207.746094 333.542969 206.746094 333.542969 205.414062 C 333.542969 204.078125 333.371094 203.074219 333.027344 202.410156 C 332.6875 201.742188 332.175781 201.410156 331.496094 201.410156 Z M 331.496094 200.367188 C 332.585938 200.367188 333.417969 200.800781 333.992188 201.664062 C 334.570312 202.523438 334.855469 203.773438 334.855469 205.414062 C 334.855469 207.050781 334.570312 208.300781 333.992188 209.164062 C 333.417969 210.023438 332.585938 210.453125 331.496094 210.453125 C 330.40625 210.453125 329.574219 210.023438 329 209.164062 C 328.425781 208.300781 328.136719 207.050781 328.136719 205.414062 C 328.136719 203.773438 328.425781 202.523438 329 201.664062 C 329.574219 200.800781 330.40625 200.367188 331.496094 200.367188 Z M 331.496094 200.367188 "/>
<path style=" stroke:none;fill-rule:nonzero;fill:rgb(0%,0%,0%);fill-opacity:1;" d="M 184.246094 224.554688 L 184.246094 225.140625 L 178.738281 225.140625 C 178.792969 225.964844 179.039062 226.59375 179.484375 227.027344 C 179.929688 227.460938 180.550781 227.675781 181.34375 227.675781 C 181.804688 227.675781 182.25 227.617188 182.679688 227.507812 C 183.113281 227.394531 183.542969 227.222656 183.96875 226.996094 L 183.96875 228.132812 C 183.539062 228.3125 183.097656 228.453125 182.644531 228.546875 C 182.195312 228.644531 181.738281 228.691406 181.273438 228.691406 C 180.109375 228.691406 179.1875 228.351562 178.507812 227.675781 C 177.828125 227 177.488281 226.082031 177.488281 224.925781 C 177.488281 223.734375 177.8125 222.789062 178.457031 222.085938 C 179.101562 221.386719 179.96875 221.035156 181.066406 221.035156 C 182.046875 221.035156 182.820312 221.351562 183.390625 221.984375 C 183.960938 222.613281 184.246094 223.472656 184.246094 224.554688 Z M 183.050781 224.203125 C 183.042969 223.550781 182.859375 223.027344 182.5 222.636719 C 182.140625 222.246094 181.667969 222.050781 181.078125 222.050781 C 180.410156 222.050781 179.875 222.238281 179.472656 222.617188 C 179.070312 222.996094 178.839844 223.527344 178.777344 224.210938 Z M 183.050781 224.203125 "/>
<path style=" stroke:none;fill-rule:nonzero;fill:rgb(0%,0%,0%);fill-opacity:1;" d="M 187.371094 227.410156 L 187.371094 231.273438 L 186.167969 231.273438 L 186.167969 221.210938 L 187.371094 221.210938 L 187.371094 222.316406 C 187.625 221.882812 187.941406 221.5625 188.324219 221.351562 C 188.710938 221.140625 189.167969 221.035156 189.703125 221.035156 C 190.589844 221.035156 191.308594 221.386719 191.863281 222.089844 C 192.414062 222.792969 192.691406 223.714844 192.691406 224.863281 C 192.691406 226.007812 192.414062 226.933594 191.863281 227.636719 C 191.308594 228.339844 190.589844 228.691406 189.703125 228.691406 C 189.167969 228.691406 188.710938 228.585938 188.324219 228.375 C 187.941406 228.164062 187.625 227.839844 187.371094 227.410156 Z M 191.449219 224.863281 C 191.449219 223.980469 191.269531 223.289062 190.90625 222.789062 C 190.542969 222.289062 190.042969 222.039062 189.410156 222.039062 C 188.777344 222.039062 188.277344 222.289062 187.914062 222.789062 C 187.554688 223.289062 187.371094 223.980469 187.371094 224.863281 C 187.371094 225.742188 187.554688 226.433594 187.914062 226.933594 C 188.277344 227.4375 188.777344 227.6875 189.410156 227.6875 C 190.042969 227.6875 190.542969 227.4375 190.90625 226.933594 C 191.269531 226.433594 191.449219 225.742188 191.449219 224.863281 Z M 191.449219 224.863281 "/>
<path style=" stroke:none;fill-rule:nonzero;fill:rgb(0%,0%,0%);fill-opacity:1;" d="M 197.503906 222.050781 C 196.859375 222.050781 196.351562 222.300781 195.980469 222.800781 C 195.605469 223.304688 195.417969 223.992188 195.417969 224.863281 C 195.417969 225.734375 195.605469 226.421875 195.976562 226.921875 C 196.347656 227.425781 196.855469 227.675781 197.503906 227.675781 C 198.140625 227.675781 198.648438 227.421875 199.019531 226.921875 C 199.390625 226.417969 199.578125 225.730469 199.578125 224.863281 C 199.578125 224 199.390625 223.3125 199.019531 222.808594 C 198.648438 222.304688 198.140625 222.050781 197.503906 222.050781 Z M 197.503906 221.035156 C 198.542969 221.035156 199.363281 221.375 199.957031 222.050781 C 200.550781 222.726562 200.851562 223.664062 200.851562 224.863281 C 200.851562 226.054688 200.550781 226.992188 199.957031 227.671875 C 199.363281 228.351562 198.542969 228.691406 197.503906 228.691406 C 196.457031 228.691406 195.636719 228.351562 195.042969 227.671875 C 194.453125 226.992188 194.15625 226.054688 194.15625 224.863281 C 194.15625 223.664062 194.453125 222.726562 195.042969 222.050781 C 195.636719 221.375 196.457031 221.035156 197.503906 221.035156 Z M 197.503906 221.035156 "/>
<path style=" stroke:none;fill-rule:nonzero;fill:rgb(0%,0%,0%);fill-opacity:1;" d="M 208.082031 221.488281 L 208.082031 222.609375 C 207.742188 222.421875 207.402344 222.28125 207.0625 222.191406 C 206.722656 222.097656 206.378906 222.050781 206.03125 222.050781 C 205.253906 222.050781 204.652344 222.296875 204.21875 222.789062 C 203.789062 223.28125 203.578125 223.972656 203.578125 224.863281 C 203.578125 225.753906 203.789062 226.445312 204.21875 226.9375 C 204.652344 227.429688 205.253906 227.675781 206.03125 227.675781 C 206.378906 227.675781 206.722656 227.628906 207.0625 227.535156 C 207.402344 227.441406 207.742188 227.300781 208.082031 227.113281 L 208.082031 228.222656 C 207.746094 228.378906 207.402344 228.496094 207.042969 228.574219 C 206.6875 228.652344 206.304688 228.691406 205.902344 228.691406 C 204.800781 228.691406 203.929688 228.347656 203.28125 227.65625 C 202.636719 226.964844 202.3125 226.035156 202.3125 224.863281 C 202.3125 223.671875 202.640625 222.738281 203.292969 222.058594 C 203.945312 221.375 204.84375 221.035156 205.980469 221.035156 C 206.347656 221.035156 206.707031 221.074219 207.058594 221.148438 C 207.410156 221.226562 207.753906 221.339844 208.082031 221.488281 Z M 208.082031 221.488281 "/>
<path style=" stroke:none;fill-rule:nonzero;fill:rgb(0%,0%,0%);fill-opacity:1;" d="M 216.226562 224.101562 L 216.226562 228.503906 L 215.03125 228.503906 L 215.03125 224.140625 C 215.03125 223.449219 214.894531 222.933594 214.625 222.589844 C 214.355469 222.25 213.953125 222.078125 213.414062 222.078125 C 212.769531 222.078125 212.257812 222.285156 211.882812 222.695312 C 211.511719 223.105469 211.324219 223.667969 211.324219 224.382812 L 211.324219 228.503906 L 210.121094 228.503906 L 210.121094 218.371094 L 211.324219 218.371094 L 211.324219 222.34375 C 211.609375 221.90625 211.949219 221.578125 212.335938 221.359375 C 212.726562 221.144531 213.171875 221.035156 213.683594 221.035156 C 214.519531 221.035156 215.152344 221.292969 215.582031 221.8125 C 216.011719 222.332031 216.226562 223.09375 216.226562 224.101562 Z M 216.226562 224.101562 "/>
<g clip-path="url(#clip6)" clip-rule="nonzero">
<path style="fill:none;stroke-width:0.8;stroke-linecap:square;stroke-linejoin:round;stroke:rgb(69.01961%,69.01961%,69.01961%);stroke-opacity:1;stroke-miterlimit:4;" d="M 50.144531 123.949219 L 245.443359 123.949219 " transform="matrix(1.333333,0,0,1.333333,0,0)"/>
</g>
<path style="fill:none;stroke-width:0.8;stroke-linecap:butt;stroke-linejoin:round;stroke:rgb(0%,0%,0%);stroke-opacity:1;stroke-miterlimit:4;" d="M 0.000782013 -0.000801086 L -3.500195 -0.000801086 " transform="matrix(1.333333,0,0,1.333333,66.858332,165.266693)"/>
<path style=" stroke:none;fill-rule:nonzero;fill:rgb(0%,0%,0%);fill-opacity:1;" d="M 32.074219 161.476562 C 31.398438 161.476562 30.890625 161.8125 30.546875 162.476562 C 30.207031 163.144531 30.039062 164.144531 30.039062 165.480469 C 30.039062 166.8125 30.207031 167.8125 30.546875 168.480469 C 30.890625 169.148438 31.398438 169.480469 32.074219 169.480469 C 32.757812 169.480469 33.269531 169.148438 33.609375 168.480469 C 33.949219 167.8125 34.121094 166.8125 34.121094 165.480469 C 34.121094 164.144531 33.949219 163.144531 33.609375 162.476562 C 33.269531 161.8125 32.757812 161.476562 32.074219 161.476562 Z M 32.074219 160.4375 C 33.164062 160.4375 33.996094 160.867188 34.574219 161.730469 C 35.148438 162.589844 35.433594 163.84375 35.433594 165.480469 C 35.433594 167.117188 35.148438 168.367188 34.574219 169.230469 C 33.996094 170.089844 33.164062 170.523438 32.074219 170.523438 C 30.984375 170.523438 30.152344 170.089844 29.578125 169.230469 C 29.003906 168.367188 28.714844 167.117188 28.714844 165.480469 C 28.714844 163.84375 29.003906 162.589844 29.578125 161.730469 C 30.152344 160.867188 30.984375 160.4375 32.074219 160.4375 Z M 32.074219 160.4375 "/>
<path style=" stroke:none;fill-rule:nonzero;fill:rgb(0%,0%,0%);fill-opacity:1;" d="M 37.746094 168.679688 L 39.121094 168.679688 L 39.121094 170.332031 L 37.746094 170.332031 Z M 37.746094 168.679688 "/>
<path style=" stroke:none;fill-rule:nonzero;fill:rgb(0%,0%,0%);fill-opacity:1;" d="M 44.796875 165.714844 C 44.171875 165.714844 43.679688 165.882812 43.320312 166.21875 C 42.964844 166.550781 42.785156 167.011719 42.785156 167.597656 C 42.785156 168.183594 42.964844 168.644531 43.320312 168.976562 C 43.679688 169.3125 44.171875 169.480469 44.796875 169.480469 C 45.421875 169.480469 45.914062 169.3125 46.273438 168.976562 C 46.632812 168.636719 46.816406 168.179688 46.816406 167.597656 C 46.816406 167.011719 46.636719 166.550781 46.277344 166.21875 C 45.921875 165.882812 45.425781 165.714844 44.796875 165.714844 Z M 43.480469 165.15625 C 42.917969 165.019531 42.476562 164.757812 42.164062 164.371094 C 41.847656 163.980469 41.691406 163.511719 41.691406 162.957031 C 41.691406 162.179688 41.96875 161.566406 42.519531 161.113281 C 43.074219 160.664062 43.832031 160.4375 44.796875 160.4375 C 45.765625 160.4375 46.523438 160.664062 47.074219 161.113281 C 47.625 161.566406 47.902344 162.179688 47.902344 162.957031 C 47.902344 163.511719 47.746094 163.980469 47.429688 164.371094 C 47.117188 164.757812 46.679688 165.019531 46.121094 165.15625 C 46.753906 165.304688 47.246094 165.59375 47.597656 166.023438 C 47.953125 166.453125 48.128906 166.976562 48.128906 167.597656 C 48.128906 168.539062 47.84375 169.261719 47.265625 169.769531 C 46.691406 170.269531 45.867188 170.523438 44.796875 170.523438 C 43.726562 170.523438 42.902344 170.269531 42.324219 169.769531 C 41.75 169.261719 41.464844 168.539062 41.464844 167.597656 C 41.464844 166.976562 41.640625 166.453125 41.996094 166.023438 C 42.351562 165.59375 42.847656 165.304688 43.480469 165.15625 Z M 43 163.082031 C 43 163.582031 43.15625 163.976562 43.472656 164.257812 C 43.785156 164.539062 44.226562 164.679688 44.796875 164.679688 C 45.363281 164.679688 45.804688 164.539062 46.121094 164.257812 C 46.441406 163.976562 46.601562 163.582031 46.601562 163.082031 C 46.601562 162.574219 46.441406 162.183594 46.121094 161.902344 C 45.804688 161.617188 45.363281 161.476562 44.796875 161.476562 C 44.226562 161.476562 43.785156 161.617188 43.472656 161.902344 C 43.15625 162.183594 43 162.574219 43 163.082031 Z M 43 163.082031 "/>
<path style=" stroke:none;fill-rule:nonzero;fill:rgb(0%,0%,0%);fill-opacity:1;" d="M 53.28125 161.476562 C 52.601562 161.476562 52.09375 161.8125 51.753906 162.476562 C 51.410156 163.144531 51.242188 164.144531 51.242188 165.480469 C 51.242188 166.8125 51.410156 167.8125 51.753906 168.480469 C 52.09375 169.148438 52.601562 169.480469 53.28125 169.480469 C 53.960938 169.480469 54.472656 169.148438 54.8125 168.480469 C 55.15625 167.8125 55.324219 166.8125 55.324219 165.480469 C 55.324219 164.144531 55.15625 163.144531 54.8125 162.476562 C 54.472656 161.8125 53.960938 161.476562 53.28125 161.476562 Z M 53.28125 160.4375 C 54.371094 160.4375 55.203125 160.867188 55.777344 161.730469 C 56.351562 162.589844 56.640625 163.84375 56.640625 165.480469 C 56.640625 167.117188 56.351562 168.367188 55.777344 169.230469 C 55.203125 170.089844 54.371094 170.523438 53.28125 170.523438 C 52.191406 170.523438 51.359375 170.089844 50.785156 169.230469 C 50.207031 168.367188 49.921875 167.117188 49.921875 165.480469 C 49.921875 163.84375 50.207031 162.589844 50.785156 161.730469 C 51.359375 160.867188 52.191406 160.4375 53.28125 160.4375 Z M 53.28125 160.4375 "/>
<g clip-path="url(#clip7)" clip-rule="nonzero">
<path style="fill:none;stroke-width:0.8;stroke-linecap:square;stroke-linejoin:round;stroke:rgb(69.01961%,69.01961%,69.01961%);stroke-opacity:1;stroke-miterlimit:4;" d="M 50.144531 80.416992 L 245.443359 80.416992 " transform="matrix(1.333333,0,0,1.333333,0,0)"/>
</g>
<path style="fill:none;stroke-width:0.8;stroke-linecap:butt;stroke-linejoin:round;stroke:rgb(0%,0%,0%);stroke-opacity:1;stroke-miterlimit:4;" d="M 0.000782013 -0.000450134 L -3.500195 -0.000450134 " transform="matrix(1.333333,0,0,1.333333,66.858332,107.223256)"/>
<path style=" stroke:none;fill-rule:nonzero;fill:rgb(0%,0%,0%);fill-opacity:1;" d="M 32.074219 103.433594 C 31.398438 103.433594 30.890625 103.769531 30.546875 104.433594 C 30.207031 105.101562 30.039062 106.101562 30.039062 107.4375 C 30.039062 108.769531 30.207031 109.769531 30.546875 110.4375 C 30.890625 111.101562 31.398438 111.4375 32.074219 111.4375 C 32.757812 111.4375 33.269531 111.101562 33.609375 110.4375 C 33.949219 109.769531 34.121094 108.769531 34.121094 107.4375 C 34.121094 106.101562 33.949219 105.101562 33.609375 104.433594 C 33.269531 103.769531 32.757812 103.433594 32.074219 103.433594 Z M 32.074219 102.394531 C 33.164062 102.394531 33.996094 102.824219 34.574219 103.6875 C 35.148438 104.546875 35.433594 105.796875 35.433594 107.4375 C 35.433594 109.074219 35.148438 110.324219 34.574219 111.1875 C 33.996094 112.046875 33.164062 112.476562 32.074219 112.476562 C 30.984375 112.476562 30.152344 112.046875 29.578125 111.1875 C 29.003906 110.324219 28.714844 109.074219 28.714844 107.4375 C 28.714844 105.796875 29.003906 104.546875 29.578125 103.6875 C 30.152344 102.824219 30.984375 102.394531 32.074219 102.394531 Z M 32.074219 102.394531 "/>
<path style=" stroke:none;fill-rule:nonzero;fill:rgb(0%,0%,0%);fill-opacity:1;" d="M 37.746094 110.632812 L 39.121094 110.632812 L 39.121094 112.289062 L 37.746094 112.289062 Z M 37.746094 110.632812 "/>
<path style=" stroke:none;fill-rule:nonzero;fill:rgb(0%,0%,0%);fill-opacity:1;" d="M 44.796875 107.671875 C 44.171875 107.671875 43.679688 107.839844 43.320312 108.175781 C 42.964844 108.507812 42.785156 108.96875 42.785156 109.554688 C 42.785156 110.140625 42.964844 110.601562 43.320312 110.933594 C 43.679688 111.269531 44.171875 111.4375 44.796875 111.4375 C 45.421875 111.4375 45.914062 111.269531 46.273438 110.933594 C 46.632812 110.59375 46.816406 110.136719 46.816406 109.554688 C 46.816406 108.96875 46.636719 108.507812 46.277344 108.175781 C 45.921875 107.839844 45.425781 107.671875 44.796875 107.671875 Z M 43.480469 107.113281 C 42.917969 106.976562 42.476562 106.710938 42.164062 106.328125 C 41.847656 105.9375 41.691406 105.46875 41.691406 104.910156 C 41.691406 104.136719 41.96875 103.523438 42.519531 103.070312 C 43.074219 102.617188 43.832031 102.394531 44.796875 102.394531 C 45.765625 102.394531 46.523438 102.617188 47.074219 103.070312 C 47.625 103.523438 47.902344 104.136719 47.902344 104.910156 C 47.902344 105.46875 47.746094 105.9375 47.429688 106.328125 C 47.117188 106.710938 46.679688 106.976562 46.121094 107.113281 C 46.753906 107.261719 47.246094 107.550781 47.597656 107.980469 C 47.953125 108.410156 48.128906 108.933594 48.128906 109.554688 C 48.128906 110.496094 47.84375 111.21875 47.265625 111.722656 C 46.691406 112.226562 45.867188 112.476562 44.796875 112.476562 C 43.726562 112.476562 42.902344 112.226562 42.324219 111.722656 C 41.75 111.21875 41.464844 110.496094 41.464844 109.554688 C 41.464844 108.933594 41.640625 108.410156 41.996094 107.980469 C 42.351562 107.550781 42.847656 107.261719 43.480469 107.113281 Z M 43 105.035156 C 43 105.539062 43.15625 105.933594 43.472656 106.214844 C 43.785156 106.496094 44.226562 106.636719 44.796875 106.636719 C 45.363281 106.636719 45.804688 106.496094 46.121094 106.214844 C 46.441406 105.933594 46.601562 105.539062 46.601562 105.035156 C 46.601562 104.53125 46.441406 104.140625 46.121094 103.859375 C 45.804688 103.574219 45.363281 103.433594 44.796875 103.433594 C 44.226562 103.433594 43.785156 103.574219 43.472656 103.859375 C 43.15625 104.140625 43 104.53125 43 105.035156 Z M 43 105.035156 "/>
<path style=" stroke:none;fill-rule:nonzero;fill:rgb(0%,0%,0%);fill-opacity:1;" d="M 50.480469 102.566406 L 55.644531 102.566406 L 55.644531 103.675781 L 51.6875 103.675781 L 51.6875 106.058594 C 51.875 105.992188 52.066406 105.945312 52.257812 105.910156 C 52.449219 105.878906 52.640625 105.863281 52.832031 105.863281 C 53.917969 105.863281 54.773438 106.160156 55.410156 106.753906 C 56.042969 107.351562 56.359375 108.15625 56.359375 109.171875 C 56.359375 110.214844 56.035156 111.027344 55.382812 111.609375 C 54.730469 112.1875 53.8125 112.476562 52.628906 112.476562 C 52.222656 112.476562 51.804688 112.445312 51.382812 112.375 C 50.960938 112.304688 50.523438 112.199219 50.070312 112.0625 L 50.070312 110.738281 C 50.460938 110.953125 50.863281 111.109375 51.28125 111.214844 C 51.699219 111.316406 52.136719 111.371094 52.601562 111.371094 C 53.355469 111.371094 53.949219 111.171875 54.386719 110.777344 C 54.824219 110.382812 55.042969 109.847656 55.042969 109.171875 C 55.042969 108.492188 54.824219 107.957031 54.386719 107.5625 C 53.949219 107.167969 53.355469 106.96875 52.601562 106.96875 C 52.25 106.96875 51.898438 107.007812 51.550781 107.085938 C 51.203125 107.164062 50.84375 107.285156 50.480469 107.453125 Z M 50.480469 102.566406 "/>
<g clip-path="url(#clip8)" clip-rule="nonzero">
<path style="fill:none;stroke-width:0.8;stroke-linecap:square;stroke-linejoin:round;stroke:rgb(69.01961%,69.01961%,69.01961%);stroke-opacity:1;stroke-miterlimit:4;" d="M 50.144531 36.884766 L 245.443359 36.884766 " transform="matrix(1.333333,0,0,1.333333,0,0)"/>
</g>
<path style="fill:none;stroke-width:0.8;stroke-linecap:butt;stroke-linejoin:round;stroke:rgb(0%,0%,0%);stroke-opacity:1;stroke-miterlimit:4;" d="M 0.000782013 -0.0000991821 L -3.500195 -0.0000991821 " transform="matrix(1.333333,0,0,1.333333,66.858332,49.17982)"/>
<path style=" stroke:none;fill-rule:nonzero;fill:rgb(0%,0%,0%);fill-opacity:1;" d="M 32.074219 45.390625 C 31.398438 45.390625 30.890625 45.722656 30.546875 46.390625 C 30.207031 47.054688 30.039062 48.058594 30.039062 49.394531 C 30.039062 50.726562 30.207031 51.726562 30.546875 52.394531 C 30.890625 53.058594 31.398438 53.394531 32.074219 53.394531 C 32.757812 53.394531 33.269531 53.058594 33.609375 52.394531 C 33.949219 51.726562 34.121094 50.726562 34.121094 49.394531 C 34.121094 48.058594 33.949219 47.054688 33.609375 46.390625 C 33.269531 45.722656 32.757812 45.390625 32.074219 45.390625 Z M 32.074219 44.347656 C 33.164062 44.347656 33.996094 44.78125 34.574219 45.644531 C 35.148438 46.503906 35.433594 47.753906 35.433594 49.394531 C 35.433594 51.03125 35.148438 52.28125 34.574219 53.144531 C 33.996094 54.003906 33.164062 54.433594 32.074219 54.433594 C 30.984375 54.433594 30.152344 54.003906 29.578125 53.144531 C 29.003906 52.28125 28.714844 51.03125 28.714844 49.394531 C 28.714844 47.753906 29.003906 46.503906 29.578125 45.644531 C 30.152344 44.78125 30.984375 44.347656 32.074219 44.347656 Z M 32.074219 44.347656 "/>
<path style=" stroke:none;fill-rule:nonzero;fill:rgb(0%,0%,0%);fill-opacity:1;" d="M 37.746094 52.589844 L 39.121094 52.589844 L 39.121094 54.246094 L 37.746094 54.246094 Z M 37.746094 52.589844 "/>
<path style=" stroke:none;fill-rule:nonzero;fill:rgb(0%,0%,0%);fill-opacity:1;" d="M 42.023438 54.042969 L 42.023438 52.84375 C 42.355469 53.003906 42.6875 53.121094 43.027344 53.203125 C 43.363281 53.285156 43.695312 53.328125 44.023438 53.328125 C 44.890625 53.328125 45.554688 53.035156 46.011719 52.453125 C 46.46875 51.867188 46.730469 50.980469 46.796875 49.792969 C 46.546875 50.164062 46.226562 50.453125 45.839844 50.652344 C 45.453125 50.851562 45.023438 50.953125 44.558594 50.953125 C 43.585938 50.953125 42.816406 50.65625 42.25 50.070312 C 41.683594 49.480469 41.398438 48.675781 41.398438 47.65625 C 41.398438 46.660156 41.695312 45.859375 42.285156 45.253906 C 42.875 44.652344 43.660156 44.347656 44.640625 44.347656 C 45.765625 44.347656 46.625 44.78125 47.214844 45.644531 C 47.808594 46.503906 48.105469 47.753906 48.105469 49.394531 C 48.105469 50.925781 47.742188 52.148438 47.011719 53.0625 C 46.285156 53.976562 45.308594 54.433594 44.082031 54.433594 C 43.75 54.433594 43.417969 54.402344 43.078125 54.335938 C 42.738281 54.273438 42.390625 54.175781 42.023438 54.042969 Z M 44.640625 49.921875 C 45.230469 49.921875 45.699219 49.722656 46.042969 49.316406 C 46.386719 48.914062 46.5625 48.359375 46.5625 47.65625 C 46.5625 46.957031 46.386719 46.40625 46.042969 46 C 45.699219 45.59375 45.230469 45.390625 44.640625 45.390625 C 44.050781 45.390625 43.582031 45.59375 43.238281 46 C 42.894531 46.40625 42.722656 46.957031 42.722656 47.65625 C 42.722656 48.359375 42.894531 48.914062 43.238281 49.316406 C 43.582031 49.722656 44.050781 49.921875 44.640625 49.921875 Z M 44.640625 49.921875 "/>
<path style=" stroke:none;fill-rule:nonzero;fill:rgb(0%,0%,0%);fill-opacity:1;" d="M 53.28125 45.390625 C 52.601562 45.390625 52.09375 45.722656 51.753906 46.390625 C 51.410156 47.054688 51.242188 48.058594 51.242188 49.394531 C 51.242188 50.726562 51.410156 51.726562 51.753906 52.394531 C 52.09375 53.058594 52.601562 53.394531 53.28125 53.394531 C 53.960938 53.394531 54.472656 53.058594 54.8125 52.394531 C 55.15625 51.726562 55.324219 50.726562 55.324219 49.394531 C 55.324219 48.058594 55.15625 47.054688 54.8125 46.390625 C 54.472656 45.722656 53.960938 45.390625 53.28125 45.390625 Z M 53.28125 44.347656 C 54.371094 44.347656 55.203125 44.78125 55.777344 45.644531 C 56.351562 46.503906 56.640625 47.753906 56.640625 49.394531 C 56.640625 51.03125 56.351562 52.28125 55.777344 53.144531 C 55.203125 54.003906 54.371094 54.433594 53.28125 54.433594 C 52.191406 54.433594 51.359375 54.003906 50.785156 53.144531 C 50.207031 52.28125 49.921875 51.03125 49.921875 49.394531 C 49.921875 47.753906 50.207031 46.503906 50.785156 45.644531 C 51.359375 44.78125 52.191406 44.347656 53.28125 44.347656 Z M 53.28125 44.347656 "/>
<path style=" stroke:none;fill-rule:nonzero;fill:rgb(0%,0%,0%);fill-opacity:1;" d="M 10.367188 124.097656 L 12.441406 124.097656 L 12.441406 121.628906 L 13.371094 121.628906 L 13.371094 124.097656 L 17.328125 124.097656 C 17.921875 124.097656 18.304688 124.015625 18.476562 123.851562 C 18.644531 123.691406 18.730469 123.359375 18.730469 122.859375 L 18.730469 121.628906 L 19.730469 121.628906 L 19.730469 122.859375 C 19.730469 123.785156 19.558594 124.421875 19.214844 124.773438 C 18.867188 125.125 18.242188 125.300781 17.328125 125.300781 L 13.371094 125.300781 L 13.371094 126.179688 L 12.441406 126.179688 L 12.441406 125.300781 L 10.367188 125.300781 Z M 10.367188 124.097656 "/>
<path style=" stroke:none;fill-rule:nonzero;fill:rgb(0%,0%,0%);fill-opacity:1;" d="M 15.785156 113.816406 L 16.371094 113.816406 L 16.371094 119.324219 C 17.195312 119.269531 17.824219 119.023438 18.257812 118.578125 C 18.6875 118.132812 18.902344 117.515625 18.902344 116.71875 C 18.902344 116.261719 18.847656 115.816406 18.734375 115.382812 C 18.621094 114.949219 18.453125 114.519531 18.226562 114.09375 L 19.359375 114.09375 C 19.542969 114.527344 19.679688 114.964844 19.777344 115.417969 C 19.871094 115.871094 19.921875 116.328125 19.921875 116.789062 C 19.921875 117.953125 19.582031 118.875 18.90625 119.554688 C 18.226562 120.234375 17.3125 120.574219 16.15625 120.574219 C 14.964844 120.574219 14.015625 120.253906 13.316406 119.609375 C 12.617188 118.964844 12.265625 118.09375 12.265625 117 C 12.265625 116.019531 12.582031 115.242188 13.210938 114.671875 C 13.84375 114.101562 14.699219 113.816406 15.785156 113.816406 Z M 15.433594 115.015625 C 14.777344 115.023438 14.257812 115.207031 13.867188 115.5625 C 13.476562 115.921875 13.277344 116.394531 13.277344 116.988281 C 13.277344 117.65625 13.46875 118.191406 13.847656 118.589844 C 14.222656 118.992188 14.753906 119.222656 15.441406 119.285156 Z M 15.433594 115.015625 "/>
<path style=" stroke:none;fill-rule:nonzero;fill:rgb(0%,0%,0%);fill-opacity:1;" d="M 12.652344 107.203125 L 13.789062 107.203125 C 13.613281 107.539062 13.484375 107.890625 13.398438 108.257812 C 13.308594 108.621094 13.265625 109 13.265625 109.390625 C 13.265625 109.984375 13.359375 110.429688 13.539062 110.726562 C 13.722656 111.023438 13.996094 111.171875 14.359375 111.171875 C 14.636719 111.171875 14.855469 111.066406 15.015625 110.855469 C 15.171875 110.640625 15.324219 110.214844 15.464844 109.570312 L 15.558594 109.160156 C 15.742188 108.3125 15.996094 107.707031 16.328125 107.347656 C 16.660156 106.988281 17.125 106.8125 17.71875 106.8125 C 18.398438 106.8125 18.933594 107.078125 19.328125 107.613281 C 19.722656 108.152344 19.921875 108.886719 19.921875 109.824219 C 19.921875 110.214844 19.882812 110.621094 19.804688 111.046875 C 19.730469 111.46875 19.617188 111.914062 19.464844 112.382812 L 18.226562 112.382812 C 18.457031 111.941406 18.628906 111.503906 18.746094 111.074219 C 18.859375 110.644531 18.917969 110.21875 18.917969 109.796875 C 18.917969 109.234375 18.820312 108.800781 18.628906 108.5 C 18.433594 108.195312 18.160156 108.042969 17.808594 108.042969 C 17.484375 108.042969 17.234375 108.152344 17.0625 108.371094 C 16.890625 108.589844 16.722656 109.070312 16.558594 109.8125 L 16.460938 110.230469 C 16.308594 110.972656 16.066406 111.507812 15.742188 111.835938 C 15.421875 112.167969 14.976562 112.332031 14.414062 112.332031 C 13.726562 112.332031 13.195312 112.089844 12.824219 111.601562 C 12.453125 111.117188 12.265625 110.425781 12.265625 109.53125 C 12.265625 109.089844 12.296875 108.675781 12.363281 108.285156 C 12.425781 107.890625 12.523438 107.53125 12.652344 107.203125 Z M 12.652344 107.203125 "/>
<path style=" stroke:none;fill-rule:nonzero;fill:rgb(0%,0%,0%);fill-opacity:1;" d="M 10.367188 103.71875 L 12.441406 103.71875 L 12.441406 101.25 L 13.371094 101.25 L 13.371094 103.71875 L 17.328125 103.71875 C 17.921875 103.71875 18.304688 103.636719 18.476562 103.472656 C 18.644531 103.3125 18.730469 102.980469 18.730469 102.480469 L 18.730469 101.25 L 19.730469 101.25 L 19.730469 102.480469 C 19.730469 103.40625 19.558594 104.042969 19.214844 104.394531 C 18.867188 104.746094 18.242188 104.921875 17.328125 104.921875 L 13.371094 104.921875 L 13.371094 105.800781 L 12.441406 105.800781 L 12.441406 104.921875 L 10.367188 104.921875 Z M 10.367188 103.71875 "/>
<path style=" stroke:none;fill-rule:nonzero;fill:rgb(0%,0%,0%);fill-opacity:1;" d="M 16.066406 92.121094 C 16.066406 93.089844 16.175781 93.761719 16.398438 94.136719 C 16.617188 94.507812 16.996094 94.695312 17.53125 94.695312 C 17.957031 94.695312 18.292969 94.554688 18.542969 94.273438 C 18.792969 93.996094 18.917969 93.613281 18.917969 93.132812 C 18.917969 92.46875 18.679688 91.933594 18.210938 91.535156 C 17.738281 91.132812 17.113281 90.929688 16.332031 90.929688 L 16.066406 90.929688 Z M 15.570312 89.734375 L 19.730469 89.734375 L 19.730469 90.929688 L 18.625 90.929688 C 19.066406 91.203125 19.394531 91.546875 19.605469 91.953125 C 19.816406 92.363281 19.921875 92.863281 19.921875 93.453125 C 19.921875 94.199219 19.710938 94.792969 19.292969 95.234375 C 18.871094 95.671875 18.3125 95.894531 17.609375 95.894531 C 16.789062 95.894531 16.171875 95.621094 15.753906 95.070312 C 15.335938 94.519531 15.128906 93.703125 15.128906 92.613281 L 15.128906 90.929688 L 15.011719 90.929688 C 14.460938 90.929688 14.03125 91.113281 13.730469 91.476562 C 13.429688 91.835938 13.277344 92.347656 13.277344 93.003906 C 13.277344 93.417969 13.328125 93.824219 13.429688 94.222656 C 13.527344 94.617188 13.679688 94.996094 13.878906 95.359375 L 12.769531 95.359375 C 12.601562 94.921875 12.476562 94.496094 12.390625 94.082031 C 12.308594 93.671875 12.265625 93.269531 12.265625 92.878906 C 12.265625 91.824219 12.539062 91.035156 13.085938 90.515625 C 13.632812 89.992188 14.460938 89.734375 15.570312 89.734375 Z M 15.570312 89.734375 "/>
<path style=" stroke:none;fill-rule:nonzero;fill:rgb(0%,0%,0%);fill-opacity:1;" d="M 12.71875 82.019531 L 13.839844 82.019531 C 13.652344 82.359375 13.511719 82.699219 13.417969 83.039062 C 13.324219 83.378906 13.277344 83.722656 13.277344 84.070312 C 13.277344 84.847656 13.527344 85.449219 14.019531 85.882812 C 14.511719 86.3125 15.203125 86.523438 16.089844 86.523438 C 16.980469 86.523438 17.671875 86.3125 18.167969 85.882812 C 18.660156 85.449219 18.902344 84.847656 18.902344 84.070312 C 18.902344 83.722656 18.859375 83.378906 18.765625 83.039062 C 18.671875 82.699219 18.53125 82.359375 18.34375 82.019531 L 19.453125 82.019531 C 19.609375 82.355469 19.722656 82.699219 19.800781 83.058594 C 19.882812 83.414062 19.921875 83.796875 19.921875 84.199219 C 19.921875 85.300781 19.574219 86.171875 18.886719 86.820312 C 18.195312 87.464844 17.265625 87.789062 16.089844 87.789062 C 14.902344 87.789062 13.96875 87.460938 13.289062 86.808594 C 12.605469 86.15625 12.265625 85.257812 12.265625 84.121094 C 12.265625 83.753906 12.304688 83.394531 12.378906 83.042969 C 12.453125 82.691406 12.566406 82.347656 12.71875 82.019531 Z M 12.71875 82.019531 "/>
<path style=" stroke:none;fill-rule:nonzero;fill:rgb(0%,0%,0%);fill-opacity:1;" d="M 12.71875 74.6875 L 13.839844 74.6875 C 13.652344 75.027344 13.511719 75.367188 13.417969 75.707031 C 13.324219 76.046875 13.277344 76.390625 13.277344 76.738281 C 13.277344 77.515625 13.527344 78.121094 14.019531 78.550781 C 14.511719 78.980469 15.203125 79.195312 16.089844 79.195312 C 16.980469 79.195312 17.671875 78.980469 18.167969 78.550781 C 18.660156 78.121094 18.902344 77.515625 18.902344 76.738281 C 18.902344 76.390625 18.859375 76.046875 18.765625 75.707031 C 18.671875 75.367188 18.53125 75.027344 18.34375 74.6875 L 19.453125 74.6875 C 19.609375 75.023438 19.722656 75.371094 19.800781 75.726562 C 19.882812 76.085938 19.921875 76.464844 19.921875 76.871094 C 19.921875 77.96875 19.574219 78.839844 18.886719 79.488281 C 18.195312 80.132812 17.265625 80.457031 16.089844 80.457031 C 14.902344 80.457031 13.96875 80.128906 13.289062 79.476562 C 12.605469 78.824219 12.265625 77.929688 12.265625 76.789062 C 12.265625 76.421875 12.304688 76.0625 12.378906 75.710938 C 12.453125 75.359375 12.566406 75.019531 12.71875 74.6875 Z M 12.71875 74.6875 "/>
<g clip-path="url(#clip9)" clip-rule="nonzero">
<path style="fill:none;stroke-width:1.5;stroke-linecap:square;stroke-linejoin:round;stroke:rgb(12.156863%,46.666667%,70.588237%);stroke-opacity:1;stroke-miterlimit:4;" d="M 50.144531 93.826172 L 71.844727 136.921875 L 93.544922 32.791992 L 115.245117 53.425781 L 136.942383 53.689453 L 158.642578 26.610352 L 180.342773 27.480469 L 202.042969 48.029297 L 223.743164 19.734375 L 245.443359 13.376953 " transform="matrix(1.333333,0,0,1.333333,0,0)"/>
</g>
<path style="fill:none;stroke-width:0.8;stroke-linecap:square;stroke-linejoin:miter;stroke:rgb(0%,0%,0%);stroke-opacity:1;stroke-miterlimit:4;" d="M 50.144531 143.100586 L 50.144531 7.201172 " transform="matrix(1.333333,0,0,1.333333,0,0)"/>
<path style="fill:none;stroke-width:0.8;stroke-linecap:square;stroke-linejoin:miter;stroke:rgb(0%,0%,0%);stroke-opacity:1;stroke-miterlimit:4;" d="M 245.443359 143.100586 L 245.443359 7.201172 " transform="matrix(1.333333,0,0,1.333333,0,0)"/>
<path style="fill:none;stroke-width:0.8;stroke-linecap:square;stroke-linejoin:miter;stroke:rgb(0%,0%,0%);stroke-opacity:1;stroke-miterlimit:4;" d="M 50.144531 143.100586 L 245.443359 143.100586 " transform="matrix(1.333333,0,0,1.333333,0,0)"/>
<path style="fill:none;stroke-width:0.8;stroke-linecap:square;stroke-linejoin:miter;stroke:rgb(0%,0%,0%);stroke-opacity:1;stroke-miterlimit:4;" d="M 50.144531 7.201172 L 245.443359 7.201172 " transform="matrix(1.333333,0,0,1.333333,0,0)"/>
</g>
</svg>
