<?xml version="1.0" encoding="UTF-8"?>
<svg xmlns="http://www.w3.org/2000/svg" xmlns:xlink="http://www.w3.org/1999/xlink" width="542.514567" height="277.410217" viewBox="0 0 542.514567 277.410217" version="1.1">
<defs>
<clipPath id="clip1">
  <path d="M 157 9.894531 L 160 9.894531 L 160 227.335938 L 157 227.335938 Z M 157 9.894531 "/>
</clipPath>
<clipPath id="clip2">
  <path d="M 247 9.894531 L 249 9.894531 L 249 227.335938 L 247 227.335938 Z M 247 9.894531 "/>
</clipPath>
<clipPath id="clip3">
  <path d="M 336 9.894531 L 338 9.894531 L 338 227.335938 L 336 227.335938 Z M 336 9.894531 "/>
</clipPath>
<clipPath id="clip4">
  <path d="M 425 9.894531 L 428 9.894531 L 428 227.335938 L 425 227.335938 Z M 425 9.894531 "/>
</clipPath>
<clipPath id="clip5">
  <path d="M 515 9.894531 L 515.949219 9.894531 L 515.949219 227.335938 L 515 227.335938 Z M 515 9.894531 "/>
</clipPath>
<clipPath id="clip6">
  <path d="M 69.546875 226 L 515.949219 226 L 515.949219 227.335938 L 69.546875 227.335938 Z M 69.546875 226 "/>
</clipPath>
<clipPath id="clip7">
  <path d="M 69.546875 190 L 515.949219 190 L 515.949219 193 L 69.546875 193 Z M 69.546875 190 "/>
</clipPath>
<clipPath id="clip8">
  <path d="M 69.546875 155 L 515.949219 155 L 515.949219 158 L 69.546875 158 Z M 69.546875 155 "/>
</clipPath>
<clipPath id="clip9">
  <path d="M 69.546875 120 L 515.949219 120 L 515.949219 122 L 69.546875 122 Z M 69.546875 120 "/>
</clipPath>
<clipPath id="clip10">
  <path d="M 69.546875 84 L 515.949219 84 L 515.949219 87 L 69.546875 87 Z M 69.546875 84 "/>
</clipPath>
<clipPath id="clip11">
  <path d="M 69.546875 49 L 515.949219 49 L 515.949219 51 L 69.546875 51 Z M 69.546875 49 "/>
</clipPath>
<clipPath id="clip12">
  <path d="M 69.546875 13 L 515.949219 13 L 515.949219 16 L 69.546875 16 Z M 69.546875 13 "/>
</clipPath>
<clipPath id="clip13">
  <path d="M 69.546875 18 L 515.949219 18 L 515.949219 219 L 69.546875 219 Z M 69.546875 18 "/>
</clipPath>
</defs>
<g id="surface1">
<path style=" stroke:none;fill-rule:nonzero;fill:rgb(100%,100%,100%);fill-opacity:1;" d="M 69.546875 227.335938 L 515.949219 227.335938 L 515.949219 9.894531 L 69.546875 9.894531 Z M 69.546875 227.335938 "/>
<g clip-path="url(#clip1)" clip-rule="nonzero">
<path style="fill:none;stroke-width:0.8;stroke-linecap:square;stroke-linejoin:round;stroke:rgb(69.01961%,69.01961%,69.01961%);stroke-opacity:1;stroke-miterlimit:4;" d="M 118.851562 170.501953 L 118.851562 7.420898 " transform="matrix(1.333333,0,0,1.333333,0,0)"/>
</g>
<path style="fill:none;stroke-width:0.8;stroke-linecap:butt;stroke-linejoin:round;stroke:rgb(0%,0%,0%);stroke-opacity:1;stroke-miterlimit:4;" d="M -0.00126648 0.000549316 L -0.00126648 3.498596 " transform="matrix(1.333333,0,0,1.333333,158.470439,227.335205)"/>
<path style=" stroke:none;fill-rule:nonzero;fill:rgb(0%,0%,0%);fill-opacity:1;" d="M 148.304688 245.695312 L 152.894531 245.695312 L 152.894531 246.800781 L 146.722656 246.800781 L 146.722656 245.695312 C 147.222656 245.175781 147.902344 244.484375 148.761719 243.613281 C 149.625 242.742188 150.167969 242.183594 150.386719 241.929688 C 150.808594 241.457031 151.101562 241.058594 151.269531 240.730469 C 151.4375 240.402344 151.519531 240.078125 151.519531 239.761719 C 151.519531 239.246094 151.339844 238.824219 150.976562 238.5 C 150.613281 238.171875 150.140625 238.011719 149.558594 238.011719 C 149.148438 238.011719 148.710938 238.082031 148.253906 238.226562 C 147.796875 238.367188 147.308594 238.585938 146.789062 238.875 L 146.789062 237.546875 C 147.316406 237.335938 147.8125 237.175781 148.269531 237.066406 C 148.730469 236.957031 149.152344 236.902344 149.535156 236.902344 C 150.542969 236.902344 151.34375 237.15625 151.945312 237.660156 C 152.542969 238.164062 152.839844 238.835938 152.839844 239.675781 C 152.839844 240.078125 152.765625 240.457031 152.617188 240.8125 C 152.46875 241.171875 152.195312 241.59375 151.800781 242.078125 C 151.691406 242.207031 151.347656 242.570312 150.765625 243.171875 C 150.183594 243.773438 149.363281 244.613281 148.304688 245.695312 Z M 148.304688 245.695312 "/>
<path style=" stroke:none;fill-rule:nonzero;fill:rgb(0%,0%,0%);fill-opacity:1;" d="M 158.464844 237.945312 C 157.789062 237.945312 157.28125 238.277344 156.9375 238.945312 C 156.597656 239.609375 156.429688 240.613281 156.429688 241.949219 C 156.429688 243.28125 156.597656 244.28125 156.9375 244.949219 C 157.28125 245.613281 157.789062 245.949219 158.464844 245.949219 C 159.148438 245.949219 159.660156 245.613281 160 244.949219 C 160.339844 244.28125 160.511719 243.28125 160.511719 241.949219 C 160.511719 240.613281 160.339844 239.609375 160 238.945312 C 159.660156 238.277344 159.148438 237.945312 158.464844 237.945312 Z M 158.464844 236.902344 C 159.554688 236.902344 160.390625 237.335938 160.964844 238.199219 C 161.539062 239.058594 161.828125 240.308594 161.828125 241.949219 C 161.828125 243.585938 161.539062 244.835938 160.964844 245.699219 C 160.390625 246.558594 159.554688 246.988281 158.464844 246.988281 C 157.378906 246.988281 156.546875 246.558594 155.96875 245.699219 C 155.394531 244.835938 155.109375 243.585938 155.109375 241.949219 C 155.109375 240.308594 155.394531 239.058594 155.96875 238.199219 C 156.546875 237.335938 157.378906 236.902344 158.464844 236.902344 Z M 158.464844 236.902344 "/>
<path style=" stroke:none;fill-rule:nonzero;fill:rgb(0%,0%,0%);fill-opacity:1;" d="M 166.949219 237.945312 C 166.273438 237.945312 165.765625 238.277344 165.421875 238.945312 C 165.082031 239.609375 164.910156 240.613281 164.910156 241.949219 C 164.910156 243.28125 165.082031 244.28125 165.421875 244.949219 C 165.765625 245.613281 166.273438 245.949219 166.949219 245.949219 C 167.632812 245.949219 168.140625 245.613281 168.484375 244.949219 C 168.824219 244.28125 168.996094 243.28125 168.996094 241.949219 C 168.996094 240.613281 168.824219 239.609375 168.484375 238.945312 C 168.140625 238.277344 167.632812 237.945312 166.949219 237.945312 Z M 166.949219 236.902344 C 168.039062 236.902344 168.871094 237.335938 169.445312 238.199219 C 170.023438 239.058594 170.308594 240.308594 170.308594 241.949219 C 170.308594 243.585938 170.023438 244.835938 169.445312 245.699219 C 168.871094 246.558594 168.039062 246.988281 166.949219 246.988281 C 165.859375 246.988281 165.027344 246.558594 164.453125 245.699219 C 163.878906 244.835938 163.589844 243.585938 163.589844 241.949219 C 163.589844 240.308594 163.878906 239.058594 164.453125 238.199219 C 165.027344 237.335938 165.859375 236.902344 166.949219 236.902344 Z M 166.949219 236.902344 "/>
<g clip-path="url(#clip2)" clip-rule="nonzero">
<path style="fill:none;stroke-width:0.8;stroke-linecap:square;stroke-linejoin:round;stroke:rgb(69.01961%,69.01961%,69.01961%);stroke-opacity:1;stroke-miterlimit:4;" d="M 185.879883 170.501953 L 185.879883 7.420898 " transform="matrix(1.333333,0,0,1.333333,0,0)"/>
</g>
<path style="fill:none;stroke-width:0.8;stroke-linecap:butt;stroke-linejoin:round;stroke:rgb(0%,0%,0%);stroke-opacity:1;stroke-miterlimit:4;" d="M 0.0000305176 0.000549316 L 0.0000305176 3.498596 " transform="matrix(1.333333,0,0,1.333333,247.839803,227.335205)"/>
<path style=" stroke:none;fill-rule:nonzero;fill:rgb(0%,0%,0%);fill-opacity:1;" d="M 240.15625 238.226562 L 236.832031 243.414062 L 240.15625 243.414062 Z M 239.808594 237.078125 L 241.460938 237.078125 L 241.460938 243.414062 L 242.851562 243.414062 L 242.851562 244.507812 L 241.460938 244.507812 L 241.460938 246.800781 L 240.15625 246.800781 L 240.15625 244.507812 L 235.765625 244.507812 L 235.765625 243.238281 Z M 239.808594 237.078125 "/>
<path style=" stroke:none;fill-rule:nonzero;fill:rgb(0%,0%,0%);fill-opacity:1;" d="M 247.835938 237.945312 C 247.160156 237.945312 246.648438 238.277344 246.308594 238.945312 C 245.96875 239.609375 245.796875 240.613281 245.796875 241.949219 C 245.796875 243.28125 245.96875 244.28125 246.308594 244.949219 C 246.648438 245.613281 247.160156 245.949219 247.835938 245.949219 C 248.515625 245.949219 249.027344 245.613281 249.367188 244.949219 C 249.710938 244.28125 249.882812 243.28125 249.882812 241.949219 C 249.882812 240.613281 249.710938 239.609375 249.367188 238.945312 C 249.027344 238.277344 248.515625 237.945312 247.835938 237.945312 Z M 247.835938 236.902344 C 248.925781 236.902344 249.757812 237.335938 250.332031 238.199219 C 250.910156 239.058594 251.195312 240.308594 251.195312 241.949219 C 251.195312 243.585938 250.910156 244.835938 250.332031 245.699219 C 249.757812 246.558594 248.925781 246.988281 247.835938 246.988281 C 246.746094 246.988281 245.914062 246.558594 245.339844 245.699219 C 244.765625 244.835938 244.476562 243.585938 244.476562 241.949219 C 244.476562 240.308594 244.765625 239.058594 245.339844 238.199219 C 245.914062 237.335938 246.746094 236.902344 247.835938 236.902344 Z M 247.835938 236.902344 "/>
<path style=" stroke:none;fill-rule:nonzero;fill:rgb(0%,0%,0%);fill-opacity:1;" d="M 256.320312 237.945312 C 255.640625 237.945312 255.132812 238.277344 254.792969 238.945312 C 254.449219 239.609375 254.28125 240.613281 254.28125 241.949219 C 254.28125 243.28125 254.449219 244.28125 254.792969 244.949219 C 255.132812 245.613281 255.640625 245.949219 256.320312 245.949219 C 257 245.949219 257.511719 245.613281 257.851562 244.949219 C 258.195312 244.28125 258.363281 243.28125 258.363281 241.949219 C 258.363281 240.613281 258.195312 239.609375 257.851562 238.945312 C 257.511719 238.277344 257 237.945312 256.320312 237.945312 Z M 256.320312 236.902344 C 257.410156 236.902344 258.242188 237.335938 258.816406 238.199219 C 259.390625 239.058594 259.679688 240.308594 259.679688 241.949219 C 259.679688 243.585938 259.390625 244.835938 258.816406 245.699219 C 258.242188 246.558594 257.410156 246.988281 256.320312 246.988281 C 255.230469 246.988281 254.398438 246.558594 253.824219 245.699219 C 253.246094 244.835938 252.960938 243.585938 252.960938 241.949219 C 252.960938 240.308594 253.246094 239.058594 253.824219 238.199219 C 254.398438 237.335938 255.230469 236.902344 256.320312 236.902344 Z M 256.320312 236.902344 "/>
<g clip-path="url(#clip3)" clip-rule="nonzero">
<path style="fill:none;stroke-width:0.8;stroke-linecap:square;stroke-linejoin:round;stroke:rgb(69.01961%,69.01961%,69.01961%);stroke-opacity:1;stroke-miterlimit:4;" d="M 252.908203 170.501953 L 252.908203 7.420898 " transform="matrix(1.333333,0,0,1.333333,0,0)"/>
</g>
<path style="fill:none;stroke-width:0.8;stroke-linecap:butt;stroke-linejoin:round;stroke:rgb(0%,0%,0%);stroke-opacity:1;stroke-miterlimit:4;" d="M 0.00132751 0.000549316 L 0.00132751 3.498596 " transform="matrix(1.333333,0,0,1.333333,337.209167,227.335205)"/>
<path style=" stroke:none;fill-rule:nonzero;fill:rgb(0%,0%,0%);fill-opacity:1;" d="M 328.886719 241.417969 C 328.296875 241.417969 327.828125 241.617188 327.480469 242.023438 C 327.136719 242.425781 326.964844 242.976562 326.964844 243.679688 C 326.964844 244.378906 327.136719 244.933594 327.480469 245.339844 C 327.828125 245.746094 328.296875 245.949219 328.886719 245.949219 C 329.476562 245.949219 329.945312 245.746094 330.289062 245.339844 C 330.632812 244.933594 330.804688 244.378906 330.804688 243.679688 C 330.804688 242.976562 330.632812 242.425781 330.289062 242.023438 C 329.945312 241.617188 329.476562 241.417969 328.886719 241.417969 Z M 331.496094 237.292969 L 331.496094 238.492188 C 331.167969 238.335938 330.832031 238.21875 330.496094 238.136719 C 330.160156 238.050781 329.828125 238.011719 329.496094 238.011719 C 328.628906 238.011719 327.964844 238.304688 327.507812 238.890625 C 327.050781 239.476562 326.789062 240.359375 326.722656 241.546875 C 326.980469 241.167969 327.300781 240.878906 327.6875 240.675781 C 328.074219 240.476562 328.5 240.375 328.964844 240.375 C 329.941406 240.375 330.710938 240.671875 331.277344 241.265625 C 331.84375 241.855469 332.128906 242.660156 332.128906 243.679688 C 332.128906 244.679688 331.832031 245.480469 331.242188 246.085938 C 330.652344 246.6875 329.867188 246.988281 328.886719 246.988281 C 327.761719 246.988281 326.902344 246.558594 326.308594 245.699219 C 325.710938 244.835938 325.414062 243.585938 325.414062 241.949219 C 325.414062 240.414062 325.78125 239.1875 326.507812 238.273438 C 327.238281 237.359375 328.21875 236.902344 329.445312 236.902344 C 329.773438 236.902344 330.109375 236.9375 330.445312 237 C 330.78125 237.066406 331.132812 237.164062 331.496094 237.292969 Z M 331.496094 237.292969 "/>
<path style=" stroke:none;fill-rule:nonzero;fill:rgb(0%,0%,0%);fill-opacity:1;" d="M 337.203125 237.945312 C 336.527344 237.945312 336.019531 238.277344 335.675781 238.945312 C 335.335938 239.609375 335.167969 240.613281 335.167969 241.949219 C 335.167969 243.28125 335.335938 244.28125 335.675781 244.949219 C 336.019531 245.613281 336.527344 245.949219 337.203125 245.949219 C 337.886719 245.949219 338.398438 245.613281 338.738281 244.949219 C 339.078125 244.28125 339.25 243.28125 339.25 241.949219 C 339.25 240.613281 339.078125 239.609375 338.738281 238.945312 C 338.398438 238.277344 337.886719 237.945312 337.203125 237.945312 Z M 337.203125 236.902344 C 338.296875 236.902344 339.128906 237.335938 339.703125 238.199219 C 340.277344 239.058594 340.566406 240.308594 340.566406 241.949219 C 340.566406 243.585938 340.277344 244.835938 339.703125 245.699219 C 339.128906 246.558594 338.296875 246.988281 337.203125 246.988281 C 336.117188 246.988281 335.285156 246.558594 334.707031 245.699219 C 334.132812 244.835938 333.847656 243.585938 333.847656 241.949219 C 333.847656 240.308594 334.132812 239.058594 334.707031 238.199219 C 335.285156 237.335938 336.117188 236.902344 337.203125 236.902344 Z M 337.203125 236.902344 "/>
<path style=" stroke:none;fill-rule:nonzero;fill:rgb(0%,0%,0%);fill-opacity:1;" d="M 345.6875 237.945312 C 345.011719 237.945312 344.503906 238.277344 344.160156 238.945312 C 343.820312 239.609375 343.648438 240.613281 343.648438 241.949219 C 343.648438 243.28125 343.820312 244.28125 344.160156 244.949219 C 344.503906 245.613281 345.011719 245.949219 345.6875 245.949219 C 346.371094 245.949219 346.882812 245.613281 347.222656 244.949219 C 347.5625 244.28125 347.734375 243.28125 347.734375 241.949219 C 347.734375 240.613281 347.5625 239.609375 347.222656 238.945312 C 346.882812 238.277344 346.371094 237.945312 345.6875 237.945312 Z M 345.6875 236.902344 C 346.777344 236.902344 347.609375 237.335938 348.1875 238.199219 C 348.761719 239.058594 349.046875 240.308594 349.046875 241.949219 C 349.046875 243.585938 348.761719 244.835938 348.1875 245.699219 C 347.609375 246.558594 346.777344 246.988281 345.6875 246.988281 C 344.597656 246.988281 343.765625 246.558594 343.191406 245.699219 C 342.617188 244.835938 342.328125 243.585938 342.328125 241.949219 C 342.328125 240.308594 342.617188 239.058594 343.191406 238.199219 C 343.765625 237.335938 344.597656 236.902344 345.6875 236.902344 Z M 345.6875 236.902344 "/>
<g clip-path="url(#clip4)" clip-rule="nonzero">
<path style="fill:none;stroke-width:0.8;stroke-linecap:square;stroke-linejoin:round;stroke:rgb(69.01961%,69.01961%,69.01961%);stroke-opacity:1;stroke-miterlimit:4;" d="M 319.933594 170.501953 L 319.933594 7.420898 " transform="matrix(1.333333,0,0,1.333333,0,0)"/>
</g>
<path style="fill:none;stroke-width:0.8;stroke-linecap:butt;stroke-linejoin:round;stroke:rgb(0%,0%,0%);stroke-opacity:1;stroke-miterlimit:4;" d="M -0.000305176 0.000549316 L -0.000305176 3.498596 " transform="matrix(1.333333,0,0,1.333333,426.578532,227.335205)"/>
<path style=" stroke:none;fill-rule:nonzero;fill:rgb(0%,0%,0%);fill-opacity:1;" d="M 418.089844 242.183594 C 417.464844 242.183594 416.972656 242.351562 416.617188 242.683594 C 416.257812 243.019531 416.082031 243.480469 416.082031 244.0625 C 416.082031 244.652344 416.257812 245.109375 416.617188 245.445312 C 416.972656 245.78125 417.464844 245.949219 418.089844 245.949219 C 418.714844 245.949219 419.207031 245.78125 419.566406 245.445312 C 419.929688 245.105469 420.109375 244.644531 420.109375 244.0625 C 420.109375 243.480469 419.929688 243.019531 419.574219 242.683594 C 419.214844 242.351562 418.722656 242.183594 418.089844 242.183594 Z M 416.777344 241.625 C 416.210938 241.484375 415.773438 241.222656 415.457031 240.835938 C 415.144531 240.449219 414.988281 239.976562 414.988281 239.421875 C 414.988281 238.644531 415.261719 238.03125 415.816406 237.582031 C 416.371094 237.128906 417.128906 236.902344 418.089844 236.902344 C 419.058594 236.902344 419.820312 237.128906 420.371094 237.582031 C 420.921875 238.03125 421.199219 238.644531 421.199219 239.421875 C 421.199219 239.976562 421.039062 240.449219 420.722656 240.835938 C 420.410156 241.222656 419.972656 241.484375 419.414062 241.625 C 420.046875 241.773438 420.539062 242.0625 420.894531 242.492188 C 421.246094 242.921875 421.425781 243.445312 421.425781 244.0625 C 421.425781 245.007812 421.136719 245.730469 420.5625 246.234375 C 419.988281 246.738281 419.164062 246.988281 418.089844 246.988281 C 417.019531 246.988281 416.195312 246.738281 415.621094 246.234375 C 415.046875 245.730469 414.757812 245.007812 414.757812 244.0625 C 414.757812 243.445312 414.933594 242.921875 415.292969 242.492188 C 415.648438 242.0625 416.144531 241.773438 416.777344 241.625 Z M 416.296875 239.546875 C 416.296875 240.050781 416.453125 240.441406 416.765625 240.726562 C 417.082031 241.007812 417.523438 241.148438 418.089844 241.148438 C 418.65625 241.148438 419.097656 241.007812 419.417969 240.726562 C 419.734375 240.441406 419.894531 240.050781 419.894531 239.546875 C 419.894531 239.042969 419.734375 238.652344 419.417969 238.367188 C 419.097656 238.085938 418.65625 237.945312 418.089844 237.945312 C 417.523438 237.945312 417.082031 238.085938 416.765625 238.367188 C 416.453125 238.652344 416.296875 239.042969 416.296875 239.546875 Z M 416.296875 239.546875 "/>
<path style=" stroke:none;fill-rule:nonzero;fill:rgb(0%,0%,0%);fill-opacity:1;" d="M 426.574219 237.945312 C 425.898438 237.945312 425.390625 238.277344 425.046875 238.945312 C 424.707031 239.609375 424.535156 240.613281 424.535156 241.949219 C 424.535156 243.28125 424.707031 244.28125 425.046875 244.949219 C 425.390625 245.613281 425.898438 245.949219 426.574219 245.949219 C 427.257812 245.949219 427.765625 245.613281 428.109375 244.949219 C 428.449219 244.28125 428.621094 243.28125 428.621094 241.949219 C 428.621094 240.613281 428.449219 239.609375 428.109375 238.945312 C 427.765625 238.277344 427.257812 237.945312 426.574219 237.945312 Z M 426.574219 236.902344 C 427.664062 236.902344 428.496094 237.335938 429.070312 238.199219 C 429.648438 239.058594 429.933594 240.308594 429.933594 241.949219 C 429.933594 243.585938 429.648438 244.835938 429.070312 245.699219 C 428.496094 246.558594 427.664062 246.988281 426.574219 246.988281 C 425.484375 246.988281 424.652344 246.558594 424.078125 245.699219 C 423.503906 244.835938 423.214844 243.585938 423.214844 241.949219 C 423.214844 240.308594 423.503906 239.058594 424.078125 238.199219 C 424.652344 237.335938 425.484375 236.902344 426.574219 236.902344 Z M 426.574219 236.902344 "/>
<path style=" stroke:none;fill-rule:nonzero;fill:rgb(0%,0%,0%);fill-opacity:1;" d="M 435.058594 237.945312 C 434.378906 237.945312 433.871094 238.277344 433.53125 238.945312 C 433.191406 239.609375 433.019531 240.613281 433.019531 241.949219 C 433.019531 243.28125 433.191406 244.28125 433.53125 244.949219 C 433.871094 245.613281 434.378906 245.949219 435.058594 245.949219 C 435.738281 245.949219 436.25 245.613281 436.589844 244.949219 C 436.933594 244.28125 437.101562 243.28125 437.101562 241.949219 C 437.101562 240.613281 436.933594 239.609375 436.589844 238.945312 C 436.25 238.277344 435.738281 237.945312 435.058594 237.945312 Z M 435.058594 236.902344 C 436.148438 236.902344 436.980469 237.335938 437.554688 238.199219 C 438.128906 239.058594 438.417969 240.308594 438.417969 241.949219 C 438.417969 243.585938 438.128906 244.835938 437.554688 245.699219 C 436.980469 246.558594 436.148438 246.988281 435.058594 246.988281 C 433.96875 246.988281 433.136719 246.558594 432.5625 245.699219 C 431.988281 244.835938 431.699219 243.585938 431.699219 241.949219 C 431.699219 240.308594 431.988281 239.058594 432.5625 238.199219 C 433.136719 237.335938 433.96875 236.902344 435.058594 236.902344 Z M 435.058594 236.902344 "/>
<g clip-path="url(#clip5)" clip-rule="nonzero">
<path style="fill:none;stroke-width:0.8;stroke-linecap:square;stroke-linejoin:round;stroke:rgb(69.01961%,69.01961%,69.01961%);stroke-opacity:1;stroke-miterlimit:4;" d="M 386.961914 170.501953 L 386.961914 7.420898 " transform="matrix(1.333333,0,0,1.333333,0,0)"/>
</g>
<path style="fill:none;stroke-width:0.8;stroke-linecap:butt;stroke-linejoin:round;stroke:rgb(0%,0%,0%);stroke-opacity:1;stroke-miterlimit:4;" d="M 0.000976562 0.000549316 L 0.000976562 3.498596 " transform="matrix(1.333333,0,0,1.333333,515.947917,227.335205)"/>
<path style=" stroke:none;fill-rule:nonzero;fill:rgb(0%,0%,0%);fill-opacity:1;" d="M 500.636719 245.695312 L 502.785156 245.695312 L 502.785156 238.277344 L 500.445312 238.746094 L 500.445312 237.546875 L 502.769531 237.078125 L 504.085938 237.078125 L 504.085938 245.695312 L 506.234375 245.695312 L 506.234375 246.800781 L 500.636719 246.800781 Z M 500.636719 245.695312 "/>
<path style=" stroke:none;fill-rule:nonzero;fill:rgb(0%,0%,0%);fill-opacity:1;" d="M 511.703125 237.945312 C 511.027344 237.945312 510.515625 238.277344 510.175781 238.945312 C 509.835938 239.609375 509.664062 240.613281 509.664062 241.949219 C 509.664062 243.28125 509.835938 244.28125 510.175781 244.949219 C 510.515625 245.613281 511.027344 245.949219 511.703125 245.949219 C 512.382812 245.949219 512.894531 245.613281 513.234375 244.949219 C 513.578125 244.28125 513.746094 243.28125 513.746094 241.949219 C 513.746094 240.613281 513.578125 239.609375 513.234375 238.945312 C 512.894531 238.277344 512.382812 237.945312 511.703125 237.945312 Z M 511.703125 236.902344 C 512.792969 236.902344 513.625 237.335938 514.199219 238.199219 C 514.773438 239.058594 515.0625 240.308594 515.0625 241.949219 C 515.0625 243.585938 514.773438 244.835938 514.199219 245.699219 C 513.625 246.558594 512.792969 246.988281 511.703125 246.988281 C 510.613281 246.988281 509.78125 246.558594 509.207031 245.699219 C 508.632812 244.835938 508.34375 243.585938 508.34375 241.949219 C 508.34375 240.308594 508.632812 239.058594 509.207031 238.199219 C 509.78125 237.335938 510.613281 236.902344 511.703125 236.902344 Z M 511.703125 236.902344 "/>
<path style=" stroke:none;fill-rule:nonzero;fill:rgb(0%,0%,0%);fill-opacity:1;" d="M 520.183594 237.945312 C 519.507812 237.945312 519 238.277344 518.65625 238.945312 C 518.316406 239.609375 518.148438 240.613281 518.148438 241.949219 C 518.148438 243.28125 518.316406 244.28125 518.65625 244.949219 C 519 245.613281 519.507812 245.949219 520.183594 245.949219 C 520.867188 245.949219 521.378906 245.613281 521.71875 244.949219 C 522.058594 244.28125 522.230469 243.28125 522.230469 241.949219 C 522.230469 240.613281 522.058594 239.609375 521.71875 238.945312 C 521.378906 238.277344 520.867188 237.945312 520.183594 237.945312 Z M 520.183594 236.902344 C 521.273438 236.902344 522.109375 237.335938 522.683594 238.199219 C 523.257812 239.058594 523.546875 240.308594 523.546875 241.949219 C 523.546875 243.585938 523.257812 244.835938 522.683594 245.699219 C 522.109375 246.558594 521.273438 246.988281 520.183594 246.988281 C 519.097656 246.988281 518.265625 246.558594 517.6875 245.699219 C 517.113281 244.835938 516.828125 243.585938 516.828125 241.949219 C 516.828125 240.308594 517.113281 239.058594 517.6875 238.199219 C 518.265625 237.335938 519.097656 236.902344 520.183594 236.902344 Z M 520.183594 236.902344 "/>
<path style=" stroke:none;fill-rule:nonzero;fill:rgb(0%,0%,0%);fill-opacity:1;" d="M 528.667969 237.945312 C 527.992188 237.945312 527.484375 238.277344 527.140625 238.945312 C 526.800781 239.609375 526.628906 240.613281 526.628906 241.949219 C 526.628906 243.28125 526.800781 244.28125 527.140625 244.949219 C 527.484375 245.613281 527.992188 245.949219 528.667969 245.949219 C 529.351562 245.949219 529.859375 245.613281 530.203125 244.949219 C 530.542969 244.28125 530.714844 243.28125 530.714844 241.949219 C 530.714844 240.613281 530.542969 239.609375 530.203125 238.945312 C 529.859375 238.277344 529.351562 237.945312 528.667969 237.945312 Z M 528.667969 236.902344 C 529.757812 236.902344 530.589844 237.335938 531.164062 238.199219 C 531.742188 239.058594 532.027344 240.308594 532.027344 241.949219 C 532.027344 243.585938 531.742188 244.835938 531.164062 245.699219 C 530.589844 246.558594 529.757812 246.988281 528.667969 246.988281 C 527.578125 246.988281 526.746094 246.558594 526.171875 245.699219 C 525.597656 244.835938 525.308594 243.585938 525.308594 241.949219 C 525.308594 240.308594 525.597656 239.058594 526.171875 238.199219 C 526.746094 237.335938 527.578125 236.902344 528.667969 236.902344 Z M 528.667969 236.902344 "/>
<path style=" stroke:none;fill-rule:nonzero;fill:rgb(0%,0%,0%);fill-opacity:1;" d="M 280.128906 255.675781 L 280.128906 257.746094 L 282.59375 257.746094 L 282.59375 258.675781 L 280.128906 258.675781 L 280.128906 262.636719 C 280.128906 263.230469 280.210938 263.613281 280.371094 263.78125 C 280.535156 263.949219 280.867188 264.035156 281.367188 264.035156 L 282.59375 264.035156 L 282.59375 265.039062 L 281.367188 265.039062 C 280.441406 265.039062 279.800781 264.863281 279.449219 264.519531 C 279.101562 264.175781 278.925781 263.546875 278.925781 262.636719 L 278.925781 258.675781 L 278.042969 258.675781 L 278.042969 257.746094 L 278.925781 257.746094 L 278.925781 255.675781 Z M 280.128906 255.675781 "/>
<path style=" stroke:none;fill-rule:nonzero;fill:rgb(0%,0%,0%);fill-opacity:1;" d="M 284.171875 257.746094 L 285.367188 257.746094 L 285.367188 265.039062 L 284.171875 265.039062 Z M 284.171875 254.90625 L 285.367188 254.90625 L 285.367188 256.425781 L 284.171875 256.425781 Z M 284.171875 254.90625 "/>
<path style=" stroke:none;fill-rule:nonzero;fill:rgb(0%,0%,0%);fill-opacity:1;" d="M 293.550781 259.144531 C 293.851562 258.605469 294.210938 258.210938 294.628906 257.953125 C 295.042969 257.699219 295.535156 257.570312 296.097656 257.570312 C 296.859375 257.570312 297.445312 257.835938 297.855469 258.367188 C 298.269531 258.898438 298.476562 259.65625 298.476562 260.636719 L 298.476562 265.039062 L 297.269531 265.039062 L 297.269531 260.675781 C 297.269531 259.976562 297.148438 259.457031 296.898438 259.121094 C 296.652344 258.78125 296.273438 258.613281 295.765625 258.613281 C 295.144531 258.613281 294.65625 258.820312 294.292969 259.230469 C 293.933594 259.640625 293.753906 260.203125 293.753906 260.917969 L 293.753906 265.039062 L 292.550781 265.039062 L 292.550781 260.675781 C 292.550781 259.972656 292.425781 259.453125 292.179688 259.117188 C 291.933594 258.78125 291.550781 258.613281 291.035156 258.613281 C 290.421875 258.613281 289.933594 258.820312 289.574219 259.234375 C 289.214844 259.648438 289.035156 260.207031 289.035156 260.917969 L 289.035156 265.039062 L 287.828125 265.039062 L 287.828125 257.746094 L 289.035156 257.746094 L 289.035156 258.878906 C 289.308594 258.433594 289.632812 258.101562 290.015625 257.890625 C 290.398438 257.675781 290.851562 257.570312 291.378906 257.570312 C 291.90625 257.570312 292.359375 257.707031 292.730469 257.976562 C 293.101562 258.242188 293.375 258.632812 293.550781 259.144531 Z M 293.550781 259.144531 "/>
<path style=" stroke:none;fill-rule:nonzero;fill:rgb(0%,0%,0%);fill-opacity:1;" d="M 307.101562 261.089844 L 307.101562 261.675781 L 301.59375 261.675781 C 301.644531 262.5 301.894531 263.128906 302.339844 263.5625 C 302.78125 263.996094 303.402344 264.210938 304.195312 264.210938 C 304.65625 264.210938 305.101562 264.152344 305.535156 264.042969 C 305.964844 263.929688 306.394531 263.757812 306.820312 263.53125 L 306.820312 264.667969 C 306.390625 264.847656 305.949219 264.988281 305.5 265.082031 C 305.046875 265.179688 304.589844 265.226562 304.125 265.226562 C 302.960938 265.226562 302.039062 264.890625 301.359375 264.210938 C 300.683594 263.535156 300.34375 262.617188 300.34375 261.460938 C 300.34375 260.269531 300.664062 259.324219 301.308594 258.621094 C 301.953125 257.921875 302.824219 257.570312 303.917969 257.570312 C 304.898438 257.570312 305.671875 257.886719 306.246094 258.519531 C 306.816406 259.148438 307.101562 260.007812 307.101562 261.089844 Z M 305.902344 260.738281 C 305.894531 260.085938 305.710938 259.5625 305.351562 259.171875 C 304.996094 258.78125 304.519531 258.585938 303.929688 258.585938 C 303.261719 258.585938 302.726562 258.773438 302.324219 259.152344 C 301.925781 259.53125 301.691406 260.0625 301.632812 260.746094 Z M 305.902344 260.738281 "/>
<g clip-path="url(#clip6)" clip-rule="nonzero">
<path style="fill:none;stroke-width:0.8;stroke-linecap:square;stroke-linejoin:round;stroke:rgb(69.01961%,69.01961%,69.01961%);stroke-opacity:1;stroke-miterlimit:4;" d="M 52.160156 170.349609 L 386.961914 170.349609 " transform="matrix(1.333333,0,0,1.333333,0,0)"/>
</g>
<path style="fill:none;stroke-width:0.8;stroke-linecap:butt;stroke-linejoin:round;stroke:rgb(0%,0%,0%);stroke-opacity:1;stroke-miterlimit:4;" d="M -0.000782013 -0.00088501 L -3.498829 -0.00088501 " transform="matrix(1.333333,0,0,1.333333,69.547918,227.133993)"/>
<path style=" stroke:none;fill-rule:nonzero;fill:rgb(0%,0%,0%);fill-opacity:1;" d="M 29.25 227.464844 L 37.597656 227.464844 L 37.597656 228.574219 L 29.25 228.574219 Z M 29.25 227.464844 "/>
<path style=" stroke:none;fill-rule:nonzero;fill:rgb(0%,0%,0%);fill-opacity:1;" d="M 40.664062 231.09375 L 42.8125 231.09375 L 42.8125 223.675781 L 40.472656 224.144531 L 40.472656 222.949219 L 42.800781 222.480469 L 44.113281 222.480469 L 44.113281 231.09375 L 46.261719 231.09375 L 46.261719 232.199219 L 40.664062 232.199219 Z M 40.664062 231.09375 "/>
<path style=" stroke:none;fill-rule:nonzero;fill:rgb(0%,0%,0%);fill-opacity:1;" d="M 48.917969 230.546875 L 50.292969 230.546875 L 50.292969 232.199219 L 48.917969 232.199219 Z M 48.917969 230.546875 "/>
<path style=" stroke:none;fill-rule:nonzero;fill:rgb(0%,0%,0%);fill-opacity:1;" d="M 53.171875 222.480469 L 58.332031 222.480469 L 58.332031 223.585938 L 54.375 223.585938 L 54.375 225.96875 C 54.566406 225.902344 54.753906 225.855469 54.945312 225.824219 C 55.136719 225.789062 55.328125 225.773438 55.519531 225.773438 C 56.605469 225.773438 57.464844 226.070312 58.097656 226.667969 C 58.730469 227.261719 59.050781 228.066406 59.050781 229.082031 C 59.050781 230.125 58.722656 230.941406 58.074219 231.519531 C 57.421875 232.101562 56.503906 232.390625 55.316406 232.390625 C 54.910156 232.390625 54.492188 232.355469 54.070312 232.285156 C 53.648438 232.214844 53.210938 232.113281 52.761719 231.972656 L 52.761719 230.648438 C 53.148438 230.863281 53.554688 231.019531 53.96875 231.125 C 54.386719 231.230469 54.828125 231.28125 55.292969 231.28125 C 56.042969 231.28125 56.636719 231.082031 57.074219 230.6875 C 57.511719 230.292969 57.734375 229.757812 57.734375 229.082031 C 57.734375 228.40625 57.511719 227.867188 57.074219 227.476562 C 56.636719 227.078125 56.042969 226.882812 55.292969 226.882812 C 54.941406 226.882812 54.589844 226.917969 54.238281 226.996094 C 53.890625 227.074219 53.535156 227.195312 53.171875 227.363281 Z M 53.171875 222.480469 "/>
<g clip-path="url(#clip7)" clip-rule="nonzero">
<path style="fill:none;stroke-width:0.8;stroke-linecap:square;stroke-linejoin:round;stroke:rgb(69.01961%,69.01961%,69.01961%);stroke-opacity:1;stroke-miterlimit:4;" d="M 52.160156 143.791992 L 386.961914 143.791992 " transform="matrix(1.333333,0,0,1.333333,0,0)"/>
</g>
<path style="fill:none;stroke-width:0.8;stroke-linecap:butt;stroke-linejoin:round;stroke:rgb(0%,0%,0%);stroke-opacity:1;stroke-miterlimit:4;" d="M -0.000782013 0.0000457764 L -3.498829 0.0000457764 " transform="matrix(1.333333,0,0,1.333333,69.547918,191.722595)"/>
<path style=" stroke:none;fill-rule:nonzero;fill:rgb(0%,0%,0%);fill-opacity:1;" d="M 29.25 192.054688 L 37.597656 192.054688 L 37.597656 193.160156 L 29.25 193.160156 Z M 29.25 192.054688 "/>
<path style=" stroke:none;fill-rule:nonzero;fill:rgb(0%,0%,0%);fill-opacity:1;" d="M 40.664062 195.683594 L 42.8125 195.683594 L 42.8125 188.265625 L 40.472656 188.734375 L 40.472656 187.535156 L 42.800781 187.066406 L 44.113281 187.066406 L 44.113281 195.683594 L 46.261719 195.683594 L 46.261719 196.789062 L 40.664062 196.789062 Z M 40.664062 195.683594 "/>
<path style=" stroke:none;fill-rule:nonzero;fill:rgb(0%,0%,0%);fill-opacity:1;" d="M 48.917969 195.132812 L 50.292969 195.132812 L 50.292969 196.789062 L 48.917969 196.789062 Z M 48.917969 195.132812 "/>
<path style=" stroke:none;fill-rule:nonzero;fill:rgb(0%,0%,0%);fill-opacity:1;" d="M 55.96875 187.933594 C 55.292969 187.933594 54.78125 188.265625 54.441406 188.933594 C 54.101562 189.597656 53.929688 190.601562 53.929688 191.9375 C 53.929688 193.269531 54.101562 194.269531 54.441406 194.9375 C 54.78125 195.601562 55.292969 195.9375 55.96875 195.9375 C 56.648438 195.9375 57.160156 195.601562 57.5 194.9375 C 57.84375 194.269531 58.015625 193.269531 58.015625 191.9375 C 58.015625 190.601562 57.84375 189.597656 57.5 188.933594 C 57.160156 188.265625 56.648438 187.933594 55.96875 187.933594 Z M 55.96875 186.890625 C 57.058594 186.890625 57.890625 187.324219 58.464844 188.1875 C 59.042969 189.046875 59.328125 190.296875 59.328125 191.9375 C 59.328125 193.574219 59.042969 194.824219 58.464844 195.6875 C 57.890625 196.546875 57.058594 196.976562 55.96875 196.976562 C 54.878906 196.976562 54.046875 196.546875 53.472656 195.6875 C 52.898438 194.824219 52.609375 193.574219 52.609375 191.9375 C 52.609375 190.296875 52.898438 189.046875 53.472656 188.1875 C 54.046875 187.324219 54.878906 186.890625 55.96875 186.890625 Z M 55.96875 186.890625 "/>
<g clip-path="url(#clip8)" clip-rule="nonzero">
<path style="fill:none;stroke-width:0.8;stroke-linecap:square;stroke-linejoin:round;stroke:rgb(69.01961%,69.01961%,69.01961%);stroke-opacity:1;stroke-miterlimit:4;" d="M 52.160156 117.234375 L 386.961914 117.234375 " transform="matrix(1.333333,0,0,1.333333,0,0)"/>
</g>
<path style="fill:none;stroke-width:0.8;stroke-linecap:butt;stroke-linejoin:round;stroke:rgb(0%,0%,0%);stroke-opacity:1;stroke-miterlimit:4;" d="M -0.000782013 0.000976562 L -3.498829 0.000976562 " transform="matrix(1.333333,0,0,1.333333,69.547918,156.311198)"/>
<path style=" stroke:none;fill-rule:nonzero;fill:rgb(0%,0%,0%);fill-opacity:1;" d="M 29.25 156.644531 L 37.597656 156.644531 L 37.597656 157.75 L 29.25 157.75 Z M 29.25 156.644531 "/>
<path style=" stroke:none;fill-rule:nonzero;fill:rgb(0%,0%,0%);fill-opacity:1;" d="M 43.246094 152.523438 C 42.570312 152.523438 42.0625 152.855469 41.71875 153.523438 C 41.378906 154.1875 41.210938 155.1875 41.210938 156.527344 C 41.210938 157.859375 41.378906 158.859375 41.71875 159.523438 C 42.0625 160.191406 42.570312 160.523438 43.246094 160.523438 C 43.929688 160.523438 44.441406 160.191406 44.78125 159.523438 C 45.121094 158.859375 45.292969 157.859375 45.292969 156.527344 C 45.292969 155.1875 45.121094 154.1875 44.78125 153.523438 C 44.441406 152.855469 43.929688 152.523438 43.246094 152.523438 Z M 43.246094 151.480469 C 44.335938 151.480469 45.167969 151.914062 45.746094 152.773438 C 46.320312 153.636719 46.605469 154.886719 46.605469 156.527344 C 46.605469 158.164062 46.320312 159.414062 45.746094 160.273438 C 45.167969 161.136719 44.335938 161.566406 43.246094 161.566406 C 42.15625 161.566406 41.324219 161.136719 40.75 160.273438 C 40.175781 159.414062 39.886719 158.164062 39.886719 156.527344 C 39.886719 154.886719 40.175781 153.636719 40.75 152.773438 C 41.324219 151.914062 42.15625 151.480469 43.246094 151.480469 Z M 43.246094 151.480469 "/>
<path style=" stroke:none;fill-rule:nonzero;fill:rgb(0%,0%,0%);fill-opacity:1;" d="M 48.917969 159.722656 L 50.292969 159.722656 L 50.292969 161.375 L 48.917969 161.375 Z M 48.917969 159.722656 "/>
<path style=" stroke:none;fill-rule:nonzero;fill:rgb(0%,0%,0%);fill-opacity:1;" d="M 53.171875 151.65625 L 58.332031 151.65625 L 58.332031 152.765625 L 54.375 152.765625 L 54.375 155.144531 C 54.566406 155.082031 54.753906 155.03125 54.945312 155 C 55.136719 154.96875 55.328125 154.953125 55.519531 154.953125 C 56.605469 154.953125 57.464844 155.25 58.097656 155.84375 C 58.730469 156.4375 59.050781 157.242188 59.050781 158.257812 C 59.050781 159.304688 58.722656 160.117188 58.074219 160.699219 C 57.421875 161.277344 56.503906 161.566406 55.316406 161.566406 C 54.910156 161.566406 54.492188 161.53125 54.070312 161.460938 C 53.648438 161.394531 53.210938 161.289062 52.761719 161.148438 L 52.761719 159.828125 C 53.148438 160.039062 53.554688 160.199219 53.96875 160.300781 C 54.386719 160.40625 54.828125 160.457031 55.292969 160.457031 C 56.042969 160.457031 56.636719 160.261719 57.074219 159.867188 C 57.511719 159.472656 57.734375 158.9375 57.734375 158.257812 C 57.734375 157.582031 57.511719 157.046875 57.074219 156.652344 C 56.636719 156.257812 56.042969 156.058594 55.292969 156.058594 C 54.941406 156.058594 54.589844 156.097656 54.238281 156.175781 C 53.890625 156.253906 53.535156 156.375 53.171875 156.539062 Z M 53.171875 151.65625 "/>
<g clip-path="url(#clip9)" clip-rule="nonzero">
<path style="fill:none;stroke-width:0.8;stroke-linecap:square;stroke-linejoin:round;stroke:rgb(69.01961%,69.01961%,69.01961%);stroke-opacity:1;stroke-miterlimit:4;" d="M 52.160156 90.673828 L 386.961914 90.673828 " transform="matrix(1.333333,0,0,1.333333,0,0)"/>
</g>
<path style="fill:none;stroke-width:0.8;stroke-linecap:butt;stroke-linejoin:round;stroke:rgb(0%,0%,0%);stroke-opacity:1;stroke-miterlimit:4;" d="M -0.000782013 -0.00102997 L -3.498829 -0.00102997 " transform="matrix(1.333333,0,0,1.333333,69.547918,120.899811)"/>
<path style=" stroke:none;fill-rule:nonzero;fill:rgb(0%,0%,0%);fill-opacity:1;" d="M 43.246094 117.109375 C 42.570312 117.109375 42.0625 117.445312 41.722656 118.109375 C 41.378906 118.777344 41.210938 119.777344 41.210938 121.117188 C 41.210938 122.449219 41.378906 123.445312 41.722656 124.113281 C 42.0625 124.78125 42.570312 125.113281 43.246094 125.113281 C 43.929688 125.113281 44.441406 124.78125 44.78125 124.113281 C 45.121094 123.445312 45.292969 122.449219 45.292969 121.117188 C 45.292969 119.777344 45.121094 118.777344 44.78125 118.109375 C 44.441406 117.445312 43.929688 117.109375 43.246094 117.109375 Z M 43.246094 116.070312 C 44.339844 116.070312 45.171875 116.5 45.746094 117.363281 C 46.320312 118.222656 46.609375 119.476562 46.609375 121.117188 C 46.609375 122.75 46.320312 124 45.746094 124.863281 C 45.171875 125.722656 44.339844 126.15625 43.246094 126.15625 C 42.160156 126.15625 41.328125 125.722656 40.753906 124.863281 C 40.175781 124 39.890625 122.75 39.890625 121.117188 C 39.890625 119.476562 40.175781 118.222656 40.753906 117.363281 C 41.328125 116.5 42.160156 116.070312 43.246094 116.070312 Z M 43.246094 116.070312 "/>
<path style=" stroke:none;fill-rule:nonzero;fill:rgb(0%,0%,0%);fill-opacity:1;" d="M 48.917969 124.3125 L 50.292969 124.3125 L 50.292969 125.964844 L 48.917969 125.964844 Z M 48.917969 124.3125 "/>
<path style=" stroke:none;fill-rule:nonzero;fill:rgb(0%,0%,0%);fill-opacity:1;" d="M 55.96875 117.109375 C 55.292969 117.109375 54.785156 117.445312 54.441406 118.109375 C 54.101562 118.777344 53.933594 119.777344 53.933594 121.117188 C 53.933594 122.449219 54.101562 123.445312 54.441406 124.113281 C 54.785156 124.78125 55.292969 125.113281 55.96875 125.113281 C 56.652344 125.113281 57.164062 124.78125 57.503906 124.113281 C 57.84375 123.445312 58.015625 122.449219 58.015625 121.117188 C 58.015625 119.777344 57.84375 118.777344 57.503906 118.109375 C 57.164062 117.445312 56.652344 117.109375 55.96875 117.109375 Z M 55.96875 116.070312 C 57.058594 116.070312 57.890625 116.5 58.46875 117.363281 C 59.042969 118.222656 59.328125 119.476562 59.328125 121.117188 C 59.328125 122.75 59.042969 124 58.46875 124.863281 C 57.890625 125.722656 57.058594 126.15625 55.96875 126.15625 C 54.878906 126.15625 54.046875 125.722656 53.472656 124.863281 C 52.898438 124 52.609375 122.75 52.609375 121.117188 C 52.609375 119.476562 52.898438 118.222656 53.472656 117.363281 C 54.046875 116.5 54.878906 116.070312 55.96875 116.070312 Z M 55.96875 116.070312 "/>
<g clip-path="url(#clip10)" clip-rule="nonzero">
<path style="fill:none;stroke-width:0.8;stroke-linecap:square;stroke-linejoin:round;stroke:rgb(69.01961%,69.01961%,69.01961%);stroke-opacity:1;stroke-miterlimit:4;" d="M 52.160156 64.116211 L 386.961914 64.116211 " transform="matrix(1.333333,0,0,1.333333,0,0)"/>
</g>
<path style="fill:none;stroke-width:0.8;stroke-linecap:butt;stroke-linejoin:round;stroke:rgb(0%,0%,0%);stroke-opacity:1;stroke-miterlimit:4;" d="M -0.000782013 -0.0000991821 L -3.498829 -0.0000991821 " transform="matrix(1.333333,0,0,1.333333,69.547918,85.488413)"/>
<path style=" stroke:none;fill-rule:nonzero;fill:rgb(0%,0%,0%);fill-opacity:1;" d="M 43.246094 81.699219 C 42.570312 81.699219 42.0625 82.03125 41.722656 82.699219 C 41.378906 83.363281 41.210938 84.367188 41.210938 85.703125 C 41.210938 87.035156 41.378906 88.035156 41.722656 88.703125 C 42.0625 89.367188 42.570312 89.703125 43.246094 89.703125 C 43.929688 89.703125 44.441406 89.367188 44.78125 88.703125 C 45.121094 88.035156 45.292969 87.035156 45.292969 85.703125 C 45.292969 84.367188 45.121094 83.363281 44.78125 82.699219 C 44.441406 82.03125 43.929688 81.699219 43.246094 81.699219 Z M 43.246094 80.65625 C 44.339844 80.65625 45.171875 81.089844 45.746094 81.953125 C 46.320312 82.8125 46.609375 84.0625 46.609375 85.703125 C 46.609375 87.339844 46.320312 88.589844 45.746094 89.453125 C 45.171875 90.3125 44.339844 90.742188 43.246094 90.742188 C 42.160156 90.742188 41.328125 90.3125 40.753906 89.453125 C 40.175781 88.589844 39.890625 87.339844 39.890625 85.703125 C 39.890625 84.0625 40.175781 82.8125 40.753906 81.953125 C 41.328125 81.089844 42.160156 80.65625 43.246094 80.65625 Z M 43.246094 80.65625 "/>
<path style=" stroke:none;fill-rule:nonzero;fill:rgb(0%,0%,0%);fill-opacity:1;" d="M 48.917969 88.898438 L 50.292969 88.898438 L 50.292969 90.554688 L 48.917969 90.554688 Z M 48.917969 88.898438 "/>
<path style=" stroke:none;fill-rule:nonzero;fill:rgb(0%,0%,0%);fill-opacity:1;" d="M 53.171875 80.832031 L 58.332031 80.832031 L 58.332031 81.941406 L 54.375 81.941406 L 54.375 84.324219 C 54.566406 84.257812 54.757812 84.207031 54.945312 84.175781 C 55.136719 84.144531 55.328125 84.128906 55.519531 84.128906 C 56.605469 84.128906 57.464844 84.425781 58.097656 85.019531 C 58.734375 85.613281 59.050781 86.421875 59.050781 87.433594 C 59.050781 88.480469 58.726562 89.292969 58.074219 89.875 C 57.421875 90.453125 56.503906 90.742188 55.320312 90.742188 C 54.910156 90.742188 54.496094 90.707031 54.070312 90.640625 C 53.648438 90.570312 53.210938 90.464844 52.761719 90.328125 L 52.761719 89.003906 C 53.152344 89.214844 53.554688 89.375 53.972656 89.480469 C 54.386719 89.582031 54.828125 89.636719 55.292969 89.636719 C 56.042969 89.636719 56.636719 89.4375 57.074219 89.042969 C 57.515625 88.648438 57.734375 88.113281 57.734375 87.433594 C 57.734375 86.757812 57.515625 86.222656 57.074219 85.828125 C 56.636719 85.433594 56.042969 85.234375 55.292969 85.234375 C 54.941406 85.234375 54.589844 85.273438 54.238281 85.351562 C 53.890625 85.429688 53.535156 85.550781 53.171875 85.714844 Z M 53.171875 80.832031 "/>
<g clip-path="url(#clip11)" clip-rule="nonzero">
<path style="fill:none;stroke-width:0.8;stroke-linecap:square;stroke-linejoin:round;stroke:rgb(69.01961%,69.01961%,69.01961%);stroke-opacity:1;stroke-miterlimit:4;" d="M 52.160156 37.558594 L 386.961914 37.558594 " transform="matrix(1.333333,0,0,1.333333,0,0)"/>
</g>
<path style="fill:none;stroke-width:0.8;stroke-linecap:butt;stroke-linejoin:round;stroke:rgb(0%,0%,0%);stroke-opacity:1;stroke-miterlimit:4;" d="M -0.000782013 0.000831604 L -3.498829 0.000831604 " transform="matrix(1.333333,0,0,1.333333,69.547918,50.077016)"/>
<path style=" stroke:none;fill-rule:nonzero;fill:rgb(0%,0%,0%);fill-opacity:1;" d="M 40.664062 54.035156 L 42.8125 54.035156 L 42.8125 46.621094 L 40.476562 47.089844 L 40.476562 45.890625 L 42.800781 45.421875 L 44.113281 45.421875 L 44.113281 54.035156 L 46.261719 54.035156 L 46.261719 55.144531 L 40.664062 55.144531 Z M 40.664062 54.035156 "/>
<path style=" stroke:none;fill-rule:nonzero;fill:rgb(0%,0%,0%);fill-opacity:1;" d="M 48.917969 53.488281 L 50.292969 53.488281 L 50.292969 55.144531 L 48.917969 55.144531 Z M 48.917969 53.488281 "/>
<path style=" stroke:none;fill-rule:nonzero;fill:rgb(0%,0%,0%);fill-opacity:1;" d="M 55.96875 46.289062 C 55.292969 46.289062 54.785156 46.621094 54.441406 47.289062 C 54.101562 47.953125 53.933594 48.957031 53.933594 50.292969 C 53.933594 51.625 54.101562 52.625 54.441406 53.289062 C 54.785156 53.957031 55.292969 54.289062 55.96875 54.289062 C 56.652344 54.289062 57.164062 53.957031 57.503906 53.289062 C 57.84375 52.625 58.015625 51.625 58.015625 50.292969 C 58.015625 48.957031 57.84375 47.953125 57.503906 47.289062 C 57.164062 46.621094 56.652344 46.289062 55.96875 46.289062 Z M 55.96875 45.246094 C 57.058594 45.246094 57.890625 45.679688 58.46875 46.539062 C 59.042969 47.402344 59.328125 48.652344 59.328125 50.292969 C 59.328125 51.929688 59.042969 53.179688 58.46875 54.039062 C 57.890625 54.902344 57.058594 55.332031 55.96875 55.332031 C 54.878906 55.332031 54.046875 54.902344 53.472656 54.039062 C 52.898438 53.179688 52.609375 51.929688 52.609375 50.292969 C 52.609375 48.652344 52.898438 47.402344 53.472656 46.539062 C 54.046875 45.679688 54.878906 45.246094 55.96875 45.246094 Z M 55.96875 45.246094 "/>
<g clip-path="url(#clip12)" clip-rule="nonzero">
<path style="fill:none;stroke-width:0.8;stroke-linecap:square;stroke-linejoin:round;stroke:rgb(69.01961%,69.01961%,69.01961%);stroke-opacity:1;stroke-miterlimit:4;" d="M 52.160156 10.998047 L 386.961914 10.998047 " transform="matrix(1.333333,0,0,1.333333,0,0)"/>
</g>
<path style="fill:none;stroke-width:0.8;stroke-linecap:butt;stroke-linejoin:round;stroke:rgb(0%,0%,0%);stroke-opacity:1;stroke-miterlimit:4;" d="M -0.000782013 -0.00117207 L -3.498829 -0.00117207 " transform="matrix(1.333333,0,0,1.333333,69.547918,14.665625)"/>
<path style=" stroke:none;fill-rule:nonzero;fill:rgb(0%,0%,0%);fill-opacity:1;" d="M 40.664062 18.625 L 42.8125 18.625 L 42.8125 11.207031 L 40.476562 11.675781 L 40.476562 10.480469 L 42.800781 10.011719 L 44.113281 10.011719 L 44.113281 18.625 L 46.261719 18.625 L 46.261719 19.730469 L 40.664062 19.730469 Z M 40.664062 18.625 "/>
<path style=" stroke:none;fill-rule:nonzero;fill:rgb(0%,0%,0%);fill-opacity:1;" d="M 48.917969 18.078125 L 50.292969 18.078125 L 50.292969 19.730469 L 48.917969 19.730469 Z M 48.917969 18.078125 "/>
<path style=" stroke:none;fill-rule:nonzero;fill:rgb(0%,0%,0%);fill-opacity:1;" d="M 53.171875 10.011719 L 58.332031 10.011719 L 58.332031 11.117188 L 54.375 11.117188 L 54.375 13.5 C 54.566406 13.433594 54.757812 13.386719 54.945312 13.355469 C 55.136719 13.320312 55.328125 13.304688 55.519531 13.304688 C 56.605469 13.304688 57.464844 13.601562 58.097656 14.199219 C 58.734375 14.792969 59.050781 15.597656 59.050781 16.613281 C 59.050781 17.660156 58.726562 18.472656 58.074219 19.050781 C 57.421875 19.632812 56.503906 19.921875 55.320312 19.921875 C 54.910156 19.921875 54.496094 19.886719 54.070312 19.816406 C 53.648438 19.746094 53.210938 19.644531 52.761719 19.503906 L 52.761719 18.179688 C 53.152344 18.394531 53.554688 18.550781 53.972656 18.65625 C 54.386719 18.761719 54.828125 18.8125 55.292969 18.8125 C 56.042969 18.8125 56.636719 18.617188 57.074219 18.222656 C 57.515625 17.828125 57.734375 17.289062 57.734375 16.613281 C 57.734375 15.9375 57.515625 15.402344 57.074219 15.007812 C 56.636719 14.609375 56.042969 14.414062 55.292969 14.414062 C 54.941406 14.414062 54.589844 14.453125 54.238281 14.527344 C 53.890625 14.605469 53.535156 14.726562 53.171875 14.894531 Z M 53.171875 10.011719 "/>
<path style=" stroke:none;fill-rule:nonzero;fill:rgb(0%,0%,0%);fill-opacity:1;" d="M 12.441406 115.242188 L 15.988281 117.878906 L 19.730469 115.105469 L 19.730469 116.519531 L 16.867188 118.640625 L 19.730469 120.761719 L 19.730469 122.175781 L 15.917969 119.34375 L 12.441406 121.9375 L 12.441406 120.523438 L 15.039062 118.589844 L 12.441406 116.65625 Z M 12.441406 115.242188 "/>
<g clip-path="url(#clip13)" clip-rule="nonzero">
<path style="fill:none;stroke-width:1.5;stroke-linecap:square;stroke-linejoin:round;stroke:rgb(12.156863%,46.666667%,70.588237%);stroke-opacity:1;stroke-miterlimit:4;" d="M 52.160156 84.544922 L 52.49707 66.292969 L 52.831055 84.811523 L 53.165039 85.913086 L 53.501953 99.105469 L 53.835938 98.384766 L 54.172852 81.436523 L 54.506836 72.076172 L 54.84082 103.482422 L 55.177734 65.124023 L 55.848633 83.05957 L 56.182617 53.358398 L 56.853516 100.104492 L 57.1875 100.757812 L 57.524414 80.859375 L 57.858398 74.80957 L 58.192383 77.261719 L 58.529297 83.660156 L 58.863281 69.295898 L 59.200195 67.96582 L 59.53418 86.255859 L 59.868164 59.838867 L 60.205078 58.998047 L 60.539062 65.197266 L 60.873047 64.87793 L 61.209961 71.72168 L 61.543945 98.53418 L 61.880859 79.31543 L 62.214844 89.378906 L 62.548828 81.741211 L 62.885742 80.90625 L 63.219727 77.150391 L 63.556641 85.204102 L 63.890625 103.59082 L 64.224609 83.897461 L 64.561523 72.609375 L 64.895508 81.029297 L 65.232422 70.004883 L 65.566406 76.239258 L 65.900391 68.938477 L 66.237305 64.289062 L 66.571289 68.481445 L 66.908203 67.476562 L 67.242188 89.425781 L 67.576172 81.023438 L 68.24707 58.699219 L 68.583984 55.447266 L 68.917969 66.111328 L 69.251953 54.629883 L 69.588867 74.563477 L 69.922852 60.820312 L 70.256836 55.828125 L 70.59375 58.587891 L 70.927734 52.77832 L 71.264648 98.15918 L 71.598633 46.327148 L 71.932617 78.336914 L 72.269531 45.615234 L 72.603516 62.458008 L 72.94043 39.486328 L 73.274414 41.381836 L 73.608398 62.194336 L 73.945312 64.426758 L 74.279297 54.495117 L 74.616211 54.392578 L 74.950195 57.776367 L 75.28418 54.386719 L 75.621094 56.642578 L 75.955078 67.78418 L 76.625977 55.97168 L 76.959961 14.833008 L 77.296875 48.761719 L 77.630859 71.15625 L 77.967773 39.457031 L 78.301758 39.345703 L 78.635742 48.474609 L 78.972656 60.788086 L 79.306641 53.261719 L 79.640625 63.457031 L 79.977539 39.987305 L 80.311523 27.673828 L 80.982422 48.208008 L 81.316406 42.292969 L 81.65332 61.904297 L 81.987305 40.470703 L 82.324219 49.666992 L 82.658203 52.429688 L 82.992188 50.912109 L 83.329102 52.494141 L 83.663086 43.658203 L 84 44.334961 L 84.333984 49.576172 L 84.667969 34.110352 L 85.004883 56.487305 L 85.338867 45.580078 L 85.675781 51.65332 L 86.009766 30.714844 L 86.34375 41.408203 L 86.680664 36.585938 L 87.014648 55.3125 L 87.351562 58.702148 L 87.685547 35.967773 L 88.019531 43.857422 L 88.356445 62.821289 L 88.69043 66.993164 L 89.024414 62.460938 L 89.361328 37.760742 L 89.695312 35.707031 L 90.032227 45.949219 L 90.366211 47.299805 L 90.700195 37.907227 L 91.037109 32.293945 L 91.708008 48.448242 L 92.041992 47.021484 L 92.375977 31.092773 L 93.046875 65.551758 L 93.383789 42.301758 L 93.717773 53.449219 L 94.051758 68.806641 L 94.388672 48.181641 L 95.05957 33.588867 L 95.393555 45.28125 L 95.727539 42.161133 L 96.064453 47.416992 L 96.398438 56.077148 L 96.735352 40.658203 L 97.069336 18.049805 L 97.40332 43.602539 L 97.740234 58.458984 L 98.074219 43.441406 L 98.408203 55.453125 L 99.079102 46.280273 L 99.75 45.987305 L 100.083984 47.121094 L 100.420898 38.405273 L 100.754883 43.397461 L 101.091797 44.619141 L 101.425781 35.510742 L 101.759766 41.99707 L 102.09668 37.845703 L 102.430664 45.158203 L 102.767578 22.130859 L 103.101562 39.837891 L 103.435547 36.498047 L 103.772461 38.496094 L 104.106445 26.027344 L 104.443359 44.34375 L 105.111328 33.09082 L 105.448242 24.436523 L 105.782227 56.885742 L 106.119141 38.053711 L 106.453125 30.723633 L 106.787109 39.931641 L 107.124023 24.600586 L 107.458008 28.12793 L 107.791992 34.541016 L 108.128906 33.014648 L 108.462891 37.567383 L 108.799805 35.115234 L 109.133789 48.483398 L 109.467773 38.126953 L 109.804688 53.879883 L 110.138672 32.273438 L 110.475586 57.035156 L 110.80957 40.772461 L 111.143555 38.724609 L 111.480469 30.785156 L 111.814453 26.671875 L 112.151367 51.506836 L 112.485352 50.291016 L 112.819336 23.753906 L 113.15625 48.553711 L 113.490234 39.448242 L 113.827148 38.973633 L 114.161133 47.944336 L 114.495117 29.879883 L 114.832031 41.211914 L 115.166016 43.725586 L 115.50293 21.597656 L 115.836914 35.317383 L 116.170898 43.40625 L 116.507812 25.734375 L 116.841797 17.021484 L 117.175781 33.884766 L 117.84668 32.208984 L 118.183594 27.515625 L 118.517578 35.865234 L 118.851562 32.402344 L 119.188477 33.339844 L 119.522461 29.689453 L 120.193359 59.033203 L 120.527344 36.257812 L 120.864258 34.848633 L 121.198242 46.458984 L 121.869141 20.241211 L 122.203125 54.530273 L 122.540039 42.128906 L 122.874023 25.50293 L 123.544922 54.852539 L 123.878906 47.973633 L 124.21582 46.12793 L 124.549805 48.500977 L 124.886719 46.646484 L 125.220703 40.450195 L 125.554688 45.796875 L 125.891602 36.662109 L 126.55957 60.544922 L 126.896484 46.543945 L 127.230469 63.219727 L 127.567383 37.168945 L 127.901367 41.355469 L 128.235352 57.500977 L 128.572266 41.818359 L 128.90625 61.397461 L 129.243164 45.829102 L 129.577148 53.288086 L 129.911133 56.326172 L 130.248047 68.24707 L 130.582031 42.339844 L 130.918945 52.110352 L 131.25293 48.026367 L 131.586914 62.824219 L 131.923828 50.030273 L 132.257812 66.398438 L 132.594727 64.924805 L 132.928711 75.629883 L 133.262695 32.170898 L 133.599609 59.25 L 133.933594 69.363281 L 134.270508 67.535156 L 134.604492 72.550781 L 134.938477 57.638672 L 135.275391 63.102539 L 135.609375 63.682617 L 135.943359 63.738281 L 136.280273 71.970703 L 136.614258 59.402344 L 136.951172 71.932617 L 137.285156 63.19043 L 137.619141 40.12793 L 137.956055 67.160156 L 138.290039 59.841797 L 138.626953 62.355469 L 138.960938 72.257812 L 139.294922 65.885742 L 139.631836 50.920898 L 139.96582 52.025391 L 140.636719 58.286133 L 140.970703 69.017578 L 141.307617 67.072266 L 141.641602 56.188477 L 141.978516 54.275391 L 142.3125 50.950195 L 142.646484 76.03418 L 142.983398 58.561523 L 143.317383 80.419922 L 143.651367 51.131836 L 143.988281 57.146484 L 144.322266 83.285156 L 144.65918 73.198242 L 144.993164 79.227539 L 145.327148 59.683594 L 145.998047 78.914062 L 146.334961 62.273438 L 146.668945 62.786133 L 147.339844 67.693359 L 147.673828 61.869141 L 148.010742 63.723633 L 148.344727 62.81543 L 148.678711 66.975586 L 149.015625 77.425781 L 149.349609 74.540039 L 149.686523 66.714844 L 150.354492 91.901367 L 150.691406 84.571289 L 151.025391 89.229492 L 151.362305 74.575195 L 151.696289 103.447266 L 152.030273 79.945312 L 152.367188 88.573242 L 152.701172 76.03125 L 153.035156 92.332031 L 153.37207 82.289062 L 154.042969 88.579102 L 154.376953 115.860352 L 154.710938 83.006836 L 155.047852 77.756836 L 155.381836 62.214844 L 155.71875 89.967773 L 156.052734 98.686523 L 156.386719 76.072266 L 156.723633 98.616211 L 157.057617 84.219727 L 157.394531 77.34668 L 157.728516 76.233398 L 158.733398 100.880859 L 159.070312 94.013672 L 159.404297 99.544922 L 159.738281 98.43457 L 160.075195 89.387695 L 160.40918 73.21875 L 160.746094 93.972656 L 161.080078 102.128906 L 161.414062 101.768555 L 161.750977 88.116211 L 162.084961 110.821289 L 162.418945 91.883789 L 162.755859 108.550781 L 163.089844 118.494141 L 163.426758 118.59375 L 163.760742 107.255859 L 164.094727 110.920898 L 164.431641 99.254883 L 164.765625 95.167969 L 165.102539 105.808594 L 165.436523 108.123047 L 165.770508 111.782227 L 166.107422 113.493164 L 166.441406 102.125977 L 166.77832 99.612305 L 167.446289 110.191406 L 167.783203 83.868164 L 168.788086 121.007812 L 169.12207 115.177734 L 169.458984 102.357422 L 169.792969 127.87207 L 170.129883 110.000977 L 170.463867 116.988281 L 170.797852 111.333984 L 171.134766 119.05957 L 171.802734 103.359375 L 172.139648 121.87207 L 172.473633 131.490234 L 172.810547 111.714844 L 173.144531 128.106445 L 173.478516 130.792969 L 173.81543 120.035156 L 174.149414 98.323242 L 174.486328 107.080078 L 174.820312 146.124023 L 175.154297 99.137695 L 175.491211 128.712891 L 175.825195 134.99707 L 176.162109 114.260742 L 176.496094 104.569336 L 176.830078 133.608398 L 177.166992 135.817383 L 177.500977 121.669922 L 177.837891 119.367188 L 178.171875 106.02832 L 178.505859 110.8125 L 178.842773 117.521484 L 179.176758 127.300781 L 179.847656 120.005859 L 180.181641 135.073242 L 180.518555 118.605469 L 181.186523 147.459961 L 181.857422 129.858398 L 182.194336 131.288086 L 182.52832 135.899414 L 182.862305 117.014648 L 183.199219 120.216797 L 183.533203 127.848633 L 183.870117 151.664062 L 184.204102 127.201172 L 184.538086 128.241211 L 184.875 121.737305 L 185.208984 163.089844 L 185.545898 135.269531 L 185.879883 132.512695 L 186.213867 119.012695 L 186.550781 136.87793 L 186.884766 135.225586 L 187.22168 132.585938 L 187.889648 136.21875 L 188.226562 140.712891 L 188.560547 148.429688 L 188.897461 120.307617 L 189.231445 127.356445 L 189.56543 145.992188 L 189.902344 120.723633 L 190.570312 142.163086 L 190.907227 129.421875 L 191.241211 130.385742 L 191.578125 153.791016 L 191.912109 138.172852 L 192.246094 153.383789 L 192.583008 137.630859 L 192.916992 152.422852 L 193.253906 155.888672 L 193.587891 134.414062 L 193.921875 147.052734 L 194.258789 127.728516 L 194.592773 137.282227 L 195.263672 129.975586 L 195.597656 136.189453 L 195.93457 120.240234 L 196.268555 143.375977 L 196.605469 113.900391 L 196.939453 148.3125 L 197.273438 140.686523 L 197.610352 148.543945 L 198.28125 131.408203 L 198.615234 129.228516 L 198.949219 153.213867 L 199.286133 123.952148 L 199.620117 132.082031 L 199.954102 123.512695 L 200.291016 136.886719 L 200.625 122.460938 L 200.961914 138.791016 L 201.295898 138.981445 L 201.629883 120.75 L 201.966797 146.112305 L 202.300781 134.90625 L 202.637695 134.367188 L 202.97168 147.911133 L 203.305664 144.295898 L 203.642578 152.525391 L 203.976562 132.817383 L 204.313477 156.474609 L 204.647461 143.206055 L 204.981445 149.871094 L 205.652344 153.700195 L 205.989258 150.155273 L 206.323242 125.501953 L 206.657227 131.024414 L 206.994141 140.958984 L 207.328125 138.131836 L 207.665039 145.001953 L 207.999023 129.310547 L 208.333008 124.605469 L 208.669922 147.348633 L 209.003906 126.254883 L 209.674805 151.432617 L 210.008789 123.038086 L 210.345703 150.94043 L 210.679688 143.326172 L 211.013672 132.172852 L 211.350586 148.96875 L 211.68457 149.320312 L 212.021484 141.738281 L 212.355469 150.585938 L 212.689453 146.003906 L 213.026367 138.521484 L 213.360352 140.399414 L 213.697266 129.196289 L 214.03125 145.248047 L 214.365234 142.239258 L 214.702148 127.186523 L 215.036133 154.924805 L 215.373047 129.597656 L 215.707031 131.648438 L 216.041016 138.369141 L 216.37793 141.952148 L 216.711914 152.8125 L 217.048828 152.958984 L 217.382812 129.084961 L 217.716797 140.806641 L 218.053711 146.707031 L 218.387695 144.099609 L 218.72168 152.548828 L 219.058594 133.97168 L 219.729492 159.500977 L 220.063477 139.681641 L 220.397461 151.461914 L 220.734375 151.664062 L 221.068359 133.681641 L 221.405273 140.460938 L 221.739258 128.900391 L 222.073242 130.476562 L 222.410156 133.21582 L 222.744141 146.958984 L 223.415039 136.787109 L 223.749023 139.625977 L 224.085938 134.90625 L 224.419922 134.545898 L 224.756836 150.005859 L 225.09082 115.081055 L 225.424805 136.757812 L 226.095703 117.987305 L 226.432617 137.90918 L 226.766602 135.243164 L 227.100586 135.837891 L 227.4375 118.286133 L 227.771484 144.755859 L 228.105469 141.861328 L 228.442383 130.180664 L 228.776367 138.524414 L 229.113281 140.047852 L 229.447266 135.128906 L 229.78125 139.822266 L 230.118164 139.435547 L 230.789062 123.445312 L 231.123047 131.428711 L 231.457031 110.097656 L 232.12793 137.080078 L 232.464844 126.249023 L 232.798828 141.509766 L 233.132812 137.452148 L 233.469727 114.553711 L 233.803711 145.136719 L 234.140625 134.088867 L 234.474609 137.838867 L 234.808594 96.47168 L 235.145508 147.222656 L 235.479492 134.197266 L 235.816406 147.134766 L 236.150391 113.258789 L 236.484375 134.81543 L 236.821289 116.323242 L 237.155273 114.770508 L 237.489258 114.629883 L 237.826172 131.964844 L 238.160156 130.03125 L 238.49707 112.49707 L 238.831055 124.353516 L 239.165039 119.680664 L 239.501953 124.274414 L 239.835938 123.764648 L 240.172852 112.986328 L 240.506836 120.805664 L 240.84082 134.083008 L 241.177734 115.086914 L 241.511719 141.46875 L 242.182617 116.490234 L 242.516602 112.828125 L 242.853516 152.176758 L 243.1875 130.511719 L 243.524414 143.279297 L 243.858398 103.708008 L 244.192383 116.455078 L 244.529297 121.306641 L 244.863281 107.214844 L 245.200195 125.941406 L 245.53418 102.9375 L 245.868164 90.606445 L 246.205078 112.901367 L 246.539062 98.99707 L 246.873047 123.495117 L 247.209961 114.319336 L 247.543945 124.681641 L 247.880859 106.728516 L 248.214844 124.086914 L 248.548828 114.070312 L 248.885742 117.75293 L 249.219727 123.413086 L 249.556641 106.866211 L 249.890625 105.826172 L 250.224609 105.93457 L 250.895508 119.197266 L 251.566406 94.494141 L 251.900391 94.749023 L 252.237305 96.761719 L 252.571289 97.836914 L 252.908203 90.026367 L 253.242188 101.853516 L 253.576172 108.439453 L 253.913086 95.859375 L 254.24707 99.802734 L 254.583984 105.960938 L 254.917969 102.041016 L 255.251953 106.699219 L 255.588867 115.40332 L 255.922852 98.636719 L 256.256836 111.492188 L 256.59375 112.59668 L 256.927734 114.439453 L 257.264648 101.856445 L 257.598633 78.585938 L 257.932617 108.448242 L 258.269531 100.256836 L 258.603516 73.004883 L 259.274414 100.40918 L 259.608398 100.705078 L 259.945312 94.561523 L 260.279297 96.363281 L 260.616211 104.165039 L 260.950195 82.582031 L 261.28418 84.911133 L 261.621094 92.938477 L 261.955078 78.600586 L 262.291992 108.855469 L 262.625977 70.708008 L 263.296875 100.136719 L 263.630859 98.349609 L 263.967773 101.689453 L 264.635742 73.479492 L 264.972656 93.029297 L 265.306641 87.805664 L 265.640625 76.962891 L 265.977539 87.916992 L 266.311523 87.193359 L 266.648438 98.707031 L 266.982422 79.790039 L 267.316406 97.412109 L 267.65332 80.074219 L 267.987305 89.771484 L 268.324219 77.953125 L 268.658203 95.129883 L 268.992188 63.972656 L 269.329102 77.879883 L 269.663086 75.28125 L 270 98.425781 L 270.333984 77.317383 L 270.667969 76.119141 L 271.004883 73.713867 L 271.338867 79.335938 L 271.675781 87.518555 L 272.009766 67.913086 L 272.34375 79.828125 L 272.680664 71.586914 L 273.014648 73.300781 L 273.351562 73.599609 L 273.685547 75.685547 L 274.356445 88.356445 L 274.69043 71.129883 L 275.024414 69.079102 L 275.361328 70.294922 L 275.695312 69.720703 L 276.032227 58.21582 L 276.700195 68.841797 L 277.371094 70.842773 L 277.708008 68.003906 L 278.041992 76.037109 L 278.375977 66.114258 L 278.712891 69.09375 L 279.046875 71.033203 L 279.383789 47.361328 L 279.717773 80.560547 L 280.051758 56.783203 L 280.388672 56.334961 L 280.722656 54.641602 L 281.05957 71.100586 L 281.393555 47.293945 L 281.727539 65.824219 L 282.064453 60.603516 L 282.398438 51.714844 L 282.735352 70.250977 L 283.069336 49.561523 L 283.40332 78.322266 L 283.740234 55.130859 L 284.074219 66.533203 L 284.408203 44.554688 L 284.745117 69.711914 L 285.079102 38.53418 L 285.416016 60.492188 L 285.75 54.495117 L 286.420898 70.426758 L 286.754883 54.823242 L 287.091797 57.27832 L 287.425781 62.25 L 287.759766 52.394531 L 288.09668 48.911133 L 288.430664 83.917969 L 288.767578 50.173828 L 289.101562 60.322266 L 289.435547 48.246094 L 289.772461 60.026367 L 290.106445 53.736328 L 290.443359 49.998047 L 290.777344 60.161133 L 291.111328 51.158203 L 291.448242 59.929688 L 291.782227 59.469727 L 292.119141 64.986328 L 292.453125 26.651367 L 292.787109 47.923828 L 293.458008 46.3125 L 293.791992 49.945312 L 294.128906 49.371094 L 294.462891 32.554688 L 294.799805 35.633789 L 295.133789 51.260742 L 295.467773 49.567383 L 295.804688 49.511719 L 296.138672 58.007812 L 296.475586 43.344727 L 296.80957 42.644531 L 297.143555 61.054688 L 297.480469 36.181641 L 297.814453 61.901367 L 298.151367 31.625977 L 298.485352 66.808594 L 298.819336 45.826172 L 299.15625 33.770508 L 299.490234 33.266602 L 299.827148 38.355469 L 300.161133 49.611328 L 300.495117 44.604492 L 300.832031 56.572266 L 301.166016 43.942383 L 301.50293 37.183594 L 301.836914 33.474609 L 302.170898 35.821289 L 302.507812 49.942383 L 302.841797 37.21875 L 303.175781 37.262695 L 303.512695 30.172852 L 303.84668 44.170898 L 304.183594 34.12207 L 304.517578 34.201172 L 304.851562 44.261719 L 305.188477 34.209961 L 305.522461 45.125977 L 305.859375 37.998047 L 306.193359 16.110352 L 306.527344 47.34668 L 306.864258 34.655273 L 307.198242 39.697266 L 307.535156 26.179688 L 307.869141 39.55957 L 308.203125 34.552734 L 308.540039 22.21582 L 308.874023 25.561523 L 309.210938 48.958008 L 309.544922 50.982422 L 309.878906 26.452148 L 310.21582 43.725586 L 310.886719 28.089844 L 311.220703 25.573242 L 311.554688 38.141602 L 311.891602 44.762695 L 312.225586 32.455078 L 312.55957 34.526367 L 312.896484 39.553711 L 313.230469 62.24707 L 313.567383 30.035156 L 313.901367 37.40625 L 314.235352 40.907227 L 314.572266 39 L 315.243164 51.799805 L 315.577148 48.931641 L 315.911133 42.527344 L 316.248047 53.563477 L 316.582031 52.725586 L 316.918945 42.301758 L 317.25293 38.81543 L 317.586914 28.224609 L 317.923828 50.932617 L 318.257812 24.785156 L 318.594727 55.013672 L 319.262695 25.045898 L 319.599609 49.810547 L 319.933594 35.334961 L 320.270508 30.887695 L 320.604492 60.087891 L 320.938477 34.21875 L 321.275391 58.87207 L 321.609375 41.220703 L 321.943359 38.173828 L 322.280273 51.175781 L 322.614258 54.5625 L 322.951172 47.563477 L 323.285156 45.524414 L 323.619141 55.552734 L 323.956055 43.602539 L 324.290039 38.865234 L 324.626953 49.974609 L 324.960938 34.145508 L 325.294922 57.793945 L 325.631836 47.229492 L 325.96582 43.992188 L 326.302734 53.850586 L 326.636719 41.126953 L 326.970703 44.789062 L 327.307617 22.839844 L 327.641602 47.170898 L 327.978516 36.975586 L 328.3125 44.680664 L 328.646484 40.201172 L 328.983398 20.920898 L 329.317383 48.506836 L 329.651367 42.870117 L 329.988281 28.546875 L 331.327148 46.561523 L 331.664062 35.551758 L 331.998047 40.734375 L 332.334961 24.802734 L 332.668945 47.850586 L 333.00293 54.588867 L 333.339844 38.211914 L 333.673828 51.779297 L 334.010742 51.087891 L 334.344727 55.438477 L 334.678711 40.666992 L 335.015625 43.763672 L 335.349609 40.075195 L 335.686523 59.466797 L 336.020508 42.638672 L 336.354492 73.083984 L 336.691406 44.537109 L 337.025391 44.806641 L 337.362305 56.876953 L 337.696289 49.851562 L 338.030273 29.803711 L 339.035156 60.498047 L 339.37207 26.932617 L 339.706055 24.257812 L 340.042969 57.500977 L 340.376953 71.938477 L 340.710938 51.313477 L 341.047852 66.75 L 341.381836 32.856445 L 341.71875 85.417969 L 342.386719 37.863281 L 343.057617 51.609375 L 343.394531 53.106445 L 343.728516 66.963867 L 344.733398 39.313477 L 345.070312 63.00293 L 345.404297 51.272461 L 345.738281 55.628906 L 346.075195 48.875977 L 346.40918 56.094727 L 346.746094 56.956055 L 347.080078 74.973633 L 347.414062 68.481445 L 347.750977 50.709961 L 348.084961 87.193359 L 348.418945 69.993164 L 348.755859 66.032227 L 349.089844 55.980469 L 349.426758 74.753906 L 349.760742 63.375 L 350.431641 75.178711 L 350.765625 58.207031 L 351.102539 62.501953 L 351.436523 56.425781 L 351.770508 77.81543 L 352.107422 63.249023 L 352.441406 59.132812 L 352.77832 62.885742 L 353.112305 78.606445 L 353.446289 46.661133 L 353.783203 60.052734 L 354.117188 78.304688 L 354.788086 64.582031 L 355.12207 46.450195 L 355.458984 86.501953 L 355.792969 69.84375 L 356.129883 75.65918 L 356.463867 67.306641 L 356.797852 73.016602 L 357.134766 40.025391 L 357.802734 91.189453 L 358.139648 67.851562 L 358.473633 59.504883 L 358.810547 59.208984 L 359.144531 70.977539 L 359.478516 73.236328 L 359.81543 79.180664 L 360.149414 73.810547 L 360.486328 64.901367 L 360.820312 92.220703 L 361.154297 65.478516 L 361.491211 75.615234 L 361.825195 59.90918 L 362.162109 83.885742 L 362.496094 92.478516 L 362.830078 98.050781 L 363.500977 68.578125 L 363.837891 88.051758 L 364.171875 80.545898 L 364.505859 96.087891 L 364.842773 89.668945 L 365.176758 73.274414 L 365.513672 117.960938 L 365.847656 83.554688 L 366.181641 87.240234 L 366.518555 98.581055 L 366.852539 98.897461 L 367.186523 80.598633 L 367.523438 110.871094 L 367.857422 86.90918 L 368.194336 105.503906 L 368.862305 76.945312 L 369.199219 78.908203 L 369.533203 89.994141 L 369.870117 90.480469 L 370.204102 70.813477 L 370.538086 109.277344 L 370.875 91.042969 L 371.208984 103.754883 L 371.545898 99.75293 L 371.879883 100.599609 L 372.213867 108.65625 L 372.550781 102.55957 L 372.884766 88.998047 L 373.22168 108.805664 L 373.889648 93.583008 L 374.226562 108.049805 L 374.560547 92.472656 L 374.897461 127.845703 L 375.231445 111.9375 L 375.56543 110.654297 L 376.236328 93.181641 L 376.570312 116.288086 L 376.907227 92.780273 L 377.241211 96.395508 L 377.578125 89.800781 L 377.912109 115.760742 L 378.246094 105.706055 L 378.583008 109.848633 L 378.916992 94.643555 L 379.253906 95.147461 L 379.587891 110.926758 L 379.921875 115.719727 L 380.258789 103.479492 L 380.592773 117.94043 L 380.929688 117.331055 L 381.263672 106.116211 L 381.597656 107.355469 L 381.93457 110.197266 L 382.268555 126.978516 L 382.605469 112.201172 L 382.939453 108.366211 L 383.273438 99.896484 L 383.610352 114.676758 L 383.944336 112.089844 L 384.615234 103.959961 L 384.949219 110.466797 L 385.286133 101.821289 L 385.620117 125.375977 L 385.954102 109.983398 L 386.291016 111.553711 L 386.625 117.887695 L 386.961914 144.782227 " transform="matrix(1.333333,0,0,1.333333,0,0)"/>
</g>
<path style="fill:none;stroke-width:0.8;stroke-linecap:square;stroke-linejoin:miter;stroke:rgb(0%,0%,0%);stroke-opacity:1;stroke-miterlimit:4;" d="M 52.160156 170.501953 L 52.160156 7.420898 " transform="matrix(1.333333,0,0,1.333333,0,0)"/>
<path style="fill:none;stroke-width:0.8;stroke-linecap:square;stroke-linejoin:miter;stroke:rgb(0%,0%,0%);stroke-opacity:1;stroke-miterlimit:4;" d="M 386.961914 170.501953 L 386.961914 7.420898 " transform="matrix(1.333333,0,0,1.333333,0,0)"/>
<path style="fill:none;stroke-width:0.8;stroke-linecap:square;stroke-linejoin:miter;stroke:rgb(0%,0%,0%);stroke-opacity:1;stroke-miterlimit:4;" d="M 52.160156 170.501953 L 386.961914 170.501953 " transform="matrix(1.333333,0,0,1.333333,0,0)"/>
<path style="fill:none;stroke-width:0.8;stroke-linecap:square;stroke-linejoin:miter;stroke:rgb(0%,0%,0%);stroke-opacity:1;stroke-miterlimit:4;" d="M 52.160156 7.420898 L 386.961914 7.420898 " transform="matrix(1.333333,0,0,1.333333,0,0)"/>
</g>
</svg>
