<?xml version="1.0" encoding="UTF-8"?>
<svg xmlns="http://www.w3.org/2000/svg" xmlns:xlink="http://www.w3.org/1999/xlink" width="335.587504" height="240.875" viewBox="0 0 335.587504 240.875" version="1.1">
<defs>
<clipPath id="clip1">
  <path d="M 111 9.601562 L 113 9.601562 L 113 190.800781 L 111 190.800781 Z M 111 9.601562 "/>
</clipPath>
<clipPath id="clip2">
  <path d="M 179 9.601562 L 182 9.601562 L 182 190.800781 L 179 190.800781 Z M 179 9.601562 "/>
</clipPath>
<clipPath id="clip3">
  <path d="M 248 9.601562 L 250 9.601562 L 250 190.800781 L 248 190.800781 Z M 248 9.601562 "/>
</clipPath>
<clipPath id="clip4">
  <path d="M 316 9.601562 L 317.503906 9.601562 L 317.503906 190.800781 L 316 190.800781 Z M 316 9.601562 "/>
</clipPath>
<clipPath id="clip5">
  <path d="M 57.105469 164 L 317.503906 164 L 317.503906 166 L 57.105469 166 Z M 57.105469 164 "/>
</clipPath>
<clipPath id="clip6">
  <path d="M 57.105469 115 L 317.503906 115 L 317.503906 118 L 57.105469 118 Z M 57.105469 115 "/>
</clipPath>
<clipPath id="clip7">
  <path d="M 57.105469 67 L 317.503906 67 L 317.503906 70 L 57.105469 70 Z M 57.105469 67 "/>
</clipPath>
<clipPath id="clip8">
  <path d="M 57.105469 19 L 317.503906 19 L 317.503906 21 L 57.105469 21 Z M 57.105469 19 "/>
</clipPath>
<clipPath id="clip9">
  <path d="M 57.105469 16 L 317.503906 16 L 317.503906 184 L 57.105469 184 Z M 57.105469 16 "/>
</clipPath>
<clipPath id="clip10">
  <path d="M 57.105469 161 L 317.503906 161 L 317.503906 184 L 57.105469 184 Z M 57.105469 161 "/>
</clipPath>
<filter id="alpha" filterUnits="objectBoundingBox" x="0%" y="0%" width="100%" height="100%">
  <feColorMatrix type="matrix" in="SourceGraphic" values="0 0 0 0 1 0 0 0 0 1 0 0 0 0 1 0 0 0 1 0"/>
</filter>
<mask id="mask0">
  <g filter="url(#alpha)">
<rect x="0" y="0" width="335.587504" height="240.875" style="fill:rgb(0%,0%,0%);fill-opacity:0.8;stroke:none;"/>
  </g>
</mask>
<clipPath id="clip11">
  <rect x="0" y="0" width="336" height="241"/>
</clipPath>
<g id="surface5" clip-path="url(#clip11)">
<path style="fill-rule:nonzero;fill:rgb(100%,100%,100%);fill-opacity:1;stroke-width:1;stroke-linecap:butt;stroke-linejoin:miter;stroke:rgb(80.000001%,80.000001%,80.000001%);stroke-opacity:1;stroke-miterlimit:4;" d="M 146.920898 44.557617 L 231.128906 44.557617 C 232.461914 44.557617 233.126953 43.889648 233.126953 42.556641 L 233.126953 14.200195 C 233.126953 12.867188 232.461914 12.199219 231.128906 12.199219 L 146.920898 12.199219 C 145.587891 12.199219 144.922852 12.867188 144.922852 14.200195 L 144.922852 42.556641 C 144.922852 43.889648 145.587891 44.557617 146.920898 44.557617 Z M 146.920898 44.557617 " transform="matrix(1.333333,0,0,1.333333,0.000000000000028422,0)"/>
</g>
</defs>
<g id="surface1">
<path style=" stroke:none;fill-rule:nonzero;fill:rgb(100%,100%,100%);fill-opacity:1;" d="M 57.105469 190.800781 L 317.503906 190.800781 L 317.503906 9.601562 L 57.105469 9.601562 Z M 57.105469 190.800781 "/>
<g clip-path="url(#clip1)" clip-rule="nonzero">
<path style="fill:none;stroke-width:0.8;stroke-linecap:square;stroke-linejoin:round;stroke:rgb(69.01961%,69.01961%,69.01961%);stroke-opacity:1;stroke-miterlimit:4;" d="M 83.944336 143.100586 L 83.944336 7.201172 " transform="matrix(1.333333,0,0,1.333333,0.000000000000028422,0)"/>
</g>
<path style="fill:none;stroke-width:0.8;stroke-linecap:butt;stroke-linejoin:round;stroke:rgb(0%,0%,0%);stroke-opacity:1;stroke-miterlimit:4;" d="M 0.000419617 0.000579834 L 0.000419617 3.498627 " transform="matrix(1.333333,0,0,1.333333,111.925222,190.800008)"/>
<path style=" stroke:none;fill-rule:nonzero;fill:rgb(0%,0%,0%);fill-opacity:1;" d="M 109.125 200.542969 L 114.285156 200.542969 L 114.285156 201.652344 L 110.328125 201.652344 L 110.328125 204.035156 C 110.519531 203.96875 110.707031 203.917969 110.898438 203.886719 C 111.089844 203.855469 111.28125 203.839844 111.472656 203.839844 C 112.558594 203.839844 113.417969 204.136719 114.050781 204.730469 C 114.683594 205.324219 115.003906 206.128906 115.003906 207.144531 C 115.003906 208.191406 114.675781 209.003906 114.023438 209.585938 C 113.375 210.164062 112.457031 210.453125 111.269531 210.453125 C 110.863281 210.453125 110.445312 210.417969 110.023438 210.351562 C 109.601562 210.28125 109.164062 210.175781 108.710938 210.039062 L 108.710938 208.714844 C 109.101562 208.925781 109.507812 209.085938 109.921875 209.191406 C 110.339844 209.292969 110.78125 209.347656 111.242188 209.347656 C 111.996094 209.347656 112.589844 209.148438 113.027344 208.753906 C 113.464844 208.359375 113.6875 207.824219 113.6875 207.144531 C 113.6875 206.46875 113.464844 205.933594 113.027344 205.539062 C 112.589844 205.144531 111.996094 204.945312 111.242188 204.945312 C 110.894531 204.945312 110.542969 204.984375 110.191406 205.0625 C 109.84375 205.140625 109.488281 205.261719 109.125 205.425781 Z M 109.125 200.542969 "/>
<g clip-path="url(#clip2)" clip-rule="nonzero">
<path style="fill:none;stroke-width:0.8;stroke-linecap:square;stroke-linejoin:round;stroke:rgb(69.01961%,69.01961%,69.01961%);stroke-opacity:1;stroke-miterlimit:4;" d="M 135.339844 143.100586 L 135.339844 7.201172 " transform="matrix(1.333333,0,0,1.333333,0.000000000000028422,0)"/>
</g>
<path style="fill:none;stroke-width:0.8;stroke-linecap:butt;stroke-linejoin:round;stroke:rgb(0%,0%,0%);stroke-opacity:1;stroke-miterlimit:4;" d="M 0.00119019 0.000579834 L 0.00119019 3.498627 " transform="matrix(1.333333,0,0,1.333333,180.451538,190.800008)"/>
<path style=" stroke:none;fill-rule:nonzero;fill:rgb(0%,0%,0%);fill-opacity:1;" d="M 173.621094 209.160156 L 175.769531 209.160156 L 175.769531 201.742188 L 173.433594 202.210938 L 173.433594 201.011719 L 175.757812 200.542969 L 177.074219 200.542969 L 177.074219 209.160156 L 179.21875 209.160156 L 179.21875 210.265625 L 173.621094 210.265625 Z M 173.621094 209.160156 "/>
<path style=" stroke:none;fill-rule:nonzero;fill:rgb(0%,0%,0%);fill-opacity:1;" d="M 184.6875 201.410156 C 184.011719 201.410156 183.503906 201.742188 183.160156 202.410156 C 182.820312 203.074219 182.652344 204.078125 182.652344 205.414062 C 182.652344 206.746094 182.820312 207.746094 183.160156 208.414062 C 183.503906 209.078125 184.011719 209.414062 184.6875 209.414062 C 185.371094 209.414062 185.882812 209.078125 186.222656 208.414062 C 186.5625 207.746094 186.734375 206.746094 186.734375 205.414062 C 186.734375 204.078125 186.5625 203.074219 186.222656 202.410156 C 185.882812 201.742188 185.371094 201.410156 184.6875 201.410156 Z M 184.6875 200.367188 C 185.777344 200.367188 186.613281 200.800781 187.1875 201.664062 C 187.761719 202.523438 188.050781 203.773438 188.050781 205.414062 C 188.050781 207.050781 187.761719 208.300781 187.1875 209.164062 C 186.613281 210.023438 185.777344 210.453125 184.6875 210.453125 C 183.601562 210.453125 182.769531 210.023438 182.191406 209.164062 C 181.617188 208.300781 181.332031 207.050781 181.332031 205.414062 C 181.332031 203.773438 181.617188 202.523438 182.191406 201.664062 C 182.769531 200.800781 183.601562 200.367188 184.6875 200.367188 Z M 184.6875 200.367188 "/>
<g clip-path="url(#clip3)" clip-rule="nonzero">
<path style="fill:none;stroke-width:0.8;stroke-linecap:square;stroke-linejoin:round;stroke:rgb(69.01961%,69.01961%,69.01961%);stroke-opacity:1;stroke-miterlimit:4;" d="M 186.732422 143.100586 L 186.732422 7.201172 " transform="matrix(1.333333,0,0,1.333333,0.000000000000028422,0)"/>
</g>
<path style="fill:none;stroke-width:0.8;stroke-linecap:butt;stroke-linejoin:round;stroke:rgb(0%,0%,0%);stroke-opacity:1;stroke-miterlimit:4;" d="M -0.000961304 0.000579834 L -0.000961304 3.498627 " transform="matrix(1.333333,0,0,1.333333,248.977844,190.800008)"/>
<path style=" stroke:none;fill-rule:nonzero;fill:rgb(0%,0%,0%);fill-opacity:1;" d="M 242.148438 209.160156 L 244.296875 209.160156 L 244.296875 201.742188 L 241.960938 202.210938 L 241.960938 201.011719 L 244.285156 200.542969 L 245.597656 200.542969 L 245.597656 209.160156 L 247.746094 209.160156 L 247.746094 210.265625 L 242.148438 210.265625 Z M 242.148438 209.160156 "/>
<path style=" stroke:none;fill-rule:nonzero;fill:rgb(0%,0%,0%);fill-opacity:1;" d="M 250.417969 200.542969 L 255.578125 200.542969 L 255.578125 201.652344 L 251.621094 201.652344 L 251.621094 204.035156 C 251.8125 203.96875 252 203.917969 252.191406 203.886719 C 252.382812 203.855469 252.574219 203.839844 252.765625 203.839844 C 253.851562 203.839844 254.710938 204.136719 255.34375 204.730469 C 255.980469 205.324219 256.296875 206.128906 256.296875 207.144531 C 256.296875 208.191406 255.96875 209.003906 255.320312 209.585938 C 254.667969 210.164062 253.75 210.453125 252.566406 210.453125 C 252.15625 210.453125 251.742188 210.417969 251.316406 210.351562 C 250.894531 210.28125 250.457031 210.175781 250.007812 210.039062 L 250.007812 208.714844 C 250.398438 208.925781 250.800781 209.085938 251.21875 209.191406 C 251.632812 209.292969 252.074219 209.347656 252.539062 209.347656 C 253.289062 209.347656 253.882812 209.148438 254.320312 208.753906 C 254.761719 208.359375 254.980469 207.824219 254.980469 207.144531 C 254.980469 206.46875 254.761719 205.933594 254.320312 205.539062 C 253.882812 205.144531 253.289062 204.945312 252.539062 204.945312 C 252.1875 204.945312 251.835938 204.984375 251.484375 205.0625 C 251.136719 205.140625 250.78125 205.261719 250.417969 205.425781 Z M 250.417969 200.542969 "/>
<g clip-path="url(#clip4)" clip-rule="nonzero">
<path style="fill:none;stroke-width:0.8;stroke-linecap:square;stroke-linejoin:round;stroke:rgb(69.01961%,69.01961%,69.01961%);stroke-opacity:1;stroke-miterlimit:4;" d="M 238.12793 143.100586 L 238.12793 7.201172 " transform="matrix(1.333333,0,0,1.333333,0.000000000000028422,0)"/>
</g>
<path style="fill:none;stroke-width:0.8;stroke-linecap:butt;stroke-linejoin:round;stroke:rgb(0%,0%,0%);stroke-opacity:1;stroke-miterlimit:4;" d="M -0.000198364 0.000579834 L -0.000198364 3.498627 " transform="matrix(1.333333,0,0,1.333333,317.504171,190.800008)"/>
<path style=" stroke:none;fill-rule:nonzero;fill:rgb(0%,0%,0%);fill-opacity:1;" d="M 311.578125 209.160156 L 316.167969 209.160156 L 316.167969 210.265625 L 309.996094 210.265625 L 309.996094 209.160156 C 310.496094 208.640625 311.175781 207.949219 312.039062 207.078125 C 312.898438 206.207031 313.441406 205.648438 313.664062 205.394531 C 314.082031 204.921875 314.378906 204.523438 314.542969 204.195312 C 314.710938 203.867188 314.796875 203.542969 314.796875 203.226562 C 314.796875 202.710938 314.613281 202.289062 314.253906 201.964844 C 313.890625 201.636719 313.417969 201.476562 312.835938 201.476562 C 312.421875 201.476562 311.988281 201.546875 311.527344 201.691406 C 311.070312 201.832031 310.582031 202.050781 310.0625 202.339844 L 310.0625 201.011719 C 310.589844 200.800781 311.085938 200.640625 311.546875 200.53125 C 312.007812 200.421875 312.429688 200.367188 312.808594 200.367188 C 313.816406 200.367188 314.621094 200.621094 315.21875 201.125 C 315.816406 201.628906 316.117188 202.300781 316.117188 203.140625 C 316.117188 203.542969 316.042969 203.921875 315.890625 204.277344 C 315.742188 204.636719 315.472656 205.058594 315.074219 205.542969 C 314.964844 205.671875 314.621094 206.035156 314.039062 206.636719 C 313.460938 207.238281 312.640625 208.078125 311.578125 209.160156 Z M 311.578125 209.160156 "/>
<path style=" stroke:none;fill-rule:nonzero;fill:rgb(0%,0%,0%);fill-opacity:1;" d="M 321.742188 201.410156 C 321.066406 201.410156 320.554688 201.742188 320.214844 202.410156 C 319.875 203.074219 319.703125 204.078125 319.703125 205.414062 C 319.703125 206.746094 319.875 207.746094 320.214844 208.414062 C 320.554688 209.078125 321.066406 209.414062 321.742188 209.414062 C 322.421875 209.414062 322.933594 209.078125 323.273438 208.414062 C 323.617188 207.746094 323.789062 206.746094 323.789062 205.414062 C 323.789062 204.078125 323.617188 203.074219 323.273438 202.410156 C 322.933594 201.742188 322.421875 201.410156 321.742188 201.410156 Z M 321.742188 200.367188 C 322.832031 200.367188 323.664062 200.800781 324.238281 201.664062 C 324.8125 202.523438 325.101562 203.773438 325.101562 205.414062 C 325.101562 207.050781 324.8125 208.300781 324.238281 209.164062 C 323.664062 210.023438 322.832031 210.453125 321.742188 210.453125 C 320.652344 210.453125 319.820312 210.023438 319.246094 209.164062 C 318.671875 208.300781 318.382812 207.050781 318.382812 205.414062 C 318.382812 203.773438 318.671875 202.523438 319.246094 201.664062 C 319.820312 200.800781 320.652344 200.367188 321.742188 200.367188 Z M 321.742188 200.367188 "/>
<path style=" stroke:none;fill-rule:nonzero;fill:rgb(0%,0%,0%);fill-opacity:1;" d="M 174.492188 224.554688 L 174.492188 225.140625 L 168.984375 225.140625 C 169.039062 225.964844 169.285156 226.59375 169.730469 227.027344 C 170.175781 227.460938 170.796875 227.675781 171.589844 227.675781 C 172.050781 227.675781 172.496094 227.617188 172.925781 227.507812 C 173.359375 227.394531 173.789062 227.222656 174.214844 226.996094 L 174.214844 228.132812 C 173.785156 228.3125 173.34375 228.453125 172.890625 228.546875 C 172.441406 228.644531 171.984375 228.691406 171.519531 228.691406 C 170.355469 228.691406 169.433594 228.351562 168.753906 227.675781 C 168.074219 227 167.734375 226.082031 167.734375 224.925781 C 167.734375 223.734375 168.058594 222.789062 168.703125 222.085938 C 169.347656 221.386719 170.214844 221.035156 171.308594 221.035156 C 172.289062 221.035156 173.066406 221.351562 173.636719 221.984375 C 174.207031 222.613281 174.492188 223.472656 174.492188 224.554688 Z M 173.296875 224.203125 C 173.289062 223.550781 173.105469 223.027344 172.746094 222.636719 C 172.386719 222.246094 171.914062 222.050781 171.324219 222.050781 C 170.65625 222.050781 170.121094 222.238281 169.71875 222.617188 C 169.316406 222.996094 169.085938 223.527344 169.023438 224.210938 Z M 173.296875 224.203125 "/>
<path style=" stroke:none;fill-rule:nonzero;fill:rgb(0%,0%,0%);fill-opacity:1;" d="M 177.617188 227.410156 L 177.617188 231.273438 L 176.414062 231.273438 L 176.414062 221.210938 L 177.617188 221.210938 L 177.617188 222.316406 C 177.871094 221.882812 178.1875 221.5625 178.570312 221.351562 C 178.957031 221.140625 179.414062 221.035156 179.949219 221.035156 C 180.835938 221.035156 181.554688 221.386719 182.105469 222.089844 C 182.660156 222.792969 182.9375 223.714844 182.9375 224.863281 C 182.9375 226.007812 182.660156 226.933594 182.105469 227.636719 C 181.554688 228.339844 180.835938 228.691406 179.949219 228.691406 C 179.414062 228.691406 178.957031 228.585938 178.570312 228.375 C 178.1875 228.164062 177.871094 227.839844 177.617188 227.410156 Z M 181.695312 224.863281 C 181.695312 223.980469 181.511719 223.289062 181.152344 222.789062 C 180.789062 222.289062 180.289062 222.039062 179.65625 222.039062 C 179.023438 222.039062 178.523438 222.289062 178.160156 222.789062 C 177.800781 223.289062 177.617188 223.980469 177.617188 224.863281 C 177.617188 225.742188 177.800781 226.433594 178.160156 226.933594 C 178.523438 227.4375 179.023438 227.6875 179.65625 227.6875 C 180.289062 227.6875 180.789062 227.4375 181.152344 226.933594 C 181.511719 226.433594 181.695312 225.742188 181.695312 224.863281 Z M 181.695312 224.863281 "/>
<path style=" stroke:none;fill-rule:nonzero;fill:rgb(0%,0%,0%);fill-opacity:1;" d="M 187.746094 222.050781 C 187.105469 222.050781 186.597656 222.300781 186.226562 222.800781 C 185.851562 223.304688 185.664062 223.992188 185.664062 224.863281 C 185.664062 225.734375 185.851562 226.421875 186.222656 226.921875 C 186.59375 227.425781 187.101562 227.675781 187.746094 227.675781 C 188.386719 227.675781 188.890625 227.421875 189.265625 226.921875 C 189.636719 226.417969 189.824219 225.730469 189.824219 224.863281 C 189.824219 224 189.636719 223.3125 189.265625 222.808594 C 188.890625 222.304688 188.386719 222.050781 187.746094 222.050781 Z M 187.746094 221.035156 C 188.789062 221.035156 189.609375 221.375 190.203125 222.050781 C 190.796875 222.726562 191.097656 223.664062 191.097656 224.863281 C 191.097656 226.054688 190.796875 226.992188 190.203125 227.671875 C 189.609375 228.351562 188.789062 228.691406 187.746094 228.691406 C 186.703125 228.691406 185.882812 228.351562 185.289062 227.671875 C 184.699219 226.992188 184.402344 226.054688 184.402344 224.863281 C 184.402344 223.664062 184.699219 222.726562 185.289062 222.050781 C 185.882812 221.375 186.703125 221.035156 187.746094 221.035156 Z M 187.746094 221.035156 "/>
<path style=" stroke:none;fill-rule:nonzero;fill:rgb(0%,0%,0%);fill-opacity:1;" d="M 198.328125 221.488281 L 198.328125 222.609375 C 197.988281 222.421875 197.648438 222.28125 197.308594 222.191406 C 196.96875 222.097656 196.625 222.050781 196.277344 222.050781 C 195.5 222.050781 194.894531 222.296875 194.464844 222.789062 C 194.035156 223.28125 193.820312 223.972656 193.820312 224.863281 C 193.820312 225.753906 194.035156 226.445312 194.464844 226.9375 C 194.894531 227.429688 195.5 227.675781 196.277344 227.675781 C 196.625 227.675781 196.96875 227.628906 197.308594 227.535156 C 197.648438 227.441406 197.988281 227.300781 198.328125 227.113281 L 198.328125 228.222656 C 197.992188 228.378906 197.648438 228.496094 197.289062 228.574219 C 196.933594 228.652344 196.550781 228.691406 196.148438 228.691406 C 195.046875 228.691406 194.175781 228.347656 193.527344 227.65625 C 192.882812 226.964844 192.558594 226.035156 192.558594 224.863281 C 192.558594 223.671875 192.886719 222.738281 193.539062 222.058594 C 194.191406 221.375 195.089844 221.035156 196.226562 221.035156 C 196.59375 221.035156 196.953125 221.074219 197.304688 221.148438 C 197.65625 221.226562 197.996094 221.339844 198.328125 221.488281 Z M 198.328125 221.488281 "/>
<path style=" stroke:none;fill-rule:nonzero;fill:rgb(0%,0%,0%);fill-opacity:1;" d="M 206.472656 224.101562 L 206.472656 228.503906 L 205.277344 228.503906 L 205.277344 224.140625 C 205.277344 223.449219 205.140625 222.933594 204.871094 222.589844 C 204.601562 222.25 204.199219 222.078125 203.660156 222.078125 C 203.015625 222.078125 202.503906 222.285156 202.128906 222.695312 C 201.757812 223.105469 201.570312 223.667969 201.570312 224.382812 L 201.570312 228.503906 L 200.367188 228.503906 L 200.367188 218.371094 L 201.570312 218.371094 L 201.570312 222.34375 C 201.855469 221.90625 202.195312 221.578125 202.582031 221.359375 C 202.972656 221.144531 203.417969 221.035156 203.929688 221.035156 C 204.765625 221.035156 205.398438 221.292969 205.828125 221.8125 C 206.257812 222.332031 206.472656 223.09375 206.472656 224.101562 Z M 206.472656 224.101562 "/>
<g clip-path="url(#clip5)" clip-rule="nonzero">
<path style="fill:none;stroke-width:0.8;stroke-linecap:square;stroke-linejoin:round;stroke:rgb(69.01961%,69.01961%,69.01961%);stroke-opacity:1;stroke-miterlimit:4;" d="M 42.829102 123.594727 L 238.12793 123.594727 " transform="matrix(1.333333,0,0,1.333333,0.000000000000028422,0)"/>
</g>
<path style="fill:none;stroke-width:0.8;stroke-linecap:butt;stroke-linejoin:round;stroke:rgb(0%,0%,0%);stroke-opacity:1;stroke-miterlimit:4;" d="M 0.000976562 -0.00145721 L -3.5 -0.00145721 " transform="matrix(1.333333,0,0,1.333333,57.104167,164.794912)"/>
<path style=" stroke:none;fill-rule:nonzero;fill:rgb(0%,0%,0%);fill-opacity:1;" d="M 13.835938 161.007812 C 13.160156 161.007812 12.652344 161.339844 12.308594 162.007812 C 11.96875 162.671875 11.800781 163.671875 11.800781 165.011719 C 11.800781 166.34375 11.96875 167.339844 12.308594 168.007812 C 12.652344 168.675781 13.160156 169.007812 13.835938 169.007812 C 14.519531 169.007812 15.03125 168.675781 15.371094 168.007812 C 15.710938 167.339844 15.882812 166.34375 15.882812 165.011719 C 15.882812 163.671875 15.710938 162.671875 15.371094 162.007812 C 15.03125 161.339844 14.519531 161.007812 13.835938 161.007812 Z M 13.835938 159.964844 C 14.929688 159.964844 15.761719 160.394531 16.335938 161.257812 C 16.910156 162.121094 17.199219 163.371094 17.199219 165.011719 C 17.199219 166.648438 16.910156 167.894531 16.335938 168.757812 C 15.761719 169.621094 14.929688 170.050781 13.835938 170.050781 C 12.75 170.050781 11.917969 169.621094 11.339844 168.757812 C 10.765625 167.894531 10.480469 166.648438 10.480469 165.011719 C 10.480469 163.371094 10.765625 162.121094 11.339844 161.257812 C 11.917969 160.394531 12.75 159.964844 13.835938 159.964844 Z M 13.835938 159.964844 "/>
<path style=" stroke:none;fill-rule:nonzero;fill:rgb(0%,0%,0%);fill-opacity:1;" d="M 19.507812 168.207031 L 20.882812 168.207031 L 20.882812 169.859375 L 19.507812 169.859375 Z M 19.507812 168.207031 "/>
<path style=" stroke:none;fill-rule:nonzero;fill:rgb(0%,0%,0%);fill-opacity:1;" d="M 26.558594 161.007812 C 25.882812 161.007812 25.375 161.339844 25.03125 162.007812 C 24.691406 162.671875 24.519531 163.671875 24.519531 165.011719 C 24.519531 166.34375 24.691406 167.339844 25.03125 168.007812 C 25.375 168.675781 25.882812 169.007812 26.558594 169.007812 C 27.242188 169.007812 27.75 168.675781 28.09375 168.007812 C 28.433594 167.339844 28.605469 166.34375 28.605469 165.011719 C 28.605469 163.671875 28.433594 162.671875 28.09375 162.007812 C 27.75 161.339844 27.242188 161.007812 26.558594 161.007812 Z M 26.558594 159.964844 C 27.648438 159.964844 28.480469 160.394531 29.058594 161.257812 C 29.632812 162.121094 29.917969 163.371094 29.917969 165.011719 C 29.917969 166.648438 29.632812 167.894531 29.058594 168.757812 C 28.480469 169.621094 27.648438 170.050781 26.558594 170.050781 C 25.46875 170.050781 24.636719 169.621094 24.0625 168.757812 C 23.488281 167.894531 23.199219 166.648438 23.199219 165.011719 C 23.199219 163.371094 23.488281 162.121094 24.0625 161.257812 C 24.636719 160.394531 25.46875 159.964844 26.558594 159.964844 Z M 26.558594 159.964844 "/>
<path style=" stroke:none;fill-rule:nonzero;fill:rgb(0%,0%,0%);fill-opacity:1;" d="M 35.042969 161.007812 C 34.367188 161.007812 33.855469 161.339844 33.515625 162.007812 C 33.175781 162.671875 33.003906 163.671875 33.003906 165.011719 C 33.003906 166.34375 33.175781 167.339844 33.515625 168.007812 C 33.855469 168.675781 34.367188 169.007812 35.042969 169.007812 C 35.722656 169.007812 36.234375 168.675781 36.574219 168.007812 C 36.917969 167.339844 37.085938 166.34375 37.085938 165.011719 C 37.085938 163.671875 36.917969 162.671875 36.574219 162.007812 C 36.234375 161.339844 35.722656 161.007812 35.042969 161.007812 Z M 35.042969 159.964844 C 36.132812 159.964844 36.964844 160.394531 37.539062 161.257812 C 38.113281 162.121094 38.402344 163.371094 38.402344 165.011719 C 38.402344 166.648438 38.113281 167.894531 37.539062 168.757812 C 36.964844 169.621094 36.132812 170.050781 35.042969 170.050781 C 33.953125 170.050781 33.121094 169.621094 32.546875 168.757812 C 31.972656 167.894531 31.683594 166.648438 31.683594 165.011719 C 31.683594 163.371094 31.972656 162.121094 32.546875 161.257812 C 33.121094 160.394531 33.953125 159.964844 35.042969 159.964844 Z M 35.042969 159.964844 "/>
<path style=" stroke:none;fill-rule:nonzero;fill:rgb(0%,0%,0%);fill-opacity:1;" d="M 40.726562 160.140625 L 45.890625 160.140625 L 45.890625 161.246094 L 41.929688 161.246094 L 41.929688 163.628906 C 42.121094 163.5625 42.3125 163.515625 42.503906 163.484375 C 42.695312 163.453125 42.886719 163.433594 43.078125 163.433594 C 44.160156 163.433594 45.019531 163.734375 45.652344 164.328125 C 46.289062 164.921875 46.605469 165.726562 46.605469 166.742188 C 46.605469 167.789062 46.28125 168.601562 45.628906 169.179688 C 44.976562 169.761719 44.058594 170.050781 42.875 170.050781 C 42.464844 170.050781 42.050781 170.015625 41.628906 169.945312 C 41.203125 169.875 40.769531 169.773438 40.316406 169.632812 L 40.316406 168.308594 C 40.707031 168.523438 41.109375 168.679688 41.527344 168.785156 C 41.945312 168.890625 42.382812 168.941406 42.847656 168.941406 C 43.597656 168.941406 44.195312 168.746094 44.632812 168.351562 C 45.070312 167.957031 45.289062 167.417969 45.289062 166.742188 C 45.289062 166.066406 45.070312 165.53125 44.632812 165.136719 C 44.195312 164.738281 43.597656 164.542969 42.847656 164.542969 C 42.496094 164.542969 42.144531 164.582031 41.796875 164.660156 C 41.445312 164.734375 41.089844 164.859375 40.726562 165.023438 Z M 40.726562 160.140625 "/>
<g clip-path="url(#clip6)" clip-rule="nonzero">
<path style="fill:none;stroke-width:0.8;stroke-linecap:square;stroke-linejoin:round;stroke:rgb(69.01961%,69.01961%,69.01961%);stroke-opacity:1;stroke-miterlimit:4;" d="M 42.829102 87.410156 L 238.12793 87.410156 " transform="matrix(1.333333,0,0,1.333333,0.000000000000028422,0)"/>
</g>
<path style="fill:none;stroke-width:0.8;stroke-linecap:butt;stroke-linejoin:round;stroke:rgb(0%,0%,0%);stroke-opacity:1;stroke-miterlimit:4;" d="M 0.000976562 0.00144196 L -3.5 0.00144196 " transform="matrix(1.333333,0,0,1.333333,57.104167,116.544952)"/>
<path style=" stroke:none;fill-rule:nonzero;fill:rgb(0%,0%,0%);fill-opacity:1;" d="M 13.835938 112.757812 C 13.160156 112.757812 12.652344 113.089844 12.308594 113.757812 C 11.96875 114.421875 11.800781 115.421875 11.800781 116.761719 C 11.800781 118.09375 11.96875 119.09375 12.308594 119.757812 C 12.652344 120.425781 13.160156 120.757812 13.835938 120.757812 C 14.519531 120.757812 15.03125 120.425781 15.371094 119.757812 C 15.710938 119.09375 15.882812 118.09375 15.882812 116.761719 C 15.882812 115.421875 15.710938 114.421875 15.371094 113.757812 C 15.03125 113.089844 14.519531 112.757812 13.835938 112.757812 Z M 13.835938 111.714844 C 14.929688 111.714844 15.761719 112.144531 16.335938 113.007812 C 16.910156 113.871094 17.199219 115.121094 17.199219 116.761719 C 17.199219 118.398438 16.910156 119.644531 16.335938 120.507812 C 15.761719 121.371094 14.929688 121.800781 13.835938 121.800781 C 12.75 121.800781 11.917969 121.371094 11.339844 120.507812 C 10.765625 119.644531 10.480469 118.398438 10.480469 116.761719 C 10.480469 115.121094 10.765625 113.871094 11.339844 113.007812 C 11.917969 112.144531 12.75 111.714844 13.835938 111.714844 Z M 13.835938 111.714844 "/>
<path style=" stroke:none;fill-rule:nonzero;fill:rgb(0%,0%,0%);fill-opacity:1;" d="M 19.507812 119.957031 L 20.882812 119.957031 L 20.882812 121.609375 L 19.507812 121.609375 Z M 19.507812 119.957031 "/>
<path style=" stroke:none;fill-rule:nonzero;fill:rgb(0%,0%,0%);fill-opacity:1;" d="M 26.558594 112.757812 C 25.882812 112.757812 25.375 113.089844 25.03125 113.757812 C 24.691406 114.421875 24.519531 115.421875 24.519531 116.761719 C 24.519531 118.09375 24.691406 119.09375 25.03125 119.757812 C 25.375 120.425781 25.882812 120.757812 26.558594 120.757812 C 27.242188 120.757812 27.75 120.425781 28.09375 119.757812 C 28.433594 119.09375 28.605469 118.09375 28.605469 116.761719 C 28.605469 115.421875 28.433594 114.421875 28.09375 113.757812 C 27.75 113.089844 27.242188 112.757812 26.558594 112.757812 Z M 26.558594 111.714844 C 27.648438 111.714844 28.480469 112.144531 29.058594 113.007812 C 29.632812 113.871094 29.917969 115.121094 29.917969 116.761719 C 29.917969 118.398438 29.632812 119.644531 29.058594 120.507812 C 28.480469 121.371094 27.648438 121.800781 26.558594 121.800781 C 25.46875 121.800781 24.636719 121.371094 24.0625 120.507812 C 23.488281 119.644531 23.199219 118.398438 23.199219 116.761719 C 23.199219 115.121094 23.488281 113.871094 24.0625 113.007812 C 24.636719 112.144531 25.46875 111.714844 26.558594 111.714844 Z M 26.558594 111.714844 "/>
<path style=" stroke:none;fill-rule:nonzero;fill:rgb(0%,0%,0%);fill-opacity:1;" d="M 32.457031 120.503906 L 34.605469 120.503906 L 34.605469 113.085938 L 32.269531 113.554688 L 32.269531 112.359375 L 34.59375 111.890625 L 35.910156 111.890625 L 35.910156 120.503906 L 38.054688 120.503906 L 38.054688 121.609375 L 32.457031 121.609375 Z M 32.457031 120.503906 "/>
<path style=" stroke:none;fill-rule:nonzero;fill:rgb(0%,0%,0%);fill-opacity:1;" d="M 43.523438 112.757812 C 42.847656 112.757812 42.339844 113.089844 41.996094 113.757812 C 41.65625 114.421875 41.488281 115.421875 41.488281 116.761719 C 41.488281 118.09375 41.65625 119.09375 41.996094 119.757812 C 42.339844 120.425781 42.847656 120.757812 43.523438 120.757812 C 44.207031 120.757812 44.71875 120.425781 45.058594 119.757812 C 45.398438 119.09375 45.570312 118.09375 45.570312 116.761719 C 45.570312 115.421875 45.398438 114.421875 45.058594 113.757812 C 44.71875 113.089844 44.207031 112.757812 43.523438 112.757812 Z M 43.523438 111.714844 C 44.617188 111.714844 45.449219 112.144531 46.023438 113.007812 C 46.597656 113.871094 46.886719 115.121094 46.886719 116.761719 C 46.886719 118.398438 46.597656 119.644531 46.023438 120.507812 C 45.449219 121.371094 44.617188 121.800781 43.523438 121.800781 C 42.4375 121.800781 41.605469 121.371094 41.027344 120.507812 C 40.453125 119.644531 40.167969 118.398438 40.167969 116.761719 C 40.167969 115.121094 40.453125 113.871094 41.027344 113.007812 C 41.605469 112.144531 42.4375 111.714844 43.523438 111.714844 Z M 43.523438 111.714844 "/>
<g clip-path="url(#clip7)" clip-rule="nonzero">
<path style="fill:none;stroke-width:0.8;stroke-linecap:square;stroke-linejoin:round;stroke:rgb(69.01961%,69.01961%,69.01961%);stroke-opacity:1;stroke-miterlimit:4;" d="M 42.829102 51.222656 L 238.12793 51.222656 " transform="matrix(1.333333,0,0,1.333333,0.000000000000028422,0)"/>
</g>
<path style="fill:none;stroke-width:0.8;stroke-linecap:butt;stroke-linejoin:round;stroke:rgb(0%,0%,0%);stroke-opacity:1;stroke-miterlimit:4;" d="M 0.000976562 0.00141907 L -3.5 0.00141907 " transform="matrix(1.333333,0,0,1.333333,57.104167,68.294983)"/>
<path style=" stroke:none;fill-rule:nonzero;fill:rgb(0%,0%,0%);fill-opacity:1;" d="M 13.835938 64.507812 C 13.160156 64.507812 12.652344 64.839844 12.308594 65.507812 C 11.96875 66.171875 11.800781 67.171875 11.800781 68.511719 C 11.800781 69.84375 11.96875 70.84375 12.308594 71.507812 C 12.652344 72.175781 13.160156 72.507812 13.835938 72.507812 C 14.519531 72.507812 15.03125 72.175781 15.371094 71.507812 C 15.710938 70.84375 15.882812 69.84375 15.882812 68.511719 C 15.882812 67.171875 15.710938 66.171875 15.371094 65.507812 C 15.03125 64.839844 14.519531 64.507812 13.835938 64.507812 Z M 13.835938 63.464844 C 14.929688 63.464844 15.761719 63.894531 16.335938 64.757812 C 16.910156 65.621094 17.199219 66.871094 17.199219 68.511719 C 17.199219 70.148438 16.910156 71.394531 16.335938 72.257812 C 15.761719 73.121094 14.929688 73.550781 13.835938 73.550781 C 12.75 73.550781 11.917969 73.121094 11.339844 72.257812 C 10.765625 71.394531 10.480469 70.148438 10.480469 68.511719 C 10.480469 66.871094 10.765625 65.621094 11.339844 64.757812 C 11.917969 63.894531 12.75 63.464844 13.835938 63.464844 Z M 13.835938 63.464844 "/>
<path style=" stroke:none;fill-rule:nonzero;fill:rgb(0%,0%,0%);fill-opacity:1;" d="M 19.507812 71.707031 L 20.882812 71.707031 L 20.882812 73.359375 L 19.507812 73.359375 Z M 19.507812 71.707031 "/>
<path style=" stroke:none;fill-rule:nonzero;fill:rgb(0%,0%,0%);fill-opacity:1;" d="M 26.558594 64.507812 C 25.882812 64.507812 25.375 64.839844 25.03125 65.507812 C 24.691406 66.171875 24.519531 67.171875 24.519531 68.511719 C 24.519531 69.84375 24.691406 70.84375 25.03125 71.507812 C 25.375 72.175781 25.882812 72.507812 26.558594 72.507812 C 27.242188 72.507812 27.75 72.175781 28.09375 71.507812 C 28.433594 70.84375 28.605469 69.84375 28.605469 68.511719 C 28.605469 67.171875 28.433594 66.171875 28.09375 65.507812 C 27.75 64.839844 27.242188 64.507812 26.558594 64.507812 Z M 26.558594 63.464844 C 27.648438 63.464844 28.480469 63.894531 29.058594 64.757812 C 29.632812 65.621094 29.917969 66.871094 29.917969 68.511719 C 29.917969 70.148438 29.632812 71.394531 29.058594 72.257812 C 28.480469 73.121094 27.648438 73.550781 26.558594 73.550781 C 25.46875 73.550781 24.636719 73.121094 24.0625 72.257812 C 23.488281 71.394531 23.199219 70.148438 23.199219 68.511719 C 23.199219 66.871094 23.488281 65.621094 24.0625 64.757812 C 24.636719 63.894531 25.46875 63.464844 26.558594 63.464844 Z M 26.558594 63.464844 "/>
<path style=" stroke:none;fill-rule:nonzero;fill:rgb(0%,0%,0%);fill-opacity:1;" d="M 32.457031 72.253906 L 34.605469 72.253906 L 34.605469 64.835938 L 32.269531 65.304688 L 32.269531 64.109375 L 34.59375 63.640625 L 35.910156 63.640625 L 35.910156 72.253906 L 38.054688 72.253906 L 38.054688 73.359375 L 32.457031 73.359375 Z M 32.457031 72.253906 "/>
<path style=" stroke:none;fill-rule:nonzero;fill:rgb(0%,0%,0%);fill-opacity:1;" d="M 40.726562 63.640625 L 45.890625 63.640625 L 45.890625 64.75 L 41.929688 64.75 L 41.929688 67.128906 C 42.121094 67.0625 42.3125 67.015625 42.503906 66.984375 C 42.695312 66.953125 42.886719 66.9375 43.078125 66.9375 C 44.160156 66.9375 45.019531 67.234375 45.652344 67.828125 C 46.289062 68.421875 46.605469 69.226562 46.605469 70.242188 C 46.605469 71.289062 46.28125 72.101562 45.628906 72.679688 C 44.976562 73.261719 44.058594 73.550781 42.875 73.550781 C 42.464844 73.550781 42.050781 73.515625 41.628906 73.445312 C 41.203125 73.375 40.769531 73.273438 40.316406 73.132812 L 40.316406 71.8125 C 40.707031 72.023438 41.109375 72.179688 41.527344 72.285156 C 41.945312 72.390625 42.382812 72.441406 42.847656 72.441406 C 43.597656 72.441406 44.195312 72.246094 44.632812 71.851562 C 45.070312 71.457031 45.289062 70.917969 45.289062 70.242188 C 45.289062 69.566406 45.070312 69.03125 44.632812 68.636719 C 44.195312 68.238281 43.597656 68.042969 42.847656 68.042969 C 42.496094 68.042969 42.144531 68.082031 41.796875 68.160156 C 41.445312 68.234375 41.089844 68.359375 40.726562 68.523438 Z M 40.726562 63.640625 "/>
<g clip-path="url(#clip8)" clip-rule="nonzero">
<path style="fill:none;stroke-width:0.8;stroke-linecap:square;stroke-linejoin:round;stroke:rgb(69.01961%,69.01961%,69.01961%);stroke-opacity:1;stroke-miterlimit:4;" d="M 42.829102 15.035156 L 238.12793 15.035156 " transform="matrix(1.333333,0,0,1.333333,0.000000000000028422,0)"/>
</g>
<path style="fill:none;stroke-width:0.8;stroke-linecap:butt;stroke-linejoin:round;stroke:rgb(0%,0%,0%);stroke-opacity:1;stroke-miterlimit:4;" d="M 0.000976562 0.00139618 L -3.5 0.00139618 " transform="matrix(1.333333,0,0,1.333333,57.104167,20.045013)"/>
<path style=" stroke:none;fill-rule:nonzero;fill:rgb(0%,0%,0%);fill-opacity:1;" d="M 13.835938 16.257812 C 13.160156 16.257812 12.652344 16.589844 12.308594 17.257812 C 11.96875 17.921875 11.800781 18.921875 11.800781 20.261719 C 11.800781 21.59375 11.96875 22.59375 12.308594 23.257812 C 12.652344 23.925781 13.160156 24.257812 13.835938 24.257812 C 14.519531 24.257812 15.03125 23.925781 15.371094 23.257812 C 15.710938 22.59375 15.882812 21.59375 15.882812 20.261719 C 15.882812 18.921875 15.710938 17.921875 15.371094 17.257812 C 15.03125 16.589844 14.519531 16.257812 13.835938 16.257812 Z M 13.835938 15.214844 C 14.929688 15.214844 15.761719 15.644531 16.335938 16.507812 C 16.910156 17.371094 17.199219 18.621094 17.199219 20.261719 C 17.199219 21.898438 16.910156 23.144531 16.335938 24.007812 C 15.761719 24.871094 14.929688 25.300781 13.835938 25.300781 C 12.75 25.300781 11.917969 24.871094 11.339844 24.007812 C 10.765625 23.144531 10.480469 21.898438 10.480469 20.261719 C 10.480469 18.621094 10.765625 17.371094 11.339844 16.507812 C 11.917969 15.644531 12.75 15.214844 13.835938 15.214844 Z M 13.835938 15.214844 "/>
<path style=" stroke:none;fill-rule:nonzero;fill:rgb(0%,0%,0%);fill-opacity:1;" d="M 19.507812 23.457031 L 20.882812 23.457031 L 20.882812 25.109375 L 19.507812 25.109375 Z M 19.507812 23.457031 "/>
<path style=" stroke:none;fill-rule:nonzero;fill:rgb(0%,0%,0%);fill-opacity:1;" d="M 26.558594 16.257812 C 25.882812 16.257812 25.375 16.589844 25.03125 17.257812 C 24.691406 17.921875 24.519531 18.921875 24.519531 20.261719 C 24.519531 21.59375 24.691406 22.59375 25.03125 23.257812 C 25.375 23.925781 25.882812 24.257812 26.558594 24.257812 C 27.242188 24.257812 27.75 23.925781 28.09375 23.257812 C 28.433594 22.59375 28.605469 21.59375 28.605469 20.261719 C 28.605469 18.921875 28.433594 17.921875 28.09375 17.257812 C 27.75 16.589844 27.242188 16.257812 26.558594 16.257812 Z M 26.558594 15.214844 C 27.648438 15.214844 28.480469 15.644531 29.058594 16.507812 C 29.632812 17.371094 29.917969 18.621094 29.917969 20.261719 C 29.917969 21.898438 29.632812 23.144531 29.058594 24.007812 C 28.480469 24.871094 27.648438 25.300781 26.558594 25.300781 C 25.46875 25.300781 24.636719 24.871094 24.0625 24.007812 C 23.488281 23.144531 23.199219 21.898438 23.199219 20.261719 C 23.199219 18.621094 23.488281 17.371094 24.0625 16.507812 C 24.636719 15.644531 25.46875 15.214844 26.558594 15.214844 Z M 26.558594 15.214844 "/>
<path style=" stroke:none;fill-rule:nonzero;fill:rgb(0%,0%,0%);fill-opacity:1;" d="M 33.363281 24.003906 L 37.953125 24.003906 L 37.953125 25.109375 L 31.78125 25.109375 L 31.78125 24.003906 C 32.28125 23.488281 32.960938 22.792969 33.820312 21.925781 C 34.683594 21.054688 35.226562 20.492188 35.445312 20.238281 C 35.867188 19.769531 36.160156 19.367188 36.328125 19.039062 C 36.496094 18.710938 36.578125 18.390625 36.578125 18.074219 C 36.578125 17.554688 36.398438 17.136719 36.035156 16.8125 C 35.671875 16.484375 35.199219 16.320312 34.617188 16.320312 C 34.207031 16.320312 33.769531 16.394531 33.3125 16.535156 C 32.855469 16.679688 32.367188 16.894531 31.847656 17.1875 L 31.847656 15.859375 C 32.375 15.644531 32.871094 15.484375 33.328125 15.378906 C 33.789062 15.269531 34.210938 15.214844 34.59375 15.214844 C 35.601562 15.214844 36.402344 15.46875 37.003906 15.972656 C 37.601562 16.472656 37.898438 17.144531 37.898438 17.988281 C 37.898438 18.386719 37.824219 18.765625 37.675781 19.125 C 37.527344 19.480469 37.253906 19.902344 36.859375 20.390625 C 36.75 20.515625 36.40625 20.878906 35.824219 21.480469 C 35.242188 22.082031 34.421875 22.925781 33.363281 24.003906 Z M 33.363281 24.003906 "/>
<path style=" stroke:none;fill-rule:nonzero;fill:rgb(0%,0%,0%);fill-opacity:1;" d="M 43.523438 16.257812 C 42.847656 16.257812 42.339844 16.589844 41.996094 17.257812 C 41.65625 17.921875 41.488281 18.921875 41.488281 20.261719 C 41.488281 21.59375 41.65625 22.59375 41.996094 23.257812 C 42.339844 23.925781 42.847656 24.257812 43.523438 24.257812 C 44.207031 24.257812 44.71875 23.925781 45.058594 23.257812 C 45.398438 22.59375 45.570312 21.59375 45.570312 20.261719 C 45.570312 18.921875 45.398438 17.921875 45.058594 17.257812 C 44.71875 16.589844 44.207031 16.257812 43.523438 16.257812 Z M 43.523438 15.214844 C 44.617188 15.214844 45.449219 15.644531 46.023438 16.507812 C 46.597656 17.371094 46.886719 18.621094 46.886719 20.261719 C 46.886719 21.898438 46.597656 23.144531 46.023438 24.007812 C 45.449219 24.871094 44.617188 25.300781 43.523438 25.300781 C 42.4375 25.300781 41.605469 24.871094 41.027344 24.007812 C 40.453125 23.144531 40.167969 21.898438 40.167969 20.261719 C 40.167969 18.621094 40.453125 17.371094 41.027344 16.507812 C 41.605469 15.644531 42.4375 15.214844 43.523438 15.214844 Z M 43.523438 15.214844 "/>
<g clip-path="url(#clip9)" clip-rule="nonzero">
<path style="fill:none;stroke-width:1.5;stroke-linecap:square;stroke-linejoin:round;stroke:rgb(12.156863%,46.666667%,70.588237%);stroke-opacity:1;stroke-miterlimit:4;" d="M 42.829102 13.376953 L 53.106445 124.526367 L 63.386719 125.302734 L 73.664062 127.397461 L 83.944336 128.879883 L 94.22168 130.174805 L 104.501953 131.888672 L 114.779297 131.938477 L 125.05957 133.327148 L 135.339844 133.579102 L 145.617187 134.039062 L 155.897461 134.698242 L 166.174805 134.917969 L 176.455078 135.375 L 186.732422 135.720703 L 197.012695 135.366211 L 207.290039 135.952148 L 217.570312 136.110352 L 227.850586 136.327148 L 238.12793 136.482422 " transform="matrix(1.333333,0,0,1.333333,0.000000000000028422,0)"/>
</g>
<g clip-path="url(#clip10)" clip-rule="nonzero">
<path style="fill:none;stroke-width:1.5;stroke-linecap:butt;stroke-linejoin:round;stroke:rgb(74.901962%,0%,74.901962%);stroke-opacity:1;stroke-dasharray:5.55,2.4;stroke-miterlimit:4;" d="M 42.829102 121.672852 L 53.106445 123.823242 L 63.386719 125.525391 L 73.664062 127.362305 L 83.944336 128.856445 L 94.22168 129.94043 L 104.501953 130.640625 L 114.779297 131.314453 L 125.05957 132.008789 L 135.339844 132.629883 L 145.617187 133.209961 L 155.897461 133.746094 L 166.174805 134.285156 L 176.455078 134.827148 L 186.732422 135.213867 L 197.012695 135.632812 L 207.290039 136.004883 L 217.570312 136.303711 L 227.850586 136.637695 L 238.12793 136.921875 " transform="matrix(1.333333,0,0,1.333333,0.000000000000028422,0)"/>
</g>
<path style="fill:none;stroke-width:0.8;stroke-linecap:square;stroke-linejoin:miter;stroke:rgb(0%,0%,0%);stroke-opacity:1;stroke-miterlimit:4;" d="M 42.829102 143.100586 L 42.829102 7.201172 " transform="matrix(1.333333,0,0,1.333333,0.000000000000028422,0)"/>
<path style="fill:none;stroke-width:0.8;stroke-linecap:square;stroke-linejoin:miter;stroke:rgb(0%,0%,0%);stroke-opacity:1;stroke-miterlimit:4;" d="M 238.12793 143.100586 L 238.12793 7.201172 " transform="matrix(1.333333,0,0,1.333333,0.000000000000028422,0)"/>
<path style="fill:none;stroke-width:0.8;stroke-linecap:square;stroke-linejoin:miter;stroke:rgb(0%,0%,0%);stroke-opacity:1;stroke-miterlimit:4;" d="M 42.829102 143.100586 L 238.12793 143.100586 " transform="matrix(1.333333,0,0,1.333333,0.000000000000028422,0)"/>
<path style="fill:none;stroke-width:0.8;stroke-linecap:square;stroke-linejoin:miter;stroke:rgb(0%,0%,0%);stroke-opacity:1;stroke-miterlimit:4;" d="M 42.829102 7.201172 L 238.12793 7.201172 " transform="matrix(1.333333,0,0,1.333333,0.000000000000028422,0)"/>
<use xlink:href="#surface5" mask="url(#mask0)"/>
<path style="fill:none;stroke-width:1.5;stroke-linecap:square;stroke-linejoin:round;stroke:rgb(12.156863%,46.666667%,70.588237%);stroke-opacity:1;stroke-miterlimit:4;" d="M 148.921875 20.299805 L 168.922852 20.299805 " transform="matrix(1.333333,0,0,1.333333,0.000000000000028422,0)"/>
<path style=" stroke:none;fill-rule:nonzero;fill:rgb(0%,0%,0%);fill-opacity:1;" d="M 242.398438 24.71875 L 242.398438 25.839844 C 242.0625 25.652344 241.722656 25.511719 241.382812 25.417969 C 241.039062 25.324219 240.695312 25.277344 240.351562 25.277344 C 239.570312 25.277344 238.96875 25.527344 238.539062 26.019531 C 238.109375 26.511719 237.894531 27.203125 237.894531 28.089844 C 237.894531 28.980469 238.109375 29.671875 238.539062 30.167969 C 238.96875 30.660156 239.570312 30.902344 240.351562 30.902344 C 240.695312 30.902344 241.039062 30.859375 241.382812 30.765625 C 241.722656 30.671875 242.0625 30.53125 242.398438 30.34375 L 242.398438 31.453125 C 242.066406 31.609375 241.71875 31.722656 241.359375 31.800781 C 241.003906 31.882812 240.621094 31.921875 240.21875 31.921875 C 239.121094 31.921875 238.246094 31.574219 237.601562 30.886719 C 236.953125 30.195312 236.632812 29.265625 236.632812 28.089844 C 236.632812 26.902344 236.957031 25.96875 237.609375 25.289062 C 238.265625 24.605469 239.160156 24.265625 240.296875 24.265625 C 240.664062 24.265625 241.027344 24.304688 241.378906 24.378906 C 241.726562 24.453125 242.070312 24.566406 242.398438 24.71875 Z M 242.398438 24.71875 "/>
<path style=" stroke:none;fill-rule:nonzero;fill:rgb(0%,0%,0%);fill-opacity:1;" d="M 244.484375 21.601562 L 245.679688 21.601562 L 245.679688 31.730469 L 244.484375 31.730469 Z M 244.484375 21.601562 "/>
<path style=" stroke:none;fill-rule:nonzero;fill:rgb(0%,0%,0%);fill-opacity:1;" d="M 251.5 28.066406 C 250.535156 28.066406 249.863281 28.175781 249.488281 28.398438 C 249.117188 28.617188 248.929688 28.996094 248.929688 29.53125 C 248.929688 29.957031 249.070312 30.292969 249.351562 30.542969 C 249.628906 30.792969 250.011719 30.917969 250.492188 30.917969 C 251.15625 30.917969 251.691406 30.679688 252.089844 30.210938 C 252.492188 29.738281 252.695312 29.113281 252.695312 28.332031 L 252.695312 28.066406 Z M 253.890625 27.570312 L 253.890625 31.730469 L 252.695312 31.730469 L 252.695312 30.625 C 252.417969 31.066406 252.078125 31.394531 251.671875 31.605469 C 251.261719 31.816406 250.761719 31.921875 250.171875 31.921875 C 249.425781 31.921875 248.832031 31.710938 248.390625 31.292969 C 247.949219 30.871094 247.730469 30.3125 247.730469 29.609375 C 247.730469 28.789062 248.003906 28.171875 248.554688 27.753906 C 249.105469 27.335938 249.921875 27.128906 251.011719 27.128906 L 252.695312 27.128906 L 252.695312 27.011719 C 252.695312 26.460938 252.511719 26.03125 252.148438 25.730469 C 251.789062 25.429688 251.277344 25.277344 250.621094 25.277344 C 250.207031 25.277344 249.800781 25.328125 249.402344 25.429688 C 249.007812 25.527344 248.628906 25.679688 248.265625 25.878906 L 248.265625 24.769531 C 248.703125 24.601562 249.128906 24.476562 249.542969 24.390625 C 249.953125 24.308594 250.355469 24.265625 250.746094 24.265625 C 251.800781 24.265625 252.589844 24.539062 253.109375 25.085938 C 253.632812 25.632812 253.890625 26.460938 253.890625 27.570312 Z M 253.890625 27.570312 "/>
<path style=" stroke:none;fill-rule:nonzero;fill:rgb(0%,0%,0%);fill-opacity:1;" d="M 261.003906 24.652344 L 261.003906 25.789062 C 260.667969 25.613281 260.316406 25.484375 259.953125 25.398438 C 259.585938 25.308594 259.210938 25.265625 258.816406 25.265625 C 258.222656 25.265625 257.777344 25.359375 257.480469 25.539062 C 257.183594 25.722656 257.035156 25.996094 257.035156 26.359375 C 257.035156 26.636719 257.140625 26.855469 257.355469 27.015625 C 257.566406 27.171875 257.992188 27.324219 258.636719 27.464844 L 259.046875 27.558594 C 259.898438 27.742188 260.5 27.996094 260.859375 28.328125 C 261.21875 28.660156 261.398438 29.125 261.398438 29.71875 C 261.398438 30.398438 261.128906 30.933594 260.59375 31.328125 C 260.058594 31.722656 259.320312 31.921875 258.382812 31.921875 C 257.992188 31.921875 257.585938 31.882812 257.160156 31.804688 C 256.738281 31.730469 256.292969 31.617188 255.824219 31.464844 L 255.824219 30.226562 C 256.265625 30.457031 256.703125 30.628906 257.132812 30.746094 C 257.5625 30.859375 257.988281 30.917969 258.410156 30.917969 C 258.972656 30.917969 259.40625 30.820312 259.710938 30.628906 C 260.015625 30.433594 260.167969 30.160156 260.167969 29.808594 C 260.167969 29.484375 260.054688 29.234375 259.835938 29.0625 C 259.617188 28.890625 259.136719 28.722656 258.394531 28.558594 L 257.980469 28.460938 C 257.238281 28.308594 256.699219 28.066406 256.371094 27.742188 C 256.042969 27.421875 255.875 26.976562 255.875 26.414062 C 255.875 25.726562 256.121094 25.195312 256.605469 24.824219 C 257.09375 24.453125 257.78125 24.265625 258.675781 24.265625 C 259.117188 24.265625 259.535156 24.296875 259.925781 24.363281 C 260.316406 24.425781 260.675781 24.523438 261.003906 24.652344 Z M 261.003906 24.652344 "/>
<path style=" stroke:none;fill-rule:nonzero;fill:rgb(0%,0%,0%);fill-opacity:1;" d="M 267.953125 24.652344 L 267.953125 25.789062 C 267.613281 25.613281 267.261719 25.484375 266.898438 25.398438 C 266.535156 25.308594 266.15625 25.265625 265.765625 25.265625 C 265.171875 25.265625 264.722656 25.359375 264.425781 25.539062 C 264.128906 25.722656 263.980469 25.996094 263.980469 26.359375 C 263.980469 26.636719 264.085938 26.855469 264.300781 27.015625 C 264.511719 27.171875 264.941406 27.324219 265.582031 27.464844 L 265.992188 27.558594 C 266.84375 27.742188 267.449219 27.996094 267.804688 28.328125 C 268.164062 28.660156 268.34375 29.125 268.34375 29.71875 C 268.34375 30.398438 268.074219 30.933594 267.539062 31.328125 C 267.003906 31.722656 266.265625 31.921875 265.328125 31.921875 C 264.9375 31.921875 264.53125 31.882812 264.109375 31.804688 C 263.683594 31.730469 263.238281 31.617188 262.769531 31.464844 L 262.769531 30.226562 C 263.214844 30.457031 263.648438 30.628906 264.078125 30.746094 C 264.507812 30.859375 264.933594 30.917969 265.355469 30.917969 C 265.921875 30.917969 266.355469 30.820312 266.65625 30.628906 C 266.960938 30.433594 267.113281 30.160156 267.113281 29.808594 C 267.113281 29.484375 267.003906 29.234375 266.785156 29.0625 C 266.566406 28.890625 266.085938 28.722656 265.34375 28.558594 L 264.925781 28.460938 C 264.183594 28.308594 263.648438 28.066406 263.316406 27.742188 C 262.988281 27.421875 262.824219 26.976562 262.824219 26.414062 C 262.824219 25.726562 263.066406 25.195312 263.550781 24.824219 C 264.039062 24.453125 264.730469 24.265625 265.625 24.265625 C 266.066406 24.265625 266.480469 24.296875 266.871094 24.363281 C 267.261719 24.425781 267.625 24.523438 267.953125 24.652344 Z M 267.953125 24.652344 "/>
<path style=" stroke:none;fill-rule:nonzero;fill:rgb(0%,0%,0%);fill-opacity:1;" d="M 280.726562 27.785156 L 280.726562 28.371094 L 275.21875 28.371094 C 275.269531 29.195312 275.519531 29.824219 275.964844 30.257812 C 276.410156 30.6875 277.027344 30.902344 277.824219 30.902344 C 278.28125 30.902344 278.726562 30.847656 279.160156 30.734375 C 279.59375 30.621094 280.019531 30.453125 280.449219 30.226562 L 280.449219 31.359375 C 280.015625 31.542969 279.574219 31.679688 279.125 31.777344 C 278.671875 31.871094 278.214844 31.921875 277.75 31.921875 C 276.589844 31.921875 275.667969 31.582031 274.988281 30.90625 C 274.308594 30.226562 273.96875 29.3125 273.96875 28.15625 C 273.96875 26.964844 274.289062 26.015625 274.933594 25.316406 C 275.578125 24.617188 276.449219 24.265625 277.542969 24.265625 C 278.523438 24.265625 279.300781 24.582031 279.871094 25.210938 C 280.441406 25.84375 280.726562 26.699219 280.726562 27.785156 Z M 279.527344 27.433594 C 279.519531 26.777344 279.335938 26.257812 278.980469 25.867188 C 278.621094 25.476562 278.144531 25.277344 277.554688 25.277344 C 276.886719 25.277344 276.351562 25.46875 275.953125 25.847656 C 275.550781 26.222656 275.320312 26.753906 275.257812 27.441406 Z M 279.527344 27.433594 "/>
<path style=" stroke:none;fill-rule:nonzero;fill:rgb(0%,0%,0%);fill-opacity:1;" d="M 286.917969 25.558594 C 286.78125 25.480469 286.636719 25.421875 286.476562 25.386719 C 286.320312 25.351562 286.144531 25.332031 285.953125 25.332031 C 285.277344 25.332031 284.757812 25.550781 284.394531 25.992188 C 284.03125 26.433594 283.851562 27.066406 283.851562 27.890625 L 283.851562 31.730469 L 282.648438 31.730469 L 282.648438 24.441406 L 283.851562 24.441406 L 283.851562 25.574219 C 284.105469 25.128906 284.429688 24.800781 284.835938 24.585938 C 285.238281 24.371094 285.730469 24.265625 286.308594 24.265625 C 286.390625 24.265625 286.480469 24.269531 286.578125 24.28125 C 286.679688 24.289062 286.789062 24.308594 286.910156 24.328125 Z M 286.917969 25.558594 "/>
<path style=" stroke:none;fill-rule:nonzero;fill:rgb(0%,0%,0%);fill-opacity:1;" d="M 292.164062 25.558594 C 292.03125 25.480469 291.882812 25.421875 291.726562 25.386719 C 291.566406 25.351562 291.394531 25.332031 291.203125 25.332031 C 290.527344 25.332031 290.003906 25.550781 289.644531 25.992188 C 289.28125 26.433594 289.097656 27.066406 289.097656 27.890625 L 289.097656 31.730469 L 287.894531 31.730469 L 287.894531 24.441406 L 289.097656 24.441406 L 289.097656 25.574219 C 289.351562 25.128906 289.679688 24.800781 290.082031 24.585938 C 290.488281 24.371094 290.976562 24.265625 291.554688 24.265625 C 291.636719 24.265625 291.726562 24.269531 291.828125 24.28125 C 291.929688 24.289062 292.039062 24.308594 292.160156 24.328125 Z M 292.164062 25.558594 "/>
<path style=" stroke:none;fill-rule:nonzero;fill:rgb(0%,0%,0%);fill-opacity:1;" d="M 295.949219 25.277344 C 295.304688 25.277344 294.796875 25.53125 294.425781 26.03125 C 294.050781 26.53125 293.863281 27.21875 293.863281 28.089844 C 293.863281 28.964844 294.050781 29.652344 294.421875 30.152344 C 294.792969 30.652344 295.300781 30.902344 295.949219 30.902344 C 296.585938 30.902344 297.09375 30.652344 297.464844 30.148438 C 297.839844 29.644531 298.023438 28.960938 298.023438 28.089844 C 298.023438 27.226562 297.839844 26.542969 297.464844 26.039062 C 297.09375 25.53125 296.585938 25.277344 295.949219 25.277344 Z M 295.949219 24.265625 C 296.988281 24.265625 297.808594 24.601562 298.402344 25.28125 C 298.996094 25.957031 299.296875 26.894531 299.296875 28.089844 C 299.296875 29.285156 298.996094 30.222656 298.402344 30.902344 C 297.808594 31.582031 296.988281 31.921875 295.949219 31.921875 C 294.902344 31.921875 294.082031 31.582031 293.488281 30.902344 C 292.898438 30.222656 292.601562 29.285156 292.601562 28.089844 C 292.601562 26.894531 292.898438 25.957031 293.488281 25.28125 C 294.082031 24.601562 294.902344 24.265625 295.949219 24.265625 Z M 295.949219 24.265625 "/>
<path style=" stroke:none;fill-rule:nonzero;fill:rgb(0%,0%,0%);fill-opacity:1;" d="M 305.503906 25.558594 C 305.371094 25.480469 305.222656 25.421875 305.066406 25.386719 C 304.90625 25.351562 304.734375 25.332031 304.542969 25.332031 C 303.863281 25.332031 303.34375 25.550781 302.980469 25.992188 C 302.621094 26.433594 302.4375 27.066406 302.4375 27.890625 L 302.4375 31.730469 L 301.234375 31.730469 L 301.234375 24.441406 L 302.4375 24.441406 L 302.4375 25.574219 C 302.691406 25.128906 303.019531 24.800781 303.421875 24.585938 C 303.824219 24.371094 304.316406 24.265625 304.894531 24.265625 C 304.976562 24.265625 305.066406 24.269531 305.167969 24.28125 C 305.269531 24.289062 305.378906 24.308594 305.5 24.328125 Z M 305.503906 25.558594 "/>
<path style="fill:none;stroke-width:1.5;stroke-linecap:butt;stroke-linejoin:round;stroke:rgb(74.901962%,0%,74.901962%);stroke-opacity:1;stroke-dasharray:5.55,2.4;stroke-miterlimit:4;" d="M 148.921875 34.977539 L 168.922852 34.977539 " transform="matrix(1.333333,0,0,1.333333,0.000000000000028422,0)"/>
<path style=" stroke:none;fill-rule:nonzero;fill:rgb(0%,0%,0%);fill-opacity:1;" d="M 242.386719 47.664062 C 242.386719 46.78125 242.207031 46.089844 241.84375 45.589844 C 241.480469 45.089844 240.984375 44.835938 240.351562 44.835938 C 239.714844 44.835938 239.214844 45.089844 238.855469 45.589844 C 238.492188 46.089844 238.308594 46.78125 238.308594 47.664062 C 238.308594 48.542969 238.492188 49.234375 238.855469 49.734375 C 239.214844 50.238281 239.714844 50.488281 240.351562 50.488281 C 240.984375 50.488281 241.480469 50.238281 241.84375 49.734375 C 242.207031 49.234375 242.386719 48.542969 242.386719 47.664062 Z M 238.308594 45.117188 C 238.5625 44.683594 238.882812 44.363281 239.265625 44.152344 C 239.648438 43.941406 240.109375 43.835938 240.640625 43.835938 C 241.527344 43.835938 242.246094 44.1875 242.800781 44.890625 C 243.355469 45.59375 243.632812 46.515625 243.632812 47.664062 C 243.632812 48.808594 243.355469 49.734375 242.800781 50.4375 C 242.246094 51.140625 241.527344 51.492188 240.640625 51.492188 C 240.109375 51.492188 239.648438 51.386719 239.265625 51.175781 C 238.882812 50.964844 238.5625 50.640625 238.308594 50.207031 L 238.308594 51.300781 L 237.105469 51.300781 L 237.105469 41.171875 L 238.308594 41.171875 Z M 238.308594 45.117188 "/>
<path style=" stroke:none;fill-rule:nonzero;fill:rgb(0%,0%,0%);fill-opacity:1;" d="M 250.851562 47.664062 C 250.851562 46.78125 250.667969 46.089844 250.308594 45.589844 C 249.945312 45.089844 249.445312 44.835938 248.8125 44.835938 C 248.179688 44.835938 247.679688 45.089844 247.316406 45.589844 C 246.957031 46.089844 246.773438 46.78125 246.773438 47.664062 C 246.773438 48.542969 246.957031 49.234375 247.316406 49.734375 C 247.679688 50.238281 248.179688 50.488281 248.8125 50.488281 C 249.445312 50.488281 249.945312 50.238281 250.308594 49.734375 C 250.667969 49.234375 250.851562 48.542969 250.851562 47.664062 Z M 246.773438 45.117188 C 247.027344 44.683594 247.34375 44.363281 247.726562 44.152344 C 248.113281 43.941406 248.570312 43.835938 249.105469 43.835938 C 249.992188 43.835938 250.710938 44.1875 251.261719 44.890625 C 251.816406 45.59375 252.09375 46.515625 252.09375 47.664062 C 252.09375 48.808594 251.816406 49.734375 251.261719 50.4375 C 250.710938 51.140625 249.992188 51.492188 249.105469 51.492188 C 248.570312 51.492188 248.113281 51.386719 247.726562 51.175781 C 247.34375 50.964844 247.027344 50.640625 246.773438 50.207031 L 246.773438 51.300781 L 245.570312 51.300781 L 245.570312 41.171875 L 246.773438 41.171875 Z M 246.773438 45.117188 "/>
<path style=" stroke:none;fill-rule:nonzero;fill:rgb(0%,0%,0%);fill-opacity:1;" d="M 256.902344 44.851562 C 256.261719 44.851562 255.753906 45.101562 255.382812 45.601562 C 255.007812 46.101562 254.820312 46.789062 254.820312 47.664062 C 254.820312 48.535156 255.007812 49.222656 255.378906 49.722656 C 255.75 50.222656 256.257812 50.476562 256.902344 50.476562 C 257.542969 50.476562 258.046875 50.222656 258.421875 49.722656 C 258.792969 49.214844 258.980469 48.53125 258.980469 47.664062 C 258.980469 46.796875 258.792969 46.113281 258.421875 45.609375 C 258.046875 45.101562 257.542969 44.851562 256.902344 44.851562 Z M 256.902344 43.835938 C 257.945312 43.835938 258.765625 44.175781 259.359375 44.851562 C 259.953125 45.527344 260.253906 46.464844 260.253906 47.664062 C 260.253906 48.855469 259.953125 49.792969 259.359375 50.472656 C 258.765625 51.152344 257.945312 51.492188 256.902344 51.492188 C 255.859375 51.492188 255.039062 51.152344 254.445312 50.472656 C 253.855469 49.792969 253.558594 48.855469 253.558594 47.664062 C 253.558594 46.464844 253.855469 45.527344 254.445312 44.851562 C 255.039062 44.175781 255.859375 43.835938 256.902344 43.835938 Z M 256.902344 43.835938 "/>
<path style=" stroke:none;fill-rule:nonzero;fill:rgb(0%,0%,0%);fill-opacity:1;" d="M 267.882812 44.011719 L 265.246094 47.558594 L 268.019531 51.300781 L 266.605469 51.300781 L 264.484375 48.4375 L 262.363281 51.300781 L 260.945312 51.300781 L 263.78125 47.488281 L 261.1875 44.011719 L 262.601562 44.011719 L 264.535156 46.609375 L 266.46875 44.011719 Z M 267.882812 44.011719 "/>
<path style=" stroke:none;fill-rule:nonzero;fill:rgb(0%,0%,0%);fill-opacity:1;" d="M 279.625 45.410156 C 279.925781 44.871094 280.285156 44.472656 280.699219 44.21875 C 281.117188 43.964844 281.609375 43.835938 282.171875 43.835938 C 282.929688 43.835938 283.519531 44.101562 283.929688 44.632812 C 284.34375 45.164062 284.550781 45.917969 284.550781 46.898438 L 284.550781 51.300781 L 283.34375 51.300781 L 283.34375 46.941406 C 283.34375 46.242188 283.21875 45.722656 282.972656 45.386719 C 282.726562 45.046875 282.347656 44.878906 281.839844 44.878906 C 281.21875 44.878906 280.730469 45.082031 280.367188 45.496094 C 280.007812 45.90625 279.828125 46.46875 279.828125 47.179688 L 279.828125 51.300781 L 278.625 51.300781 L 278.625 46.941406 C 278.625 46.238281 278.5 45.71875 278.253906 45.382812 C 278.007812 45.046875 277.625 44.878906 277.105469 44.878906 C 276.496094 44.878906 276.007812 45.085938 275.648438 45.496094 C 275.289062 45.910156 275.105469 46.472656 275.105469 47.179688 L 275.105469 51.300781 L 273.902344 51.300781 L 273.902344 44.011719 L 275.105469 44.011719 L 275.105469 45.144531 C 275.382812 44.695312 275.707031 44.367188 276.089844 44.152344 C 276.472656 43.941406 276.925781 43.835938 277.449219 43.835938 C 277.980469 43.835938 278.433594 43.96875 278.804688 44.238281 C 279.175781 44.507812 279.449219 44.898438 279.625 45.410156 Z M 279.625 45.410156 "/>
<path style=" stroke:none;fill-rule:nonzero;fill:rgb(0%,0%,0%);fill-opacity:1;" d="M 290.25 47.636719 C 289.285156 47.636719 288.613281 47.746094 288.238281 47.96875 C 287.867188 48.191406 287.679688 48.566406 287.679688 49.101562 C 287.679688 49.527344 287.820312 49.863281 288.101562 50.113281 C 288.378906 50.363281 288.761719 50.488281 289.242188 50.488281 C 289.90625 50.488281 290.441406 50.253906 290.839844 49.78125 C 291.242188 49.308594 291.445312 48.683594 291.445312 47.902344 L 291.445312 47.636719 Z M 292.640625 47.140625 L 292.640625 51.300781 L 291.445312 51.300781 L 291.445312 50.195312 C 291.167969 50.636719 290.828125 50.964844 290.421875 51.175781 C 290.011719 51.386719 289.511719 51.492188 288.921875 51.492188 C 288.175781 51.492188 287.582031 51.28125 287.140625 50.863281 C 286.699219 50.441406 286.480469 49.882812 286.480469 49.179688 C 286.480469 48.359375 286.753906 47.742188 287.304688 47.324219 C 287.855469 46.910156 288.671875 46.699219 289.761719 46.699219 L 291.445312 46.699219 L 291.445312 46.582031 C 291.445312 46.03125 291.261719 45.601562 290.898438 45.300781 C 290.539062 45 290.027344 44.851562 289.371094 44.851562 C 288.957031 44.851562 288.550781 44.898438 288.152344 45 C 287.757812 45.101562 287.378906 45.25 287.015625 45.449219 L 287.015625 44.339844 C 287.453125 44.171875 287.878906 44.046875 288.292969 43.960938 C 288.703125 43.878906 289.105469 43.835938 289.496094 43.835938 C 290.550781 43.835938 291.339844 44.109375 291.859375 44.65625 C 292.382812 45.203125 292.640625 46.03125 292.640625 47.140625 Z M 292.640625 47.140625 "/>
<path style=" stroke:none;fill-rule:nonzero;fill:rgb(0%,0%,0%);fill-opacity:1;" d="M 301.34375 47.355469 L 301.34375 47.941406 L 295.835938 47.941406 C 295.890625 48.765625 296.136719 49.394531 296.582031 49.828125 C 297.027344 50.257812 297.648438 50.476562 298.441406 50.476562 C 298.902344 50.476562 299.347656 50.417969 299.777344 50.304688 C 300.210938 50.195312 300.640625 50.023438 301.066406 49.796875 L 301.066406 50.929688 C 300.636719 51.113281 300.195312 51.253906 299.742188 51.347656 C 299.292969 51.445312 298.835938 51.492188 298.371094 51.492188 C 297.207031 51.492188 296.285156 51.152344 295.605469 50.476562 C 294.925781 49.800781 294.585938 48.882812 294.585938 47.726562 C 294.585938 46.535156 294.910156 45.585938 295.554688 44.886719 C 296.199219 44.1875 297.066406 43.835938 298.160156 43.835938 C 299.140625 43.835938 299.917969 44.152344 300.488281 44.785156 C 301.058594 45.414062 301.34375 46.273438 301.34375 47.355469 Z M 300.148438 47.003906 C 300.140625 46.351562 299.957031 45.828125 299.597656 45.4375 C 299.238281 45.046875 298.765625 44.851562 298.175781 44.851562 C 297.507812 44.851562 296.972656 45.039062 296.570312 45.417969 C 296.167969 45.792969 295.9375 46.328125 295.875 47.011719 Z M 300.148438 47.003906 "/>
</g>
</svg>
