<?xml version="1.0" encoding="UTF-8"?>
<svg xmlns="http://www.w3.org/2000/svg" xmlns:xlink="http://www.w3.org/1999/xlink" width="351.229167" height="240.875" viewBox="0 0 351.229167 240.875" version="1.1">
<defs>
<clipPath id="clip1">
  <path d="M 108 9.601562 L 111 9.601562 L 111 190.800781 L 108 190.800781 Z M 108 9.601562 "/>
</clipPath>
<clipPath id="clip2">
  <path d="M 163 9.601562 L 166 9.601562 L 166 190.800781 L 163 190.800781 Z M 163 9.601562 "/>
</clipPath>
<clipPath id="clip3">
  <path d="M 218 9.601562 L 221 9.601562 L 221 190.800781 L 218 190.800781 Z M 218 9.601562 "/>
</clipPath>
<clipPath id="clip4">
  <path d="M 273 9.601562 L 275 9.601562 L 275 190.800781 L 273 190.800781 Z M 273 9.601562 "/>
</clipPath>
<clipPath id="clip5">
  <path d="M 328 9.601562 L 328.902344 9.601562 L 328.902344 190.800781 L 328 190.800781 Z M 328 9.601562 "/>
</clipPath>
<clipPath id="clip6">
  <path d="M 68.503906 160 L 328.902344 160 L 328.902344 162 L 68.503906 162 Z M 68.503906 160 "/>
</clipPath>
<clipPath id="clip7">
  <path d="M 68.503906 122 L 328.902344 122 L 328.902344 124 L 68.503906 124 Z M 68.503906 122 "/>
</clipPath>
<clipPath id="clip8">
  <path d="M 68.503906 84 L 328.902344 84 L 328.902344 86 L 68.503906 86 Z M 68.503906 84 "/>
</clipPath>
<clipPath id="clip9">
  <path d="M 68.503906 46 L 328.902344 46 L 328.902344 48 L 68.503906 48 Z M 68.503906 46 "/>
</clipPath>
<clipPath id="clip10">
  <path d="M 68.503906 34 L 328.902344 34 L 328.902344 184 L 68.503906 184 Z M 68.503906 34 "/>
</clipPath>
<clipPath id="clip11">
  <path d="M 68.503906 16 L 328.902344 16 L 328.902344 19 L 68.503906 19 Z M 68.503906 16 "/>
</clipPath>
<filter id="alpha" filterUnits="objectBoundingBox" x="0%" y="0%" width="100%" height="100%">
  <feColorMatrix type="matrix" in="SourceGraphic" values="0 0 0 0 1 0 0 0 0 1 0 0 0 0 1 0 0 0 1 0"/>
</filter>
<mask id="mask0">
  <g filter="url(#alpha)">
<rect x="0" y="0" width="351.229167" height="240.875" style="fill:rgb(0%,0%,0%);fill-opacity:0.8;stroke:none;"/>
  </g>
</mask>
<clipPath id="clip12">
  <rect x="0" y="0" width="352" height="241"/>
</clipPath>
<g id="surface5" clip-path="url(#clip12)">
<path style="fill-rule:nonzero;fill:rgb(100%,100%,100%);fill-opacity:1;stroke-width:1;stroke-linecap:butt;stroke-linejoin:miter;stroke:rgb(80.000001%,80.000001%,80.000001%);stroke-opacity:1;stroke-miterlimit:4;" d="M 58.376953 138.099609 L 113.654297 138.099609 C 114.987305 138.099609 115.652344 137.43457 115.652344 136.098633 L 115.652344 107.745117 C 115.652344 106.40918 114.987305 105.744141 113.654297 105.744141 L 58.376953 105.744141 C 57.043945 105.744141 56.378906 106.40918 56.378906 107.745117 L 56.378906 136.098633 C 56.378906 137.43457 57.043945 138.099609 58.376953 138.099609 Z M 58.376953 138.099609 " transform="matrix(1.333333,0,0,1.333333,0.000000000000028422,0)"/>
</g>
</defs>
<g id="surface1">
<path style=" stroke:none;fill-rule:nonzero;fill:rgb(100%,100%,100%);fill-opacity:1;" d="M 68.503906 190.800781 L 328.902344 190.800781 L 328.902344 9.601562 L 68.503906 9.601562 Z M 68.503906 190.800781 "/>
<g clip-path="url(#clip1)" clip-rule="nonzero">
<path style="fill:none;stroke-width:0.8;stroke-linecap:square;stroke-linejoin:round;stroke:rgb(69.01961%,69.01961%,69.01961%);stroke-opacity:1;stroke-miterlimit:4;" d="M 82.21582 143.100586 L 82.21582 7.201172 " transform="matrix(1.333333,0,0,1.333333,0.000000000000028422,0)"/>
</g>
<path style="fill:none;stroke-width:0.8;stroke-linecap:butt;stroke-linejoin:round;stroke:rgb(0%,0%,0%);stroke-opacity:1;stroke-miterlimit:4;" d="M 0.000854492 0.000579834 L 0.000854492 3.498627 " transform="matrix(1.333333,0,0,1.333333,109.619954,190.800008)"/>
<path style=" stroke:none;fill-rule:nonzero;fill:rgb(0%,0%,0%);fill-opacity:1;" d="M 103.695312 209.160156 L 108.285156 209.160156 L 108.285156 210.265625 L 102.113281 210.265625 L 102.113281 209.160156 C 102.613281 208.640625 103.292969 207.949219 104.152344 207.078125 C 105.015625 206.207031 105.558594 205.648438 105.777344 205.394531 C 106.199219 204.921875 106.492188 204.523438 106.660156 204.195312 C 106.828125 203.867188 106.910156 203.542969 106.910156 203.226562 C 106.910156 202.710938 106.730469 202.289062 106.367188 201.964844 C 106.003906 201.636719 105.53125 201.476562 104.953125 201.476562 C 104.539062 201.476562 104.101562 201.546875 103.644531 201.691406 C 103.1875 201.832031 102.699219 202.050781 102.179688 202.339844 L 102.179688 201.011719 C 102.707031 200.800781 103.203125 200.640625 103.660156 200.53125 C 104.121094 200.421875 104.542969 200.367188 104.925781 200.367188 C 105.933594 200.367188 106.734375 200.621094 107.335938 201.125 C 107.933594 201.628906 108.234375 202.300781 108.234375 203.140625 C 108.234375 203.542969 108.15625 203.921875 108.007812 204.277344 C 107.859375 204.636719 107.585938 205.058594 107.191406 205.542969 C 107.082031 205.671875 106.738281 206.035156 106.15625 206.636719 C 105.574219 207.238281 104.753906 208.078125 103.695312 209.160156 Z M 103.695312 209.160156 "/>
<path style=" stroke:none;fill-rule:nonzero;fill:rgb(0%,0%,0%);fill-opacity:1;" d="M 113.855469 201.410156 C 113.179688 201.410156 112.671875 201.742188 112.332031 202.410156 C 111.988281 203.074219 111.820312 204.078125 111.820312 205.414062 C 111.820312 206.746094 111.988281 207.746094 112.332031 208.414062 C 112.671875 209.078125 113.179688 209.414062 113.855469 209.414062 C 114.539062 209.414062 115.050781 209.078125 115.390625 208.414062 C 115.730469 207.746094 115.902344 206.746094 115.902344 205.414062 C 115.902344 204.078125 115.730469 203.074219 115.390625 202.410156 C 115.050781 201.742188 114.539062 201.410156 113.855469 201.410156 Z M 113.855469 200.367188 C 114.949219 200.367188 115.78125 200.800781 116.355469 201.664062 C 116.929688 202.523438 117.21875 203.773438 117.21875 205.414062 C 117.21875 207.050781 116.929688 208.300781 116.355469 209.164062 C 115.78125 210.023438 114.949219 210.453125 113.855469 210.453125 C 112.769531 210.453125 111.9375 210.023438 111.363281 209.164062 C 110.785156 208.300781 110.5 207.050781 110.5 205.414062 C 110.5 203.773438 110.785156 202.523438 111.363281 201.664062 C 111.9375 200.800781 112.769531 200.367188 113.855469 200.367188 Z M 113.855469 200.367188 "/>
<g clip-path="url(#clip2)" clip-rule="nonzero">
<path style="fill:none;stroke-width:0.8;stroke-linecap:square;stroke-linejoin:round;stroke:rgb(69.01961%,69.01961%,69.01961%);stroke-opacity:1;stroke-miterlimit:4;" d="M 123.331055 143.100586 L 123.331055 7.201172 " transform="matrix(1.333333,0,0,1.333333,0.000000000000028422,0)"/>
</g>
<path style="fill:none;stroke-width:0.8;stroke-linecap:butt;stroke-linejoin:round;stroke:rgb(0%,0%,0%);stroke-opacity:1;stroke-miterlimit:4;" d="M 0.000297546 0.000579834 L 0.000297546 3.498627 " transform="matrix(1.333333,0,0,1.333333,164.44101,190.800008)"/>
<path style=" stroke:none;fill-rule:nonzero;fill:rgb(0%,0%,0%);fill-opacity:1;" d="M 160.996094 201.691406 L 157.675781 206.878906 L 160.996094 206.878906 Z M 160.652344 200.542969 L 162.304688 200.542969 L 162.304688 206.878906 L 163.691406 206.878906 L 163.691406 207.972656 L 162.304688 207.972656 L 162.304688 210.265625 L 160.996094 210.265625 L 160.996094 207.972656 L 156.609375 207.972656 L 156.609375 206.703125 Z M 160.652344 200.542969 "/>
<path style=" stroke:none;fill-rule:nonzero;fill:rgb(0%,0%,0%);fill-opacity:1;" d="M 168.679688 201.410156 C 168 201.410156 167.492188 201.742188 167.152344 202.410156 C 166.8125 203.074219 166.640625 204.078125 166.640625 205.414062 C 166.640625 206.746094 166.8125 207.746094 167.152344 208.414062 C 167.492188 209.078125 168 209.414062 168.679688 209.414062 C 169.359375 209.414062 169.871094 209.078125 170.210938 208.414062 C 170.554688 207.746094 170.722656 206.746094 170.722656 205.414062 C 170.722656 204.078125 170.554688 203.074219 170.210938 202.410156 C 169.871094 201.742188 169.359375 201.410156 168.679688 201.410156 Z M 168.679688 200.367188 C 169.769531 200.367188 170.601562 200.800781 171.175781 201.664062 C 171.75 202.523438 172.039062 203.773438 172.039062 205.414062 C 172.039062 207.050781 171.75 208.300781 171.175781 209.164062 C 170.601562 210.023438 169.769531 210.453125 168.679688 210.453125 C 167.589844 210.453125 166.757812 210.023438 166.183594 209.164062 C 165.605469 208.300781 165.320312 207.050781 165.320312 205.414062 C 165.320312 203.773438 165.605469 202.523438 166.183594 201.664062 C 166.757812 200.800781 167.589844 200.367188 168.679688 200.367188 Z M 168.679688 200.367188 "/>
<g clip-path="url(#clip3)" clip-rule="nonzero">
<path style="fill:none;stroke-width:0.8;stroke-linecap:square;stroke-linejoin:round;stroke:rgb(69.01961%,69.01961%,69.01961%);stroke-opacity:1;stroke-miterlimit:4;" d="M 164.446289 143.100586 L 164.446289 7.201172 " transform="matrix(1.333333,0,0,1.333333,0.000000000000028422,0)"/>
</g>
<path style="fill:none;stroke-width:0.8;stroke-linecap:butt;stroke-linejoin:round;stroke:rgb(0%,0%,0%);stroke-opacity:1;stroke-miterlimit:4;" d="M -0.000259399 0.000579834 L -0.000259399 3.498627 " transform="matrix(1.333333,0,0,1.333333,219.262065,190.800008)"/>
<path style=" stroke:none;fill-rule:nonzero;fill:rgb(0%,0%,0%);fill-opacity:1;" d="M 215.179688 204.882812 C 214.589844 204.882812 214.121094 205.082031 213.777344 205.488281 C 213.433594 205.890625 213.261719 206.441406 213.261719 207.144531 C 213.261719 207.84375 213.433594 208.398438 213.777344 208.804688 C 214.121094 209.210938 214.589844 209.414062 215.179688 209.414062 C 215.769531 209.414062 216.238281 209.210938 216.582031 208.804688 C 216.925781 208.398438 217.097656 207.84375 217.097656 207.144531 C 217.097656 206.441406 216.925781 205.890625 216.582031 205.488281 C 216.238281 205.082031 215.769531 204.882812 215.179688 204.882812 Z M 217.792969 200.757812 L 217.792969 201.957031 C 217.460938 201.800781 217.128906 201.683594 216.792969 201.601562 C 216.457031 201.515625 216.121094 201.476562 215.792969 201.476562 C 214.921875 201.476562 214.261719 201.769531 213.800781 202.355469 C 213.34375 202.941406 213.082031 203.824219 213.019531 205.011719 C 213.273438 204.632812 213.59375 204.34375 213.980469 204.140625 C 214.367188 203.941406 214.792969 203.839844 215.257812 203.839844 C 216.234375 203.839844 217.003906 204.136719 217.574219 204.730469 C 218.140625 205.320312 218.421875 206.125 218.421875 207.144531 C 218.421875 208.144531 218.128906 208.945312 217.535156 209.550781 C 216.945312 210.152344 216.160156 210.453125 215.179688 210.453125 C 214.054688 210.453125 213.195312 210.023438 212.601562 209.164062 C 212.007812 208.300781 211.710938 207.050781 211.710938 205.414062 C 211.710938 203.878906 212.074219 202.652344 212.804688 201.738281 C 213.53125 200.824219 214.511719 200.367188 215.738281 200.367188 C 216.070312 200.367188 216.402344 200.402344 216.738281 200.464844 C 217.074219 200.53125 217.425781 200.628906 217.792969 200.757812 Z M 217.792969 200.757812 "/>
<path style=" stroke:none;fill-rule:nonzero;fill:rgb(0%,0%,0%);fill-opacity:1;" d="M 223.5 201.410156 C 222.824219 201.410156 222.3125 201.742188 221.972656 202.410156 C 221.632812 203.074219 221.460938 204.078125 221.460938 205.414062 C 221.460938 206.746094 221.632812 207.746094 221.972656 208.414062 C 222.3125 209.078125 222.824219 209.414062 223.5 209.414062 C 224.179688 209.414062 224.691406 209.078125 225.03125 208.414062 C 225.375 207.746094 225.546875 206.746094 225.546875 205.414062 C 225.546875 204.078125 225.375 203.074219 225.03125 202.410156 C 224.691406 201.742188 224.179688 201.410156 223.5 201.410156 Z M 223.5 200.367188 C 224.589844 200.367188 225.421875 200.800781 225.996094 201.664062 C 226.570312 202.523438 226.859375 203.773438 226.859375 205.414062 C 226.859375 207.050781 226.570312 208.300781 225.996094 209.164062 C 225.421875 210.023438 224.589844 210.453125 223.5 210.453125 C 222.410156 210.453125 221.578125 210.023438 221.003906 209.164062 C 220.429688 208.300781 220.140625 207.050781 220.140625 205.414062 C 220.140625 203.773438 220.429688 202.523438 221.003906 201.664062 C 221.578125 200.800781 222.410156 200.367188 223.5 200.367188 Z M 223.5 200.367188 "/>
<g clip-path="url(#clip4)" clip-rule="nonzero">
<path style="fill:none;stroke-width:0.8;stroke-linecap:square;stroke-linejoin:round;stroke:rgb(69.01961%,69.01961%,69.01961%);stroke-opacity:1;stroke-miterlimit:4;" d="M 205.561523 143.100586 L 205.561523 7.201172 " transform="matrix(1.333333,0,0,1.333333,0.000000000000028422,0)"/>
</g>
<path style="fill:none;stroke-width:0.8;stroke-linecap:butt;stroke-linejoin:round;stroke:rgb(0%,0%,0%);stroke-opacity:1;stroke-miterlimit:4;" d="M -0.000808716 0.000579834 L -0.000808716 3.498627 " transform="matrix(1.333333,0,0,1.333333,274.08311,190.800008)"/>
<path style=" stroke:none;fill-rule:nonzero;fill:rgb(0%,0%,0%);fill-opacity:1;" d="M 269.835938 205.648438 C 269.210938 205.648438 268.71875 205.816406 268.363281 206.148438 C 268.003906 206.484375 267.828125 206.945312 267.828125 207.527344 C 267.828125 208.117188 268.003906 208.574219 268.363281 208.910156 C 268.71875 209.246094 269.210938 209.414062 269.835938 209.414062 C 270.460938 209.414062 270.953125 209.246094 271.3125 208.910156 C 271.675781 208.570312 271.855469 208.109375 271.855469 207.527344 C 271.855469 206.945312 271.675781 206.484375 271.320312 206.148438 C 270.960938 205.816406 270.46875 205.648438 269.835938 205.648438 Z M 268.523438 205.089844 C 267.957031 204.949219 267.519531 204.6875 267.203125 204.300781 C 266.890625 203.914062 266.734375 203.441406 266.734375 202.886719 C 266.734375 202.109375 267.007812 201.496094 267.5625 201.046875 C 268.117188 200.59375 268.875 200.367188 269.835938 200.367188 C 270.804688 200.367188 271.566406 200.59375 272.117188 201.046875 C 272.667969 201.496094 272.945312 202.109375 272.945312 202.886719 C 272.945312 203.441406 272.785156 203.914062 272.46875 204.300781 C 272.15625 204.6875 271.71875 204.949219 271.160156 205.089844 C 271.792969 205.238281 272.285156 205.527344 272.640625 205.957031 C 272.992188 206.386719 273.171875 206.910156 273.171875 207.527344 C 273.171875 208.472656 272.882812 209.195312 272.308594 209.699219 C 271.734375 210.203125 270.910156 210.453125 269.835938 210.453125 C 268.765625 210.453125 267.941406 210.203125 267.367188 209.699219 C 266.792969 209.195312 266.503906 208.472656 266.503906 207.527344 C 266.503906 206.910156 266.683594 206.386719 267.039062 205.957031 C 267.394531 205.527344 267.890625 205.238281 268.523438 205.089844 Z M 268.042969 203.011719 C 268.042969 203.515625 268.199219 203.90625 268.511719 204.191406 C 268.828125 204.472656 269.269531 204.613281 269.835938 204.613281 C 270.402344 204.613281 270.84375 204.472656 271.164062 204.191406 C 271.480469 203.90625 271.640625 203.515625 271.640625 203.011719 C 271.640625 202.507812 271.480469 202.117188 271.164062 201.832031 C 270.84375 201.550781 270.402344 201.410156 269.835938 201.410156 C 269.269531 201.410156 268.828125 201.550781 268.511719 201.832031 C 268.199219 202.117188 268.042969 202.507812 268.042969 203.011719 Z M 268.042969 203.011719 "/>
<path style=" stroke:none;fill-rule:nonzero;fill:rgb(0%,0%,0%);fill-opacity:1;" d="M 278.320312 201.410156 C 277.644531 201.410156 277.136719 201.742188 276.792969 202.410156 C 276.453125 203.074219 276.28125 204.078125 276.28125 205.414062 C 276.28125 206.746094 276.453125 207.746094 276.792969 208.414062 C 277.136719 209.078125 277.644531 209.414062 278.320312 209.414062 C 279.003906 209.414062 279.511719 209.078125 279.855469 208.414062 C 280.195312 207.746094 280.367188 206.746094 280.367188 205.414062 C 280.367188 204.078125 280.195312 203.074219 279.855469 202.410156 C 279.511719 201.742188 279.003906 201.410156 278.320312 201.410156 Z M 278.320312 200.367188 C 279.410156 200.367188 280.242188 200.800781 280.816406 201.664062 C 281.394531 202.523438 281.679688 203.773438 281.679688 205.414062 C 281.679688 207.050781 281.394531 208.300781 280.816406 209.164062 C 280.242188 210.023438 279.410156 210.453125 278.320312 210.453125 C 277.230469 210.453125 276.398438 210.023438 275.824219 209.164062 C 275.25 208.300781 274.960938 207.050781 274.960938 205.414062 C 274.960938 203.773438 275.25 202.523438 275.824219 201.664062 C 276.398438 200.800781 277.230469 200.367188 278.320312 200.367188 Z M 278.320312 200.367188 "/>
<g clip-path="url(#clip5)" clip-rule="nonzero">
<path style="fill:none;stroke-width:0.8;stroke-linecap:square;stroke-linejoin:round;stroke:rgb(69.01961%,69.01961%,69.01961%);stroke-opacity:1;stroke-miterlimit:4;" d="M 246.676758 143.100586 L 246.676758 7.201172 " transform="matrix(1.333333,0,0,1.333333,0.000000000000028422,0)"/>
</g>
<path style="fill:none;stroke-width:0.8;stroke-linecap:butt;stroke-linejoin:round;stroke:rgb(0%,0%,0%);stroke-opacity:1;stroke-miterlimit:4;" d="M -0.00137329 0.000579834 L -0.00137329 3.498627 " transform="matrix(1.333333,0,0,1.333333,328.904175,190.800008)"/>
<path style=" stroke:none;fill-rule:nonzero;fill:rgb(0%,0%,0%);fill-opacity:1;" d="M 317.832031 209.160156 L 319.980469 209.160156 L 319.980469 201.742188 L 317.644531 202.210938 L 317.644531 201.011719 L 319.96875 200.542969 L 321.285156 200.542969 L 321.285156 209.160156 L 323.429688 209.160156 L 323.429688 210.265625 L 317.832031 210.265625 Z M 317.832031 209.160156 "/>
<path style=" stroke:none;fill-rule:nonzero;fill:rgb(0%,0%,0%);fill-opacity:1;" d="M 328.898438 201.410156 C 328.222656 201.410156 327.714844 201.742188 327.371094 202.410156 C 327.03125 203.074219 326.863281 204.078125 326.863281 205.414062 C 326.863281 206.746094 327.03125 207.746094 327.371094 208.414062 C 327.714844 209.078125 328.222656 209.414062 328.898438 209.414062 C 329.582031 209.414062 330.09375 209.078125 330.433594 208.414062 C 330.773438 207.746094 330.945312 206.746094 330.945312 205.414062 C 330.945312 204.078125 330.773438 203.074219 330.433594 202.410156 C 330.09375 201.742188 329.582031 201.410156 328.898438 201.410156 Z M 328.898438 200.367188 C 329.988281 200.367188 330.824219 200.800781 331.398438 201.664062 C 331.972656 202.523438 332.261719 203.773438 332.261719 205.414062 C 332.261719 207.050781 331.972656 208.300781 331.398438 209.164062 C 330.824219 210.023438 329.988281 210.453125 328.898438 210.453125 C 327.8125 210.453125 326.980469 210.023438 326.402344 209.164062 C 325.828125 208.300781 325.542969 207.050781 325.542969 205.414062 C 325.542969 203.773438 325.828125 202.523438 326.402344 201.664062 C 326.980469 200.800781 327.8125 200.367188 328.898438 200.367188 Z M 328.898438 200.367188 "/>
<path style=" stroke:none;fill-rule:nonzero;fill:rgb(0%,0%,0%);fill-opacity:1;" d="M 337.382812 201.410156 C 336.707031 201.410156 336.199219 201.742188 335.855469 202.410156 C 335.515625 203.074219 335.34375 204.078125 335.34375 205.414062 C 335.34375 206.746094 335.515625 207.746094 335.855469 208.414062 C 336.199219 209.078125 336.707031 209.414062 337.382812 209.414062 C 338.066406 209.414062 338.574219 209.078125 338.917969 208.414062 C 339.257812 207.746094 339.429688 206.746094 339.429688 205.414062 C 339.429688 204.078125 339.257812 203.074219 338.917969 202.410156 C 338.574219 201.742188 338.066406 201.410156 337.382812 201.410156 Z M 337.382812 200.367188 C 338.472656 200.367188 339.304688 200.800781 339.878906 201.664062 C 340.457031 202.523438 340.742188 203.773438 340.742188 205.414062 C 340.742188 207.050781 340.457031 208.300781 339.878906 209.164062 C 339.304688 210.023438 338.472656 210.453125 337.382812 210.453125 C 336.292969 210.453125 335.460938 210.023438 334.886719 209.164062 C 334.3125 208.300781 334.023438 207.050781 334.023438 205.414062 C 334.023438 203.773438 334.3125 202.523438 334.886719 201.664062 C 335.460938 200.800781 336.292969 200.367188 337.382812 200.367188 Z M 337.382812 200.367188 "/>
<path style=" stroke:none;fill-rule:nonzero;fill:rgb(0%,0%,0%);fill-opacity:1;" d="M 182.421875 224.554688 L 182.421875 225.140625 L 176.914062 225.140625 C 176.964844 225.964844 177.214844 226.59375 177.660156 227.027344 C 178.101562 227.460938 178.722656 227.675781 179.515625 227.675781 C 179.976562 227.675781 180.421875 227.617188 180.855469 227.507812 C 181.285156 227.394531 181.714844 227.222656 182.140625 226.996094 L 182.140625 228.132812 C 181.710938 228.3125 181.269531 228.453125 180.820312 228.546875 C 180.367188 228.644531 179.910156 228.691406 179.445312 228.691406 C 178.28125 228.691406 177.359375 228.351562 176.679688 227.675781 C 176.003906 227 175.664062 226.082031 175.664062 224.925781 C 175.664062 223.734375 175.984375 222.789062 176.628906 222.085938 C 177.273438 221.386719 178.144531 221.035156 179.238281 221.035156 C 180.21875 221.035156 180.992188 221.351562 181.566406 221.984375 C 182.136719 222.613281 182.421875 223.472656 182.421875 224.554688 Z M 181.222656 224.203125 C 181.214844 223.550781 181.03125 223.027344 180.671875 222.636719 C 180.316406 222.246094 179.839844 222.050781 179.25 222.050781 C 178.582031 222.050781 178.046875 222.238281 177.644531 222.617188 C 177.246094 222.996094 177.011719 223.527344 176.953125 224.210938 Z M 181.222656 224.203125 "/>
<path style=" stroke:none;fill-rule:nonzero;fill:rgb(0%,0%,0%);fill-opacity:1;" d="M 185.542969 227.410156 L 185.542969 231.273438 L 184.339844 231.273438 L 184.339844 221.210938 L 185.542969 221.210938 L 185.542969 222.316406 C 185.796875 221.882812 186.117188 221.5625 186.5 221.351562 C 186.882812 221.140625 187.34375 221.035156 187.875 221.035156 C 188.761719 221.035156 189.480469 221.386719 190.035156 222.089844 C 190.589844 222.792969 190.867188 223.714844 190.867188 224.863281 C 190.867188 226.007812 190.589844 226.933594 190.035156 227.636719 C 189.480469 228.339844 188.761719 228.691406 187.875 228.691406 C 187.34375 228.691406 186.882812 228.585938 186.5 228.375 C 186.117188 228.164062 185.796875 227.839844 185.542969 227.410156 Z M 189.621094 224.863281 C 189.621094 223.980469 189.441406 223.289062 189.078125 222.789062 C 188.714844 222.289062 188.21875 222.039062 187.585938 222.039062 C 186.949219 222.039062 186.449219 222.289062 186.089844 222.789062 C 185.726562 223.289062 185.542969 223.980469 185.542969 224.863281 C 185.542969 225.742188 185.726562 226.433594 186.089844 226.933594 C 186.449219 227.4375 186.949219 227.6875 187.585938 227.6875 C 188.21875 227.6875 188.714844 227.4375 189.078125 226.933594 C 189.441406 226.433594 189.621094 225.742188 189.621094 224.863281 Z M 189.621094 224.863281 "/>
<path style=" stroke:none;fill-rule:nonzero;fill:rgb(0%,0%,0%);fill-opacity:1;" d="M 195.675781 222.050781 C 195.035156 222.050781 194.527344 222.300781 194.152344 222.800781 C 193.777344 223.304688 193.589844 223.992188 193.589844 224.863281 C 193.589844 225.734375 193.777344 226.421875 194.148438 226.921875 C 194.519531 227.425781 195.027344 227.675781 195.675781 227.675781 C 196.3125 227.675781 196.820312 227.421875 197.191406 226.921875 C 197.566406 226.417969 197.753906 225.730469 197.753906 224.863281 C 197.753906 224 197.566406 223.3125 197.191406 222.808594 C 196.820312 222.304688 196.3125 222.050781 195.675781 222.050781 Z M 195.675781 221.035156 C 196.714844 221.035156 197.535156 221.375 198.128906 222.050781 C 198.726562 222.726562 199.023438 223.664062 199.023438 224.863281 C 199.023438 226.054688 198.726562 226.992188 198.128906 227.671875 C 197.535156 228.351562 196.714844 228.691406 195.675781 228.691406 C 194.628906 228.691406 193.808594 228.351562 193.214844 227.671875 C 192.625 226.992188 192.328125 226.054688 192.328125 224.863281 C 192.328125 223.664062 192.625 222.726562 193.214844 222.050781 C 193.808594 221.375 194.628906 221.035156 195.675781 221.035156 Z M 195.675781 221.035156 "/>
<path style=" stroke:none;fill-rule:nonzero;fill:rgb(0%,0%,0%);fill-opacity:1;" d="M 206.253906 221.488281 L 206.253906 222.609375 C 205.917969 222.421875 205.578125 222.28125 205.238281 222.191406 C 204.894531 222.097656 204.550781 222.050781 204.207031 222.050781 C 203.425781 222.050781 202.824219 222.296875 202.394531 222.789062 C 201.964844 223.28125 201.75 223.972656 201.75 224.863281 C 201.75 225.753906 201.964844 226.445312 202.394531 226.9375 C 202.824219 227.429688 203.425781 227.675781 204.207031 227.675781 C 204.550781 227.675781 204.894531 227.628906 205.238281 227.535156 C 205.578125 227.441406 205.917969 227.300781 206.253906 227.113281 L 206.253906 228.222656 C 205.921875 228.378906 205.574219 228.496094 205.214844 228.574219 C 204.859375 228.652344 204.476562 228.691406 204.074219 228.691406 C 202.976562 228.691406 202.101562 228.347656 201.457031 227.65625 C 200.808594 226.964844 200.488281 226.035156 200.488281 224.863281 C 200.488281 223.671875 200.8125 222.738281 201.464844 222.058594 C 202.121094 221.375 203.015625 221.035156 204.152344 221.035156 C 204.519531 221.035156 204.882812 221.074219 205.234375 221.148438 C 205.582031 221.226562 205.925781 221.339844 206.253906 221.488281 Z M 206.253906 221.488281 "/>
<path style=" stroke:none;fill-rule:nonzero;fill:rgb(0%,0%,0%);fill-opacity:1;" d="M 214.402344 224.101562 L 214.402344 228.503906 L 213.203125 228.503906 L 213.203125 224.140625 C 213.203125 223.449219 213.066406 222.933594 212.796875 222.589844 C 212.527344 222.25 212.125 222.078125 211.589844 222.078125 C 210.941406 222.078125 210.429688 222.285156 210.058594 222.695312 C 209.683594 223.105469 209.496094 223.667969 209.496094 224.382812 L 209.496094 228.503906 L 208.292969 228.503906 L 208.292969 218.371094 L 209.496094 218.371094 L 209.496094 222.34375 C 209.785156 221.90625 210.121094 221.578125 210.507812 221.359375 C 210.898438 221.144531 211.347656 221.035156 211.855469 221.035156 C 212.691406 221.035156 213.324219 221.292969 213.753906 221.8125 C 214.183594 222.332031 214.402344 223.09375 214.402344 224.101562 Z M 214.402344 224.101562 "/>
<path style=" stroke:none;fill-rule:nonzero;fill:rgb(0%,0%,0%);fill-opacity:1;" d="M 221.4375 221.425781 L 221.4375 222.558594 C 221.097656 222.382812 220.746094 222.253906 220.382812 222.167969 C 220.019531 222.082031 219.640625 222.039062 219.25 222.039062 C 218.65625 222.039062 218.207031 222.128906 217.910156 222.308594 C 217.613281 222.492188 217.464844 222.765625 217.464844 223.132812 C 217.464844 223.410156 217.570312 223.628906 217.785156 223.785156 C 217.996094 223.945312 218.425781 224.09375 219.066406 224.238281 L 219.476562 224.328125 C 220.328125 224.511719 220.933594 224.769531 221.289062 225.101562 C 221.648438 225.433594 221.828125 225.894531 221.828125 226.488281 C 221.828125 227.167969 221.558594 227.703125 221.023438 228.101562 C 220.488281 228.496094 219.75 228.691406 218.8125 228.691406 C 218.421875 228.691406 218.015625 228.652344 217.59375 228.578125 C 217.167969 228.5 216.722656 228.386719 216.253906 228.234375 L 216.253906 226.996094 C 216.699219 227.226562 217.132812 227.402344 217.5625 227.515625 C 217.992188 227.628906 218.417969 227.6875 218.839844 227.6875 C 219.40625 227.6875 219.839844 227.589844 220.140625 227.398438 C 220.445312 227.203125 220.597656 226.933594 220.597656 226.582031 C 220.597656 226.257812 220.488281 226.007812 220.269531 225.832031 C 220.050781 225.660156 219.570312 225.492188 218.828125 225.332031 L 218.410156 225.234375 C 217.667969 225.078125 217.132812 224.839844 216.800781 224.515625 C 216.472656 224.191406 216.308594 223.746094 216.308594 223.183594 C 216.308594 222.496094 216.550781 221.96875 217.035156 221.597656 C 217.523438 221.222656 218.214844 221.035156 219.109375 221.035156 C 219.550781 221.035156 219.964844 221.066406 220.355469 221.132812 C 220.746094 221.195312 221.109375 221.292969 221.4375 221.425781 Z M 221.4375 221.425781 "/>
<g clip-path="url(#clip6)" clip-rule="nonzero">
<path style="fill:none;stroke-width:0.8;stroke-linecap:square;stroke-linejoin:round;stroke:rgb(69.01961%,69.01961%,69.01961%);stroke-opacity:1;stroke-miterlimit:4;" d="M 51.37793 120.679688 L 246.676758 120.679688 " transform="matrix(1.333333,0,0,1.333333,0.000000000000028422,0)"/>
</g>
<path style="fill:none;stroke-width:0.8;stroke-linecap:butt;stroke-linejoin:round;stroke:rgb(0%,0%,0%);stroke-opacity:1;stroke-miterlimit:4;" d="M -0.00019455 -0.000144958 L -3.501171 -0.000144958 " transform="matrix(1.333333,0,0,1.333333,68.504166,160.906443)"/>
<path style=" stroke:none;fill-rule:nonzero;fill:rgb(0%,0%,0%);fill-opacity:1;" d="M 29.492188 164.765625 L 31.640625 164.765625 L 31.640625 157.347656 L 29.300781 157.816406 L 29.300781 156.617188 L 31.628906 156.148438 L 32.941406 156.148438 L 32.941406 164.765625 L 35.089844 164.765625 L 35.089844 165.871094 L 29.492188 165.871094 Z M 29.492188 164.765625 "/>
<path style=" stroke:none;fill-rule:nonzero;fill:rgb(0%,0%,0%);fill-opacity:1;" d="M 40.558594 157.015625 C 39.882812 157.015625 39.371094 157.347656 39.03125 158.015625 C 38.691406 158.679688 38.519531 159.683594 38.519531 161.019531 C 38.519531 162.351562 38.691406 163.351562 39.03125 164.019531 C 39.371094 164.683594 39.882812 165.019531 40.558594 165.019531 C 41.238281 165.019531 41.75 164.683594 42.089844 164.019531 C 42.433594 163.351562 42.605469 162.351562 42.605469 161.019531 C 42.605469 159.683594 42.433594 158.679688 42.089844 158.015625 C 41.75 157.347656 41.238281 157.015625 40.558594 157.015625 Z M 40.558594 155.972656 C 41.648438 155.972656 42.480469 156.40625 43.054688 157.269531 C 43.632812 158.128906 43.917969 159.378906 43.917969 161.019531 C 43.917969 162.65625 43.632812 163.90625 43.054688 164.769531 C 42.480469 165.628906 41.648438 166.058594 40.558594 166.058594 C 39.46875 166.058594 38.636719 165.628906 38.0625 164.769531 C 37.488281 163.90625 37.199219 162.65625 37.199219 161.019531 C 37.199219 159.378906 37.488281 158.128906 38.0625 157.269531 C 38.636719 156.40625 39.46875 155.972656 40.558594 155.972656 Z M 40.558594 155.972656 "/>
<path style=" stroke:none;fill-rule:nonzero;fill:rgb(0%,0%,0%);fill-opacity:1;" d="M 45.921875 157.453125 L 51.761719 157.453125 L 51.761719 158.226562 L 45.921875 158.226562 Z M 45.921875 157.453125 "/>
<path style=" stroke:none;fill-rule:nonzero;fill:rgb(0%,0%,0%);fill-opacity:1;" d="M 53.777344 160.625 L 53.777344 159.785156 C 54.007812 159.894531 54.242188 159.980469 54.476562 160.035156 C 54.714844 160.09375 54.949219 160.121094 55.175781 160.121094 C 55.785156 160.121094 56.25 159.917969 56.566406 159.511719 C 56.890625 159.101562 57.070312 158.480469 57.117188 157.648438 C 56.941406 157.910156 56.71875 158.109375 56.445312 158.25 C 56.175781 158.390625 55.878906 158.460938 55.550781 158.460938 C 54.871094 158.460938 54.332031 158.253906 53.933594 157.84375 C 53.539062 157.429688 53.339844 156.867188 53.339844 156.152344 C 53.339844 155.453125 53.546875 154.894531 53.960938 154.472656 C 54.371094 154.050781 54.921875 153.839844 55.609375 153.839844 C 56.394531 153.839844 56.996094 154.140625 57.410156 154.746094 C 57.824219 155.347656 58.035156 156.222656 58.035156 157.371094 C 58.035156 158.441406 57.777344 159.300781 57.269531 159.9375 C 56.761719 160.578125 56.078125 160.898438 55.21875 160.898438 C 54.984375 160.898438 54.75 160.875 54.515625 160.828125 C 54.277344 160.785156 54.03125 160.714844 53.777344 160.625 Z M 55.609375 157.738281 C 56.023438 157.738281 56.347656 157.597656 56.589844 157.316406 C 56.832031 157.035156 56.953125 156.644531 56.953125 156.152344 C 56.953125 155.664062 56.832031 155.277344 56.589844 154.992188 C 56.347656 154.710938 56.023438 154.566406 55.609375 154.566406 C 55.195312 154.566406 54.867188 154.710938 54.628906 154.992188 C 54.386719 155.277344 54.265625 155.664062 54.265625 156.152344 C 54.265625 156.644531 54.386719 157.035156 54.628906 157.316406 C 54.867188 157.597656 55.195312 157.738281 55.609375 157.738281 Z M 55.609375 157.738281 "/>
<g clip-path="url(#clip7)" clip-rule="nonzero">
<path style="fill:none;stroke-width:0.8;stroke-linecap:square;stroke-linejoin:round;stroke:rgb(69.01961%,69.01961%,69.01961%);stroke-opacity:1;stroke-miterlimit:4;" d="M 51.37793 92.264648 L 246.676758 92.264648 " transform="matrix(1.333333,0,0,1.333333,0.000000000000028422,0)"/>
</g>
<path style="fill:none;stroke-width:0.8;stroke-linecap:butt;stroke-linejoin:round;stroke:rgb(0%,0%,0%);stroke-opacity:1;stroke-miterlimit:4;" d="M -0.00019455 0.00107574 L -3.501171 0.00107574 " transform="matrix(1.333333,0,0,1.333333,68.504166,123.018097)"/>
<path style=" stroke:none;fill-rule:nonzero;fill:rgb(0%,0%,0%);fill-opacity:1;" d="M 29.492188 126.875 L 31.640625 126.875 L 31.640625 119.457031 L 29.300781 119.925781 L 29.300781 118.730469 L 31.628906 118.261719 L 32.941406 118.261719 L 32.941406 126.875 L 35.089844 126.875 L 35.089844 127.980469 L 29.492188 127.980469 Z M 29.492188 126.875 "/>
<path style=" stroke:none;fill-rule:nonzero;fill:rgb(0%,0%,0%);fill-opacity:1;" d="M 40.558594 119.128906 C 39.882812 119.128906 39.371094 119.460938 39.03125 120.128906 C 38.691406 120.792969 38.519531 121.792969 38.519531 123.132812 C 38.519531 124.464844 38.691406 125.464844 39.03125 126.128906 C 39.371094 126.796875 39.882812 127.128906 40.558594 127.128906 C 41.238281 127.128906 41.75 126.796875 42.089844 126.128906 C 42.433594 125.464844 42.605469 124.464844 42.605469 123.132812 C 42.605469 121.792969 42.433594 120.792969 42.089844 120.128906 C 41.75 119.460938 41.238281 119.128906 40.558594 119.128906 Z M 40.558594 118.085938 C 41.648438 118.085938 42.480469 118.515625 43.054688 119.378906 C 43.632812 120.242188 43.917969 121.492188 43.917969 123.132812 C 43.917969 124.769531 43.632812 126.015625 43.054688 126.878906 C 42.480469 127.742188 41.648438 128.171875 40.558594 128.171875 C 39.46875 128.171875 38.636719 127.742188 38.0625 126.878906 C 37.488281 126.015625 37.199219 124.769531 37.199219 123.132812 C 37.199219 121.492188 37.488281 120.242188 38.0625 119.378906 C 38.636719 118.515625 39.46875 118.085938 40.558594 118.085938 Z M 40.558594 118.085938 "/>
<path style=" stroke:none;fill-rule:nonzero;fill:rgb(0%,0%,0%);fill-opacity:1;" d="M 45.921875 119.5625 L 51.761719 119.5625 L 51.761719 120.339844 L 45.921875 120.339844 Z M 45.921875 119.5625 "/>
<path style=" stroke:none;fill-rule:nonzero;fill:rgb(0%,0%,0%);fill-opacity:1;" d="M 55.832031 119.109375 C 55.417969 119.109375 55.09375 119.25 54.851562 119.535156 C 54.609375 119.816406 54.488281 120.203125 54.488281 120.695312 C 54.488281 121.183594 54.609375 121.570312 54.851562 121.855469 C 55.09375 122.140625 55.417969 122.28125 55.832031 122.28125 C 56.246094 122.28125 56.574219 122.140625 56.816406 121.855469 C 57.054688 121.570312 57.175781 121.183594 57.175781 120.695312 C 57.175781 120.203125 57.054688 119.816406 56.816406 119.535156 C 56.574219 119.25 56.246094 119.109375 55.832031 119.109375 Z M 57.660156 116.222656 L 57.660156 117.0625 C 57.429688 116.953125 57.195312 116.871094 56.960938 116.8125 C 56.726562 116.753906 56.492188 116.726562 56.261719 116.726562 C 55.652344 116.726562 55.1875 116.929688 54.867188 117.339844 C 54.546875 117.75 54.363281 118.371094 54.320312 119.199219 C 54.5 118.933594 54.722656 118.730469 54.992188 118.589844 C 55.265625 118.449219 55.5625 118.378906 55.886719 118.378906 C 56.570312 118.378906 57.109375 118.585938 57.507812 119.003906 C 57.902344 119.417969 58.101562 119.980469 58.101562 120.695312 C 58.101562 121.394531 57.894531 121.953125 57.480469 122.378906 C 57.070312 122.800781 56.519531 123.011719 55.832031 123.011719 C 55.046875 123.011719 54.445312 122.707031 54.027344 122.105469 C 53.613281 121.503906 53.402344 120.628906 53.402344 119.484375 C 53.402344 118.40625 53.660156 117.550781 54.167969 116.910156 C 54.679688 116.269531 55.363281 115.949219 56.222656 115.949219 C 56.457031 115.949219 56.6875 115.972656 56.925781 116.019531 C 57.160156 116.066406 57.40625 116.132812 57.660156 116.222656 Z M 57.660156 116.222656 "/>
<g clip-path="url(#clip8)" clip-rule="nonzero">
<path style="fill:none;stroke-width:0.8;stroke-linecap:square;stroke-linejoin:round;stroke:rgb(69.01961%,69.01961%,69.01961%);stroke-opacity:1;stroke-miterlimit:4;" d="M 51.37793 63.84668 L 246.676758 63.84668 " transform="matrix(1.333333,0,0,1.333333,0.000000000000028422,0)"/>
</g>
<path style="fill:none;stroke-width:0.8;stroke-linecap:butt;stroke-linejoin:round;stroke:rgb(0%,0%,0%);stroke-opacity:1;stroke-miterlimit:4;" d="M -0.00019455 -0.000644684 L -3.501171 -0.000644684 " transform="matrix(1.333333,0,0,1.333333,68.504166,85.129766)"/>
<path style=" stroke:none;fill-rule:nonzero;fill:rgb(0%,0%,0%);fill-opacity:1;" d="M 29.492188 88.988281 L 31.640625 88.988281 L 31.640625 81.570312 L 29.300781 82.039062 L 29.300781 80.839844 L 31.628906 80.371094 L 32.941406 80.371094 L 32.941406 88.988281 L 35.089844 88.988281 L 35.089844 90.09375 L 29.492188 90.09375 Z M 29.492188 88.988281 "/>
<path style=" stroke:none;fill-rule:nonzero;fill:rgb(0%,0%,0%);fill-opacity:1;" d="M 40.558594 81.238281 C 39.882812 81.238281 39.371094 81.574219 39.03125 82.238281 C 38.691406 82.90625 38.519531 83.90625 38.519531 85.242188 C 38.519531 86.574219 38.691406 87.574219 39.03125 88.242188 C 39.371094 88.90625 39.882812 89.242188 40.558594 89.242188 C 41.238281 89.242188 41.75 88.90625 42.089844 88.242188 C 42.433594 87.574219 42.605469 86.574219 42.605469 85.242188 C 42.605469 83.90625 42.433594 82.90625 42.089844 82.238281 C 41.75 81.574219 41.238281 81.238281 40.558594 81.238281 Z M 40.558594 80.199219 C 41.648438 80.199219 42.480469 80.628906 43.054688 81.492188 C 43.632812 82.351562 43.917969 83.601562 43.917969 85.242188 C 43.917969 86.878906 43.632812 88.128906 43.054688 88.992188 C 42.480469 89.851562 41.648438 90.28125 40.558594 90.28125 C 39.46875 90.28125 38.636719 89.851562 38.0625 88.992188 C 37.488281 88.128906 37.199219 86.878906 37.199219 85.242188 C 37.199219 83.601562 37.488281 82.351562 38.0625 81.492188 C 38.636719 80.628906 39.46875 80.199219 40.558594 80.199219 Z M 40.558594 80.199219 "/>
<path style=" stroke:none;fill-rule:nonzero;fill:rgb(0%,0%,0%);fill-opacity:1;" d="M 45.921875 81.675781 L 51.761719 81.675781 L 51.761719 82.449219 L 45.921875 82.449219 Z M 45.921875 81.675781 "/>
<path style=" stroke:none;fill-rule:nonzero;fill:rgb(0%,0%,0%);fill-opacity:1;" d="M 56.539062 81.320312 C 56.980469 81.414062 57.324219 81.609375 57.570312 81.910156 C 57.816406 82.207031 57.941406 82.574219 57.941406 83.011719 C 57.941406 83.683594 57.710938 84.203125 57.25 84.570312 C 56.789062 84.9375 56.132812 85.121094 55.28125 85.121094 C 54.996094 85.121094 54.703125 85.09375 54.398438 85.039062 C 54.097656 84.980469 53.785156 84.894531 53.464844 84.785156 L 53.464844 83.894531 C 53.71875 84.042969 53.996094 84.15625 54.300781 84.230469 C 54.605469 84.308594 54.921875 84.347656 55.253906 84.347656 C 55.832031 84.347656 56.269531 84.230469 56.574219 84.003906 C 56.875 83.777344 57.027344 83.445312 57.027344 83.011719 C 57.027344 82.609375 56.886719 82.296875 56.605469 82.070312 C 56.324219 81.84375 55.933594 81.730469 55.433594 81.730469 L 54.636719 81.730469 L 54.636719 80.972656 L 55.46875 80.972656 C 55.921875 80.972656 56.265625 80.882812 56.507812 80.703125 C 56.746094 80.523438 56.867188 80.261719 56.867188 79.921875 C 56.867188 79.574219 56.742188 79.304688 56.496094 79.117188 C 56.25 78.929688 55.894531 78.835938 55.433594 78.835938 C 55.179688 78.835938 54.910156 78.863281 54.621094 78.917969 C 54.332031 78.972656 54.011719 79.058594 53.667969 79.171875 L 53.667969 78.355469 C 54.015625 78.257812 54.34375 78.183594 54.648438 78.136719 C 54.957031 78.085938 55.242188 78.0625 55.511719 78.0625 C 56.210938 78.0625 56.765625 78.222656 57.171875 78.539062 C 57.578125 78.855469 57.78125 79.285156 57.78125 79.824219 C 57.78125 80.203125 57.675781 80.519531 57.460938 80.78125 C 57.242188 81.039062 56.9375 81.21875 56.539062 81.320312 Z M 56.539062 81.320312 "/>
<g clip-path="url(#clip9)" clip-rule="nonzero">
<path style="fill:none;stroke-width:0.8;stroke-linecap:square;stroke-linejoin:round;stroke:rgb(69.01961%,69.01961%,69.01961%);stroke-opacity:1;stroke-miterlimit:4;" d="M 51.37793 35.431641 L 246.676758 35.431641 " transform="matrix(1.333333,0,0,1.333333,0.000000000000028422,0)"/>
</g>
<path style="fill:none;stroke-width:0.8;stroke-linecap:butt;stroke-linejoin:round;stroke:rgb(0%,0%,0%);stroke-opacity:1;stroke-miterlimit:4;" d="M -0.00019455 0.000572205 L -3.501171 0.000572205 " transform="matrix(1.333333,0,0,1.333333,68.504166,47.241425)"/>
<path style=" stroke:none;fill-rule:nonzero;fill:rgb(0%,0%,0%);fill-opacity:1;" d="M 37.359375 51.097656 L 39.507812 51.097656 L 39.507812 43.683594 L 37.167969 44.152344 L 37.167969 42.953125 L 39.492188 42.484375 L 40.808594 42.484375 L 40.808594 51.097656 L 42.957031 51.097656 L 42.957031 52.203125 L 37.359375 52.203125 Z M 37.359375 51.097656 "/>
<path style=" stroke:none;fill-rule:nonzero;fill:rgb(0%,0%,0%);fill-opacity:1;" d="M 48.425781 43.351562 C 47.75 43.351562 47.238281 43.683594 46.898438 44.351562 C 46.558594 45.015625 46.386719 46.015625 46.386719 47.355469 C 46.386719 48.6875 46.558594 49.6875 46.898438 50.351562 C 47.238281 51.019531 47.75 51.351562 48.425781 51.351562 C 49.105469 51.351562 49.617188 51.019531 49.957031 50.351562 C 50.300781 49.6875 50.46875 48.6875 50.46875 47.355469 C 50.46875 46.015625 50.300781 45.015625 49.957031 44.351562 C 49.617188 43.683594 49.105469 43.351562 48.425781 43.351562 Z M 48.425781 42.308594 C 49.515625 42.308594 50.347656 42.742188 50.921875 43.601562 C 51.496094 44.464844 51.785156 45.714844 51.785156 47.355469 C 51.785156 48.992188 51.496094 50.242188 50.921875 51.101562 C 50.347656 51.964844 49.515625 52.394531 48.425781 52.394531 C 47.335938 52.394531 46.503906 51.964844 45.929688 51.101562 C 45.355469 50.242188 45.066406 48.992188 45.066406 47.355469 C 45.066406 45.714844 45.355469 44.464844 45.929688 43.601562 C 46.503906 42.742188 47.335938 42.308594 48.425781 42.308594 Z M 48.425781 42.308594 "/>
<path style=" stroke:none;fill-rule:nonzero;fill:rgb(0%,0%,0%);fill-opacity:1;" d="M 55.765625 40.902344 C 55.289062 40.902344 54.933594 41.136719 54.695312 41.601562 C 54.457031 42.070312 54.339844 42.769531 54.339844 43.707031 C 54.339844 44.636719 54.457031 45.335938 54.695312 45.804688 C 54.933594 46.269531 55.289062 46.503906 55.765625 46.503906 C 56.242188 46.503906 56.597656 46.269531 56.835938 45.804688 C 57.078125 45.335938 57.195312 44.636719 57.195312 43.707031 C 57.195312 42.769531 57.078125 42.070312 56.835938 41.601562 C 56.597656 41.136719 56.242188 40.902344 55.765625 40.902344 Z M 55.765625 40.171875 C 56.527344 40.171875 57.109375 40.476562 57.511719 41.078125 C 57.914062 41.683594 58.117188 42.558594 58.117188 43.707031 C 58.117188 44.851562 57.914062 45.726562 57.511719 46.328125 C 57.109375 46.933594 56.527344 47.234375 55.765625 47.234375 C 55 47.234375 54.417969 46.933594 54.015625 46.328125 C 53.613281 45.726562 53.414062 44.851562 53.414062 43.707031 C 53.414062 42.558594 53.613281 41.683594 54.015625 41.078125 C 54.417969 40.476562 55 40.171875 55.765625 40.171875 Z M 55.765625 40.171875 "/>
<path style=" stroke:none;fill-rule:nonzero;fill:rgb(0%,0%,0%);fill-opacity:1;" d="M 9.601562 111.820312 L 9.601562 110.621094 L 19.730469 110.621094 L 19.730469 111.820312 Z M 9.601562 111.820312 "/>
<path style=" stroke:none;fill-rule:nonzero;fill:rgb(0%,0%,0%);fill-opacity:1;" d="M 13.277344 105.292969 C 13.277344 105.933594 13.53125 106.441406 14.03125 106.8125 C 14.53125 107.1875 15.21875 107.375 16.089844 107.375 C 16.964844 107.375 17.652344 107.1875 18.152344 106.820312 C 18.652344 106.445312 18.902344 105.9375 18.902344 105.292969 C 18.902344 104.652344 18.652344 104.148438 18.148438 103.773438 C 17.644531 103.402344 16.960938 103.214844 16.089844 103.214844 C 15.226562 103.214844 14.542969 103.402344 14.039062 103.773438 C 13.53125 104.148438 13.277344 104.652344 13.277344 105.292969 Z M 12.265625 105.292969 C 12.265625 104.25 12.601562 103.433594 13.28125 102.835938 C 13.957031 102.242188 14.894531 101.945312 16.089844 101.945312 C 17.285156 101.945312 18.222656 102.242188 18.902344 102.835938 C 19.582031 103.433594 19.921875 104.25 19.921875 105.292969 C 19.921875 106.335938 19.582031 107.15625 18.902344 107.75 C 18.222656 108.339844 17.285156 108.636719 16.089844 108.636719 C 14.894531 108.636719 13.957031 108.339844 13.28125 107.75 C 12.601562 107.15625 12.265625 106.335938 12.265625 105.292969 Z M 12.265625 105.292969 "/>
<path style=" stroke:none;fill-rule:nonzero;fill:rgb(0%,0%,0%);fill-opacity:1;" d="M 12.652344 95.3125 L 13.789062 95.3125 C 13.613281 95.648438 13.484375 96 13.398438 96.363281 C 13.308594 96.730469 13.265625 97.105469 13.265625 97.5 C 13.265625 98.09375 13.359375 98.539062 13.539062 98.835938 C 13.722656 99.132812 13.996094 99.28125 14.359375 99.28125 C 14.636719 99.28125 14.855469 99.175781 15.015625 98.964844 C 15.171875 98.75 15.324219 98.324219 15.464844 97.679688 L 15.558594 97.269531 C 15.742188 96.417969 15.996094 95.816406 16.328125 95.457031 C 16.660156 95.097656 17.125 94.917969 17.71875 94.917969 C 18.398438 94.917969 18.933594 95.1875 19.328125 95.722656 C 19.722656 96.257812 19.921875 96.996094 19.921875 97.933594 C 19.921875 98.324219 19.882812 98.730469 19.804688 99.15625 C 19.730469 99.578125 19.617188 100.023438 19.464844 100.492188 L 18.226562 100.492188 C 18.457031 100.050781 18.628906 99.613281 18.746094 99.183594 C 18.859375 98.753906 18.917969 98.328125 18.917969 97.90625 C 18.917969 97.34375 18.820312 96.910156 18.628906 96.605469 C 18.433594 96.300781 18.160156 96.152344 17.808594 96.152344 C 17.484375 96.152344 17.234375 96.261719 17.0625 96.480469 C 16.890625 96.699219 16.722656 97.179688 16.558594 97.921875 L 16.460938 98.339844 C 16.308594 99.078125 16.066406 99.617188 15.742188 99.945312 C 15.421875 100.277344 14.976562 100.441406 14.414062 100.441406 C 13.726562 100.441406 13.195312 100.195312 12.824219 99.710938 C 12.453125 99.226562 12.265625 98.535156 12.265625 97.640625 C 12.265625 97.199219 12.296875 96.78125 12.363281 96.390625 C 12.425781 96 12.523438 95.640625 12.652344 95.3125 Z M 12.652344 95.3125 "/>
<path style=" stroke:none;fill-rule:nonzero;fill:rgb(0%,0%,0%);fill-opacity:1;" d="M 12.652344 88.363281 L 13.789062 88.363281 C 13.613281 88.703125 13.484375 89.054688 13.398438 89.417969 C 13.308594 89.78125 13.265625 90.160156 13.265625 90.550781 C 13.265625 91.144531 13.359375 91.59375 13.539062 91.890625 C 13.722656 92.1875 13.996094 92.335938 14.359375 92.335938 C 14.636719 92.335938 14.855469 92.230469 15.015625 92.015625 C 15.171875 91.804688 15.324219 91.375 15.464844 90.734375 L 15.558594 90.324219 C 15.742188 89.472656 15.996094 88.867188 16.328125 88.511719 C 16.660156 88.152344 17.125 87.972656 17.71875 87.972656 C 18.398438 87.972656 18.933594 88.242188 19.328125 88.777344 C 19.722656 89.3125 19.921875 90.050781 19.921875 90.988281 C 19.921875 91.378906 19.882812 91.785156 19.804688 92.207031 C 19.730469 92.632812 19.617188 93.078125 19.464844 93.546875 L 18.226562 93.546875 C 18.457031 93.101562 18.628906 92.667969 18.746094 92.238281 C 18.859375 91.808594 18.917969 91.382812 18.917969 90.960938 C 18.917969 90.394531 18.820312 89.964844 18.628906 89.660156 C 18.433594 89.355469 18.160156 89.203125 17.808594 89.203125 C 17.484375 89.203125 17.234375 89.3125 17.0625 89.53125 C 16.890625 89.75 16.722656 90.230469 16.558594 90.976562 L 16.460938 91.390625 C 16.308594 92.132812 16.066406 92.667969 15.742188 93 C 15.421875 93.328125 14.976562 93.492188 14.414062 93.492188 C 13.726562 93.492188 13.195312 93.25 12.824219 92.765625 C 12.453125 92.277344 12.265625 91.589844 12.265625 90.695312 C 12.265625 90.25 12.296875 89.835938 12.363281 89.445312 C 12.425781 89.054688 12.523438 88.695312 12.652344 88.363281 Z M 12.652344 88.363281 "/>
<g clip-path="url(#clip10)" clip-rule="nonzero">
<path style="fill:none;stroke-width:1.5;stroke-linecap:square;stroke-linejoin:round;stroke:rgb(12.156863%,46.666667%,70.588237%);stroke-opacity:1;stroke-miterlimit:4;" d="M 51.37793 26.994141 L 61.658203 35.991211 L 71.935547 43.705078 L 82.21582 50.750977 L 92.493164 57.357422 L 102.773437 63.732422 L 113.050781 69.870117 L 123.331055 75.852539 L 133.608398 81.720703 L 143.888672 87.503906 L 154.168945 93.228516 L 164.446289 98.932617 L 174.726562 104.607422 L 185.003906 110.25 L 195.28418 115.842773 L 205.561523 121.356445 L 215.841797 126.770508 L 226.119141 131.80957 L 236.399414 134.704102 L 246.676758 136.921875 " transform="matrix(1.333333,0,0,1.333333,0.000000000000028422,0)"/>
</g>
<g clip-path="url(#clip11)" clip-rule="nonzero">
<path style="fill:none;stroke-width:1.5;stroke-linecap:butt;stroke-linejoin:round;stroke:rgb(74.901962%,0%,74.901962%);stroke-opacity:1;stroke-dasharray:5.55,2.4;stroke-miterlimit:4;" d="M 51.37793 13.376953 L 61.658203 13.435547 L 71.935547 13.450195 L 82.21582 13.456055 L 92.493164 13.458984 L 246.676758 13.458984 " transform="matrix(1.333333,0,0,1.333333,0.000000000000028422,0)"/>
</g>
<path style="fill:none;stroke-width:0.8;stroke-linecap:square;stroke-linejoin:miter;stroke:rgb(0%,0%,0%);stroke-opacity:1;stroke-miterlimit:4;" d="M 51.37793 143.100586 L 51.37793 7.201172 " transform="matrix(1.333333,0,0,1.333333,0.000000000000028422,0)"/>
<path style="fill:none;stroke-width:0.8;stroke-linecap:square;stroke-linejoin:miter;stroke:rgb(0%,0%,0%);stroke-opacity:1;stroke-miterlimit:4;" d="M 246.676758 143.100586 L 246.676758 7.201172 " transform="matrix(1.333333,0,0,1.333333,0.000000000000028422,0)"/>
<path style="fill:none;stroke-width:0.8;stroke-linecap:square;stroke-linejoin:miter;stroke:rgb(0%,0%,0%);stroke-opacity:1;stroke-miterlimit:4;" d="M 51.37793 143.100586 L 246.676758 143.100586 " transform="matrix(1.333333,0,0,1.333333,0.000000000000028422,0)"/>
<path style="fill:none;stroke-width:0.8;stroke-linecap:square;stroke-linejoin:miter;stroke:rgb(0%,0%,0%);stroke-opacity:1;stroke-miterlimit:4;" d="M 51.37793 7.201172 L 246.676758 7.201172 " transform="matrix(1.333333,0,0,1.333333,0.000000000000028422,0)"/>
<use xlink:href="#surface5" mask="url(#mask0)"/>
<path style="fill:none;stroke-width:1.5;stroke-linecap:square;stroke-linejoin:round;stroke:rgb(12.156863%,46.666667%,70.588237%);stroke-opacity:1;stroke-miterlimit:4;" d="M 60.37793 113.841797 L 80.378906 113.841797 " transform="matrix(1.333333,0,0,1.333333,0.000000000000028422,0)"/>
<path style=" stroke:none;fill-rule:nonzero;fill:rgb(0%,0%,0%);fill-opacity:1;" d="M 120.277344 147.09375 L 120.277344 149.164062 L 122.746094 149.164062 L 122.746094 150.097656 L 120.277344 150.097656 L 120.277344 154.054688 C 120.277344 154.648438 120.359375 155.03125 120.523438 155.199219 C 120.683594 155.371094 121.015625 155.453125 121.515625 155.453125 L 122.746094 155.453125 L 122.746094 156.457031 L 121.515625 156.457031 C 120.589844 156.457031 119.953125 156.285156 119.601562 155.941406 C 119.25 155.59375 119.074219 154.964844 119.074219 154.054688 L 119.074219 150.097656 L 118.195312 150.097656 L 118.195312 149.164062 L 119.074219 149.164062 L 119.074219 147.09375 Z M 120.277344 147.09375 "/>
<path style=" stroke:none;fill-rule:nonzero;fill:rgb(0%,0%,0%);fill-opacity:1;" d="M 128.546875 150.285156 C 128.410156 150.207031 128.265625 150.148438 128.105469 150.113281 C 127.949219 150.074219 127.773438 150.054688 127.585938 150.054688 C 126.90625 150.054688 126.386719 150.277344 126.023438 150.714844 C 125.660156 151.15625 125.480469 151.789062 125.480469 152.613281 L 125.480469 156.457031 L 124.277344 156.457031 L 124.277344 149.164062 L 125.480469 149.164062 L 125.480469 150.296875 C 125.734375 149.855469 126.058594 149.527344 126.464844 149.3125 C 126.867188 149.097656 127.359375 148.988281 127.9375 148.988281 C 128.019531 148.988281 128.109375 148.996094 128.210938 149.007812 C 128.308594 149.015625 128.417969 149.03125 128.539062 149.054688 Z M 128.546875 150.285156 "/>
<path style=" stroke:none;fill-rule:nonzero;fill:rgb(0%,0%,0%);fill-opacity:1;" d="M 133.117188 152.792969 C 132.148438 152.792969 131.480469 152.902344 131.105469 153.121094 C 130.730469 153.34375 130.546875 153.722656 130.546875 154.257812 C 130.546875 154.679688 130.683594 155.019531 130.964844 155.269531 C 131.246094 155.515625 131.628906 155.640625 132.109375 155.640625 C 132.773438 155.640625 133.304688 155.40625 133.707031 154.933594 C 134.109375 154.464844 134.308594 153.839844 134.308594 153.058594 L 134.308594 152.792969 Z M 135.507812 152.296875 L 135.507812 156.457031 L 134.308594 156.457031 L 134.308594 155.351562 C 134.035156 155.792969 133.695312 156.117188 133.285156 156.328125 C 132.878906 156.539062 132.378906 156.644531 131.789062 156.644531 C 131.042969 156.644531 130.449219 156.4375 130.007812 156.015625 C 129.566406 155.597656 129.347656 155.035156 129.347656 154.332031 C 129.347656 153.515625 129.621094 152.894531 130.171875 152.480469 C 130.71875 152.0625 131.539062 151.855469 132.628906 151.855469 L 134.308594 151.855469 L 134.308594 151.734375 C 134.308594 151.183594 134.128906 150.757812 133.765625 150.457031 C 133.402344 150.15625 132.894531 150.003906 132.238281 150.003906 C 131.820312 150.003906 131.414062 150.054688 131.019531 150.152344 C 130.625 150.253906 130.246094 150.402344 129.882812 150.605469 L 129.882812 149.496094 C 130.320312 149.328125 130.746094 149.199219 131.15625 149.117188 C 131.570312 149.03125 131.972656 148.988281 132.363281 148.988281 C 133.417969 148.988281 134.207031 149.261719 134.726562 149.808594 C 135.246094 150.355469 135.507812 151.183594 135.507812 152.296875 Z M 135.507812 152.296875 "/>
<path style=" stroke:none;fill-rule:nonzero;fill:rgb(0%,0%,0%);fill-opacity:1;" d="M 137.972656 149.164062 L 139.171875 149.164062 L 139.171875 156.457031 L 137.972656 156.457031 Z M 137.972656 146.324219 L 139.171875 146.324219 L 139.171875 147.84375 L 137.972656 147.84375 Z M 137.972656 146.324219 "/>
<path style=" stroke:none;fill-rule:nonzero;fill:rgb(0%,0%,0%);fill-opacity:1;" d="M 147.742188 152.054688 L 147.742188 156.457031 L 146.542969 156.457031 L 146.542969 152.09375 C 146.542969 151.402344 146.410156 150.886719 146.140625 150.546875 C 145.871094 150.203125 145.464844 150.03125 144.929688 150.03125 C 144.28125 150.03125 143.769531 150.238281 143.398438 150.648438 C 143.023438 151.0625 142.835938 151.621094 142.835938 152.335938 L 142.835938 156.457031 L 141.632812 156.457031 L 141.632812 149.164062 L 142.835938 149.164062 L 142.835938 150.296875 C 143.125 149.859375 143.460938 149.53125 143.847656 149.316406 C 144.238281 149.097656 144.6875 148.988281 145.195312 148.988281 C 146.03125 148.988281 146.664062 149.25 147.09375 149.765625 C 147.527344 150.285156 147.742188 151.046875 147.742188 152.054688 Z M 147.742188 152.054688 "/>
<path style="fill:none;stroke-width:1.5;stroke-linecap:butt;stroke-linejoin:round;stroke:rgb(74.901962%,0%,74.901962%);stroke-opacity:1;stroke-dasharray:5.55,2.4;stroke-miterlimit:4;" d="M 60.37793 128.519531 L 80.378906 128.519531 " transform="matrix(1.333333,0,0,1.333333,0.000000000000028422,0)"/>
<path style=" stroke:none;fill-rule:nonzero;fill:rgb(0%,0%,0%);fill-opacity:1;" d="M 120.277344 166.664062 L 120.277344 168.734375 L 122.746094 168.734375 L 122.746094 169.667969 L 120.277344 169.667969 L 120.277344 173.625 C 120.277344 174.21875 120.359375 174.601562 120.523438 174.769531 C 120.683594 174.941406 121.015625 175.023438 121.515625 175.023438 L 122.746094 175.023438 L 122.746094 176.027344 L 121.515625 176.027344 C 120.589844 176.027344 119.953125 175.855469 119.601562 175.511719 C 119.25 175.164062 119.074219 174.535156 119.074219 173.625 L 119.074219 169.667969 L 118.195312 169.667969 L 118.195312 168.734375 L 119.074219 168.734375 L 119.074219 166.664062 Z M 120.277344 166.664062 "/>
<path style=" stroke:none;fill-rule:nonzero;fill:rgb(0%,0%,0%);fill-opacity:1;" d="M 130.558594 172.082031 L 130.558594 172.667969 L 125.050781 172.667969 C 125.105469 173.492188 125.351562 174.121094 125.796875 174.550781 C 126.242188 174.984375 126.859375 175.199219 127.65625 175.199219 C 128.113281 175.199219 128.558594 175.144531 128.992188 175.03125 C 129.425781 174.917969 129.855469 174.75 130.28125 174.523438 L 130.28125 175.65625 C 129.847656 175.839844 129.410156 175.976562 128.957031 176.074219 C 128.503906 176.167969 128.046875 176.214844 127.585938 176.214844 C 126.421875 176.214844 125.5 175.878906 124.820312 175.203125 C 124.140625 174.523438 123.800781 173.609375 123.800781 172.453125 C 123.800781 171.257812 124.121094 170.3125 124.765625 169.613281 C 125.410156 168.910156 126.28125 168.558594 127.375 168.558594 C 128.355469 168.558594 129.132812 168.875 129.703125 169.507812 C 130.273438 170.140625 130.558594 170.996094 130.558594 172.082031 Z M 129.359375 171.730469 C 129.351562 171.074219 129.167969 170.554688 128.8125 170.164062 C 128.453125 169.769531 127.980469 169.574219 127.386719 169.574219 C 126.71875 169.574219 126.183594 169.765625 125.785156 170.140625 C 125.382812 170.519531 125.152344 171.050781 125.089844 171.738281 Z M 129.359375 171.730469 "/>
<path style=" stroke:none;fill-rule:nonzero;fill:rgb(0%,0%,0%);fill-opacity:1;" d="M 137.171875 168.949219 L 137.171875 170.082031 C 136.835938 169.910156 136.484375 169.78125 136.117188 169.695312 C 135.753906 169.605469 135.375 169.5625 134.984375 169.5625 C 134.390625 169.5625 133.945312 169.652344 133.648438 169.835938 C 133.351562 170.015625 133.203125 170.289062 133.203125 170.65625 C 133.203125 170.933594 133.308594 171.152344 133.519531 171.308594 C 133.734375 171.46875 134.160156 171.621094 134.804688 171.761719 L 135.214844 171.855469 C 136.0625 172.035156 136.667969 172.292969 137.027344 172.625 C 137.386719 172.957031 137.5625 173.421875 137.5625 174.015625 C 137.5625 174.691406 137.296875 175.230469 136.761719 175.625 C 136.222656 176.019531 135.488281 176.214844 134.550781 176.214844 C 134.160156 176.214844 133.753906 176.179688 133.328125 176.101562 C 132.90625 176.027344 132.460938 175.910156 131.992188 175.761719 L 131.992188 174.523438 C 132.433594 174.753906 132.871094 174.925781 133.300781 175.042969 C 133.730469 175.15625 134.15625 175.210938 134.578125 175.210938 C 135.140625 175.210938 135.574219 175.117188 135.875 174.921875 C 136.179688 174.730469 136.332031 174.457031 136.332031 174.105469 C 136.332031 173.78125 136.222656 173.53125 136.003906 173.359375 C 135.785156 173.183594 135.304688 173.015625 134.5625 172.855469 L 134.144531 172.757812 C 133.402344 172.601562 132.867188 172.363281 132.539062 172.039062 C 132.207031 171.714844 132.042969 171.273438 132.042969 170.707031 C 132.042969 170.023438 132.285156 169.492188 132.773438 169.121094 C 133.257812 168.746094 133.949219 168.558594 134.84375 168.558594 C 135.285156 168.558594 135.699219 168.59375 136.089844 168.660156 C 136.484375 168.722656 136.84375 168.820312 137.171875 168.949219 Z M 137.171875 168.949219 "/>
<path style=" stroke:none;fill-rule:nonzero;fill:rgb(0%,0%,0%);fill-opacity:1;" d="M 140.65625 166.664062 L 140.65625 168.734375 L 143.125 168.734375 L 143.125 169.667969 L 140.65625 169.667969 L 140.65625 173.625 C 140.65625 174.21875 140.738281 174.601562 140.902344 174.769531 C 141.0625 174.941406 141.394531 175.023438 141.894531 175.023438 L 143.125 175.023438 L 143.125 176.027344 L 141.894531 176.027344 C 140.96875 176.027344 140.332031 175.855469 139.980469 175.511719 C 139.628906 175.164062 139.453125 174.535156 139.453125 173.625 L 139.453125 169.667969 L 138.574219 169.667969 L 138.574219 168.734375 L 139.453125 168.734375 L 139.453125 166.664062 Z M 140.65625 166.664062 "/>
</g>
</svg>
